<?xml version="1.0" encoding="utf-8"?>
<!DOCTYPE svg PUBLIC "-//W3C//DTD SVG 1.1//EN" "http://www.w3.org/Graphics/SVG/1.1/DTD/svg11.dtd">
<!-- exported from Silhouette Studio® Business Edition V4.3.370ssbe -->
<svg version="1.1" xmlns="http://www.w3.org/2000/svg" xmlns:xlink="http://www.w3.org/1999/xlink" width="304.8mm" height="600mm" viewBox="0 0 304.8 600">
<defs/>
<path d="M -88.0749 417.1241 C -89.87818 416.7192 -91.58698 415.7105 -92.86145 414.2987 C -94.30869 412.6956 -94.72459 411.998 -95.32265 410.1706 L -95.81448 408.6678 L -95.81718 293.0295 C -95.81925 204.0095 -95.77306 177.3331 -95.61653 177.1383 C -95.50469 176.9991 -95.19955 176.7711 -94.93842 176.6316 C -94.52695 176.4118 -69.89259 176.378 89.77724 176.378 L 274.0182 176.378 L 274.6002 176.9792 L 275.1823 177.5804 L 275.1721 292.5798 C 275.1665 355.8295 275.096 407.9373 275.0153 408.3751 C 274.644 410.3897 274.3338 411.2487 273.5378 412.4671 C 271.4916 415.5986 269.4084 416.9085 265.9772 417.2213 C 264.834 417.3255 197.7926 417.3845 88.57019 417.3773 C -59.17239 417.3676 -87.16975 417.3275 -88.0749 417.1241 Z" fill="none" fill-opacity="1" stroke="#000000" stroke-opacity="1" stroke-width="0.3527778" stroke-linecap="round" stroke-linejoin="round"/>
<path d="M 89.70685 317.5548 L 118.9003 317.5435 C 134.6405 317.518 156.3487 317.4891 180.2256 317.4631 C 262.6187 317.3733 267.0855 317.3516 267.74 317.0385 C 268.8828 316.4918 270.2127 314.7846 270.4906 313.5078 C 270.6103 312.9581 270.6718 293.1953 270.6747 254.4542 C 270.6783 206.2903 270.6381 196.0823 270.4417 195.3913 C 270.1251 194.2772 269.0014 193.094 267.6007 192.3998 L 266.4772 191.843 L 210.3852 191.7589 C 58.25156 191.5307 -86.95438 191.4851 -87.58597 191.6653 C -88.00642 191.7852 -88.6444 192.2573 -89.31892 192.9477 C -90.38322 194.037 -90.86806 194.806 -91.15213 195.8549 C -91.39863 196.7653 -91.37415 312.5851 -91.12724 313.557 C -90.84103 314.6838 -90.55046 315.2285 -89.7513 316.1362 C -88.49693 317.5608 -91.5793 317.4594 -49.48271 317.46 C -42.888 317.4601 -37.22966 317.4639 -32.44783 317.4717 L -9.908554 317.4899" fill="none" fill-opacity="1" stroke="#000000" stroke-opacity="1" stroke-width="0.3527778" stroke-linecap="round" stroke-linejoin="round"/>
<path d="M 263.0332 189.579 C 264.0842 189.2515 264.4243 189.0256 265.2663 188.0961 C 265.8125 187.4929 266.433 186.6086 266.6453 186.1308 C 267.0943 185.1196 267.1716 183.3581 266.8193 182.1603 C 266.3247 180.4786 264.2247 178.6581 262.0808 178.0524 C 259.9972 177.4637 256.6971 179.2679 255.4836 181.6593 C 254.9774 182.6568 254.9066 183.8337 255.2576 185.4251 C 255.5519 186.7603 255.6618 186.9597 256.6601 187.9686 C 258.5518 189.8804 260.4927 190.3708 263.0332 189.579 Z" fill="none" fill-opacity="1" stroke="#000000" stroke-opacity="1" stroke-width="0.3527778" stroke-linecap="round" stroke-linejoin="round"/>
<path d="M -10.11301 317.4066 L -10.11301 396.2303 L 89.88699 396.2303 L 89.88699 317.5886" fill="none" fill-opacity="1" stroke="#000000" stroke-opacity="1" stroke-width="0.3527778" stroke-linecap="round" stroke-linejoin="round"/>
<path d="M -9.487167 328.0876 L -9.487167 381.5876 L 89.51278 381.5876 L 89.51278 328.0876 L -9.487167 328.0876 Z" fill="none" fill-opacity="1" stroke="#000000" stroke-opacity="1" stroke-width="0.3527778" stroke-linecap="round" stroke-linejoin="round"/>
<path d="M -9.152878 382.3037 L -9.152878 395.3037 L 38.84715 395.3037 L 38.84715 382.3037 L -9.152878 382.3037 Z" fill="none" fill-opacity="1" stroke="#000000" stroke-opacity="1" stroke-width="0.3527778" stroke-linecap="round" stroke-linejoin="round"/>
<path d="M 40.92607 382.3038 L 40.92609 395.3038 L 88.92609 395.3038 L 88.92609 382.3038 L 40.92607 382.3038 Z" fill="none" fill-opacity="1" stroke="#000000" stroke-opacity="1" stroke-width="0.3527778" stroke-linecap="round" stroke-linejoin="round"/>
</svg>