<?xml version="1.0" encoding="UTF-8" standalone="no"?>
<!-- Created with Inkscape (http://www.inkscape.org/) -->

<svg
   xmlns:dc="http://purl.org/dc/elements/1.1/"
   xmlns:cc="http://creativecommons.org/ns#"
   xmlns:rdf="http://www.w3.org/1999/02/22-rdf-syntax-ns#"
   xmlns:svg="http://www.w3.org/2000/svg"
   xmlns="http://www.w3.org/2000/svg"
   xmlns:sodipodi="http://sodipodi.sourceforge.net/DTD/sodipodi-0.dtd"
   xmlns:inkscape="http://www.inkscape.org/namespaces/inkscape"
   width="594mm"
   height="841mm"
   viewBox="0 0 594 841"
   version="1.1"
   id="svg8"
   inkscape:version="0.92.3 (2405546, 2018-03-11)"
   sodipodi:docname="E6500_E6510_PR.svg">
  <defs
     id="defs2" />
  <sodipodi:namedview
     id="base"
     pagecolor="#ffffff"
     bordercolor="#666666"
     borderopacity="1.0"
     inkscape:pageopacity="0.0"
     inkscape:pageshadow="2"
     inkscape:zoom="0.49497475"
     inkscape:cx="1366.0122"
     inkscape:cy="944.66418"
     inkscape:document-units="mm"
     inkscape:current-layer="layer1"
     showgrid="false"
     showguides="true"
     inkscape:guide-bbox="true"
     inkscape:window-width="1920"
     inkscape:window-height="1017"
     inkscape:window-x="-8"
     inkscape:window-y="-8"
     inkscape:window-maximized="1" />
  <metadata
     id="metadata5">
    <rdf:RDF>
      <cc:Work
         rdf:about="">
        <dc:format>image/svg+xml</dc:format>
        <dc:type
           rdf:resource="http://purl.org/dc/dcmitype/StillImage" />
        <dc:title></dc:title>
      </cc:Work>
    </rdf:RDF>
  </metadata>
  <g
     inkscape:label="Layer 1"
     inkscape:groupmode="layer"
     id="layer1"
     transform="translate(0,544)">
    <g
       id="g1053">
      <g
         style="stroke-width:0.9961794"
         transform="matrix(1.0076851,0,0,1,-0.70045472,-2.8263849)"
         id="g866">
        <path
           sodipodi:nodetypes="ccccc"
           inkscape:connector-curvature="0"
           id="rect815"
           d="M 226.57343,134.35876 H 104.92621 V 65.711533 h 121.64722 v 63.999997"
           style="opacity:1;fill:none;fill-opacity:0.12093021;stroke:#000000;stroke-width:0.35142994;stroke-miterlimit:4;stroke-dasharray:none;stroke-opacity:1" />
        <path
           sodipodi:nodetypes="ccccc"
           inkscape:connector-curvature="0"
           id="rect817"
           d="m 307.22065,129.71153 -10e-6,-63.99999 h 149.64722 v 68.64722 H 307.22064"
           style="opacity:1;fill:none;fill-opacity:0.12093021;stroke:#000000;stroke-width:0.35142997;stroke-miterlimit:4;stroke-dasharray:none;stroke-opacity:1" />
        <path
           sodipodi:nodetypes="cccc"
           inkscape:connector-curvature="0"
           id="rect819"
           d="m 226.57343,129.71153 h 80.64722 m 0,4.64722 h -80.64722"
           style="opacity:1;fill:none;fill-opacity:0.12093021;stroke:#000000;stroke-width:0.35142997;stroke-miterlimit:4;stroke-dasharray:none;stroke-opacity:1" />
      </g>
      <path
         inkscape:connector-curvature="0"
         id="rect821"
         d="m 132.89034,41.794132 h 91.64722 c 0.554,0 1,0.446 1,1 v 15.64722 c 0,0.554 -0.446,1 -1,1 h -91.64722 c -0.554,0 -1,-0.446 -1,-1 v -15.64722 c 0,-0.554 0.446,-1 1,-1 z"
         style="opacity:1;fill:none;fill-opacity:0.12093021;stroke:#000000;stroke-width:0.35277778;stroke-miterlimit:4;stroke-dasharray:none;stroke-opacity:1" />
      <g
         transform="translate(542.19667,98.72498)"
         id="g858">
        <path
           sodipodi:nodetypes="cssssssc"
           inkscape:connector-curvature="0"
           id="rect823"
           d="m -167.43017,-40.910688 h -63.64722 c -0.554,0 -1,-0.446001 -1,-1.000001 V -57.55791 c 0,-0.554001 0.446,-1.000001 1,-1.000001 h 63.64722 c 0.554,0 0.99679,0.446009 1,1.000001 l 0.0753,12.999999"
           style="opacity:1;fill:none;fill-opacity:0.12093021;stroke:#000000;stroke-width:0.35277778;stroke-miterlimit:4;stroke-dasharray:none;stroke-opacity:1" />
        <path
           sodipodi:nodetypes="cssssc"
           inkscape:connector-curvature="0"
           id="rect825"
           d="m -166.35488,-44.557911 h 53.57193 c 0.554,0 1,0.446 1,1.000001 v 1.647221 c 0,0.554 -0.446,1 -1,1 l -54.64722,10e-7"
           style="opacity:1;fill:none;fill-opacity:0.12093021;stroke:#000000;stroke-width:0.35277781;stroke-miterlimit:4;stroke-dasharray:none;stroke-opacity:1" />
      </g>
      <g
         id="g944">
        <g
           id="g900"
           transform="translate(-0.26726952)">
          <path
             sodipodi:nodetypes="cccccccccccc"
             inkscape:connector-curvature="0"
             id="rect827"
             d="m 468.16508,134.35878 v 4.64722 l -168.60676,-3e-5 m -34.64722,0 -167.39324,3e-5 v -4.64722 m 6.64722,0 95.59234,-0.0438 m 13.64723,0 137.64721,0.006 m 13.64722,0 96.81877,0.0383"
             style="opacity:1;fill:none;fill-opacity:0.12093021;stroke:#000000;stroke-width:0.35277778;stroke-miterlimit:4;stroke-dasharray:none;stroke-opacity:1" />
          <path
             sodipodi:nodetypes="cccccccc"
             inkscape:connector-curvature="0"
             id="rect829"
             d="m 97.51786,134.35878 0.01074,-78.352792 m 0,-11.647223 -0.01074,-144.647205 h 6.64722 l -0.18977,144.647205 m 0,11.647223 0.18977,78.352792"
             style="opacity:1;fill:none;fill-opacity:0.12093021;stroke:#000000;stroke-width:0.35277781;stroke-miterlimit:4;stroke-dasharray:none;stroke-opacity:1" />
          <path
             sodipodi:nodetypes="cccccccc"
             inkscape:connector-curvature="0"
             id="rect829-1"
             d="m 467.97462,56.005988 0.19045,78.352812 m -6.64722,0 0.0154,-78.352812 m 0,-11.647223 -0.0154,-144.647205 h 6.64722 l -0.19045,144.647205"
             style="opacity:1;fill:none;fill-opacity:0.12093021;stroke:#000000;stroke-width:0.35277781;stroke-miterlimit:4;stroke-dasharray:none;stroke-opacity:1" />
          <path
             sodipodi:nodetypes="cccc"
             inkscape:connector-curvature="0"
             id="rect875"
             d="m 103.97531,56.005988 h -6.446708 m 0,-11.647223 h 6.446708"
             style="opacity:1;fill:none;fill-opacity:0.12093021;stroke:#000000;stroke-width:0.35277775;stroke-miterlimit:4;stroke-dasharray:none;stroke-opacity:1" />
          <path
             sodipodi:nodetypes="cccc"
             inkscape:connector-curvature="0"
             id="rect875-9"
             d="m 467.97462,56.005988 h -6.44133 m 0,-11.647223 h 6.44133"
             style="opacity:1;fill:none;fill-opacity:0.12093021;stroke:#000000;stroke-width:0.35277775;stroke-miterlimit:4;stroke-dasharray:none;stroke-opacity:1" />
        </g>
        <g
           id="g931"
           transform="translate(-12.438101)">
          <path
             sodipodi:nodetypes="cccc"
             inkscape:connector-curvature="0"
             id="rect902"
             d="m 225.57548,134.31511 v 2.71264 h -13.64723 v -2.71264"
             style="opacity:1;fill:none;fill-opacity:0.12093021;stroke:#000000;stroke-width:0.35277778;stroke-miterlimit:4;stroke-dasharray:none;stroke-opacity:1" />
          <path
             sodipodi:nodetypes="cccc"
             inkscape:connector-curvature="0"
             id="rect902-4"
             d="m 376.86991,134.32048 v 2.70727 h -13.64722 v -2.70727"
             style="opacity:1;fill:none;fill-opacity:0.12093021;stroke:#000000;stroke-width:0.35277778;stroke-miterlimit:4;stroke-dasharray:none;stroke-opacity:1" />
        </g>
      </g>
      <path
         sodipodi:nodetypes="cccc"
         inkscape:connector-curvature="0"
         id="rect946"
         d="m 264.64383,139.00597 2.11667,-2.72774 h 30.41388 l 2.11667,2.72774"
         style="opacity:1;fill:none;fill-opacity:0.12093021;stroke:#000000;stroke-width:0.35277778;stroke-miterlimit:4;stroke-dasharray:none;stroke-opacity:1" />
      <path
         inkscape:connector-curvature="0"
         id="rect957"
         d="m 229.41314,66.274567 h 77.3853 c 0.34955,0 0.63096,0.643781 0.63096,1.443453 v 40.76024 c 0,0.79967 -0.28141,1.44345 -0.63096,1.44345 h -77.3853 c -0.34956,0 -0.63096,-0.64378 -0.63096,-1.44345 V 67.71802 c 0,-0.799672 0.2814,-1.443453 0.63096,-1.443453 z"
         style="opacity:1;fill:none;fill-opacity:0.12093021;stroke:#000000;stroke-width:0.35277778;stroke-miterlimit:4;stroke-dasharray:none;stroke-opacity:1" />
      <g
         transform="translate(2.6053439,52.91649)"
         id="g986">
        <path
           sodipodi:nodetypes="cccccccc"
           inkscape:connector-curvature="0"
           id="rect871"
           d="m 224.21106,-153.22262 110.88897,-1e-5 m 13.64722,0 108.25077,0.0177 v 19.64722 H 102.3508 v -19.64722 l 108.21303,-0.0175"
           style="opacity:1;fill:none;fill-opacity:0.12093021;stroke:#000000;stroke-width:0.35277772;stroke-miterlimit:4;stroke-dasharray:none;stroke-opacity:1" />
        <path
           inkscape:connector-curvature="0"
           id="rect951"
           d="m 431.70358,-149.50087 h 10.64723 c 0.554,0 1,0.446 1,1 v 10.64722 c 0,0.554 -0.446,1 -1,1 h -10.64723 c -0.554,0 -1,-0.446 -1,-1 v -10.64722 c 0,-0.554 0.446,-1 1,-1 z"
           style="opacity:1;fill:none;fill-opacity:0.12093021;stroke:#000000;stroke-width:0.35277778;stroke-miterlimit:4;stroke-dasharray:none;stroke-opacity:1" />
        <path
           inkscape:connector-curvature="0"
           id="rect953"
           d="m 408.70355,-142.70494 h 13.64723 c 0.554,0 1,0.446 1,1 v 3.64722 c 0,0.554 -0.446,1 -1,1 h -13.64723 c -0.554,0 -1,-0.446 -1,-1 v -3.64722 c 0,-0.554 0.446,-1 1,-1 z"
           style="opacity:1;fill:none;fill-opacity:0.12093021;stroke:#000000;stroke-width:0.35277778;stroke-miterlimit:4;stroke-dasharray:none;stroke-opacity:1" />
        <g
           id="g978"
           transform="translate(1.507589,-99.84061)">
          <path
             sodipodi:nodetypes="cssssc"
             inkscape:connector-curvature="0"
             id="rect959"
             d="m 222.70347,-53.382014 v 1.643947 c 0,0.554001 -0.446,1.000001 -1,1.000001 h -11.64723 c -0.554,0 -1,-0.446 -1,-1.000001 v -1.643947"
             style="opacity:1;fill:none;fill-opacity:0.12093021;stroke:#000000;stroke-width:0.35277778;stroke-miterlimit:4;stroke-dasharray:none;stroke-opacity:1" />
          <path
             sodipodi:nodetypes="cssssc"
             inkscape:connector-curvature="0"
             id="rect959-4"
             d="m 347.23966,-53.382017 v 1.643946 c 0,0.554001 -0.446,1.000001 -1,1.000001 h -11.64722 c -0.554,0 -1,-0.446 -1,-1.000001 v -1.643946"
             style="opacity:1;fill:none;fill-opacity:0.12093021;stroke:#000000;stroke-width:0.35277778;stroke-miterlimit:4;stroke-dasharray:none;stroke-opacity:1" />
        </g>
      </g>
      <rect
         y="112.65044"
         x="229.35349"
         height="12.647223"
         width="37.647221"
         id="rect1007"
         style="opacity:1;fill:none;fill-opacity:0.12093021;stroke:#000000;stroke-width:0.35277781;stroke-miterlimit:4;stroke-dasharray:none;stroke-opacity:1" />
      <rect
         y="112.65044"
         x="269.11728"
         height="12.647223"
         width="37.647221"
         id="rect1007-4"
         style="opacity:1;fill:none;fill-opacity:0.12093021;stroke:#000000;stroke-width:0.35277781;stroke-miterlimit:4;stroke-dasharray:none;stroke-opacity:1" />
    </g>
  </g>
</svg>
