<?xml version="1.0" encoding="utf-8"?>
<!-- Generator: Adobe Illustrator 25.2.1, SVG Export Plug-In . SVG Version: 6.00 Build 0)  -->
<svg version="1.1" id="Layer_1" xmlns="http://www.w3.org/2000/svg" xmlns:xlink="http://www.w3.org/1999/xlink" x="0px" y="0px"
	 viewBox="0 0 4280.3 1133.9" style="enable-background:new 0 0 4280.3 1133.9;" xml:space="preserve">
<style type="text/css">
	.st0{fill:none;stroke:#010101;stroke-width:1.3333;stroke-linecap:round;stroke-linejoin:round;}
	.st1{enable-background:new    ;}
	.st2{fill:none;stroke:#010101;stroke-width:1.0255;stroke-linecap:round;stroke-linejoin:round;}
	.st3{fill:none;stroke:#010101;stroke-width:1.0255;}
	.st4{fill:none;stroke:#010101;stroke-width:1.3333;}
</style>
<g id="g901_1_">
	<path id="path4_1_" class="st0" d="M337.6,22.4l-193.7,0.2c-3.5,0-22.6,2.9-22.5,20.9l0.2,378.7 M121.7,459.2l-0.2,210.7
		 M121.5,706.9v360.5c0,3.3,5.5,20.9,24.7,20.8l192,0.1"/>
	<path id="path6_1_" class="st0" d="M337.6,22.4l0.4,263"/>
	<path id="path8_1_" class="st0" d="M338.3,513.8v574.4"/>
	<g id="g854_1_" transform="matrix(0,-1.2654542,1.3359614,0,-624.71522,1337.594)" class="st1">
		<g id="g858_1_">
			<path id="path10_1_" class="st2" d="M831.4,720.6l-0.4-138c0-1.3,0.9-5-4.4-5H655.1"/>
			<path id="path12_1_" class="st2" d="M655.1,577.6c0,0-5.5-0.5-4.4,5.3l0.3,137.9"/>
		</g>
		<path id="rect860_1_" class="st3" d="M826.4,717.6H656.1c-0.9,0-1.7-0.8-1.7-1.7v-91.1c0-0.9,0.8-1.7,1.7-1.7h170.3
			c0.9,0,1.7,0.8,1.7,1.7v91.1C828.2,716.8,827.4,717.6,826.4,717.6z"/>
	</g>
	<path id="rect862_1_" class="st4" d="M191.9,294.8V397c0,1.3-1,2.2-2.2,2.2h-35c-1.3,0-2.2-1-2.2-2.2V294.8c0-1.3,1-2.2,2.2-2.2
		h34.9C190.9,292.6,191.9,293.5,191.9,294.8z"/>
	<path id="rect862-7_1_" class="st4" d="M191.9,404.4v102.2c0,1.3-1,2.2-2.2,2.2h-35c-1.3,0-2.2-1-2.2-2.2V404.4
		c0-1.3,1-2.2,2.2-2.2h34.9C190.9,402.2,191.9,403.1,191.9,404.4z"/>
	<path id="path16_1_" class="st0" d="M122.6,459.2h8.3l-0.1-37h-8.3"/>
	<path id="path18_1_" class="st0" d="M121.6,706.9h8.3l-0.1-37h-8.3"/>
</g>
</svg>
