<?xml version="1.0" encoding="utf-8"?>
<!-- Generator: Adobe Illustrator 25.2.1, SVG Export Plug-In . SVG Version: 6.00 Build 0)  -->
<svg version="1.1" id="Layer_1" xmlns="http://www.w3.org/2000/svg" xmlns:xlink="http://www.w3.org/1999/xlink" x="0px" y="0px"
	 viewBox="0 0 4280.3 1133.9" style="enable-background:new 0 0 4280.3 1133.9;" xml:space="preserve">
<style type="text/css">
	.st0{fill:none;stroke:#010101;stroke-width:1;stroke-miterlimit:11.3386;}
</style>
<g id="layer1">
	<g id="g841">
		<g id="g849">
			<path id="rect817" class="st0" d="M139.6,58.6v1016.6c0,14.1-11.4,25.5-25.5,25.5H61.2c0.1-370.6-0.1-750,0-1067.7h52.8
				C128.2,33.1,139.6,44.5,139.6,58.6z"/>
			<path id="rect821" class="st0" d="M106.3,97.3v103.9c0,1.6-1.3,2.8-2.8,2.8H81.7c-1.6,0-2.8-1.3-2.8-2.8V97.3
				c0-1.6,1.3-2.8,2.8-2.8h21.7C105,94.5,106.3,95.7,106.3,97.3z"/>
			<path id="rect821-2" class="st0" d="M110.3,992.2v27.3c0,1.6-1.3,2.8-2.8,2.8H80.1c-1.6,0-2.8-1.3-2.8-2.8v-27.3
				c0-1.6,1.3-2.8,2.8-2.8h27.3C109,989.4,110.3,990.6,110.3,992.2z"/>
		</g>
	</g>
</g>
</svg>
