<?xml version="1.0" encoding="utf-8"?>
<!-- Generator: Adobe Illustrator 25.2.1, SVG Export Plug-In . SVG Version: 6.00 Build 0)  -->
<svg version="1.1" id="Layer_1" xmlns="http://www.w3.org/2000/svg" xmlns:xlink="http://www.w3.org/1999/xlink" x="0px" y="0px"
	 viewBox="0 0 4280.3 1133.9" style="enable-background:new 0 0 4280.3 1133.9;" xml:space="preserve">
<style type="text/css">
	.st0{fill:none;stroke:#010101;stroke-width:1.3333;stroke-linecap:round;stroke-linejoin:round;}
	.st1{enable-background:new    ;}
	.st2{fill:none;stroke:#010101;stroke-width:1.0255;stroke-linecap:round;stroke-linejoin:round;}
	.st3{fill:none;stroke:#010101;stroke-width:1.0255;}
	.st4{fill:none;stroke:#010101;stroke-width:1.3333;}
</style>
<g id="g844">
	<g id="g901_1_">
		<path id="path4_1_" class="st0" d="M375.6,43.2l-193.7,0.2c-3.5,0-22.6,2.9-22.5,20.9l0.2,378.7 M159.7,480l-0.2,210.7
			 M159.5,727.7v360.5c0,3.3,5.5,20.9,24.7,20.8l192,0.1"/>
		<path id="path6_1_" class="st0" d="M375.6,43.2l0.4,263"/>
		<path id="path8_1_" class="st0" d="M376.3,534.6V1109"/>
		<g id="g854_1_" transform="matrix(0,-1.2654542,1.3359614,0,-624.71522,1337.594)" class="st1">
			<g id="g858_1_">
				<path id="path10_1_" class="st2" d="M815,749.1l-0.4-138c0-1.3,0.9-5-4.4-5H638.7"/>
				<path id="path12_1_" class="st2" d="M638.7,606c0,0-5.5-0.5-4.4,5.3l0.3,137.9"/>
			</g>
			<path id="rect860_1_" class="st3" d="M810,746H639.7c-0.9,0-1.7-0.8-1.7-1.7v-91.1c0-0.9,0.8-1.7,1.7-1.7H810
				c0.9,0,1.7,0.8,1.7,1.7v91.1C811.8,745.2,811,746,810,746z"/>
		</g>
		<path id="rect862_1_" class="st4" d="M229.9,315.6v102.2c0,1.3-1,2.2-2.2,2.2h-35c-1.3,0-2.2-1-2.2-2.2V315.6c0-1.3,1-2.2,2.2-2.2
			h34.9C228.8,313.4,229.9,314.3,229.9,315.6z"/>
		<path id="rect862-7_1_" class="st4" d="M229.9,425.2v102.2c0,1.3-1,2.2-2.2,2.2h-35c-1.3,0-2.2-1-2.2-2.2V425.2
			c0-1.3,1-2.2,2.2-2.2h34.9C228.8,423,229.9,423.9,229.9,425.2z"/>
		<path id="path16_1_" class="st0" d="M160.5,480h8.3l-0.1-37h-8.3"/>
		<path id="path18_1_" class="st0" d="M159.6,727.7h8.3l-0.1-37h-8.3"/>
	</g>
	<path id="rect826" class="st4" d="M333.9,763.2v48.5c0,0.4-0.3,0.7-0.7,0.7H301c-0.4,0-0.7-0.3-0.7-0.7v-48.5
		c0-0.4,0.3-0.7,0.7-0.7h32.2C333.5,762.4,333.9,762.8,333.9,763.2z"/>
</g>
</svg>
