<?xml version="1.0" encoding="UTF-8" standalone="no"?>
<!-- Created with Inkscape (http://www.inkscape.org/) -->

<svg
   xmlns:dc="http://purl.org/dc/elements/1.1/"
   xmlns:cc="http://creativecommons.org/ns#"
   xmlns:rdf="http://www.w3.org/1999/02/22-rdf-syntax-ns#"
   xmlns:svg="http://www.w3.org/2000/svg"
   xmlns="http://www.w3.org/2000/svg"
   xmlns:sodipodi="http://sodipodi.sourceforge.net/DTD/sodipodi-0.dtd"
   xmlns:inkscape="http://www.inkscape.org/namespaces/inkscape"
   width="210mm"
   height="297mm"
   viewBox="0 0 210 297"
   version="1.1"
   id="svg8"
   inkscape:version="0.92.3 (2405546, 2018-03-11)"
   sodipodi:docname="e6530_PR_TOP.svg">
  <defs
     id="defs2" />
  <sodipodi:namedview
     id="base"
     pagecolor="#ffffff"
     bordercolor="#666666"
     borderopacity="1.0"
     inkscape:pageopacity="0.0"
     inkscape:pageshadow="2"
     inkscape:zoom="0.35"
     inkscape:cx="684.65448"
     inkscape:cy="560"
     inkscape:document-units="mm"
     inkscape:current-layer="g841"
     showgrid="false"
     inkscape:window-width="1920"
     inkscape:window-height="1017"
     inkscape:window-x="-8"
     inkscape:window-y="-8"
     inkscape:window-maximized="1" />
  <metadata
     id="metadata5">
    <rdf:RDF>
      <cc:Work
         rdf:about="">
        <dc:format>image/svg+xml</dc:format>
        <dc:type
           rdf:resource="http://purl.org/dc/dcmitype/StillImage" />
        <dc:title></dc:title>
      </cc:Work>
    </rdf:RDF>
  </metadata>
  <g
     inkscape:label="Layer 1"
     inkscape:groupmode="layer"
     id="layer1">
    <g
       id="g841">
      <g
         id="g849"
         style="stroke:#000000;stroke-opacity:1;stroke-width:0.35277778;stroke-miterlimit:4;stroke-dasharray:none">
        <path
           sodipodi:nodetypes="sssccss"
           inkscape:connector-curvature="0"
           id="rect817"
           d="m -148.23808,129.50159 h 358.64721 c 4.986,0 9,4.014 9,9 v 18.64305 c -130.738004,-0.0436 -264.577786,0.0471 -376.64721,0 v -18.64305 c 0,-4.986 4.014,-9 9,-9 z"
           style="opacity:1;fill:none;fill-opacity:0.32558139;stroke:#000000;stroke-width:0.35277778;stroke-miterlimit:4;stroke-dasharray:none;stroke-opacity:1" />
        <path
           id="rect821"
           d="m -134.59087,141.26689 h 36.647225 c 0.554,0 1,0.446 1,1 v 7.64722 c 0,0.554 -0.446,1 -1,1 h -36.647225 c -0.554,0 -1,-0.446 -1,-1 v -7.64722 c 0,-0.554 0.446,-1 1,-1 z"
           style="opacity:1;fill:none;fill-opacity:0.32558139;stroke:#000000;stroke-width:0.35277778;stroke-miterlimit:4;stroke-dasharray:none;stroke-opacity:1" />
        <path
           id="rect821-2"
           d="m 181.1147,139.85437 h 9.64722 c 0.554,0 1,0.446 1,1 v 9.64722 c 0,0.554 -0.446,1 -1,1 h -9.64722 c -0.554,0 -1,-0.446 -1,-1 v -9.64722 c 0,-0.554 0.446,-1 1,-1 z"
           style="opacity:1;fill:none;fill-opacity:0.32558139;stroke:#000000;stroke-width:0.35277778;stroke-miterlimit:4;stroke-dasharray:none;stroke-opacity:1" />
      </g>
    </g>
  </g>
</svg>
