<?xml version="1.0" encoding="UTF-8" standalone="no"?>
<!-- Generator: Adobe Illustrator 24.2.2, SVG Export Plug-In . SVG Version: 6.00 Build 0)  -->

<svg
   xmlns:dc="http://purl.org/dc/elements/1.1/"
   xmlns:cc="http://creativecommons.org/ns#"
   xmlns:rdf="http://www.w3.org/1999/02/22-rdf-syntax-ns#"
   xmlns:svg="http://www.w3.org/2000/svg"
   xmlns="http://www.w3.org/2000/svg"
   xmlns:sodipodi="http://sodipodi.sourceforge.net/DTD/sodipodi-0.dtd"
   xmlns:inkscape="http://www.inkscape.org/namespaces/inkscape"
   version="1.1"
   id="svg8"
   x="0px"
   y="0px"
   viewBox="0 0 2245.0394 3178.5826"
   xml:space="preserve"
   sodipodi:docname="e6540_PR_NEW.svg"
   width="594mm"
   height="841mm"
   inkscape:version="0.92.3 (2405546, 2018-03-11)"><metadata
   id="metadata180"><rdf:RDF><cc:Work
       rdf:about=""><dc:format>image/svg+xml</dc:format><dc:type
         rdf:resource="http://purl.org/dc/dcmitype/StillImage" /><dc:title></dc:title></cc:Work></rdf:RDF></metadata><defs
   id="defs178">
			
			
			
			
			
			
			
		</defs>
<style
   type="text/css"
   id="style2">
	.st0{fill:none;stroke:#000000;stroke-miterlimit:11.3386;}
</style>
<sodipodi:namedview
   bordercolor="#666666"
   borderopacity="1.0"
   id="base"
   inkscape:current-layer="layer1_12_"
   inkscape:cx="616.86754"
   inkscape:cy="527.06168"
   inkscape:document-units="mm"
   inkscape:guide-bbox="true"
   inkscape:pageopacity="0.0"
   inkscape:pageshadow="2"
   inkscape:window-height="1017"
   inkscape:window-maximized="1"
   inkscape:window-width="1920"
   inkscape:window-x="-8"
   inkscape:window-y="-8"
   inkscape:zoom="1.4246316"
   pagecolor="#ffffff"
   showgrid="false"
   showguides="true"
   units="mm">
	</sodipodi:namedview>
<g
   id="layer1"
   inkscape:groupmode="layer"
   inkscape:label="Layer 1"
   transform="translate(0,2336.6826)">
	
	<g
   id="layer1_12_"
   inkscape:groupmode="layer"
   inkscape:label="Layer 1">
		<g
   id="g1020"><path
     id="rect821_12_"
     inkscape:connector-curvature="0"
     sodipodi:nodetypes="cssssc"
     class="st0"
     d="m 881.13865,112.75387 -0.0259,220.0615 c -0.057,6.83134 -1.46465,8.52883 -5.78405,8.49678 l -302.93425,-0.0149 c -4.31941,-0.0321 -5.83893,-1.6199 -5.7819,-8.45124 l 0.0281,-220.32424"
     style="fill:none;stroke:#000000;stroke-width:0.99999994;stroke-miterlimit:11.33860016" /><path
     id="rect819_12_"
     inkscape:connector-curvature="0"
     sodipodi:nodetypes="cccccc"
     class="st0"
     d="m 227.46154,149.379 0.0751,-37.15344 339.10405,0.29621 m 314.498,0.2321 750.97321,-0.66666 0.083,28.66805"
     style="fill:none;stroke:#000000;stroke-width:1;stroke-miterlimit:11.33860016" /><path
     id="rect831_12_"
     inkscape:connector-curvature="0"
     sodipodi:nodetypes="cssccssc"
     class="st0"
     d="m 1632.326,140.88764 0.066,191.94686 c 0.069,24.7 -20.1201,44.71812 -45.0595,44.71208 l -490.303,-0.11881 m -36.7292,-0.0889 -787.6943,0.33663 c -24.93943,0.0107 -45.07634,-19.92707 -45.14533,-44.62707 l -3.8e-4,-183.53801"
     style="fill:none;stroke:#000000;stroke-width:1;stroke-miterlimit:11.33860016" /><path
     sodipodi:nodetypes="cccc"
     id="rect840_12_"
     class="st0"
     d="m 1060.3003,377.33887 -0.063,-21.94667 36.7292,0.0889 0.063,21.94667"
     inkscape:connector-curvature="0"
     style="fill:none;stroke:#000000;stroke-width:1;stroke-miterlimit:11.33860016" /><path
     id="rect842_12_"
     class="st0"
     d="m 583.38125,114.57919 276.98039,-0.074 c 4.11199,0.0321 7.53466,3.34324 7.50229,7.41578 l 0.0202,147.6714 c -0.0324,4.07253 -3.37564,7.46235 -7.48763,7.43029 l -276.98039,0.074 c -4.11199,-0.0321 -7.53466,-3.34325 -7.50229,-7.41578 l -0.0201,-147.6714 c -0.0992,-4.20494 3.37564,-7.46235 7.48763,-7.43029 z"
     inkscape:connector-curvature="0"
     style="fill:none;stroke:#000000;stroke-width:1;stroke-miterlimit:11.33860016" /><path
     id="rect844_12_"
     class="st0"
     d="m 729.15526,282.96258 133.97974,-0.006 c 2.12232,0.0165 3.70153,1.60542 3.81747,3.70841 l 0.0534,43.35585 c -0.0167,2.10195 -1.62097,3.66601 -3.74433,3.78083 l -133.97975,0.006 c -2.12232,-0.0165 -3.70153,-1.60542 -3.81746,-3.7084 l -0.0534,-43.35586 c 0.0177,-2.23332 1.75466,-3.79634 3.74434,-3.78083 z"
     inkscape:connector-curvature="0"
     style="fill:none;stroke:#000000;stroke-width:1;stroke-miterlimit:11.33860016" /><path
     id="rect844-1_12_"
     class="st0"
     d="m 581.24153,283.64871 133.97974,-0.006 c 2.12232,0.0165 3.70153,1.60542 3.81747,3.7084 l 0.0534,43.35586 c -0.0167,2.10195 -1.62098,3.666 -3.74434,3.78083 l -133.97974,0.006 c -2.12232,-0.0165 -3.70153,-1.60542 -3.81747,-3.70841 l -0.0534,-43.35585 c 0.0177,-2.23332 1.62202,-3.79738 3.74434,-3.78083 z"
     inkscape:connector-curvature="0"
     style="fill:none;stroke:#000000;stroke-width:1;stroke-miterlimit:11.33860016" /></g>
	</g>
</g>
<g
   id="layer1_1_"
   inkscape:groupmode="layer"
   inkscape:label="Layer 1"
   transform="translate(0,2336.6826)">
	
	<g
   id="layer1_2_"
   inkscape:groupmode="layer"
   inkscape:label="Layer 1">
		
	</g>
</g>
<g
   id="layer1_5_"
   inkscape:groupmode="layer"
   inkscape:label="Layer 1"
   transform="translate(0,2336.6826)">
	
	<g
   id="layer1_6_"
   inkscape:groupmode="layer"
   inkscape:label="Layer 1">
		
	</g>
</g>
<g
   id="layer1_3_"
   inkscape:groupmode="layer"
   inkscape:label="Layer 1"
   transform="translate(0,2336.6826)">
	
	<g
   id="layer1_4_"
   inkscape:groupmode="layer"
   inkscape:label="Layer 1">
		
	</g>
</g>
<g
   id="layer1_14_"
   inkscape:groupmode="layer"
   inkscape:label="Layer 1"
   transform="translate(0,2336.6826)">
	
	<g
   id="layer1_15_"
   inkscape:groupmode="layer"
   inkscape:label="Layer 1">
		
	</g>
</g>
<g
   id="layer1_11_"
   inkscape:groupmode="layer"
   inkscape:label="Layer 1"
   transform="translate(0,2336.6826)">
	
	<g
   id="layer1_13_"
   inkscape:groupmode="layer"
   inkscape:label="Layer 1">
		
	</g>
</g>
<g
   id="layer1_9_"
   inkscape:groupmode="layer"
   inkscape:label="Layer 1"
   transform="translate(0,2336.6826)">
	
	<g
   id="layer1_10_"
   inkscape:groupmode="layer"
   inkscape:label="Layer 1">
		
	</g>
</g>
<g
   id="layer1_7_"
   inkscape:groupmode="layer"
   inkscape:label="Layer 1"
   transform="translate(0,2336.6826)">
	
	<g
   id="layer1_8_"
   inkscape:groupmode="layer"
   inkscape:label="Layer 1">
		
	</g>
</g>
<g
   id="layer1_18_"
   inkscape:groupmode="layer"
   inkscape:label="Layer 1"
   transform="translate(0,2336.6826)">
	
	<g
   id="layer1_19_"
   inkscape:groupmode="layer"
   inkscape:label="Layer 1">
		
	</g>
</g>
<g
   id="layer1_16_"
   inkscape:groupmode="layer"
   inkscape:label="Layer 1"
   transform="translate(0,2336.6826)">
	<g
   id="layer1_17_"
   inkscape:groupmode="layer"
   inkscape:label="Layer 1">
		
	</g>
</g>
</svg>