<?xml version="1.0" encoding="UTF-8" standalone="no"?>
<!-- Generator: Adobe Illustrator 25.2.0, SVG Export Plug-In . SVG Version: 6.00 Build 0)  -->

<svg
   xmlns:dc="http://purl.org/dc/elements/1.1/"
   xmlns:cc="http://creativecommons.org/ns#"
   xmlns:rdf="http://www.w3.org/1999/02/22-rdf-syntax-ns#"
   xmlns:svg="http://www.w3.org/2000/svg"
   xmlns="http://www.w3.org/2000/svg"
   xmlns:sodipodi="http://sodipodi.sourceforge.net/DTD/sodipodi-0.dtd"
   xmlns:inkscape="http://www.inkscape.org/namespaces/inkscape"
   version="1.1"
   id="Layer_1"
   x="0px"
   y="0px"
   viewBox="0 0 4280.3 1133.9"
   style="enable-background:new 0 0 4280.3 1133.9;"
   xml:space="preserve"
   sodipodi:docname="E6540_PR_TOP+BOT2.svg"
   inkscape:version="0.92.3 (2405546, 2018-03-11)"><metadata
   id="metadata25"><rdf:RDF><cc:Work
       rdf:about=""><dc:format>image/svg+xml</dc:format><dc:type
         rdf:resource="http://purl.org/dc/dcmitype/StillImage" /><dc:title></dc:title></cc:Work></rdf:RDF></metadata><defs
   id="defs23" />
<style
   type="text/css"
   id="style2">
	.st0{fill:none;stroke:#010101;stroke-width:1;stroke-miterlimit:11.3386;}
	.st1{fill:none;stroke:#010101;stroke-width:0.75;stroke-miterlimit:8.504;}
</style>
<sodipodi:namedview
   bordercolor="#666666"
   borderopacity="1.0"
   id="base"
   pagecolor="#ffffff"
   showgrid="false"
   showguides="true"
   inkscape:zoom="0.066350492"
   inkscape:cx="-429.53713"
   inkscape:cy="566.95001"
   inkscape:window-width="1920"
   inkscape:window-height="1017"
   inkscape:window-x="-8"
   inkscape:window-y="-8"
   inkscape:window-maximized="1"
   inkscape:current-layer="Layer_1">
	</sodipodi:namedview>
<g
   id="g20">
	<path
   id="rect815"
   class="st0"
   d="M425.5,103.8v980.9c0,20.4-16.7,36.8-37.4,36.8c-16.9,0-30.8-0.1-47.7-0.1V67.2   c16.9-0.1,30.8-0.1,47.7-0.1C408.8,67.1,425.5,83.5,425.5,103.8L425.5,103.8z" />
	<path
   id="rect820"
   class="st0"
   d="M384.2,139.6v99.1c0,3.2-2.8,5.7-6.2,5.7h-16c-3.4,0-6.2-2.6-6.2-5.7v-99.1   c0-3.2,2.8-5.7,6.2-5.7h16C381.4,133.9,384.2,136.5,384.2,139.6z" />
	<path
   id="rect822"
   class="st0"
   d="M379.8,1010.2v39.1c0,3.3-2.8,6-6.2,6h-16c-3.4,0-6.2-2.7-6.2-6v-39.1c0-3.3,2.8-6,6.2-6h16   C377.1,1004.2,379.8,1006.9,379.8,1010.2L379.8,1010.2z" />
	<path
   id="path826"
   class="st0"
   d="M366,948.2c-3.7,0-6.7-2.9-6.7-6.6s3-6.6,6.7-6.6s6.7,2.9,6.7,6.6S369.7,948.2,366,948.2z" />
	<path
   id="path826-1"
   class="st0"
   d="M365.7,990.8c-3.7,0-6.7-2.9-6.7-6.6s3-6.6,6.7-6.6c3.7,0,6.7,2.9,6.7,6.6   S369.4,990.8,365.7,990.8z" />
	<path
   id="path826-1-9"
   class="st0"
   d="M365.7,969.4c-3.7,0-6.7-2.9-6.7-6.6s3-6.6,6.7-6.6c3.7,0,6.7,2.9,6.7,6.6   S369.4,969.4,365.7,969.4z" />
	<g
   id="g18">
		<path
   id="rect821_12_"
   class="st1"
   d="M327.1,557.7l-166.8,0c-5.2,0-6.5-1.1-6.4-4.3l0-227.4c0-3.2,1.2-4.4,6.4-4.3l167,0" />
		<path
   id="rect819_12_"
   class="st1"
   d="M299.3,67.1l28.2,0.1l-0.2,254.5 M327.1,557.7l0.5,563.7l-21.7,0.1" />
		<path
   id="rect831_12_"
   class="st1"
   d="M305.7,1121.5l-145.5,0c-18.7,0.1-33.9-15.1-33.9-33.8l0.1-367 M126.6,691.2l-0.3-590.2    c0-18.7,15.1-33.8,33.8-33.9l139.1,0" />
		<path
   id="rect840_12_"
   class="st1"
   d="M126.6,691.2l17.6,0l-0.1,29.6l-17.6,0" />
		<path
   id="rect842_12_"
   class="st1"
   d="M325.7,334.2l0.1,207.9c0,3.1-2.5,5.7-5.6,5.6l-111.9,0c-3.1,0-5.7-2.5-5.6-5.6l-0.1-207.9    c0-3.1,2.5-5.7,5.6-5.6l111.9,0C323.2,328.5,325.7,331.1,325.7,334.2L325.7,334.2z" />
		<path
   id="rect844_12_"
   class="st1"
   d="M198.1,443.6l0,100.6c0,1.6-1.2,2.8-2.8,2.9l-32.9,0c-1.6,0-2.8-1.2-2.9-2.8l0-100.6    c0-1.6,1.2-2.8,2.8-2.9l32.9,0C196.9,440.8,198.1,442.1,198.1,443.6L198.1,443.6z" />
		<path
   id="rect844-1_12_"
   class="st1"
   d="M197.6,332.6l0,100.6c0,1.6-1.2,2.8-2.8,2.9l-32.9,0c-1.6,0-2.8-1.2-2.9-2.8l0-100.6    c0-1.6,1.2-2.8,2.8-2.9l32.9,0C196.4,329.8,197.6,331,197.6,332.6L197.6,332.6z" />
	</g>
</g>
</svg>