<?xml version="1.0" encoding="UTF-8" standalone="no"?>
<!-- Created with Inkscape (http://www.inkscape.org/) -->

<svg
   xmlns:dc="http://purl.org/dc/elements/1.1/"
   xmlns:cc="http://creativecommons.org/ns#"
   xmlns:rdf="http://www.w3.org/1999/02/22-rdf-syntax-ns#"
   xmlns:svg="http://www.w3.org/2000/svg"
   xmlns="http://www.w3.org/2000/svg"
   xmlns:sodipodi="http://sodipodi.sourceforge.net/DTD/sodipodi-0.dtd"
   xmlns:inkscape="http://www.inkscape.org/namespaces/inkscape"
   width="210mm"
   height="297mm"
   viewBox="0 0 210 297"
   version="1.1"
   id="svg8"
   inkscape:version="0.92.3 (2405546, 2018-03-11)"
   sodipodi:docname="E6540_PR_TOP_NEW.svg">
  <defs
     id="defs2" />
  <sodipodi:namedview
     id="base"
     pagecolor="#ffffff"
     bordercolor="#666666"
     borderopacity="1.0"
     inkscape:pageopacity="0.0"
     inkscape:pageshadow="2"
     inkscape:zoom="0.49497475"
     inkscape:cx="539.2825"
     inkscape:cy="560"
     inkscape:document-units="mm"
     inkscape:current-layer="layer1"
     showgrid="false"
     showguides="true"
     inkscape:guide-bbox="true"
     inkscape:window-width="1920"
     inkscape:window-height="1017"
     inkscape:window-x="-8"
     inkscape:window-y="-8"
     inkscape:window-maximized="1" />
  <metadata
     id="metadata5">
    <rdf:RDF>
      <cc:Work
         rdf:about="">
        <dc:format>image/svg+xml</dc:format>
        <dc:type
           rdf:resource="http://purl.org/dc/dcmitype/StillImage" />
        <dc:title />
      </cc:Work>
    </rdf:RDF>
  </metadata>
  <g
     inkscape:label="Layer 1"
     inkscape:groupmode="layer"
     id="layer1">
    <path
       style="opacity:1;fill:none;fill-opacity:0.25116284;stroke:#000000;stroke-width:0.35277778;stroke-miterlimit:4;stroke-dasharray:none;stroke-opacity:1"
       d="m -188.27997,109.02661 h 346.64722 c 7.202,0 13,5.798 13,13 0.005,5.88243 -0.0209,10.7065 -0.0381,16.58889 h -372.57102 c -0.0206,-5.88241 -0.0381,-10.70645 -0.0381,-16.58889 0,-7.202 5.798,-13 13,-13 z"
       id="rect815"
       inkscape:connector-curvature="0"
       sodipodi:nodetypes="ssccccs" />
    <path
       inkscape:connector-curvature="0"
       id="rect820"
       d="m -175.28313,123.76271 h 36.44022 c 1.16534,0 2.10351,0.892 2.10351,2 v 5.14723 c 0,1.108 -0.93817,2 -2.10351,2 h -36.44022 c -1.16533,0 -2.1035,-0.892 -2.1035,-2 v -5.14723 c 0,-1.108 0.93817,-2 2.1035,-2 z"
       style="opacity:1;fill:none;fill-opacity:0.25116284;stroke:#000000;stroke-width:0.35277778;stroke-miterlimit:4;stroke-dasharray:none;stroke-opacity:1" />
    <path
       inkscape:connector-curvature="0"
       id="rect822"
       d="m 134.83117,124.32106 h 13.14722 c 1.108,0 2,0.94075 2,2.10932 v 5.42857 c 0,1.16856 -0.892,2.10933 -2,2.10933 h -13.14722 c -1.108,0 -2,-0.94077 -2,-2.10933 v -5.42857 c 0,-1.16857 0.892,-2.10932 2,-2.10932 z"
       style="opacity:1;fill:none;fill-opacity:0.25116284;stroke:#000000;stroke-width:0.35277778;stroke-miterlimit:4;stroke-dasharray:none;stroke-opacity:1" />
    <path
       inkscape:connector-curvature="0"
       id="path826"
       d="m 112.57032,129.35944 a 2.323611,2.323611 0 0 1 -2.32361,2.32361 2.323611,2.323611 0 0 1 -2.32361,-2.32361 2.323611,2.323611 0 0 1 2.32361,-2.32361 2.323611,2.323611 0 0 1 2.32361,2.32361 z"
       style="opacity:1;fill:none;fill-opacity:0.25116284;stroke:#000000;stroke-width:0.35277778;stroke-miterlimit:4;stroke-dasharray:none;stroke-opacity:1" />
    <path
       inkscape:connector-curvature="0"
       id="path826-1"
       d="m 127.65146,129.45967 a 2.323611,2.323611 0 0 1 -2.32361,2.32361 2.323611,2.323611 0 0 1 -2.32361,-2.32361 2.323611,2.323611 0 0 1 2.32361,-2.32361 2.323611,2.323611 0 0 1 2.32361,2.32361 z"
       style="opacity:1;fill:none;fill-opacity:0.25116284;stroke:#000000;stroke-width:0.35277778;stroke-miterlimit:4;stroke-dasharray:none;stroke-opacity:1" />
    <path
       inkscape:connector-curvature="0"
       id="path826-1-9"
       d="m 120.07191,129.46504 a 2.323611,2.323611 0 0 1 -2.32361,2.32361 2.323611,2.323611 0 0 1 -2.32361,-2.32361 2.323611,2.323611 0 0 1 2.32361,-2.32361 2.323611,2.323611 0 0 1 2.32361,2.32361 z"
       style="opacity:1;fill:none;fill-opacity:0.25116284;stroke:#000000;stroke-width:0.35277778;stroke-miterlimit:4;stroke-dasharray:none;stroke-opacity:1" />
  </g>
</svg>
