<?xml version="1.0" encoding="utf-8"?>
<!-- Generator: Adobe Illustrator 25.2.1, SVG Export Plug-In . SVG Version: 6.00 Build 0)  -->
<svg version="1.1"
	 id="Layer_1" sodipodi:docname="E6540_PR_TOP+BOT2.svg" xmlns:cc="http://creativecommons.org/ns#" xmlns:dc="http://purl.org/dc/elements/1.1/" xmlns:inkscape="http://www.inkscape.org/namespaces/inkscape" xmlns:rdf="http://www.w3.org/1999/02/22-rdf-syntax-ns#" xmlns:sodipodi="http://sodipodi.sourceforge.net/DTD/sodipodi-0.dtd" xmlns:svg="http://www.w3.org/2000/svg"
	 xmlns="http://www.w3.org/2000/svg" xmlns:xlink="http://www.w3.org/1999/xlink" x="0px" y="0px" viewBox="0 0 4280.3 1133.9"
	 style="enable-background:new 0 0 4280.3 1133.9;" xml:space="preserve">
<style type="text/css">
	.st0{fill:none;stroke:#010101;stroke-miterlimit:11.3386;}
	.st1{fill:none;stroke:#010101;stroke-width:0.75;stroke-miterlimit:8.504;}
	.st2{fill:none;stroke:#010101;stroke-miterlimit:10;}
</style>
<sodipodi:namedview  bordercolor="#666666" borderopacity="1.0" id="base" inkscape:current-layer="Layer_1" inkscape:cx="-429.53713" inkscape:cy="566.95001" inkscape:window-height="1017" inkscape:window-maximized="1" inkscape:window-width="1920" inkscape:window-x="-8" inkscape:window-y="-8" inkscape:zoom="0.066350492" pagecolor="#ffffff" showgrid="false" showguides="true">
	</sodipodi:namedview>
<g>
	<g id="g20">
		<path id="rect815" class="st0" d="M346.6,76.4v980.9c0,20.4-16.7,36.8-37.4,36.8c-16.9,0-30.8-0.1-47.7-0.1V39.8
			c16.9-0.1,30.8-0.1,47.7-0.1C329.9,39.7,346.6,56.1,346.6,76.4L346.6,76.4z"/>
		<path id="rect820" class="st0" d="M305.3,112.2v99.1c0,3.2-2.8,5.7-6.2,5.7h-16c-3.4,0-6.2-2.6-6.2-5.7v-99.1
			c0-3.2,2.8-5.7,6.2-5.7h16C302.5,106.5,305.3,109.1,305.3,112.2z"/>
		<path id="rect822" class="st0" d="M300.9,982.8v39.1c0,3.3-2.8,6-6.2,6h-16c-3.4,0-6.2-2.7-6.2-6v-39.1c0-3.3,2.8-6,6.2-6h16
			C298.2,976.8,300.9,979.5,300.9,982.8L300.9,982.8z"/>
		<path id="path826" class="st0" d="M287.1,920.8c-3.7,0-6.7-2.9-6.7-6.6s3-6.6,6.7-6.6s6.7,2.9,6.7,6.6S290.8,920.8,287.1,920.8z"
			/>
		<path id="path826-1" class="st0" d="M286.8,963.4c-3.7,0-6.7-2.9-6.7-6.6s3-6.6,6.7-6.6s6.7,2.9,6.7,6.6S290.5,963.4,286.8,963.4z
			"/>
		<path id="path826-1-9" class="st0" d="M286.8,942c-3.7,0-6.7-2.9-6.7-6.6s3-6.6,6.7-6.6s6.7,2.9,6.7,6.6S290.5,942,286.8,942z"/>
		<g id="g18">
			<path id="rect821_12_" class="st1" d="M248.2,530.3H81.4c-5.2,0-6.5-1.1-6.4-4.3V298.6c0-3.2,1.2-4.4,6.4-4.3h167"/>
			<path id="rect819_12_" class="st1" d="M220.4,39.7l28.2,0.1l-0.2,254.5 M248.2,530.3l0.5,563.7l-21.7,0.1"/>
			<path id="rect831_12_" class="st1" d="M226.8,1094.1H81.3c-18.7,0.1-33.9-15.1-33.9-33.8l0.1-367 M47.7,663.8L47.4,73.6
				c0-18.7,15.1-33.8,33.8-33.9h139.1"/>
			<path id="rect840_12_" class="st1" d="M47.7,663.8h17.6l-0.1,29.6H47.6"/>
			<path id="rect842_12_" class="st1" d="M246.8,306.8l0.1,207.9c0,3.1-2.5,5.7-5.6,5.6H129.4c-3.1,0-5.7-2.5-5.6-5.6l-0.1-207.9
				c0-3.1,2.5-5.7,5.6-5.6h111.9C244.3,301.1,246.8,303.7,246.8,306.8L246.8,306.8z"/>
			<path id="rect844_12_" class="st1" d="M119.2,416.2v100.6c0,1.6-1.2,2.8-2.8,2.9H83.5c-1.6,0-2.8-1.2-2.9-2.8V416.3
				c0-1.6,1.2-2.8,2.8-2.9h32.9C118,413.4,119.2,414.7,119.2,416.2L119.2,416.2z"/>
			<path id="rect844-1_12_" class="st1" d="M118.7,305.2v100.6c0,1.6-1.2,2.8-2.8,2.9H83c-1.6,0-2.8-1.2-2.9-2.8V305.3
				c0-1.6,1.2-2.8,2.8-2.9h32.9C117.5,302.4,118.7,303.6,118.7,305.2L118.7,305.2z"/>
		</g>
	</g>
	<path class="st2" d="M137.8,830.2v-53.9c0-1.6,1.3-2.8,2.8-2.8h89.3c1.6,0,2.8,1.3,2.8,2.8v53.9c0,1.6-1.3,2.8-2.8,2.8h-89.3
		C139.1,833.1,137.8,831.8,137.8,830.2z"/>
</g>
</svg>
