<?xml version="1.0" encoding="UTF-8" standalone="no"?>
<!-- Created with Inkscape (http://www.inkscape.org/) -->

<svg
   xmlns:dc="http://purl.org/dc/elements/1.1/"
   xmlns:cc="http://creativecommons.org/ns#"
   xmlns:rdf="http://www.w3.org/1999/02/22-rdf-syntax-ns#"
   xmlns:svg="http://www.w3.org/2000/svg"
   xmlns="http://www.w3.org/2000/svg"
   xmlns:sodipodi="http://sodipodi.sourceforge.net/DTD/sodipodi-0.dtd"
   xmlns:inkscape="http://www.inkscape.org/namespaces/inkscape"
   width="841mm"
   height="1189mm"
   viewBox="0 0 841 1189"
   version="1.1"
   id="svg1202"
   inkscape:version="0.92.3 (2405546, 2018-03-11)"
   sodipodi:docname="M4700_M4800_PR_BOT_NO_FP.svg">
  <defs
     id="defs1196" />
  <sodipodi:namedview
     id="base"
     pagecolor="#ffffff"
     bordercolor="#666666"
     borderopacity="1.0"
     inkscape:pageopacity="0.0"
     inkscape:pageshadow="2"
     inkscape:zoom="0.35"
     inkscape:cx="1405.3951"
     inkscape:cy="808.09339"
     inkscape:document-units="mm"
     inkscape:current-layer="layer1"
     showgrid="false"
     showguides="true"
     inkscape:guide-bbox="true"
     inkscape:window-width="1920"
     inkscape:window-height="1017"
     inkscape:window-x="-8"
     inkscape:window-y="-8"
     inkscape:window-maximized="1" />
  <metadata
     id="metadata1199">
    <rdf:RDF>
      <cc:Work
         rdf:about="">
        <dc:format>image/svg+xml</dc:format>
        <dc:type
           rdf:resource="http://purl.org/dc/dcmitype/StillImage" />
        <dc:title />
      </cc:Work>
    </rdf:RDF>
  </metadata>
  <g
     inkscape:label="Layer 1"
     inkscape:groupmode="layer"
     id="layer1"
     transform="translate(0,892)">
    <g
       id="g885"
       transform="rotate(-90,388.13107,30.930425)">
      <path
         sodipodi:nodetypes="cccssccccssccc"
         inkscape:connector-curvature="0"
         id="rect1747"
         d="m 373.63377,-9.109999 187.70559,-0.051948 m 13.08266,3.6441102 0.0645,77.0000018 c 4.6e-4,0.554 -0.446,1.000255 -1,1 l -128.89667,-0.05941 m -10.64722,0 -91.64721,-0.03781 m -10.64723,0 -128.80887,0.09722 c -0.554,4.18e-4 -0.99954,-0.446 -1,-1 l -0.0637,-77.000002 m 13.21093,-3.705555 76.49999,0.1133927"
         style="opacity:1;fill:none;fill-opacity:1;stroke:#000000;stroke-width:0.35277778;stroke-miterlimit:4;stroke-dasharray:none;stroke-opacity:1" />
      <path
         sodipodi:nodetypes="cssssc"
         inkscape:connector-curvature="0"
         id="rect1751"
         d="m 373.63377,-9.109999 v 69.592156 c 0,0.554 -0.45713,1.000001 -1.02495,1.000001 H 292.5115 c -0.56782,0 -1.02495,-0.446001 -1.02495,-1.000001 V -9.109999"
         style="opacity:1;fill:none;fill-opacity:1;stroke:#000000;stroke-width:0.35277781;stroke-miterlimit:4;stroke-dasharray:none;stroke-opacity:1" />
      <path
         sodipodi:nodetypes="cssc"
         inkscape:connector-curvature="0"
         id="rect1753"
         d="m 214.98655,-9.2233918 v 2.7055544 c 0,0.5540003 -0.446,1.0000006 -1,1.0000006 h -12.21093"
         style="opacity:1;fill:none;fill-opacity:1;stroke:#000000;stroke-width:0.35277778;stroke-miterlimit:4;stroke-dasharray:none;stroke-opacity:1" />
      <path
         sodipodi:nodetypes="cssc"
         inkscape:connector-curvature="0"
         id="rect1753-7"
         d="m 574.42202,-5.5178366 h -12.08266 c -0.554,0 -1,-0.4460002 -1,-1.0000006 v -2.6441096"
         style="opacity:1;fill:none;fill-opacity:1;stroke:#000000;stroke-width:0.35277778;stroke-miterlimit:4;stroke-dasharray:none;stroke-opacity:1" />
      <path
         sodipodi:nodetypes="cssssc"
         inkscape:connector-curvature="0"
         id="rect1770"
         d="m 331.64819,72.384946 v -2.554364 c 0,-0.554 0.446,-1 1,-1 h 8.64723 c 0.554,0 1,0.446 1,1 v 2.554364"
         style="opacity:1;fill:none;fill-opacity:1;stroke:#000000;stroke-width:0.35277778;stroke-miterlimit:4;stroke-dasharray:none;stroke-opacity:1" />
      <path
         sodipodi:nodetypes="cssssc"
         inkscape:connector-curvature="0"
         id="rect1770-7"
         d="m 433.94263,72.422759 v -2.592161 c 0,-0.554001 0.446,-1.000001 1,-1.000001 h 8.64722 c 0.554,0 1,0.446 1,1.000001 v 2.592161"
         style="opacity:1;fill:none;fill-opacity:1;stroke:#000000;stroke-width:0.35277778;stroke-miterlimit:4;stroke-dasharray:none;stroke-opacity:1" />
      <path
         inkscape:connector-curvature="0"
         id="rect1789"
         d="m 293.78839,3.940342 h 75.64722 c 0.55401,0 1.00001,0.4460003 1.00001,1.0000006 V 46.087568 c 0,0.554001 -0.446,1.000001 -1.00001,1.000001 h -75.64722 c -0.554,0 -1,-0.446 -1,-1.000001 V 4.9403426 c 0,-0.5540003 0.446,-1.0000006 1,-1.0000006 z"
         style="opacity:1;fill:none;fill-opacity:1;stroke:#000000;stroke-width:0.35277778;stroke-miterlimit:4;stroke-dasharray:none;stroke-opacity:1" />
      <path
         inkscape:connector-curvature="0"
         id="rect1791"
         d="m 293.78839,47.087569 h 24.64722 c 0.554,0 1,0.446 1,1 v 11.647223 c 0,0.554 -0.446,1 -1,1 h -24.64722 c -0.554,0 -1,-0.446 -1,-1 V 48.087569 c 0,-0.554 0.446,-1 1,-1 z"
         style="opacity:1;fill:none;fill-opacity:1;stroke:#000000;stroke-width:0.35277778;stroke-miterlimit:4;stroke-dasharray:none;stroke-opacity:1" />
      <path
         inkscape:connector-curvature="0"
         id="rect1791-3"
         d="m 337.58283,47.087569 h 24.64722 c 0.554,0 1,0.446 1,1 v 11.647224 c 0,0.554 -0.446,1 -1,1 h -24.64722 c -0.55401,0 -1.00001,-0.446 -1.00001,-1 V 48.087569 c 0,-0.554 0.446,-1 1.00001,-1 z"
         style="opacity:1;fill:none;fill-opacity:1;stroke:#000000;stroke-width:0.35277778;stroke-miterlimit:4;stroke-dasharray:none;stroke-opacity:1" />
      <path
         inkscape:connector-curvature="0"
         id="rect1791-6"
         d="m 320.43561,47.087569 h 15.14722 c 0.554,0 1,0.446 1,1 v 11.647224 c 0,0.554 -0.446,1 -1,1 h -15.14722 c -0.554,0 -1,-0.446 -1,-1 V 48.087569 c 0,-0.554 0.446,-1 1,-1 z"
         style="opacity:1;fill:none;fill-opacity:1;stroke:#000000;stroke-width:0.35277778;stroke-miterlimit:4;stroke-dasharray:none;stroke-opacity:1" />
      <g
         transform="translate(68.491605,-14.27656)"
         id="g1842"
         style="stroke:#000000;stroke-width:0.35277778;stroke-miterlimit:4;stroke-dasharray:none;stroke-opacity:1">
        <path
           style="opacity:1;fill:none;fill-opacity:1;stroke:#000000;stroke-width:0.35277778;stroke-miterlimit:4;stroke-dasharray:none;stroke-opacity:1"
           d="m 229.6491,3.6552438 h 21.53055 c 0.554,0 0.91336,0.4021153 1,0.8880295 l 2.11667,11.8711637 c 0.0866,0.485914 -0.446,0.888029 -1,0.888029 H 229.6491 c -0.554,0 -1,-0.396062 -1,-0.888029 V 4.5432733 c 0,-0.4919679 0.446,-0.8880295 1,-0.8880295 z"
           id="rect1814"
           inkscape:connector-curvature="0"
           sodipodi:nodetypes="sssssssss" />
        <path
           style="opacity:1;fill:none;fill-opacity:1;stroke:#000000;stroke-width:0.35277778;stroke-miterlimit:4;stroke-dasharray:none;stroke-opacity:1"
           d="m 254.41457,3.6659921 h 16.64723 c 0.554,0 1.10509,0.45606 1,1.000001 l -2.2503,11.6472219 c -0.10509,0.543942 -0.446,1.000001 -1,1.000001 h -12.14663 c -0.554,0 -0.89491,-0.456059 -1,-1.000001 l -2.2503,-11.6472219 c -0.10509,-0.543941 0.446,-1.000001 1,-1.000001 z"
           id="rect1817"
           inkscape:connector-curvature="0"
           sodipodi:nodetypes="sssssssss" />
        <path
           style="opacity:1;fill:none;fill-opacity:1;stroke:#000000;stroke-width:0.35277778;stroke-miterlimit:4;stroke-dasharray:none;stroke-opacity:1"
           d="m 295.66839,3.8556703 h -21.53055 c -0.554,0 -0.91336,0.402117 -1,0.8880281 l -2.11667,11.8711656 c -0.0866,0.485911 0.446,0.888028 1,0.888028 h 23.64722 c 0.554,0 1,-0.396061 1,-0.888028 V 4.7436984 c 0,-0.4919674 -0.446,-0.8880281 -1,-0.8880281 z"
           id="rect1814-4"
           inkscape:connector-curvature="0"
           sodipodi:nodetypes="sssssssss" />
      </g>
      <path
         inkscape:connector-curvature="0"
         id="path841"
         d="m 291.99197,61.535541 -0.13364,2.271792"
         style="fill:none;stroke:#000000;stroke-width:0.26458332px;stroke-linecap:butt;stroke-linejoin:miter;stroke-opacity:1" />
      <path
         inkscape:connector-curvature="0"
         id="path841-7"
         d="m 373.04144,61.335094 0.13364,2.27179"
         style="fill:none;stroke:#000000;stroke-width:0.26458332px;stroke-linecap:butt;stroke-linejoin:miter;stroke-opacity:1" />
    </g>
  </g>
</svg>
