<?xml version="1.0" encoding="UTF-8" standalone="no"?>
<!-- Created with Inkscape (http://www.inkscape.org/) -->

<svg
   xmlns:dc="http://purl.org/dc/elements/1.1/"
   xmlns:cc="http://creativecommons.org/ns#"
   xmlns:rdf="http://www.w3.org/1999/02/22-rdf-syntax-ns#"
   xmlns:svg="http://www.w3.org/2000/svg"
   xmlns="http://www.w3.org/2000/svg"
   xmlns:sodipodi="http://sodipodi.sourceforge.net/DTD/sodipodi-0.dtd"
   xmlns:inkscape="http://www.inkscape.org/namespaces/inkscape"
   width="841mm"
   height="1189mm"
   viewBox="0 0 841 1189"
   version="1.1"
   id="svg1202"
   inkscape:version="0.92.3 (2405546, 2018-03-11)"
   sodipodi:docname="M4700_M4800_PR_BOT_NO_FP_BROKEN_EDIT.svg">
  <defs
     id="defs1196" />
  <sodipodi:namedview
     id="base"
     pagecolor="#ffffff"
     bordercolor="#666666"
     borderopacity="1.0"
     inkscape:pageopacity="0.0"
     inkscape:pageshadow="2"
     inkscape:zoom="0.7"
     inkscape:cx="1428.8465"
     inkscape:cy="1063.8005"
     inkscape:document-units="mm"
     inkscape:current-layer="layer1"
     showgrid="false"
     showguides="true"
     inkscape:guide-bbox="true"
     inkscape:window-width="1920"
     inkscape:window-height="1017"
     inkscape:window-x="-8"
     inkscape:window-y="-8"
     inkscape:window-maximized="1" />
  <metadata
     id="metadata1199">
    <rdf:RDF>
      <cc:Work
         rdf:about="">
        <dc:format>image/svg+xml</dc:format>
        <dc:type
           rdf:resource="http://purl.org/dc/dcmitype/StillImage" />
        <dc:title></dc:title>
      </cc:Work>
    </rdf:RDF>
  </metadata>
  <g
     inkscape:label="Layer 1"
     inkscape:groupmode="layer"
     id="layer1"
     transform="translate(0,892)">
    <g
       id="g861"
       transform="rotate(-90,388.13107,30.430562)">
      <path
         sodipodi:nodetypes="cccssccccssccc"
         inkscape:connector-curvature="0"
         id="rect1747"
         d="m 375.32361,-10.091559 186.01575,-0.05257 m 13.08266,3.6879495 0.0645,77.9263195 c 4.6e-4,0.560665 -0.446,1.012279 -1,1.01203 L 439.58961,72.42205 m -10.64722,0 -81.64677,-0.03827 m -10.64723,0 -133.80907,0.0984 c -0.554,4.07e-4 -0.99954,-0.451365 -1,-1.01203 l -0.0637,-77.9263197 m 13.21093,-3.7501333 78.18984,0.114744"
         style="opacity:1;fill:none;fill-opacity:1;stroke:#000000;stroke-width:0.35277781;stroke-miterlimit:4;stroke-dasharray:none;stroke-opacity:1" />
      <path
         sodipodi:nodetypes="cssssc"
         inkscape:connector-curvature="0"
         id="rect1751"
         d="m 375.32361,-10.091559 v 70.429357 c 0,0.560665 -0.45713,1.012031 -1.02495,1.012031 h -80.09732 c -0.56782,0 -1.02495,-0.451366 -1.02495,-1.012031 v -70.429357"
         style="opacity:1;fill:none;fill-opacity:1;stroke:#000000;stroke-width:0.35277784;stroke-miterlimit:4;stroke-dasharray:none;stroke-opacity:1" />
      <path
         sodipodi:nodetypes="cssc"
         inkscape:connector-curvature="0"
         id="rect1753"
         d="m 214.98655,-10.206316 v 2.7381028 c 0,0.560665 -0.446,1.0120307 -1,1.0120307 h -12.21093"
         style="opacity:1;fill:none;fill-opacity:1;stroke:#000000;stroke-width:0.35277781;stroke-miterlimit:4;stroke-dasharray:none;stroke-opacity:1" />
      <path
         sodipodi:nodetypes="cssc"
         inkscape:connector-curvature="0"
         id="rect1753-7"
         d="m 574.42202,-6.4561823 h -12.08266 c -0.554,0 -1,-0.4513656 -1,-1.0120307 v -2.675918"
         style="opacity:1;fill:none;fill-opacity:1;stroke:#000000;stroke-width:0.35277781;stroke-miterlimit:4;stroke-dasharray:none;stroke-opacity:1" />
      <path
         sodipodi:nodetypes="cssssc"
         inkscape:connector-curvature="0"
         id="rect1770"
         d="m 336.64839,72.383779 v -2.585094 c 0,-0.560664 0.446,-1.01203 1,-1.01203 h 8.64723 c 0.554,0 1,0.451366 1,1.01203 v 2.585094"
         style="opacity:1;fill:none;fill-opacity:1;stroke:#000000;stroke-width:0.35277781;stroke-miterlimit:4;stroke-dasharray:none;stroke-opacity:1" />
      <path
         sodipodi:nodetypes="cssssc"
         inkscape:connector-curvature="0"
         id="rect1770-7"
         d="m 428.94239,72.422046 v -2.623344 c 0,-0.560666 0.446,-1.012032 1,-1.012032 h 8.64722 c 0.554,0 1,0.451366 1,1.012032 v 2.623344"
         style="opacity:1;fill:none;fill-opacity:1;stroke:#000000;stroke-width:0.35277781;stroke-miterlimit:4;stroke-dasharray:none;stroke-opacity:1" />
      <path
         inkscape:connector-curvature="0"
         id="rect1789"
         d="m 295.47823,3.1157792 h 75.64722 c 0.55401,0 1.00001,0.4513657 1.00001,1.0120307 V 45.770041 c 0,0.560665 -0.446,1.012031 -1.00001,1.012031 h -75.64722 c -0.554,0 -1,-0.451366 -1,-1.012031 V 4.1278099 c 0,-0.560665 0.446,-1.0120307 1,-1.0120307 z"
         style="opacity:1;fill:none;fill-opacity:1;stroke:#000000;stroke-width:0.35277781;stroke-miterlimit:4;stroke-dasharray:none;stroke-opacity:1" />
      <path
         inkscape:connector-curvature="0"
         id="rect1791"
         d="m 295.47823,46.782072 h 24.64722 c 0.554,0 1,0.451365 1,1.01203 v 11.78734 c 0,0.560665 -0.446,1.01203 -1,1.01203 h -24.64722 c -0.554,0 -1,-0.451365 -1,-1.01203 v -11.78734 c 0,-0.560665 0.446,-1.01203 1,-1.01203 z"
         style="opacity:1;fill:none;fill-opacity:1;stroke:#000000;stroke-width:0.35277781;stroke-miterlimit:4;stroke-dasharray:none;stroke-opacity:1" />
      <path
         inkscape:connector-curvature="0"
         id="rect1791-3"
         d="m 339.27267,46.782072 h 24.64722 c 0.554,0 1,0.451365 1,1.01203 v 11.787341 c 0,0.560665 -0.446,1.01203 -1,1.01203 h -24.64722 c -0.55401,0 -1.00001,-0.451365 -1.00001,-1.01203 V 47.794102 c 0,-0.560665 0.446,-1.01203 1.00001,-1.01203 z"
         style="opacity:1;fill:none;fill-opacity:1;stroke:#000000;stroke-width:0.35277781;stroke-miterlimit:4;stroke-dasharray:none;stroke-opacity:1" />
      <path
         inkscape:connector-curvature="0"
         id="rect1791-6"
         d="m 322.12545,46.782072 h 15.14722 c 0.554,0 1,0.451365 1,1.01203 v 11.787341 c 0,0.560665 -0.446,1.01203 -1,1.01203 h -15.14722 c -0.554,0 -1,-0.451365 -1,-1.01203 V 47.794102 c 0,-0.560665 0.446,-1.01203 1,-1.01203 z"
         style="opacity:1;fill:none;fill-opacity:1;stroke:#000000;stroke-width:0.35277781;stroke-miterlimit:4;stroke-dasharray:none;stroke-opacity:1" />
      <g
         transform="matrix(1,0,0,1.0120301,70.181438,-15.320274)"
         id="g1842"
         style="stroke:#000000;stroke-width:0.35067478;stroke-miterlimit:4;stroke-dasharray:none;stroke-opacity:1">
        <path
           style="opacity:1;fill:none;fill-opacity:1;stroke:#000000;stroke-width:0.35067478;stroke-miterlimit:4;stroke-dasharray:none;stroke-opacity:1"
           d="m 229.6491,3.6552438 h 21.53055 c 0.554,0 0.91336,0.4021153 1,0.8880295 l 2.11667,11.8711637 c 0.0866,0.485914 -0.446,0.888029 -1,0.888029 H 229.6491 c -0.554,0 -1,-0.396062 -1,-0.888029 V 4.5432733 c 0,-0.4919679 0.446,-0.8880295 1,-0.8880295 z"
           id="rect1814"
           inkscape:connector-curvature="0"
           sodipodi:nodetypes="sssssssss" />
        <path
           style="opacity:1;fill:none;fill-opacity:1;stroke:#000000;stroke-width:0.35067478;stroke-miterlimit:4;stroke-dasharray:none;stroke-opacity:1"
           d="m 254.41457,3.6659921 h 16.64723 c 0.554,0 1.10509,0.45606 1,1.000001 l -2.2503,11.6472219 c -0.10509,0.543942 -0.446,1.000001 -1,1.000001 h -12.14663 c -0.554,0 -0.89491,-0.456059 -1,-1.000001 l -2.2503,-11.6472219 c -0.10509,-0.543941 0.446,-1.000001 1,-1.000001 z"
           id="rect1817"
           inkscape:connector-curvature="0"
           sodipodi:nodetypes="sssssssss" />
        <path
           style="opacity:1;fill:none;fill-opacity:1;stroke:#000000;stroke-width:0.35067478;stroke-miterlimit:4;stroke-dasharray:none;stroke-opacity:1"
           d="m 295.66839,3.8556703 h -21.53055 c -0.554,0 -0.91336,0.402117 -1,0.8880281 l -2.11667,11.8711656 c -0.0866,0.485911 0.446,0.888028 1,0.888028 h 23.64722 c 0.554,0 1,-0.396061 1,-0.888028 V 4.7436984 c 0,-0.4919674 -0.446,-0.8880281 -1,-0.8880281 z"
           id="rect1814-4"
           inkscape:connector-curvature="0"
           sodipodi:nodetypes="sssssssss" />
      </g>
      <path
         inkscape:connector-curvature="0"
         id="path841"
         d="m 293.68181,61.403854 -0.13364,2.299122"
         style="fill:none;stroke:#000000;stroke-width:0.26458332px;stroke-linecap:butt;stroke-linejoin:miter;stroke-opacity:1" />
      <path
         inkscape:connector-curvature="0"
         id="path841-7"
         d="m 374.73128,61.200996 0.13364,2.29912"
         style="fill:none;stroke:#000000;stroke-width:0.26458332px;stroke-linecap:butt;stroke-linejoin:miter;stroke-opacity:1" />
    </g>
  </g>
</svg>
