<?xml version="1.0" encoding="utf-8"?>
<!-- Generator: Adobe Illustrator 26.1.0, SVG Export Plug-In . SVG Version: 6.00 Build 0)  -->
<svg version="1.1" id="Layer_1" xmlns="http://www.w3.org/2000/svg" xmlns:xlink="http://www.w3.org/1999/xlink" x="0px" y="0px"
	 viewBox="0 0 1920 1080" style="enable-background:new 0 0 1920 1080;" xml:space="preserve">
<style type="text/css">
	.st0{fill:none;stroke:#000000;stroke-miterlimit:10;}
</style>
<g>
	<line class="st0" x1="536.2" y1="525" x2="536.2" y2="736.4"/>
	<polyline class="st0" points="280.3,445.5 536.2,445.5 537.2,498.5 	"/>
	<polyline class="st0" points="540.7,758.5 254.2,758.4 254.2,446.6 	"/>
	<line class="st0" x1="652.4" y1="758.5" x2="533.7" y2="758.9"/>
	<line class="st0" x1="928.7" y1="758.5" x2="683.3" y2="758.5"/>
	<polyline class="st0" points="1358.3,445.8 1358.3,757.6 959.6,758.5 	"/>
	<line class="st0" x1="1099.8" y1="446.6" x2="1332.6" y2="444.5"/>
	<polyline class="st0" points="765.6,500 765.6,446.5 929.7,446.6 	"/>
	<path class="st0" d="M764.9,532"/>
	<line class="st0" x1="765.6" y1="736" x2="765.6" y2="524"/>
	<line class="st0" x1="536.7" y1="736.5" x2="765.1" y2="735.5"/>
	<line class="st0" x1="766.1" y1="524.5" x2="536.7" y2="525.5"/>
	<line class="st0" x1="537.7" y1="498.5" x2="765.1" y2="499.5"/>
	<line class="st0" x1="1330.1" y1="445.5" x2="1329.6" y2="500.9"/>
	<line class="st0" x1="282.8" y1="445.9" x2="282.8" y2="499.8"/>
	<polyline class="st0" points="1332.8,445.8 1332.8,97.2 1358.4,97.2 1358.4,445.8 	"/>
	<polyline class="st0" points="253.9,447 253.9,98.3 280,97.3 280,446 	"/>
	<path class="st0" d="M268.9,534.9L268.9,534.9c-3.1,0-5.7-2.5-5.7-5.7v-25.5c0-3.1,2.5-5.7,5.7-5.7l0,0c3.1,0,5.7,2.5,5.7,5.7v25.5
		C274.6,532.4,272,534.9,268.9,534.9z"/>
	<path class="st0" d="M1343.8,533.7L1343.8,533.7c3.1,0,5.7-2.5,5.7-5.7v-25.5c0-3.1-2.5-5.7-5.7-5.7l0,0c-3.1,0-5.7,2.5-5.7,5.7
		V528C1338.1,531.1,1340.6,533.7,1343.8,533.7z"/>
	<rect x="540.1" y="529.1" class="st0" width="223.3" height="138.9"/>
	<rect x="676.6" y="677.2" class="st0" width="79.2" height="39.7"/>
	<rect x="546.4" y="677.4" class="st0" width="79.2" height="39.7"/>
	<rect x="625.4" y="677.4" class="st0" width="50.9" height="39.7"/>
	<polyline class="st0" points="651.9,758.5 652.3,749.5 683.4,749.5 683.8,758.5 	"/>
	<polyline class="st0" points="959.1,758.5 959.4,748.8 928.3,748.8 928.2,759 	"/>
	<polyline class="st0" points="1099.8,446.6 1099.8,486.3 929.7,486.3 929.7,446.6 	"/>
</g>
</svg>
