<?xml version="1.0" encoding="utf-8"?>
<!-- Generator: Adobe Illustrator 25.2.0, SVG Export Plug-In . SVG Version: 6.00 Build 0)  -->
<svg version="1.1"
	 id="Layer_1" xmlns:cc="http://creativecommons.org/ns#" xmlns:dc="http://purl.org/dc/elements/1.1/" xmlns:inkscape="http://www.inkscape.org/namespaces/inkscape" xmlns:rdf="http://www.w3.org/1999/02/22-rdf-syntax-ns#" xmlns:sodipodi="http://sodipodi.sourceforge.net/DTD/sodipodi-0.dtd" xmlns:svg="http://www.w3.org/2000/svg"
	 xmlns="http://www.w3.org/2000/svg" xmlns:xlink="http://www.w3.org/1999/xlink" x="0px" y="0px" viewBox="0 0 4280.3 1133.9"
	 style="enable-background:new 0 0 4280.3 1133.9;" xml:space="preserve">
<style type="text/css">
	.st0{fill:none;stroke:#07060B;stroke-miterlimit:11.3386;}
</style>
<sodipodi:namedview  bordercolor="#666666" borderopacity="1.0" id="base" inkscape:current-layer="Layer_1" inkscape:cx="-429.53816" inkscape:cy="566.92999" inkscape:window-height="1017" inkscape:window-maximized="1" inkscape:window-width="1920" inkscape:window-x="-8" inkscape:window-y="-8" inkscape:zoom="0.066350334" pagecolor="#ffffff" showgrid="false" showguides="true">
	</sodipodi:namedview>
<sodipodi:namedview  bordercolor="#666666" borderopacity="1.0" id="namedview5" pagecolor="#ffffff" showgrid="false" showguides="true">
	</sodipodi:namedview>
<g id="g15">
	<path class="st0" d="M579.5,1080.5l-236.3,0c-15.7,0-28.4-12.7-28.4-28.4V47.3c0-15.7,12.7-28.4,28.4-28.4l236.3,0.2"/>
	<path class="st0" d="M579.5,1080.5l0.1-525.2"/>
	<path class="st0" d="M579.5,1024.5"/>
	<path class="st0" d="M579.5,75.1"/>
	<path class="st0" d="M579.6,269.4l-0.1-250.2"/>
	<path id="rect933" class="st0" d="M579.6,555.3h-19.2V269.4h19.2"/>
	<path id="rect935" class="st0" d="M538.6,275v274.6c0,3.2-2.5,5.7-5.7,5.7H340.8c-3.2,0-5.7-2.5-5.7-5.7V275c0-3.1,2.5-5.7,5.7-5.7
		h192.2C536.1,269.4,538.6,271.9,538.6,275L538.6,275z"/>
	<path id="rect946" class="st0" d="M532.7,275.6v271.7c0,1.6-1.3,2.8-2.8,2.8H386c-1.6,0-2.8-1.3-2.8-2.8V275.6
		c0-1.6,1.3-2.8,2.8-2.8h143.9C531.4,272.7,532.7,274,532.7,275.6L532.7,275.6z"/>
	<path id="rect948" class="st0" d="M378,276.1v129.7c0,1.6-1.3,2.8-2.8,2.8h-27.4c-1.6,0-2.8-1.3-2.8-2.8V276.1
		c0-1.6,1.3-2.8,2.8-2.8h27.4C376.7,273.2,378,274.5,378,276.1L378,276.1z"/>
	<path id="rect948-6" class="st0" d="M378,417.5v129.7c0,1.6-1.3,2.8-2.8,2.8h-27.4c-1.6,0-2.8-1.3-2.8-2.8V417.5
		c0-1.6,1.3-2.8,2.8-2.8h27.4C376.7,414.6,378,415.9,378,417.5z"/>
</g>
</svg>
