<?xml version="1.0" encoding="UTF-8" standalone="no"?>
<!-- Generator: Adobe Illustrator 25.2.0, SVG Export Plug-In . SVG Version: 6.00 Build 0)  -->

<svg
   xmlns:dc="http://purl.org/dc/elements/1.1/"
   xmlns:cc="http://creativecommons.org/ns#"
   xmlns:rdf="http://www.w3.org/1999/02/22-rdf-syntax-ns#"
   xmlns:svg="http://www.w3.org/2000/svg"
   xmlns="http://www.w3.org/2000/svg"
   xmlns:sodipodi="http://sodipodi.sourceforge.net/DTD/sodipodi-0.dtd"
   xmlns:inkscape="http://www.inkscape.org/namespaces/inkscape"
   version="1.0"
   id="Layer_1"
   x="0px"
   y="0px"
   viewBox="0 0 4280.31 1133.86"
   style="enable-background:new 0 0 4280.31 1133.86;"
   xml:space="preserve"
   sodipodi:docname="P3510_PR_NEW.svg"
   inkscape:version="0.92.3 (2405546, 2018-03-11)"><metadata
   id="metadata20"><rdf:RDF><cc:Work
       rdf:about=""><dc:format>image/svg+xml</dc:format><dc:type
         rdf:resource="http://purl.org/dc/dcmitype/StillImage" /><dc:title></dc:title></cc:Work></rdf:RDF></metadata><defs
   id="defs18" />
<style
   type="text/css"
   id="style2">
	.st0{fill:none;stroke:#07060B;stroke-miterlimit:11.3386;}
</style>
<sodipodi:namedview
   bordercolor="#666666"
   borderopacity="1.0"
   id="base"
   pagecolor="#ffffff"
   showgrid="false"
   showguides="true"
   inkscape:zoom="0.066350334"
   inkscape:cx="-429.53816"
   inkscape:cy="566.92999"
   inkscape:window-width="1920"
   inkscape:window-height="1017"
   inkscape:window-x="-8"
   inkscape:window-y="-8"
   inkscape:window-maximized="1"
   inkscape:current-layer="Layer_1">
	</sodipodi:namedview>
<sodipodi:namedview
   bordercolor="#666666"
   borderopacity="1.0"
   id="namedview5"
   pagecolor="#ffffff"
   showgrid="false"
   showguides="true">
	</sodipodi:namedview>
<g
   id="g15">
	<path
   id="rect927"
   class="st0"
   d="M729.34,64.21v1004.75l0.15,28.41H79.85c-15.74,0-28.41-12.67-28.41-28.41V64.21   c0-15.74,12.67-28.41,28.41-28.41h649.64L729.34,64.21z" />
	<path
   id="rect929"
   class="st0"
   d="M316.26,286.24l-0.08-194.25c-0.01-15.74,12.67-28.41,28.41-28.41h281.63   c15.74,0,28.41,12.67,28.41,28.41v949.35c0,15.74-12.67,28.41-28.41,28.41H344.59c-15.74,0-28.41-12.67-28.41-28.41l0.08-469.15" />
	<path
   id="rect933"
   class="st0"
   d="M316.26,572.19h-19.21V286.24h19.21" />
	<path
   id="rect935"
   class="st0"
   d="M275.27,291.92v274.59c0,3.15-2.53,5.68-5.68,5.68H77.43c-3.15,0-5.68-2.53-5.68-5.68V291.92   c0-3.15,2.53-5.68,5.68-5.68h192.16C272.73,286.24,275.27,288.77,275.27,291.92L275.27,291.92z" />
	<path
   id="path937"
   class="st0"
   d="M692.06,1048.22c-9.39,0-17.01-7.61-17.01-17.01c0-9.39,7.61-17.01,17.01-17.01   c9.39,0,17.01,7.61,17.01,17.01C709.07,1040.6,701.46,1048.22,692.06,1048.22z" />
	<path
   id="rect946"
   class="st0"
   d="M269.38,292.46v271.74c0,1.57-1.27,2.84-2.84,2.84H122.67c-1.57,0-2.84-1.27-2.84-2.84V292.46   c0-1.57,1.27-2.84,2.84-2.84h143.87C268.11,289.62,269.38,290.89,269.38,292.46L269.38,292.46z" />
	<path
   id="rect948"
   class="st0"
   d="M114.63,292.94v129.69c0,1.57-1.27,2.84-2.84,2.84h-27.4c-1.57,0-2.84-1.27-2.84-2.84V292.94   c0-1.57,1.27-2.84,2.84-2.84h27.4C113.36,290.1,114.63,291.37,114.63,292.94L114.63,292.94z" />
	<path
   id="rect948-6"
   class="st0"
   d="M114.63,434.33v129.69c0,1.57-1.27,2.84-2.84,2.84h-27.4c-1.57,0-2.84-1.27-2.84-2.84V434.33   c0-1.57,1.27-2.84,2.84-2.84h27.4C113.36,431.49,114.63,432.76,114.63,434.33z" />
</g>
</svg>