<?xml version="1.0" encoding="UTF-8" standalone="no"?>
<!-- exported from Silhouette Studio® Business Edition V4.2.471ssbe -->

<svg
   xmlns:dc="http://purl.org/dc/elements/1.1/"
   xmlns:cc="http://creativecommons.org/ns#"
   xmlns:rdf="http://www.w3.org/1999/02/22-rdf-syntax-ns#"
   xmlns:svg="http://www.w3.org/2000/svg"
   xmlns="http://www.w3.org/2000/svg"
   xmlns:sodipodi="http://sodipodi.sourceforge.net/DTD/sodipodi-0.dtd"
   xmlns:inkscape="http://www.inkscape.org/namespaces/inkscape"
   version="1.1"
   width="304.8mm"
   height="600mm"
   viewBox="0 0 304.8 600"
   id="svg983"
   sodipodi:docname="2012mac.svg"
   inkscape:version="0.92.3 (2405546, 2018-03-11)">
  <metadata
     id="metadata987">
    <rdf:RDF>
      <cc:Work
         rdf:about="">
        <dc:format>image/svg+xml</dc:format>
        <dc:type
           rdf:resource="http://purl.org/dc/dcmitype/StillImage" />
      </cc:Work>
    </rdf:RDF>
  </metadata>
  <sodipodi:namedview
     pagecolor="#ffffff"
     bordercolor="#666666"
     borderopacity="1"
     objecttolerance="10"
     gridtolerance="10"
     guidetolerance="10"
     inkscape:pageopacity="0"
     inkscape:pageshadow="2"
     inkscape:window-width="1284"
     inkscape:window-height="921"
     id="namedview985"
     showgrid="false"
     inkscape:zoom="0.14717642"
     inkscape:cx="192.48002"
     inkscape:cy="957.63703"
     inkscape:window-x="0"
     inkscape:window-y="28"
     inkscape:window-maximized="1"
     inkscape:current-layer="svg983" />
  <defs
     id="defs979" />
  <path
     d="m 35.79287,-11.821467 c 0.3316,-0.83099 1.1989,-2.14883 1.9275,-2.92865 3.0944,-3.31195 -3.6829,-3.11633 107.9669,-3.11633 h 103.37545 l 2.0409,1.37445 c 1.12249,0.75592 2.65988,2.29227 3.41635,3.41397 l 1.37533,2.039459 V 143.9864 299.0115 l -1.28103,2.2777 c -0.70459,1.2529 -2.30683,2.8539 -3.56049,3.558 l -2.27933,1.2802 H 145.10867 41.44297 l -2.171,-1.4743 c -4.5533,-3.0919 -4.163,12.0949 -4.1203,-160.3117 0.0251,-101.253577 0.2464,-155.173669 0.6412,-156.162867 z m 90.3709,154.816967 c 0.8275,2.4269 0.8275,2.9779 0,5.3217 -2.3003,6.5153 0.004,10.4509 8.6769,14.8222 3.5718,1.8002 5.8,1.7114 6.4249,-0.2561 0.6963,-2.1924 3.2656,-3.6412 6.4575,-3.6412 2.5798,0 3.2369,0.2737 5.0801,2.1157 1.1644,1.1636 2.5522,2.1156 3.0841,2.1156 1.6349,0 4.8294,-3.9595 5.5719,-6.9062 0.7649,-3.0356 0.8983,-3.1157 3.0989,-1.8585 1.8544,1.0593 6.1498,1.1684 7.1376,0.1813 2.8241,-2.8222 -2.7351,-10.8515 -8.5103,-12.292 -1.6176,-0.4035 -1.6618,-0.519 -1.2846,-3.3605 0.3243,-2.4433 0.1239,-3.4874 -1.1805,-6.1519 -0.8642,-1.765 -2.3624,-3.7937 -3.3295,-4.5082 -7.3732,-5.4475 -20.8385,-3.5405 -28.658,4.0585 -3.9151,3.8047 -4.2894,5.3139 -2.569,10.3596 z"
     id="path981"
     inkscape:connector-curvature="0"
     style="fill:none;fill-opacity:1;stroke:#000000;stroke-width:0.35277781;stroke-linecap:round;stroke-linejoin:round;stroke-opacity:1" />
  <path
     d="m 262.77451,-11.038568 c 0.3316,-0.830989 1.1989,-2.14883 1.9275,-2.92865 3.0944,-3.31195 -3.6829,-3.11633 107.9669,-3.11633 h 103.37545 l 2.0409,1.37445 c 1.12249,0.75592 2.65988,2.29227 3.41635,3.41397 l 1.37533,2.03946 V 144.76931 299.7944 l -1.28103,2.27769 c -0.70459,1.25291 -2.30683,2.8539 -3.56049,3.55801 l -2.27933,1.28022 H 372.09031 268.42461 l -2.171,-1.47431 c -4.5533,-3.0919 -4.163,12.09489 -4.1203,-160.3117 0.0251,-101.253587 0.2464,-155.17368 0.6412,-156.162878 z m 90.3709,154.816968 c 0.82749,2.42691 0.82749,2.97791 0,5.3217 -2.3003,6.5153 0.004,10.45091 8.6769,14.82221 3.5718,1.80019 5.8,1.71139 6.4249,-0.25611 0.6963,-2.1924 3.2656,-3.64119 6.4575,-3.64119 2.5798,0 3.2369,0.27369 5.0801,2.11569 1.1644,1.16361 2.5522,2.1156 3.0841,2.1156 1.6349,0 4.8294,-3.9595 5.5719,-6.90619 0.7649,-3.03561 0.8983,-3.11571 3.0989,-1.85851 1.8544,1.05931 6.1498,1.1684 7.1376,0.1813 2.8241,-2.8222 -2.7351,-10.85149 -8.5103,-12.292 -1.6176,-0.4035 -1.6618,-0.519 -1.2846,-3.36049 0.3243,-2.4433 0.1239,-3.48741 -1.1805,-6.15191 -0.8642,-1.76499 -2.3624,-3.79369 -3.3295,-4.50819 -7.3732,-5.4475 -20.8385,-3.5405 -28.658,4.0585 -3.9151,3.8047 -4.2894,5.31389 -2.569,10.35959 z"
     id="path981-5"
     inkscape:connector-curvature="0"
     style="fill:none;fill-opacity:1;stroke:#000000;stroke-width:0.35277781;stroke-linecap:round;stroke-linejoin:round;stroke-opacity:1" />
  <path
     d="m -192.77628,-12.604357 c 0.3316,-0.83099 1.1989,-2.14883 1.9275,-2.92865 3.0944,-3.31195 -3.6829,-3.11633 107.966946,-3.11633 H 20.493618 l 2.0409,1.37445 c 1.12249,0.75592 2.65988,2.29227 3.41635,3.41397 l 1.37533,2.03945 V 143.20351 298.2286 l -1.28103,2.27769 c -0.70459,1.25291 -2.30683,2.8539 -3.56049,3.55801 l -2.27933,1.28022 H -83.460434 -187.12618 l -2.171,-1.47431 c -4.5533,-3.0919 -4.163,12.09489 -4.1203,-160.3117 0.0251,-101.253577 0.2464,-155.173677 0.6412,-156.162867 z m 90.37094,154.816957 c 0.8275,2.42691 0.8275,2.97791 0,5.3217 -2.30032,6.5153 0.004,10.45091 8.676907,14.82221 3.571799,1.80019 5.799999,1.71139 6.424899,-0.25611 0.6963,-2.1924 3.2656,-3.64119 6.4575,-3.64119 2.5798,0 3.2369,0.27369 5.0801,2.11569 1.1644,1.16361 2.5522,2.1156 3.0841,2.1156 1.6349,0 4.8294,-3.9595 5.5719,-6.90619 0.7649,-3.03561 0.8983,-3.11571 3.0989,-1.85851 1.8544,1.05931 6.1498,1.1684 7.1376,0.1813 2.8241,-2.8222 -2.7351,-10.85149 -8.5103,-12.292 -1.6176,-0.4035 -1.6618,-0.519 -1.2846,-3.36049 0.3243,-2.4433 0.1239,-3.48741 -1.1805,-6.15191 -0.8642,-1.76499 -2.3624,-3.79369 -3.3295,-4.50819 -7.3732,-5.4475 -20.8385,-3.5405 -28.658,4.0585 -3.915116,3.8047 -4.289416,5.31389 -2.569006,10.35959 z"
     id="path981-6"
     inkscape:connector-curvature="0"
     style="fill:none;fill-opacity:1;stroke:#000000;stroke-width:0.35277781;stroke-linecap:round;stroke-linejoin:round;stroke-opacity:1" />
  <path
     d="m -425.57878,-13.387256 c 0.3316,-0.83099 1.1989,-2.14883 1.9275,-2.92865 3.0944,-3.31195 -3.6829,-3.11633 107.96689,-3.11633 h 103.37546 l 2.04089,1.37445 c 1.12249,0.75592 2.65988,2.29227 3.41635,3.41397 l 1.37533,2.039459 V 142.42061 297.44572 l -1.28103,2.27769 c -0.70459,1.25291 -2.30682,2.85391 -3.5605,3.55802 l -2.27931,1.28018 h -103.66578 -103.66571 l -2.17099,-1.47428 c -4.5533,-3.09192 -4.163,12.0949 -4.1203,-160.31172 0.0251,-101.253577 0.2464,-155.173668 0.6412,-156.162866 z m 90.37089,154.816976 c 0.82751,2.42689 0.82751,2.97789 0,5.3217 -2.30029,6.51529 0.004,10.45089 8.6769,14.82219 3.5718,1.80021 5.79999,1.71141 6.42491,-0.25609 0.6963,-2.1924 3.26559,-3.6412 6.4575,-3.6412 2.57979,0 3.23688,0.2737 5.0801,2.1157 1.16438,1.16359 2.5522,2.11559 3.08409,2.11559 1.63489,0 4.82939,-3.9595 5.57189,-6.9062 0.76491,-3.03559 0.89831,-3.11569 3.09891,-1.85849 1.85441,1.05929 6.14981,1.1684 7.13761,0.1813 2.82408,-2.82221 -2.73511,-10.85151 -8.5103,-12.29201 -1.61761,-0.4035 -1.66182,-0.51899 -1.2846,-3.3605 0.3243,-2.4433 0.1239,-3.48739 -1.18049,-6.15189 -0.86421,-1.76501 -2.36242,-3.79371 -3.32952,-4.50821 -7.3732,-5.4475 -20.83851,-3.5405 -28.658,4.0585 -3.91509,3.8047 -4.2894,5.3139 -2.569,10.35961 z"
     id="path981-9"
     inkscape:connector-curvature="0"
     style="fill:none;fill-opacity:1;stroke:#000000;stroke-width:0.35277781;stroke-linecap:round;stroke-linejoin:round;stroke-opacity:1" />
  <path
     d="m -654.14794,-14.170146 c 0.3316,-0.83099 1.1989,-2.14883 1.9275,-2.92865 3.0944,-3.31195 -3.6829,-3.11633 107.96695,-3.11633 h 103.37546 l 2.04089,1.37445 c 1.1225,0.75592 2.65989,2.29227 3.41636,3.41397 l 1.37533,2.03945 V 141.63773 296.66282 l -1.28103,2.27769 c -0.7046,1.25291 -2.30683,2.8539 -3.56049,3.55801 l -2.27933,1.28022 h -103.66579 -103.66576 l -2.17099,-1.47431 c -4.5533,-3.0919 -4.163,12.09489 -4.1203,-160.3117 0.0251,-101.253586 0.2464,-155.173686 0.6412,-156.162876 z M -563.777,140.64681 c 0.82751,2.42692 0.82751,2.97792 0,5.32171 -2.30032,6.51529 0.004,10.45091 8.67691,14.82221 3.5718,1.80019 5.8,1.71138 6.4249,-0.25612 0.6963,-2.19239 3.2656,-3.64118 6.4575,-3.64118 2.5798,0 3.23691,0.27368 5.08011,2.11568 1.1644,1.16362 2.55219,2.1156 3.0841,2.1156 1.63489,0 4.8294,-3.9595 5.5719,-6.90618 0.76489,-3.03562 0.8983,-3.11572 3.0989,-1.85851 1.85439,1.05931 6.1498,1.1684 7.1376,0.1813 2.82409,-2.82221 -2.7351,-10.85149 -8.5103,-12.29201 -1.61761,-0.4035 -1.6618,-0.51899 -1.28461,-3.36048 0.3243,-2.4433 0.12391,-3.48742 -1.18049,-6.15192 -0.8642,-1.76498 -2.3624,-3.79368 -3.32951,-4.50818 -7.3732,-5.4475 -20.8385,-3.5405 -28.658,4.0585 -3.91513,3.8047 -4.28942,5.31388 -2.56901,10.35958 z"
     id="path981-6-1"
     inkscape:connector-curvature="0"
     style="fill:none;fill-opacity:1;stroke:#000000;stroke-width:0.35277781;stroke-linecap:round;stroke-linejoin:round;stroke-opacity:1" />
</svg>
