<?xml version="1.0" encoding="UTF-8" standalone="no"?>
<!-- Created with Inkscape (http://www.inkscape.org/) -->

<svg
   xmlns:dc="http://purl.org/dc/elements/1.1/"
   xmlns:cc="http://creativecommons.org/ns#"
   xmlns:rdf="http://www.w3.org/1999/02/22-rdf-syntax-ns#"
   xmlns:svg="http://www.w3.org/2000/svg"
   xmlns="http://www.w3.org/2000/svg"
   xmlns:sodipodi="http://sodipodi.sourceforge.net/DTD/sodipodi-0.dtd"
   xmlns:inkscape="http://www.inkscape.org/namespaces/inkscape"
   width="210mm"
   height="297mm"
   viewBox="0 0 210 297"
   version="1.1"
   id="svg8"
   inkscape:version="0.92.3 (2405546, 2018-03-11)"
   sodipodi:docname="7*40top_mouse_buttons.svg">
  <defs
     id="defs2" />
  <sodipodi:namedview
     id="base"
     pagecolor="#ffffff"
     bordercolor="#666666"
     borderopacity="1.0"
     inkscape:pageopacity="0.0"
     inkscape:pageshadow="2"
     inkscape:zoom="0.98994949"
     inkscape:cx="449.82048"
     inkscape:cy="1082.6119"
     inkscape:document-units="mm"
     inkscape:current-layer="layer1"
     showgrid="false"
     inkscape:window-width="1664"
     inkscape:window-height="887"
     inkscape:window-x="0"
     inkscape:window-y="28"
     inkscape:window-maximized="1" />
  <metadata
     id="metadata5">
    <rdf:RDF>
      <cc:Work
         rdf:about="">
        <dc:format>image/svg+xml</dc:format>
        <dc:type
           rdf:resource="http://purl.org/dc/dcmitype/StillImage" />
        <dc:title></dc:title>
      </cc:Work>
    </rdf:RDF>
  </metadata>
  <g
     inkscape:label="Layer 1"
     inkscape:groupmode="layer"
     id="layer1">
    <path
       style="opacity:1;vector-effect:none;fill:none;fill-opacity:1;fill-rule:evenodd;stroke:#000000;stroke-width:0.2;stroke-linecap:butt;stroke-linejoin:miter;stroke-miterlimit:4;stroke-dasharray:none;stroke-dashoffset:0;stroke-opacity:1"
       d="m 29.182348,15.408651 h 32.326653 c 0.59962,0 1.082348,0.468495 1.082348,1.050437 v 10.390475 c 0,0.581942 -0.482728,1.050437 -1.082348,1.050437 H 29.182348 C 28.582728,27.9 28.1,27.431505 28.1,26.849563 V 16.459088 c 0,-0.581942 0.482728,-1.050437 1.082348,-1.050437 z"
       id="rect10"
       inkscape:connector-curvature="0" />
    <path
       style="opacity:1;vector-effect:none;fill:none;fill-opacity:1;fill-rule:evenodd;stroke:#000000;stroke-width:0.2;stroke-linecap:butt;stroke-linejoin:miter;stroke-miterlimit:4;stroke-dasharray:none;stroke-dashoffset:0;stroke-opacity:1"
       d="m 64.208289,15.408651 h 32.326652 c 0.59962,0 1.08235,0.468495 1.08235,1.050437 v 10.390475 c 0,0.581942 -0.48273,1.050437 -1.08235,1.050437 H 64.208289 c -0.59962,0 -1.082348,-0.468495 -1.082348,-1.050437 V 16.459088 c 0,-0.581942 0.482728,-1.050437 1.082348,-1.050437 z"
       id="rect10-3"
       inkscape:connector-curvature="0" />
    <path
       style="opacity:1;vector-effect:none;fill:none;fill-opacity:1;fill-rule:evenodd;stroke:#000000;stroke-width:0.2;stroke-linecap:butt;stroke-linejoin:miter;stroke-miterlimit:4;stroke-dasharray:none;stroke-dashoffset:0;stroke-opacity:1"
       d="m 134.5557,15.408651 h 32.32665 c 0.59962,0 1.08235,0.468495 1.08235,1.050437 v 10.390475 c 0,0.581942 -0.48273,1.050437 -1.08235,1.050437 H 134.5557 c -0.59962,0 -1.08235,-0.468495 -1.08235,-1.050437 V 16.459088 c 0,-0.581942 0.48273,-1.050437 1.08235,-1.050437 z"
       id="rect10-6"
       inkscape:connector-curvature="0" />
    <path
       style="opacity:1;vector-effect:none;fill:none;fill-opacity:1;fill-rule:evenodd;stroke:#000000;stroke-width:0.2;stroke-linecap:butt;stroke-linejoin:miter;stroke-miterlimit:4;stroke-dasharray:none;stroke-dashoffset:0;stroke-opacity:1"
       d="m 99.460369,15.408651 h 32.326651 c 0.59963,0 1.08236,0.468495 1.08236,1.050437 v 10.390475 c 0,0.581942 -0.48273,1.050437 -1.08236,1.050437 H 99.460369 c -0.599617,0 -1.082344,-0.468495 -1.082344,-1.050437 V 16.459088 c 0,-0.581942 0.482727,-1.050437 1.082344,-1.050437 z"
       id="rect10-3-7"
       inkscape:connector-curvature="0" />
    <path
       style="opacity:1;vector-effect:none;fill:none;fill-opacity:1;fill-rule:evenodd;stroke:#000000;stroke-width:0.2;stroke-linecap:butt;stroke-linejoin:miter;stroke-miterlimit:4;stroke-dasharray:none;stroke-dashoffset:0;stroke-opacity:1"
       d="M 29.18235,28.916141 H 61.509 c 0.59962,0 1.08235,0.468495 1.08235,1.050437 v 10.390475 c 0,0.581942 -0.48273,1.050437 -1.08235,1.050437 H 29.18235 C 28.58273,41.40749 28.1,40.938995 28.1,40.357053 V 29.966578 c 0,-0.581942 0.48273,-1.050437 1.08235,-1.050437 z"
       id="rect10-5"
       inkscape:connector-curvature="0" />
    <path
       style="opacity:1;vector-effect:none;fill:none;fill-opacity:1;fill-rule:evenodd;stroke:#000000;stroke-width:0.2;stroke-linecap:butt;stroke-linejoin:miter;stroke-miterlimit:4;stroke-dasharray:none;stroke-dashoffset:0;stroke-opacity:1"
       d="m 64.20829,28.916141 h 32.32665 c 0.59962,0 1.08235,0.468495 1.08235,1.050437 v 10.390475 c 0,0.581942 -0.48273,1.050437 -1.08235,1.050437 H 64.20829 c -0.59962,0 -1.08235,-0.468495 -1.08235,-1.050437 V 29.966578 c 0,-0.581942 0.48273,-1.050437 1.08235,-1.050437 z"
       id="rect10-3-6"
       inkscape:connector-curvature="0" />
    <path
       style="opacity:1;vector-effect:none;fill:none;fill-opacity:1;fill-rule:evenodd;stroke:#000000;stroke-width:0.2;stroke-linecap:butt;stroke-linejoin:miter;stroke-miterlimit:4;stroke-dasharray:none;stroke-dashoffset:0;stroke-opacity:1"
       d="m 134.5557,28.916141 h 32.32665 c 0.59962,0 1.08235,0.468495 1.08235,1.050437 v 10.390475 c 0,0.581942 -0.48273,1.050437 -1.08235,1.050437 H 134.5557 c -0.59962,0 -1.08235,-0.468495 -1.08235,-1.050437 V 29.966578 c 0,-0.581942 0.48273,-1.050437 1.08235,-1.050437 z"
       id="rect10-6-2"
       inkscape:connector-curvature="0" />
    <path
       style="opacity:1;vector-effect:none;fill:none;fill-opacity:1;fill-rule:evenodd;stroke:#000000;stroke-width:0.2;stroke-linecap:butt;stroke-linejoin:miter;stroke-miterlimit:4;stroke-dasharray:none;stroke-dashoffset:0;stroke-opacity:1"
       d="m 99.46037,28.916141 h 32.32665 c 0.59963,0 1.08236,0.468495 1.08236,1.050437 v 10.390475 c 0,0.581942 -0.48273,1.050437 -1.08236,1.050437 H 99.46037 c -0.59962,0 -1.08234,-0.468495 -1.08234,-1.050437 V 29.966578 c 0,-0.581942 0.48272,-1.050437 1.08234,-1.050437 z"
       id="rect10-3-7-9"
       inkscape:connector-curvature="0" />
    <path
       style="opacity:1;vector-effect:none;fill:none;fill-opacity:1;fill-rule:evenodd;stroke:#000000;stroke-width:0.2;stroke-linecap:butt;stroke-linejoin:miter;stroke-miterlimit:4;stroke-dasharray:none;stroke-dashoffset:0;stroke-opacity:1"
       d="M 29.18235,42.480252 H 61.509 c 0.59962,0 1.08235,0.468495 1.08235,1.050437 v 10.390475 c 0,0.581942 -0.48273,1.050437 -1.08235,1.050437 H 29.18235 C 28.58273,54.971601 28.1,54.503106 28.1,53.921164 V 43.530689 c 0,-0.581942 0.48273,-1.050437 1.08235,-1.050437 z"
       id="rect10-1"
       inkscape:connector-curvature="0" />
    <path
       style="opacity:1;vector-effect:none;fill:none;fill-opacity:1;fill-rule:evenodd;stroke:#000000;stroke-width:0.2;stroke-linecap:butt;stroke-linejoin:miter;stroke-miterlimit:4;stroke-dasharray:none;stroke-dashoffset:0;stroke-opacity:1"
       d="m 64.20829,42.480252 h 32.32665 c 0.59962,0 1.08235,0.468495 1.08235,1.050437 v 10.390475 c 0,0.581942 -0.48273,1.050437 -1.08235,1.050437 H 64.20829 c -0.59962,0 -1.08235,-0.468495 -1.08235,-1.050437 V 43.530689 c 0,-0.581942 0.48273,-1.050437 1.08235,-1.050437 z"
       id="rect10-3-2"
       inkscape:connector-curvature="0" />
    <path
       style="opacity:1;vector-effect:none;fill:none;fill-opacity:1;fill-rule:evenodd;stroke:#000000;stroke-width:0.2;stroke-linecap:butt;stroke-linejoin:miter;stroke-miterlimit:4;stroke-dasharray:none;stroke-dashoffset:0;stroke-opacity:1"
       d="m 134.5557,42.480252 h 32.32665 c 0.59962,0 1.08235,0.468495 1.08235,1.050437 v 10.390475 c 0,0.581942 -0.48273,1.050437 -1.08235,1.050437 H 134.5557 c -0.59962,0 -1.08235,-0.468495 -1.08235,-1.050437 V 43.530689 c 0,-0.581942 0.48273,-1.050437 1.08235,-1.050437 z"
       id="rect10-6-7"
       inkscape:connector-curvature="0" />
    <path
       style="opacity:1;vector-effect:none;fill:none;fill-opacity:1;fill-rule:evenodd;stroke:#000000;stroke-width:0.2;stroke-linecap:butt;stroke-linejoin:miter;stroke-miterlimit:4;stroke-dasharray:none;stroke-dashoffset:0;stroke-opacity:1"
       d="m 99.46037,42.480252 h 32.32665 c 0.59963,0 1.08236,0.468495 1.08236,1.050437 v 10.390475 c 0,0.581942 -0.48273,1.050437 -1.08236,1.050437 H 99.46037 c -0.59962,0 -1.08234,-0.468495 -1.08234,-1.050437 V 43.530689 c 0,-0.581942 0.48272,-1.050437 1.08234,-1.050437 z"
       id="rect10-3-7-0"
       inkscape:connector-curvature="0" />
    <path
       style="opacity:1;vector-effect:none;fill:none;fill-opacity:1;fill-rule:evenodd;stroke:#000000;stroke-width:0.2;stroke-linecap:butt;stroke-linejoin:miter;stroke-miterlimit:4;stroke-dasharray:none;stroke-dashoffset:0;stroke-opacity:1"
       d="M 29.18235,55.987742 H 61.509 c 0.59962,0 1.08235,0.468495 1.08235,1.050437 v 10.390475 c 0,0.581942 -0.48273,1.050437 -1.08235,1.050437 H 29.18235 C 28.58273,68.479091 28.1,68.010596 28.1,67.428654 V 57.038179 c 0,-0.581942 0.48273,-1.050437 1.08235,-1.050437 z"
       id="rect10-5-9"
       inkscape:connector-curvature="0" />
    <path
       style="opacity:1;vector-effect:none;fill:none;fill-opacity:1;fill-rule:evenodd;stroke:#000000;stroke-width:0.2;stroke-linecap:butt;stroke-linejoin:miter;stroke-miterlimit:4;stroke-dasharray:none;stroke-dashoffset:0;stroke-opacity:1"
       d="m 64.20829,55.987742 h 32.32665 c 0.59962,0 1.08235,0.468495 1.08235,1.050437 v 10.390475 c 0,0.581942 -0.48273,1.050437 -1.08235,1.050437 H 64.20829 c -0.59962,0 -1.08235,-0.468495 -1.08235,-1.050437 V 57.038179 c 0,-0.581942 0.48273,-1.050437 1.08235,-1.050437 z"
       id="rect10-3-6-3"
       inkscape:connector-curvature="0" />
    <path
       style="opacity:1;vector-effect:none;fill:none;fill-opacity:1;fill-rule:evenodd;stroke:#000000;stroke-width:0.2;stroke-linecap:butt;stroke-linejoin:miter;stroke-miterlimit:4;stroke-dasharray:none;stroke-dashoffset:0;stroke-opacity:1"
       d="m 134.5557,55.987742 h 32.32665 c 0.59962,0 1.08235,0.468495 1.08235,1.050437 v 10.390475 c 0,0.581942 -0.48273,1.050437 -1.08235,1.050437 H 134.5557 c -0.59962,0 -1.08235,-0.468495 -1.08235,-1.050437 V 57.038179 c 0,-0.581942 0.48273,-1.050437 1.08235,-1.050437 z"
       id="rect10-6-2-6"
       inkscape:connector-curvature="0" />
    <path
       style="opacity:1;vector-effect:none;fill:none;fill-opacity:1;fill-rule:evenodd;stroke:#000000;stroke-width:0.2;stroke-linecap:butt;stroke-linejoin:miter;stroke-miterlimit:4;stroke-dasharray:none;stroke-dashoffset:0;stroke-opacity:1"
       d="m 99.46037,55.987742 h 32.32665 c 0.59963,0 1.08236,0.468495 1.08236,1.050437 v 10.390475 c 0,0.581942 -0.48273,1.050437 -1.08236,1.050437 H 99.46037 c -0.59962,0 -1.08234,-0.468495 -1.08234,-1.050437 V 57.038179 c 0,-0.581942 0.48272,-1.050437 1.08234,-1.050437 z"
       id="rect10-3-7-9-0"
       inkscape:connector-curvature="0" />
    <path
       style="opacity:1;vector-effect:none;fill:none;fill-opacity:1;fill-rule:evenodd;stroke:#000000;stroke-width:0.2;stroke-linecap:butt;stroke-linejoin:miter;stroke-miterlimit:4;stroke-dasharray:none;stroke-dashoffset:0;stroke-opacity:1"
       d="M 29.18235,69.691637 H 61.509 c 0.59962,0 1.08235,0.468495 1.08235,1.050437 v 10.390475 c 0,0.581942 -0.48273,1.050437 -1.08235,1.050437 H 29.18235 C 28.58273,82.182986 28.1,81.714491 28.1,81.132549 V 70.742074 c 0,-0.581942 0.48273,-1.050437 1.08235,-1.050437 z"
       id="rect10-62"
       inkscape:connector-curvature="0" />
    <path
       style="opacity:1;vector-effect:none;fill:none;fill-opacity:1;fill-rule:evenodd;stroke:#000000;stroke-width:0.2;stroke-linecap:butt;stroke-linejoin:miter;stroke-miterlimit:4;stroke-dasharray:none;stroke-dashoffset:0;stroke-opacity:1"
       d="m 64.20829,69.691637 h 32.32665 c 0.59962,0 1.08235,0.468495 1.08235,1.050437 v 10.390475 c 0,0.581942 -0.48273,1.050437 -1.08235,1.050437 H 64.20829 c -0.59962,0 -1.08235,-0.468495 -1.08235,-1.050437 V 70.742074 c 0,-0.581942 0.48273,-1.050437 1.08235,-1.050437 z"
       id="rect10-3-61"
       inkscape:connector-curvature="0" />
    <path
       style="opacity:1;vector-effect:none;fill:none;fill-opacity:1;fill-rule:evenodd;stroke:#000000;stroke-width:0.2;stroke-linecap:butt;stroke-linejoin:miter;stroke-miterlimit:4;stroke-dasharray:none;stroke-dashoffset:0;stroke-opacity:1"
       d="m 134.5557,69.691637 h 32.32665 c 0.59962,0 1.08235,0.468495 1.08235,1.050437 v 10.390475 c 0,0.581942 -0.48273,1.050437 -1.08235,1.050437 H 134.5557 c -0.59962,0 -1.08235,-0.468495 -1.08235,-1.050437 V 70.742074 c 0,-0.581942 0.48273,-1.050437 1.08235,-1.050437 z"
       id="rect10-6-8"
       inkscape:connector-curvature="0" />
    <path
       style="opacity:1;vector-effect:none;fill:none;fill-opacity:1;fill-rule:evenodd;stroke:#000000;stroke-width:0.2;stroke-linecap:butt;stroke-linejoin:miter;stroke-miterlimit:4;stroke-dasharray:none;stroke-dashoffset:0;stroke-opacity:1"
       d="m 99.46037,69.691637 h 32.32665 c 0.59963,0 1.08236,0.468495 1.08236,1.050437 v 10.390475 c 0,0.581942 -0.48273,1.050437 -1.08236,1.050437 H 99.46037 c -0.59961,0 -1.08234,-0.468495 -1.08234,-1.050437 V 70.742074 c 0,-0.581942 0.48273,-1.050437 1.08234,-1.050437 z"
       id="rect10-3-7-7"
       inkscape:connector-curvature="0" />
    <path
       style="opacity:1;vector-effect:none;fill:none;fill-opacity:1;fill-rule:evenodd;stroke:#000000;stroke-width:0.2;stroke-linecap:butt;stroke-linejoin:miter;stroke-miterlimit:4;stroke-dasharray:none;stroke-dashoffset:0;stroke-opacity:1"
       d="M 29.18235,83.199127 H 61.509 c 0.59962,0 1.08235,0.468495 1.08235,1.050437 v 10.390475 c 0,0.581941 -0.48273,1.050438 -1.08235,1.050438 H 29.18235 C 28.58273,95.690477 28.1,95.22198 28.1,94.640039 V 84.249564 c 0,-0.581942 0.48273,-1.050437 1.08235,-1.050437 z"
       id="rect10-5-92"
       inkscape:connector-curvature="0" />
    <path
       style="opacity:1;vector-effect:none;fill:none;fill-opacity:1;fill-rule:evenodd;stroke:#000000;stroke-width:0.2;stroke-linecap:butt;stroke-linejoin:miter;stroke-miterlimit:4;stroke-dasharray:none;stroke-dashoffset:0;stroke-opacity:1"
       d="m 64.20829,83.199127 h 32.32665 c 0.59962,0 1.08235,0.468495 1.08235,1.050437 v 10.390475 c 0,0.581941 -0.48273,1.050438 -1.08235,1.050438 H 64.20829 c -0.59962,0 -1.08235,-0.468497 -1.08235,-1.050438 V 84.249564 c 0,-0.581942 0.48273,-1.050437 1.08235,-1.050437 z"
       id="rect10-3-6-0"
       inkscape:connector-curvature="0" />
    <path
       style="opacity:1;vector-effect:none;fill:none;fill-opacity:1;fill-rule:evenodd;stroke:#000000;stroke-width:0.2;stroke-linecap:butt;stroke-linejoin:miter;stroke-miterlimit:4;stroke-dasharray:none;stroke-dashoffset:0;stroke-opacity:1"
       d="m 134.5557,83.199127 h 32.32665 c 0.59962,0 1.08235,0.468495 1.08235,1.050437 v 10.390475 c 0,0.581941 -0.48273,1.050438 -1.08235,1.050438 H 134.5557 c -0.59962,0 -1.08235,-0.468497 -1.08235,-1.050438 V 84.249564 c 0,-0.581942 0.48273,-1.050437 1.08235,-1.050437 z"
       id="rect10-6-2-2"
       inkscape:connector-curvature="0" />
    <path
       style="opacity:1;vector-effect:none;fill:none;fill-opacity:1;fill-rule:evenodd;stroke:#000000;stroke-width:0.2;stroke-linecap:butt;stroke-linejoin:miter;stroke-miterlimit:4;stroke-dasharray:none;stroke-dashoffset:0;stroke-opacity:1"
       d="m 99.46037,83.199127 h 32.32665 c 0.59963,0 1.08236,0.468495 1.08236,1.050437 v 10.390475 c 0,0.581941 -0.48273,1.050438 -1.08236,1.050438 H 99.46037 c -0.59962,0 -1.08234,-0.468497 -1.08234,-1.050438 V 84.249564 c 0,-0.581942 0.48272,-1.050437 1.08234,-1.050437 z"
       id="rect10-3-7-9-3"
       inkscape:connector-curvature="0" />
    <path
       style="opacity:1;vector-effect:none;fill:none;fill-opacity:1;fill-rule:evenodd;stroke:#000000;stroke-width:0.2;stroke-linecap:butt;stroke-linejoin:miter;stroke-miterlimit:4;stroke-dasharray:none;stroke-dashoffset:0;stroke-opacity:1"
       d="M 29.18235,96.763231 H 61.509 c 0.59962,0 1.08235,0.468487 1.08235,1.050424 v 10.390475 c 0,0.58194 -0.48273,1.05043 -1.08235,1.05043 H 29.18235 c -0.59962,0 -1.08235,-0.46849 -1.08235,-1.05043 V 97.813655 c 0,-0.581937 0.48273,-1.050424 1.08235,-1.050424 z"
       id="rect10-1-7"
       inkscape:connector-curvature="0" />
    <path
       style="opacity:1;vector-effect:none;fill:none;fill-opacity:1;fill-rule:evenodd;stroke:#000000;stroke-width:0.2;stroke-linecap:butt;stroke-linejoin:miter;stroke-miterlimit:4;stroke-dasharray:none;stroke-dashoffset:0;stroke-opacity:1"
       d="m 64.20829,96.763231 h 32.32665 c 0.59962,0 1.08235,0.468487 1.08235,1.050424 v 10.390475 c 0,0.58194 -0.48273,1.05043 -1.08235,1.05043 H 64.20829 c -0.59962,0 -1.08235,-0.46849 -1.08235,-1.05043 V 97.813655 c 0,-0.581937 0.48273,-1.050424 1.08235,-1.050424 z"
       id="rect10-3-2-5"
       inkscape:connector-curvature="0" />
    <path
       style="opacity:1;vector-effect:none;fill:none;fill-opacity:1;fill-rule:evenodd;stroke:#000000;stroke-width:0.2;stroke-linecap:butt;stroke-linejoin:miter;stroke-miterlimit:4;stroke-dasharray:none;stroke-dashoffset:0;stroke-opacity:1"
       d="m 134.5557,96.763231 h 32.32665 c 0.59962,0 1.08235,0.468487 1.08235,1.050424 v 10.390475 c 0,0.58194 -0.48273,1.05043 -1.08235,1.05043 H 134.5557 c -0.59962,0 -1.08235,-0.46849 -1.08235,-1.05043 V 97.813655 c 0,-0.581937 0.48273,-1.050424 1.08235,-1.050424 z"
       id="rect10-6-7-9"
       inkscape:connector-curvature="0" />
    <path
       style="opacity:1;vector-effect:none;fill:none;fill-opacity:1;fill-rule:evenodd;stroke:#000000;stroke-width:0.2;stroke-linecap:butt;stroke-linejoin:miter;stroke-miterlimit:4;stroke-dasharray:none;stroke-dashoffset:0;stroke-opacity:1"
       d="m 99.46037,96.763231 h 32.32665 c 0.59963,0 1.08236,0.468487 1.08236,1.050424 v 10.390475 c 0,0.58194 -0.48273,1.05043 -1.08236,1.05043 H 99.46037 c -0.59962,0 -1.08234,-0.46849 -1.08234,-1.05043 V 97.813655 c 0,-0.581937 0.48272,-1.050424 1.08234,-1.050424 z"
       id="rect10-3-7-0-2"
       inkscape:connector-curvature="0" />
    <path
       style="opacity:1;vector-effect:none;fill:none;fill-opacity:1;fill-rule:evenodd;stroke:#000000;stroke-width:0.2;stroke-linecap:butt;stroke-linejoin:miter;stroke-miterlimit:4;stroke-dasharray:none;stroke-dashoffset:0;stroke-opacity:1"
       d="M 29.18235,110.27071 H 61.509 c 0.59962,0 1.08235,0.46849 1.08235,1.05043 v 10.39048 c 0,0.58194 -0.48273,1.05044 -1.08235,1.05044 H 29.18235 c -0.59962,0 -1.08235,-0.4685 -1.08235,-1.05044 v -10.39048 c 0,-0.58194 0.48273,-1.05043 1.08235,-1.05043 z"
       id="rect10-5-9-2"
       inkscape:connector-curvature="0" />
    <path
       style="opacity:1;vector-effect:none;fill:none;fill-opacity:1;fill-rule:evenodd;stroke:#000000;stroke-width:0.2;stroke-linecap:butt;stroke-linejoin:miter;stroke-miterlimit:4;stroke-dasharray:none;stroke-dashoffset:0;stroke-opacity:1"
       d="m 64.20829,110.27071 h 32.32665 c 0.59962,0 1.08235,0.46849 1.08235,1.05043 v 10.39048 c 0,0.58194 -0.48273,1.05044 -1.08235,1.05044 H 64.20829 c -0.59962,0 -1.08235,-0.4685 -1.08235,-1.05044 v -10.39048 c 0,-0.58194 0.48273,-1.05043 1.08235,-1.05043 z"
       id="rect10-3-6-3-8"
       inkscape:connector-curvature="0" />
    <path
       style="opacity:1;vector-effect:none;fill:none;fill-opacity:1;fill-rule:evenodd;stroke:#000000;stroke-width:0.2;stroke-linecap:butt;stroke-linejoin:miter;stroke-miterlimit:4;stroke-dasharray:none;stroke-dashoffset:0;stroke-opacity:1"
       d="m 134.5557,110.27071 h 32.32665 c 0.59962,0 1.08235,0.46849 1.08235,1.05043 v 10.39048 c 0,0.58194 -0.48273,1.05044 -1.08235,1.05044 H 134.5557 c -0.59962,0 -1.08235,-0.4685 -1.08235,-1.05044 v -10.39048 c 0,-0.58194 0.48273,-1.05043 1.08235,-1.05043 z"
       id="rect10-6-2-6-9"
       inkscape:connector-curvature="0" />
    <path
       style="opacity:1;vector-effect:none;fill:none;fill-opacity:1;fill-rule:evenodd;stroke:#000000;stroke-width:0.2;stroke-linecap:butt;stroke-linejoin:miter;stroke-miterlimit:4;stroke-dasharray:none;stroke-dashoffset:0;stroke-opacity:1"
       d="m 99.46037,110.27071 h 32.32665 c 0.59963,0 1.08236,0.46849 1.08236,1.05043 v 10.39048 c 0,0.58194 -0.48273,1.05044 -1.08236,1.05044 H 99.46037 c -0.59962,0 -1.08234,-0.4685 -1.08234,-1.05044 v -10.39048 c 0,-0.58194 0.48272,-1.05043 1.08234,-1.05043 z"
       id="rect10-3-7-9-0-7"
       inkscape:connector-curvature="0" />
    <path
       style="opacity:1;vector-effect:none;fill:none;fill-opacity:1;fill-rule:evenodd;stroke:#000000;stroke-width:0.2;stroke-linecap:butt;stroke-linejoin:miter;stroke-miterlimit:4;stroke-dasharray:none;stroke-dashoffset:0;stroke-opacity:1"
       d="M 29.18235,124.0123 H 61.509 c 0.59962,0 1.08235,0.4685 1.08235,1.05044 v 10.39048 c 0,0.58194 -0.48273,1.05044 -1.08235,1.05044 H 29.18235 c -0.59962,0 -1.08235,-0.4685 -1.08235,-1.05044 v -10.39048 c 0,-0.58194 0.48273,-1.05044 1.08235,-1.05044 z"
       id="rect10-36"
       inkscape:connector-curvature="0" />
    <path
       style="opacity:1;vector-effect:none;fill:none;fill-opacity:1;fill-rule:evenodd;stroke:#000000;stroke-width:0.2;stroke-linecap:butt;stroke-linejoin:miter;stroke-miterlimit:4;stroke-dasharray:none;stroke-dashoffset:0;stroke-opacity:1"
       d="m 64.20829,124.0123 h 32.32665 c 0.59962,0 1.08235,0.4685 1.08235,1.05044 v 10.39048 c 0,0.58194 -0.48273,1.05044 -1.08235,1.05044 H 64.20829 c -0.59962,0 -1.08235,-0.4685 -1.08235,-1.05044 v -10.39048 c 0,-0.58194 0.48273,-1.05044 1.08235,-1.05044 z"
       id="rect10-3-1"
       inkscape:connector-curvature="0" />
    <path
       style="opacity:1;vector-effect:none;fill:none;fill-opacity:1;fill-rule:evenodd;stroke:#000000;stroke-width:0.2;stroke-linecap:butt;stroke-linejoin:miter;stroke-miterlimit:4;stroke-dasharray:none;stroke-dashoffset:0;stroke-opacity:1"
       d="m 134.5557,124.0123 h 32.32665 c 0.59962,0 1.08235,0.4685 1.08235,1.05044 v 10.39048 c 0,0.58194 -0.48273,1.05044 -1.08235,1.05044 H 134.5557 c -0.59962,0 -1.08235,-0.4685 -1.08235,-1.05044 v -10.39048 c 0,-0.58194 0.48273,-1.05044 1.08235,-1.05044 z"
       id="rect10-6-29"
       inkscape:connector-curvature="0" />
    <path
       style="opacity:1;vector-effect:none;fill:none;fill-opacity:1;fill-rule:evenodd;stroke:#000000;stroke-width:0.2;stroke-linecap:butt;stroke-linejoin:miter;stroke-miterlimit:4;stroke-dasharray:none;stroke-dashoffset:0;stroke-opacity:1"
       d="m 99.46037,124.0123 h 32.32665 c 0.59963,0 1.08236,0.4685 1.08236,1.05044 v 10.39048 c 0,0.58194 -0.48273,1.05044 -1.08236,1.05044 H 99.46037 c -0.59962,0 -1.08234,-0.4685 -1.08234,-1.05044 v -10.39048 c 0,-0.58194 0.48272,-1.05044 1.08234,-1.05044 z"
       id="rect10-3-7-3"
       inkscape:connector-curvature="0" />
    <path
       style="opacity:1;vector-effect:none;fill:none;fill-opacity:1;fill-rule:evenodd;stroke:#000000;stroke-width:0.2;stroke-linecap:butt;stroke-linejoin:miter;stroke-miterlimit:4;stroke-dasharray:none;stroke-dashoffset:0;stroke-opacity:1"
       d="M 29.18235,137.5198 H 61.509 c 0.59962,0 1.08235,0.4685 1.08235,1.05044 v 10.39047 c 0,0.58195 -0.48273,1.05044 -1.08235,1.05044 H 29.18235 c -0.59962,0 -1.08235,-0.46849 -1.08235,-1.05044 v -10.39047 c 0,-0.58194 0.48273,-1.05044 1.08235,-1.05044 z"
       id="rect10-5-1"
       inkscape:connector-curvature="0" />
    <path
       style="opacity:1;vector-effect:none;fill:none;fill-opacity:1;fill-rule:evenodd;stroke:#000000;stroke-width:0.2;stroke-linecap:butt;stroke-linejoin:miter;stroke-miterlimit:4;stroke-dasharray:none;stroke-dashoffset:0;stroke-opacity:1"
       d="m 64.20829,137.5198 h 32.32665 c 0.59962,0 1.08235,0.4685 1.08235,1.05044 v 10.39047 c 0,0.58195 -0.48273,1.05044 -1.08235,1.05044 H 64.20829 c -0.59962,0 -1.08235,-0.46849 -1.08235,-1.05044 v -10.39047 c 0,-0.58194 0.48273,-1.05044 1.08235,-1.05044 z"
       id="rect10-3-6-9"
       inkscape:connector-curvature="0" />
    <path
       style="opacity:1;vector-effect:none;fill:none;fill-opacity:1;fill-rule:evenodd;stroke:#000000;stroke-width:0.2;stroke-linecap:butt;stroke-linejoin:miter;stroke-miterlimit:4;stroke-dasharray:none;stroke-dashoffset:0;stroke-opacity:1"
       d="m 134.5557,137.5198 h 32.32665 c 0.59962,0 1.08235,0.4685 1.08235,1.05044 v 10.39047 c 0,0.58195 -0.48273,1.05044 -1.08235,1.05044 H 134.5557 c -0.59962,0 -1.08235,-0.46849 -1.08235,-1.05044 v -10.39047 c 0,-0.58194 0.48273,-1.05044 1.08235,-1.05044 z"
       id="rect10-6-2-4"
       inkscape:connector-curvature="0" />
    <path
       style="opacity:1;vector-effect:none;fill:none;fill-opacity:1;fill-rule:evenodd;stroke:#000000;stroke-width:0.2;stroke-linecap:butt;stroke-linejoin:miter;stroke-miterlimit:4;stroke-dasharray:none;stroke-dashoffset:0;stroke-opacity:1"
       d="m 99.46037,137.5198 h 32.32665 c 0.59963,0 1.08236,0.4685 1.08236,1.05044 v 10.39047 c 0,0.58195 -0.48273,1.05044 -1.08236,1.05044 H 99.46037 c -0.59962,0 -1.08234,-0.46849 -1.08234,-1.05044 v -10.39047 c 0,-0.58194 0.48272,-1.05044 1.08234,-1.05044 z"
       id="rect10-3-7-9-7"
       inkscape:connector-curvature="0" />
    <path
       style="opacity:1;vector-effect:none;fill:none;fill-opacity:1;fill-rule:evenodd;stroke:#000000;stroke-width:0.2;stroke-linecap:butt;stroke-linejoin:miter;stroke-miterlimit:4;stroke-dasharray:none;stroke-dashoffset:0;stroke-opacity:1"
       d="M 29.18235,151.08391 H 61.509 c 0.59962,0 1.08235,0.4685 1.08235,1.05044 v 10.39048 c 0,0.58194 -0.48273,1.05043 -1.08235,1.05043 H 29.18235 c -0.59962,0 -1.08235,-0.46849 -1.08235,-1.05043 v -10.39048 c 0,-0.58194 0.48273,-1.05044 1.08235,-1.05044 z"
       id="rect10-1-8"
       inkscape:connector-curvature="0" />
    <path
       style="opacity:1;vector-effect:none;fill:none;fill-opacity:1;fill-rule:evenodd;stroke:#000000;stroke-width:0.2;stroke-linecap:butt;stroke-linejoin:miter;stroke-miterlimit:4;stroke-dasharray:none;stroke-dashoffset:0;stroke-opacity:1"
       d="m 64.20829,151.08391 h 32.32665 c 0.59962,0 1.08235,0.4685 1.08235,1.05044 v 10.39048 c 0,0.58194 -0.48273,1.05043 -1.08235,1.05043 H 64.20829 c -0.59962,0 -1.08235,-0.46849 -1.08235,-1.05043 v -10.39048 c 0,-0.58194 0.48273,-1.05044 1.08235,-1.05044 z"
       id="rect10-3-2-4"
       inkscape:connector-curvature="0" />
    <path
       style="opacity:1;vector-effect:none;fill:none;fill-opacity:1;fill-rule:evenodd;stroke:#000000;stroke-width:0.2;stroke-linecap:butt;stroke-linejoin:miter;stroke-miterlimit:4;stroke-dasharray:none;stroke-dashoffset:0;stroke-opacity:1"
       d="m 134.5557,151.08391 h 32.32665 c 0.59962,0 1.08235,0.4685 1.08235,1.05044 v 10.39048 c 0,0.58194 -0.48273,1.05043 -1.08235,1.05043 H 134.5557 c -0.59962,0 -1.08235,-0.46849 -1.08235,-1.05043 v -10.39048 c 0,-0.58194 0.48273,-1.05044 1.08235,-1.05044 z"
       id="rect10-6-7-5"
       inkscape:connector-curvature="0" />
    <path
       style="opacity:1;vector-effect:none;fill:none;fill-opacity:1;fill-rule:evenodd;stroke:#000000;stroke-width:0.2;stroke-linecap:butt;stroke-linejoin:miter;stroke-miterlimit:4;stroke-dasharray:none;stroke-dashoffset:0;stroke-opacity:1"
       d="m 99.46037,151.08391 h 32.32665 c 0.59963,0 1.08236,0.4685 1.08236,1.05044 v 10.39048 c 0,0.58194 -0.48273,1.05043 -1.08236,1.05043 H 99.46037 c -0.59962,0 -1.08234,-0.46849 -1.08234,-1.05043 v -10.39048 c 0,-0.58194 0.48272,-1.05044 1.08234,-1.05044 z"
       id="rect10-3-7-0-0"
       inkscape:connector-curvature="0" />
    <path
       style="opacity:1;vector-effect:none;fill:none;fill-opacity:1;fill-rule:evenodd;stroke:#000000;stroke-width:0.2;stroke-linecap:butt;stroke-linejoin:miter;stroke-miterlimit:4;stroke-dasharray:none;stroke-dashoffset:0;stroke-opacity:1"
       d="M 29.18235,164.5914 H 61.509 c 0.59962,0 1.08235,0.4685 1.08235,1.05044 v 10.39048 c 0,0.58194 -0.48273,1.05043 -1.08235,1.05043 H 29.18235 c -0.59962,0 -1.08235,-0.46849 -1.08235,-1.05043 v -10.39048 c 0,-0.58194 0.48273,-1.05044 1.08235,-1.05044 z"
       id="rect10-5-9-3"
       inkscape:connector-curvature="0" />
    <path
       style="opacity:1;vector-effect:none;fill:none;fill-opacity:1;fill-rule:evenodd;stroke:#000000;stroke-width:0.2;stroke-linecap:butt;stroke-linejoin:miter;stroke-miterlimit:4;stroke-dasharray:none;stroke-dashoffset:0;stroke-opacity:1"
       d="m 64.20829,164.5914 h 32.32665 c 0.59962,0 1.08235,0.4685 1.08235,1.05044 v 10.39048 c 0,0.58194 -0.48273,1.05043 -1.08235,1.05043 H 64.20829 c -0.59962,0 -1.08235,-0.46849 -1.08235,-1.05043 v -10.39048 c 0,-0.58194 0.48273,-1.05044 1.08235,-1.05044 z"
       id="rect10-3-6-3-6"
       inkscape:connector-curvature="0" />
    <path
       style="opacity:1;vector-effect:none;fill:none;fill-opacity:1;fill-rule:evenodd;stroke:#000000;stroke-width:0.2;stroke-linecap:butt;stroke-linejoin:miter;stroke-miterlimit:4;stroke-dasharray:none;stroke-dashoffset:0;stroke-opacity:1"
       d="m 134.5557,164.5914 h 32.32665 c 0.59962,0 1.08235,0.4685 1.08235,1.05044 v 10.39048 c 0,0.58194 -0.48273,1.05043 -1.08235,1.05043 H 134.5557 c -0.59962,0 -1.08235,-0.46849 -1.08235,-1.05043 v -10.39048 c 0,-0.58194 0.48273,-1.05044 1.08235,-1.05044 z"
       id="rect10-6-2-6-1"
       inkscape:connector-curvature="0" />
    <path
       style="opacity:1;vector-effect:none;fill:none;fill-opacity:1;fill-rule:evenodd;stroke:#000000;stroke-width:0.2;stroke-linecap:butt;stroke-linejoin:miter;stroke-miterlimit:4;stroke-dasharray:none;stroke-dashoffset:0;stroke-opacity:1"
       d="m 99.46037,164.5914 h 32.32665 c 0.59963,0 1.08236,0.4685 1.08236,1.05044 v 10.39048 c 0,0.58194 -0.48273,1.05043 -1.08236,1.05043 H 99.46037 c -0.59962,0 -1.08234,-0.46849 -1.08234,-1.05043 v -10.39048 c 0,-0.58194 0.48272,-1.05044 1.08234,-1.05044 z"
       id="rect10-3-7-9-0-0"
       inkscape:connector-curvature="0" />
    <path
       style="opacity:1;vector-effect:none;fill:none;fill-opacity:1;fill-rule:evenodd;stroke:#000000;stroke-width:0.2;stroke-linecap:butt;stroke-linejoin:miter;stroke-miterlimit:4;stroke-dasharray:none;stroke-dashoffset:0;stroke-opacity:1"
       d="M 29.18235,178.2953 H 61.509 c 0.59962,0 1.08235,0.46849 1.08235,1.05043 v 10.39048 c 0,0.58194 -0.48273,1.05044 -1.08235,1.05044 H 29.18235 c -0.59962,0 -1.08235,-0.4685 -1.08235,-1.05044 v -10.39048 c 0,-0.58194 0.48273,-1.05043 1.08235,-1.05043 z"
       id="rect10-62-6"
       inkscape:connector-curvature="0" />
    <path
       style="opacity:1;vector-effect:none;fill:none;fill-opacity:1;fill-rule:evenodd;stroke:#000000;stroke-width:0.2;stroke-linecap:butt;stroke-linejoin:miter;stroke-miterlimit:4;stroke-dasharray:none;stroke-dashoffset:0;stroke-opacity:1"
       d="m 64.20829,178.2953 h 32.32665 c 0.59962,0 1.08235,0.46849 1.08235,1.05043 v 10.39048 c 0,0.58194 -0.48273,1.05044 -1.08235,1.05044 H 64.20829 c -0.59962,0 -1.08235,-0.4685 -1.08235,-1.05044 v -10.39048 c 0,-0.58194 0.48273,-1.05043 1.08235,-1.05043 z"
       id="rect10-3-61-3"
       inkscape:connector-curvature="0" />
    <path
       style="opacity:1;vector-effect:none;fill:none;fill-opacity:1;fill-rule:evenodd;stroke:#000000;stroke-width:0.2;stroke-linecap:butt;stroke-linejoin:miter;stroke-miterlimit:4;stroke-dasharray:none;stroke-dashoffset:0;stroke-opacity:1"
       d="m 134.5557,178.2953 h 32.32665 c 0.59962,0 1.08235,0.46849 1.08235,1.05043 v 10.39048 c 0,0.58194 -0.48273,1.05044 -1.08235,1.05044 H 134.5557 c -0.59962,0 -1.08235,-0.4685 -1.08235,-1.05044 v -10.39048 c 0,-0.58194 0.48273,-1.05043 1.08235,-1.05043 z"
       id="rect10-6-8-2"
       inkscape:connector-curvature="0" />
    <path
       style="opacity:1;vector-effect:none;fill:none;fill-opacity:1;fill-rule:evenodd;stroke:#000000;stroke-width:0.2;stroke-linecap:butt;stroke-linejoin:miter;stroke-miterlimit:4;stroke-dasharray:none;stroke-dashoffset:0;stroke-opacity:1"
       d="m 99.46037,178.2953 h 32.32665 c 0.59963,0 1.08236,0.46849 1.08236,1.05043 v 10.39048 c 0,0.58194 -0.48273,1.05044 -1.08236,1.05044 H 99.46037 c -0.59961,0 -1.08234,-0.4685 -1.08234,-1.05044 v -10.39048 c 0,-0.58194 0.48273,-1.05043 1.08234,-1.05043 z"
       id="rect10-3-7-7-0"
       inkscape:connector-curvature="0" />
    <path
       style="opacity:1;vector-effect:none;fill:none;fill-opacity:1;fill-rule:evenodd;stroke:#000000;stroke-width:0.2;stroke-linecap:butt;stroke-linejoin:miter;stroke-miterlimit:4;stroke-dasharray:none;stroke-dashoffset:0;stroke-opacity:1"
       d="M 29.18235,191.80279 H 61.509 c 0.59962,0 1.08235,0.46849 1.08235,1.05043 v 10.39048 c 0,0.58194 -0.48273,1.05044 -1.08235,1.05044 H 29.18235 c -0.59962,0 -1.08235,-0.4685 -1.08235,-1.05044 v -10.39048 c 0,-0.58194 0.48273,-1.05043 1.08235,-1.05043 z"
       id="rect10-5-92-6"
       inkscape:connector-curvature="0" />
    <path
       style="opacity:1;vector-effect:none;fill:none;fill-opacity:1;fill-rule:evenodd;stroke:#000000;stroke-width:0.2;stroke-linecap:butt;stroke-linejoin:miter;stroke-miterlimit:4;stroke-dasharray:none;stroke-dashoffset:0;stroke-opacity:1"
       d="m 64.20829,191.80279 h 32.32665 c 0.59962,0 1.08235,0.46849 1.08235,1.05043 v 10.39048 c 0,0.58194 -0.48273,1.05044 -1.08235,1.05044 H 64.20829 c -0.59962,0 -1.08235,-0.4685 -1.08235,-1.05044 v -10.39048 c 0,-0.58194 0.48273,-1.05043 1.08235,-1.05043 z"
       id="rect10-3-6-0-1"
       inkscape:connector-curvature="0" />
    <path
       style="opacity:1;vector-effect:none;fill:none;fill-opacity:1;fill-rule:evenodd;stroke:#000000;stroke-width:0.2;stroke-linecap:butt;stroke-linejoin:miter;stroke-miterlimit:4;stroke-dasharray:none;stroke-dashoffset:0;stroke-opacity:1"
       d="m 134.5557,191.80279 h 32.32665 c 0.59962,0 1.08235,0.46849 1.08235,1.05043 v 10.39048 c 0,0.58194 -0.48273,1.05044 -1.08235,1.05044 H 134.5557 c -0.59962,0 -1.08235,-0.4685 -1.08235,-1.05044 v -10.39048 c 0,-0.58194 0.48273,-1.05043 1.08235,-1.05043 z"
       id="rect10-6-2-2-5"
       inkscape:connector-curvature="0" />
    <path
       style="opacity:1;vector-effect:none;fill:none;fill-opacity:1;fill-rule:evenodd;stroke:#000000;stroke-width:0.2;stroke-linecap:butt;stroke-linejoin:miter;stroke-miterlimit:4;stroke-dasharray:none;stroke-dashoffset:0;stroke-opacity:1"
       d="m 99.46037,191.80279 h 32.32665 c 0.59963,0 1.08236,0.46849 1.08236,1.05043 v 10.39048 c 0,0.58194 -0.48273,1.05044 -1.08236,1.05044 H 99.46037 c -0.59962,0 -1.08234,-0.4685 -1.08234,-1.05044 v -10.39048 c 0,-0.58194 0.48272,-1.05043 1.08234,-1.05043 z"
       id="rect10-3-7-9-3-5"
       inkscape:connector-curvature="0" />
    <path
       style="opacity:1;vector-effect:none;fill:none;fill-opacity:1;fill-rule:evenodd;stroke:#000000;stroke-width:0.2;stroke-linecap:butt;stroke-linejoin:miter;stroke-miterlimit:4;stroke-dasharray:none;stroke-dashoffset:0;stroke-opacity:1"
       d="M 29.18235,205.36689 H 61.509 c 0.59962,0 1.08235,0.46849 1.08235,1.05043 v 10.39047 c 0,0.58194 -0.48273,1.05043 -1.08235,1.05043 H 29.18235 c -0.59962,0 -1.08235,-0.46849 -1.08235,-1.05043 v -10.39047 c 0,-0.58194 0.48273,-1.05043 1.08235,-1.05043 z"
       id="rect10-1-7-4"
       inkscape:connector-curvature="0" />
    <path
       style="opacity:1;vector-effect:none;fill:none;fill-opacity:1;fill-rule:evenodd;stroke:#000000;stroke-width:0.2;stroke-linecap:butt;stroke-linejoin:miter;stroke-miterlimit:4;stroke-dasharray:none;stroke-dashoffset:0;stroke-opacity:1"
       d="m 64.20829,205.36689 h 32.32665 c 0.59962,0 1.08235,0.46849 1.08235,1.05043 v 10.39047 c 0,0.58194 -0.48273,1.05043 -1.08235,1.05043 H 64.20829 c -0.59962,0 -1.08235,-0.46849 -1.08235,-1.05043 v -10.39047 c 0,-0.58194 0.48273,-1.05043 1.08235,-1.05043 z"
       id="rect10-3-2-5-7"
       inkscape:connector-curvature="0" />
    <path
       style="opacity:1;vector-effect:none;fill:none;fill-opacity:1;fill-rule:evenodd;stroke:#000000;stroke-width:0.2;stroke-linecap:butt;stroke-linejoin:miter;stroke-miterlimit:4;stroke-dasharray:none;stroke-dashoffset:0;stroke-opacity:1"
       d="m 134.5557,205.36689 h 32.32665 c 0.59962,0 1.08235,0.46849 1.08235,1.05043 v 10.39047 c 0,0.58194 -0.48273,1.05043 -1.08235,1.05043 H 134.5557 c -0.59962,0 -1.08235,-0.46849 -1.08235,-1.05043 v -10.39047 c 0,-0.58194 0.48273,-1.05043 1.08235,-1.05043 z"
       id="rect10-6-7-9-6"
       inkscape:connector-curvature="0" />
    <path
       style="opacity:1;vector-effect:none;fill:none;fill-opacity:1;fill-rule:evenodd;stroke:#000000;stroke-width:0.2;stroke-linecap:butt;stroke-linejoin:miter;stroke-miterlimit:4;stroke-dasharray:none;stroke-dashoffset:0;stroke-opacity:1"
       d="m 99.46037,205.36689 h 32.32665 c 0.59963,0 1.08236,0.46849 1.08236,1.05043 v 10.39047 c 0,0.58194 -0.48273,1.05043 -1.08236,1.05043 H 99.46037 c -0.59962,0 -1.08234,-0.46849 -1.08234,-1.05043 v -10.39047 c 0,-0.58194 0.48272,-1.05043 1.08234,-1.05043 z"
       id="rect10-3-7-0-2-5"
       inkscape:connector-curvature="0" />
    <path
       style="opacity:1;vector-effect:none;fill:none;fill-opacity:1;fill-rule:evenodd;stroke:#000000;stroke-width:0.2;stroke-linecap:butt;stroke-linejoin:miter;stroke-miterlimit:4;stroke-dasharray:none;stroke-dashoffset:0;stroke-opacity:1"
       d="M 29.18235,218.87437 H 61.509 c 0.59962,0 1.08235,0.46849 1.08235,1.05043 v 10.39048 c 0,0.58194 -0.48273,1.05044 -1.08235,1.05044 H 29.18235 c -0.59962,0 -1.08235,-0.4685 -1.08235,-1.05044 V 219.9248 c 0,-0.58194 0.48273,-1.05043 1.08235,-1.05043 z"
       id="rect10-5-9-2-6"
       inkscape:connector-curvature="0" />
    <path
       style="opacity:1;vector-effect:none;fill:none;fill-opacity:1;fill-rule:evenodd;stroke:#000000;stroke-width:0.2;stroke-linecap:butt;stroke-linejoin:miter;stroke-miterlimit:4;stroke-dasharray:none;stroke-dashoffset:0;stroke-opacity:1"
       d="m 64.20829,218.87437 h 32.32665 c 0.59962,0 1.08235,0.46849 1.08235,1.05043 v 10.39048 c 0,0.58194 -0.48273,1.05044 -1.08235,1.05044 H 64.20829 c -0.59962,0 -1.08235,-0.4685 -1.08235,-1.05044 V 219.9248 c 0,-0.58194 0.48273,-1.05043 1.08235,-1.05043 z"
       id="rect10-3-6-3-8-9"
       inkscape:connector-curvature="0" />
    <path
       style="opacity:1;vector-effect:none;fill:none;fill-opacity:1;fill-rule:evenodd;stroke:#000000;stroke-width:0.2;stroke-linecap:butt;stroke-linejoin:miter;stroke-miterlimit:4;stroke-dasharray:none;stroke-dashoffset:0;stroke-opacity:1"
       d="m 134.5557,218.87437 h 32.32665 c 0.59962,0 1.08235,0.46849 1.08235,1.05043 v 10.39048 c 0,0.58194 -0.48273,1.05044 -1.08235,1.05044 H 134.5557 c -0.59962,0 -1.08235,-0.4685 -1.08235,-1.05044 V 219.9248 c 0,-0.58194 0.48273,-1.05043 1.08235,-1.05043 z"
       id="rect10-6-2-6-9-3"
       inkscape:connector-curvature="0" />
    <path
       style="opacity:1;vector-effect:none;fill:none;fill-opacity:1;fill-rule:evenodd;stroke:#000000;stroke-width:0.2;stroke-linecap:butt;stroke-linejoin:miter;stroke-miterlimit:4;stroke-dasharray:none;stroke-dashoffset:0;stroke-opacity:1"
       d="m 99.46037,218.87437 h 32.32665 c 0.59963,0 1.08236,0.46849 1.08236,1.05043 v 10.39048 c 0,0.58194 -0.48273,1.05044 -1.08236,1.05044 H 99.46037 c -0.59962,0 -1.08234,-0.4685 -1.08234,-1.05044 V 219.9248 c 0,-0.58194 0.48272,-1.05043 1.08234,-1.05043 z"
       id="rect10-3-7-9-0-7-7"
       inkscape:connector-curvature="0" />
    <path
       style="opacity:1;vector-effect:none;fill:none;fill-opacity:1;fill-rule:evenodd;stroke:#000000;stroke-width:0.2;stroke-linecap:butt;stroke-linejoin:miter;stroke-miterlimit:4;stroke-dasharray:none;stroke-dashoffset:0;stroke-opacity:1"
       d="m 204.80329,15.563547 h 32.32665 c 0.59962,0 1.08235,0.46849 1.08235,1.05043 v 10.39048 c 0,0.58194 -0.48273,1.05043 -1.08235,1.05043 h -32.32665 c -0.59962,0 -1.08235,-0.46849 -1.08235,-1.05043 v -10.39048 c 0,-0.58194 0.48273,-1.05043 1.08235,-1.05043 z"
       id="rect10-6-4"
       inkscape:connector-curvature="0" />
    <path
       style="opacity:1;vector-effect:none;fill:none;fill-opacity:1;fill-rule:evenodd;stroke:#000000;stroke-width:0.2;stroke-linecap:butt;stroke-linejoin:miter;stroke-miterlimit:4;stroke-dasharray:none;stroke-dashoffset:0;stroke-opacity:1"
       d="m 169.70796,15.563547 h 32.32665 c 0.59963,0 1.08236,0.46849 1.08236,1.05043 v 10.39048 c 0,0.58194 -0.48273,1.05043 -1.08236,1.05043 h -32.32665 c -0.59961,0 -1.08234,-0.46849 -1.08234,-1.05043 v -10.39048 c 0,-0.58194 0.48273,-1.05043 1.08234,-1.05043 z"
       id="rect10-3-7-5"
       inkscape:connector-curvature="0" />
    <path
       style="opacity:1;vector-effect:none;fill:none;fill-opacity:1;fill-rule:evenodd;stroke:#000000;stroke-width:0.2;stroke-linecap:butt;stroke-linejoin:miter;stroke-miterlimit:4;stroke-dasharray:none;stroke-dashoffset:0;stroke-opacity:1"
       d="m 204.80329,29.071037 h 32.32665 c 0.59962,0 1.08235,0.46849 1.08235,1.05043 v 10.39048 c 0,0.58194 -0.48273,1.05043 -1.08235,1.05043 h -32.32665 c -0.59962,0 -1.08235,-0.46849 -1.08235,-1.05043 v -10.39048 c 0,-0.58194 0.48273,-1.05043 1.08235,-1.05043 z"
       id="rect10-6-2-25"
       inkscape:connector-curvature="0" />
    <path
       style="opacity:1;vector-effect:none;fill:none;fill-opacity:1;fill-rule:evenodd;stroke:#000000;stroke-width:0.2;stroke-linecap:butt;stroke-linejoin:miter;stroke-miterlimit:4;stroke-dasharray:none;stroke-dashoffset:0;stroke-opacity:1"
       d="m 169.70796,29.071037 h 32.32665 c 0.59963,0 1.08236,0.46849 1.08236,1.05043 v 10.39048 c 0,0.58194 -0.48273,1.05043 -1.08236,1.05043 h -32.32665 c -0.59962,0 -1.08234,-0.46849 -1.08234,-1.05043 v -10.39048 c 0,-0.58194 0.48272,-1.05043 1.08234,-1.05043 z"
       id="rect10-3-7-9-4"
       inkscape:connector-curvature="0" />
    <path
       style="opacity:1;vector-effect:none;fill:none;fill-opacity:1;fill-rule:evenodd;stroke:#000000;stroke-width:0.2;stroke-linecap:butt;stroke-linejoin:miter;stroke-miterlimit:4;stroke-dasharray:none;stroke-dashoffset:0;stroke-opacity:1"
       d="m 204.80329,42.635147 h 32.32665 c 0.59962,0 1.08235,0.46849 1.08235,1.05043 v 10.39048 c 0,0.58194 -0.48273,1.05043 -1.08235,1.05043 h -32.32665 c -0.59962,0 -1.08235,-0.46849 -1.08235,-1.05043 v -10.39048 c 0,-0.58194 0.48273,-1.05043 1.08235,-1.05043 z"
       id="rect10-6-7-7"
       inkscape:connector-curvature="0" />
    <path
       style="opacity:1;vector-effect:none;fill:none;fill-opacity:1;fill-rule:evenodd;stroke:#000000;stroke-width:0.2;stroke-linecap:butt;stroke-linejoin:miter;stroke-miterlimit:4;stroke-dasharray:none;stroke-dashoffset:0;stroke-opacity:1"
       d="m 169.70796,42.635147 h 32.32665 c 0.59963,0 1.08236,0.46849 1.08236,1.05043 v 10.39048 c 0,0.58194 -0.48273,1.05043 -1.08236,1.05043 h -32.32665 c -0.59962,0 -1.08234,-0.46849 -1.08234,-1.05043 v -10.39048 c 0,-0.58194 0.48272,-1.05043 1.08234,-1.05043 z"
       id="rect10-3-7-0-4"
       inkscape:connector-curvature="0" />
    <path
       style="opacity:1;vector-effect:none;fill:none;fill-opacity:1;fill-rule:evenodd;stroke:#000000;stroke-width:0.2;stroke-linecap:butt;stroke-linejoin:miter;stroke-miterlimit:4;stroke-dasharray:none;stroke-dashoffset:0;stroke-opacity:1"
       d="m 204.80329,56.142637 h 32.32665 c 0.59962,0 1.08235,0.46849 1.08235,1.05043 v 10.39048 c 0,0.58194 -0.48273,1.05044 -1.08235,1.05044 h -32.32665 c -0.59962,0 -1.08235,-0.4685 -1.08235,-1.05044 v -10.39048 c 0,-0.58194 0.48273,-1.05043 1.08235,-1.05043 z"
       id="rect10-6-2-6-4"
       inkscape:connector-curvature="0" />
    <path
       style="opacity:1;vector-effect:none;fill:none;fill-opacity:1;fill-rule:evenodd;stroke:#000000;stroke-width:0.2;stroke-linecap:butt;stroke-linejoin:miter;stroke-miterlimit:4;stroke-dasharray:none;stroke-dashoffset:0;stroke-opacity:1"
       d="m 169.70796,56.142637 h 32.32665 c 0.59963,0 1.08236,0.46849 1.08236,1.05043 v 10.39048 c 0,0.58194 -0.48273,1.05044 -1.08236,1.05044 h -32.32665 c -0.59962,0 -1.08234,-0.4685 -1.08234,-1.05044 v -10.39048 c 0,-0.58194 0.48272,-1.05043 1.08234,-1.05043 z"
       id="rect10-3-7-9-0-3"
       inkscape:connector-curvature="0" />
    <path
       style="opacity:1;vector-effect:none;fill:none;fill-opacity:1;fill-rule:evenodd;stroke:#000000;stroke-width:0.2;stroke-linecap:butt;stroke-linejoin:miter;stroke-miterlimit:4;stroke-dasharray:none;stroke-dashoffset:0;stroke-opacity:1"
       d="m 204.80329,69.846527 h 32.32665 c 0.59962,0 1.08235,0.4685 1.08235,1.05044 v 10.39047 c 0,0.58195 -0.48273,1.05044 -1.08235,1.05044 h -32.32665 c -0.59962,0 -1.08235,-0.46849 -1.08235,-1.05044 v -10.39047 c 0,-0.58194 0.48273,-1.05044 1.08235,-1.05044 z"
       id="rect10-6-8-0"
       inkscape:connector-curvature="0" />
    <path
       style="opacity:1;vector-effect:none;fill:none;fill-opacity:1;fill-rule:evenodd;stroke:#000000;stroke-width:0.2;stroke-linecap:butt;stroke-linejoin:miter;stroke-miterlimit:4;stroke-dasharray:none;stroke-dashoffset:0;stroke-opacity:1"
       d="m 169.70796,69.846527 h 32.32665 c 0.59963,0 1.08236,0.4685 1.08236,1.05044 v 10.39047 c 0,0.58195 -0.48273,1.05044 -1.08236,1.05044 h -32.32665 c -0.59961,0 -1.08234,-0.46849 -1.08234,-1.05044 v -10.39047 c 0,-0.58194 0.48273,-1.05044 1.08234,-1.05044 z"
       id="rect10-3-7-7-7"
       inkscape:connector-curvature="0" />
    <path
       style="opacity:1;vector-effect:none;fill:none;fill-opacity:1;fill-rule:evenodd;stroke:#000000;stroke-width:0.2;stroke-linecap:butt;stroke-linejoin:miter;stroke-miterlimit:4;stroke-dasharray:none;stroke-dashoffset:0;stroke-opacity:1"
       d="m 204.80329,83.354017 h 32.32665 c 0.59962,0 1.08235,0.4685 1.08235,1.05044 v 10.39047 c 0,0.58194 -0.48273,1.05044 -1.08235,1.05044 h -32.32665 c -0.59962,0 -1.08235,-0.4685 -1.08235,-1.05044 v -10.39047 c 0,-0.58194 0.48273,-1.05044 1.08235,-1.05044 z"
       id="rect10-6-2-2-8"
       inkscape:connector-curvature="0" />
    <path
       style="opacity:1;vector-effect:none;fill:none;fill-opacity:1;fill-rule:evenodd;stroke:#000000;stroke-width:0.2;stroke-linecap:butt;stroke-linejoin:miter;stroke-miterlimit:4;stroke-dasharray:none;stroke-dashoffset:0;stroke-opacity:1"
       d="m 169.70796,83.354017 h 32.32665 c 0.59963,0 1.08236,0.4685 1.08236,1.05044 v 10.39047 c 0,0.58194 -0.48273,1.05044 -1.08236,1.05044 h -32.32665 c -0.59962,0 -1.08234,-0.4685 -1.08234,-1.05044 v -10.39047 c 0,-0.58194 0.48272,-1.05044 1.08234,-1.05044 z"
       id="rect10-3-7-9-3-6"
       inkscape:connector-curvature="0" />
    <path
       style="opacity:1;vector-effect:none;fill:none;fill-opacity:1;fill-rule:evenodd;stroke:#000000;stroke-width:0.2;stroke-linecap:butt;stroke-linejoin:miter;stroke-miterlimit:4;stroke-dasharray:none;stroke-dashoffset:0;stroke-opacity:1"
       d="m 204.80329,96.918127 h 32.32665 c 0.59962,0 1.08235,0.46848 1.08235,1.05042 v 10.390483 c 0,0.58194 -0.48273,1.05043 -1.08235,1.05043 h -32.32665 c -0.59962,0 -1.08235,-0.46849 -1.08235,-1.05043 V 97.968547 c 0,-0.58194 0.48273,-1.05042 1.08235,-1.05042 z"
       id="rect10-6-7-9-8"
       inkscape:connector-curvature="0" />
    <path
       style="opacity:1;vector-effect:none;fill:none;fill-opacity:1;fill-rule:evenodd;stroke:#000000;stroke-width:0.2;stroke-linecap:butt;stroke-linejoin:miter;stroke-miterlimit:4;stroke-dasharray:none;stroke-dashoffset:0;stroke-opacity:1"
       d="m 169.70796,96.918127 h 32.32665 c 0.59963,0 1.08236,0.46848 1.08236,1.05042 v 10.390483 c 0,0.58194 -0.48273,1.05043 -1.08236,1.05043 h -32.32665 c -0.59962,0 -1.08234,-0.46849 -1.08234,-1.05043 V 97.968547 c 0,-0.58194 0.48272,-1.05042 1.08234,-1.05042 z"
       id="rect10-3-7-0-2-8"
       inkscape:connector-curvature="0" />
    <path
       style="opacity:1;vector-effect:none;fill:none;fill-opacity:1;fill-rule:evenodd;stroke:#000000;stroke-width:0.2;stroke-linecap:butt;stroke-linejoin:miter;stroke-miterlimit:4;stroke-dasharray:none;stroke-dashoffset:0;stroke-opacity:1"
       d="m 204.80329,110.4256 h 32.32665 c 0.59962,0 1.08235,0.46849 1.08235,1.05043 v 10.39049 c 0,0.58194 -0.48273,1.05044 -1.08235,1.05044 h -32.32665 c -0.59962,0 -1.08235,-0.4685 -1.08235,-1.05044 v -10.39049 c 0,-0.58194 0.48273,-1.05043 1.08235,-1.05043 z"
       id="rect10-6-2-6-9-4"
       inkscape:connector-curvature="0" />
    <path
       style="opacity:1;vector-effect:none;fill:none;fill-opacity:1;fill-rule:evenodd;stroke:#000000;stroke-width:0.2;stroke-linecap:butt;stroke-linejoin:miter;stroke-miterlimit:4;stroke-dasharray:none;stroke-dashoffset:0;stroke-opacity:1"
       d="m 169.70796,110.4256 h 32.32665 c 0.59963,0 1.08236,0.46849 1.08236,1.05043 v 10.39049 c 0,0.58194 -0.48273,1.05044 -1.08236,1.05044 h -32.32665 c -0.59962,0 -1.08234,-0.4685 -1.08234,-1.05044 v -10.39049 c 0,-0.58194 0.48272,-1.05043 1.08234,-1.05043 z"
       id="rect10-3-7-9-0-7-3"
       inkscape:connector-curvature="0" />
    <path
       style="opacity:1;vector-effect:none;fill:none;fill-opacity:1;fill-rule:evenodd;stroke:#000000;stroke-width:0.2;stroke-linecap:butt;stroke-linejoin:miter;stroke-miterlimit:4;stroke-dasharray:none;stroke-dashoffset:0;stroke-opacity:1"
       d="m 204.80329,124.1672 h 32.32665 c 0.59962,0 1.08235,0.4685 1.08235,1.05044 v 10.39048 c 0,0.58194 -0.48273,1.05044 -1.08235,1.05044 h -32.32665 c -0.59962,0 -1.08235,-0.4685 -1.08235,-1.05044 v -10.39048 c 0,-0.58194 0.48273,-1.05044 1.08235,-1.05044 z"
       id="rect10-6-29-1"
       inkscape:connector-curvature="0" />
    <path
       style="opacity:1;vector-effect:none;fill:none;fill-opacity:1;fill-rule:evenodd;stroke:#000000;stroke-width:0.2;stroke-linecap:butt;stroke-linejoin:miter;stroke-miterlimit:4;stroke-dasharray:none;stroke-dashoffset:0;stroke-opacity:1"
       d="m 169.70796,124.1672 h 32.32665 c 0.59963,0 1.08236,0.4685 1.08236,1.05044 v 10.39048 c 0,0.58194 -0.48273,1.05044 -1.08236,1.05044 h -32.32665 c -0.59962,0 -1.08234,-0.4685 -1.08234,-1.05044 v -10.39048 c 0,-0.58194 0.48272,-1.05044 1.08234,-1.05044 z"
       id="rect10-3-7-3-4"
       inkscape:connector-curvature="0" />
    <path
       style="opacity:1;vector-effect:none;fill:none;fill-opacity:1;fill-rule:evenodd;stroke:#000000;stroke-width:0.2;stroke-linecap:butt;stroke-linejoin:miter;stroke-miterlimit:4;stroke-dasharray:none;stroke-dashoffset:0;stroke-opacity:1"
       d="m 204.80329,137.6747 h 32.32665 c 0.59962,0 1.08235,0.4685 1.08235,1.05044 v 10.39047 c 0,0.58195 -0.48273,1.05044 -1.08235,1.05044 h -32.32665 c -0.59962,0 -1.08235,-0.46849 -1.08235,-1.05044 v -10.39047 c 0,-0.58194 0.48273,-1.05044 1.08235,-1.05044 z"
       id="rect10-6-2-4-9"
       inkscape:connector-curvature="0" />
    <path
       style="opacity:1;vector-effect:none;fill:none;fill-opacity:1;fill-rule:evenodd;stroke:#000000;stroke-width:0.2;stroke-linecap:butt;stroke-linejoin:miter;stroke-miterlimit:4;stroke-dasharray:none;stroke-dashoffset:0;stroke-opacity:1"
       d="m 169.70796,137.6747 h 32.32665 c 0.59963,0 1.08236,0.4685 1.08236,1.05044 v 10.39047 c 0,0.58195 -0.48273,1.05044 -1.08236,1.05044 h -32.32665 c -0.59962,0 -1.08234,-0.46849 -1.08234,-1.05044 v -10.39047 c 0,-0.58194 0.48272,-1.05044 1.08234,-1.05044 z"
       id="rect10-3-7-9-7-2"
       inkscape:connector-curvature="0" />
    <path
       style="opacity:1;vector-effect:none;fill:none;fill-opacity:1;fill-rule:evenodd;stroke:#000000;stroke-width:0.2;stroke-linecap:butt;stroke-linejoin:miter;stroke-miterlimit:4;stroke-dasharray:none;stroke-dashoffset:0;stroke-opacity:1"
       d="m 204.80329,151.23881 h 32.32665 c 0.59962,0 1.08235,0.4685 1.08235,1.05044 v 10.39048 c 0,0.58194 -0.48273,1.05043 -1.08235,1.05043 h -32.32665 c -0.59962,0 -1.08235,-0.46849 -1.08235,-1.05043 v -10.39048 c 0,-0.58194 0.48273,-1.05044 1.08235,-1.05044 z"
       id="rect10-6-7-5-0"
       inkscape:connector-curvature="0" />
    <path
       style="opacity:1;vector-effect:none;fill:none;fill-opacity:1;fill-rule:evenodd;stroke:#000000;stroke-width:0.2;stroke-linecap:butt;stroke-linejoin:miter;stroke-miterlimit:4;stroke-dasharray:none;stroke-dashoffset:0;stroke-opacity:1"
       d="m 169.70796,151.23881 h 32.32665 c 0.59963,0 1.08236,0.4685 1.08236,1.05044 v 10.39048 c 0,0.58194 -0.48273,1.05043 -1.08236,1.05043 h -32.32665 c -0.59962,0 -1.08234,-0.46849 -1.08234,-1.05043 v -10.39048 c 0,-0.58194 0.48272,-1.05044 1.08234,-1.05044 z"
       id="rect10-3-7-0-0-6"
       inkscape:connector-curvature="0" />
    <path
       style="opacity:1;vector-effect:none;fill:none;fill-opacity:1;fill-rule:evenodd;stroke:#000000;stroke-width:0.2;stroke-linecap:butt;stroke-linejoin:miter;stroke-miterlimit:4;stroke-dasharray:none;stroke-dashoffset:0;stroke-opacity:1"
       d="m 204.80329,164.7463 h 32.32665 c 0.59962,0 1.08235,0.4685 1.08235,1.05044 v 10.39048 c 0,0.58194 -0.48273,1.05043 -1.08235,1.05043 h -32.32665 c -0.59962,0 -1.08235,-0.46849 -1.08235,-1.05043 v -10.39048 c 0,-0.58194 0.48273,-1.05044 1.08235,-1.05044 z"
       id="rect10-6-2-6-1-8"
       inkscape:connector-curvature="0" />
    <path
       style="opacity:1;vector-effect:none;fill:none;fill-opacity:1;fill-rule:evenodd;stroke:#000000;stroke-width:0.2;stroke-linecap:butt;stroke-linejoin:miter;stroke-miterlimit:4;stroke-dasharray:none;stroke-dashoffset:0;stroke-opacity:1"
       d="m 169.70796,164.7463 h 32.32665 c 0.59963,0 1.08236,0.4685 1.08236,1.05044 v 10.39048 c 0,0.58194 -0.48273,1.05043 -1.08236,1.05043 h -32.32665 c -0.59962,0 -1.08234,-0.46849 -1.08234,-1.05043 v -10.39048 c 0,-0.58194 0.48272,-1.05044 1.08234,-1.05044 z"
       id="rect10-3-7-9-0-0-9"
       inkscape:connector-curvature="0" />
    <path
       style="opacity:1;vector-effect:none;fill:none;fill-opacity:1;fill-rule:evenodd;stroke:#000000;stroke-width:0.2;stroke-linecap:butt;stroke-linejoin:miter;stroke-miterlimit:4;stroke-dasharray:none;stroke-dashoffset:0;stroke-opacity:1"
       d="m 204.80329,178.4502 h 32.32665 c 0.59962,0 1.08235,0.46849 1.08235,1.05043 v 10.39048 c 0,0.58194 -0.48273,1.05044 -1.08235,1.05044 h -32.32665 c -0.59962,0 -1.08235,-0.4685 -1.08235,-1.05044 v -10.39048 c 0,-0.58194 0.48273,-1.05043 1.08235,-1.05043 z"
       id="rect10-6-8-2-2"
       inkscape:connector-curvature="0" />
    <path
       style="opacity:1;vector-effect:none;fill:none;fill-opacity:1;fill-rule:evenodd;stroke:#000000;stroke-width:0.2;stroke-linecap:butt;stroke-linejoin:miter;stroke-miterlimit:4;stroke-dasharray:none;stroke-dashoffset:0;stroke-opacity:1"
       d="m 169.70796,178.4502 h 32.32665 c 0.59963,0 1.08236,0.46849 1.08236,1.05043 v 10.39048 c 0,0.58194 -0.48273,1.05044 -1.08236,1.05044 h -32.32665 c -0.59961,0 -1.08234,-0.4685 -1.08234,-1.05044 v -10.39048 c 0,-0.58194 0.48273,-1.05043 1.08234,-1.05043 z"
       id="rect10-3-7-7-0-6"
       inkscape:connector-curvature="0" />
    <path
       style="opacity:1;vector-effect:none;fill:none;fill-opacity:1;fill-rule:evenodd;stroke:#000000;stroke-width:0.2;stroke-linecap:butt;stroke-linejoin:miter;stroke-miterlimit:4;stroke-dasharray:none;stroke-dashoffset:0;stroke-opacity:1"
       d="m 204.80329,191.95769 h 32.32665 c 0.59962,0 1.08235,0.46849 1.08235,1.05043 v 10.39048 c 0,0.58194 -0.48273,1.05044 -1.08235,1.05044 h -32.32665 c -0.59962,0 -1.08235,-0.4685 -1.08235,-1.05044 v -10.39048 c 0,-0.58194 0.48273,-1.05043 1.08235,-1.05043 z"
       id="rect10-6-2-2-5-6"
       inkscape:connector-curvature="0" />
    <path
       style="opacity:1;vector-effect:none;fill:none;fill-opacity:1;fill-rule:evenodd;stroke:#000000;stroke-width:0.2;stroke-linecap:butt;stroke-linejoin:miter;stroke-miterlimit:4;stroke-dasharray:none;stroke-dashoffset:0;stroke-opacity:1"
       d="m 169.70796,191.95769 h 32.32665 c 0.59963,0 1.08236,0.46849 1.08236,1.05043 v 10.39048 c 0,0.58194 -0.48273,1.05044 -1.08236,1.05044 h -32.32665 c -0.59962,0 -1.08234,-0.4685 -1.08234,-1.05044 v -10.39048 c 0,-0.58194 0.48272,-1.05043 1.08234,-1.05043 z"
       id="rect10-3-7-9-3-5-4"
       inkscape:connector-curvature="0" />
    <path
       style="opacity:1;vector-effect:none;fill:none;fill-opacity:1;fill-rule:evenodd;stroke:#000000;stroke-width:0.2;stroke-linecap:butt;stroke-linejoin:miter;stroke-miterlimit:4;stroke-dasharray:none;stroke-dashoffset:0;stroke-opacity:1"
       d="m 204.80329,205.52179 h 32.32665 c 0.59962,0 1.08235,0.46849 1.08235,1.05043 v 10.39047 c 0,0.58194 -0.48273,1.05043 -1.08235,1.05043 h -32.32665 c -0.59962,0 -1.08235,-0.46849 -1.08235,-1.05043 v -10.39047 c 0,-0.58194 0.48273,-1.05043 1.08235,-1.05043 z"
       id="rect10-6-7-9-6-9"
       inkscape:connector-curvature="0" />
    <path
       style="opacity:1;vector-effect:none;fill:none;fill-opacity:1;fill-rule:evenodd;stroke:#000000;stroke-width:0.2;stroke-linecap:butt;stroke-linejoin:miter;stroke-miterlimit:4;stroke-dasharray:none;stroke-dashoffset:0;stroke-opacity:1"
       d="m 169.70796,205.52179 h 32.32665 c 0.59963,0 1.08236,0.46849 1.08236,1.05043 v 10.39047 c 0,0.58194 -0.48273,1.05043 -1.08236,1.05043 h -32.32665 c -0.59962,0 -1.08234,-0.46849 -1.08234,-1.05043 v -10.39047 c 0,-0.58194 0.48272,-1.05043 1.08234,-1.05043 z"
       id="rect10-3-7-0-2-5-5"
       inkscape:connector-curvature="0" />
    <path
       style="opacity:1;vector-effect:none;fill:none;fill-opacity:1;fill-rule:evenodd;stroke:#000000;stroke-width:0.2;stroke-linecap:butt;stroke-linejoin:miter;stroke-miterlimit:4;stroke-dasharray:none;stroke-dashoffset:0;stroke-opacity:1"
       d="m 204.80329,219.02927 h 32.32665 c 0.59962,0 1.08235,0.46849 1.08235,1.05043 v 10.39048 c 0,0.58194 -0.48273,1.05044 -1.08235,1.05044 h -32.32665 c -0.59962,0 -1.08235,-0.4685 -1.08235,-1.05044 V 220.0797 c 0,-0.58194 0.48273,-1.05043 1.08235,-1.05043 z"
       id="rect10-6-2-6-9-3-0"
       inkscape:connector-curvature="0" />
    <path
       style="opacity:1;vector-effect:none;fill:none;fill-opacity:1;fill-rule:evenodd;stroke:#000000;stroke-width:0.2;stroke-linecap:butt;stroke-linejoin:miter;stroke-miterlimit:4;stroke-dasharray:none;stroke-dashoffset:0;stroke-opacity:1"
       d="m 169.70796,219.02927 h 32.32665 c 0.59963,0 1.08236,0.46849 1.08236,1.05043 v 10.39048 c 0,0.58194 -0.48273,1.05044 -1.08236,1.05044 h -32.32665 c -0.59962,0 -1.08234,-0.4685 -1.08234,-1.05044 V 220.0797 c 0,-0.58194 0.48272,-1.05043 1.08234,-1.05043 z"
       id="rect10-3-7-9-0-7-7-4"
       inkscape:connector-curvature="0" />
    <path
       style="opacity:1;vector-effect:none;fill:none;fill-opacity:1;fill-rule:evenodd;stroke:#000000;stroke-width:0.2;stroke-linecap:butt;stroke-linejoin:miter;stroke-miterlimit:4;stroke-dasharray:none;stroke-dashoffset:0;stroke-opacity:1"
       d="M -6.2904711,15.820065 H 26.036182 c 0.59962,0 1.08235,0.4685 1.08235,1.05044 v 10.39047 c 0,0.58195 -0.48273,1.05044 -1.08235,1.05044 H -6.2904711 c -0.59962,0 -1.082348,-0.46849 -1.082348,-1.05044 v -10.39047 c 0,-0.58194 0.482728,-1.05044 1.082348,-1.05044 z"
       id="rect10-7"
       inkscape:connector-curvature="0" />
    <path
       style="opacity:1;vector-effect:none;fill:none;fill-opacity:1;fill-rule:evenodd;stroke:#000000;stroke-width:0.2;stroke-linecap:butt;stroke-linejoin:miter;stroke-miterlimit:4;stroke-dasharray:none;stroke-dashoffset:0;stroke-opacity:1"
       d="M -6.2904691,29.327555 H 26.036182 c 0.59962,0 1.08235,0.4685 1.08235,1.05044 v 10.39047 c 0,0.58195 -0.48273,1.05044 -1.08235,1.05044 H -6.2904691 c -0.59962,0 -1.08235,-0.46849 -1.08235,-1.05044 v -10.39047 c 0,-0.58194 0.48273,-1.05044 1.08235,-1.05044 z"
       id="rect10-5-17"
       inkscape:connector-curvature="0" />
    <path
       style="opacity:1;vector-effect:none;fill:none;fill-opacity:1;fill-rule:evenodd;stroke:#000000;stroke-width:0.2;stroke-linecap:butt;stroke-linejoin:miter;stroke-miterlimit:4;stroke-dasharray:none;stroke-dashoffset:0;stroke-opacity:1"
       d="M -6.2904691,42.891665 H 26.036182 c 0.59962,0 1.08235,0.4685 1.08235,1.05044 v 10.39048 c 0,0.58194 -0.48273,1.05043 -1.08235,1.05043 H -6.2904691 c -0.59962,0 -1.08235,-0.46849 -1.08235,-1.05043 v -10.39048 c 0,-0.58194 0.48273,-1.05044 1.08235,-1.05044 z"
       id="rect10-1-2"
       inkscape:connector-curvature="0" />
    <path
       style="opacity:1;vector-effect:none;fill:none;fill-opacity:1;fill-rule:evenodd;stroke:#000000;stroke-width:0.2;stroke-linecap:butt;stroke-linejoin:miter;stroke-miterlimit:4;stroke-dasharray:none;stroke-dashoffset:0;stroke-opacity:1"
       d="M -6.2904691,56.399155 H 26.036182 c 0.59962,0 1.08235,0.4685 1.08235,1.05044 v 10.39048 c 0,0.58194 -0.48273,1.05043 -1.08235,1.05043 H -6.2904691 c -0.59962,0 -1.08235,-0.46849 -1.08235,-1.05043 v -10.39048 c 0,-0.58194 0.48273,-1.05044 1.08235,-1.05044 z"
       id="rect10-5-9-7"
       inkscape:connector-curvature="0" />
    <path
       style="opacity:1;vector-effect:none;fill:none;fill-opacity:1;fill-rule:evenodd;stroke:#000000;stroke-width:0.2;stroke-linecap:butt;stroke-linejoin:miter;stroke-miterlimit:4;stroke-dasharray:none;stroke-dashoffset:0;stroke-opacity:1"
       d="M -6.2904691,70.103055 H 26.036182 c 0.59962,0 1.08235,0.46849 1.08235,1.05043 v 10.39048 c 0,0.58194 -0.48273,1.05044 -1.08235,1.05044 H -6.2904691 c -0.59962,0 -1.08235,-0.4685 -1.08235,-1.05044 v -10.39048 c 0,-0.58194 0.48273,-1.05043 1.08235,-1.05043 z"
       id="rect10-62-2"
       inkscape:connector-curvature="0" />
    <path
       style="opacity:1;vector-effect:none;fill:none;fill-opacity:1;fill-rule:evenodd;stroke:#000000;stroke-width:0.2;stroke-linecap:butt;stroke-linejoin:miter;stroke-miterlimit:4;stroke-dasharray:none;stroke-dashoffset:0;stroke-opacity:1"
       d="M -6.2904691,83.610545 H 26.036182 c 0.59962,0 1.08235,0.46849 1.08235,1.05043 v 10.39048 c 0,0.58194 -0.48273,1.05044 -1.08235,1.05044 H -6.2904691 c -0.59962,0 -1.08235,-0.4685 -1.08235,-1.05044 v -10.39048 c 0,-0.58194 0.48273,-1.05043 1.08235,-1.05043 z"
       id="rect10-5-92-2"
       inkscape:connector-curvature="0" />
    <path
       style="opacity:1;vector-effect:none;fill:none;fill-opacity:1;fill-rule:evenodd;stroke:#000000;stroke-width:0.2;stroke-linecap:butt;stroke-linejoin:miter;stroke-miterlimit:4;stroke-dasharray:none;stroke-dashoffset:0;stroke-opacity:1"
       d="M -6.2904691,97.174645 H 26.036182 c 0.59962,0 1.08235,0.46849 1.08235,1.05043 v 10.390475 c 0,0.58194 -0.48273,1.05043 -1.08235,1.05043 H -6.2904691 c -0.59962,0 -1.08235,-0.46849 -1.08235,-1.05043 V 98.225075 c 0,-0.58194 0.48273,-1.05043 1.08235,-1.05043 z"
       id="rect10-1-7-6"
       inkscape:connector-curvature="0" />
    <path
       style="opacity:1;vector-effect:none;fill:none;fill-opacity:1;fill-rule:evenodd;stroke:#000000;stroke-width:0.2;stroke-linecap:butt;stroke-linejoin:miter;stroke-miterlimit:4;stroke-dasharray:none;stroke-dashoffset:0;stroke-opacity:1"
       d="M -6.2904691,110.68213 H 26.036182 c 0.59962,0 1.08235,0.46849 1.08235,1.05043 v 10.39048 c 0,0.58194 -0.48273,1.05044 -1.08235,1.05044 H -6.2904691 c -0.59962,0 -1.08235,-0.4685 -1.08235,-1.05044 v -10.39048 c 0,-0.58194 0.48273,-1.05043 1.08235,-1.05043 z"
       id="rect10-5-9-2-1"
       inkscape:connector-curvature="0" />
    <path
       style="opacity:1;vector-effect:none;fill:none;fill-opacity:1;fill-rule:evenodd;stroke:#000000;stroke-width:0.2;stroke-linecap:butt;stroke-linejoin:miter;stroke-miterlimit:4;stroke-dasharray:none;stroke-dashoffset:0;stroke-opacity:1"
       d="M -6.2904691,124.42372 H 26.036182 c 0.59962,0 1.08235,0.4685 1.08235,1.05044 v 10.39048 c 0,0.58194 -0.48273,1.05044 -1.08235,1.05044 H -6.2904691 c -0.59962,0 -1.08235,-0.4685 -1.08235,-1.05044 v -10.39048 c 0,-0.58194 0.48273,-1.05044 1.08235,-1.05044 z"
       id="rect10-36-0"
       inkscape:connector-curvature="0" />
    <path
       style="opacity:1;vector-effect:none;fill:none;fill-opacity:1;fill-rule:evenodd;stroke:#000000;stroke-width:0.2;stroke-linecap:butt;stroke-linejoin:miter;stroke-miterlimit:4;stroke-dasharray:none;stroke-dashoffset:0;stroke-opacity:1"
       d="M -6.2904691,137.93122 H 26.036182 c 0.59962,0 1.08235,0.4685 1.08235,1.05044 v 10.39047 c 0,0.58195 -0.48273,1.05044 -1.08235,1.05044 H -6.2904691 c -0.59962,0 -1.08235,-0.46849 -1.08235,-1.05044 v -10.39047 c 0,-0.58194 0.48273,-1.05044 1.08235,-1.05044 z"
       id="rect10-5-1-6"
       inkscape:connector-curvature="0" />
    <path
       style="opacity:1;vector-effect:none;fill:none;fill-opacity:1;fill-rule:evenodd;stroke:#000000;stroke-width:0.2;stroke-linecap:butt;stroke-linejoin:miter;stroke-miterlimit:4;stroke-dasharray:none;stroke-dashoffset:0;stroke-opacity:1"
       d="M -6.2904691,151.49533 H 26.036182 c 0.59962,0 1.08235,0.4685 1.08235,1.05044 v 10.39048 c 0,0.58194 -0.48273,1.05043 -1.08235,1.05043 H -6.2904691 c -0.59962,0 -1.08235,-0.46849 -1.08235,-1.05043 v -10.39048 c 0,-0.58194 0.48273,-1.05044 1.08235,-1.05044 z"
       id="rect10-1-8-1"
       inkscape:connector-curvature="0" />
    <path
       style="opacity:1;vector-effect:none;fill:none;fill-opacity:1;fill-rule:evenodd;stroke:#000000;stroke-width:0.2;stroke-linecap:butt;stroke-linejoin:miter;stroke-miterlimit:4;stroke-dasharray:none;stroke-dashoffset:0;stroke-opacity:1"
       d="M -6.2904691,165.00282 H 26.036182 c 0.59962,0 1.08235,0.4685 1.08235,1.05044 v 10.39048 c 0,0.58194 -0.48273,1.05043 -1.08235,1.05043 H -6.2904691 c -0.59962,0 -1.08235,-0.46849 -1.08235,-1.05043 v -10.39048 c 0,-0.58194 0.48273,-1.05044 1.08235,-1.05044 z"
       id="rect10-5-9-3-5"
       inkscape:connector-curvature="0" />
    <path
       style="opacity:1;vector-effect:none;fill:none;fill-opacity:1;fill-rule:evenodd;stroke:#000000;stroke-width:0.2;stroke-linecap:butt;stroke-linejoin:miter;stroke-miterlimit:4;stroke-dasharray:none;stroke-dashoffset:0;stroke-opacity:1"
       d="M -6.2904691,178.70672 H 26.036182 c 0.59962,0 1.08235,0.46849 1.08235,1.05043 v 10.39048 c 0,0.58194 -0.48273,1.05044 -1.08235,1.05044 H -6.2904691 c -0.59962,0 -1.08235,-0.4685 -1.08235,-1.05044 v -10.39048 c 0,-0.58194 0.48273,-1.05043 1.08235,-1.05043 z"
       id="rect10-62-6-9"
       inkscape:connector-curvature="0" />
    <path
       style="opacity:1;vector-effect:none;fill:none;fill-opacity:1;fill-rule:evenodd;stroke:#000000;stroke-width:0.2;stroke-linecap:butt;stroke-linejoin:miter;stroke-miterlimit:4;stroke-dasharray:none;stroke-dashoffset:0;stroke-opacity:1"
       d="M -6.2904691,192.21421 H 26.036182 c 0.59962,0 1.08235,0.46849 1.08235,1.05043 v 10.39048 c 0,0.58194 -0.48273,1.05044 -1.08235,1.05044 H -6.2904691 c -0.59962,0 -1.08235,-0.4685 -1.08235,-1.05044 v -10.39048 c 0,-0.58194 0.48273,-1.05043 1.08235,-1.05043 z"
       id="rect10-5-92-6-4"
       inkscape:connector-curvature="0" />
    <path
       style="opacity:1;vector-effect:none;fill:none;fill-opacity:1;fill-rule:evenodd;stroke:#000000;stroke-width:0.2;stroke-linecap:butt;stroke-linejoin:miter;stroke-miterlimit:4;stroke-dasharray:none;stroke-dashoffset:0;stroke-opacity:1"
       d="M -6.2904691,205.77831 H 26.036182 c 0.59962,0 1.08235,0.46849 1.08235,1.05043 v 10.39047 c 0,0.58194 -0.48273,1.05043 -1.08235,1.05043 H -6.2904691 c -0.59962,0 -1.08235,-0.46849 -1.08235,-1.05043 v -10.39047 c 0,-0.58194 0.48273,-1.05043 1.08235,-1.05043 z"
       id="rect10-1-7-4-9"
       inkscape:connector-curvature="0" />
    <path
       style="opacity:1;vector-effect:none;fill:none;fill-opacity:1;fill-rule:evenodd;stroke:#000000;stroke-width:0.2;stroke-linecap:butt;stroke-linejoin:miter;stroke-miterlimit:4;stroke-dasharray:none;stroke-dashoffset:0;stroke-opacity:1"
       d="M -6.2904691,219.28579 H 26.036182 c 0.59962,0 1.08235,0.46849 1.08235,1.05043 v 10.39048 c 0,0.58194 -0.48273,1.05044 -1.08235,1.05044 H -6.2904691 c -0.59962,0 -1.08235,-0.4685 -1.08235,-1.05044 v -10.39048 c 0,-0.58194 0.48273,-1.05043 1.08235,-1.05043 z"
       id="rect10-5-9-2-6-0"
       inkscape:connector-curvature="0" />
  </g>
</svg>
