<?xml version="1.0" encoding="UTF-8" standalone="no"?>
<!-- Created with Inkscape (http://www.inkscape.org/) -->

<svg
   xmlns:dc="http://purl.org/dc/elements/1.1/"
   xmlns:cc="http://creativecommons.org/ns#"
   xmlns:rdf="http://www.w3.org/1999/02/22-rdf-syntax-ns#"
   xmlns:svg="http://www.w3.org/2000/svg"
   xmlns="http://www.w3.org/2000/svg"
   xmlns:sodipodi="http://sodipodi.sourceforge.net/DTD/sodipodi-0.dtd"
   xmlns:inkscape="http://www.inkscape.org/namespaces/inkscape"
   width="600mm"
   height="600mm"
   viewBox="0 0 600 600"
   version="1.1"
   id="svg8"
   inkscape:version="0.92.3 (2405546, 2018-03-11)"
   sodipodi:docname="650_G1_PR_FP.svg">
  <defs
     id="defs2" />
  <sodipodi:namedview
     id="base"
     pagecolor="#ffffff"
     bordercolor="#666666"
     borderopacity="1.0"
     inkscape:pageopacity="0.0"
     inkscape:pageshadow="2"
     inkscape:zoom="0.49497475"
     inkscape:cx="886.16607"
     inkscape:cy="1323.591"
     inkscape:document-units="mm"
     inkscape:current-layer="layer3"
     showgrid="false"
     inkscape:measure-start="0,0"
     inkscape:measure-end="0,0"
     showguides="true"
     inkscape:guide-bbox="true"
     inkscape:window-width="1920"
     inkscape:window-height="1017"
     inkscape:window-x="-8"
     inkscape:window-y="-8"
     inkscape:window-maximized="1" />
  <metadata
     id="metadata5">
    <rdf:RDF>
      <cc:Work
         rdf:about="">
        <dc:format>image/svg+xml</dc:format>
        <dc:type
           rdf:resource="http://purl.org/dc/dcmitype/StillImage" />
        <dc:title />
      </cc:Work>
    </rdf:RDF>
  </metadata>
  <g
     inkscape:label="Layer 1"
     inkscape:groupmode="layer"
     id="layer1"
     transform="translate(0,303)" />
  <g
     inkscape:groupmode="layer"
     id="layer2"
     inkscape:label="Layer 2" />
  <g
     inkscape:groupmode="layer"
     id="layer3"
     inkscape:label="Layer 3">
    <g
       id="g867"
       style="stroke:#000000;stroke-opacity:1;stroke-width:0.35277778;stroke-miterlimit:4;stroke-dasharray:none">
      <path
         style="opacity:1;fill:none;fill-opacity:0.31627909;stroke:#000000;stroke-width:0.35277778;stroke-miterlimit:4;stroke-dasharray:none;stroke-opacity:1"
         d="m 176.14429,302.15478 h -64.42276 c -8.28764,0 -14.959643,-4.46 -14.959643,-10 V 64.60458 c 131.276393,0.3029 256.136443,-0.74266 370.647223,2e-5 v 227.5502 c 0,5.54 -6.672,10 -14.95964,10 l -167.8785,-2e-5"
         id="rect815"
         inkscape:connector-curvature="0"
         sodipodi:nodetypes="cssccssc" />
      <path
         inkscape:connector-curvature="0"
         style="opacity:1;fill:none;fill-opacity:0.31627909;stroke:#000000;stroke-width:0.35277778;stroke-miterlimit:4;stroke-dasharray:none;stroke-opacity:1"
         d="m 116.73953,98.264107 h 330.75485 c 4.97258,0 8.97578,4.014003 8.97578,9.000003 v 94.64721 c 0,4.986 -4.0032,9 -8.97578,9 H 116.73953 c -4.97258,0 -8.97578,-4.014 -8.97578,-9 v -94.64721 c 0,-4.986 4.0032,-9.000003 8.97578,-9.000003 z"
         id="rect820" />
      <path
         style="opacity:1;fill:none;fill-opacity:0.31627909;stroke:#000000;stroke-width:0.35277778;stroke-miterlimit:4;stroke-dasharray:none;stroke-opacity:1"
         d="m 176.15329,296.40945 0.0638,-70.92895 c 0.004,-4.98599 4.00319,-8.99999 8.97577,-8.99999 h 90.40334 c 4.97258,0 8.97583,4.014 8.97577,8.99999 l -8.7e-4,70.74004"
         id="rect828"
         inkscape:connector-curvature="0"
         sodipodi:nodetypes="cssssc" />
      <path
         inkscape:connector-curvature="0"
         style="opacity:1;fill:none;fill-opacity:0.31627909;stroke:#000000;stroke-width:0.35277778;stroke-miterlimit:4;stroke-dasharray:none;stroke-opacity:1"
         d="M 142.71383,68.163925 H 420.6113 V 93.311148 H 142.71383 Z"
         id="rect825" />
      <path
         inkscape:connector-curvature="0"
         style="opacity:1;fill:none;fill-opacity:0.31627909;stroke:#000000;stroke-width:0.35277778;stroke-miterlimit:4;stroke-dasharray:none;stroke-opacity:1"
         d="m 299.39408,213.55853 h 13.61031 c 0.2763,0 0.49875,0.446 0.49875,1 v 1.64723 c 0,0.554 -0.22245,1 -0.49875,1 h -13.61031 c -0.27631,0 -0.49876,-0.446 -0.49876,-1 v -1.64723 c 0,-0.554 0.22245,-1 0.49876,-1 z"
         id="rect830-1" />
      <path
         inkscape:connector-curvature="0"
         style="opacity:1;fill:none;fill-opacity:0.31627909;stroke:#000000;stroke-width:0.35277778;stroke-miterlimit:4;stroke-dasharray:none;stroke-opacity:1"
         d="m 149.79765,213.55853 h 13.61031 c 0.27631,0 0.49876,0.446 0.49876,1 v 1.64723 c 0,0.554 -0.22245,1 -0.49876,1 h -13.61031 c -0.2763,0 -0.49875,-0.446 -0.49875,-1 v -1.64723 c 0,-0.554 0.22245,-1 0.49875,-1 z"
         id="rect830-1-9" />
      <path
         inkscape:connector-curvature="0"
         style="opacity:1;fill:none;fill-opacity:0.31627909;stroke:#000000;stroke-width:0.35277778;stroke-miterlimit:4;stroke-dasharray:none;stroke-opacity:1"
         d="m 417.20535,224.55853 h 18.59704 v 4.64722 h -18.59704 z"
         id="rect864" />
      <path
         inkscape:connector-curvature="0"
         style="opacity:1;fill:none;fill-opacity:0.31627909;stroke:#000000;stroke-width:0.35277778;stroke-miterlimit:4;stroke-dasharray:none;stroke-opacity:1"
         d="m 433.59758,76.06736 h 23.08494 c 1.10502,0 1.99462,0.892 1.99462,2 v 4.647222 c 0,1.108 -0.8896,2 -1.99462,2 h -23.08494 c -1.10502,0 -1.99462,-0.892 -1.99462,-2 V 78.06736 c 0,-1.108 0.8896,-2 1.99462,-2 z"
         id="rect866" />
      <path
         inkscape:connector-curvature="0"
         style="opacity:1;fill:none;fill-opacity:0.31627909;stroke:#000000;stroke-width:0.35277778;stroke-miterlimit:4;stroke-dasharray:none;stroke-opacity:1"
         d="m 110.5118,76.334656 h 18.59705 c 1.10502,0 1.99462,0.892 1.99462,2 v 4.647222 c 0,1.108 -0.8896,2 -1.99462,2 H 110.5118 c -1.10502,0 -1.99462,-0.892 -1.99462,-2 v -4.647222 c 0,-1.108 0.8896,-2 1.99462,-2 z"
         id="rect866-3" />
      <path
         inkscape:connector-curvature="0"
         id="rect823"
         d="m 180.91674,280.57857 h 47.64722 c 0.554,0 1,0.446 1,1 v 11.14722 c 0,0.554 -0.446,1 -1,1 h -47.64722 c -0.554,0 -1,-0.446 -1,-1 v -11.14722 c 0,-0.554 0.446,-1 1,-1 z"
         style="opacity:1;fill:none;fill-opacity:0.25116284;stroke:#000000;stroke-width:0.35277778;stroke-miterlimit:4;stroke-dasharray:none;stroke-opacity:1" />
      <path
         inkscape:connector-curvature="0"
         id="rect823-2"
         d="m 231.62229,280.57857 h 47.64722 c 0.554,0 1,0.446 1,1 v 11.14722 c 0,0.554 -0.446,1 -1,1 h -47.64722 c -0.554,0 -1,-0.446 -1,-1 v -11.14722 c 0,-0.554 0.446,-1 1,-1 z"
         style="opacity:1;fill:none;fill-opacity:0.25116284;stroke:#000000;stroke-width:0.35277778;stroke-miterlimit:4;stroke-dasharray:none;stroke-opacity:1" />
      <path
         sodipodi:nodetypes="cccc"
         inkscape:connector-curvature="0"
         id="rect846"
         d="m 176.15329,296.40945 108.41781,0.0568 m -1.3e-4,5.68856 H 176.14429"
         style="opacity:1;fill:none;fill-opacity:0.25116284;stroke:#000000;stroke-width:0.35277778;stroke-miterlimit:4;stroke-dasharray:none;stroke-opacity:1" />
      <path
         sodipodi:nodetypes="cssccssc"
         inkscape:connector-curvature="0"
         id="rect848"
         d="m 186.65203,221.0147 h 87.64722 c 3.878,0 7,3.122 7,7 v 49.62088 c -36.56997,-0.0105 -69.27151,0.12168 -101.64722,4e-5 v -49.62088 c 0,-3.878 3.122,-7 7,-7 z"
         style="opacity:1;fill:none;fill-opacity:0.25116284;stroke:#000000;stroke-width:0.35277778;stroke-miterlimit:4;stroke-dasharray:none;stroke-opacity:1" />
    </g>
  </g>
</svg>
