<?xml version="1.0" encoding="UTF-8" standalone="no"?>
<!-- Created with Inkscape (http://www.inkscape.org/) -->

<svg
   xmlns:dc="http://purl.org/dc/elements/1.1/"
   xmlns:cc="http://creativecommons.org/ns#"
   xmlns:rdf="http://www.w3.org/1999/02/22-rdf-syntax-ns#"
   xmlns:svg="http://www.w3.org/2000/svg"
   xmlns="http://www.w3.org/2000/svg"
   xmlns:sodipodi="http://sodipodi.sourceforge.net/DTD/sodipodi-0.dtd"
   xmlns:inkscape="http://www.inkscape.org/namespaces/inkscape"
   width="700mm"
   height="700mm"
   viewBox="0 0 700 700"
   version="1.1"
   id="svg1450"
   inkscape:version="0.92.3 (2405546, 2018-03-11)"
   sodipodi:docname="650_G2_PR.svg">
  <defs
     id="defs1444" />
  <sodipodi:namedview
     id="base"
     pagecolor="#ffffff"
     bordercolor="#666666"
     borderopacity="1.0"
     inkscape:pageopacity="0.0"
     inkscape:pageshadow="2"
     inkscape:zoom="0.49497475"
     inkscape:cx="-394.71289"
     inkscape:cy="1705.7109"
     inkscape:document-units="mm"
     inkscape:current-layer="g2103-6"
     showgrid="false"
     showguides="true"
     inkscape:guide-bbox="true"
     inkscape:window-width="1920"
     inkscape:window-height="1017"
     inkscape:window-x="-8"
     inkscape:window-y="-8"
     inkscape:window-maximized="1" />
  <metadata
     id="metadata1447">
    <rdf:RDF>
      <cc:Work
         rdf:about="">
        <dc:format>image/svg+xml</dc:format>
        <dc:type
           rdf:resource="http://purl.org/dc/dcmitype/StillImage" />
        <dc:title></dc:title>
      </cc:Work>
    </rdf:RDF>
  </metadata>
  <g
     inkscape:label="Layer 1"
     inkscape:groupmode="layer"
     id="layer1"
     transform="translate(0,403)" />
  <g
     inkscape:groupmode="layer"
     id="layer2"
     inkscape:label="Layer 2">
    <g
       transform="matrix(0.99819708,0,0,-0.98076701,-0.3112444,623.04269)"
       id="g2103-6"
       style="stroke-width:1.01066887">
      <g
         id="g2157">
        <path
           style="opacity:1;fill:none;fill-opacity:0.32558139;stroke:#000000;stroke-width:0.35277778;stroke-miterlimit:4;stroke-dasharray:none;stroke-opacity:1"
           d="M -248.5595,116.63846 H 97.087729 c 7.202001,0 13.000011,5.798 13.000011,13.00001 v 212.6472 c 0,7.202 -5.79801,13 -13.000011,13 H -248.5595 c -7.20201,0 -13.00001,-5.798 -13.00001,-13 v -212.6472 c 0,-7.20201 5.798,-13.00001 13.00001,-13.00001 z"
           id="rect1995"
           inkscape:connector-curvature="0"
           transform="matrix(1.0018062,0,0,-1.0196102,0.31180656,635.26065)" />
        <path
           style="opacity:1;fill:none;fill-opacity:0.32558139;stroke:#000000;stroke-width:0.35277778;stroke-miterlimit:4;stroke-dasharray:none;stroke-opacity:1"
           d="M -243.33578,145.25647 H 92.311432 c 5.54,0 9.999998,4.46 9.999998,10 v 104.64722 c 0,5.54 -4.459998,10 -9.999998,10 H -243.33578 c -5.54,0 -10,-4.46 -10,-10 V 155.25647 c 0,-5.54 4.46,-10 10,-10 z"
           id="rect1997"
           inkscape:connector-curvature="0"
           transform="matrix(1.0018062,0,0,-1.0196102,0.31180656,635.26065)" />
        <path
           style="opacity:1;fill:none;fill-opacity:0.32558139;stroke:#000000;stroke-width:0.35277778;stroke-miterlimit:4;stroke-dasharray:none;stroke-opacity:1"
           d="m -171.91251,278.99167 h 93.647007 c 3.324,0 6,2.676 6,6 v 58.647 c 0,3.324 -2.676,6 -6,6 h -93.647007 c -3.324,0 -6,-2.676 -6,-6 v -58.647 c 0,-3.324 2.676,-6 6,-6 z"
           id="rect2004"
           inkscape:connector-curvature="0"
           transform="matrix(1.0018062,0,0,-1.0196102,0.31180656,635.26065)" />
        <path
           style="opacity:1;fill:none;fill-opacity:0.32558139;stroke:#000000;stroke-width:0.35277778;stroke-miterlimit:4;stroke-dasharray:none;stroke-opacity:1"
           d="m -203.91251,276.99167 h 7.647 c 0.554,0 1,0.446 1,1 v 0.647 c 0,0.554 -0.446,1 -1,1 h -7.647 c -0.554,0 -1,-0.446 -1,-1 v -0.647 c 0,-0.554 0.446,-1 1,-1 z"
           id="rect2011"
           inkscape:connector-curvature="0"
           transform="matrix(1.0018062,0,0,-1.0196102,0.31180656,635.26065)" />
        <path
           style="opacity:1;fill:none;fill-opacity:0.32558139;stroke:#000000;stroke-width:0.35277778;stroke-miterlimit:4;stroke-dasharray:none;stroke-opacity:1"
           d="m -53.912506,276.99167 h 7.647 c 0.554,0 1,0.446 1,1 v 0.647 c 0,0.554 -0.446,1 -1,1 h -7.647 c -0.554,0 -1,-0.446 -1,-1 v -0.647 c 0,-0.554 0.446,-1 1,-1 z"
           id="rect2011-2"
           inkscape:connector-curvature="0"
           transform="matrix(1.0018062,0,0,-1.0196102,0.31180656,635.26065)" />
        <path
           style="opacity:1;fill:none;fill-opacity:0.32558139;stroke:#000000;stroke-width:0.35277778;stroke-miterlimit:4;stroke-dasharray:none;stroke-opacity:1"
           d="m 58.793732,276.99167 h 15.646999 c 0.554,0 1,0.446 1,1 v 1.647 c 0,0.554 -0.446,1 -1,1 H 58.793732 c -0.554,0 -1,-0.446 -1,-1 v -1.647 c 0,-0.554 0.446,-1 1,-1 z"
           id="rect2030"
           inkscape:connector-curvature="0"
           transform="matrix(1.0018062,0,0,-1.0196102,0.31180656,635.26065)" />
        <path
           style="opacity:1;fill:none;fill-opacity:0.32558139;stroke:#000000;stroke-width:0.35277778;stroke-miterlimit:4;stroke-dasharray:none;stroke-opacity:1"
           d="M -208.89185,121.9249 H 57.755157 c 1.108,0 2,0.892 2,2 v 14.647 c 0,1.108 -0.892,2 -2,2 H -208.89185 c -1.108,0 -2,-0.892 -2,-2 v -14.647 c 0,-1.108 0.892,-2 2,-2 z"
           id="rect2032"
           inkscape:connector-curvature="0"
           transform="matrix(1.0018062,0,0,-1.0196102,0.31180656,635.26065)" />
        <path
           style="opacity:1;fill:none;fill-opacity:0.32558139;stroke:#000000;stroke-width:0.35277778;stroke-miterlimit:4;stroke-dasharray:none;stroke-opacity:1"
           d="m -245.89358,126.96246 h 18.64699 c 1.10801,0 2.00001,0.892 2.00001,2 v 4.647 c 0,1.108 -0.892,2 -2.00001,2 h -18.64699 c -1.108,0 -2.00001,-0.892 -2.00001,-2 v -4.647 c 0,-1.108 0.89201,-2 2.00001,-2 z"
           id="rect2036"
           inkscape:connector-curvature="0"
           transform="matrix(1.0018062,0,0,-1.0196102,0.31180656,635.26065)" />
        <path
           style="opacity:1;fill:none;fill-opacity:0.32558139;stroke:#000000;stroke-width:0.35277778;stroke-miterlimit:4;stroke-dasharray:none;stroke-opacity:1"
           d="m 75.765939,126.96246 h 18.646999 c 1.108001,0 2.000001,0.892 2.000001,2 v 4.647 c 0,1.108 -0.892,2 -2.000001,2 H 75.765939 c -1.108001,0 -2.000001,-0.892 -2.000001,-2 v -4.647 c 0,-1.108 0.892,-2 2.000001,-2 z"
           id="rect2036-5"
           inkscape:connector-curvature="0"
           transform="matrix(1.0018062,0,0,-1.0196102,0.31180656,635.26065)" />
        <g
           id="g2103"
           style=""
           transform="matrix(1.0018062,0,0,-1.0196102,0.31180656,635.26065)">
          <path
             style="opacity:1;fill:none;fill-opacity:0.32558139;stroke:#000000;stroke-width:0.35277778;stroke-miterlimit:4;stroke-dasharray:none;stroke-opacity:1"
             d="m -72.719438,338.07624 -104.647232,0.0107"
             id="rect2074"
             inkscape:connector-curvature="0"
             sodipodi:nodetypes="cc" />
          <path
             inkscape:connector-curvature="0"
             id="rect2004-4"
             d="M -177.36667,338.08698 V 285.2997 c 0,-3.27696 2.65068,-5.91509 5.94322,-5.91509 h 92.760792 c 3.29255,0 5.94322,2.63813 5.94322,5.91509 v 52.77654"
             style="opacity:1;fill:none;fill-opacity:0.32558139;stroke:#000000;stroke-width:0.35277775;stroke-miterlimit:4;stroke-dasharray:none;stroke-opacity:1"
             sodipodi:nodetypes="cssssc" />
        </g>
        <path
           style="opacity:1;fill:none;fill-opacity:0.32558139;stroke:#000000;stroke-width:0.35654154;stroke-miterlimit:4;stroke-dasharray:none;stroke-opacity:1"
           d="m -72.719438,289.92177 -104.714172,0.0107"
           id="rect2074-6"
           inkscape:connector-curvature="0"
           sodipodi:nodetypes="cc" />
        <path
           inkscape:connector-curvature="0"
           id="rect2004-4-7"
           d="m -177.43361,289.93247 0.0669,-4.63277 c 0.0473,-3.27661 2.65068,-5.91509 5.94322,-5.91509 h 92.760792 c 3.29255,0 5.94322,2.63813 5.94322,5.91509 v 4.62237"
           style="opacity:1;fill:none;fill-opacity:0.32558139;stroke:#000000;stroke-width:0.35654151;stroke-miterlimit:4;stroke-dasharray:none;stroke-opacity:1"
           sodipodi:nodetypes="cssssc" />
        <path
           sodipodi:nodetypes="cc"
           inkscape:connector-curvature="0"
           id="path2126"
           d="m -125.11366,289.86404 -1e-5,-10.40779"
           style="fill:none;stroke:#000000;stroke-width:0.26740617px;stroke-linecap:butt;stroke-linejoin:miter;stroke-opacity:1" />
      </g>
    </g>
  </g>
</svg>
