<?xml version="1.0" encoding="UTF-8" standalone="no"?>
<!-- Created with Inkscape (http://www.inkscape.org/) -->

<svg
   xmlns:dc="http://purl.org/dc/elements/1.1/"
   xmlns:cc="http://creativecommons.org/ns#"
   xmlns:rdf="http://www.w3.org/1999/02/22-rdf-syntax-ns#"
   xmlns:svg="http://www.w3.org/2000/svg"
   xmlns="http://www.w3.org/2000/svg"
   xmlns:sodipodi="http://sodipodi.sourceforge.net/DTD/sodipodi-0.dtd"
   xmlns:inkscape="http://www.inkscape.org/namespaces/inkscape"
   version="1.1"
   id="svg2"
   width="841mm"
   height="594mm"
   viewBox="0 0 3178.5827 2245.0394"
   sodipodi:docname="650_G3_PR.svg"
   inkscape:version="0.92.3 (2405546, 2018-03-11)">
  <metadata
     id="metadata8">
    <rdf:RDF>
      <cc:Work
         rdf:about="">
        <dc:format>image/svg+xml</dc:format>
        <dc:type
           rdf:resource="http://purl.org/dc/dcmitype/StillImage" />
        <dc:title></dc:title>
      </cc:Work>
    </rdf:RDF>
  </metadata>
  <defs
     id="defs6" />
  <sodipodi:namedview
     pagecolor="#ffffff"
     bordercolor="#666666"
     borderopacity="1"
     objecttolerance="10"
     gridtolerance="10"
     guidetolerance="10"
     inkscape:pageopacity="0"
     inkscape:pageshadow="2"
     inkscape:window-width="1920"
     inkscape:window-height="1017"
     id="namedview4"
     showgrid="false"
     units="mm"
     showguides="true"
     inkscape:guide-bbox="true"
     inkscape:zoom="0.5"
     inkscape:cx="548.61543"
     inkscape:cy="1098.0804"
     inkscape:window-x="-8"
     inkscape:window-y="-8"
     inkscape:window-maximized="1"
     inkscape:current-layer="svg2" />
  <g
     id="g1034"
     style="stroke:#000000;stroke-opacity:1;stroke-width:1.33333333;stroke-miterlimit:4;stroke-dasharray:none">
    <path
       id="rect878"
       d="M 131.92228,522.62457 H 1415.6283 c 33.5017,0 60.4724,26.97071 60.4724,60.47245 v 781.02888 c 0,33.5017 -26.9707,60.4724 -60.4724,60.4724 H 131.92228 c -33.501734,0 -60.472443,-26.9707 -60.472443,-60.4724 V 583.09702 c 0,-33.50174 26.970709,-60.47245 60.472443,-60.47245 z"
       style="opacity:1;fill:none;fill-opacity:0.12093021;stroke:#000000;stroke-width:1.33333333;stroke-miterlimit:4;stroke-dasharray:none;stroke-opacity:1" />
    <path
       sodipodi:nodetypes="cssssssssc"
       inkscape:connector-curvature="0"
       id="rect880"
       d="m 383.81729,1108.5264 -244.7171,-0.1619 c -20.93859,-0.014 -37.79528,-16.8567 -37.79528,-37.7953 V 678.83171 c 0,-20.93858 16.85669,-37.79527 37.79528,-37.79527 H 1407.6881 c 20.9386,0 37.7953,16.85669 37.7953,37.79527 v 391.73749 c 0,20.9386 -16.8567,37.7899 -37.7953,37.7953 l -628.35375,0.1619"
       style="opacity:1;fill:none;fill-opacity:0.12093021;stroke:#000000;stroke-width:1.33333333;stroke-miterlimit:4;stroke-dasharray:none;stroke-opacity:1" />
    <path
       sodipodi:nodetypes="cssssc"
       inkscape:connector-curvature="0"
       id="rect884"
       d="m 779.33435,1108.5264 v 251.2635 c 0,20.9386 -16.8567,37.7953 -37.7953,37.7953 H 421.61259 c -20.9386,0 -37.7953,-16.8567 -37.7953,-37.7953 v -251.2635"
       style="opacity:1;fill:none;fill-opacity:0.12093021;stroke:#000000;stroke-width:1.33333333;stroke-miterlimit:4;stroke-dasharray:none;stroke-opacity:1" />
    <path
       id="rect886"
       d="M 272.84824,546.15045 H 1276.8692 c 4.1877,0 7.5591,3.37134 7.5591,7.55906 v 55.35958 c 0,4.18771 -3.3714,7.55905 -7.5591,7.55905 H 272.84824 c -4.18772,0 -7.55906,-3.37134 -7.55906,-7.55905 v -55.35958 c 0,-4.18772 3.37134,-7.55906 7.55906,-7.55906 z"
       style="opacity:1;fill:none;fill-opacity:0.12093021;stroke:#000000;stroke-width:1.33333333;stroke-miterlimit:4;stroke-dasharray:none;stroke-opacity:1" />
    <path
       id="rect888"
       d="m 123.55903,562.35699 h 62.91862 c 4.18772,0 7.55906,3.37135 7.55906,7.55906 v 17.5643 c 0,4.18772 -3.37134,7.55906 -7.55906,7.55906 h -62.91862 c -4.18772,0 -7.55906,-3.37134 -7.55906,-7.55906 v -17.5643 c 0,-4.18771 3.37134,-7.55906 7.55906,-7.55906 z"
       style="opacity:1;fill:none;fill-opacity:0.12093021;stroke:#000000;stroke-width:1.33333333;stroke-miterlimit:4;stroke-dasharray:none;stroke-opacity:1" />
    <path
       id="rect888-9"
       d="m -1416.9616,555.30701 h 62.9187 c 4.1877,0 7.559,3.37134 7.559,7.55906 v 17.56429 c 0,4.18772 -3.3713,7.55906 -7.559,7.55906 h -62.9187 c -4.1877,0 -7.559,-3.37134 -7.559,-7.55906 v -17.56429 c 0,-4.18772 3.3713,-7.55906 7.559,-7.55906 z"
       style="opacity:1;fill:none;fill-opacity:0.12093021;stroke:#000000;stroke-width:1.33333333;stroke-miterlimit:4;stroke-dasharray:none;stroke-opacity:1"
       transform="scale(-1,1)" />
    <path
       id="rect925"
       d="m 1297.3501,1132.4619 h 59.1391 c 2.0939,0 3.7795,1.6857 3.7795,3.7795 v 6.2258 c 0,2.0938 -1.6856,3.7795 -3.7795,3.7795 h -59.1391 c -2.0939,0 -3.7795,-1.6857 -3.7795,-3.7795 v -6.2258 c 0,-2.0938 1.6856,-3.7795 3.7795,-3.7795 z"
       style="opacity:1;fill:none;fill-opacity:0.12093021;stroke:#000000;stroke-width:1.33333333;stroke-miterlimit:4;stroke-dasharray:none;stroke-opacity:1" />
    <g
       transform="translate(686.33366,-55.656854)"
       id="g950"
       style="stroke:#000000;stroke-opacity:1;stroke-width:1.33333333;stroke-miterlimit:4;stroke-dasharray:none">
      <path
         id="rect925-2"
         d="m 159.25649,1188.5931 h 28.90288 c 2.09386,0 3.77953,1.6857 3.77953,3.7796 v 2.4462 c 0,2.0938 -1.68567,3.7795 -3.77953,3.7795 h -28.90288 c -2.09386,0 -3.77953,-1.6857 -3.77953,-3.7795 v -2.4462 c 0,-2.0939 1.68567,-3.7796 3.77953,-3.7796 z"
         style="opacity:1;fill:none;fill-opacity:0.12093021;stroke:#000000;stroke-width:1.33333333;stroke-miterlimit:4;stroke-dasharray:none;stroke-opacity:1" />
      <path
         id="rect925-27"
         d="m -398.17122,1188.5931 h 28.90289 c 2.09386,0 3.77953,1.6857 3.77953,3.7796 v 2.4462 c 0,2.0938 -1.68567,3.7795 -3.77953,3.7795 h -28.90289 c -2.09386,0 -3.77952,-1.6857 -3.77952,-3.7795 v -2.4462 c 0,-2.0939 1.68566,-3.7796 3.77952,-3.7796 z"
         style="opacity:1;fill:none;fill-opacity:0.12093021;stroke:#000000;stroke-width:1.33333333;stroke-miterlimit:4;stroke-dasharray:none;stroke-opacity:1" />
    </g>
    <path
       id="rect954"
       d="m 388,1132.9396 h 387.95801 v 214.0997 H 388 Z"
       style="opacity:1;fill:none;fill-opacity:0.12093021;stroke:#000000;stroke-width:1.33333333;stroke-miterlimit:4;stroke-dasharray:none;stroke-opacity:1" />
    <path
       sodipodi:nodetypes="sssssssss"
       inkscape:connector-curvature="0"
       id="rect956"
       d="m 399.77953,1092.3569 h 176.08399 c 2.09386,0 3.77953,1.6857 3.77953,3.7796 v 25.1233 c 0,2.0939 -1.68567,3.7795 -3.77953,3.7795 H 395.77953 c -2.09386,0 -3.77953,-1.6856 -3.77953,-3.7795 v -21.1233 c 0,-2.2461 0.88706,-7.7796 7.77953,-7.7796 z"
       style="opacity:1;fill:none;fill-opacity:0.12093021;stroke:#000000;stroke-width:1.33333333;stroke-miterlimit:4;stroke-dasharray:none;stroke-opacity:1" />
    <path
       sodipodi:nodetypes="sssssssss"
       inkscape:connector-curvature="0"
       id="rect956-6"
       d="m 587.42259,1092.3569 h 176.084 c 4.49841,0 7.77953,2.9485 7.77953,7.7796 v 21.1233 c 0,2.0939 -1.68567,3.7795 -3.77953,3.7795 h -180.084 c -2.09385,0 -3.77952,-1.6856 -3.77952,-3.7795 v -25.1233 c 0,-2.0939 1.68567,-3.7796 3.77952,-3.7796 z"
       style="opacity:1;fill:none;fill-opacity:0.12093021;stroke:#000000;stroke-width:1.33333333;stroke-miterlimit:4;stroke-dasharray:none;stroke-opacity:1" />
    <path
       sodipodi:nodetypes="sssssccss"
       inkscape:connector-curvature="0"
       id="rect956-6-5"
       d="m 394.53835,1353.4152 h 180.084 c 2.09386,0 3.77952,1.6857 3.77952,3.7796 v 25.1233 c 0,2.0939 -1.68566,3.7795 -3.77952,3.7795 h -158.084 c -10.57914,0.7071 -25.07242,-8.0287 -25.77953,-15.7795 v -13.1233 c 0,-2.0939 1.68567,-3.7796 3.77953,-3.7796 z"
       style="opacity:1;fill:none;fill-opacity:0.12093021;stroke:#000000;stroke-width:1.33333333;stroke-miterlimit:4;stroke-dasharray:none;stroke-opacity:1" />
    <path
       sodipodi:nodetypes="sssssccss"
       inkscape:connector-curvature="0"
       id="rect956-6-5-8"
       d="m 765.32897,1353.2796 h -180.084 c -2.09386,0 -3.77952,1.6857 -3.77952,3.7796 v 25.1233 c 0,2.0939 1.68566,3.7795 3.77952,3.7795 h 158.084 c 10.57914,0.7071 25.07242,-8.0287 25.77953,-15.7795 v -13.1233 c 0,-2.0939 -1.68567,-3.7796 -3.77953,-3.7796 z"
       style="opacity:1;fill:none;fill-opacity:0.12093021;stroke:#000000;stroke-width:1.33333333;stroke-miterlimit:4;stroke-dasharray:none;stroke-opacity:1" />
  </g>
</svg>
