<?xml version="1.0" encoding="utf-8"?>
<!-- Generator: Adobe Illustrator 24.2.2, SVG Export Plug-In . SVG Version: 6.00 Build 0)  -->
<svg version="1.1"
	 id="svg8" inkscape:version="0.92.3 (2405546, 2018-03-11)" sodipodi:docname="E5420_LID2.svg" xmlns:cc="http://creativecommons.org/ns#" xmlns:dc="http://purl.org/dc/elements/1.1/" xmlns:inkscape="http://www.inkscape.org/namespaces/inkscape" xmlns:rdf="http://www.w3.org/1999/02/22-rdf-syntax-ns#" xmlns:sodipodi="http://sodipodi.sourceforge.net/DTD/sodipodi-0.dtd" xmlns:svg="http://www.w3.org/2000/svg"
	 xmlns="http://www.w3.org/2000/svg" xmlns:xlink="http://www.w3.org/1999/xlink" x="0px" y="0px" viewBox="0 0 1417.3 1417.3"
	 style="enable-background:new 0 0 1417.3 1417.3;" xml:space="preserve">
<style type="text/css">
	.st0{fill:none;stroke:#000000;stroke-width:0.1984;stroke-linecap:round;stroke-linejoin:round;stroke-miterlimit:11.3386;}
</style>
<sodipodi:namedview  bordercolor="#666666" borderopacity="1.0" id="base" inkscape:current-layer="layer1" inkscape:cx="540.56741" inkscape:cy="1346.1527" inkscape:document-units="mm" inkscape:pageopacity="0.0" inkscape:pageshadow="2" inkscape:window-height="1017" inkscape:window-maximized="1" inkscape:window-width="1920" inkscape:window-x="-8" inkscape:window-y="-8" inkscape:zoom="0.24748737" pagecolor="#ffffff" showgrid="false">
	</sodipodi:namedview>
<g id="layer1" transform="translate(0,203.00001)" inkscape:groupmode="layer" inkscape:label="Layer 1">
	<g id="g1006" transform="matrix(1.3312148,0,0,1.3360916,-48.745438,-48.956421)">
		<path id="path4-3" inkscape:connector-curvature="0" class="st0" d="M652.1,252.9c0,23.5-19,42.5-42.5,42.5s-42.5-19.1-42.5-42.5
			s19-42.5,42.5-42.5C633,210.4,652.1,229.5,652.1,252.9z"/>
		<g id="g999">
			<path id="path8-7" inkscape:connector-curvature="0" sodipodi:nodetypes="cccccccccccccsccccccccc" class="st0" d="M378,621.3
				c-0.5,0-1.2-0.1-1.9-0.2c-0.7-0.2-1.4-0.4-1.9-0.6c-0.9-0.3-2.1-0.7-3.4-1.5c-3.6-2.1-5.5-5.2-6.6-7.2c-5.1-9-7.8-17.1-7.8-17.1
				c-7.2-21.9-8-27.4-6.2-31.1c0.9-2,4.5-2.8,4.8-3.1c1.4-0.7,4.6-5.2,4.8-5.5c0.2-0.5,0.5-4.1,0.5-12.9l0.1-26l0.1-51.7l0.1-121.6
				v-74.1V136.8c0-3.7,0,3.2-0.1-103.6l-0.1-40.3l-0.1-20.3c0-5.8-0.1-12.7-0.1-13.1c0.1-1.3,0.8-4-2.7-7c-1-0.9-1.8-1.5-2.6-1.9
				c-2.4-1.4-3.5-1.4-4.3-2.7c-0.3-0.5-0.4-1-0.6-2.2c-0.2-1.7-0.2-4.1,0.5-9.1c0.1-0.4,0.3-2.1,0.7-4.3c0.2-0.9,0.3-1.7,0.5-2.6
				c0.3-1.4,0.8-3.3,1.6-5.5l0,0c11.1-24.7,12.2-26.8,14.4-30.9l0,0c1.6-3.1,4-4.3,5.7-5.1c0.9-0.5,2.4-1,4.3-1.3"/>
		</g>
	</g>
</g>
<polyline class="st0" points="454.3,2.7 459.1,2.2 465.9,1.8 472.7,1.7 480.7,1.7 492.9,1.5 511.8,1.3 525.5,1.2 538.5,1.1 553,1 
	567.6,0.9 577.5,0.9 625.6,0.8 902.8,0 1046.9,-0.2 1051.2,-0.1 1053.7,0.1 1055.7,0.4 1056.8,0.5 1058.1,0.8 1059.2,1 1060,1.2 
	1061.2,1.5 1062.4,1.9 1063.3,2.2 1064.1,2.5 1065.6,3.1 1066.7,3.7 1068.5,4.7 1070.4,6.1 1072.6,7.9 1074,9.4 1076.5,12.4 
	1079.2,16.6 1080.9,19.6 1082,21.8 1082.2,22.3 1089.5,40.3 1092.8,50.1 1096.4,63.1 1099.2,77.5 1100.4,88.1 1100.4,103.5 
	1100.2,417.2 1098.7,418.9 1097.6,420.9 1096.8,424.7 1096.6,427.6 1096.4,435.2 1096.4,442.6 1096.4,499.1 1096.4,499.1 "/>
<polyline class="st0" points="454.5,984.1 459.3,984.6 466.1,984.9 472.9,985.1 480.9,985.1 493,985.3 511.9,985.5 525.7,985.6 
	538.7,985.7 553.2,985.8 567.8,985.8 577.7,985.8 625.8,986 903,986.7 1047.1,986.9 1051.4,986.8 1053.9,986.6 1055.9,986.4 
	1057,986.2 1058.3,986 1059.3,985.8 1060.2,985.6 1061.4,985.3 1062.6,984.9 1063.5,984.6 1064.3,984.3 1065.8,983.7 1066.9,983.2 
	1068.7,982.2 1070.6,980.8 1072.8,979 1074.2,977.6 1076.7,974.6 1079.4,970.6 1081.1,967.5 1082.1,965.5 1082.4,964.9 
	1089.7,947.4 1093,937.7 1096.6,925.1 1099.3,911.1 1100.6,900.6 1100.6,885.6 1100.4,579.2 1098.9,577.5 1097.8,575.5 1097,571.8 
	1096.8,568.9 1096.6,561.5 1096.6,554.4 1096.6,499.1 1096.6,499.1 "/>
<polyline class="st0" points="1082.2,22.3 1062.5,43.9 1062.5,492 "/>
<polyline class="st0" points="1082.4,964.9 1062.7,943.2 1062.7,492 "/>
<g id="layer1_1_" transform="translate(0,203.00001)" inkscape:groupmode="layer" inkscape:label="Layer 1">
	<g id="g1006_1_" transform="matrix(1.3312148,0,0,1.3360916,-48.745438,-48.956421)">
		<path id="path4-3_1_" inkscape:connector-curvature="0" class="st0" d="M616.2,413.5c0,23.5-19,42.5-42.5,42.5
			s-42.5-19.1-42.5-42.5s19-42.5,42.5-42.5C597.1,371,616.2,390.1,616.2,413.5z"/>
		<g id="g999_1_">
			<path id="path8-7_1_" inkscape:connector-curvature="0" sodipodi:nodetypes="cccccccccccccsccccccccc" class="st0" d="
				M342.1,781.9c-0.5,0-1.2-0.1-1.9-0.2c-0.7-0.2-1.4-0.4-1.9-0.6c-0.9-0.3-2.1-0.7-3.4-1.5c-3.6-2.1-5.5-5.2-6.6-7.2
				c-5.1-9-7.8-17.1-7.8-17.1c-7.2-21.9-8-27.4-6.2-31.1c0.9-2,4.5-2.8,4.8-3.1c1.4-0.7,4.6-5.2,4.8-5.5c0.2-0.5,0.5-4.1,0.5-12.9
				l0.1-26l0.1-51.7l0.1-121.6v-74.1V297.4c0-3.7,0,3.2-0.1-103.6l-0.1-40.3l-0.1-20.3c0-5.8-0.1-12.7-0.1-13.1c0.1-1.3,0.8-4-2.7-7
				c-1-0.9-1.8-1.5-2.6-1.9c-2.4-1.4-3.5-1.4-4.3-2.7c-0.3-0.5-0.4-1-0.6-2.2c-0.2-1.7-0.2-4.1,0.5-9.1c0.1-0.4,0.3-2.1,0.7-4.3
				c0.2-0.9,0.3-1.7,0.5-2.6c0.3-1.4,0.8-3.3,1.6-5.5l0,0c11.1-24.7,12.2-26.8,14.4-30.9l0,0c1.6-3.1,4-4.3,5.7-5.1
				c0.9-0.5,2.4-1,4.3-1.3"/>
		</g>
	</g>
</g>
<polyline class="st0" points="406.5,217.3 411.3,216.8 418.1,216.4 424.9,216.3 432.9,216.3 445.1,216.1 464,215.9 477.7,215.8 
	490.7,215.7 505.2,215.6 519.8,215.5 529.7,215.5 577.8,215.4 855,214.6 999.1,214.4 1003.4,214.5 1005.9,214.7 1007.9,215 
	1009,215.1 1010.3,215.4 1011.4,215.6 1012.2,215.8 1013.4,216.1 1014.6,216.5 1015.5,216.8 1016.3,217.1 1017.8,217.7 
	1018.9,218.3 1020.7,219.3 1022.6,220.7 1024.8,222.5 1026.2,224 1028.7,227 1031.4,231.2 1033.1,234.2 1034.2,236.4 1034.4,236.9 
	1041.7,254.9 1045,264.7 1048.6,277.7 1051.4,292.1 1052.6,302.7 1052.6,318.1 1052.4,631.8 1050.9,633.5 1049.8,635.5 1049,639.3 
	1048.8,642.2 1048.6,649.8 1048.6,657.2 1048.6,713.7 1048.6,713.7 "/>
<polyline class="st0" points="406.7,1198.7 411.5,1199.2 418.3,1199.5 425.1,1199.7 433.1,1199.7 445.2,1199.9 464.1,1200.1 
	477.9,1200.2 490.9,1200.3 505.4,1200.4 520,1200.4 529.9,1200.4 578,1200.6 855.2,1201.3 999.3,1201.5 1003.6,1201.4 
	1006.1,1201.2 1008.1,1201 1009.2,1200.8 1010.5,1200.6 1011.5,1200.4 1012.4,1200.2 1013.6,1199.9 1014.8,1199.5 1015.7,1199.2 
	1016.5,1198.9 1018,1198.3 1019.1,1197.8 1020.9,1196.8 1022.8,1195.4 1025,1193.6 1026.4,1192.2 1028.9,1189.2 1031.6,1185.2 
	1033.3,1182.1 1034.3,1180.1 1034.6,1179.5 1041.9,1162 1045.2,1152.3 1048.8,1139.7 1051.5,1125.7 1052.8,1115.2 1052.8,1100.2 
	1052.6,793.8 1051.1,792.1 1050,790.1 1049.2,786.4 1049,783.5 1048.8,776.1 1048.8,769 1048.8,713.7 1048.8,713.7 "/>
<polyline class="st0" points="1034.4,236.9 1014.7,258.5 1014.7,706.6 "/>
<polyline class="st0" points="1034.6,1179.5 1014.9,1157.8 1014.9,706.6 "/>
</svg>
