<?xml version="1.0" encoding="UTF-8" standalone="no"?>
<!-- exported from Silhouette Studio Business Edition V4.1.454ssbe -->

<svg
   xmlns:dc="http://purl.org/dc/elements/1.1/"
   xmlns:cc="http://creativecommons.org/ns#"
   xmlns:rdf="http://www.w3.org/1999/02/22-rdf-syntax-ns#"
   xmlns:svg="http://www.w3.org/2000/svg"
   xmlns="http://www.w3.org/2000/svg"
   xmlns:sodipodi="http://sodipodi.sourceforge.net/DTD/sodipodi-0.dtd"
   xmlns:inkscape="http://www.inkscape.org/namespaces/inkscape"
   version="1.1"
   width="304.8mm"
   height="1040mm"
   viewBox="0 0 304.8 1040"
   id="svg10"
   sodipodi:docname="E5550LID.svg"
   inkscape:version="0.92.3 (2405546, 2018-03-11)">
  <metadata
     id="metadata14">
    <rdf:RDF>
      <cc:Work
         rdf:about="">
        <dc:format>image/svg+xml</dc:format>
        <dc:type
           rdf:resource="http://purl.org/dc/dcmitype/StillImage" />
        <dc:title></dc:title>
      </cc:Work>
    </rdf:RDF>
  </metadata>
  <sodipodi:namedview
     pagecolor="#ffffff"
     bordercolor="#666666"
     borderopacity="1"
     objecttolerance="10"
     gridtolerance="10"
     guidetolerance="10"
     inkscape:pageopacity="0"
     inkscape:pageshadow="2"
     inkscape:window-width="1664"
     inkscape:window-height="887"
     id="namedview12"
     showgrid="false"
     inkscape:zoom="0.24016026"
     inkscape:cx="575.99998"
     inkscape:cy="2798.1316"
     inkscape:window-x="0"
     inkscape:window-y="28"
     inkscape:window-maximized="1"
     inkscape:current-layer="svg10" />
  <defs
     id="defs2" />
  <g
     id="g824"
     style="stroke:#151515;stroke-opacity:1;stroke-width:1.00012499;stroke-miterlimit:4;stroke-dasharray:none">
    <path
       id="path4"
       stroke-linejoin="round"
       stroke-linecap="round"
       stroke-width="0.1"
       stroke-opacity="1"
       stroke="#3F3F3F"
       fill-opacity="1"
       fill="none"
       d="M 29.23652 363.5518 C 29.23652 363.5518 29.23652 372.2948 29.23652 372.755 C 29.23652 374.3514 29.22532 376.6328 29.25664 377.3163 C 29.28622 377.9619 29.37916 379.1094 29.79765 380.502 C 30.08094 381.4447 30.58764 382.7635 31.47742 384.063 C 31.60114 384.2437 32.10451 384.9704 32.87162 385.7518 C 32.87162 385.7518 33.42287 386.309 34.04731 386.7755 C 34.31862 386.9782 35.4422 387.8203 37.05828 388.326 C 38.411 388.7493 39.29354 388.7381 39.8602 388.7566 L 270.6128 388.7566 C 271.1511 388.7429 271.7014 388.7441 272.7524 388.5092 C 272.8369 388.4902 273.6013 388.3066 274.3953 387.9606 C 274.5973 387.8725 275.414 387.5085 276.3044 386.8588 C 276.4698 386.7381 277.136 386.2473 277.8393 385.5029 C 277.9037 385.4348 278.4878 384.8171 279.0108 384.0391 C 279.0735 383.9457 279.6442 383.0996 280.0968 382.0708 C 281.2241 379.5086 281.2133 377.4291 281.2365 376.5897 L 281.2365 25.92439 C 281.2365 25.92439 281.243 24.69212 281.0273 23.48924 C 281.0033 23.35522 280.7847 22.13515 280.2793 20.87086 C 280.1517 20.55153 279.7933 19.6979 279.239 18.82782 C 279.239 18.82782 278.8608 18.24722 278.5791 17.88186 C 278.443 17.70529 278.122 17.29263 277.6014 16.76227 C 276.8579 16.00496 275.6469 15.02995 274.064 14.41565 C 272.5901 13.84367 271.4909 13.77866 270.6128 13.75743 L 39.8602 13.75743 C 39.45874 13.76714 38.49459 13.76297 37.21085 14.14215 C 36.74768 14.27896 35.9328 14.55454 34.99762 15.10795 C 34.27083 15.53804 32.48675 16.70228 31.05228 19.12441 C 30.87629 19.42158 30.1591 20.63989 29.7146 22.30857 C 29.58671 22.78868 29.29208 23.93129 29.23911 25.58664 C 29.23911 25.58664 29.23652 35.67857 29.23652 39.04255"
       style="stroke:#151515;stroke-opacity:1;stroke-width:1.00012499;stroke-miterlimit:4;stroke-dasharray:none" />
    <path
       id="path6"
       stroke-linejoin="round"
       stroke-linecap="round"
       stroke-width="0.5291666"
       stroke-opacity="1"
       stroke="#000000"
       fill-opacity="1"
       fill="none"
       d="M 175.1947 201.2695 C 175.1653 202.5088 175.1575 205.5549 173.5822 209.375 C 172.4788 212.0511 170.9079 214.1393 169.6851 215.4727 C 169.4123 215.7701 168.3086 216.9745 166.6813 218.1675 C 166.3666 218.3982 165.0936 219.3313 163.3305 220.1667 C 161.967 220.8128 159.4154 221.8374 156.0279 222.0605 C 155.6267 222.0869 154.0024 222.1909 152.0099 221.9254 C 150.9219 221.7805 148.9923 221.4319 146.7195 220.4657 C 146.0892 220.1978 145.4693 219.9 144.6772 219.446 C 144.4538 219.318 143.5557 218.8045 142.5268 218.0315 C 142.2799 217.8461 141.2855 217.099 140.2028 215.9982 C 138.6756 214.4455 134.7551 209.9983 134.2481 202.7565 C 134.2194 202.3466 134.1038 200.6876 134.3572 198.6487 C 134.5113 197.4091 134.8511 195.6683 135.5553 193.7978 C 136.8206 190.4375 138.6691 188.1832 139.7532 187.0121 C 140.6926 185.9973 142.1355 184.6526 144.0166 183.4875 C 144.4056 183.2466 145.3214 182.6832 146.7194 182.0733 C 146.9454 181.9747 147.6321 181.6978 148.2542 181.485 C 149.9225 180.9143 152.4095 180.3525 155.2291 180.4412 C 161.5634 180.6405 166.417 183.5283 169.6426 187.0193 C 170.7346 188.2012 172.5876 190.481 173.8618 193.87 C 174.206 194.7854 174.6229 196.1026 174.8879 197.6447 C 175.0727 198.7202 175.1515 199.4511 175.1947 201.2695"
       style="stroke:#151515;stroke-opacity:1;stroke-width:1.00012499;stroke-miterlimit:4;stroke-dasharray:none" />
    <path
       id="path8"
       stroke-linejoin="round"
       stroke-linecap="round"
       stroke-width="0.1"
       stroke-opacity="1"
       stroke="#000000"
       fill-opacity="1"
       fill="none"
       d="M 29.41516 38.31487 L 38.11851 38.31487 L 38.11845 364.115 L 29.43609 364.115"
       style="stroke:#151515;stroke-opacity:1;stroke-width:1.00012499;stroke-miterlimit:4;stroke-dasharray:none" />
  </g>
</svg>
