<?xml version="1.0" encoding="utf-8"?>
<!-- Generator: Adobe Illustrator 27.8.1, SVG Export Plug-In . SVG Version: 6.00 Build 0)  -->
<svg version="1.1" xmlns="http://www.w3.org/2000/svg" xmlns:xlink="http://www.w3.org/1999/xlink" x="0px" y="0px"
	 viewBox="0 0 4280.3 1133.9" style="enable-background:new 0 0 4280.3 1133.9;" xml:space="preserve">
<style type="text/css">
	.st0{fill:none;stroke:#22E062;stroke-miterlimit:11.3386;}
</style>
<g id="Layer_2">
	
		<image style="overflow:visible;" width="1500" height="1500" xlink:href="3FF87301.jpg"  transform="matrix(0.7106 0 0 0.7106 799.2866 -79.8607)">
	</image>
</g>
<g id="Layer_1" xmlns:cc="http://creativecommons.org/ns#" xmlns:rdf="http://www.w3.org/1999/02/22-rdf-syntax-ns#" xmlns:inkscape="http://www.inkscape.org/namespaces/inkscape" xmlns:svg="http://www.w3.org/2000/svg" xmlns:sodipodi="http://sodipodi.sourceforge.net/DTD/sodipodi-0.dtd" xmlns:dc="http://purl.org/dc/elements/1.1/">
	
		<sodipodi:namedview  bordercolor="#666666" borderopacity="1.0" id="base" inkscape:current-layer="Layer_1" inkscape:cx="-429.53816" inkscape:cy="566.92999" inkscape:window-height="1017" inkscape:window-maximized="1" inkscape:window-width="1920" inkscape:window-x="-8" inkscape:window-y="-8" inkscape:zoom="0.093833542" pagecolor="#ffffff" showgrid="false" showguides="true">
		</sodipodi:namedview>
	
		<sodipodi:namedview  bordercolor="#666666" borderopacity="1.0" id="namedview5" pagecolor="#ffffff" showgrid="false" showguides="true">
		</sodipodi:namedview>
	<g id="g10">
		<path id="rect909" class="st0" d="M875,785.8l-44.4,0c-15.7,0-28.3-12.6-28.3-28.3l-1-650.8c0-15.7,12.6-28.3,28.3-28.3h1006.3
			c15.7,0,28.3,12.6,28.3,28.3v653.8c0,15.7-12.6,26.3-28.3,26.3l-45.8,0"/>
		<path id="rect911" class="st0" d="M875,785.8v-24.5l915.1,1v24.5"/>
		<path id="path915" class="st0" d="M1274.3,429.7c0-32.5,26.3-58.8,58.8-58.8c32.5,0,58.8,26.3,58.8,58.8s-26.3,58.8-58.8,58.8
			C1300.6,488.6,1274.3,462.2,1274.3,429.7z"/>
	</g>
</g>
</svg>
