<?xml version="1.0" encoding="utf-8"?>
<!-- Generator: Adobe Illustrator 24.2.2, SVG Export Plug-In . SVG Version: 6.00 Build 0)  -->
<svg version="1.1"
	 id="svg16" xmlns:cc="http://creativecommons.org/ns#" xmlns:dc="http://purl.org/dc/elements/1.1/" xmlns:inkscape="http://www.inkscape.org/namespaces/inkscape" xmlns:rdf="http://www.w3.org/1999/02/22-rdf-syntax-ns#" xmlns:sodipodi="http://sodipodi.sourceforge.net/DTD/sodipodi-0.dtd" xmlns:svg="http://www.w3.org/2000/svg"
	 xmlns="http://www.w3.org/2000/svg" xmlns:xlink="http://www.w3.org/1999/xlink" x="0px" y="0px" viewBox="0 0 3401.6 2976.4"
	 style="enable-background:new 0 0 3401.6 2976.4;" xml:space="preserve">
<style type="text/css">
	.st0{fill:none;stroke:#000000;stroke-miterlimit:10;}
</style>
<sodipodi:namedview  bordercolor="#666666" borderopacity="1" gridtolerance="10" guidetolerance="10" id="namedview18" inkscape:current-layer="svg16" inkscape:cx="-268.44169" inkscape:cy="3245.1413" inkscape:pageopacity="0" inkscape:pageshadow="2" inkscape:window-height="903" inkscape:window-maximized="1" inkscape:window-width="1680" inkscape:window-x="0" inkscape:window-y="28" inkscape:zoom="0.16864825" objecttolerance="10" pagecolor="#ffffff" showgrid="false">
	</sodipodi:namedview>
<sodipodi:namedview  bordercolor="#666666" borderopacity="1" gridtolerance="10" guidetolerance="10" id="namedview18" inkscape:current-layer="svg16" inkscape:cx="-268.44169" inkscape:cy="3245.1413" inkscape:pageopacity="0" inkscape:pageshadow="2" inkscape:window-height="903" inkscape:window-maximized="1" inkscape:window-width="1680" inkscape:window-x="0" inkscape:window-y="28" inkscape:zoom="0.16864825" objecttolerance="10" pagecolor="#ffffff" showgrid="false">
	</sodipodi:namedview>
<sodipodi:namedview  bordercolor="#666666" borderopacity="1" gridtolerance="10" guidetolerance="10" id="namedview18" inkscape:current-layer="svg16" inkscape:cx="-268.44169" inkscape:cy="3245.1413" inkscape:pageopacity="0" inkscape:pageshadow="2" inkscape:window-height="903" inkscape:window-maximized="1" inkscape:window-width="1680" inkscape:window-x="0" inkscape:window-y="28" inkscape:zoom="0.16864825" objecttolerance="10" pagecolor="#ffffff" showgrid="false">
	</sodipodi:namedview>
<sodipodi:namedview  bordercolor="#666666" borderopacity="1" gridtolerance="10" guidetolerance="10" id="namedview18" inkscape:current-layer="svg16" inkscape:cx="-268.44169" inkscape:cy="3245.1413" inkscape:pageopacity="0" inkscape:pageshadow="2" inkscape:window-height="903" inkscape:window-maximized="1" inkscape:window-width="1680" inkscape:window-x="0" inkscape:window-y="28" inkscape:zoom="0.16864825" objecttolerance="10" pagecolor="#ffffff" showgrid="false">
	</sodipodi:namedview>
<sodipodi:namedview  bordercolor="#666666" borderopacity="1" gridtolerance="10" guidetolerance="10" id="namedview18" inkscape:current-layer="svg16" inkscape:cx="-268.44169" inkscape:cy="3245.1413" inkscape:pageopacity="0" inkscape:pageshadow="2" inkscape:window-height="903" inkscape:window-maximized="1" inkscape:window-width="1680" inkscape:window-x="0" inkscape:window-y="28" inkscape:zoom="0.16864825" objecttolerance="10" pagecolor="#ffffff" showgrid="false">
	</sodipodi:namedview>
<g>
	<rect x="352.9" y="1407.6" class="st0" width="711.5" height="1050.3"/>
	<path class="st0" d="M1064.3,1407.6"/>
	<polyline class="st0" points="1064.3,1444.5 1019,1444.5 1019,2418 1064.3,2418 	"/>
	<polyline class="st0" points="352.8,1470.7 389.7,1470.7 389.7,2394.5 352.8,2394.5 	"/>
	<rect x="693" y="1470" class="st0" width="28.3" height="90.7"/>
</g>
<g>
	<rect x="1088.4" y="1407.6" class="st0" width="711.5" height="1050.3"/>
	<path class="st0" d="M1799.9,1407.6"/>
	<polyline class="st0" points="1799.9,1444.5 1754.6,1444.5 1754.6,2418 1799.9,2418 	"/>
	<polyline class="st0" points="1088.4,1470.7 1125.3,1470.7 1125.3,2394.5 1088.4,2394.5 	"/>
	<rect x="1428.6" y="1470" class="st0" width="28.3" height="90.7"/>
</g>
<g>
	<rect x="352.9" y="1407.6" class="st0" width="711.5" height="1050.3"/>
	<path class="st0" d="M1064.3,1407.6"/>
	<polyline class="st0" points="1064.3,1444.5 1019,1444.5 1019,2418 1064.3,2418 	"/>
	<polyline class="st0" points="352.8,1470.7 389.7,1470.7 389.7,2394.5 352.8,2394.5 	"/>
	<rect x="693" y="1470" class="st0" width="28.3" height="90.7"/>
</g>
<g>
	<rect x="1088.4" y="1407.6" class="st0" width="711.5" height="1050.3"/>
	<path class="st0" d="M1799.9,1407.6"/>
	<polyline class="st0" points="1799.9,1444.5 1754.6,1444.5 1754.6,2418 1799.9,2418 	"/>
	<polyline class="st0" points="1088.4,1470.7 1125.3,1470.7 1125.3,2394.5 1088.4,2394.5 	"/>
	<rect x="1428.6" y="1470" class="st0" width="28.3" height="90.7"/>
</g>
<g>
	<rect x="1805" y="1407.6" class="st0" width="711.5" height="1050.3"/>
	<path class="st0" d="M2516.4,1407.6"/>
	<polyline class="st0" points="2516.4,1444.5 2471.1,1444.5 2471.1,2418 2516.4,2418 	"/>
	<polyline class="st0" points="1804.9,1470.7 1841.8,1470.7 1841.8,2394.5 1804.9,2394.5 	"/>
	<rect x="2145.1" y="1470" class="st0" width="28.3" height="90.7"/>
</g>
<g>
	<rect x="2540.5" y="1407.6" class="st0" width="711.5" height="1050.3"/>
	<path class="st0" d="M3252,1407.6"/>
	<polyline class="st0" points="3252,1444.5 3206.7,1444.5 3206.7,2418 3252,2418 	"/>
	<polyline class="st0" points="2540.5,1470.7 2577.4,1470.7 2577.4,2394.5 2540.5,2394.5 	"/>
	<rect x="2880.7" y="1470" class="st0" width="28.3" height="90.7"/>
</g>
<g>
	<rect x="3282.9" y="1407.7" class="st0" width="711.5" height="1050.3"/>
	<path class="st0" d="M3994.4,1407.6"/>
	<polyline class="st0" points="3994.4,1444.5 3949,1444.5 3949,2418 3994.4,2418 	"/>
	<polyline class="st0" points="3282.9,1470.7 3319.7,1470.7 3319.7,2394.5 3282.9,2394.5 	"/>
	<rect x="3623" y="1469.9" class="st0" width="28.3" height="90.7"/>
</g>
<g>
	<rect x="352.5" y="1406.3" class="st0" width="711.5" height="1050.3"/>
	<path class="st0" d="M1063.9,1406.3"/>
	<polyline class="st0" points="1063.9,1443.2 1018.6,1443.2 1018.6,2416.7 1063.9,2416.7 	"/>
	<polyline class="st0" points="352.4,1469.4 389.3,1469.4 389.3,2393.2 352.4,2393.2 	"/>
	<rect x="692.6" y="1468.7" class="st0" width="28.3" height="90.7"/>
</g>
<g>
	<rect x="1088.1" y="1406.3" class="st0" width="711.5" height="1050.3"/>
	<path class="st0" d="M1799.5,1406.3"/>
	<polyline class="st0" points="1799.5,1443.2 1754.2,1443.2 1754.2,2416.7 1799.5,2416.7 	"/>
	<polyline class="st0" points="1088,1469.4 1124.9,1469.4 1124.9,2393.2 1088,2393.2 	"/>
	<rect x="1428.2" y="1468.7" class="st0" width="28.3" height="90.7"/>
</g>
<g>
	<rect x="352.5" y="1406.3" class="st0" width="711.5" height="1050.3"/>
	<path class="st0" d="M1063.9,1406.3"/>
	<polyline class="st0" points="1063.9,1443.2 1018.6,1443.2 1018.6,2416.7 1063.9,2416.7 	"/>
	<polyline class="st0" points="352.4,1469.4 389.3,1469.4 389.3,2393.2 352.4,2393.2 	"/>
	<rect x="692.6" y="1468.7" class="st0" width="28.3" height="90.7"/>
</g>
<g>
	<rect x="1088.1" y="1406.3" class="st0" width="711.5" height="1050.3"/>
	<path class="st0" d="M1799.5,1406.3"/>
	<polyline class="st0" points="1799.5,1443.2 1754.2,1443.2 1754.2,2416.7 1799.5,2416.7 	"/>
	<polyline class="st0" points="1088,1469.4 1124.9,1469.4 1124.9,2393.2 1088,2393.2 	"/>
	<rect x="1428.2" y="1468.7" class="st0" width="28.3" height="90.7"/>
</g>
<g>
	<rect x="1804.6" y="1406.3" class="st0" width="711.5" height="1050.3"/>
	<path class="st0" d="M2516,1406.3"/>
	<polyline class="st0" points="2516,1443.2 2470.7,1443.2 2470.7,2416.7 2516,2416.7 	"/>
	<polyline class="st0" points="1804.5,1469.4 1841.4,1469.4 1841.4,2393.2 1804.5,2393.2 	"/>
	<rect x="2144.7" y="1468.6" class="st0" width="28.3" height="90.7"/>
</g>
<g>
	<rect x="2540.2" y="1406.3" class="st0" width="711.5" height="1050.3"/>
	<path class="st0" d="M3251.6,1406.3"/>
	<polyline class="st0" points="3251.6,1443.2 3206.3,1443.2 3206.3,2416.7 3251.6,2416.7 	"/>
	<polyline class="st0" points="2540.1,1469.4 2577,1469.4 2577,2393.2 2540.1,2393.2 	"/>
	<rect x="2880.3" y="1468.7" class="st0" width="28.3" height="90.7"/>
</g>
<g>
	<rect x="3282.5" y="1406.3" class="st0" width="711.5" height="1050.3"/>
	<path class="st0" d="M3994,1406.3"/>
	<polyline class="st0" points="3994,1443.2 3948.6,1443.2 3948.6,2416.7 3994,2416.7 	"/>
	<polyline class="st0" points="3282.5,1469.4 3319.3,1469.4 3319.3,2393.2 3282.5,2393.2 	"/>
	<rect x="3622.7" y="1468.6" class="st0" width="28.3" height="90.7"/>
</g>
</svg>
