<?xml version="1.0" encoding="utf-8"?>
<!-- Generator: Adobe Illustrator 25.2.1, SVG Export Plug-In . SVG Version: 6.00 Build 0)  -->
<svg version="1.1" id="Layer_1" xmlns="http://www.w3.org/2000/svg" xmlns:xlink="http://www.w3.org/1999/xlink" x="0px" y="0px"
	 viewBox="0 0 4280.3 1133.9" style="enable-background:new 0 0 4280.3 1133.9;" xml:space="preserve">
<style type="text/css">
	.st0{fill:#231F20;}
	.st1{fill:none;stroke:#231F20;stroke-miterlimit:10;}
</style>
<path class="st0" d="M752.2,342.9h1029.4l5.4,1.7l3.5,1.8l3.8,2.9l3.1,3.3l2.6,3.8l2.3,4.6l2.2,6.3l1.7,8.5v607h-0.4v0.5H728.2
	V376.8l0.4-4.3l0.3-1.8l1.2-4.8l1.6-4.4l2.2-4.4l1.9-3l2.9-3.5l3.1-2.7l4-2.5l2.4-1L752.2,342.9z M1781.5,343.9H752.4l-3.9,1.4
	l-2.3,1l-3.8,2.5l-2.8,2.6l-2.9,3.4l-1.9,2.9l-2.2,4.3l-1.6,4.3l-1.2,4.7l-0.3,1.8l-0.4,4.3v605.5h1076.2V376.1l-1.7-8.3l-2.2-6.1
	l-2.3-4.4l-2.6-3.6l-3-3.1l-3.6-2.8l-3.3-1.8L1781.5,343.9z"/>
<path class="st1" d="M1266.5,612.6c32.6,0,59.1,26.5,59.1,59.1c0,32.6-26.5,59.1-59.1,59.1s-59.1-26.5-59.1-59.1
	C1207.4,639.1,1233.9,612.6,1266.5,612.6z"/>
</svg>
