<?xml version="1.0" encoding="utf-8"?>
<!-- Generator: Adobe Illustrator 25.2.1, SVG Export Plug-In . SVG Version: 6.00 Build 0)  -->
<svg version="1.1" id="Layer_1" xmlns="http://www.w3.org/2000/svg" xmlns:xlink="http://www.w3.org/1999/xlink" x="0px" y="0px"
	 viewBox="0 0 4280.3 1133.9" style="enable-background:new 0 0 4280.3 1133.9;" xml:space="preserve">
<style type="text/css">
	.st0{fill:none;stroke:#010101;stroke-width:1.4173;stroke-miterlimit:11.3386;}
	.st1{fill:none;stroke:#010101;stroke-width:1.4582;stroke-miterlimit:11.3386;}
	.st2{fill:none;stroke:#010101;stroke-width:1.4474;stroke-miterlimit:11.3386;}
</style>
<g>
	<path id="rect815" class="st0" d="M866.6,1097.4H200.4c-1.6,0-2.8-1.3-2.8-2.8V40.1c0-1.6,1.3-2.8,2.8-2.8h666.1
		c1.6,0,2.8,1.3,2.8,2.8v1054.5C869.4,1096.1,868.1,1097.4,866.6,1097.4z"/>
	<path id="path817" class="st1" d="M510.7,509.5c32.1,0,58.1,26,58.1,58.1l0,0c0,32.1-26,58.1-58.1,58.1s-58.1-26-58.1-58.1
		C452.6,535.6,478.6,509.5,510.7,509.5L510.7,509.5z"/>
	<path id="rect823" class="st2" d="M190.3,1096.6H137c-1.6,0-2.9-1.3-2.9-2.8V39.3c0-1.6,1.3-2.8,2.9-2.8h53.3
		c1.6,0,2.9,1.3,2.9,2.8v1054.4C193.2,1095.3,191.9,1096.6,190.3,1096.6z"/>
</g>
</svg>
