<?xml version="1.0" encoding="utf-8"?>
<!-- Generator: Adobe Illustrator 26.1.0, SVG Export Plug-In . SVG Version: 6.00 Build 0)  -->
<svg version="1.1" id="Layer_1" xmlns="http://www.w3.org/2000/svg" xmlns:xlink="http://www.w3.org/1999/xlink" x="0px" y="0px"
	 viewBox="0 0 1920 1080" style="enable-background:new 0 0 1920 1080;" xml:space="preserve">
<style type="text/css">
	.st0{fill:none;stroke:#000000;stroke-miterlimit:10;}
	.st1{fill:none;stroke:#000000;stroke-width:1;stroke-linecap:round;stroke-linejoin:round;stroke-miterlimit:11.3386;}
</style>
<g>
	<polyline class="st0" points="1201.5,132.5 1241.3,131.5 1241.3,950.7 	"/>
	<polyline class="st0" points="135.7,950.7 135.7,131.5 175.5,132.5 	"/>
	<line class="st0" x1="168" y1="950.5" x2="135.7" y2="950.7"/>
	<line class="st0" x1="1241.3" y1="950.7" x2="1211" y2="950.5"/>
	<polyline class="st0" points="1201.6,132.5 1201.6,147.5 175.5,147.5 175.5,132.5 	"/>
	<path class="st0" d="M1201.6,134.5"/>
	<path class="st0" d="M175.5,134.5"/>
	<path class="st0" d="M167.4,950.7v-51c0-6.3,5.1-11.3,11.3-11.3h1020.5c6.3,0,11.3,5.1,11.3,11.3v51"/>
	<path class="st0" d="M167.4,950.7"/>
	<path class="st0" d="M1210.6,950.7"/>
	<path class="st0" d="M1207.5,949.5H170v-49.6c0-4.7,3.8-8.5,8.5-8.5H1199c4.7,0,8.5,3.8,8.5,8.5V949.5z"/>
	<g>
		<path class="st1" d="M1118.5,529.6L1118.5,529.6l14.9,0h0.6c0,3.5,0,3.7,0,3.7c0,0.7,0,3.2,0,3.3c0,0.4,0,0.4,0,0.4
			c2.6-1.6,2.4-1.5,2.5-1.6l8.9-5.7c0,0,0.1-0.1,2.5-1.5c0.5,0.3,0.1,0.1,0.5,0.3c1.4,0.9,3.3,2.2,3.4,2.3l4.9,3.3
			c0.3,0.2,0.3,0.2,0.7,0.5l4.3,2.9c0.2,0.1,0.3,0.2,0.3,0.2c1.4-3.3,2.2-5.1,5.3-6.7c3.1-1.6,5.7-1.4,7.6-1.4l8.3,0v22.9l-4.9,0
			c0,0-3.6,0-3.6,0c-7.8-0.1-10.1-2.2-12.6-7.7c-2.3,1.5-2.3,1.4-2.3,1.5l-9.4,6c-2.5,1.6-2.3,1.7-2.7,1.4c-0.2-0.1-0.3-0.2-1.1-0.8
			c0,0-2.6-1.8-2.7-1.8c-1.2-0.8-1.1-0.8-1.1-0.8"/>
		<path class="st1" d="M1134.1,544.7c0,0.9,0,1,0,1c0,0.1,0,2.7,0,2.9c0,0,0,0.5,0,3.9l-15.5,0v-0.1"/>
		<path class="st1" d="M1142.7,550.4c-8.6-5.6-8.6-5.7-8.6-5.7"/>
		<g>
			<path class="st1" d="M1101,529.6c10.3,0,8.8,0,10.4,0l5.8,0c0.7,0,1.2,0,1.5,0c0.1,0,0.3,0,0.4,0c0,0,0,0.1,0,0.1"/>
			<path class="st1" d="M1119,552.4L1119,552.4l-9.6,0.1l0-15.5h-8.4l0-7.3"/>
		</g>
	</g>
</g>
</svg>
