<?xml version="1.0" encoding="UTF-8" standalone="no"?>
<!-- Generator: Adobe Illustrator 25.2.0, SVG Export Plug-In . SVG Version: 6.00 Build 0)  -->

<svg
   xmlns:dc="http://purl.org/dc/elements/1.1/"
   xmlns:cc="http://creativecommons.org/ns#"
   xmlns:rdf="http://www.w3.org/1999/02/22-rdf-syntax-ns#"
   xmlns:svg="http://www.w3.org/2000/svg"
   xmlns="http://www.w3.org/2000/svg"
   xmlns:sodipodi="http://sodipodi.sourceforge.net/DTD/sodipodi-0.dtd"
   xmlns:inkscape="http://www.inkscape.org/namespaces/inkscape"
   version="1.0"
   id="Layer_1"
   x="0px"
   y="0px"
   viewBox="0 0 4280.31 1133.86"
   style="enable-background:new 0 0 4280.31 1133.86;"
   xml:space="preserve"
   sodipodi:docname="P3510_LID_NEW.svg"
   inkscape:version="0.92.3 (2405546, 2018-03-11)"><metadata
   id="metadata15"><rdf:RDF><cc:Work
       rdf:about=""><dc:format>image/svg+xml</dc:format><dc:type
         rdf:resource="http://purl.org/dc/dcmitype/StillImage" /><dc:title></dc:title></cc:Work></rdf:RDF></metadata><defs
   id="defs13" />
<style
   type="text/css"
   id="style2">
	.st0{fill:none;stroke:#07060B;stroke-miterlimit:11.3386;}
</style>
<sodipodi:namedview
   bordercolor="#666666"
   borderopacity="1.0"
   id="base"
   pagecolor="#ffffff"
   showgrid="false"
   showguides="true"
   inkscape:zoom="0.093833542"
   inkscape:cx="-429.53816"
   inkscape:cy="566.92999"
   inkscape:window-width="1920"
   inkscape:window-height="1017"
   inkscape:window-x="-8"
   inkscape:window-y="-8"
   inkscape:window-maximized="1"
   inkscape:current-layer="Layer_1">
	</sodipodi:namedview>
<sodipodi:namedview
   bordercolor="#666666"
   borderopacity="1.0"
   id="namedview5"
   pagecolor="#ffffff"
   showgrid="false"
   showguides="true">
	</sodipodi:namedview>
<g
   id="g10">
	<path
   id="rect909"
   class="st0"
   d="M744.52,1028.16l-0.04,41.42c-0.01,15.7-12.64,28.35-28.35,28.35H62.33   c-15.7,0-28.35-12.64-28.35-28.35V64.28c0-15.7,12.64-28.35,28.35-28.35h653.8c15.7,0,28.33,12.64,28.35,28.35l0.04,40.79" />
	<path
   id="rect911"
   class="st0"
   d="M744.52,1028.16h-24.52V105.06h24.52" />
	<path
   id="path915"
   class="st0"
   d="M390.47,624.86c-32.48,0-58.82-26.33-58.82-58.82c0-32.48,26.33-58.82,58.82-58.82   s58.82,26.33,58.82,58.82C449.29,598.53,422.96,624.86,390.47,624.86z" />
</g>
</svg>