<?xml version="1.0" encoding="utf-8"?>
<!-- Generator: Adobe Illustrator 25.2.0, SVG Export Plug-In . SVG Version: 6.00 Build 0)  -->
<svg version="1.1" id="Layer_1" xmlns="http://www.w3.org/2000/svg" xmlns:xlink="http://www.w3.org/1999/xlink" x="0px" y="0px"
	 viewBox="0 0 4280.3 1133.9" style="enable-background:new 0 0 4280.3 1133.9;" xml:space="preserve">
<style type="text/css">
	.st0{fill:none;stroke:#010101;stroke-miterlimit:11.3386;}
</style>
<g>
	<path id="rect919" class="st0" d="M733.7,961.9l-0.1,49.1c0,18.8-17.2,36-36.1,36H114.7c-18.9,0-37.1-18.2-37.1-37V124.1
		c0-18.8,18.2-37,37.1-37h582.9c18.9,0,36.1,17.2,36.1,36l0.1,48.9"/>
	<path id="path921" class="st0" d="M394.9,628c-33.5,0-60.7-27.1-60.7-60.4c0-33.4,27.2-60.4,60.7-60.4s60.7,27.1,60.7,60.4l0,0
		C455.5,600.9,428.4,628,394.9,628L394.9,628z"/>
	<path id="rect927" class="st0" d="M733.7,961.9h-26.3V172.1h26.3"/>
</g>
</svg>
