<?xml version="1.0" encoding="utf-8"?>
<!-- Generator: Adobe Illustrator 26.1.0, SVG Export Plug-In . SVG Version: 6.00 Build 0)  -->
<svg version="1.1" id="Layer_1" xmlns="http://www.w3.org/2000/svg" xmlns:xlink="http://www.w3.org/1999/xlink" x="0px" y="0px"
	 viewBox="0 0 4280.3 1133.9" style="enable-background:new 0 0 4280.3 1133.9;" xml:space="preserve">
<style type="text/css">
	.st0{fill:none;stroke:#000000;stroke-miterlimit:10;}
	.st1{fill:none;stroke:#010101;stroke-linecap:round;stroke-linejoin:round;stroke-miterlimit:11.3386;}
</style>
<g>
	<path class="st0" d="M1137.3,109.6l-7,916.8c0,1.6-1.3,2.8-2.8,2.8l-621.5-5c-12.5,0-22.7-10.2-22.7-22.7l5-875
		c0-12.5,10.2-22.7,22.7-22.7l623.5,3C1136,106.8,1137.3,108.1,1137.3,109.6z"/>
	<g>
		<path class="st1" d="M820.8,578.3c-0.1-0.2-12.3-4.7-36.7-13.6l0.1,12c-0.1,0,36.9,13.2,36.7,13.4
			C820.9,590.2,820.9,578.4,820.8,578.3z"/>
		<path class="st1" d="M866.7,571.9c-0.6,0.1-82.6-31.3-82.5-31.2c0.2,0.3,0,12.6,0.1,12.7c0.4,0.8,83.5,30.8,82.6,31.2
			C866.7,584.6,866.8,571.8,866.7,571.9z"/>
		<path class="st1" d="M820.8,531.5c-0.1-0.2-12.3-4.7-36.7-13.6l0.1,12c-0.1,0,36.9,13.2,36.7,13.4
			C820.9,543.4,820.9,531.6,820.8,531.5z"/>
		<path class="st1" d="M820.7,601.3c-0.6,0.1-82.6-31.3-82.5-31.2c0.2,0.3,0,12.6,0.1,12.7c0.4,0.8,83.5,30.8,82.6,31.2
			C820.7,614.1,820.9,601.3,820.7,601.3z"/>
	</g>
</g>
</svg>
