<?xml version="1.0" encoding="utf-8"?>
<!-- Generator: Adobe Illustrator 24.2.2, SVG Export Plug-In . SVG Version: 6.00 Build 0)  -->
<svg version="1.1"
	 id="svg8" xmlns:cc="http://creativecommons.org/ns#" xmlns:dc="http://purl.org/dc/elements/1.1/" xmlns:inkscape="http://www.inkscape.org/namespaces/inkscape" xmlns:rdf="http://www.w3.org/1999/02/22-rdf-syntax-ns#" xmlns:sodipodi="http://sodipodi.sourceforge.net/DTD/sodipodi-0.dtd" xmlns:svg="http://www.w3.org/2000/svg"
	 xmlns="http://www.w3.org/2000/svg" xmlns:xlink="http://www.w3.org/1999/xlink" x="0px" y="0px" viewBox="0 0 3401.6 3401.6"
	 style="enable-background:new 0 0 3401.6 3401.6;" xml:space="preserve">
<style type="text/css">
	.st0{fill:none;stroke:#000000;stroke-miterlimit:11.3386;}
	.st1{fill:none;stroke:#000100;stroke-width:2.1037;stroke-linejoin:round;stroke-miterlimit:11.3386;stroke-opacity:0.9955;}
	.st2{fill:none;stroke:#000000;stroke-width:0.75;stroke-miterlimit:11.3386;}
</style>
<sodipodi:namedview  bordercolor="#666666" borderopacity="1.0" id="base" inkscape:bbox-nodes="true" inkscape:bbox-paths="true" inkscape:current-layer="layer1" inkscape:cx="1973.3979" inkscape:cy="3366.3191" inkscape:document-units="mm" inkscape:guide-bbox="true" inkscape:measure-end="892.402,3886.08" inkscape:measure-start="525.084,3887.29" inkscape:pageopacity="0.0" inkscape:pageshadow="2" inkscape:snap-bbox="true" inkscape:snap-bbox-edge-midpoints="true" inkscape:snap-bbox-midpoints="true" inkscape:snap-center="true" inkscape:snap-intersection-paths="true" inkscape:snap-midpoints="true" inkscape:snap-object-midpoints="true" inkscape:snap-smooth-nodes="true" inkscape:snap-to-guides="false" inkscape:window-height="684" inkscape:window-maximized="1" inkscape:window-width="1366" inkscape:window-x="0" inkscape:window-y="28" inkscape:zoom="0.16396038" pagecolor="#ffffff" showgrid="false" showguides="true" units="mm">
	</sodipodi:namedview>
<g>
	<polygon class="st0" points="272.8,2023.4 764.7,2023.6 769.6,2023.8 774.9,2024.1 780.2,2024.5 786.1,2025.2 790.9,2025.9 
		794.6,2026.6 797.4,2027.2 802.3,2028.7 806,2030.1 809.2,2031.7 812.2,2033.6 815.9,2037 818.1,2040.1 820.1,2044 821.8,2049.7 
		822.5,2054.6 823,2061.3 823.7,2938.4 823.6,2941.2 823.4,2943.9 822.9,2948.2 822.3,2950.9 821.3,2954 820.3,2956.6 819,2959.1 
		817.7,2961 816.2,2963 814.2,2965.1 812.5,2966.6 810.9,2967.8 807.9,2969.6 804.7,2971.2 800.4,2973 796.1,2974.2 791.6,2975.3 
		786.7,2976.1 782.3,2976.6 776.8,2977.1 770.4,2977.4 761.3,2977.4 216.9,2976.9 207.7,2977 200.6,2976.5 197.3,2976.1 
		191.7,2975.1 187.1,2973.7 184.6,2972.7 180.5,2970.5 177.6,2968.3 174.7,2965.4 172.8,2962.7 170.7,2958.8 169.1,2953.8 
		167.8,2946.9 167.8,2940.6 167.4,2060.7 167.4,2057.7 167.4,2054.5 167.4,2050.5 167.9,2046.8 168.5,2044.6 169.1,2042.9 
		169.6,2041.6 170.1,2040.7 170.6,2039.8 171.2,2038.8 172.5,2036.9 173.6,2035.6 176.1,2033.1 177.6,2032 178.8,2031.1 
		180.3,2030.1 183.1,2028.7 184.8,2028 188,2026.8 192.9,2025.5 196.4,2024.8 204.7,2024 210,2023.8 215.5,2023.7 222.1,2023.4 	"/>
	<path id="path4582-9_1_" inkscape:connector-curvature="0" class="st1" d="M491,2557.8c-32.3,0-58.5-26.2-58.5-58.5l0,0
		c0-32.3,26.2-58.5,58.5-58.5s58.5,26.2,58.5,58.5C549.5,2531.7,523.3,2557.8,491,2557.8L491,2557.8z"/>
	<path id="path877-1_1_" inkscape:connector-curvature="0" class="st2" d="M464.8,2494.5c2.5,0,5.1,0,7.6,0c7.3,0,14.6,0,21.9,0
		c2.4,0,4.9,0,7.3,0c0.8,0,1.6,0,2.3,0c0.1,0,0.2,0,0.3,0c0.1,0,0.3-0.1,0.3,0s-0.2,0-0.3,0"/>
	<path id="path877-3-2_1_" inkscape:connector-curvature="0" class="st2" d="M464.4,2506.1c2.5,0,5.1,0,7.6,0c7.3,0,14.6,0,21.9,0
		c2.4,0,4.9,0,7.3,0c0.8,0,1.6,0,2.3,0c0.1,0,0.2,0,0.3,0s0.3-0.1,0.3,0s-0.2,0-0.3,0"/>
	<path id="path938-7_1_" inkscape:connector-curvature="0" class="st2" d="M464.8,2494.5l-0.5,11.6"/>
	<path id="path940-0_1_" inkscape:connector-curvature="0" class="st2" d="M501.5,2488.2l2.7,6.3"/>
	<path id="path942-9_1_" inkscape:connector-curvature="0" class="st2" d="M504,2506l-2.5,6.6"/>
	<path id="path954-3_1_" inkscape:connector-curvature="0" class="st2" d="M501.5,2488.2l25.2,12.2l-25.2,12.2"/>
</g>
<g>
	<polygon class="st0" points="944,2023.9 1435.9,2024 1440.8,2024.3 1446.2,2024.6 1451.4,2025 1457.3,2025.6 1462.1,2026.4 
		1465.8,2027.1 1468.6,2027.7 1473.5,2029.1 1477.2,2030.5 1480.4,2032.2 1483.4,2034.1 1487.1,2037.5 1489.4,2040.6 1491.3,2044.5 
		1493,2050.2 1493.7,2055 1494.2,2061.8 1494.9,2938.8 1494.8,2941.6 1494.7,2944.3 1494.1,2948.7 1493.5,2951.4 1492.5,2954.5 
		1491.5,2957 1490.2,2959.5 1488.9,2961.5 1487.4,2963.5 1485.4,2965.6 1483.7,2967 1482.1,2968.2 1479.1,2970.1 1475.9,2971.7 
		1471.6,2973.4 1467.3,2974.7 1462.8,2975.7 1457.9,2976.5 1453.6,2977.1 1448,2977.5 1441.6,2977.8 1432.5,2977.8 888.1,2977.4 
		878.9,2977.4 871.8,2977 868.5,2976.6 862.9,2975.5 858.4,2974.2 855.9,2973.2 851.7,2970.9 848.8,2968.8 845.9,2965.8 844,2963.2 
		841.9,2959.2 840.3,2954.3 839,2947.4 839,2941.1 838.6,2061.2 838.6,2058.1 838.6,2055 838.6,2050.9 839.1,2047.3 839.7,2045.1 
		840.3,2043.4 840.9,2042 841.3,2041.1 841.8,2040.2 842.4,2039.3 843.7,2037.3 844.8,2036 847.3,2033.6 848.8,2032.4 850,2031.5 
		851.5,2030.6 854.3,2029.1 856,2028.4 859.2,2027.2 864.1,2025.9 867.6,2025.3 875.9,2024.5 881.2,2024.3 886.7,2024.1 
		893.3,2023.9 	"/>
	<path id="path4582-9_3_" inkscape:connector-curvature="0" class="st1" d="M1162.3,2558.3c-32.3,0-58.5-26.2-58.5-58.5l0,0
		c0-32.3,26.2-58.5,58.5-58.5s58.5,26.2,58.5,58.5C1220.7,2532.1,1194.6,2558.3,1162.3,2558.3L1162.3,2558.3z"/>
	<path id="path877-1_2_" inkscape:connector-curvature="0" class="st2" d="M1136,2495c2.5,0,5.1,0,7.6,0c7.3,0,14.6,0,21.9,0
		c2.4,0,4.9,0,7.3,0c0.8,0,1.6,0,2.3,0c0.1,0,0.2,0,0.3,0s0.3-0.1,0.3,0s-0.2,0-0.3,0"/>
	<path id="path877-3-2_2_" inkscape:connector-curvature="0" class="st2" d="M1135.6,2506.5c2.5,0,5.1,0,7.6,0c7.3,0,14.6,0,21.9,0
		c2.4,0,4.9,0,7.3,0c0.8,0,1.6,0,2.3,0c0.1,0,0.2,0,0.3,0c0.1,0,0.3-0.1,0.3,0s-0.2,0-0.3,0"/>
	<path id="path938-7_2_" inkscape:connector-curvature="0" class="st2" d="M1136,2495l-0.5,11.6"/>
	<path id="path940-0_2_" inkscape:connector-curvature="0" class="st2" d="M1172.7,2488.6l2.7,6.3"/>
	<path id="path942-9_2_" inkscape:connector-curvature="0" class="st2" d="M1175.2,2506.5l-2.5,6.6"/>
	<path id="path954-3_2_" inkscape:connector-curvature="0" class="st2" d="M1172.7,2488.6l25.2,12.2l-25.2,12.2"/>
</g>
<g>
	<polygon class="st0" points="1613.4,2023.8 2105.2,2023.9 2110.2,2024.1 2115.5,2024.5 2120.8,2024.9 2126.6,2025.5 2131.5,2026.2 
		2135.2,2026.9 2138,2027.6 2142.9,2029 2146.5,2030.4 2149.8,2032 2152.7,2033.9 2156.4,2037.3 2158.7,2040.5 2160.7,2044.4 
		2162.3,2050 2163.1,2054.9 2163.5,2061.7 2164.3,2938.7 2164.2,2941.5 2164,2944.2 2163.4,2948.6 2162.8,2951.3 2161.9,2954.4 
		2160.9,2956.9 2159.6,2959.4 2158.3,2961.4 2156.8,2963.3 2154.7,2965.4 2153.1,2966.9 2151.4,2968.1 2148.5,2970 2145.3,2971.6 
		2140.9,2973.3 2136.7,2974.6 2132.2,2975.6 2127.3,2976.4 2122.9,2977 2117.4,2977.4 2111,2977.7 2101.9,2977.7 1557.5,2977.2 
		1548.2,2977.3 1541.2,2976.9 1537.9,2976.5 1532.2,2975.4 1527.7,2974.1 1525.2,2973.1 1521,2970.8 1518.2,2968.7 1515.3,2965.7 
		1513.4,2963.1 1511.3,2959.1 1509.6,2954.1 1508.4,2947.3 1508.4,2941 1508,2061.1 1508,2058 1508,2054.9 1508,2050.8 
		1508.4,2047.2 1509.1,2045 1509.6,2043.3 1510.2,2041.9 1510.7,2041 1511.1,2040.1 1511.7,2039.1 1513.1,2037.2 1514.2,2035.9 
		1516.6,2033.5 1518.1,2032.3 1519.4,2031.4 1520.9,2030.5 1523.7,2029 1525.3,2028.3 1528.6,2027.1 1533.5,2025.8 1536.9,2025.2 
		1545.3,2024.3 1550.6,2024.2 1556.1,2024 1562.6,2023.7 	"/>
	<path id="path4582-9_7_" inkscape:connector-curvature="0" class="st1" d="M1831.6,2558.2c-32.3,0-58.5-26.2-58.5-58.5l0,0
		c0-32.3,26.2-58.5,58.5-58.5s58.5,26.2,58.5,58.5S1863.9,2558.2,1831.6,2558.2L1831.6,2558.2z"/>
	<path id="path877-1_4_" inkscape:connector-curvature="0" class="st2" d="M1805.4,2494.9c2.5,0,5.1,0,7.6,0c7.3,0,14.6,0,21.9,0
		c2.4,0,4.9,0,7.3,0c0.8,0,1.6,0,2.3,0c0.1,0,0.2,0,0.3,0c0.1,0,0.3-0.1,0.3,0s-0.2,0-0.3,0"/>
	<path id="path877-3-2_4_" inkscape:connector-curvature="0" class="st2" d="M1804.9,2506.4c2.5,0,5.1,0,7.6,0c7.3,0,14.6,0,21.9,0
		c2.4,0,4.9,0,7.3,0c0.8,0,1.6,0,2.3,0c0.1,0,0.2,0,0.3,0c0.1,0,0.3-0.1,0.3,0s-0.2,0-0.3,0"/>
	<path id="path938-7_4_" inkscape:connector-curvature="0" class="st2" d="M1805.4,2494.9l-0.5,11.6"/>
	<path id="path940-0_4_" inkscape:connector-curvature="0" class="st2" d="M1842.1,2488.5l2.7,6.3"/>
	<path id="path942-9_4_" inkscape:connector-curvature="0" class="st2" d="M1844.6,2506.4l-2.5,6.6"/>
	<path id="path954-3_4_" inkscape:connector-curvature="0" class="st2" d="M1842.1,2488.5l25.2,12.2l-25.2,12.2"/>
</g>
<g>
	<polygon class="st0" points="2284.6,2024.2 2776.5,2024.4 2781.4,2024.6 2786.7,2024.9 2792,2025.3 2797.8,2026 2802.7,2026.7 
		2806.4,2027.4 2809.2,2028 2814.1,2029.5 2817.7,2030.9 2821,2032.5 2823.9,2034.4 2827.6,2037.8 2829.9,2040.9 2831.9,2044.8 
		2833.5,2050.5 2834.3,2055.4 2834.7,2062.1 2835.5,2939.2 2835.4,2942 2835.2,2944.7 2834.6,2949 2834.1,2951.7 2833.1,2954.8 
		2832.1,2957.4 2830.8,2959.9 2829.5,2961.8 2828,2963.8 2826,2965.9 2824.3,2967.3 2822.7,2968.6 2819.7,2970.4 2816.5,2972 
		2812.2,2973.7 2807.9,2975 2803.4,2976 2798.5,2976.9 2794.1,2977.4 2788.6,2977.9 2782.2,2978.2 2773.1,2978.2 2228.7,2977.7 
		2219.4,2977.8 2212.4,2977.3 2209.1,2976.9 2203.4,2975.9 2198.9,2974.5 2196.4,2973.5 2192.3,2971.3 2189.4,2969.1 2186.5,2966.2 
		2184.6,2963.5 2182.5,2959.5 2180.8,2954.6 2179.6,2947.7 2179.6,2941.4 2179.2,2061.5 2179.2,2058.5 2179.2,2055.3 2179.2,2051.3 
		2179.7,2047.6 2180.3,2045.4 2180.9,2043.7 2181.4,2042.4 2181.9,2041.5 2182.3,2040.6 2182.9,2039.6 2184.3,2037.7 2185.4,2036.3 
		2187.8,2033.9 2189.3,2032.7 2190.6,2031.9 2192.1,2030.9 2194.9,2029.5 2196.5,2028.8 2199.8,2027.6 2204.7,2026.3 2208.1,2025.6 
		2216.5,2024.8 2221.8,2024.6 2227.3,2024.4 2233.8,2024.2 	"/>
	<path id="path4582-9_5_" inkscape:connector-curvature="0" class="st1" d="M2502.8,2558.6c-32.3,0-58.5-26.2-58.5-58.5l0,0
		c0-32.3,26.2-58.5,58.5-58.5s58.5,26.2,58.5,58.5S2535.1,2558.6,2502.8,2558.6L2502.8,2558.6z"/>
	<path id="path877-1_3_" inkscape:connector-curvature="0" class="st2" d="M2476.6,2495.3c2.5,0,5.1,0,7.6,0c7.3,0,14.6,0,21.9,0
		c2.4,0,4.9,0,7.3,0c0.8,0,1.6,0,2.3,0c0.1,0,0.2,0,0.3,0s0.3-0.1,0.3,0s-0.2,0-0.3,0"/>
	<path id="path877-3-2_3_" inkscape:connector-curvature="0" class="st2" d="M2476.1,2506.9c2.5,0,5.1,0,7.6,0c7.3,0,14.6,0,21.9,0
		c2.4,0,4.9,0,7.3,0c0.8,0,1.6,0,2.3,0c0.1,0,0.2,0,0.3,0s0.3-0.1,0.3,0s-0.2,0-0.3,0"/>
	<path id="path938-7_3_" inkscape:connector-curvature="0" class="st2" d="M2476.6,2495.3l-0.5,11.6"/>
	<path id="path940-0_3_" inkscape:connector-curvature="0" class="st2" d="M2513.3,2489l2.7,6.3"/>
	<path id="path942-9_3_" inkscape:connector-curvature="0" class="st2" d="M2515.8,2506.8l-2.5,6.6"/>
	<path id="path954-3_3_" inkscape:connector-curvature="0" class="st2" d="M2513.3,2489l25.2,12.2l-25.2,12.2"/>
</g>
<g>
	<polygon class="st0" points="2964,2024.6 3455.8,2024.8 3460.8,2025 3466.1,2025.3 3471.4,2025.8 3477.2,2026.4 3482.1,2027.1 
		3485.8,2027.8 3488.6,2028.5 3493.5,2029.9 3497.1,2031.3 3500.4,2032.9 3503.3,2034.8 3507,2038.2 3509.3,2041.3 3511.2,2045.2 
		3512.9,2050.9 3513.7,2055.8 3514.1,2062.5 3514.8,2939.6 3514.8,2942.4 3514.6,2945.1 3514,2949.4 3513.4,2952.2 3512.5,2955.2 
		3511.4,2957.8 3510.1,2960.3 3508.9,2962.2 3507.3,2964.2 3505.3,2966.3 3503.7,2967.8 3502,2969 3499.1,2970.8 3495.9,2972.5 
		3491.5,2974.2 3487.2,2975.4 3482.8,2976.5 3477.8,2977.3 3473.5,2977.8 3468,2978.3 3461.5,2978.6 3452.4,2978.6 2908,2978.1 
		2898.8,2978.2 2891.7,2977.7 2888.5,2977.4 2882.8,2976.3 2878.3,2974.9 2875.8,2973.9 2871.6,2971.7 2868.8,2969.5 2865.9,2966.6 
		2863.9,2963.9 2861.9,2960 2860.2,2955 2859,2948.1 2859,2941.8 2858.6,2061.9 2858.6,2058.9 2858.6,2055.7 2858.6,2051.7 
		2859,2048 2859.6,2045.8 2860.2,2044.1 2860.8,2042.8 2861.2,2041.9 2861.7,2041 2862.3,2040 2863.6,2038.1 2864.7,2036.8 
		2867.2,2034.3 2868.7,2033.2 2870,2032.3 2871.4,2031.4 2874.2,2029.9 2875.9,2029.2 2879.1,2028 2884,2026.7 2887.5,2026.1 
		2895.9,2025.2 2901.2,2025 2906.7,2024.9 2913.2,2024.6 	"/>
	<path id="path4582-9_11_" inkscape:connector-curvature="0" class="st1" d="M3182.2,2559c-32.3,0-58.5-26.2-58.5-58.5l0,0
		c0-32.3,26.2-58.5,58.5-58.5s58.5,26.2,58.5,58.5S3214.5,2559,3182.2,2559L3182.2,2559z"/>
	<path id="path877-1_6_" inkscape:connector-curvature="0" class="st2" d="M3156,2495.7c2.5,0,5.1,0,7.6,0c7.3,0,14.6,0,21.9,0
		c2.4,0,4.9,0,7.3,0c0.8,0,1.6,0,2.3,0c0.1,0,0.2,0,0.3,0s0.3-0.1,0.3,0s-0.2,0-0.3,0"/>
	<path id="path877-3-2_6_" inkscape:connector-curvature="0" class="st2" d="M3155.5,2507.3c2.5,0,5.1,0,7.6,0c7.3,0,14.6,0,21.9,0
		c2.4,0,4.9,0,7.3,0c0.8,0,1.6,0,2.3,0c0.1,0,0.2,0,0.3,0s0.3-0.1,0.3,0s-0.2,0-0.3,0"/>
	<path id="path938-7_6_" inkscape:connector-curvature="0" class="st2" d="M3156,2495.7l-0.5,11.6"/>
	<path id="path940-0_6_" inkscape:connector-curvature="0" class="st2" d="M3192.7,2489.4l2.7,6.3"/>
	<path id="path942-9_6_" inkscape:connector-curvature="0" class="st2" d="M3195.2,2507.2l-2.5,6.6"/>
	<path id="path954-3_6_" inkscape:connector-curvature="0" class="st2" d="M3192.7,2489.4l25.2,12.2l-25.2,12.2"/>
</g>
<g>
	<polygon class="st0" points="3635.2,2025.1 4127,2025.3 4132,2025.5 4137.3,2025.8 4142.6,2026.2 4148.4,2026.8 4153.3,2027.6 
		4157,2028.3 4159.8,2028.9 4164.7,2030.3 4168.3,2031.7 4171.6,2033.4 4174.5,2035.3 4178.2,2038.7 4180.5,2041.8 4182.4,2045.7 
		4184.1,2051.4 4184.9,2056.2 4185.3,2063 4186,2940 4186,2942.9 4185.8,2945.6 4185.2,2949.9 4184.6,2952.6 4183.7,2955.7 
		4182.7,2958.2 4181.3,2960.8 4180.1,2962.7 4178.5,2964.7 4176.5,2966.8 4174.9,2968.2 4173.2,2969.4 4170.3,2971.3 4167.1,2972.9 
		4162.7,2974.6 4158.4,2975.9 4154,2976.9 4149,2977.8 4144.7,2978.3 4139.2,2978.8 4132.7,2979 4123.7,2979 3579.2,2978.6 
		3570,2978.6 3563,2978.2 3559.7,2977.8 3554,2976.7 3549.5,2975.4 3547,2974.4 3542.8,2972.1 3540,2970 3537.1,2967 3535.2,2964.4 
		3533.1,2960.4 3531.4,2955.5 3530.2,2948.6 3530.2,2942.3 3529.8,2062.4 3529.8,2059.3 3529.8,2056.2 3529.8,2052.1 3530.2,2048.5 
		3530.8,2046.3 3531.4,2044.6 3532,2043.2 3532.4,2042.4 3532.9,2041.5 3533.5,2040.5 3534.8,2038.5 3536,2037.2 3538.4,2034.8 
		3539.9,2033.6 3541.2,2032.7 3542.7,2031.8 3545.4,2030.4 3547.1,2029.6 3550.3,2028.5 3555.2,2027.2 3558.7,2026.5 3567.1,2025.7 
		3572.4,2025.5 3577.9,2025.3 3584.4,2025.1 	"/>
	<path id="path4582-9_9_" inkscape:connector-curvature="0" class="st1" d="M3853.4,2559.5c-32.3,0-58.5-26.2-58.5-58.5l0,0
		c0-32.3,26.2-58.5,58.5-58.5s58.5,26.2,58.5,58.5S3885.7,2559.5,3853.4,2559.5L3853.4,2559.5z"/>
	<path id="path877-1_5_" inkscape:connector-curvature="0" class="st2" d="M3827.2,2496.2c2.5,0,5.1,0,7.6,0c7.3,0,14.6,0,21.9,0
		c2.4,0,4.9,0,7.3,0c0.8,0,1.6,0,2.3,0c0.1,0,0.2,0,0.3,0s0.3-0.1,0.3,0s-0.2,0-0.3,0"/>
	<path id="path877-3-2_5_" inkscape:connector-curvature="0" class="st2" d="M3826.7,2507.7c2.5,0,5.1,0,7.6,0c7.3,0,14.6,0,21.9,0
		c2.4,0,4.9,0,7.3,0c0.8,0,1.6,0,2.3,0c0.1,0,0.2,0,0.3,0s0.3-0.1,0.3,0s-0.2,0-0.3,0"/>
	<path id="path938-7_5_" inkscape:connector-curvature="0" class="st2" d="M3827.2,2496.2l-0.5,11.6"/>
	<path id="path940-0_5_" inkscape:connector-curvature="0" class="st2" d="M3863.9,2489.8l2.7,6.3"/>
	<path id="path942-9_5_" inkscape:connector-curvature="0" class="st2" d="M3866.4,2507.7l-2.5,6.6"/>
	<path id="path954-3_5_" inkscape:connector-curvature="0" class="st2" d="M3863.9,2489.8l25.2,12.2l-25.2,12.2"/>
</g>
<g>
	<polygon class="st0" points="272.4,2024.4 764.3,2024.6 769.2,2024.8 774.5,2025.1 779.8,2025.5 785.7,2026.2 790.5,2026.9 
		794.2,2027.6 797,2028.2 801.9,2029.7 805.6,2031.1 808.8,2032.7 811.8,2034.6 815.5,2038 817.7,2041.1 819.7,2045 821.4,2050.7 
		822.1,2055.6 822.6,2062.3 823.3,2939.4 823.2,2942.2 823,2944.9 822.5,2949.2 821.9,2951.9 820.9,2955 819.9,2957.6 818.6,2960.1 
		817.3,2962 815.8,2964 813.8,2966.1 812.1,2967.6 810.5,2968.8 807.5,2970.6 804.3,2972.2 800,2974 795.7,2975.2 791.2,2976.3 
		786.3,2977.1 781.9,2977.6 776.4,2978.1 770,2978.4 760.9,2978.4 216.5,2977.9 207.3,2978 200.2,2977.5 196.9,2977.1 191.3,2976.1 
		186.7,2974.7 184.2,2973.7 180.1,2971.5 177.2,2969.3 174.3,2966.4 172.4,2963.7 170.3,2959.8 168.7,2954.8 167.4,2947.9 
		167.4,2941.6 167,2061.7 167,2058.7 167,2055.5 167,2051.5 167.5,2047.8 168.1,2045.6 168.7,2043.9 169.2,2042.6 169.7,2041.7 
		170.2,2040.8 170.8,2039.8 172.1,2037.9 173.2,2036.6 175.7,2034.1 177.2,2033 178.4,2032.1 179.9,2031.1 182.7,2029.7 184.4,2029 
		187.6,2027.8 192.5,2026.5 196,2025.8 204.3,2025 209.6,2024.8 215.1,2024.7 221.7,2024.4 	"/>
	<path id="path4582-9_23_" inkscape:connector-curvature="0" class="st1" d="M490.6,2558.8c-32.3,0-58.5-26.2-58.5-58.5l0,0
		c0-32.3,26.2-58.5,58.5-58.5s58.5,26.2,58.5,58.5C549.1,2532.7,522.9,2558.8,490.6,2558.8L490.6,2558.8z"/>
	<path id="path877-1_12_" inkscape:connector-curvature="0" class="st2" d="M464.4,2495.5c2.5,0,5.1,0,7.6,0c7.3,0,14.6,0,21.9,0
		c2.4,0,4.9,0,7.3,0c0.8,0,1.6,0,2.3,0c0.1,0,0.2,0,0.3,0c0.1,0,0.3-0.1,0.3,0s-0.2,0-0.3,0"/>
	<path id="path877-3-2_12_" inkscape:connector-curvature="0" class="st2" d="M464,2507.1c2.5,0,5.1,0,7.6,0c7.3,0,14.6,0,21.9,0
		c2.4,0,4.9,0,7.3,0c0.8,0,1.6,0,2.3,0c0.1,0,0.2,0,0.3,0s0.3-0.1,0.3,0s-0.2,0-0.3,0"/>
	<path id="path938-7_12_" inkscape:connector-curvature="0" class="st2" d="M464.4,2495.5l-0.5,11.6"/>
	<path id="path940-0_12_" inkscape:connector-curvature="0" class="st2" d="M501.1,2489.2l2.7,6.3"/>
	<path id="path942-9_12_" inkscape:connector-curvature="0" class="st2" d="M503.6,2507l-2.5,6.6"/>
	<path id="path954-3_12_" inkscape:connector-curvature="0" class="st2" d="M501.1,2489.2l25.2,12.2l-25.2,12.2"/>
</g>
<g>
	<polygon class="st0" points="943.6,2024.9 1435.5,2025 1440.4,2025.3 1445.8,2025.6 1451,2026 1456.9,2026.6 1461.7,2027.4 
		1465.4,2028.1 1468.2,2028.7 1473.1,2030.1 1476.8,2031.5 1480,2033.2 1483,2035.1 1486.7,2038.5 1489,2041.6 1490.9,2045.5 
		1492.6,2051.2 1493.3,2056 1493.8,2062.8 1494.5,2939.8 1494.4,2942.6 1494.3,2945.3 1493.7,2949.7 1493.1,2952.4 1492.1,2955.5 
		1491.1,2958 1489.8,2960.5 1488.5,2962.5 1487,2964.5 1485,2966.6 1483.3,2968 1481.7,2969.2 1478.7,2971.1 1475.5,2972.7 
		1471.2,2974.4 1466.9,2975.7 1462.4,2976.7 1457.5,2977.5 1453.2,2978.1 1447.6,2978.5 1441.2,2978.8 1432.1,2978.8 887.7,2978.4 
		878.5,2978.4 871.4,2978 868.1,2977.6 862.5,2976.5 858,2975.2 855.5,2974.2 851.3,2971.9 848.4,2969.8 845.5,2966.8 843.6,2964.2 
		841.5,2960.2 839.9,2955.3 838.6,2948.4 838.6,2942.1 838.2,2062.2 838.2,2059.1 838.2,2056 838.2,2051.9 838.7,2048.3 
		839.3,2046.1 839.9,2044.4 840.5,2043 840.9,2042.1 841.4,2041.2 842,2040.3 843.3,2038.3 844.4,2037 846.9,2034.6 848.4,2033.4 
		849.6,2032.5 851.1,2031.6 853.9,2030.1 855.6,2029.4 858.8,2028.2 863.7,2026.9 867.2,2026.3 875.5,2025.5 880.8,2025.3 
		886.3,2025.1 892.9,2024.9 	"/>
	<path id="path4582-9_21_" inkscape:connector-curvature="0" class="st1" d="M1161.9,2559.3c-32.3,0-58.5-26.2-58.5-58.5l0,0
		c0-32.3,26.2-58.5,58.5-58.5s58.5,26.2,58.5,58.5C1220.3,2533.1,1194.2,2559.3,1161.9,2559.3L1161.9,2559.3z"/>
	<path id="path877-1_11_" inkscape:connector-curvature="0" class="st2" d="M1135.6,2496c2.5,0,5.1,0,7.6,0c7.3,0,14.6,0,21.9,0
		c2.4,0,4.9,0,7.3,0c0.8,0,1.6,0,2.3,0c0.1,0,0.2,0,0.3,0s0.3-0.1,0.3,0s-0.2,0-0.3,0"/>
	<path id="path877-3-2_11_" inkscape:connector-curvature="0" class="st2" d="M1135.2,2507.5c2.5,0,5.1,0,7.6,0c7.3,0,14.6,0,21.9,0
		c2.4,0,4.9,0,7.3,0c0.8,0,1.6,0,2.3,0c0.1,0,0.2,0,0.3,0c0.1,0,0.3-0.1,0.3,0s-0.2,0-0.3,0"/>
	<path id="path938-7_11_" inkscape:connector-curvature="0" class="st2" d="M1135.6,2496l-0.5,11.6"/>
	<path id="path940-0_11_" inkscape:connector-curvature="0" class="st2" d="M1172.3,2489.6l2.7,6.3"/>
	<path id="path942-9_11_" inkscape:connector-curvature="0" class="st2" d="M1174.8,2507.5l-2.5,6.6"/>
	<path id="path954-3_11_" inkscape:connector-curvature="0" class="st2" d="M1172.3,2489.6l25.2,12.2l-25.2,12.2"/>
</g>
<g>
	<polygon class="st0" points="1613,2024.8 2104.8,2024.9 2109.8,2025.1 2115.1,2025.5 2120.4,2025.9 2126.2,2026.5 2131.1,2027.2 
		2134.8,2027.9 2137.6,2028.6 2142.5,2030 2146.1,2031.4 2149.4,2033 2152.3,2034.9 2156,2038.3 2158.3,2041.5 2160.3,2045.4 
		2161.9,2051 2162.7,2055.9 2163.1,2062.7 2163.9,2939.7 2163.8,2942.5 2163.6,2945.2 2163,2949.6 2162.4,2952.3 2161.5,2955.4 
		2160.5,2957.9 2159.2,2960.4 2157.9,2962.4 2156.4,2964.3 2154.3,2966.4 2152.7,2967.9 2151,2969.1 2148.1,2971 2144.9,2972.6 
		2140.5,2974.3 2136.3,2975.6 2131.8,2976.6 2126.9,2977.4 2122.5,2978 2117,2978.4 2110.6,2978.7 2101.5,2978.7 1557.1,2978.2 
		1547.8,2978.3 1540.8,2977.9 1537.5,2977.5 1531.8,2976.4 1527.3,2975.1 1524.8,2974.1 1520.6,2971.8 1517.8,2969.7 1514.9,2966.7 
		1513,2964.1 1510.9,2960.1 1509.2,2955.1 1508,2948.3 1508,2942 1507.6,2062.1 1507.6,2059 1507.6,2055.9 1507.6,2051.8 
		1508,2048.2 1508.7,2046 1509.2,2044.3 1509.8,2042.9 1510.3,2042 1510.7,2041.1 1511.3,2040.1 1512.7,2038.2 1513.8,2036.9 
		1516.2,2034.5 1517.7,2033.3 1519,2032.4 1520.5,2031.5 1523.3,2030 1524.9,2029.3 1528.2,2028.1 1533.1,2026.8 1536.5,2026.2 
		1544.9,2025.3 1550.2,2025.2 1555.7,2025 1562.2,2024.7 	"/>
	<path id="path4582-9_19_" inkscape:connector-curvature="0" class="st1" d="M1831.2,2559.2c-32.3,0-58.5-26.2-58.5-58.5l0,0
		c0-32.3,26.2-58.5,58.5-58.5s58.5,26.2,58.5,58.5S1863.5,2559.2,1831.2,2559.2L1831.2,2559.2z"/>
	<path id="path877-1_10_" inkscape:connector-curvature="0" class="st2" d="M1805,2495.9c2.5,0,5.1,0,7.6,0c7.3,0,14.6,0,21.9,0
		c2.4,0,4.9,0,7.3,0c0.8,0,1.6,0,2.3,0c0.1,0,0.2,0,0.3,0c0.1,0,0.3-0.1,0.3,0s-0.2,0-0.3,0"/>
	<path id="path877-3-2_10_" inkscape:connector-curvature="0" class="st2" d="M1804.5,2507.4c2.5,0,5.1,0,7.6,0c7.3,0,14.6,0,21.9,0
		c2.4,0,4.9,0,7.3,0c0.8,0,1.6,0,2.3,0c0.1,0,0.2,0,0.3,0c0.1,0,0.3-0.1,0.3,0s-0.2,0-0.3,0"/>
	<path id="path938-7_10_" inkscape:connector-curvature="0" class="st2" d="M1805,2495.9l-0.5,11.6"/>
	<path id="path940-0_10_" inkscape:connector-curvature="0" class="st2" d="M1841.7,2489.5l2.7,6.3"/>
	<path id="path942-9_10_" inkscape:connector-curvature="0" class="st2" d="M1844.2,2507.4l-2.5,6.6"/>
	<path id="path954-3_10_" inkscape:connector-curvature="0" class="st2" d="M1841.7,2489.5l25.2,12.2l-25.2,12.2"/>
</g>
<g>
	<polygon class="st0" points="2284.2,2025.2 2776.1,2025.4 2781,2025.6 2786.3,2025.9 2791.6,2026.3 2797.4,2027 2802.3,2027.7 
		2806,2028.4 2808.8,2029 2813.7,2030.5 2817.3,2031.9 2820.6,2033.5 2823.5,2035.4 2827.2,2038.8 2829.5,2041.9 2831.5,2045.8 
		2833.1,2051.5 2833.9,2056.4 2834.3,2063.1 2835.1,2940.2 2835,2943 2834.8,2945.7 2834.2,2950 2833.7,2952.7 2832.7,2955.8 
		2831.7,2958.4 2830.4,2960.9 2829.1,2962.8 2827.6,2964.8 2825.6,2966.9 2823.9,2968.3 2822.3,2969.6 2819.3,2971.4 2816.1,2973 
		2811.8,2974.7 2807.5,2976 2803,2977 2798.1,2977.9 2793.7,2978.4 2788.2,2978.9 2781.8,2979.2 2772.7,2979.2 2228.3,2978.7 
		2219,2978.8 2212,2978.3 2208.7,2977.9 2203,2976.9 2198.5,2975.5 2196,2974.5 2191.9,2972.3 2189,2970.1 2186.1,2967.2 
		2184.2,2964.5 2182.1,2960.5 2180.4,2955.6 2179.2,2948.7 2179.2,2942.4 2178.8,2062.5 2178.8,2059.5 2178.8,2056.3 2178.8,2052.3 
		2179.3,2048.6 2179.9,2046.4 2180.5,2044.7 2181,2043.4 2181.5,2042.5 2181.9,2041.6 2182.5,2040.6 2183.9,2038.7 2185,2037.3 
		2187.4,2034.9 2188.9,2033.7 2190.2,2032.9 2191.7,2031.9 2194.5,2030.5 2196.1,2029.8 2199.4,2028.6 2204.3,2027.3 2207.7,2026.6 
		2216.1,2025.8 2221.4,2025.6 2226.9,2025.4 2233.4,2025.2 	"/>
	<path id="path4582-9_17_" inkscape:connector-curvature="0" class="st1" d="M2502.4,2559.6c-32.3,0-58.5-26.2-58.5-58.5l0,0
		c0-32.3,26.2-58.5,58.5-58.5s58.5,26.2,58.5,58.5S2534.7,2559.6,2502.4,2559.6L2502.4,2559.6z"/>
	<path id="path877-1_9_" inkscape:connector-curvature="0" class="st2" d="M2476.2,2496.3c2.5,0,5.1,0,7.6,0c7.3,0,14.6,0,21.9,0
		c2.4,0,4.9,0,7.3,0c0.8,0,1.6,0,2.3,0c0.1,0,0.2,0,0.3,0s0.3-0.1,0.3,0s-0.2,0-0.3,0"/>
	<path id="path877-3-2_9_" inkscape:connector-curvature="0" class="st2" d="M2475.7,2507.9c2.5,0,5.1,0,7.6,0c7.3,0,14.6,0,21.9,0
		c2.4,0,4.9,0,7.3,0c0.8,0,1.6,0,2.3,0c0.1,0,0.2,0,0.3,0s0.3-0.1,0.3,0s-0.2,0-0.3,0"/>
	<path id="path938-7_9_" inkscape:connector-curvature="0" class="st2" d="M2476.2,2496.3l-0.5,11.6"/>
	<path id="path940-0_9_" inkscape:connector-curvature="0" class="st2" d="M2512.9,2490l2.7,6.3"/>
	<path id="path942-9_9_" inkscape:connector-curvature="0" class="st2" d="M2515.4,2507.8l-2.5,6.6"/>
	<path id="path954-3_9_" inkscape:connector-curvature="0" class="st2" d="M2512.9,2490l25.2,12.2l-25.2,12.2"/>
</g>
<g>
	<polygon class="st0" points="2963.6,2025.6 3455.4,2025.8 3460.4,2026 3465.7,2026.3 3471,2026.8 3476.8,2027.4 3481.7,2028.1 
		3485.4,2028.8 3488.2,2029.5 3493.1,2030.9 3496.7,2032.3 3500,2033.9 3502.9,2035.8 3506.6,2039.2 3508.9,2042.3 3510.8,2046.2 
		3512.5,2051.9 3513.3,2056.8 3513.7,2063.5 3514.4,2940.6 3514.4,2943.4 3514.2,2946.1 3513.6,2950.4 3513,2953.2 3512.1,2956.2 
		3511,2958.8 3509.7,2961.3 3508.5,2963.2 3506.9,2965.2 3504.9,2967.3 3503.3,2968.8 3501.6,2970 3498.7,2971.8 3495.5,2973.5 
		3491.1,2975.2 3486.8,2976.4 3482.4,2977.5 3477.4,2978.3 3473.1,2978.8 3467.6,2979.3 3461.1,2979.6 3452,2979.6 2907.6,2979.1 
		2898.4,2979.2 2891.3,2978.7 2888.1,2978.4 2882.4,2977.3 2877.9,2975.9 2875.4,2974.9 2871.2,2972.7 2868.4,2970.5 2865.5,2967.6 
		2863.5,2964.9 2861.5,2961 2859.8,2956 2858.6,2949.1 2858.6,2942.8 2858.2,2062.9 2858.2,2059.9 2858.2,2056.7 2858.2,2052.7 
		2858.6,2049 2859.2,2046.8 2859.8,2045.1 2860.4,2043.8 2860.8,2042.9 2861.3,2042 2861.9,2041 2863.2,2039.1 2864.3,2037.8 
		2866.8,2035.3 2868.3,2034.2 2869.6,2033.3 2871,2032.4 2873.8,2030.9 2875.5,2030.2 2878.7,2029 2883.6,2027.7 2887.1,2027.1 
		2895.5,2026.2 2900.8,2026 2906.3,2025.9 2912.8,2025.6 	"/>
	<path id="path4582-9_15_" inkscape:connector-curvature="0" class="st1" d="M3181.8,2560c-32.3,0-58.5-26.2-58.5-58.5l0,0
		c0-32.3,26.2-58.5,58.5-58.5s58.5,26.2,58.5,58.5S3214.1,2560,3181.8,2560L3181.8,2560z"/>
	<path id="path877-1_8_" inkscape:connector-curvature="0" class="st2" d="M3155.6,2496.7c2.5,0,5.1,0,7.6,0c7.3,0,14.6,0,21.9,0
		c2.4,0,4.9,0,7.3,0c0.8,0,1.6,0,2.3,0c0.1,0,0.2,0,0.3,0s0.3-0.1,0.3,0s-0.2,0-0.3,0"/>
	<path id="path877-3-2_8_" inkscape:connector-curvature="0" class="st2" d="M3155.1,2508.3c2.5,0,5.1,0,7.6,0c7.3,0,14.6,0,21.9,0
		c2.4,0,4.9,0,7.3,0c0.8,0,1.6,0,2.3,0c0.1,0,0.2,0,0.3,0s0.3-0.1,0.3,0s-0.2,0-0.3,0"/>
	<path id="path938-7_8_" inkscape:connector-curvature="0" class="st2" d="M3155.6,2496.7l-0.5,11.6"/>
	<path id="path940-0_8_" inkscape:connector-curvature="0" class="st2" d="M3192.3,2490.4l2.7,6.3"/>
	<path id="path942-9_8_" inkscape:connector-curvature="0" class="st2" d="M3194.8,2508.2l-2.5,6.6"/>
	<path id="path954-3_8_" inkscape:connector-curvature="0" class="st2" d="M3192.3,2490.4l25.2,12.2l-25.2,12.2"/>
</g>
<g>
	<polygon class="st0" points="3634.8,2026.1 4126.6,2026.3 4131.6,2026.5 4136.9,2026.8 4142.2,2027.2 4148,2027.8 4152.9,2028.6 
		4156.6,2029.3 4159.4,2029.9 4164.3,2031.3 4167.9,2032.7 4171.2,2034.4 4174.1,2036.3 4177.8,2039.7 4180.1,2042.8 4182,2046.7 
		4183.7,2052.4 4184.5,2057.2 4184.9,2064 4185.6,2941 4185.6,2943.9 4185.4,2946.6 4184.8,2950.9 4184.2,2953.6 4183.3,2956.7 
		4182.3,2959.2 4180.9,2961.8 4179.7,2963.7 4178.1,2965.7 4176.1,2967.8 4174.5,2969.2 4172.8,2970.4 4169.9,2972.3 4166.7,2973.9 
		4162.3,2975.6 4158,2976.9 4153.6,2977.9 4148.6,2978.8 4144.3,2979.3 4138.8,2979.8 4132.3,2980 4123.3,2980 3578.8,2979.6 
		3569.6,2979.6 3562.6,2979.2 3559.3,2978.8 3553.6,2977.7 3549.1,2976.4 3546.6,2975.4 3542.4,2973.1 3539.6,2971 3536.7,2968 
		3534.8,2965.4 3532.7,2961.4 3531,2956.5 3529.8,2949.6 3529.8,2943.3 3529.4,2063.4 3529.4,2060.3 3529.4,2057.2 3529.4,2053.1 
		3529.8,2049.5 3530.4,2047.3 3531,2045.6 3531.6,2044.2 3532,2043.4 3532.5,2042.5 3533.1,2041.5 3534.4,2039.5 3535.6,2038.2 
		3538,2035.8 3539.5,2034.6 3540.8,2033.7 3542.3,2032.8 3545,2031.4 3546.7,2030.6 3549.9,2029.5 3554.8,2028.2 3558.3,2027.5 
		3566.7,2026.7 3572,2026.5 3577.5,2026.3 3584,2026.1 	"/>
	<path id="path4582-9_2_" inkscape:connector-curvature="0" class="st1" d="M3853,2560.5c-32.3,0-58.5-26.2-58.5-58.5l0,0
		c0-32.3,26.2-58.5,58.5-58.5s58.5,26.2,58.5,58.5S3885.3,2560.5,3853,2560.5L3853,2560.5z"/>
	<path id="path877-1_7_" inkscape:connector-curvature="0" class="st2" d="M3826.8,2497.2c2.5,0,5.1,0,7.6,0c7.3,0,14.6,0,21.9,0
		c2.4,0,4.9,0,7.3,0c0.8,0,1.6,0,2.3,0c0.1,0,0.2,0,0.3,0s0.3-0.1,0.3,0s-0.2,0-0.3,0"/>
	<path id="path877-3-2_7_" inkscape:connector-curvature="0" class="st2" d="M3826.3,2508.7c2.5,0,5.1,0,7.6,0c7.3,0,14.6,0,21.9,0
		c2.4,0,4.9,0,7.3,0c0.8,0,1.6,0,2.3,0c0.1,0,0.2,0,0.3,0s0.3-0.1,0.3,0s-0.2,0-0.3,0"/>
	<path id="path938-7_7_" inkscape:connector-curvature="0" class="st2" d="M3826.8,2497.2l-0.5,11.6"/>
	<path id="path940-0_7_" inkscape:connector-curvature="0" class="st2" d="M3863.5,2490.8l2.7,6.3"/>
	<path id="path942-9_7_" inkscape:connector-curvature="0" class="st2" d="M3866,2508.7l-2.5,6.6"/>
	<path id="path954-3_7_" inkscape:connector-curvature="0" class="st2" d="M3863.5,2490.8l25.2,12.2l-25.2,12.2"/>
</g>
<g>
	<polygon class="st0" points="272.4,2024.4 764.3,2024.6 769.2,2024.8 774.5,2025.1 779.8,2025.5 785.7,2026.2 790.5,2026.9 
		794.2,2027.6 797,2028.2 801.9,2029.7 805.6,2031.1 808.8,2032.7 811.8,2034.6 815.5,2038 817.7,2041.1 819.7,2045 821.4,2050.7 
		822.1,2055.6 822.6,2062.3 823.3,2939.4 823.2,2942.2 823,2944.9 822.5,2949.2 821.9,2951.9 820.9,2955 819.9,2957.6 818.6,2960.1 
		817.3,2962 815.8,2964 813.8,2966.1 812.1,2967.6 810.5,2968.8 807.5,2970.6 804.3,2972.2 800,2974 795.7,2975.2 791.2,2976.3 
		786.3,2977.1 781.9,2977.6 776.4,2978.1 770,2978.4 760.9,2978.4 216.5,2977.9 207.3,2978 200.2,2977.5 196.9,2977.1 191.3,2976.1 
		186.7,2974.7 184.2,2973.7 180.1,2971.5 177.2,2969.3 174.3,2966.4 172.4,2963.7 170.3,2959.8 168.7,2954.8 167.4,2947.9 
		167.4,2941.6 167,2061.7 167,2058.7 167,2055.5 167,2051.5 167.5,2047.8 168.1,2045.6 168.7,2043.9 169.2,2042.6 169.7,2041.7 
		170.2,2040.8 170.8,2039.8 172.1,2037.9 173.2,2036.6 175.7,2034.1 177.2,2033 178.4,2032.1 179.9,2031.1 182.7,2029.7 184.4,2029 
		187.6,2027.8 192.5,2026.5 196,2025.8 204.3,2025 209.6,2024.8 215.1,2024.7 221.7,2024.4 	"/>
	<path id="path4582-9_35_" inkscape:connector-curvature="0" class="st1" d="M490.6,2558.8c-32.3,0-58.5-26.2-58.5-58.5l0,0
		c0-32.3,26.2-58.5,58.5-58.5s58.5,26.2,58.5,58.5C549.1,2532.7,522.9,2558.8,490.6,2558.8L490.6,2558.8z"/>
	<path id="path877-1_18_" inkscape:connector-curvature="0" class="st2" d="M464.4,2495.5c2.5,0,5.1,0,7.6,0c7.3,0,14.6,0,21.9,0
		c2.4,0,4.9,0,7.3,0c0.8,0,1.6,0,2.3,0c0.1,0,0.2,0,0.3,0c0.1,0,0.3-0.1,0.3,0s-0.2,0-0.3,0"/>
	<path id="path877-3-2_18_" inkscape:connector-curvature="0" class="st2" d="M464,2507.1c2.5,0,5.1,0,7.6,0c7.3,0,14.6,0,21.9,0
		c2.4,0,4.9,0,7.3,0c0.8,0,1.6,0,2.3,0c0.1,0,0.2,0,0.3,0s0.3-0.1,0.3,0s-0.2,0-0.3,0"/>
	<path id="path938-7_18_" inkscape:connector-curvature="0" class="st2" d="M464.4,2495.5l-0.5,11.6"/>
	<path id="path940-0_18_" inkscape:connector-curvature="0" class="st2" d="M501.1,2489.2l2.7,6.3"/>
	<path id="path942-9_18_" inkscape:connector-curvature="0" class="st2" d="M503.6,2507l-2.5,6.6"/>
	<path id="path954-3_18_" inkscape:connector-curvature="0" class="st2" d="M501.1,2489.2l25.2,12.2l-25.2,12.2"/>
</g>
<g>
	<polygon class="st0" points="943.6,2024.9 1435.5,2025 1440.4,2025.3 1445.8,2025.6 1451,2026 1456.9,2026.6 1461.7,2027.4 
		1465.4,2028.1 1468.2,2028.7 1473.1,2030.1 1476.8,2031.5 1480,2033.2 1483,2035.1 1486.7,2038.5 1489,2041.6 1490.9,2045.5 
		1492.6,2051.2 1493.3,2056 1493.8,2062.8 1494.5,2939.8 1494.4,2942.6 1494.3,2945.3 1493.7,2949.7 1493.1,2952.4 1492.1,2955.5 
		1491.1,2958 1489.8,2960.5 1488.5,2962.5 1487,2964.5 1485,2966.6 1483.3,2968 1481.7,2969.2 1478.7,2971.1 1475.5,2972.7 
		1471.2,2974.4 1466.9,2975.7 1462.4,2976.7 1457.5,2977.5 1453.2,2978.1 1447.6,2978.5 1441.2,2978.8 1432.1,2978.8 887.7,2978.4 
		878.5,2978.4 871.4,2978 868.1,2977.6 862.5,2976.5 858,2975.2 855.5,2974.2 851.3,2971.9 848.4,2969.8 845.5,2966.8 843.6,2964.2 
		841.5,2960.2 839.9,2955.3 838.6,2948.4 838.6,2942.1 838.2,2062.2 838.2,2059.1 838.2,2056 838.2,2051.9 838.7,2048.3 
		839.3,2046.1 839.9,2044.4 840.5,2043 840.9,2042.1 841.4,2041.2 842,2040.3 843.3,2038.3 844.4,2037 846.9,2034.6 848.4,2033.4 
		849.6,2032.5 851.1,2031.6 853.9,2030.1 855.6,2029.4 858.8,2028.2 863.7,2026.9 867.2,2026.3 875.5,2025.5 880.8,2025.3 
		886.3,2025.1 892.9,2024.9 	"/>
	<path id="path4582-9_33_" inkscape:connector-curvature="0" class="st1" d="M1161.9,2559.3c-32.3,0-58.5-26.2-58.5-58.5l0,0
		c0-32.3,26.2-58.5,58.5-58.5s58.5,26.2,58.5,58.5C1220.3,2533.1,1194.2,2559.3,1161.9,2559.3L1161.9,2559.3z"/>
	<path id="path877-1_17_" inkscape:connector-curvature="0" class="st2" d="M1135.6,2496c2.5,0,5.1,0,7.6,0c7.3,0,14.6,0,21.9,0
		c2.4,0,4.9,0,7.3,0c0.8,0,1.6,0,2.3,0c0.1,0,0.2,0,0.3,0s0.3-0.1,0.3,0s-0.2,0-0.3,0"/>
	<path id="path877-3-2_17_" inkscape:connector-curvature="0" class="st2" d="M1135.2,2507.5c2.5,0,5.1,0,7.6,0c7.3,0,14.6,0,21.9,0
		c2.4,0,4.9,0,7.3,0c0.8,0,1.6,0,2.3,0c0.1,0,0.2,0,0.3,0c0.1,0,0.3-0.1,0.3,0s-0.2,0-0.3,0"/>
	<path id="path938-7_17_" inkscape:connector-curvature="0" class="st2" d="M1135.6,2496l-0.5,11.6"/>
	<path id="path940-0_17_" inkscape:connector-curvature="0" class="st2" d="M1172.3,2489.6l2.7,6.3"/>
	<path id="path942-9_17_" inkscape:connector-curvature="0" class="st2" d="M1174.8,2507.5l-2.5,6.6"/>
	<path id="path954-3_17_" inkscape:connector-curvature="0" class="st2" d="M1172.3,2489.6l25.2,12.2l-25.2,12.2"/>
</g>
<g>
	<polygon class="st0" points="1613,2024.8 2104.8,2024.9 2109.8,2025.1 2115.1,2025.5 2120.4,2025.9 2126.2,2026.5 2131.1,2027.2 
		2134.8,2027.9 2137.6,2028.6 2142.5,2030 2146.1,2031.4 2149.4,2033 2152.3,2034.9 2156,2038.3 2158.3,2041.5 2160.3,2045.4 
		2161.9,2051 2162.7,2055.9 2163.1,2062.7 2163.9,2939.7 2163.8,2942.5 2163.6,2945.2 2163,2949.6 2162.4,2952.3 2161.5,2955.4 
		2160.5,2957.9 2159.2,2960.4 2157.9,2962.4 2156.4,2964.3 2154.3,2966.4 2152.7,2967.9 2151,2969.1 2148.1,2971 2144.9,2972.6 
		2140.5,2974.3 2136.3,2975.6 2131.8,2976.6 2126.9,2977.4 2122.5,2978 2117,2978.4 2110.6,2978.7 2101.5,2978.7 1557.1,2978.2 
		1547.8,2978.3 1540.8,2977.9 1537.5,2977.5 1531.8,2976.4 1527.3,2975.1 1524.8,2974.1 1520.6,2971.8 1517.8,2969.7 1514.9,2966.7 
		1513,2964.1 1510.9,2960.1 1509.2,2955.1 1508,2948.3 1508,2942 1507.6,2062.1 1507.6,2059 1507.6,2055.9 1507.6,2051.8 
		1508,2048.2 1508.7,2046 1509.2,2044.3 1509.8,2042.9 1510.3,2042 1510.7,2041.1 1511.3,2040.1 1512.7,2038.2 1513.8,2036.9 
		1516.2,2034.5 1517.7,2033.3 1519,2032.4 1520.5,2031.5 1523.3,2030 1524.9,2029.3 1528.2,2028.1 1533.1,2026.8 1536.5,2026.2 
		1544.9,2025.3 1550.2,2025.2 1555.7,2025 1562.2,2024.7 	"/>
	<path id="path4582-9_31_" inkscape:connector-curvature="0" class="st1" d="M1831.2,2559.2c-32.3,0-58.5-26.2-58.5-58.5l0,0
		c0-32.3,26.2-58.5,58.5-58.5s58.5,26.2,58.5,58.5S1863.5,2559.2,1831.2,2559.2L1831.2,2559.2z"/>
	<path id="path877-1_16_" inkscape:connector-curvature="0" class="st2" d="M1805,2495.9c2.5,0,5.1,0,7.6,0c7.3,0,14.6,0,21.9,0
		c2.4,0,4.9,0,7.3,0c0.8,0,1.6,0,2.3,0c0.1,0,0.2,0,0.3,0c0.1,0,0.3-0.1,0.3,0s-0.2,0-0.3,0"/>
	<path id="path877-3-2_16_" inkscape:connector-curvature="0" class="st2" d="M1804.5,2507.4c2.5,0,5.1,0,7.6,0c7.3,0,14.6,0,21.9,0
		c2.4,0,4.9,0,7.3,0c0.8,0,1.6,0,2.3,0c0.1,0,0.2,0,0.3,0c0.1,0,0.3-0.1,0.3,0s-0.2,0-0.3,0"/>
	<path id="path938-7_16_" inkscape:connector-curvature="0" class="st2" d="M1805,2495.9l-0.5,11.6"/>
	<path id="path940-0_16_" inkscape:connector-curvature="0" class="st2" d="M1841.7,2489.5l2.7,6.3"/>
	<path id="path942-9_16_" inkscape:connector-curvature="0" class="st2" d="M1844.2,2507.4l-2.5,6.6"/>
	<path id="path954-3_16_" inkscape:connector-curvature="0" class="st2" d="M1841.7,2489.5l25.2,12.2l-25.2,12.2"/>
</g>
<g>
	<polygon class="st0" points="2284.2,2025.2 2776.1,2025.4 2781,2025.6 2786.3,2025.9 2791.6,2026.3 2797.4,2027 2802.3,2027.7 
		2806,2028.4 2808.8,2029 2813.7,2030.5 2817.3,2031.9 2820.6,2033.5 2823.5,2035.4 2827.2,2038.8 2829.5,2041.9 2831.5,2045.8 
		2833.1,2051.5 2833.9,2056.4 2834.3,2063.1 2835.1,2940.2 2835,2943 2834.8,2945.7 2834.2,2950 2833.7,2952.7 2832.7,2955.8 
		2831.7,2958.4 2830.4,2960.9 2829.1,2962.8 2827.6,2964.8 2825.6,2966.9 2823.9,2968.3 2822.3,2969.6 2819.3,2971.4 2816.1,2973 
		2811.8,2974.7 2807.5,2976 2803,2977 2798.1,2977.9 2793.7,2978.4 2788.2,2978.9 2781.8,2979.2 2772.7,2979.2 2228.3,2978.7 
		2219,2978.8 2212,2978.3 2208.7,2977.9 2203,2976.9 2198.5,2975.5 2196,2974.5 2191.9,2972.3 2189,2970.1 2186.1,2967.2 
		2184.2,2964.5 2182.1,2960.5 2180.4,2955.6 2179.2,2948.7 2179.2,2942.4 2178.8,2062.5 2178.8,2059.5 2178.8,2056.3 2178.8,2052.3 
		2179.3,2048.6 2179.9,2046.4 2180.5,2044.7 2181,2043.4 2181.5,2042.5 2181.9,2041.6 2182.5,2040.6 2183.9,2038.7 2185,2037.3 
		2187.4,2034.9 2188.9,2033.7 2190.2,2032.9 2191.7,2031.9 2194.5,2030.5 2196.1,2029.8 2199.4,2028.6 2204.3,2027.3 2207.7,2026.6 
		2216.1,2025.8 2221.4,2025.6 2226.9,2025.4 2233.4,2025.2 	"/>
	<path id="path4582-9_29_" inkscape:connector-curvature="0" class="st1" d="M2502.4,2559.6c-32.3,0-58.5-26.2-58.5-58.5l0,0
		c0-32.3,26.2-58.5,58.5-58.5s58.5,26.2,58.5,58.5S2534.7,2559.6,2502.4,2559.6L2502.4,2559.6z"/>
	<path id="path877-1_15_" inkscape:connector-curvature="0" class="st2" d="M2476.2,2496.3c2.5,0,5.1,0,7.6,0c7.3,0,14.6,0,21.9,0
		c2.4,0,4.9,0,7.3,0c0.8,0,1.6,0,2.3,0c0.1,0,0.2,0,0.3,0s0.3-0.1,0.3,0s-0.2,0-0.3,0"/>
	<path id="path877-3-2_15_" inkscape:connector-curvature="0" class="st2" d="M2475.7,2507.9c2.5,0,5.1,0,7.6,0c7.3,0,14.6,0,21.9,0
		c2.4,0,4.9,0,7.3,0c0.8,0,1.6,0,2.3,0c0.1,0,0.2,0,0.3,0s0.3-0.1,0.3,0s-0.2,0-0.3,0"/>
	<path id="path938-7_15_" inkscape:connector-curvature="0" class="st2" d="M2476.2,2496.3l-0.5,11.6"/>
	<path id="path940-0_15_" inkscape:connector-curvature="0" class="st2" d="M2512.9,2490l2.7,6.3"/>
	<path id="path942-9_15_" inkscape:connector-curvature="0" class="st2" d="M2515.4,2507.8l-2.5,6.6"/>
	<path id="path954-3_15_" inkscape:connector-curvature="0" class="st2" d="M2512.9,2490l25.2,12.2l-25.2,12.2"/>
</g>
<g>
	<polygon class="st0" points="2963.6,2025.6 3455.4,2025.8 3460.4,2026 3465.7,2026.3 3471,2026.8 3476.8,2027.4 3481.7,2028.1 
		3485.4,2028.8 3488.2,2029.5 3493.1,2030.9 3496.7,2032.3 3500,2033.9 3502.9,2035.8 3506.6,2039.2 3508.9,2042.3 3510.8,2046.2 
		3512.5,2051.9 3513.3,2056.8 3513.7,2063.5 3514.4,2940.6 3514.4,2943.4 3514.2,2946.1 3513.6,2950.4 3513,2953.2 3512.1,2956.2 
		3511,2958.8 3509.7,2961.3 3508.5,2963.2 3506.9,2965.2 3504.9,2967.3 3503.3,2968.8 3501.6,2970 3498.7,2971.8 3495.5,2973.5 
		3491.1,2975.2 3486.8,2976.4 3482.4,2977.5 3477.4,2978.3 3473.1,2978.8 3467.6,2979.3 3461.1,2979.6 3452,2979.6 2907.6,2979.1 
		2898.4,2979.2 2891.3,2978.7 2888.1,2978.4 2882.4,2977.3 2877.9,2975.9 2875.4,2974.9 2871.2,2972.7 2868.4,2970.5 2865.5,2967.6 
		2863.5,2964.9 2861.5,2961 2859.8,2956 2858.6,2949.1 2858.6,2942.8 2858.2,2062.9 2858.2,2059.9 2858.2,2056.7 2858.2,2052.7 
		2858.6,2049 2859.2,2046.8 2859.8,2045.1 2860.4,2043.8 2860.8,2042.9 2861.3,2042 2861.9,2041 2863.2,2039.1 2864.3,2037.8 
		2866.8,2035.3 2868.3,2034.2 2869.6,2033.3 2871,2032.4 2873.8,2030.9 2875.5,2030.2 2878.7,2029 2883.6,2027.7 2887.1,2027.1 
		2895.5,2026.2 2900.8,2026 2906.3,2025.9 2912.8,2025.6 	"/>
	<path id="path4582-9_27_" inkscape:connector-curvature="0" class="st1" d="M3181.8,2560c-32.3,0-58.5-26.2-58.5-58.5l0,0
		c0-32.3,26.2-58.5,58.5-58.5s58.5,26.2,58.5,58.5S3214.1,2560,3181.8,2560L3181.8,2560z"/>
	<path id="path877-1_14_" inkscape:connector-curvature="0" class="st2" d="M3155.6,2496.7c2.5,0,5.1,0,7.6,0c7.3,0,14.6,0,21.9,0
		c2.4,0,4.9,0,7.3,0c0.8,0,1.6,0,2.3,0c0.1,0,0.2,0,0.3,0s0.3-0.1,0.3,0s-0.2,0-0.3,0"/>
	<path id="path877-3-2_14_" inkscape:connector-curvature="0" class="st2" d="M3155.1,2508.3c2.5,0,5.1,0,7.6,0c7.3,0,14.6,0,21.9,0
		c2.4,0,4.9,0,7.3,0c0.8,0,1.6,0,2.3,0c0.1,0,0.2,0,0.3,0s0.3-0.1,0.3,0s-0.2,0-0.3,0"/>
	<path id="path938-7_14_" inkscape:connector-curvature="0" class="st2" d="M3155.6,2496.7l-0.5,11.6"/>
	<path id="path940-0_14_" inkscape:connector-curvature="0" class="st2" d="M3192.3,2490.4l2.7,6.3"/>
	<path id="path942-9_14_" inkscape:connector-curvature="0" class="st2" d="M3194.8,2508.2l-2.5,6.6"/>
	<path id="path954-3_14_" inkscape:connector-curvature="0" class="st2" d="M3192.3,2490.4l25.2,12.2l-25.2,12.2"/>
</g>
<g>
	<polygon class="st0" points="3634.8,2026.1 4126.6,2026.3 4131.6,2026.5 4136.9,2026.8 4142.2,2027.2 4148,2027.8 4152.9,2028.6 
		4156.6,2029.3 4159.4,2029.9 4164.3,2031.3 4167.9,2032.7 4171.2,2034.4 4174.1,2036.3 4177.8,2039.7 4180.1,2042.8 4182,2046.7 
		4183.7,2052.4 4184.5,2057.2 4184.9,2064 4185.6,2941 4185.6,2943.9 4185.4,2946.6 4184.8,2950.9 4184.2,2953.6 4183.3,2956.7 
		4182.3,2959.2 4180.9,2961.8 4179.7,2963.7 4178.1,2965.7 4176.1,2967.8 4174.5,2969.2 4172.8,2970.4 4169.9,2972.3 4166.7,2973.9 
		4162.3,2975.6 4158,2976.9 4153.6,2977.9 4148.6,2978.8 4144.3,2979.3 4138.8,2979.8 4132.3,2980 4123.3,2980 3578.8,2979.6 
		3569.6,2979.6 3562.6,2979.2 3559.3,2978.8 3553.6,2977.7 3549.1,2976.4 3546.6,2975.4 3542.4,2973.1 3539.6,2971 3536.7,2968 
		3534.8,2965.4 3532.7,2961.4 3531,2956.5 3529.8,2949.6 3529.8,2943.3 3529.4,2063.4 3529.4,2060.3 3529.4,2057.2 3529.4,2053.1 
		3529.8,2049.5 3530.4,2047.3 3531,2045.6 3531.6,2044.2 3532,2043.4 3532.5,2042.5 3533.1,2041.5 3534.4,2039.5 3535.6,2038.2 
		3538,2035.8 3539.5,2034.6 3540.8,2033.7 3542.3,2032.8 3545,2031.4 3546.7,2030.6 3549.9,2029.5 3554.8,2028.2 3558.3,2027.5 
		3566.7,2026.7 3572,2026.5 3577.5,2026.3 3584,2026.1 	"/>
	<path id="path4582-9_25_" inkscape:connector-curvature="0" class="st1" d="M3853,2560.5c-32.3,0-58.5-26.2-58.5-58.5l0,0
		c0-32.3,26.2-58.5,58.5-58.5s58.5,26.2,58.5,58.5S3885.3,2560.5,3853,2560.5L3853,2560.5z"/>
	<path id="path877-1_13_" inkscape:connector-curvature="0" class="st2" d="M3826.8,2497.2c2.5,0,5.1,0,7.6,0c7.3,0,14.6,0,21.9,0
		c2.4,0,4.9,0,7.3,0c0.8,0,1.6,0,2.3,0c0.1,0,0.2,0,0.3,0s0.3-0.1,0.3,0s-0.2,0-0.3,0"/>
	<path id="path877-3-2_13_" inkscape:connector-curvature="0" class="st2" d="M3826.3,2508.7c2.5,0,5.1,0,7.6,0c7.3,0,14.6,0,21.9,0
		c2.4,0,4.9,0,7.3,0c0.8,0,1.6,0,2.3,0c0.1,0,0.2,0,0.3,0s0.3-0.1,0.3,0s-0.2,0-0.3,0"/>
	<path id="path938-7_13_" inkscape:connector-curvature="0" class="st2" d="M3826.8,2497.2l-0.5,11.6"/>
	<path id="path940-0_13_" inkscape:connector-curvature="0" class="st2" d="M3863.5,2490.8l2.7,6.3"/>
	<path id="path942-9_13_" inkscape:connector-curvature="0" class="st2" d="M3866,2508.7l-2.5,6.6"/>
	<path id="path954-3_13_" inkscape:connector-curvature="0" class="st2" d="M3863.5,2490.8l25.2,12.2l-25.2,12.2"/>
</g>
</svg>
