<?xml version="1.0" encoding="utf-8"?>
<!-- Generator: Adobe Illustrator 27.5.0, SVG Export Plug-In . SVG Version: 6.00 Build 0)  -->
<svg version="1.1" xmlns="http://www.w3.org/2000/svg" xmlns:xlink="http://www.w3.org/1999/xlink" x="0px" y="0px"
	 viewBox="0 0 4280.3 1133.9" style="enable-background:new 0 0 4280.3 1133.9;" xml:space="preserve">
<style type="text/css">
	.st0{display:none;}
	.st1{fill:none;stroke:#000000;stroke-miterlimit:10;}
	.st2{fill:none;stroke:#010101;stroke-linecap:round;stroke-linejoin:round;stroke-miterlimit:11.3386;}
</style>
<g id="Layer_2" class="st0">
	
		<image style="display:inline;overflow:visible;" width="1000" height="1000" xlink:href="E9FE3BC4.jpg"  transform="matrix(0.9908 0 0 0.9908 239.8501 -113.1499)">
	</image>
</g>
<g id="Layer_1">
	<g>
		<path class="st1" d="M1198.9,718.5l-923.3-0.6c-1.6,0-2.8-1.3-2.8-2.8l4.5-627.9c0-12.5,10.2-22.7,22.7-22.7h878
			c12.5,0,22.7,10.2,22.7,22.7l1,628.5C1201.7,717.2,1200.4,718.5,1198.9,718.5z"/>
		<g>
			<path class="st2" d="M724.2,404c0.2-0.1,4.7-12.3,13.6-36.7l-12,0.1c0-0.1-13.2,36.9-13.4,36.7
				C712.3,404.1,724.1,404.1,724.2,404z"/>
			<path class="st2" d="M730.6,449.9c-0.1-0.6,31.3-82.6,31.2-82.5c-0.3,0.2-12.6,0-12.7,0.1c-0.8,0.4-30.8,83.5-31.2,82.6
				C717.9,449.9,730.7,450,730.6,449.9z"/>
			<path class="st2" d="M771,404c0.2-0.1,4.7-12.3,13.6-36.7l-12,0.1c0-0.1-13.2,36.9-13.4,36.7C759.1,404.1,770.9,404.1,771,404z"
				/>
			<path class="st2" d="M701.2,403.9c-0.1-0.6,31.3-82.6,31.2-82.5c-0.3,0.2-12.6,0-12.7,0.1c-0.8,0.4-30.8,83.5-31.2,82.6
				C688.4,403.9,701.2,404.1,701.2,403.9z"/>
		</g>
	</g>
</g>
</svg>
