<?xml version="1.0" encoding="utf-8"?>
<!DOCTYPE svg PUBLIC "-//W3C//DTD SVG 1.1//EN" "http://www.w3.org/Graphics/SVG/1.1/DTD/svg11.dtd">
<!-- exported from Silhouette Studio® Business Edition V4.3.370ssbe -->
<svg version="1.1" xmlns="http://www.w3.org/2000/svg" xmlns:xlink="http://www.w3.org/1999/xlink" width="304.8mm" height="600mm" viewBox="0 0 304.8 600">
<defs/>
<path d="M 121.2152 222.9448 C 121.2758 222.9138 122.8704 218.599 125.9988 210.0001 L 121.7792 210.0189 C 121.7871 209.9795 117.1285 223.0221 117.0689 222.978 C 117.0335 222.9517 121.1876 222.9589 121.2152 222.9448 Z" fill="none" fill-opacity="1" stroke="#000000" stroke-opacity="1" stroke-width="0.3527778" stroke-linecap="round" stroke-linejoin="round"/>
<path d="M -35.57315 332.3695 C -35.7789 332.285 -36.04907 332.0913 -36.17334 331.9395 C -36.3515 331.7218 -36.39993 308.3298 -36.40173 221.4399 L -36.40408 111.2165 L -35.94128 110.2081 C -35.68668 109.6534 -35.47757 109.0905 -35.47656 108.9572 C -35.46967 108.0246 -33.11017 105.9467 -31.03339 105.0443 L -29.86557 104.5369 L 125.4447 104.601 L 280.7551 104.6653 L 282.2684 105.1955 C 284.0353 105.8145 285.1212 106.5222 286.0284 107.6461 C 286.5433 108.2837 286.7861 108.8735 287.1825 110.4496 C 287.4586 111.5473 287.6347 112.527 287.574 112.6267 C 287.5131 112.7264 287.4638 161.9224 287.4643 221.9508 C 287.4648 281.9796 287.4147 331.2977 287.353 331.5471 C 287.2913 331.7964 287.0063 332.1235 286.7197 332.2737 C 286.2632 332.5133 266.2974 332.5455 125.4999 332.5352 C 37.11555 332.5286 -35.36737 332.454 -35.57315 332.3695 Z" fill="none" fill-opacity="1" stroke="#000000" stroke-opacity="1" stroke-width="0.3527778" stroke-linecap="round" stroke-linejoin="round"/>
<path d="M 123.4948 239.1179 C 123.4505 238.9152 134.5535 209.9675 134.4893 210.0002 C 134.3724 210.0595 130.042 210.0077 130.0047 210.0256 C 129.7259 210.1598 119.1285 239.4671 119.0122 239.1691 C 118.9911 239.115 123.5051 239.1651 123.4948 239.1179 Z" fill="none" fill-opacity="1" stroke="#000000" stroke-opacity="1" stroke-width="0.3527778" stroke-linecap="round" stroke-linejoin="round"/>
<path d="M 137.7173 222.9448 C 137.778 222.9138 139.3726 218.5989 142.5009 210.0001 L 138.2813 210.0189 C 138.2892 209.9794 133.6307 223.022 133.571 222.9779 C 133.5356 222.9517 137.6898 222.9589 137.7173 222.9448 Z" fill="none" fill-opacity="1" stroke="#000000" stroke-opacity="1" stroke-width="0.3527778" stroke-linecap="round" stroke-linejoin="round"/>
<path d="M 113.1003 222.9064 C 113.056 222.7037 124.1589 193.756 124.0948 193.7887 C 123.9779 193.848 119.6474 193.7963 119.6101 193.8142 C 119.3313 193.9484 108.734 223.2557 108.6177 222.9576 C 108.5966 222.9036 113.1106 222.9536 113.1003 222.9064 Z" fill="none" fill-opacity="1" stroke="#000000" stroke-opacity="1" stroke-width="0.3527778" stroke-linecap="round" stroke-linejoin="round"/>
</svg>