<?xml version="1.0" encoding="utf-8"?>
<!-- Generator: Adobe Illustrator 26.1.0, SVG Export Plug-In . SVG Version: 6.00 Build 0)  -->
<svg version="1.1" id="Layer_1" xmlns="http://www.w3.org/2000/svg" xmlns:xlink="http://www.w3.org/1999/xlink" x="0px" y="0px"
	 viewBox="0 0 4280.3 1133.9" style="enable-background:new 0 0 4280.3 1133.9;" xml:space="preserve">
<style type="text/css">
	.st0{fill:none;stroke:#000000;stroke-miterlimit:10;}
	.st1{fill:none;stroke:#010101;stroke-linecap:round;stroke-linejoin:round;stroke-miterlimit:11.3386;}
</style>
<g>
	<path class="st0" d="M1138.3,106.8l-7,916.8c0,1.6-1.3,2.8-2.8,2.8l-621.5-5c-12.5,0-24.7-10.2-24.7-22.7l5-875
		c0-12.5,12.2-22.7,24.7-22.7l623.5,3C1137,104,1138.3,105.3,1138.3,106.8z"/>
	<g>
		<path class="st1" d="M821.8,575.5c-0.1-0.2-12.3-4.7-36.7-13.6l0.1,12c-0.1,0,36.9,13.2,36.7,13.4
			C821.9,587.4,821.9,575.6,821.8,575.5z"/>
		<path class="st1" d="M865.7,569.1c-0.6,0.1-80.6-31.3-80.5-31.2c0.2,0.3,0,12.6,0.1,12.7c0.4,0.8,81.5,30.8,80.6,31.2
			C865.7,581.8,865.8,569,865.7,569.1z"/>
		<path class="st1" d="M821.8,528.7c-0.1-0.2-12.3-4.7-36.7-13.6l0.1,12c-0.1,0,36.9,13.2,36.7,13.4
			C821.9,540.6,821.9,528.8,821.8,528.7z"/>
		<path class="st1" d="M821.7,598.5c-0.6,0.1-82.6-31.3-82.5-31.2c0.2,0.3,0,12.6,0.1,12.7c0.4,0.8,83.5,30.8,82.6,31.2
			C821.7,611.3,821.9,598.5,821.7,598.5z"/>
	</g>
</g>
</svg>
