<?xml version="1.0" encoding="UTF-8" standalone="no"?>
<!-- Generator: Adobe Illustrator 24.2.2, SVG Export Plug-In . SVG Version: 6.00 Build 0)  -->

<svg
   xmlns:dc="http://purl.org/dc/elements/1.1/"
   xmlns:cc="http://creativecommons.org/ns#"
   xmlns:rdf="http://www.w3.org/1999/02/22-rdf-syntax-ns#"
   xmlns:svg="http://www.w3.org/2000/svg"
   xmlns="http://www.w3.org/2000/svg"
   xmlns:sodipodi="http://sodipodi.sourceforge.net/DTD/sodipodi-0.dtd"
   xmlns:inkscape="http://www.inkscape.org/namespaces/inkscape"
   version="1.1"
   id="svg8"
   x="0px"
   y="0px"
   viewBox="0 0 3401.6 3401.6"
   style="enable-background:new 0 0 3401.6 3401.6;"
   xml:space="preserve"
   sodipodi:docname="840_G1_LID.svg"
   inkscape:version="0.92.3 (2405546, 2018-03-11)"><metadata
   id="metadata206"><rdf:RDF><cc:Work
       rdf:about=""><dc:format>image/svg+xml</dc:format><dc:type
         rdf:resource="http://purl.org/dc/dcmitype/StillImage" /></cc:Work></rdf:RDF></metadata><defs
   id="defs204" />
<style
   type="text/css"
   id="style2">
	.st0{fill:none;stroke:#000000;stroke-miterlimit:11.3386;}
	.st1{fill:none;stroke:#000100;stroke-width:2.1037;stroke-linejoin:round;stroke-miterlimit:11.3386;stroke-opacity:0.9955;}
	.st2{fill:none;stroke:#000000;stroke-width:0.75;stroke-miterlimit:11.3386;}
</style>
<sodipodi:namedview
   bordercolor="#666666"
   borderopacity="1.0"
   id="base"
   inkscape:bbox-nodes="true"
   inkscape:bbox-paths="true"
   inkscape:current-layer="svg8"
   inkscape:cx="933.51253"
   inkscape:cy="1414.6281"
   inkscape:document-units="mm"
   inkscape:guide-bbox="true"
   inkscape:measure-end="892.402,3886.08"
   inkscape:measure-start="525.084,3887.29"
   inkscape:pageopacity="0.0"
   inkscape:pageshadow="2"
   inkscape:snap-bbox="true"
   inkscape:snap-bbox-edge-midpoints="true"
   inkscape:snap-bbox-midpoints="true"
   inkscape:snap-center="true"
   inkscape:snap-intersection-paths="true"
   inkscape:snap-midpoints="true"
   inkscape:snap-object-midpoints="true"
   inkscape:snap-smooth-nodes="true"
   inkscape:snap-to-guides="false"
   inkscape:window-height="1017"
   inkscape:window-maximized="1"
   inkscape:window-width="1920"
   inkscape:window-x="-8"
   inkscape:window-y="-8"
   inkscape:zoom="0.16396038"
   pagecolor="#ffffff"
   showgrid="false"
   showguides="true"
   units="mm">
	</sodipodi:namedview>
<g
   id="g14"
   transform="translate(1164.9155,-884.36001)"
   style="fill:none;fill-opacity:1;stroke:#000000;stroke-width:1.33333325;stroke-miterlimit:4;stroke-dasharray:none;stroke-opacity:1">
	<polygon
   class="st0"
   points="774.9,2024.1 780.2,2024.5 786.1,2025.2 790.9,2025.9 794.6,2026.6 797.4,2027.2 802.3,2028.7 806,2030.1 809.2,2031.7 812.2,2033.6 815.9,2037 818.1,2040.1 820.1,2044 821.8,2049.7 822.5,2054.6 823,2061.3 823.7,2938.4 823.6,2941.2 823.4,2943.9 822.9,2948.2 822.3,2950.9 821.3,2954 820.3,2956.6 819,2959.1 817.7,2961 816.2,2963 814.2,2965.1 812.5,2966.6 810.9,2967.8 807.9,2969.6 804.7,2971.2 800.4,2973 796.1,2974.2 791.6,2975.3 786.7,2976.1 782.3,2976.6 776.8,2977.1 770.4,2977.4 761.3,2977.4 216.9,2976.9 207.7,2977 200.6,2976.5 197.3,2976.1 191.7,2975.1 187.1,2973.7 184.6,2972.7 180.5,2970.5 177.6,2968.3 174.7,2965.4 172.8,2962.7 170.7,2958.8 169.1,2953.8 167.8,2946.9 167.8,2940.6 167.4,2060.7 167.4,2057.7 167.4,2054.5 167.4,2050.5 167.9,2046.8 168.5,2044.6 169.1,2042.9 169.6,2041.6 170.1,2040.7 170.6,2039.8 171.2,2038.8 172.5,2036.9 173.6,2035.6 176.1,2033.1 177.6,2032 178.8,2031.1 180.3,2030.1 183.1,2028.7 184.8,2028 188,2026.8 192.9,2025.5 196.4,2024.8 204.7,2024 210,2023.8 215.5,2023.7 222.1,2023.4 272.8,2023.4 764.7,2023.6 769.6,2023.8 "
   id="polygon5"
   style="fill:none;fill-opacity:1;stroke:#000000;stroke-width:1.33333325;stroke-miterlimit:4;stroke-dasharray:none;stroke-opacity:1" />
	<path
   id="path4582-9_1_"
   inkscape:connector-curvature="0"
   class="st1"
   d="m 491,2557.8 c -32.3,0 -58.5,-26.2 -58.5,-58.5 v 0 c 0,-32.3 26.2,-58.5 58.5,-58.5 32.3,0 58.5,26.2 58.5,58.5 0,32.4 -26.2,58.5 -58.5,58.5 z"
   style="fill:none;fill-opacity:1;stroke:#000000;stroke-width:1.33333325;stroke-linejoin:round;stroke-miterlimit:4;stroke-dasharray:none;stroke-opacity:1" />
	<path
   id="path877-1_1_"
   inkscape:connector-curvature="0"
   class="st2"
   d="m 464.8,2494.5 c 2.5,0 5.1,0 7.6,0 7.3,0 14.6,0 21.9,0 2.4,0 4.9,0 7.3,0 0.8,0 1.6,0 2.3,0 0.1,0 0.2,0 0.3,0 0.1,0 0.3,-0.1 0.3,0 0,0.1 -0.2,0 -0.3,0"
   style="fill:none;fill-opacity:1;stroke:#000000;stroke-width:1.33333325;stroke-miterlimit:4;stroke-dasharray:none;stroke-opacity:1" />
	<path
   id="path877-3-2_1_"
   inkscape:connector-curvature="0"
   class="st2"
   d="m 464.4,2506.1 c 2.5,0 5.1,0 7.6,0 7.3,0 14.6,0 21.9,0 2.4,0 4.9,0 7.3,0 0.8,0 1.6,0 2.3,0 0.1,0 0.2,0 0.3,0 0.1,0 0.3,-0.1 0.3,0 0,0.1 -0.2,0 -0.3,0"
   style="fill:none;fill-opacity:1;stroke:#000000;stroke-width:1.33333325;stroke-miterlimit:4;stroke-dasharray:none;stroke-opacity:1" />
	<path
   id="path938-7_1_"
   inkscape:connector-curvature="0"
   class="st2"
   d="m 464.8,2494.5 -0.5,11.6"
   style="fill:none;fill-opacity:1;stroke:#000000;stroke-width:1.33333325;stroke-miterlimit:4;stroke-dasharray:none;stroke-opacity:1" />
	<path
   id="path940-0_1_"
   inkscape:connector-curvature="0"
   class="st2"
   d="m 501.5,2488.2 2.7,6.3"
   style="fill:none;fill-opacity:1;stroke:#000000;stroke-width:1.33333325;stroke-miterlimit:4;stroke-dasharray:none;stroke-opacity:1" />
	<path
   id="path942-9_1_"
   inkscape:connector-curvature="0"
   class="st2"
   d="m 504,2506 -2.5,6.6"
   style="fill:none;fill-opacity:1;stroke:#000000;stroke-width:1.33333325;stroke-miterlimit:4;stroke-dasharray:none;stroke-opacity:1" />
	<path
   id="path954-3_1_"
   inkscape:connector-curvature="0"
   class="st2"
   d="m 501.5,2488.2 25.2,12.2 -25.2,12.2"
   style="fill:none;fill-opacity:1;stroke:#000000;stroke-width:1.33333325;stroke-miterlimit:4;stroke-dasharray:none;stroke-opacity:1" />
</g>

















</svg>