<?xml version="1.0" encoding="utf-8"?>
<!-- Generator: Adobe Illustrator 25.3.1, SVG Export Plug-In . SVG Version: 6.00 Build 0)  -->
<svg version="1.1" id="Layer_1" xmlns="http://www.w3.org/2000/svg" xmlns:xlink="http://www.w3.org/1999/xlink" x="0px" y="0px"
	 viewBox="0 0 4280.3 1133.9" style="enable-background:new 0 0 4280.3 1133.9;" xml:space="preserve">
<style type="text/css">
	.st0{fill:none;stroke:#000000;stroke-miterlimit:10;}
</style>
<g>
	<path class="st0" d="M1267.7,854.9H411.2c-26.5,0-48-21.6-48-48.1V232.4c0-26.5,21.6-48.1,48-48.1h856.4c26.5,0,48,21.6,48,48.1
		v574.4C1315.6,833.4,1294.2,854.9,1267.7,854.9z"/>
	<ellipse class="st0" cx="839.4" cy="509.7" rx="60.4" ry="60.5"/>
	<line class="st0" x1="819.3" y1="490.6" x2="819.8" y2="522.8"/>
	<line class="st0" x1="831.7" y1="488.6" x2="832.7" y2="522.8"/>
	<line class="st0" x1="819.6" y1="506.3" x2="832.2" y2="506.8"/>
	<line class="st0" x1="844.5" y1="491.1" x2="843.5" y2="522.2"/>
	<line class="st0" x1="844" y1="493.1" x2="854.7" y2="504.4"/>
	<line class="st0" x1="844" y1="511" x2="859.5" y2="502.2"/>
</g>
</svg>
