<?xml version="1.0" encoding="utf-8"?>
<!-- Generator: Adobe Illustrator 24.2.2, SVG Export Plug-In . SVG Version: 6.00 Build 0)  -->
<svg version="1.1"
	 id="svg12" xmlns:cc="http://creativecommons.org/ns#" xmlns:dc="http://purl.org/dc/elements/1.1/" xmlns:inkscape="http://www.inkscape.org/namespaces/inkscape" xmlns:rdf="http://www.w3.org/1999/02/22-rdf-syntax-ns#" xmlns:sodipodi="http://sodipodi.sourceforge.net/DTD/sodipodi-0.dtd" xmlns:svg="http://www.w3.org/2000/svg"
	 xmlns="http://www.w3.org/2000/svg" xmlns:xlink="http://www.w3.org/1999/xlink" x="0px" y="0px" viewBox="0 0 1222.7 791.1"
	 style="enable-background:new 0 0 1222.7 791.1;" xml:space="preserve">
<style type="text/css">
	.st0{fill:none;stroke:#000000;stroke-width:2;stroke-linecap:round;stroke-linejoin:round;stroke-miterlimit:11.3386;}
</style>
<sodipodi:namedview  bordercolor="#666666" borderopacity="1" gridtolerance="10" guidetolerance="10" id="namedview14" inkscape:current-layer="svg12" inkscape:cx="815.14962" inkscape:cy="527.39525" inkscape:pageopacity="0" inkscape:pageshadow="2" inkscape:window-height="903" inkscape:window-maximized="1" inkscape:window-width="1680" inkscape:window-x="0" inkscape:window-y="28" inkscape:zoom="0.2232719" objecttolerance="10" pagecolor="#ffffff" showgrid="false">
	</sodipodi:namedview>
<g id="g4530-3-7-0" transform="rotate(90,-4.0342031,-97.200428)">
	<path id="path4-6-0-6" inkscape:connector-curvature="0" class="st0" d="M-329.4,948.2c-0.4,0-2.7,0-5.8,0c-3-1.5-3.6-1.6-6.1-5.9
		l0-640.7c2.8-5.1,3.2-6,13.5-6.1c1.3,0,11.6,0,13.5,0l21-0.1c0.8-1.6,0.9-1.7,1.7-0.2c0.3,0.5,0.1,0.1,0.7,1.7
		c-1.3,3-0.7,21.9-0.6,23.7c0.3,5,1.5,5.7,5.3,7.5l72.2,0c26.8,0,24.8,2.1,24.9-17.8c0-0.1,0-2.4,0.1-13c-1.7-0.4-2-0.1-0.9-1.5
		c0.5-0.7,1.6-1.6,2-1.6c0.5,0,0.3,0.3,0.3,0.3c0.1,0-0.2,0.3,1,0.6c0.1,0,0.5,0.1,9.3,0.1c0.1,0,16,0.1,16.2,0.1l26.9,0.1l107,0.1
		l42.1,0c22,0,41.4,0,291.3,0l99.9-0.1l23.3-0.1c0.9,0,15.3-0.1,16-0.2c3.3-0.3,0.4-1.8,3.8,0.3c1.9,1.2,2.3,0.8,0.4,2.1
		c-0.1,0.1-0.3-0.3-0.7,0.6c-0.2,0.5-0.1,19.5-0.1,20c0.1,9.3,1.8,9.8,11.1,10c0.1,0,12.5,0.1,13.7,0.1l42,0c12.3,0,13.1,0,13.2,0
		c16.1-0.1,20.9,1.2,22.1-5.6c0.1-0.8,0.2,0,0.2-18.8c0-8.2-1.1-6.3-0.5-7.7c0,0,1.2-2.6,2.2-1.8l0.3,1.2l21.2,0.1
		c17.9,0.1,21.1-0.3,23.6,1.3c4.7,3,3.5,7.1,3.5,11.6l0.1,20.4l0.1,78.1c0,1.8,0-12,0.1,206.9l0,223.2c0,15.4,0,1.3-0.1,75.4
		c0,5.7,0,13.9,0,14.4c-0.1,16.3,0,15.8-0.7,17.2c-2.3,4.2-6.9,4.1-6.9,4.1"/>
	<path id="path6-7-9-2" inkscape:connector-curvature="0" class="st0" d="M135.1,745.3l0.9-0.1c20.1-3.1,30.2-19.9,28.1-35.5
		c-1.7-11.9-10.7-19.5-15.4-22.3c-8.2-5-16.8-5-22.5-4.4c-16.6,1.8-24.4,15.8-24.6,16.3c-4.9,8.5-7.2,23.5,4.9,36
		C119.1,748.4,135.1,745.3,135.1,745.3"/>
	<path id="path8-5-3-6" inkscape:connector-curvature="0" class="st0" d="M463,296.6L463,296.6"/>
	<path id="path10-3-6-1" inkscape:connector-curvature="0" class="st0" d="M-319.5,948.1c0-0.3-0.7-0.3-5.2-0.4l-5.2,0l5.1-0.1
		c5-0.1,5.1-0.1,5.5-0.7c0.4-0.5,0.4-1.2,0.4-18.9c0-18,0-18.3,0.5-18.9c0.3-0.3,0.4-0.8,0.4-1.2c0-0.4,0.1-0.7,0.4-0.9
		c0.3-0.1,0.9-0.7,1.5-1.3c0.8-0.8,1.2-1,1.5-0.9c0.3,0.1,0.6,0,0.9-0.3l0.4-0.5h444h444l0.5,0.5c0.3,0.3,0.7,0.4,0.9,0.3
		c0.3-0.1,0.6,0.2,1.2,0.8c0.4,0.5,1.1,1.1,1.5,1.4c0.6,0.4,0.8,0.6,0.7,1c-0.1,0.3,0,0.7,0.4,1.1l0.5,0.6l0.1,18.4l0.1,18.4
		l0.5,0.5c0.5,0.5,0.8,0.5,6.8,0.5l6.2,0.1l-6.4,0.1c-5.5,0-6.5,0.1-6.6,0.4c-0.2,0.4-0.7,0.4-0.9,0c-0.1-0.3-50.3-0.3-449.6-0.3
		c-399.4,0-449.4,0-449.4,0.3c0,0.2-0.2,0.3-0.5,0.3C-319.3,948.5-319.5,948.3-319.5,948.1L-319.5,948.1z"/>
</g>
<g id="g4530-3-7-0_1_" transform="rotate(90,-4.0342031,-97.200428)">
	<path id="path4-6-0-6_1_" inkscape:connector-curvature="0" class="st0" d="M-329.3,281.2c-0.4,0-2.7,0-5.8,0
		c-3-1.5-3.6-1.6-6.1-5.9l0-640.7c2.8-5.1,3.2-6,13.5-6.1c1.3,0,11.6,0,13.5,0l21-0.1c0.8-1.6,0.9-1.7,1.7-0.2
		c0.3,0.5,0.1,0.1,0.7,1.7c-1.3,3-0.7,21.9-0.6,23.7c0.3,5,1.5,5.7,5.3,7.5l72.2,0c26.8,0,24.8,2.1,24.9-17.8c0-0.1,0-2.4,0.1-13
		c-1.7-0.4-2-0.1-0.9-1.5c0.5-0.7,1.6-1.6,2-1.6c0.5,0,0.3,0.3,0.3,0.3c0.1,0-0.2,0.3,1,0.6c0.1,0,0.5,0.1,9.3,0.1
		c0.1,0,16,0.1,16.2,0.1l26.9,0.1l107,0.1l42.1,0c22,0,41.4,0,291.3,0l99.9-0.1l23.3-0.1c0.9,0,15.3-0.1,16-0.2
		c3.3-0.3,0.4-1.8,3.8,0.3c1.9,1.2,2.3,0.8,0.4,2.1c-0.1,0.1-0.3-0.3-0.7,0.6c-0.2,0.5-0.1,19.5-0.1,20c0.1,9.3,1.8,9.8,11.1,10
		c0.1,0,12.5,0.1,13.7,0.1l42,0c12.3,0,13.1,0,13.2,0c16.1-0.1,20.9,1.2,22.1-5.6c0.1-0.8,0.2,0,0.2-18.8c0-8.2-1.1-6.3-0.5-7.7
		c0,0,1.2-2.6,2.2-1.8l0.3,1.2l21.2,0.1c17.9,0.1,21.1-0.3,23.6,1.3c4.7,3,3.5,7.1,3.5,11.6l0.1,20.4l0.1,78.1c0,1.8,0-12,0.1,206.9
		l0,223.2c0,15.4,0,1.3-0.1,75.4c0,5.7,0,13.9,0,14.4c-0.1,16.3,0,15.8-0.7,17.2c-2.3,4.2-6.9,4.1-6.9,4.1"/>
	<path id="path6-7-9-2_1_" inkscape:connector-curvature="0" class="st0" d="M135.2,78.4l0.9-0.1c20.1-3.1,30.2-19.9,28.1-35.5
		c-1.7-11.9-10.7-19.5-15.4-22.3c-8.2-5-16.8-5-22.5-4.4c-16.6,1.8-24.4,15.8-24.6,16.3c-4.9,8.5-7.2,23.5,4.9,36
		C119.2,81.4,135.2,78.4,135.2,78.4"/>
	<path id="path8-5-3-6_1_" inkscape:connector-curvature="0" class="st0" d="M463.1-370.4L463.1-370.4"/>
	<path id="path10-3-6-1_1_" inkscape:connector-curvature="0" class="st0" d="M-319.5,281.2c0-0.3-0.7-0.3-5.2-0.4l-5.2,0l5.1-0.1
		c5-0.1,5.1-0.1,5.5-0.7c0.4-0.5,0.4-1.2,0.4-18.9c0-18,0-18.3,0.5-18.9c0.3-0.3,0.4-0.8,0.4-1.2c0-0.4,0.1-0.7,0.4-0.9
		c0.3-0.1,0.9-0.7,1.5-1.3c0.8-0.8,1.2-1,1.5-0.9c0.3,0.1,0.6,0,0.9-0.3l0.4-0.5h444h444l0.5,0.5c0.3,0.3,0.7,0.4,0.9,0.3
		c0.3-0.1,0.6,0.2,1.2,0.8c0.4,0.5,1.1,1.1,1.5,1.4c0.6,0.4,0.8,0.6,0.7,1c-0.1,0.3,0,0.7,0.4,1.1l0.5,0.6l0.1,18.4l0.1,18.4
		l0.5,0.5c0.5,0.5,0.8,0.5,6.8,0.5l6.2,0.1l-6.4,0.1c-5.5,0-6.5,0.1-6.6,0.4c-0.2,0.4-0.7,0.4-0.9,0c-0.1-0.3-50.3-0.3-449.6-0.3
		c-399.4,0-449.4,0-449.4,0.3c0,0.2-0.2,0.3-0.5,0.3S-319.5,281.4-319.5,281.2L-319.5,281.2z"/>
</g>
<g id="g4530-3-7-0_3_" transform="rotate(90,-4.0342031,-97.200428)">
	<path id="path4-6-0-6_3_" inkscape:connector-curvature="0" class="st0" d="M-329.3-385.7c-0.4,0-2.7,0-5.8,0
		c-3-1.5-3.6-1.6-6.1-5.9l0-640.7c2.8-5.1,3.2-6,13.5-6.1c1.3,0,11.6,0,13.5,0l21-0.1c0.8-1.6,0.9-1.7,1.7-0.2
		c0.3,0.5,0.1,0.1,0.7,1.7c-1.3,3-0.7,21.9-0.6,23.7c0.3,5,1.5,5.7,5.3,7.5l72.2,0c26.8,0,24.8,2.1,24.9-17.8c0-0.1,0-2.4,0.1-13
		c-1.7-0.4-2-0.1-0.9-1.5c0.5-0.7,1.6-1.6,2-1.6c0.5,0,0.3,0.3,0.3,0.3c0.1,0-0.2,0.3,1,0.6c0.1,0,0.5,0.1,9.3,0.1
		c0.1,0,16,0.1,16.2,0.1l26.9,0.1l107,0.1l42.1,0c22,0,41.4,0,291.3,0l99.9-0.1l23.3-0.1c0.9,0,15.3-0.1,16-0.2
		c3.3-0.3,0.4-1.8,3.8,0.3c1.9,1.2,2.3,0.8,0.4,2.1c-0.1,0.1-0.3-0.3-0.7,0.6c-0.2,0.5-0.1,19.5-0.1,20c0.1,9.3,1.8,9.8,11.1,10
		c0.1,0,12.5,0.1,13.7,0.1l42,0c12.3,0,13.1,0,13.2,0c16.1-0.1,20.9,1.2,22.1-5.6c0.1-0.8,0.2,0,0.2-18.8c0-8.2-1.1-6.3-0.5-7.7
		c0,0,1.2-2.6,2.2-1.8l0.3,1.2l21.2,0.1c17.9,0.1,21.1-0.3,23.6,1.3c4.7,3,3.5,7.1,3.5,11.6l0.1,20.4l0.1,78.1c0,1.8,0-12,0.1,206.9
		l0,223.2c0,15.4,0,1.3-0.1,75.4c0,5.7,0,13.9,0,14.4c-0.1,16.3,0,15.8-0.7,17.2c-2.3,4.2-6.9,4.1-6.9,4.1"/>
	<path id="path6-7-9-2_3_" inkscape:connector-curvature="0" class="st0" d="M135.2-588.6l0.9-0.1c20.1-3.1,30.2-19.9,28.1-35.5
		c-1.7-11.9-10.7-19.5-15.4-22.3c-8.2-5-16.8-5-22.5-4.4c-16.6,1.8-24.4,15.8-24.6,16.3c-4.9,8.5-7.2,23.5,4.9,36
		C119.2-585.5,135.2-588.6,135.2-588.6"/>
	<path id="path8-5-3-6_3_" inkscape:connector-curvature="0" class="st0" d="M463.1-1037.3L463.1-1037.3"/>
	<path id="path10-3-6-1_3_" inkscape:connector-curvature="0" class="st0" d="M-319.4-385.8c0-0.3-0.7-0.3-5.2-0.4l-5.2,0l5.1-0.1
		c5-0.1,5.1-0.1,5.5-0.7c0.4-0.5,0.4-1.2,0.4-18.9c0-18,0-18.3,0.5-18.9c0.3-0.3,0.4-0.8,0.4-1.2c0-0.4,0.1-0.7,0.4-0.9
		c0.3-0.1,0.9-0.7,1.5-1.3c0.8-0.8,1.2-1,1.5-0.9c0.3,0.1,0.6,0,0.9-0.3l0.4-0.5h444h444l0.5,0.5c0.3,0.3,0.7,0.4,0.9,0.3
		c0.3-0.1,0.6,0.2,1.2,0.8c0.4,0.5,1.1,1.1,1.5,1.4c0.6,0.4,0.8,0.6,0.7,1c-0.1,0.3,0,0.7,0.4,1.1l0.5,0.6l0.1,18.4l0.1,18.4
		l0.5,0.5c0.5,0.5,0.8,0.5,6.8,0.5l6.2,0.1l-6.4,0.1c-5.5,0-6.5,0.1-6.6,0.4c-0.2,0.4-0.7,0.4-0.9,0c-0.1-0.3-50.3-0.3-449.6-0.3
		c-399.4,0-449.4,0-449.4,0.3c0,0.2-0.2,0.3-0.5,0.3C-319.2-385.4-319.4-385.6-319.4-385.8L-319.4-385.8z"/>
</g>
<g id="g4530-3-7-0_2_" transform="rotate(90,-4.0342031,-97.200428)">
	<path id="path4-6-0-6_2_" inkscape:connector-curvature="0" class="st0" d="M-329.2-1052.7c-0.4,0-2.7,0-5.8,0
		c-3-1.5-3.6-1.6-6.1-5.9l0-640.7c2.8-5.1,3.2-6,13.5-6.1c1.3,0,11.6,0,13.5,0l21-0.1c0.8-1.6,0.9-1.7,1.7-0.2
		c0.3,0.5,0.1,0.1,0.7,1.7c-1.3,3-0.7,21.9-0.6,23.7c0.3,5,1.5,5.7,5.3,7.5l72.2,0c26.8,0,24.8,2.1,24.9-17.8c0-0.1,0-2.4,0.1-13
		c-1.7-0.4-2-0.1-0.9-1.5c0.5-0.7,1.6-1.6,2-1.6c0.5,0,0.3,0.3,0.3,0.3c0.1,0-0.2,0.3,1,0.6c0.1,0,0.5,0.1,9.3,0.1
		c0.1,0,16,0.1,16.2,0.1l26.9,0.1l107,0.1l42.1,0c22,0,41.4,0,291.3,0l99.9-0.1l23.3-0.1c0.9,0,15.3-0.1,16-0.2
		c3.3-0.3,0.4-1.8,3.8,0.3c1.9,1.2,2.3,0.8,0.4,2.1c-0.1,0.1-0.3-0.3-0.7,0.6c-0.2,0.5-0.1,19.5-0.1,20c0.1,9.3,1.8,9.8,11.1,10
		c0.1,0,12.5,0.1,13.7,0.1l42,0c12.3,0,13.1,0,13.2,0c16.1-0.1,20.9,1.2,22.1-5.6c0.1-0.8,0.2,0,0.2-18.8c0-8.2-1.1-6.3-0.5-7.7
		c0,0,1.2-2.6,2.2-1.8l0.3,1.2l21.2,0.1c17.9,0.1,21.1-0.3,23.6,1.3c4.7,3,3.5,7.1,3.5,11.6l0.1,20.4l0.1,78.1c0,1.8,0-12,0.1,206.9
		l0,223.2c0,15.4,0,1.3-0.1,75.4c0,5.7,0,13.9,0,14.4c-0.1,16.3,0,15.8-0.7,17.2c-2.3,4.2-6.9,4.1-6.9,4.1"/>
	<path id="path6-7-9-2_2_" inkscape:connector-curvature="0" class="st0" d="M135.3-1255.5l0.9-0.1c20.1-3.1,30.2-19.9,28.1-35.5
		c-1.7-11.9-10.7-19.5-15.4-22.3c-8.2-5-16.8-5-22.5-4.4c-16.6,1.8-24.4,15.8-24.6,16.3c-4.9,8.5-7.2,23.5,4.9,36
		C119.3-1252.5,135.3-1255.5,135.3-1255.5"/>
	<path id="path8-5-3-6_2_" inkscape:connector-curvature="0" class="st0" d="M463.2-1704.3L463.2-1704.3"/>
	<path id="path10-3-6-1_2_" inkscape:connector-curvature="0" class="st0" d="M-319.4-1052.7c0-0.3-0.7-0.3-5.2-0.4l-5.2,0l5.1-0.1
		c5-0.1,5.1-0.1,5.5-0.7c0.4-0.5,0.4-1.2,0.4-18.9c0-18,0-18.3,0.5-18.9c0.3-0.3,0.4-0.8,0.4-1.2c0-0.4,0.1-0.7,0.4-0.9
		c0.3-0.1,0.9-0.7,1.5-1.3c0.8-0.8,1.2-1,1.5-0.9c0.3,0.1,0.6,0,0.9-0.3l0.4-0.5h444h444l0.5,0.5c0.3,0.3,0.7,0.4,0.9,0.3
		c0.3-0.1,0.6,0.2,1.2,0.8c0.4,0.5,1.1,1.1,1.5,1.4c0.6,0.4,0.8,0.6,0.7,1c-0.1,0.3,0,0.7,0.4,1.1l0.5,0.6l0.1,18.4l0.1,18.4
		l0.5,0.5c0.5,0.5,0.8,0.5,6.8,0.5l6.2,0.1l-6.4,0.1c-5.5,0-6.5,0.1-6.6,0.4c-0.2,0.4-0.7,0.4-0.9,0c-0.1-0.3-50.3-0.3-449.6-0.3
		c-399.4,0-449.4,0-449.4,0.3c0,0.2-0.2,0.3-0.5,0.3C-319.2-1052.4-319.4-1052.5-319.4-1052.7L-319.4-1052.7z"/>
</g>
<g id="g4530-3-7-0_5_" transform="rotate(90,-4.0342031,-97.200428)">
	<path id="path4-6-0-6_5_" inkscape:connector-curvature="0" class="st0" d="M-329.3-1713.6c-0.4,0-2.7,0-5.8,0
		c-3-1.5-3.6-1.6-6.1-5.9l0-640.7c2.8-5.1,3.2-6,13.5-6.1c1.3,0,11.6,0,13.5,0l21-0.1c0.8-1.6,0.9-1.7,1.7-0.2
		c0.3,0.5,0.1,0.1,0.7,1.7c-1.3,3-0.7,21.9-0.6,23.7c0.3,5,1.5,5.7,5.3,7.5l72.2,0c26.8,0,24.8,2.1,24.9-17.8c0-0.1,0-2.4,0.1-13
		c-1.7-0.4-2-0.1-0.9-1.5c0.5-0.7,1.6-1.6,2-1.6c0.5,0,0.3,0.3,0.3,0.3c0.1,0-0.2,0.3,1,0.6c0.1,0,0.5,0.1,9.3,0.1
		c0.1,0,16,0.1,16.2,0.1l26.9,0.1l107,0.1l42.1,0c22,0,41.4,0,291.3,0l99.9-0.1l23.3-0.1c0.9,0,15.3-0.1,16-0.2
		c3.3-0.3,0.4-1.8,3.8,0.3c1.9,1.2,2.3,0.8,0.4,2.1c-0.1,0.1-0.3-0.3-0.7,0.6c-0.2,0.5-0.1,19.5-0.1,20c0.1,9.3,1.8,9.8,11.1,10
		c0.1,0,12.5,0.1,13.7,0.1l42,0c12.3,0,13.1,0,13.2,0c16.1-0.1,20.9,1.2,22.1-5.6c0.1-0.8,0.2,0,0.2-18.8c0-8.2-1.1-6.3-0.5-7.7
		c0,0,1.2-2.6,2.2-1.8l0.3,1.2l21.2,0.1c17.9,0.1,21.1-0.3,23.6,1.3c4.7,3,3.5,7.1,3.5,11.6l0.1,20.4l0.1,78.1c0,1.8,0-12,0.1,206.9
		l0,223.2c0,15.4,0,1.3-0.1,75.4c0,5.7,0,13.9,0,14.4c-0.1,16.3,0,15.8-0.7,17.2c-2.3,4.2-6.9,4.1-6.9,4.1"/>
	<path id="path6-7-9-2_5_" inkscape:connector-curvature="0" class="st0" d="M135.2-1916.4l0.9-0.1c20.1-3.1,30.2-19.9,28.1-35.5
		c-1.7-11.9-10.7-19.5-15.4-22.3c-8.2-5-16.8-5-22.5-4.4c-16.6,1.8-24.4,15.8-24.6,16.3c-4.9,8.5-7.2,23.5,4.9,36
		C119.2-1913.4,135.2-1916.4,135.2-1916.4"/>
	<path id="path8-5-3-6_5_" inkscape:connector-curvature="0" class="st0" d="M463.1-2365.1L463.1-2365.1"/>
	<path id="path10-3-6-1_5_" inkscape:connector-curvature="0" class="st0" d="M-319.5-1713.6c0-0.3-0.7-0.3-5.2-0.4l-5.2,0l5.1-0.1
		c5-0.1,5.1-0.1,5.5-0.7c0.4-0.5,0.4-1.2,0.4-18.9c0-18,0-18.3,0.5-18.9c0.3-0.3,0.4-0.8,0.4-1.2c0-0.4,0.1-0.7,0.4-0.9
		c0.3-0.1,0.9-0.7,1.5-1.3c0.8-0.8,1.2-1,1.5-0.9c0.3,0.1,0.6,0,0.9-0.3l0.4-0.5h444h444l0.5,0.5c0.3,0.3,0.7,0.4,0.9,0.3
		c0.3-0.1,0.6,0.2,1.2,0.8c0.4,0.5,1.1,1.1,1.5,1.4c0.6,0.4,0.8,0.6,0.7,1c-0.1,0.3,0,0.7,0.4,1.1l0.5,0.6l0.1,18.4l0.1,18.4
		l0.5,0.5c0.5,0.5,0.8,0.5,6.8,0.5l6.2,0.1l-6.4,0.1c-5.5,0-6.5,0.1-6.6,0.4c-0.2,0.4-0.7,0.4-0.9,0c-0.1-0.3-50.3-0.3-449.6-0.3
		c-399.4,0-449.4,0-449.4,0.3c0,0.2-0.2,0.3-0.5,0.3C-319.3-1713.3-319.5-1713.4-319.5-1713.6L-319.5-1713.6z"/>
</g>
<g id="g4530-3-7-0_4_" transform="rotate(90,-4.0342031,-97.200428)">
	<path id="path4-6-0-6_4_" inkscape:connector-curvature="0" class="st0" d="M-329.3-2380.5c-0.4,0-2.7,0-5.8,0
		c-3-1.5-3.6-1.6-6.1-5.9l0-640.7c2.8-5.1,3.2-6,13.5-6.1c1.3,0,11.6,0,13.5,0l21-0.1c0.8-1.6,0.9-1.7,1.7-0.2
		c0.3,0.5,0.1,0.1,0.7,1.7c-1.3,3-0.7,21.9-0.6,23.7c0.3,5,1.5,5.7,5.3,7.5l72.2,0c26.8,0,24.8,2.1,24.9-17.8c0-0.1,0-2.4,0.1-13
		c-1.7-0.4-2-0.1-0.9-1.5c0.5-0.7,1.6-1.6,2-1.6c0.5,0,0.3,0.3,0.3,0.3c0.1,0-0.2,0.3,1,0.6c0.1,0,0.5,0.1,9.3,0.1
		c0.1,0,16,0.1,16.2,0.1l26.9,0.1l107,0.1l42.1,0c22,0,41.4,0,291.3,0l99.9-0.1l23.3-0.1c0.9,0,15.3-0.1,16-0.2
		c3.3-0.3,0.4-1.8,3.8,0.3c1.9,1.2,2.3,0.8,0.4,2.1c-0.1,0.1-0.3-0.3-0.7,0.6c-0.2,0.5-0.1,19.5-0.1,20c0.1,9.3,1.8,9.8,11.1,10
		c0.1,0,12.5,0.1,13.7,0.1l42,0c12.3,0,13.1,0,13.2,0c16.1-0.1,20.9,1.2,22.1-5.6c0.1-0.8,0.2,0,0.2-18.8c0-8.2-1.1-6.3-0.5-7.7
		c0,0,1.2-2.6,2.2-1.8l0.3,1.2l21.2,0.1c17.9,0.1,21.1-0.3,23.6,1.3c4.7,3,3.5,7.1,3.5,11.6l0.1,20.4l0.1,78.1c0,1.8,0-12,0.1,206.9
		l0,223.2c0,15.4,0,1.3-0.1,75.4c0,5.7,0,13.9,0,14.4c-0.1,16.3,0,15.8-0.7,17.2c-2.3,4.2-6.9,4.1-6.9,4.1"/>
	<path id="path6-7-9-2_4_" inkscape:connector-curvature="0" class="st0" d="M135.2-2583.4l0.9-0.1c20.1-3.1,30.2-19.9,28.1-35.5
		c-1.7-11.9-10.7-19.5-15.4-22.3c-8.2-5-16.8-5-22.5-4.4c-16.6,1.8-24.4,15.8-24.6,16.3c-4.9,8.5-7.2,23.5,4.9,36
		C119.2-2580.3,135.2-2583.4,135.2-2583.4"/>
	<path id="path8-5-3-6_4_" inkscape:connector-curvature="0" class="st0" d="M463.1-3032.1L463.1-3032.1"/>
	<path id="path10-3-6-1_4_" inkscape:connector-curvature="0" class="st0" d="M-319.4-2380.5c0-0.3-0.7-0.3-5.2-0.4l-5.2,0l5.1-0.1
		c5-0.1,5.1-0.1,5.5-0.7c0.4-0.5,0.4-1.2,0.4-18.9c0-18,0-18.3,0.5-18.9c0.3-0.3,0.4-0.8,0.4-1.2c0-0.4,0.1-0.7,0.4-0.9
		c0.3-0.1,0.9-0.7,1.5-1.3c0.8-0.8,1.2-1,1.5-0.9c0.3,0.1,0.6,0,0.9-0.3l0.4-0.5h444h444l0.5,0.5c0.3,0.3,0.7,0.4,0.9,0.3
		c0.3-0.1,0.6,0.2,1.2,0.8c0.4,0.5,1.1,1.1,1.5,1.4c0.6,0.4,0.8,0.6,0.7,1c-0.1,0.3,0,0.7,0.4,1.1l0.5,0.6l0.1,18.4l0.1,18.4
		l0.5,0.5c0.5,0.5,0.8,0.5,6.8,0.5l6.2,0.1l-6.4,0.1c-5.5,0-6.5,0.1-6.6,0.4c-0.2,0.4-0.7,0.4-0.9,0c-0.1-0.3-50.3-0.3-449.6-0.3
		c-399.4,0-449.4,0-449.4,0.3c0,0.2-0.2,0.3-0.5,0.3C-319.2-2380.2-319.4-2380.4-319.4-2380.5L-319.4-2380.5z"/>
</g>
<g id="g4530-3-7-0_11_" transform="rotate(90,-4.0342031,-97.200428)">
	<path id="path4-6-0-6_11_" inkscape:connector-curvature="0" class="st0" d="M-1314.7,948.5c-0.4,0-2.7,0-5.8,0
		c-3-1.5-3.6-1.6-6.1-5.9V302c2.8-5.1,3.2-6,13.5-6.1c1.3,0,11.6,0,13.5,0l21-0.1c0.8-1.6,0.9-1.7,1.7-0.2c0.3,0.5,0.1,0.1,0.7,1.7
		c-1.3,3-0.7,21.9-0.6,23.7c0.3,5,1.5,5.7,5.3,7.5l72.2,0c26.8,0,24.8,2.1,24.9-17.8c0-0.1,0-2.4,0.1-13c-1.7-0.4-2-0.1-0.9-1.5
		c0.5-0.7,1.6-1.6,2-1.6c0.5,0,0.3,0.3,0.3,0.3c0.1,0-0.2,0.3,1,0.6c0.1,0,0.5,0.1,9.3,0.1c0.1,0,16,0.1,16.2,0.1l26.9,0.1l107,0.1
		l42.1,0c22,0,41.4,0,291.3,0l99.9-0.1l23.3-0.1c0.9,0,15.3-0.1,16-0.2c3.3-0.3,0.4-1.8,3.8,0.3c1.9,1.2,2.3,0.8,0.4,2.1
		c-0.1,0.1-0.3-0.3-0.7,0.6c-0.2,0.5-0.1,19.5-0.1,20c0.1,9.3,1.8,9.8,11.1,10c0.1,0,12.5,0.1,13.7,0.1l42,0c12.3,0,13.1,0,13.2,0
		c16.1-0.1,20.9,1.2,22.1-5.6c0.1-0.8,0.2,0,0.2-18.8c0-8.2-1.1-6.3-0.5-7.7c0,0,1.2-2.6,2.2-1.8l0.3,1.2l21.2,0.1
		c17.9,0.1,21.1-0.3,23.6,1.3c4.7,3,3.5,7.1,3.5,11.6l0.1,20.4l0.1,78.1c0,1.8,0-12,0.1,206.9l0,223.2c0,15.4,0,1.3-0.1,75.4
		c0,5.7,0,13.9,0,14.4c-0.1,16.3,0,15.8-0.7,17.2c-2.3,4.2-6.9,4.1-6.9,4.1"/>
	<path id="path6-7-9-2_11_" inkscape:connector-curvature="0" class="st0" d="M-850.2,745.6l0.9-0.1c20.1-3.1,30.2-19.9,28.1-35.5
		c-1.7-11.9-10.7-19.5-15.4-22.3c-8.2-5-16.8-5-22.5-4.4c-16.6,1.8-24.4,15.8-24.6,16.3c-4.9,8.5-7.2,23.5,4.9,36
		C-866.2,748.7-850.2,745.6-850.2,745.6"/>
	<path id="path8-5-3-6_11_" inkscape:connector-curvature="0" class="st0" d="M-522.3,296.9L-522.3,296.9"/>
	<path id="path10-3-6-1_11_" inkscape:connector-curvature="0" class="st0" d="M-1304.8,948.4c0-0.3-0.7-0.3-5.2-0.4l-5.2,0l5.1-0.1
		c5-0.1,5.1-0.1,5.5-0.7c0.4-0.5,0.4-1.2,0.4-18.9c0-18,0-18.3,0.5-18.9c0.3-0.3,0.4-0.8,0.4-1.2c0-0.4,0.1-0.7,0.4-0.9
		c0.3-0.1,0.9-0.7,1.5-1.3c0.8-0.8,1.2-1,1.5-0.9c0.3,0.1,0.6,0,0.9-0.3l0.4-0.5h444h444l0.5,0.5c0.3,0.3,0.7,0.4,0.9,0.3
		c0.3-0.1,0.6,0.2,1.2,0.8c0.4,0.5,1.1,1.1,1.5,1.4c0.6,0.4,0.8,0.6,0.7,1c-0.1,0.3,0,0.7,0.4,1.1l0.5,0.6l0.1,18.4l0.1,18.4
		l0.5,0.5c0.5,0.5,0.8,0.5,6.8,0.5l6.2,0.1l-6.4,0.1c-5.5,0-6.5,0.1-6.6,0.4c-0.2,0.4-0.7,0.4-0.9,0c-0.1-0.3-50.3-0.3-449.6-0.3
		c-399.4,0-449.4,0-449.4,0.3c0,0.2-0.2,0.3-0.5,0.3C-1304.6,948.8-1304.8,948.6-1304.8,948.4L-1304.8,948.4z"/>
</g>
<g id="g4530-3-7-0_10_" transform="rotate(90,-4.0342031,-97.200428)">
	<path id="path4-6-0-6_10_" inkscape:connector-curvature="0" class="st0" d="M-1314.6,281.5c-0.4,0-2.7,0-5.8,0
		c-3-1.5-3.6-1.6-6.1-5.9V-365c2.8-5.1,3.2-6,13.5-6.1c1.3,0,11.6,0,13.5,0l21-0.1c0.8-1.6,0.9-1.7,1.7-0.2c0.3,0.5,0.1,0.1,0.7,1.7
		c-1.3,3-0.7,21.9-0.6,23.7c0.3,5,1.5,5.7,5.3,7.5l72.2,0c26.8,0,24.8,2.1,24.9-17.8c0-0.1,0-2.4,0.1-13c-1.7-0.4-2-0.1-0.9-1.5
		c0.5-0.7,1.6-1.6,2-1.6c0.5,0,0.3,0.3,0.3,0.3c0.1,0-0.2,0.3,1,0.6c0.1,0,0.5,0.1,9.3,0.1c0.1,0,16,0.1,16.2,0.1l26.9,0.1l107,0.1
		l42.1,0c22,0,41.4,0,291.3,0l99.9-0.1l23.3-0.1c0.9,0,15.3-0.1,16-0.2c3.3-0.3,0.4-1.8,3.8,0.3c1.9,1.2,2.3,0.8,0.4,2.1
		c-0.1,0.1-0.3-0.3-0.7,0.6c-0.2,0.5-0.1,19.5-0.1,20c0.1,9.3,1.8,9.8,11.1,10c0.1,0,12.5,0.1,13.7,0.1l42,0c12.3,0,13.1,0,13.2,0
		c16.1-0.1,20.9,1.2,22.1-5.6c0.1-0.8,0.2,0,0.2-18.8c0-8.2-1.1-6.3-0.5-7.7c0,0,1.2-2.6,2.2-1.8l0.3,1.2l21.2,0.1
		c17.9,0.1,21.1-0.3,23.6,1.3c4.7,3,3.5,7.1,3.5,11.6l0.1,20.4l0.1,78.1c0,1.8,0-12,0.1,206.9l0,223.2c0,15.4,0,1.3-0.1,75.4
		c0,5.7,0,13.9,0,14.4c-0.1,16.3,0,15.8-0.7,17.2c-2.3,4.2-6.9,4.1-6.9,4.1"/>
	<path id="path6-7-9-2_10_" inkscape:connector-curvature="0" class="st0" d="M-850.2,78.7l0.9-0.1c20.1-3.1,30.2-19.9,28.1-35.5
		c-1.7-11.9-10.7-19.5-15.4-22.3c-8.2-5-16.8-5-22.5-4.4c-16.6,1.8-24.4,15.8-24.6,16.3c-4.9,8.5-7.2,23.5,4.9,36
		C-866.2,81.7-850.2,78.7-850.2,78.7"/>
	<path id="path8-5-3-6_10_" inkscape:connector-curvature="0" class="st0" d="M-522.2-370.1L-522.2-370.1"/>
	<path id="path10-3-6-1_10_" inkscape:connector-curvature="0" class="st0" d="M-1304.8,281.5c0-0.3-0.7-0.3-5.2-0.4l-5.2,0l5.1-0.1
		c5-0.1,5.1-0.1,5.5-0.7c0.4-0.5,0.4-1.2,0.4-18.9c0-18,0-18.3,0.5-18.9c0.3-0.3,0.4-0.8,0.4-1.2c0-0.4,0.1-0.7,0.4-0.9
		c0.3-0.1,0.9-0.7,1.5-1.3c0.8-0.8,1.2-1,1.5-0.9c0.3,0.1,0.6,0,0.9-0.3l0.4-0.5h444h444l0.5,0.5c0.3,0.3,0.7,0.4,0.9,0.3
		c0.3-0.1,0.6,0.2,1.2,0.8c0.4,0.5,1.1,1.1,1.5,1.4c0.6,0.4,0.8,0.6,0.7,1c-0.1,0.3,0,0.7,0.4,1.1l0.5,0.6l0.1,18.4l0.1,18.4
		l0.5,0.5c0.5,0.5,0.8,0.5,6.8,0.5l6.2,0.1l-6.4,0.1c-5.5,0-6.5,0.1-6.6,0.4c-0.2,0.4-0.7,0.4-0.9,0c-0.1-0.3-50.3-0.3-449.6-0.3
		c-399.4,0-449.4,0-449.4,0.3c0,0.2-0.2,0.3-0.5,0.3C-1304.6,281.8-1304.8,281.7-1304.8,281.5L-1304.8,281.5z"/>
</g>
<g id="g4530-3-7-0_9_" transform="rotate(90,-4.0342031,-97.200428)">
	<path id="path4-6-0-6_9_" inkscape:connector-curvature="0" class="st0" d="M-1314.6-385.4c-0.4,0-2.7,0-5.8,0
		c-3-1.5-3.6-1.6-6.1-5.9v-640.7c2.8-5.1,3.2-6,13.5-6.1c1.3,0,11.6,0,13.5,0l21-0.1c0.8-1.6,0.9-1.7,1.7-0.2
		c0.3,0.5,0.1,0.1,0.7,1.7c-1.3,3-0.7,21.9-0.6,23.7c0.3,5,1.5,5.7,5.3,7.5l72.2,0c26.8,0,24.8,2.1,24.9-17.8c0-0.1,0-2.4,0.1-13
		c-1.7-0.4-2-0.1-0.9-1.5c0.5-0.7,1.6-1.6,2-1.6c0.5,0,0.3,0.3,0.3,0.3c0.1,0-0.2,0.3,1,0.6c0.1,0,0.5,0.1,9.3,0.1
		c0.1,0,16,0.1,16.2,0.1l26.9,0.1l107,0.1l42.1,0c22,0,41.4,0,291.3,0l99.9-0.1l23.3-0.1c0.9,0,15.3-0.1,16-0.2
		c3.3-0.3,0.4-1.8,3.8,0.3c1.9,1.2,2.3,0.8,0.4,2.1c-0.1,0.1-0.3-0.3-0.7,0.6c-0.2,0.5-0.1,19.5-0.1,20c0.1,9.3,1.8,9.8,11.1,10
		c0.1,0,12.5,0.1,13.7,0.1l42,0c12.3,0,13.1,0,13.2,0c16.1-0.1,20.9,1.2,22.1-5.6c0.1-0.8,0.2,0,0.2-18.8c0-8.2-1.1-6.3-0.5-7.7
		c0,0,1.2-2.6,2.2-1.8l0.3,1.2l21.2,0.1c17.9,0.1,21.1-0.3,23.6,1.3c4.7,3,3.5,7.1,3.5,11.6l0.1,20.4l0.1,78.1c0,1.8,0-12,0.1,206.9
		l0,223.2c0,15.4,0,1.3-0.1,75.4c0,5.7,0,13.9,0,14.4c-0.1,16.3,0,15.8-0.7,17.2c-2.3,4.2-6.9,4.1-6.9,4.1"/>
	<path id="path6-7-9-2_9_" inkscape:connector-curvature="0" class="st0" d="M-850.1-588.3l0.9-0.1c20.1-3.1,30.2-19.9,28.1-35.5
		c-1.7-11.9-10.7-19.5-15.4-22.3c-8.2-5-16.8-5-22.5-4.4c-16.6,1.8-24.4,15.8-24.6,16.3c-4.9,8.5-7.2,23.5,4.9,36
		C-866.1-585.2-850.1-588.3-850.1-588.3"/>
	<path id="path8-5-3-6_9_" inkscape:connector-curvature="0" class="st0" d="M-522.2-1037L-522.2-1037"/>
	<path id="path10-3-6-1_9_" inkscape:connector-curvature="0" class="st0" d="M-1304.7-385.5c0-0.3-0.7-0.3-5.2-0.4l-5.2,0l5.1-0.1
		c5-0.1,5.1-0.1,5.5-0.7c0.4-0.5,0.4-1.2,0.4-18.9c0-18,0-18.3,0.5-18.9c0.3-0.3,0.4-0.8,0.4-1.2c0-0.4,0.1-0.7,0.4-0.9
		c0.3-0.1,0.9-0.7,1.5-1.3c0.8-0.8,1.2-1,1.5-0.9c0.3,0.1,0.6,0,0.9-0.3l0.4-0.5h444h444l0.5,0.5c0.3,0.3,0.7,0.4,0.9,0.3
		c0.3-0.1,0.6,0.2,1.2,0.8c0.4,0.5,1.1,1.1,1.5,1.4c0.6,0.4,0.8,0.6,0.7,1c-0.1,0.3,0,0.7,0.4,1.1l0.5,0.6l0.1,18.4l0.1,18.4
		l0.5,0.5c0.5,0.5,0.8,0.5,6.8,0.5l6.2,0.1l-6.4,0.1c-5.5,0-6.5,0.1-6.6,0.4c-0.2,0.4-0.7,0.4-0.9,0c-0.1-0.3-50.3-0.3-449.6-0.3
		c-399.4,0-449.4,0-449.4,0.3c0,0.2-0.2,0.3-0.5,0.3S-1304.7-385.3-1304.7-385.5L-1304.7-385.5z"/>
</g>
<g id="g4530-3-7-0_8_" transform="rotate(90,-4.0342031,-97.200428)">
	<path id="path4-6-0-6_8_" inkscape:connector-curvature="0" class="st0" d="M-1314.6-1052.4c-0.4,0-2.7,0-5.8,0
		c-3-1.5-3.6-1.6-6.1-5.9l0-640.7c2.8-5.1,3.2-6,13.5-6.1c1.3,0,11.6,0,13.5,0l21-0.1c0.8-1.6,0.9-1.7,1.7-0.2
		c0.3,0.5,0.1,0.1,0.7,1.7c-1.3,3-0.7,21.9-0.6,23.7c0.3,5,1.5,5.7,5.3,7.5l72.2,0c26.8,0,24.8,2.1,24.9-17.8c0-0.1,0-2.4,0.1-13
		c-1.7-0.4-2-0.1-0.9-1.5c0.5-0.7,1.6-1.6,2-1.6c0.5,0,0.3,0.3,0.3,0.3c0.1,0-0.2,0.3,1,0.6c0.1,0,0.5,0.1,9.3,0.1
		c0.1,0,16,0.1,16.2,0.1l26.9,0.1l107,0.1l42.1,0c22,0,41.4,0,291.3,0l99.9-0.1l23.3-0.1c0.9,0,15.3-0.1,16-0.2
		c3.3-0.3,0.4-1.8,3.8,0.3c1.9,1.2,2.3,0.8,0.4,2.1c-0.1,0.1-0.3-0.3-0.7,0.6c-0.2,0.5-0.1,19.5-0.1,20c0.1,9.3,1.8,9.8,11.1,10
		c0.1,0,12.5,0.1,13.7,0.1l42,0c12.3,0,13.1,0,13.2,0c16.1-0.1,20.9,1.2,22.1-5.6c0.1-0.8,0.2,0,0.2-18.8c0-8.2-1.1-6.3-0.5-7.7
		c0,0,1.2-2.6,2.2-1.8l0.3,1.2l21.2,0.1c17.9,0.1,21.1-0.3,23.6,1.3c4.7,3,3.5,7.1,3.5,11.6l0.1,20.4l0.1,78.1c0,1.8,0-12,0.1,206.9
		l0,223.2c0,15.4,0,1.3-0.1,75.4c0,5.7,0,13.9,0,14.4c-0.1,16.3,0,15.8-0.7,17.2c-2.3,4.2-6.9,4.1-6.9,4.1"/>
	<path id="path6-7-9-2_8_" inkscape:connector-curvature="0" class="st0" d="M-850.1-1255.2l0.9-0.1c20.1-3.1,30.2-19.9,28.1-35.5
		c-1.7-11.9-10.7-19.5-15.4-22.3c-8.2-5-16.8-5-22.5-4.4c-16.6,1.8-24.4,15.8-24.6,16.3c-4.9,8.5-7.2,23.5,4.9,36
		C-866.1-1252.2-850.1-1255.2-850.1-1255.2"/>
	<path id="path8-5-3-6_8_" inkscape:connector-curvature="0" class="st0" d="M-522.2-1704L-522.2-1704"/>
	<path id="path10-3-6-1_8_" inkscape:connector-curvature="0" class="st0" d="M-1304.7-1052.4c0-0.3-0.7-0.3-5.2-0.4l-5.2,0l5.1-0.1
		c5-0.1,5.1-0.1,5.5-0.7c0.4-0.5,0.4-1.2,0.4-18.9c0-18,0-18.3,0.5-18.9c0.3-0.3,0.4-0.8,0.4-1.2c0-0.4,0.1-0.7,0.4-0.9
		c0.3-0.1,0.9-0.7,1.5-1.3c0.8-0.8,1.2-1,1.5-0.9c0.3,0.1,0.6,0,0.9-0.3l0.4-0.5h444h444l0.5,0.5c0.3,0.3,0.7,0.4,0.9,0.3
		c0.3-0.1,0.6,0.2,1.2,0.8c0.4,0.5,1.1,1.1,1.5,1.4c0.6,0.4,0.8,0.6,0.7,1c-0.1,0.3,0,0.7,0.4,1.1l0.5,0.6l0.1,18.4l0.1,18.4
		l0.5,0.5c0.5,0.5,0.8,0.5,6.8,0.5l6.2,0.1l-6.4,0.1c-5.5,0-6.5,0.1-6.6,0.4c-0.2,0.4-0.7,0.4-0.9,0c-0.1-0.3-50.3-0.3-449.6-0.3
		c-399.4,0-449.4,0-449.4,0.3c0,0.2-0.2,0.3-0.5,0.3S-1304.7-1052.2-1304.7-1052.4L-1304.7-1052.4z"/>
</g>
<g id="g4530-3-7-0_7_" transform="rotate(90,-4.0342031,-97.200428)">
	<path id="path4-6-0-6_7_" inkscape:connector-curvature="0" class="st0" d="M-1314.6-1713.3c-0.4,0-2.7,0-5.8,0
		c-3-1.5-3.6-1.6-6.1-5.9l0-640.7c2.8-5.1,3.2-6,13.5-6.1c1.3,0,11.6,0,13.5,0l21-0.1c0.8-1.6,0.9-1.7,1.7-0.2
		c0.3,0.5,0.1,0.1,0.7,1.7c-1.3,3-0.7,21.9-0.6,23.7c0.3,5,1.5,5.7,5.3,7.5l72.2,0c26.8,0,24.8,2.1,24.9-17.8c0-0.1,0-2.4,0.1-13
		c-1.7-0.4-2-0.1-0.9-1.5c0.5-0.7,1.6-1.6,2-1.6c0.5,0,0.3,0.3,0.3,0.3c0.1,0-0.2,0.3,1,0.6c0.1,0,0.5,0.1,9.3,0.1
		c0.1,0,16,0.1,16.2,0.1l26.9,0.1l107,0.1l42.1,0c22,0,41.4,0,291.3,0l99.9-0.1l23.3-0.1c0.9,0,15.3-0.1,16-0.2
		c3.3-0.3,0.4-1.8,3.8,0.3c1.9,1.2,2.3,0.8,0.4,2.1c-0.1,0.1-0.3-0.3-0.7,0.6c-0.2,0.5-0.1,19.5-0.1,20c0.1,9.3,1.8,9.8,11.1,10
		c0.1,0,12.5,0.1,13.7,0.1l42,0c12.3,0,13.1,0,13.2,0c16.1-0.1,20.9,1.2,22.1-5.6c0.1-0.8,0.2,0,0.2-18.8c0-8.2-1.1-6.3-0.5-7.7
		c0,0,1.2-2.6,2.2-1.8l0.3,1.2l21.2,0.1c17.9,0.1,21.1-0.3,23.6,1.3c4.7,3,3.5,7.1,3.5,11.6l0.1,20.4l0.1,78.1c0,1.8,0-12,0.1,206.9
		l0,223.2c0,15.4,0,1.3-0.1,75.4c0,5.7,0,13.9,0,14.4c-0.1,16.3,0,15.8-0.7,17.2c-2.3,4.2-6.9,4.1-6.9,4.1"/>
	<path id="path6-7-9-2_7_" inkscape:connector-curvature="0" class="st0" d="M-850.2-1916.1l0.9-0.1c20.1-3.1,30.2-19.9,28.1-35.5
		c-1.7-11.9-10.7-19.5-15.4-22.3c-8.2-5-16.8-5-22.5-4.4c-16.6,1.8-24.4,15.8-24.6,16.3c-4.9,8.5-7.2,23.5,4.9,36
		C-866.2-1913.1-850.2-1916.1-850.2-1916.1"/>
	<path id="path8-5-3-6_7_" inkscape:connector-curvature="0" class="st0" d="M-522.2-2364.8L-522.2-2364.8"/>
	<path id="path10-3-6-1_7_" inkscape:connector-curvature="0" class="st0" d="M-1304.8-1713.3c0-0.3-0.7-0.3-5.2-0.4l-5.2,0l5.1-0.1
		c5-0.1,5.1-0.1,5.5-0.7c0.4-0.5,0.4-1.2,0.4-18.9c0-18,0-18.3,0.5-18.9c0.3-0.3,0.4-0.8,0.4-1.2c0-0.4,0.1-0.7,0.4-0.9
		c0.3-0.1,0.9-0.7,1.5-1.3c0.8-0.8,1.2-1,1.5-0.9c0.3,0.1,0.6,0,0.9-0.3l0.4-0.5h444h444l0.5,0.5c0.3,0.3,0.7,0.4,0.9,0.3
		c0.3-0.1,0.6,0.2,1.2,0.8c0.4,0.5,1.1,1.1,1.5,1.4c0.6,0.4,0.8,0.6,0.7,1c-0.1,0.3,0,0.7,0.4,1.1l0.5,0.6l0.1,18.4l0.1,18.4
		l0.5,0.5c0.5,0.5,0.8,0.5,6.8,0.5l6.2,0.1l-6.4,0.1c-5.5,0-6.5,0.1-6.6,0.4c-0.2,0.4-0.7,0.4-0.9,0c-0.1-0.3-50.3-0.3-449.6-0.3
		c-399.4,0-449.4,0-449.4,0.3c0,0.2-0.2,0.3-0.5,0.3S-1304.8-1713.1-1304.8-1713.3L-1304.8-1713.3z"/>
</g>
<g id="g4530-3-7-0_6_" transform="rotate(90,-4.0342031,-97.200428)">
	<path id="path4-6-0-6_6_" inkscape:connector-curvature="0" class="st0" d="M-1314.6-2380.2c-0.4,0-2.7,0-5.8,0
		c-3-1.5-3.6-1.6-6.1-5.9v-640.7c2.8-5.1,3.2-6,13.5-6.1c1.3,0,11.6,0,13.5,0l21-0.1c0.8-1.6,0.9-1.7,1.7-0.2
		c0.3,0.5,0.1,0.1,0.7,1.7c-1.3,3-0.7,21.9-0.6,23.7c0.3,5,1.5,5.7,5.3,7.5l72.2,0c26.8,0,24.8,2.1,24.9-17.8c0-0.1,0-2.4,0.1-13
		c-1.7-0.4-2-0.1-0.9-1.5c0.5-0.7,1.6-1.6,2-1.6c0.5,0,0.3,0.3,0.3,0.3c0.1,0-0.2,0.3,1,0.6c0.1,0,0.5,0.1,9.3,0.1
		c0.1,0,16,0.1,16.2,0.1l26.9,0.1l107,0.1l42.1,0c22,0,41.4,0,291.3,0l99.9-0.1l23.3-0.1c0.9,0,15.3-0.1,16-0.2
		c3.3-0.3,0.4-1.8,3.8,0.3c1.9,1.2,2.3,0.8,0.4,2.1c-0.1,0.1-0.3-0.3-0.7,0.6c-0.2,0.5-0.1,19.5-0.1,20c0.1,9.3,1.8,9.8,11.1,10
		c0.1,0,12.5,0.1,13.7,0.1l42,0c12.3,0,13.1,0,13.2,0c16.1-0.1,20.9,1.2,22.1-5.6c0.1-0.8,0.2,0,0.2-18.8c0-8.2-1.1-6.3-0.5-7.7
		c0,0,1.2-2.6,2.2-1.8l0.3,1.2l21.2,0.1c17.9,0.1,21.1-0.3,23.6,1.3c4.7,3,3.5,7.1,3.5,11.6l0.1,20.4l0.1,78.1c0,1.8,0-12,0.1,206.9
		l0,223.2c0,15.4,0,1.3-0.1,75.4c0,5.7,0,13.9,0,14.4c-0.1,16.3,0,15.8-0.7,17.2c-2.3,4.2-6.9,4.1-6.9,4.1"/>
	<path id="path6-7-9-2_6_" inkscape:connector-curvature="0" class="st0" d="M-850.1-2583.1l0.9-0.1c20.1-3.1,30.2-19.9,28.1-35.5
		c-1.7-11.9-10.7-19.5-15.4-22.3c-8.2-5-16.8-5-22.5-4.4c-16.6,1.8-24.4,15.8-24.6,16.3c-4.9,8.5-7.2,23.5,4.9,36
		C-866.1-2580-850.1-2583.1-850.1-2583.1"/>
	<path id="path8-5-3-6_6_" inkscape:connector-curvature="0" class="st0" d="M-522.2-3031.8L-522.2-3031.8"/>
	<path id="path10-3-6-1_6_" inkscape:connector-curvature="0" class="st0" d="M-1304.8-2380.2c0-0.3-0.7-0.3-5.2-0.4l-5.2,0l5.1-0.1
		c5-0.1,5.1-0.1,5.5-0.7c0.4-0.5,0.4-1.2,0.4-18.9c0-18,0-18.3,0.5-18.9c0.3-0.3,0.4-0.8,0.4-1.2c0-0.4,0.1-0.7,0.4-0.9
		c0.3-0.1,0.9-0.7,1.5-1.3c0.8-0.8,1.2-1,1.5-0.9c0.3,0.1,0.6,0,0.9-0.3l0.4-0.5h444h444l0.5,0.5c0.3,0.3,0.7,0.4,0.9,0.3
		c0.3-0.1,0.6,0.2,1.2,0.8c0.4,0.5,1.1,1.1,1.5,1.4c0.6,0.4,0.8,0.6,0.7,1c-0.1,0.3,0,0.7,0.4,1.1l0.5,0.6l0.1,18.4l0.1,18.4
		l0.5,0.5c0.5,0.5,0.8,0.5,6.8,0.5l6.2,0.1l-6.4,0.1c-5.5,0-6.5,0.1-6.6,0.4c-0.2,0.4-0.7,0.4-0.9,0c-0.1-0.3-50.3-0.3-449.6-0.3
		c-399.4,0-449.4,0-449.4,0.3c0,0.2-0.2,0.3-0.5,0.3C-1304.5-2379.9-1304.8-2380-1304.8-2380.2L-1304.8-2380.2z"/>
</g>
</svg>
