<?xml version="1.0" encoding="utf-8"?>
<!-- Generator: Adobe Illustrator 25.2.1, SVG Export Plug-In . SVG Version: 6.00 Build 0)  -->
<svg version="1.1" id="Layer_1" xmlns="http://www.w3.org/2000/svg" xmlns:xlink="http://www.w3.org/1999/xlink" x="0px" y="0px"
	 viewBox="0 0 4280.3 1133.9" style="enable-background:new 0 0 4280.3 1133.9;" xml:space="preserve">
<style type="text/css">
	.st0{fill:none;stroke:#000000;stroke-width:0.7087;stroke-linecap:round;stroke-linejoin:round;stroke-miterlimit:11.3386;}
</style>
<g>
	<path id="path4-6-2" class="st0" d="M147.8,1041.7c-2.5,0-4.5-2.4-4.5-5.4V97.6c0-3,2-5.4,4.5-5.4h574.9c2.5,0,4.5,2.4,4.5,5.4
		v938.8c0,3-2,5.4-4.5,5.4H147.8z"/>
	<path id="path6-7-9" class="st0" d="M367.4,566c0,18.8,15.2,34,34,34c18.8,0,34-15.2,34-34s-15.2-34-34-34
		C382.6,532,367.4,547.3,367.4,566z"/>
	<g>
		<path id="path8-5-1" class="st0" d="M130.7,1041.8h-14.2c-2,0-3.6,0-4.5-0.1c-1.3-0.2-2.4-1-2.7-1.1c-2-1.3-3.2-3.2-3.9-4.6
			c-0.7-1.3-1.2-3-1.2-3.1c-0.7-2.3-0.7-4.3-0.8-4.8c-0.2-2.8-0.1-8.5-0.1-9.4c0-1.5,0.1-9.9,0.1-9.9V980c0-5,0-100.5,0-100.5
			s0-190.9,0-201c0-27.8,0-501.3,0-557c0-3.3,0-11,0-11c0-2.2,0-4.1,0.1-5.5c0.1-1.7,0.4-2.9,0.6-3.5c0.8-3.1,2.3-5.2,3.2-6.3
			c1-1.1,2.5-2.4,4.2-2.8c1.1-0.3,1.6-0.3,3.1-0.3c2.7,0,13.7,0,13.7,0"/>
		<path id="path10-3-2" class="st0" d="M120,1041.7h23.3c0-189.9,0-949.6,0-949.6h-23.6"/>
	</g>
</g>
</svg>
