<?xml version="1.0" encoding="UTF-8" standalone="no"?>
<!-- exported from Silhouette Studio Business Edition V4.1.479ssbe -->

<svg
   xmlns:dc="http://purl.org/dc/elements/1.1/"
   xmlns:cc="http://creativecommons.org/ns#"
   xmlns:rdf="http://www.w3.org/1999/02/22-rdf-syntax-ns#"
   xmlns:svg="http://www.w3.org/2000/svg"
   xmlns="http://www.w3.org/2000/svg"
   xmlns:sodipodi="http://sodipodi.sourceforge.net/DTD/sodipodi-0.dtd"
   xmlns:inkscape="http://www.inkscape.org/namespaces/inkscape"
   version="1.1"
   width="304.8mm"
   height="304.8mm"
   viewBox="0 0 304.8 304.8"
   id="svg38"
   sodipodi:docname="9470m_LID.svg"
   inkscape:version="0.92.3 (2405546, 2018-03-11)">
  <metadata
     id="metadata42">
    <rdf:RDF>
      <cc:Work
         rdf:about="">
        <dc:format>image/svg+xml</dc:format>
        <dc:type
           rdf:resource="http://purl.org/dc/dcmitype/StillImage" />
      </cc:Work>
    </rdf:RDF>
  </metadata>
  <sodipodi:namedview
     pagecolor="#ffffff"
     bordercolor="#666666"
     borderopacity="1"
     objecttolerance="10"
     gridtolerance="10"
     guidetolerance="10"
     inkscape:pageopacity="0"
     inkscape:pageshadow="2"
     inkscape:window-width="1366"
     inkscape:window-height="684"
     id="namedview40"
     showgrid="false"
     inkscape:zoom="0.14485869"
     inkscape:cx="-723.29648"
     inkscape:cy="-340.86463"
     inkscape:window-x="0"
     inkscape:window-y="28"
     inkscape:window-maximized="1"
     inkscape:current-layer="svg38" />
  <defs
     id="defs2" />
  <g
     id="g1279"
     transform="translate(45.662317,1.8264922)">
    <path
       id="path34"
       d="m 49.891522,-9.4468441 c 1.140097,-3.1601799 2.327096,-4.4847099 5.476192,-6.1103499 l 1.810899,-0.93487 106.453057,-0.09012 c 99.35519,-0.08414 106.56034,-0.05014 108.06117,0.509668 2.95392,1.101811 4.72198,2.62055 5.89353,5.062501 0.32664,0.68082 0.72966,1.5142201 0.89556,1.8519898 0.16593,0.3377696 0.30169,72.8824472 0.30169,161.2104152 V 312.6488 l -0.89518,1.89191 c -1.1127,2.35168 -2.61294,3.84419 -4.9985,4.97269 l -1.84433,0.87239 -106.75667,-0.005 c -83.79505,-0.004 -107.023227,-0.0993 -107.996226,-0.44219 -2.506998,-0.88331 -6.011594,-4.1708 -6.011594,-5.6392 0,-0.27039 -0.199001,-0.6906 -0.442199,-0.93379 -0.3522,-0.35221 -0.4577,-33.05311 -0.518801,-160.72881 -0.074,-154.6185542 -0.0538,-160.3501545 0.571402,-162.0833441 z"
       inkscape:connector-curvature="0"
       style="fill:none;fill-opacity:1;stroke:#000000;stroke-width:0.70555526;stroke-linecap:round;stroke-linejoin:round;stroke-opacity:1" />
    <path
       id="path36"
       d="M 65.62342,320.15293 V -16.564411"
       inkscape:connector-curvature="0"
       style="fill:none;fill-opacity:1;stroke:#000000;stroke-width:0.70555562;stroke-linecap:round;stroke-linejoin:round;stroke-opacity:1" />
    <path
       id="path1128"
       d="m 172.39084,151.92845 a 11.473709,11.473709 0 0 1 -11.47371,11.47371 11.473709,11.473709 0 0 1 -11.47371,-11.47371 11.473709,11.473709 0 0 1 11.47371,-11.47371 11.473709,11.473709 0 0 1 11.47371,11.47371 z"
       style="fill:none;fill-opacity:1;fill-rule:evenodd;stroke:#000000;stroke-width:1.05258238;stroke-miterlimit:4;stroke-dasharray:none;stroke-opacity:1"
       inkscape:connector-curvature="0" />
    <path
       id="path34-3"
       d="m -183.88774,-9.4605281 c 1.14009,-3.1601799 2.32709,-4.4847099 5.47619,-6.1103499 l 1.8109,-0.93487 106.453046,-0.09012 c 99.355195,-0.08414 106.560345,-0.05014 108.061175,0.509668 2.95392,1.101811 4.72198,2.620551 5.89353,5.062502 0.32664,0.68082 0.72966,1.5142189 0.89556,1.8519889 0.16593,0.33777 0.30169,72.8824491 0.30169,161.2104191 v 160.5964 l -0.89518,1.89193 c -1.1127,2.35167 -2.61294,3.84418 -4.9985,4.97268 l -1.84433,0.87239 -106.756675,-0.005 c -83.795036,-0.004 -107.023216,-0.0993 -107.996216,-0.4422 -2.507,-0.88331 -6.01159,-4.17078 -6.01159,-5.63919 0,-0.27038 -0.19901,-0.69059 -0.4422,-0.9338 -0.3522,-0.35216 -0.4577,-33.05307 -0.5188,-160.72877 -0.074,-154.6185581 -0.0538,-160.3501581 0.5714,-162.0833481 z"
       inkscape:connector-curvature="0"
       style="fill:none;fill-opacity:1;stroke:#000000;stroke-width:0.70555526;stroke-linecap:round;stroke-linejoin:round;stroke-opacity:1" />
    <path
       id="path36-6"
       d="M -168.15584,320.13925 V -16.578095"
       inkscape:connector-curvature="0"
       style="fill:none;fill-opacity:1;stroke:#000000;stroke-width:0.70555562;stroke-linecap:round;stroke-linejoin:round;stroke-opacity:1" />
    <path
       id="path1128-7"
       d="m -61.388434,151.91477 a 11.473709,11.473709 0 0 1 -11.47371,11.47371 11.473709,11.473709 0 0 1 -11.47371,-11.47371 11.473709,11.473709 0 0 1 11.47371,-11.47371 11.473709,11.473709 0 0 1 11.47371,11.47371 z"
       style="fill:none;fill-opacity:1;fill-rule:evenodd;stroke:#000000;stroke-width:1.05258238;stroke-miterlimit:4;stroke-dasharray:none;stroke-opacity:1"
       inkscape:connector-curvature="0" />
    <path
       id="path34-5"
       d="m -417.6223,-9.1817503 c 1.14009,-3.1601807 2.32709,-4.4847107 5.47619,-6.1103507 l 1.8109,-0.93487 106.45305,-0.09012 c 99.35519,-0.08414 106.56035,-0.05014 108.06118,0.509668 2.95391,1.101811 4.72199,2.62055 5.89354,5.062502 0.32662,0.68082 0.72964,1.5142198 0.89556,1.8519896 0.16592,0.3377697 0.30168,72.8824484 0.30168,161.2104114 v 160.59643 l -0.8952,1.8919 c -1.11267,2.35167 -2.61291,3.84418 -4.99848,4.97268 l -1.84433,0.87239 -106.75667,-0.005 c -83.79505,-0.004 -107.02323,-0.0993 -107.99623,-0.44217 -2.507,-0.88331 -6.0116,-4.17081 -6.0116,-5.6392 0,-0.2704 -0.199,-0.69061 -0.4422,-0.93379 -0.3522,-0.35222 -0.4577,-33.05313 -0.5188,-160.72882 -0.074,-154.6185306 -0.0538,-160.3501307 0.57141,-162.0833203 z"
       inkscape:connector-curvature="0"
       style="fill:none;fill-opacity:1;stroke:#000000;stroke-width:0.70555526;stroke-linecap:round;stroke-linejoin:round;stroke-opacity:1" />
    <path
       id="path36-3"
       d="M -401.89041,320.41802 V -16.299318"
       inkscape:connector-curvature="0"
       style="fill:none;fill-opacity:1;stroke:#000000;stroke-width:0.70555562;stroke-linecap:round;stroke-linejoin:round;stroke-opacity:1" />
    <path
       id="path1128-5"
       d="m -295.12297,152.19354 a 11.473709,11.473709 0 0 1 -11.47374,11.47371 11.473709,11.473709 0 0 1 -11.47371,-11.47371 11.473709,11.473709 0 0 1 11.47371,-11.47371 11.473709,11.473709 0 0 1 11.47374,11.47371 z"
       style="fill:none;fill-opacity:1;fill-rule:evenodd;stroke:#000000;stroke-width:1.05258238;stroke-miterlimit:4;stroke-dasharray:none;stroke-opacity:1"
       inkscape:connector-curvature="0" />
    <path
       id="path34-8"
       d="m 52.730943,333.04427 c 1.14009,-3.16018 2.32709,-4.48471 5.47619,-6.11035 l 1.81089,-0.93487 106.453077,-0.0901 c 99.3552,-0.0841 106.56033,-0.0501 108.06118,0.50967 2.95392,1.10181 4.72197,2.62055 5.89352,5.0625 0.32665,0.68082 0.72966,1.51422 0.89556,1.85199 0.16594,0.33777 0.3017,72.88245 0.3017,161.21041 v 160.59642 l -0.89519,1.89191 c -1.1127,2.35167 -2.61294,3.84418 -4.99851,4.97268 l -1.84433,0.87239 -106.75665,-0.005 c -83.795067,-0.004 -107.023257,-0.0993 -107.996267,-0.44217 -2.50698,-0.88331 -6.01157,-4.17082 -6.01157,-5.6392 0,-0.2704 -0.19902,-0.69062 -0.4422,-0.93379 -0.35221,-0.35222 -0.4577,-33.05313 -0.51882,-160.72883 -0.074,-154.61855 -0.0538,-160.35015 0.57142,-162.08334 z"
       inkscape:connector-curvature="0"
       style="fill:none;fill-opacity:1;stroke:#000000;stroke-width:0.70555526;stroke-linecap:round;stroke-linejoin:round;stroke-opacity:1" />
    <path
       id="path36-2"
       d="M 68.462833,662.64404 V 325.9267"
       inkscape:connector-curvature="0"
       style="fill:none;fill-opacity:1;stroke:#000000;stroke-width:0.70555562;stroke-linecap:round;stroke-linejoin:round;stroke-opacity:1" />
    <path
       id="path1128-8"
       d="m 175.23027,494.41956 a 11.473709,11.473709 0 0 1 -11.47371,11.47371 11.473709,11.473709 0 0 1 -11.47371,-11.47371 11.473709,11.473709 0 0 1 11.47371,-11.47371 11.473709,11.473709 0 0 1 11.47371,11.47371 z"
       style="fill:none;fill-opacity:1;fill-rule:evenodd;stroke:#000000;stroke-width:1.05258238;stroke-miterlimit:4;stroke-dasharray:none;stroke-opacity:1"
       inkscape:connector-curvature="0" />
    <path
       id="path34-3-7"
       d="m -181.04831,333.03059 c 1.14009,-3.16018 2.32709,-4.48471 5.47619,-6.11035 l 1.8109,-0.93487 106.453033,-0.0901 c 99.355199,-0.0841 106.560329,-0.0501 108.061179,0.50966 2.953911,1.10182 4.721971,2.62056 5.893511,5.06251 0.32666,0.68082 0.72967,1.51422 0.89557,1.85199 0.16594,0.33777 0.3017,72.88244 0.3017,161.21041 v 160.5964 l -0.89519,1.89193 c -1.11271,2.35167 -2.61295,3.84418 -4.99851,4.97268 l -1.844331,0.87239 -106.756679,-0.005 c -83.795003,-0.004 -107.023183,-0.0993 -107.996183,-0.4422 -2.507,-0.88331 -6.01159,-4.17078 -6.01159,-5.6392 0,-0.27037 -0.19901,-0.69058 -0.4422,-0.93379 -0.3522,-0.35216 -0.4577,-33.05307 -0.5188,-160.72877 -0.074,-154.61855 -0.0538,-160.35015 0.5714,-162.08334 z"
       inkscape:connector-curvature="0"
       style="fill:none;fill-opacity:1;stroke:#000000;stroke-width:0.70555526;stroke-linecap:round;stroke-linejoin:round;stroke-opacity:1" />
    <path
       id="path36-6-6"
       d="M -165.31641,662.63036 V 325.91302"
       inkscape:connector-curvature="0"
       style="fill:none;fill-opacity:1;stroke:#000000;stroke-width:0.70555562;stroke-linecap:round;stroke-linejoin:round;stroke-opacity:1" />
    <path
       id="path1128-7-8"
       d="m -58.549017,494.40588 a 11.473709,11.473709 0 0 1 -11.473711,11.47371 11.473709,11.473709 0 0 1 -11.473704,-11.47371 11.473709,11.473709 0 0 1 11.473704,-11.47371 11.473709,11.473709 0 0 1 11.473711,11.47371 z"
       style="fill:none;fill-opacity:1;fill-rule:evenodd;stroke:#000000;stroke-width:1.05258238;stroke-miterlimit:4;stroke-dasharray:none;stroke-opacity:1"
       inkscape:connector-curvature="0" />
    <path
       id="path34-5-4"
       d="m -414.78288,333.30936 c 1.14009,-3.16018 2.32709,-4.48471 5.47619,-6.11035 l 1.8109,-0.93487 106.45305,-0.0901 c 99.3552,-0.0841 106.56036,-0.0501 108.06119,0.50967 2.95391,1.10181 4.72199,2.62055 5.89354,5.0625 0.32662,0.68082 0.72964,1.51422 0.89556,1.85199 0.16592,0.33777 0.30168,72.88245 0.30168,161.21041 v 160.59645 l -0.8952,1.89187 c -1.11267,2.35167 -2.61291,3.84419 -4.99848,4.97269 l -1.84433,0.87238 -106.75667,-0.005 c -83.79505,-0.004 -107.02324,-0.0993 -107.99624,-0.44214 -2.507,-0.88331 -6.0116,-4.17081 -6.0116,-5.63922 0,-0.27038 -0.199,-0.69059 -0.4422,-0.93377 -0.3522,-0.35221 -0.4577,-33.05313 -0.5188,-160.72881 -0.074,-154.61853 -0.0538,-160.35013 0.57141,-162.08332 z"
       inkscape:connector-curvature="0"
       style="fill:none;fill-opacity:1;stroke:#000000;stroke-width:0.70555526;stroke-linecap:round;stroke-linejoin:round;stroke-opacity:1" />
    <path
       id="path36-3-8"
       d="M -399.05099,662.90912 V 326.1918"
       inkscape:connector-curvature="0"
       style="fill:none;fill-opacity:1;stroke:#000000;stroke-width:0.70555562;stroke-linecap:round;stroke-linejoin:round;stroke-opacity:1" />
    <path
       id="path1128-5-9"
       d="m -292.28354,494.68465 a 11.473709,11.473709 0 0 1 -11.47374,11.47371 11.473709,11.473709 0 0 1 -11.47372,-11.47371 11.473709,11.473709 0 0 1 11.47372,-11.47371 11.473709,11.473709 0 0 1 11.47374,11.47371 z"
       style="fill:none;fill-opacity:1;fill-rule:evenodd;stroke:#000000;stroke-width:1.05258238;stroke-miterlimit:4;stroke-dasharray:none;stroke-opacity:1"
       inkscape:connector-curvature="0" />
  </g>
</svg>
