<?xml version="1.0" encoding="utf-8"?>
<!-- Generator: Adobe Illustrator 27.6.1, SVG Export Plug-In . SVG Version: 6.00 Build 0)  -->
<svg version="1.1" id="Layer_1" xmlns="http://www.w3.org/2000/svg" xmlns:xlink="http://www.w3.org/1999/xlink" x="0px" y="0px"
	 viewBox="0 0 4320 1728" style="enable-background:new 0 0 4320 1728;" xml:space="preserve">
<style type="text/css">
	.st0{fill:none;stroke:#000000;stroke-miterlimit:10;}
</style>
<g>
	<path class="st0" d="M674.99,537.86H618.3c-1.57,0-2.83-1.27-2.83-2.83v-221.1c0-1.57,1.27-2.83,2.83-2.83h56.69
		c1.57,0,2.83,1.27,2.83,2.83v221.1C677.83,536.59,676.56,537.86,674.99,537.86z"/>
	<g>
		<rect x="638.07" y="478.33" class="st0" width="17.01" height="39.69"/>
		<path class="st0" d="M644.74,458.49L644.74,458.49c-3.91,0-7.09-3.17-7.09-7.09v-17.01c0-3.91,3.17-7.09,7.09-7.09l0,0
			c3.91,0,7.09,3.17,7.09,7.09v17.01C651.83,455.31,648.66,458.49,644.74,458.49z"/>
		<circle class="st0" cx="647.58" cy="394.71" r="9.92"/>
		<circle class="st0" cx="647.58" cy="363.53" r="9.92"/>
	</g>
	<circle class="st0" cx="647.58" cy="335.99" r="4.25"/>
</g>
</svg>
