<?xml version="1.0" encoding="UTF-8" standalone="no"?>
<!-- Created with Inkscape (http://www.inkscape.org/) -->

<svg
   xmlns:dc="http://purl.org/dc/elements/1.1/"
   xmlns:cc="http://creativecommons.org/ns#"
   xmlns:rdf="http://www.w3.org/1999/02/22-rdf-syntax-ns#"
   xmlns:svg="http://www.w3.org/2000/svg"
   xmlns="http://www.w3.org/2000/svg"
   xmlns:sodipodi="http://sodipodi.sourceforge.net/DTD/sodipodi-0.dtd"
   xmlns:inkscape="http://www.inkscape.org/namespaces/inkscape"
   width="594mm"
   height="841mm"
   viewBox="0 0 594 841"
   version="1.1"
   id="svg8"
   inkscape:version="0.92.3 (2405546, 2018-03-11)"
   sodipodi:docname="T530_W530_PR_NO_FP.svg">
  <defs
     id="defs2" />
  <sodipodi:namedview
     id="base"
     pagecolor="#ffffff"
     bordercolor="#666666"
     borderopacity="1.0"
     inkscape:pageopacity="0.0"
     inkscape:pageshadow="2"
     inkscape:zoom="0.7"
     inkscape:cx="1406.9609"
     inkscape:cy="906.02752"
     inkscape:document-units="mm"
     inkscape:current-layer="layer1"
     showgrid="false"
     showguides="false"
     inkscape:guide-bbox="true"
     inkscape:window-width="1920"
     inkscape:window-height="1017"
     inkscape:window-x="-8"
     inkscape:window-y="-8"
     inkscape:window-maximized="1">
    <sodipodi:guide
       position="267.21272,314.14128"
       orientation="1,0"
       id="guide819"
       inkscape:locked="false" />
    <sodipodi:guide
       position="441.39564,296.53553"
       orientation="1,0"
       id="guide881"
       inkscape:locked="false" />
  </sodipodi:namedview>
  <metadata
     id="metadata5">
    <rdf:RDF>
      <cc:Work
         rdf:about="">
        <dc:format>image/svg+xml</dc:format>
        <dc:type
           rdf:resource="http://purl.org/dc/dcmitype/StillImage" />
        <dc:title></dc:title>
      </cc:Work>
    </rdf:RDF>
  </metadata>
  <g
     inkscape:label="Layer 1"
     inkscape:groupmode="layer"
     id="layer1"
     transform="translate(0,544)">
    <g
       id="g830"
       transform="translate(-25.813879,-9.6990295)"
       style="stroke:#000000;stroke-width:0.35277778;stroke-miterlimit:4;stroke-dasharray:none;stroke-opacity:1">
      <path
         sodipodi:nodetypes="cssssssssc"
         inkscape:connector-curvature="0"
         id="rect815"
         d="m 270.85993,-17.141256 89.35278,-1.4e-5 c 1.108,0 2,0.892 2,2 v 88.647225 c 0,1.108 -0.892,2 -2,2 H 232.56549 c -1.108,0 -2,-0.892 -2,-2 V -15.14127 c 0,-1.108 0.892,-2 2,-2 l 34.64722,1.4e-5"
         style="opacity:1;fill:none;fill-opacity:0.28372097;stroke:#000000;stroke-width:0.35277778;stroke-miterlimit:4;stroke-dasharray:none;stroke-opacity:1" />
      <path
         sodipodi:nodetypes="ccc"
         inkscape:connector-curvature="0"
         id="rect817"
         d="m 270.85993,-17.141256 -3.64722,13.6472231 V -17.141256"
         style="opacity:1;fill:none;fill-opacity:0.28372097;stroke:#000000;stroke-width:0.35277778;stroke-miterlimit:4;stroke-dasharray:none;stroke-opacity:1" />
      <rect
         y="67.813309"
         x="309.19009"
         height="4.647222"
         width="9.6472225"
         id="rect825"
         style="opacity:1;fill:none;fill-opacity:0.28372097;stroke:#000000;stroke-width:0.35277778;stroke-miterlimit:4;stroke-dasharray:none;stroke-opacity:1" />
    </g>
    <g
       id="g953">
      <path
         sodipodi:nodetypes="csccssssc"
         inkscape:connector-curvature="0"
         id="rect832"
         d="m 504.95944,64.079168 c 0,1.108 -0.892,1.999814 -2,2 l -33.62341,0.0056 m -34.64722,0 -87.37658,-0.0056 c -1.108,-7.1e-5 -2,-0.892 -2,-2 v -88.647224 c 0,-1.108 0.892,-2.001712 2,-2 l 67.35275,0.104056"
         style="opacity:1;fill:none;fill-opacity:0.28372097;stroke:#000000;stroke-width:0.35277778;stroke-miterlimit:4;stroke-dasharray:none;stroke-opacity:1" />
      <path
         sodipodi:nodetypes="cssc"
         inkscape:connector-curvature="0"
         id="rect815-3"
         d="m 504.95944,64.096137 v -88.647225 c 0,-1.108 -0.892,-2.002785 -2,-2 L 468.3122,-26.464"
         style="opacity:1;fill:none;fill-opacity:0.28372097;stroke:#000000;stroke-width:0.35277778;stroke-miterlimit:4;stroke-dasharray:none;stroke-opacity:1" />
      <path
         id="rect825-5"
         d="M 429.31223,58.846199 H 419.665 v 4.647222 h 9.64723 z"
         style="opacity:1;fill:none;fill-opacity:0.28372097;stroke:#000000;stroke-width:0.35277778;stroke-miterlimit:4;stroke-dasharray:none;stroke-opacity:1"
         inkscape:connector-curvature="0" />
      <path
         sodipodi:nodetypes="cssssc"
         inkscape:connector-curvature="0"
         id="rect873"
         d="m 468.3122,-26.464 v 12.582667 c 0,0.554 -0.446,1 -1,1 h -51.64722 c -0.554,0 -1,-0.446 -1,-1 V -26.464"
         style="opacity:1;fill:none;fill-opacity:0.28372097;stroke:#000000;stroke-width:0.35277778;stroke-miterlimit:4;stroke-dasharray:none;stroke-opacity:1" />
      <path
         sodipodi:nodetypes="cssc"
         inkscape:connector-curvature="0"
         id="rect883-5"
         d="m 434.68881,66.0848 c 0,-1.662 1.338,-2.465461 3,-2.465461 h 28.64722 c 1.662,0 3,0.803461 3,2.465461"
         style="opacity:1;fill:none;fill-opacity:0.28372097;stroke:#000000;stroke-width:0.35277778;stroke-miterlimit:4;stroke-dasharray:none;stroke-opacity:1" />
      <path
         style="fill:none;fill-opacity:1;stroke:#000000;stroke-width:0.35277778;stroke-linecap:round;stroke-linejoin:round;stroke-miterlimit:4;stroke-dasharray:none;stroke-opacity:1"
         inkscape:connector-curvature="0"
         d="m 480.46007,23.312875 c 0.10495,-0.05154 0.0167,-0.28591 0.0151,-0.336823 -0.009,-0.259458 0.10973,-0.426047 0.1248,-0.45868 0.074,-0.159863 -9.9e-4,-0.153764 0.34526,-0.50426 0.36779,-0.371795 0.50083,-0.303632 0.52338,-0.370595 0.0139,-0.04002 -0.0868,-0.153733 -0.18403,-0.273044 -0.0253,-0.03101 -0.52885,-0.641596 -0.57184,-0.694155 -0.46712,-0.571837 -0.38257,-0.465089 -0.38848,-0.571831 l 1.42162,-1.08237 c 0.39722,-0.302372 0.40897,-0.312889 0.44265,-0.309912 0.0493,0.0043 0.13414,0.12736 0.89837,1.043833 0.01,0.01138 0.75556,0.908854 1.06894,1.286279 0.0241,0.02913 0.49633,0.590516 0.68482,0.815353 0.15519,0.185262 0.22208,0.266933 0.72709,0.868246 0.28103,0.335614 0.36576,0.436034 0.37239,0.443974 0.0174,0.0207 0.17737,0.212863 0.97239,1.169247 l 0.11909,0.1435 1.10033,1.317008 c 0.14512,0.174305 0.29614,0.355983 0.45376,0.544422 0.5443,0.651931 0.63714,0.760875 0.66613,0.796781 0.1245,0.153991 0.0873,0.125079 0.0938,0.206151 -2.96551,2.302348 -2.03296,1.578447 -4.1968,3.257698 -0.4558,0.353737 -0.35353,0.274206 -0.43461,0.337129 l -1.64052,1.27573 c -1.3176,1.024709 -1.31846,1.023646 -1.33028,1.032842 l -1.59243,1.238687 -1.74879,1.362509 -1.65846,1.284362 -1.26839,0.989034 c -0.20655,0.161245 -2.66438,2.072352 -2.73748,2.129085 -0.1626,0.126207 -0.49254,0.384288 -1.26059,0.981099 -0.75209,0.584293 -0.66862,0.519368 -0.7521,0.584429 l -1.85164,1.442247 -1.0625,0.824953 c -0.30913,0.239429 0.0478,-0.03335 -0.68834,0.533728 -0.16077,0.123797 -0.48091,0.373275 -1.0617,0.822357 -0.88908,0.687361 -0.84721,0.65505 -0.85493,0.660926 -0.38,0.289725 -0.32683,0.235391 -0.36787,0.256065 -0.11487,-0.07995 -0.22505,-0.240018 -0.9803,-1.222879 -0.0454,-0.05959 -0.58552,-0.766183 -0.60177,-0.787031 -0.18282,-0.235296 0.0412,0.05912 -0.66205,-0.854689 -0.006,-0.0079 -0.63664,-0.821197 -0.68848,-0.888508 l -0.9586,-1.241981 c -0.0557,-0.07238 -0.45172,-0.587176 -0.46411,-0.603232 -0.007,-0.0074 -0.50837,-0.656768 -0.63561,-0.820873 -0.57771,-0.744583 -0.48686,-0.643734 -0.59362,-0.732336 -0.61356,0.377821 -0.94558,0.775056 -1.09251,0.754772 -0.0763,-0.01063 -0.0827,-0.05526 -0.44379,-0.524022 -0.0639,-0.08257 -0.80845,-1.044048 -0.84558,-1.092899 -0.14108,-0.186466 -0.17553,-0.229351 -0.17305,-0.267363 0.004,-0.06638 0.0713,-0.10483 0.72658,-0.600891 l 1.14969,-0.870403 c 0.15434,-0.11681 1.11473,-0.847032 2.0398,-1.548677 l 1.43834,-1.090935 c 0.43624,-0.330732 0.41606,-0.293168 0.42004,-0.295401 0.23866,0.218189 1.0372,1.353222 1.23986,1.519722 0.30014,-0.196229 -0.0751,-0.111182 0.70247,-0.539143 0.60666,-0.333898 0.36709,-0.09854 0.7542,-0.188297 -0.0135,-0.02157 -0.1426,-0.215556 -0.14429,-0.217201 -0.007,-0.0065 -0.30465,-0.163051 -0.44158,-0.286385 -0.27303,-0.24595 -0.36275,-0.528088 -0.37356,-0.555761 -0.009,-0.02061 -0.27425,-0.566762 0.12536,-1.223003 0.39976,-0.657257 1.19581,-0.753792 1.54333,-0.663993 0.62353,0.161297 1.0658,0.643607 1.11245,1.196608 0.0871,-0.04678 0.10322,-0.03961 1.27412,-0.944557 0.75038,-0.580003 0.45189,-0.532086 0.80278,-0.725168 0.73009,-0.401609 0.53053,-0.310155 0.96459,-0.318186 -0.0279,-0.0395 -0.009,-0.02096 -0.11508,-0.157255 l -0.76534,-0.96822 c -0.46422,-0.58696 -0.47243,-0.549675 -0.45412,-0.641763 0.0179,-0.09034 0.19813,-0.181397 0.62496,-0.506929 l 1.15802,-0.883042 c 0.064,-0.04888 0.10514,-0.07789 0.13177,-0.07407 0.0877,0.01252 0.62791,0.80018 1.26484,1.512796 0.19666,-0.131951 1.10104,-0.818107 1.24665,-0.947164 -1.28369,-1.655671 -1.19473,-1.386042 -1.18573,-1.606448 0.95408,-0.691201 2.07283,-1.62589 2.77154,-1.893857 0.19463,-0.07464 0.89369,-0.362019 1.6787,-0.02122 0.67115,0.291334 1.02647,0.814702 1.17394,0.962572 0.0568,-0.504249 -0.0978,-0.138628 0.28583,-0.925616 0.22854,-0.46897 -0.0385,0.02455 0.42936,-0.494172 0.003,-0.0035 0.12423,-0.186449 0.38326,-0.343036 0.83746,-0.506362 0.65057,-0.335816 1.11176,-0.449827 0.40321,-0.09957 0.65458,0.04004 0.68737,0.02394 z"
         id="path902" />
    </g>
  </g>
</svg>
