<?xml version="1.0" encoding="UTF-8" standalone="no"?>
<!-- exported from Silhouette Studio Business Edition V4.1.479ssbe -->

<svg
   xmlns:dc="http://purl.org/dc/elements/1.1/"
   xmlns:cc="http://creativecommons.org/ns#"
   xmlns:rdf="http://www.w3.org/1999/02/22-rdf-syntax-ns#"
   xmlns:svg="http://www.w3.org/2000/svg"
   xmlns="http://www.w3.org/2000/svg"
   xmlns:sodipodi="http://sodipodi.sourceforge.net/DTD/sodipodi-0.dtd"
   xmlns:inkscape="http://www.inkscape.org/namespaces/inkscape"
   version="1.1"
   width="304.8mm"
   height="600mm"
   viewBox="0 0 304.8 600"
   id="svg18"
   sodipodi:docname="t540_PR_FP.svg"
   inkscape:version="0.92.3 (2405546, 2018-03-11)">
  <metadata
     id="metadata22">
    <rdf:RDF>
      <cc:Work
         rdf:about="">
        <dc:format>image/svg+xml</dc:format>
        <dc:type
           rdf:resource="http://purl.org/dc/dcmitype/StillImage" />
      </cc:Work>
    </rdf:RDF>
  </metadata>
  <sodipodi:namedview
     pagecolor="#ffffff"
     bordercolor="#666666"
     borderopacity="1"
     objecttolerance="10"
     gridtolerance="10"
     guidetolerance="10"
     inkscape:pageopacity="0"
     inkscape:pageshadow="2"
     inkscape:window-width="1908"
     inkscape:window-height="926"
     id="namedview20"
     showgrid="false"
     inkscape:zoom="0.10406944"
     inkscape:cx="575.99998"
     inkscape:cy="1133.8583"
     inkscape:window-x="0"
     inkscape:window-y="28"
     inkscape:window-maximized="1"
     inkscape:current-layer="svg18" />
  <defs
     id="defs2" />
  <g
     id="g836">
    <path
       id="path4"
       stroke-linejoin="round"
       stroke-linecap="round"
       stroke-width="0.3527778"
       stroke-opacity="1"
       stroke="#000000"
       fill-opacity="1"
       fill="none"
       d="M 146.43 392.356 L 146.881 392.4757 C 148.0706 392.831 148.0957 393.1197 148.1948 393.1866 C 148.4988 393.3918 148.1446 393.349 148.7589 393.3086 C 149.0582 393.136 148.6647 393.391 150.3352 392.3379 C 152.2696 394.588 152.2082 394.6736 151.8667 395.124 C 151.7211 395.316 147.8357 398.4558 147.6857 398.5768 C 147.401 398.8064 143.975 401.5488 143.9077 401.6024 C 141.3136 403.6667 141.1611 403.7897 140.6142 403.3127 C 140.5205 403.231 140.3725 402.989 139.2181 401.4465 C 139.1812 401.3971 135.1404 396.0612 135.0285 395.9138 L 128.3919 387.1796 C 128.3059 387.0663 125.1731 382.9901 125.1441 382.9526 C 124.9443 382.6939 122.5146 379.5667 122.491 379.5364 C 121.1871 377.8691 118.9227 375.0142 118.7617 374.8001 C 118.2007 374.0544 118.2969 374.1091 118.5473 373.7831 C 118.8169 373.4322 119.9506 372.7046 124.2088 369.4805 C 126.7748 367.5375 126.5693 367.3577 126.4443 366.9398 C 126.203 366.1331 125.5078 366.2707 126.0872 365.5497 C 126.3111 365.2712 127.9207 364.0703 128.1415 364.1035 C 128.369 364.1376 128.1563 364.1201 128.3863 364.3275 C 128.4324 364.369 131.9649 368.6924 132.7955 369.7356 C 133.7181 370.8945 133.562 370.8737 133.2178 371.25 C 132.7419 371.7703 131.751 372.0954 131.8976 372.8318 C 131.9155 372.9218 132.1864 373.6828 132.9653 373.4095 C 133.5971 373.1877 135.1069 372.0404 136.1707 373.3969 C 137.2932 374.8279 135.8385 375.9191 135.1084 376.9621 C 136.9392 379.2605 137.3152 380.0175 138.1143 379.6855 C 138.6347 379.4694 138.9833 378.7666 139.6195 378.9163 C 140.1328 379.037 140.9325 380.0049 141.0885 380.3909 C 141.2862 380.8805 141.2059 381.1505 140.9977 381.4478 C 140.5467 382.0914 139.313 382.313 140.0643 383.4211 C 140.7286 384.4009 141.6861 383.309 142.0076 383.0803 C 142.2955 382.8755 142.5375 382.6626 143.032 382.953 C 143.8792 383.4505 145.3992 385.8247 145.1383 387.1581 C 144.8982 388.3856 143.8995 388.4989 144.4246 389.3124 C 144.6046 389.5914 145.2666 389.8567 145.7811 391.1243 C 146.3396 392.5004 146.43 392.356 146.43 392.356" />
    <path
       id="path6"
       stroke-linejoin="round"
       stroke-linecap="round"
       stroke-width="0.3527778"
       stroke-opacity="1"
       stroke="#000000"
       fill-opacity="1"
       fill="none"
       d="M 185.2769 49.43727 C 184.9133 49.55644 183.8055 49.84727 184.6997 50.3614 C 184.8965 50.47456 184.9138 50.20876 188.6259 52.00569 C 192.5338 53.89738 191.5455 53.18202 192.6577 54.28136 C 192.7246 131.6808 192.7325 137.4283 192.7328 140.4936 L 192.7368 172.9555 L 192.7132 218.7889 L 192.6826 251.61 C 192.6791 255.482 192.66 265.3157 192.6596 265.4386 L 192.632 273.0313 C 192.6317 273.1188 192.5938 277.9167 192.5936 277.9605 C 192.5772 281.151 192.7281 282.8053 191.8278 283.3867 C 191.1275 283.8389 188.9066 283.7634 184.8928 283.798 C 181.7777 283.825 181.4894 283.8688 181.331 284.5981 C 181.318 284.6581 181.2838 286.6514 181.2811 286.8965 C 181.2725 287.6857 181.2444 292.4208 181.2432 292.8154 L 181.2182 301.4579 L 181.2037 311.9268 C 181.2002 314.4303 181.2063 327.0148 181.2065 327.1501 C 181.2073 327.5964 181.2213 331.8466 181.2217 331.9316 C 181.2585 339.3051 181.1281 339.4623 182.1127 339.6328 C 183.946 339.9502 191.0962 338.6229 192.2811 340.5579 L 192.4097 340.7955 C 192.598 341.3002 192.6394 345.8758 192.6451 348.3671 L 192.6613 356.3259 L 192.6692 377.8743 L 192.6603 392.3494 L 192.6249 403.1479 C 192.6248 403.1916 192.5918 407.9738 192.5905 408.061 C 192.5388 411.462 192.7726 411.1607 191.1236 411.9773 C 189.6771 412.6934 187.4126 413.7487 183.8698 415.0944 C 182.5429 415.5984 182.6658 415.5336 182.6812 415.6927 C 182.7009 415.8974 183.3918 416.0848 183.3918 416.0848" />
    <path
       id="path8"
       stroke-linejoin="round"
       stroke-linecap="round"
       stroke-width="0.3527778"
       stroke-opacity="1"
       stroke="#000000"
       fill-opacity="1"
       fill="none"
       d="M 183.4347 419.5724 L 152.5744 419.5735 L 137.707 419.5686 L 120.2933 419.5335 C 120.1935 419.5333 109.2709 419.4828 109.0714 419.4816 C 104.6232 419.4541 104.2684 419.5273 103.4869 418.8268 C 103.4691 418.8109 102.242 417.7433 102.2438 416.4601 L 102.2697 398.8867 L 102.2791 386.9971 L 102.4137 150.3382 L 102.4728 90.50595 L 102.5129 69.19751 L 102.5527 56.82175 L 102.5982 49.79352 C 102.6125 47.57501 102.0407 47.12978 105.201 45.59213 L 174.5434 45.57666 L 185.3307 45.57671" />
    <path
       id="path10"
       stroke-linejoin="round"
       stroke-linecap="round"
       stroke-width="0.3527778"
       stroke-opacity="1"
       stroke="#000000"
       fill-opacity="1"
       fill="none"
       d="M 107.2916 229.9817 L 107.4798 230.2934 C 108.3802 231.6693 109.2014 232.1877 109.2379 232.2161 C 109.4314 232.2282 109.7214 232.2982 116.507 232.3598 C 116.5507 232.3602 121.3857 232.3935 121.4295 232.3937 L 133.7037 232.4414 L 147.7492 232.4639 L 161.8051 232.4547 C 162.0238 232.4545 174.0016 232.414 174.111 232.4134 C 174.8145 232.4102 178.8817 232.3837 179.0575 232.3834 C 188.1709 232.37 188.0663 233.1023 188.1258 226.7422 C 188.1262 226.6981 188.1506 222.1933 188.1512 221.7738 L 188.1749 206.8365 L 188.1582 177.7269 L 188.1297 156.0506 C 188.1268 153.7798 188.1067 145.5007 188.1064 145.4061 C 188.1033 144.4751 188.0803 139.3 188.08 139.2453 C 188.0768 138.7893 188.0337 134.4033 188.0329 134.3598 C 187.978 131.1722 187.9416 131.2756 187.6769 130.9626 C 187.3687 130.598 186.3212 130.1153 186.0023 129.9572 L 145.2179 129.9691 L 131.8376 129.9801 L 119.8633 130.0155 L 112.4116 130.0699 C 110.2841 130.0853 109.2853 129.8476 107.9489 131.3681 C 106.6789 132.8131 107.0509 133.9331 107.0454 136.8435 L 107.0259 147.2829 L 107.0079 182.3399 L 107.0139 207.8006 L 107.0269 216.317 C 107.0278 216.8223 107.0494 222.2476 107.0497 222.3009 C 107.1017 229.9512 107.2916 229.9817 107.2916 229.9817" />
    <path
       id="path12"
       stroke-linejoin="round"
       stroke-linecap="round"
       stroke-width="0.3527778"
       stroke-opacity="1"
       stroke="#000000"
       fill-opacity="1"
       fill="none"
       d="M 145.8805 319.592 L 146.1324 320.0973 L 155.4026 320.0973 L 155.5939 319.7323 C 155.8732 319.1909 155.9677 318.8467 155.9851 315.8357 C 155.9859 315.7018 155.9697 311.2838 155.9668 310.8152 C 155.9294 304.9085 155.8236 304.7333 155.1617 304.4765 C 154.7174 304.3042 152.9297 304.3904 148.4662 304.2124 C 146.2413 304.1237 146.2994 303.9081 145.9915 304.5096 C 145.7567 304.9681 145.568 306.2298 145.6036 312.7786 C 145.64 319.4764 145.8805 319.592 145.8805 319.592" />
    <path
       id="path14"
       stroke-linejoin="round"
       stroke-linecap="round"
       stroke-width="0.3527778"
       stroke-opacity="1"
       stroke="#000000"
       fill-opacity="1"
       fill="none"
       d="M 185.2437 49.33977 L 185.171 45.48863" />
    <path
       id="path16"
       stroke-linejoin="round"
       stroke-linecap="round"
       stroke-width="0.3527778"
       stroke-opacity="1"
       stroke="#000000"
       fill-opacity="1"
       fill="none"
       d="M 183.3288 419.52 L 183.3288 416.1048" />
  </g>
</svg>
