<?xml version="1.0" encoding="UTF-8" standalone="no"?>
<!-- Created with Inkscape (http://www.inkscape.org/) -->

<svg
   xmlns:dc="http://purl.org/dc/elements/1.1/"
   xmlns:cc="http://creativecommons.org/ns#"
   xmlns:rdf="http://www.w3.org/1999/02/22-rdf-syntax-ns#"
   xmlns:svg="http://www.w3.org/2000/svg"
   xmlns="http://www.w3.org/2000/svg"
   xmlns:sodipodi="http://sodipodi.sourceforge.net/DTD/sodipodi-0.dtd"
   xmlns:inkscape="http://www.inkscape.org/namespaces/inkscape"
   width="594mm"
   height="841mm"
   viewBox="0 0 594 841"
   version="1.1"
   id="svg8"
   inkscape:version="0.92.3 (2405546, 2018-03-11)"
   sodipodi:docname="T540_W540_W541_PR_NO_FP.svg">
  <defs
     id="defs2" />
  <sodipodi:namedview
     id="base"
     pagecolor="#ffffff"
     bordercolor="#666666"
     borderopacity="1.0"
     inkscape:pageopacity="0.0"
     inkscape:pageshadow="2"
     inkscape:zoom="0.35"
     inkscape:cx="1851.1456"
     inkscape:cy="1706.7167"
     inkscape:document-units="mm"
     inkscape:current-layer="layer1-5"
     showgrid="false"
     showguides="false"
     inkscape:guide-bbox="true"
     inkscape:window-width="1920"
     inkscape:window-height="1017"
     inkscape:window-x="-8"
     inkscape:window-y="-8"
     inkscape:window-maximized="1">
    <sodipodi:guide
       position="373.10827,258.7169"
       orientation="1,0"
       id="guide1601"
       inkscape:locked="false" />
  </sodipodi:namedview>
  <metadata
     id="metadata5">
    <rdf:RDF>
      <cc:Work
         rdf:about="">
        <dc:format>image/svg+xml</dc:format>
        <dc:type
           rdf:resource="http://purl.org/dc/dcmitype/StillImage" />
        <dc:title></dc:title>
      </cc:Work>
    </rdf:RDF>
  </metadata>
  <g
     inkscape:label="Layer 1"
     inkscape:groupmode="layer"
     id="layer1"
     transform="translate(0,544)">
    <g
       id="layer1-5"
       inkscape:label="Layer 1"
       transform="translate(500.06249,-91.470238)">
      <g
         id="g1619"
         style="stroke:#000000;stroke-opacity:1;stroke-width:0.35277778;stroke-miterlimit:4;stroke-dasharray:none">
        <path
           style="opacity:1;fill:none;fill-opacity:0.28372097;stroke:#000000;stroke-width:0.35277778;stroke-miterlimit:4;stroke-dasharray:none;stroke-opacity:1"
           d="M -310.50836,-52.854416 H 56.138855 c 1.662,0 3,1.338 3,3 V 173.7928 c 0,1.662 -1.338,3 -3,3 H -310.50836 c -1.662,0 -3,-1.338 -3,-3 V -49.854416 c 0,-1.662 1.338,-3 3,-3 z"
           id="rect979" />
        <path
           id="path1024"
           d="m 33.953557,134.01007 c 0.126069,-0.0608 0.02446,-0.34677 0.02317,-0.4086 -0.0059,-0.31506 0.138161,-0.5153 0.156722,-0.55465 0.09104,-0.19282 4.12e-4,-0.18669 0.420506,-0.60636 0.445219,-0.44522 0.602882,-0.3603 0.630924,-0.44121 0.01682,-0.0484 -0.101157,-0.18801 -0.215099,-0.33443 -0.02964,-0.0381 -0.620514,-0.78739 -0.670963,-0.85189 -0.548023,-0.70172 -0.448889,-0.57077 -0.454159,-0.70043 l 1.714924,-1.29035 c 0.478965,-0.36074 0.493257,-0.37321 0.533543,-0.36887 0.05881,0.006 0.157969,0.15679 1.054829,1.28167 0.01176,0.0139 0.886698,1.11552 1.25445,1.57876 0.02835,0.0358 0.582568,0.72487 0.803796,1.00087 0.182129,0.2274 0.260607,0.32763 0.853351,1.06573 0.329853,0.41198 0.429304,0.53524 0.437079,0.54499 0.02047,0.0254 0.208147,0.26126 1.14113,1.43511 l 0.139773,0.17613 1.291348,1.61655 c 0.170296,0.21394 0.347543,0.43694 0.532519,0.66824 0.638805,0.8002 0.747795,0.93396 0.781789,0.97801 0.146053,0.18896 0.102215,0.15325 0.108449,0.25175 -3.57796,2.74589 -2.452827,1.88249 -5.063705,3.88501 -0.54994,0.42185 -0.426564,0.327 -0.524369,0.40204 l -1.979448,1.52144 c -1.589796,1.22207 -1.590525,1.22113 -1.604793,1.2321 l -1.921389,1.47728 -2.110106,1.62498 -2.000703,1.53199 -1.530537,1.17948 c -0.249233,0.19232 -3.214807,2.4715 -3.303025,2.53915 -0.196186,0.15052 -0.59432,0.45834 -1.521009,1.17008 -0.907458,0.69682 -0.806725,0.61938 -0.90747,0.69697 l -2.234058,1.72027 -1.281903,0.98391 c -0.372974,0.28552 0.05752,-0.0398 -0.830308,0.63677 -0.193962,0.14761 -0.580263,0.44515 -1.281185,0.98039 -1.072473,0.81994 -1.022106,0.78123 -1.03134,0.78833 -0.458628,0.34512 -0.394029,0.28033 -0.443372,0.30475 -0.135774,-0.0988 -0.264619,-0.29501 -1.149693,-1.50034 -0.05317,-0.0731 -0.686078,-0.93955 -0.705121,-0.96513 -0.2143,-0.28858 0.04917,0.0717 -0.775967,-1.04823 -0.0071,-0.009 -0.746183,-1.00716 -0.806924,-1.08971 l -1.123475,-1.52316 c -0.06528,-0.0887 -0.5293438,-0.7201 -0.5438818,-0.73978 -0.0071,-0.009 -0.595837,-0.80548 -0.744984,-1.00675 -0.677103,-0.91322 -0.570359,-0.78931 -0.696299,-0.8986 -0.738644,0.44848 -1.141589,0.92515 -1.316637,0.89813 -0.09092,-0.0136 -0.09786,-0.0684 -0.520946,-0.64331 -0.07481,-0.10131 -0.947544,-1.28047 -0.991041,-1.34036 -0.165274,-0.22865 -0.205701,-0.28125 -0.20209,-0.32735 0.0059,-0.0805 0.08669,-0.12607 0.877264,-0.71738 l 1.386823,-1.03755 c 0.186434,-0.13886 1.344667,-1.00976 2.4605548,-1.84617 l 1.735037,-1.30045 c 0.526262,-0.39416 0.501491,-0.349 0.506278,-0.35163 0.281227,0.26874 1.215445,1.65946 1.454539,1.86489 0.361542,-0.23324 -0.08763,-0.13618 0.847611,-0.64265 0.729681,-0.39531 0.439809,-0.11354 0.903353,-0.21616 -0.01588,-0.0265 -0.166602,-0.26398 -0.16859,-0.266 -0.0082,-0.008 -0.360906,-0.2029 -0.522298,-0.35484 -0.321784,-0.303 -0.424153,-0.64691 -0.436597,-0.68066 -0.0082,-0.0251 -0.317903,-0.69241 0.169672,-1.48239 0.488152,-0.79115 1.439919,-0.89525 1.853203,-0.78055 0.741573,0.20602 1.261425,0.79868 1.307851,1.47063 0.104803,-0.0553 0.123846,-0.0464 1.536582,-1.1255 0.905423,-0.69154 0.548246,-0.63838 0.970316,-0.86698 0.878158,-0.47544 0.638417,-0.36771 1.156645,-0.37035 -0.0327,-0.0485 -0.0094,-0.0255 -0.13475,-0.19274 l -0.897354,-1.18773 c -0.544282,-0.72003 -0.554704,-0.67491 -0.531308,-0.78638 0.02294,-0.1093 0.239506,-0.21691 0.754429,-0.605 l 1.396939,-1.05275 c 0.07716,-0.0582 0.126658,-0.093 0.158534,-0.0878 0.10445,0.0165 0.736115,0.9815 1.484451,1.85688 0.236954,-0.15691 1.327858,-0.97486 1.503824,-1.12911 -1.504589,-2.03061 -1.402914,-1.7019 -1.38847,-1.96926 1.150317,-0.82325 2.501276,-1.93933 3.339724,-2.2531 0.233566,-0.0874 1.072756,-0.42471 2.004044,0.002 0.796233,0.36463 1.211599,1.00569 1.385177,1.18759 0.0761,-0.6111 -0.114331,-0.16988 0.356613,-1.11875 0.280615,-0.56543 -0.04623,0.0295 0.520733,-0.59273 0.0035,-0.005 0.151406,-0.22427 0.463192,-0.41007 1.008039,-0.60082 0.78213,-0.39689 1.334516,-0.5277 0.482917,-0.11424 0.780636,0.0594 0.82004,0.0404 z"
           inkscape:connector-curvature="0"
           style="fill:none;fill-opacity:1;stroke:#000000;stroke-width:0.35277778;stroke-linecap:round;stroke-linejoin:round;stroke-opacity:1;stroke-miterlimit:4;stroke-dasharray:none" />
        <path
           style="opacity:1;fill:none;fill-opacity:0.28372097;stroke:#000000;stroke-width:0.35277778;stroke-miterlimit:4;stroke-dasharray:none;stroke-opacity:1"
           d="M -306.35559,-29.581367 H 52.291621 c 1.662003,0 3.000005,1.338002 3.000005,3.000004 V 83.065845 c 0,1.662002 -1.338002,3.000004 -3.000005,3.000004 H -306.35559 c -1.662,0 -3,-1.338002 -3,-3.000004 V -26.581363 c 0,-1.662002 1.338,-3.000004 3,-3.000004 z"
           id="rect1599" />
        <path
           style="opacity:1;fill:none;fill-opacity:0.28372097;stroke:#000000;stroke-width:0.35277778;stroke-miterlimit:4;stroke-dasharray:none;stroke-opacity:1"
           d="m -226.86114,91.898354 h 94.64721 c 1.662,0 3,1.338002 3,3.000004 v 74.647212 c 0,1.66201 -1.338,3.00001 -3,3.00001 h -94.64721 c -1.662,0 -3.00001,-1.338 -3.00001,-3.00001 V 94.898358 c 0,-1.662002 1.33801,-3.000004 3.00001,-3.000004 z"
           id="rect1603" />
        <path
           style="opacity:1;fill:none;fill-opacity:0.28372097;stroke:#000000;stroke-width:0.35277778;stroke-miterlimit:4;stroke-dasharray:none;stroke-opacity:1"
           d="m -227.51743,105.66663 h 95.64723 c 0.554,0 1,0.446 1,1 v 52.64723 c 0,0.554 -0.446,1 -1,1 h -95.64723 c -0.554,0 -1,-0.446 -1,-1 v -52.64723 c 0,-0.554 0.446,-1 1,-1 z"
           id="rect1609" />
        <path
           style="opacity:1;fill:none;fill-opacity:0.28372097;stroke:#000000;stroke-width:0.35277778;stroke-miterlimit:4;stroke-dasharray:none;stroke-opacity:1"
           d="m 30.313769,-40.362522 a 6.0736113,6.0736108 0 0 1 -6.073611,6.073611 6.0736113,6.0736108 0 0 1 -6.073611,-6.073611 6.0736113,6.0736108 0 0 1 6.073611,-6.073611 6.0736113,6.0736108 0 0 1 6.073611,6.073611 z"
           id="path1611" />
      </g>
    </g>
  </g>
</svg>
