<?xml version="1.0" encoding="UTF-8" standalone="no"?>
<!-- Created with Inkscape (http://www.inkscape.org/) -->

<svg
   xmlns:dc="http://purl.org/dc/elements/1.1/"
   xmlns:cc="http://creativecommons.org/ns#"
   xmlns:rdf="http://www.w3.org/1999/02/22-rdf-syntax-ns#"
   xmlns:svg="http://www.w3.org/2000/svg"
   xmlns="http://www.w3.org/2000/svg"
   xmlns:sodipodi="http://sodipodi.sourceforge.net/DTD/sodipodi-0.dtd"
   xmlns:inkscape="http://www.inkscape.org/namespaces/inkscape"
   width="210mm"
   height="297mm"
   viewBox="0 0 210 297"
   version="1.1"
   id="svg8"
   inkscape:version="0.92.4 (5da689c313, 2019-01-14)"
   sodipodi:docname="w541_PR_FP_SENSOR.svg">
  <defs
     id="defs2" />
  <sodipodi:namedview
     id="base"
     pagecolor="#ffffff"
     bordercolor="#666666"
     borderopacity="1.0"
     inkscape:pageopacity="0.0"
     inkscape:pageshadow="2"
     inkscape:zoom="0.35"
     inkscape:cx="405.71429"
     inkscape:cy="560"
     inkscape:document-units="mm"
     inkscape:current-layer="layer1"
     showgrid="false"
     inkscape:window-width="1920"
     inkscape:window-height="1078"
     inkscape:window-x="0"
     inkscape:window-y="49"
     inkscape:window-maximized="1" />
  <metadata
     id="metadata5">
    <rdf:RDF>
      <cc:Work
         rdf:about="">
        <dc:format>image/svg+xml</dc:format>
        <dc:type
           rdf:resource="http://purl.org/dc/dcmitype/StillImage" />
        <dc:title></dc:title>
      </cc:Work>
    </rdf:RDF>
  </metadata>
  <g
     inkscape:label="Layer 1"
     inkscape:groupmode="layer"
     id="layer1">
    <g
       id="g3745"
       transform="translate(-376.61111,-25.709747)">
      <path
         id="path3715"
         d="m -47.1391,259.1428 c -0.44916,-0.2877 -1.00214,-0.8063 -1.22888,-1.1523 -0.37592,-0.5738 -0.41198,-10.5761 -0.40955,-113.63 0.0024,-104.83937 0.03345,-113.035 0.43036,-113.47354 0.41394,-0.45752 6.42481,-0.47076 186.12457,-0.40771 151.9547,0.05328 185.7578,0.1261 186.0324,0.40075 0.2741,0.27417 0.3473,21.00532 0.3997,113.2097 0.0636,112.2703 0.0613,112.8787 -0.4495,113.7156 -0.2824,0.4628 -0.8923,1.0723 -1.355,1.3545 -0.8375,0.5105 -1.6902,0.5131 -184.7844,0.5096 l -183.94293,-0.003 z"
         inkscape:connector-curvature="0"
         style="fill:none;fill-opacity:1;stroke:#000000;stroke-width:0.35277781;stroke-linecap:round;stroke-linejoin:round;stroke-opacity:1" />
      <path
         id="path3717"
         d="m 136.3292,254.1243 c 1.5192,-1.375 1.4145,1.3994 1.4861,-39.3723 0.0479,-27.2492 -0.0135,-37.6031 -0.2281,-38.4072 -0.184,-0.6895 -0.6225,-1.3895 -1.1739,-1.8737 l -0.8803,-0.7729 -49.0601,0.0665 -49.06012,0.0665 -0.88367,0.9645 -0.88379,0.9643 -6e-5,38.2265 c 10e-6,40.7951 -0.05584,38.9321 1.19989,40.0466 0.263,0.2335 0.71058,0.4814 0.99457,0.5513 0.28394,0.0698 22.43207,0.1107 49.21802,0.0913 48.29496,-0.0356 48.70646,-0.04 49.27146,-0.5514 z"
         inkscape:connector-curvature="0"
         style="fill:none;fill-opacity:1;stroke:#000000;stroke-width:0.35277781;stroke-linecap:round;stroke-linejoin:round;stroke-opacity:1" />
      <path
         id="path3719"
         d="m 280.4677,242.5932 c 0.3101,-0.165 1.7147,-1.1815 3.1214,-2.259 1.4066,-1.0775 3.7511,-2.8425 5.2097,-3.9223 1.4586,-1.0797 3.5292,-2.6481 4.6015,-3.4853 1.0722,-0.8372 2.6549,-2.0451 3.5172,-2.684 0.8623,-0.639 2.2876,-1.7491 3.1675,-2.467 0.8799,-0.7179 2.2425,-1.7635 3.0282,-2.3236 3.304,-2.3557 4.3803,-3.3255 4.3803,-3.947 0,-0.3365 -0.4605,-1.2094 -1.0235,-1.9397 -0.563,-0.7303 -1.812,-2.3561 -2.7754,-3.6128 -3.3634,-4.3874 -3.8482,-4.9445 -4.3695,-5.021 -0.2887,-0.0423 -1.0086,0.2398 -1.5998,0.6268 -1.1668,0.7641 -1.3925,1.5906 -0.6882,2.521 0.3269,0.4318 0.3109,0.5722 -0.1374,1.2019 -0.2793,0.3921 -1.022,1.0143 -1.6506,1.3827 -0.9508,0.5572 -1.4633,0.6699 -3.047,0.6699 -1.7098,0 -2.0115,0.079 -2.9584,0.7755 -1.3128,0.9654 -1.9648,1.9291 -1.7543,2.5925 0.1442,0.4546 0.0327,0.5046 -1.1251,0.5046 -1.1183,0 -1.372,0.1033 -1.9536,0.7944 -0.7687,0.9137 -0.8129,1.2079 -0.2926,1.9508 0.344,0.4913 0.3135,0.5963 -0.3638,1.2451 -0.8204,0.7861 -1.5537,0.8915 -2.7418,0.394 -1.5636,-0.6548 -3.2081,0.3401 -3.2081,1.941 0,0.8797 -0.0269,0.9037 -1.0163,0.9037 -0.8682,0 -1.366,0.2724 -3.4206,1.8717 -1.3225,1.0295 -2.7141,2.0713 -3.0925,2.3152 -0.8122,0.5233 -0.7514,1.0523 0.2592,2.2576 0.5104,0.6087 0.9707,0.857 1.7911,0.9658 1.1527,0.1531 1.7993,0.7873 4.4336,4.3498 1.964,2.6562 2.5324,3.0235 3.7088,2.3977 z"
         inkscape:connector-curvature="0"
         style="fill:none;fill-opacity:1;stroke:#000000;stroke-width:0.35277781;stroke-linecap:round;stroke-linejoin:round;stroke-opacity:1" />
      <path
         id="path3721"
         d="m 193.0614,220.114 c 0.4966,-0.4025 0.457,-11.0176 -0.0437,-11.7023 -0.342,-0.4679 -0.7179,-0.5012 -5.6526,-0.5012 -4.8359,0 -5.3323,0.042 -5.8295,0.4919 -0.5191,0.4697 -0.5433,0.731 -0.5433,5.8241 0,5.5886 0.088,6.0631 1.1616,6.2536 1.1245,0.1996 10.6021,-0.1185 10.9075,-0.3661 z"
         inkscape:connector-curvature="0"
         style="fill:none;fill-opacity:1;stroke:#000000;stroke-width:0.35277781;stroke-linecap:round;stroke-linejoin:round;stroke-opacity:1" />
      <path
         id="path3723"
         d="m 224.3813,216.0342 c 0.4641,-0.2484 0.4994,-0.5822 0.4994,-4.7446 0,-3.8474 -0.0601,-4.5273 -0.4265,-4.8317 -0.6103,-0.5072 -13.3445,-0.648 -14.289,-0.158 l -0.6455,0.3347 -0.0704,4.5813 c -0.0701,4.554 -0.0671,4.5829 0.5163,4.8171 0.8328,0.3345 13.7909,0.3356 14.4157,0.001 z"
         inkscape:connector-curvature="0"
         style="fill:none;fill-opacity:1;stroke:#000000;stroke-width:0.35277781;stroke-linecap:round;stroke-linejoin:round;stroke-opacity:1" />
      <path
         id="path3725"
         d="m 244.2471,180.5392 c 0.2325,-0.2802 0.3336,-1.7153 0.3543,-5.0282 l 0.0289,-4.636 0.7158,-0.7163 0.7159,-0.7162 34.2407,-0.0684 c 30.9397,-0.0617 34.3011,-0.0286 34.8673,0.3425 0.6219,0.4074 1.9378,2.9986 3.32,6.5374 0.472,1.2085 0.8928,1.8782 1.2956,2.0618 0.5505,0.2508 0.6099,0.2016 0.7668,-0.6345 0.2651,-1.4138 -0.4198,-121.43252 -0.6995,-122.54147 -0.1337,-0.53009 -0.4631,-1.08172 -0.7324,-1.22583 -0.5388,-0.28833 -362.87099,-0.39172 -363.62123,-0.10376 -1.23371,0.47345 -1.17615,-2.59558 -1.17615,62.69356 0,60.9566 9.2e-4,61.0712 0.51776,61.0712 0.41034,0 0.90589,-0.7903 2.38806,-3.8082 1.34491,-2.7383 2.05158,-3.8975 2.51569,-4.1268 0.50922,-0.2516 24.50641,-0.3197 113.72192,-0.3224 107.14115,-0.003 113.12395,0.0202 113.98015,0.448 1.3214,0.6601 1.5535,1.5807 1.5141,6.0022 -0.0402,4.4931 -0.0622,4.255 0.4404,4.7578 0.3637,0.3636 3.2099,0.4056 27.4632,0.4056 23.8839,0 27.0954,-0.0459 27.3827,-0.392 z"
         inkscape:connector-curvature="0"
         style="fill:none;fill-opacity:1;stroke:#000000;stroke-width:0.35277781;stroke-linecap:round;stroke-linejoin:round;stroke-opacity:1" />
      <path
         id="path3727"
         d="m 291.4568,47.41498 c 3.4195,-2.03717 4.6392,-5.03552 3.3672,-8.27661 -0.6828,-1.73981 -1.3037,-2.39856 -3.1358,-3.32715 -1.9367,-0.98151 -3.5771,-1.0047 -5.4373,-0.07678 -2.858,1.42559 -4.3752,4.17059 -3.8101,6.89288 0.3486,1.67895 2.0558,3.763 3.8469,4.69592 1.6089,0.83795 3.8496,0.87781 5.1691,0.09174 z"
         inkscape:connector-curvature="0"
         style="fill:none;fill-opacity:1;stroke:#000000;stroke-width:0.35277781;stroke-linecap:round;stroke-linejoin:round;stroke-opacity:1" />
      <path
         id="path3729"
         d="m 39.09808,248.6544 c -0.30182,-0.0597 -0.79748,-0.3734 -1.1015,-0.6972 l -0.55279,-0.5883 0.0064,-28.7581 c 0.0056,-25.4438 0.05194,-28.8036 0.40081,-29.1525 0.35096,-0.351 5.74268,-0.3944 48.94306,-0.3944 h 48.54873 l 0.4969,0.6135 c 0.4846,0.5985 0.4952,1.3153 0.429,28.9754 l -0.0679,28.3616 -0.844,0.844 -0.844,0.844 -47.43297,0.0303 C 60.9917,248.7494 39.3999,248.7142 39.09808,248.6544 Z"
         inkscape:connector-curvature="0"
         style="fill:none;fill-opacity:1;stroke:#000000;stroke-width:0.35277781;stroke-linecap:round;stroke-linejoin:round;stroke-opacity:1" />
    </g>
  </g>
</svg>
