<?xml version="1.0" encoding="UTF-8" standalone="no"?>
<!-- Created with Inkscape (http://www.inkscape.org/) -->

<svg
   xmlns:dc="http://purl.org/dc/elements/1.1/"
   xmlns:cc="http://creativecommons.org/ns#"
   xmlns:rdf="http://www.w3.org/1999/02/22-rdf-syntax-ns#"
   xmlns:svg="http://www.w3.org/2000/svg"
   xmlns="http://www.w3.org/2000/svg"
   xmlns:sodipodi="http://sodipodi.sourceforge.net/DTD/sodipodi-0.dtd"
   xmlns:inkscape="http://www.inkscape.org/namespaces/inkscape"
   width="210mm"
   height="297mm"
   viewBox="0 0 210 297"
   version="1.1"
   id="svg8"
   inkscape:version="0.92.4 (5da689c313, 2019-01-14)"
   sodipodi:docname="optiplex_3010-9020_bottom.svg">
  <defs
     id="defs2" />
  <sodipodi:namedview
     id="base"
     pagecolor="#ffffff"
     bordercolor="#666666"
     borderopacity="1.0"
     inkscape:pageopacity="0.0"
     inkscape:pageshadow="2"
     inkscape:zoom="0.42079202"
     inkscape:cx="-872.52019"
     inkscape:cy="1026.8821"
     inkscape:document-units="mm"
     inkscape:current-layer="g4544"
     showgrid="false"
     inkscape:window-width="1600"
     inkscape:window-height="837"
     inkscape:window-x="-8"
     inkscape:window-y="-8"
     inkscape:window-maximized="1" />
  <metadata
     id="metadata5">
    <rdf:RDF>
      <cc:Work
         rdf:about="">
        <dc:format>image/svg+xml</dc:format>
        <dc:type
           rdf:resource="http://purl.org/dc/dcmitype/StillImage" />
        <dc:title></dc:title>
      </cc:Work>
    </rdf:RDF>
  </metadata>
  <g
     inkscape:label="Layer 1"
     inkscape:groupmode="layer"
     id="layer1">
    <g
       id="g4544">
      <g
         id="g4685">
        <path
           id="rect4623"
           d="m -322.70604,-171.74802 h 167.12488 c 1.28245,0 2.31489,1.03245 2.31489,2.3149 v 391.12488 c 0,1.28245 -1.03244,2.31489 -2.31489,2.31489 h -167.12488 c -1.28245,0 -2.3149,-1.03244 -2.3149,-2.31489 v -391.12488 c 0,-1.28245 1.03245,-2.3149 2.3149,-2.3149 z"
           style="fill:none;fill-opacity:0.32160806;stroke:#000000;stroke-width:0.35277778;stroke-miterlimit:4;stroke-dasharray:none;stroke-opacity:1" />
        <path
           id="rect4625"
           d="m -313.15313,172.28326 h 3.89943 c 0.52973,0 0.95618,0.42646 0.95618,0.95618 v 32.89944 c 0,0.52972 -0.42645,0.95618 -0.95618,0.95618 h -3.89943 c -0.52973,0 -0.95618,-0.42646 -0.95618,-0.95618 v -32.89944 c 0,-0.52972 0.42645,-0.95618 0.95618,-0.95618 z"
           style="fill:none;fill-opacity:0.68844222;stroke:#000000;stroke-width:0.35277778;stroke-miterlimit:4;stroke-dasharray:none;stroke-opacity:1" />
        <path
           id="rect4625-6"
           d="m 165.13407,172.28325 h 3.89943 c 0.52973,0 0.95618,0.42645 0.95618,0.95618 v 32.89944 c 0,0.52972 -0.42645,0.95618 -0.95618,0.95618 h -3.89943 c -0.52973,0 -0.95618,-0.42646 -0.95618,-0.95618 v -32.89944 c 0,-0.52973 0.42645,-0.95618 0.95618,-0.95618 z"
           style="fill:none;fill-opacity:0.68844222;stroke:#000000;stroke-width:0.35277778;stroke-miterlimit:4;stroke-dasharray:none;stroke-opacity:1"
           transform="scale(-1,1)" />
        <path
           id="rect4625-3"
           d="m -313.15313,120.02461 h 3.89943 c 0.52973,0 0.95618,0.42646 0.95618,0.95618 v 32.89944 c 0,0.52972 -0.42645,0.95618 -0.95618,0.95618 h -3.89943 c -0.52973,0 -0.95618,-0.42646 -0.95618,-0.95618 v -32.89944 c 0,-0.52972 0.42645,-0.95618 0.95618,-0.95618 z"
           style="fill:none;fill-opacity:0.68844222;stroke:#000000;stroke-width:0.35277778;stroke-miterlimit:4;stroke-dasharray:none;stroke-opacity:1"
           transform="scale(1,-1)" />
        <path
           id="rect4625-9"
           d="m 165.13407,120.02463 h 3.89943 c 0.52973,0 0.95618,0.42645 0.95618,0.95618 v 32.89944 c 0,0.52972 -0.42645,0.95618 -0.95618,0.95618 h -3.89943 c -0.52973,0 -0.95618,-0.42646 -0.95618,-0.95618 v -32.89944 c 0,-0.52973 0.42645,-0.95618 0.95618,-0.95618 z"
           style="fill:none;fill-opacity:0.68844222;stroke:#000000;stroke-width:0.35277778;stroke-miterlimit:4;stroke-dasharray:none;stroke-opacity:1"
           transform="scale(-1)" />
        <path
           id="rect4663"
           d="m -278.86399,85.44001 h 78.38991 c 1.09078,0 1.96892,0.878142 1.96892,1.968928 v 70.874802 c 0,1.09079 -0.87814,1.96893 -1.96892,1.96893 h -78.38991 c -1.09078,0 -1.96893,-0.87814 -1.96893,-1.96893 V 87.408938 c 0,-1.090786 0.87815,-1.968928 1.96893,-1.968928 z"
           style="fill:none;fill-opacity:0.68844222;stroke:#000000;stroke-width:0.35277778;stroke-miterlimit:4;stroke-dasharray:none;stroke-opacity:1" />
        <path
           id="rect4665"
           d="m -299.17413,-157.90123 h 120.62993 c 1.108,0 2,0.892 2,2 v 50.62994 c 0,1.108 -0.892,2 -2,2 h -120.62993 c -1.108,0 -2,-0.892 -2,-2 v -50.62994 c 0,-1.108 0.892,-2 2,-2 z"
           style="fill:none;fill-opacity:0.68844222;stroke:#000000;stroke-width:0.35277778;stroke-miterlimit:4;stroke-dasharray:none;stroke-opacity:1" />
      </g>
    </g>
  </g>
</svg>
