<?xml version="1.0" encoding="UTF-8" standalone="no"?>
<!-- Created with Inkscape (http://www.inkscape.org/) -->

<svg
   xmlns:dc="http://purl.org/dc/elements/1.1/"
   xmlns:cc="http://creativecommons.org/ns#"
   xmlns:rdf="http://www.w3.org/1999/02/22-rdf-syntax-ns#"
   xmlns:svg="http://www.w3.org/2000/svg"
   xmlns="http://www.w3.org/2000/svg"
   xmlns:sodipodi="http://sodipodi.sourceforge.net/DTD/sodipodi-0.dtd"
   xmlns:inkscape="http://www.inkscape.org/namespaces/inkscape"
   width="210mm"
   height="297mm"
   viewBox="0 0 210 297"
   version="1.1"
   id="svg8"
   inkscape:version="0.92.4 (5da689c313, 2019-01-14)"
   sodipodi:docname="optiplex_3010-9020_door.svg">
  <defs
     id="defs2" />
  <sodipodi:namedview
     id="base"
     pagecolor="#ffffff"
     bordercolor="#666666"
     borderopacity="1.0"
     inkscape:pageopacity="0.0"
     inkscape:pageshadow="2"
     inkscape:zoom="0.35"
     inkscape:cx="-1086.6723"
     inkscape:cy="1094.3557"
     inkscape:document-units="mm"
     inkscape:current-layer="g4544"
     showgrid="false"
     inkscape:window-width="1600"
     inkscape:window-height="837"
     inkscape:window-x="-8"
     inkscape:window-y="-8"
     inkscape:window-maximized="1" />
  <metadata
     id="metadata5">
    <rdf:RDF>
      <cc:Work
         rdf:about="">
        <dc:format>image/svg+xml</dc:format>
        <dc:type
           rdf:resource="http://purl.org/dc/dcmitype/StillImage" />
        <dc:title></dc:title>
      </cc:Work>
    </rdf:RDF>
  </metadata>
  <g
     inkscape:label="Layer 1"
     inkscape:groupmode="layer"
     id="layer1">
    <g
       id="g4544">
      <g
         id="g4554">
        <path
           sodipodi:nodetypes="cssssssssc"
           inkscape:connector-curvature="0"
           id="rect3713"
           d="m -422.57736,-68.416541 v -31.910849 c 0,-1.662 1.338,-3 3,-3 h 390.999998 c 1.662,0 3,1.338 3,3 v 321 c 0,1.662 -1.338,3 -3,3 H -419.57736 c -1.662,0 -3,-1.338 -3,-3 V -44.238718"
           style="fill:none;fill-opacity:0.34673366;stroke:#000000;stroke-width:0.35277778;stroke-miterlimit:4;stroke-dasharray:none;stroke-opacity:1" />
        <path
           id="rect4520"
           d="m -252.08828,-84.178787 h 66.13686 c 2.34287,0 4.22901,1.886137 4.22901,4.229007 V 9.1870842 c 0,2.3428698 -1.88614,4.2290078 -4.22901,4.2290078 h -66.13686 c -2.34287,0 -4.22901,-1.886138 -4.22901,-4.2290078 V -79.94978 c 0,-2.34287 1.88614,-4.229007 4.22901,-4.229007 z"
           style="fill:none;fill-opacity:0.34673366;stroke:#000000;stroke-width:0.35277778;stroke-miterlimit:4;stroke-dasharray:none;stroke-opacity:1" />
        <path
           id="rect4522"
           d="m -397.26553,133.19128 h 66.65859 c 0.83704,0 1.5109,0.67387 1.5109,1.51091 v 71.65858 c 0,0.83704 -0.67386,1.5109 -1.5109,1.5109 h -66.65859 c -0.83704,0 -1.5109,-0.67386 -1.5109,-1.5109 v -71.65858 c 0,-0.83704 0.67386,-1.51091 1.5109,-1.51091 z"
           style="fill:none;fill-opacity:0.34673366;stroke:#000000;stroke-width:0.35277778;stroke-miterlimit:4;stroke-dasharray:none;stroke-opacity:1" />
        <path
           sodipodi:nodetypes="cccc"
           inkscape:connector-curvature="0"
           id="rect4526"
           d="m -422.43408,-68.301758 h 24.38728 v 24.387282 h -24.38728"
           style="fill:none;fill-opacity:0.34673366;stroke:#000000;stroke-width:0.35277778;stroke-miterlimit:4;stroke-dasharray:none;stroke-opacity:1" />
      </g>
    </g>
  </g>
</svg>
