<?xml version="1.0" encoding="utf-8"?>
<!-- Generator: Adobe Illustrator 24.2.2, SVG Export Plug-In . SVG Version: 6.00 Build 0)  -->
<svg version="1.1" id="Layer_1" xmlns="http://www.w3.org/2000/svg" xmlns:xlink="http://www.w3.org/1999/xlink" x="0px" y="0px"
	 viewBox="0 0 864 1700.8" style="enable-background:new 0 0 864 1700.8;" xml:space="preserve">
<style type="text/css">
	.st0{fill:none;stroke:#000000;stroke-linecap:round;stroke-linejoin:round;stroke-miterlimit:11.3386;}
</style>
<path class="st0" d="M306.4,541.3l-197.2-0.2"/>
<path class="st0" d="M81.7,781.8l-1.3-278.5c0-22.5-0.1-53.4-0.1-87.3l-0.3-123.4l0.9-3.3c1.8-6.7,2.8-8.9,6.5-14
	c3.7-5.1,10.3-10,15.5-11.4c1-0.3,2.2-0.8,2.7-1.1c0.5-0.3,2.3-0.8,4-1.1c3.6-0.6,115.6-1,365.3-1.4l161.8-0.3l4.6,1.1
	c4.7,1.1,11,3.4,11.4,4.1c0.1,0.2,0.9,0.6,1.6,1c2.1,0.9,7.2,5.1,10.6,8.7c2.1,2.2,3.8,4.7,5.6,8c3.6,6.6,5.1,10.7,6.1,16.7
	c0.8,4.6,0.9,7.2,1,29.8l0.1,24.7l-1,1l-1,1l-11.4,0c-9.7,0-11.6,0.1-12.7,0.7c-2.6,1.4-2.5,0.6-2.4,34.1
	c0.1,16.8,0.1,30.8,0.1,31.2c0,0.4-0.3,1-0.7,1.4c-0.6,0.6-1.6,0.7-6.9,0.6c-6.7-0.1-8.9,0.4-10.2,2.4c-0.5,0.8-0.5,35.6,0.3,270.6
	c0.7,202.4,1.1,269.9,1.4,270.8c0.8,2,2.2,2.4,9.5,2.5c7,0.1,7.9,0.3,8.3,1.4c0.2,0.4,0.3,14.6,0.4,31.6s0.2,31.4,0.4,32.1
	c0.7,2.4,1.6,2.5,14.2,2.5c6.3,0,11.8,0.1,12.2,0.3c1.9,0.7,1.9,0.7,1.9,28.4l-0.1,26.2l-1.1,4.4c-0.6,2.4-1.4,5.2-1.8,6.1
	c-1.3,3.2-2.7,6.3-3.3,7.4c-0.3,0.6-1.1,2-1.7,3.2c-1.3,2.5-8.2,9.6-11.7,12c-3,2.1-6.5,3.9-10.5,5.4c-6.7,2.5-2,2.3-99.1,3.2
	c-114.1,1-197,1.6-330.2,2.2c-102.5,0.5-106.6,0.5-108.4-0.2c-1-0.4-2.8-0.9-3.8-1.1c-1-0.2-2.9-0.8-4.2-1.4
	c-1.3-0.6-2.5-1.1-2.8-1.1c-1.6,0-9-6.2-11.6-9.7c-2.9-4-5.4-9.9-6.3-15.5c-0.8-4.7-0.8-8.3-1.5-165.7L81.7,781.8z"/>
<path class="st0" d="M232,1084.9c0.7,1.1,0.9,1.1,4.5,1.1c3.7,0,3.8,0,4.2-1.2c0.5-1.4,0.7-45.1,0.2-47.8c-0.2-1-0.5-2-0.8-2.3
	c-0.7-0.7-6.3-1.3-7.3-0.7c-2.1,1.1-2.1,1.5-1.9,26.4C231.3,1081.9,231.3,1083.8,232,1084.9L232,1084.9z"/>
<path class="st0" d="M307,779.7c0,0,0.3,71.1,0.6,147.9c0.6,151.6,0.5,142.2,2.9,147.1c1.7,3.4,6.2,8.1,9.4,9.8
	c5.4,3-5.8,2.8,148.2,2.2c153.3-0.6,141-0.3,146.7-3.3c4.2-2.3,5.1-3.2,8.6-8.5c1.8-2.8,2.3-4.6,2.8-10.1c0.2-2.9-0.1-136.4-1-368.8
	c-1.6-402.2-1.2-369.5-4-374.5c-2.4-4.2-4.2-6.5-6.2-7.8c-4.8-3.2-5.4-3.5-9.2-4.1c-3.5-0.6-16.5-0.6-141-0.1
	c-156.2,0.6-142.1,0.2-148.7,4.2c-2.8,1.7-3.9,2.7-5.6,5c-2.3,3.1-4.3,6.7-5,9.6c-0.3,1.3,0.8,213,0.8,213"/>
<path class="st0" d="M636.9,1097.7l0,1.8c0.2,12.8,0.2,13,3.5,15.3c1.6,1.1,1.9,1.2,8.3,1.3c6.5,0.1,6.6,0.1,8.5-1
	c1.1-0.6,2.4-1.8,3.1-2.6l1.1-1.5l0.1-10.8c0.1-7.4-0.1-25.7-0.1-36.9c0-6.4-0.2-10.9-0.5-11.6c-0.6-1.6-2.8-3.9-4.5-4.6
	c-2-0.8-13.6-0.5-15.7,0.4c-1.6,0.7-3.2,2.6-3.7,4.5c-0.2,0.6-0.3,6-0.3,11.9C636.8,1069.8,636.8,1081.1,636.9,1097.7L636.9,1097.7z
	"/>
<path class="st0" d="M635.6,337.8c1.5,3.1,2.8,4.7,4.4,5.2c1.5,0.6,12.5,0.5,14-0.1c1.5-0.6,2.9-1.9,4.3-4l1.1-1.7l0-22.3l0-22.3
	l-1.2-2.3c-1-1.8-1.7-2.5-3.7-3.6c-2.4-1.3-2.5-1.4-7.9-1.3c-5.9,0-6.4,0.2-10,3.3c-2.3,2-2.4,3.2-2.4,26.1l0,20.3L635.6,337.8
	L635.6,337.8z"/>
<path class="st0" d="M307.8,779.7l-197.7-0.8"/>
<path class="st0" d="M109.2,541.2l0.9,238"/>
</svg>
