<?xml version="1.0" encoding="utf-8"?>
<!-- Generator: Adobe Illustrator 25.2.1, SVG Export Plug-In . SVG Version: 6.00 Build 0)  -->
<svg version="1.1" id="Layer_1" xmlns="http://www.w3.org/2000/svg" xmlns:xlink="http://www.w3.org/1999/xlink" x="0px" y="0px"
	 viewBox="0 0 4280.3 1133.9" style="enable-background:new 0 0 4280.3 1133.9;" xml:space="preserve">
<style type="text/css">
	.st0{fill:none;stroke:#010101;stroke-linecap:round;stroke-linejoin:round;stroke-miterlimit:11.3386;}
</style>
<g>
	<path class="st0" d="M316,1020.1c-31.8,0.2-47.1,0.3-85.3,0.4l-106.3-0.2c-17.8,0.2-32.1-12.8-32.1-28.6l0.9-600.4
		c0-22.3-0.1-53-0.1-86.7L92.8,182l0.9-3.3c1.8-6.7,2.7-8.8,6.4-13.9c3.6-5.1,10.1-9.9,15.2-11.3c1-0.3,2.2-0.8,2.6-1.1
		c0.5-0.3,2.3-0.8,3.9-1.1c2.7-0.5,52-0.8,192.5-1.1"/>
	<path class="st0" d="M314.3,150.3c-0.3,1.3,0.4,273.5,0.4,273.5"/>
	<path class="st0" d="M315.4,669l0.6,351.1"/>
	<path class="st0" d="M315.4,669H120.1c-1.6,0-2.8-1.3-2.8-2.8V426.7c0-1.6,1.3-2.8,2.8-2.8h194.7"/>
	<g>
		<path class="st0" d="M254.8,664.2H132.9c-1.6,0-2.8-1.3-2.8-2.8V431.8c0-1.6,1.3-2.8,2.8-2.8h121.9c1.6,0,2.8,1.3,2.8,2.8v229.6
			C257.7,662.9,256.4,664.2,254.8,664.2z"/>
		<path class="st0" d="M280.3,546.6h-19.8c-1.6,0-2.8-1.3-2.8-2.8V436c0-1.6,1.3-2.8,2.8-2.8h19.8c1.6,0,2.8,1.3,2.8,2.8v107.7
			C283.2,545.3,281.9,546.6,280.3,546.6z"/>
		<path class="st0" d="M305.8,659.9H286c-1.6,0-2.8-1.3-2.8-2.8V549.4c0-1.6,1.3-2.8,2.8-2.8h19.8c1.6,0,2.8,1.3,2.8,2.8v107.7
			C308.7,658.7,307.4,659.9,305.8,659.9z"/>
		<path class="st0" d="M305.8,546.6H286c-1.6,0-2.8-1.3-2.8-2.8V436c0-1.6,1.3-2.8,2.8-2.8h19.8c1.6,0,2.8,1.3,2.8,2.8v107.7
			C308.7,545.3,307.4,546.6,305.8,546.6z"/>
		<path class="st0" d="M280.3,659.9h-19.8c-1.6,0-2.8-1.3-2.8-2.8V549.4c0-1.6,1.3-2.8,2.8-2.8h19.8c1.6,0,2.8,1.3,2.8,2.8v107.7
			C283.2,658.7,281.9,659.9,280.3,659.9z"/>
	</g>
</g>
</svg>
