<?xml version="1.0" encoding="utf-8"?>
<!-- Generator: Adobe Illustrator 25.2.1, SVG Export Plug-In . SVG Version: 6.00 Build 0)  -->
<svg version="1.1" id="Layer_1" xmlns="http://www.w3.org/2000/svg" xmlns:xlink="http://www.w3.org/1999/xlink" x="0px" y="0px"
	 viewBox="0 0 4280.3 1133.9" style="enable-background:new 0 0 4280.3 1133.9;" xml:space="preserve">
<style type="text/css">
	.st0{fill:none;stroke:#000000;stroke-miterlimit:10;}
</style>
<g>
	<path class="st0" d="M680.5,875.3v12.9c0,28.4-22.8,51.3-51,51.3H122.1c-28.2,0-51-22.9-51-51.3V117.8c0-28.4,22.8-51.3,51-51.3
		h507.4c28.2,0,51,22.9,51,51.3v12.9"/>
	<path class="st0" d="M680.5,832.1"/>
	<path class="st0" d="M298,361.8l-0.1-222.5c0-12.6,10.2-22.8,22.7-22.8h290.6c12.5,0,22.7,10.3,22.7,22.8v65.6"/>
	<path class="st0" d="M297.8,584"/>
	<path class="st0" d="M633.7,801.1v65.6c0,12.6-10.2,22.8-22.7,22.8H320.5c-12.5,0-22.7-10.3-22.7-22.8l0.1-265.3"/>
	<path class="st0" d="M652.2,204.9"/>
	<path class="st0" d="M655,130.7h25.5"/>
	<path class="st0" d="M652.2,133.5c0-1.6,1.3-2.8,2.8-2.8"/>
	<path class="st0" d="M652.2,204.9v-71.4"/>
	<path class="st0" d="M269.5,872.5v-47.1c0-1.6,1.3-2.8,2.8-2.8h8.5c1.6,0,2.8,1.3,2.8,2.8v47.1c0,1.6-1.3,2.8-2.8,2.8h-8.5
		C270.7,875.3,269.5,874.1,269.5,872.5z"/>
	<path class="st0" d="M298,597.8H134.8c-11,0-19.8-8.9-19.8-19.8V379.7c0-11,8.9-19.8,19.8-19.8H298"/>
	<path class="st0" d="M652.2,801.1"/>
	<path class="st0" d="M655,875.3h25.5"/>
	<path class="st0" d="M652.2,872.5c0,1.6,1.3,2.8,2.8,2.8"/>
	<path class="st0" d="M652.2,801.1v71.4"/>
	<line class="st0" x1="652.2" y1="204.9" x2="633.7" y2="204.9"/>
	<line class="st0" x1="652.2" y1="801.1" x2="633.7" y2="801.1"/>
	<path class="st0" d="M198.6,481.7V370.3h22c3.1,0,5.7,2.5,5.7,5.7v105.6L198.6,481.7L198.6,481.7z"/>
	<path class="st0" d="M198.6,481.7V593h22c3.1,0,5.7-2.5,5.7-5.7V481.7H198.6z"/>
	<path class="st0" d="M198.6,481.7V370.3h-7.8c-11,0-19.8,9-19.8,19.9v91.3h27.6V481.7z"/>
	<path class="st0" d="M198.6,481.7V593h-7.8c-11,0-19.8-9-19.8-19.9v-91.3h27.6V481.7z"/>
</g>
</svg>
