<?xml version="1.0" encoding="utf-8"?>
<!DOCTYPE svg PUBLIC "-//W3C//DTD SVG 1.1//EN" "http://www.w3.org/Graphics/SVG/1.1/DTD/svg11.dtd">
<!-- exported from Silhouette Studio® Business Edition V4.3.370ssbe -->
<svg version="1.1" xmlns="http://www.w3.org/2000/svg" xmlns:xlink="http://www.w3.org/1999/xlink" width="304.8mm" height="600mm" viewBox="0 0 304.8 600">
<defs/>
<path d="M 78.6276 272.1893 L 78.29206 341.7702" fill="none" fill-opacity="1" stroke="#000000" stroke-opacity="1" stroke-width="0.3527778" stroke-linecap="round" stroke-linejoin="round"/>
<path d="M 163.1715 351.7711 L 64.93683 351.8337 C 57.01193 351.8124 46.10663 351.7882 34.13388 351.766 L -9.403473 351.6853 L -10.55487 351.3691 C -12.92416 350.7186 -13.69672 350.3547 -15.48401 349.0474 C -17.29172 347.7253 -18.99069 345.3936 -19.47229 343.5736 C -19.56519 343.2227 -19.73618 342.7877 -19.85236 342.6071 C -19.96854 342.4265 -20.13806 341.7916 -20.22906 341.1964 C -20.42267 339.9298 -20.42404 300.4231 -20.23355 212.3344 L -20.11008 155.2382 L -19.70602 153.6047 C -19.29828 151.956 -18.49396 149.7303 -18.25229 149.5815 C -18.18027 149.5371 -18.02808 149.2785 -17.91406 149.0068 C -17.60245 148.264 -16.11246 146.4596 -14.84396 145.289 C -14.06042 144.5659 -13.19714 143.9707 -12.00778 143.3333 C -9.679199 142.0854 -8.235229 141.5656 -6.12323 141.215 C -4.486481 140.9433 -3.592072 140.9167 4.373535 140.9019 L 13.08105 140.8857 L 13.44037 141.2435 L 13.79971 141.6014 L 13.78653 145.6349 C 13.77536 149.0536 13.80957 149.7381 14.01102 150.1262 C 14.48425 151.0376 14.21533 151.0179 26.05328 151.0059 C 31.97363 150.9998 36.93033 150.9975 37.06793 151.0005 C 37.20563 151.0036 37.42685 151.1142 37.55957 151.2465 C 37.7644 151.4505 37.79431 151.8165 37.75696 153.665 C 37.70911 156.033 37.88257 156.7899 38.57864 157.2498 C 38.86307 157.4378 51.14134 157.4706 134.0312 157.504 C 205.4297 157.5328 229.2613 157.4998 229.5743 157.3717 C 230.2872 157.0799 230.4169 156.6011 230.4816 154.0223 C 230.5439 151.5396 230.5968 151.236 230.9953 151.0797 C 231.1325 151.0259 236.1426 150.9883 242.129 150.996 C 248.1154 151.0038 253.2146 150.9547 253.4606 150.8871 C 254.2966 150.6573 254.3551 150.3315 254.3574 145.883 C 254.3585 143.6778 254.41 141.734 254.4717 141.5633 C 254.7166 140.8857 254.7349 140.8846 264.5034 140.9484 L 273.7383 141.0088 L 275.3039 141.3936 C 276.1649 141.6053 277.1378 141.8903 277.4658 142.027 C 278.58 142.4916 279.7012 142.9996 280.0751 143.2096 C 280.2802 143.3246 280.7821 143.598 281.1906 143.817 C 282.0808 144.2942 284.549 146.7178 285.4117 147.9619 C 286.1452 149.0195 286.7661 150.2493 287.2863 151.6743 C 288.1499 154.0399 288.1034 152.3899 288.2735 186.6448 C 288.4733 226.8841 288.5573 256.1485 288.6078 303.139 C 288.6468 339.2828 288.6379 340.7336 288.3749 341.3765 C 288.2245 341.7439 288.0458 342.3453 287.9777 342.7128 C 287.9096 343.0803 287.6812 343.7487 287.4699 344.1978 C 287.2586 344.647 287.0851 345.0878 287.0843 345.1772 C 287.0791 345.7536 284.896 348.3567 283.6535 349.2678 C 282.2458 350.3001 280.1571 351.1421 278.1593 351.4826 C 276.5041 351.7647 275.2239 351.7711 219.6964 351.7711 L 163.1715 351.7711 Z" fill="none" fill-opacity="1" stroke="#000000" stroke-opacity="1" stroke-width="0.3527778" stroke-linecap="round" stroke-linejoin="round"/>
<path d="M 162.7251 272.2789 C 162.7168 272.2708 187.8154 272.2802 214.9182 272.2704 C 268.3835 272.251 265.0878 272.3041 266.7982 271.4347 C 267.9837 270.8321 269.6585 269.2438 270.2817 268.131 C 271.3539 266.2164 271.2781 270.1886 271.2781 215.8593 C 271.2781 161.7886 271.3599 166.111 270.2992 164.1198 C 269.5009 162.6212 269.1886 162.3003 267.327 161.0669 C 266.3443 160.4158 265.7121 160.2378 263.7675 160.0647 C 262.7329 159.9725 215.6658 159.9198 133.6773 159.9189 C -8.211227 159.9174 3.331909 159.8376 1.562683 160.832 C 0.0713501 161.6703 -0.7271423 162.2972 -1.202515 163.0032 C -2.346649 164.7023 -2.4375 164.9022 -2.676544 166.2485 C -2.895447 167.4811 -2.917025 172.0665 -2.911194 215.9942 C -2.903898 271.0955 -3.023499 266.1393 -1.646057 268.4437 C -1.043854 269.4512 -0.7158508 269.8207 0.1023865 270.4135 C 1.205536 271.2126 2.446472 271.956 3.491119 272.1929 C 3.939453 272.2946 78.63138 272.1879 78.62292 272.1886" fill="none" fill-opacity="1" stroke="#000000" stroke-opacity="1" stroke-width="0.3527778" stroke-linecap="round" stroke-linejoin="round"/>
<path d="M 275.3659 156.3309 L 275.9947 156.3237 C 280.5148 156.2716 280.5902 156.2545 281.3821 155.0933 C 281.7769 154.5143 281.7911 154.4227 281.8371 152.1635 C 281.8839 149.8609 281.8795 149.8226 281.4841 149.1506 C 281.2638 148.7763 280.8452 148.2888 280.554 148.0674 L 280.0244 147.6649 L 276.2104 147.6158 C 273.5942 147.5821 267.1452 147.6041 263.1991 147.5971 C 260.95 147.5932 259.3554 147.6519 259.0989 147.7482 C 258.528 147.9626 257.7314 148.7472 257.4786 149.344 C 257.1865 150.0338 257.2743 154.1239 257.5974 154.8819 C 257.8386 155.4479 258.4992 156.0038 259.1699 156.205 C 259.392 156.2717 261.2745 156.332 263.3533 156.3391 C 265.5035 156.3463 269.5078 156.3437 275.3659 156.3309 L 275.3659 156.3309 Z" fill="none" fill-opacity="1" stroke="#000000" stroke-opacity="1" stroke-width="0.3527778" stroke-linecap="round" stroke-linejoin="round"/>
<path d="M 7.295807 155.7654 C 8.395447 155.2273 8.942749 154.7729 9.150116 154.2261 C 9.356293 153.6824 9.355835 149.8131 9.149567 149.2708 C 8.946198 148.7362 8.494659 148.2507 7.743073 147.7584 L 7.146667 147.3678 L -0.7032471 147.3246 L -8.55307 147.2814 L -9.351013 147.7098 C -9.987366 148.0515 -10.24707 148.3115 -10.63358 148.994 C -11.1109 149.8369 -11.1181 149.8784 -11.1181 151.7672 C -11.1181 153.8615 -11.06894 154.0116 -9.955933 155.3123 C -9.258942 156.1268 -8.827118 156.1678 -0.7556763 156.1865 L 6.401154 156.203 L 7.295807 155.7654 L 7.295807 155.7654 Z" fill="none" fill-opacity="1" stroke="#000000" stroke-opacity="1" stroke-width="0.3527778" stroke-linecap="round" stroke-linejoin="round"/>
<path d="M 162.7356 272 L 162.1763 341.7345" fill="none" fill-opacity="1" stroke="#000000" stroke-opacity="1" stroke-width="0.3527778" stroke-linecap="round" stroke-linejoin="round"/>
<path d="M 78.31214 341.7459 L 162.2592 341.7459" fill="none" fill-opacity="1" stroke="#000000" stroke-opacity="1" stroke-width="0.3527778" stroke-linecap="round" stroke-linejoin="round"/>
</svg>