<?xml version="1.0" encoding="utf-8"?>
<!-- Generator: Adobe Illustrator 25.2.0, SVG Export Plug-In . SVG Version: 6.00 Build 0)  -->
<svg version="1.1" id="Layer_1" xmlns="http://www.w3.org/2000/svg" xmlns:xlink="http://www.w3.org/1999/xlink" x="0px" y="0px"
	 viewBox="0 0 4280.3 1133.9" style="enable-background:new 0 0 4280.3 1133.9;" xml:space="preserve">
<style type="text/css">
	.st0{fill:none;stroke:#000000;stroke-miterlimit:10;}
</style>
<g>
	<g>
		<path class="st0" d="M391.1,950.2H226.6c-14.1,0-25.5-11.4-25.5-25.5V174.9c0-14.1,11.4-25.5,25.5-25.5h164.4"/>
		<line class="st0" x1="391.1" y1="149.4" x2="391.1" y2="950.2"/>
		<line class="st0" x1="391.1" y1="160.7" x2="375.5" y2="160.7"/>
		<path class="st0" d="M391.1,149.4"/>
		<path class="st0" d="M375.5,149.4"/>
		<path class="st0" d="M375.5,149.4"/>
		<path class="st0" d="M375.5,160.7"/>
		<path class="st0" d="M375.5,950.2"/>
		<path class="st0" d="M391.1,950.2"/>
		<path class="st0" d="M391.1,950.2"/>
		<path class="st0" d="M391.1,938.8"/>
		<line class="st0" x1="375.5" y1="938.8" x2="391.1" y2="938.8"/>
		<path class="st0" d="M220.3,641.2V401.6c0-6.3,5.1-11.3,11.3-11.3h114.8c6.3,0,11.3,5.1,11.3,11.3v239.5c0,6.3-5.1,11.3-11.3,11.3
			H231.6C225.3,652.5,220.3,647.4,220.3,641.2z"/>
		<path class="st0" d="M274.8,182.7L274.8,182.7c0-2.7,2.2-5,5-5h22.7c2.7,0,5,2.2,5,5v0c0,2.7-2.2,5-5,5h-22.7
			C277.1,187.6,274.8,185.4,274.8,182.7z"/>
		<path class="st0" d="M274.8,916.8L274.8,916.8c0,2.7,2.2,5,5,5h22.7c2.7,0,5-2.2,5-5l0,0c0-2.7-2.2-5-5-5h-22.7
			C277.1,911.9,274.8,914.1,274.8,916.8z"/>
	</g>
	<g>
		<g>
			<path class="st0" d="M440.1,565.2"/>
			<line class="st0" x1="440.1" y1="593.5" x2="440.1" y2="584.2"/>
			<path class="st0" d="M400.4,593.5"/>
			<line class="st0" x1="440.1" y1="593.5" x2="400.4" y2="593.5"/>
			<path class="st0" d="M400.4,593.5v357.2h67.2c14.1,0,25.5-11.4,25.5-25.5V549.5"/>
			<path class="st0" d="M471.4,549.6"/>
			<path class="st0" d="M439.4,583.6c16,0,32-15.2,32-34"/>
			<path class="st0" d="M439.6,583.1"/>
		</g>
		<g>
			<path class="st0" d="M440.1,533.9"/>
			<line class="st0" x1="440.1" y1="505.6" x2="440.1" y2="514.9"/>
			<path class="st0" d="M400.4,505.6"/>
			<line class="st0" x1="440.1" y1="505.6" x2="400.4" y2="505.6"/>
			<path class="st0" d="M400.4,505.6V148.4h67.2c14.1,0,25.5,11.4,25.5,25.5v375.7"/>
			<line class="st0" x1="493.1" y1="549.6" x2="471.6" y2="549.5"/>
			<path class="st0" d="M471.4,549.5"/>
			<path class="st0" d="M439.4,515.5c16,0,32,15.2,32,34"/>
			<path class="st0" d="M439.6,516"/>
		</g>
	</g>
</g>
</svg>
