<?xml version="1.0" encoding="utf-8"?>
<!-- Generator: Adobe Illustrator 24.2.2, SVG Export Plug-In . SVG Version: 6.00 Build 0)  -->
<svg version="1.1" id="Layer_1" xmlns="http://www.w3.org/2000/svg" xmlns:xlink="http://www.w3.org/1999/xlink" x="0px" y="0px"
	 viewBox="0 0 864 864" style="enable-background:new 0 0 864 864;" xml:space="preserve">
<style type="text/css">
	.st0{fill:none;stroke:#000000;stroke-width:0.2835;stroke-linecap:round;stroke-linejoin:round;stroke-miterlimit:11.3386;}
</style>
<path class="st0" d="M9.4-58.9c0.3-0.4,0.7-2.4,1-4.3c0.2-1.9,0.9-4.4,1.6-5.6c0.6-1.2,1.2-2.6,1.2-3.2c0-0.6,0.5-1.7,1.1-2.4
	c0.6-0.7,1.3-2,1.6-2.8c0.3-0.8,1-1.9,1.6-2.4c0.6-0.6,1.1-1.3,1.1-1.7c0-0.4,0.5-1.1,1.1-1.6c0.6-0.5,2-1.9,3.2-3.1
	c2.4-2.5,6.8-5.9,7.6-5.9c0.3,0,1-0.5,1.6-1.1c0.6-0.6,1.8-1.3,2.7-1.4c0.9-0.2,2-0.7,2.4-1.1c0.4-0.4,1.8-0.9,3.2-1.1
	c1.4-0.2,3.2-0.8,4-1.3c1.4-0.9,23.2-0.7,298.6,1.6c276.4,2.3,297.3,2.6,299.8,3.5c1.5,0.5,3.6,1.2,4.6,1.4c1.1,0.2,2.1,0.8,2.3,1.2
	c0.2,0.4,1.2,1,2.3,1.2c1.1,0.2,2.4,0.9,3,1.5c0.6,0.6,1.3,1.1,1.7,1.1c0.4,0,1.6,0.9,2.7,2.1c1.1,1.1,2.9,2.5,3.9,3.2
	c1.2,0.7,2,1.8,2.3,2.8c0.2,0.9,0.8,1.7,1.2,1.7c0.5,0,1.1,0.7,1.4,1.4c0.3,0.8,0.8,1.4,1,1.4c0.4,0,3,4.5,4.3,7.4
	c0.3,0.8,1,2.1,1.5,2.9c0.5,0.8,0.8,2.1,0.8,2.9c0,0.8,0.5,2.1,1,2.9c1,1.3,0.9,23.3-2.5,439.7c-2.2,270.4-3.8,439.4-4.1,441.2
	c-0.8,4-2.8,10.4-3.5,11.3c-0.3,0.4-0.8,1.4-1,2.1c-0.2,0.8-0.8,1.9-1.3,2.6c-0.5,0.6-2.4,3-4.1,5.2c-3.3,4.2-8.4,8.7-11.5,10.1
	c-1,0.4-2.6,1.2-3.6,1.7c-4.4,2.2-6.1,2.9-8.7,3.2c-1.5,0.2-3.8,0.7-5.2,1.2c-3.9,1.2-586.6-3.8-590.3-5c-1.4-0.5-4.1-1.1-6-1.5
	c-1.9-0.3-4-1-4.7-1.4c-0.7-0.5-2-1-2.7-1.2c-0.8-0.2-2.6-1.2-4-2.2c-1.5-1-3.1-2.1-3.6-2.4c-1.6-0.9-6.3-5.7-6.7-6.8
	c-0.2-0.6-0.6-1-0.9-1c-0.6,0-4.2-5.3-4.2-6.2c0-0.3-0.5-1.2-1.2-1.8c-0.6-0.6-1.2-1.7-1.2-2.3c0-0.6-0.5-2.2-1.2-3.5
	c-0.7-1.4-1.5-4.5-1.8-7.8C1.7,810.4,8.5-57.7,9.4-58.9z"/>
<path class="st0" d="M347.8,441.4c-33.4-0.3-60.4-27.7-60.1-61.1c0.3-33.4,27.7-60.4,61.1-60.1c33.4,0.3,60.4,27.7,60.1,61.1
	C408.6,414.8,381.2,441.7,347.8,441.4z"/>
<path class="st0" d="M298.8,367.2l69,0.6l-21.1-21.4l51.5,35.9l-52.1,35l21.4-21.1l-69-0.6L298.8,367.2z"/>
</svg>
