<?xml version="1.0" encoding="utf-8"?>
<!-- Generator: Adobe Illustrator 26.1.0, SVG Export Plug-In . SVG Version: 6.00 Build 0)  -->
<svg version="1.1" id="Layer_1" xmlns="http://www.w3.org/2000/svg" xmlns:xlink="http://www.w3.org/1999/xlink" x="0px" y="0px"
	 viewBox="0 0 4280.3 1133.9" style="enable-background:new 0 0 4280.3 1133.9;" xml:space="preserve">
<style type="text/css">
	.st0{fill:none;stroke:#000000;stroke-miterlimit:10;}
</style>
<g>
	<path class="st0" d="M1178,675.9V975c0,9.4-7.6,17-17,17H616.7c-14.1,0-25.5-11.4-25.5-25.5l0-38.3"/>
	<path class="st0" d="M1178,675.9"/>
	<path class="st0" d="M1178,441.8"/>
	<path class="st0" d="M591.2,152.1v-38.9c0-14.1,11.4-25.5,25.5-25.5h544.3c9.4,0,17,7.6,17,17v358.6"/>
	<line class="st0" x1="591.1" y1="840.3" x2="591.2" y2="240"/>
	<path class="st0" d="M625.2,929.6L625.2,929.6"/>
	<path class="st0" d="M639.4,943.8c-7.8,0-14.2-6.3-14.2-14.2"/>
	<path class="st0" d="M625.2,150.1c0-7.8,6.3-14.2,14.2-14.2h289.1c7.8,0,14.2,6.3,14.2,14.2v779.5c0,7.8-6.3,14.2-14.2,14.2H639.4"
		/>
	<path class="st0" d="M625.4,152.1l-0.2-2"/>
	<line class="st0" x1="625.5" y1="840.3" x2="625.2" y2="240"/>
	<path class="st0" d="M1146.8,413.7v311.8c0,4.7-3.8,8.5-8.5,8.5H959.7c-4.7,0-8.5-3.8-8.5-8.5V413.7c0-4.7,3.8-8.5,8.5-8.5h178.6
		C1143,405.2,1146.8,409,1146.8,413.7z"/>
	<path class="st0" d="M1178,463.3"/>
	<path class="st0" d="M1178,463.3L1178,463.3"/>
	<path class="st0" d="M1178,675.9c-3.1,0-5.7-2.5-5.7-5.7V469c0-3.1,2.5-5.7,5.7-5.7"/>
	<path class="st0" d="M1178,675.9L1178,675.9"/>
	<path class="st0" d="M1183.6,670.2"/>
	<line class="st0" x1="591.1" y1="840.3" x2="625.5" y2="840.3"/>
	<path class="st0" d="M591.1,840.3"/>
	<path class="st0" d="M591.1,928.2"/>
	<line class="st0" x1="625.5" y1="928.2" x2="591.1" y2="928.2"/>
	<path class="st0" d="M625.5,928.2"/>
	<path class="st0" d="M625.5,840.3"/>
	<line class="st0" x1="591.3" y1="152.1" x2="625.6" y2="152.1"/>
	<line class="st0" x1="625.6" y1="240" x2="591.3" y2="240"/>
	<path class="st0" d="M625.6,240"/>
	<path class="st0" d="M1144.6,418v303.3c0,4.7-3.8,8.5-8.5,8.5H961.8c-4.7,0-8.5-3.8-8.5-8.5V418c0-4.7,3.8-8.5,8.5-8.5h174.3
		C1140.8,409.5,1144.6,413.3,1144.6,418z"/>
</g>
</svg>
