<?xml version="1.0" encoding="utf-8"?>
<!-- Generator: Adobe Illustrator 25.2.1, SVG Export Plug-In . SVG Version: 6.00 Build 0)  -->
<svg version="1.1" id="Layer_1" xmlns="http://www.w3.org/2000/svg" xmlns:xlink="http://www.w3.org/1999/xlink" x="0px" y="0px"
	 viewBox="0 0 4280.3 1133.9" style="enable-background:new 0 0 4280.3 1133.9;" xml:space="preserve">
<style type="text/css">
	.st0{fill:none;stroke:#000000;stroke-miterlimit:10;}
</style>
<g>
	<path class="st0" d="M1314.2,907.5l0,75.1c0,9.4-7.6,17-17,17H701.9c-6.3,0-11.3-5.1-11.3-11.3V75.5c0-6.3,5.1-11.3,11.3-11.3
		h595.3c9.4,0,17,7.6,17,17l0,75.1"/>
	<path class="st0" d="M1271.3,156.1h42.9"/>
	<path class="st0" d="M1314.2,907.5h-42.9"/>
	<path class="st0" d="M1314.2,156.3"/>
	<path class="st0" d="M1271.3,917.4c0,9.4-7.6,17-17,17H925.5c-9.4,0-17-7.6-17-17v-771c0-9.4,7.6-17,17-17h328.8
		c9.4,0,17,7.6,17,17"/>
	<path class="st0" d="M1271.3,907.5v9.9"/>
	<path class="st0" d="M1271.3,146.3v9.6"/>
	<path class="st0" d="M1271.3,146.3v9.6"/>
	<path class="st0" d="M701.9,636.7V366c0-4.7,3.8-8.5,8.5-8.5h182.8c1.6,0,2.8,1.3,2.8,2.8v282c0,1.6-1.3,2.8-2.8,2.8H710.4
		C705.7,645.2,701.9,641.4,701.9,636.7z"/>
	<g>
		<path class="st0" d="M742.3,640.3V362.5c0-0.8,0.6-1.4,1.4-1.4h144.6c0.8,0,1.4,0.6,1.4,1.4v277.8c0,0.8-0.6,1.4-1.4,1.4H743.7
			C742.9,641.7,742.3,641.1,742.3,640.3z"/>
		<g>
			<path class="st0" d="M708.3,501.4V369.6c0-3.1,2.5-5.7,5.7-5.7h28.3v137.5H708.3z"/>
			<path class="st0" d="M708.3,501.4v131.8c0,3.1,2.5,5.7,5.7,5.7h28.3V501.4H708.3z"/>
		</g>
	</g>
	<circle class="st0" cx="1243.1" cy="968.4" r="15.6"/>
</g>
</svg>
