<?xml version="1.0" encoding="UTF-8" standalone="no"?>
<!-- Created with Inkscape (http://www.inkscape.org/) -->

<svg
   xmlns:dc="http://purl.org/dc/elements/1.1/"
   xmlns:cc="http://creativecommons.org/ns#"
   xmlns:rdf="http://www.w3.org/1999/02/22-rdf-syntax-ns#"
   xmlns:svg="http://www.w3.org/2000/svg"
   xmlns="http://www.w3.org/2000/svg"
   xmlns:sodipodi="http://sodipodi.sourceforge.net/DTD/sodipodi-0.dtd"
   xmlns:inkscape="http://www.inkscape.org/namespaces/inkscape"
   width="594mm"
   height="841mm"
   viewBox="0 0 594 841"
   version="1.1"
   id="svg997"
   inkscape:version="0.92.3 (2405546, 2018-03-11)"
   sodipodi:docname="E5430_PR_TOP.svg">
  <defs
     id="defs991" />
  <sodipodi:namedview
     id="base"
     pagecolor="#ffffff"
     bordercolor="#666666"
     borderopacity="1.0"
     inkscape:pageopacity="0.0"
     inkscape:pageshadow="2"
     inkscape:zoom="0.35"
     inkscape:cx="-87.142857"
     inkscape:cy="560"
     inkscape:document-units="mm"
     inkscape:current-layer="layer1"
     showgrid="false"
     inkscape:window-width="1920"
     inkscape:window-height="1017"
     inkscape:window-x="-8"
     inkscape:window-y="-8"
     inkscape:window-maximized="1" />
  <metadata
     id="metadata994">
    <rdf:RDF>
      <cc:Work
         rdf:about="">
        <dc:format>image/svg+xml</dc:format>
        <dc:type
           rdf:resource="http://purl.org/dc/dcmitype/StillImage" />
        <dc:title></dc:title>
      </cc:Work>
    </rdf:RDF>
  </metadata>
  <g
     inkscape:label="Layer 1"
     inkscape:groupmode="layer"
     id="layer1"
     transform="translate(0,544)">
    <g
       transform="translate(286.80036,-192.47537)"
       id="g977"
       style="stroke:#000000;stroke-width:0.35277778;stroke-miterlimit:4;stroke-dasharray:none;stroke-opacity:1">
      <path
         inkscape:connector-curvature="0"
         id="path924"
         d="m -129.97402,144.97079 0.0182,-19.34615 v 0 c 2.14838,-3.77254 8.02295,-6.57887 12.25922,-8.67585 l 9.94805,-2.91702 c 0.30361,-0.20833 0.84821,-0.42534 1.21038,-0.48245 0.99529,-0.23654 2.07359,-1.14498 3.00573,-0.68447 0.18763,0.0998 0.32977,0.40595 0.39795,0.85734 0.47019,1.94465 1.33462,2.71118 2.09525,4.02091 0.30891,0.80665 -1.17805,0.78785 51.208444,0.64722 21.26271,-0.057 58.2308922,-0.1411 82.151454,-0.18679 23.92057,-0.0458 51.839605,-0.15931 62.042276,-0.25246 10.202676,-0.093 22.443566,-0.1887 27.201966,-0.21238 4.75839,-0.0238 16.01719,-0.12266 25.01956,-0.21986 9.0024,-0.0971 19.8403,-0.15241 24.0842,-0.12291 4.24402,0.0296 8.63163,0.0153 9.75015,-0.0318 l 2.03381,-0.0854 0.57735,-0.55776 c 0.62389,-0.75183 1.33004,-1.6599 1.45407,-2.56345 0.15328,-1.20201 0.38501,-1.44805 1.36378,-1.44805 0.57566,0 1.04499,0.11326 1.5288,0.36882"
         style="fill:none;fill-opacity:1;stroke:#000000;stroke-width:0.35277778;stroke-linecap:round;stroke-linejoin:round;stroke-miterlimit:4;stroke-dasharray:none;stroke-opacity:1" />
      <path
         inkscape:connector-curvature="0"
         id="path874"
         d="m 187.37662,113.07828 c 0.21226,0.0881 7.52009,1.79562 15.88468,4.98678 2.21786,0.66599 4.47522,1.9365 6.2833,3.08335 0.37627,0.23629 0.82799,0.68197 1.0038,0.99047 0.62567,0.60689 1.38054,1.96774 1.38054,1.96774 0.30228,0.27841 0.45052,0.6094 0.53423,1.19297 0.0322,0.22448 0.0578,6.17454 0.0768,19.76061"
         style="fill:none;fill-opacity:1;stroke:#000000;stroke-width:0.35277778;stroke-linecap:round;stroke-linejoin:round;stroke-miterlimit:4;stroke-dasharray:none;stroke-opacity:1" />
      <path
         inkscape:connector-curvature="0"
         id="rect835"
         d="m 212.53997,145.0602 -342.51399,-0.0894"
         style="opacity:1;fill:none;fill-opacity:0.12093021;stroke:#000000;stroke-width:0.35277778;stroke-miterlimit:4;stroke-dasharray:none;stroke-opacity:1" />
    </g>
  </g>
</svg>
