<?xml version="1.0" encoding="utf-8"?>
<!DOCTYPE svg PUBLIC "-//W3C//DTD SVG 1.1//EN" "http://www.w3.org/Graphics/SVG/1.1/DTD/svg11.dtd">
<!-- exported from Silhouette Studio® Business Edition V4.3.370ssbe -->
<svg version="1.1" xmlns="http://www.w3.org/2000/svg" xmlns:xlink="http://www.w3.org/1999/xlink" width="304.8mm" height="600mm" viewBox="0 0 304.8 600">
<defs/>
<g>
<path d="M 62.21959 273.1729 C 49.10674 273.2656 33.21767 273.3181 14.55231 273.3304 C -24.85191 273.3565 -36.45757 273.31 -37.30049 273.1223 C -38.95042 272.7546 -39.89569 272.1886 -41.85547 270.3946 C -43.40054 268.9803 -44.83729 266.4025 -45.28192 264.2468 C -45.56387 262.8797 -45.59313 253.1875 -45.5861 163.5071 C -45.57861 68.01669 -45.56468 64.21466 -45.21582 62.54318 C -45.0164 61.5879 -44.71778 60.65351 -44.55215 60.46682 C -44.38651 60.28012 -44.10616 59.77633 -43.92912 59.34727 C -43.58379 58.51031 -43.53436 58.44688 -42.09747 56.99751 C -40.2448 55.12875 -39.65231 54.74609 -37.38018 53.9505 L -35.81952 53.40405 L 120.7765 53.40405 C 266.9959 53.40405 277.4059 53.42608 277.878 53.73571 C 278.1559 53.91821 278.7097 54.12864 279.1083 54.20352 C 280.559 54.47609 283.1687 56.58969 284.718 58.74694 C 285.032 59.18402 285.5406 60.16288 285.848 60.92213 L 286.4071 62.30259 L 286.41 163.6913 L 286.4129 265.0802 L 285.4882 266.9455 C 284.6959 268.5438 284.326 269.0332 282.9059 270.3618 C 281.0404 272.1074 279.598 272.9284 277.9117 273.2049 C 276.2397 273.4792 150.2614 273.2385 150.2001 273.203" fill="none" fill-opacity="1" stroke="#000000" stroke-opacity="1" stroke-width="0.3527778" stroke-linecap="round" stroke-linejoin="round"/>
<path d="M 262.7036 259.1013 L 263.2362 258.9359 L 263.2884 253.4716 C 263.3188 250.2833 263.2555 247.8585 263.1363 247.6501 C 262.9606 247.343 261.7981 247.2931 254.8211 247.2931 C 247.8432 247.2931 246.682 247.3429 246.5082 247.6501 C 246.1969 248.2004 246.2404 258.6765 246.5554 259.0286 C 246.7456 259.241 248.7774 259.3081 254.491 259.2904 C 258.715 259.2774 262.4106 259.1923 262.7036 259.1013 Z" fill="none" fill-opacity="1" stroke="#000000" stroke-opacity="1" stroke-width="0.3527778" stroke-linecap="round" stroke-linejoin="round"/>
<path d="M 11.98819 72.33479 C 12.76433 71.7773 12.87201 71.25462 12.87201 68.04433 C 12.87201 65.31606 12.58527 64.33904 11.69809 64.04442 C 11.39232 63.94286 4.044585 63.85978 -4.630197 63.85978 C -21.65911 63.85978 -21.53919 63.85103 -21.946 65.12083 C -22.149 65.75453 -22.19886 70.787 -22.01041 71.62044 C -21.93192 71.96764 -21.58483 72.25896 -20.94476 72.51497 C -20.10983 72.84892 -18.10827 72.88875 -4.324929 72.84547 C 10.70172 72.79829 11.37205 72.7773 11.98819 72.33479 Z" fill="none" fill-opacity="1" stroke="#000000" stroke-opacity="1" stroke-width="0.3527778" stroke-linecap="round" stroke-linejoin="round"/>
<path d="M 262.0559 72.37987 C 263.2686 71.80586 263.4498 71.28307 263.4498 68.35689 C 263.4498 65.75215 263.2289 64.80553 262.5013 64.28944 C 261.7693 63.77037 247.8603 63.6288 246.7415 64.12907 C 245.7686 64.56407 245.4498 65.62596 245.4498 68.43153 C 245.4498 71.48161 245.8616 72.23448 247.783 72.69753 C 248.0275 72.75645 251.1248 72.81038 254.6661 72.81737 C 260.5163 72.82893 261.1917 72.78896 262.0559 72.37987 Z" fill="none" fill-opacity="1" stroke="#000000" stroke-opacity="1" stroke-width="0.3527778" stroke-linecap="round" stroke-linejoin="round"/>
<path d="M -26.74166 190.1294 L -45.606 190.1294" fill="none" fill-opacity="1" stroke="#000000" stroke-opacity="1" stroke-width="0.3527778" stroke-linecap="round" stroke-linejoin="round"/>
<path d="M 150.2213 273.6475 L 150.2213 205.246 C 150.2213 204.3639 149.4969 203.6475 148.6053 203.6475 L 63.83731 203.6475 C 62.94562 203.6475 62.2213 204.3639 62.2213 205.246 L 62.22129 273.2964" fill="none" fill-opacity="1" stroke="#000000" stroke-opacity="1" stroke-width="0.3527778" stroke-linecap="round" stroke-linejoin="round"/>
<path d="M 267.2672 198.6446 L 267.2339 85.95222 C 267.2339 83.57536 264.7756 81.64462 261.7493 81.64462 L -21.27966 81.64462 C -24.30603 81.64462 -26.76416 83.57536 -26.76416 85.95222 L -26.76416 194.337 C -26.76416 196.7139 -24.30602 198.6446 -21.27966 198.6446 L 196.3032 198.6446" fill="none" fill-opacity="1" stroke="#000000" stroke-opacity="1" stroke-width="0.3527778" stroke-linecap="round" stroke-linejoin="round"/>
<path d="M 286.4498 200.1796 L 267.2231 200.1796" fill="none" fill-opacity="1" stroke="#000000" stroke-opacity="1" stroke-width="0.3527778" stroke-linecap="round" stroke-linejoin="round"/>
<path d="M 196.2327 198.5771 L 196.3073 204.5544 C 196.3073 207.8651 198.9255 210.5545 202.1486 210.5545 L 261.466 210.5545 C 264.6891 210.5545 267.3073 207.8651 267.3073 204.5544 L 267.3073 203.3729 L 267.2327 198.6003" fill="none" fill-opacity="1" stroke="#000000" stroke-opacity="1" stroke-width="0.3527778" stroke-linecap="round" stroke-linejoin="round"/>
</g>
<path d="M 147.5244 258.015 C 148.1537 258.015 148.6648 257.4806 148.6648 256.8226 L 148.6648 206.2074 C 148.6648 205.5494 148.1537 205.015 147.5244 205.015 L 64.80563 205.015 C 64.17639 205.015 63.66528 205.5494 63.66528 206.2074 L 63.66528 256.8226 C 63.66528 257.4806 64.17639 258.015 64.80563 258.015 L 147.5244 258.015 Z" fill="none" fill-opacity="1" stroke="#000000" stroke-opacity="1" stroke-width="0.3527778" stroke-linecap="round" stroke-linejoin="round"/>
<path d="M 103.6132 271.91 C 104.2701 271.91 104.8037 271.4308 104.8037 270.841 L 104.8037 259.979 C 104.8037 259.3891 104.2701 258.9099 103.6132 258.9099 L 64.99419 258.9099 C 64.33728 258.9099 63.80369 259.3891 63.80369 259.979 L 63.80369 270.841 C 63.80369 271.4308 64.33729 271.91 64.99419 271.91 L 103.6132 271.91 Z" fill="none" fill-opacity="1" stroke="#000000" stroke-opacity="1" stroke-width="0.3527778" stroke-linecap="round" stroke-linejoin="round"/>
<path d="M 146.8975 271.9103 C 147.5544 271.9103 148.088 271.4312 148.088 270.8413 L 148.088 259.9793 C 148.088 259.3895 147.5544 258.9103 146.8975 258.9103 L 108.2785 258.9103 C 107.6216 258.9103 107.088 259.3895 107.088 259.9793 L 107.088 270.8413 C 107.088 271.4312 107.6216 271.9103 108.2785 271.9103 L 146.8975 271.9103 Z" fill="none" fill-opacity="1" stroke="#000000" stroke-opacity="1" stroke-width="0.3527778" stroke-linecap="round" stroke-linejoin="round"/>
</svg>