<?xml version="1.0" encoding="utf-8"?>
<!-- Generator: Adobe Illustrator 25.2.0, SVG Export Plug-In . SVG Version: 6.00 Build 0)  -->
<svg version="1.1" id="Layer_1" xmlns="http://www.w3.org/2000/svg" xmlns:xlink="http://www.w3.org/1999/xlink" x="0px" y="0px"
	 viewBox="0 0 4280.3 1133.9" style="enable-background:new 0 0 4280.3 1133.9;" xml:space="preserve">
<style type="text/css">
	.st0{fill:none;stroke:#010101;stroke-linecap:round;stroke-linejoin:round;stroke-miterlimit:11.3386;}
</style>
<g>
	<path class="st0" d="M18.9,455c-0.3-37.2-0.4-82.2-0.4-135.1c-0.1-111.7,0.1-144.6,0.6-147c1-4.7,2.6-7.4,7.7-12.9
		c4-4.4,11.3-8.5,17.4-9.7c3.9-0.8,31.3-0.9,285.6-0.9c270.7,0,281.5,0.1,286.2,1c2.7,0.6,5.4,1.4,5.9,1.9c0.5,0.5,2,1.3,3.2,1.8
		c2.4,1,2.6,1.1,6.7,5.2c5.3,5.3,6.4,6.9,8.6,13.4l1.5,4.4V621c0,414.5-0.1,444-0.9,445.3c-0.5,0.8-1.1,2.4-1.3,3.5
		c-0.8,4.1-6.8,11.5-12.9,15.9c-1.2,0.9-4,2.3-6.2,3.2l-3.9,1.6l-287.4,0l-287.4,0l-5.3-2.6c-4.5-2.2-5.9-3.3-9.7-7.3
		c-4.9-5.3-7.3-9.4-8.1-14.2c-0.8-4.7-0.1-361.8,0-362"/>
	<path class="st0" d="M58.7,1023.3l0.5,1.5l15.5,0.1c9,0.1,15.9-0.1,16.5-0.4c0.9-0.5,1-3.8,1-23.6c0-19.8-0.1-23.1-1-23.6
		c-1.6-0.9-31.3-0.8-32.3,0.1c-0.6,0.5-0.8,6.3-0.7,22.5C58.2,1012,58.5,1022.5,58.7,1023.3z"/>
	<path class="st0" d="M588.2,312.6c1.6,2.2,3.1,2.5,12.2,2.5c7.7,0,10.5-0.8,11.3-3.3c0.3-0.9,0.5-21.7,0.5-46.3
		c0-48.3,0-47.9-3.6-49.1c-1.8-0.6-16.1-0.7-18.4-0.2c-1,0.2-1.8,1.2-2.5,3c-0.9,2.4-1.1,8-0.9,47.1
		C586.8,309,586.9,310.9,588.2,312.6z"/>
	<path class="st0" d="M588,1021.5c1.6,3.4,3.1,4,11.4,4c7.4,0,10.1-0.6,11.5-2.7c1.5-2.1,1.9-41.5,0.5-44.7
		c-1.2-2.8-4.2-3.7-12.2-3.7c-8.6,0-10.8,1.2-12.1,6.6c-0.2,0.7-0.3,9.5-0.3,19.5C586.8,1017.1,586.9,1019,588,1021.5z"/>
	<path class="st0" d="M254.3,202.8v-53.5"/>
	<path class="st0" d="M17.5,704.5h193.9c2.5,0,4.5-2.1,4.5-4.6V459.6c0-2.5-2-4.6-4.5-4.6H18.5"/>
	<path class="st0" d="M230.1,1036.3l319.4-0.1c6.7,0,12.2-7,12.2-15.5V218.3c0-8.6-5.5-15.5-12.2-15.5H242.3
		c-6.7,0-12.2,7-12.2,15.5v616.8"/>
	<path class="st0" d="M225.8,1090.6v-54.5"/>
	<path class="st0" d="M230.3,834.9l-16.9,0.2c-9.4,0-17,7.4-17,16.6v168.1c0,9.1,7.6,16.6,17,16.6h3.3l13.5-0.2"/>
</g>
<path class="st0" d="M61.8,696.8c0,1.8,1.5,3.2,3.4,3.2h143.5c1.9,0,3.4-1.4,3.4-3.2V462.3c0-1.8-1.5-3.2-3.4-3.2H65.2
	c-1.9,0-3.4,1.4-3.4,3.2V696.8z"/>
<path class="st0" d="M22.4,572.4c0,1.9,1.4,3.4,3,3.4h30.8c1.7,0,3-1.5,3-3.4V462.9c0-1.9-1.4-3.4-3-3.4H25.5c-1.7,0-3,1.5-3,3.4
	V572.4z"/>
<path class="st0" d="M22.4,695c0,1.9,1.4,3.4,3,3.4h30.8c1.7,0,3-1.5,3-3.4V585.6c0-1.9-1.4-3.4-3-3.4H25.5c-1.7,0-3,1.5-3,3.4V695z
	"/>
</svg>
