<?xml version="1.0" encoding="utf-8"?>
<!DOCTYPE svg PUBLIC "-//W3C//DTD SVG 1.1//EN" "http://www.w3.org/Graphics/SVG/1.1/DTD/svg11.dtd">
<!-- exported from Silhouette Studio® Business Edition V4.3.370ssbe -->
<svg version="1.1" xmlns="http://www.w3.org/2000/svg" xmlns:xlink="http://www.w3.org/1999/xlink" width="304.8mm" height="600mm" viewBox="0 0 304.8 600">
<defs/>
<path d="M 62.21953 273.1729 C 49.10669 273.2656 33.21762 273.318 14.55228 273.3304 C -24.85193 273.3564 -36.45759 273.3099 -37.30051 273.1221 C -38.95045 272.7546 -39.89571 272.1885 -41.85549 270.3946 C -43.40056 268.9802 -44.83732 266.4025 -45.28194 264.2466 C -45.56389 262.8796 -45.59315 253.1874 -45.58612 163.507 C -45.57862 68.01662 -45.5647 64.21461 -45.21584 62.54314 C -45.01643 61.58786 -44.7178 60.65349 -44.55217 60.46678 C -44.38654 60.28008 -44.10619 59.77629 -43.92914 59.34724 C -43.58381 58.51028 -43.53439 58.44685 -42.0975 56.99748 C -40.24483 55.12872 -39.65235 54.74605 -37.38021 53.95047 L -35.81955 53.40401 L 120.7764 53.40401 C 266.9958 53.40401 277.4058 53.42604 277.8779 53.73569 C 278.1558 53.91817 278.7096 54.1286 279.1082 54.20349 C 280.559 54.47604 283.1687 56.58965 284.718 58.7469 C 285.032 59.18398 285.5405 60.16286 285.8478 60.9221 L 286.4069 62.30254 L 286.4099 163.6913 L 286.4128 265.0801 L 285.4881 266.9455 C 284.6958 268.5438 284.326 269.0331 282.9059 270.3618 C 281.0403 272.1073 279.5979 272.9283 277.9116 273.2049 C 276.2397 273.479 150.2613 273.2384 150.2 273.2029" fill="none" fill-opacity="1" stroke="#000000" stroke-opacity="1" stroke-width="0.3527778" stroke-linecap="round" stroke-linejoin="round"/>
<path d="M 11.9882 72.33482 C 12.76434 71.77733 12.87204 71.25465 12.87204 68.04436 C 12.87204 65.31609 12.58528 64.33907 11.6981 64.04445 C 11.39233 63.94289 4.044601 63.85982 -4.630173 63.85982 C -21.65909 63.85982 -21.53918 63.85106 -21.94599 65.12086 C -22.14899 65.75453 -22.19884 70.78703 -22.01039 71.62047 C -21.93189 71.96767 -21.58482 72.25899 -20.94473 72.515 C -20.10981 72.84895 -18.10825 72.88878 -4.324905 72.8455 C 10.70174 72.79832 11.37207 72.77733 11.9882 72.33482 Z" fill="none" fill-opacity="1" stroke="#000000" stroke-opacity="1" stroke-width="0.3527778" stroke-linecap="round" stroke-linejoin="round"/>
<path d="M 262.0559 72.37984 C 263.2685 71.80583 263.4498 71.28304 263.4498 68.35686 C 263.4498 65.75212 263.2289 64.8055 262.5013 64.28941 C 261.7694 63.77034 247.8604 63.62877 246.7415 64.12904 C 245.7686 64.56404 245.4497 65.6259 245.4497 68.43147 C 245.4497 71.48155 245.8616 72.23445 247.7831 72.69749 C 248.0275 72.75642 251.1248 72.81032 254.6661 72.81731 C 260.5163 72.82887 261.1917 72.78893 262.0559 72.37984 Z" fill="none" fill-opacity="1" stroke="#000000" stroke-opacity="1" stroke-width="0.3527778" stroke-linecap="round" stroke-linejoin="round"/>
<path d="M -26.74168 190.1295 L -45.60603 190.1295" fill="none" fill-opacity="1" stroke="#000000" stroke-opacity="1" stroke-width="0.3527778" stroke-linecap="round" stroke-linejoin="round"/>
<path d="M 150.2213 273.6473 L 150.2212 205.2459 C 150.2212 204.3639 149.4969 203.6474 148.6052 203.6474 L 63.8373 203.6474 C 62.9456 203.6474 62.22128 204.3639 62.22128 205.2459 L 62.22128 273.2963" fill="none" fill-opacity="1" stroke="#000000" stroke-opacity="1" stroke-width="0.3527778" stroke-linecap="round" stroke-linejoin="round"/>
<path d="M 267.2673 198.6446 L 267.2341 85.95222 C 267.2341 83.57536 264.7759 81.64462 261.7495 81.64462 L -21.27942 81.64462 C -24.30579 81.64462 -26.76392 83.57536 -26.76392 85.95222 L -26.76392 194.337 C -26.76392 196.7139 -24.30579 198.6446 -21.27942 198.6446 L 196.3035 198.6446" fill="none" fill-opacity="1" stroke="#000000" stroke-opacity="1" stroke-width="0.3527778" stroke-linecap="round" stroke-linejoin="round"/>
<path d="M 286.4498 200.1796 L 267.2231 200.1796" fill="none" fill-opacity="1" stroke="#000000" stroke-opacity="1" stroke-width="0.3527778" stroke-linecap="round" stroke-linejoin="round"/>
<path d="M 196.2327 198.5771 L 196.3073 204.5544 C 196.3073 207.8651 198.9254 210.5544 202.1486 210.5544 L 261.466 210.5544 C 264.6892 210.5544 267.3073 207.8651 267.3073 204.5544 L 267.3073 203.3729 L 267.2327 198.6003" fill="none" fill-opacity="1" stroke="#000000" stroke-opacity="1" stroke-width="0.3527778" stroke-linecap="round" stroke-linejoin="round"/>
<path d="M 147.5244 258.015 C 148.1537 258.015 148.6648 257.4806 148.6648 256.8226 L 148.6648 206.2074 C 148.6648 205.5494 148.1537 205.015 147.5244 205.015 L 64.80563 205.015 C 64.17639 205.015 63.66528 205.5494 63.66528 206.2074 L 63.66528 256.8226 C 63.66528 257.4806 64.17639 258.015 64.80563 258.015 L 147.5244 258.015 Z" fill="none" fill-opacity="1" stroke="#000000" stroke-opacity="1" stroke-width="0.3527778" stroke-linecap="round" stroke-linejoin="round"/>
<path d="M 103.6132 271.91 C 104.2701 271.91 104.8037 271.4308 104.8037 270.841 L 104.8037 259.979 C 104.8037 259.3892 104.2701 258.91 103.6132 258.91 L 64.99419 258.91 C 64.33728 258.91 63.80369 259.3892 63.80369 259.979 L 63.80369 270.841 C 63.80369 271.4308 64.33728 271.91 64.99419 271.91 L 103.6132 271.91 Z" fill="none" fill-opacity="1" stroke="#000000" stroke-opacity="1" stroke-width="0.3527778" stroke-linecap="round" stroke-linejoin="round"/>
<path d="M 146.8976 271.9104 C 147.5545 271.9104 148.088 271.4312 148.088 270.8414 L 148.088 259.9794 C 148.088 259.3895 147.5545 258.9103 146.8976 258.9103 L 108.2785 258.9103 C 107.6216 258.9103 107.088 259.3895 107.088 259.9794 L 107.088 270.8414 C 107.088 271.4312 107.6216 271.9104 108.2785 271.9104 L 146.8976 271.9104 Z" fill="none" fill-opacity="1" stroke="#000000" stroke-opacity="1" stroke-width="0.3527778" stroke-linecap="round" stroke-linejoin="round"/>
</svg>