<?xml version="1.0" encoding="utf-8"?>
<!-- Generator: Adobe Illustrator 25.2.0, SVG Export Plug-In . SVG Version: 6.00 Build 0)  -->
<svg version="1.1" id="Layer_1" xmlns="http://www.w3.org/2000/svg" xmlns:xlink="http://www.w3.org/1999/xlink" x="0px" y="0px"
	 viewBox="0 0 4280.3 1133.9" style="enable-background:new 0 0 4280.3 1133.9;" xml:space="preserve">
<style type="text/css">
	.st0{fill:none;stroke:#000000;stroke-miterlimit:10;}
</style>
<path class="st0" d="M484.5,991.8"/>
<g>
	<g>
		<path class="st0" d="M999.9,732.6l252.4,0.1v226.8H971.7c-18.8,0-34-15.2-34-34V725.5h53.9v7.1"/>
		<path class="st0" d="M991.6,732.6"/>
		<line class="st0" x1="999.9" y1="732.6" x2="991.4" y2="775.1"/>
		<line class="st0" x1="991.4" y1="775.1" x2="991.4" y2="732.6"/>
	</g>
	<path class="st0" d="M1029.1,558.3"/>
	<path class="st0" d="M1052.5,320.4h169.4c18.8,0,34,15.2,34,34v362.8h-226.8V567"/>
	<path class="st0" d="M1029.1,320.4"/>
	<path class="st0" d="M1052.5,375.7l12,0c6.3,0,11.3,5.1,11.3,11.3v171.5c0,4.7-3.8,8.5-8.5,8.5h-38.3"/>
	<line class="st0" x1="1052.5" y1="375.7" x2="1052.5" y2="320.4"/>
	<g>
		<path class="st0" d="M962.7,83.5h355.5c18.8,0,34,15.2,34,34V992c0,18.8-15.2,34-34,34H932.7v-54.2"/>
		<line class="st0" x1="962.4" y1="138.4" x2="962.7" y2="83.5"/>
		<path class="st0" d="M962.4,138.4h296.3c6.3,0,11.3,5.1,11.3,11.3v810.7c0,6.3-5.1,11.3-11.3,11.3h-326"/>
		<path class="st0" d="M1297,245.1v-89.3c0-3.1,2.5-5.7,5.7-5.7h14.2c3.1,0,5.7,2.5,5.7,5.7v89.3c0,3.1-2.5,5.7-5.7,5.7h-14.2
			C1299.5,250.7,1297,248.2,1297,245.1z"/>
		<path class="st0" d="M1297,953.7v-38.3c0-3.1,2.5-5.7,5.7-5.7h14.2c3.1,0,5.7,2.5,5.7,5.7v38.3c0,3.1-2.5,5.7-5.7,5.7h-14.2
			C1299.5,959.4,1297,956.9,1297,953.7z"/>
	</g>
	<path class="st0" d="M1253,285.5h-221.1c-1.6,0-2.8-1.3-2.8-2.8V166.4c0-1.6,1.3-2.8,2.8-2.8H1253c1.6,0,2.8,1.3,2.8,2.8v116.2
		C1255.8,284.2,1254.6,285.5,1253,285.5z"/>
	<g>
		<path class="st0" d="M1010,281.2v102c0,1.6-1.3,2.8-2.8,2.8H976c-1.6,0-2.8-1.3-2.8-2.8v-102c0-1.6,1.3-2.8,2.8-2.8h31.2
			C1008.7,278.4,1010,279.7,1010,281.2z"/>
		<path class="st0" d="M1010,166.4v102c0,1.6-1.3,2.8-2.8,2.8H976c-1.6,0-2.8-1.3-2.8-2.8v-102c0-1.6,1.3-2.8,2.8-2.8h31.2
			C1008.7,163.6,1010,164.9,1010,166.4z"/>
	</g>
	<g>
		<path class="st0" d="M1009.1,583.4v79.4c0,1.6-1.3,2.8-2.8,2.8h-29.8c-1.6,0-2.8-1.3-2.8-2.8v-79.4c0-1.6,1.3-2.8,2.8-2.8h29.8
			C1007.9,580.5,1009.1,581.8,1009.1,583.4z"/>
		<path class="st0" d="M1009.1,446.8v79.4c0,1.6-1.3,2.8-2.8,2.8h-29.8c-1.6,0-2.8-1.3-2.8-2.8v-79.4c0-1.6,1.3-2.8,2.8-2.8h29.8
			C1007.9,443.9,1009.1,445.2,1009.1,446.8z"/>
		<path class="st0" d="M1007,535.8v38.3c0,1.6-1.3,2.8-2.8,2.8h-25.5c-1.6,0-2.8-1.3-2.8-2.8v-38.3c0-1.6,1.3-2.8,2.8-2.8h25.5
			C1005.7,533,1007,534.3,1007,535.8z"/>
	</g>
</g>
</svg>
