<?xml version="1.0" encoding="utf-8"?>
<!-- Generator: Adobe Illustrator 25.2.1, SVG Export Plug-In . SVG Version: 6.00 Build 0)  -->
<svg version="1.1" id="Layer_1" xmlns="http://www.w3.org/2000/svg" xmlns:xlink="http://www.w3.org/1999/xlink" x="0px" y="0px"
	 viewBox="0 0 4280.3 1133.9" style="enable-background:new 0 0 4280.3 1133.9;" xml:space="preserve">
<style type="text/css">
	.st0{fill:none;stroke:#010101;stroke-miterlimit:11.3386;}
	.st1{fill:none;stroke:#010101;stroke-width:0.8518;stroke-miterlimit:11.3386;}
</style>
<g>
	<path class="st0" d="M292.4,1053.9L74,1054c-13.9,0-25.1-11.3-25.1-25.3V143.8c0-14,11.2-25.3,25.1-25.3l218.4,0.5"/>
	<path class="st0" d="M292.4,1053.9V119"/>
	<path class="st0" d="M292.4,967.9"/>
	<path id="rect820" class="st1" d="M272,416.9v279.8c0,3.2-2.6,5.8-5.8,5.8H71.6c-3.2,0-5.8-2.6-5.8-5.8V416.9
		c0-3.2,2.6-5.8,5.8-5.8h194.6C269.4,411.1,272,413.7,272,416.9L272,416.9z"/>
	<path class="st0" d="M73.9,555.5V425.1c0-3.1,2.5-5.7,5.7-5.7h31.2v136.1L73.9,555.5L73.9,555.5z"/>
	<path class="st0" d="M110.8,692.9V420.7c0-1.6,1.3-2.8,2.8-2.8H261c1.6,0,2.8,1.3,2.8,2.8v272.1c0,1.6-1.3,2.8-2.8,2.8H113.6
		C112.1,695.7,110.8,694.4,110.8,692.9z"/>
	<path class="st0" d="M73.9,685.9V555.5h36.9v136.1H79.6C76.5,691.5,73.9,689,73.9,685.9z"/>
</g>
</svg>
