<?xml version="1.0" encoding="utf-8"?>
<!-- Generator: Adobe Illustrator 26.0.2, SVG Export Plug-In . SVG Version: 6.00 Build 0)  -->
<svg version="1.1" id="Layer_1" xmlns="http://www.w3.org/2000/svg" xmlns:xlink="http://www.w3.org/1999/xlink" x="0px" y="0px"
	 viewBox="0 0 4280.3 1133.9" style="enable-background:new 0 0 4280.3 1133.9;" xml:space="preserve">
<style type="text/css">
	.st0{fill:none;stroke:#010101;stroke-miterlimit:11.3386;}
	.st1{fill:none;stroke:#010101;stroke-width:0.8518;stroke-miterlimit:11.3386;}
</style>
<g>
	<g>
		<path id="rect815" class="st0" d="M1043.8,161.6v882.1c0,14-11.2,25.2-25.1,25.2H453.8c-13.9,0-25.1-11.3-25.1-25.2V161.6
			c0-14,11.2-25.2,25.1-25.2h564.8C1032.5,136.4,1043.8,147.6,1043.8,161.6z"/>
		<path id="rect818" class="st0" d="M1030.2,222.6v760.5c0,14-11.4,25.2-25.5,25.2h-307c-14.1,0-25.5-11.3-25.5-25.2V222.6
			c0-14,11.4-25.2,25.5-25.2h307C1018.8,197.4,1030.2,208.6,1030.2,222.6z"/>
		<path id="rect820" class="st1" d="M651.8,437.2v272.2c0,3.1-2.6,5.6-5.8,5.6H451.4c-3.2,0-5.8-2.5-5.8-5.6V437.2
			c0-3.1,2.6-5.6,5.8-5.6H646C649.2,431.6,651.8,434.1,651.8,437.2L651.8,437.2z"/>
		<path id="path826" class="st0" d="M992.8,1053.8c-8.4,0-15.2-6.8-15.2-15.3c0-8.4,6.8-15.3,15.2-15.3l0,0
			c8.4,0,15.2,6.8,15.2,15.3l0,0C1008,1046.9,1001.2,1053.8,992.8,1053.8z"/>
		<path class="st0" d="M453.8,572V442c0-3.1,2.5-5.7,5.7-5.7h31.2V572H453.8L453.8,572z"/>
		<path class="st0" d="M490.6,709V437.6c0-1.6,1.3-2.8,2.8-2.8h147.4c1.6,0,2.8,1.3,2.8,2.8v271.3c0,1.6-1.3,2.8-2.8,2.8H493.4
			C491.9,711.8,490.6,710.5,490.6,709z"/>
		<path class="st0" d="M453.7,702V572h36.9v135.7h-31.2C456.3,707.6,453.7,705.1,453.7,702z"/>
	</g>
	<path class="st0" d="M479.3,1007.6v-46.8c0-1.6,1.3-2.8,2.8-2.8h31.2c1.6,0,2.8,1.3,2.8,2.8v46.8c0,1.6-1.3,2.8-2.8,2.8h-31.2
		C480.6,1010.4,479.3,1009.2,479.3,1007.6z"/>
</g>
</svg>
