<?xml version="1.0" encoding="utf-8"?>
<!-- Generator: Adobe Illustrator 26.0.2, SVG Export Plug-In . SVG Version: 6.00 Build 0)  -->
<svg version="1.1" id="Layer_1" xmlns="http://www.w3.org/2000/svg" xmlns:xlink="http://www.w3.org/1999/xlink" x="0px" y="0px"
	 viewBox="0 0 4280.3 1133.9" style="enable-background:new 0 0 4280.3 1133.9;" xml:space="preserve">
<style type="text/css">
	.st0{fill:none;stroke:#010101;stroke-miterlimit:11.3386;}
	.st1{fill:none;stroke:#010101;stroke-width:0.8518;stroke-miterlimit:11.3386;}
</style>
<g>
	<g>
		<path class="st0" d="M405.5,1038.8H187.1c-13.9,0-25.1-11.3-25.1-25.2V131.5c0-14,11.2-25.2,25.1-25.2h218.4"/>
		<path class="st0" d="M409.3,1038.8"/>
		<path class="st0" d="M405.5,1038.8V106.3"/>
		<path id="rect820" class="st1" d="M385.1,407.1v272.2c0,3.1-2.6,5.6-5.8,5.6H184.7c-3.2,0-5.8-2.5-5.8-5.6V407.1
			c0-3.1,2.6-5.6,5.8-5.6h194.6C382.5,401.5,385.1,404,385.1,407.1L385.1,407.1z"/>
		<path class="st0" d="M187,541.9v-130c0-3.1,2.5-5.7,5.7-5.7h31.2v135.7H187L187,541.9z"/>
		<path class="st0" d="M223.9,678.9V407.5c0-1.6,1.3-2.8,2.8-2.8h147.4c1.6,0,2.8,1.3,2.8,2.8v271.3c0,1.6-1.3,2.8-2.8,2.8H226.7
			C225.2,681.7,223.9,680.4,223.9,678.9z"/>
		<path class="st0" d="M187,671.9v-130h36.9v135.7h-31.2C189.6,677.5,187,675,187,671.9z"/>
	</g>
	<path class="st0" d="M225.8,967.9v-46.8c0-1.6,1.3-2.8,2.8-2.8h31.2c1.6,0,2.8,1.3,2.8,2.8v46.8c0,1.6-1.3,2.8-2.8,2.8h-31.2
		C227.1,970.8,225.8,969.5,225.8,967.9z"/>
</g>
</svg>
