<?xml version="1.0" encoding="utf-8"?>
<!-- Generator: Adobe Illustrator 24.2.2, SVG Export Plug-In . SVG Version: 6.00 Build 0)  -->
<svg version="1.1"
	 id="svg8" inkscape:version="0.92.5 (2060ec1f9f, 2020-04-08)" sodipodi:docname="e5450_PR.svg" xmlns:cc="http://creativecommons.org/ns#" xmlns:dc="http://purl.org/dc/elements/1.1/" xmlns:inkscape="http://www.inkscape.org/namespaces/inkscape" xmlns:rdf="http://www.w3.org/1999/02/22-rdf-syntax-ns#" xmlns:sodipodi="http://sodipodi.sourceforge.net/DTD/sodipodi-0.dtd" xmlns:svg="http://www.w3.org/2000/svg"
	 xmlns="http://www.w3.org/2000/svg" xmlns:xlink="http://www.w3.org/1999/xlink" x="0px" y="0px" viewBox="0 0 2267.7 2267.7"
	 style="enable-background:new 0 0 2267.7 2267.7;" xml:space="preserve">
<style type="text/css">
	.st0{fill:#FFFFFF;stroke:#000000;stroke-miterlimit:10;}
	.st1{fill:none;stroke:#000000;stroke-width:0.8518;stroke-miterlimit:11.3386;}
</style>
<sodipodi:namedview  bordercolor="#666666" borderopacity="1.0" id="base" inkscape:current-layer="layer3" inkscape:cx="1383.9404" inkscape:cy="2257.114" inkscape:document-units="mm" inkscape:guide-bbox="true" inkscape:pageopacity="0.0" inkscape:pageshadow="2" inkscape:window-height="1136" inkscape:window-maximized="1" inkscape:window-width="1848" inkscape:window-x="72" inkscape:window-y="27" inkscape:zoom="0.98994949" pagecolor="#ffffff" showgrid="false" showguides="true">
	<sodipodi:guide  id="guide822" inkscape:locked="false" orientation="1,0" position="375.51368,628.35065"></sodipodi:guide>
</sodipodi:namedview>
<g id="layer1" transform="translate(0,503)" inkscape:groupmode="layer" inkscape:label="Layer 1">
</g>
<g id="layer2" inkscape:groupmode="layer" inkscape:label="Layer 2">
</g>
<g>
	<polygon class="st0" points="0,2182.7 0,2265.5 226.3,2265.5 228.8,2264.5 230.6,2263.9 232.5,2263.1 234.7,2261.9 236.5,2260.8 
		238.3,2259.4 239.3,2258.4 241.5,2256 243.6,2253 245.4,2249.3 247.1,2244.2 247.1,1343.8 246.5,1340.9 245.4,1337.1 244.1,1334.3 
		242.1,1331.2 240.2,1328.9 238,1326.9 235.1,1324.7 232.9,1323.5 229.9,1322.3 226.2,1320.9 0,1320.9 	"/>
	<path id="rect820_1_" class="st1" d="M21.1,1958.3v-274.1c0-3.1,2.5-5.7,5.7-5.7h190.5c3.1,0,5.7,2.5,5.7,5.7v274.1
		c0,3.1-2.5,5.7-5.7,5.7H26.8C23.7,1964,21.1,1961.5,21.1,1958.3L21.1,1958.3z"/>
</g>
<sodipodi:namedview  bordercolor="#666666" borderopacity="1.0" id="base" inkscape:current-layer="layer3" inkscape:cx="1383.9404" inkscape:cy="2257.114" inkscape:document-units="mm" inkscape:guide-bbox="true" inkscape:pageopacity="0.0" inkscape:pageshadow="2" inkscape:window-height="1136" inkscape:window-maximized="1" inkscape:window-width="1848" inkscape:window-x="72" inkscape:window-y="27" inkscape:zoom="0.98994949" pagecolor="#ffffff" showgrid="false" showguides="true">
	<sodipodi:guide  id="guide822" inkscape:locked="false" orientation="1,0" position="375.51368,628.35065"></sodipodi:guide>
</sodipodi:namedview>
<g id="layer1_1_" transform="translate(0,503)" inkscape:groupmode="layer" inkscape:label="Layer 1">
</g>
<g id="layer2_1_" inkscape:groupmode="layer" inkscape:label="Layer 2">
</g>
<g>
	<polygon class="st0" points="262.5,2182.7 262.5,2265.5 488.8,2265.5 491.3,2264.5 493.1,2263.9 495,2263.1 497.2,2261.9 
		499,2260.8 500.8,2259.4 501.8,2258.4 504,2256 506,2253 507.9,2249.3 509.6,2244.2 509.6,1343.8 509,1340.9 507.9,1337.1 
		506.6,1334.3 504.6,1331.2 502.7,1328.9 500.5,1326.9 497.6,1324.7 495.3,1323.5 492.4,1322.3 488.7,1320.9 262.5,1320.9 	"/>
	<path id="rect820_2_" class="st1" d="M283.6,1958.3v-274.1c0-3.1,2.5-5.7,5.7-5.7h190.5c3.1,0,5.7,2.5,5.7,5.7v274.1
		c0,3.1-2.5,5.7-5.7,5.7H289.3C286.1,1964,283.6,1961.5,283.6,1958.3L283.6,1958.3z"/>
</g>
<g>
	<polygon class="st0" points="523.8,2182.7 523.8,2265.5 750.1,2265.5 752.6,2264.5 754.5,2263.9 756.3,2263.1 758.5,2261.9 
		760.3,2260.8 762.1,2259.4 763.2,2258.4 765.3,2256 767.4,2253 769.2,2249.3 771,2244.2 771,1343.8 770.4,1340.9 769.2,1337.1 
		767.9,1334.3 765.9,1331.2 764,1328.9 761.9,1326.9 758.9,1324.7 756.7,1323.5 753.7,1322.3 750,1320.9 523.8,1320.9 	"/>
	<path id="rect820_4_" class="st1" d="M545,1958.3v-274.1c0-3.1,2.5-5.7,5.7-5.7h190.5c3.1,0,5.7,2.5,5.7,5.7v274.1
		c0,3.1-2.5,5.7-5.7,5.7H550.6C547.5,1964,545,1961.5,545,1958.3L545,1958.3z"/>
</g>
<g>
	<polygon class="st0" points="786.3,2182.7 786.3,2265.5 1012.6,2265.5 1015.1,2264.5 1017,2263.9 1018.8,2263.1 1021,2261.9 
		1022.8,2260.8 1024.6,2259.4 1025.6,2258.4 1027.8,2256 1029.9,2253 1031.7,2249.3 1033.4,2244.2 1033.4,1343.8 1032.8,1340.9 
		1031.7,1337.1 1030.4,1334.3 1028.4,1331.2 1026.5,1328.9 1024.3,1326.9 1021.4,1324.7 1019.2,1323.5 1016.2,1322.3 1012.5,1320.9 
		786.3,1320.9 	"/>
	<path id="rect820_3_" class="st1" d="M807.4,1958.3v-274.1c0-3.1,2.5-5.7,5.7-5.7h190.5c3.1,0,5.7,2.5,5.7,5.7v274.1
		c0,3.1-2.5,5.7-5.7,5.7H813.1C810,1964,807.4,1961.5,807.4,1958.3L807.4,1958.3z"/>
</g>
<g>
	<polygon class="st0" points="1044.1,2182.7 1044.1,2265.5 1270.4,2265.5 1272.8,2264.5 1274.7,2263.9 1276.6,2263.1 1278.8,2261.9 
		1280.5,2260.8 1282.3,2259.4 1283.4,2258.4 1285.5,2256 1287.6,2253 1289.5,2249.3 1291.2,2244.2 1291.2,1343.8 1290.6,1340.9 
		1289.4,1337.1 1288.2,1334.3 1286.2,1331.2 1284.3,1328.9 1282.1,1326.9 1279.1,1324.7 1276.9,1323.5 1273.9,1322.3 1270.2,1320.9 
		1044.1,1320.9 	"/>
	<path id="rect820_8_" class="st1" d="M1065.2,1958.3v-274.1c0-3.1,2.5-5.7,5.7-5.7h190.5c3.1,0,5.7,2.5,5.7,5.7v274.1
		c0,3.1-2.5,5.7-5.7,5.7h-190.5C1067.7,1964,1065.2,1961.5,1065.2,1958.3L1065.2,1958.3z"/>
</g>
<g>
	<polygon class="st0" points="1306.5,2182.7 1306.5,2265.5 1532.8,2265.5 1535.3,2264.5 1537.2,2263.9 1539.1,2263.1 1541.3,2261.9 
		1543,2260.8 1544.8,2259.4 1545.9,2258.4 1548,2256 1550.1,2253 1551.9,2249.3 1553.7,2244.2 1553.7,1343.8 1553.1,1340.9 
		1551.9,1337.1 1550.6,1334.3 1548.6,1331.2 1546.7,1328.9 1544.6,1326.9 1541.6,1324.7 1539.4,1323.5 1536.4,1322.3 1532.7,1320.9 
		1306.5,1320.9 	"/>
	<path id="rect820_7_" class="st1" d="M1327.7,1958.3v-274.1c0-3.1,2.5-5.7,5.7-5.7h190.5c3.1,0,5.7,2.5,5.7,5.7v274.1
		c0,3.1-2.5,5.7-5.7,5.7h-190.5C1330.2,1964,1327.7,1961.5,1327.7,1958.3L1327.7,1958.3z"/>
</g>
<g>
	<polygon class="st0" points="1567.9,2182.7 1567.9,2265.5 1794.2,2265.5 1796.7,2264.5 1798.5,2263.9 1800.4,2263.1 1802.6,2261.9 
		1804.4,2260.8 1806.2,2259.4 1807.2,2258.4 1809.4,2256 1811.5,2253 1813.3,2249.3 1815,2244.2 1815,1343.8 1814.4,1340.9 
		1813.3,1337.1 1812,1334.3 1810,1331.2 1808.1,1328.9 1805.9,1326.9 1803,1324.7 1800.7,1323.5 1797.8,1322.3 1794.1,1320.9 
		1567.9,1320.9 	"/>
	<path id="rect820_6_" class="st1" d="M1589,1958.3v-274.1c0-3.1,2.5-5.7,5.7-5.7h190.5c3.1,0,5.7,2.5,5.7,5.7v274.1
		c0,3.1-2.5,5.7-5.7,5.7h-190.5C1591.6,1964,1589,1961.5,1589,1958.3L1589,1958.3z"/>
</g>
<g>
	<polygon class="st0" points="1830.4,2182.7 1830.4,2265.5 2056.7,2265.5 2059.1,2264.5 2061,2263.9 2062.9,2263.1 2065.1,2261.9 
		2066.8,2260.8 2068.6,2259.4 2069.7,2258.4 2071.8,2256 2073.9,2253 2075.8,2249.3 2077.5,2244.2 2077.5,1343.8 2076.9,1340.9 
		2075.8,1337.1 2074.5,1334.3 2072.5,1331.2 2070.6,1328.9 2068.4,1326.9 2065.4,1324.7 2063.2,1323.5 2060.3,1322.3 2056.6,1320.9 
		1830.4,1320.9 	"/>
	<path id="rect820_5_" class="st1" d="M1851.5,1958.3v-274.1c0-3.1,2.5-5.7,5.7-5.7h190.5c3.1,0,5.7,2.5,5.7,5.7v274.1
		c0,3.1-2.5,5.7-5.7,5.7h-190.5C1854,1964,1851.5,1961.5,1851.5,1958.3L1851.5,1958.3z"/>
</g>
<g>
	<polygon class="st0" points="2089.4,2182.7 2089.4,2265.5 2315.7,2265.5 2318.1,2264.5 2320,2263.9 2321.9,2263.1 2324.1,2261.9 
		2325.8,2260.8 2327.6,2259.4 2328.7,2258.4 2330.8,2256 2332.9,2253 2334.7,2249.3 2336.5,2244.2 2336.5,1343.8 2335.9,1340.9 
		2334.7,1337.1 2333.4,1334.3 2331.5,1331.2 2329.6,1328.9 2327.4,1326.9 2324.4,1324.7 2322.2,1323.5 2319.2,1322.3 2315.5,1320.9 
		2089.4,1320.9 	"/>
	<path id="rect820_16_" class="st1" d="M2110.5,1958.3v-274.1c0-3.1,2.5-5.7,5.7-5.7h190.5c3.1,0,5.7,2.5,5.7,5.7v274.1
		c0,3.1-2.5,5.7-5.7,5.7h-190.5C2113,1964,2110.5,1961.5,2110.5,1958.3L2110.5,1958.3z"/>
</g>
<g>
	<polygon class="st0" points="2351.8,2182.7 2351.8,2265.5 2578.1,2265.5 2580.6,2264.5 2582.5,2263.9 2584.4,2263.1 2586.6,2261.9 
		2588.3,2260.8 2590.1,2259.4 2591.2,2258.4 2593.3,2256 2595.4,2253 2597.2,2249.3 2599,2244.2 2599,1343.8 2598.4,1340.9 
		2597.2,1337.1 2595.9,1334.3 2593.9,1331.2 2592,1328.9 2589.9,1326.9 2586.9,1324.7 2584.7,1323.5 2581.7,1322.3 2578,1320.9 
		2351.8,1320.9 	"/>
	<path id="rect820_15_" class="st1" d="M2373,1958.3v-274.1c0-3.1,2.5-5.7,5.7-5.7h190.5c3.1,0,5.7,2.5,5.7,5.7v274.1
		c0,3.1-2.5,5.7-5.7,5.7h-190.5C2375.5,1964,2373,1961.5,2373,1958.3L2373,1958.3z"/>
</g>
<g>
	<polygon class="st0" points="2613.2,2182.7 2613.2,2265.5 2839.5,2265.5 2842,2264.5 2843.8,2263.9 2845.7,2263.1 2847.9,2261.9 
		2849.7,2260.8 2851.5,2259.4 2852.5,2258.4 2854.7,2256 2856.8,2253 2858.6,2249.3 2860.3,2244.2 2860.3,1343.8 2859.7,1340.9 
		2858.6,1337.1 2857.3,1334.3 2855.3,1331.2 2853.4,1328.9 2851.2,1326.9 2848.3,1324.7 2846,1323.5 2843.1,1322.3 2839.4,1320.9 
		2613.2,1320.9 	"/>
	<path id="rect820_14_" class="st1" d="M2634.3,1958.3v-274.1c0-3.1,2.5-5.7,5.7-5.7h190.5c3.1,0,5.7,2.5,5.7,5.7v274.1
		c0,3.1-2.5,5.7-5.7,5.7H2640C2636.8,1964,2634.3,1961.5,2634.3,1958.3L2634.3,1958.3z"/>
</g>
<g>
	<polygon class="st0" points="2875.7,2182.7 2875.7,2265.5 3102,2265.5 3104.4,2264.5 3106.3,2263.9 3108.2,2263.1 3110.4,2261.9 
		3112.1,2260.8 3113.9,2259.4 3115,2258.4 3117.1,2256 3119.2,2253 3121.1,2249.3 3122.8,2244.2 3122.8,1343.8 3122.2,1340.9 
		3121.1,1337.1 3119.8,1334.3 3117.8,1331.2 3115.9,1328.9 3113.7,1326.9 3110.7,1324.7 3108.5,1323.5 3105.5,1322.3 3101.8,1320.9 
		2875.7,1320.9 	"/>
	<path id="rect820_13_" class="st1" d="M2896.8,1958.3v-274.1c0-3.1,2.5-5.7,5.7-5.7H3093c3.1,0,5.7,2.5,5.7,5.7v274.1
		c0,3.1-2.5,5.7-5.7,5.7h-190.5C2899.3,1964,2896.8,1961.5,2896.8,1958.3L2896.8,1958.3z"/>
</g>
<g>
	<polygon class="st0" points="3133.4,2182.7 3133.4,2265.5 3359.7,2265.5 3362.2,2264.5 3364.1,2263.9 3365.9,2263.1 3368.1,2261.9 
		3369.9,2260.8 3371.7,2259.4 3372.8,2258.4 3374.9,2256 3377,2253 3378.8,2249.3 3380.5,2244.2 3380.5,1343.8 3379.9,1340.9 
		3378.8,1337.1 3377.5,1334.3 3375.5,1331.2 3373.6,1328.9 3371.4,1326.9 3368.5,1324.7 3366.3,1323.5 3363.3,1322.3 3359.6,1320.9 
		3133.4,1320.9 	"/>
	<path id="rect820_12_" class="st1" d="M3154.6,1958.3v-274.1c0-3.1,2.5-5.7,5.7-5.7h190.5c3.1,0,5.7,2.5,5.7,5.7v274.1
		c0,3.1-2.5,5.7-5.7,5.7h-190.5C3157.1,1964,3154.6,1961.5,3154.6,1958.3L3154.6,1958.3z"/>
</g>
<g>
	<polygon class="st0" points="3395.9,2182.7 3395.9,2265.5 3622.2,2265.5 3624.7,2264.5 3626.5,2263.9 3628.4,2263.1 3630.6,2261.9 
		3632.4,2260.8 3634.2,2259.4 3635.2,2258.4 3637.4,2256 3639.5,2253 3641.3,2249.3 3643,2244.2 3643,1343.8 3642.4,1340.9 
		3641.3,1337.1 3640,1334.3 3638,1331.2 3636.1,1328.9 3633.9,1326.9 3631,1324.7 3628.8,1323.5 3625.8,1322.3 3622.1,1320.9 
		3395.9,1320.9 	"/>
	<path id="rect820_11_" class="st1" d="M3417,1958.3v-274.1c0-3.1,2.5-5.7,5.7-5.7h190.5c3.1,0,5.7,2.5,5.7,5.7v274.1
		c0,3.1-2.5,5.7-5.7,5.7h-190.5C3419.6,1964,3417,1961.5,3417,1958.3L3417,1958.3z"/>
</g>
<g>
	<polygon class="st0" points="3657.2,2182.7 3657.2,2265.5 3883.6,2265.5 3886,2264.5 3887.9,2263.9 3889.8,2263.1 3892,2261.9 
		3893.7,2260.8 3895.5,2259.4 3896.6,2258.4 3898.7,2256 3900.8,2253 3902.6,2249.3 3904.4,2244.2 3904.4,1343.8 3903.8,1340.9 
		3902.6,1337.1 3901.3,1334.3 3899.3,1331.2 3897.4,1328.9 3895.3,1326.9 3892.3,1324.7 3890.1,1323.5 3887.1,1322.3 3883.4,1320.9 
		3657.2,1320.9 	"/>
	<path id="rect820_10_" class="st1" d="M3678.4,1958.3v-274.1c0-3.1,2.5-5.7,5.7-5.7h190.5c3.1,0,5.7,2.5,5.7,5.7v274.1
		c0,3.1-2.5,5.7-5.7,5.7h-190.5C3680.9,1964,3678.4,1961.5,3678.4,1958.3L3678.4,1958.3z"/>
</g>
</svg>
