<?xml version="1.0" encoding="utf-8"?>
<!-- Generator: Adobe Illustrator 25.2.1, SVG Export Plug-In . SVG Version: 6.00 Build 0)  -->
<svg version="1.1" id="Layer_1" xmlns="http://www.w3.org/2000/svg" xmlns:xlink="http://www.w3.org/1999/xlink" x="0px" y="0px"
	 viewBox="0 0 4280.3 1133.9" style="enable-background:new 0 0 4280.3 1133.9;" xml:space="preserve">
<style type="text/css">
	.st0{fill:none;stroke:#010101;stroke-miterlimit:11.3386;}
	.st1{fill:none;stroke:#010101;stroke-width:0.8518;stroke-miterlimit:11.3386;}
</style>
<g>
	<path id="rect815" class="st0" d="M676,125.9V1008c0,14-11.2,25.2-25.1,25.2H86.1c-13.9,0-25.1-11.3-25.1-25.2V125.9
		c0-14,11.2-25.2,25.1-25.2h564.8C664.8,100.7,676,111.9,676,125.9z"/>
	<path id="rect818" class="st0" d="M662.5,186.9v760.5c0,14-11.4,25.2-25.5,25.2H330c-14.1,0-25.5-11.3-25.5-25.2V186.9
		c0-14,11.4-25.2,25.5-25.2h307C651.1,161.7,662.5,172.9,662.5,186.9z"/>
	<path id="rect820" class="st1" d="M284.1,401.5v272.2c0,3.1-2.6,5.6-5.8,5.6H83.7c-3.2,0-5.8-2.5-5.8-5.6V401.5
		c0-3.1,2.6-5.6,5.8-5.6h194.6C281.5,395.9,284.1,398.4,284.1,401.5L284.1,401.5z"/>
	<path id="path826" class="st0" d="M625.1,1018.1c-8.4,0-15.2-6.8-15.2-15.3c0-8.4,6.8-15.3,15.2-15.3l0,0c8.4,0,15.2,6.8,15.2,15.3
		l0,0C640.2,1011.2,633.5,1018.1,625.1,1018.1z"/>
	<path class="st0" d="M86,536.3v-130c0-3.1,2.5-5.7,5.7-5.7h31.2v135.7L86,536.3L86,536.3z"/>
	<path class="st0" d="M122.9,673.3V401.9c0-1.6,1.3-2.8,2.8-2.8h147.4c1.6,0,2.8,1.3,2.8,2.8l0,271.3c0,1.6-1.3,2.8-2.8,2.8H125.7
		C124.2,676.1,122.9,674.8,122.9,673.3z"/>
	<path class="st0" d="M86,666.3v-130h36.9V672H91.7C88.6,671.9,86,669.4,86,666.3z"/>
</g>
</svg>
