<?xml version="1.0" encoding="utf-8"?>
<!-- Generator: Adobe Illustrator 25.4.0, SVG Export Plug-In . SVG Version: 6.00 Build 0)  -->
<svg version="1.1" id="Layer_1" xmlns="http://www.w3.org/2000/svg" xmlns:xlink="http://www.w3.org/1999/xlink" x="0px" y="0px"
	 viewBox="0 0 4280.3 1133.9" style="enable-background:new 0 0 4280.3 1133.9;" xml:space="preserve">
<style type="text/css">
	.st0{fill:none;stroke:#010101;stroke-miterlimit:11.3386;}
</style>
<g>
	<path id="rect1373-0" class="st0" d="M469.1,1054.5H272.7c-12.7,0-22.9-10.1-22.9-22.6V136c0-12.5,10.2-22.6,22.9-22.6h196.5"/>
	<path id="rect1385-6" class="st0" d="M463.3,417.6v272.6c0,1.6-1.3,2.8-2.9,2.8H312.5c-1.6,0-2.9-1.3-2.9-2.8V417.6
		c0-1.6,1.3-2.8,2.9-2.8h147.9C462,414.8,463.3,416.1,463.3,417.6z"/>
	<path id="rect1387-7" class="st0" d="M309.6,420.9v128.8c0,2.3-1.9,4.2-4.3,4.2h-30.5c-2.4,0-4.3-1.9-4.3-4.2V420.9
		c0-2.3,1.9-4.2,4.3-4.2h30.5C307.7,416.7,309.6,418.6,309.6,420.9z"/>
	<path id="rect1387-1-9" class="st0" d="M309.6,558.2V687c0,2.3-1.9,4.2-4.3,4.2h-30.5c-2.4,0-4.3-1.9-4.3-4.2V558.2
		c0-2.3,1.9-4.2,4.3-4.2h30.5C307.7,553.9,309.6,555.8,309.6,558.2z"/>
	<path class="st0" d="M869.1,1054.2l-400,0.3"/>
	<path class="st0" d="M469.1,113.4h400.7c0,0,12.3,0,12.3,4c0,5.1-11.9,9-13,24.3v884.4"/>
	<path id="rect1420" class="st0" d="M509.7,410.8V203.5c0-9.5,7.7-17.1,17.2-17.1h302.8c9.5,0,17.2,7.6,17.2,17.1v761
		c0,9.5-7.7,17.1-17.2,17.1H526.9c-9.5,0-17.2-7.6-17.2-17.1V410.8"/>
	<path id="path1448" class="st0" d="M821.4,1036.3c-9.8,0-17.7-7.9-17.7-17.7s7.9-17.7,17.7-17.7s17.7,7.9,17.7,17.7
		S831.2,1036.3,821.4,1036.3z"/>
	<path class="st0" d="M264,691.4v-275c0-3.1,2.5-5.7,5.7-5.7h195.6c1.6,0,2.8,1.3,2.8,2.8v280.6c0,1.6-1.3,2.8-2.8,2.8H269.7
		C266.5,697.1,264,694.5,264,691.4z"/>
	<path id="rect1417_2_" class="st0" d="M869.1,1026.2c1.1,15.8,13,18.7,13,24"/>
	<path id="rect1417_1_" class="st0" d="M882.1,1050.1c0,4.1-13,4.1-13,4.1"/>
</g>
</svg>
