<?xml version="1.0" encoding="utf-8"?>
<!-- Generator: Adobe Illustrator 25.2.1, SVG Export Plug-In . SVG Version: 6.00 Build 0)  -->
<svg version="1.1" id="Layer_1" xmlns="http://www.w3.org/2000/svg" xmlns:xlink="http://www.w3.org/1999/xlink" x="0px" y="0px"
	 viewBox="0 0 4280.3 1133.9" style="enable-background:new 0 0 4280.3 1133.9;" xml:space="preserve">
<style type="text/css">
	.st0{fill:none;stroke:#010101;stroke-miterlimit:11.3386;}
</style>
<g>
	<path id="rect1373-0" class="st0" d="M291.4,1054.5H95c-12.7,0-22.9-10.1-22.9-22.6V136c0-12.5,10.2-22.6,22.9-22.6h196.5"/>
	<path id="rect1385-6" class="st0" d="M285.6,417.6v272.6c0,1.6-1.3,2.8-2.9,2.8H134.8c-1.6,0-2.9-1.3-2.9-2.8V417.6
		c0-1.6,1.3-2.8,2.9-2.8h147.9C284.3,414.8,285.6,416.1,285.6,417.6z"/>
	<path id="rect1387-7" class="st0" d="M131.9,420.9v128.8c0,2.3-1.9,4.2-4.3,4.2H97.1c-2.4,0-4.3-1.9-4.3-4.2V420.9
		c0-2.3,1.9-4.2,4.3-4.2h30.5C130,416.7,131.9,418.6,131.9,420.9z"/>
	<path id="rect1387-1-9" class="st0" d="M131.9,558.2V687c0,2.3-1.9,4.2-4.3,4.2H97.1c-2.4,0-4.3-1.9-4.3-4.2V558.2
		c0-2.3,1.9-4.2,4.3-4.2h30.5C130,553.9,131.9,555.8,131.9,558.2z"/>
	<path class="st0" d="M691.4,1054.2l-400,0.3"/>
	<path class="st0" d="M291.4,113.4h400.7c0,0,12.3,0,12.3,4c0,5.1-11.9,9-13,24.3v884.4"/>
	<path id="rect1420" class="st0" d="M332,410.8V203.5c0-9.5,7.7-17.1,17.2-17.1H652c9.5,0,17.2,7.6,17.2,17.1v761
		c0,9.5-7.7,17.1-17.2,17.1H349.2c-9.5,0-17.2-7.6-17.2-17.1V697.1"/>
	<path id="rect1424" class="st0" d="M332,697.1h-19V410.8h19"/>
	<path id="path1448" class="st0" d="M643.7,1036.3c-9.8,0-17.7-7.9-17.7-17.7s7.9-17.7,17.7-17.7s17.7,7.9,17.7,17.7
		S653.5,1036.3,643.7,1036.3z"/>
	<path class="st0" d="M86.3,691.4v-275c0-3.1,2.5-5.7,5.7-5.7h195.6c1.6,0,2.8,1.3,2.8,2.8v280.6c0,1.6-1.3,2.8-2.8,2.8H92
		C88.8,697.1,86.3,694.5,86.3,691.4z"/>
	<path class="st0" d="M312.9,524.2V419.3h28.3c3.1,0,5.7,2.5,5.7,5.7v99.2H312.9z"/>
	<path class="st0" d="M312.9,688.6V583.7h34v99.2c0,3.1-2.5,5.7-5.7,5.7L312.9,688.6L312.9,688.6z"/>
	<path class="st0" d="M312.9,580.9V527c0-1.6,1.3-2.8,2.8-2.8h19.8c1.6,0,2.8,1.3,2.8,2.8v53.9c0,1.6-1.3,2.8-2.8,2.8h-19.8
		C314.1,583.7,312.9,582.4,312.9,580.9z"/>
	<path id="rect1417_2_" class="st0" d="M691.4,1026.2c1.1,15.8,13,18.7,13,24"/>
	<path id="rect1417_1_" class="st0" d="M704.4,1050.1c0,4.1-13,4.1-13,4.1"/>
</g>
</svg>
