<?xml version="1.0" encoding="UTF-8" standalone="no"?>
<!-- Created with Inkscape (http://www.inkscape.org/) -->

<svg
   xmlns:dc="http://purl.org/dc/elements/1.1/"
   xmlns:cc="http://creativecommons.org/ns#"
   xmlns:rdf="http://www.w3.org/1999/02/22-rdf-syntax-ns#"
   xmlns:svg="http://www.w3.org/2000/svg"
   xmlns="http://www.w3.org/2000/svg"
   xmlns:sodipodi="http://sodipodi.sourceforge.net/DTD/sodipodi-0.dtd"
   xmlns:inkscape="http://www.inkscape.org/namespaces/inkscape"
   width="800mm"
   height="800mm"
   viewBox="0 0 800 800"
   version="1.1"
   id="svg828"
   inkscape:version="0.92.3 (2405546, 2018-03-11)"
   sodipodi:docname="E5470_PR.svg">
  <defs
     id="defs822" />
  <sodipodi:namedview
     id="base"
     pagecolor="#ffffff"
     bordercolor="#666666"
     borderopacity="1.0"
     inkscape:pageopacity="0.0"
     inkscape:pageshadow="2"
     inkscape:zoom="0.98994949"
     inkscape:cx="-393.56664"
     inkscape:cy="2545.4698"
     inkscape:document-units="mm"
     inkscape:current-layer="g1381"
     showgrid="false"
     inkscape:window-width="1920"
     inkscape:window-height="1017"
     inkscape:window-x="-8"
     inkscape:window-y="-8"
     inkscape:window-maximized="1" />
  <metadata
     id="metadata825">
    <rdf:RDF>
      <cc:Work
         rdf:about="">
        <dc:format>image/svg+xml</dc:format>
        <dc:type
           rdf:resource="http://purl.org/dc/dcmitype/StillImage" />
        <dc:title></dc:title>
      </cc:Work>
    </rdf:RDF>
  </metadata>
  <g
     inkscape:label="Layer 1"
     inkscape:groupmode="layer"
     id="layer1"
     transform="translate(0,503)">
    <g
       id="g1381"
       style="stroke:#000000;stroke-opacity:1;stroke-width:0.35277778;stroke-miterlimit:4;stroke-dasharray:none">
      <g
         id="g1466">
        <path
           sodipodi:nodetypes="cccsssscc"
           inkscape:connector-curvature="0"
           id="rect1373"
           d="m -60.044891,-371.72561 c 45.755375,-0.0435 86.522991,-0.0966 128.352844,0.2302 v -1e-5 68.58472 c 0,4.432 -3.568,8 -8,8 H -257.33926 c -4.432,0 -8,-3.568 -8,-8 v -68.58472 l 104.64715,-0.12996"
           style="opacity:1;fill:none;fill-opacity:0.52093021;stroke:#000000;stroke-width:0.35277778;stroke-miterlimit:4;stroke-dasharray:none;stroke-opacity:1" />
        <path
           sodipodi:nodetypes="cssssc"
           inkscape:connector-curvature="0"
           id="rect1375"
           d="m -60.044891,-371.72561 v 70.16771 c 0,1.108 -0.892,2 -2,2 h -96.647219 c -1.108,0 -2,-0.892 -2,-2 v -70.06748"
           style="opacity:1;fill:none;fill-opacity:0.52093021;stroke:#000000;stroke-width:0.35277778;stroke-miterlimit:4;stroke-dasharray:none;stroke-opacity:1" />
        <path
           style="opacity:1;fill:none;fill-opacity:0.52093021;stroke:#000000;stroke-width:0.35277778;stroke-miterlimit:4;stroke-dasharray:none;stroke-opacity:1"
           d="m -158.70491,-371.74606 h 96.647217 c 0.554,0 1,0.446 1,1 v 51.64722 c 0,0.554 -0.446,1 -1,1 h -96.647217 c -0.554,0 -1,-0.446 -1,-1 v -51.64722 c 0,-0.554 0.446,-1 1,-1 z"
           id="rect1385" />
        <path
           style="opacity:1;fill:none;fill-opacity:0.52093021;stroke:#000000;stroke-width:0.35277775;stroke-miterlimit:4;stroke-dasharray:none;stroke-opacity:1"
           d="m -157.67575,-315.9238 h 45.64722 c 0.831,0 1.5,0.669 1.5,1.5 v 10.64722 c 0,0.831 -0.669,1.5 -1.5,1.5 h -45.64722 c -0.831,0 -1.5,-0.669 -1.5,-1.5 v -10.64722 c 0,-0.831 0.669,-1.5 1.5,-1.5 z"
           id="rect1387" />
        <path
           style="opacity:1;fill:none;fill-opacity:0.52093021;stroke:#000000;stroke-width:0.35277775;stroke-miterlimit:4;stroke-dasharray:none;stroke-opacity:1"
           d="m -108.34587,-315.70755 h 45.64722 c 0.831,0 1.5,0.669 1.5,1.5 v 10.64722 c 0,0.831 -0.669,1.5 -1.5,1.5 h -45.64722 c -0.831,0 -1.5,-0.669 -1.5,-1.5 v -10.64722 c 0,-0.831 0.669,-1.5 1.5,-1.5 z"
           id="rect1387-1" />
        <path
           style="opacity:1;fill:none;fill-opacity:0.52093021;stroke:#000000;stroke-width:0.35277778;stroke-miterlimit:4;stroke-dasharray:none;stroke-opacity:1"
           d="m 47.513515,-360.84821 h 13.647223 c 0.831,0 1.5,0.669 1.5,1.5 v 18.64723 c 0,0.831 -0.669,1.5 -1.5,1.5 H 47.513515 c -0.831,0 -1.5,-0.669 -1.5,-1.5 v -18.64723 c 0,-0.831 0.669,-1.5 1.5,-1.5 z"
           id="rect1419" />
      </g>
      <g
         id="g1458">
        <path
           sodipodi:nodetypes="cccsssscc"
           inkscape:connector-curvature="0"
           id="rect1373-0"
           d="m -132.04719,-509.52381 c 45.755367,-0.0435 86.522977,-0.0966 128.3528369,0.2302 v -10e-6 68.58472 c 0,4.432 -3.56798,8 -7.9999899,8 H -329.34156 c -4.432,0 -8,-3.568 -8,-8 v -68.58472 l 104.64715,-0.12996"
           style="opacity:1;fill:none;fill-opacity:0.52093021;stroke:#000000;stroke-width:0.35277778;stroke-miterlimit:4;stroke-dasharray:none;stroke-opacity:1" />
        <path
           sodipodi:nodetypes="cssssc"
           inkscape:connector-curvature="0"
           id="rect1375-8"
           d="m -132.04719,-509.52381 v 70.16771 c 0,1.108 -0.892,2 -2,2 h -96.64722 c -1.108,0 -2,-0.892 -2,-2 v -70.06748"
           style="opacity:1;fill:none;fill-opacity:0.52093021;stroke:#000000;stroke-width:0.35277778;stroke-miterlimit:4;stroke-dasharray:none;stroke-opacity:1" />
        <path
           style="opacity:1;fill:none;fill-opacity:0.52093021;stroke:#000000;stroke-width:0.35277778;stroke-miterlimit:4;stroke-dasharray:none;stroke-opacity:1"
           d="M -230.70721,-509.54425 H -134.06 c 0.554,0 1,0.446 1,1 v 51.64722 c 0,0.554 -0.446,1 -1,1 h -96.64721 c -0.554,0 -1,-0.446 -1,-1 v -51.64722 c 0,-0.554 0.446,-1 1,-1 z"
           id="rect1385-6" />
        <path
           style="opacity:1;fill:none;fill-opacity:0.52093021;stroke:#000000;stroke-width:0.35277775;stroke-miterlimit:4;stroke-dasharray:none;stroke-opacity:1"
           d="m -229.67805,-453.72198 h 45.64722 c 0.831,0 1.5,0.669 1.5,1.5 v 10.64722 c 0,0.831 -0.669,1.5 -1.5,1.5 h -45.64722 c -0.831,0 -1.5,-0.669 -1.5,-1.5 v -10.64722 c 0,-0.831 0.669,-1.5 1.5,-1.5 z"
           id="rect1387-7" />
        <path
           style="opacity:1;fill:none;fill-opacity:0.52093021;stroke:#000000;stroke-width:0.35277775;stroke-miterlimit:4;stroke-dasharray:none;stroke-opacity:1"
           d="m -180.34818,-453.50574 h 45.64723 c 0.831,0 1.5,0.669 1.5,1.5 v 10.64722 c 0,0.831 -0.669,1.5 -1.5,1.5 h -45.64723 c -0.831,0 -1.5,-0.669 -1.5,-1.5 v -10.64722 c 0,-0.831 0.669,-1.5 1.5,-1.5 z"
           id="rect1387-1-9" />
      </g>
    </g>
  </g>
</svg>
