<?xml version="1.0" encoding="utf-8"?>
<!-- Generator: Adobe Illustrator 25.3.1, SVG Export Plug-In . SVG Version: 6.00 Build 0)  -->
<svg version="1.1" id="Layer_1" xmlns="http://www.w3.org/2000/svg" xmlns:xlink="http://www.w3.org/1999/xlink" x="0px" y="0px"
	 viewBox="0 0 4280.3 1133.9" style="enable-background:new 0 0 4280.3 1133.9;" xml:space="preserve">
<style type="text/css">
	.st0{fill:none;stroke:#000000;stroke-miterlimit:10;}
</style>
<path class="st0" d="M520.3,236.9H256.7c-1.6,0-2.8-1.3-2.8-2.8v-39.7c0-1.6,1.3-2.8,2.8-2.8h263.6c1.6,0,2.8,1.3,2.8,2.8v39.7
	C523.1,235.6,521.8,236.9,520.3,236.9z"/>
<path class="st0" d="M475.2,128.5H290.9c-1.6,0-2.8-1.3-2.8-2.8V86c0-1.6,1.3-2.8,2.8-2.8h184.3c1.6,0,2.8,1.3,2.8,2.8v39.7
	C478,127.2,476.8,128.5,475.2,128.5z"/>
</svg>
