<?xml version="1.0" encoding="utf-8"?>
<!-- Generator: Adobe Illustrator 25.2.1, SVG Export Plug-In . SVG Version: 6.00 Build 0)  -->
<svg version="1.1" id="Layer_1" xmlns="http://www.w3.org/2000/svg" xmlns:xlink="http://www.w3.org/1999/xlink" x="0px" y="0px"
	 viewBox="0 0 4280.3 1133.9" style="enable-background:new 0 0 4280.3 1133.9;" xml:space="preserve">
<style type="text/css">
	.st0{fill:none;stroke:#0A0B12;stroke-width:1.4173;stroke-miterlimit:11.3386;}
	.st1{fill:none;stroke:#0A0B12;stroke-width:0.5;}
	.st2{fill:none;stroke:#0A0B12;stroke-width:1.5507;stroke-miterlimit:11.3386;}
	.st3{fill:none;stroke:#0A0B12;stroke-width:1.5164;stroke-miterlimit:11.3386;}
	.st4{fill:none;stroke:#0A0B12;stroke-miterlimit:10;}
</style>
<g>
	<g id="g874-6-0-5" transform="translate(-254.23837,-163.36303)">
		<path id="rect815-7-2-4" class="st0" d="M613.1,256.4v319.5c0,1.6-1.3,2.8-2.8,2.8H443.8c-1.6,0-2.8-1.3-2.8-2.8V256.4
			c0-1.6,1.3-2.8,2.8-2.8h166.4C611.8,253.6,613.1,254.9,613.1,256.4z"/>
		<path id="rect817-53-3-7" class="st0" d="M613.1,253.6v11h-22.3v-11H613.1z"/>
	</g>
	<g id="g870-5-7-4" transform="matrix(1.0082217,0,0,0.99996614,-33.576551,-89.802843)">
		<path id="rect819-6-5-4" class="st1" d="M391.7,704.8v401.1c0,1.6-1.3,2.9-2.8,2.9h-164c-1.6,0-2.8-1.3-2.8-2.9V704.8
			c0-1.6,1.3-2.9,2.8-2.9h164C390.5,702,391.7,703.2,391.7,704.8z"/>
		<path id="rect817-5-2-9-3" class="st1" d="M391.7,1097.7v11.1h-22.1v-11.1H391.7z"/>
		<path id="rect817-1-9-2-0" class="st1" d="M232.9,718.7v36.7h-10.8v-36.7H232.9z"/>
	</g>
	<path id="rect848-1-2-7" class="st2" d="M336.9,425.1v178.4c0,1.6-1.5,2.9-3.3,2.9H234c-1.8,0-3.3-1.3-3.3-2.9V425.1
		c0-1.6,1.5-2.9,3.3-2.9h99.5C335.4,422.2,336.9,423.5,336.9,425.1L336.9,425.1z"/>
	<path id="rect850-7-2-8-8" class="st3" d="M224.8,424.9v83.3c0,1.6-1.4,2.9-3.1,2.9h-31.9c-1.7,0-3.1-1.3-3.1-2.9v-83.3
		c0-1.6,1.4-2.9,3.1-2.9h31.9C223.4,422,224.8,423.3,224.8,424.9z"/>
	<path id="rect850-7-3-7-9-6" class="st3" d="M224.9,521.2v83.3c0,1.6-1.4,2.9-3.1,2.9h-31.9c-1.7,0-3.1-1.3-3.1-2.9v-83.3
		c0-1.6,1.4-2.9,3.1-2.9h31.9C223.5,518.2,224.9,519.5,224.9,521.2z"/>
	<g>
		<polygon class="st4" points="339.4,492.4 339.4,418.7 381.9,418.7 381.9,481.4 		"/>
		
			<rect x="345" y="491.8" transform="matrix(-1.836970e-16 1 -1 -1.836970e-16 875.099 152.4435)" class="st4" width="32.6" height="43.9"/>
		<polygon class="st4" points="339.4,536 339.4,609.7 381.9,609.7 381.9,547 		"/>
	</g>
</g>
</svg>
