<?xml version="1.0" encoding="utf-8"?>
<!-- Generator: Adobe Illustrator 25.2.1, SVG Export Plug-In . SVG Version: 6.00 Build 0)  -->
<svg version="1.1" id="Layer_1" xmlns="http://www.w3.org/2000/svg" xmlns:xlink="http://www.w3.org/1999/xlink" x="0px" y="0px"
	 viewBox="0 0 4280.3 1133.9" style="enable-background:new 0 0 4280.3 1133.9;" xml:space="preserve">
<style type="text/css">
	.st0{fill:none;stroke:#010101;stroke-width:1.4173;stroke-linecap:round;stroke-linejoin:round;stroke-miterlimit:11.3386;}
	.st1{fill:none;stroke:#000000;stroke-miterlimit:10;}
</style>
<g>
	<g>
		<path id="path4-3-9-6" class="st0" d="M255,640.8v166.9c0,0.7,0-5.5,0,82.8c0,66.3-0.1,82.1,0,82.8c1,7.7,11.8,11.7,11.9,11.7
			c223.9,0.1,204,0.1,213.5,0.1h42.1l58.4-0.1c0.3,0,30.3-0.1,32-0.1c8.7,0,13.8,0.8,18.8-4.1c5.1-5,4.5-8.1,4.4-13.1
			c0-1.3,0-5.2,0.1-17.9l0.1-78.9c0-93.5,0-96.2,0-104.1V636.6c0-4.2,0-63.6-0.1-477.3c-6.6-11.3-9.8-10.2-23.2-10.4
			c-0.1,0-14.3-0.1-14.4-0.1l-53.2-0.1H302c-17.3,0-33.3,0-33.6,0c-5.4,0.3-10.5,5.9-11.2,6.9c-2.2,3.1-2.1,5.9-2.2,13.1
			c0,4.6-0.1,16.3-0.1,16.6l-0.1,30.6c0,12,0,39.6,0,42.9V354c0,3.8,0,58.7,0,58.7"/>
		<path id="path6-6-4-7" class="st0" d="M348.9,1031.8c0.2,1.9,0.4,2.4,1.4,3.3l1.1,1.1h12.4c13.4,0,14-0.1,15.3-1.8
			c0.6-0.8,0.6-2,0.7-13.3c0.1-12.1,0.1-12.5-0.6-13.9c-1.2-2.3-1.4-2.3-15.3-2.3c-8.9,0-12.2,0.1-12.8,0.4
			c-0.8,0.4-1.7,1.8-2.2,3.3C348.6,1009.8,348.6,1028.9,348.9,1031.8L348.9,1031.8z"/>
		<path id="path8-0-7-5" class="st0" d="M396.9,1033.8c0.2,0.5,0.9,1.2,1.6,1.6l1.2,0.7h29.5c27.6,0,29.6,0,30.6-0.6
			c1.9-1,1.9-1,2-14.2c0.1-14,0-14.8-2-15.7c-1.1-0.5-3.2-0.6-30.7-0.6c-32.4-0.1-30.9-0.1-32,1.9c-0.3,0.5-0.6,2.3-0.7,3.9
			C396.1,1015.1,396.5,1032.7,396.9,1033.8L396.9,1033.8z"/>
		<path id="path10-6-8-3" class="st0" d="M652.9,964.4c0.3,0.6,1.2,1.4,2,1.7c1.3,0.6,2.4,0.6,14.8,0.6c12.8,0,13.5,0,14.6-0.7
			c2-1.1,2.1-1.7,2.1-16.5c0-15-0.1-15.2-2.6-16.2c-1.9-0.8-27.2-0.8-28.9,0c-2.6,1.2-2.8,2.3-2.7,18.1
			C652.3,962,652.4,963.5,652.9,964.4L652.9,964.4z"/>
		<path id="path12-2-4-5" class="st0" d="M661.3,216.6c0.5,1,1,1.2,3,1.5c3.5,0.5,7.5,0.1,8.7-0.9c1.7-1.5,2.3-7,1.1-10.2
			c-0.9-2.3-2.3-2.8-7.7-2.8c-4.8,0-4.9,0-5.6,2.6C660.3,208.8,660.6,215.1,661.3,216.6L661.3,216.6z"/>
		<path id="path14-6-5-6" class="st0" d="M660.9,239.2c0.2,0.8,0.6,1.5,0.8,1.7c0.7,0.6,9.5,0.4,10.8-0.2c0.8-0.4,1.4-1.1,1.7-2.2
			c0.6-1.9,0.7-7.2,0.1-8.6c-0.7-1.8-3.1-2.8-6.7-2.8c-4.9,0-5.9,0.3-6.5,2.1C660.4,231.1,660.3,237.2,660.9,239.2L660.9,239.2z"/>
		<path id="path16-1-0-2" class="st0" d="M661.1,262.4c0.4,1,1,1.7,1.6,1.9c1.8,0.6,8.6,0.4,9.7-0.3c2.1-1.4,3.1-7.1,1.9-10.5
			c-0.9-2.3-2.6-3-7.3-3c-4.6,0-5.6,0.4-6,2.4C660.3,255.5,660.4,260.7,661.1,262.4z"/>
		<path id="path18-8-3-9" class="st0" d="M65.2,640.2l189.8,0.5"/>
		<path id="path20-7-6-1" class="st0" d="M254.9,412.9H65.5"/>
		<path id="path22-9-1-2" class="st0" d="M65.5,640.1v21.8"/>
		<path id="path24-2-0-7" class="st0" d="M65.5,692.8v336.6c0,15.7,13.7,26.6,28.4,26.6H672c15.9,0,28.4-12.1,28.4-26.6V104.5
			c0-13.8-11.8-26.6-28.4-26.6H93.9c-4.6,0-13.1,1.1-20.2,7.8c-8.6,8.1-8.2,18-8.2,18.7V413"/>
		<path id="path26-0-6-0" class="st0" d="M65.6,661.9L65.6,661.9c0.8,0,0.8,0,11.3,0v30.9c-12,0-11.2,0-11.3,0v-0.1"/>
		<path class="st0" d="M123.6,635.2V416.9c0-1.6,1.3-2.8,2.8-2.8h119.1c1.6,0,2.8,1.3,2.8,2.8v218.3c0,1.6-1.3,2.8-2.8,2.8H126.4
			C124.9,638,123.6,636.7,123.6,635.2z"/>
		<path class="st0" d="M83.9,523.2v-102c0-1.6,1.3-2.8,2.8-2.8h34c1.6,0,2.8,1.3,2.8,2.8v102c0,1.6-1.3,2.8-2.8,2.8h-34
			C85.2,526,83.9,524.7,83.9,523.2z"/>
		<path class="st0" d="M83.9,630.9v-102c0-1.6,1.3-2.8,2.8-2.8h34c1.6,0,2.8,1.3,2.8,2.8v102c0,1.6-1.3,2.8-2.8,2.8h-34
			C85.2,633.7,83.9,632.5,83.9,630.9z"/>
	</g>
	<path class="st1" d="M268.3,1043.2v-45.4c0-1.6,1.3-2.8,2.8-2.8h28.3c1.6,0,2.8,1.3,2.8,2.8v45.4c0,1.6-1.3,2.8-2.8,2.8h-28.3
		C269.5,1046,268.3,1044.8,268.3,1043.2z"/>
</g>
</svg>
