<?xml version="1.0" encoding="UTF-8" standalone="no"?>
<!-- exported from Silhouette Studio® Business Edition V4.2.471ssbe -->

<svg
   xmlns:dc="http://purl.org/dc/elements/1.1/"
   xmlns:cc="http://creativecommons.org/ns#"
   xmlns:rdf="http://www.w3.org/1999/02/22-rdf-syntax-ns#"
   xmlns:svg="http://www.w3.org/2000/svg"
   xmlns="http://www.w3.org/2000/svg"
   xmlns:sodipodi="http://sodipodi.sourceforge.net/DTD/sodipodi-0.dtd"
   xmlns:inkscape="http://www.inkscape.org/namespaces/inkscape"
   version="1.1"
   width="304.8mm"
   height="600mm"
   viewBox="0 0 304.8 600"
   id="svg28"
   sodipodi:docname="E6430s_PR.svg"
   inkscape:version="0.92.3 (2405546, 2018-03-11)">
  <metadata
     id="metadata32">
    <rdf:RDF>
      <cc:Work
         rdf:about="">
        <dc:format>image/svg+xml</dc:format>
        <dc:type
           rdf:resource="http://purl.org/dc/dcmitype/StillImage" />
      </cc:Work>
    </rdf:RDF>
  </metadata>
  <sodipodi:namedview
     pagecolor="#ffffff"
     bordercolor="#666666"
     borderopacity="1"
     objecttolerance="10"
     gridtolerance="10"
     guidetolerance="10"
     inkscape:pageopacity="0"
     inkscape:pageshadow="2"
     inkscape:window-width="1366"
     inkscape:window-height="684"
     id="namedview30"
     showgrid="false"
     inkscape:zoom="0.14717642"
     inkscape:cx="575.99998"
     inkscape:cy="1133.8583"
     inkscape:window-x="0"
     inkscape:window-y="28"
     inkscape:window-maximized="1"
     inkscape:current-layer="svg28" />
  <defs
     id="defs2" />
  <path
     d="M 31.76672 -16.6315 C 31.93756 -17.82645 32.81396 -19.49344 33.98633 -20.85352 C 34.77106 -21.76392 35.18982 -22.11401 36.04834 -22.57715 C 36.64099 -22.89676 37.47217 -23.2485 37.89532 -23.35873 C 38.55945 -23.53177 51.96176 -23.55952 135.7533 -23.56125 C 199.8588 -23.56265 233.0925 -23.51578 233.5795 -23.4234 C 233.9852 -23.34647 234.4852 -23.1651 234.6907 -23.02042 C 234.8961 -22.87573 235.2184 -22.70938 235.4069 -22.65079 C 236.3526 -22.3566 237.8864 -20.37018 238.6496 -18.45117 L 238.9836 -17.61133 L 238.9844 137.3482 C 238.9848 222.5759 238.9464 293.4729 238.8989 294.8972 C 238.8191 297.2892 238.7845 297.5492 238.4458 298.3029 C 237.8909 299.5381 237.2821 300.4018 236.4847 301.0852 C 234.611 302.6908 233.1206 303.1005 229.6667 302.959 C 227.8017 302.8827 227.2819 302.9106 226.0521 303.1529 C 224.8289 303.3941 224.0718 303.4356 220.9517 303.4326 C 218.5098 303.4305 217.1008 303.3731 216.7277 303.261 C 216.2952 303.1308 196.0096 303.0754 127.5646 303.0169 C 44.95233 302.9462 38.89667 302.9251 38.00769 302.7042 C 36.26147 302.2704 34.99841 301.4491 33.71704 299.9142 C 32.71179 298.7102 31.90729 297.1057 31.74451 295.9809 C 31.58167 294.8548 31.60376 -15.49091 31.76672 -16.6315 Z"
     fill="none"
     fill-opacity="1"
     stroke="#000000"
     stroke-opacity="1"
     stroke-width="0.3527778"
     stroke-linecap="round"
     stroke-linejoin="round"
     id="path4" />
  <path
     d="M 30.6474 166.3228 L 31.65485 166.364 C 32.48474 166.3841 38.29541 166.4591 41.48492 166.4586 L 84.57416 166.452 C 93.96222 166.4506 94.3988 166.4096 94.3988 166.4096"
     fill="none"
     fill-opacity="1"
     stroke="#000000"
     stroke-opacity="1"
     stroke-width="0.3527778"
     stroke-linecap="round"
     stroke-linejoin="round"
     id="path6" />
  <path
     d="M 94.47211 86.61813 L 93.77161 86.2626 C 93.6875 86.24899 93.21808 86.2341 84.18683 86.20682 C 83.98914 86.20621 62.13678 86.20157 61.93896 86.20206 L 36.67584 86.26175 C 32.77332 86.271 30.31458 86.39929 30.31458 86.39929"
     fill="none"
     fill-opacity="1"
     stroke="#000000"
     stroke-opacity="1"
     stroke-width="0.3527778"
     stroke-linecap="round"
     stroke-linejoin="round"
     id="path8" />
  <path
     d="M 93.97125 281.5651 C 94.05493 281.9015 93.83014 282.1651 94.52472 283.4348 C 95.37158 284.983 96.82318 285.6816 97.10071 285.7789 C 98.63092 286.3161 121.5402 286.1368 123.1619 286.1254 C 123.319 286.1241 140.363 285.9577 140.8343 285.9526 C 141.6574 285.9437 150.4086 285.8374 150.5819 285.8362 C 150.7582 285.8349 169.8855 285.7874 170.4143 285.7873 C 177.1995 285.7852 189.7124 285.821 190.241 285.8243 C 216.7529 285.9851 220.4142 287.0487 222.5756 283.4725 C 223.6626 281.6739 223.2555 279.9664 223.2563 274.0399 L 223.2778 117.6938 C 223.2409 -4.51123 223.2531 4.144867 223.2435 3.126495 C 223.1612 -5.634857 222.7778 -5.098541 220.1987 -6.623627 C 219.8761 -6.637787 219.0695 -6.766692 208.0908 -6.776764 L 158.7502 -6.820404 L 108.0367 -6.794464 C 99.79095 -6.790315 94.9267 -7.321106 94.36761 -6.316864 C 93.18604 -4.194763 94.08569 -5.260162 94.08569 -5.260162"
     fill="none"
     fill-opacity="1"
     stroke="#000000"
     stroke-opacity="1"
     stroke-width="0.3527778"
     stroke-linecap="round"
     stroke-linejoin="round"
     id="path10" />
  <path
     d="M 143.9041 298.4889 C 144.0371 298.7323 144.3183 299.067 144.5289 299.2328 C 144.9005 299.525 145.0112 299.5327 148.2565 299.4901 L 151.6012 299.4463 L 152.0174 298.9563 C 152.2463 298.6869 152.4969 298.3089 152.5743 298.1164 C 152.7376 297.7104 152.7753 292.809 152.6206 292.0916 C 152.4504 291.3022 152.1398 290.827 151.6658 290.6312 C 150.9727 290.3448 145.2451 290.4288 144.5365 290.7357 C 144.2478 290.8607 144.0106 290.9821 144.0094 291.0053 C 144.0082 291.0284 143.9214 291.2945 143.8162 291.5964 C 143.6755 292.0006 143.6301 292.9236 143.6436 295.0959 C 143.6594 297.6045 143.6983 298.1126 143.9041 298.4889 Z"
     fill="none"
     fill-opacity="1"
     stroke="#000000"
     stroke-opacity="1"
     stroke-width="0.3527778"
     stroke-linecap="round"
     stroke-linejoin="round"
     id="path12" />
  <path
     d="M 160.0045 298.9176 L 160.5985 299.5106 L 163.4271 299.5228 C 166.4937 299.536 166.8501 299.4671 167.5452 298.7273 C 167.8756 298.3757 167.8771 298.3581 167.8771 294.9908 C 167.8771 291.2332 167.8106 290.8908 167.0372 290.6609 C 166.8062 290.5922 165.3432 290.5075 163.7858 290.4725 C 161.1439 290.4132 160.9169 290.4279 160.3961 290.6936 C 160.0892 290.8503 159.7571 291.1199 159.6583 291.2929 C 159.4304 291.6919 159.3059 293.8438 159.3647 296.3659 L 159.4104 298.3247 L 160.0045 298.9176 Z"
     fill="none"
     fill-opacity="1"
     stroke="#000000"
     stroke-opacity="1"
     stroke-width="0.3527778"
     stroke-linecap="round"
     stroke-linejoin="round"
     id="path14" />
  <path
     d="M 171.3951 297.7666 C 171.5096 298.5382 171.8395 299.0517 172.3878 299.3119 C 172.7737 299.4951 173.3444 299.5249 175.7863 299.4892 L 178.7211 299.4464 L 179.2448 298.9221 L 179.7686 298.3982 L 179.8204 295.2307 C 179.8963 290.5814 179.8563 290.5246 176.4448 290.4419 C 173.9691 290.3818 172.1993 290.5822 171.8155 290.9663 C 171.318 291.4638 171.1798 292.4209 171.2482 294.8971 C 171.2833 296.1674 171.3495 297.4586 171.3951 297.7666 Z"
     fill="none"
     fill-opacity="1"
     stroke="#000000"
     stroke-opacity="1"
     stroke-width="0.3527778"
     stroke-linecap="round"
     stroke-linejoin="round"
     id="path16" />
  <path
     d="M 183.6983 -14.06271 C 184.2635 -13.39096 185.0923 -13.14935 186.5249 -13.23874 L 187.7427 -13.3147 L 188.2767 -13.92328 C 188.9052 -14.63959 188.912 -15.07202 188.3088 -15.98352 C 187.8525 -16.67313 187.688 -16.73135 186.1506 -16.74799 C 185.1236 -16.75909 184.8662 -16.71332 184.4261 -16.44135 C 183.3124 -15.75302 183.0361 -14.84976 183.6983 -14.06271 Z"
     fill="none"
     fill-opacity="1"
     stroke="#000000"
     stroke-opacity="1"
     stroke-width="0.3527778"
     stroke-linecap="round"
     stroke-linejoin="round"
     id="path18" />
  <path
     d="M 193.8679 -14.0058 C 194.2773 -13.43091 194.9174 -13.2019 196.1123 -13.20279 C 197.5201 -13.20386 198.0448 -13.37775 198.4263 -13.96948 C 199.4419 -15.54465 198.0349 -17.03534 195.7739 -16.77954 C 194.7701 -16.66592 194.5049 -16.5506 193.8663 -15.94986 C 193.4487 -15.55695 193.4095 -15.45547 193.4864 -14.96652 C 193.5335 -14.66669 193.7052 -14.23434 193.8679 -14.0058 Z"
     fill="none"
     fill-opacity="1"
     stroke="#000000"
     stroke-opacity="1"
     stroke-width="0.3527778"
     stroke-linecap="round"
     stroke-linejoin="round"
     id="path20" />
  <path
     d="M 202.9756 -13.84653 C 203.4253 -13.33047 203.4446 -13.32379 204.6902 -13.25311 C 206.301 -13.16171 207.0802 -13.37631 207.5229 -14.03323 C 207.9693 -14.69565 207.935 -15.32333 207.4204 -15.90952 C 206.7923 -16.62488 206.359 -16.75009 204.7949 -16.66827 L 203.4388 -16.59732 L 202.9797 -16.06619 C 202.3403 -15.32648 202.3389 -14.577 202.9756 -13.84653 Z"
     fill="none"
     fill-opacity="1"
     stroke="#000000"
     stroke-opacity="1"
     stroke-width="0.3527778"
     stroke-linecap="round"
     stroke-linejoin="round"
     id="path22" />
  <path
     d="M 225.4596 268.3094 C 225.7448 269.226 226.0354 269.2805 230.6248 269.2803 C 235.2089 269.2801 235.3983 269.2424 235.9041 268.2306 C 236.1644 267.71 236.1841 267.3907 236.1841 263.6812 C 236.1841 259.8046 236.1753 259.6778 235.8737 259.1927 C 235.1936 258.0992 235.4504 258.152 230.8154 258.152 C 226.3103 258.152 225.9475 258.2039 225.6086 258.8964 C 225.5076 259.1029 225.3838 259.6183 225.3336 260.0418 C 225.1872 261.2776 225.2858 267.7509 225.4596 268.3094 Z"
     fill="none"
     fill-opacity="1"
     stroke="#000000"
     stroke-opacity="1"
     stroke-width="0.3527778"
     stroke-linecap="round"
     stroke-linejoin="round"
     id="path24" />
  <path
     d="M 93.77301 -5.764282 L 93.77301 282.5"
     fill="none"
     fill-opacity="1"
     stroke="#000000"
     stroke-opacity="1"
     stroke-width="0.3527778"
     stroke-linecap="round"
     stroke-linejoin="round"
     id="path26" />
  <path
     inkscape:connector-curvature="0"
     style="fill:none;fill-opacity:1;stroke:#000000;stroke-width:0.35277781;stroke-linecap:round;stroke-linejoin:round;stroke-opacity:1"
     d="m 247.86592,-18.625899 c 0.17084,-1.19495 1.04724,-2.861941 2.21961,-4.222017 0.78473,-0.9104 1.20349,-1.26049 2.06201,-1.72363 0.59265,-0.31961 1.42383,-0.67135 1.84698,-0.78158 0.66413,-0.17304 14.06644,-0.20079 97.85799,-0.20252 64.1055,-0.001 97.3392,0.0455 97.8262,0.13785 0.4057,0.0769 0.9057,0.2583 1.1112,0.40298 0.2054,0.14469 0.5277,0.31104 0.7162,0.36963 0.9457,0.29419 2.4795,2.28061 3.2427,4.199617 l 0.334,0.83984 7.9e-4,154.959459 c 5.3e-4,85.2277 -0.038,156.1247 -0.0855,157.54901 -0.0798,2.39199 -0.11439,2.65199 -0.4531,3.40569 -0.5549,1.2352 -1.1637,2.09891 -1.9611,2.7823 -1.8737,1.6056 -3.3641,2.01531 -6.818,1.87381 -1.865,-0.0763 -2.3848,-0.0484 -3.6146,0.19388 -1.2232,0.24122 -1.9803,0.28271 -5.1004,0.27972 -2.4419,-0.003 -3.8509,-0.0595 -4.224,-0.17161 -0.4325,-0.1302 -20.7181,-0.1856 -89.1631,-0.2441 -82.61227,-0.0707 -88.66793,-0.0918 -89.55691,-0.31269 -1.74622,-0.43381 -3.00928,-1.2551 -4.29065,-2.79 -1.00525,-1.20401 -1.80975,-2.8085 -1.97253,-3.9333 -0.16284,-1.12612 -0.14075,-311.471749 0.0222,-312.612339 z"
     id="path4-3" />
  <path
     inkscape:connector-curvature="0"
     style="fill:none;fill-opacity:1;stroke:#000000;stroke-width:0.35277781;stroke-linecap:round;stroke-linejoin:round;stroke-opacity:1"
     d="m 246.7466,164.32833 1.00745,0.0412 c 0.82989,0.0201 6.64056,0.0951 9.83007,0.0946 l 43.08924,-0.007 c 9.38806,-0.001 9.82464,-0.0424 9.82464,-0.0424"
     id="path6-6" />
  <path
     inkscape:connector-curvature="0"
     style="fill:none;fill-opacity:1;stroke:#000000;stroke-width:0.35277781;stroke-linecap:round;stroke-linejoin:round;stroke-opacity:1"
     d="m 310.57131,84.623669 -0.7005,-0.35553 c -0.0841,-0.0136 -0.55353,-0.0285 -9.58478,-0.0558 -0.19769,-5.3e-4 -22.05005,-0.005 -22.24787,-0.005 l -25.26312,0.0597 c -3.90252,0.009 -6.36126,0.13754 -6.36126,0.13754"
     id="path8-7" />
  <path
     inkscape:connector-curvature="0"
     style="fill:none;fill-opacity:1;stroke:#000000;stroke-width:0.35277781;stroke-linecap:round;stroke-linejoin:round;stroke-opacity:1"
     d="m 310.07045,279.57062 c 0.0837,0.33642 -0.14111,0.60002 0.55347,1.8697 0.84686,1.54821 2.29846,2.24682 2.57599,2.34411 1.53021,0.53721 24.43949,0.3579 26.06119,0.3465 0.1571,0 17.20111,-0.1677 17.67241,-0.1728 0.8231,-0.009 9.5743,-0.1152 9.7476,-0.11639 0.1763,0 19.3036,-0.0488 19.8324,-0.0489 6.7852,-0.003 19.2981,0.0337 19.8267,0.037 26.5119,0.16081 30.1732,1.22441 32.3346,-2.3518 1.087,-1.79859 0.6799,-3.5061 0.6807,-9.43261 l 0.0215,-156.34609 c -0.0369,-122.2049654 -0.0247,-113.5488722 -0.0343,-114.5672422 -0.0823,-8.7613532 -0.4657,-8.2250332 -3.0448,-9.7501232 -0.3226,-0.0142 -1.1292,-0.14306 -12.1079,-0.15313 l -49.3406,-0.0436 -50.71351,0.0259 c -8.24575,0.004 -13.11,-0.52665 -13.66909,0.4776 -1.18157,2.1220999 -0.28192,1.0567 -0.28192,1.0567"
     id="path10-5" />
  <path
     inkscape:connector-curvature="0"
     style="fill:none;fill-opacity:1;stroke:#000000;stroke-width:0.35277781;stroke-linecap:round;stroke-linejoin:round;stroke-opacity:1"
     d="m 360.00331,296.49443 c 0.133,0.24339 0.4142,0.57811 0.6248,0.7439 0.3716,0.29221 0.4823,0.29991 3.7276,0.25731 l 3.3447,-0.0438 0.4162,-0.48998 c 0.2289,-0.2694 0.4795,-0.64741 0.5569,-0.83992 0.1633,-0.40598 0.201,-5.30738 0.0463,-6.0248 -0.1702,-0.78938 -0.4808,-1.2646 -0.9548,-1.46039 -0.6931,-0.28639 -6.4207,-0.20241 -7.1293,0.10451 -0.2887,0.12499 -0.5259,0.2464 -0.5271,0.26958 -10e-4,0.023 -0.088,0.28922 -0.1932,0.59111 -0.1407,0.4042 -0.1861,1.3272 -0.1726,3.49951 0.0158,2.50859 0.0547,3.0167 0.2605,3.39299 z"
     id="path12-3" />
  <path
     inkscape:connector-curvature="0"
     style="fill:none;fill-opacity:1;stroke:#000000;stroke-width:0.35277781;stroke-linecap:round;stroke-linejoin:round;stroke-opacity:1"
     d="m 376.10371,296.92313 0.594,0.59301 2.8286,0.0122 c 3.0666,0.0132 3.423,-0.0557 4.1181,-0.79549 0.3304,-0.35161 0.3319,-0.3692 0.3319,-3.73653 0,-3.75758 -0.0665,-4.09998 -0.8399,-4.32988 -0.231,-0.0687 -1.694,-0.1534 -3.2514,-0.18841 -2.6419,-0.0593 -2.8689,-0.0446 -3.3897,0.22112 -0.3069,0.15668 -0.639,0.42629 -0.7378,0.59928 -0.2279,0.39901 -0.3524,2.5509 -0.2936,5.07301 l 0.0457,1.95879 z"
     id="path14-5" />
  <path
     inkscape:connector-curvature="0"
     style="fill:none;fill-opacity:1;stroke:#000000;stroke-width:0.35277781;stroke-linecap:round;stroke-linejoin:round;stroke-opacity:1"
     d="m 387.49431,295.77214 c 0.1145,0.77158 0.4444,1.28508 0.9927,1.5453 0.3859,0.1832 0.9566,0.21299 3.3985,0.1773 l 2.9348,-0.0428 0.5237,-0.5243 0.5238,-0.5239 0.0518,-3.16749 c 0.0759,-4.64931 0.0359,-4.70611 -3.3756,-4.7888 -2.4757,-0.0601 -4.2455,0.14029 -4.6293,0.52438 -0.4975,0.49752 -0.6357,1.4546 -0.5673,3.93081 0.0351,1.27029 0.1013,2.56151 0.1469,2.86951 z"
     id="path16-6" />
  <path
     inkscape:connector-curvature="0"
     style="fill:none;fill-opacity:1;stroke:#000000;stroke-width:0.35277781;stroke-linecap:round;stroke-linejoin:round;stroke-opacity:1"
     d="m 399.79751,-16.057113 c 0.5652,0.67175 1.394,0.913361 2.8266,0.823971 l 1.2178,-0.076 0.534,-0.60858 c 0.6285,-0.716306 0.6353,-1.148736 0.0321,-2.060236 -0.4563,-0.68961 -0.6208,-0.74783 -2.1582,-0.76447 -1.027,-0.0111 -1.2844,0.0347 -1.7245,0.30664 -1.1137,0.68833 -1.39,1.59159 -0.7278,2.378636 z"
     id="path18-2" />
  <path
     inkscape:connector-curvature="0"
     style="fill:none;fill-opacity:1;stroke:#000000;stroke-width:0.35277781;stroke-linecap:round;stroke-linejoin:round;stroke-opacity:1"
     d="m 409.96711,-16.000203 c 0.4094,0.57489 1.0495,0.803901 2.2444,0.803011 1.4078,-0.001 1.9325,-0.174961 2.314,-0.766691 1.0156,-1.575166 -0.3914,-3.065856 -2.6524,-2.810056 -1.0038,0.11362 -1.269,0.22894 -1.9076,0.82968 -0.4176,0.39291 -0.4568,0.49439 -0.3799,0.98334 0.0471,0.29983 0.2188,0.732176 0.3815,0.960716 z"
     id="path20-9" />
  <path
     inkscape:connector-curvature="0"
     style="fill:none;fill-opacity:1;stroke:#000000;stroke-width:0.35277781;stroke-linecap:round;stroke-linejoin:round;stroke-opacity:1"
     d="m 419.07481,-15.840933 c 0.4497,0.51606 0.469,0.52274 1.7146,0.593421 1.6108,0.0914 2.39,-0.123201 2.8327,-0.780121 0.4464,-0.662416 0.4121,-1.290096 -0.1025,-1.876286 -0.6281,-0.71536 -1.0614,-0.84057 -2.6255,-0.75875 l -1.3561,0.0709 -0.4591,0.53113 c -0.6394,0.73971 -0.6408,1.48919 -0.004,2.219656 z"
     id="path22-1" />
  <path
     inkscape:connector-curvature="0"
     style="fill:none;fill-opacity:1;stroke:#000000;stroke-width:0.35277781;stroke-linecap:round;stroke-linejoin:round;stroke-opacity:1"
     d="m 441.55881,266.31494 c 0.2852,0.9166 0.5758,0.9711 5.1652,0.97089 4.5841,-2.1e-4 4.7735,-0.0379 5.2793,-1.04971 0.2603,-0.52059 0.28,-0.83989 0.28,-4.5494 0,-3.8766 -0.009,-4.00339 -0.3104,-4.4885 -0.6801,-1.0935 -0.4233,-1.04068 -5.0583,-1.04068 -4.5051,0 -4.8679,0.0519 -5.2068,0.7444 -0.101,0.20648 -0.2248,0.72189 -0.275,1.14538 -0.1464,1.23582 -0.0478,7.70911 0.126,8.26762 z"
     id="path24-2" />
  <path
     inkscape:connector-curvature="0"
     style="fill:none;fill-opacity:1;stroke:#000000;stroke-width:0.35277781;stroke-linecap:round;stroke-linejoin:round;stroke-opacity:1"
     d="M 309.87221,-7.7586854 V 280.50553"
     id="path26-7" />
  <path
     inkscape:connector-curvature="0"
     style="fill:none;fill-opacity:1;stroke:#000000;stroke-width:0.35277781;stroke-linecap:round;stroke-linejoin:round;stroke-opacity:1"
     d="m 464.44791,-17.26385 c 0.17084,-1.19495 1.04724,-2.86194 2.21961,-4.222021 0.78473,-0.910399 1.20349,-1.260489 2.06201,-1.723629 0.59265,-0.31961 1.42383,-0.67135 1.84698,-0.78158 0.66413,-0.17304 14.06644,-0.20079 97.85798,-0.20252 64.1055,-0.0014 97.3392,0.04547 97.8262,0.13785 0.4057,0.07693 0.9057,0.2583 1.1112,0.40298 0.2054,0.14469 0.5277,0.31104 0.7162,0.36963 0.9457,0.29419 2.4795,2.280609 3.2427,4.19962 l 0.334,0.83984 7.9e-4,154.95949 c 5.3e-4,85.2277 -0.038,156.1247 -0.0855,157.54901 -0.0798,2.39199 -0.11439,2.65199 -0.4531,3.40569 -0.5549,1.2352 -1.1637,2.09891 -1.9611,2.7823 -1.8737,1.6056 -3.3641,2.01531 -6.818,1.87381 -1.865,-0.0763 -2.3848,-0.0484 -3.6146,0.19388 -1.2232,0.24122 -1.9803,0.28271 -5.1004,0.27972 -2.4419,-0.003 -3.8509,-0.0595 -4.224,-0.17161 -0.4325,-0.1302 -20.7181,-0.1856 -89.1631,-0.2441 -82.61227,-0.0707 -88.66793,-0.0918 -89.55691,-0.31269 -1.74622,-0.43381 -3.00928,-1.2551 -4.29065,-2.79 -1.00525,-1.20401 -1.80975,-2.8085 -1.97253,-3.9333 -0.16283,-1.12612 -0.14074,-311.471781 0.0222,-312.61237 z"
     id="path4-0" />
  <path
     inkscape:connector-curvature="0"
     style="fill:none;fill-opacity:1;stroke:#000000;stroke-width:0.35277781;stroke-linecap:round;stroke-linejoin:round;stroke-opacity:1"
     d="m 463.32859,165.69041 1.00745,0.0412 c 0.82989,0.0201 6.64056,0.0951 9.83007,0.0946 l 43.08924,-0.007 c 9.38806,-0.001 9.82464,-0.0424 9.82464,-0.0424"
     id="path6-9" />
  <path
     inkscape:connector-curvature="0"
     style="fill:none;fill-opacity:1;stroke:#000000;stroke-width:0.35277781;stroke-linecap:round;stroke-linejoin:round;stroke-opacity:1"
     d="m 527.1533,85.985749 -0.7005,-0.35553 c -0.0841,-0.0136 -0.55353,-0.0285 -9.58478,-0.0558 -0.19769,-5.3e-4 -22.05005,-0.005 -22.24787,-0.005 l -25.26312,0.0597 c -3.90252,0.009 -6.36126,0.13754 -6.36126,0.13754"
     id="path8-3" />
  <path
     inkscape:connector-curvature="0"
     style="fill:none;fill-opacity:1;stroke:#000000;stroke-width:0.35277781;stroke-linecap:round;stroke-linejoin:round;stroke-opacity:1"
     d="m 526.65244,280.9327 c 0.0837,0.33642 -0.14111,0.60002 0.55347,1.8697 0.84686,1.54821 2.29846,2.24682 2.57599,2.34411 1.53021,0.53721 24.43949,0.3579 26.06119,0.3465 0.1571,0 17.2011,-0.1677 17.6724,-0.1728 0.8231,-0.009 9.5743,-0.1152 9.7476,-0.11639 0.1763,0 19.3036,-0.0488 19.8324,-0.0489 6.7852,-0.003 19.2981,0.0337 19.8267,0.037 26.5119,0.16081 30.1732,1.22441 32.3346,-2.3518 1.087,-1.79859 0.6799,-3.5061 0.6807,-9.43261 l 0.0215,-156.34609 c -0.0369,-122.2049924 -0.0247,-113.5488932 -0.0343,-114.5672672 -0.0823,-8.7613512 -0.4657,-8.2250362 -3.0448,-9.7501212 -0.3226,-0.01416 -1.1292,-0.143065 -12.1079,-0.153137 l -49.3406,-0.04364 -50.7135,0.02594 c -8.24575,0.0042 -13.11,-0.526642 -13.66909,0.4776 -1.18157,2.1221 -0.28192,1.056702 -0.28192,1.056702"
     id="path10-6" />
  <path
     inkscape:connector-curvature="0"
     style="fill:none;fill-opacity:1;stroke:#000000;stroke-width:0.35277781;stroke-linecap:round;stroke-linejoin:round;stroke-opacity:1"
     d="m 576.58529,297.85651 c 0.133,0.24339 0.4142,0.57811 0.6248,0.7439 0.3716,0.29221 0.4823,0.29991 3.7276,0.25731 l 3.3447,-0.0438 0.4162,-0.48998 c 0.2289,-0.2694 0.4795,-0.64741 0.5569,-0.83992 0.1633,-0.40598 0.201,-5.30738 0.0463,-6.0248 -0.1702,-0.78938 -0.4808,-1.2646 -0.9548,-1.46039 -0.6931,-0.28639 -6.4207,-0.20241 -7.1293,0.10451 -0.2887,0.12499 -0.5259,0.2464 -0.5271,0.26958 -0.001,0.023 -0.088,0.28922 -0.1932,0.59111 -0.1407,0.4042 -0.1861,1.3272 -0.1726,3.49951 0.0158,2.50859 0.0547,3.0167 0.2605,3.39299 z"
     id="path12-0" />
  <path
     inkscape:connector-curvature="0"
     style="fill:none;fill-opacity:1;stroke:#000000;stroke-width:0.35277781;stroke-linecap:round;stroke-linejoin:round;stroke-opacity:1"
     d="m 592.68569,298.28521 0.594,0.59301 2.8286,0.0122 c 3.0666,0.0132 3.423,-0.0557 4.1181,-0.79549 0.3304,-0.35161 0.3319,-0.3692 0.3319,-3.73653 0,-3.75758 -0.0665,-4.09998 -0.8399,-4.32988 -0.231,-0.0687 -1.694,-0.1534 -3.2514,-0.18841 -2.6419,-0.0593 -2.8689,-0.0446 -3.3897,0.22112 -0.3069,0.15668 -0.639,0.42629 -0.7378,0.59928 -0.2279,0.39901 -0.3524,2.5509 -0.2936,5.07301 l 0.0457,1.95879 z"
     id="path14-6" />
  <path
     inkscape:connector-curvature="0"
     style="fill:none;fill-opacity:1;stroke:#000000;stroke-width:0.35277781;stroke-linecap:round;stroke-linejoin:round;stroke-opacity:1"
     d="m 604.07629,297.13422 c 0.1145,0.77158 0.4444,1.28508 0.9927,1.5453 0.3859,0.1832 0.9566,0.21299 3.3985,0.1773 l 2.9348,-0.0428 0.5237,-0.5243 0.5238,-0.5239 0.0518,-3.16749 c 0.0759,-4.64931 0.0359,-4.70611 -3.3756,-4.7888 -2.4757,-0.0601 -4.2455,0.14029 -4.6293,0.52438 -0.4975,0.49752 -0.6357,1.4546 -0.5673,3.93081 0.0351,1.27029 0.1013,2.56151 0.1469,2.86951 z"
     id="path16-2" />
  <path
     inkscape:connector-curvature="0"
     style="fill:none;fill-opacity:1;stroke:#000000;stroke-width:0.35277781;stroke-linecap:round;stroke-linejoin:round;stroke-opacity:1"
     d="m 616.37949,-14.69506 c 0.5652,0.67175 1.394,0.913359 2.8266,0.823969 l 1.2178,-0.07596 0.534,-0.608579 c 0.6285,-0.71631 0.6353,-1.148741 0.0321,-2.06024 -0.4563,-0.68961 -0.6208,-0.74783 -2.1582,-0.76447 -1.027,-0.0111 -1.2844,0.03467 -1.7245,0.30664 -1.1137,0.688329 -1.39,1.591589 -0.7278,2.37864 z"
     id="path18-6" />
  <path
     inkscape:connector-curvature="0"
     style="fill:none;fill-opacity:1;stroke:#000000;stroke-width:0.35277781;stroke-linecap:round;stroke-linejoin:round;stroke-opacity:1"
     d="m 626.54909,-14.63815 c 0.4094,0.574889 1.0495,0.803899 2.2444,0.803009 1.4078,-0.0011 1.9325,-0.17496 2.314,-0.766689 1.0156,-1.575171 -0.3914,-3.06586 -2.6524,-2.81006 -1.0038,0.11362 -1.269,0.22894 -1.9076,0.82968 -0.4176,0.392909 -0.4568,0.494389 -0.3799,0.983339 0.0471,0.29983 0.2188,0.732181 0.3815,0.960721 z"
     id="path20-1" />
  <path
     inkscape:connector-curvature="0"
     style="fill:none;fill-opacity:1;stroke:#000000;stroke-width:0.35277781;stroke-linecap:round;stroke-linejoin:round;stroke-opacity:1"
     d="m 635.65679,-14.47888 c 0.4497,0.516059 0.469,0.522739 1.7146,0.59342 1.6108,0.0914 2.39,-0.1232 2.8327,-0.78012 0.4464,-0.662421 0.4121,-1.290101 -0.1025,-1.87629 -0.6281,-0.71536 -1.0614,-0.84057 -2.6255,-0.75875 l -1.3561,0.07095 -0.4591,0.53113 c -0.6394,0.739708 -0.6408,1.48919 -0.004,2.21966 z"
     id="path22-8" />
  <path
     inkscape:connector-curvature="0"
     style="fill:none;fill-opacity:1;stroke:#000000;stroke-width:0.35277781;stroke-linecap:round;stroke-linejoin:round;stroke-opacity:1"
     d="m 658.14079,267.67702 c 0.2852,0.9166 0.5758,0.9711 5.1652,0.97089 4.5841,-2.1e-4 4.7735,-0.0379 5.2793,-1.04971 0.2603,-0.52059 0.28,-0.83989 0.28,-4.5494 0,-3.8766 -0.009,-4.00339 -0.3104,-4.4885 -0.6801,-1.0935 -0.4233,-1.04068 -5.0583,-1.04068 -4.5051,0 -4.8679,0.0519 -5.2068,0.7444 -0.101,0.20648 -0.2248,0.72189 -0.275,1.14538 -0.1464,1.23582 -0.0478,7.70911 0.126,8.26762 z"
     id="path24-7" />
  <path
     inkscape:connector-curvature="0"
     style="fill:none;fill-opacity:1;stroke:#000000;stroke-width:0.35277781;stroke-linecap:round;stroke-linejoin:round;stroke-opacity:1"
     d="M 526.4542,-6.3966324 V 281.86761"
     id="path26-9" />
  <path
     inkscape:connector-curvature="0"
     style="fill:none;fill-opacity:1;stroke:#000000;stroke-width:0.35277781;stroke-linecap:round;stroke-linejoin:round;stroke-opacity:1"
     d="m 30.082582,322.98491 c 0.17084,-1.19495 1.04724,-2.86194 2.219607,-4.22202 0.78473,-0.9104 1.20349,-1.26049 2.06201,-1.72363 0.59265,-0.31961 1.42383,-0.67135 1.84698,-0.78158 0.664127,-0.17304 14.066431,-0.20079 97.857951,-0.20252 64.1055,-10e-4 97.3392,0.0455 97.8262,0.13785 0.4057,0.0769 0.9057,0.2583 1.1112,0.40298 0.2054,0.14469 0.5277,0.31104 0.7162,0.36963 0.9457,0.29419 2.4795,2.28061 3.2427,4.19962 l 0.334,0.83984 7.9e-4,154.95953 c 5.3e-4,85.2277 -0.038,156.1247 -0.0855,157.54901 -0.0798,2.39199 -0.11439,2.65199 -0.4531,3.40569 -0.5549,1.2352 -1.1637,2.09891 -1.9611,2.7823 -1.8737,1.6056 -3.3641,2.01531 -6.818,1.87381 -1.865,-0.0763 -2.3848,-0.0484 -3.6146,0.19388 -1.2232,0.24122 -1.9803,0.28271 -5.1004,0.27972 -2.4419,-0.003 -3.8509,-0.0595 -4.224,-0.17161 -0.4325,-0.1302 -20.7181,-0.1856 -89.1631,-0.2441 -82.612237,-0.0707 -88.667894,-0.0918 -89.556871,-0.31269 -1.74622,-0.43381 -3.00928,-1.2551 -4.29065,-2.79 -1.005247,-1.20401 -1.809747,-2.8085 -1.972527,-3.9333 -0.16284,-1.12612 -0.14075,-311.47182 0.0222,-312.61241 z"
     id="path4-2" />
  <path
     inkscape:connector-curvature="0"
     style="fill:none;fill-opacity:1;stroke:#000000;stroke-width:0.35277781;stroke-linecap:round;stroke-linejoin:round;stroke-opacity:1"
     d="m 28.963262,505.93921 1.00745,0.0412 c 0.82989,0.0201 6.640554,0.0951 9.830064,0.0946 l 43.089216,-0.007 c 9.388054,-0.001 9.824644,-0.0424 9.824644,-0.0424"
     id="path6-0" />
  <path
     inkscape:connector-curvature="0"
     style="fill:none;fill-opacity:1;stroke:#000000;stroke-width:0.35277781;stroke-linecap:round;stroke-linejoin:round;stroke-opacity:1"
     d="m 92.787936,426.23454 -0.70049,-0.35553 c -0.0841,-0.0136 -0.55354,-0.0285 -9.584784,-0.0558 -0.19769,-5.3e-4 -22.050038,-0.005 -22.247848,-0.005 l -25.263115,0.0597 c -3.902517,0.009 -6.361257,0.13754 -6.361257,0.13754"
     id="path8-2" />
  <path
     inkscape:connector-curvature="0"
     style="fill:none;fill-opacity:1;stroke:#000000;stroke-width:0.35277781;stroke-linecap:round;stroke-linejoin:round;stroke-opacity:1"
     d="m 92.287076,621.1815 c 0.0837,0.33642 -0.14111,0.60002 0.55348,1.8697 0.84686,1.54821 2.298457,2.24682 2.575977,2.34411 1.53021,0.53721 24.439497,0.3579 26.061197,0.3465 0.15709,0 17.2011,-0.1677 17.6724,-0.1728 0.8231,-0.009 9.5743,-0.1152 9.7476,-0.11639 0.1763,0 19.3036,-0.0488 19.8324,-0.0489 6.7852,-0.003 19.2981,0.0337 19.8267,0.037 26.5119,0.16081 30.1732,1.22441 32.3346,-2.3518 1.087,-1.79859 0.6799,-3.5061 0.6807,-9.43261 l 0.0215,-156.34609 c -0.0369,-122.20503 -0.0247,-113.54893 -0.0343,-114.5673 -0.0823,-8.76135 -0.4657,-8.22504 -3.0448,-9.75012 -0.3226,-0.0142 -1.1292,-0.14307 -12.1079,-0.15314 l -49.3406,-0.0436 -50.7135,0.0259 c -8.245747,0.004 -13.110004,-0.52664 -13.669094,0.4776 -1.18156,2.1221 -0.28192,1.0567 -0.28192,1.0567"
     id="path10-3" />
  <path
     inkscape:connector-curvature="0"
     style="fill:none;fill-opacity:1;stroke:#000000;stroke-width:0.35277781;stroke-linecap:round;stroke-linejoin:round;stroke-opacity:1"
     d="m 142.21993,638.10531 c 0.133,0.24339 0.4142,0.57811 0.6248,0.7439 0.3716,0.29221 0.4823,0.29991 3.7276,0.25731 l 3.3447,-0.0438 0.4162,-0.48998 c 0.2289,-0.2694 0.4795,-0.64741 0.5569,-0.83992 0.1633,-0.40598 0.201,-5.30738 0.0463,-6.0248 -0.1702,-0.78938 -0.4808,-1.2646 -0.9548,-1.46039 -0.6931,-0.28639 -6.4207,-0.20241 -7.1293,0.10451 -0.2887,0.12499 -0.5259,0.2464 -0.5271,0.26958 -0.001,0.023 -0.088,0.28922 -0.1932,0.59111 -0.1407,0.4042 -0.1861,1.3272 -0.1726,3.49951 0.0158,2.50859 0.0547,3.0167 0.2605,3.39299 z"
     id="path12-7" />
  <path
     inkscape:connector-curvature="0"
     style="fill:none;fill-opacity:1;stroke:#000000;stroke-width:0.35277781;stroke-linecap:round;stroke-linejoin:round;stroke-opacity:1"
     d="m 158.32033,638.53401 0.594,0.59301 2.8286,0.0122 c 3.0666,0.0132 3.423,-0.0557 4.1181,-0.79549 0.3304,-0.35161 0.3319,-0.3692 0.3319,-3.73653 0,-3.75758 -0.0665,-4.09998 -0.8399,-4.32988 -0.231,-0.0687 -1.694,-0.1534 -3.2514,-0.18841 -2.6419,-0.0593 -2.8689,-0.0446 -3.3897,0.22112 -0.3069,0.15668 -0.639,0.42629 -0.7378,0.59928 -0.2279,0.39901 -0.3524,2.5509 -0.2936,5.07301 l 0.0457,1.95879 z"
     id="path14-59" />
  <path
     inkscape:connector-curvature="0"
     style="fill:none;fill-opacity:1;stroke:#000000;stroke-width:0.35277781;stroke-linecap:round;stroke-linejoin:round;stroke-opacity:1"
     d="m 169.71093,637.38302 c 0.1145,0.77158 0.4444,1.28508 0.9927,1.5453 0.3859,0.1832 0.9566,0.21299 3.3985,0.1773 l 2.9348,-0.0428 0.5237,-0.5243 0.5238,-0.5239 0.0518,-3.16749 c 0.0759,-4.64931 0.0359,-4.70611 -3.3756,-4.7888 -2.4757,-0.0601 -4.2455,0.14029 -4.6293,0.52438 -0.4975,0.49752 -0.6357,1.4546 -0.5673,3.93081 0.0351,1.27029 0.1013,2.56151 0.1469,2.86951 z"
     id="path16-22" />
  <path
     inkscape:connector-curvature="0"
     style="fill:none;fill-opacity:1;stroke:#000000;stroke-width:0.35277781;stroke-linecap:round;stroke-linejoin:round;stroke-opacity:1"
     d="m 182.01413,325.5537 c 0.5652,0.67175 1.394,0.91336 2.8266,0.82397 l 1.2178,-0.076 0.534,-0.60858 c 0.6285,-0.71631 0.6353,-1.14874 0.0321,-2.06024 -0.4563,-0.68961 -0.6208,-0.74783 -2.1582,-0.76447 -1.027,-0.0111 -1.2844,0.0347 -1.7245,0.30664 -1.1137,0.68833 -1.39,1.59159 -0.7278,2.37864 z"
     id="path18-8" />
  <path
     inkscape:connector-curvature="0"
     style="fill:none;fill-opacity:1;stroke:#000000;stroke-width:0.35277781;stroke-linecap:round;stroke-linejoin:round;stroke-opacity:1"
     d="m 192.18373,325.61061 c 0.4094,0.57489 1.0495,0.8039 2.2444,0.80301 1.4078,-10e-4 1.9325,-0.17496 2.314,-0.76669 1.0156,-1.57517 -0.3914,-3.06586 -2.6524,-2.81006 -1.0038,0.11362 -1.269,0.22894 -1.9076,0.82968 -0.4176,0.39291 -0.4568,0.49439 -0.3799,0.98334 0.0471,0.29983 0.2188,0.73218 0.3815,0.96072 z"
     id="path20-97" />
  <path
     inkscape:connector-curvature="0"
     style="fill:none;fill-opacity:1;stroke:#000000;stroke-width:0.35277781;stroke-linecap:round;stroke-linejoin:round;stroke-opacity:1"
     d="m 201.29143,325.76988 c 0.4497,0.51606 0.469,0.52274 1.7146,0.59342 1.6108,0.0914 2.39,-0.1232 2.8327,-0.78012 0.4464,-0.66242 0.4121,-1.2901 -0.1025,-1.87629 -0.6281,-0.71536 -1.0614,-0.84057 -2.6255,-0.75875 l -1.3561,0.0709 -0.4591,0.53113 c -0.6394,0.73971 -0.6408,1.48919 -0.004,2.21966 z"
     id="path22-3" />
  <path
     inkscape:connector-curvature="0"
     style="fill:none;fill-opacity:1;stroke:#000000;stroke-width:0.35277781;stroke-linecap:round;stroke-linejoin:round;stroke-opacity:1"
     d="m 223.77543,607.92582 c 0.2852,0.9166 0.5758,0.9711 5.1652,0.97089 4.5841,-2.1e-4 4.7735,-0.0379 5.2793,-1.04971 0.2603,-0.52059 0.28,-0.83989 0.28,-4.5494 0,-3.8766 -0.009,-4.00339 -0.3104,-4.4885 -0.6801,-1.0935 -0.4233,-1.04068 -5.0583,-1.04068 -4.5051,0 -4.8679,0.0519 -5.2068,0.7444 -0.101,0.20648 -0.2248,0.72189 -0.275,1.14538 -0.1464,1.23582 -0.0478,7.70911 0.126,8.26762 z"
     id="path24-6" />
  <path
     inkscape:connector-curvature="0"
     style="fill:none;fill-opacity:1;stroke:#000000;stroke-width:0.35277781;stroke-linecap:round;stroke-linejoin:round;stroke-opacity:1"
     d="M 92.088846,333.85213 V 622.11641"
     id="path26-1" />
  <path
     inkscape:connector-curvature="0"
     style="fill:none;fill-opacity:1;stroke:#000000;stroke-width:0.35277781;stroke-linecap:round;stroke-linejoin:round;stroke-opacity:1"
     d="m 246.33039,322.68036 c 0.17084,-1.19495 1.04724,-2.86194 2.21961,-4.22202 0.78473,-0.9104 1.20349,-1.26049 2.06201,-1.72363 0.59265,-0.31961 1.42383,-0.67135 1.84698,-0.78158 0.66413,-0.17304 14.06644,-0.20079 97.85799,-0.20252 64.1055,-10e-4 97.3392,0.0455 97.8262,0.13785 0.4057,0.0769 0.9057,0.2583 1.1112,0.40298 0.2054,0.14469 0.5277,0.31104 0.7162,0.36963 0.9457,0.29419 2.4795,2.28061 3.2427,4.19962 l 0.334,0.83984 7.9e-4,154.95953 c 5.3e-4,85.2277 -0.038,156.1247 -0.0855,157.54901 -0.0798,2.39199 -0.11439,2.65199 -0.4531,3.40569 -0.5549,1.2352 -1.1637,2.09891 -1.9611,2.7823 -1.8737,1.6056 -3.3641,2.01531 -6.818,1.87381 -1.865,-0.0763 -2.3848,-0.0484 -3.6146,0.19388 -1.2232,0.24122 -1.9803,0.28271 -5.1004,0.27972 -2.4419,-0.003 -3.8509,-0.0595 -4.224,-0.17161 -0.4325,-0.1302 -20.7181,-0.1856 -89.1631,-0.2441 -82.61227,-0.0707 -88.66793,-0.0918 -89.55691,-0.31269 -1.74622,-0.43381 -3.00928,-1.2551 -4.29065,-2.79 -1.00525,-1.20401 -1.80975,-2.8085 -1.97253,-3.9333 -0.16284,-1.12612 -0.14075,-311.47182 0.0222,-312.61241 z"
     id="path4-29" />
  <path
     inkscape:connector-curvature="0"
     style="fill:none;fill-opacity:1;stroke:#000000;stroke-width:0.35277781;stroke-linecap:round;stroke-linejoin:round;stroke-opacity:1"
     d="m 245.21107,505.63466 1.00745,0.0412 c 0.82989,0.0201 6.64056,0.0951 9.83007,0.0946 l 43.08924,-0.007 c 9.38806,-0.001 9.82464,-0.0424 9.82464,-0.0424"
     id="path6-3" />
  <path
     inkscape:connector-curvature="0"
     style="fill:none;fill-opacity:1;stroke:#000000;stroke-width:0.35277781;stroke-linecap:round;stroke-linejoin:round;stroke-opacity:1"
     d="m 309.03578,425.92999 -0.7005,-0.35553 c -0.0841,-0.0136 -0.55353,-0.0285 -9.58478,-0.0558 -0.19769,-5.3e-4 -22.05005,-0.005 -22.24787,-0.005 l -25.26312,0.0597 c -3.90252,0.009 -6.36126,0.13754 -6.36126,0.13754"
     id="path8-1" />
  <path
     inkscape:connector-curvature="0"
     style="fill:none;fill-opacity:1;stroke:#000000;stroke-width:0.35277781;stroke-linecap:round;stroke-linejoin:round;stroke-opacity:1"
     d="m 308.53492,620.87695 c 0.0837,0.33642 -0.14111,0.60002 0.55347,1.8697 0.84686,1.54821 2.29846,2.24682 2.57599,2.34411 1.53021,0.53721 24.43949,0.3579 26.06119,0.3465 0.1571,0 17.20111,-0.1677 17.67241,-0.1728 0.8231,-0.009 9.5743,-0.1152 9.7476,-0.11639 0.1763,0 19.3036,-0.0488 19.8324,-0.0489 6.7852,-0.003 19.2981,0.0337 19.8267,0.037 26.5119,0.16081 30.1732,1.22441 32.3346,-2.3518 1.087,-1.79859 0.6799,-3.5061 0.6807,-9.43261 l 0.0215,-156.34609 c -0.0369,-122.20503 -0.0247,-113.54893 -0.0343,-114.5673 -0.0823,-8.76136 -0.4657,-8.22504 -3.0448,-9.75013 -0.3226,-0.0142 -1.1292,-0.14306 -12.1079,-0.15313 l -49.3406,-0.0436 -50.71351,0.0259 c -8.24575,0.004 -13.11,-0.52665 -13.66909,0.4776 -1.18157,2.1221 -0.28192,1.0567 -0.28192,1.0567"
     id="path10-9" />
  <path
     inkscape:connector-curvature="0"
     style="fill:none;fill-opacity:1;stroke:#000000;stroke-width:0.35277781;stroke-linecap:round;stroke-linejoin:round;stroke-opacity:1"
     d="m 358.46778,637.80076 c 0.133,0.24339 0.4142,0.57811 0.6248,0.7439 0.3716,0.29221 0.4823,0.29991 3.7276,0.25731 l 3.3447,-0.0438 0.4162,-0.48998 c 0.2289,-0.2694 0.4795,-0.64741 0.5569,-0.83992 0.1633,-0.40598 0.201,-5.30738 0.0463,-6.0248 -0.1702,-0.78938 -0.4808,-1.2646 -0.9548,-1.46039 -0.6931,-0.28639 -6.4207,-0.20241 -7.1293,0.10451 -0.2887,0.12499 -0.5259,0.2464 -0.5271,0.26958 -10e-4,0.023 -0.088,0.28922 -0.1932,0.59111 -0.1407,0.4042 -0.1861,1.3272 -0.1726,3.49951 0.0158,2.50859 0.0547,3.0167 0.2605,3.39299 z"
     id="path12-4" />
  <path
     inkscape:connector-curvature="0"
     style="fill:none;fill-opacity:1;stroke:#000000;stroke-width:0.35277781;stroke-linecap:round;stroke-linejoin:round;stroke-opacity:1"
     d="m 374.56818,638.22946 0.594,0.59301 2.8286,0.0122 c 3.0666,0.0132 3.423,-0.0557 4.1181,-0.79549 0.3304,-0.35161 0.3319,-0.3692 0.3319,-3.73653 0,-3.75758 -0.0665,-4.09998 -0.8399,-4.32988 -0.231,-0.0687 -1.694,-0.1534 -3.2514,-0.18841 -2.6419,-0.0593 -2.8689,-0.0446 -3.3897,0.22112 -0.3069,0.15668 -0.639,0.42629 -0.7378,0.59928 -0.2279,0.39901 -0.3524,2.5509 -0.2936,5.07301 l 0.0457,1.95879 z"
     id="path14-7" />
  <path
     inkscape:connector-curvature="0"
     style="fill:none;fill-opacity:1;stroke:#000000;stroke-width:0.35277781;stroke-linecap:round;stroke-linejoin:round;stroke-opacity:1"
     d="m 385.95878,637.07847 c 0.1145,0.77158 0.4444,1.28508 0.9927,1.5453 0.3859,0.1832 0.9566,0.21299 3.3985,0.1773 l 2.9348,-0.0428 0.5237,-0.5243 0.5238,-0.5239 0.0518,-3.16749 c 0.0759,-4.64931 0.0359,-4.70611 -3.3756,-4.7888 -2.4757,-0.0601 -4.2455,0.14029 -4.6293,0.52438 -0.4975,0.49752 -0.6357,1.4546 -0.5673,3.93081 0.0351,1.27029 0.1013,2.56151 0.1469,2.86951 z"
     id="path16-8" />
  <path
     inkscape:connector-curvature="0"
     style="fill:none;fill-opacity:1;stroke:#000000;stroke-width:0.35277781;stroke-linecap:round;stroke-linejoin:round;stroke-opacity:1"
     d="m 398.26198,325.24915 c 0.5652,0.67175 1.394,0.91336 2.8266,0.82397 l 1.2178,-0.076 0.534,-0.60858 c 0.6285,-0.71631 0.6353,-1.14874 0.0321,-2.06024 -0.4563,-0.68961 -0.6208,-0.74783 -2.1582,-0.76447 -1.027,-0.0111 -1.2844,0.0347 -1.7245,0.30664 -1.1137,0.68833 -1.39,1.59159 -0.7278,2.37864 z"
     id="path18-4" />
  <path
     inkscape:connector-curvature="0"
     style="fill:none;fill-opacity:1;stroke:#000000;stroke-width:0.35277781;stroke-linecap:round;stroke-linejoin:round;stroke-opacity:1"
     d="m 408.43158,325.30606 c 0.4094,0.57489 1.0495,0.8039 2.2444,0.80301 1.4078,-10e-4 1.9325,-0.17496 2.314,-0.76669 1.0156,-1.57517 -0.3914,-3.06586 -2.6524,-2.81006 -1.0038,0.11362 -1.269,0.22894 -1.9076,0.82968 -0.4176,0.39291 -0.4568,0.49439 -0.3799,0.98334 0.0471,0.29983 0.2188,0.73218 0.3815,0.96072 z"
     id="path20-5" />
  <path
     inkscape:connector-curvature="0"
     style="fill:none;fill-opacity:1;stroke:#000000;stroke-width:0.35277781;stroke-linecap:round;stroke-linejoin:round;stroke-opacity:1"
     d="m 417.53928,325.46533 c 0.4497,0.51606 0.469,0.52274 1.7146,0.59342 1.6108,0.0914 2.39,-0.1232 2.8327,-0.78012 0.4464,-0.66242 0.4121,-1.2901 -0.1025,-1.87629 -0.6281,-0.71536 -1.0614,-0.84057 -2.6255,-0.75875 l -1.3561,0.071 -0.4591,0.53113 c -0.6394,0.73971 -0.6408,1.48919 -0.004,2.21966 z"
     id="path22-0" />
  <path
     inkscape:connector-curvature="0"
     style="fill:none;fill-opacity:1;stroke:#000000;stroke-width:0.35277781;stroke-linecap:round;stroke-linejoin:round;stroke-opacity:1"
     d="m 440.02328,607.62127 c 0.2852,0.9166 0.5758,0.9711 5.1652,0.97089 4.5841,-2.1e-4 4.7735,-0.0379 5.2793,-1.04971 0.2603,-0.52059 0.28,-0.83989 0.28,-4.5494 0,-3.8766 -0.009,-4.00339 -0.3104,-4.4885 -0.6801,-1.0935 -0.4233,-1.04068 -5.0583,-1.04068 -4.5051,0 -4.8679,0.0519 -5.2068,0.7444 -0.101,0.20648 -0.2248,0.72189 -0.275,1.14538 -0.1464,1.23582 -0.0478,7.70911 0.126,8.26762 z"
     id="path24-3" />
  <path
     inkscape:connector-curvature="0"
     style="fill:none;fill-opacity:1;stroke:#000000;stroke-width:0.35277781;stroke-linecap:round;stroke-linejoin:round;stroke-opacity:1"
     d="M 308.33668,333.54758 V 621.81186"
     id="path26-6" />
  <path
     inkscape:connector-curvature="0"
     style="fill:none;fill-opacity:1;stroke:#000000;stroke-width:0.35277781;stroke-linecap:round;stroke-linejoin:round;stroke-opacity:1"
     d="m 464.101,325.39175 c 0.17084,-1.19495 1.04724,-2.86194 2.21961,-4.22202 0.78473,-0.9104 1.20349,-1.26049 2.06201,-1.72363 0.59265,-0.31961 1.42383,-0.67135 1.84698,-0.78158 0.66413,-0.17304 14.06644,-0.20079 97.85798,-0.20252 64.1055,-10e-4 97.3392,0.0455 97.8262,0.13785 0.4057,0.0769 0.9057,0.2583 1.1112,0.40298 0.2054,0.14469 0.5277,0.31104 0.7162,0.36963 0.9457,0.29419 2.4795,2.28061 3.2427,4.19962 l 0.334,0.83984 7.9e-4,154.95953 c 5.3e-4,85.2277 -0.038,156.1247 -0.0855,157.54901 -0.0798,2.39199 -0.11439,2.65199 -0.4531,3.40569 -0.5549,1.2352 -1.1637,2.09891 -1.9611,2.7823 -1.8737,1.6056 -3.3641,2.01531 -6.818,1.87381 -1.865,-0.0763 -2.3848,-0.0484 -3.6146,0.19388 -1.2232,0.24122 -1.9803,0.28271 -5.1004,0.27972 -2.4419,-0.003 -3.8509,-0.0595 -4.224,-0.17161 -0.4325,-0.1302 -20.7181,-0.1856 -89.16309,-0.2441 -82.61227,-0.0707 -88.66793,-0.0918 -89.55691,-0.31269 -1.74622,-0.43381 -3.00928,-1.2551 -4.29065,-2.79 -1.00525,-1.20401 -1.80975,-2.8085 -1.97253,-3.9333 -0.16284,-1.12612 -0.14075,-311.47182 0.0222,-312.61241 z"
     id="path4-1" />
  <path
     inkscape:connector-curvature="0"
     style="fill:none;fill-opacity:1;stroke:#000000;stroke-width:0.35277781;stroke-linecap:round;stroke-linejoin:round;stroke-opacity:1"
     d="m 462.98168,508.34605 1.00745,0.0412 c 0.82989,0.0201 6.64056,0.0951 9.83007,0.0946 l 43.08924,-0.007 c 9.38806,-10e-4 9.82464,-0.0424 9.82464,-0.0424"
     id="path6-06" />
  <path
     inkscape:connector-curvature="0"
     style="fill:none;fill-opacity:1;stroke:#000000;stroke-width:0.35277781;stroke-linecap:round;stroke-linejoin:round;stroke-opacity:1"
     d="m 526.80639,428.64138 -0.7005,-0.35553 c -0.0841,-0.0136 -0.55353,-0.0285 -9.58478,-0.0558 -0.19769,-5.3e-4 -22.05005,-0.005 -22.24787,-0.005 l -25.26312,0.0597 c -3.90252,0.009 -6.36126,0.13754 -6.36126,0.13754"
     id="path8-32" />
  <path
     inkscape:connector-curvature="0"
     style="fill:none;fill-opacity:1;stroke:#000000;stroke-width:0.35277781;stroke-linecap:round;stroke-linejoin:round;stroke-opacity:1"
     d="m 526.30553,623.58834 c 0.0837,0.33642 -0.14111,0.60002 0.55347,1.8697 0.84686,1.54821 2.29846,2.24682 2.57599,2.34411 1.53021,0.53721 24.43949,0.3579 26.06119,0.3465 0.1571,0 17.2011,-0.1677 17.6724,-0.1728 0.8231,-0.009 9.5743,-0.1152 9.7476,-0.11639 0.1763,0 19.3036,-0.0488 19.8324,-0.0489 6.7852,-0.003 19.2981,0.0337 19.8267,0.037 26.5119,0.16081 30.1732,1.22441 32.3346,-2.3518 1.087,-1.79859 0.6799,-3.5061 0.6807,-9.43261 l 0.0215,-156.34609 c -0.0369,-122.20504 -0.0247,-113.54894 -0.0343,-114.56731 -0.0823,-8.76135 -0.4657,-8.22504 -3.0448,-9.75012 -0.3226,-0.0142 -1.1292,-0.14307 -12.1079,-0.15314 l -49.3406,-0.0436 -50.7135,0.0259 c -8.24575,0.004 -13.11,-0.52664 -13.66909,0.4776 -1.18157,2.1221 -0.28192,1.0567 -0.28192,1.0567"
     id="path10-0" />
  <path
     inkscape:connector-curvature="0"
     style="fill:none;fill-opacity:1;stroke:#000000;stroke-width:0.35277781;stroke-linecap:round;stroke-linejoin:round;stroke-opacity:1"
     d="m 576.23838,640.51215 c 0.133,0.24339 0.4142,0.57811 0.6248,0.7439 0.3716,0.29221 0.4823,0.29991 3.7276,0.25731 l 3.3447,-0.0438 0.4162,-0.48998 c 0.2289,-0.2694 0.4795,-0.64741 0.5569,-0.83992 0.1633,-0.40598 0.201,-5.30738 0.0463,-6.0248 -0.1702,-0.78938 -0.4808,-1.2646 -0.9548,-1.46039 -0.6931,-0.28639 -6.4207,-0.20241 -7.1293,0.10451 -0.2887,0.12499 -0.5259,0.2464 -0.5271,0.26958 -10e-4,0.023 -0.088,0.28922 -0.1932,0.59111 -0.1407,0.4042 -0.1861,1.3272 -0.1726,3.49951 0.0158,2.50859 0.0547,3.0167 0.2605,3.39299 z"
     id="path12-6" />
  <path
     inkscape:connector-curvature="0"
     style="fill:none;fill-opacity:1;stroke:#000000;stroke-width:0.35277781;stroke-linecap:round;stroke-linejoin:round;stroke-opacity:1"
     d="m 592.33878,640.94085 0.594,0.59301 2.8286,0.0122 c 3.0666,0.0132 3.423,-0.0557 4.1181,-0.79549 0.3304,-0.35161 0.3319,-0.3692 0.3319,-3.73653 0,-3.75758 -0.0665,-4.09998 -0.8399,-4.32988 -0.231,-0.0687 -1.694,-0.1534 -3.2514,-0.18841 -2.6419,-0.0593 -2.8689,-0.0446 -3.3897,0.22112 -0.3069,0.15668 -0.639,0.42629 -0.7378,0.59928 -0.2279,0.39901 -0.3524,2.5509 -0.2936,5.07301 l 0.0457,1.95879 z"
     id="path14-1" />
  <path
     inkscape:connector-curvature="0"
     style="fill:none;fill-opacity:1;stroke:#000000;stroke-width:0.35277781;stroke-linecap:round;stroke-linejoin:round;stroke-opacity:1"
     d="m 603.72938,639.78986 c 0.1145,0.77158 0.4444,1.28508 0.9927,1.5453 0.3859,0.1832 0.9566,0.21299 3.3985,0.1773 l 2.9348,-0.0428 0.5237,-0.5243 0.5238,-0.5239 0.0518,-3.16749 c 0.0759,-4.64931 0.0359,-4.70611 -3.3756,-4.7888 -2.4757,-0.0601 -4.2455,0.14029 -4.6293,0.52438 -0.4975,0.49752 -0.6357,1.4546 -0.5673,3.93081 0.0351,1.27029 0.1013,2.56151 0.1469,2.86951 z"
     id="path16-5" />
  <path
     inkscape:connector-curvature="0"
     style="fill:none;fill-opacity:1;stroke:#000000;stroke-width:0.35277781;stroke-linecap:round;stroke-linejoin:round;stroke-opacity:1"
     d="m 616.03258,327.96054 c 0.5652,0.67175 1.394,0.91335 2.8266,0.82396 l 1.2178,-0.076 0.534,-0.60857 c 0.6285,-0.71631 0.6353,-1.14874 0.0321,-2.06024 -0.4563,-0.68961 -0.6208,-0.74783 -2.1582,-0.76447 -1.027,-0.0111 -1.2844,0.0347 -1.7245,0.30664 -1.1137,0.68833 -1.39,1.59159 -0.7278,2.37864 z"
     id="path18-5" />
  <path
     inkscape:connector-curvature="0"
     style="fill:none;fill-opacity:1;stroke:#000000;stroke-width:0.35277781;stroke-linecap:round;stroke-linejoin:round;stroke-opacity:1"
     d="m 626.20218,328.01745 c 0.4094,0.57488 1.0495,0.80389 2.2444,0.803 1.4078,-10e-4 1.9325,-0.17496 2.314,-0.76668 1.0156,-1.57517 -0.3914,-3.06586 -2.6524,-2.81006 -1.0038,0.11362 -1.269,0.22894 -1.9076,0.82968 -0.4176,0.39291 -0.4568,0.49439 -0.3799,0.98334 0.0471,0.29983 0.2188,0.73218 0.3815,0.96072 z"
     id="path20-4" />
  <path
     inkscape:connector-curvature="0"
     style="fill:none;fill-opacity:1;stroke:#000000;stroke-width:0.35277781;stroke-linecap:round;stroke-linejoin:round;stroke-opacity:1"
     d="m 635.30988,328.17672 c 0.4497,0.51605 0.469,0.52273 1.7146,0.59342 1.6108,0.0914 2.39,-0.1232 2.8327,-0.78012 0.4464,-0.66242 0.4121,-1.2901 -0.1025,-1.87629 -0.6281,-0.71536 -1.0614,-0.84057 -2.6255,-0.75875 l -1.3561,0.0709 -0.4591,0.53113 c -0.6394,0.73971 -0.6408,1.48919 -0.004,2.21966 z"
     id="path22-7" />
  <path
     inkscape:connector-curvature="0"
     style="fill:none;fill-opacity:1;stroke:#000000;stroke-width:0.35277781;stroke-linecap:round;stroke-linejoin:round;stroke-opacity:1"
     d="m 657.79388,610.33266 c 0.2852,0.9166 0.5758,0.9711 5.1652,0.97089 4.5841,-2.1e-4 4.7735,-0.0379 5.2793,-1.04971 0.2603,-0.52059 0.28,-0.83989 0.28,-4.5494 0,-3.8766 -0.009,-4.00339 -0.3104,-4.4885 -0.6801,-1.0935 -0.4233,-1.04068 -5.0583,-1.04068 -4.5051,0 -4.8679,0.0519 -5.2068,0.7444 -0.101,0.20648 -0.2248,0.72189 -0.275,1.14538 -0.1464,1.23582 -0.0478,7.70911 0.126,8.26762 z"
     id="path24-65" />
  <path
     inkscape:connector-curvature="0"
     style="fill:none;fill-opacity:1;stroke:#000000;stroke-width:0.35277781;stroke-linecap:round;stroke-linejoin:round;stroke-opacity:1"
     d="M 526.10729,336.25896 V 624.52325"
     id="path26-69" />
</svg>
