<?xml version="1.0" encoding="UTF-8" standalone="no"?>
<!-- exported from Silhouette Studio Business Edition V4.1.479ssbe -->

<svg
   xmlns:dc="http://purl.org/dc/elements/1.1/"
   xmlns:cc="http://creativecommons.org/ns#"
   xmlns:rdf="http://www.w3.org/1999/02/22-rdf-syntax-ns#"
   xmlns:svg="http://www.w3.org/2000/svg"
   xmlns="http://www.w3.org/2000/svg"
   xmlns:sodipodi="http://sodipodi.sourceforge.net/DTD/sodipodi-0.dtd"
   xmlns:inkscape="http://www.inkscape.org/namespaces/inkscape"
   version="1.1"
   width="1200mm"
   height="1200mm"
   viewBox="0 0 1200 1200"
   id="svg28"
   sodipodi:docname="E6430_pr.svg"
   inkscape:version="0.92.3 (2405546, 2018-03-11)">
  <metadata
     id="metadata32">
    <rdf:RDF>
      <cc:Work
         rdf:about="">
        <dc:format>image/svg+xml</dc:format>
        <dc:type
           rdf:resource="http://purl.org/dc/dcmitype/StillImage" />
      </cc:Work>
    </rdf:RDF>
  </metadata>
  <sodipodi:namedview
     pagecolor="#ffffff"
     bordercolor="#666666"
     borderopacity="1"
     objecttolerance="10"
     gridtolerance="10"
     guidetolerance="10"
     inkscape:pageopacity="0"
     inkscape:pageshadow="2"
     inkscape:window-width="1123"
     inkscape:window-height="684"
     id="namedview30"
     showgrid="false"
     inkscape:zoom="0.20813889"
     inkscape:cx="1599.4888"
     inkscape:cy="3653.9702"
     inkscape:window-x="0"
     inkscape:window-y="28"
     inkscape:window-maximized="1"
     inkscape:current-layer="svg28"
     inkscape:snap-bbox="true"
     inkscape:bbox-paths="true"
     inkscape:snap-bbox-edge-midpoints="true"
     inkscape:snap-bbox-midpoints="true" />
  <defs
     id="defs2" />
  <g
     id="g78">
    <path
       id="path4-37"
       d="m 530.14409,221.91989 0.01,58.8691 c 0,0.2597 0.002,-1.9478 0.007,29.218 0.003,23.3745 -0.0283,28.9602 0.005,29.2181 0.3487,2.7199 4.1418,4.1207 4.1909,4.1422 78.6418,0.0457 71.644,0.0406 74.9763,0.0414 l 14.7716,0.006 20.525,-0.0225 c 0.1,-1e-4 10.6503,-0.0344 11.2503,-0.0329 3.051,0.008 4.8485,0.2877 6.6165,-1.4567 1.8012,-1.777 1.5752,-2.8689 1.5612,-4.6101 -0.004,-0.4491 0.0131,-1.8247 0.0189,-6.3163 l 0.0362,-27.8197 c 0.009,-32.9684 0.0162,-33.9477 0.0169,-36.7222 l -0.005,-45.9348 c -1e-4,-1.4966 -0.006,-22.4488 -0.0353,-168.3657 -2.3125,-3.9984 -3.4418,-3.6149 -8.1354,-3.6638 -0.0449,-4e-4 -5.017,-0.0273 -5.062,-0.0274 l -18.6774,-0.0213 -85.4838,-0.002 c -6.0874,0 -11.7028,-0.008 -11.8076,-0.002 -1.9094,0.1103 -3.7004,2.0968 -3.9497,2.4381 -0.787,1.0771 -0.7495,2.0786 -0.765,4.6063 -0.01,1.6124 -0.043,5.7475 -0.0432,5.8515 l -0.0244,10.7989 c -0.009,4.2346 -0.003,13.9809 -0.003,15.1236 l -0.005,33.5845 c 0,1.3317 -0.003,20.7025 -0.003,20.7025"
       style="fill:none;fill-opacity:1;stroke:#000000;stroke-width:0.5;stroke-linecap:round;stroke-linejoin:round;stroke-miterlimit:4;stroke-dasharray:none;stroke-opacity:1"
       inkscape:connector-curvature="0" />
    <path
       id="path6-5"
       d="m 562.60247,359.87539 c 0.086,0.7312 0.164,0.9173 0.5303,1.2636 l 0.4294,0.4061 h 4.7757 c 5.1664,0 5.4061,-0.0277 5.8719,-0.6762 0.2191,-0.3049 0.2441,-0.7597 0.2813,-5.1136 0.0397,-4.6494 0.0332,-4.7937 -0.2421,-5.3312 -0.4441,-0.8673 -0.5531,-0.8836 -5.8801,-0.8787 -3.4237,0.003 -4.6883,0.0448 -4.9105,0.1618 -0.3012,0.1583 -0.6565,0.6988 -0.8455,1.2862 -0.1327,0.4126 -0.1413,7.768 -0.0104,8.882 z"
       style="fill:none;fill-opacity:1;stroke:#000000;stroke-width:0.5;stroke-linecap:round;stroke-linejoin:round;stroke-miterlimit:4;stroke-dasharray:none;stroke-opacity:1"
       inkscape:connector-curvature="0" />
    <path
       id="path8-9"
       d="m 579.97645,360.63799 c 0.0681,0.1911 0.3143,0.476 0.5471,0.6335 l 0.4232,0.2861 h 10.3705 c 9.6801,0 10.3955,-0.0149 10.7458,-0.223 0.6729,-0.4001 0.6704,-0.3802 0.708,-5.4777 0.0397,-5.376 0.005,-5.6784 -0.6907,-6.0507 -0.389,-0.2081 -1.1332,-0.2249 -10.7757,-0.2415 -11.3881,-0.0197 -10.8693,-0.0539 -11.2344,0.7404 -0.0904,0.1969 -0.1995,0.8711 -0.2423,1.4981 -0.1132,1.6589 4e-4,8.4197 0.1485,8.8348 z"
       style="fill:none;fill-opacity:1;stroke:#000000;stroke-width:0.5;stroke-linecap:round;stroke-linejoin:round;stroke-miterlimit:4;stroke-dasharray:none;stroke-opacity:1"
       inkscape:connector-curvature="0" />
    <path
       id="path10-2"
       d="m 669.88986,336.10243 c 0.1194,0.2083 0.4344,0.4818 0.6999,0.6078 0.4467,0.2121 0.8342,0.2292 5.1909,0.2292 4.4791,0 4.7292,-0.0118 5.1408,-0.2431 0.7172,-0.4031 0.7396,-0.5831 0.7254,-5.8362 -0.0143,-5.3036 -0.0251,-5.3715 -0.9028,-5.7219 -0.6659,-0.2659 -9.5611,-0.2652 -10.1477,7e-4 -0.9089,0.4121 -0.9686,0.8169 -0.9429,6.39 0.0171,3.7021 0.0448,4.2392 0.2364,4.5735 z"
       style="fill:none;fill-opacity:1;stroke:#000000;stroke-width:0.5;stroke-linecap:round;stroke-linejoin:round;stroke-miterlimit:4;stroke-dasharray:none;stroke-opacity:1"
       inkscape:connector-curvature="0" />
    <path
       id="path12-28"
       d="m 672.84519,72.28269 c 0.177,0.3497 0.3511,0.4374 1.0658,0.5364 1.2432,0.1724 2.6457,0.0206 3.0603,-0.3312 0.6066,-0.5144 0.8169,-2.4834 0.385,-3.6028 -0.3084,-0.7993 -0.8036,-0.9818 -2.6945,-0.9932 -1.6758,-0.0101 -1.7041,0.003 -1.9644,0.9097 -0.2076,0.7229 -0.1123,2.9672 0.1478,3.4811 z"
       style="fill:none;fill-opacity:1;stroke:#000000;stroke-width:0.5;stroke-linecap:round;stroke-linejoin:round;stroke-miterlimit:4;stroke-dasharray:none;stroke-opacity:1"
       inkscape:connector-curvature="0" />
    <path
       id="path14-9"
       d="m 672.70139,80.26339 c 0.075,0.2656 0.2051,0.5416 0.289,0.6133 0.2409,0.2061 3.3437,0.157 3.8071,-0.0603 0.2835,-0.133 0.4758,-0.3817 0.597,-0.772 0.2123,-0.6832 0.2367,-2.5373 0.0401,-3.0316 -0.2563,-0.6441 -1.1004,-1.0028 -2.3654,-1.0048 -1.7268,-0.003 -2.0647,0.1073 -2.3001,0.7493 -0.2319,0.6325 -0.2734,2.7784 -0.0677,3.5061 z"
       style="fill:none;fill-opacity:1;stroke:#000000;stroke-width:0.5;stroke-linecap:round;stroke-linejoin:round;stroke-miterlimit:4;stroke-dasharray:none;stroke-opacity:1"
       inkscape:connector-curvature="0" />
    <path
       id="path16-7"
       d="m 672.76649,88.45089 c 0.128,0.3427 0.3394,0.6052 0.5473,0.6793 0.6152,0.2195 3.0374,0.1411 3.4074,-0.1102 0.7426,-0.5044 1.0984,-2.5135 0.6552,-3.7008 -0.2991,-0.8013 -0.9248,-1.0606 -2.5593,-1.0606 -1.6213,0 -1.9503,0.1328 -2.1136,0.853 -0.2031,0.8952 -0.1686,2.7185 0.063,3.3393 z"
       style="fill:none;fill-opacity:1;stroke:#000000;stroke-width:0.5;stroke-linecap:round;stroke-linejoin:round;stroke-miterlimit:4;stroke-dasharray:none;stroke-opacity:1"
       inkscape:connector-curvature="0" />
    <path
       id="path18-3"
       d="m 463.47999,221.73009 66.6759,0.1889"
       style="fill:none;fill-opacity:1;stroke:#000000;stroke-width:0.5;stroke-linecap:round;stroke-linejoin:round;stroke-miterlimit:4;stroke-dasharray:none;stroke-opacity:1"
       inkscape:connector-curvature="0" />
    <path
       id="path20-6"
       d="m 530.12089,141.52619 h -66.5461"
       style="fill:none;fill-opacity:1;stroke:#000000;stroke-width:0.5;stroke-linecap:round;stroke-linejoin:round;stroke-miterlimit:4;stroke-dasharray:none;stroke-opacity:1"
       inkscape:connector-curvature="0" />
    <path
       id="path22-1"
       d="m 463.59149,221.66939 v 7.7077"
       style="fill:none;fill-opacity:1;stroke:#000000;stroke-width:0.5;stroke-linecap:round;stroke-linejoin:round;stroke-miterlimit:4;stroke-dasharray:none;stroke-opacity:1"
       inkscape:connector-curvature="0" />
    <path
       id="path24-29"
       d="m 463.59109,240.25729 v 118.741 c 0,5.5364 4.8068,9.3715 9.9782,9.3715 l 203.0432,-2e-4 c 5.5974,0 9.9785,-4.2611 9.9785,-9.3718 V 32.73929 c 0,-4.8668 -4.1387,-9.3692 -9.9785,-9.3692 h -203.0432 c -1.6235,0 -4.5856,0.3936 -7.0872,2.7684 -3.0194,2.8663 -2.8903,6.3444 -2.8903,6.6006 v 108.8269"
       style="fill:none;fill-opacity:1;stroke:#000000;stroke-width:0.5;stroke-linecap:round;stroke-linejoin:round;stroke-miterlimit:4;stroke-dasharray:none;stroke-opacity:1"
       inkscape:connector-curvature="0" />
    <path
       id="path26-3"
       d="m 463.62169,229.38159 v -0.004 c 0.2645,0 0.2645,0 3.968,0 v 10.9123 c -4.1972,0 -3.9328,0.003 -3.9679,0 v -0.0376"
       style="fill:none;fill-opacity:1;stroke:#000000;stroke-width:0.5;stroke-linecap:round;stroke-linejoin:round;stroke-miterlimit:4;stroke-dasharray:none;stroke-opacity:1"
       inkscape:connector-curvature="0" />
    <path
       id="path4-3-9"
       d="m 301.86363,221.85929 0.01,58.8691 c 0,0.2597 0.002,-1.9478 0.007,29.218 0.003,23.3745 -0.0283,28.9602 0.005,29.2181 0.3487,2.7199 4.1418,4.1207 4.1909,4.1422 78.6418,0.0457 71.644,0.0406 74.9763,0.0414 l 14.7716,0.006 20.525,-0.0225 c 0.1,-1e-4 10.6503,-0.0344 11.2503,-0.0329 3.051,0.008 4.8485,0.2877 6.6165,-1.4567 1.8012,-1.777 1.5752,-2.8689 1.5612,-4.6101 -0.004,-0.4491 0.0131,-1.8247 0.0189,-6.3163 l 0.0362,-27.8197 c 0.009,-32.9684 0.0162,-33.9477 0.0169,-36.7222 l -0.005,-45.9348 c -10e-5,-1.4966 -0.006,-22.4488 -0.0353,-168.3657 -2.3125,-3.9984 -3.4418,-3.6149 -8.1354,-3.6638 -0.0449,-4e-4 -5.017,-0.0273 -5.062,-0.0274 l -18.6774,-0.0213 -85.4838,-0.002 c -6.0874,0 -11.7028,-0.008 -11.8076,-0.002 -1.9094,0.1103 -3.7004,2.0968 -3.9497,2.4381 -0.787,1.0771 -0.7495,2.0786 -0.765,4.6063 -0.01,1.6124 -0.043,5.7475 -0.0432,5.8515 l -0.0244,10.7989 c -0.009,4.2346 -0.003,13.9809 -0.003,15.1236 l -0.005,33.5845 c 0,1.3317 -0.003,20.7025 -0.003,20.7025"
       style="fill:none;fill-opacity:1;stroke:#000000;stroke-width:0.5;stroke-linecap:round;stroke-linejoin:round;stroke-miterlimit:4;stroke-dasharray:none;stroke-opacity:1"
       inkscape:connector-curvature="0" />
    <path
       id="path6-6-4"
       d="m 334.32201,359.81479 c 0.086,0.7312 0.164,0.9173 0.5303,1.2636 l 0.4294,0.4061 h 4.7757 c 5.1664,0 5.4061,-0.0277 5.8719,-0.6762 0.2191,-0.3049 0.2441,-0.7597 0.2813,-5.1136 0.0397,-4.6494 0.0332,-4.7937 -0.2421,-5.3312 -0.4441,-0.8673 -0.5531,-0.8836 -5.8801,-0.8787 -3.4237,0.003 -4.6883,0.0448 -4.9105,0.1618 -0.3012,0.1583 -0.6565,0.6988 -0.8455,1.2862 -0.1327,0.4126 -0.1413,7.768 -0.0104,8.882 z"
       style="fill:none;fill-opacity:1;stroke:#000000;stroke-width:0.5;stroke-linecap:round;stroke-linejoin:round;stroke-miterlimit:4;stroke-dasharray:none;stroke-opacity:1"
       inkscape:connector-curvature="0" />
    <path
       id="path8-0-7"
       d="m 351.69599,360.57739 c 0.0681,0.1911 0.3143,0.476 0.5471,0.6335 l 0.4232,0.2861 h 10.3705 c 9.6801,0 10.3955,-0.0149 10.7458,-0.223 0.6729,-0.4001 0.6704,-0.3802 0.708,-5.4777 0.0397,-5.376 0.005,-5.6784 -0.6907,-6.0507 -0.389,-0.2081 -1.1332,-0.2249 -10.7757,-0.2415 -11.3881,-0.0197 -10.8693,-0.0539 -11.2344,0.7404 -0.0904,0.1969 -0.1995,0.8711 -0.2423,1.4981 -0.1132,1.6589 4e-4,8.4197 0.1485,8.8348 z"
       style="fill:none;fill-opacity:1;stroke:#000000;stroke-width:0.5;stroke-linecap:round;stroke-linejoin:round;stroke-miterlimit:4;stroke-dasharray:none;stroke-opacity:1"
       inkscape:connector-curvature="0" />
    <path
       id="path10-6-8"
       d="m 441.6094,336.04183 c 0.1194,0.2083 0.4344,0.4818 0.6999,0.6078 0.4467,0.2121 0.8342,0.2292 5.1909,0.2292 4.4791,0 4.7292,-0.0118 5.1408,-0.2431 0.7172,-0.4031 0.7396,-0.5831 0.7254,-5.8362 -0.0143,-5.3036 -0.0251,-5.3715 -0.9028,-5.7219 -0.6659,-0.2659 -9.5611,-0.2652 -10.1477,7e-4 -0.9089,0.4121 -0.9686,0.8169 -0.9429,6.39 0.0171,3.7021 0.0448,4.2392 0.2364,4.5735 z"
       style="fill:none;fill-opacity:1;stroke:#000000;stroke-width:0.5;stroke-linecap:round;stroke-linejoin:round;stroke-miterlimit:4;stroke-dasharray:none;stroke-opacity:1"
       inkscape:connector-curvature="0" />
    <path
       id="path12-2-4"
       d="m 444.56473,72.22209 c 0.177,0.3497 0.3511,0.4374 1.0658,0.5364 1.2432,0.1724 2.6457,0.0206 3.0603,-0.3312 0.6066,-0.5144 0.8169,-2.4834 0.385,-3.6028 -0.3084,-0.7993 -0.8036,-0.9818 -2.6945,-0.9932 -1.6758,-0.0101 -1.7041,0.003 -1.9644,0.9097 -0.2076,0.7229 -0.1123,2.9672 0.1478,3.4811 z"
       style="fill:none;fill-opacity:1;stroke:#000000;stroke-width:0.5;stroke-linecap:round;stroke-linejoin:round;stroke-miterlimit:4;stroke-dasharray:none;stroke-opacity:1"
       inkscape:connector-curvature="0" />
    <path
       id="path14-6-5"
       d="m 444.42093,80.20279 c 0.075,0.2656 0.2051,0.5416 0.289,0.6133 0.2409,0.2061 3.3437,0.157 3.8071,-0.0603 0.2835,-0.133 0.4758,-0.3817 0.597,-0.772 0.2123,-0.6832 0.2367,-2.5373 0.0401,-3.0316 -0.2563,-0.6441 -1.1004,-1.0028 -2.3654,-1.0048 -1.7268,-0.003 -2.0647,0.1073 -2.3001,0.7493 -0.2319,0.6325 -0.2734,2.7784 -0.0677,3.5061 z"
       style="fill:none;fill-opacity:1;stroke:#000000;stroke-width:0.5;stroke-linecap:round;stroke-linejoin:round;stroke-miterlimit:4;stroke-dasharray:none;stroke-opacity:1"
       inkscape:connector-curvature="0" />
    <path
       id="path16-1-0"
       d="m 444.48603,88.39029 c 0.128,0.3427 0.3394,0.6052 0.5473,0.6793 0.6152,0.2195 3.0374,0.1411 3.4074,-0.1102 0.7426,-0.5044 1.0984,-2.5135 0.6552,-3.7008 -0.2991,-0.8013 -0.9248,-1.0606 -2.5593,-1.0606 -1.6213,0 -1.9503,0.1328 -2.1136,0.853 -0.2031,0.8952 -0.1686,2.7185 0.063,3.3393 z"
       style="fill:none;fill-opacity:1;stroke:#000000;stroke-width:0.5;stroke-linecap:round;stroke-linejoin:round;stroke-miterlimit:4;stroke-dasharray:none;stroke-opacity:1"
       inkscape:connector-curvature="0" />
    <path
       id="path18-8-3"
       d="m 235.19953,221.66949 66.6759,0.1889"
       style="fill:none;fill-opacity:1;stroke:#000000;stroke-width:0.5;stroke-linecap:round;stroke-linejoin:round;stroke-miterlimit:4;stroke-dasharray:none;stroke-opacity:1"
       inkscape:connector-curvature="0" />
    <path
       id="path20-7-6"
       d="m 301.84043,141.46559 h -66.5461"
       style="fill:none;fill-opacity:1;stroke:#000000;stroke-width:0.5;stroke-linecap:round;stroke-linejoin:round;stroke-miterlimit:4;stroke-dasharray:none;stroke-opacity:1"
       inkscape:connector-curvature="0" />
    <path
       id="path22-9-1"
       d="m 235.31103,221.60879 v 7.7077"
       style="fill:none;fill-opacity:1;stroke:#000000;stroke-width:0.5;stroke-linecap:round;stroke-linejoin:round;stroke-miterlimit:4;stroke-dasharray:none;stroke-opacity:1"
       inkscape:connector-curvature="0" />
    <path
       id="path24-2-0"
       d="m 235.31063,240.19669 v 118.741 c 0,5.5364 4.8068,9.3715 9.9782,9.3715 l 203.0432,-2e-4 c 5.5974,0 9.9785,-4.2611 9.9785,-9.3718 V 32.67869 c 0,-4.8668 -4.1387,-9.3692 -9.9785,-9.3692 h -203.0432 c -1.6235,0 -4.5856,0.3936 -7.0872,2.7684 -3.0194,2.8663 -2.8903,6.3444 -2.8903,6.6006 v 108.8269"
       style="fill:none;fill-opacity:1;stroke:#000000;stroke-width:0.5;stroke-linecap:round;stroke-linejoin:round;stroke-miterlimit:4;stroke-dasharray:none;stroke-opacity:1"
       inkscape:connector-curvature="0" />
    <path
       id="path26-0-6"
       d="m 235.34123,229.32099 v -0.004 c 0.2645,0 0.2645,0 3.968,0 v 10.9123 c -4.1972,0 -3.9328,0.003 -3.9679,0 v -0.0376"
       style="fill:none;fill-opacity:1;stroke:#000000;stroke-width:0.5;stroke-linecap:round;stroke-linejoin:round;stroke-miterlimit:4;stroke-dasharray:none;stroke-opacity:1"
       inkscape:connector-curvature="0" />
    <path
       id="path4-3-9-6"
       d="m 74.47117,221.66291 0.01,58.8691 c 0,0.2597 0.002,-1.9478 0.007,29.218 0.003,23.3745 -0.0283,28.9602 0.005,29.2181 0.3487,2.7199 4.1418,4.1207 4.1909,4.1422 78.6418,0.0457 71.644,0.0406 74.9763,0.0414 l 14.7716,0.006 20.525,-0.0225 c 0.1,-10e-5 10.6503,-0.0344 11.2503,-0.0329 3.051,0.008 4.8485,0.2877 6.6165,-1.4567 1.8012,-1.777 1.5752,-2.8689 1.5612,-4.6101 -0.004,-0.4491 0.0131,-1.8247 0.0189,-6.3163 l 0.0362,-27.8197 c 0.009,-32.9684 0.0162,-33.9477 0.0169,-36.7222 l -0.005,-45.9348 c -10e-5,-1.4966 -0.006,-22.4488 -0.0353,-168.3657 -2.3125,-3.9984 -3.4418,-3.6149 -8.1354,-3.6638 -0.0449,-4e-4 -5.017,-0.0273 -5.062,-0.0274 l -18.6774,-0.0213 -85.4838,-0.002 c -6.0874,0 -11.7028,-0.008 -11.8076,-0.002 -1.9094,0.1103 -3.7004,2.0968 -3.9497,2.4381 -0.787,1.0771 -0.7495,2.0786 -0.765,4.6063 -0.01,1.6124 -0.043,5.7475 -0.0432,5.8515 l -0.0244,10.7989 c -0.009,4.2346 -0.003,13.9809 -0.003,15.1236 l -0.005,33.5845 c 0,1.3317 -0.003,20.7025 -0.003,20.7025"
       style="fill:none;fill-opacity:1;stroke:#000000;stroke-width:0.5;stroke-linecap:round;stroke-linejoin:round;stroke-miterlimit:4;stroke-dasharray:none;stroke-opacity:1"
       inkscape:connector-curvature="0" />
    <path
       id="path6-6-4-7"
       d="m 106.92955,359.61841 c 0.086,0.7312 0.164,0.9173 0.5303,1.2636 l 0.4294,0.4061 h 4.7757 c 5.1664,0 5.4061,-0.0277 5.8719,-0.6762 0.2191,-0.3049 0.2441,-0.7597 0.2813,-5.1136 0.0397,-4.6494 0.0332,-4.7937 -0.2421,-5.3312 -0.4441,-0.8673 -0.5531,-0.8836 -5.8801,-0.8787 -3.4237,0.003 -4.6883,0.0448 -4.9105,0.1618 -0.3012,0.1583 -0.6565,0.6988 -0.8455,1.2862 -0.1327,0.4126 -0.1413,7.768 -0.0104,8.882 z"
       style="fill:none;fill-opacity:1;stroke:#000000;stroke-width:0.5;stroke-linecap:round;stroke-linejoin:round;stroke-miterlimit:4;stroke-dasharray:none;stroke-opacity:1"
       inkscape:connector-curvature="0" />
    <path
       id="path8-0-7-5"
       d="m 124.30353,360.38101 c 0.0681,0.1911 0.3143,0.476 0.5471,0.6335 l 0.4232,0.2861 h 10.3705 c 9.6801,0 10.3955,-0.0149 10.7458,-0.223 0.6729,-0.4001 0.6704,-0.3802 0.708,-5.4777 0.0397,-5.376 0.005,-5.6784 -0.6907,-6.0507 -0.389,-0.2081 -1.1332,-0.2249 -10.7757,-0.2415 -11.3881,-0.0197 -10.8693,-0.0539 -11.2344,0.7404 -0.0904,0.1969 -0.1995,0.8711 -0.2423,1.4981 -0.1132,1.6589 4e-4,8.4197 0.1485,8.8348 z"
       style="fill:none;fill-opacity:1;stroke:#000000;stroke-width:0.5;stroke-linecap:round;stroke-linejoin:round;stroke-miterlimit:4;stroke-dasharray:none;stroke-opacity:1"
       inkscape:connector-curvature="0" />
    <path
       id="path10-6-8-3"
       d="m 214.21694,335.84545 c 0.1194,0.2083 0.4344,0.4818 0.6999,0.6078 0.4467,0.2121 0.8342,0.2292 5.1909,0.2292 4.4791,0 4.7292,-0.0118 5.1408,-0.2431 0.7172,-0.4031 0.7396,-0.5831 0.7254,-5.8362 -0.0143,-5.3036 -0.0251,-5.3715 -0.9028,-5.7219 -0.6659,-0.2659 -9.5611,-0.2652 -10.1477,7e-4 -0.9089,0.4121 -0.9686,0.8169 -0.9429,6.39 0.0171,3.7021 0.0448,4.2392 0.2364,4.5735 z"
       style="fill:none;fill-opacity:1;stroke:#000000;stroke-width:0.5;stroke-linecap:round;stroke-linejoin:round;stroke-miterlimit:4;stroke-dasharray:none;stroke-opacity:1"
       inkscape:connector-curvature="0" />
    <path
       id="path12-2-4-5"
       d="m 217.17227,72.02571 c 0.177,0.3497 0.3511,0.4374 1.0658,0.5364 1.2432,0.1724 2.6457,0.0206 3.0603,-0.3312 0.6066,-0.5144 0.8169,-2.4834 0.385,-3.6028 -0.3084,-0.7993 -0.8036,-0.9818 -2.6945,-0.9932 -1.6758,-0.0101 -1.7041,0.003 -1.9644,0.9097 -0.2076,0.7229 -0.1123,2.9672 0.1478,3.4811 z"
       style="fill:none;fill-opacity:1;stroke:#000000;stroke-width:0.5;stroke-linecap:round;stroke-linejoin:round;stroke-miterlimit:4;stroke-dasharray:none;stroke-opacity:1"
       inkscape:connector-curvature="0" />
    <path
       id="path14-6-5-6"
       d="m 217.02847,80.00641 c 0.075,0.2656 0.2051,0.5416 0.289,0.6133 0.2409,0.2061 3.3437,0.157 3.8071,-0.0603 0.2835,-0.133 0.4758,-0.3817 0.597,-0.772 0.2123,-0.6832 0.2367,-2.5373 0.0401,-3.0316 -0.2563,-0.6441 -1.1004,-1.0028 -2.3654,-1.0048 -1.7268,-0.003 -2.0647,0.1073 -2.3001,0.7493 -0.2319,0.6325 -0.2734,2.7784 -0.0677,3.5061 z"
       style="fill:none;fill-opacity:1;stroke:#000000;stroke-width:0.5;stroke-linecap:round;stroke-linejoin:round;stroke-miterlimit:4;stroke-dasharray:none;stroke-opacity:1"
       inkscape:connector-curvature="0" />
    <path
       id="path16-1-0-2"
       d="m 217.09357,88.19391 c 0.128,0.3427 0.3394,0.6052 0.5473,0.6793 0.6152,0.2195 3.0374,0.1411 3.4074,-0.1102 0.7426,-0.5044 1.0984,-2.5135 0.6552,-3.7008 -0.2991,-0.8013 -0.9248,-1.0606 -2.5593,-1.0606 -1.6213,0 -1.9503,0.1328 -2.1136,0.853 -0.2031,0.8952 -0.1686,2.7185 0.063,3.3393 z"
       style="fill:none;fill-opacity:1;stroke:#000000;stroke-width:0.5;stroke-linecap:round;stroke-linejoin:round;stroke-miterlimit:4;stroke-dasharray:none;stroke-opacity:1"
       inkscape:connector-curvature="0" />
    <path
       id="path18-8-3-9"
       d="m 7.80707,221.47311 66.6759,0.1889"
       style="fill:none;fill-opacity:1;stroke:#000000;stroke-width:0.5;stroke-linecap:round;stroke-linejoin:round;stroke-miterlimit:4;stroke-dasharray:none;stroke-opacity:1"
       inkscape:connector-curvature="0" />
    <path
       id="path20-7-6-1"
       d="M 74.44797,141.26921 H 7.90187"
       style="fill:none;fill-opacity:1;stroke:#000000;stroke-width:0.5;stroke-linecap:round;stroke-linejoin:round;stroke-miterlimit:4;stroke-dasharray:none;stroke-opacity:1"
       inkscape:connector-curvature="0" />
    <path
       id="path22-9-1-2"
       d="m 7.91857,221.41241 v 7.7077"
       style="fill:none;fill-opacity:1;stroke:#000000;stroke-width:0.5;stroke-linecap:round;stroke-linejoin:round;stroke-miterlimit:4;stroke-dasharray:none;stroke-opacity:1"
       inkscape:connector-curvature="0" />
    <path
       id="path24-2-0-7"
       d="m 7.91817,240.00031 v 118.741 c 0,5.5364 4.8068,9.3715 9.9782,9.3715 l 203.0432,-2e-4 c 5.5974,0 9.9785,-4.2611 9.9785,-9.3718 V 32.48231 c 0,-4.8668 -4.1387,-9.3692 -9.9785,-9.3692 H 17.89637 c -1.6235,0 -4.5856,0.3936 -7.0872,2.7684 -3.0194,2.8663 -2.8903,6.3444 -2.8903,6.6006 v 108.8269"
       style="fill:none;fill-opacity:1;stroke:#000000;stroke-width:0.5;stroke-linecap:round;stroke-linejoin:round;stroke-miterlimit:4;stroke-dasharray:none;stroke-opacity:1"
       inkscape:connector-curvature="0" />
    <path
       id="path26-0-6-0"
       d="m 7.94877,229.12461 v -0.004 c 0.2645,0 0.2645,0 3.968,0 v 10.9123 c -4.1972,0 -3.9328,0.003 -3.9679,0 v -0.0376"
       style="fill:none;fill-opacity:1;stroke:#000000;stroke-width:0.5;stroke-linecap:round;stroke-linejoin:round;stroke-miterlimit:4;stroke-dasharray:none;stroke-opacity:1"
       inkscape:connector-curvature="0" />
  </g>
</svg>
