<?xml version="1.0" encoding="utf-8"?>
<!-- Generator: Adobe Illustrator 24.2.2, SVG Export Plug-In . SVG Version: 6.00 Build 0)  -->
<svg version="1.1"
	 id="svg28" xmlns:cc="http://creativecommons.org/ns#" xmlns:dc="http://purl.org/dc/elements/1.1/" xmlns:inkscape="http://www.inkscape.org/namespaces/inkscape" xmlns:rdf="http://www.w3.org/1999/02/22-rdf-syntax-ns#" xmlns:sodipodi="http://sodipodi.sourceforge.net/DTD/sodipodi-0.dtd" xmlns:svg="http://www.w3.org/2000/svg"
	 xmlns="http://www.w3.org/2000/svg" xmlns:xlink="http://www.w3.org/1999/xlink" x="0px" y="0px" viewBox="0 0 3401.6 3401.6"
	 style="enable-background:new 0 0 3401.6 3401.6;" xml:space="preserve">
<style type="text/css">
	.st0{fill:none;stroke:#000000;stroke-width:1.4173;stroke-linecap:round;stroke-linejoin:round;stroke-miterlimit:11.3386;}
</style>
<sodipodi:namedview  bordercolor="#666666" borderopacity="1" gridtolerance="10" guidetolerance="10" id="namedview30" inkscape:bbox-paths="true" inkscape:current-layer="svg28" inkscape:cx="1599.4888" inkscape:cy="3653.9702" inkscape:pageopacity="0" inkscape:pageshadow="2" inkscape:snap-bbox="true" inkscape:snap-bbox-edge-midpoints="true" inkscape:snap-bbox-midpoints="true" inkscape:window-height="684" inkscape:window-maximized="1" inkscape:window-width="1123" inkscape:window-x="0" inkscape:window-y="28" inkscape:zoom="0.20813889" objecttolerance="10" pagecolor="#ffffff" showgrid="false">
	</sodipodi:namedview>
<polygon class="st0" points="14.4,2977.9 203,2977.9 203.1,2642.9 42.7,2642.9 31.6,2645 22.6,2650.8 18,2656.6 16,2660.8 
	14.4,2668.5 "/>
<path id="path18-3_2_" inkscape:connector-curvature="0" class="st0" d="M203.2,3401.6l-163.5-0.2l-8.1-2l-4.6-2.4l-4.3-3.3
	l-2.6-2.9l-1.6-2.2l-1.5-2.8l-0.9-2.3l-1.5-4.7l0.1-340.4h11.2v-30.9H14.6l-0.4-21.7l189,0.5L203.2,3401.6"/>
<sodipodi:namedview  bordercolor="#666666" borderopacity="1" gridtolerance="10" guidetolerance="10" id="namedview30" inkscape:bbox-paths="true" inkscape:current-layer="svg28" inkscape:cx="1599.4888" inkscape:cy="3653.9702" inkscape:pageopacity="0" inkscape:pageshadow="2" inkscape:snap-bbox="true" inkscape:snap-bbox-edge-midpoints="true" inkscape:snap-bbox-midpoints="true" inkscape:window-height="684" inkscape:window-maximized="1" inkscape:window-width="1123" inkscape:window-x="0" inkscape:window-y="28" inkscape:zoom="0.20813889" objecttolerance="10" pagecolor="#ffffff" showgrid="false">
	</sodipodi:namedview>
<polygon class="st0" points="223.6,2978 412.2,2978 412.3,2643 251.9,2643 240.8,2645.1 231.8,2650.9 227.2,2656.7 225.2,2660.9 
	223.6,2668.6 "/>
<path id="path18-3_1_" inkscape:connector-curvature="0" class="st0" d="M412.3,3401.7l-163.5-0.2l-8.1-2l-4.6-2.4l-4.3-3.3
	l-2.6-2.9l-1.6-2.2l-1.5-2.8l-0.9-2.3l-1.5-4.7l0.1-340.4h11.2v-30.9h-11.2l-0.4-21.7l189,0.5L412.3,3401.7"/>
<polygon class="st0" points="432.1,2978 620.8,2978 620.9,2643 460.4,2643 449.4,2645.1 440.4,2650.9 435.7,2656.7 433.7,2660.9 
	432.1,2668.6 "/>
<path id="path18-3_4_" inkscape:connector-curvature="0" class="st0" d="M620.9,3401.7l-163.5-0.2l-8.1-2l-4.6-2.4l-4.3-3.3
	l-2.6-2.9l-1.6-2.2l-1.5-2.8l-0.9-2.3l-1.5-4.7l0.1-340.4h11.2v-30.9h-11.2l-0.4-21.7l189,0.5L620.9,3401.7"/>
<polygon class="st0" points="641.3,2978 829.9,2978 830,2643.1 669.6,2643.1 658.5,2645.2 649.5,2651 644.9,2656.8 642.9,2661 
	641.3,2668.7 "/>
<path id="path18-3_3_" inkscape:connector-curvature="0" class="st0" d="M830.1,3401.8l-163.5-0.2l-8.1-2l-4.6-2.4l-4.3-3.3
	l-2.6-2.9l-1.6-2.2l-1.5-2.8l-0.9-2.3l-1.5-4.7l0.1-340.4h11.2v-30.9h-11.2l-0.4-21.7l189,0.5L830.1,3401.8"/>
<polygon class="st0" points="845.7,2977.9 1034.3,2977.9 1034.4,2643 874,2643 862.9,2645.1 853.9,2650.8 849.3,2656.6 
	847.3,2660.8 845.7,2668.6 "/>
<path id="path18-3_8_" inkscape:connector-curvature="0" class="st0" d="M1034.5,3401.6l-163.5-0.2l-8.1-2l-4.6-2.4l-4.3-3.3
	l-2.6-2.9l-1.6-2.2l-1.5-2.8l-0.9-2.3l-1.5-4.7l0.1-340.4h11.2v-30.9h-11.2l-0.4-21.7l189,0.5L1034.5,3401.6"/>
<polygon class="st0" points="1054.8,2978 1243.5,2978 1243.6,2643 1083.2,2643 1072.1,2645.1 1063.1,2650.9 1058.4,2656.7 
	1056.4,2660.9 1054.8,2668.7 "/>
<path id="path18-3_7_" inkscape:connector-curvature="0" class="st0" d="M1243.6,3401.7l-163.5-0.2l-8.1-2l-4.6-2.4l-4.3-3.3
	l-2.6-2.9l-1.6-2.2l-1.5-2.8l-0.9-2.3l-1.5-4.7l0.1-340.4h11.2v-30.9h-11.2l-0.4-21.7l189,0.5L1243.6,3401.7"/>
<polygon class="st0" points="1279.4,2978 1468,2978 1468.1,2643 1307.7,2643 1296.6,2645.1 1287.6,2650.9 1283,2656.7 1281,2660.9 
	1279.4,2668.7 "/>
<path id="path18-3_6_" inkscape:connector-curvature="0" class="st0" d="M1468.2,3401.7l-163.5-0.2l-8.1-2l-4.6-2.4l-4.3-3.3
	l-2.6-2.9l-1.6-2.2l-1.5-2.8l-0.9-2.3l-1.5-4.7l0.1-340.4h11.2v-30.9h-11.2l-0.4-21.7l189,0.5L1468.2,3401.7"/>
<polygon class="st0" points="1488.6,2978.1 1677.2,2978.1 1677.3,2643.1 1516.9,2643.1 1505.8,2645.2 1496.8,2651 1492.2,2656.8 
	1490.2,2661 1488.6,2668.7 "/>
<path id="path18-3_5_" inkscape:connector-curvature="0" class="st0" d="M1677.4,3401.8l-163.5-0.2l-8.1-2l-4.6-2.4l-4.3-3.3
	l-2.6-2.9l-1.6-2.2l-1.5-2.8l-0.9-2.3l-1.5-4.7l0.1-340.4h11.2v-30.9h-11.2l-0.4-21.7l189,0.5L1677.4,3401.8"/>
<polygon class="st0" points="1687.9,2977.9 1876.5,2977.9 1876.6,2643 1716.2,2643 1705.1,2645.1 1696.1,2650.8 1691.5,2656.6 
	1689.5,2660.8 1687.9,2668.6 "/>
<path id="path18-3_16_" inkscape:connector-curvature="0" class="st0" d="M1876.7,3401.7l-163.5-0.2l-8.1-2l-4.6-2.4l-4.3-3.3
	l-2.6-2.9l-1.6-2.2l-1.5-2.8l-0.9-2.3l-1.5-4.7l0.1-340.4h11.2v-30.9h-11.2l-0.4-21.7l189,0.5L1876.7,3401.7"/>
<polygon class="st0" points="1897,2978 2085.7,2978 2085.8,2643 1925.4,2643 1914.3,2645.2 1905.3,2650.9 1900.6,2656.7 
	1898.6,2660.9 1897,2668.7 "/>
<path id="path18-3_15_" inkscape:connector-curvature="0" class="st0" d="M2085.8,3401.7l-163.5-0.2l-8.1-2l-4.6-2.4l-4.3-3.3
	l-2.6-2.9l-1.6-2.2l-1.5-2.8l-0.9-2.3l-1.5-4.7l0.1-340.4h11.2v-30.9h-11.2l-0.4-21.7l189,0.5L2085.8,3401.7"/>
<polygon class="st0" points="2121.6,2978 2310.2,2978 2310.3,2643 2149.9,2643 2138.8,2645.2 2129.8,2650.9 2125.2,2656.7 
	2123.2,2660.9 2121.6,2668.7 "/>
<path id="path18-3_14_" inkscape:connector-curvature="0" class="st0" d="M2310.4,3401.7l-163.5-0.2l-8.1-2l-4.6-2.4l-4.3-3.3
	l-2.6-2.9l-1.6-2.2l-1.5-2.8l-0.9-2.3l-1.5-4.7l0.1-340.4h11.2v-30.9h-11.2l-0.4-21.7l189,0.5L2310.4,3401.7"/>
<polygon class="st0" points="2330.8,2978.1 2519.4,2978.1 2519.5,2643.1 2359.1,2643.1 2348,2645.2 2339,2651 2334.4,2656.8 
	2332.4,2661 2330.8,2668.7 "/>
<path id="path18-3_13_" inkscape:connector-curvature="0" class="st0" d="M2519.6,3401.8l-163.5-0.2l-8.1-2l-4.6-2.4l-4.3-3.3
	l-2.6-2.9l-1.6-2.2l-1.5-2.8l-0.9-2.3l-1.5-4.7l0.1-340.4h11.2v-30.9H2331l-0.4-21.7l189,0.5L2519.6,3401.8"/>
<polygon class="st0" points="2549.1,2977.9 2737.8,2977.9 2737.9,2643 2577.5,2643 2566.4,2645.1 2557.4,2650.8 2552.7,2656.6 
	2550.8,2660.9 2549.1,2668.6 "/>
<path id="path18-3_12_" inkscape:connector-curvature="0" class="st0" d="M2737.9,3401.7l-163.5-0.2l-8.1-2l-4.6-2.4l-4.3-3.3
	l-2.6-2.9l-1.6-2.2l-1.5-2.8l-0.9-2.3l-1.5-4.7l0.1-340.4h11.2v-30.9h-11.2l-0.4-21.7l189,0.5L2737.9,3401.7"/>
<polygon class="st0" points="2758.3,2978 2947,2978 2947.1,2643.1 2786.7,2643.1 2775.6,2645.2 2766.6,2650.9 2761.9,2656.7 
	2759.9,2660.9 2758.3,2668.7 "/>
<path id="path18-3_11_" inkscape:connector-curvature="0" class="st0" d="M2947.1,3401.8l-163.5-0.2l-8.1-2l-4.6-2.4l-4.3-3.3
	l-2.6-2.9l-1.6-2.2l-1.5-2.8l-0.9-2.3l-1.5-4.7l0.1-340.4h11.2v-30.9h-11.2l-0.4-21.7l189,0.5L2947.1,3401.8"/>
<polygon class="st0" points="2982.9,2978 3171.5,2978 3171.6,2643.1 3011.2,2643.1 3000.1,2645.2 2991.1,2650.9 2986.5,2656.7 
	2984.5,2660.9 2982.9,2668.7 "/>
<path id="path18-3_10_" inkscape:connector-curvature="0" class="st0" d="M3171.7,3401.8l-163.5-0.2l-8.1-2l-4.6-2.4l-4.3-3.3
	l-2.6-2.9l-1.6-2.2l-1.5-2.8l-0.9-2.3l-1.5-4.7l0.1-340.4h11.2v-30.9h-11.2l-0.4-21.7l189,0.5L3171.7,3401.8"/>
<polygon class="st0" points="3192.1,2978.1 3380.7,2978.1 3380.8,2643.2 3220.4,2643.2 3209.3,2645.3 3200.3,2651 3195.7,2656.8 
	3193.7,2661 3192.1,2668.8 "/>
<path id="path18-3_9_" inkscape:connector-curvature="0" class="st0" d="M3380.9,3401.8l-163.5-0.2l-8.1-2l-4.6-2.4l-4.3-3.3
	l-2.6-2.9l-1.6-2.2l-1.5-2.8l-0.9-2.3l-1.5-4.7l0.1-340.4h11.2v-30.9h-11.2l-0.4-21.7l189,0.5L3380.9,3401.8"/>
<polygon class="st0" points="3394.5,2978.2 3583.1,2978.2 3583.2,2643.3 3422.8,2643.3 3411.7,2645.4 3402.7,2651.1 3398.1,2657 
	3396.1,2661.2 3394.5,2668.9 "/>
<path id="path18-3_20_" inkscape:connector-curvature="0" class="st0" d="M3583.3,3402l-163.5-0.2l-8.1-2l-4.6-2.4l-4.3-3.3
	l-2.6-2.9l-1.6-2.2l-1.5-2.8l-0.9-2.3l-1.5-4.7l0.1-340.4h11.2V3008h-11.2l-0.4-21.7l189,0.5L3583.3,3402"/>
<polygon class="st0" points="3603.7,2978.3 3792.3,2978.3 3792.4,2643.4 3632,2643.4 3620.9,2645.5 3611.9,2651.2 3607.3,2657 
	3605.3,2661.3 3603.7,2669 "/>
<path id="path18-3_19_" inkscape:connector-curvature="0" class="st0" d="M3792.4,3402.1l-163.5-0.2l-8.1-2l-4.6-2.4l-4.3-3.3
	l-2.6-2.9l-1.6-2.2l-1.5-2.8l-0.9-2.3l-1.5-4.7l0.1-340.4h11.2v-30.9h-11.2l-0.4-21.7l189,0.5L3792.4,3402.1"/>
<polygon class="st0" points="3828.2,2978.3 4016.9,2978.3 4016.9,2643.4 3856.5,2643.4 3845.5,2645.5 3836.5,2651.2 3831.8,2657 
	3829.8,2661.3 3828.2,2669 "/>
<path id="path18-3_18_" inkscape:connector-curvature="0" class="st0" d="M4017,3402.1l-163.5-0.2l-8.1-2l-4.6-2.4l-4.3-3.3
	l-2.6-2.9l-1.6-2.2l-1.5-2.8l-0.9-2.3l-1.5-4.7l0.1-340.4h11.2v-30.9h-11.2l-0.4-21.7l189,0.5L4017,3402.1"/>
<polygon class="st0" points="4037.4,2978.4 4226,2978.4 4226.1,2643.5 4065.7,2643.5 4054.6,2645.6 4045.6,2651.3 4041,2657.1 
	4039,2661.4 4037.4,2669.1 "/>
<path id="path18-3_17_" inkscape:connector-curvature="0" class="st0" d="M4226.2,3402.2l-163.5-0.2l-8.1-2l-4.6-2.4l-4.3-3.3
	l-2.6-2.9l-1.6-2.2l-1.5-2.8l-0.9-2.3l-1.5-4.7l0.1-340.4h11.2v-30.9h-11.2l-0.4-21.7l189,0.5L4226.2,3402.2"/>
</svg>
