<?xml version="1.0" encoding="UTF-8" standalone="no"?>
<!-- Created with Inkscape (http://www.inkscape.org/) -->

<svg
   xmlns:dc="http://purl.org/dc/elements/1.1/"
   xmlns:cc="http://creativecommons.org/ns#"
   xmlns:rdf="http://www.w3.org/1999/02/22-rdf-syntax-ns#"
   xmlns:svg="http://www.w3.org/2000/svg"
   xmlns="http://www.w3.org/2000/svg"
   xmlns:sodipodi="http://sodipodi.sourceforge.net/DTD/sodipodi-0.dtd"
   xmlns:inkscape="http://www.inkscape.org/namespaces/inkscape"
   width="500mm"
   height="500mm"
   viewBox="0 0 500 500"
   version="1.1"
   id="svg8"
   inkscape:version="0.92.3 (2405546, 2018-03-11)"
   sodipodi:docname="E6440_PR.svg">
  <defs
     id="defs2" />
  <sodipodi:namedview
     id="base"
     pagecolor="#ffffff"
     bordercolor="#666666"
     borderopacity="1.0"
     inkscape:pageopacity="0.0"
     inkscape:pageshadow="2"
     inkscape:zoom="0.35"
     inkscape:cx="1146.175"
     inkscape:cy="564.41935"
     inkscape:document-units="mm"
     inkscape:current-layer="g841"
     showgrid="false"
     inkscape:window-width="1920"
     inkscape:window-height="1017"
     inkscape:window-x="-8"
     inkscape:window-y="-8"
     inkscape:window-maximized="1"
     showguides="true"
     inkscape:guide-bbox="true" />
  <metadata
     id="metadata5">
    <rdf:RDF>
      <cc:Work
         rdf:about="">
        <dc:format>image/svg+xml</dc:format>
        <dc:type
           rdf:resource="http://purl.org/dc/dcmitype/StillImage" />
        <dc:title />
      </cc:Work>
    </rdf:RDF>
  </metadata>
  <g
     inkscape:label="Layer 1"
     inkscape:groupmode="layer"
     id="layer1"
     transform="translate(0,203)">
    <g
       id="g841">
      <g
         id="g884"
         style="stroke:#000007;stroke-opacity:1;stroke-width:0.35277778;stroke-miterlimit:4;stroke-dasharray:none">
        <path
           sodipodi:nodetypes="cssssssssc"
           inkscape:connector-curvature="0"
           id="rect815-3"
           d="m 215.0478,166.61323 -97.46136,0.0352 c -6.66811,0.002 -12.0363,-5.35198 -12.0363,-11.99996 V -38.782625 c 0,-6.64798 5.36819,-11.99996 12.0363,-11.99996 h 307.35864 c 6.66811,0 12.03632,5.35198 12.03632,11.99996 V 154.64847 c 0,6.64798 -5.36821,12.00177 -12.03632,11.99996 l -129.39804,-0.0352"
           style="fill:none;fill-opacity:1;stroke:#000007;stroke-width:0.35277778;stroke-miterlimit:4;stroke-dasharray:none;stroke-opacity:1" />
        <path
           sodipodi:nodetypes="cccc"
           inkscape:connector-curvature="0"
           id="rect817-6"
           d="m 215.0478,166.61323 v -60.69554 m 80.49924,0 v 60.69557"
           style="fill:none;fill-opacity:1;stroke:#000007;stroke-width:0.35277778;stroke-miterlimit:4;stroke-dasharray:none;stroke-opacity:1" />
        <path
           sodipodi:nodetypes="cssssssssc"
           inkscape:connector-curvature="0"
           id="rect819-7"
           d="m 215.0478,105.91769 -86.44841,-0.0649 c -3.34075,-0.003 -6.03025,-2.68602 -6.03025,-6.022473 V -18.62396 c 0,-3.336452 2.6895,-6.022475 6.03025,-6.022475 h 284.43875 c 3.34077,0 6.03025,2.686023 6.03025,6.022475 V 99.830337 c 0,3.336453 -2.68948,6.020633 -6.03025,6.022473 l -117.4911,0.0649"
           style="fill:none;fill-opacity:1;stroke:#000007;stroke-width:0.35277778;stroke-miterlimit:4;stroke-dasharray:none;stroke-opacity:1" />
        <path
           style="fill:none;fill-opacity:1;stroke:#000007;stroke-width:0.35277778;stroke-miterlimit:4;stroke-dasharray:none;stroke-opacity:1"
           d="m 124.7539,-41.784135 h 32.04065 c 1.11135,0 2.00605,0.799322 2.00605,1.792194 v 5.044943 c 0,0.99288 -0.8947,1.792203 -2.00605,1.792203 H 124.7539 c -1.11135,0 -2.00605,-0.799323 -2.00605,-1.792203 v -5.044943 c 0,-0.992872 0.8947,-1.792194 2.00605,-1.792194 z"
           id="rect846-5"
           inkscape:connector-curvature="0" />
        <path
           style="fill:none;fill-opacity:1;stroke:#000007;stroke-width:0.35277778;stroke-miterlimit:4;stroke-dasharray:none;stroke-opacity:1"
           d="m 404.48686,-41.409128 h 14.75478 c 0.51178,0 0.9238,0.796823 0.9238,1.786596 v 5.029198 c 0,0.989772 -0.41202,1.786596 -0.9238,1.786596 h -14.75478 c -0.51179,0 -0.92381,-0.796824 -0.92381,-1.786596 v -5.029198 c 0,-0.989773 0.41202,-1.786596 0.92381,-1.786596 z"
           id="rect846-3-3"
           inkscape:connector-curvature="0" />
        <path
           style="opacity:1;fill:none;fill-opacity:1;stroke:#000007;stroke-width:0.35277778;stroke-miterlimit:4;stroke-dasharray:none;stroke-opacity:1"
           d="m 311.54034,161.22969 h 9.64723 c 0.554,0 1,0.446 1,1 v 1.64722 c 0,0.554 -0.446,1 -1,1 h -9.64723 c -0.554,0 -1,-0.446 -1,-1 v -1.64722 c 0,-0.554 0.446,-1 1,-1 z"
           id="rect834" />
        <path
           style="opacity:1;fill:none;fill-opacity:1;stroke:#000007;stroke-width:0.35277778;stroke-miterlimit:4;stroke-dasharray:none;stroke-opacity:1"
           d="m 408.60684,151.21344 h 14.64722 c 0.554,0 1,0.446 1,1 v 6.64722 c 0,0.554 -0.446,1 -1,1 h -14.64722 c -0.554,0 -1,-0.446 -1,-1 v -6.64722 c 0,-0.554 0.446,-1 1,-1 z"
           id="rect834-3" />
        <path
           style="opacity:1;fill:none;fill-opacity:1;stroke:#000007;stroke-width:0.35277778;stroke-miterlimit:4;stroke-dasharray:none;stroke-opacity:1"
           d="m 217.46689,108.26495 h 75.64722 c 0.554,0 1,0.446 1,1 v 40.64723 c 0,0.554 -0.446,1 -1,1 h -75.64722 c -0.554,0 -1,-0.446 -1,-1 v -40.64723 c 0,-0.554 0.446,-1 1,-1 z"
           id="rect855" />
        <path
           style="opacity:1;fill:none;fill-opacity:1;stroke:#000007;stroke-width:0.35277778;stroke-miterlimit:4;stroke-dasharray:none;stroke-opacity:1"
           d="m 217.09636,151.92378 h 35.64722 c 0.554,0 1,0.446 1,1 V 163.571 c 0,0.554 -0.446,1 -1,1 h -35.64722 c -0.554,0 -1,-0.446 -1,-1 v -10.64722 c 0,-0.554 0.446,-1 1,-1 z"
           id="rect857" />
        <path
           style="opacity:1;fill:none;fill-opacity:1;stroke:#000007;stroke-width:0.35277778;stroke-miterlimit:4;stroke-dasharray:none;stroke-opacity:1"
           d="m 257.3894,151.92378 h 35.64722 c 0.554,0 1,0.446 1,1 V 163.571 c 0,0.554 -0.446,1 -1,1 H 257.3894 c -0.554,0 -1,-0.446 -1,-1 v -10.64722 c 0,-0.554 0.446,-1 1,-1 z"
           id="rect857-5" />
      </g>
    </g>
  </g>
</svg>
