<?xml version="1.0" encoding="utf-8"?>
<!-- Generator: Adobe Illustrator 24.2.2, SVG Export Plug-In . SVG Version: 6.00 Build 0)  -->
<svg version="1.1"
	 id="svg18" xmlns:cc="http://creativecommons.org/ns#" xmlns:dc="http://purl.org/dc/elements/1.1/" xmlns:inkscape="http://www.inkscape.org/namespaces/inkscape" xmlns:rdf="http://www.w3.org/1999/02/22-rdf-syntax-ns#" xmlns:sodipodi="http://sodipodi.sourceforge.net/DTD/sodipodi-0.dtd" xmlns:svg="http://www.w3.org/2000/svg"
	 xmlns="http://www.w3.org/2000/svg" xmlns:xlink="http://www.w3.org/1999/xlink" x="0px" y="0px" viewBox="0 0 864 1700.8"
	 style="enable-background:new 0 0 864 1700.8;" xml:space="preserve">
<style type="text/css">
	.st0{fill:none;stroke:#000000;stroke-linecap:round;stroke-linejoin:round;stroke-miterlimit:11.3386;}
</style>
<sodipodi:namedview  bordercolor="#666666" borderopacity="1" gridtolerance="10" guidetolerance="10" id="namedview20" inkscape:current-layer="svg18" inkscape:cx="575.99998" inkscape:cy="1133.8583" inkscape:pageopacity="0" inkscape:pageshadow="2" inkscape:window-height="1117" inkscape:window-maximized="1" inkscape:window-width="1920" inkscape:window-x="0" inkscape:window-y="28" inkscape:zoom="0.41627778" objecttolerance="10" pagecolor="#ffffff" showgrid="false">
	</sodipodi:namedview>
<g id="g31" transform="rotate(-90,74.702656,250.32664)">
	<path class="st0" d="M-138.2,882.8l-3.7,0.5l-16.5,0.3l-867.6,0.3l-3.3-1l-2.1-0.7l-2.3-0.8l-1.7-0.7l-2-0.8l-2.3-1.4l-0.9-0.8
		l-2-1.8l-1.5-1.4l-2.6-2.6l-2.3-2.7l-2-2.9l-1.1-1.8l-0.6-6.9l-1-11.7V639.7h297c-0.1,111.3-0.2,98.7-0.2,111.2l0,49.2l0,22.3
		c0,0.1,0.1,16.3,0.1,16.4c0,0.1,0.1,13.2,0.1,13.3c0.1,10.9,0.4,10.8,1.6,11.3c1.2,0.5,12.6,0.7,17.8,0.8c1.2,0,16.2,0.2,16.5,0.2
		l24.3,0.1l83.8,0.3c28.9,0.1,41.9,0.1,42.3,0.1l50.3,0.1l31.1,0c17.8,0,18.9-0.2,19.6-2.6c0.3-1.1,0.5-10.8,0.6-19.2
		c0-1.2,0.1-15.7,0.1-15.8l0-22.6c0-0.7-0.1-70-0.1-75.7l-0.1-67.2l0-21.8l358.7-0.3l-2.7,217.8l-0.4,2l-0.8,3l-0.6,1.8l-2.4,4.7
		l-1.2,1.7l-2,2.3l-2.4,2.3l-2.9,2.4l-3.8,2.3l-4.2,1.6L-138.2,882.8z"/>
</g>
<g id="g31_1_" transform="rotate(-90,74.702656,250.32664)">
	<path class="st0" d="M-138.2,1138.2l-3.7,0.5l-16.5,0.3l-867.6,0.3l-3.3-1l-2.1-0.7l-2.3-0.8l-1.7-0.7l-2-0.8l-2.3-1.4l-0.9-0.8
		l-2-1.8l-1.5-1.4l-2.6-2.6l-2.3-2.7l-2-2.9l-1.1-1.8l-0.6-6.9l-1-11.7V895.2h297c-0.1,111.3-0.2,98.7-0.2,111.2l0,49.2l0,22.3
		c0,0.1,0.1,16.3,0.1,16.4c0,0.1,0.1,13.2,0.1,13.3c0.1,10.9,0.4,10.8,1.6,11.3c1.2,0.5,12.6,0.7,17.8,0.8c1.2,0,16.2,0.2,16.5,0.2
		l24.3,0.1l83.8,0.3c28.9,0.1,41.9,0.1,42.3,0.1l50.3,0.1l31.1,0c17.8,0,18.9-0.2,19.6-2.6c0.3-1.1,0.5-10.8,0.6-19.2
		c0-1.2,0.1-15.7,0.1-15.8l0-22.6c0-0.7-0.1-70-0.1-75.7l-0.1-67.2l0-21.8l358.7-0.3l-2.7,217.8l-0.4,2l-0.8,3l-0.6,1.8l-2.4,4.7
		l-1.2,1.7l-2,2.3l-2.4,2.3l-2.9,2.4l-3.8,2.3l-4.2,1.6L-138.2,1138.2z"/>
</g>
<g id="g31_3_" transform="rotate(-90,74.702656,250.32664)">
	<path class="st0" d="M-138.2,1389l-3.7,0.5l-16.5,0.3l-867.6,0.3l-3.3-1l-2.1-0.7l-2.3-0.8l-1.7-0.7l-2-0.8l-2.3-1.4l-0.9-0.8
		l-2-1.8l-1.5-1.4l-2.6-2.6l-2.3-2.7l-2-2.9l-1.1-1.8l-0.6-6.9l-1-11.7V1146h297c-0.1,111.3-0.2,98.7-0.2,111.2l0,49.2l0,22.3
		c0,0.1,0.1,16.3,0.1,16.4c0,0.1,0.1,13.2,0.1,13.3c0.1,10.9,0.4,10.8,1.6,11.3c1.2,0.5,12.6,0.7,17.8,0.8c1.2,0,16.2,0.2,16.5,0.2
		l24.3,0.1l83.8,0.3c28.9,0.1,41.9,0.1,42.3,0.1l50.3,0.1l31.1,0c17.8,0,18.9-0.2,19.6-2.6c0.3-1.1,0.5-10.8,0.6-19.2
		c0-1.2,0.1-15.7,0.1-15.8l0-22.6c0-0.7-0.1-70-0.1-75.7l-0.1-67.2l0-21.8l358.7-0.3l-2.7,217.8l-0.4,2l-0.8,3l-0.6,1.8l-2.4,4.7
		l-1.2,1.7l-2,2.3l-2.4,2.3l-2.9,2.4l-3.8,2.3l-4.2,1.6L-138.2,1389z"/>
</g>
<g id="g31_2_" transform="rotate(-90,74.702656,250.32664)">
	<path class="st0" d="M-138.2,1644.5l-3.7,0.5l-16.5,0.3l-867.6,0.3l-3.3-1l-2.1-0.7l-2.3-0.8l-1.7-0.7l-2-0.8l-2.3-1.4l-0.9-0.8
		l-2-1.8l-1.5-1.4l-2.6-2.6l-2.3-2.7l-2-2.9l-1.1-1.8l-0.6-6.9l-1-11.7v-206.1h297c-0.1,111.3-0.2,98.7-0.2,111.2l0,49.2l0,22.3
		c0,0.1,0.1,16.3,0.1,16.4c0,0.1,0.1,13.2,0.1,13.3c0.1,10.9,0.4,10.8,1.6,11.3c1.2,0.5,12.6,0.7,17.8,0.8c1.2,0,16.2,0.2,16.5,0.2
		l24.3,0.1l83.8,0.3c28.9,0.1,41.9,0.1,42.3,0.1l50.3,0.1l31.1,0c17.8,0,18.9-0.2,19.6-2.6c0.3-1.1,0.5-10.8,0.6-19.2
		c0-1.2,0.1-15.7,0.1-15.8l0-22.6c0-0.7-0.1-70-0.1-75.7l-0.1-67.2l0-21.8l358.7-0.3l-2.7,217.8l-0.4,2l-0.8,3l-0.6,1.8l-2.4,4.7
		l-1.2,1.7l-2,2.3l-2.4,2.3l-2.9,2.4l-3.8,2.3l-4.2,1.6L-138.2,1644.5z"/>
</g>
<g id="g31_7_" transform="rotate(-90,74.702656,250.32664)">
	<path class="st0" d="M-138.2,1895.7l-3.7,0.5l-16.5,0.3l-867.6,0.3l-3.3-1l-2.1-0.7l-2.3-0.8l-1.7-0.7l-2-0.8l-2.3-1.4l-0.9-0.8
		l-2-1.8l-1.5-1.4l-2.6-2.6l-2.3-2.7l-2-2.9l-1.1-1.8l-0.6-6.9l-1-11.7v-206.1h297c-0.1,111.3-0.2,98.7-0.2,111.2l0,49.2l0,22.3
		c0,0.1,0.1,16.3,0.1,16.4c0,0.1,0.1,13.2,0.1,13.3c0.1,10.9,0.4,10.8,1.6,11.3c1.2,0.5,12.6,0.7,17.8,0.8c1.2,0,16.2,0.2,16.5,0.2
		l24.3,0.1l83.8,0.3c28.9,0.1,41.9,0.1,42.3,0.1l50.3,0.1l31.1,0c17.8,0,18.9-0.2,19.6-2.6c0.3-1.1,0.5-10.8,0.6-19.2
		c0-1.2,0.1-15.7,0.1-15.8l0-22.6c0-0.7-0.1-70-0.1-75.7l-0.1-67.2l0-21.8l358.7-0.3l-2.7,217.8l-0.4,2l-0.8,3l-0.6,1.8l-2.4,4.7
		l-1.2,1.7l-2,2.3l-2.4,2.3l-2.9,2.4l-3.8,2.3l-4.2,1.6L-138.2,1895.7z"/>
</g>
<g id="g31_6_" transform="rotate(-90,74.702656,250.32664)">
	<path class="st0" d="M-138.2,2151.2l-3.7,0.5l-16.5,0.3l-867.6,0.3l-3.3-1l-2.1-0.7l-2.3-0.8l-1.7-0.7l-2-0.8l-2.3-1.4l-0.9-0.8
		l-2-1.8l-1.5-1.4l-2.6-2.6l-2.3-2.7l-2-2.9l-1.1-1.8l-0.6-6.9l-1-11.7v-206.1h297c-0.1,111.3-0.2,98.7-0.2,111.2l0,49.2l0,22.3
		c0,0.1,0.1,16.3,0.1,16.4c0,0.1,0.1,13.2,0.1,13.3c0.1,10.9,0.4,10.8,1.6,11.3c1.2,0.5,12.6,0.7,17.8,0.8c1.2,0,16.2,0.2,16.5,0.2
		l24.3,0.1l83.8,0.3c28.9,0.1,41.9,0.1,42.3,0.1l50.3,0.1l31.1,0c17.8,0,18.9-0.2,19.6-2.6c0.3-1.1,0.5-10.8,0.6-19.2
		c0-1.2,0.1-15.7,0.1-15.8l0-22.6c0-0.7-0.1-70-0.1-75.7l-0.1-67.2l0-21.8l358.7-0.3l-2.7,217.8l-0.4,2l-0.8,3l-0.6,1.8l-2.4,4.7
		l-1.2,1.7l-2,2.3l-2.4,2.3l-2.9,2.4l-3.8,2.3l-4.2,1.6L-138.2,2151.2z"/>
</g>
<g id="g31_5_" transform="rotate(-90,74.702656,250.32664)">
	<path class="st0" d="M-138.2,2402l-3.7,0.5l-16.5,0.3l-867.6,0.3l-3.3-1l-2.1-0.7l-2.3-0.8l-1.7-0.7l-2-0.8l-2.3-1.4l-0.9-0.8
		l-2-1.8l-1.5-1.4l-2.6-2.6l-2.3-2.7l-2-2.9l-1.1-1.8l-0.6-6.9l-1-11.7v-206.1h297c-0.1,111.3-0.2,98.7-0.2,111.2l0,49.2l0,22.3
		c0,0.1,0.1,16.3,0.1,16.4c0,0.1,0.1,13.2,0.1,13.3c0.1,10.9,0.4,10.8,1.6,11.3c1.2,0.5,12.6,0.7,17.8,0.8c1.2,0,16.2,0.2,16.5,0.2
		l24.3,0.1l83.8,0.3c28.9,0.1,41.9,0.1,42.3,0.1l50.3,0.1l31.1,0c17.8,0,18.9-0.2,19.6-2.6c0.3-1.1,0.5-10.8,0.6-19.2
		c0-1.2,0.1-15.7,0.1-15.8l0-22.6c0-0.7-0.1-70-0.1-75.7l-0.1-67.2l0-21.8l358.7-0.3l-2.7,217.8l-0.4,2l-0.8,3l-0.6,1.8l-2.4,4.7
		l-1.2,1.7l-2,2.3l-2.4,2.3l-2.9,2.4l-3.8,2.3l-4.2,1.6L-138.2,2402z"/>
</g>
<g id="g31_4_" transform="rotate(-90,74.702656,250.32664)">
	<path class="st0" d="M-138.2,2657.4l-3.7,0.5l-16.5,0.3l-867.6,0.3l-3.3-1l-2.1-0.7l-2.3-0.8l-1.7-0.7l-2-0.8l-2.3-1.4l-0.9-0.8
		l-2-1.8l-1.5-1.4l-2.6-2.6l-2.3-2.7l-2-2.9l-1.1-1.8l-0.6-6.9l-1-11.7v-206.1h297c-0.1,111.3-0.2,98.7-0.2,111.2l0,49.2l0,22.3
		c0,0.1,0.1,16.3,0.1,16.4c0,0.1,0.1,13.2,0.1,13.3c0.1,10.9,0.4,10.8,1.6,11.3c1.2,0.5,12.6,0.7,17.8,0.8c1.2,0,16.2,0.2,16.5,0.2
		l24.3,0.1l83.8,0.3c28.9,0.1,41.9,0.1,42.3,0.1l50.3,0.1l31.1,0c17.8,0,18.9-0.2,19.6-2.6c0.3-1.1,0.5-10.8,0.6-19.2
		c0-1.2,0.1-15.7,0.1-15.8l0-22.6c0-0.7-0.1-70-0.1-75.7l-0.1-67.2l0-21.8l358.7-0.3l-2.7,217.8l-0.4,2l-0.8,3l-0.6,1.8l-2.4,4.7
		l-1.2,1.7l-2,2.3l-2.4,2.3l-2.9,2.4l-3.8,2.3l-4.2,1.6L-138.2,2657.4z"/>
</g>
<g id="g31_15_" transform="rotate(-90,74.702656,250.32664)">
	<path class="st0" d="M-138.2,2918.7l-3.7,0.5l-16.5,0.3l-867.6,0.3l-3.3-1l-2.1-0.7l-2.3-0.8l-1.7-0.7l-2-0.8l-2.3-1.4l-0.9-0.8
		l-2-1.8l-1.5-1.4l-2.6-2.6l-2.3-2.7l-2-2.9l-1.1-1.8l-0.6-6.9l-1-11.7v-206.1h297c-0.1,111.3-0.2,98.7-0.2,111.2l0,49.2l0,22.3
		c0,0.1,0.1,16.3,0.1,16.4c0,0.1,0.1,13.2,0.1,13.3c0.1,10.9,0.4,10.8,1.6,11.3c1.2,0.5,12.6,0.7,17.8,0.8c1.2,0,16.2,0.2,16.5,0.2
		l24.3,0.1l83.8,0.3c28.9,0.1,41.9,0.1,42.3,0.1l50.3,0.1l31.1,0c17.8,0,18.9-0.2,19.6-2.6c0.3-1.1,0.5-10.8,0.6-19.2
		c0-1.2,0.1-15.7,0.1-15.8l0-22.6c0-0.7-0.1-70-0.1-75.7l-0.1-67.2l0-21.8l358.7-0.3l-2.7,217.8l-0.4,2l-0.8,3l-0.6,1.8l-2.4,4.7
		l-1.2,1.7l-2,2.3l-2.4,2.3l-2.9,2.4l-3.8,2.3l-4.2,1.6L-138.2,2918.7z"/>
</g>
<g id="g31_14_" transform="rotate(-90,74.702656,250.32664)">
	<path class="st0" d="M-138.2,3174.1l-3.7,0.5l-16.5,0.3l-867.6,0.3l-3.3-1l-2.1-0.7l-2.3-0.8l-1.7-0.7l-2-0.8l-2.3-1.4l-0.9-0.8
		l-2-1.8l-1.5-1.4l-2.6-2.6l-2.3-2.7l-2-2.9l-1.1-1.8l-0.6-6.9l-1-11.7v-206.1h297c-0.1,111.3-0.2,98.7-0.2,111.2l0,49.2l0,22.3
		c0,0.1,0.1,16.3,0.1,16.4c0,0.1,0.1,13.2,0.1,13.3c0.1,10.9,0.4,10.8,1.6,11.3c1.2,0.5,12.6,0.7,17.8,0.8c1.2,0,16.2,0.2,16.5,0.2
		l24.3,0.1l83.8,0.3c28.9,0.1,41.9,0.1,42.3,0.1l50.3,0.1l31.1,0c17.8,0,18.9-0.2,19.6-2.6c0.3-1.1,0.5-10.8,0.6-19.2
		c0-1.2,0.1-15.7,0.1-15.8l0-22.6c0-0.7-0.1-70-0.1-75.7l-0.1-67.2l0-21.8l358.7-0.3l-2.7,217.8l-0.4,2l-0.8,3l-0.6,1.8l-2.4,4.7
		l-1.2,1.7l-2,2.3l-2.4,2.3l-2.9,2.4l-3.8,2.3l-4.2,1.6L-138.2,3174.1z"/>
</g>
<g id="g31_13_" transform="rotate(-90,74.702656,250.32664)">
	<path class="st0" d="M-138.2,3424.9l-3.7,0.5l-16.5,0.3l-867.6,0.3l-3.3-1l-2.1-0.7l-2.3-0.8l-1.7-0.7l-2-0.8l-2.3-1.4l-0.9-0.8
		l-2-1.8l-1.5-1.4l-2.6-2.6l-2.3-2.7l-2-2.9l-1.1-1.8l-0.6-6.9l-1-11.7v-206.1h297c-0.1,111.3-0.2,98.7-0.2,111.2l0,49.2l0,22.3
		c0,0.1,0.1,16.3,0.1,16.4c0,0.1,0.1,13.2,0.1,13.3c0.1,10.9,0.4,10.8,1.6,11.3c1.2,0.5,12.6,0.7,17.8,0.8c1.2,0,16.2,0.2,16.5,0.2
		l24.3,0.1l83.8,0.3c28.9,0.1,41.9,0.1,42.3,0.1l50.3,0.1l31.1,0c17.8,0,18.9-0.2,19.6-2.6c0.3-1.1,0.5-10.8,0.6-19.2
		c0-1.2,0.1-15.7,0.1-15.8l0-22.6c0-0.7-0.1-70-0.1-75.7l-0.1-67.2l0-21.8l358.7-0.3l-2.7,217.8l-0.4,2l-0.8,3l-0.6,1.8l-2.4,4.7
		l-1.2,1.7l-2,2.3l-2.4,2.3l-2.9,2.4l-3.8,2.3l-4.2,1.6L-138.2,3424.9z"/>
</g>
<g id="g31_12_" transform="rotate(-90,74.702656,250.32664)">
	<path class="st0" d="M-138.2,3680.4l-3.7,0.5l-16.5,0.3l-867.6,0.3l-3.3-1l-2.1-0.7l-2.3-0.8l-1.7-0.7l-2-0.8l-2.3-1.4l-0.9-0.8
		l-2-1.8l-1.5-1.4l-2.6-2.6l-2.3-2.7l-2-2.9l-1.1-1.8l-0.6-6.9l-1-11.7v-206.1h297c-0.1,111.3-0.2,98.7-0.2,111.2l0,49.2l0,22.3
		c0,0.1,0.1,16.3,0.1,16.4c0,0.1,0.1,13.2,0.1,13.3c0.1,10.9,0.4,10.8,1.6,11.3c1.2,0.5,12.6,0.7,17.8,0.8c1.2,0,16.2,0.2,16.5,0.2
		l24.3,0.1l83.8,0.3c28.9,0.1,41.9,0.1,42.3,0.1l50.3,0.1l31.1,0c17.8,0,18.9-0.2,19.6-2.6c0.3-1.1,0.5-10.8,0.6-19.2
		c0-1.2,0.1-15.7,0.1-15.8l0-22.6c0-0.7-0.1-70-0.1-75.7l-0.1-67.2l0-21.8l358.7-0.3l-2.7,217.8l-0.4,2l-0.8,3l-0.6,1.8l-2.4,4.7
		l-1.2,1.7l-2,2.3l-2.4,2.3l-2.9,2.4l-3.8,2.3l-4.2,1.6L-138.2,3680.4z"/>
</g>
<g id="g31_11_" transform="rotate(-90,74.702656,250.32664)">
	<path class="st0" d="M-138.2,3931.6l-3.7,0.5l-16.5,0.3l-867.6,0.3l-3.3-1l-2.1-0.7l-2.3-0.8l-1.7-0.7l-2-0.8l-2.3-1.4l-0.9-0.8
		l-2-1.8l-1.5-1.4l-2.6-2.6l-2.3-2.7l-2-2.9l-1.1-1.8l-0.6-6.9l-1-11.7v-206.1h297c-0.1,111.3-0.2,98.7-0.2,111.2l0,49.2l0,22.3
		c0,0.1,0.1,16.3,0.1,16.4c0,0.1,0.1,13.2,0.1,13.3c0.1,10.9,0.4,10.8,1.6,11.3c1.2,0.5,12.6,0.7,17.8,0.8c1.2,0,16.2,0.2,16.5,0.2
		l24.3,0.1l83.8,0.3c28.9,0.1,41.9,0.1,42.3,0.1l50.3,0.1l31.1,0c17.8,0,18.9-0.2,19.6-2.6c0.3-1.1,0.5-10.8,0.6-19.2
		c0-1.2,0.1-15.7,0.1-15.8l0-22.6c0-0.7-0.1-70-0.1-75.7l-0.1-67.2l0-21.8l358.7-0.3l-2.7,217.8l-0.4,2l-0.8,3l-0.6,1.8l-2.4,4.7
		l-1.2,1.7l-2,2.3l-2.4,2.3l-2.9,2.4l-3.8,2.3l-4.2,1.6L-138.2,3931.6z"/>
</g>
<g id="g31_10_" transform="rotate(-90,74.702656,250.32664)">
	<path class="st0" d="M-138.2,4187.1l-3.7,0.5l-16.5,0.3l-867.6,0.3l-3.3-1l-2.1-0.7l-2.3-0.8l-1.7-0.7l-2-0.8l-2.3-1.4l-0.9-0.8
		l-2-1.8l-1.5-1.4l-2.6-2.6l-2.3-2.7l-2-2.9l-1.1-1.8l-0.6-6.9l-1-11.7V3944h297c-0.1,111.3-0.2,98.7-0.2,111.2l0,49.2l0,22.3
		c0,0.1,0.1,16.3,0.1,16.4c0,0.1,0.1,13.2,0.1,13.3c0.1,10.9,0.4,10.8,1.6,11.3c1.2,0.5,12.6,0.7,17.8,0.8c1.2,0,16.2,0.2,16.5,0.2
		l24.3,0.1l83.8,0.3c28.9,0.1,41.9,0.1,42.3,0.1l50.3,0.1l31.1,0c17.8,0,18.9-0.2,19.6-2.6c0.3-1.1,0.5-10.8,0.6-19.2
		c0-1.2,0.1-15.7,0.1-15.8l0-22.6c0-0.7-0.1-70-0.1-75.7l-0.1-67.2l0-21.8l358.7-0.3l-2.7,217.8l-0.4,2l-0.8,3l-0.6,1.8l-2.4,4.7
		l-1.2,1.7l-2,2.3l-2.4,2.3l-2.9,2.4l-3.8,2.3l-4.2,1.6L-138.2,4187.1z"/>
</g>
<g id="g31_9_" transform="rotate(-90,74.702656,250.32664)">
	<path class="st0" d="M-138.2,4437.9l-3.7,0.5l-16.5,0.3l-867.6,0.3l-3.3-1l-2.1-0.7l-2.3-0.8l-1.7-0.7l-2-0.8l-2.3-1.4l-0.9-0.8
		l-2-1.8l-1.5-1.4l-2.6-2.6l-2.3-2.7l-2-2.9l-1.1-1.8l-0.6-6.9l-1-11.7v-206.1h297c-0.1,111.3-0.2,98.7-0.2,111.2l0,49.2l0,22.3
		c0,0.1,0.1,16.3,0.1,16.4c0,0.1,0.1,13.2,0.1,13.3c0.1,10.9,0.4,10.8,1.6,11.3c1.2,0.5,12.6,0.7,17.8,0.8c1.2,0,16.2,0.2,16.5,0.2
		l24.3,0.1l83.8,0.3c28.9,0.1,41.9,0.1,42.3,0.1l50.3,0.1l31.1,0c17.8,0,18.9-0.2,19.6-2.6c0.3-1.1,0.5-10.8,0.6-19.2
		c0-1.2,0.1-15.7,0.1-15.8l0-22.6c0-0.7-0.1-70-0.1-75.7l-0.1-67.2l0-21.8l358.7-0.3l-2.7,217.8l-0.4,2l-0.8,3l-0.6,1.8l-2.4,4.7
		l-1.2,1.7l-2,2.3l-2.4,2.3l-2.9,2.4l-3.8,2.3l-4.2,1.6L-138.2,4437.9z"/>
</g>
<g id="g31_8_" transform="rotate(-90,74.702656,250.32664)">
	<path class="st0" d="M-138.2,4693.3l-3.7,0.5l-16.5,0.3l-867.6,0.3l-3.3-1l-2.1-0.7l-2.3-0.8l-1.7-0.7l-2-0.8l-2.3-1.4l-0.9-0.8
		l-2-1.8l-1.5-1.4l-2.6-2.6l-2.3-2.7l-2-2.9l-1.1-1.8l-0.6-6.9l-1-11.7v-206.1h297c-0.1,111.3-0.2,98.7-0.2,111.2l0,49.2l0,22.3
		c0,0.1,0.1,16.3,0.1,16.4c0,0.1,0.1,13.2,0.1,13.3c0.1,10.9,0.4,10.8,1.6,11.3c1.2,0.5,12.6,0.7,17.8,0.8c1.2,0,16.2,0.2,16.5,0.2
		l24.3,0.1l83.8,0.3c28.9,0.1,41.9,0.1,42.3,0.1l50.3,0.1l31.1,0c17.8,0,18.9-0.2,19.6-2.6c0.3-1.1,0.5-10.8,0.6-19.2
		c0-1.2,0.1-15.7,0.1-15.8l0-22.6c0-0.7-0.1-70-0.1-75.7l-0.1-67.2l0-21.8l358.7-0.3l-2.7,217.8l-0.4,2l-0.8,3l-0.6,1.8l-2.4,4.7
		l-1.2,1.7l-2,2.3l-2.4,2.3l-2.9,2.4l-3.8,2.3l-4.2,1.6L-138.2,4693.3z"/>
</g>
</svg>
