<?xml version="1.0" encoding="utf-8"?>
<!-- Generator: Adobe Illustrator 25.2.1, SVG Export Plug-In . SVG Version: 6.00 Build 0)  -->
<svg version="1.1" id="Layer_1" xmlns="http://www.w3.org/2000/svg" xmlns:xlink="http://www.w3.org/1999/xlink" x="0px" y="0px"
	 viewBox="0 0 4280.3 1133.9" style="enable-background:new 0 0 4280.3 1133.9;" xml:space="preserve">
<style type="text/css">
	.st0{fill:none;stroke:#000000;stroke-miterlimit:10;}
</style>
<path class="st0" d="M66.2,162.6"/>
<path class="st0" d="M66.2,352.5"/>
<g>
	<path class="st0" d="M141.1,966.8l-22.7,0.4"/>
	<path class="st0" d="M299.7,102.7h51.2c1.6,0,2.8,1.3,2.8,2.8v858.9c0,1.6-1.3,2.8-2.8,2.8l-19.8-0.4"/>
	<path class="st0" d="M115.6,964.4"/>
	<path class="st0" d="M118.4,967.2c-1.6,0-2.8-1.3-2.8-2.8"/>
	<path class="st0" d="M169.4,967.2"/>
	<path class="st0" d="M99,152.7"/>
	<line class="st0" x1="115.4" y1="119.7" x2="299.7" y2="119.7"/>
	<line class="st0" x1="115.6" y1="964.4" x2="115.4" y2="119.7"/>
	<line class="st0" x1="299.7" y1="119.7" x2="299.7" y2="102.7"/>
	<polyline class="st0" points="141.1,966.8 141.1,893 179.1,853.4 293,853.4 331,892.7 331,966.8 	"/>
	<polygon class="st0" points="304.2,901 318.2,916.2 318.2,966.2 153.8,966.2 153.8,916.2 167.8,901 	"/>
</g>
</svg>
