<?xml version="1.0" encoding="utf-8"?>
<!-- Generator: Adobe Illustrator 25.2.1, SVG Export Plug-In . SVG Version: 6.00 Build 0)  -->
<svg version="1.1" id="Layer_1" xmlns="http://www.w3.org/2000/svg" xmlns:xlink="http://www.w3.org/1999/xlink" x="0px" y="0px"
	 viewBox="0 0 4280.3 1133.9" style="enable-background:new 0 0 4280.3 1133.9;" xml:space="preserve">
<style type="text/css">
	.st0{fill:none;stroke:#000000;stroke-miterlimit:10;}
</style>
<path class="st0" d="M66.2,162.6"/>
<g>
	<rect x="101.6" y="201.8" class="st0" width="238.1" height="153.1"/>
	<rect x="101.6" y="372.1" class="st0" width="238.1" height="442.2"/>
	<path class="st0" d="M141.3,340.7h-19.8c-1.6,0-2.8-1.3-2.8-2.8v-90.7c0-1.6,1.3-2.8,2.8-2.8h19.8c1.6,0,2.8,1.3,2.8,2.8v90.7
		C144.1,339.4,142.9,340.7,141.3,340.7z"/>
	<path class="st0" d="M300,340.7h19.8c1.6,0,2.8-1.3,2.8-2.8v-90.7c0-1.6-1.3-2.8-2.8-2.8H300c-1.6,0-2.8,1.3-2.8,2.8v90.7
		C297.2,339.4,298.5,340.7,300,340.7z"/>
	<path class="st0" d="M141.3,763.3h-19.8c-1.6,0-2.8-1.3-2.8-2.8v-90.7c0-1.6,1.3-2.8,2.8-2.8h19.8c1.6,0,2.8,1.3,2.8,2.8v90.7
		C144.1,762,142.9,763.3,141.3,763.3z"/>
	<path class="st0" d="M300,763.3h19.8c1.6,0,2.8-1.3,2.8-2.8v-90.7c0-1.6-1.3-2.8-2.8-2.8H300c-1.6,0-2.8,1.3-2.8,2.8v90.7
		C297.2,762,298.5,763.3,300,763.3z"/>
</g>
</svg>
