<?xml version="1.0" encoding="utf-8"?>
<!-- Generator: Adobe Illustrator 25.2.1, SVG Export Plug-In . SVG Version: 6.00 Build 0)  -->
<svg version="1.1" id="Layer_1" xmlns="http://www.w3.org/2000/svg" xmlns:xlink="http://www.w3.org/1999/xlink" x="0px" y="0px"
	 viewBox="0 0 4280.3 1133.9" style="enable-background:new 0 0 4280.3 1133.9;" xml:space="preserve">
<style type="text/css">
	.st0{fill:none;stroke:#000000;stroke-miterlimit:10;}
</style>
<g>
	<polyline class="st0" points="1093.5,74.4 1093.5,848.2 229,848.2 229,522.2 	"/>
	<path class="st0" d="M1093.5,522.2"/>
	<path class="st0" d="M1093.5,74.4"/>
	<polyline class="st0" points="248.8,522.2 248.8,74.4 1093.5,74.4 	"/>
	<line class="st0" x1="249" y1="522.2" x2="229" y2="522.2"/>
	<line class="st0" x1="311.8" y1="450.8" x2="313.8" y2="448.8"/>
	<line class="st0" x1="316" y1="474.7" x2="318" y2="472.7"/>
	<line class="st0" x1="345.4" y1="446.7" x2="347.4" y2="444.7"/>
	<line class="st0" x1="341.3" y1="467.4" x2="343.3" y2="465.4"/>
	<line class="st0" x1="365.5" y1="469.4" x2="367.5" y2="467.4"/>
	<line class="st0" x1="391.3" y1="449.8" x2="393.3" y2="447.8"/>
	<line class="st0" x1="409.4" y1="468.4" x2="411.4" y2="466.4"/>
	<line class="st0" x1="428" y1="445.7" x2="430" y2="443.7"/>
	<line class="st0" x1="438.3" y1="468.4" x2="440.3" y2="466.4"/>
</g>
</svg>
