<?xml version="1.0" encoding="utf-8"?>
<!-- Generator: Adobe Illustrator 25.2.1, SVG Export Plug-In . SVG Version: 6.00 Build 0)  -->
<svg version="1.1" id="Layer_1" xmlns="http://www.w3.org/2000/svg" xmlns:xlink="http://www.w3.org/1999/xlink" x="0px" y="0px"
	 viewBox="0 0 4280.3 1133.9" style="enable-background:new 0 0 4280.3 1133.9;" xml:space="preserve">
<style type="text/css">
	.st0{fill:none;stroke:#000000;stroke-miterlimit:10;}
</style>
<g>
	<polyline class="st0" points="187.9,289.1 187.9,136.1 426,136.1 425.9,555.6 	"/>
	<path class="st0" d="M187.9,289.1"/>
	<polyline class="st0" points="425.9,555.6 425.9,997.8 187.8,997.8 187.9,289.1 	"/>
	<path class="st0" d="M425.9,555.6"/>
	<path class="st0" d="M227.6,275h-19.8c-1.6,0-2.8-1.3-2.8-2.8v-90.7c0-1.6,1.3-2.8,2.8-2.8h19.8c1.6,0,2.8,1.3,2.8,2.8v90.7
		C230.4,273.7,229.2,275,227.6,275z"/>
	<path class="st0" d="M386.3,275h19.8c1.6,0,2.8-1.3,2.8-2.8v-90.7c0-1.6-1.3-2.8-2.8-2.8h-19.8c-1.6,0-2.8,1.3-2.8,2.8v90.7
		C383.5,273.7,384.8,275,386.3,275z"/>
	<path class="st0" d="M227.5,946.8h-19.8c-1.6,0-2.8-1.3-2.8-2.8v-90.7c0-1.6,1.3-2.8,2.8-2.8h19.8c1.6,0,2.8,1.3,2.8,2.8v90.7
		C230.3,945.5,229,946.8,227.5,946.8z"/>
	<path class="st0" d="M386.2,946.8h19.8c1.6,0,2.8-1.3,2.8-2.8v-90.7c0-1.6-1.3-2.8-2.8-2.8h-19.8c-1.6,0-2.8,1.3-2.8,2.8v90.7
		C383.4,945.5,384.7,946.8,386.2,946.8z"/>
</g>
</svg>
