<?xml version="1.0" encoding="utf-8"?>
<!-- Generator: Adobe Illustrator 25.2.1, SVG Export Plug-In . SVG Version: 6.00 Build 0)  -->
<svg version="1.1" id="Layer_1" xmlns="http://www.w3.org/2000/svg" xmlns:xlink="http://www.w3.org/1999/xlink" x="0px" y="0px"
	 viewBox="0 0 4280.3 1133.9" style="enable-background:new 0 0 4280.3 1133.9;" xml:space="preserve">
<style type="text/css">
	.st0{fill:none;stroke:#000000;stroke-miterlimit:10;}
</style>
<path class="st0" d="M593.1,286.4h-87.9c-1.6,0-2.8-1.3-2.8-2.8v-19.8c0-1.6,1.3-2.8,2.8-2.8h87.9c1.6,0,2.8,1.3,2.8,2.8v19.8
	C595.9,285.1,594.6,286.4,593.1,286.4z"/>
<path class="st0" d="M1321.6,1023.4H462.7c-1.6,0-2.8-1.3-2.8-2.8V212.7c0-1.6,1.3-2.8,2.8-2.8h858.9c1.6,0,2.8,1.3,2.8,2.8v807.9
	C1324.4,1022.1,1323.1,1023.4,1321.6,1023.4z"/>
<path class="st0" d="M593.1,946.8h-87.9c-1.6,0-2.8,1.3-2.8,2.8v19.8c0,1.6,1.3,2.8,2.8,2.8h87.9c1.6,0,2.8-1.3,2.8-2.8v-19.8
	C595.9,948.1,594.6,946.8,593.1,946.8z"/>
<path class="st0" d="M1267.7,946.8h-87.9c-1.6,0-2.8,1.3-2.8,2.8v19.8c0,1.6,1.3,2.8,2.8,2.8h87.9c1.6,0,2.8-1.3,2.8-2.8v-19.8
	C1270.5,948.1,1269.3,946.8,1267.7,946.8z"/>
<path class="st0" d="M1267.7,286.4h-87.9c-1.6,0-2.8-1.3-2.8-2.8v-19.8c0-1.6,1.3-2.8,2.8-2.8h87.9c1.6,0,2.8,1.3,2.8,2.8v19.8
	C1270.5,285.1,1269.3,286.4,1267.7,286.4z"/>
<line class="st0" x1="1142" y1="606.1" x2="1144" y2="604.1"/>
<line class="st0" x1="1136.2" y1="629.3" x2="1138.2" y2="627.3"/>
<line class="st0" x1="1177" y1="639.7" x2="1179" y2="637.7"/>
<line class="st0" x1="1178" y1="605.1" x2="1182.7" y2="605.1"/>
<line class="st0" x1="1204.7" y1="628.3" x2="1207.6" y2="628.3"/>
<line class="st0" x1="1218.7" y1="605.1" x2="1221.5" y2="605.1"/>
<line class="st0" x1="1234.9" y1="638.7" x2="1237.8" y2="638.7"/>
<line class="st0" x1="1254.7" y1="611.9" x2="1257.5" y2="611.9"/>
</svg>
