<?xml version="1.0" encoding="utf-8"?>
<!-- Generator: Adobe Illustrator 25.2.1, SVG Export Plug-In . SVG Version: 6.00 Build 0)  -->
<svg version="1.1" id="Layer_1" xmlns="http://www.w3.org/2000/svg" xmlns:xlink="http://www.w3.org/1999/xlink" x="0px" y="0px"
	 viewBox="0 0 4280.3 1133.9" style="enable-background:new 0 0 4280.3 1133.9;" xml:space="preserve">
<style type="text/css">
	.st0{fill:none;stroke:#000000;stroke-miterlimit:10;}
</style>
<g>
	<path class="st0" d="M430.2,936.2V159.5c0-1.6,1.3-2.8,2.8-2.8h205.5c1.6,0,2.8,1.3,2.8,2.8v776.7c0,1.6-1.3,2.8-2.8,2.8H433
		C431.5,939,430.2,937.7,430.2,936.2z"/>
	
		<rect x="579.7" y="219.7" transform="matrix(-1.836970e-16 1 -1 -1.836970e-16 849.7436 -391.9215)" class="st0" width="82.2" height="18.4"/>
	
		<rect x="579.7" y="857.5" transform="matrix(4.489748e-11 -1 1 4.489748e-11 -245.8738 1487.5389)" class="st0" width="82.2" height="18.4"/>
	
		<rect x="422.4" y="219.7" transform="matrix(-1.836970e-16 1 -1 -1.836970e-16 692.4208 -234.5986)" class="st0" width="82.2" height="18.4"/>
	
		<rect x="422.4" y="857.5" transform="matrix(4.489748e-11 -1 1 4.489748e-11 -403.1967 1330.2161)" class="st0" width="82.2" height="18.4"/>
	<path class="st0" d="M442.2,814.7V562.4c0-1.6,1.3-2.8,2.8-2.8h181.4c1.6,0,2.8,1.3,2.8,2.8v252.3c0,1.6-1.3,2.8-2.8,2.8H445.1
		C443.5,817.5,442.2,816.2,442.2,814.7z"/>
	<g>
		<path class="st0" d="M430.2,936.2c0,1.6-1.3,2.8-2.8,2.8"/>
		<path class="st0" d="M430.2,936.2"/>
		<path class="st0" d="M430.2,159.5"/>
		<path class="st0" d="M427.4,156.6c1.6,0,2.8,1.3,2.8,2.8"/>
		<path class="st0" d="M427.4,939h-34c-1.6,0-2.8-1.3-2.8-2.8V159.5c0-1.6,1.3-2.8,2.8-2.8h34"/>
		
			<rect x="369.3" y="538.6" transform="matrix(-1.836970e-16 1 -1 -1.836970e-16 958.1688 137.4486)" class="st0" width="82.2" height="18.4"/>
	</g>
</g>
</svg>
