<?xml version="1.0" encoding="utf-8"?>
<!-- Generator: Adobe Illustrator 25.2.1, SVG Export Plug-In . SVG Version: 6.00 Build 0)  -->
<svg version="1.1" id="Layer_1" xmlns="http://www.w3.org/2000/svg" xmlns:xlink="http://www.w3.org/1999/xlink" x="0px" y="0px"
	 viewBox="0 0 4280.3 1133.9" style="enable-background:new 0 0 4280.3 1133.9;" xml:space="preserve">
<style type="text/css">
	.st0{fill:none;stroke:#000000;stroke-miterlimit:10;}
</style>
<g>
	<path class="st0" d="M986.9,136.2v39.7c0,1.6-1.3,2.8-2.8,2.8H748.7c-1.6,0-2.8-1.3-2.8-2.8v-39.7c0-1.6,1.3-2.8,2.8-2.8H984
		C985.6,133.4,986.9,134.7,986.9,136.2z"/>
	<path class="st0" d="M788.4,588.2h-39.7c-1.6,0-2.8-1.3-2.8-2.8V201.2c0-1.6,1.3-2.8,2.8-2.8h39.7c1.6,0,2.8,1.3,2.8,2.8v384.1
		C791.3,586.9,790,588.2,788.4,588.2z"/>
	<path class="st0" d="M974.7,253.7H799c-1.6,0-2.8-1.3-2.8-2.8v-49.6c0-1.6,1.3-2.8,2.8-2.8h175.7c1.6,0,2.8,1.3,2.8,2.8v49.6
		C977.6,252.4,976.3,253.7,974.7,253.7z"/>
	<path class="st0" d="M1041.3,645.1h-309c-1.6,0-2.8-1.3-2.8-2.8v-36.9c0-1.6,1.3-2.8,2.8-2.8h309c1.6,0,2.8,1.3,2.8,2.8v36.9
		C1044.2,643.8,1042.9,645.1,1041.3,645.1z"/>
	<path class="st0" d="M845.6,248H813c-3.1,0-5.7-2.5-5.7-5.7v-32.6c0-3.1,2.5-5.7,5.7-5.7h32.6c3.1,0,5.7,2.5,5.7,5.7v32.6
		C851.3,245.5,848.8,248,845.6,248z"/>
</g>
</svg>
