<?xml version="1.0" encoding="utf-8"?>
<!-- Generator: Adobe Illustrator 25.2.1, SVG Export Plug-In . SVG Version: 6.00 Build 0)  -->
<svg version="1.1" id="Layer_1" xmlns="http://www.w3.org/2000/svg" xmlns:xlink="http://www.w3.org/1999/xlink" x="0px" y="0px"
	 viewBox="0 0 4280.3 1133.9" style="enable-background:new 0 0 4280.3 1133.9;" xml:space="preserve">
<style type="text/css">
	.st0{fill:none;stroke:#000000;stroke-miterlimit:10;}
</style>
<g>
	<path class="st0" d="M364.4,918.3c0,1.6-1.3,2.8-2.8,2.8H202.9c-1.6,0-2.8-1.3-2.8-2.8V141.7c0-1.6,1.3-2.8,2.8-2.8h158.7
		c1.6,0,2.8,1.3,2.8,2.8"/>
	<path class="st0" d="M472.2,921.2H367.3c-1.6,0-2.8-1.3-2.8-2.8V141.7c0-1.6,1.3-2.8,2.8-2.8h104.9c1.6,0,2.8,1.3,2.8,2.8v776.7
		C475,919.9,473.7,921.2,472.2,921.2z"/>
	<path class="st0" d="M397,909.8h-14.2c-3.9,0-7.1-3.2-7.1-7.1l0,0c0-3.9,3.2-7.1,7.1-7.1H397c3.9,0,7.1,3.2,7.1,7.1l0,0
		C404.1,906.7,400.9,909.8,397,909.8z"/>
</g>
</svg>
