<?xml version="1.0" encoding="utf-8"?>
<!DOCTYPE svg PUBLIC "-//W3C//DTD SVG 1.1//EN" "http://www.w3.org/Graphics/SVG/1.1/DTD/svg11.dtd">
<!-- exported from Silhouette Studio® Business Edition V4.3.370ssbe -->
<svg version="1.1" xmlns="http://www.w3.org/2000/svg" xmlns:xlink="http://www.w3.org/1999/xlink" width="304.8mm" height="600mm" viewBox="0 0 304.8 600">
<defs/>
<path d="M 133.9294 400.4303 L 133.3381 399.7855 L 133.3448 395.699 C 133.3506 392.0993 133.3138 391.5336 133.0369 390.9504 L 132.7223 390.2885 L 120.5151 390.2428 L 108.3079 390.1971 L 108.2034 390.5983 C 108.1459 390.819 108.0979 393.0229 108.0966 395.4961 L 108.0942 399.9928 L 107.662 400.4373 L 107.2298 400.8817 L 97.42188 400.8256 C 90.02724 400.7832 87.48389 400.7142 87.08511 400.5451 C 86.43587 400.2698 85.37611 398.8474 85.12381 397.9128 C 84.99091 397.4205 84.93681 362.3386 84.93616 276.2079 L 84.93518 155.1946 L 85.30009 154.8193 C 85.50075 154.6128 85.73524 154.1822 85.82118 153.8622 C 86.05298 152.9989 86.59898 152.3857 87.31943 152.1797 C 88.21674 151.9235 455.6156 151.9219 456.2711 152.1782 C 456.734 152.3592 457.5764 153.2054 458.4173 154.334 L 458.8494 154.9138 L 458.8922 275.9634 L 458.9351 397.0131 L 458.4935 398.006 C 458.2343 398.5884 457.6947 399.3441 457.1877 399.8339 C 456.2621 400.7283 455.7616 400.8843 454.0101 400.8248 C 453.5348 400.8087 449.3799 400.8154 444.7767 400.8396 L 436.4077 400.884 L 435.9669 400.4308 L 435.5264 399.9776 L 435.5105 395.2524 C 435.4972 391.3575 435.451 390.4988 435.2469 390.3642 C 434.9375 390.1604 410.4572 390.2293 410.2576 390.4344 C 410.1795 390.5148 410.1149 392.7325 410.1139 395.3625 C 410.1118 399.9307 410.0962 400.1606 409.7608 400.5056 L 409.4095 400.8668 L 274.6089 400.8408 C 135.7358 400.8141 135.8147 400.8139 135.0041 400.9775 C 134.6087 401.0573 134.413 400.9577 133.9294 400.4303 Z" fill="none" fill-opacity="1" stroke="#000000" stroke-opacity="1" stroke-width="0.3527778" stroke-linecap="round" stroke-linejoin="round"/>
<path d="M 449.2466 382.448 C 449.4172 382.2696 449.4504 379.0485 449.421 365.5508 C 449.4011 356.3787 449.3401 348.8278 449.2857 348.7711 C 449.1492 348.6288 442.0639 348.6512 441.7123 348.795 C 441.4446 348.9045 441.4287 349.8506 441.4307 365.3668 C 441.4319 374.4174 441.4758 381.9895 441.5283 382.1937 C 441.6518 382.6738 441.7174 382.6812 445.6781 382.6742 C 448.2142 382.6696 449.0873 382.6144 449.2466 382.448 Z" fill="none" fill-opacity="1" stroke="#000000" stroke-opacity="1" stroke-width="0.3527778" stroke-linecap="round" stroke-linejoin="round"/>
<path d="M 110.2744 200.5179 C 110.39 200.4383 110.5889 200.2946 110.7165 200.1985 C 110.844 200.1026 111.0962 199.9702 111.2771 199.9041 C 111.4579 199.838 111.6923 199.7513 111.7979 199.7113 C 111.9086 199.6694 112.057 199.5145 112.1483 199.3455 C 112.2453 199.1658 112.4289 198.9794 112.622 198.8643 C 112.8071 198.754 112.9953 198.5663 113.0775 198.4099 C 113.2021 198.1729 113.2941 198.1135 113.9069 197.8739 C 114.5049 197.6401 114.6083 197.5745 114.6879 197.3798 C 114.7969 197.1132 115.0133 196.9438 115.3728 196.8441 C 115.5805 196.7864 115.6584 196.7153 115.7434 196.5065 C 115.8968 196.1295 116.0268 196.0065 116.41 195.8757 C 116.6577 195.7913 116.785 195.6956 116.8877 195.5168 C 116.9648 195.3827 117.1548 195.1906 117.31 195.09 C 117.4652 194.9894 117.6598 194.8132 117.7424 194.6984 C 117.825 194.5836 117.976 194.447 118.078 194.3947 C 118.3028 194.2794 118.8834 193.8183 118.9213 193.725 C 119.0098 193.5068 119.4406 193.1506 119.7928 193.0048 C 120.0868 192.8829 120.2502 192.761 120.3772 192.5692 C 120.4742 192.4227 120.6931 192.2119 120.8637 192.1007 C 121.0344 191.9896 121.2381 191.8149 121.3165 191.7127 C 121.3949 191.6104 121.6779 191.4085 121.9453 191.2641 C 122.3219 191.061 122.4675 190.935 122.5902 190.7065 C 122.7722 190.3678 123.1658 190.1096 123.6046 190.0414 C 123.8122 190.0091 123.913 189.9534 123.9436 189.8545 C 124.0168 189.6176 124.3895 189.2325 124.6265 189.149 C 124.7498 189.1055 124.9138 188.9659 124.9909 188.8387 C 125.0813 188.6898 125.2954 188.5234 125.5938 188.3706 C 125.8483 188.2404 126.0951 188.0596 126.1424 187.969 C 126.1896 187.8784 126.3282 187.7456 126.4505 187.6739 C 126.7582 187.4935 127.0513 187.2063 127.1741 186.9648 C 127.2893 186.7383 127.8377 186.4399 128.2763 186.3652 C 128.4806 186.3304 128.5765 186.2661 128.6617 186.1066 C 128.8669 185.7224 129.0406 185.5328 129.2813 185.4294 C 129.4146 185.3723 129.5825 185.2164 129.664 185.0745 C 129.7629 184.9024 129.9464 184.7509 130.2383 184.5996 C 130.4743 184.4774 130.8174 184.2389 131.001 184.0695 C 131.1845 183.9002 131.4788 183.6636 131.6549 183.5438 C 131.831 183.424 132.0868 183.1788 132.2233 182.9989 C 132.3768 182.7965 132.6084 182.6046 132.8307 182.4953 C 133.0471 182.389 133.2357 182.2341 133.3048 182.1064 C 133.3874 181.9539 133.5351 181.8502 133.8304 181.7373 C 134.0914 181.6376 134.346 181.4705 134.5283 181.2794 C 134.6861 181.1138 134.9455 180.881 135.1046 180.7623 C 135.2638 180.6436 135.4527 180.4492 135.5244 180.3305 C 135.607 180.1938 135.8676 179.999 136.2349 179.7993 C 136.7934 179.4958 136.8228 179.467 137.0232 179.0272 L 137.2314 178.5703 L 137.0709 178.335 C 136.9827 178.2055 136.7738 177.974 136.6066 177.8207 C 136.302 177.5413 136.0876 177.188 136.003 176.8263 C 135.9737 176.7007 135.8582 176.5754 135.674 176.4691 C 135.4574 176.344 135.3469 176.2083 135.2068 175.8949 C 135.0986 175.6528 134.9564 175.453 134.8601 175.408 C 134.7518 175.3572 134.6018 175.1194 134.4138 174.7002 C 134.1989 174.2214 134.0398 173.982 133.7545 173.709 C 133.4837 173.45 133.3561 173.2637 133.2993 173.0444 C 133.2507 172.857 133.1606 172.7082 133.0651 172.6575 C 132.7759 172.5045 132.5818 172.2709 132.3837 171.8376 C 132.2632 171.574 131.9288 171.1078 131.5252 170.6404 C 130.9242 169.9446 130.6323 169.464 130.6323 169.1707 C 130.6323 168.9597 130.4139 168.7231 130.1088 168.6035 C 129.9 168.5215 129.7545 168.4024 129.6581 168.2347 C 129.4773 167.92 129.3651 167.9227 129.124 168.2473 C 128.9079 168.5383 128.3738 168.8139 127.8515 168.9038 L 127.5181 168.9612 L 127.3812 169.453 C 127.247 169.9348 127.2469 169.9501 127.3754 170.1951 C 127.4476 170.3327 127.5871 170.488 127.6855 170.5402 C 127.7839 170.5925 127.9246 170.7036 127.998 170.7869 C 128.1288 170.9354 128.1288 170.9473 128.0005 171.3827 C 127.9285 171.627 127.8021 171.91 127.7194 172.012 C 127.6367 172.1141 127.5288 172.3755 127.4795 172.5933 C 127.3241 173.2792 127.2565 173.3613 126.7061 173.5296 C 126.2581 173.6667 126.0934 173.7719 125.5623 174.2611 C 125.4905 174.3273 125.3325 174.4192 125.2113 174.4651 C 124.7185 174.6519 124.5354 174.7551 124.5354 174.846 C 124.5354 175.0125 124.1464 175.3323 123.8925 175.3746 C 123.5672 175.4288 122.6895 175.2843 122.3174 175.1152 C 122.0432 174.9907 121.9768 174.9872 121.5076 175.0753 C 121.2264 175.1282 120.7762 175.2471 120.5071 175.3398 C 120.0911 175.483 119.989 175.5529 119.8252 175.8051 C 119.6743 176.0376 119.5099 176.1614 119.0646 176.3787 L 118.4964 176.6558 L 118.5432 177.0537 C 118.5701 177.2825 118.6696 177.5893 118.7771 177.7755 C 118.9438 178.0641 118.9637 178.1697 118.9599 178.7471 C 118.9551 179.4686 118.887 179.6597 118.5622 179.8625 C 118.3029 180.0245 118.1852 179.9792 117.794 179.5673 C 117.649 179.4146 117.4174 179.2618 117.2684 179.2205 C 116.9237 179.1248 116.6938 178.956 116.6138 178.7399 C 116.5323 178.5198 116.403 178.5209 116.1995 178.7434 C 116.1108 178.8403 115.9403 178.9417 115.8205 178.9688 C 115.7007 178.9958 115.4486 179.1244 115.2601 179.2547 C 114.9844 179.4455 114.8852 179.5735 114.7513 179.9112 C 114.6598 180.142 114.5847 180.3637 114.5846 180.4042 C 114.5844 180.4447 114.6953 180.5392 114.8311 180.6143 C 115.3128 180.8808 115.449 181.3495 115.2798 182.1594 C 115.1819 182.6284 115.0245 182.8236 114.5532 183.0605 C 114.3408 183.1671 114.1013 183.3493 114.0207 183.4655 C 113.8514 183.7097 113.4052 183.9922 113.0217 184.098 C 112.598 184.2148 112.1158 184.0323 111.7055 183.5995 C 111.2973 183.1691 111.1356 183.1008 110.5327 183.1041 C 109.9803 183.1071 109.8305 183.1797 109.5474 183.5814 C 109.4312 183.7462 109.2712 183.9022 109.192 183.928 C 108.9851 183.9954 108.9045 184.1941 108.8593 184.7479 C 108.8131 185.3146 108.8735 185.4733 109.2687 185.8241 C 109.5663 186.0882 109.592 186.221 109.4645 186.8319 C 109.4207 187.0413 109.3202 187.2544 109.2191 187.3519 C 109.0565 187.5087 109.0257 187.5132 108.6182 187.4354 C 108.382 187.3903 108.1352 187.3036 108.0698 187.2427 C 108.0044 187.1819 107.9217 187.1314 107.8862 187.1305 C 107.6966 187.1258 107.4851 186.8395 107.4043 186.4782 L 107.3171 186.0884 L 107.0509 186.1057 C 106.8367 186.1194 106.6926 186.2066 106.3146 186.5516 C 106.0561 186.7875 105.7297 187.0369 105.5892 187.1056 C 105.4488 187.1743 105.3338 187.2546 105.3338 187.2838 C 105.3338 187.4425 104.9386 187.7836 104.6346 187.8873 C 104.3572 187.9819 104.2654 188.0566 104.1637 188.2702 C 104.0762 188.4542 103.9332 188.5908 103.6978 188.7155 C 103.4958 188.8226 103.3147 188.9828 103.251 189.1113 C 103.0886 189.4388 102.953 189.5718 102.6327 189.7173 C 102.4719 189.7903 102.2564 189.9629 102.1538 190.101 C 102.0513 190.2392 101.7787 190.4717 101.5482 190.6179 C 101.1025 190.9005 101.1036 190.8979 101.1758 191.5148 C 101.2194 191.8885 101.2448 191.927 101.8584 192.5448 L 102.4957 193.1864 L 102.9161 193.1308 C 103.1474 193.1002 103.4553 193.0812 103.6004 193.0889 C 103.9794 193.1089 104.5602 193.386 104.6941 193.6107 C 104.8684 193.9033 105.1906 194.3 105.5923 194.7169 C 105.8651 194.9998 105.9775 195.182 106.0422 195.446 C 106.1019 195.6894 106.2168 195.8896 106.4145 196.0948 C 106.5718 196.2581 106.8063 196.5884 106.9358 196.8287 C 107.1177 197.1663 107.2343 197.2949 107.449 197.3942 C 107.8194 197.5657 107.9268 197.7435 107.9268 198.1849 C 107.9268 198.5806 107.9927 198.6814 108.3855 198.8854 C 108.5237 198.9572 108.6684 199.1371 108.7956 199.3954 C 108.9387 199.6859 109.0616 199.8296 109.2471 199.923 C 109.3873 199.9937 109.5911 200.189 109.7001 200.3572 C 109.9249 200.7043 109.9809 200.7201 110.2744 200.5179 Z" fill="none" fill-opacity="1" stroke="#000000" stroke-opacity="1" stroke-width="0.3527778" stroke-linecap="round" stroke-linejoin="round"/>
</svg>