<?xml version="1.0" encoding="utf-8"?>
<!-- Generator: Adobe Illustrator 26.0.3, SVG Export Plug-In . SVG Version: 6.00 Build 0)  -->
<svg version="1.1" id="Layer_1" xmlns="http://www.w3.org/2000/svg" xmlns:xlink="http://www.w3.org/1999/xlink" x="0px" y="0px"
	 viewBox="0 0 4280.3 1133.9" style="enable-background:new 0 0 4280.3 1133.9;" xml:space="preserve">
<style type="text/css">
	.st0{fill:none;stroke:#000000;stroke-miterlimit:10;}
	.st1{fill:none;stroke:#010101;stroke-linecap:round;stroke-linejoin:round;stroke-miterlimit:11.3386;}
</style>
<g>
	<path class="st0" d="M814.3,1054.3V50.8c0-6.3,5.1-11.3,11.3-11.3h686c6.3,0,11.3,5.1,11.3,11.3v1003.5c0,6.3-5.1,11.3-11.3,11.3
		h-686C819.4,1065.6,814.3,1060.5,814.3,1054.3z"/>
	<g id="layer1">
		<path id="path1024" class="st1" d="M879,932.5c-0.2-0.4-1-0.1-1.2-0.1c-0.9,0-1.5-0.4-1.6-0.5c-0.6-0.3-0.6,0-1.8-1.2
			c-1.3-1.3-1.1-1.8-1.3-1.9c-0.1,0-0.6,0.3-1,0.6c-0.1,0.1-2.3,1.8-2.5,2c-2.1,1.6-1.7,1.3-2.1,1.3l-3.8-5.1
			c-1.1-1.4-1.1-1.5-1.1-1.6c0-0.2,0.5-0.5,3.8-3.1c0,0,3.3-2.6,4.7-3.7c0.1-0.1,2.2-1.7,3-2.4c0.7-0.5,1-0.8,3.2-2.5
			c1.2-1,1.6-1.3,1.6-1.3c0.1-0.1,0.8-0.6,4.3-3.4l0.5-0.4l4.8-3.8c0.6-0.5,1.3-1,2-1.6c2.4-1.9,2.8-2.2,2.9-2.3
			c0.6-0.4,0.5-0.3,0.7-0.3c8.1,10.6,5.6,7.3,11.5,15c1.3,1.6,1,1.3,1.2,1.6l4.5,5.9c3.6,4.7,3.6,4.7,3.7,4.8l4.4,5.7l4.8,6.3
			l4.5,5.9l3.5,4.5c0.6,0.7,7.3,9.5,7.5,9.8c0.4,0.6,1.4,1.8,3.5,4.5c2.1,2.7,1.8,2.4,2.1,2.7l5.1,6.6l2.9,3.8
			c0.8,1.1-0.1-0.2,1.9,2.5c0.4,0.6,1.3,1.7,2.9,3.8c2.4,3.2,2.3,3,2.3,3.1c1,1.4,0.8,1.2,0.9,1.3c-0.3,0.4-0.9,0.8-4.5,3.4
			c-0.2,0.2-2.8,2-2.9,2.1c-0.9,0.6,0.2-0.1-3.1,2.3c0,0-3,2.2-3.2,2.4l-4.5,3.3c-0.3,0.2-2.1,1.6-2.2,1.6c0,0-2.4,1.8-3,2.2
			c-2.7,2-2.3,1.7-2.7,2.1c1.3,2.2,2.7,3.4,2.7,3.9c0,0.3-0.2,0.3-1.9,1.5c-0.3,0.2-3.8,2.8-4,2.9c-0.7,0.5-0.8,0.6-1,0.6
			c-0.2,0-0.4-0.3-2.1-2.6l-3.1-4.1c-0.4-0.6-3-4-5.5-7.3l-3.9-5.2c-1.2-1.6-1-1.5-1-1.5c0.8-0.8,4.9-3.6,5.5-4.3
			c-0.7-1.1-0.4,0.3-1.9-2.5c-1.2-2.2-0.3-1.3-0.6-2.7c-0.1,0-0.8,0.5-0.8,0.5s-0.6,1.1-1.1,1.6c-0.9,1-1.9,1.3-2,1.3
			c-0.1,0-2.1,0.9-4.4-0.5c-2.3-1.4-2.7-4.3-2.3-5.5c0.6-2.2,2.4-3.7,4.4-3.9c-0.2-0.3-0.1-0.4-3.3-4.6c-2.1-2.7-1.9-1.6-2.6-2.9
			c-1.4-2.6-1.1-1.9-1.1-3.4c-0.1,0.1-0.1,0-0.6,0.4l-3.5,2.7c-2.1,1.6-2,1.6-2.3,1.6c-0.3-0.1-0.6-0.7-1.8-2.2l-3.1-4.1
			c-0.2-0.2-0.3-0.4-0.3-0.5c0-0.3,2.9-2.2,5.5-4.4c-0.5-0.7-2.9-3.9-3.4-4.5c-6,4.5-5.1,4.2-5.8,4.1c-2.4-3.4-5.8-7.4-6.7-9.9
			c-0.3-0.7-1.3-3.2,0-5.9c1.1-2.4,3-3.6,3.5-4.1c-1.8-0.2-0.5,0.3-3.3-1.1c-1.7-0.8,0.1,0.1-1.8-1.5c0,0-0.7-0.4-1.2-1.4
			c-1.8-3-1.2-2.3-1.6-4C878.5,933.5,879,932.6,879,932.5L879,932.5z"/>
	</g>
	<g>
		<path class="st1" d="M1475.8,83.5H1380c-7.1,0-12.9-5.3-12.9-12l0,0c0-5.7,4.9-10.3,11.1-10.3H1487v22.3"/>
		<polyline class="st1" points="1486.9,83.5 1486.9,91.8 1475.8,91.8 1475.8,83.5 		"/>
		<path class="st1" d="M1486.9,83.5"/>
		<path class="st1" d="M1475.8,83.5"/>
	</g>
</g>
</svg>
