<?xml version="1.0" encoding="utf-8"?>
<!-- Generator: Adobe Illustrator 25.2.1, SVG Export Plug-In . SVG Version: 6.00 Build 0)  -->
<svg version="1.1" id="Layer_1" xmlns="http://www.w3.org/2000/svg" xmlns:xlink="http://www.w3.org/1999/xlink" x="0px" y="0px"
	 viewBox="0 0 4280.3 1133.9" style="enable-background:new 0 0 4280.3 1133.9;" xml:space="preserve">
<style type="text/css">
	.st0{fill:none;stroke:#000000;stroke-miterlimit:11.3386;}
	.st1{fill:none;stroke:#000000;stroke-linecap:round;stroke-linejoin:round;stroke-miterlimit:11.3386;}
</style>
<g>
	<path id="rect815_1_" class="st0" d="M766.7,174.2l0.7,785.5 M767.4,1024l-0.1,59.5c0,3.1-2.5,5.7-5.7,5.7H89.9
		c-3.2,0-5.7-2.5-5.7-5.7V50.3c0-3.1,2.5-5.7,5.7-5.7h671.6c3.2,0,5.7,2.5,5.7,5.7l-0.5,59.5"/>
	<path id="rect817" class="st0" d="M766.7,174.2h-27.3c-3.2,0-5.7-2.5-5.7-5.7v-53c0-3.1,2.5-5.7,5.7-5.7h27.3"/>
	<path id="rect817-8" class="st0" d="M767.4,1024H740c-3.2,0-5.7-2.5-5.7-5.7v-53c0-3.1,2.5-5.7,5.7-5.7h27.3"/>
	<g id="layer1-6" transform="translate(470.43109,-345.77043)">
		<path id="path1024_1_" class="st1" d="M-274,1363.9c0.1,0.3,0.8,0.1,1,0.1c0.8,0,1.2,0.3,1.3,0.4c0.5,0.2,0.5,0,1.5,1
			c1.1,1.1,0.9,1.5,1.1,1.5c0.1,0,0.5-0.2,0.8-0.5c0.1-0.1,1.9-1.5,2.1-1.6c1.7-1.3,1.4-1.1,1.7-1.1l3.1,4.1
			c0.9,1.2,0.9,1.2,0.9,1.3c0,0.1-0.4,0.4-3.1,2.5c0,0-2.7,2.1-3.8,3c-0.1,0.1-1.8,1.4-2.4,1.9c-0.6,0.4-0.8,0.6-2.6,2.1
			c-1,0.8-1.3,1-1.3,1.1c-0.1,0-0.6,0.5-3.5,2.8l-0.4,0.3l-3.9,3.1c-0.5,0.4-1.1,0.8-1.6,1.3c-1.9,1.5-2.3,1.8-2.4,1.9
			c-0.5,0.4-0.4,0.2-0.6,0.3c-6.7-8.6-4.6-5.9-9.4-12.2c-1-1.3-0.8-1-1-1.3l-3.7-4.8c-3-3.8-3-3.8-3-3.9l-3.6-4.6l-3.9-5.1l-3.7-4.8
			l-2.9-3.7c-0.5-0.6-6-7.8-6.2-8c-0.4-0.5-1.1-1.4-2.8-3.7c-1.7-2.2-1.5-1.9-1.7-2.2l-4.2-5.4l-2.4-3.1c-0.7-0.9,0.1,0.1-1.5-2
			c-0.4-0.5-1.1-1.4-2.4-3.1c-2-2.6-1.9-2.5-1.9-2.5c-0.8-1.1-0.7-1-0.7-1.1c0.2-0.3,0.7-0.6,3.6-2.8c0.2-0.1,2.3-1.7,2.3-1.7
			c0.7-0.5-0.2,0.1,2.5-1.9c0,0,2.4-1.8,2.6-1.9l3.7-2.7c0.2-0.2,1.7-1.3,1.8-1.3c0,0,2-1.4,2.4-1.8c2.2-1.6,1.9-1.4,2.2-1.7
			c-1.1-1.8-2.2-2.8-2.2-3.2c0-0.2,0.2-0.2,1.6-1.3c0.2-0.2,3.1-2.3,3.2-2.4c0.6-0.4,0.7-0.5,0.8-0.5c0.2,0,0.3,0.2,1.7,2.1l2.5,3.3
			c0.3,0.5,2.4,3.2,4.5,5.9l3.2,4.2c1,1.3,0.8,1.2,0.9,1.2c-0.7,0.7-4,2.9-4.5,3.5c0.6,0.9,0.3-0.2,1.6,2c1,1.8,0.3,1.1,0.5,2.2
			c0.1,0,0.6-0.4,0.6-0.4c0,0,0.5-0.9,0.9-1.3c0.7-0.8,1.6-1,1.6-1.1c0.1,0,1.7-0.8,3.6,0.4c1.9,1.2,2.2,3.5,1.9,4.5
			c-0.5,1.8-1.9,3-3.6,3.2c0.1,0.3,0.1,0.3,2.7,3.7c1.7,2.2,1.5,1.3,2.1,2.3c1.2,2.1,0.9,1.5,0.9,2.8c0.1-0.1,0.1,0,0.5-0.3l2.9-2.2
			c1.7-1.3,1.6-1.3,1.9-1.3c0.3,0.1,0.5,0.6,1.5,1.8l2.6,3.4c0.1,0.2,0.2,0.3,0.2,0.4c0,0.3-2.4,1.8-4.5,3.6
			c0.4,0.6,2.4,3.2,2.7,3.6c4.9-3.6,4.1-3.4,4.8-3.4c2,2.8,4.7,6,5.5,8.1c0.2,0.6,1,2.6,0,4.8c-0.9,1.9-2.4,2.9-2.9,3.3
			c1.5,0.2,0.4-0.3,2.7,0.9c1.4,0.7-0.1-0.1,1.4,1.3c0,0,0.5,0.4,1,1.1c1.5,2.4,1,1.9,1.3,3.2C-273.6,1363.1-274,1363.8-274,1363.9
			L-274,1363.9z"/>
	</g>
	<path id="rect852" class="st0" d="M760.1,284.1v50c0,5-4,9-9,9h-1.9c-5,0-9-4-9-9v-50c0-5,4-9,9-9h1.9
		C756.1,275.1,760.1,279.1,760.1,284.1z"/>
</g>
</svg>
