<?xml version="1.0" encoding="UTF-8" standalone="no"?>
<!-- Created with Inkscape (http://www.inkscape.org/) -->

<svg
   xmlns:dc="http://purl.org/dc/elements/1.1/"
   xmlns:cc="http://creativecommons.org/ns#"
   xmlns:rdf="http://www.w3.org/1999/02/22-rdf-syntax-ns#"
   xmlns:svg="http://www.w3.org/2000/svg"
   xmlns="http://www.w3.org/2000/svg"
   xmlns:sodipodi="http://sodipodi.sourceforge.net/DTD/sodipodi-0.dtd"
   xmlns:inkscape="http://www.inkscape.org/namespaces/inkscape"
   width="210mm"
   height="297mm"
   viewBox="0 0 210 297"
   version="1.1"
   id="svg892"
   inkscape:version="0.92.3 (2405546, 2018-03-11)"
   sodipodi:docname="t520_lid.svg">
  <defs
     id="defs886" />
  <sodipodi:namedview
     id="base"
     pagecolor="#ffffff"
     bordercolor="#666666"
     borderopacity="1.0"
     inkscape:pageopacity="0.0"
     inkscape:pageshadow="2"
     inkscape:zoom="0.49497476"
     inkscape:cx="-1823.7138"
     inkscape:cy="676.98936"
     inkscape:document-units="mm"
     inkscape:current-layer="layer1"
     showgrid="false"
     inkscape:window-width="1680"
     inkscape:window-height="903"
     inkscape:window-x="0"
     inkscape:window-y="28"
     inkscape:window-maximized="1"
     inkscape:measure-start="-2310.64,1103.36"
     inkscape:measure-end="-2178.94,1102.5"
     inkscape:snap-bbox="true"
     inkscape:bbox-paths="true"
     inkscape:bbox-nodes="true"
     inkscape:snap-bbox-edge-midpoints="true"
     inkscape:snap-bbox-midpoints="true" />
  <metadata
     id="metadata889">
    <rdf:RDF>
      <cc:Work
         rdf:about="">
        <dc:format>image/svg+xml</dc:format>
        <dc:type
           rdf:resource="http://purl.org/dc/dcmitype/StillImage" />
        <dc:title></dc:title>
      </cc:Work>
    </rdf:RDF>
  </metadata>
  <g
     inkscape:label="Layer 1"
     inkscape:groupmode="layer"
     id="layer1">
    <path
       inkscape:connector-curvature="0"
       style="fill:none;fill-opacity:1;stroke:#000000;stroke-width:0.47465152;stroke-linecap:round;stroke-linejoin:round;stroke-miterlimit:4;stroke-dasharray:none;stroke-opacity:1"
       d="m -315.79589,197.701 c 0.0226,-0.0622 0.0574,-0.14385 0.0753,-0.20746 0.0134,-0.0473 0.0223,-0.11261 0.0331,-0.16065 0.012,-0.0534 0.0277,-0.12471 0.0432,-0.17741 0.0321,-0.11018 0.0899,-0.27875 0.25338,-0.51775 0.0448,-0.0655 0.10539,-0.15289 0.15922,-0.21166 0.0209,-0.0228 0.0537,-0.0483 0.0767,-0.0691 0.0231,-0.0207 0.0537,-0.0483 0.0768,-0.069 0.0861,-0.0774 0.11169,-0.0918 0.17572,-0.18695 0,0 0.0123,-0.10325 -0.011,-0.18238 0,0 -0.11139,-0.25514 -0.25272,-0.49488 0,0 -0.5287,-0.83331 -0.58745,-0.92584 0.29146,-0.26681 0.96576,-0.87175 1.58895,-1.18577 0,0 0.30401,-0.14366 0.36053,-0.1624 0.0742,-0.0246 0.14443,-0.0244 0.22286,-0.0227 0.0115,0.006 0.12075,0.0634 0.21668,0.15467 0.0516,0.0491 0.11372,0.12081 0.16094,0.17398 l 0.32451,0.38639 c 0,0 0.6482,0.78275 0.68221,0.82407 0,0 3.15095,3.87191 4.81031,5.98436 0,0 0.69457,0.89097 0.84113,1.1308 0.0101,0.0163 0.13476,0.23546 0.16307,0.34619 0.0409,0.15999 0.0155,0.25607 -0.06,0.36147 -0.0612,0.0854 -0.18335,0.17659 -0.32073,0.2765 0,0 -0.52338,0.35962 -0.80277,0.55646 l -1.60034,1.12736 c -2.00232,1.41065 -12.04325,8.4273 -19.93921,14.21706 0,0 -1.68274,1.2338 -1.77132,1.29882 -0.033,0.0242 -0.49501,0.36624 -0.68031,0.45524 -0.10438,0.0502 -0.10956,0.0605 -0.22594,0.0557 -0.04,-0.0324 -0.0966,-0.0723 -0.13303,-0.1084 -0.0462,-0.0455 -0.0972,-0.11548 -0.13814,-0.16567 -0.0482,-0.0592 -0.11099,-0.13918 -0.15852,-0.19879 l -0.31705,-0.39768 c -0.15602,-0.19739 -2.18116,-2.76666 -3.04692,-3.99934 -0.0744,-0.1058 -0.16645,-0.25158 -0.24412,-0.35513 -0.16008,-0.21363 -0.38989,-0.48658 -0.56292,-0.6905 -0.10746,-0.12658 -0.25204,-0.29431 -0.36633,-0.4153 0,0 -0.25996,-0.28321 -0.39607,-0.37613 -0.0685,-0.0467 -0.21252,-0.13227 -0.41269,-0.0717 -0.2931,0.0885 -0.64202,0.43461 -0.89291,0.4835 -0.18036,0.0351 -0.29174,-0.0564 -0.41771,-0.18602 -0.0569,-0.0585 -0.63817,-0.7446 -0.99918,-1.28454 0,0 -0.12675,-0.18872 -0.16365,-0.27772 -0.0145,-0.0353 -0.0206,-0.11259 -0.0231,-0.15055 0.16528,-0.16475 0.16336,-0.16782 0.34631,-0.31401 0.0551,-0.0438 0.12868,-0.10197 0.18384,-0.14561 0,0 0.33029,-0.26241 0.36739,-0.29124 0.15505,-0.12044 2.51288,-1.8881 3.14138,-2.35975 l 1.26127,-0.9488 c 0.17486,-0.11877 0.38691,-0.25972 0.58271,-0.17697 0.11,0.0465 0.22711,0.1418 0.36199,0.30495 0,0 0.18016,0.23387 0.18963,0.24618 0,0 0.34073,0.44264 0.40592,0.5168 0,0 0.10594,0.14804 0.23505,0.20905 0.27339,0.1292 0.57972,-0.0792 0.66106,-0.13779 0,0 0.19757,-0.14459 0.276,-0.27909 0.0317,-0.0542 0.0412,-0.10176 0.0508,-0.1474 -0.0194,-0.0975 -0.0288,-0.16595 -0.0988,-0.31698 0,0 -0.25117,-0.47622 -0.2642,-0.50142 -0.018,-0.0351 -0.23369,-0.38843 -0.2676,-0.73945 -0.0436,-0.45216 0.24411,-0.93091 0.26952,-0.97503 0.0154,-0.0269 0.15178,-0.2987 0.42245,-0.46186 0.23542,-0.14188 0.86374,-0.31371 1.38194,-0.12174 0.0949,0.0351 0.31317,0.14207 0.56821,0.35813 0.0318,0.0269 0.52621,0.47529 0.6259,0.55141 0.0909,0.0694 0.22123,0.15019 0.31598,0.21456 0,0 1.05598,-0.75813 1.87133,-1.43521 l 0.41222,-0.35774 c 0.14316,-0.1459 0.21445,-0.25618 0.14829,-0.42314 -0.0814,-0.20551 -0.32855,-0.5155 -0.58504,-0.94432 -0.008,-0.013 -0.12298,-0.22669 -0.14075,-0.26849 -0.0152,-0.0361 -0.0378,-0.0842 -0.0447,-0.12275 -0.007,-0.0358 -7.8e-4,-0.0847 -9.8e-4,-0.12109 0.0204,-0.0315 0.0441,-0.0757 0.0679,-0.10517 0.0271,-0.0336 0.0707,-0.072 0.10107,-0.10304 0.0304,-0.0308 0.0704,-0.0723 0.10097,-0.10292 0.0856,-0.0855 0.32189,-0.30691 0.60676,-0.53387 0.20663,-0.16455 0.52387,-0.42641 0.73912,-0.4835 0.20316,-0.054 0.39425,0.0368 0.64039,0.27856 0.0722,0.0709 0.53692,0.6043 0.68849,0.73871 0,0 0.15371,0.1223 0.22867,0.16037 0.0226,0.0115 0.13805,0.0559 0.25165,0.0401 0.0911,-0.0126 0.22219,-0.0712 0.41367,-0.19431 0.10207,-0.0655 0.36931,-0.22781 0.42187,-0.42837 0.0166,-0.0632 0.003,-0.18704 -0.058,-0.32035 -0.0923,-0.19757 -0.22395,-0.3765 -0.47715,-0.73453 -0.015,-0.0211 -0.23919,-0.339 -0.27946,-0.43349 -0.0298,-0.0698 -0.038,-0.13451 -0.0481,-0.24748 0.011,-0.0288 0.045,-0.1543 0.1478,-0.27089 0.0497,-0.0564 0.12918,-0.11988 0.18694,-0.16867 0.23581,-0.19889 0.59624,-0.44152 1.0016,-0.72568 0.0494,-0.0347 0.73678,-0.53434 1.01568,-0.65402 0.0217,-0.0101 0.222,-0.0918 0.45685,-0.12519 0.12316,-0.0174 0.41984,-0.0711 0.82992,-0.0101 0.26586,0.0398 0.42553,0.0874 0.7171,0.26716 0,0 0.43192,0.29506 0.62764,0.40514 0.0752,0.0424 0.12684,0.0705 0.26364,0.11707 0,0 0.0972,-0.005 0.14189,-0.0282 0.0342,-0.0175 0.0737,-0.051 0.10372,-0.0746 l 0.22973,-0.19963 c 0.22895,-0.19889 0.62242,-0.58862 0.94431,-0.7641 0.26508,-0.14441 0.77602,-0.27352 0.81746,-0.2862 0,0 0.2759,-0.0901 0.36276,-0.13172 0.17773,-0.085 0.20691,-0.10238 0.33742,-0.27406"
       id="path4-6-6-0-7-626" />
    <path
       inkscape:connector-curvature="0"
       style="fill:none;fill-opacity:1;stroke:#000000;stroke-width:0.54158145;stroke-linecap:round;stroke-linejoin:round;stroke-miterlimit:4;stroke-dasharray:none;stroke-opacity:1"
       d="m -658.65314,237.40515 c -1.07206,-0.20223 -1.93567,-0.76583 -2.19912,-1.43502 -0.13414,-0.34102 -0.21263,-44.42464 -0.21263,-119.51566 2.2e-4,-102.338582 0.0442,-119.077573 0.31636,-119.7065239 0.64977,-1.501861 0.67039,-1.5048413 11.33786,-1.5746657 10.64356,-0.069718 10.38022,-0.103672 10.80757,1.3915898 0.13767,0.481745 0.17284,1.9549739 0.0893,3.73198093 -0.13248,2.80883127 -0.1176,2.95625007 0.33995,3.39797377 l 0.47826,0.4619473 h 13.10401 c 11.91171,0 13.1317,-0.032145 13.40947,-0.355082 0.22795,-0.2651407 0.31767,-1.2871726 0.35404,-4.03054371 0.0485,-3.65970849 0.0511,-3.67737739 0.62455,-4.15922889 l 0.57571,-0.483661 114.66335,-0.020117 c 63.0647,-0.011177 116.86688,-0.025758 119.5597,-0.032251 2.69306,-0.00639 11.47598,0.00319 19.51764,0.020224 l 14.62107,0.032145 0.62454,0.5186796 0.62454,0.5187859 0.0663,3.72697826 c 0.0561,3.15529194 0.12224,3.76795744 0.43198,3.99552514 0.28284,0.2076633 3.27239,0.2685467 13.18239,0.2685467 11.23966,0 12.87751,-0.040979 13.31125,-0.3346456 0.47772,-0.3231503 0.49479,-0.4581155 0.49479,-3.93623829 0,-3.32112461 0.0352,-3.63820781 0.45105,-4.06950051 0.24846,-0.2573707 0.67405,-0.5211277 0.94597,-0.5863752 0.27192,-0.065036 4.80134,-0.090367 10.06487,-0.056201 9.17059,0.059394 9.59498,0.079937 10.1634,0.4918569 0.32626,0.2365085 0.75207,0.6867476 0.94596,1.000531 0.32077,0.5186797 0.35283,11.3673103 0.35261,119.6670295 0,72.63557 -0.0804,119.3011 -0.20622,119.62083 -0.11354,0.28845 -0.58928,0.75413 -1.05731,1.03513 l -0.85071,0.51102 -183.0586,0.0293 c -100.68215,0.0162 -183.42532,-0.0397 -183.87383,-0.12433 z"
       id="path6-7-7-9-9-1" />
    <path
       inkscape:connector-curvature="0"
       style="fill:none;fill-opacity:1;stroke:#000000;stroke-width:0.58599877;stroke-linecap:round;stroke-linejoin:round;stroke-miterlimit:4;stroke-dasharray:none;stroke-opacity:1"
       d="m -557.6935,5.6518531 c 0.69724,-0.1581693 1.70184,-0.7082675 2.28788,-1.2529675 0.85461,-0.7945503 1.04482,-1.2114657 1.04482,-2.2907001 0,-1.13047649 -0.16075,-1.44649662 -1.1237,-2.20812288 -0.61784,-0.48901094 -1.64656,-1.01126632 -2.28568,-1.16085992 -1.42054,-0.3324319 -12.44826,-0.3396298 -14.54528,-0.00957 -2.19914,0.34629892 -3.73879,1.77617418 -3.73879,3.4722052 0,1.6309217 1.5656,3.1447509 3.57933,3.461196 2.0245,0.3181381 13.36632,0.3094569 14.78142,-0.011329 z"
       id="path8-5-5-3-2-8" />
    <path
       inkscape:connector-curvature="0"
       style="fill:none;fill-opacity:1;stroke:#000000;stroke-width:0.45879561;stroke-linecap:round;stroke-linejoin:round;stroke-miterlimit:4;stroke-dasharray:none;stroke-opacity:1"
       d="m -640.96592,218.83542 c -0.0298,-0.22591 -0.002,-0.36062 0.0484,-0.64934 0.0755,-0.43307 0.24399,-1.02695 0.43826,-1.70292 0.9862,-3.42962 1.64918,-5.71447 1.98918,-6.85439 1.93505,-0.003 3.07324,3.8e-4 3.4145,0.0111 0.20813,0.0111 0.3682,0.0192 0.48025,0.0251 0.19172,0.005 0.34998,0.0199 0.47493,0.0435 0.1103,0.0211 0.13983,0.0287 0.26545,0.0914 l 0.0492,0.062 c 0.0227,0.13233 0.005,0.2485 -0.032,0.4463 -0.0837,0.43822 -0.24067,0.85981 -0.5259,1.70512 3.84846,0 32.71215,-0.0201 38.48403,0.0721 0.13808,0.002 1.7946,0.0239 2.75941,0.0745 0.27918,0.0147 0.71231,0.0298 1.37548,0.25135 0.47577,0.14353 0.89149,0.37255 1.24705,0.68716 0.0934,0.0825 0.49401,0.44254 0.70333,1.03036 0.15759,0.44262 0.18372,0.86871 0.13376,1.33594 -0.0128,0.11966 -0.0676,0.67856 -0.31137,1.1614 -0.13248,0.26255 -0.33319,0.54687 -0.55865,0.80528 -0.43064,0.49368 -0.89597,0.84769 -1.24016,1.06908 -0.0225,0.0144 -0.29688,0.18229 -0.46429,0.26623 -0.24589,0.11424 -0.40141,0.18054 -0.46643,0.1989 -0.39158,0.11048 -4.87985,0.15355 -8.1341,0.16834 -3.69232,0.0168 -31.386,0.0751 -36.92389,-0.0111 -0.23352,-0.003 -1.86831,-0.0364 -2.33433,-0.0667 -0.31953,-0.0227 -0.53114,-0.0458 -0.63495,-0.0697 -0.0432,-0.0105 -0.1015,-0.0238 -0.141,-0.0439 -0.0227,-0.0115 -0.0476,-0.0351 -0.0681,-0.0504 z"
       id="path10-3-3-6-0-7" />
  </g>
</svg>
