<?xml version="1.0" encoding="utf-8"?>
<!-- Generator: Adobe Illustrator 25.2.0, SVG Export Plug-In . SVG Version: 6.00 Build 0)  -->
<svg version="1.1" id="Layer_1" xmlns="http://www.w3.org/2000/svg" xmlns:xlink="http://www.w3.org/1999/xlink" x="0px" y="0px"
	 viewBox="0 0 4280.3 1133.9" style="enable-background:new 0 0 4280.3 1133.9;" xml:space="preserve">
<style type="text/css">
	.st0{fill:none;stroke:#010101;stroke-linecap:round;stroke-linejoin:round;stroke-miterlimit:11.3386;}
	.st1{fill:none;stroke:#010101;stroke-width:1;stroke-linecap:round;stroke-linejoin:round;stroke-miterlimit:11.3386;}
</style>
<g>
	<path class="st0" d="M823.1,1027.6v51c0,6.3-5.1,11.3-11.3,11.3H148.4c-6.3,0-11.3-5.1-11.3-11.3V55.3c0-6.3,5.1-11.3,11.3-11.3
		h663.3c6.3,0,11.3,5.1,11.3,11.3v51"/>
	<line class="st0" x1="823.1" y1="170.1" x2="823.1" y2="963.8"/>
	<path id="path1024" class="st0" d="M246.7,1020.1c0.1,0.3,0.8,0.1,0.9,0.1c0.7,0,1.2,0.3,1.3,0.4c0.4,0.2,0.4,0,1.4,1
		c1,1,0.8,1.4,1,1.5c0.1,0,0.4-0.2,0.8-0.5c0.1-0.1,1.8-1.4,2-1.6c1.6-1.3,1.3-1,1.6-1.1l3,4c0.8,1.1,0.9,1.1,0.9,1.2
		c0,0.1-0.4,0.4-3,2.4c0,0-2.6,2.1-3.7,2.9c-0.1,0.1-1.7,1.3-2.3,1.9c-0.5,0.4-0.8,0.6-2.5,2c-1,0.8-1.2,1-1.3,1
		c-0.1,0-0.6,0.5-3.3,2.6l-0.4,0.3l-3.7,3c-0.5,0.4-1,0.8-1.5,1.2c-1.9,1.5-2.2,1.7-2.3,1.8c-0.4,0.3-0.4,0.2-0.6,0.3
		c-6.4-8.3-4.4-5.7-9-11.7c-1-1.3-0.8-1-0.9-1.2l-3.5-4.6c-2.8-3.7-2.8-3.7-2.9-3.7l-3.4-4.5l-3.8-4.9l-3.5-4.6l-2.7-3.5
		c-0.4-0.6-5.7-7.4-5.9-7.7c-0.3-0.5-1.1-1.4-2.7-3.5c-1.6-2.1-1.4-1.9-1.6-2.1l-4-5.2l-2.3-3c-0.7-0.9,0.1,0.1-1.5-1.9
		c-0.3-0.4-1-1.3-2.3-3c-1.9-2.5-1.8-2.4-1.8-2.4c-0.8-1.1-0.6-0.9-0.7-1c0.2-0.3,0.7-0.6,3.5-2.7c0.2-0.1,2.2-1.6,2.2-1.6
		c0.7-0.5-0.2,0.1,2.4-1.8c0,0,2.3-1.7,2.5-1.9l3.5-2.6c0.2-0.2,1.7-1.2,1.7-1.3c0,0,1.9-1.4,2.3-1.7c2.1-1.6,1.8-1.3,2.1-1.6
		c-1-1.7-2.1-2.6-2.1-3.1c0-0.2,0.2-0.2,1.5-1.2c0.2-0.2,3-2.2,3.1-2.3c0.5-0.4,0.7-0.5,0.8-0.5c0.2,0,0.3,0.2,1.7,2l2.4,3.2
		c0.3,0.4,2.3,3.1,4.3,5.7l3,4c0.9,1.2,0.8,1.2,0.8,1.2c-0.6,0.7-3.8,2.8-4.3,3.4c0.5,0.8,0.3-0.2,1.5,2c0.9,1.7,0.3,1,0.5,2.1
		c0.1,0,0.6-0.4,0.6-0.4c0,0,0.5-0.8,0.8-1.2c0.7-0.7,1.5-1,1.6-1c0.1,0,1.6-0.7,3.4,0.4c1.8,1.1,2.1,3.3,1.8,4.3
		c-0.5,1.7-1.9,2.9-3.4,3c0.1,0.2,0.1,0.3,2.6,3.6c1.6,2.1,1.5,1.3,2,2.2c1.1,2,0.9,1.5,0.9,2.7c0.1-0.1,0.1,0,0.4-0.3l2.8-2.1
		c1.7-1.3,1.6-1.3,1.8-1.2c0.3,0.1,0.5,0.6,1.4,1.7l2.4,3.2c0.1,0.2,0.2,0.3,0.2,0.4c0,0.2-2.3,1.7-4.3,3.4c0.4,0.5,2.3,3.1,2.6,3.5
		c4.7-3.5,3.9-3.3,4.6-3.2c1.9,2.7,4.5,5.8,5.2,7.7c0.2,0.5,1,2.5,0,4.6c-0.8,1.8-2.3,2.8-2.8,3.2c1.4,0.2,0.4-0.3,2.6,0.8
		c1.3,0.7-0.1-0.1,1.4,1.2c0,0,0.5,0.4,0.9,1.1c1.4,2.3,0.9,1.8,1.2,3.1C247,1019.4,246.6,1020.1,246.7,1020.1L246.7,1020.1z"/>
	<g id="layer1-03" transform="translate(6.8035713,-28.726187)">
		<path id="path8-5-9" class="st1" d="M207,131.3c-0.3-0.2-1-0.6-2.1-1.1c0,0-2.5-1-3.3-1.3c0,0-5.2-1.8-10.5-3.3
			c-0.4-0.1-5.8-1.7-8.4-2c-0.5-0.1-0.8-0.1-1.6-0.1l-0.1,0.1c-0.2,1.4-0.2,1.4-0.2,2.8c0,1.2-0.1,2.7-0.1,3.9c0,0-0.2,6.6-0.2,13.2
			c-0.2,17.7-0.5,88.6-0.6,118.2c1.6,2.6,2.5,4.2,3.9,5.6c1.1,1.2,2.1,1.7,2.5,2c1.3,0.7,3,1.4,5.7,1.6c0.2,0,2.4,0.2,4.2-0.2
			c0.1,0,1-0.2,1.7-0.6c0.8-0.5,1.4-1.1,2-1.9c0,0,2-2.6,2.1-2.7c0.7-59.4,0.7-59.4,1.1-118.8c0.4,0.1,2.3,0.8,2.6,0.9
			c0.1,0,0.8,0.1,1.3-0.1c0.8-0.4,1.4-1.4,1.7-2.9c0.2-0.8,0.5-2.7,0.4-5.5c0-0.2-0.1-3.4-0.4-4.8c0,0-0.2-1.1-0.5-1.6
			C208,132,207.8,131.9,207,131.3"/>
	</g>
	<path class="st0" d="M823.1,170.1h-29.8c-1.6,0-2.8-1.3-2.8-2.8v-58.1c0-1.6,1.3-2.8,2.8-2.8h29.8"/>
	<path class="st0" d="M823.1,963.8h-29.8c-1.6,0-2.8,1.3-2.8,2.8v58.1c0,1.6,1.3,2.8,2.8,2.8h29.8"/>
	<path class="st0" d="M793.6,330.9v-46.8c0-5.9,4.8-10.6,10.6-10.6l0,0c5.9,0,10.6,4.8,10.6,10.6v46.8c0,5.9-4.8,10.6-10.6,10.6l0,0
		C798.3,341.6,793.6,336.8,793.6,330.9z"/>
</g>
</svg>
