<?xml version="1.0" encoding="UTF-8" standalone="no"?>
<!-- exported from Silhouette Studio® Business Edition V4.3.356ssbe -->

<svg
   xmlns:dc="http://purl.org/dc/elements/1.1/"
   xmlns:cc="http://creativecommons.org/ns#"
   xmlns:rdf="http://www.w3.org/1999/02/22-rdf-syntax-ns#"
   xmlns:svg="http://www.w3.org/2000/svg"
   xmlns="http://www.w3.org/2000/svg"
   xmlns:sodipodi="http://sodipodi.sourceforge.net/DTD/sodipodi-0.dtd"
   xmlns:inkscape="http://www.inkscape.org/namespaces/inkscape"
   version="1.1"
   width="1189mm"
   height="841mm"
   viewBox="0 0 1189 841.00003"
   id="svg10"
   sodipodi:docname="T550_LID_NEW.svg"
   inkscape:version="0.92.3 (2405546, 2018-03-11)">
  <metadata
     id="metadata14">
    <rdf:RDF>
      <cc:Work
         rdf:about="">
        <dc:format>image/svg+xml</dc:format>
        <dc:type
           rdf:resource="http://purl.org/dc/dcmitype/StillImage" />
        <dc:title></dc:title>
      </cc:Work>
    </rdf:RDF>
  </metadata>
  <sodipodi:namedview
     pagecolor="#ffffff"
     bordercolor="#666666"
     borderopacity="1"
     objecttolerance="10"
     gridtolerance="10"
     guidetolerance="10"
     inkscape:pageopacity="0"
     inkscape:pageshadow="2"
     inkscape:window-width="1920"
     inkscape:window-height="1017"
     id="namedview12"
     showgrid="false"
     inkscape:zoom="0.20486112"
     inkscape:cx="575.99998"
     inkscape:cy="575.99998"
     inkscape:window-x="-8"
     inkscape:window-y="-8"
     inkscape:window-maximized="1"
     inkscape:current-layer="svg10" />
  <defs
     id="defs2" />
  <g
     id="g824"
     transform="matrix(0.99377998,0,0,0.99060928,302.71173,258.46982)"
     style="stroke-width:1.00786805">
    <path
       id="path4"
       d="m 82.28455,268.7806 c -0.85962,-0.3913 -1.82654,-1.0299 -2.14893,-1.4195 -0.51831,-0.6264 -0.58642,-15.2463 -0.58643,-126.3662 V 15.33746 l 1.09656,-0.94348 1.09632,-0.94348 H 269.0686 456.395 l 1.013,0.87964 1.0128,0.87964 0.1141,125.29272 c 0.0628,68.911 -0.0359,125.8494 -0.2187,126.5297 -0.2736,1.0169 -0.656,1.347 -2.1516,1.8569 -1.6507,0.5627 -18.9444,0.6191 -187.0679,0.6114 -178.282,-0.008 -185.30788,-0.0354 -186.81215,-0.7199 z"
       inkscape:connector-curvature="0"
       style="fill:none;fill-opacity:1;stroke:#000000;stroke-width:0.35555351;stroke-linecap:round;stroke-linejoin:round;stroke-opacity:1" />
    <path
       id="path6"
       d="m 109.4773,60.06287 c 1.8458,-1.448 4.1317,-3.19617 5.0797,-3.88477 2.917,-2.1189 10.0034,-7.52112 17.2022,-13.11414 2.1733,-1.68859 2.1665,-1.84472 -0.2117,-4.83215 -0.8746,-1.09851 -2.5425,-3.22949 -3.7063,-4.73535 -2.2195,-2.87146 -2.8294,-3.1167 -4.142,-1.66577 -0.5189,0.57361 -0.5554,0.87329 -0.19,1.55639 0.4018,0.7511 0.2674,1.01734 -1.1982,2.37085 -1.5147,1.39917 -1.8149,1.51746 -3.6451,1.43665 -2.5837,-0.11389 -4.1134,0.89258 -4.1314,2.71838 -0.0126,1.28699 -0.5528,1.99988 -0.9852,1.29993 -0.135,-0.21838 -0.767,-0.39734 -1.4043,-0.39734 -0.8966,0 -1.2489,0.23657 -1.556,1.0448 -0.2184,0.57459 -0.3026,1.29102 -0.1871,1.59204 0.1154,0.30103 0.0164,0.90857 -0.2196,1.34998 -0.3792,0.70874 -0.6729,0.77392 -2.5104,0.55786 -2.2515,-0.26465 -3.3095,0.28076 -3.3095,1.70618 0,1.49951 -0.3938,1.94055 -1.3463,1.50647 -1.1307,-0.51551 -2.4558,0.15808 -5.01134,2.54785 -1.70154,1.59131 -1.82532,1.82702 -1.42505,2.70642 0.27075,0.59436 1.02258,1.15613 1.96301,1.46667 1.2096,0.3993 1.96618,1.1156 3.66518,3.46985 2.7287,3.7815 2.8718,3.94519 3.4399,3.93811 0.26,-0.0033 1.9835,-1.19079 3.8295,-2.63891 z"
       inkscape:connector-curvature="0"
       style="fill:none;fill-opacity:1;stroke:#000000;stroke-width:0.35555351;stroke-linecap:round;stroke-linejoin:round;stroke-opacity:1" />
    <path
       id="path8"
       d="m 437.6754,47.38904 c 3.5587,-0.8219 5.8106,-4.74939 3.8931,-6.79138 -1.163,-1.23828 -4.2457,-1.8805 -6.3311,-1.31873 -0.9192,0.24756 -2.5427,0.31543 -3.8685,0.16138 -1.8961,-0.2201 -2.5092,-0.13245 -3.6072,0.51562 -1.2291,0.72559 -1.3685,0.73523 -1.9676,0.13623 -0.5475,-0.5476 -1.5111,-0.63415 -6.3944,-0.5747 -3.1622,0.03845 -6.2723,0.2257 -6.9111,0.41613 -0.7763,0.23145 -1.9427,0.16211 -3.5169,-0.20874 -1.5774,-0.3717 -3.4404,-0.48169 -5.6417,-0.33313 -1.8077,0.12207 -4.9288,0.11402 -6.936,-0.01794 l -3.6495,-0.23987 v -1.50476 -1.50464 h -2.4922 c -1.5182,0 -2.6496,0.19092 -2.8954,0.48865 -0.2218,0.2688 -0.8773,1.98389 -1.4569,3.81152 -0.5793,1.82752 -1.299,3.98792 -1.5996,4.80066 -0.4971,1.34412 -0.4844,1.5022 0.1391,1.75025 0.3767,0.15026 1.4766,0.25293 2.4437,0.22876 4.5989,-0.11524 6.6152,-0.12659 14.0674,-0.07959 4.4058,0.02771 8.7141,0.06164 9.5737,0.07531 6.9668,0.11084 7.8369,0.04944 8.7814,-0.61877 1.271,-0.89917 2.2307,-0.86499 2.7461,0.09827 0.6138,1.1477 5.0217,1.12316 6.9006,-0.03858 1.0915,-0.67493 1.4332,-0.73279 1.9243,-0.32507 0.488,0.40515 3.489,1.40588 4.5288,1.51001 0.1448,0.01452 1.1663,-0.18201 2.2699,-0.43689 z"
       inkscape:connector-curvature="0"
       style="fill:none;fill-opacity:1;stroke:#000000;stroke-width:0.35555351;stroke-linecap:round;stroke-linejoin:round;stroke-opacity:1" />
  </g>
</svg>
