<?xml version="1.0" encoding="utf-8"?>
<!-- Generator: Adobe Illustrator 26.0.3, SVG Export Plug-In . SVG Version: 6.00 Build 0)  -->
<svg version="1.1"
	 id="svg8" inkscape:version="0.92.3 (2405546, 2018-03-11)" xmlns:cc="http://creativecommons.org/ns#" xmlns:dc="http://purl.org/dc/elements/1.1/" xmlns:inkscape="http://www.inkscape.org/namespaces/inkscape" xmlns:rdf="http://www.w3.org/1999/02/22-rdf-syntax-ns#" xmlns:sodipodi="http://sodipodi.sourceforge.net/DTD/sodipodi-0.dtd" xmlns:svg="http://www.w3.org/2000/svg"
	 xmlns="http://www.w3.org/2000/svg" xmlns:xlink="http://www.w3.org/1999/xlink" x="0px" y="0px" viewBox="0 0 2383.9 3370.4"
	 style="enable-background:new 0 0 2383.9 3370.4;" xml:space="preserve">
<style type="text/css">
	.st0{fill:none;stroke:#000000;stroke-miterlimit:11.3386;}
	.st1{fill:none;stroke:#000000;stroke-width:0.9999;stroke-linecap:round;stroke-linejoin:round;stroke-miterlimit:12.9962;}
</style>
<sodipodi:namedview  bordercolor="#666666" borderopacity="1.0" id="base" inkscape:current-layer="g869" inkscape:cx="1981.3132" inkscape:cy="1198.1683" inkscape:document-units="mm" inkscape:guide-bbox="true" inkscape:pageopacity="0.0" inkscape:pageshadow="2" inkscape:window-height="1017" inkscape:window-maximized="1" inkscape:window-width="1920" inkscape:window-x="-8" inkscape:window-y="-8" inkscape:zoom="0.5" pagecolor="#ffffff" showgrid="false" showguides="true">
	</sodipodi:namedview>
<g>
	<path id="rect916" class="st0" d="M842,2144h1048.7c6.3,0,11.4,5.1,11.4,11.4v700c0,6.3-5.1,11.4-11.4,11.4H842
		c-6.3,0-11.4-5.1-11.4-11.4v-700C830.6,2149.1,835.7,2144,842,2144z"/>
	<g id="layer1-0" transform="matrix(1.1461945,0,0,1.146462,350.4931,-209.44556)" inkscape:label="Layer 1">
		<path id="path1024" inkscape:connector-curvature="0" class="st1" d="M527.9,2106.4c0.3-0.1,0.1-0.8,0.1-1c0-0.8,0.3-1.2,0.4-1.3
			c0.2-0.5,0-0.5,1-1.5c1.1-1.1,1.5-0.9,1.5-1.1c0-0.1-0.2-0.5-0.5-0.8c-0.1-0.1-1.5-1.9-1.6-2.1c-1.3-1.7-1.1-1.4-1.1-1.7l4.1-3.1
			c1.2-0.9,1.2-0.9,1.3-0.9c0.1,0,0.4,0.4,2.6,3.1c0,0,2.1,2.7,3,3.8c0.1,0.1,1.4,1.8,1.9,2.4c0.4,0.6,0.6,0.8,2.1,2.6
			c0.8,1,1,1.3,1.1,1.3c0,0.1,0.5,0.6,2.8,3.5l0.3,0.4l3.1,3.9c0.4,0.5,0.8,1.1,1.3,1.6c1.5,1.9,1.8,2.3,1.9,2.4
			c0.4,0.5,0.2,0.4,0.3,0.6c-8.7,6.7-5.9,4.6-12.2,9.4c-1.3,1-1,0.8-1.3,1l-4.8,3.7c-3.8,3-3.8,3-3.9,3l-4.6,3.6l-5.1,3.9l-4.8,3.7
			l-3.7,2.9c-0.6,0.5-7.8,6-8,6.1c-0.5,0.4-1.4,1.1-3.7,2.8c-2.2,1.7-2,1.5-2.2,1.7l-5.4,4.2l-3.1,2.4c-0.9,0.7,0.1-0.1-2,1.5
			c-0.5,0.4-1.4,1.1-3.1,2.4c-2.6,2-2.5,1.9-2.5,1.9c-1.1,0.8-1,0.7-1.1,0.7c-0.3-0.2-0.6-0.7-2.8-3.6c-0.1-0.2-1.7-2.3-1.7-2.3
			c-0.5-0.7,0.1,0.2-1.9-2.5c0,0-1.8-2.4-2-2.6l-2.7-3.7c-0.2-0.2-1.3-1.7-1.3-1.8c0,0-1.4-2-1.8-2.4c-1.6-2.2-1.4-1.9-1.7-2.2
			c-1.8,1.1-2.8,2.2-3.2,2.2c-0.2,0-0.2-0.2-1.3-1.6c-0.2-0.2-2.3-3.1-2.4-3.2c-0.4-0.6-0.5-0.7-0.5-0.8c0-0.2,0.2-0.3,2.1-1.7
			l3.4-2.5c0.5-0.3,3.3-2.4,6-4.5l4.2-3.1c1.3-1,1.2-0.8,1.2-0.9c0.7,0.7,2.9,4,3.5,4.5c0.9-0.6-0.2-0.3,2.1-1.6
			c1.8-1,1.1-0.3,2.2-0.5c0-0.1-0.4-0.6-0.4-0.6c0,0-0.9-0.5-1.3-0.9c-0.8-0.7-1-1.6-1.1-1.6c0-0.1-0.8-1.7,0.4-3.6
			c1.2-1.9,3.5-2.2,4.5-1.9c1.8,0.5,3.1,1.9,3.2,3.6c0.3-0.1,0.3-0.1,3.7-2.7c2.2-1.7,1.3-1.5,2.3-2.1c2.1-1.2,1.5-0.9,2.8-0.9
			c-0.1-0.1,0-0.1-0.3-0.5l-2.2-2.9c-1.3-1.7-1.3-1.6-1.3-1.9c0.1-0.3,0.6-0.5,1.8-1.5l3.4-2.6c0.2-0.1,0.3-0.2,0.4-0.2
			c0.3,0,1.8,2.4,3.6,4.5c0.6-0.4,3.2-2.4,3.6-2.7c-3.6-4.9-3.4-4.1-3.4-4.8c2.8-2,6-4.7,8.1-5.5c0.6-0.2,2.6-1,4.8,0
			c1.9,0.9,2.9,2.4,3.4,2.9c0.2-1.5-0.3-0.4,0.9-2.7c0.7-1.4-0.1,0.1,1.3-1.4c0,0,0.4-0.5,1.1-1c2.4-1.5,1.9-1,3.2-1.3
			C527.1,2106,527.8,2106.5,527.9,2106.4L527.9,2106.4z"/>
	</g>
	<g id="g1513" transform="rotate(-90,663.70033,-89.337146)">
		<path id="rect1505" inkscape:connector-curvature="0" sodipodi:nodetypes="csssscc" class="st0" d="M-2225.3,1106.7h80
			c4.8,0,8.6,3.9,8.6,8.7v0.4c0,4.8-3.8,8.7-8.6,8.7h-87.6c-0.4-5.9-0.2-12.5,0-17.9"/>
		<path id="rect1508" inkscape:connector-curvature="0" sodipodi:nodetypes="cccc" class="st0" d="M-2232.9,1106.7v-4.8h7.6v4.8"/>
	</g>
</g>
</svg>
