<?xml version="1.0" encoding="UTF-8" standalone="no"?>
<!-- exported from Silhouette Studio Business Edition V4.1.479ssbe -->

<svg
   xmlns:dc="http://purl.org/dc/elements/1.1/"
   xmlns:cc="http://creativecommons.org/ns#"
   xmlns:rdf="http://www.w3.org/1999/02/22-rdf-syntax-ns#"
   xmlns:svg="http://www.w3.org/2000/svg"
   xmlns="http://www.w3.org/2000/svg"
   xmlns:sodipodi="http://sodipodi.sourceforge.net/DTD/sodipodi-0.dtd"
   xmlns:inkscape="http://www.inkscape.org/namespaces/inkscape"
   version="1.1"
   width="431.35mm"
   height="279.08mm"
   viewBox="0 0 431.35 279.08"
   id="svg16"
   sodipodi:docname="t430_kb_top.svg"
   inkscape:version="0.92.3 (2405546, 2018-03-11)">
  <metadata
     id="metadata20">
    <rdf:RDF>
      <cc:Work
         rdf:about="">
        <dc:format>image/svg+xml</dc:format>
        <dc:type
           rdf:resource="http://purl.org/dc/dcmitype/StillImage" />
      </cc:Work>
    </rdf:RDF>
  </metadata>
  <sodipodi:namedview
     pagecolor="#ffffff"
     bordercolor="#666666"
     borderopacity="1"
     objecttolerance="10"
     gridtolerance="10"
     guidetolerance="10"
     inkscape:pageopacity="0"
     inkscape:pageshadow="2"
     inkscape:window-width="1920"
     inkscape:window-height="1017"
     id="namedview18"
     showgrid="false"
     inkscape:zoom="0.77777133"
     inkscape:cx="815.14962"
     inkscape:cy="527.39525"
     inkscape:window-x="-8"
     inkscape:window-y="-8"
     inkscape:window-maximized="1"
     inkscape:current-layer="svg16" />
  <defs
     id="defs2" />
  <g
     id="g833">
    <path
       id="path4"
       d="m 61.99336,102.4132 v 13.4 H 347.9957 v -13.4 z"
       inkscape:connector-curvature="0"
       style="fill:none;fill-opacity:1;stroke:#3f3f3f;stroke-width:0.35277781;stroke-linecap:round;stroke-linejoin:round;stroke-opacity:1" />
    <path
       style="fill:none;fill-opacity:1;stroke:#3f3f3f;stroke-width:0.37289751;stroke-linecap:round;stroke-linejoin:round;stroke-opacity:1"
       inkscape:connector-curvature="0"
       id="path6"
       d="m 322.15555,109.01343 c 0,2.96371 -2.40739,5.37111 -5.371,5.37111 -2.9637,0 -5.3711,-2.4074 -5.3711,-5.37111 0,-2.9636 2.4074,-5.37099 5.3711,-5.37099 2.96361,0 5.371,2.40739 5.371,5.37099 z" />
    <path
       style="fill:none;fill-opacity:1;stroke:#3f3f3f;stroke-width:0.37121478;stroke-linecap:round;stroke-linejoin:round;stroke-opacity:1"
       inkscape:connector-curvature="0"
       id="path8"
       d="m 131.6424,109.01348 c 0,2.96414 -2.38536,5.3719 -5.32195,5.3719 -2.93647,0 -5.32184,-2.40776 -5.32184,-5.3719 0,-2.96405 2.38537,-5.37189 5.32184,-5.37189 2.93659,0 5.32195,2.40784 5.32195,5.37189 z" />
    <path
       style="fill:none;fill-opacity:1;stroke:#3f3f3f;stroke-width:0.37289706;stroke-linecap:round;stroke-linejoin:round;stroke-opacity:1"
       inkscape:connector-curvature="0"
       id="path10"
       d="m 89.139553,109.11253 c 0,2.96361 -2.407383,5.37101 -5.371053,5.37101 -2.963636,0 -5.37105,-2.4074 -5.37105,-5.37101 0,-2.9637 2.407414,-5.37109 5.37105,-5.37109 2.96367,0 5.371053,2.40739 5.371053,5.37109 z" />
    <path
       style="fill:none;fill-opacity:1;stroke:#3f3f3f;stroke-width:0.39702031;stroke-linecap:round;stroke-linejoin:round;stroke-opacity:1"
       inkscape:connector-curvature="0"
       id="path12"
       d="m 114.05105,114.03048 c 1.2885,0 2.33509,-1.13904 2.33509,-2.5415 V 106.406 c 0,-1.40235 -1.04659,-2.5415 -2.33509,-2.5415 H 95.088335 c -1.288502,0 -2.335164,1.13915 -2.335164,2.5415 v 5.08298 c 0,1.40246 1.046662,2.5415 2.335164,2.5415 z" />
    <path
       style="fill:none;fill-opacity:1;stroke:#3f3f3f;stroke-width:0.37444672;stroke-linecap:round;stroke-linejoin:round;stroke-opacity:1"
       inkscape:connector-curvature="0"
       id="path14"
       d="m 147.10472,111.37977 c 0.92395,0 1.67446,-0.53036 1.67446,-1.18344 v -2.36666 c 0,-0.65297 -0.75051,-1.18345 -1.67446,-1.18345 h -10.19553 c -0.92393,0 -1.67455,0.53048 -1.67455,1.18345 v 2.36666 c 0,0.65308 0.75062,1.18344 1.67455,1.18344 z" />
  </g>
</svg>
