<?xml version="1.0" encoding="UTF-8" standalone="no"?>
<!-- exported from Silhouette Studio Business Edition V4.1.479ssbe -->

<svg
   xmlns:dc="http://purl.org/dc/elements/1.1/"
   xmlns:cc="http://creativecommons.org/ns#"
   xmlns:rdf="http://www.w3.org/1999/02/22-rdf-syntax-ns#"
   xmlns:svg="http://www.w3.org/2000/svg"
   xmlns="http://www.w3.org/2000/svg"
   xmlns:sodipodi="http://sodipodi.sourceforge.net/DTD/sodipodi-0.dtd"
   xmlns:inkscape="http://www.inkscape.org/namespaces/inkscape"
   version="1.1"
   width="1200mm"
   height="1200mm"
   viewBox="0 0 1200 1200"
   id="svg20"
   sodipodi:docname="t440bezel.svg"
   inkscape:version="0.92.3 (2405546, 2018-03-11)">
  <metadata
     id="metadata24">
    <rdf:RDF>
      <cc:Work
         rdf:about="">
        <dc:format>image/svg+xml</dc:format>
        <dc:type
           rdf:resource="http://purl.org/dc/dcmitype/StillImage" />
      </cc:Work>
    </rdf:RDF>
  </metadata>
  <sodipodi:namedview
     pagecolor="#ffffff"
     bordercolor="#666666"
     borderopacity="1"
     objecttolerance="10"
     gridtolerance="10"
     guidetolerance="10"
     inkscape:pageopacity="0"
     inkscape:pageshadow="2"
     inkscape:window-width="1680"
     inkscape:window-height="926"
     id="namedview22"
     showgrid="false"
     inkscape:zoom="0.31132639"
     inkscape:cx="683.7232"
     inkscape:cy="3630.4795"
     inkscape:window-x="0"
     inkscape:window-y="28"
     inkscape:window-maximized="1"
     inkscape:current-layer="svg20" />
  <defs
     id="defs2" />
  <path
     style="fill:none;fill-opacity:1;stroke:#000000;stroke-width:0.5;stroke-linecap:round;stroke-linejoin:round;stroke-opacity:1;stroke-miterlimit:4;stroke-dasharray:none"
     inkscape:connector-curvature="0"
     d="m 212.97064,422.95591 c -0.0619,-0.0745 -0.1042,-7.15727 -0.1339,-15.81187 -0.0239,-6.968 -0.0627,-16.7634 -0.0863,-21.7676 -0.0605,-12.824 -0.1634,-48.2285 -0.1687,-58.0317 l -0.004,-8.2275 0.5936,-0.2406 c 0.7035,-0.2851 1.0174,-0.5635 1.3102,-1.1621 l 0.2163,-0.4422 -0.0252,-4.4761 c -0.0248,-4.4002 -0.0284,-4.482 -0.2116,-4.8211 -0.1027,-0.1898 -0.3161,-0.4689 -0.4744,-0.6204 -0.2987,-0.2858 -0.9536,-0.6249 -1.2133,-0.6282 -0.0845,-10e-4 -0.1668,-0.0861 -0.1895,-0.196 -0.0762,-0.3668 -0.1349,-14.5629 -0.1788,-43.1852 -0.024,-15.7713 -0.0639,-31.2753 -0.0886,-34.4533 -0.0544,-6.9868 -0.0592,-22.9803 -0.008,-24.4115 0.0384,-1.0645 0.1918,-2.1627 0.3126,-2.2374 0.038,-0.0235 4.8558,-0.0647 10.7062,-0.0917 5.8504,-0.027 10.9864,-0.0619 11.4133,-0.0775 0.7626,-0.028 25.9358,-0.0933 68.4296,-0.1775 11.8341,-0.0235 21.5746,-0.042 21.6458,-0.0412 4.5574,0.0502 6.4451,0.0435 6.899,-0.0244 0.3275,-0.049 2.245,-0.0702 4.6137,-0.0512 11.4621,0.0924 89.7558,-0.004 119.0946,-0.1465 15.8711,-0.0772 62.4338,-0.2185 79.1305,-0.2402 4.9932,-0.006 9.2084,0.0227 9.4431,0.0654 v -3e-4 c 0.5614,0.1022 0.9999,0.1091 1.6533,0.026 0.5363,-0.0683 0.54,-0.0673 0.6347,0.1728 0.1818,0.4609 0.323,1.194 0.3703,1.9232 0.0261,0.4032 0.0678,7.0006 0.0926,14.661 0.0601,18.6 0.1223,32.5357 0.1737,38.9378 0.0233,2.8934 0.0679,15.0297 0.0992,26.9695 0.0487,18.5973 0.0396,21.7139 -0.0642,21.7448 -1.2088,0.3595 -1.7526,0.873 -1.9301,1.8229 -0.1043,0.5586 -0.0621,8.5416 0.0474,8.9553 0.1415,0.5345 0.9205,1.2617 1.5676,1.4634 l 0.4959,0.1547 6e-4,7.6495 c 6e-4,7.2701 0.0371,28.2772 0.1264,72.8609 0.032,15.9823 0.13066,23.41004 0.0444,23.48164"
     id="path4"
     sodipodi:nodetypes="cccccccccccccccccscccccccccccccccccccccsc" />
  <path
     style="fill:none;fill-opacity:1;stroke:#000000;stroke-width:0.5;stroke-linecap:round;stroke-linejoin:round;stroke-opacity:1;stroke-miterlimit:4;stroke-dasharray:none"
     inkscape:connector-curvature="0"
     d="m 479.65594,221.81874 c -8.6799,0.024 -24.0668,0.0638 -34.1933,0.0884 -10.1264,0.0246 -21.982,0.0632 -26.3456,0.0859 -21.5002,0.1115 -54.4458,0.1422 -54.6165,0.0508 -0.1169,-0.0626 -0.1955,-0.0654 -0.2307,-0.008 -0.0704,0.1138 -1.1286,0.1116 -1.3425,-0.003 -0.1075,-0.0576 -0.1669,-0.059 -0.1669,-0.004 0,0.056 -5.227,0.0873 -15.1994,0.0908 -8.3596,0.003 -23.1548,0.0234 -32.8782,0.0454 -9.7233,0.0219 -30.1939,0.06 -45.4904,0.0845 -35.4022,0.0568 -42.2728,0.0995 -43.4142,0.2702 -0.4707,0.0705 -0.883,0.1449 -0.9164,0.1655 -0.2631,0.1627 -0.2685,0.8583 -0.2152,27.7238 0.0292,14.7752 0.0701,30.2016 0.0908,34.2808 0.0208,4.0792 0.0583,18.7876 0.0834,32.6853 0.0253,13.8978 0.0654,28.4703 0.0892,32.3835 0.0238,3.9133 0.0645,15.4588 0.0904,25.6568 0.0492,19.4241 0.0637,20.8194 0.2183,21.0643 0.1431,0.2269 0.4599,0.4398 0.737,0.4954 0.136,0.0273 1.0618,0.0514 2.0575,0.0537 1.2776,0.003 1.8313,0.0338 1.8821,0.1048 0.0545,0.0763 0.0823,0.0755 0.1146,-0.004 0.0547,-0.1339 24.2633,-0.1569 24.2633,-0.023 0,0.0463 0.0582,0.0843 0.1294,0.0843 0.0711,0 0.1294,-0.0386 0.1294,-0.0857 0,-0.0561 3.2606,-0.0867 9.4646,-0.0887 5.2055,-0.002 15.0139,-0.0195 21.7965,-0.0397 10.2386,-0.0305 22.9189,-0.053 25.9844,-0.0462 0.4553,9e-4 0.6971,0.0329 0.6632,0.0878 -0.0767,0.1241 0.1608,0.1064 0.2889,-0.0216 0.0848,-0.0849 2.4517,-0.113 11.1204,-0.1323 16.5267,-0.0367 43.0513,-0.1066 52.4715,-0.1385 5.4141,-0.0183 8.3434,0.002 8.3434,0.0564 0,0.0535 0.0397,0.0522 0.1078,-0.003 0.1614,-0.1316 11.6724,-0.1448 11.7536,-0.0135 0.0436,0.0705 0.0777,0.0719 0.1192,0.005 0.0483,-0.0783 4.9892,-0.124 10.5973,-0.0981 0.157,7e-4 0.2653,0.0336 0.2409,0.0732 -0.0655,0.1059 0.2305,0.0925 0.3683,-0.0168 0.1795,-0.1424 14.7575,-0.1804 14.7575,-0.0385 0,0.081 0.0231,0.0811 0.1036,6e-4 0.1407,-0.1407 2.7423,-0.147 2.7423,-0.007 0,0.0668 0.04,0.0636 0.1294,-0.0106 0.0987,-0.082 0.1579,-0.0837 0.2503,-0.007 0.0789,0.0655 0.1315,0.0696 0.1509,0.0118 0.0453,-0.1339 9.4128,-0.1293 9.6634,0.005 0.1412,0.0755 0.1978,0.0763 0.2223,0.003 0.045,-0.135 0.5356,-0.1265 0.5373,0.009 9e-4,0.0715 0.0226,0.077 0.0646,0.0162 0.035,-0.0503 0.141,-0.0993 0.2359,-0.1088 0.0948,-0.009 4.7129,-0.0382 10.2623,-0.0638 5.5494,-0.0257 11.3996,-0.0543 13.0004,-0.0637 2.5363,-0.0149 2.9108,-5e-4 2.9131,0.1122 0.002,0.113 0.0125,0.1127 0.0801,-0.003 0.0686,-0.1171 1.0023,-0.1345 8.1684,-0.1512 4.45,-0.0103 15.8136,-0.0414 25.2523,-0.0692 27.8548,-0.0817 29.2777,-0.082 29.2777,-0.005 0,0.0407 0.0679,0.047 0.1509,0.0142 0.083,-0.0328 1.9749,-0.0748 4.2041,-0.0931 4.0085,-0.033 4.0577,-0.0355 4.4582,-0.2297 0.2585,-0.1254 0.4232,-0.2681 0.4554,-0.3946 0.1347,-0.5288 -0.0616,-107.7526 -0.2552,-139.4261 -0.024,-3.9369 -0.0649,-11.4076 -0.0907,-16.6014 -0.0259,-5.1939 -0.0704,-9.9092 -0.099,-10.4784 -0.0286,-0.5692 -0.0562,-2.3386 -0.0613,-3.9321 -0.01,-2.9837 -0.0318,-3.1827 -0.3575,-3.1827 -0.0614,0 -0.1272,-0.0468 -0.1463,-0.1039 -0.019,-0.0572 -0.2454,-0.1312 -0.503,-0.1645 -0.453,-0.0585 -21.0955,-0.0388 -53.7635,0.0515 z"
     id="path6" />
  <path
     style="fill:none;fill-opacity:1;stroke:#3f3f3f;stroke-width:0.5;stroke-linecap:round;stroke-linejoin:round;stroke-opacity:1;stroke-miterlimit:4;stroke-dasharray:none"
     inkscape:connector-curvature="0"
     d="m 466.48234,207.01064 c -1.1647,0 -2.1107,0.6566 -2.1107,1.4649 v 0.02 c 0,0.8083 0.946,1.4649 2.1107,1.4649 h 10.3242 c 1.1646,0 2.1106,-0.6566 2.1106,-1.4649 v -0.02 c 0,-0.8083 -0.946,-1.4649 -2.1106,-1.4649 z"
     id="path14" />
  <path
     style="fill:none;fill-opacity:1;stroke:#3f3f3f;stroke-width:0.5;stroke-linecap:round;stroke-linejoin:round;stroke-opacity:1;stroke-miterlimit:4;stroke-dasharray:none"
     inkscape:connector-curvature="0"
     d="m 281.97044,207.41754 c -1.1646,0 -2.1106,0.6566 -2.1106,1.4649 v 0.02 c 0,0.8083 0.946,1.4649 2.1106,1.4649 h 10.3243 c 1.1646,0 2.1106,-0.6566 2.1106,-1.4649 v -0.02 c 0,-0.8083 -0.946,-1.4649 -2.1106,-1.4649 z"
     id="path16" />
  <path
     style="fill:none;fill-opacity:1;stroke:#3f3f3f;stroke-width:0.5;stroke-linecap:round;stroke-linejoin:round;stroke-opacity:1;stroke-miterlimit:4;stroke-dasharray:none"
     inkscape:connector-curvature="0"
     d="m 376.07595,209.89124 c 0,-1.36007 1.10479,-2.46479 2.46479,-2.46479 1.36007,0 2.46479,1.10472 2.46479,2.46479 0,1.36007 -1.10472,2.46479 -2.46479,2.46479 -1.36,0 -2.46479,-1.10472 -2.46479,-2.46479 z"
     id="path18" />
  <path
     style="fill:none;stroke:#000000;stroke-width:0.5;stroke-linecap:butt;stroke-linejoin:miter;stroke-opacity:1;stroke-miterlimit:4;stroke-dasharray:none"
     d="m 547.30864,422.28148 -334.338,0.67443"
     id="path832"
     inkscape:connector-curvature="0"
     sodipodi:nodetypes="cc" />
</svg>
