<?xml version="1.0" encoding="UTF-8" standalone="no"?>
<!-- exported from Silhouette Studio Business Edition V4.1.206ssbe -->

<svg
   xmlns:dc="http://purl.org/dc/elements/1.1/"
   xmlns:cc="http://creativecommons.org/ns#"
   xmlns:rdf="http://www.w3.org/1999/02/22-rdf-syntax-ns#"
   xmlns:svg="http://www.w3.org/2000/svg"
   xmlns="http://www.w3.org/2000/svg"
   xmlns:sodipodi="http://sodipodi.sourceforge.net/DTD/sodipodi-0.dtd"
   xmlns:inkscape="http://www.inkscape.org/namespaces/inkscape"
   version="1.1"
   width="304.8mm"
   height="1000mm"
   viewBox="0 0 304.8 1000"
   id="svg10"
   sodipodi:docname="E6330_LID.svg"
   inkscape:version="0.92.3 (2405546, 2018-03-11)">
  <metadata
     id="metadata14">
    <rdf:RDF>
      <cc:Work
         rdf:about="">
        <dc:format>image/svg+xml</dc:format>
        <dc:type
           rdf:resource="http://purl.org/dc/dcmitype/StillImage" />
      </cc:Work>
    </rdf:RDF>
  </metadata>
  <sodipodi:namedview
     pagecolor="#ffffff"
     bordercolor="#666666"
     borderopacity="1"
     objecttolerance="10"
     gridtolerance="10"
     guidetolerance="10"
     inkscape:pageopacity="0"
     inkscape:pageshadow="2"
     inkscape:window-width="1133"
     inkscape:window-height="684"
     id="namedview12"
     showgrid="false"
     inkscape:zoom="0.1766117"
     inkscape:cx="1249.8338"
     inkscape:cy="-227.0207"
     inkscape:window-x="0"
     inkscape:window-y="28"
     inkscape:window-maximized="1"
     inkscape:current-layer="g930" />
  <defs
     id="defs2" />
  <g
     id="g930"
     transform="rotate(90,134.42236,906.30304)">
    <g
       id="g25">
      <path
         style="fill:none;fill-opacity:1;stroke:#000000;stroke-width:0.43938279;stroke-linecap:round;stroke-linejoin:round;stroke-opacity:1"
         inkscape:connector-curvature="0"
         d="M -30.417819,315.14121 V 459.3693 c 0.0104,0.40141 -0.007,2.09402 0.78739,3.93834 0.22596,0.5246 0.66795,1.45711 1.52533,2.41432 0.897,1.0014 1.87182,1.51631 2.42213,1.74901 0.0575,0.0243 0.57979,0.2493 1.19215,0.37 0.33199,0.0655 0.67222,0.0853 1.12285,0.1066 l 316.487929,0 c 0,0 0.73353,-0.005 1.43478,-0.1806 0.2034,-0.0511 0.68513,-0.1765 1.30787,-0.4941 0.84999,-0.4335 1.48851,-1.01201 1.89632,-1.44711 0.99299,-1.05931 1.55478,-2.26332 1.85642,-3.11923 0.50604,-1.43581 0.53687,-2.66092 0.55449,-3.33723 l 10e-6,-144.539"
         id="path4" />
      <path
         style="fill:none;fill-opacity:1;stroke:#000000;stroke-width:0.43938279;stroke-linecap:round;stroke-linejoin:round;stroke-opacity:1"
         inkscape:connector-curvature="0"
         d="m 300.17341,315.27214 -10e-6,-36.32613 -330.588139,3e-5 v 36.23937"
         id="path6" />
      <path
         id="path818"
         d="m 134.9382,389.80516 a 20.010685,20.010683 0 0 1 -20.01069,-20.01069 20.010685,20.010683 0 0 1 20.01069,-20.01068 20.010685,20.010683 0 0 1 20.01068,20.01068 20.010685,20.010683 0 0 1 -20.01068,20.01069 z"
         style="fill:none;fill-opacity:1;fill-rule:evenodd;stroke:#000000;stroke-width:0.37863094;stroke-miterlimit:4;stroke-dasharray:none;stroke-opacity:1"
         inkscape:connector-curvature="0" />
      <path
         style="fill:none;fill-opacity:1;stroke:#000000;stroke-width:0.43938279;stroke-linecap:round;stroke-linejoin:round;stroke-opacity:1"
         inkscape:connector-curvature="0"
         d="M -30.548699,513.44092 V 657.669 c 0.0104,0.40141 -0.007,2.09402 0.78739,3.93834 0.22596,0.5246 0.66795,1.45711 1.52533,2.41432 0.897,1.0014 1.87182,1.51631 2.42213,1.74901 0.0575,0.0243 0.57979,0.2493 1.19215,0.37 0.33199,0.0655 0.67222,0.0853 1.12285,0.1066 H 292.98908 c 0,0 0.73353,-0.005 1.43478,-0.1806 0.2034,-0.0511 0.68513,-0.1765 1.30787,-0.4941 0.84999,-0.4335 1.48851,-1.01201 1.89632,-1.44711 0.99299,-1.05931 1.55478,-2.26332 1.85642,-3.11923 0.50604,-1.43581 0.53687,-2.66092 0.55449,-3.33723 l 1e-5,-144.539"
         id="path4-6" />
      <path
         style="fill:none;fill-opacity:1;stroke:#000000;stroke-width:0.43938279;stroke-linecap:round;stroke-linejoin:round;stroke-opacity:1"
         inkscape:connector-curvature="0"
         d="m 300.04253,513.57184 -10e-6,-36.32613 -330.588139,3e-5 v 36.23937"
         id="path6-7" />
      <path
         id="path818-5"
         d="m 134.80732,588.10486 a 20.010685,20.010683 0 0 1 -20.01069,-20.01069 20.010685,20.010683 0 0 1 20.01069,-20.01068 20.010685,20.010683 0 0 1 20.01068,20.01068 20.010685,20.010683 0 0 1 -20.01068,20.01069 z"
         style="fill:none;fill-opacity:1;fill-rule:evenodd;stroke:#000000;stroke-width:0.37863094;stroke-miterlimit:4;stroke-dasharray:none;stroke-opacity:1"
         inkscape:connector-curvature="0" />
      <path
         style="fill:none;fill-opacity:1;stroke:#000000;stroke-width:0.43938279;stroke-linecap:round;stroke-linejoin:round;stroke-opacity:1"
         inkscape:connector-curvature="0"
         d="m -31.19782,710.7998 v 144.22808 c 0.0104,0.40141 -0.007,2.09402 0.78739,3.93834 0.22596,0.5246 0.66795,1.45711 1.52533,2.41432 0.897,1.0014 1.87182,1.51631 2.42213,1.74901 0.0575,0.0243 0.57979,0.2493 1.19215,0.37 0.33199,0.0655 0.67222,0.0853 1.12285,0.1066 h 316.48793 c 0,0 0.73353,-0.005 1.43478,-0.1806 0.2034,-0.0511 0.68513,-0.1765 1.30787,-0.4941 0.84999,-0.4335 1.48851,-1.01201 1.89632,-1.44711 0.99299,-1.05931 1.55478,-2.26332 1.85642,-3.11923 0.50604,-1.43581 0.53687,-2.66092 0.55449,-3.33723 l 1e-5,-144.539"
         id="path4-62" />
      <path
         style="fill:none;fill-opacity:1;stroke:#000000;stroke-width:0.43938279;stroke-linecap:round;stroke-linejoin:round;stroke-opacity:1"
         inkscape:connector-curvature="0"
         d="m 299.39341,710.93072 -1e-5,-36.32613 -330.58814,3e-5 v 36.23937"
         id="path6-9" />
      <path
         id="path818-1"
         d="m 134.1582,785.46374 a 20.010685,20.010683 0 0 1 -20.01069,-20.01069 20.010685,20.010683 0 0 1 20.01069,-20.01068 20.010685,20.010683 0 0 1 20.01068,20.01068 20.010685,20.010683 0 0 1 -20.01068,20.01069 z"
         style="fill:none;fill-opacity:1;fill-rule:evenodd;stroke:#000000;stroke-width:0.37863094;stroke-miterlimit:4;stroke-dasharray:none;stroke-opacity:1"
         inkscape:connector-curvature="0" />
    </g>
  </g>
</svg>
