<?xml version="1.0" encoding="utf-8"?>
<!-- Generator: Adobe Illustrator 26.1.0, SVG Export Plug-In . SVG Version: 6.00 Build 0)  -->
<svg version="1.1" id="Layer_1" xmlns="http://www.w3.org/2000/svg" xmlns:xlink="http://www.w3.org/1999/xlink" x="0px" y="0px"
	 viewBox="0 0 4280.3 1133.9" style="enable-background:new 0 0 4280.3 1133.9;" xml:space="preserve">
<style type="text/css">
	.st0{fill:none;stroke:#000000;stroke-miterlimit:10;}
</style>
<g>
	<line class="st0" x1="345.7" y1="888" x2="345.9" y2="312.5"/>
	<path class="st0" d="M345.9,224.7l-0.2-36.9c0-9.4,7.6-17,17-17h569.8c3.1,0,5.7,2.5,5.7,5.7V1024c0,3.1-2.5,5.7-5.7,5.7H362.7
		c-9.4,0-17-7.6-17-17v-36.9"/>
	<circle class="st0" cx="638.7" cy="597.9" r="48.2"/>
	<path class="st0" d="M345.7,888H374c1.6,0,2.8,1.3,2.8,2.8V973c0,1.6-1.3,2.8-2.8,2.8h-28.3"/>
	<path class="st0" d="M345.9,312.5h28.3c1.6,0,2.8-1.3,2.8-2.8v-82.2c0-1.6-1.3-2.8-2.8-2.8h-28.3"/>
</g>
</svg>
