<?xml version="1.0" encoding="UTF-8" standalone="no"?>
<!-- Created with Inkscape (http://www.inkscape.org/) -->

<svg
   xmlns:dc="http://purl.org/dc/elements/1.1/"
   xmlns:cc="http://creativecommons.org/ns#"
   xmlns:rdf="http://www.w3.org/1999/02/22-rdf-syntax-ns#"
   xmlns:svg="http://www.w3.org/2000/svg"
   xmlns="http://www.w3.org/2000/svg"
   xmlns:sodipodi="http://sodipodi.sourceforge.net/DTD/sodipodi-0.dtd"
   xmlns:inkscape="http://www.inkscape.org/namespaces/inkscape"
   width="594mm"
   height="841mm"
   viewBox="0 0 594 841"
   version="1.1"
   id="svg8"
   inkscape:version="0.92.3 (2405546, 2018-03-11)"
   sodipodi:docname="Z70_LID.svg">
  <defs
     id="defs2" />
  <sodipodi:namedview
     id="base"
     pagecolor="#ffffff"
     bordercolor="#666666"
     borderopacity="1.0"
     inkscape:pageopacity="0.0"
     inkscape:pageshadow="2"
     inkscape:zoom="0.35"
     inkscape:cx="1501.018"
     inkscape:cy="968.04563"
     inkscape:document-units="mm"
     inkscape:current-layer="layer1"
     showgrid="false"
     inkscape:window-width="1920"
     inkscape:window-height="1017"
     inkscape:window-x="-8"
     inkscape:window-y="-8"
     inkscape:window-maximized="1" />
  <metadata
     id="metadata5">
    <rdf:RDF>
      <cc:Work
         rdf:about="">
        <dc:format>image/svg+xml</dc:format>
        <dc:type
           rdf:resource="http://purl.org/dc/dcmitype/StillImage" />
        <dc:title></dc:title>
      </cc:Work>
    </rdf:RDF>
  </metadata>
  <g
     inkscape:label="Layer 1"
     inkscape:groupmode="layer"
     id="layer1"
     transform="translate(0,544)">
    <path
       style="opacity:1;fill:none;fill-opacity:0.25116284;stroke:#000000;stroke-width:0.35299999;stroke-miterlimit:4;stroke-dasharray:none;stroke-opacity:1"
       d="M 32.554469,-202.60533 H 446.25565 c -0.24338,91.88015 -0.10268,183.765374 -0.10268,275.647004 0,3.878 -2.23,7 -5,7 H 37.505959 c -2.77,0 -5,-3.122 -5,-7 0.40938,-91.879767 -0.58823,-183.768484 0.0485,-275.647004 z"
       id="rect815"
       inkscape:connector-curvature="0"
       sodipodi:nodetypes="cccsscc" />
    <g
       id="layer1-8"
       inkscape:label="Layer 1"
       transform="matrix(-1.3395099,0,0,-1.1311313,452.4305,254.14372)"
       style="stroke-width:0.81240118">
      <path
         style="fill:none;fill-opacity:1;stroke:#000000;stroke-width:0.28659707;stroke-linecap:round;stroke-linejoin:round;stroke-miterlimit:4;stroke-dasharray:none;stroke-opacity:1"
         inkscape:connector-curvature="0"
         id="path8-5-9"
         d="m 44.024517,188.27715 c -0.0602,0.10687 -0.210902,0.35236 -0.3738,0.72748 0,0 -0.350901,0.87646 -0.459402,1.17181 0,0 -0.651298,1.82965 -1.178499,3.69653 -0.0413,0.14631 -0.582099,2.05439 -0.701201,2.95874 -0.02151,0.16376 -0.0435,0.27607 -0.0185,0.55011 l 0.0302,0.0468 c 0.493699,0.0564 0.494498,0.0547 0.990999,0.0733 0.4113,0.0154 0.9598,0.0334 1.371201,0.0451 0,0 2.320999,0.0563 4.642289,0.0867 6.253202,0.0821 31.268093,0.17395 41.690883,0.21454 0.9245,-0.57197 1.4689,-0.86567 1.991,-1.36841 0.4066,-0.39154 0.6135,-0.7403 0.6992,-0.88636 0.2618,-0.4461 0.4949,-1.06469 0.552,-1.99395 0.005,-0.0748 0.0572,-0.83325 -0.0618,-1.49677 -0.006,-0.0323 -0.0533,-0.33636 -0.2228,-0.61725 -0.1742,-0.28857 -0.402,-0.48486 -0.6619,-0.69946 0,0 -0.9127,-0.71863 -0.9607,-0.75647 -20.95059,-0.25214 -20.95059,-0.25604 -41.902182,-0.40436 0.0503,-0.13415 0.298302,-0.80707 0.319,-0.90033 0.01029,-0.0466 0.0463,-0.28112 -0.0455,-0.47546 -0.125598,-0.26593 -0.4953,-0.4856 -1.012399,-0.59943 -0.283099,-0.0623 -0.961591,-0.16009 -1.927691,-0.13788 -0.0844,0.002 -1.1855,0.0347 -1.683999,0.125 0,0 -0.382201,0.0745 -0.5653,0.17029 -0.245999,0.12879 -0.2911,0.20124 -0.511099,0.46973" />
    </g>
  </g>
</svg>
