<?xml version="1.0" encoding="utf-8"?>
<!-- Generator: Adobe Illustrator 25.2.1, SVG Export Plug-In . SVG Version: 6.00 Build 0)  -->
<svg version="1.1" id="Layer_1" xmlns="http://www.w3.org/2000/svg" xmlns:xlink="http://www.w3.org/1999/xlink" x="0px" y="0px"
	 viewBox="0 0 4280.3 1133.9" style="enable-background:new 0 0 4280.3 1133.9;" xml:space="preserve">
<style type="text/css">
	.st0{fill:none;stroke:#010101;stroke-linecap:round;stroke-linejoin:round;stroke-miterlimit:11.3386;}
</style>
<g>
	<path class="st0" d="M54.2,164.9c0.4-1.4,1-3.6,1.4-4.9c0.4-1.4,1-3.2,1.4-4c0.4-0.9,0.8-1.9,0.8-2.3s0.4-1.2,1-1.8
		c0.5-0.6,1.5-2.1,2-3.2c1.1-2.3,5.8-7.4,8.9-9.8c4-3.1,7.9-5.6,8.6-5.6c0.4,0,1.5-0.4,2.4-0.9s2.8-1.1,4.1-1.3
		c1.3-0.2,3-0.7,3.6-1.2c1.2-0.8,19.6-0.8,262.1-0.8c240.5,0,261,0.1,262.6,0.8c1,0.4,2.7,1,3.9,1.2s2.9,0.8,3.8,1.3
		s2.1,0.9,2.5,0.9s1.3,0.4,2,0.9c0.6,0.5,1.6,1.1,2.2,1.3c1.5,0.5,6,4.1,8,6.4c0.9,1.1,2,2.3,2.5,2.7c1.5,1.3,4.2,5.6,4.8,7.6
		c0.3,1.1,0.9,2.6,1.3,3.3c0.4,0.8,1.1,3.4,1.6,5.9c0.9,4.4,1,9.6,1,405.7v401.2l-1,5c-1.3,6.2-4.5,13.1-8,17
		c-2.9,3.2-8.4,7.7-10,8.2c-0.6,0.2-1.9,0.9-2.9,1.5c-0.9,0.6-2.2,1.2-2.8,1.2s-2.1,0.4-3.3,1c-1.2,0.5-4,1.4-6.3,1.8
		c-3.9,0.8-18.4,0.9-262.7,0.9H91.2l-4-1.1c-2.2-0.6-4.9-1.6-5.8-2.1c-1-0.5-2.2-1-2.6-1c-0.5,0-1-0.2-1.1-0.5
		c-0.2-0.3-1.3-0.9-2.5-1.4s-2.2-1.2-2.2-1.5s-0.3-0.5-0.6-0.5c-1.2,0-7-5.3-9.5-8.7c-5-6.9-6.8-11.1-8.9-20.6
		c-0.3-1.2-0.4-165-0.4-401C53.5,215.3,53.6,167.1,54.2,164.9z"/>
	<path class="st0" d="M357.8,626.2c-32.7,0-59.3-26.6-59.3-59.3s26.6-59.3,59.3-59.3s59.3,26.6,59.3,59.3S390.6,626.2,357.8,626.2z"
		/>
	<path class="st0" d="M318,552.5h26.8c0-7-22.9-14.2-15.9-21.2c21.2,0,41.7,11.8,61.4,35.3c-19.8,23.5-40.3,35.3-61.4,35.3
		c-7-7,15.9-14.2,15.9-21.2H318V552.5z"/>
</g>
</svg>
