<?xml version="1.0" encoding="utf-8"?>
<!-- Generator: Adobe Illustrator 25.2.0, SVG Export Plug-In . SVG Version: 6.00 Build 0)  -->
<svg version="1.1" id="Layer_1" xmlns="http://www.w3.org/2000/svg" xmlns:xlink="http://www.w3.org/1999/xlink" x="0px" y="0px"
	 viewBox="0 0 4280.3 1133.9" style="enable-background:new 0 0 4280.3 1133.9;" xml:space="preserve">
<style type="text/css">
	.st0{fill:none;stroke:#000000;stroke-miterlimit:10;}
</style>
<g>
	<path class="st0" d="M635,766.8l0.5,190.6c0,14.1-11.4,25.5-25.5,25.5H114c-14.1,0-25.5-11.4-25.5-25.5v-754
		c0-14.1,11.4-25.5,25.5-25.5H610c14.1,0,25.5,11.4,25.5,25.5L635,394"/>
	<path class="st0" d="M635.6,722.1"/>
	<circle class="st0" cx="364" cy="580.4" r="33.3"/>
	<path class="st0" d="M601,405.4c0-6.3,5.1-11.3,11.3-11.3H635"/>
	<path class="st0" d="M601,755.5V405.4"/>
	<path class="st0" d="M635,766.8h-22.7c-6.3,0-11.3-5.1-11.3-11.3"/>
	<path class="st0" d="M635,766.8"/>
	<path class="st0" d="M635,394"/>
	<g>
		<path class="st0" d="M600.9,408.9c0-6.3,5.1-11.3,11.3-11.3h26.9c1.6,0,2.8,1.3,2.8,2.8l-0.8,148.8"/>
		<path class="st0" d="M600.9,408.9"/>
		<path class="st0" d="M600.9,751.9"/>
		<path class="st0" d="M641.1,611.6l0.8,148.8c0,1.6-1.3,2.8-2.8,2.8h-26.9c-6.3,0-11.3-5.1-11.3-11.3"/>
		<path class="st0" d="M614.6,549.2h26.5"/>
		<path class="st0" d="M611.8,552.1c0-1.6,1.3-2.8,2.8-2.8"/>
		<path class="st0" d="M611.8,608.8v-56.7"/>
		<path class="st0" d="M614.6,611.6c-1.6,0-2.8-1.3-2.8-2.8"/>
		<path class="st0" d="M641.1,611.6h-26.5"/>
	</g>
</g>
</svg>
