<?xml version="1.0" encoding="UTF-8" standalone="no"?>
<!-- Created with Inkscape (http://www.inkscape.org/) -->

<svg
   xmlns:dc="http://purl.org/dc/elements/1.1/"
   xmlns:cc="http://creativecommons.org/ns#"
   xmlns:rdf="http://www.w3.org/1999/02/22-rdf-syntax-ns#"
   xmlns:svg="http://www.w3.org/2000/svg"
   xmlns="http://www.w3.org/2000/svg"
   xmlns:sodipodi="http://sodipodi.sourceforge.net/DTD/sodipodi-0.dtd"
   xmlns:inkscape="http://www.inkscape.org/namespaces/inkscape"
   width="210mm"
   height="297mm"
   viewBox="0 0 210 297"
   version="1.1"
   id="svg892"
   inkscape:version="0.92.3 (2405546, 2018-03-11)"
   sodipodi:docname="t420_LID.svg">
  <defs
     id="defs886" />
  <sodipodi:namedview
     id="base"
     pagecolor="#ffffff"
     bordercolor="#666666"
     borderopacity="1.0"
     inkscape:pageopacity="0.0"
     inkscape:pageshadow="2"
     inkscape:zoom="0.35000001"
     inkscape:cx="-592.76889"
     inkscape:cy="-132.51601"
     inkscape:document-units="mm"
     inkscape:current-layer="layer1"
     showgrid="false"
     inkscape:window-width="1920"
     inkscape:window-height="1017"
     inkscape:window-x="-8"
     inkscape:window-y="-8"
     inkscape:window-maximized="1" />
  <metadata
     id="metadata889">
    <rdf:RDF>
      <cc:Work
         rdf:about="">
        <dc:format>image/svg+xml</dc:format>
        <dc:type
           rdf:resource="http://purl.org/dc/dcmitype/StillImage" />
        <dc:title />
      </cc:Work>
    </rdf:RDF>
  </metadata>
  <g
     inkscape:label="Layer 1"
     inkscape:groupmode="layer"
     id="layer1">
    <g
       id="g1567">
      <path
         id="path4-6-6-0-7-6-0-62-5"
         d="m -6.6078403,462.13099 c 0.019159,-0.055 0.048597,-0.12723 0.063831,-0.1835 0.011402,-0.0419 0.018878,-0.0996 0.028037,-0.14207 0.010187,-0.0473 0.023551,-0.11032 0.036635,-0.15693 0.027196,-0.0974 0.076261,-0.24654 0.2148385,-0.45791 0.038037,-0.0579 0.089345,-0.13523 0.1349891,-0.18721 0.017663,-0.0202 0.045513,-0.0427 0.065046,-0.0611 0.019533,-0.0184 0.045514,-0.0427 0.065139,-0.061 0.07299,-0.0686 0.094691,-0.0812 0.1489889,-0.16535 0,0 0.010467,-0.0913 -0.00935,-0.1613 0,0 -0.094438,-0.22566 -0.2142685,-0.4377 0,0 -0.448275,-0.73702 -0.4980781,-0.81887 0.2471185,-0.23597 0.8188313,-0.77102 1.3472081,-1.04875 0,0 0.2577633,-0.12705 0.3056786,-0.14364 0.062896,-0.0218 0.1224564,-0.0216 0.1889603,-0.0201 0.00972,0.006 0.102382,0.0561 0.1837174,0.13681 0.043738,0.0434 0.09641,0.10684 0.1364563,0.15386 l 0.2751276,0.34176 c 0,0 0.5496008,0.69231 0.5784323,0.72885 0,0 2.67156592,3.42452 4.07848346,5.29289 0,0 0.58891814,0.78802 0.71316894,1.00013 0.00841,0.0144 0.1142604,0.20826 0.1382601,0.3062 0.034673,0.14149 0.013177,0.22647 -0.050841,0.31971 -0.051869,0.0755 -0.1554561,0.15618 -0.2719314,0.24455 0,0 -0.44377024,0.31805 -0.68064594,0.49215 l -1.35687144,0.99709 c -1.69769912,1.24767 -10.21104392,7.45357 -16.90572992,12.57434 0,0 -1.42674,1.09123 -1.501851,1.14874 -0.02794,0.0214 -0.419696,0.32392 -0.576797,0.40263 -0.0885,0.0443 -0.0929,0.0535 -0.191577,0.0492 -0.03392,-0.0287 -0.08187,-0.0639 -0.112784,-0.0959 -0.03916,-0.0403 -0.08243,-0.10215 -0.117129,-0.14654 -0.04084,-0.0523 -0.09411,-0.12309 -0.13441,-0.17581 l -0.268819,-0.35173 c -0.132279,-0.17459 -1.849314,-2.44698 -2.583362,-3.53723 -0.06308,-0.0936 -0.141131,-0.22252 -0.206981,-0.3141 -0.135727,-0.18894 -0.330576,-0.43035 -0.477275,-0.61071 -0.09112,-0.11196 -0.213698,-0.26031 -0.310594,-0.36732 0,0 -0.220409,-0.25049 -0.335819,-0.33267 -0.05804,-0.0413 -0.180194,-0.11699 -0.349911,-0.0634 -0.248502,0.0783 -0.544349,0.3844 -0.757066,0.42763 -0.152923,0.0309 -0.247361,-0.0499 -0.354164,-0.16452 -0.04822,-0.0518 -0.541077,-0.65857 -0.847167,-1.13612 0,0 -0.107466,-0.16691 -0.138756,-0.24562 -0.01234,-0.0313 -0.01748,-0.0996 -0.01953,-0.13316 0.140138,-0.14571 0.138503,-0.14844 0.293632,-0.27773 0.04663,-0.0388 0.109101,-0.0902 0.155877,-0.12878 0,0 0.280034,-0.23209 0.311491,-0.25759 0.131456,-0.10652 2.130573,-1.66993 2.663454,-2.08709 l 1.069383,-0.83917 c 0.148259,-0.10503 0.328042,-0.22971 0.494068,-0.15652 0.09327,0.0411 0.192559,0.12541 0.306913,0.26971 0,0 0.152755,0.20685 0.160783,0.21774 0,0 0.288893,0.3915 0.344173,0.45708 0,0 0.08981,0.13094 0.199287,0.18491 0.231792,0.11427 0.491518,-0.0701 0.560489,-0.12187 0,0 0.167503,-0.12789 0.234007,-0.24686 0.02682,-0.0479 0.03495,-0.09 0.04308,-0.13036 -0.01654,-0.0862 -0.02439,-0.14678 -0.08374,-0.28035 0,0 -0.21296,-0.4212 -0.224016,-0.44349 -0.01533,-0.0309 -0.198129,-0.34355 -0.226885,-0.65401 -0.03701,-0.39992 0.206979,-0.82334 0.22852,-0.86236 0.01308,-0.0238 0.128681,-0.2642 0.358183,-0.4085 0.199605,-0.12549 0.732337,-0.27747 1.171687,-0.10767 0.08056,0.0311 0.265539,0.12566 0.481779,0.31675 0.02692,0.0238 0.446144,0.42036 0.530676,0.48769 0.0771,0.0614 0.187568,0.13284 0.267913,0.18976 0,0 0.895325,-0.67052 1.586625,-1.26936 l 0.349501,-0.31641 c 0.121382,-0.12904 0.181829,-0.22657 0.125727,-0.37426 -0.06906,-0.18176 -0.278566,-0.45592 -0.496031,-0.83521 -0.0065,-0.0115 -0.10427,-0.20049 -0.119335,-0.23745 -0.0129,-0.032 -0.03206,-0.0745 -0.03794,-0.10858 -0.0056,-0.0317 -6.54e-4,-0.0749 -8.22e-4,-0.10709 0.01729,-0.0278 0.03748,-0.067 0.05748,-0.093 0.0229,-0.0297 0.05991,-0.0637 0.0857,-0.0911 0.0257,-0.0273 0.05963,-0.0639 0.08561,-0.091 0.07252,-0.0756 0.272913,-0.27144 0.514452,-0.47217 0.175204,-0.14554 0.444182,-0.37714 0.626675,-0.42764 0.17225,-0.0477 0.334267,0.0325 0.542965,0.24637 0.06121,0.0627 0.455238,0.53447 0.58375,0.65336 0,0 0.130316,0.10818 0.193876,0.14183 0.01916,0.0102 0.117046,0.0494 0.213372,0.0355 0.0772,-0.0111 0.18838,-0.063 0.350724,-0.17185 0.08654,-0.0579 0.313127,-0.20149 0.357688,-0.37887 0.01402,-0.0559 0.0028,-0.16544 -0.04925,-0.28334 -0.07832,-0.17475 -0.189867,-0.333 -0.404547,-0.64966 -0.01271,-0.0186 -0.202801,-0.29983 -0.23695,-0.3834 -0.02523,-0.0618 -0.03224,-0.11898 -0.04075,-0.21889 0.0093,-0.0255 0.03822,-0.13647 0.125316,-0.2396 0.04215,-0.0499 0.109513,-0.10602 0.158493,-0.14918 0.199933,-0.1759 0.505527,-0.3905 0.849215,-0.64182 0.04187,-0.0307 0.624702,-0.4726 0.861167,-0.57845 0.01841,-0.008 0.188222,-0.0812 0.387341,-0.11072 0.104429,-0.0154 0.355968,-0.0629 0.703664,-0.008 0.225409,0.0352 0.3608,0.0773 0.6080025,0.23629 0,0 0.3662014,0.26097 0.5321424,0.35833 0.06374,0.0375 0.107551,0.0623 0.2235297,0.10355 0,0 0.08243,-0.005 0.120317,-0.0249 0.02897,-0.0155 0.06252,-0.0451 0.08794,-0.066 l 0.194773,-0.17656 c 0.1941187,-0.17591 0.5277317,-0.52062 0.8006444,-0.67582 0.224754,-0.12771 0.6579634,-0.2419 0.6931032,-0.25312 0,0 0.2339224,-0.0797 0.3075571,-0.1165 0.1507084,-0.0752 0.1754464,-0.0905 0.2860993,-0.24241"
         style="fill:none;fill-opacity:1;stroke:#000000;stroke-width:0.43820882;stroke-linecap:round;stroke-linejoin:round;stroke-miterlimit:4;stroke-dasharray:none;stroke-opacity:1"
         inkscape:connector-curvature="0" />
      <path
         sodipodi:nodetypes="ccccccccccccscccccc"
         id="path6-7-7-9-9-7-9-9-9"
         d="m -277.7886,269.78418 9.4501,-0.0234 99.6861,-0.0182 c 57.2139,-0.0106 106.024596,-0.0244 108.467596,-0.0305 2.4432,-0.006 28.953146,0.0667 36.248746,0.0828 m 22.6472225,0 c 8.3198,0.0562 17.2486355,0.0855 17.7643355,0.47536 0.296,0.22387 0.6823,0.65004 0.8582,0.94705 0.291,0.49096 0.3201,10.75978 0.3199,113.27134 0,68.75351 -0.073,112.92496 -0.1871,113.22761 -0.103,0.27304 -0.5346,0.71382 -0.9592,0.9798 l -0.7718,0.48371 -166.0754,0.0277 c -91.3414,0.0153 -166.4081,-0.0376 -166.815,-0.11767 -0.9726,-0.19143 -1.7561,-0.72491 -1.9951,-1.35833 -0.1217,-0.3228 -0.1929,-42.05033 -0.1929,-113.12806 2e-4,-96.86902 0.0402,-112.71338 0.287,-113.30872 0.5895,-1.42159 0.6082,-1.42441 10.286,-1.4905 2.49719,-0.0171 6.97847,-0.0319 8.33408,-0.02"
         style="fill:none;fill-opacity:1;stroke:#000000;stroke-width:0.5;stroke-linecap:round;stroke-linejoin:round;stroke-miterlimit:4;stroke-dasharray:none;stroke-opacity:1"
         inkscape:connector-curvature="0" />
      <path
         id="path8-5-5-3-2-5-3-1-2"
         d="m -49.324429,277.73829 c 0.433895,-0.12805 1.059063,-0.57341 1.423764,-1.01439 0.531832,-0.64325 0.650196,-0.98078 0.650196,-1.85452 0,-0.91522 -0.100036,-1.17107 -0.699286,-1.78767 -0.384482,-0.3959 -1.024667,-0.81871 -1.422391,-0.93981 -0.884019,-0.26914 -7.746651,-0.27497 -9.051647,-0.008 -1.368538,0.28036 -2.326675,1.43796 -2.326675,2.81105 0,1.32038 0.974285,2.54596 2.227446,2.80215 1.259862,0.25756 8.317965,0.25053 9.198593,-0.009 z"
         style="fill:none;fill-opacity:1;stroke:#000000;stroke-width:0.5;stroke-linecap:round;stroke-linejoin:round;stroke-miterlimit:4;stroke-dasharray:none;stroke-opacity:1"
         inkscape:connector-curvature="0" />
      <path
         id="path10-3-3-6-0-3-6-2-2"
         d="m -301.11232,481.0661 c -0.027,-0.17956 -0.002,-0.28664 0.0439,-0.51614 0.0685,-0.34422 0.22138,-0.81627 0.39767,-1.35358 0.89484,-2.72606 1.49641,-4.5422 1.8049,-5.44827 1.75581,-0.003 2.78858,3.1e-4 3.09823,0.009 0.18885,0.009 0.3341,0.0152 0.43577,0.0199 0.17395,0.004 0.31755,0.0159 0.43094,0.0347 0.10008,0.0166 0.12687,0.0228 0.24085,0.0726 l 0.0446,0.0493 c 0.0206,0.10518 0.005,0.19751 -0.029,0.35474 -0.0759,0.34833 -0.21839,0.68344 -0.4772,1.35534 3.49198,0 29.68205,-0.016 34.91928,0.0573 0.12529,0.002 1.62836,0.019 2.50381,0.0592 0.25332,0.0117 0.64633,0.0237 1.24807,0.19978 0.4317,0.11409 0.8089,0.29614 1.13153,0.54621 0.0848,0.0657 0.44825,0.35175 0.63818,0.81898 0.14301,0.35182 0.16672,0.69051 0.12138,1.0619 -0.0116,0.0951 -0.0613,0.53935 -0.28253,0.92314 -0.12022,0.20869 -0.30233,0.43467 -0.5069,0.64008 -0.39076,0.39241 -0.81297,0.6738 -1.12528,0.84978 -0.0204,0.0115 -0.26939,0.14489 -0.4213,0.2116 -0.22312,0.0908 -0.36422,0.14351 -0.42321,0.15811 -0.35532,0.0878 -4.42783,0.12204 -7.38064,0.1338 -3.35031,0.0133 -28.47873,0.0596 -33.50365,-0.009 -0.2119,-0.003 -1.69525,-0.0289 -2.11812,-0.053 -0.28993,-0.0179 -0.48194,-0.0364 -0.57612,-0.0554 -0.0392,-0.008 -0.0921,-0.0189 -0.12795,-0.0348 -0.0206,-0.009 -0.0432,-0.0279 -0.0617,-0.04 z"
         style="fill:none;fill-opacity:1;stroke:#000000;stroke-width:0.41597024;stroke-linecap:round;stroke-linejoin:round;stroke-miterlimit:4;stroke-dasharray:none;stroke-opacity:1"
         inkscape:connector-curvature="0" />
      <path
         sodipodi:nodetypes="cccc"
         inkscape:connector-curvature="0"
         id="rect1540"
         d="m -277.7886,269.78418 v 10.64722 h -22.64722 v -10.64722"
         style="opacity:1;fill:none;fill-opacity:0.25116284;stroke:#000000;stroke-width:0.35277775;stroke-miterlimit:4;stroke-dasharray:none;stroke-opacity:1" />
      <path
         sodipodi:nodetypes="cccc"
         inkscape:connector-curvature="0"
         id="rect1540-8"
         d="m -1.2888355,269.79489 v 10.64722 H -23.936058 v -10.64722"
         style="opacity:1;fill:none;fill-opacity:0.25116284;stroke:#000000;stroke-width:0.35277775;stroke-miterlimit:4;stroke-dasharray:none;stroke-opacity:1" />
    </g>
  </g>
</svg>
