<?xml version="1.0" encoding="UTF-8" standalone="no"?>
<!-- exported from Silhouette Studio Business Edition V4.1.479ssbe -->

<svg
   xmlns:dc="http://purl.org/dc/elements/1.1/"
   xmlns:cc="http://creativecommons.org/ns#"
   xmlns:rdf="http://www.w3.org/1999/02/22-rdf-syntax-ns#"
   xmlns:svg="http://www.w3.org/2000/svg"
   xmlns="http://www.w3.org/2000/svg"
   xmlns:sodipodi="http://sodipodi.sourceforge.net/DTD/sodipodi-0.dtd"
   xmlns:inkscape="http://www.inkscape.org/namespaces/inkscape"
   version="1.1"
   width="1200mm"
   height="1200mm"
   viewBox="0 0 1200 1200"
   id="svg12"
   sodipodi:docname="T430_LID.svg"
   inkscape:version="0.92.3 (2405546, 2018-03-11)">
  <metadata
     id="metadata16">
    <rdf:RDF>
      <cc:Work
         rdf:about="">
        <dc:format>image/svg+xml</dc:format>
        <dc:type
           rdf:resource="http://purl.org/dc/dcmitype/StillImage" />
      </cc:Work>
    </rdf:RDF>
  </metadata>
  <sodipodi:namedview
     pagecolor="#ffffff"
     bordercolor="#666666"
     borderopacity="1"
     objecttolerance="10"
     gridtolerance="10"
     guidetolerance="10"
     inkscape:pageopacity="0"
     inkscape:pageshadow="2"
     inkscape:window-width="1920"
     inkscape:window-height="1017"
     id="namedview14"
     showgrid="false"
     inkscape:zoom="0.41627775"
     inkscape:cx="610.30293"
     inkscape:cy="3042.6543"
     inkscape:window-x="-8"
     inkscape:window-y="-8"
     inkscape:window-maximized="1"
     inkscape:current-layer="svg12"
     inkscape:snap-bbox="true"
     inkscape:bbox-paths="true"
     inkscape:bbox-nodes="true"
     inkscape:snap-bbox-edge-midpoints="true"
     inkscape:snap-bbox-midpoints="true" />
  <defs
     id="defs2" />
  <g
     id="g896">
    <path
       id="path4-0"
       d="m 399.45525,373.62159 c 0.0234,-0.0667 0.0593,-0.15419 0.0779,-0.2224 0.0139,-0.0508 0.023,-0.12069 0.0342,-0.1722 0.0124,-0.0573 0.0288,-0.13369 0.0447,-0.1902 0.0332,-0.1181 0.0931,-0.2988 0.2623,-0.55499 0.0464,-0.0702 0.1091,-0.1639 0.1648,-0.2269 0.0216,-0.0244 0.0556,-0.0518 0.0794,-0.074 0.0239,-0.0222 0.0556,-0.0518 0.0795,-0.074 0.0891,-0.0831 0.1156,-0.0983 0.1819,-0.20041 0,0 0.0128,-0.1107 -0.011,-0.19549 0,0 -0.1153,-0.2735 -0.2616,-0.53051 0,0 -0.5473,-0.8933 -0.6081,-0.9925 0.3017,-0.286 0.9997,-0.9345 1.6448,-1.2711 0,0 0.3147,-0.154 0.3732,-0.1741 0.0768,-0.0263 0.1495,-0.0261 0.2307,-0.0243 0.0119,0.007 0.125,0.0679 0.2243,0.1658 0.0534,0.0527 0.1177,0.1295 0.1666,0.1865 l 0.3359,0.41421 c 0,0 0.671,0.83909 0.7062,0.88339 0,0 3.2617,4.15061 4.9794,6.41511 0,0 0.719,0.9551 0.8707,1.21219 0.0104,0.0175 0.1395,0.25241 0.1688,0.37111 0.0423,0.17149 0.0161,0.2745 -0.0621,0.38749 -0.0633,0.0915 -0.1898,0.1893 -0.332,0.29641 0,0 -0.5418,0.38549 -0.831,0.5965 l -1.6566,1.20849 c -2.0727,1.5122 -12.4666,9.0339 -20.6401,15.2404 0,0 -1.7419,1.32261 -1.8336,1.3923 -0.0341,0.0259 -0.5124,0.3926 -0.7042,0.48801 -0.1081,0.0537 -0.1134,0.0649 -0.2339,0.0597 -0.0414,-0.0348 -0.0999,-0.0775 -0.1377,-0.11621 -0.0478,-0.0489 -0.1006,-0.12379 -0.143,-0.17759 -0.0499,-0.0634 -0.1149,-0.1492 -0.1641,-0.2131 l -0.3282,-0.42631 c -0.1615,-0.21159 -2.2578,-2.96579 -3.154,-4.2872 -0.077,-0.11339 -0.1723,-0.26969 -0.2527,-0.38069 -0.1657,-0.229 -0.4036,-0.5216 -0.5827,-0.74021 -0.1112,-0.13569 -0.2609,-0.31549 -0.3792,-0.4452 0,0 -0.2691,-0.30359 -0.41,-0.40319 -0.0709,-0.0501 -0.22,-0.1418 -0.4272,-0.0769 -0.3034,0.0949 -0.6646,0.46589 -0.9243,0.51829 -0.1867,0.0376 -0.302,-0.0605 -0.4324,-0.1994 -0.0589,-0.0628 -0.6606,-0.7982 -1.0343,-1.377 0,0 -0.1312,-0.2023 -0.1694,-0.2977 -0.0151,-0.0379 -0.0214,-0.1207 -0.0239,-0.1614 0.1711,-0.1766 0.1691,-0.1799 0.3585,-0.3366 0.0569,-0.047 0.1332,-0.1093 0.1903,-0.1561 0,0 0.3419,-0.2813 0.3803,-0.3122 0.1605,-0.1291 2.6012,-2.024 3.2518,-2.5296 l 1.3056,-1.0171 c 0.181,-0.1273 0.4005,-0.2784 0.6032,-0.1897 0.1139,0.0499 0.2351,0.152 0.3747,0.3269 0,0 0.1865,0.2507 0.1963,0.2639 0,0 0.3527,0.4745 0.4202,0.554 0,0 0.1096,0.1587 0.2433,0.2241 0.283,0.1385 0.6001,-0.0849 0.6843,-0.1477 0,0 0.2045,-0.155 0.2857,-0.2992 0.0327,-0.0581 0.0427,-0.1091 0.0526,-0.158 -0.0202,-0.1045 -0.0298,-0.1779 -0.1022,-0.3398 0,0 -0.26,-0.5105 -0.2735,-0.5375 -0.0187,-0.0376 -0.2419,-0.4164 -0.277,-0.7927 -0.0452,-0.4847 0.2527,-0.9979 0.279,-1.0452 0.016,-0.0289 0.1571,-0.3202 0.4373,-0.4951 0.2437,-0.1521 0.8941,-0.3363 1.4305,-0.1305 0.0984,0.0377 0.3242,0.1523 0.5882,0.3839 0.0329,0.0289 0.5447,0.5095 0.6479,0.5911 0.0941,0.0744 0.229,0.161 0.3271,0.23 0,0 1.0931,-0.8127 1.9371,-1.5385 l 0.4267,-0.3835 c 0.1482,-0.1564 0.222,-0.2746 0.1535,-0.4536 -0.0843,-0.2203 -0.3401,-0.5526 -0.6056,-1.0123 -0.008,-0.0139 -0.1273,-0.243 -0.1457,-0.2878 -0.0158,-0.0387 -0.0391,-0.0903 -0.0463,-0.1316 -0.007,-0.0383 -8e-4,-0.0908 -10e-4,-0.1298 0.0211,-0.0338 0.0458,-0.0812 0.0702,-0.1127 0.0279,-0.0361 0.0732,-0.0773 0.1046,-0.1104 0.0314,-0.0331 0.0728,-0.0775 0.1045,-0.1103 0.0886,-0.0916 0.3332,-0.329 0.6281,-0.5723 0.2139,-0.1764 0.5423,-0.4571 0.7651,-0.5183 0.2103,-0.0578 0.4081,0.0394 0.6629,0.2986 0.0747,0.076 0.5558,0.6478 0.7127,0.7919 0,0 0.1591,0.1311 0.2367,0.1719 0.0234,0.0123 0.1429,0.0599 0.2605,0.043 0.0943,-0.0135 0.23,-0.0764 0.4282,-0.2083 0.1056,-0.0702 0.3823,-0.2442 0.4367,-0.4592 0.0171,-0.0676 0.004,-0.2005 -0.0601,-0.3434 -0.0956,-0.2118 -0.2318,-0.4036 -0.4939,-0.7874 -0.0155,-0.0226 -0.2476,-0.3634 -0.2893,-0.4647 -0.0308,-0.0749 -0.0394,-0.1442 -0.0497,-0.2653 0.0111,-0.0309 0.0467,-0.1654 0.153,-0.2904 0.0515,-0.0605 0.1337,-0.1285 0.1935,-0.1808 0.2441,-0.2132 0.6172,-0.4733 1.0368,-0.7779 0.0511,-0.0372 0.7627,-0.5728 1.0514,-0.7011 0.0225,-0.01 0.2298,-0.0984 0.4729,-0.1342 0.1275,-0.0187 0.4346,-0.0762 0.8591,-0.0103 0.2752,0.0427 0.4405,0.0937 0.7423,0.2864 0,0 0.4471,0.3163 0.6497,0.4343 0.0778,0.0454 0.1313,0.0755 0.2729,0.1255 0,0 0.1006,-0.006 0.1469,-0.0302 0.0354,-0.0188 0.0763,-0.0546 0.1074,-0.08 l 0.2378,-0.214 c 0.237,-0.2132 0.6443,-0.631 0.9775,-0.8191 0.2744,-0.1548 0.8033,-0.2932 0.8462,-0.3068 0,0 0.2856,-0.0967 0.3755,-0.1412 0.184,-0.0912 0.2142,-0.1098 0.3493,-0.2938"
       style="fill:none;fill-opacity:1;stroke:#000000;stroke-width:0.5;stroke-linecap:round;stroke-linejoin:round;stroke-miterlimit:4;stroke-dasharray:none;stroke-opacity:1"
       inkscape:connector-curvature="0" />
    <path
       id="path6-93"
       d="m 130.73858,185.56147 107.2061,-0.0224 c 57.2139,-0.0105 106.0246,-0.0242 108.4676,-0.0303 2.4432,-0.006 26.94609,0.18674 34.24169,0.20273 m 25.64722,0 c 8.3198,0.0558 16.25569,-0.0356 16.77139,0.35137 0.296,0.2222 0.6823,0.6452 0.8582,0.94 0.291,0.4873 0.3201,10.6796 0.3199,112.4273 0,68.2412 -0.073,112.0835 -0.1871,112.3839 -0.103,0.271 -0.5346,0.7085 -0.9592,0.9725 l -0.7718,0.4801 -166.0754,0.0275 c -91.3414,0.0152 -166.408096,-0.0373 -166.814996,-0.1168 -0.9726,-0.19 -1.7561,-0.7195 -1.9951,-1.3482 -0.1217,-0.3204 -0.1929,-41.737 -0.1929,-112.2851 2e-4,-96.1472 0.0402,-111.8735 0.287,-112.4644 0.5895,-1.411 7.87238,-1.45256 17.550176,-1.51816"
       style="fill:none;fill-opacity:1;stroke:#000000;stroke-width:0.5;stroke-linecap:round;stroke-linejoin:round;stroke-miterlimit:4;stroke-dasharray:none;stroke-opacity:1"
       inkscape:connector-curvature="0"
       sodipodi:nodetypes="cccccccccccsccccc" />
    <path
       id="path8-6"
       d="m 357.11377,192.43055 c 0.4339,-0.11738 1.05906,-0.52563 1.42376,-0.92986 0.53184,-0.58966 0.6502,-0.89906 0.6502,-1.69999 0,-0.83896 -0.10004,-1.07349 -0.69929,-1.6387 -0.38448,-0.36292 -1.02466,-0.75049 -1.42239,-0.86151 -0.88402,-0.24671 -7.74665,-0.25206 -9.05164,-0.007 -1.36854,0.257 -2.32668,1.31815 -2.32668,2.57682 0,1.21035 0.97429,2.3338 2.22745,2.56865 1.25986,0.23609 8.31796,0.22965 9.19859,-0.008 z"
       style="fill:none;fill-opacity:1;stroke:#000000;stroke-width:0.5;stroke-linecap:round;stroke-linejoin:round;stroke-miterlimit:4;stroke-dasharray:none;stroke-opacity:1"
       inkscape:connector-curvature="0" />
    <path
       id="path10-0"
       d="m 103.44281,397.26256 c -0.0325,-0.246 -0.002,-0.3927 0.0528,-0.7071 0.0823,-0.4716 0.2661,-1.1183 0.478,-1.8544 1.0756,-3.7347 1.7987,-6.2228 2.1695,-7.4641 2.1105,-0.004 3.3519,4.1e-4 3.7241,0.0119 0.227,0.0118 0.4016,0.0209 0.5238,0.0273 0.2091,0.006 0.3817,0.0218 0.518,0.0475 0.1203,0.0228 0.1525,0.0312 0.2895,0.0995 l 0.0536,0.0676 c 0.0247,0.1441 0.006,0.2706 -0.0348,0.486 -0.0912,0.47719 -0.2625,0.9363 -0.5736,1.8568 4.1974,0 35.6781,-0.022 41.9733,0.0785 0.1506,0.002 1.9573,0.026 3.0096,0.0811 0.3045,0.016 0.7769,0.0325 1.5002,0.2737 0.5189,0.1563 0.9723,0.4057 1.3601,0.7483 0.1019,0.0899 0.5388,0.4819 0.7671,1.122 0.1719,0.482 0.2004,0.946 0.1459,1.4548 -0.0139,0.1303 -0.0737,0.7389 -0.3396,1.2647 -0.1445,0.2859 -0.3634,0.5955 -0.6093,0.8769 -0.4697,0.5376 -0.9772,0.9231 -1.3526,1.16419 -0.0245,0.0158 -0.3238,0.19851 -0.5064,0.2899 -0.2682,0.12441 -0.4378,0.1966 -0.5087,0.21661 -0.4271,0.12029 -5.3223,0.1672 -8.8716,0.18329 -4.0271,0.0183 -34.2317,0.0818 -40.2717,-0.0115 -0.2547,-0.004 -2.0377,-0.0395 -2.546,-0.0726 -0.3485,-0.0246 -0.5793,-0.0499 -0.6925,-0.0758 -0.0471,-0.0108 -0.1107,-0.0258 -0.1538,-0.0477 -0.0247,-0.0125 -0.0519,-0.0384 -0.0742,-0.0548 z"
       style="fill:none;fill-opacity:1;stroke:#000000;stroke-width:0.5;stroke-linecap:round;stroke-linejoin:round;stroke-miterlimit:4;stroke-dasharray:none;stroke-opacity:1"
       inkscape:connector-curvature="0" />
    <path
       style="opacity:1;fill:none;fill-opacity:0.25116284;stroke:#000000;stroke-width:0.35277778;stroke-miterlimit:4;stroke-dasharray:none;stroke-opacity:1"
       d="m 380.65397,185.71149 v 9.64722 h 25.64722 v -9.64722"
       id="rect859-5"
       inkscape:connector-curvature="0"
       sodipodi:nodetypes="cccc" />
    <path
       sodipodi:nodetypes="cccc"
       inkscape:connector-curvature="0"
       id="rect859"
       d="m 130.73858,185.56146 v 9.64722 h -25.64722 l 0,-9.64722"
       style="opacity:1;fill:none;fill-opacity:0.25116284;stroke:#000000;stroke-width:0.35277778;stroke-miterlimit:4;stroke-dasharray:none;stroke-opacity:1" />
  </g>
</svg>
