<?xml version="1.0" encoding="UTF-8" standalone="no"?>
<!-- exported from Silhouette Studio® Business Edition V4.3.370ssbe -->

<svg
   xmlns:dc="http://purl.org/dc/elements/1.1/"
   xmlns:cc="http://creativecommons.org/ns#"
   xmlns:rdf="http://www.w3.org/1999/02/22-rdf-syntax-ns#"
   xmlns:svg="http://www.w3.org/2000/svg"
   xmlns="http://www.w3.org/2000/svg"
   xmlns:sodipodi="http://sodipodi.sourceforge.net/DTD/sodipodi-0.dtd"
   xmlns:inkscape="http://www.inkscape.org/namespaces/inkscape"
   version="1.1"
   width="594mm"
   height="841mm"
   viewBox="0 0 594.00002 841"
   id="svg6"
   sodipodi:docname="T460S_T470S_LID.svg"
   inkscape:version="0.92.3 (2405546, 2018-03-11)">
  <metadata
     id="metadata10">
    <rdf:RDF>
      <cc:Work
         rdf:about="">
        <dc:format>image/svg+xml</dc:format>
        <dc:type
           rdf:resource="http://purl.org/dc/dcmitype/StillImage" />
        <dc:title />
      </cc:Work>
    </rdf:RDF>
  </metadata>
  <sodipodi:namedview
     pagecolor="#ffffff"
     bordercolor="#666666"
     borderopacity="1"
     objecttolerance="10"
     gridtolerance="10"
     guidetolerance="10"
     inkscape:pageopacity="0"
     inkscape:pageshadow="2"
     inkscape:window-width="1920"
     inkscape:window-height="1017"
     id="namedview8"
     showgrid="false"
     inkscape:zoom="0.41627778"
     inkscape:cx="724.74095"
     inkscape:cy="1745.3693"
     inkscape:window-x="-8"
     inkscape:window-y="-8"
     inkscape:window-maximized="1"
     inkscape:current-layer="svg6" />
  <defs
     id="defs2" />
  <g
     id="g823">
    <path
       id="path821"
       d="m 113.69676,519.73585 c -0.87749,-0.22457 -1.6823,-0.84938 -2.02954,-1.57576 -0.35366,-0.73984 -0.36816,-5.24749 -0.3551,-110.36697 0.008,-60.27765 0.0702,-109.94834 0.13897,-110.37947 0.13423,-0.83952 1.08042,-1.95004 1.80997,-2.12458 0.22773,-0.0544 73.4569,-0.0739 162.7315,-0.0432 l 162.31755,0.0555 0.72253,0.74363 c 0.41066,0.4228 0.77562,1.04154 0.84577,1.43382 0.0677,0.37959 0.0969,50.04573 0.065,110.36924 l -0.058,109.67943 -0.42013,0.71672 c -0.24799,0.42336 -0.79325,0.90471 -1.33188,1.17571 l -0.91193,0.45861 -161.56829,-0.0216 c -88.8625,-0.0114 -161.74297,-0.0663 -161.95651,-0.12109 z"
       style="fill:none;fill-opacity:1;stroke:#000000;stroke-width:0.35277778;stroke-linecap:round;stroke-linejoin:round;stroke-miterlimit:4;stroke-dasharray:none;stroke-opacity:1"
       inkscape:connector-curvature="0" />
    <path
       inkscape:connector-curvature="0"
       id="path819"
       d="m 433.03461,508.95577 c 0.18324,-0.22547 0.22352,-1.80062 0.25332,-9.91539 0.0528,-14.34115 0.006,-20.69035 -0.15499,-20.99169 -0.29584,-0.55442 -6.05946,-0.55128 -6.35936,0.003 -0.0877,0.16233 -0.12868,6.18489 -0.10603,15.59065 0.0322,13.39266 0.0654,15.34834 0.26367,15.50306 0.13555,0.10595 1.36464,0.1572 3.05618,0.12744 2.27747,-0.0399 2.87195,-0.10182 3.04721,-0.31754 z"
       style="fill:none;fill-opacity:1;stroke:#000000;stroke-width:0.35277778;stroke-linecap:round;stroke-linejoin:round;stroke-miterlimit:4;stroke-dasharray:none;stroke-opacity:1" />
    <path
       inkscape:connector-curvature="0"
       id="path4"
       d="m 135.65103,338.65734 c 1.23884,-0.94824 3.39528,-2.50984 4.55946,-3.302 0.5919,-0.40275 1.14654,-0.84053 1.23251,-0.97291 0.0861,-0.1326 0.47341,-0.3697 0.86097,-0.52718 0.38755,-0.15747 0.83117,-0.46068 0.98586,-0.6737 0.15474,-0.21302 0.42411,-0.38741 0.59867,-0.38741 0.17466,0 0.36827,-0.13259 0.43042,-0.29445 0.10112,-0.26358 0.90105,-0.93091 4.68738,-3.91018 0.60783,-0.47841 1.58947,-1.18018 2.18137,-1.55943 1.00509,-0.64423 1.76004,-1.23073 2.7981,-2.17358 0.23675,-0.21501 0.98741,-0.75334 1.66809,-1.19629 0.6807,-0.44297 1.23762,-0.88632 1.23762,-0.98528 0,-0.0987 0.21796,-0.24784 0.4843,-0.33107 0.26635,-0.0832 0.67801,-0.33963 0.91477,-0.56957 0.23674,-0.23014 0.89054,-0.75393 1.45284,-1.16404 0.64665,-0.47163 1.02239,-0.90841 1.02239,-1.18833 0,-0.24348 -0.44365,-0.93589 -0.98589,-1.53891 -0.54225,-0.60282 -1.16154,-1.44016 -1.37618,-1.86043 -0.21461,-0.42046 -0.59426,-0.94883 -0.84361,-1.17419 -0.24936,-0.22537 -0.45337,-0.54012 -0.45337,-0.69939 0,-0.15905 -0.21793,-0.50387 -0.48428,-0.76625 -0.26636,-0.26221 -0.83942,-1.04799 -1.27344,-1.74617 -1.21332,-1.95181 -1.78845,-2.09435 -3.24529,-0.8041 l -0.59061,0.52319 0.45045,0.41948 c 0.34601,0.32231 0.41953,0.57415 0.31707,1.08619 -0.16151,0.80728 -1.47289,2.20365 -2.25066,2.39636 -0.31034,0.077 -0.77896,0.34043 -1.0414,0.58531 -0.40602,0.37865 -0.65674,0.42664 -1.68112,0.32092 -1.46825,-0.1515 -2.78726,0.20983 -3.63554,0.99561 -0.58245,0.53951 -0.59878,0.59925 -0.26531,0.96755 0.41326,0.45649 0.47266,1.76905 0.097,2.14452 -0.41764,0.41748 -1.16759,0.29822 -1.87658,-0.29802 -0.54845,-0.46128 -0.76233,-0.5228 -1.25413,-0.35994 -0.72544,0.24008 -0.91892,1.17896 -0.36831,1.78716 0.48092,0.53115 0.29109,1.23053 -0.55372,2.0396 -0.56986,0.5459 -0.83594,0.63966 -1.81483,0.63966 -0.79041,0 -1.27651,-0.11726 -1.56331,-0.37667 -0.54145,-0.48975 -1.03729,-0.4758 -1.77615,0.0503 -0.75578,0.53791 -0.91458,1.29543 -0.40373,1.92613 0.35622,0.43977 0.36194,0.53633 0.066,1.10848 -0.38383,0.74199 -0.59435,0.76628 -1.71229,0.1965 -0.46444,-0.23671 -1.00253,-0.38024 -1.19575,-0.31892 -0.19316,0.0614 -1.01766,0.64223 -1.83207,1.29105 -0.8144,0.64882 -1.54849,1.17957 -1.63131,1.17957 -0.30847,0 -1.47487,1.33724 -1.4688,1.68403 0.004,0.1981 0.29268,0.6747 0.64268,1.05933 0.49864,0.54788 0.80845,0.69918 1.43153,0.69918 0.66486,0 0.9424,0.15827 1.6942,0.96516 0.77812,0.83534 2.07218,2.59524 3.37887,4.59524 0.42419,0.6494 0.98844,1.10969 1.3599,1.10969 0.1386,0 0.6,-0.26619 1.02521,-0.59168 z"
       style="fill:none;fill-opacity:1;stroke:#000000;stroke-width:0.35277781;stroke-linecap:round;stroke-linejoin:round;stroke-miterlimit:4;stroke-dasharray:none;stroke-opacity:1" />
  </g>
</svg>
