<?xml version="1.0" encoding="utf-8"?>
<!-- Generator: Adobe Illustrator 24.2.2, SVG Export Plug-In . SVG Version: 6.00 Build 0)  -->
<svg version="1.1" id="Layer_1" xmlns="http://www.w3.org/2000/svg" xmlns:xlink="http://www.w3.org/1999/xlink" x="0px" y="0px"
	 viewBox="0 0 1222.7 791.1" style="enable-background:new 0 0 1222.7 791.1;" xml:space="preserve">
<style type="text/css">
	.st0{fill:none;stroke:#000000;stroke-width:1;stroke-linecap:round;stroke-linejoin:round;stroke-miterlimit:11.3386;}
</style>
<path class="st0" d="M618.6,9.8c0.2,0.1,0.3,0.2,0.6,0.3c0.2,0,0.4,0.1,0.5,0.1c0.4,0.1,0.8,0.2,1.5,0.5c0.4,0.2,1,0.6,1.4,1
	c0.3,0.3,0.4,0.4,0.7,0.7c0,0,0.2,0.2,0.4,0.3c0.1,0,0.3,0,0.6,0c0.3-0.1,1-0.4,1.5-0.7c0,0,2.5-1.5,2.8-1.7
	c1.3,1.5,2.4,2.7,3.5,4.4c0.3,0.5,0.4,0.7,0.7,1.4c0,0,0.4,0.7,0.3,1.1c0,0.1-0.2,0.4-0.5,0.6c-0.7,0.7-4.9,4.1-4.9,4.1
	c-2.2,1.8-7.4,5.9-14.8,11.7c-0.3,0.2-4,3.1-5.1,3.9c0,0-0.9,0.6-1.6,0.8c-0.6,0.2-1-0.1-1.4-0.5c-0.1-0.1-0.4-0.4-0.7-0.8
	c-0.3-0.4-0.6-0.8-0.8-1.2c-0.7-1-1.6-2.2-2.3-3.2c0,0-19.5-27-27.9-38.5c-2.3-3.1-12.4-17.1-22.9-30.8c-0.3-0.3-1.9-2.4-2.6-3.5
	l-0.3-0.6c0,0-0.2-0.4-0.1-0.6c0.1-0.2,0.4-0.4,0.8-0.8c2.9-2.3,11.2-8.5,11.8-8.9c0.6-0.4,1.1-0.8,2-1.4c0.7-0.4,1.1-0.8,2.2-1.6
	c0.1-0.1,1.8-1.4,2.7-2.3c0,0,0.5-0.5,0.6-0.8c0.1-0.1,0.2-0.5,0.1-0.9c0-0.1-0.1-0.4-0.4-0.8c-0.6-1-1.4-1.8-1.3-2.5
	c0-0.3,0.3-0.6,0.5-0.9c0.3-0.3,1.2-1,2-1.6c0.4-0.3,0.9-0.7,1.3-0.9c0.3-0.2,0.6-0.4,0.9-0.6c0.1-0.1,0.2-0.1,0.3-0.2
	c0,0,0.2-0.1,0.5-0.1c0,0,0.1,0,0.2,0c0.3,0.2,0.3,0.3,0.6,0.6c0.1,0.1,0.3,0.4,0.4,0.5l0.8,1c1.6,2,8.4,11,10.6,13.8
	c0.1,0.2,1,1.2,1.2,1.9c0.1,0.3,0.1,0.7-0.2,1.1c-0.3,0.5-0.9,0.9-1.8,1.5c-0.3,0.2-1.4,1-1.7,1.4c-0.2,0.2-0.3,0.6-0.3,0.9
	c0,0.3,0.2,0.8,0.7,1.5c0,0.1,0.4,0.6,0.9,0.9c0,0,0.2,0.1,0.3,0.1c0.5,0,1.3-0.4,1.9-0.7c0.9-0.5,2-1.1,3.2-1.1
	c0.3,0,0.9,0.1,1.7,0.4c0,0,0.7,0.3,1.3,0.7c0,0,0.6,0.4,1,1c0,0,0.3,0.4,0.4,0.7c0.1,0.3,0.4,1,0.4,1.9c0,0.2,0,0.7,0,1.2
	c-0.2,1.4-1.2,2.4-1.5,2.7c0,0-0.9,1-1.3,1.5c-0.2,0.2-0.4,0.6-0.6,0.9c1.1,1.4,4.1,5.4,5.6,7.1c0.1,0.1,0.5,0.6,0.9,0.7
	c0.3,0.1,0.6-0.1,1.2-0.4c0,0,1-0.7,1.1-0.7c0.4-0.3,1.6-1,2.2-1.2c0.3-0.1,0.4,0,0.7,0.2c0.4,0.4,1.3,1.3,2.5,2.7
	c0.1,0.1,0.9,1.2,1.2,1.7c0.1,0.1,0.3,0.6,0.2,1c-0.1,0.4-0.3,0.7-0.8,1.3c-0.8,0.8-2.3,1.8-2.7,2.7c-0.1,0.2-0.2,0.5-0.1,0.8
	c0.1,0.4,0.4,0.8,0.6,1.2c0.5,0.8,1,1.4,1.6,1.4c0.3,0,0.6-0.1,1-0.3c0.9-0.5,2.2-1.5,2.8-1.8c0.1-0.1,0.7-0.4,1.2-0.4
	c0.2,0,0.5,0.2,0.8,0.5c0.6,0.6,1.7,2.1,2.6,3.4c0.1,0.1,1.5,2,1.9,2.7c0,0,0.4,0.6,0.6,1c0.3,0.7,0.4,1.7,0.5,2.2c0,0,0.1,1,0,2
	c0,0.2-0.1,0.6-0.3,1.1c-0.1,0.3-0.2,0.5-0.6,1c0,0-0.6,0.9-0.9,1.4c0,0-0.2,0.3-0.3,0.7c-0.1,0.2-0.2,0.4,0,0.8
	c0.1,0.1,0.3,0.4,0.7,0.8c0.5,0.5,1.1,1.2,1.5,1.7c0.5,0.6,1,1.2,1.4,2.1c0.2,0.4,0.7,2,0.7,2c0,0.1,0.3,1.1,0.8,1.6
	C618.2,9.6,618.3,9.7,618.6,9.8z"/>
<path class="st0" d="M30.4,825.7c0,5.1,4.4,9.2,9.8,9.2h630.1c5.4,0,9.8-4.1,9.8-9.2l0-928.3c0-5.1-4.4-9.2-9.8-9.2H40.2
	c-5.4,0-9.8,4.1-9.8,9.2L30.4,825.7z"/>
<path class="st0" d="M1277.9,9.8c0.2,0.1,0.3,0.2,0.6,0.3c0.2,0,0.4,0.1,0.5,0.1c0.4,0.1,0.8,0.2,1.5,0.5c0.4,0.2,1,0.6,1.4,1
	c0.3,0.3,0.4,0.4,0.7,0.7c0,0,0.2,0.2,0.4,0.3c0.1,0,0.3,0,0.6,0c0.3-0.1,1-0.4,1.5-0.7c0,0,2.5-1.5,2.8-1.7
	c1.3,1.5,2.4,2.7,3.5,4.4c0.3,0.5,0.4,0.7,0.7,1.4c0,0,0.4,0.7,0.3,1.1c0,0.1-0.2,0.4-0.5,0.6c-0.7,0.7-4.9,4.1-4.9,4.1
	c-2.2,1.8-7.4,5.9-14.8,11.7c-0.3,0.2-4,3.1-5.1,3.9c0,0-0.9,0.6-1.6,0.8c-0.6,0.2-1-0.1-1.4-0.5c-0.1-0.1-0.4-0.4-0.7-0.8
	c-0.3-0.4-0.6-0.8-0.8-1.2c-0.7-1-1.6-2.2-2.3-3.2c0,0-19.5-27-27.9-38.5c-2.3-3.1-12.4-17.1-22.9-30.8c-0.3-0.3-1.9-2.4-2.6-3.5
	l-0.3-0.6c0,0-0.2-0.4-0.1-0.6c0.1-0.2,0.4-0.4,0.8-0.8c2.9-2.3,11.2-8.5,11.8-8.9c0.6-0.4,1.1-0.8,2-1.4c0.7-0.4,1.1-0.8,2.2-1.6
	c0.1-0.1,1.8-1.4,2.7-2.3c0,0,0.5-0.5,0.6-0.8c0.1-0.1,0.2-0.5,0.1-0.9c0-0.1-0.1-0.4-0.4-0.8c-0.6-1-1.4-1.8-1.3-2.5
	c0-0.3,0.3-0.6,0.5-0.9c0.3-0.3,1.2-1,2-1.6c0.4-0.3,0.9-0.7,1.3-0.9c0.3-0.2,0.6-0.4,0.9-0.6c0.1-0.1,0.2-0.1,0.3-0.2
	c0,0,0.2-0.1,0.5-0.1c0,0,0.1,0,0.2,0c0.3,0.2,0.3,0.3,0.6,0.6c0.1,0.1,0.3,0.4,0.4,0.5l0.8,1c1.6,2,8.4,11,10.6,13.8
	c0.1,0.2,1,1.2,1.2,1.9c0.1,0.3,0.1,0.7-0.2,1.1c-0.3,0.5-0.9,0.9-1.8,1.5c-0.3,0.2-1.4,1-1.7,1.4c-0.2,0.2-0.3,0.6-0.3,0.9
	c0,0.3,0.2,0.8,0.7,1.5c0,0.1,0.4,0.6,0.9,0.9c0,0,0.2,0.1,0.3,0.1c0.5,0,1.3-0.4,1.9-0.7c0.9-0.5,2-1.1,3.2-1.1
	c0.3,0,0.9,0.1,1.7,0.4c0,0,0.7,0.3,1.3,0.7c0,0,0.6,0.4,1,1c0,0,0.3,0.4,0.4,0.7c0.1,0.3,0.4,1,0.4,1.9c0,0.2,0,0.7,0,1.2
	c-0.2,1.4-1.2,2.4-1.5,2.7c0,0-0.9,1-1.3,1.5c-0.2,0.2-0.4,0.6-0.6,0.9c1.1,1.4,4.1,5.4,5.6,7.1c0.1,0.1,0.5,0.6,0.9,0.7
	c0.3,0.1,0.6-0.1,1.2-0.4c0,0,1-0.7,1.1-0.7c0.4-0.3,1.6-1,2.2-1.2c0.3-0.1,0.4,0,0.7,0.2c0.4,0.4,1.3,1.3,2.5,2.7
	c0.1,0.1,0.9,1.2,1.2,1.7c0.1,0.1,0.3,0.6,0.2,1c-0.1,0.4-0.3,0.7-0.8,1.3c-0.8,0.8-2.3,1.8-2.7,2.7c-0.1,0.2-0.2,0.5-0.1,0.8
	c0.1,0.4,0.4,0.8,0.6,1.2c0.5,0.8,1,1.4,1.6,1.4c0.3,0,0.6-0.1,1-0.3c0.9-0.5,2.2-1.5,2.8-1.8c0.1-0.1,0.7-0.4,1.2-0.4
	c0.2,0,0.5,0.2,0.8,0.5c0.6,0.6,1.7,2.1,2.6,3.4c0.1,0.1,1.5,2,1.9,2.7c0,0,0.4,0.6,0.6,1c0.3,0.7,0.4,1.7,0.5,2.2c0,0,0.1,1,0,2
	c0,0.2-0.1,0.6-0.3,1.1c-0.1,0.3-0.2,0.5-0.6,1c0,0-0.6,0.9-0.9,1.4c0,0-0.2,0.3-0.3,0.7c-0.1,0.2-0.2,0.4,0,0.8
	c0.1,0.1,0.3,0.4,0.7,0.8c0.5,0.5,1.1,1.2,1.5,1.7c0.5,0.6,1,1.2,1.4,2.1c0.2,0.4,0.7,2,0.7,2c0,0.1,0.3,1.1,0.8,1.6
	C1277.6,9.6,1277.6,9.7,1277.9,9.8z"/>
<path class="st0" d="M689.7,825.7c0,5.1,4.4,9.2,9.8,9.2h630.1c5.4,0,9.8-4.1,9.8-9.2l0-928.3c0-5.1-4.4-9.2-9.8-9.2H699.5
	c-5.4,0-9.8,4.1-9.8,9.2L689.7,825.7z"/>
<path class="st0" d="M1941.8,9.8c0.2,0.1,0.3,0.2,0.6,0.3c0.2,0,0.4,0.1,0.5,0.1c0.4,0.1,0.8,0.2,1.5,0.5c0.4,0.2,1,0.6,1.4,1
	c0.3,0.3,0.4,0.4,0.7,0.7c0,0,0.2,0.2,0.4,0.3c0.1,0,0.3,0,0.6,0c0.3-0.1,1-0.4,1.5-0.7c0,0,2.5-1.5,2.8-1.7
	c1.3,1.5,2.4,2.7,3.5,4.4c0.3,0.5,0.4,0.7,0.7,1.4c0,0,0.4,0.7,0.3,1.1c0,0.1-0.2,0.4-0.5,0.6c-0.7,0.7-4.9,4.1-4.9,4.1
	c-2.2,1.8-7.4,5.9-14.8,11.7c-0.3,0.2-4,3.1-5.1,3.9c0,0-0.9,0.6-1.6,0.8c-0.6,0.2-1-0.1-1.4-0.5c-0.1-0.1-0.4-0.4-0.7-0.8
	c-0.3-0.4-0.6-0.8-0.8-1.2c-0.7-1-1.6-2.2-2.3-3.2c0,0-19.5-27-27.9-38.5c-2.3-3.1-12.4-17.1-22.9-30.8c-0.3-0.3-1.9-2.4-2.6-3.5
	l-0.3-0.6c0,0-0.2-0.4-0.1-0.6c0.1-0.2,0.4-0.4,0.8-0.8c2.9-2.3,11.2-8.5,11.8-8.9c0.6-0.4,1.1-0.8,2-1.4c0.7-0.4,1.1-0.8,2.2-1.6
	c0.1-0.1,1.8-1.4,2.7-2.3c0,0,0.5-0.5,0.6-0.8c0.1-0.1,0.2-0.5,0.1-0.9c0-0.1-0.1-0.4-0.4-0.8c-0.6-1-1.4-1.8-1.3-2.5
	c0-0.3,0.3-0.6,0.5-0.9c0.3-0.3,1.2-1,2-1.6c0.4-0.3,0.9-0.7,1.3-0.9c0.3-0.2,0.6-0.4,0.9-0.6c0.1-0.1,0.2-0.1,0.3-0.2
	c0,0,0.2-0.1,0.5-0.1c0,0,0.1,0,0.2,0c0.3,0.2,0.3,0.3,0.6,0.6c0.1,0.1,0.3,0.4,0.4,0.5l0.8,1c1.6,2,8.4,11,10.6,13.8
	c0.1,0.2,1,1.2,1.2,1.9c0.1,0.3,0.1,0.7-0.2,1.1c-0.3,0.5-0.9,0.9-1.8,1.5c-0.3,0.2-1.4,1-1.7,1.4c-0.2,0.2-0.3,0.6-0.3,0.9
	c0,0.3,0.2,0.8,0.7,1.5c0,0.1,0.4,0.6,0.9,0.9c0,0,0.2,0.1,0.3,0.1c0.5,0,1.3-0.4,1.9-0.7c0.9-0.5,2-1.1,3.2-1.1
	c0.3,0,0.9,0.1,1.7,0.4c0,0,0.7,0.3,1.3,0.7c0,0,0.6,0.4,1,1c0,0,0.3,0.4,0.4,0.7c0.1,0.3,0.4,1,0.4,1.9c0,0.2,0,0.7,0,1.2
	c-0.2,1.4-1.2,2.4-1.5,2.7c0,0-0.9,1-1.3,1.5c-0.2,0.2-0.4,0.6-0.6,0.9c1.1,1.4,4.1,5.4,5.6,7.1c0.1,0.1,0.5,0.6,0.9,0.7
	c0.3,0.1,0.6-0.1,1.2-0.4c0,0,1-0.7,1.1-0.7c0.4-0.3,1.6-1,2.2-1.2c0.3-0.1,0.4,0,0.7,0.2c0.4,0.4,1.3,1.3,2.5,2.7
	c0.1,0.1,0.9,1.2,1.2,1.7c0.1,0.1,0.3,0.6,0.2,1c-0.1,0.4-0.3,0.7-0.8,1.3c-0.8,0.8-2.3,1.8-2.7,2.7c-0.1,0.2-0.2,0.5-0.1,0.8
	c0.1,0.4,0.4,0.8,0.6,1.2c0.5,0.8,1,1.4,1.6,1.4c0.3,0,0.6-0.1,1-0.3c0.9-0.5,2.2-1.5,2.8-1.8c0.1-0.1,0.7-0.4,1.2-0.4
	c0.2,0,0.5,0.2,0.8,0.5c0.6,0.6,1.7,2.1,2.6,3.4c0.1,0.1,1.5,2,1.9,2.7c0,0,0.4,0.6,0.6,1c0.3,0.7,0.4,1.7,0.5,2.2c0,0,0.1,1,0,2
	c0,0.2-0.1,0.6-0.3,1.1c-0.1,0.3-0.2,0.5-0.6,1c0,0-0.6,0.9-0.9,1.4c0,0-0.2,0.3-0.3,0.7c-0.1,0.2-0.2,0.4,0,0.8
	c0.1,0.1,0.3,0.4,0.7,0.8c0.5,0.5,1.1,1.2,1.5,1.7c0.5,0.6,1,1.2,1.4,2.1c0.2,0.4,0.7,2,0.7,2c0,0.1,0.3,1.1,0.8,1.6
	C1941.5,9.6,1941.6,9.7,1941.8,9.8z"/>
<path class="st0" d="M1353.7,825.7c0,5.1,4.4,9.2,9.8,9.2h630.1c5.4,0,9.8-4.1,9.8-9.2l0-928.3c0-5.1-4.4-9.2-9.8-9.2h-630.1
	c-5.4,0-9.8,4.1-9.8,9.2L1353.7,825.7z"/>
<path class="st0" d="M2601.1,9.8c0.2,0.1,0.3,0.2,0.6,0.3c0.2,0,0.4,0.1,0.5,0.1c0.4,0.1,0.8,0.2,1.5,0.5c0.4,0.2,1,0.6,1.4,1
	c0.3,0.3,0.4,0.4,0.7,0.7c0,0,0.2,0.2,0.4,0.3c0.1,0,0.3,0,0.6,0c0.3-0.1,1-0.4,1.5-0.7c0,0,2.5-1.5,2.8-1.7
	c1.3,1.5,2.4,2.7,3.5,4.4c0.3,0.5,0.4,0.7,0.7,1.4c0,0,0.4,0.7,0.3,1.1c0,0.1-0.2,0.4-0.5,0.6c-0.7,0.7-4.9,4.1-4.9,4.1
	c-2.2,1.8-7.4,5.9-14.8,11.7c-0.3,0.2-4,3.1-5.1,3.9c0,0-0.9,0.6-1.6,0.8c-0.6,0.2-1-0.1-1.4-0.5c-0.1-0.1-0.4-0.4-0.7-0.8
	c-0.3-0.4-0.6-0.8-0.8-1.2c-0.7-1-1.6-2.2-2.3-3.2c0,0-19.5-27-27.9-38.5c-2.3-3.1-12.4-17.1-22.9-30.8c-0.3-0.3-1.9-2.4-2.6-3.5
	l-0.3-0.6c0,0-0.2-0.4-0.1-0.6c0.1-0.2,0.4-0.4,0.8-0.8c2.9-2.3,11.2-8.5,11.8-8.9c0.6-0.4,1.1-0.8,2-1.4c0.7-0.4,1.1-0.8,2.2-1.6
	c0.1-0.1,1.8-1.4,2.7-2.3c0,0,0.5-0.5,0.6-0.8c0.1-0.1,0.2-0.5,0.1-0.9c0-0.1-0.1-0.4-0.4-0.8c-0.6-1-1.4-1.8-1.3-2.5
	c0-0.3,0.3-0.6,0.5-0.9c0.3-0.3,1.2-1,2-1.6c0.4-0.3,0.9-0.7,1.3-0.9c0.3-0.2,0.6-0.4,0.9-0.6c0.1-0.1,0.2-0.1,0.3-0.2
	c0,0,0.2-0.1,0.5-0.1c0,0,0.1,0,0.2,0c0.3,0.2,0.3,0.3,0.6,0.6c0.1,0.1,0.3,0.4,0.4,0.5l0.8,1c1.6,2,8.4,11,10.6,13.8
	c0.1,0.2,1,1.2,1.2,1.9c0.1,0.3,0.1,0.7-0.2,1.1c-0.3,0.5-0.9,0.9-1.8,1.5c-0.3,0.2-1.4,1-1.7,1.4c-0.2,0.2-0.3,0.6-0.3,0.9
	c0,0.3,0.2,0.8,0.7,1.5c0,0.1,0.4,0.6,0.9,0.9c0,0,0.2,0.1,0.3,0.1c0.5,0,1.3-0.4,1.9-0.7c0.9-0.5,2-1.1,3.2-1.1
	c0.3,0,0.9,0.1,1.7,0.4c0,0,0.7,0.3,1.3,0.7c0,0,0.6,0.4,1,1c0,0,0.3,0.4,0.4,0.7c0.1,0.3,0.4,1,0.4,1.9c0,0.2,0,0.7,0,1.2
	c-0.2,1.4-1.2,2.4-1.5,2.7c0,0-0.9,1-1.3,1.5c-0.2,0.2-0.4,0.6-0.6,0.9c1.1,1.4,4.1,5.4,5.6,7.1c0.1,0.1,0.5,0.6,0.9,0.7
	c0.3,0.1,0.6-0.1,1.2-0.4c0,0,1-0.7,1.1-0.7c0.4-0.3,1.6-1,2.2-1.2c0.3-0.1,0.4,0,0.7,0.2c0.4,0.4,1.3,1.3,2.5,2.7
	c0.1,0.1,0.9,1.2,1.2,1.7c0.1,0.1,0.3,0.6,0.2,1c-0.1,0.4-0.3,0.7-0.8,1.3c-0.8,0.8-2.3,1.8-2.7,2.7c-0.1,0.2-0.2,0.5-0.1,0.8
	c0.1,0.4,0.4,0.8,0.6,1.2c0.5,0.8,1,1.4,1.6,1.4c0.3,0,0.6-0.1,1-0.3c0.9-0.5,2.2-1.5,2.8-1.8c0.1-0.1,0.7-0.4,1.2-0.4
	c0.2,0,0.5,0.2,0.8,0.5c0.6,0.6,1.7,2.1,2.6,3.4c0.1,0.1,1.5,2,1.9,2.7c0,0,0.4,0.6,0.6,1c0.3,0.7,0.4,1.7,0.5,2.2c0,0,0.1,1,0,2
	c0,0.2-0.1,0.6-0.3,1.1c-0.1,0.3-0.2,0.5-0.6,1c0,0-0.6,0.9-0.9,1.4c0,0-0.2,0.3-0.3,0.7c-0.1,0.2-0.2,0.4,0,0.8
	c0.1,0.1,0.3,0.4,0.7,0.8c0.5,0.5,1.1,1.2,1.5,1.7c0.5,0.6,1,1.2,1.4,2.1c0.2,0.4,0.7,2,0.7,2c0,0.1,0.3,1.1,0.8,1.6
	C2600.8,9.6,2600.9,9.7,2601.1,9.8z"/>
<path class="st0" d="M2013,825.7c0,5.1,4.4,9.2,9.8,9.2h630.1c5.4,0,9.8-4.1,9.8-9.2l0-928.3c0-5.1-4.4-9.2-9.8-9.2h-630.1
	c-5.4,0-9.8,4.1-9.8,9.2L2013,825.7z"/>
<path class="st0" d="M3262.8,9.8c0.2,0.1,0.3,0.2,0.6,0.3c0.2,0,0.4,0.1,0.5,0.1c0.4,0.1,0.8,0.2,1.5,0.5c0.4,0.2,1,0.6,1.4,1
	c0.3,0.3,0.4,0.4,0.7,0.7c0,0,0.2,0.2,0.4,0.3c0.1,0,0.3,0,0.6,0c0.3-0.1,1-0.4,1.5-0.7c0,0,2.5-1.5,2.8-1.7
	c1.3,1.5,2.4,2.7,3.5,4.4c0.3,0.5,0.4,0.7,0.7,1.4c0,0,0.4,0.7,0.3,1.1c0,0.1-0.2,0.4-0.5,0.6c-0.7,0.7-4.9,4.1-4.9,4.1
	c-2.2,1.8-7.4,5.9-14.8,11.7c-0.3,0.2-4,3.1-5.1,3.9c0,0-0.9,0.6-1.6,0.8c-0.6,0.2-1-0.1-1.4-0.5c-0.1-0.1-0.4-0.4-0.7-0.8
	c-0.3-0.4-0.6-0.8-0.8-1.2c-0.7-1-1.6-2.2-2.3-3.2c0,0-19.5-27-27.9-38.5c-2.3-3.1-12.4-17.1-22.9-30.8c-0.3-0.3-1.9-2.4-2.6-3.5
	l-0.3-0.6c0,0-0.2-0.4-0.1-0.6c0.1-0.2,0.4-0.4,0.8-0.8c2.9-2.3,11.2-8.5,11.8-8.9c0.6-0.4,1.1-0.8,2-1.4c0.7-0.4,1.1-0.8,2.2-1.6
	c0.1-0.1,1.8-1.4,2.7-2.3c0,0,0.5-0.5,0.6-0.8c0.1-0.1,0.2-0.5,0.1-0.9c0-0.1-0.1-0.4-0.4-0.8c-0.6-1-1.4-1.8-1.3-2.5
	c0-0.3,0.3-0.6,0.5-0.9c0.3-0.3,1.2-1,2-1.6c0.4-0.3,0.9-0.7,1.3-0.9c0.3-0.2,0.6-0.4,0.9-0.6c0.1-0.1,0.2-0.1,0.3-0.2
	c0,0,0.2-0.1,0.5-0.1c0,0,0.1,0,0.2,0c0.3,0.2,0.3,0.3,0.6,0.6c0.1,0.1,0.3,0.4,0.4,0.5l0.8,1c1.6,2,8.4,11,10.6,13.8
	c0.1,0.2,1,1.2,1.2,1.9c0.1,0.3,0.1,0.7-0.2,1.1c-0.3,0.5-0.9,0.9-1.8,1.5c-0.3,0.2-1.4,1-1.7,1.4c-0.2,0.2-0.3,0.6-0.3,0.9
	c0,0.3,0.2,0.8,0.7,1.5c0,0.1,0.4,0.6,0.9,0.9c0,0,0.2,0.1,0.3,0.1c0.5,0,1.3-0.4,1.9-0.7c0.9-0.5,2-1.1,3.2-1.1
	c0.3,0,0.9,0.1,1.7,0.4c0,0,0.7,0.3,1.3,0.7c0,0,0.6,0.4,1,1c0,0,0.3,0.4,0.4,0.7c0.1,0.3,0.4,1,0.4,1.9c0,0.2,0,0.7,0,1.2
	c-0.2,1.4-1.2,2.4-1.5,2.7c0,0-0.9,1-1.3,1.5c-0.2,0.2-0.4,0.6-0.6,0.9c1.1,1.4,4.1,5.4,5.6,7.1c0.1,0.1,0.5,0.6,0.9,0.7
	c0.3,0.1,0.6-0.1,1.2-0.4c0,0,1-0.7,1.1-0.7c0.4-0.3,1.6-1,2.2-1.2c0.3-0.1,0.4,0,0.7,0.2c0.4,0.4,1.3,1.3,2.5,2.7
	c0.1,0.1,0.9,1.2,1.2,1.7c0.1,0.1,0.3,0.6,0.2,1c-0.1,0.4-0.3,0.7-0.8,1.3c-0.8,0.8-2.3,1.8-2.7,2.7c-0.1,0.2-0.2,0.5-0.1,0.8
	c0.1,0.4,0.4,0.8,0.6,1.2c0.5,0.8,1,1.4,1.6,1.4c0.3,0,0.6-0.1,1-0.3c0.9-0.5,2.2-1.5,2.8-1.8c0.1-0.1,0.7-0.4,1.2-0.4
	c0.2,0,0.5,0.2,0.8,0.5c0.6,0.6,1.7,2.1,2.6,3.4c0.1,0.1,1.5,2,1.9,2.7c0,0,0.4,0.6,0.6,1c0.3,0.7,0.4,1.7,0.5,2.2c0,0,0.1,1,0,2
	c0,0.2-0.1,0.6-0.3,1.1c-0.1,0.3-0.2,0.5-0.6,1c0,0-0.6,0.9-0.9,1.4c0,0-0.2,0.3-0.3,0.7c-0.1,0.2-0.2,0.4,0,0.8
	c0.1,0.1,0.3,0.4,0.7,0.8c0.5,0.5,1.1,1.2,1.5,1.7c0.5,0.6,1,1.2,1.4,2.1c0.2,0.4,0.7,2,0.7,2c0,0.1,0.3,1.1,0.8,1.6
	C3262.5,9.6,3262.6,9.7,3262.8,9.8z"/>
<path class="st0" d="M2674.7,825.7c0,5.1,4.4,9.2,9.8,9.2h630.1c5.4,0,9.8-4.1,9.8-9.2l0-928.3c0-5.1-4.4-9.2-9.8-9.2h-630.1
	c-5.4,0-9.8,4.1-9.8,9.2L2674.7,825.7z"/>
<path class="st0" d="M3922.2,9.8c0.2,0.1,0.3,0.2,0.6,0.3c0.2,0,0.4,0.1,0.5,0.1c0.4,0.1,0.8,0.2,1.5,0.5c0.4,0.2,1,0.6,1.4,1
	c0.3,0.3,0.4,0.4,0.7,0.7c0,0,0.2,0.2,0.4,0.3c0.1,0,0.3,0,0.6,0c0.3-0.1,1-0.4,1.5-0.7c0,0,2.5-1.5,2.8-1.7
	c1.3,1.5,2.4,2.7,3.5,4.4c0.3,0.5,0.4,0.7,0.7,1.4c0,0,0.4,0.7,0.3,1.1c0,0.1-0.2,0.4-0.5,0.6c-0.7,0.7-4.9,4.1-4.9,4.1
	c-2.2,1.8-7.4,5.9-14.8,11.7c-0.3,0.2-4,3.1-5.1,3.9c0,0-0.9,0.6-1.6,0.8c-0.6,0.2-1-0.1-1.4-0.5c-0.1-0.1-0.4-0.4-0.7-0.8
	c-0.3-0.4-0.6-0.8-0.8-1.2c-0.7-1-1.6-2.2-2.3-3.2c0,0-19.5-27-27.9-38.5c-2.3-3.1-12.4-17.1-22.9-30.8c-0.3-0.3-1.9-2.4-2.6-3.5
	l-0.3-0.6c0,0-0.2-0.4-0.1-0.6c0.1-0.2,0.4-0.4,0.8-0.8c2.9-2.3,11.2-8.5,11.8-8.9c0.6-0.4,1.1-0.8,2-1.4c0.7-0.4,1.1-0.8,2.2-1.6
	c0.1-0.1,1.8-1.4,2.7-2.3c0,0,0.5-0.5,0.6-0.8c0.1-0.1,0.2-0.5,0.1-0.9c0-0.1-0.1-0.4-0.4-0.8c-0.6-1-1.4-1.8-1.3-2.5
	c0-0.3,0.3-0.6,0.5-0.9c0.3-0.3,1.2-1,2-1.6c0.4-0.3,0.9-0.7,1.3-0.9c0.3-0.2,0.6-0.4,0.9-0.6c0.1-0.1,0.2-0.1,0.3-0.2
	c0,0,0.2-0.1,0.5-0.1c0,0,0.1,0,0.2,0c0.3,0.2,0.3,0.3,0.6,0.6c0.1,0.1,0.3,0.4,0.4,0.5l0.8,1c1.6,2,8.4,11,10.6,13.8
	c0.1,0.2,1,1.2,1.2,1.9c0.1,0.3,0.1,0.7-0.2,1.1c-0.3,0.5-0.9,0.9-1.8,1.5c-0.3,0.2-1.4,1-1.7,1.4c-0.2,0.2-0.3,0.6-0.3,0.9
	c0,0.3,0.2,0.8,0.7,1.5c0,0.1,0.4,0.6,0.9,0.9c0,0,0.2,0.1,0.3,0.1c0.5,0,1.3-0.4,1.9-0.7c0.9-0.5,2-1.1,3.2-1.1
	c0.3,0,0.9,0.1,1.7,0.4c0,0,0.7,0.3,1.3,0.7c0,0,0.6,0.4,1,1c0,0,0.3,0.4,0.4,0.7c0.1,0.3,0.4,1,0.4,1.9c0,0.2,0,0.7,0,1.2
	c-0.2,1.4-1.2,2.4-1.5,2.7c0,0-0.9,1-1.3,1.5c-0.2,0.2-0.4,0.6-0.6,0.9c1.1,1.4,4.1,5.4,5.6,7.1c0.1,0.1,0.5,0.6,0.9,0.7
	c0.3,0.1,0.6-0.1,1.2-0.4c0,0,1-0.7,1.1-0.7c0.4-0.3,1.6-1,2.2-1.2c0.3-0.1,0.4,0,0.7,0.2c0.4,0.4,1.3,1.3,2.5,2.7
	c0.1,0.1,0.9,1.2,1.2,1.7c0.1,0.1,0.3,0.6,0.2,1c-0.1,0.4-0.3,0.7-0.8,1.3c-0.8,0.8-2.3,1.8-2.7,2.7c-0.1,0.2-0.2,0.5-0.1,0.8
	c0.1,0.4,0.4,0.8,0.6,1.2c0.5,0.8,1,1.4,1.6,1.4c0.3,0,0.6-0.1,1-0.3c0.9-0.5,2.2-1.5,2.8-1.8c0.1-0.1,0.7-0.4,1.2-0.4
	c0.2,0,0.5,0.2,0.8,0.5c0.6,0.6,1.7,2.1,2.6,3.4c0.1,0.1,1.5,2,1.9,2.7c0,0,0.4,0.6,0.6,1c0.3,0.7,0.4,1.7,0.5,2.2c0,0,0.1,1,0,2
	c0,0.2-0.1,0.6-0.3,1.1c-0.1,0.3-0.2,0.5-0.6,1c0,0-0.6,0.9-0.9,1.4c0,0-0.2,0.3-0.3,0.7c-0.1,0.2-0.2,0.4,0,0.8
	c0.1,0.1,0.3,0.4,0.7,0.8c0.5,0.5,1.1,1.2,1.5,1.7c0.5,0.6,1,1.2,1.4,2.1c0.2,0.4,0.7,2,0.7,2c0,0.1,0.3,1.1,0.8,1.6
	C3921.8,9.6,3921.9,9.7,3922.2,9.8z"/>
<path class="st0" d="M3334,825.7c0,5.1,4.4,9.2,9.8,9.2h630.1c5.4,0,9.8-4.1,9.8-9.2l0-928.3c0-5.1-4.4-9.2-9.8-9.2h-630.1
	c-5.4,0-9.8,4.1-9.8,9.2L3334,825.7z"/>
</svg>
