<?xml version="1.0" encoding="UTF-8" standalone="no"?>
<!-- Created with Inkscape (http://www.inkscape.org/) -->

<svg
   xmlns:dc="http://purl.org/dc/elements/1.1/"
   xmlns:cc="http://creativecommons.org/ns#"
   xmlns:rdf="http://www.w3.org/1999/02/22-rdf-syntax-ns#"
   xmlns:svg="http://www.w3.org/2000/svg"
   xmlns="http://www.w3.org/2000/svg"
   xmlns:sodipodi="http://sodipodi.sourceforge.net/DTD/sodipodi-0.dtd"
   xmlns:inkscape="http://www.inkscape.org/namespaces/inkscape"
   width="327.24219mm"
   height="222.24414mm"
   viewBox="0 0 327.24219 222.24414"
   version="1.1"
   id="svg1013"
   inkscape:version="0.92.3 (2405546, 2018-03-11)"
   sodipodi:docname="carbon1stgen.svg">
  <defs
     id="defs1007" />
  <sodipodi:namedview
     id="base"
     pagecolor="#ffffff"
     bordercolor="#666666"
     borderopacity="1.0"
     inkscape:pageopacity="0.0"
     inkscape:pageshadow="2"
     inkscape:zoom="0.35"
     inkscape:cx="262.69613"
     inkscape:cy="377.13181"
     inkscape:document-units="mm"
     inkscape:current-layer="layer1"
     showgrid="false"
     inkscape:window-width="1680"
     inkscape:window-height="987"
     inkscape:window-x="-8"
     inkscape:window-y="-8"
     inkscape:window-maximized="1"
     showguides="true"
     inkscape:guide-bbox="true" />
  <metadata
     id="metadata1010">
    <rdf:RDF>
      <cc:Work
         rdf:about="">
        <dc:format>image/svg+xml</dc:format>
        <dc:type
           rdf:resource="http://purl.org/dc/dcmitype/StillImage" />
        <dc:title></dc:title>
      </cc:Work>
    </rdf:RDF>
  </metadata>
  <g
     inkscape:label="Layer 1"
     inkscape:groupmode="layer"
     id="layer1"
     transform="translate(47.960376,-26.37198)">
    <g
       transform="matrix(0.99162032,0,0,0.98540279,-53.71113,314.27521)"
       id="g989">
      <path
         inkscape:connector-curvature="0"
         id="rect10"
         d="m 14.138672,-290.41016 c -3.638825,0 -6.5859376,2.55883 -6.5859376,5.75391 v 210.736328 c 0,3.195073 2.9471126,5.753906 6.5859376,5.753906 H 328.20898 c 3.63883,0 6.58594,-2.558833 6.58594,-5.753906 V -284.65625 c 0,-3.19508 -2.94711,-5.75391 -6.58594,-5.75391 z m 0,0.24414 H 328.20898 c 3.5251,0 6.34375,2.46459 6.34375,5.50977 v 210.736328 c 0,3.045179 -2.81865,5.509766 -6.34375,5.509766 H 14.138672 c -3.525091,0 -6.3437501,-2.464587 -6.3437501,-5.509766 V -284.65625 c 0,-3.04518 2.8186591,-5.50977 6.3437501,-5.50977 z"
         style="color:#000000;font-style:normal;font-variant:normal;font-weight:normal;font-stretch:normal;font-size:medium;line-height:normal;font-family:sans-serif;font-variant-ligatures:normal;font-variant-position:normal;font-variant-caps:normal;font-variant-numeric:normal;font-variant-alternates:normal;font-feature-settings:normal;text-indent:0;text-align:start;text-decoration:none;text-decoration-line:none;text-decoration-style:solid;text-decoration-color:#000000;letter-spacing:normal;word-spacing:normal;text-transform:none;writing-mode:lr-tb;direction:ltr;text-orientation:mixed;dominant-baseline:auto;baseline-shift:baseline;text-anchor:start;white-space:normal;shape-padding:0;clip-rule:nonzero;display:inline;overflow:visible;visibility:visible;opacity:1;isolation:auto;mix-blend-mode:normal;color-interpolation:sRGB;color-interpolation-filters:linearRGB;solid-color:#000000;solid-opacity:1;vector-effect:none;fill-opacity:1;fill-rule:nonzero;stroke:none;stroke-width:0.24327861;stroke-linecap:butt;stroke-linejoin:miter;stroke-miterlimit:4;stroke-dasharray:none;stroke-dashoffset:0;stroke-opacity:1;color-rendering:auto;image-rendering:auto;shape-rendering:auto;text-rendering:auto;enable-background:accumulate" />
      <path
         style="fill:#ffffff;fill-opacity:1;stroke:#ff0000;stroke-width:0.24694443;stroke-linecap:round;stroke-linejoin:round;stroke-opacity:1"
         inkscape:connector-curvature="0"
         id="Path11"
         d="m 310.07357,-107.47934 c 0.0353,-0.0706 0.0353,-0.14111 0.0706,-0.21167 0,-0.0706 0.0353,-0.14111 0.0353,-0.21167 0.0353,-0.14111 0.0706,-0.24694 0.17639,-0.49389 0.0705,-0.17638 0.21166,-0.35277 0.3175,-0.49388 0.10583,-0.10584 0.14111,-0.14112 0.24694,-0.24695 0,0 0.0706,-0.0353 0.10583,-0.10583 0,-0.0706 0,-0.14111 -0.0353,-0.21167 -0.0353,-0.10583 -0.14112,-0.35278 -0.24695,-0.52917 0,0 -0.56444,-0.9525 -0.635,-1.02305 0.49389,-0.45861 0.91722,-0.84667 1.48167,-1.19945 0.14111,-0.10583 0.24694,-0.14111 0.45861,-0.24694 0,0 0.24694,-0.14111 0.38805,-0.0706 0.0353,0 0.10584,0.0706 0.21167,0.17639 0.24695,0.24695 1.48167,1.79917 1.48167,1.79917 0.635,0.81139 2.15194,2.75167 4.26861,5.50333 0.0705,0.0706 1.12889,1.48167 1.41111,1.86973 0,0 0.21167,0.3175 0.28222,0.56444 0.0706,0.24694 -0.0353,0.38806 -0.14111,0.49389 -0.0353,0.0353 -0.14111,0.14111 -0.28222,0.24694 -0.14111,0.0706 -0.28222,0.17639 -0.42333,0.28223 -0.3175,0.21166 -0.74084,0.52916 -1.05834,0.77611 0,0 -9.17222,6.667496 -13.08805,9.560266 -1.05834,0.77612 -5.78556,4.26862 -10.4775,7.83167 -0.10584,0.10583 -0.81139,0.635 -1.16417,0.88195 0,0 -0.21167,0.14111 -0.21167,0.14111 0,0 -0.14111,0.0705 -0.21166,0.0353 -0.0706,-0.0353 -0.14111,-0.14111 -0.28223,-0.3175 -0.84666,-1.05833 -3.10444,-4.1275 -3.24555,-4.33916 -0.17639,-0.21167 -0.3175,-0.42334 -0.52917,-0.74084 -0.17639,-0.28222 -0.28222,-0.42333 -0.59972,-0.84666 -0.0353,-0.0353 -0.52917,-0.635 -0.84667,-0.9525 0,0 -0.17639,-0.17639 -0.28222,-0.24695 -0.0353,-0.0353 -0.14111,-0.10583 -0.3175,-0.0705 -0.0353,0.0353 -0.14111,0.0705 -0.28222,0.14111 -0.3175,0.21167 -0.59972,0.45861 -0.84667,0.42333 -0.10583,0 -0.21166,-0.10583 -0.3175,-0.21166 -0.0705,-0.10584 -0.35278,-0.42334 -0.56444,-0.74084 -0.10584,-0.14111 -0.24695,-0.3175 -0.35278,-0.45861 -0.0706,-0.10583 -0.17639,-0.24694 -0.21167,-0.35278 -0.0353,-0.0353 -0.0706,-0.0705 -0.0706,-0.10583 0,0 -0.0706,-0.10583 -0.0706,-0.17639 0,0 0,-0.0353 0,-0.0353 0.0706,-0.10583 0.10584,-0.10583 0.21167,-0.21166 0.0353,-0.0353 0.10583,-0.10584 0.17639,-0.14111 0,0 0.35278,-0.28223 0.35278,-0.28223 0.67027,-0.56444 3.73944,-2.89277 4.65666,-3.63361 0.0706,-0.0705 0.42334,-0.35278 0.635,-0.42333 0.10584,-0.0353 0.21167,-0.0353 0.38806,0.0705 0.17639,0.14112 0.3175,0.35278 0.52916,0.67028 0.0706,0.10584 0.38806,0.52917 0.52917,0.635 0.0706,0.0353 0.21167,0.10584 0.28222,0.0706 0.14111,0 0.3175,-0.0353 0.52917,-0.21167 0,0 0.21167,-0.14111 0.28222,-0.3175 0,0 0.0353,-0.0705 0.0353,-0.14111 0,-0.17639 -0.17639,-0.45861 -0.28222,-0.67028 -0.17639,-0.3175 -0.38806,-0.74083 -0.38806,-1.16416 0,-0.10584 0,-0.3175 0.10584,-0.59973 0,0 0.10583,-0.24694 0.24694,-0.45861 0,0 0.10583,-0.21166 0.3175,-0.35278 0,0 0.10583,-0.0705 0.24694,-0.141109 0.0706,-0.0353 0.3175,-0.10583 0.635,-0.14111 0.0706,0 0.24695,0 0.42334,0.0353 0.49389,0.10583 0.84666,0.458609 0.9525,0.599719 0,0 0.38805,0.35278 0.52916,0.45861 0.10584,0.0706 0.21167,0.17639 0.35278,0.24695 0.49389,-0.38806 1.83445,-1.411109 2.39889,-1.940279 0.0353,-0.0353 0.17639,-0.17639 0.21167,-0.3175 0.0353,-0.10583 -0.0353,-0.246937 -0.14111,-0.423327 0,0 -0.24695,-0.38806 -0.28223,-0.42334 -0.0705,-0.14111 -0.35277,-0.59972 -0.42333,-0.81139 -0.0353,-0.10583 0,-0.14111 0.0706,-0.24694 0.14111,-0.14111 0.42333,-0.45861 0.91722,-0.88194 0.0353,0 0.42333,-0.3175 0.59972,-0.42334 0.0353,0 0.21167,-0.0705 0.35278,-0.0353 0.14111,0 0.28222,0.10584 0.45861,0.28223 0.3175,0.3175 0.67028,0.84666 0.98778,1.02305 0.0705,0.0353 0.17639,0.0353 0.28222,0.0353 0.14111,-0.0353 0.28222,-0.14111 0.42333,-0.21167 0.28223,-0.21166 0.45861,-0.35277 0.45861,-0.56444 0,-0.10583 -0.0353,-0.24695 -0.10583,-0.38806 -0.17639,-0.3175 -0.56444,-0.77611 -0.67028,-0.98777 -0.0353,-0.0706 -0.17639,-0.28223 -0.14111,-0.45862 0,-0.0705 0.0353,-0.17638 0.14111,-0.28222 0.21167,-0.24694 0.74084,-0.59972 1.12889,-0.91722 0.0706,-0.0353 0.70556,-0.49389 0.91722,-0.635 0,0 0.21167,-0.14111 0.35278,-0.21167 0.24695,-0.0705 0.59972,-0.10583 0.77611,-0.14111 0,0 0.3175,0 0.67028,0.0706 0.0706,0 0.21167,0.0353 0.38806,0.10583 0.10583,0.0706 0.17639,0.10583 0.35277,0.21167 0,0 0.3175,0.24694 0.49389,0.35278 0,0 0.10584,0.0705 0.24695,0.14111 0.0705,0 0.14111,0.0706 0.24694,0 0.0706,-0.0353 0.17639,-0.10584 0.28222,-0.24695 0.17639,-0.14111 0.42334,-0.38805 0.59973,-0.52916 0.17639,-0.17639 0.38805,-0.35278 0.70555,-0.49389 0.14111,-0.0353 0.70556,-0.21167 0.70556,-0.21167 0.0353,0 0.35278,-0.10583 0.56444,-0.28222 0.0706,-0.0353 0.0706,-0.0706 0.14111,-0.14111 z" />
      <g
         style="fill:#ffffff;fill-opacity:1"
         transform="rotate(-90,-87.712268,-152.83912)"
         id="g953">
        <g
           transform="matrix(0.35277777,0,0,0.35277777,-372.47034,-645.18754)"
           id="Group ID: 4"
           style="fill:#ffffff;fill-opacity:1">
          <path
             style="fill:#ffffff;fill-opacity:1;stroke:#ff0000;stroke-width:0.69999999;stroke-linecap:round;stroke-linejoin:round;stroke-opacity:1"
             inkscape:connector-curvature="0"
             id="Path7"
             d="m 605.6,1706.1 c 0.3,0 0.6,-0.1 0.9,0 0.3,0 0.7,0 1,0.1 0.5,0.1 1.2,0.2 1.7,0.3 0.8,0.1 5.2,1.2 8,1.8 0,0 18,4.4 21.2,5.2 0,0.6 0.1,10.5 -0.2,12.4 0,0 -0.1,0.6 -0.1,0.6 -0.1,0.1 -0.1,0.3 -0.1,0.4 0,0 -0.1,0.1 -0.1,0.2" />
          <path
             style="fill:#ffffff;fill-opacity:1;stroke:#ff0000;stroke-width:0.69999999;stroke-linecap:round;stroke-linejoin:round;stroke-opacity:1"
             inkscape:connector-curvature="0"
             id="Path8"
             d="m 629.9,1736.3 c 0,10.9 0.1,92.6 -0.4,108.9 -0.1,2.8 -0.1,4.4 -0.6,6.2 -0.2,0.8 -0.4,1.6 -1.2,3 -0.4,0.7 -1.2,1.8 -2.3,2.7 -2,1.6 -4.5,2 -6.1,2 -0.3,0 -2.4,0.1 -4.5,-0.5 -1.3,-0.4 -2.9,-1 -4.7,-2.5 0,0 -2.3,-1.7 -3.8,-4 0,0 -0.7,-1.1 -0.9,-1.5 -0.1,-0.2 -0.2,-0.4 -0.3,-0.6 -0.1,-0.2 -0.1,-0.5 -0.1,-0.8 -0.2,-1.7 -0.3,-10.6 -0.3,-11.8 -0.1,-5 -0.4,-54.6 -0.3,-99.3 0,0 0.1,-19.6 0.3,-26.1 0,0 0.1,-2.8 0.1,-3.5 0,-0.3 0.1,-0.7 0.1,-1 0.1,-0.4 0.2,-0.8 0.3,-1.1 0,0 0.2,-0.2 0.2,-0.2 0,0 0.2,-0.1 0.2,-0.1" />
        </g>
        <path
           style="fill:#ffffff;fill-opacity:1;stroke:#ff0000;stroke-width:0.24694443;stroke-linecap:round;stroke-linejoin:round;stroke-opacity:1"
           inkscape:connector-curvature="0"
           id="Path9"
           d="m -147.27465,-37.607209 c 0.0353,0.705556 0.0353,1.446389 0,2.8575 0,0 -0.0353,0.529167 -0.0353,0.564444 0,0 -0.0353,0.423334 -0.0705,0.599723 -0.0353,0.03528 -0.0706,0.105833 -0.10583,0.141111 0,0 -0.0706,0.07055 -0.0706,0.07055 -0.10583,0 -0.45861,0 -0.9525,-0.105833 0,0 -1.76389,-0.493889 -1.76389,-0.493889 0,0 0,2.257778 0,2.257778" />
      </g>
    </g>
  </g>
</svg>
