<?xml version="1.0" encoding="utf-8"?>
<!DOCTYPE svg PUBLIC "-//W3C//DTD SVG 1.1//EN" "http://www.w3.org/Graphics/SVG/1.1/DTD/svg11.dtd">
<!-- exported from Silhouette Studio Business Edition V4.1.206ssbe -->
<svg version="1.1" xmlns="http://www.w3.org/2000/svg" xmlns:xlink="http://www.w3.org/1999/xlink" width="304.8mm" height="500mm" viewBox="0 0 304.8 500">
<defs/>
<path d="M 82.95026 201.2513 C 83.93518 201.2513 84.73524 200.672 84.73524 199.9588 L 84.73524 197.3736 C 84.73524 196.6604 83.93518 196.0811 82.95026 196.0811 L 76.91826 196.0811 C 75.93334 196.0811 75.13329 196.6604 75.13329 197.3736 L 75.13329 199.9588 C 75.13329 200.672 75.93334 201.2513 76.91826 201.2513 L 82.95026 201.2513 Z" fill="none" fill-opacity="1" stroke="#000000" stroke-opacity="1" stroke-width="0.3527778" stroke-linecap="round" stroke-linejoin="round"/>
<path d="M 52.62015 198.9822 L 52.62283 152.5647 L 52.64053 122.7293 L 52.66718 115.0968 C 52.67484 112.8937 52.44272 112.4965 53.18436 112.2097 C 53.65533 112.0275 55.29672 112.1189 57.39142 112.1139 L 66.25778 112.0928 L 86.8472 112.0835 L 104.3447 112.0897 C 105.782 112.0901 110.9806 112.1051 111.2252 112.1034 C 115.6115 112.0746 117.4001 111.6908 117.6053 115.2192 C 117.7713 118.072 116.9698 120.3426 120.2335 123.3792 C 122.1191 125.1336 125.3009 126.4913 127.3609 125.7959 C 127.5891 125.7188 135.4829 123.3071 136.0943 123.5033 L 143.7235 125.9518 C 145.069 126.3837 147.5489 125.0345 152.0694 123.9054 C 154.7707 123.2307 155.0225 123.5503 159.4302 125.1038 C 162.4521 126.1688 164.7253 126.5294 167.2139 126.0091 C 171.4843 125.1163 173.8518 121.676 174.6049 119.6979 C 175.867 116.3832 173.9418 113.3359 175.5942 112.1623 C 175.7354 112.1555 176.2863 112.1161 178.7742 112.097 C 179.2723 112.0932 185.3083 112.0746 185.3668 112.0748 L 193.8301 112.1025 C 195.1812 112.107 195.3775 112.1685 195.5214 112.7459 C 195.5804 112.9828 195.6061 117.701 195.6067 118.2381 L 195.6219 131.0442 L 195.6232 174.686 L 195.6051 191.6859 C 195.6045 192.2962 195.5778 196.4208 195.5778 196.4208" fill="none" fill-opacity="1" stroke="#000000" stroke-opacity="1" stroke-width="0.3527778" stroke-linecap="round" stroke-linejoin="round"/>
<path d="M 158.9065 183.2988 C 159.069 183.1929 159.3069 183.0179 159.4354 182.9101 C 159.9356 182.49 160.8506 181.7969 161.0335 181.6994 C 161.1393 181.6431 161.3484 181.4977 161.4983 181.3765 C 162.402 180.6449 163.1607 180.0647 163.2135 180.0647 C 163.2471 180.0647 163.5276 179.8531 163.837 179.5946 C 164.1464 179.336 164.4728 179.0851 164.5625 179.0371 C 164.6521 178.9891 164.899 178.8127 165.111 178.6451 C 165.323 178.4774 165.6337 178.2701 165.8015 178.1845 C 165.9692 178.0989 166.2519 177.8956 166.4296 177.7328 C 166.6073 177.5701 166.9628 177.3042 167.2197 177.1421 C 167.6507 176.8701 168.1332 176.4993 168.6843 176.0166 C 168.8055 175.9103 169.1781 175.6299 169.5121 175.3935 C 169.8461 175.1571 170.2961 174.8235 170.5121 174.6522 C 171.0476 174.2275 172.784 172.9378 173.3143 172.571 C 173.4553 172.4735 173.8355 172.1834 174.1593 171.9265 C 174.4831 171.6695 175.0038 171.2815 175.3165 171.0642 C 175.6292 170.847 176.0897 170.493 176.3398 170.2775 C 176.5899 170.062 176.8821 169.8398 176.9891 169.7837 C 177.1924 169.6772 177.575 169.3828 178.0877 168.9386 C 178.343 168.7174 178.3903 168.6289 178.3903 168.3719 C 178.3903 168.1094 178.3124 167.9719 177.8259 167.3755 C 177.5155 166.9951 177.1823 166.5667 177.0855 166.4237 C 176.7883 165.9846 176.1904 165.1643 175.9811 164.9083 C 175.8719 164.7747 175.6774 164.5321 175.549 164.3691 C 175.4205 164.2062 175.224 163.965 175.1122 163.8332 C 175.0004 163.7014 174.8496 163.4778 174.7771 163.3362 C 174.6416 163.0714 174.0776 162.2988 173.4442 161.5103 C 173.1313 161.1208 173.0494 161.0625 172.8151 161.0625 C 172.5637 161.0625 172.2453 161.2323 171.9299 161.5345 C 171.8601 161.6014 171.7317 161.7066 171.6445 161.7682 C 171.5573 161.8298 171.4622 162.0079 171.4332 162.164 C 171.3894 162.3993 171.4139 162.4876 171.577 162.6814 C 171.8124 162.9613 171.8485 163.4733 171.6448 163.6425 C 171.574 163.7012 171.4205 163.9624 171.3038 164.2228 C 171.0807 164.7203 170.9994 164.7809 170.3242 164.9531 C 169.9984 165.0362 169.7866 165.1719 169.2629 165.6335 C 169.0194 165.8481 168.9092 165.8908 168.6012 165.8901 C 168.398 165.8896 168.0597 165.8371 167.8496 165.7733 C 167.3656 165.6264 167.071 165.6273 166.4104 165.7776 C 165.9198 165.8893 165.8417 165.9377 165.3247 166.4508 C 164.9691 166.8037 164.7677 167.0658 164.7677 167.1755 C 164.7677 167.2701 164.8551 167.5119 164.9619 167.713 C 165.2567 168.2676 165.2897 168.6177 165.0662 168.8212 C 164.8386 169.0286 164.3946 169.1094 164.1729 168.9837 C 164.0813 168.9318 163.8428 168.7065 163.6429 168.4833 C 163.3162 168.1184 163.2551 168.0822 163.0395 168.1253 C 162.8957 168.1541 162.6871 168.3005 162.5187 168.4909 C 162.3642 168.6656 162.1642 168.8764 162.0742 168.9594 C 161.9222 169.0997 161.9179 169.1344 162.0126 169.4493 C 162.0687 169.6358 162.1685 169.8654 162.2345 169.9596 C 162.5468 170.4057 162.2435 171.0883 161.5699 171.455 C 161.356 171.5715 161.1015 171.7463 161.0044 171.8436 C 160.9072 171.9408 160.6956 172.0451 160.5342 172.0754 C 160.2834 172.1225 160.2009 172.0987 159.9666 171.9117 C 159.2298 171.3237 158.8603 171.1999 158.3959 171.3858 C 158.0695 171.5165 157.9156 171.7463 157.7337 172.3748 C 157.6539 172.6506 157.6644 172.7593 157.8133 173.2021 C 157.993 173.7361 157.9857 174.0449 157.7861 174.3652 C 157.622 174.6285 157.2688 174.5245 156.7867 174.0709 C 156.5714 173.8685 156.3219 173.6635 156.2322 173.6155 C 156.0174 173.5005 155.6187 173.6147 155.3545 173.8671 C 155.2442 173.9724 155.0434 174.1395 154.9082 174.2385 C 153.9172 174.9646 153.004 175.6573 152.7408 175.8824 C 152.5696 176.0289 152.3419 176.193 152.2348 176.247 C 152.1278 176.301 151.9283 176.4513 151.7914 176.5808 L 151.5426 176.8163 L 151.6911 177.0971 C 151.7727 177.2516 151.995 177.5531 152.1848 177.7673 L 152.53 178.1567 L 153.1792 178.1389 L 153.8283 178.121 L 154.2826 178.6062 C 154.5325 178.873 154.8016 179.2139 154.8807 179.3638 C 154.9598 179.5137 155.1973 179.8292 155.4084 180.0647 C 155.6196 180.3003 155.8546 180.6138 155.9307 180.7615 C 156.0068 180.9091 156.2365 181.2311 156.441 181.4771 C 156.6455 181.723 156.9786 182.1629 157.1812 182.4547 C 157.8982 183.4877 158.3087 183.6885 158.9065 183.2988 Z" fill="none" fill-opacity="1" stroke="#000000" stroke-opacity="1" stroke-width="0.3527778" stroke-linecap="round" stroke-linejoin="round"/>
<path d="M 52.6264 198.066 C 52.6264 202.3981 52.62346 202.7107 52.6264 202.7522 C 52.74165 204.3833 53.9867 204.7259 54.56454 204.7259 L 193.6882 204.7259 C 194.0816 204.7259 195.5383 204.4712 195.6264 202.7522 C 195.6281 202.719 195.6264 202.9684 195.6264 199.0107 C 195.6264 197.1398 195.6264 196.2045 195.6264 196.2045" fill="none" fill-opacity="1" stroke="#000000" stroke-opacity="1" stroke-width="0.3527778" stroke-linecap="round" stroke-linejoin="round"/>
<g>
<path d="M 53.42636 286.316 C 53.5358 286.2878 53.43586 286.3367 53.81781 286.2187 C 55.86332 285.5869 55.6297 284.4516 55.61832 280.1419 C 55.61414 278.5566 55.61835 280.1419 55.61982 274.3887 C 57.17575 272.1917 56.78989 272.4617 61.11286 272.4522 L 70.54548 272.4319 L 107.1315 272.4073 L 120.8295 272.4078 L 140.4748 272.4265 C 141.8965 272.4278 146.4227 272.4611 147.003 272.4603 C 148.5132 272.4584 149.013 272.2845 149.1682 273.1261 C 149.2014 273.3063 149.2322 279.0804 149.2333 279.9965 L 149.2527 296.1508 L 149.252 339.3673 C 149.252 339.5559 149.2751 343.9175 149.2766 344.6719 C 149.2768 344.77 149.2763 350.1407 149.276 350.1898 L 149.2418 357.5832" fill="none" fill-opacity="1" stroke="#000000" stroke-opacity="1" stroke-width="0.3527778" stroke-linecap="round" stroke-linejoin="round"/>
<path d="M 53.56518 286.5498 L 53.56519 273.9182 C 53.56519 273.6096 53.27631 272.3458 51.86721 272.3458 L 36.00071 272.3458 C 35.01355 272.3458 34.30348 273.0956 34.30348 273.9182 L 34.30347 293.9171" fill="none" fill-opacity="1" stroke="#000000" stroke-opacity="1" stroke-width="0.3527778" stroke-linecap="round" stroke-linejoin="round"/>
</g>
<path d="M 34.26291 357.1039 L 34.26297 293.5277" fill="none" fill-opacity="1" stroke="#000000" stroke-opacity="1" stroke-width="0.3527778" stroke-linecap="round" stroke-linejoin="round"/>
<path d="M 34.27262 356.0284 C 34.27262 362.9435 34.26975 362.5077 34.27262 362.5658 C 34.34504 364.0293 35.39096 364.8502 36.51486 364.8502 L 147.0305 364.8502 C 147.7845 364.8502 149.1574 364.3688 149.2727 362.5658 C 149.2758 362.516 149.2727 356.9586 149.2727 356.9586" fill="none" fill-opacity="1" stroke="#000000" stroke-opacity="1" stroke-width="0.3527778" stroke-linecap="round" stroke-linejoin="round"/>
<path d="M 127.7647 361.3355 C 128.3166 361.3355 128.7649 360.77 128.7649 360.0737 L 128.7649 357.5501 C 128.7649 356.8539 128.3166 356.2883 127.7647 356.2883 L 120.5939 356.2883 C 120.0421 356.2883 119.5937 356.8539 119.5937 357.5501 L 119.5937 360.0737 C 119.5937 360.77 120.0421 361.3355 120.5939 361.3355 L 127.7647 361.3355 Z" fill="none" fill-opacity="1" stroke="#000000" stroke-opacity="1" stroke-width="0.3527778" stroke-linecap="round" stroke-linejoin="round"/>
</svg>