<?xml version="1.0" encoding="utf-8"?>
<!-- Generator: Adobe Illustrator 25.2.1, SVG Export Plug-In . SVG Version: 6.00 Build 0)  -->
<svg version="1.1" id="Layer_1" xmlns="http://www.w3.org/2000/svg" xmlns:xlink="http://www.w3.org/1999/xlink" x="0px" y="0px"
	 viewBox="0 0 4280.3 1133.9" style="enable-background:new 0 0 4280.3 1133.9;" xml:space="preserve">
<style type="text/css">
	.st0{fill:none;stroke:#010101;stroke-width:1;stroke-linecap:round;stroke-linejoin:round;stroke-miterlimit:11.3386;}
</style>
<g>
	<g>
		<path class="st0" d="M100.3,254.8c0.3-1.1,1.5-3,2.5-3.9c1.6-1.4,1.8-1.4,12.4-1.3c5.2,0,9.9,0.1,10.3,0.1
			c0.4,0.1,13.3,0,28.5-0.1c15.2-0.1,54.1-0.3,86.3-0.3c35.6-0.1,59.2-0.2,60.3-0.3c0.9-0.1,11.3-0.3,23-0.3l21.3-0.1l0.4,0.6
			c0.4,0.5,0.4,1.3,0.4,17c0.1,30.8,0.3,43.5,0.5,44.6c0.3,1.3-0.1,2.8-0.7,3.2c-0.3,0.2-2.5,0.3-10.1,0.3c-5.3,0-10.5,0.1-11.6,0.2
			c-1.1,0.1-3.3,0.2-5,0.3c-1.6,0.1-3,0.2-3,0.3c0,0.1,0.5,0.4,1.2,0.7c0.7,0.3,1.2,0.7,1.2,0.8s0.1,0.2,0.2,0.2
			c0.2,0,0.6,0.2,3.5,1.5c0.8,0.4,1.7,0.7,2,0.8c0.3,0.1,0.7,0.3,0.9,0.4c0.2,0.1,0.7,0.4,1.1,0.5c1.4,0.4,2.7,0.9,2.7,1.1
			c0,0.1,0.3,0.2,0.8,0.3c0.4,0.1,1,0.3,1.2,0.4c0.2,0.2,0.6,0.3,0.7,0.3c0.2,0,0.5,0.2,0.8,0.4c0.3,0.2,0.8,0.4,1.1,0.4
			s0.9,0.2,1.4,0.4c0.5,0.2,1.4,0.6,2,0.8c0.7,0.2,1.6,0.6,2,0.8c0.4,0.2,1.4,0.6,2.1,0.8c0.7,0.2,1.5,0.6,1.7,0.7
			c0.2,0.2,0.6,0.3,0.7,0.3s0.8,0.2,1.5,0.4c1.5,0.6,1.6,0.9,1.3,4.6c-0.3,3.4-0.1,111.3,0.2,125.3c0.2,9.5,0.4,50.6,0.4,94.4
			l0,29.2l-0.4,0.4c-0.4,0.3-2.5,0.4-42.6,0.4c-43.5,0-45.1,0-71.2,0.2c-8.6,0.1-32.8,0.2-53.8,0.3c-21,0.1-46.8,0.2-57.2,0.3
			c-20.3,0.1-20,0.2-20.2-0.8c-0.1-0.2-0.1-17.4-0.2-38.2c-0.2-59.8-0.3-90.3-0.5-151.6C100,311,100,256,100.3,254.8z"/>
		<path class="st0" d="M113,371.6c0.5,0.7,1.4,0.8,6.2,0.8c4.4,0,5-0.1,5-1c0-0.3,0-5.5,0-11.6c0-12.8,0.2-12-1.8-12.2
			c-0.6-0.1-2.8-0.2-4.9-0.2l-3.8,0l-0.6,0.6c-0.3,0.3-0.7,0.8-0.7,1c-0.1,0.2-0.1,5.3,0,11.3C112.6,370.3,112.6,371.2,113,371.6z"
			/>
	</g>
	<g>
		<g>
			<path class="st0" d="M100,583.5c0.3-0.4,0.6-0.4,10.6-0.4c5.7,0,26.4-0.1,46-0.2c19.6-0.1,60.7-0.3,91.3-0.3
				c30.6-0.1,57.5-0.2,59.7-0.3c5.1-0.2,25.4-0.2,32.2,0c5,0.1,5.8,0.3,5.8,0.9c0,0.2,0,29.7,0,65.5c0,35.8,0.1,75.9,0.2,89.1
				c0.1,20.2,0.1,24-0.1,24.3c-0.2,0.2-0.3,0.4-0.3,0.5c0,0.4-1.3,1.5-2.2,1.9c-0.8,0.4-1.3,0.4-3.4,0.4c-1.4,0-3.2-0.1-4.2-0.2
				c-1-0.1-2.4-0.2-3.3-0.2c-2,0-7.4,0.7-8.3,1.1c-0.4,0.2-1,0.3-1.2,0.3c-0.3,0-1.1,0.3-1.8,0.7s-1.6,0.7-2,0.8
				c-0.3,0.1-0.6,0.2-0.6,0.3c0,0.1-0.3,0.3-0.7,0.4c-0.4,0.1-0.8,0.4-0.9,0.5c-0.1,0.1-0.8,0.6-1.4,1c-1.2,0.9-4.2,3.7-5.3,5.1
				c-0.8,1.1-2.2,3.1-2.2,3.4c0,0.1-0.2,0.4-0.4,0.6c-0.3,0.4-1.1,2.1-1.3,3.1c-0.1,0.2-0.2,0.5-0.3,0.5c-0.1,0-0.2,0.4-0.3,1
				c-0.1,0.5-0.2,1.3-0.4,1.8c-0.2,0.4-0.3,1.3-0.4,1.8c-0.1,0.6-0.3,1.7-0.4,2.6c-0.5,2.7-0.2,5.9,1,10.4c0.6,2.4,1.8,5,3.4,7.7
				c0.3,0.6,0.6,1.2,0.6,1.4c0,0.2,0.2,0.7,0.4,1c0.2,0.3,0.4,0.8,0.4,1c0,0.2,0.1,0.6,0.3,0.8c0.4,0.6,0.8,4.1,0.8,7.1
				c0,2.4-0.4,5-0.8,5.9c-0.1,0.2-0.2,0.6-0.2,0.8c0,0.2-0.2,0.7-0.4,1.2c-0.2,0.5-0.4,1-0.5,1.1c-0.2,0.6-1.6,2.6-2.8,4.3
				c-0.3,0.4-0.8,1.2-1,1.7c-0.2,0.5-0.6,1.2-0.8,1.6c-0.5,1-1.3,3.8-1.3,4.4c0,0.3-0.1,0.7-0.3,0.9c-0.4,0.5-0.4,5-0.1,6.4
				c0.1,0.5,0.3,1.4,0.5,2.2c0.5,2.3,0.7,3.1,1.5,4.7c0.4,0.9,0.8,1.7,0.8,1.8c0,0.1,0.2,0.4,0.4,0.7c0.2,0.3,0.7,1.1,1.1,1.7
				c0.4,0.7,1,1.5,1.3,2c0.9,1.3,1.4,2.2,1.9,3.4c0.3,0.6,0.6,1.3,0.7,1.4c0.5,0.9,1.2,3.4,1.3,4.7c0.3,4,0.4,4.5,0,6.9
				c-0.3,2.6-0.7,4-1.3,5.4c-0.2,0.5-0.4,1-0.4,1.1c0,0.3-1.7,3.6-2.4,4.6c-0.3,0.4-1.1,2.1-1.6,3.3c-0.1,0.2-0.4,0.8-0.6,1.3
				c-0.2,0.5-0.5,1.3-0.6,1.8c-0.1,0.5-0.3,1.2-0.4,1.7c-0.1,0.4-0.3,1.9-0.4,3.2c-0.3,2.7,0,7.4,0.5,9.5c0.2,0.6,0.4,1.5,0.5,2
				c0.3,1.2,1.1,3.4,1.6,4.5c0.1,0.2,0.6,1,1,1.9c1.6,3,4.5,6.5,7.1,8.5c0.7,0.5,1.4,1.1,1.5,1.1c0.5,0.4,4.5,2.7,4.7,2.7
				c0.1,0,0.5,0.1,0.9,0.3c1.3,0.5,2.7,0.9,4.8,1.4c1.8,0.4,3.2,0.4,10.5,0.5c7.4,0.1,8.4,0.2,8.7,0.5c0.3,0.3,0.3,3,0.4,32.1
				c0.1,31.6,0.1,31.8-0.3,32.3l-0.4,0.5l-26.7-0.1c-32.2-0.1-56.7-0.1-71.1,0.1c-5.9,0.1-23,0.2-38.2,0.2
				c-31.8,0.1-58.9,0.2-85.2,0.4c-21.6,0.2-19.9,0.3-22.2-1.9c-0.7-0.7-1.5-1.8-1.8-2.3l-0.5-1l-0.2-35.8c-0.1-19.7-0.1-40.2,0-45.5
				c0.1-5.3,0.1-15.6,0.1-22.8c0-12.8,0-13.2,0.4-14c0.4-0.8,0.7-1.1,3.1-3.1c1.6-1.4,2.7-2.9,2.7-3.8c0-0.2,0.1-0.6,0.2-0.8
				c0.3-0.5,0.3-31.3,0-41.1c-0.1-5.1-0.1-9.7,0-15.2c0.3-12.1,0.4-19.7,0.1-20c-0.1-0.2-0.3-0.5-0.4-0.8c-0.2-0.8-1.4-2.2-2.6-3.1
				c-0.6-0.4-1.2-0.9-1.4-1.1c-0.2-0.2-0.5-0.5-0.8-0.7c-0.3-0.2-0.7-0.8-0.9-1.3l-0.5-0.9l0-17.5c0-9.6-0.1-32.5-0.3-50.7
				c-0.2-18.3-0.4-55-0.4-81.6C99.7,589.4,99.7,583.8,100,583.5z"/>
			<path class="st0" d="M113.1,914.1l0.4,0.6l4.5,0.1c2.5,0,4.8,0,5.1-0.1c1.2-0.2,1.2-0.3,1.4-12.7c0.1-10.5,0.1-11.1-0.3-11.7
				l-0.4-0.7l-4.2-0.1c-4.8-0.1-5.6,0-6.3,0.6l-0.5,0.4l-0.1,7.8c-0.1,4.3-0.1,9.4-0.1,11.5C112.7,913.3,112.7,913.6,113.1,914.1z"
				/>
			<path class="st0" d="M156.7,886.3c0.2,0.2,0.6,0.8,0.9,1.3c0.3,0.5,0.9,1.4,1.4,2.1c0.8,1.1,1.6,2.3,3.8,5.4
				c0.3,0.4,0.6,0.9,0.7,0.9c0.1,0.1,0.4,0.5,0.7,1c0.3,0.5,0.7,1,0.8,1.1c0.2,0.2,3.8,5,4.9,6.7c0.2,0.2,1,1.3,1.8,2.4
				c0.8,1.1,1.6,2.1,1.7,2.3c0.1,0.2,0.8,1.1,1.6,2.1c0.8,1,1.8,2.4,2.3,3c0.5,0.7,0.9,1.2,1,1.3c0.1,0.1,0.6,0.7,1.1,1.5
				c0.5,0.8,1.1,1.6,1.3,1.7c0.2,0.2,0.5,0.5,0.7,0.8c1,1.4,2.4,3.3,2.9,3.8c0.1,0.1,0.5,0.6,0.8,1c0.3,0.4,0.7,0.9,0.9,1.1
				c0.4,0.5,0.9,1.1,1.4,1.7c0.2,0.3,1.1,1.4,1.9,2.5c0.9,1.1,1.6,2.1,1.6,2.2s0.1,0.2,0.2,0.2c0.2,0,1.6,1.8,2.4,3
				c0.3,0.4,0.6,0.8,0.7,0.8c0.1,0.1,0.5,0.5,0.8,1c0.3,0.5,0.7,1,0.9,1.2c0.5,0.6,0.9,1,2.2,2.7c0.7,0.9,1.4,1.7,1.5,1.8
				c0.1,0.1,0.4,0.5,0.7,0.8c1,1.3,2.9,3.3,3.2,3.4c0.5,0.1,1.7-0.5,2.6-1.2c1-0.9,2.4-2,4.8-3.7c1.2-0.9,2.6-1.9,3-2.2
				c0.4-0.4,1.5-1.2,2.4-1.9c0.9-0.7,1.8-1.4,2-1.5c0.2-0.2,0.7-0.6,1.2-0.9c0.4-0.3,1.6-1.2,2.6-2c1-0.8,2.7-2.1,3.8-2.9
				c2.3-1.8,2.5-2.2,1.8-3.4c-0.3-0.5-0.7-1.2-1.1-1.6c-0.8-1-1.5-2.1-1.5-2.3c0-0.1-0.2-0.4-0.5-0.6c-0.3-0.3-0.6-0.8-0.8-1.1
				c-0.1-0.3-0.4-0.8-0.7-1.1c-0.2-0.3-0.9-1.2-1.5-2c-2.1-2.9-3.2-4.4-4.3-5.9c-0.6-0.8-1.5-2-1.9-2.6c-0.4-0.6-1.5-2-2.3-3.1
				c-0.8-1.1-1.8-2.5-2.2-3c-0.4-0.6-1.1-1.5-1.7-2.2c-1-1.2-2.2-2.9-2.7-3.8c-0.1-0.3-0.3-0.5-0.4-0.5c-0.1,0-0.5-0.4-0.8-1
				c-0.4-0.5-0.7-1-0.8-1c-0.1,0-0.4-0.4-0.6-0.8c-0.2-0.4-0.6-0.9-0.7-1c-0.2-0.2-1-1.2-1.9-2.4c-2.2-2.8-2.2-2.9-3.1-3.9
				c-0.4-0.5-0.8-0.9-0.8-1c0-0.1-0.5-0.7-1.1-1.5c-0.6-0.8-1.2-1.6-1.4-1.9c-0.2-0.3-1.4-1.9-2.7-3.5c-1.3-1.7-2.5-3.2-2.7-3.5
				c-0.2-0.3-0.5-0.7-0.8-1.1c-0.6-0.8-3-3.8-3.4-4.5c-0.2-0.3-0.6-0.7-0.9-1c-0.3-0.3-0.5-0.6-0.5-0.7c0-0.2-2.9-3.8-3.8-4.8
				c-0.5-0.5-0.9-0.8-1.3-0.8c-0.3,0-0.6,0.1-0.6,0.2c0,0.1-0.4,0.4-0.8,0.8c-1.7,1.2-4.3,3.1-4.4,3.4c-0.1,0.2,0,0.6,0.3,1
				c0.3,0.5,0.4,0.9,0.3,1.3c-0.1,0.5-1.4,1.7-2.7,2.6c-0.6,0.4-1.8,1.3-2.5,1.8c-0.3,0.3-0.8,0.6-1,0.8c-0.3,0.2-1.5,1.1-2.8,2.2
				c-3.1,2.4-3.4,2.6-4.9,3.9c-0.7,0.6-1.7,1.4-2.2,1.8c-0.5,0.4-1,0.9-1.1,1.1C156.1,884.7,156.3,885.9,156.7,886.3z"/>
		</g>
		<path class="st0" d="M217,868.3v-45.4c0-1.6,1.3-2.8,2.8-2.8h51c1.6,0,2.8,1.3,2.8,2.8v45.4c0,1.6-1.3,2.8-2.8,2.8h-51
			C218.2,871.1,217,869.8,217,868.3z"/>
	</g>
</g>
</svg>
