<?xml version="1.0" encoding="utf-8"?>
<!DOCTYPE svg PUBLIC "-//W3C//DTD SVG 1.1//EN" "http://www.w3.org/Graphics/SVG/1.1/DTD/svg11.dtd">
<!-- exported from Silhouette Studio Business Edition V4.1.206ssbe -->
<svg version="1.1" xmlns="http://www.w3.org/2000/svg" xmlns:xlink="http://www.w3.org/1999/xlink" width="304.8mm" height="500mm" viewBox="0 0 304.8 500">
<defs/>
<path d="M 33.66791 192.4972 C 33.2626 192.4059 32.61056 191.9845 32.28434 191.6032 C 31.80048 191.0376 31.79452 190.9826 31.80907 187.2231 C 31.81623 185.3721 31.83915 183.7301 31.85999 183.5742 C 31.88083 183.4184 31.86421 178.891 31.82305 173.5133 C 31.78188 168.1357 31.73025 154.4419 31.70831 143.0826 C 31.68407 130.5372 31.64154 122.1931 31.59997 121.8272 C 31.56233 121.496 31.51134 117.8444 31.48665 113.7126 L 31.44176 106.2002 L 31.64491 106.067 C 31.8388 105.9399 32.11305 105.9328 37.65753 105.9103 C 48.53761 105.8663 53.01701 105.8186 53.38062 105.7429 C 53.83276 105.6487 54.37351 105.7636 54.50705 105.9821 C 54.5794 106.1005 54.60223 106.8761 54.61165 109.5345 C 54.61827 111.405 54.65353 113.2542 54.68999 113.6439 C 54.72645 114.0336 54.77669 114.8227 54.80163 115.3975 C 54.82657 115.9723 54.86756 116.4417 54.89272 116.4408 C 54.91788 116.4399 55.02853 116.2486 55.13861 116.0157 C 55.24868 115.7828 55.36818 115.5923 55.40415 115.5923 C 55.44012 115.5923 55.46956 115.5546 55.46956 115.5084 C 55.46956 115.4264 55.52531 115.2971 55.99839 114.2816 C 56.12547 114.0088 56.25214 113.6899 56.27988 113.573 C 56.30763 113.4561 56.37109 113.3127 56.42091 113.2542 C 56.47072 113.1958 56.54599 113.0204 56.58818 112.8645 C 56.72501 112.359 56.90116 111.908 56.96178 111.908 C 56.99435 111.908 57.04195 111.7885 57.06756 111.6423 C 57.09317 111.4962 57.15834 111.306 57.21239 111.2197 C 57.26645 111.1334 57.31066 111.0182 57.31066 110.9636 C 57.31066 110.909 57.37439 110.7833 57.45229 110.6842 C 57.53018 110.5851 57.59391 110.417 57.59391 110.3105 C 57.59391 110.204 57.65517 109.9858 57.73005 109.8257 C 57.80492 109.6655 57.93631 109.3432 58.02201 109.1094 C 58.10771 108.8756 58.23522 108.5568 58.30537 108.4009 C 58.37551 108.245 58.50137 107.9123 58.58506 107.6615 C 58.66875 107.4108 58.7827 107.1406 58.83828 107.0612 C 58.89385 106.9818 58.93932 106.8631 58.93932 106.7973 C 58.93932 106.7315 59.00703 106.5006 59.08979 106.2842 C 59.29752 105.7411 59.42147 105.7057 60.73017 105.8155 C 61.92689 105.916 100.0018 105.8547 104.9315 105.7443 C 108.2727 105.6695 122.7873 105.6045 138.2457 105.5951 L 148.5463 105.5888 L 148.6728 105.745 C 148.7932 105.8939 148.7997 106.6101 148.8102 120.79 C 148.8216 136.1476 148.8235 136.7018 148.8969 145.9167 C 148.921 148.9367 148.9608 157.4814 148.9854 164.9049 C 149.01 172.3284 149.0506 181.415 149.0757 185.0975 C 149.1244 192.2606 149.1296 192.1372 148.7802 192.2166 C 148.6933 192.2363 142.6316 192.2687 135.3096 192.2886 C 114.2214 192.3459 103.4428 192.3819 81.81148 192.4672 C 53.48669 192.5789 34.084 192.591 33.66791 192.4972 Z" fill="none" fill-opacity="1" stroke="#000000" stroke-opacity="1" stroke-width="0.3527778" stroke-linecap="round" stroke-linejoin="round"/>
<path d="M 74.87195 188.0083 C 75.10645 187.8396 75.14723 187.5311 75.16309 185.806 C 75.17736 184.2527 75.13548 184.0359 74.82059 184.0329 C 74.71252 184.0318 72.86961 184.0242 70.72525 184.0159 C 66.20583 183.9984 66.49199 183.9562 66.4048 184.6528 C 66.37663 184.8779 66.35033 185.6576 66.34636 186.3855 L 66.33914 187.7089 L 66.54362 187.9229 C 66.6561 188.0405 66.81543 188.1522 66.89769 188.1711 C 66.97995 188.1899 68.76799 188.1896 70.87109 188.1704 C 74.40527 188.1382 74.70833 188.1259 74.87195 188.0083 Z" fill="none" fill-opacity="1" stroke="#000000" stroke-opacity="1" stroke-width="0.3527778" stroke-linecap="round" stroke-linejoin="round"/>
<path d="M 162.6484 200.7019 C 162.5104 200.5982 162.5064 200.5042 162.4924 196.9586 C 162.4846 194.9583 162.4454 187.6625 162.4054 180.7456 C 162.3654 173.8288 162.3161 159.3379 162.2958 148.5437 C 162.2756 137.7495 162.2351 128.2642 162.2059 127.4654 C 162.1404 125.6758 162.1362 118.4892 162.1991 116.1193 C 162.2463 114.3451 162.2895 114.0751 162.527 114.0737 C 162.5938 114.0733 172.9887 114.0695 185.6268 114.0651 C 198.2649 114.0608 212.413 114.0331 217.0671 114.0037 C 224.2072 113.9585 225.5466 113.9654 225.6409 114.0477 C 225.7024 114.1014 225.7853 114.1453 225.8251 114.1453 C 225.9675 114.1453 226.3554 114.5864 226.4996 114.9121 C 226.624 115.1933 226.6449 115.3748 226.6374 116.1104 C 226.6325 116.5872 226.5965 117.2567 226.5574 117.5983 C 226.5182 117.9398 226.4865 118.4584 226.4868 118.7506 C 226.4876 119.4698 226.7339 121.3453 226.8704 121.671 C 226.9311 121.8159 226.9813 122.0072 226.982 122.0961 C 226.9826 122.185 227.0928 122.4784 227.2268 122.748 C 227.3608 123.0176 227.4903 123.3284 227.5145 123.4388 C 227.5387 123.5491 227.584 123.6394 227.6151 123.6394 C 227.6462 123.6394 227.7141 123.743 227.7658 123.8697 C 227.8176 123.9963 227.8931 124.1378 227.9337 124.1841 C 227.9743 124.2303 228.135 124.4495 228.2908 124.6711 C 228.5961 125.1054 229.5983 126.1419 230.1017 126.544 C 230.4741 126.8416 231.2109 127.3237 231.2931 127.3237 C 231.3255 127.3237 231.428 127.3804 231.5209 127.4498 C 231.6794 127.5683 232.2717 127.8225 232.628 127.925 C 232.7156 127.9502 232.7873 127.9987 232.7873 128.0326 C 232.7873 128.0666 232.9387 128.1142 233.1237 128.1384 C 233.3087 128.1627 233.5875 128.2265 233.7433 128.2803 C 233.899 128.3342 234.1859 128.3982 234.3806 128.4226 C 234.5753 128.4471 234.9854 128.5155 235.2918 128.5748 C 236.2305 128.7564 237.3697 128.6495 238.9479 128.2317 C 239.7941 128.0077 240.7163 127.6061 241.6742 127.0447 C 241.8689 126.9305 242.092 126.8348 242.1699 126.8319 C 242.2478 126.8291 242.4071 126.7634 242.5239 126.686 C 242.6407 126.6086 242.7932 126.545 242.8628 126.5448 C 242.9323 126.5445 243.0602 126.4977 243.1469 126.4409 C 243.3585 126.3022 244.594 126.1637 245.6396 126.1615 C 246.48 126.1598 247.3942 126.2922 247.7062 126.4607 C 247.7913 126.5067 247.9153 126.5443 247.9817 126.5443 C 248.0482 126.5443 248.2335 126.6055 248.3935 126.6803 C 248.5536 126.7551 248.7323 126.8341 248.7907 126.8559 C 249.0007 126.9343 249.7235 127.4079 250.3132 127.8535 C 250.469 127.9713 250.7398 128.1362 250.9151 128.2201 C 251.0903 128.304 251.3453 128.4265 251.4816 128.4922 C 251.8332 128.6619 252.8171 128.9532 253.0384 128.9532 C 253.1409 128.9532 253.2867 129.0001 253.3623 129.0573 C 253.5291 129.1836 255.1287 129.2084 255.6053 129.0921 C 255.7714 129.0516 256.1144 128.9744 256.3676 128.9204 C 257.1641 128.7508 257.449 128.658 258.037 128.3766 C 258.3516 128.2262 258.6317 128.103 258.6595 128.103 C 258.6873 128.103 258.7964 128.0428 258.902 127.9693 C 259.0075 127.8957 259.285 127.7155 259.5187 127.5688 C 259.7524 127.4222 260.0649 127.2193 260.2131 127.1181 C 260.657 126.8149 260.9842 126.6255 261.3952 126.4338 C 261.6094 126.3339 261.8362 126.2245 261.8993 126.1909 C 262.2184 126.0203 263.1163 125.7735 263.555 125.7356 C 264.9785 125.6129 265.1489 125.6118 265.9833 125.721 C 266.8877 125.8393 267.3869 125.9641 267.8822 126.1957 C 268.0423 126.2705 268.2199 126.3317 268.2769 126.3317 C 268.38 126.3317 269.5524 126.9481 269.8945 127.1821 C 270.0502 127.2887 270.6205 127.5654 271.061 127.7481 C 271.1389 127.7804 271.3476 127.8733 271.5249 127.9545 C 271.7022 128.0356 271.989 128.1321 272.1622 128.1688 C 272.3355 128.2056 272.5997 128.2669 272.7495 128.3051 C 272.8992 128.3433 273.4118 128.4141 273.8887 128.4624 C 274.8497 128.5598 276.4882 128.4727 277.2437 128.284 C 277.4652 128.2287 277.7899 128.1521 277.9651 128.1139 C 278.3984 128.0193 279.1683 127.7358 279.5354 127.5355 C 279.6006 127.4999 279.9034 127.3388 280.2081 127.1774 C 281.2817 126.609 282.4916 125.6052 283.2097 124.6871 C 283.4014 124.4421 283.5833 124.2097 283.614 124.1708 C 283.7479 124.0007 284.5506 122.5805 284.5506 122.5137 C 284.5506 122.473 284.596 122.335 284.6516 122.207 C 284.8432 121.7653 284.9855 121.2633 285.1293 120.5219 C 285.2542 119.8781 285.2798 119.3804 285.3193 116.8223 C 285.3596 114.2133 285.3786 113.8531 285.4814 113.7503 C 285.5881 113.6437 286.5337 113.6311 296.8135 113.6 C 307.9485 113.5664 308.0303 113.5671 308.2039 113.7078 L 308.3787 113.8495 L 308.3433 123.2612 C 308.3005 134.6162 308.3129 143.274 308.379 148.3311 C 308.4059 150.3964 308.4402 156.4542 308.455 161.7929 C 308.4861 172.995 308.5325 182.5676 308.6005 191.8476 C 308.6565 199.4807 308.708 198.8848 307.9246 199.6698 C 307.6681 199.9269 307.2988 200.2124 307.1041 200.3043 L 306.75 200.4715 L 294.1102 200.5285 C 287.1582 200.5599 279.9408 200.5676 278.0714 200.5456 C 276.2019 200.5236 272.5764 200.5028 270.0147 200.4995 C 265.5053 200.4936 265.3486 200.4889 265.0933 200.3523 C 264.8009 200.1958 264.6974 200.0945 263.991 199.2733 C 263.5116 198.7159 262.9543 198.3168 262.6554 198.3168 C 262.5803 198.3168 262.4575 198.2839 262.3825 198.2437 C 262.201 198.1465 251.3292 198.1515 247.8702 198.2503 C 246.0849 198.3014 244.4315 198.3016 242.5239 198.2511 C 238.2468 198.1378 235.5886 198.1259 235.4717 198.2195 C 235.4168 198.2635 235.2923 198.3239 235.1949 198.3539 C 234.9086 198.4419 234.4019 198.8623 234.0973 199.2646 C 233.9416 199.4704 233.7663 199.6885 233.7079 199.7493 C 233.6495 199.8101 233.5455 199.9376 233.4769 200.0326 C 233.4084 200.1277 233.2087 200.2772 233.0332 200.3649 L 232.7142 200.5243 L 226.537 200.517 C 223.1396 200.513 215.0862 200.5566 208.6405 200.6139 C 202.1949 200.6712 189.2417 200.7384 179.8556 200.7632 C 164.7401 200.8032 162.7739 200.7962 162.6484 200.7019 Z" fill="none" fill-opacity="1" stroke="#000000" stroke-opacity="1" stroke-width="0.3527778" stroke-linecap="round" stroke-linejoin="round"/>
<path d="M 279.2879 196.0774 L 279.4875 195.9281 L 279.5082 194.3415 C 279.5196 193.4689 279.5111 192.6559 279.4893 192.5349 C 279.4112 192.1015 279.369 192.097 275.0262 192.0511 C 271.3099 192.0119 271.12 192.0162 270.8837 192.1429 L 270.6361 192.2757 L 270.615 193.7552 C 270.591 195.4341 270.6189 195.7294 270.8245 195.9787 L 270.9706 196.1558 L 273.7066 196.1957 C 275.2114 196.2176 277.0379 196.2336 277.7654 196.2311 C 278.9964 196.227 279.1021 196.2163 279.2879 196.0774 Z" fill="none" fill-opacity="1" stroke="#000000" stroke-opacity="1" stroke-width="0.3527778" stroke-linecap="round" stroke-linejoin="round"/>
<path d="M 269.4957 180.6872 C 269.5777 180.613 269.7882 180.4672 269.9635 180.3632 C 270.1388 180.2592 270.4733 180.0341 270.707 179.8629 C 271.0798 179.5897 271.5105 179.2879 272.6109 178.5283 C 272.7687 178.4193 272.9148 178.3076 272.9355 178.2801 C 272.9561 178.2525 273.1164 178.1345 273.2917 178.0177 C 273.4669 177.9009 273.6422 177.7688 273.6811 177.7242 C 273.7389 177.6581 275.4503 176.3996 276.0286 175.9981 C 276.1124 175.9399 276.4899 175.6532 276.8677 175.3609 C 277.2454 175.0687 277.6063 174.7977 277.6696 174.7587 C 277.7329 174.7197 278.0723 174.4622 278.4237 174.1863 C 278.7752 173.9104 279.254 173.5439 279.4876 173.3719 C 279.7213 173.1998 279.9286 173.0378 279.9482 173.0118 C 279.9678 172.9858 280.2068 172.8134 280.4793 172.6287 C 280.7518 172.4439 281.0266 172.2418 281.0899 172.1796 C 281.1533 172.1173 281.2808 172.0121 281.3732 171.9459 C 281.8508 171.6035 282.5217 171.1022 282.7291 170.9327 C 282.7768 170.8938 282.9433 170.7686 283.0991 170.6546 C 283.2549 170.5406 283.4301 170.4041 283.4885 170.3513 C 283.6497 170.2056 283.8834 170.0181 284.0937 169.8655 C 284.1978 169.79 284.5981 169.4812 284.9832 169.1792 C 285.3684 168.8772 285.7154 168.6301 285.7544 168.6301 C 285.7934 168.6301 285.8253 168.6057 285.8253 168.576 C 285.8253 168.5194 286.46 168.0063 286.8866 167.7181 C 287.0234 167.6257 287.1578 167.5114 287.1854 167.4641 C 287.2129 167.4169 287.3712 167.2853 287.537 167.1716 C 287.7029 167.058 287.8932 166.9172 287.9599 166.8588 C 288.1764 166.6689 288.3264 166.5472 288.9038 166.0919 C 289.2164 165.8455 289.504 165.6056 289.5429 165.5589 C 289.5818 165.5121 289.7094 165.4012 289.8262 165.3125 C 290.2834 164.9654 290.982 164.2929 291.0145 164.1688 C 291.059 163.9985 290.853 163.5535 290.596 163.2651 C 290.2661 162.8947 289.8913 162.4093 289.2951 161.5804 C 288.9868 161.1517 288.6299 160.6762 288.5018 160.5237 C 288.3737 160.3711 288.0764 159.9885 287.8412 159.6734 C 287.6061 159.3584 287.3602 159.0368 287.2947 158.9588 C 287.2293 158.8809 287.087 158.6983 286.9785 158.5531 C 286.8701 158.4079 286.5509 157.9935 286.2694 157.6321 C 285.9879 157.2707 285.524 156.6722 285.2386 156.3022 C 284.6203 155.5007 284.4728 155.4221 284.038 155.6624 C 283.8721 155.7542 283.6139 155.9247 283.4642 156.0414 C 283.0958 156.3284 282.7142 156.5851 282.6534 156.5865 C 282.6259 156.5872 282.5237 156.6718 282.4264 156.7746 C 282.329 156.8773 282.15 157.003 282.0285 157.0538 C 281.907 157.1046 281.7318 157.2104 281.639 157.2888 C 281.5463 157.3672 281.2314 157.6057 280.9393 157.8188 C 279.9203 158.562 279.3746 158.9615 278.8498 159.3485 C 278.5591 159.5628 278.1457 159.8657 277.9312 160.0216 C 277.7168 160.1775 277.2234 160.5441 276.8349 160.8364 C 276.4464 161.1287 275.9654 161.4794 275.766 161.6158 C 275.5667 161.7521 275.2231 162.0183 275.0026 162.2073 C 274.5914 162.5597 273.984 162.9965 273.6769 163.1606 C 273.5819 163.2115 273.5041 163.2778 273.5041 163.308 C 273.5041 163.3383 273.3527 163.4708 273.1677 163.6025 C 272.9827 163.7342 272.8211 163.8659 272.8087 163.8952 C 272.7962 163.9245 272.6687 164.0191 272.5254 164.1055 C 272.3821 164.1918 272.2171 164.3058 272.1587 164.3589 C 272.1003 164.412 271.7179 164.7084 271.3089 165.0177 C 270.3048 165.7771 270.2836 165.7938 269.9431 166.0961 C 269.7791 166.2417 269.6242 166.3613 269.599 166.3618 C 269.5739 166.3624 269.3349 166.5304 269.068 166.7352 C 268.8011 166.94 268.503 167.1589 268.4056 167.2217 C 268.3083 167.2844 267.7465 167.7146 267.1571 168.1777 C 266.5677 168.6408 266.013 169.0676 265.9243 169.126 C 265.8358 169.1845 265.6647 169.316 265.5443 169.4184 C 265.2751 169.6472 264.1871 170.4654 263.9427 170.6228 C 263.8443 170.6862 263.685 170.8212 263.5886 170.9227 C 263.4923 171.0243 263.3888 171.108 263.3587 171.1086 C 263.2871 171.1102 262.003 172.1215 261.6609 172.4457 C 261.4773 172.6197 261.3953 172.7585 261.3953 172.8955 C 261.3953 173.0045 261.4229 173.0937 261.4565 173.0937 C 261.4901 173.0937 261.6096 173.228 261.722 173.3921 C 262.1336 173.9931 262.8332 174.9019 262.926 174.9564 C 262.9833 174.99 263.1296 174.9501 263.2919 174.8566 C 263.48 174.7483 263.6195 174.7152 263.7499 174.748 C 263.9165 174.7898 264.3351 175.2376 264.6526 175.7137 C 264.7953 175.9276 265.1038 176.3426 265.3038 176.5899 C 265.3936 176.7008 265.5148 176.865 265.5732 176.9549 C 265.6316 177.0447 265.9745 177.496 266.3353 177.9577 C 267.1901 179.0519 267.2606 179.14 267.7082 179.6756 C 267.9165 179.9249 268.2048 180.2747 268.3488 180.4528 C 268.4928 180.6309 268.668 180.8007 268.7383 180.8303 C 268.9337 180.9124 269.3293 180.8377 269.4957 180.6872 Z" fill="none" fill-opacity="1" stroke="#000000" stroke-opacity="1" stroke-width="0.3527778" stroke-linecap="round" stroke-linejoin="round"/>
</svg>