<?xml version="1.0" encoding="UTF-8" standalone="no"?>
<!-- exported from Silhouette Studio Business Edition V4.1.479ssbe -->

<svg
   xmlns:dc="http://purl.org/dc/elements/1.1/"
   xmlns:cc="http://creativecommons.org/ns#"
   xmlns:rdf="http://www.w3.org/1999/02/22-rdf-syntax-ns#"
   xmlns:svg="http://www.w3.org/2000/svg"
   xmlns="http://www.w3.org/2000/svg"
   xmlns:sodipodi="http://sodipodi.sourceforge.net/DTD/sodipodi-0.dtd"
   xmlns:inkscape="http://www.inkscape.org/namespaces/inkscape"
   version="1.1"
   width="1200mm"
   height="1200mm"
   viewBox="0 0 1200 1200"
   id="svg22"
   sodipodi:docname="T430S_PR_FP.svg"
   inkscape:version="0.92.3 (2405546, 2018-03-11)">
  <metadata
     id="metadata26">
    <rdf:RDF>
      <cc:Work
         rdf:about="">
        <dc:format>image/svg+xml</dc:format>
        <dc:type
           rdf:resource="http://purl.org/dc/dcmitype/StillImage" />
        <dc:title></dc:title>
      </cc:Work>
    </rdf:RDF>
  </metadata>
  <sodipodi:namedview
     pagecolor="#ffffff"
     bordercolor="#666666"
     borderopacity="1"
     objecttolerance="10"
     gridtolerance="10"
     guidetolerance="10"
     inkscape:pageopacity="0"
     inkscape:pageshadow="2"
     inkscape:window-width="1920"
     inkscape:window-height="1017"
     id="namedview24"
     showgrid="false"
     inkscape:zoom="0.58870568"
     inkscape:cx="1024.905"
     inkscape:cy="3490.7386"
     inkscape:window-x="-8"
     inkscape:window-y="-8"
     inkscape:window-maximized="1"
     inkscape:current-layer="g1544"
     showguides="true"
     inkscape:guide-bbox="true" />
  <defs
     id="defs2" />
  <g
     id="g1544">
    <g
       id="g963"
       style="stroke:#000000;stroke-width:0.35277778;stroke-miterlimit:4;stroke-dasharray:none;stroke-opacity:1"
       transform="rotate(90,250.18667,308.9371)">
      <g
         transform="translate(171.45003,79.375004)"
         id="g951"
         style="stroke:#000000;stroke-width:0.35277778;stroke-miterlimit:4;stroke-dasharray:none;stroke-opacity:1">
        <path
           d="m -97.95141,271.80938 c -0.4872,-0.11999 -1.1603,-0.49836 -1.4456,-0.81282 -0.5592,-0.61606 -0.5261,2.22709 -0.5209,-44.74745 l 0.005,-42.67932 0.2682,-0.49095 c 0.4935,-0.90316 -0.4992,-0.82807 10.7786,-0.8147 11.2066,0.0133 10.3859,-0.044 10.8725,0.75799 l 0.2724,0.44928 -0.001,4.07934 c -7e-4,2.24379 0.0353,4.20999 0.0799,4.36936 0.1146,0.40928 0.3652,0.89428 0.4621,0.89428 0.0451,0 0.1473,-0.24501 0.2272,-0.54453 0.08,-0.29962 0.2081,-0.73647 0.2848,-0.97093 0.2956,-0.90389 0.6542,-2.4442 0.7149,-3.0705 0.0349,-0.3603 0.1219,-0.85052 0.1933,-1.08947 0.0713,-0.23884 0.1666,-0.73282 0.2117,-1.09751 0.3009,-2.43396 0.2781,-2.32827 0.6186,-2.86434 0.2009,-0.31623 0.4673,-0.59236 0.6937,-0.71914 l 0.3676,-0.20563 h 44.9926 44.9926 l 0.303,0.22589 c 0.1688,0.12584 0.3803,0.4145 0.4776,0.65188 0.2026,0.49398 0.1889,-3.78692 0.1712,53.53276 -0.01,31.95539 -0.0208,34.256 -0.164,34.57557 -0.1236,0.27571 -0.2415,0.37367 -0.6065,0.5039 -0.4253,0.15174 -3.9384,0.16135 -57.181,0.15623 -32.556,-0.003 -56.8728,-0.041 -57.0681,-0.0892 z"
           id="path12"
           inkscape:connector-curvature="0"
           style="fill:none;fill-opacity:1;stroke:#000000;stroke-width:0.35277778;stroke-linecap:round;stroke-linejoin:round;stroke-miterlimit:4;stroke-dasharray:none;stroke-opacity:1" />
        <path
           d="m -59.122011,268.33441 c 0.2147,-0.11989 0.4853,-0.38109 0.6116,-0.59017 0.1983,-0.32824 0.2261,-0.47883 0.2226,-1.2058 -0.0108,-2.26228 -0.5593,-2.49705 -5.7504,-2.46154 l -2.9905,0.0205 -0.5063,0.25983 c -0.4146,0.21284 -0.5542,0.35017 -0.7703,0.75789 -0.24,0.45293 -0.2637,0.57909 -0.262,1.39776 0.002,0.79726 0.0274,0.9396 0.2252,1.24789 0.4935,0.76907 0.8533,0.8194 5.7085,0.80081 3.0661,-0.0118 3.1338,-0.0162 3.5116,-0.22714 z"
           id="path14"
           inkscape:connector-curvature="0"
           style="fill:none;fill-opacity:1;stroke:#000000;stroke-width:0.35277778;stroke-linecap:round;stroke-linejoin:round;stroke-miterlimit:4;stroke-dasharray:none;stroke-opacity:1" />
      </g>
      <path
         d="m 198.61938,304.59166 c 1.1036,0 2,-0.7912 2,-1.7652 v -32.4694 c 0,-0.9741 -0.8964,-1.7653 -2,-1.7653 h -4 c -1.1035,0 -2,0.7912 -2,1.7653 v 32.4694 c 0,0.974 0.8965,1.7652 2,1.7652 z"
         id="path18"
         inkscape:connector-curvature="0"
         style="fill:none;fill-opacity:1;stroke:#000000;stroke-width:0.35277778;stroke-linecap:round;stroke-linejoin:round;stroke-miterlimit:4;stroke-dasharray:none;stroke-opacity:1" />
      <path
         d="m 198.40926,344.21514 c 1.1035,0 2,-0.7913 2,-1.7653 v -32.4694 c 0,-0.974 -0.8964,-1.7653 -2,-1.7653 h -4 c -1.1035,0 -2,0.7913 -2,1.7653 v 32.4694 c 0,0.974 0.8964,1.7653 2,1.7653 z"
         id="path20"
         inkscape:connector-curvature="0"
         style="fill:none;fill-opacity:1;stroke:#000000;stroke-width:0.35277778;stroke-linecap:round;stroke-linejoin:round;stroke-miterlimit:4;stroke-dasharray:none;stroke-opacity:1" />
      <g
         id="g947"
         style="stroke:#000000;stroke-width:0.35277778;stroke-miterlimit:4;stroke-dasharray:none;stroke-opacity:1">
        <path
           d="m 324.0386,311.99218 c 0.10087,-0.23629 0.0727,-0.30722 0.14217,-0.55557 0.007,-0.0262 0.0839,-0.26282 0.22604,-0.4914 0.14449,-0.2323 0.2534,-0.32239 0.35418,-0.41231 0.0435,-0.0388 0.0611,-0.056 0.0902,-0.1161 0,0 0.0148,-0.0934 -0.01,-0.17959 -0.0149,-0.0521 -0.0996,-0.25216 -0.22985,-0.48732 l -0.53427,-0.91169 c 0.0684,-0.0633 0.79581,-0.81761 1.44521,-1.16749 0,0 0.2938,-0.14733 0.32797,-0.1599 0.0865,-0.0318 0.12127,-0.0265 0.20273,-0.0223 0.0643,0.0373 0.11919,0.0706 0.197,0.15226 0.0931,0.0977 0.20198,0.24297 0.28642,0.34893 0.36008,0.45169 1.51886,1.99308 2.32462,3.07621 l 2.82636,3.83059 c 0.0396,0.0547 0.60146,0.8164 0.76495,1.11347 0,0 0.1732,0.27749 0.16706,0.48265 -0.006,0.1938 -0.161,0.33349 -0.38538,0.50535 -0.10194,0.0781 -0.2427,0.17516 -0.34597,0.25147 -0.27888,0.2062 -0.64783,0.48541 -0.92438,0.69499 -0.32557,0.24679 -0.75764,0.57873 -1.0823,0.82681 0,0 -3.08467,2.35623 -3.247,2.48031 -1.38581,1.06006 -8.33627,6.33138 -13.80661,10.67375 -0.54148,0.42992 -2.56956,2.04546 -2.7075,2.14925 0,0 -0.39608,0.29863 -0.51113,0.33731 -0.032,0.0108 -0.0618,0.0125 -0.11181,0.006 -0.13496,-0.0911 -0.19103,-0.19693 -0.2466,-0.26994 0,0 -0.30285,-0.4111 -0.43258,-0.58739 -0.2515,-0.34138 -0.91317,-1.25923 -1.64577,-2.30082 l -0.70107,-0.99685 c -0.30368,-0.43607 -0.61291,-0.94134 -0.6465,-0.98999 -0.10037,-0.14542 -0.84541,-1.13827 -1.10769,-1.3697 0,0 -0.16681,-0.17785 -0.33843,-0.18418 -0.0873,-0.003 -0.19443,0.0362 -0.32988,0.11932 -0.30069,0.18461 -0.56247,0.47822 -0.7997,0.36298 -0.12973,-0.063 -0.24362,-0.21306 -0.40396,-0.42377 0,0 -0.41872,-0.57213 -0.58619,-0.82627 0,0 -0.22064,-0.32891 -0.26469,-0.45351 -0.01,-0.0281 -0.0268,-0.0736 -0.021,-0.14828 0.1133,-0.13649 0.14972,-0.16371 0.31503,-0.30922 0.36083,-0.31754 0.57276,-0.49192 1.05054,-0.8823 0,0 1.97424,-1.60018 2.07809,-1.68455 l 1.14983,-0.93406 c 0.0566,-0.0463 0.40089,-0.36975 0.61564,-0.38631 0.16888,-0.013 0.31105,0.11897 0.47098,0.32535 0.13968,0.18027 0.55185,0.8085 0.68548,0.91229 0.12583,0.0979 0.25954,0.12105 0.44634,0.0416 0.0248,-0.0104 0.28227,-0.13466 0.42942,-0.33393 0.028,-0.0379 0.093,-0.13483 0.0927,-0.21851 -8.3e-4,-0.2395 -0.35734,-0.817 -0.46235,-1.09552 -0.0645,-0.1709 -0.1878,-0.47631 -0.0622,-0.91655 0.0104,-0.0366 0.14151,-0.44431 0.3201,-0.68589 0.13288,-0.17984 0.26411,-0.30705 0.61531,-0.40018 0,0 0.35659,-0.0991 0.70149,-0.0307 0.32175,0.0639 0.59424,0.29985 0.71733,0.41283 0,0 0.24453,0.24106 0.28841,0.28286 0.0833,0.0793 0.19261,0.18712 0.28095,0.26005 0.0827,0.0683 0.20115,0.14792 0.28741,0.21131 0,0 1.29532,-1.03647 1.70201,-1.41323 0,0 0.19551,-0.18114 0.23002,-0.21314 0.0723,-0.0669 0.26842,-0.22198 0.30019,-0.39558 0.0179,-0.0978 -0.04,-0.22077 -0.12501,-0.37651 0,0 -0.38745,-0.64045 -0.42751,-0.71346 0,0 -0.13463,-0.24123 -0.16863,-0.38518 -0.007,-0.0289 -0.008,-0.0661 -8.3e-4,-0.11914 0.0661,-0.11108 0.0741,-0.12469 0.16904,-0.23065 0.049,-0.0546 0.11663,-0.12513 0.16822,-0.17707 0.0675,-0.0678 0.37625,-0.36974 0.71219,-0.63542 0.2379,-0.18826 0.41524,-0.31443 0.60984,-0.27168 0.18787,0.0413 0.38936,0.27011 0.59175,0.51169 0.0256,0.0304 0.3439,0.44692 0.53277,0.58887 0.0192,0.0145 0.0989,0.0796 0.21492,0.10414 0.15445,0.0326 0.31935,-0.0663 0.49271,-0.19025 0.12849,-0.0917 0.4018,-0.27757 0.39251,-0.5051 -0.007,-0.15348 -0.0812,-0.30228 -0.24013,-0.56059 l -0.25548,-0.39489 c -0.0404,-0.0624 -0.19841,-0.28762 -0.25415,-0.42671 -0.0367,-0.0915 -0.0374,-0.13232 -0.0437,-0.24375 0,0 0.0209,-0.10197 0.0745,-0.18556 0.0279,-0.0434 0.10534,-0.13666 0.23076,-0.25139 0.11638,-0.10656 0.6703,-0.54975 1.24356,-0.96345 0.51145,-0.36905 0.65902,-0.49929 1.27889,-0.54446 0.0357,-0.002 0.4042,-0.0305 0.71094,0.0696 0.32582,0.10622 0.53718,0.29681 0.66193,0.38691 l 0.26892,0.18799 c 0.0709,0.0475 0.14424,0.095 0.30309,0.15357 0.10957,-0.002 0.12898,-0.0208 0.22346,-0.10119 0,0 0.28227,-0.26499 0.31338,-0.29482 0.0722,-0.0692 0.49843,-0.50285 0.75449,-0.65399 0.31471,-0.18591 0.68515,-0.24244 0.97232,-0.36393 0,0 0.18597,-0.0817 0.28932,-0.16822 0.0435,-0.0364 0.0715,-0.0773 0.1187,-0.14932"
           id="path4"
           inkscape:connector-curvature="0"
           style="fill:none;fill-opacity:1;stroke:#000000;stroke-width:0.35277778;stroke-linecap:round;stroke-linejoin:round;stroke-miterlimit:4;stroke-dasharray:none;stroke-opacity:1" />
        <path
           d="m 237.83875,352.62566 -33.9761,-0.0473 -0.3378,-0.21979 c -0.1857,-0.12088 -0.4166,-0.33586 -0.5132,-0.47776 -0.1731,-0.2544 -0.1752,-0.85011 -0.1598,-43.91129 0.0151,-42.44875 0.0202,-43.66254 0.1848,-43.9848 0.0931,-0.18236 0.2355,-0.41032 0.3164,-0.50683 0.3918,-0.46667 -1.5418,-0.43854 31.7442,-0.46332 30.9225,-0.0231 31.11,-0.0221 31.4698,0.16573 0.2429,0.12684 0.4347,0.32802 0.5834,0.61244 0.2674,0.51153 0.267,0.504 0.2987,6.86843 0.0225,4.52786 0.0234,4.54762 0.2321,5.01921 0.1151,0.26047 0.3172,0.59173 0.4488,0.73613 0.5283,0.57992 -1.4493,0.54238 28.6103,0.54238 24.5153,0 27.5292,-0.0158 28.0095,-0.14671 0.6732,-0.18361 0.8718,-0.3781 1.191,-1.16673 l 0.254,-0.62791 0.0232,-5.3489 c 0.023,-5.32955 0.0238,-5.35036 0.2262,-5.77667 0.1117,-0.23538 0.3414,-0.52377 0.5106,-0.64109 0.3725,-0.25838 -0.255,-0.24667 11.772,-0.21948 5.5294,0.0124 8.7714,0.0544 9.0029,0.11628 0.5245,0.14043 0.9284,0.49584 1.035,0.91075 0.1387,0.54008 0.0815,86.50497 -0.058,87.00458 -0.0692,0.24782 -0.2565,0.52283 -0.5415,0.79532 -0.8297,0.79344 1.3565,0.71658 -21.2466,0.74785 -11.0976,0.0153 -20.3464,0.002 -20.5529,-0.0281 -0.4624,-0.0688 -1.1684,-0.54457 -1.3483,-0.90856 -0.0736,-0.14911 -0.3551,-0.44587 -0.6257,-0.6597 -0.9336,-0.73771 0.0846,-0.68375 -13.7112,-0.72631 -7.2083,-0.0223 -12.8972,-8.3e-4 -13.6629,0.0514 -1.2268,0.0837 -1.3541,0.11084 -1.9614,0.41909 -0.4468,0.2267 -0.8299,0.52136 -1.2279,0.94422 -0.5912,0.62791 -1.0477,0.882 -1.6968,0.94433 -0.1742,0.0167 -15.6059,0.009 -34.2928,-0.0169 z"
           id="path6"
           inkscape:connector-curvature="0"
           style="fill:none;fill-opacity:1;stroke:#000000;stroke-width:0.35277778;stroke-linecap:round;stroke-linejoin:round;stroke-miterlimit:4;stroke-dasharray:none;stroke-opacity:1" />
        <path
           d="m 317.63457,349.04055 c 0.2466,-0.12704 0.5291,-0.37099 0.656,-0.56653 0.1949,-0.29989 0.223,-0.44733 0.223,-1.17018 0,-0.85043 -0.1665,-1.58719 -0.4288,-1.89722 -0.0763,-0.09 -0.3672,-0.25629 -0.6466,-0.36943 -0.48,-0.19459 -0.6839,-0.20798 -3.7062,-0.24186 -3.3443,-0.0376 -3.8348,6.3e-4 -4.6386,0.36253 -0.6125,0.27584 -0.7995,0.69054 -0.8703,1.93089 -0.06,1.05234 0.035,1.36927 0.5028,1.67711 0.8379,0.55137 0.7399,0.5406 4.7659,0.51843 3.6954,-0.0203 3.7116,-0.0214 4.1428,-0.24374 z"
           id="path8"
           inkscape:connector-curvature="0"
           style="fill:none;fill-opacity:1;stroke:#000000;stroke-width:0.35277778;stroke-linecap:round;stroke-linejoin:round;stroke-miterlimit:4;stroke-dasharray:none;stroke-opacity:1" />
        <path
           style="opacity:1;fill:none;fill-opacity:1;stroke:#000000;stroke-width:0.35277778;stroke-miterlimit:4;stroke-dasharray:none;stroke-opacity:1"
           d="m 289.7164,289.93228 h 14.14722 c 1.108,0 2,0.892 2,2 v 13.14722 c 0,1.108 -0.892,2 -2,2 H 289.7164 c -1.108,0 -2,-0.892 -2,-2 v -13.14722 c 0,-1.108 0.892,-2 2,-2 z"
           id="rect937"
           inkscape:connector-curvature="0" />
      </g>
    </g>
  </g>
</svg>
