<?xml version="1.0" encoding="utf-8"?>
<!-- Generator: Adobe Illustrator 25.4.1, SVG Export Plug-In . SVG Version: 6.00 Build 0)  -->
<svg version="1.1" id="Layer_1" xmlns="http://www.w3.org/2000/svg" xmlns:xlink="http://www.w3.org/1999/xlink" x="0px" y="0px"
	 viewBox="0 0 4280.3 1133.9" style="enable-background:new 0 0 4280.3 1133.9;" xml:space="preserve">
<style type="text/css">
	.st0{fill:none;stroke:#010101;stroke-linecap:round;stroke-linejoin:round;stroke-miterlimit:11.3386;}
	.st1{fill:none;stroke:#000000;stroke-linecap:round;stroke-linejoin:round;stroke-miterlimit:11.3386;}
</style>
<g>
	<g id="g16-5-3-5">
		<path id="path12-6-7-4" class="st0" d="M120.8,131.1c0.3-1.4,1.4-3.3,2.2-4.1c1.7-1.6-6-1.5,121.5-1.5h115.8l1.3,0.8
			c2.5,1.4,2.2-1.4,2.2,30.6c0,31.8,0.1,29.4-2.1,30.8l-1.2,0.8h-11.1c-6.1,0-11.4,0.1-11.9,0.2c-1.1,0.3-2.4,1-2.4,1.3
			c0,0.1,0.7,0.4,1.5,0.6s2,0.6,2.6,0.8c2.5,0.8,6.6,1.9,8.3,2c1,0.1,2.3,0.3,3,0.5c0.6,0.2,2,0.5,3,0.6c6.6,0.9,6.3,0.8,7.8,1.8
			c0.9,0.6,1.6,1.3,2,2l0.6,1v127.5v127.5l-0.6,0.9c-0.3,0.5-1.1,1.1-1.8,1.4c-1.3,0.6,10.3,0.5-145.3,0.5c-86.7,0-93-0.1-93.8-0.5
			c-0.7-0.4-1-0.7-1.4-1.7c-0.4-1.2-0.4-11.2-0.4-162.1C120.6,200.5,120.7,131.6,120.8,131.1L120.8,131.1z"/>
		<path id="path14-2-5-7" class="st0" d="M130.3,245.6c0.3,0.6,1,1.4,1.6,1.7c0.9,0.6,1.3,0.6,3.3,0.6c6.1,0,6.8-1.6,6.7-16.3
			l-0.1-8.5l-0.7-1.4c-0.6-1.2-1-1.6-2.1-2.2c-1.2-0.7-1.6-0.7-3.8-0.7s-2.6,0.1-3.4,0.6c-2.1,1.4-2.2,2.4-2.2,16.2
			C129.7,244.4,129.7,244.6,130.3,245.6L130.3,245.6z"/>
	</g>
	<path id="path18-9-9-4" class="st0" d="M257.1,480.6c0,3.1,2.2,5.7,5,5.7h92c2.8,0,5-2.5,5-5.7v-11.3c0-3.1-2.2-5.7-5-5.7h-92
		c-2.8,0-5,2.5-5,5.7V480.6z"/>
	<path id="path20-1-2-4" class="st0" d="M145.2,480.6c0,3.1,2.2,5.7,5,5.7h92c2.8,0,5-2.5,5-5.7v-11.3c0-3.1-2.2-5.7-5-5.7h-92
		c-2.8,0-5,2.5-5,5.7V480.6z"/>
	<path id="path4-7-2-4_1_" class="st1" d="M243.5,833.1c0.8,0.3,1,0.2,1.8,0.5c0.1,0,0.9,0.3,1.6,0.8c0.8,0.5,1.1,0.9,1.3,1.2
		c0.1,0.1,0.2,0.2,0.4,0.3c0,0,0.3,0.1,0.6,0c0.2-0.1,0.8-0.3,1.6-0.8l3-1.8c0.2,0.2,2.7,2.7,3.8,4.9c0,0,0.5,1,0.5,1.1
		c0.1,0.3,0.1,0.4,0.1,0.7c-0.1,0.2-0.2,0.4-0.5,0.7s-0.8,0.7-1.1,1c-1.5,1.2-6.5,5.2-10.1,7.9L234,859c-0.2,0.1-2.7,2-3.6,2.6
		c0,0-0.9,0.6-1.6,0.6c-0.6,0-1.1-0.5-1.7-1.3c-0.3-0.3-0.6-0.8-0.8-1.2c-0.7-0.9-1.6-2.2-2.3-3.1c-0.8-1.1-1.9-2.6-2.7-3.7
		c0,0-7.7-10.5-8.1-11c-3.5-4.7-20.7-28.3-34.9-46.9c-1.4-1.8-6.7-8.7-7-9.2c0,0-1-1.3-1.1-1.7c0-0.1,0-0.2,0-0.4
		c0.3-0.5,0.6-0.6,0.9-0.8c0,0,1.3-1,1.9-1.5c1.1-0.9,4.1-3.1,7.5-5.6l3.3-2.4c1.4-1,3.1-2.1,3.2-2.2c0.5-0.3,3.7-2.9,4.5-3.8
		c0,0,0.6-0.6,0.6-1.1c0-0.3-0.1-0.7-0.4-1.1c-0.6-1-1.6-1.9-1.2-2.7c0.2-0.4,0.7-0.8,1.4-1.4c0,0,1.9-1.4,2.7-2
		c0,0,1.1-0.7,1.5-0.9c0.1,0,0.2-0.1,0.5-0.1c0.4,0.4,0.5,0.5,1,1.1c1,1.2,1.6,1.9,2.9,3.6c0,0,5.2,6.7,5.5,7.1l3.1,3.9
		c0.2,0.2,1.2,1.4,1.3,2.1c0,0.6-0.4,1.1-1.1,1.6c-0.6,0.5-2.6,1.9-3,2.3c-0.3,0.4-0.4,0.9-0.1,1.5c0,0.1,0.4,1,1.1,1.5
		c0.1,0.1,0.4,0.3,0.7,0.3c0.8,0,2.7-1.2,3.6-1.6c0.6-0.2,1.6-0.6,3-0.2c0.1,0,1.5,0.5,2.2,1.1c0.6,0.5,1,0.9,1.3,2.1
		c0,0,0.3,1.2,0.1,2.4c-0.2,1.1-1,2-1.3,2.4c0,0-0.8,0.8-0.9,1c-0.3,0.3-0.6,0.7-0.9,1c-0.2,0.3-0.5,0.7-0.7,1c0,0,3.4,4.4,4.6,5.8
		c0,0,0.6,0.7,0.7,0.8c0.2,0.2,0.7,0.9,1.3,1c0.3,0.1,0.7-0.1,1.2-0.4c0,0,2.1-1.3,2.3-1.5c0,0,0.8-0.5,1.3-0.6c0.1,0,0.2,0,0.4,0
		c0.4,0.2,0.4,0.3,0.8,0.6c0.2,0.2,0.4,0.4,0.6,0.6c0.2,0.2,1.2,1.3,2.1,2.4c0.6,0.8,1,1.4,0.9,2.1c-0.1,0.6-0.9,1.3-1.7,2
		c-0.1,0.1-1.5,1.2-1.9,1.8c0,0.1-0.3,0.3-0.3,0.7c-0.1,0.5,0.2,1.1,0.6,1.7c0.3,0.4,0.9,1.4,1.7,1.3c0.5,0,1-0.3,1.8-0.8l1.3-0.9
		c0.2-0.1,0.9-0.7,1.4-0.9c0.3-0.1,0.4-0.1,0.8-0.1c0,0,0.3,0.1,0.6,0.3c0.1,0.1,0.4,0.4,0.8,0.8c0.3,0.4,1.8,2.3,3.1,4.2
		c1.2,1.7,1.6,2.2,1.8,4.3c0,0.1,0.1,1.4-0.2,2.4c-0.3,1.1-1,1.8-1.3,2.2l-0.6,0.9c-0.2,0.2-0.3,0.5-0.5,1c0,0.4,0.1,0.4,0.3,0.8
		c0,0,0.9,1,1,1.1c0.2,0.2,1.6,1.7,2.1,2.6c0.6,1.1,0.8,2.3,1.2,3.3c0,0,0.3,0.6,0.5,1C243.2,832.8,243.3,832.9,243.5,833.1"/>
	<path id="path6-5-0-5_1_" class="st1" d="M119.9,595.5l0.1-95.7l0.6-1c0.3-0.5,0.9-1.2,1.3-1.4c0.7-0.5,2.3-0.5,119-0.4
		c115.1,0,118.4,0.1,119.2,0.5c0.5,0.3,1.1,0.7,1.4,0.9c1.3,1.1,1.2-4.3,1.3,89.4c0.1,87.1,0.1,87.6-0.4,88.6
		c-0.3,0.7-0.9,1.2-1.7,1.6c-1.4,0.8-1.4,0.8-18.6,0.8c-12.3,0.1-12.3,0.1-13.6,0.7c-0.7,0.3-1.6,0.9-2,1.3
		c-1.6,1.5-1.5-4.1-1.5,80.5c0,69,0,77.5,0.4,78.9c0.5,1.9,1,2.5,3.2,3.4l1.7,0.7l14.5,0.1c14.4,0.1,14.5,0.1,15.7,0.6
		c0.6,0.3,1.4,1,1.7,1.4c0.7,1,0.7-0.7,0.6,33.1c0,15.6-0.1,24.7-0.3,25.3c-0.4,1.5-1.3,2.6-2.5,2.9c-1.5,0.4-234.5,0.2-235.9-0.2
		c-0.7-0.2-1.4-0.7-2.2-1.5c-2.2-2.3-1.9,3.8-2-59.8c0-31.2,0-57.3,0.1-57.9c0.2-1.3,1.5-3.3,2.5-3.8c0.4-0.2,1.2-1,1.8-1.8
		c2-2.6,1.9,0.2,2-38.6c0.1-20.3,0-36.3-0.1-38.5c-0.2-3.5-0.3-3.8-1.1-5.5c-0.6-1.3-1.4-2.3-2.6-3.5c-1.7-1.7-2.4-2.9-2.6-4.8
		C119.8,691.5,119.8,648.1,119.9,595.5L119.9,595.5z"/>
	<path id="path8-3-2-2_1_" class="st1" d="M129.6,826.1c0.3,0.7,1,1.5,1.5,1.8c0.8,0.5,1.2,0.6,3.2,0.6c2.3,0,4.3-0.5,5.1-1.2
		c0.2-0.2,0.7-1,1-1.8c0.5-1.4,0.6-1.9,0.7-10.4c0.1-9.4,0-10.8-1-13.1c-0.7-1.7-1.9-2.3-5.2-2.5c-2.9-0.2-3.7,0.1-4.5,1.4
		c-1.5,2.4-1.5,2.1-1.4,13.4C129,824.8,129,824.9,129.6,826.1L129.6,826.1z"/>
</g>
</svg>
