<?xml version="1.0" encoding="utf-8"?>
<!-- Generator: Adobe Illustrator 25.2.1, SVG Export Plug-In . SVG Version: 6.00 Build 0)  -->
<svg version="1.1" id="Layer_1" xmlns="http://www.w3.org/2000/svg" xmlns:xlink="http://www.w3.org/1999/xlink" x="0px" y="0px"
	 viewBox="0 0 4280.3 1133.9" style="enable-background:new 0 0 4280.3 1133.9;" xml:space="preserve">
<style type="text/css">
	.st0{fill:none;stroke:#010101;stroke-miterlimit:11.3386;}
	.st1{fill:none;stroke:#010101;stroke-width:1.0837;stroke-linecap:round;stroke-linejoin:round;stroke-miterlimit:12.7923;}
</style>
<g id="g862">
	<g id="g846">
		<g id="g904">
			<g id="g829" transform="translate(0,-29.633339)">
			</g>
		</g>
	</g>
</g>
<g>
	<path id="rect815" class="st0" d="M766.3,196.9l-0.1,712.5 M766.2,948.1l0.2,76.5c0,3.1-2.5,5.7-5.7,5.7H127.8
		c-3.1,0-5.7-2.5-5.7-5.7V81.7c0-3.1,2.5-5.7,5.7-5.7h632.9c3.1,0,5.7,2.5,5.7,5.7l-0.1,76.5"/>
	<path id="rect819" class="st0" d="M388.7,803.3l-0.9-654.8 M387.8,138.1l317,0c3.1,0,5.7,2.5,5.7,5.7V962c0,3.1-2.5,5.7-5.7,5.7
		H388.7"/>
	<path id="rect821" class="st0" d="M388.7,967.7h-29.6c-3.1,0-5.7-2.8-5.7-6.3V809.6c0-3.4,2.5-6.3,5.7-6.3h29.6"/>
	<path id="rect823" class="st0" d="M369.6,372.6v274c0,3.1-2.5,5.7-5.7,5.7H149.5c-3.1,0-5.7-2.5-5.7-5.7v-274
		c0-3.1,2.5-5.7,5.7-5.7H364C367.1,367,369.6,369.5,369.6,372.6z"/>
	<path id="rect831" class="st0" d="M766.3,196.9h-23.2c-3.1,0-5.7-2.5-5.7-5.7v-27.3c0-3.1,2.5-5.7,5.7-5.7h23.2"/>
	<path id="rect831-0" class="st0" d="M766.2,948.1H743c-3.1,0-5.7-2.5-5.7-5.7v-27.3c0-3.1,2.5-5.7,5.7-5.7h23.2"/>
	<path id="path850" class="st0" d="M696.9,1016.5c-9.1,0-16.5-7.4-16.5-16.5s7.4-16.5,16.5-16.5s16.5,7.4,16.5,16.5
		S706,1016.5,696.9,1016.5z"/>
	<g id="layer1-1" transform="matrix(1.0410324,0,0,1.0411074,390.54712,-29.691354)">
		<path id="path1024" class="st1" d="M-148.4,948.8c0.1,0.3,0.8,0.1,1,0.1c0.8,0,1.2,0.3,1.3,0.4c0.5,0.2,0.4,0,1.5,1
			c1.1,1.1,0.9,1.5,1.1,1.5c0.1,0,0.5-0.2,0.8-0.5c0.1-0.1,1.9-1.5,2.1-1.6c1.7-1.3,1.4-1.1,1.7-1.1l3.1,4.1
			c0.9,1.2,0.9,1.2,0.9,1.3s-0.4,0.4-3.1,2.5c0,0-2.7,2.1-3.8,3c-0.1,0.1-1.7,1.4-2.4,1.9c-0.5,0.4-0.8,0.6-2.6,2.1
			c-1,0.8-1.3,1-1.3,1.1c-0.1,0-0.6,0.5-3.5,2.8l-0.4,0.3l-3.9,3.1c-0.5,0.4-1.1,0.8-1.6,1.3c-1.9,1.5-2.3,1.8-2.4,1.9
			c-0.5,0.4-0.4,0.2-0.6,0.3c-6.6-8.6-4.5-5.9-9.4-12.2c-1-1.3-0.8-1-1-1.3l-3.7-4.8c-2.9-3.8-2.9-3.8-3-3.9l-3.6-4.6l-3.9-5.1
			l-3.7-4.8l-2.8-3.7c-0.5-0.6-6-7.7-6.1-8c-0.4-0.5-1.1-1.4-2.8-3.7c-1.7-2.2-1.5-1.9-1.7-2.2l-4.1-5.4l-2.4-3.1
			c-0.7-0.9,0.1,0.1-1.5-2c-0.4-0.5-1.1-1.4-2.4-3.1c-2-2.6-1.9-2.5-1.9-2.5c-0.8-1.1-0.7-0.9-0.7-1.1c0.2-0.3,0.7-0.6,3.6-2.8
			c0.2-0.1,2.3-1.7,2.3-1.7c0.7-0.5-0.2,0.1,2.5-1.9c0,0,2.4-1.8,2.6-1.9l3.7-2.7c0.2-0.2,1.7-1.3,1.8-1.3c0,0,1.9-1.4,2.4-1.8
			c2.2-1.6,1.9-1.4,2.2-1.7c-1.1-1.8-2.2-2.8-2.2-3.2c0-0.2,0.2-0.2,1.5-1.3c0.2-0.2,3.1-2.3,3.2-2.4c0.6-0.4,0.7-0.5,0.8-0.5
			c0.2,0,0.3,0.2,1.7,2.1l2.5,3.3c0.3,0.4,2.4,3.2,4.4,5.9l3.1,4.2c0.9,1.3,0.8,1.2,0.8,1.2c-0.6,0.7-4,2.9-4.5,3.5
			c0.6,0.9,0.3-0.2,1.5,2c1,1.8,0.3,1.1,0.5,2.2c0.1,0,0.6-0.4,0.6-0.4s0.5-0.9,0.9-1.3c0.7-0.8,1.6-1,1.6-1.1
			c0.1,0,1.7-0.8,3.6,0.4c1.9,1.2,2.2,3.5,1.9,4.5c-0.5,1.8-1.9,3-3.5,3.2c0.1,0.3,0.1,0.3,2.7,3.7c1.7,2.2,1.5,1.3,2.1,2.3
			c1.1,2.1,0.9,1.5,0.9,2.8c0.1-0.1,0.1,0,0.5-0.3l2.9-2.2c1.7-1.3,1.6-1.3,1.9-1.3c0.3,0.1,0.5,0.6,1.5,1.8l2.5,3.4
			c0.1,0.2,0.2,0.3,0.2,0.4c0,0.3-2.4,1.8-4.5,3.6c0.4,0.6,2.3,3.2,2.7,3.6c4.9-3.6,4.1-3.4,4.7-3.3c2,2.8,4.7,6,5.4,8
			c0.2,0.6,1,2.6,0,4.8c-0.9,1.9-2.4,2.9-2.9,3.3c1.5,0.2,0.4-0.3,2.7,0.9c1.4,0.7-0.1-0.1,1.4,1.3c0,0,0.5,0.4,1,1.1
			c1.4,2.4,1,1.9,1.3,3.2C-148,948-148.4,948.7-148.4,948.8L-148.4,948.8z"/>
	</g>
	<path id="rect826" class="st0" d="M387.8,148.5l-30.2-10.3h30.2"/>
</g>
</svg>
