<?xml version="1.0" encoding="UTF-8" standalone="no"?>
<!-- exported from Silhouette Studio Business Edition V4.1.479ssbe -->

<svg
   xmlns:dc="http://purl.org/dc/elements/1.1/"
   xmlns:cc="http://creativecommons.org/ns#"
   xmlns:rdf="http://www.w3.org/1999/02/22-rdf-syntax-ns#"
   xmlns:svg="http://www.w3.org/2000/svg"
   xmlns="http://www.w3.org/2000/svg"
   xmlns:sodipodi="http://sodipodi.sourceforge.net/DTD/sodipodi-0.dtd"
   xmlns:inkscape="http://www.inkscape.org/namespaces/inkscape"
   version="1.1"
   width="431.35mm"
   height="279.08mm"
   viewBox="0 0 431.35 279.08"
   id="svg14"
   sodipodi:docname="t440p_PR_half.svg"
   inkscape:version="0.92.3 (2405546, 2018-03-11)">
  <metadata
     id="metadata18">
    <rdf:RDF>
      <cc:Work
         rdf:about="">
        <dc:format>image/svg+xml</dc:format>
        <dc:type
           rdf:resource="http://purl.org/dc/dcmitype/StillImage" />
        <dc:title />
      </cc:Work>
    </rdf:RDF>
  </metadata>
  <sodipodi:namedview
     pagecolor="#ffffff"
     bordercolor="#666666"
     borderopacity="1"
     objecttolerance="10"
     gridtolerance="10"
     guidetolerance="10"
     inkscape:pageopacity="0"
     inkscape:pageshadow="2"
     inkscape:window-width="1366"
     inkscape:window-height="684"
     id="namedview16"
     showgrid="false"
     inkscape:zoom="0.2966701"
     inkscape:cx="2142.3814"
     inkscape:cy="123.92127"
     inkscape:window-x="0"
     inkscape:window-y="28"
     inkscape:window-maximized="1"
     inkscape:current-layer="svg14"
     showguides="true"
     inkscape:guide-bbox="true" />
  <defs
     id="defs2" />
  <g
     id="g20">
    <g
       id="g3812">
      <path
         sodipodi:nodetypes="ccccccccc"
         style="fill:none;fill-opacity:1;stroke:#000000;stroke-width:0.35277781;stroke-linecap:round;stroke-linejoin:round;stroke-opacity:1"
         inkscape:connector-curvature="0"
         d="m 382.63579,166.03881 c -0.0131,78.25452 -0.0582,81.31804 -0.38297,81.99927 -0.5782,1.2125 -2.0451,2.0748 -3.5385,2.08 -0.669,0.002 -74.0591,0.0268 -163.0892,0.0545 -113.60427,0.0352 -162.070339,-0.0187 -162.536039,-0.1809 h -4e-5 c -1.43744,-0.5007 -1.98053,-0.9012 -2.61706,-1.9298 -0.58502,-0.9454 -0.6756,-1.3161 -0.77179,-3.161 -0.0524,-1.00487 -0.07769,-31.82081 -0.063,-78.86207"
         id="path4-6-2-0" />
      <path
         style="fill:none;fill-opacity:1;stroke:#000000;stroke-width:0.35277781;stroke-linecap:round;stroke-linejoin:round;stroke-opacity:1"
         inkscape:connector-curvature="0"
         d="m 253.60415,243.41028 c 0.2264,-0.4825 0.2808,-7.9719 0.2782,-38.3578 l -0.003,-37.7582 -0.9811,-1.0075 c -0.5397,-0.554 -1.16,-1.1053 -1.3787,-1.2249 -0.2613,-0.143 -16.9316,-0.2128 -48.6192,-0.2037 -26.5219,0.008 -48.3371,0.0149 -48.4786,0.0163 -0.1412,0.001 -0.3913,0.1368 -0.5557,0.3011 -0.1643,0.1643 -0.611,0.4603 -0.9928,0.6577 -1.4588,0.7543 -1.3558,-2.2386 -1.3558,39.3285 0,37.2754 0.005,37.6947 0.4314,38.0807 0.4163,0.3767 0.4558,0.3717 1.1444,-0.1457 0.3924,-0.2949 0.8911,-0.6017 1.1083,-0.6818 0.2172,-0.0801 22.0214,-0.1481 48.4538,-0.1512 52.1466,-0.006 48.85,-0.0832 50.0084,1.1728 0.2907,0.3153 0.5581,0.5731 0.5941,0.5731 0.0359,0 0.1918,-0.2697 0.3465,-0.5994 z"
         id="path6-7-9-2" />
      <path
         style="fill:none;fill-opacity:1;stroke:#000000;stroke-width:0.35277781;stroke-linecap:round;stroke-linejoin:round;stroke-opacity:1"
         inkscape:connector-curvature="0"
         d="m 340.89755,232.30808 c 0.5849,-0.3212 1.3855,-0.8608 1.7794,-1.1991 0.3938,-0.3382 0.8146,-0.6149 0.9352,-0.6149 0.1205,0 0.5974,-0.3679 1.0602,-0.8176 1.2385,-1.2039 2.0172,-1.8847 2.6299,-2.2993 0.4967,-0.3362 1.6664,-1.1738 3.7065,-2.6537 0.4197,-0.3045 1.2046,-0.896 1.7442,-1.3145 0.5396,-0.4186 1.3735,-1.0287 1.8532,-1.356 0.4797,-0.3272 1.4715,-1.1124 2.2041,-1.7448 0.7328,-0.6324 1.4307,-1.15 1.5505,-1.15 0.1198,0 0.5642,-0.3188 0.9873,-0.7085 0.8469,-0.7797 2.9117,-2.2989 4.6876,-3.4484 1.1084,-0.7176 1.1445,-0.7728 1.1445,-1.7473 0,-0.7977 -0.1467,-1.2006 -0.7085,-1.9435 -1.0797,-1.4283 -1.5405,-2.0594 -2.0068,-2.749 -0.2343,-0.3466 -0.7494,-0.9983 -1.1445,-1.4482 -0.3953,-0.45 -0.7187,-0.8915 -0.7187,-0.9811 -1e-4,-0.0896 -0.342,-0.5468 -0.7599,-1.0162 -0.4177,-0.4694 -0.8167,-1.0334 -0.8866,-1.2535 -0.0976,-0.3078 -0.347,-0.4001 -1.0805,-0.4001 -0.5247,0 -1.0241,0.1142 -1.1104,0.2539 -0.0864,0.1396 -0.203,0.9698 -0.259,1.8446 -0.1179,1.8341 -0.172,1.9049 -2.3051,3.0166 -1.2475,0.6503 -1.6993,0.7709 -2.8872,0.7709 -2.2918,0 -3.6046,0.8469 -3.9201,2.529 -0.1553,0.827 -0.2348,0.8654 -0.8407,0.407 -0.4804,-0.3632 -1.5806,-0.4179 -2.3702,-0.1177 -0.6855,0.2606 -1.0465,1.3029 -0.8776,2.5343 0.0865,0.6308 0.0376,1.0771 -0.1419,1.2932 -0.3305,0.3981 -1.5574,0.4063 -2.6188,0.0173 -0.7048,-0.2582 -0.8254,-0.2361 -1.5761,0.2891 -0.7168,0.5014 -0.8137,0.6767 -0.8178,1.4828 -0.006,1.1214 -0.5595,1.5927 -1.8716,1.5927 -0.5749,0 -1.0871,0.1562 -1.4231,0.4334 -0.2888,0.2383 -0.9176,0.7645 -1.3972,1.1694 -0.4797,0.4046 -1.1882,0.8974 -1.5744,1.0949 -0.3864,0.1975 -0.9469,0.7188 -1.2458,1.1587 l -0.5434,0.7995 0.4587,0.8162 c 0.4203,0.7475 0.5978,0.8505 2.1087,1.2231 1.5308,0.3776 1.6894,0.4715 2.2041,1.3068 0.3049,0.4952 1.0107,1.4852 1.5684,2.2002 0.5578,0.715 1.1213,1.5002 1.2522,1.7447 0.1309,0.2446 0.6556,0.6878 1.1661,0.985 0.5105,0.2973 0.9403,0.5502 0.9552,0.5622 0.0149,0.012 0.5053,-0.241 1.0899,-0.5621 z"
         id="path8-5-1-3" />
      <path
         sodipodi:nodetypes="cccccccccccccc"
         style="fill:none;fill-opacity:1;stroke:#000000;stroke-width:0.35277781;stroke-linecap:round;stroke-linejoin:round;stroke-opacity:1"
         inkscape:connector-curvature="0"
         d="m 70.128381,166.18498 c 0.25427,0 0.9295,-1.0383 1.06342,-1.6349 0.21295,-0.9499 1.06005,-2.5477 1.61828,-3.0521 0.47821,-0.4321 0.82672,-0.4364 39.540409,-0.4893 54.34203,-0.0744 187.84353,-0.0634 189.79663,0.0155 1.4004,0.0566 1.6678,0.1346 2.0461,0.5965 0.4106,0.5014 0.4276,0.747 0.2999,4.3487 -0.1397,3.9411 1e-4,5.1498 0.6588,5.6964 0.2944,0.2444 4.9286,0.3163 26.5404,0.412 14.4011,0.0636 26.5763,0.0814 27.0559,0.0397 0.4798,-0.0419 1.3745,-0.2156 1.9883,-0.3861 h 3e-5 c 0.6139,-0.1706 1.2313,-0.4489 1.3721,-0.6184 0.5293,-0.6375 1.57772,-4.05717 1.42902,-5.07417"
         id="path10-3-2-7" />
      <path
         style="fill:none;stroke:#000000;stroke-width:0.26458335px;stroke-linecap:butt;stroke-linejoin:miter;stroke-opacity:1"
         d="M 70.12838,166.18498 49.637192,166.03881"
         id="path3800"
         inkscape:connector-curvature="0" />
      <path
         style="fill:none;stroke:#000000;stroke-width:0.26458335px;stroke-linecap:butt;stroke-linejoin:miter;stroke-opacity:1"
         d="M 363.53767,166.03881 H 382.6358"
         id="path3804"
         inkscape:connector-curvature="0" />
    </g>
  </g>
</svg>
