<?xml version="1.0" encoding="utf-8"?>
<!-- Generator: Adobe Illustrator 25.4.1, SVG Export Plug-In . SVG Version: 6.00 Build 0)  -->
<svg version="1.1"
	 id="svg8" inkscape:version="0.92.3 (2405546, 2018-03-11)" sodipodi:docname="T450S_PR_NO_FP.svg" xmlns:cc="http://creativecommons.org/ns#" xmlns:dc="http://purl.org/dc/elements/1.1/" xmlns:inkscape="http://www.inkscape.org/namespaces/inkscape" xmlns:rdf="http://www.w3.org/1999/02/22-rdf-syntax-ns#" xmlns:sodipodi="http://sodipodi.sourceforge.net/DTD/sodipodi-0.dtd" xmlns:svg="http://www.w3.org/2000/svg"
	 xmlns="http://www.w3.org/2000/svg" xmlns:xlink="http://www.w3.org/1999/xlink" x="0px" y="0px" viewBox="0 0 2383.9 3370.4"
	 style="enable-background:new 0 0 2383.9 3370.4;" xml:space="preserve">
<style type="text/css">
	.st0{fill:none;stroke:#000000;stroke-miterlimit:11.3386;}
	.st1{fill:none;stroke:#000000;stroke-width:1;stroke-linecap:round;stroke-linejoin:round;stroke-miterlimit:11.4632;}
</style>
<sodipodi:namedview  bordercolor="#666666" borderopacity="1.0" id="base" inkscape:current-layer="layer1" inkscape:cx="2152.5552" inkscape:cy="1018.5786" inkscape:document-units="mm" inkscape:guide-bbox="true" inkscape:measure-end="0,0" inkscape:measure-start="0,0" inkscape:pageopacity="0.0" inkscape:pageshadow="2" inkscape:window-height="1017" inkscape:window-maximized="1" inkscape:window-width="1920" inkscape:window-x="-8" inkscape:window-y="-8" inkscape:zoom="0.49497475" pagecolor="#ffffff" showgrid="false" showguides="true">
	</sodipodi:namedview>
<g>
	<g id="layer1" transform="translate(0,892)" inkscape:groupmode="layer" inkscape:label="Layer 1">
		<g id="g843">
			<path id="rect815" inkscape:connector-curvature="0" sodipodi:nodetypes="cccssssssssc" class="st0" d="M771.4,731.2h686.4
				 M1499.3,731.2l72.7,0c4.7,0,8.5,3.8,8.5,8.5v608.5c0,4.7-3.8,8.5-8.5,8.5H657.5c-4.7,0-8.5-3.8-8.5-8.5V739.6
				c0-4.7,3.8-8.5,8.5-8.5l72.4,0"/>
			<path id="rect819" inkscape:connector-curvature="0" sodipodi:nodetypes="cssssssc" class="st0" d="M1366.7,1092.2l-660.5,0.1
				c-3.1,0-5.7-2.5-5.7-5.7V775.8c0-3.1,2.5-5.7,5.7-5.7h818.2c3.1,0,5.7,2.5,5.7,5.7v316.4"/>
			<path id="rect821" inkscape:connector-curvature="0" sodipodi:nodetypes="cssssc" class="st0" d="M1530.1,1092.2v28
				c0,3.1-2.5,5.7-5.7,5.7h-152.1c-3.1,0-5.7-2.5-5.7-5.7v-28"/>
			<path id="rect823" inkscape:connector-curvature="0" sodipodi:nodetypes="sssssssss" class="st0" d="M932.7,1112h280
				c3.1,0,2.7-0.5,2.7,2.7v220.3c0,3.1-2.5,5.7-5.7,5.7h-274c-3.1,0-5.7-2.5-5.7-5.7v-220.3C930,1111.5,929.5,1112,932.7,1112
				L932.7,1112z"/>
			<path id="rect825" inkscape:connector-curvature="0" sodipodi:nodetypes="cssssc" class="st0" d="M771.4,731.2v24.5
				c0,1.6-1.3,2.8-2.8,2.8h-35.9c-1.6,0-2.8-1.3-2.8-2.8v-24.5"/>
			<path id="rect825-4" inkscape:connector-curvature="0" sodipodi:nodetypes="cssssc" class="st0" d="M1457.8,731.2v24.5
				c0,1.6,1.3,2.8,2.8,2.8h35.9c1.6,0,2.8-1.3,2.8-2.8v-24.5"/>
			<path id="path847" inkscape:connector-curvature="0" class="st0" d="M1571.3,778.3c0,9.1-7.4,16.5-16.5,16.5s-16.5-7.4-16.5-16.5
				c0-9.1,7.4-16.5,16.5-16.5S1571.3,769.2,1571.3,778.3z"/>
			<g id="layer1-9" transform="matrix(1.0109861,0,0,1.0110061,558.17137,11.311487)" inkscape:label="Layer 1">
				<path id="path1024" inkscape:connector-curvature="0" class="st1" d="M940.5,1220.5c0.3-0.1,0.1-0.8,0.1-1
					c0-0.8,0.3-1.2,0.4-1.3c0.2-0.5,0-0.4,1-1.5c1.1-1.1,1.5-0.9,1.5-1.1c0-0.1-0.2-0.5-0.5-0.8c-0.1-0.1-1.5-1.9-1.6-2.1
					c-1.3-1.7-1.1-1.4-1.1-1.7l4.1-3.1c1.2-0.9,1.2-0.9,1.3-0.9c0.1,0,0.4,0.4,2.5,3.1c0,0,2.1,2.7,3,3.8c0.1,0.1,1.4,1.7,1.9,2.4
					c0.4,0.5,0.6,0.8,2.1,2.6c0.8,1,1,1.3,1.1,1.3c0,0.1,0.5,0.6,2.8,3.5l0.3,0.4l3.1,3.9c0.4,0.5,0.8,1.1,1.3,1.6
					c1.5,1.9,1.8,2.3,1.9,2.4c0.4,0.5,0.2,0.4,0.3,0.6c-8.6,6.6-5.9,4.5-12.2,9.4c-1.3,1-1,0.8-1.3,1l-4.8,3.7
					c-3.8,2.9-3.8,2.9-3.9,3l-4.6,3.6l-5.1,3.9l-4.8,3.7l-3.7,2.8c-0.6,0.5-7.7,6-8,6.1c-0.5,0.4-1.4,1.1-3.7,2.8
					c-2.2,1.7-1.9,1.5-2.2,1.7l-5.4,4.1l-3.1,2.4c-0.9,0.7,0.1-0.1-2,1.5c-0.5,0.4-1.4,1.1-3.1,2.4c-2.6,2-2.5,1.9-2.5,1.9
					c-1.1,0.8-0.9,0.7-1.1,0.7c-0.3-0.2-0.6-0.7-2.8-3.6c-0.1-0.2-1.7-2.3-1.7-2.3c-0.5-0.7,0.1,0.2-1.9-2.5c0,0-1.8-2.4-1.9-2.6
					l-2.7-3.7c-0.2-0.2-1.3-1.7-1.3-1.8c0,0-1.4-1.9-1.8-2.4c-1.6-2.2-1.4-1.9-1.7-2.2c-1.8,1.1-2.8,2.2-3.2,2.2
					c-0.2,0-0.2-0.2-1.3-1.5c-0.2-0.2-2.3-3.1-2.4-3.2c-0.4-0.6-0.5-0.7-0.5-0.8c0-0.2,0.2-0.3,2.1-1.7l3.3-2.5
					c0.4-0.3,3.2-2.4,5.9-4.4l4.2-3.1c1.3-0.9,1.2-0.8,1.2-0.8c0.7,0.6,2.9,4,3.5,4.5c0.9-0.6-0.2-0.3,2-1.5c1.8-1,1.1-0.3,2.2-0.5
					c0-0.1-0.4-0.6-0.4-0.6c0,0-0.9-0.5-1.3-0.9c-0.8-0.7-1-1.6-1.1-1.6c0-0.1-0.8-1.7,0.4-3.6c1.2-1.9,3.5-2.2,4.5-1.9
					c1.8,0.5,3,1.9,3.2,3.5c0.3-0.1,0.3-0.1,3.7-2.7c2.2-1.7,1.3-1.5,2.3-2.1c2.1-1.1,1.5-0.9,2.8-0.9c-0.1-0.1,0-0.1-0.3-0.5
					l-2.2-2.9c-1.3-1.7-1.3-1.6-1.3-1.9c0.1-0.3,0.6-0.5,1.8-1.5l3.4-2.5c0.2-0.1,0.3-0.2,0.4-0.2c0.3,0,1.8,2.4,3.6,4.5
					c0.6-0.4,3.2-2.3,3.6-2.7c-3.6-4.9-3.4-4.1-3.3-4.7c2.8-2,6-4.7,8-5.4c0.6-0.2,2.6-1,4.8,0c1.9,0.9,2.9,2.4,3.3,2.9
					c0.2-1.5-0.3-0.4,0.9-2.7c0.7-1.4-0.1,0.1,1.3-1.4c0,0,0.4-0.5,1.1-1c2.4-1.4,1.9-1,3.2-1.3
					C939.7,1220.2,940.4,1220.6,940.5,1220.5L940.5,1220.5z"/>
			</g>
			<path id="rect859" inkscape:connector-curvature="0" class="st0" d="M937.4,1168H1210c1.6,0,2.8,1.3,2.8,2.8v150.7
				c0,1.6-1.3,2.8-2.8,2.8H937.4c-1.6,0-2.8-1.3-2.8-2.8v-150.7C934.6,1169.3,935.9,1168,937.4,1168z"/>
		</g>
	</g>
	<rect x="1535.7" y="1962.3" class="st0" width="39.7" height="31.2"/>
</g>
</svg>
