<?xml version="1.0" encoding="utf-8"?>
<!-- Generator: Adobe Illustrator 25.2.1, SVG Export Plug-In . SVG Version: 6.00 Build 0)  -->
<svg version="1.1" id="Layer_1" xmlns="http://www.w3.org/2000/svg" xmlns:xlink="http://www.w3.org/1999/xlink" x="0px" y="0px"
	 viewBox="0 0 4280.3 1133.9" style="enable-background:new 0 0 4280.3 1133.9;" xml:space="preserve">
<style type="text/css">
	.st0{fill:none;stroke:#010101;stroke-miterlimit:11.3386;}
	.st1{fill:none;stroke:#010101;stroke-width:1;stroke-linecap:round;stroke-linejoin:round;stroke-miterlimit:11.8038;}
</style>
<g id="g829" transform="translate(24.185644,437.6156)">
</g>
<g>
	<path id="rect815" class="st0" d="M335.3,1044.1l-225.5-0.1c-3.1,0-5.7-2.5-5.7-5.7V95.4c0-3.1,2.5-5.7,5.7-5.7h228.8"/>
	<line class="st0" x1="370.6" y1="822.3" x2="369.7" y2="159.1"/>
	<path class="st0" d="M335.3,1044.1V828.3c0-3.3,2.5-6,5.7-6h29.6"/>
	<path id="rect823" class="st0" d="M355.8,389.2v275.3c0,3.2-2.6,5.7-5.8,5.7H131.5c-3.2,0-5.8-2.5-5.8-5.7V389.2
		c0-3.2,2.6-5.7,5.8-5.7H350C353.2,383.5,355.8,386.1,355.8,389.2z"/>
	<path id="rect825" class="st0" d="M321.6,392.3v268.3c0,3.1-2.5,5.7-5.7,5.7H169.5c-3.1,0-5.7-2.5-5.7-5.7V392.3
		c0-3.1,2.5-5.7,5.7-5.7h146.4C319.1,386.6,321.6,389.1,321.6,392.3L321.6,392.3z"/>
	<g id="layer1-1" transform="matrix(1.0410324,0,0,1.0411074,414.20358,436.49925)">
		<path id="path1024" class="st1" d="M-185.5,512.8c0.1,0.3,0.8,0.1,1,0.1c0.8,0,1.2,0.3,1.3,0.4c0.5,0.2,0.4,0,1.5,1
			c1.1,1.1,0.9,1.5,1.1,1.5c0.1,0,0.5-0.2,0.8-0.5c0.1-0.1,1.9-1.5,2.1-1.6c1.7-1.3,1.4-1.1,1.7-1.1l3.1,4.1
			c0.9,1.2,0.9,1.2,0.9,1.3c0,0.1-0.4,0.4-3.1,2.5c0,0-2.7,2.1-3.8,3c-0.1,0.1-1.7,1.4-2.4,1.9c-0.5,0.4-0.8,0.6-2.6,2.1
			c-1,0.8-1.3,1-1.3,1.1c-0.1,0-0.6,0.5-3.5,2.7l-0.4,0.3l-3.9,3.1c-0.5,0.4-1.1,0.8-1.6,1.3c-1.9,1.5-2.3,1.8-2.4,1.9
			c-0.5,0.4-0.4,0.2-0.6,0.3c-6.6-8.6-4.5-5.9-9.4-12.2c-1-1.3-0.8-1-1-1.3l-3.7-4.8c-2.9-3.8-2.9-3.8-3-3.9l-3.6-4.6l-3.9-5.1
			l-3.7-4.8l-2.8-3.7c-0.5-0.6-6-7.7-6.1-8c-0.4-0.5-1.1-1.4-2.8-3.7c-1.7-2.2-1.5-1.9-1.7-2.2l-4.1-5.4l-2.4-3.1
			c-0.7-0.9,0.1,0.1-1.5-2c-0.4-0.5-1.1-1.4-2.4-3.1c-2-2.6-1.9-2.5-1.9-2.5c-0.8-1.1-0.7-0.9-0.7-1.1c0.2-0.3,0.7-0.6,3.6-2.8
			c0.2-0.1,2.3-1.7,2.3-1.7c0.7-0.5-0.2,0.1,2.5-1.9c0,0,2.4-1.8,2.6-1.9l3.7-2.7c0.2-0.2,1.7-1.3,1.8-1.3c0,0,1.9-1.4,2.4-1.8
			c2.2-1.6,1.9-1.4,2.2-1.7c-1.1-1.8-2.2-2.8-2.2-3.2c0-0.2,0.2-0.2,1.6-1.3c0.2-0.2,3.1-2.3,3.2-2.4c0.6-0.4,0.7-0.5,0.8-0.5
			c0.2,0,0.3,0.2,1.7,2.1l2.5,3.3c0.3,0.4,2.4,3.2,4.4,5.9l3.1,4.2c0.9,1.3,0.8,1.2,0.8,1.2c-0.6,0.7-4,2.9-4.5,3.5
			c0.6,0.9,0.3-0.2,1.5,2c1,1.8,0.3,1.1,0.5,2.2c0.1,0,0.6-0.4,0.6-0.4c0,0,0.5-0.9,0.9-1.3c0.7-0.8,1.6-1,1.6-1.1
			c0.1,0,1.7-0.8,3.6,0.4c1.9,1.2,2.2,3.5,1.9,4.5c-0.5,1.8-1.9,3-3.5,3.2c0.1,0.3,0.1,0.3,2.7,3.7c1.7,2.2,1.5,1.3,2.1,2.3
			c1.1,2.1,0.9,1.5,0.9,2.8c0.1-0.1,0.1,0,0.5-0.3l2.9-2.2c1.7-1.3,1.6-1.3,1.9-1.3c0.3,0.1,0.5,0.6,1.5,1.8l2.5,3.4
			c0.1,0.2,0.2,0.3,0.2,0.4c0,0.3-2.4,1.8-4.5,3.6c0.4,0.6,2.3,3.2,2.7,3.6c4.9-3.6,4.1-3.4,4.7-3.3c2,2.8,4.7,6,5.4,8
			c0.2,0.6,1,2.6,0,4.8c-0.9,1.9-2.4,2.9-2.9,3.3c1.5,0.2,0.4-0.3,2.7,0.9c1.4,0.7-0.1-0.1,1.4,1.3c0,0,0.5,0.4,1,1.1
			c1.4,2.4,1,1.9,1.3,3.2C-185.2,512-185.6,512.7-185.5,512.8L-185.5,512.8z"/>
	</g>
	<g id="g962" transform="translate(11.623729,42.620338)">
		<path id="path943" class="st0" d="M326.9,47.1V109"/>
		<path id="path943-8" class="st0" d="M358.1,116.5l-31.1-7.5"/>
	</g>
</g>
</svg>
