<?xml version="1.0" encoding="utf-8"?>
<!DOCTYPE svg PUBLIC "-//W3C//DTD SVG 1.1//EN" "http://www.w3.org/Graphics/SVG/1.1/DTD/svg11.dtd">
<!-- exported from Silhouette Studio® Business Edition V4.2.471ssbe -->
<svg version="1.1" xmlns="http://www.w3.org/2000/svg" xmlns:xlink="http://www.w3.org/1999/xlink" width="304.8mm" height="600mm" viewBox="0 0 304.8 600">
<defs/>
<path d="M -96.85175 289.6317 C -97.71449 289.5433 -99.22586 288.6766 -99.43298 288.1512 C -99.53104 287.9025 -99.76987 287.4832 -99.96375 287.2192 L -100.3163 286.7395 L -100.3163 175.4413 L -100.3163 64.14319 L -99.90204 63.6012 C -99.67419 63.30304 -99.31834 62.82477 -99.11124 62.53821 C -98.90413 62.25177 -98.44775 61.87744 -98.09711 61.7063 C -97.4704 61.40045 -97.248 61.39478 -84.9921 61.36249 C -69.77347 61.32233 -70.92801 61.3006 -70.68611 61.63165 C -70.53664 61.83612 -70.49106 62.96399 -70.49106 66.45709 C -70.49106 69.05414 -70.42786 71.18176 -70.34418 71.40192 L -70.19724 71.78857 L -63.62939 71.78857 L -57.06155 71.78857 L -56.64154 71.36835 L -56.22162 70.94812 L -56.28485 66.56335 L -56.34808 62.17834 L -56.00089 61.78033 L -55.65372 61.38214 L 68.99469 61.38501 C 137.5512 61.38654 193.827 61.38806 194.0519 61.38831 C 194.7946 61.3891 194.8332 61.65887 194.7883 66.51575 C 194.7577 69.82062 194.7955 71.0705 194.9347 71.37659 L 195.1223 71.78857 L 201.7225 71.78857 L 208.3226 71.78857 L 208.5636 71.42072 C 208.7695 71.10608 208.8054 70.44073 208.8101 66.83698 C 208.8132 64.51837 208.7722 62.55084 208.7189 62.46448 C 208.6656 62.37823 208.814 62.09271 209.0486 61.8299 L 209.4752 61.35223 L 222.085 61.36938 C 233.0588 61.3844 234.7666 61.41656 235.2486 61.6181 C 235.5532 61.74548 235.9547 61.88788 236.1409 61.93463 C 236.6536 62.06342 237.5239 63.27606 237.6266 64.00464 C 237.675 64.34814 237.6951 114.7861 237.6711 176.0889 L 237.6277 287.5483 L 237.1945 288.1147 C 236.9563 288.4265 236.4818 288.818 236.14 288.985 C 235.7983 289.1517 235.3492 289.3876 235.1421 289.5089 C 234.8122 289.702 214.2466 289.7266 69.22055 289.7073 C -21.82925 289.6953 -96.56178 289.6614 -96.85175 289.6317 Z" fill="none" fill-opacity="1" stroke="#000000" stroke-opacity="1" stroke-width="0.3527778" stroke-linecap="round" stroke-linejoin="round"/>
<path d="M 105.263 241.0098 C 105.2926 213.3265 105.2577 202.2213 105.1404 202.0021 C 105.0502 201.8335 104.7605 201.5638 104.4965 201.4027 C 104.0237 201.1144 103.2753 201.1101 54.53375 201.1208 C 15.51743 201.1294 4.941498 201.1713 4.533264 201.319 C 4.17926 201.4469 3.917236 201.6936 3.704773 202.0989 C 3.404144 202.6722 3.392608 202.9485 3.349854 210.6044 C 3.325501 214.9564 3.315247 218.8564 3.327057 219.271 C 3.366302 220.6545 3.366606 221.2587 3.342682 248.8406 C 3.327912 265.8844 3.373108 276.4431 3.461945 276.6769 C 3.635742 277.1343 3.661682 278.0823 3.529419 279.1455 C 3.432495 279.9248 3.437073 279.9368 3.827972 279.9368 C 4.165405 279.9368 4.292603 279.7969 4.67688 279.0032 C 4.925476 278.4896 5.266418 277.923 5.43457 277.744 L 5.740173 277.4183 L 53.7847 277.3911 C 80.20917 277.3762 102.177 277.4099 102.6021 277.4663 C 103.3445 277.5649 103.3869 277.5963 103.6796 278.2629 C 103.8471 278.6449 104.1872 279.2542 104.4353 279.6173 C 104.8477 280.2206 104.9009 280.2532 105.0541 279.9943 C 105.1756 279.7886 105.233 269.082 105.263 241.0098 Z" fill="none" fill-opacity="1" stroke="#000000" stroke-opacity="1" stroke-width="0.3527778" stroke-linecap="round" stroke-linejoin="round"/>
<path d="M 195.4874 272.173 C 195.6827 271.8238 197.903 270.0192 198.2799 269.9034 C 198.4635 269.8469 198.7832 269.6402 198.9903 269.444 C 199.813 268.665 200.2166 268.331 200.3347 268.331 C 200.4027 268.331 200.8997 267.9748 201.4391 267.5395 C 202.4608 266.7154 202.9326 266.3528 204.9402 264.8494 C 207.3914 263.014 208.1349 262.4343 208.5555 262.0306 C 208.7211 261.8715 209.0618 261.6362 209.3125 261.5079 C 209.5631 261.3792 210.0376 261.0235 210.367 260.7172 C 210.6962 260.4109 211.214 260.0007 211.5177 259.8055 C 211.8214 259.6103 212.1142 259.3788 212.1681 259.2914 C 212.2221 259.204 212.516 258.9966 212.8211 258.8306 C 213.1261 258.6645 213.6807 258.2919 214.0535 258.0026 C 214.4263 257.7133 214.9348 257.3432 215.1833 257.1804 C 215.9296 256.6915 216.2992 256.4048 217.8602 255.105 C 218.6814 254.4211 219.4008 253.8614 219.4587 253.8614 C 219.5169 253.8614 219.8158 253.6241 220.1232 253.3339 C 220.4306 253.0438 220.7497 252.8063 220.8325 252.8063 C 221.2693 252.8063 220.7317 251.5378 220.0661 250.9977 C 220.0151 250.9564 219.7928 250.6342 219.5722 250.2818 C 219.3518 249.9296 219.1158 249.6413 219.0479 249.6413 C 218.98 249.6413 218.7066 249.3049 218.4403 248.8937 C 218.1741 248.4825 217.739 247.8737 217.4735 247.5408 C 217.2082 247.2079 216.7875 246.6652 216.539 246.335 C 216.2905 246.0048 215.7926 245.4096 215.4325 245.0125 C 215.0724 244.6154 214.6485 244.0089 214.4904 243.6645 C 214.1433 242.9088 213.588 242.6529 212.7799 242.8762 C 212.4863 242.9573 212.246 243.0873 212.246 243.1655 C 212.246 243.2433 211.9748 243.4786 211.6434 243.6877 C 210.8658 244.1789 210.8085 244.7827 211.4928 245.2703 C 212.0435 245.6625 212.0644 245.9385 211.5681 246.2639 C 211.361 246.3996 211.1914 246.5955 211.1914 246.6992 C 211.1914 247.1091 210.5489 247.6708 209.7962 247.919 C 209.3623 248.0621 208.8543 248.3427 208.6673 248.5425 C 208.3622 248.8683 208.2533 248.8937 207.6128 248.7888 C 206.1729 248.5529 205.4174 248.674 204.2185 249.3323 C 202.5307 250.2592 202.1834 250.7839 202.9135 251.304 C 203.2531 251.546 203.3588 251.7396 203.3588 252.1201 C 203.3588 252.8737 203.0688 253.0197 202.4323 252.5871 C 202.1407 252.3887 201.7875 252.0517 201.6476 251.8382 C 201.5078 251.6247 201.3086 251.45 201.2047 251.45 C 200.9057 251.45 199.3873 252.6469 199.1704 253.0538 C 198.9933 253.386 199.0192 253.4841 199.434 254.0484 C 200.0695 254.913 200.0425 255.322 199.3305 255.6197 C 199.0205 255.7492 198.5774 256.0151 198.3457 256.21 C 197.8341 256.6408 197.1584 256.571 196.5719 256.0272 C 195.805 255.3159 194.5521 255.7747 193.9081 257.003 L 193.5708 257.6462 L 193.8962 258.0865 C 194.1711 258.4587 194.1948 258.586 194.0485 258.9073 C 193.8094 259.4324 193.503 259.383 193.1357 258.7599 C 192.6591 257.9521 192.1473 258.0263 191.062 259.0613 C 190.5839 259.5173 190.119 259.8904 190.0286 259.8904 C 189.9384 259.8904 189.6175 260.1108 189.3156 260.3802 C 189.0138 260.6496 188.2201 261.3074 187.552 261.842 C 186.484 262.6965 186.3372 262.8726 186.3372 263.3006 C 186.3372 263.6524 186.4519 263.8771 186.7514 264.1118 C 186.9793 264.2901 187.2411 264.6513 187.3333 264.914 C 187.4556 265.2621 187.5781 265.3766 187.7852 265.3358 C 187.9416 265.3051 188.3746 265.2712 188.7474 265.2604 C 189.3618 265.2429 189.4468 265.2845 189.6564 265.704 C 189.7836 265.9587 190.2751 266.6236 190.7485 267.1821 C 191.2219 267.7404 191.6093 268.2591 191.6093 268.3345 C 191.6093 268.4099 192.1855 269.1581 192.8897 269.9976 C 193.5939 270.8371 194.1701 271.5861 194.1701 271.6628 C 194.1701 271.8002 195.0506 272.3989 195.2547 272.3998 C 195.3127 272.4001 195.4174 272.2982 195.4874 272.173 Z" fill="none" fill-opacity="1" stroke="#000000" stroke-opacity="1" stroke-width="0.3527778" stroke-linecap="round" stroke-linejoin="round"/>
<path d="M 215.0832 206.8616 C 215.2766 206.7513 215.5469 206.4122 215.684 206.108 C 215.9143 205.597 215.937 200.8832 215.9835 144.0567 L 216.0339 82.55853 L 215.7028 82.13727 C 215.5207 81.90558 215.1104 81.55115 214.791 81.34943 L 214.2102 80.98254 L 69.33652 80.98914 C -45.05414 80.99438 -75.67995 81.03497 -76.21515 81.18182 C -77.69592 81.58795 -78.05821 82.11383 -77.89487 83.62018 C -77.84094 84.11761 -77.83069 111.485 -77.87213 144.4368 C -77.91356 177.3885 -77.92184 204.4705 -77.89058 204.6191 C -77.7048 205.5013 -76.72672 203.5738 -76.52902 201.9359 C -76.44885 201.2717 -76.24525 200.424 -76.07655 200.0519 C -75.90788 199.6797 -75.76837 199.2568 -75.76657 199.1122 C -75.76013 198.6003 -74.67026 195.4536 -74.43466 195.2665 C -74.24272 195.1142 -51.39734 195.0847 41.19592 195.116 L 156.5873 195.1548 L 157.3036 195.5842 C 157.7066 195.8257 158.0519 196.1556 158.0928 196.338 C 158.1329 196.5164 158.1833 198.8802 158.2049 201.5911 C 158.2299 204.7202 158.301 206.5766 158.3995 206.6751 C 158.4849 206.7604 159.0271 206.8889 159.6046 206.9606 C 160.182 207.0325 172.8217 207.0848 187.6929 207.0767 C 209.899 207.0648 214.7943 207.0263 215.0832 206.8616 Z" fill="none" fill-opacity="1" stroke="#000000" stroke-opacity="1" stroke-width="0.3527778" stroke-linecap="round" stroke-linejoin="round"/>
<path d="M 229.4935 92.19342 C 229.7421 92.01794 230.1077 91.82367 230.3062 91.76196 C 230.8368 91.59686 231.9583 90.50677 232.3127 89.81134 C 232.4824 89.47858 232.7618 89.01599 232.9337 88.78351 C 233.2094 88.4104 233.2454 88.15112 233.2399 86.57562 C 233.2339 84.87213 233.2136 84.75812 232.7946 84.07971 C 231.959 82.72687 231.0698 81.83374 229.9732 81.24634 C 228.9462 80.69617 228.876 80.68115 227.3374 80.68115 C 225.963 80.68115 225.6527 80.73047 224.9589 81.0589 C 224.5199 81.26666 224.0011 81.49731 223.8058 81.57159 C 223.5151 81.68219 222.0366 83.43549 221.5156 84.28729 C 221.4433 84.40546 221.3351 85.09552 221.2751 85.8208 C 221.1447 87.39563 221.3862 88.93481 221.8446 89.45068 C 223.2097 90.98651 223.6686 91.43866 224.066 91.63934 C 224.3171 91.76611 224.6581 91.99072 224.8239 92.13861 C 225.2596 92.52734 225.5419 92.57166 227.3846 92.54047 C 228.8018 92.51648 229.107 92.46643 229.4935 92.19342 Z" fill="none" fill-opacity="1" stroke="#000000" stroke-opacity="1" stroke-width="0.3527778" stroke-linecap="round" stroke-linejoin="round"/>
<path d="M 5.846588 276.4158 C 5.372772 276.3214 4.913116 276.1708 4.825134 276.0812 C 4.603424 275.8553 4.613129 221.7589 4.834869 221.537 C 5.085083 221.2866 103.1957 221.243 103.5375 221.4932 C 103.7838 221.6733 103.7986 223.2351 103.794 248.7283 C 103.7897 272.6501 103.7627 275.8121 103.5605 276.121 L 103.3318 276.4702 L 55.22061 276.4702 C 28.7594 276.4702 7.019012 276.4967 6.908661 276.5288 C 6.79834 276.561 6.320404 276.5101 5.846588 276.4158 Z" fill="none" fill-opacity="1" stroke="#000000" stroke-opacity="1" stroke-width="0.3527778" stroke-linecap="round" stroke-linejoin="round"/>
</svg>