<?xml version="1.0" encoding="utf-8"?>
<!-- Generator: Adobe Illustrator 25.2.1, SVG Export Plug-In . SVG Version: 6.00 Build 0)  -->
<svg version="1.1" id="Layer_1" xmlns="http://www.w3.org/2000/svg" xmlns:xlink="http://www.w3.org/1999/xlink" x="0px" y="0px"
	 viewBox="0 0 4280.3 1133.9" style="enable-background:new 0 0 4280.3 1133.9;" xml:space="preserve">
<style type="text/css">
	.st0{fill:none;stroke:#010101;stroke-miterlimit:11.3386;}
	.st1{fill:none;stroke:#010101;stroke-width:1.1282;stroke-linecap:round;stroke-linejoin:round;stroke-miterlimit:13.3172;}
	.st2{fill:none;stroke:#010101;stroke-miterlimit:10;}
</style>
<g>
	<g>
		<path id="rect815" class="st0" d="M549.8,101.2 M530,1032.1l-216,0.7c-6.3,0-11.4-5.1-11.4-11.3v-909c0-6.3,5.1-11.3,11.4-11.3
			H531 M552.6,1032.8"/>
		<path id="rect817" class="st0" d="M569.5,820.4l0.1-660.5"/>
		<path class="st0" d="M535.7,820.7h33.8"/>
		<path class="st0" d="M530,826.4c0-3.1,2.5-5.7,5.7-5.7"/>
		<path class="st0" d="M530,1032.1V826.4"/>
		<path class="st0" d="M530,1032.1"/>
		<path id="rect840" class="st0" d="M495.4,389.7v272.5c0,1.6-1.3,2.8-2.8,2.8H340c-1.6,0-2.8-1.3-2.8-2.8V389.7
			c0-1.6,1.3-2.8,2.8-2.8h152.6C494.2,386.9,495.4,388.1,495.4,389.7L495.4,389.7z"/>
		<path class="st0" d="M559.7,381.8c1.5,0.1,2.8,1.4,2.8,2.9"/>
		<path class="st0" d="M559.6,670.1H317.5c-1.6,0-2.9-1.3-2.9-2.9V384.7c0-1.6,1.3-2.9,2.9-2.9h242.2"/>
		<path class="st0" d="M562.5,667.2c0,1.6-1.3,2.9-2.9,2.9"/>
		<path class="st0" d="M562.5,384.7v282.5"/>
		<g id="layer1-5" transform="matrix(1.0410324,0,0,1.0411074,638.38743,20.704036)">
			<path id="path1024" class="st1" d="M-212.1,903c0.1,0.3,0.8,0.1,1,0.1c0.8,0,1.2,0.3,1.3,0.4c0.5,0.2,0.5,0,1.5,1
				c1.1,1.1,0.9,1.5,1.1,1.5c0.1,0,0.5-0.2,0.8-0.5c0.1-0.1,1.9-1.5,2.1-1.6c1.7-1.3,1.4-1.1,1.7-1.1l3.1,4.1
				c0.9,1.2,0.9,1.2,0.9,1.3s-0.4,0.4-3.1,2.5c0,0-2.7,2.1-3.8,3c-0.1,0.1-1.8,1.4-2.4,1.9c-0.5,0.4-0.8,0.6-2.6,2.1
				c-1,0.8-1.3,1-1.3,1.1c-0.1,0-0.6,0.5-3.5,2.7l-0.4,0.3l-3.9,3.1c-0.5,0.4-1.1,0.8-1.6,1.3c-1.9,1.5-2.3,1.8-2.4,1.9
				c-0.5,0.4-0.4,0.2-0.6,0.3c-6.6-8.6-4.6-5.9-9.4-12.2c-1-1.3-0.8-1-1-1.3l-3.7-4.8c-3-3.8-3-3.8-3-3.9l-3.6-4.6l-3.9-5.1
				l-3.7-4.8l-2.9-3.7c-0.5-0.6-6-7.7-6.1-8c-0.4-0.5-1.1-1.4-2.8-3.7c-1.7-2.2-1.5-1.9-1.7-2.2l-4.2-5.4l-2.4-3.1
				c-0.7-0.9,0.1,0.1-1.5-2c-0.4-0.5-1.1-1.4-2.4-3.1c-2-2.6-1.9-2.5-1.9-2.5c-0.8-1.1-0.7-0.9-0.7-1.1c0.2-0.3,0.7-0.6,3.6-2.8
				c0.2-0.1,2.3-1.7,2.3-1.7c0.7-0.5-0.2,0.1,2.5-1.9c0,0,2.4-1.8,2.6-1.9l3.7-2.7c0.2-0.2,1.7-1.3,1.8-1.3c0,0,1.9-1.4,2.4-1.8
				c2.2-1.6,1.9-1.4,2.2-1.7c-1.1-1.8-2.2-2.8-2.2-3.2c0-0.2,0.2-0.2,1.6-1.3c0.2-0.2,3.1-2.3,3.2-2.4c0.6-0.4,0.7-0.5,0.8-0.5
				c0.2,0,0.3,0.2,1.7,2.1l2.5,3.3c0.3,0.4,2.4,3.2,4.5,5.9l3.1,4.2c1,1.3,0.8,1.2,0.9,1.2c-0.6,0.7-4,2.9-4.5,3.5
				c0.6,0.9,0.3-0.2,1.6,2c1,1.8,0.3,1.1,0.5,2.2c0.1,0,0.6-0.4,0.6-0.4s0.5-0.9,0.9-1.3c0.7-0.8,1.6-1,1.6-1.1
				c0.1,0,1.7-0.8,3.6,0.4s2.2,3.5,1.9,4.5c-0.5,1.8-1.9,3-3.6,3.2c0.1,0.3,0.1,0.3,2.7,3.7c1.7,2.2,1.5,1.3,2.1,2.3
				c1.1,2.1,0.9,1.5,0.9,2.8c0.1-0.1,0.1,0,0.5-0.3l2.9-2.2c1.7-1.3,1.6-1.3,1.9-1.3c0.3,0.1,0.5,0.6,1.5,1.8l2.5,3.4
				c0.1,0.2,0.2,0.3,0.2,0.4c0,0.3-2.4,1.8-4.5,3.6c0.4,0.6,2.4,3.2,2.7,3.6c4.9-3.6,4.1-3.4,4.8-3.3c2,2.8,4.7,6,5.4,8
				c0.2,0.6,1,2.6,0,4.8c-0.9,1.9-2.4,2.9-2.9,3.3c1.5,0.2,0.4-0.3,2.7,0.9c1.4,0.7-0.1-0.1,1.4,1.3c0,0,0.5,0.4,1,1.1
				c1.5,2.4,1,1.9,1.3,3.2C-211.8,902.2-212.2,902.9-212.1,903L-212.1,903z"/>
		</g>
		<path class="st0" d="M531.5,152.4"/>
		<path class="st0" d="M570.3,159.9l-38.8-7.5"/>
	</g>
	<line class="st2" x1="531" y1="152.4" x2="531" y2="101.2"/>
</g>
</svg>
