<?xml version="1.0" encoding="utf-8"?>
<!-- Generator: Adobe Illustrator 25.2.1, SVG Export Plug-In . SVG Version: 6.00 Build 0)  -->
<svg version="1.1" id="Layer_1" xmlns="http://www.w3.org/2000/svg" xmlns:xlink="http://www.w3.org/1999/xlink" x="0px" y="0px"
	 viewBox="0 0 4280.3 1133.9" style="enable-background:new 0 0 4280.3 1133.9;" xml:space="preserve">
<style type="text/css">
	.st0{fill:none;stroke:#010101;stroke-linecap:round;stroke-linejoin:round;stroke-miterlimit:11.3386;}
</style>
<g>
	<path class="st0" d="M77.7,109.2c0.3-2.4,2.7-6.7,4.2-7.3c0.7-0.3,1.9-1,2.6-1.5l1.4-1h315.4h315.5l1.5,1.2c0.8,0.6,2.2,1.7,3,2.2
		c0.8,0.6,1.9,1.9,2.4,2.9c0.9,1.8,0.9,2.4,1,37.1c0.1,43.1,0.2,39.9-0.8,40.6c-0.6,0.4-3.8,0.6-13.7,0.6c-7.4,0-13.4,0.2-14,0.4
		l-1.1,0.4v18.6V222l1.2,1.2l1.2,1.2l12.4-0.2l12.4-0.2l1.1,1l1.1,1v353.3c0,194.3,0,353.9,0,354.5c0,2.1-0.8,2.2-14.5,2.1
		c-9.4-0.1-12.9,0-13.8,0.4l-1.2,0.5v18.7v18.7l1,0.7c0.9,0.6,2.8,0.7,13,0.7c6.6,0,12.1-0.1,12.4-0.3c0.2-0.2,1.1,0.3,1.8,0.9
		l1.4,1.2v35.7c0,31.1-0.1,35.9-0.7,37.3c-0.4,0.9-0.8,2-0.9,2.5c-0.4,1.5-3.8,3.9-5.9,4.2c-1,0.1-143.9,0.2-317.7,0.1l-315.8,0.1
		l-1.6-1.2c-0.9-0.7-2-2-2.5-3s-1.1-2.2-1.5-2.8c-0.5-0.9-0.6-59.2-0.6-470.3C77.5,321.8,77.6,110,77.7,109.2z"/>
	<path class="st0" d="M215.5,682.1c78.5,0.1,110,0,110.6-0.3c0.5-0.3,1.2-1.1,1.7-1.8c0.8-1.3,0.8-3.5,0.8-141.6
		c0-110.6-0.1-140.6-0.6-141.7c-0.4-1-1.1-1.7-2.2-2.3c-1.6-0.9-2.4-0.9-24.1-1c-12.3-0.1-23.4-0.1-24.6-0.1
		c-3.9,0.1-5.6,0.1-83.8,0c-48.3,0-78.2,0.1-78.9,0.3c-1.3,0.5-4,0.6-7,0.2c-2.2-0.3-2.2-0.3-2.2,0.8c0,1,0.4,1.3,2.6,2.4
		c1.5,0.7,3.1,1.7,3.6,2.1l0.9,0.9l0.1,136.2c0,74.9-0.1,137.2-0.2,138.4c-0.3,2.1-0.4,2.2-2.3,3.1c-1.1,0.5-2.8,1.4-3.8,2.1
		c-1.7,1.2-1.8,1.3-1.1,1.8C105.6,681.8,135.9,682,215.5,682.1z"/>
	<path class="st0" d="M127.1,937.8c1,0.6,6.1,6.8,6.4,7.9c0.2,0.5,0.7,1.4,1.3,2c2.2,2.3,3.2,3.5,3.2,3.8c0,0.2,1,1.6,2.2,3.1
		c2.3,2.9,3.4,4.2,7.6,9.9c5.2,6.9,6.8,9.1,8,10.2c0.5,0.5,1.1,1.4,1.5,2.1c0.4,0.7,1.4,2.1,2.2,3c0.9,0.9,2,2.4,2.6,3.3
		c0.6,0.9,1.2,1.7,1.5,1.8c0.2,0.2,0.8,1,1.3,1.9s1.5,2.4,2.3,3.5s1.9,2.5,2.3,3.2c1.4,2.1,2.2,3.2,5.9,7.6c1.9,2.3,3.5,4.4,3.5,4.5
		c0,0.2,0.7,1,1.5,1.9s1.5,1.8,1.5,2c0,1.2,3.6-0.3,5.1-2.2c0.1-0.1,1-0.8,2-1.4c1-0.6,1.8-1.3,1.8-1.5s1-1,2.1-1.7
		c1.2-0.8,2.9-2,3.8-2.7c0.9-0.8,2.5-1.9,3.4-2.6s2.6-2.1,3.7-3.1c1.1-1,2.8-2.2,3.8-2.7c2.1-1,2.9-2.6,2.2-4.8
		c-0.2-0.8-0.6-1.5-0.8-1.5s-0.9-0.8-1.5-1.7c-1.4-2.2-3.1-2.4-4.5-0.4c-1.1,1.6-1.9,1.6-2.8,0.2c-0.4-0.6-0.9-1.1-1.2-1.1
		c-1.2,0-2.8-1.8-3.5-4c-0.4-1.2-1.2-2.7-1.8-3.2c-0.9-0.9-1-1.2-0.7-3c0.7-4.1,0.3-6.2-1.5-9.6c-2.6-4.8-4.1-5.8-5.6-3.7
		c-0.7,1-1.2,1.3-2.3,1.3c-2.1,0-2.6-0.8-1.3-2.6c0.6-0.8,1.5-1.8,2.1-2.2s1.1-1,1.1-1.3c0-0.8-3.4-5.2-4.5-5.8
		c-0.9-0.5-1.2-0.4-2.8,0.7c-2.5,1.8-3.6,1.7-4.5-0.3c-0.4-0.9-1.1-2.1-1.7-2.8c-1.2-1.5-1-3.4,0.5-5c2-2.2,0.7-5.7-2.8-7.6l-1.8-1
		l-1.2,0.9c-1.1,0.8-1.4,0.8-2.3,0.4c-1.5-0.7-1.3-1.5,0.4-2.6c2.3-1.4,2.1-2.8-0.9-5.9c-1.3-1.4-2.3-2.7-2.3-2.9
		c0-0.3-0.6-1.2-1.4-2c-0.8-0.9-2.6-3.1-4.1-5c-2.4-3-2.9-3.4-4.1-3.4c-1,0-1.6,0.3-2.3,1.2c-0.5,0.6-1.5,1.4-2.3,1.6
		c-1,0.3-1.3,0.7-1.2,1.3c0.1,0.4,0.2,1.7,0.2,2.7c0.1,1.7-0.1,2-1.3,2.6c-0.7,0.4-2.6,1.8-4.2,3.1c-1.6,1.3-3.1,2.4-3.3,2.4
		s-2.3,1.6-4.7,3.6s-4.5,3.6-4.7,3.6c-0.4,0-2.1,2.5-2.1,3.1C126.5,937.4,126.8,937.6,127.1,937.8z"/>
	<path class="st0" d="M312.3,993.4c0.3,0.5,1.3,1.3,2.1,1.7c1.4,0.7,14.8,0.7,175.9,0.8l174.3,0.1l1.2-0.9c0.7-0.5,1.7-1.7,2.2-2.6
		l1-1.6V580.2c0-324.3-0.1-411.1-0.5-412.6c-1.2-4.2-2.6-5.2-6.9-4.8c-1.4,0.2-79,0.2-172.4,0.1c-93.4-0.1-170.2-0.1-170.6-0.1
		c-2.5,0.5,3,3.3,7.6,3.9c1.9,0.2,4.3,0.8,5.3,1.3c1.1,0.5,2.3,0.9,2.7,0.9c1.5,0,10.4,3.1,10.9,3.8c0.4,0.5,0.5,65.3,0.4,327.8
		l-0.1,327.1l-1.2,2c-0.7,1.1-1.6,2.1-2.1,2.2c-0.5,0.1-7.2,0.3-14.9,0.3c-8.9,0.1-14.1,0.3-14.4,0.6c-0.2,0.2-0.6,1.8-0.8,3.4
		c-0.2,1.6-0.4,37.5-0.3,79.6C311.7,978.7,311.8,992.6,312.3,993.4z"/>
	<path class="st0" d="M637.3,1034.2c0.5,0.7,1,1.7,1.2,2.3c0.5,1.5,3.6,4.7,5.5,5.7c0.9,0.5,2.3,1.3,2.9,1.8
		c1.1,0.8,1.8,0.9,6.3,0.9c4.8,0,5.2-0.1,7.1-1.3c3.8-2.4,6.4-4.9,8-8c1.6-2.9,1.6-3.1,1.6-7.5c0-3.9-0.1-4.8-1.1-6.7
		c-0.6-1.2-1.2-2.7-1.5-3.3c-0.3-0.8-5.3-5-7.7-6.5c-0.3-0.2-2.3-0.5-4.3-0.7c-4.5-0.4-8.8,0.3-10.3,1.6c-4.4,3.9-5.6,5.2-6.2,6.3
		c-0.4,0.7-1,1.7-1.4,2.1c-1.1,1.2-1.2,2-1.1,7.3C636.4,1032.3,636.5,1033.1,637.3,1034.2z"/>
	<path class="st0" d="M115.1,400.3c0.3-1.3,0.7-2.6,0.9-2.9c0.6-0.6,154-0.6,154.6,0c0.7,0.7,0.8,278.8,0.1,279.8
		c-0.5,0.7-4.9,0.7-77.2,0.7c-67.8,0-76.8-0.1-77.6-0.7l-1-0.6V540.2c0-75-0.1-136.6-0.2-136.9C114.7,403,114.8,401.6,115.1,400.3z"
		/>
</g>
</svg>
