<?xml version="1.0" encoding="UTF-8" standalone="no"?>
<!-- Created with Inkscape (http://www.inkscape.org/) -->

<svg
   xmlns:dc="http://purl.org/dc/elements/1.1/"
   xmlns:cc="http://creativecommons.org/ns#"
   xmlns:rdf="http://www.w3.org/1999/02/22-rdf-syntax-ns#"
   xmlns:svg="http://www.w3.org/2000/svg"
   xmlns="http://www.w3.org/2000/svg"
   xmlns:sodipodi="http://sodipodi.sourceforge.net/DTD/sodipodi-0.dtd"
   xmlns:inkscape="http://www.inkscape.org/namespaces/inkscape"
   width="841mm"
   height="1189mm"
   viewBox="0 0 841 1189"
   version="1.1"
   id="svg8"
   inkscape:version="0.92.3 (2405546, 2018-03-11)"
   sodipodi:docname="T460S_PR_NO_FP.svg">
  <defs
     id="defs2" />
  <sodipodi:namedview
     id="base"
     pagecolor="#ffffff"
     bordercolor="#666666"
     borderopacity="1.0"
     inkscape:pageopacity="0.0"
     inkscape:pageshadow="2"
     inkscape:zoom="0.35"
     inkscape:cx="1267.1382"
     inkscape:cy="875.72148"
     inkscape:document-units="mm"
     inkscape:current-layer="layer1"
     showgrid="false"
     showguides="true"
     inkscape:guide-bbox="true"
     inkscape:window-width="1920"
     inkscape:window-height="1017"
     inkscape:window-x="-8"
     inkscape:window-y="-8"
     inkscape:window-maximized="1" />
  <metadata
     id="metadata5">
    <rdf:RDF>
      <cc:Work
         rdf:about="">
        <dc:format>image/svg+xml</dc:format>
        <dc:type
           rdf:resource="http://purl.org/dc/dcmitype/StillImage" />
        <dc:title></dc:title>
      </cc:Work>
    </rdf:RDF>
  </metadata>
  <g
     inkscape:label="Layer 1"
     inkscape:groupmode="layer"
     id="layer1"
     transform="translate(0,892)">
    <g
       id="g885">
      <path
         sodipodi:nodetypes="cssssssssccc"
         inkscape:connector-curvature="0"
         id="rect815"
         d="m 625.03571,-74.140039 21.64721,0.05832 c 2.21599,0.006 4,1.784 4,4 V 142.5655 c 0,2.216 -1.784,4 -4,4 H 326.03571 c -2.216,0 -4,-1.784 -4,-4 V -70.081718 c 0,-2.216 1.78401,-3.994027 4,-4 l 21.64721,-0.05834 m 14.14723,0 249.05833,4e-5"
         style="opacity:1;fill:none;fill-opacity:1;stroke:#000000;stroke-width:0.35277778;stroke-miterlimit:4;stroke-dasharray:none;stroke-opacity:1" />
      <path
         sodipodi:nodetypes="cccssssc"
         inkscape:connector-curvature="0"
         id="rect817"
         d="m 575.55646,52.751165 -232.42114,-0.02726 m -2.64722,0 0.0684,-111.636913 c 6.8e-4,-1.108 0.892,-2 2,-2 h 288.14721 c 1.108,0 2,0.892 2,2 l 10e-6,111.664171"
         style="opacity:1;fill:none;fill-opacity:1;stroke:#000000;stroke-width:0.35277778;stroke-miterlimit:4;stroke-dasharray:none;stroke-opacity:1" />
      <path
         sodipodi:nodetypes="cssssc"
         inkscape:connector-curvature="0"
         id="rect821"
         d="m 632.70368,52.751165 v 11.871922 c 0,1.108 -0.892,2 -2,2 h -53.14722 c -1.108,0 -2,-0.892 -2,-2 V 52.751165"
         style="opacity:1;fill:none;fill-opacity:1;stroke:#000000;stroke-width:0.35277778;stroke-miterlimit:4;stroke-dasharray:none;stroke-opacity:1" />
      <path
         sodipodi:nodetypes="cssssc"
         inkscape:connector-curvature="0"
         id="rect823"
         d="m 361.83015,-74.140062 v 10.093055 c 0,0.554 -0.446,1 -1,1 h -12.14723 c -0.554,0 -1,-0.446 -1,-1 v -10.093055"
         style="opacity:1;fill:none;fill-opacity:1;stroke:#000000;stroke-width:0.35277778;stroke-miterlimit:4;stroke-dasharray:none;stroke-opacity:1" />
      <path
         id="rect840"
         d="m 424.40879,79.20108 h 96.14723 c 0.554,0 1,0.446001 1,1.000001 V 133.8483 c 0,0.554 -0.446,1 -1,1 h -96.14723 c -0.554,0 -1,-0.446 -1,-1 V 80.201081 c 0,-0.554 0.446,-1.000001 1,-1.000001 z"
         style="opacity:1;fill:none;fill-opacity:1;stroke:#000000;stroke-width:0.35277778;stroke-miterlimit:4;stroke-dasharray:none;stroke-opacity:1"
         inkscape:connector-curvature="0" />
      <path
         sodipodi:nodetypes="cssssc"
         inkscape:connector-curvature="0"
         id="rect823-4"
         d="m 610.88848,-74.140039 v 10.093055 c 0,0.554 0.446,1 1,1 h 12.14723 c 0.554,0 1,-0.446 1,-1 v -10.093055"
         style="opacity:1;fill:none;fill-opacity:1;stroke:#000000;stroke-width:0.35277778;stroke-miterlimit:4;stroke-dasharray:none;stroke-opacity:1" />
      <path
         id="path860"
         d="m 647.65418,-44.273716 a 5.8236108,5.8236113 0 0 1 -5.82361,5.823611 5.8236108,5.8236113 0 0 1 -5.82361,-5.823611 5.8236108,5.8236113 0 0 1 5.82361,-5.823611 5.8236108,5.8236113 0 0 1 5.82361,5.823611 z"
         style="opacity:1;fill:none;fill-opacity:1;stroke:#000000;stroke-width:0.35277778;stroke-miterlimit:4;stroke-dasharray:none;stroke-opacity:1"
         inkscape:connector-curvature="0" />
      <path
         id="rect862"
         d="m 423.19609,56.271046 h 99.62735 c 0.5595,0 1.00993,0.448574 1.00993,1.005771 v 85.135673 c 0,0.5572 -0.45043,1.00577 -1.00993,1.00577 h -99.62735 c -0.55951,0 -1.00994,-0.44857 -1.00994,-1.00577 V 57.276817 c 0,-0.557197 0.45043,-1.005771 1.00994,-1.005771 z"
         style="opacity:1;fill:none;fill-opacity:1;stroke:#000000;stroke-width:0.35277778;stroke-miterlimit:4;stroke-dasharray:none;stroke-opacity:1"
         inkscape:connector-curvature="0" />
      <g
         style="stroke:#000000;stroke-width:0.33886081;stroke-miterlimit:4;stroke-dasharray:none;stroke-opacity:1"
         transform="matrix(1.0410324,0,0,1.0411074,638.38743,20.704036)"
         inkscape:label="Layer 1"
         id="layer1-5">
        <path
           id="path1024"
           d="m -11.218154,83.475673 c 0.107181,-0.0517 0.0208,-0.29473 0.0197,-0.34728 -0.005,-0.26778 0.117461,-0.43797 0.133241,-0.47142 0.0774,-0.16388 3.43e-4,-0.15867 0.357499,-0.51536 0.378511,-0.37841 0.512551,-0.30623 0.536391,-0.375 0.0143,-0.0411 -0.086,-0.1598 -0.182871,-0.28424 -0.0252,-0.0324 -0.527541,-0.66923 -0.57043,-0.72405 -0.465911,-0.59642 -0.381631,-0.48512 -0.386111,-0.59532 l 1.4579701,-1.09671 c 0.407201,-0.30661 0.41935,-0.31721 0.4536,-0.31352 0.05,0.005 0.1343,0.13326 0.896782,1.08934 0.01,0.0118 0.753837,0.94811 1.066487,1.34184 0.0241,0.0304 0.495282,0.616091 0.683361,0.85067 0.154839,0.19327 0.221559,0.27846 0.72549,0.9058 0.280429,0.35015 0.36498,0.45492 0.371592,0.4632 0.01741,0.0216 0.176958,0.22206 0.970147,1.21975 l 0.118833,0.1497 1.097859,1.37396 c 0.14478,0.181831 0.295471,0.37137 0.452729,0.567961 0.543091,0.680109 0.635751,0.7938 0.664651,0.831239 0.124169,0.1606 0.0869,0.130251 0.0922,0.213971 -3.041859,2.333819 -2.085311,1.599989 -4.304991,3.301999 -0.46754,0.35854 -0.362651,0.27793 -0.445799,0.34171 l -1.682861,1.29312 c -1.3515901,1.03868 -1.3522101,1.03788 -1.3643401,1.0472 l -1.6335,1.25559 -1.79394,1.381121 -1.70093,1.30209 -1.30121,1.002479 c -0.21189,0.16346 -2.73312,2.100607 -2.80812,2.158107 -0.16679,0.12793 -0.50527,0.38956 -1.29311,0.99449 -0.77149,0.59225 -0.68585,0.52643 -0.7715,0.59238 l -1.89932,1.46211 -1.08983,0.83626 c -0.31709,0.24267 0.0489,-0.0338 -0.7059,0.54121 -0.1649,0.12546 -0.49332,0.37835 -1.08922,0.83328 -0.91178,0.69688 -0.86896,0.66398 -0.87681,0.67001 -0.38991,0.29333 -0.33499,0.23827 -0.37694,0.25902 -0.11543,-0.084 -0.22497,-0.25074 -0.97743,-1.27519 -0.0452,-0.0621 -0.58328,-0.79855 -0.59947,-0.82029 -0.18219,-0.24528 0.0418,0.0609 -0.6597,-0.89093 -0.006,-0.008 -0.63438,-0.85602 -0.68602,-0.92618 l -0.95514,-1.29458 c -0.0555,-0.0754 -0.45003,-0.61204 -0.46239,-0.62877 -0.006,-0.008 -0.50656,-0.6846 -0.63336,-0.85567 -0.57565,-0.776167 -0.4849,-0.670857 -0.59197,-0.763747 -0.62797,0.38118 -0.97054,0.786317 -1.11936,0.763347 -0.0773,-0.0116 -0.0832,-0.0581 -0.44289,-0.546767 -0.0636,-0.0861 -0.80557,-1.08831 -0.84255,-1.139209 -0.14051,-0.194341 -0.17488,-0.239051 -0.17181,-0.27823 0.005,-0.0684 0.0737,-0.107151 0.74582,-0.609721 l 1.179031,-0.881849 c 0.1585,-0.11802 1.14319,-0.85823 2.09188,-1.569121 l 1.47507,-1.1053 c 0.44741,-0.33501 0.42635,-0.29662 0.43042,-0.29886 0.23909,0.22841 1.03333,1.41043 1.2366,1.58503 0.30737,-0.19824 -0.0745,-0.11574 0.72061,-0.546209 0.62035,-0.335981 0.37391,-0.0965 0.768,-0.183721 -0.0135,-0.0225 -0.14164,-0.22436 -0.14333,-0.22608 -0.007,-0.007 -0.30683,-0.17245 -0.44404,-0.30159 -0.27357,-0.25753 -0.3606,-0.54983 -0.37118,-0.57852 -0.007,-0.0213 -0.27027,-0.5885 0.14425,-1.25993 0.41501,-0.67242 1.22417,-0.7609 1.57553,-0.66341 0.63046,0.1751 1.07242,0.67882 1.11189,1.24993 0.0891,-0.047 0.10529,-0.0394 1.30635,-0.9566 0.76976,-0.58776 0.4661,-0.54258 0.82493,-0.73687 0.74658,-0.40409 0.54276,-0.31253 0.98334,-0.31477 -0.0278,-0.0412 -0.008,-0.0217 -0.11456,-0.16382 l -0.7629,-1.00949 c -0.46273,-0.61198 -0.47159,-0.57363 -0.4517,-0.66837 0.0195,-0.0929 0.20362,-0.18436 0.64139,-0.51421 l 1.18763,-0.894769 c 0.0656,-0.0495 0.10768,-0.079 0.13478,-0.0746 0.0888,0.014 0.62582,0.83421 1.26203,1.578229 0.20145,-0.13337 1.1289,-0.828569 1.2785,-0.959669 -1.27915,-1.72588 -1.19271,-1.4465 -1.18043,-1.67374 0.97796,-0.69971 2.1265,-1.6483 2.83932,-1.914981 0.19857,-0.0743 0.91202,-0.36098 1.70377,0.002 0.67693,0.309911 1.03006,0.854771 1.17763,1.009371 0.0647,-0.51939 -0.0972,-0.14438 0.30318,-0.95086 0.23857,-0.48058 -0.0393,0.0251 0.44271,-0.50378 0.003,-0.004 0.12872,-0.190611 0.39379,-0.348531 0.857,-0.510659 0.66494,-0.33733 1.13456,-0.44851 0.41056,-0.0971 0.66367,0.0505 0.69717,0.0343 z"
           inkscape:connector-curvature="0"
           style="fill:none;fill-opacity:1;stroke:#000000;stroke-width:0.33886081;stroke-linecap:round;stroke-linejoin:round;stroke-miterlimit:4;stroke-dasharray:none;stroke-opacity:1" />
      </g>
      <path
         sodipodi:nodetypes="ccc"
         inkscape:connector-curvature="0"
         id="rect843"
         d="M 343.13532,52.723907 340.4881,66.371131 V 52.723907"
         style="opacity:1;fill:none;fill-opacity:1;stroke:#000000;stroke-width:0.35277778;stroke-miterlimit:4;stroke-dasharray:none;stroke-opacity:1" />
    </g>
  </g>
</svg>
