<?xml version="1.0" encoding="utf-8"?>
<!-- Generator: Adobe Illustrator 25.2.1, SVG Export Plug-In . SVG Version: 6.00 Build 0)  -->
<svg version="1.1" id="Layer_1" xmlns="http://www.w3.org/2000/svg" xmlns:xlink="http://www.w3.org/1999/xlink" x="0px" y="0px"
	 viewBox="0 0 4280.3 1133.9" style="enable-background:new 0 0 4280.3 1133.9;" xml:space="preserve">
<style type="text/css">
	.st0{fill:none;stroke:#010101;stroke-miterlimit:11.3386;}
	.st1{fill:none;stroke:#010101;stroke-width:1.0837;stroke-linecap:round;stroke-linejoin:round;stroke-miterlimit:12.7923;}
</style>
<g>
	<path id="rect815" class="st0" d="M738.8,937.4l-0.2,63.4c0,6.3-5.1,11.3-11.4,11.3H122.3c-6.3,0-11.4-5.1-11.4-11.3v-909
		c0-6.3,5.1-11.3,11.4-11.3h604.9c6.3,0,11.4,5.1,11.4,11.3l0.2,64.5 M738.8,196.4v700.9"/>
	<path id="rect817" class="st0" d="M377.8,799.8l0.1-660.5 M701.1,937.4l0.1,19.3c0,3.1-2.5,5.7-5.7,5.7H377.8 M701.2,906.9
		 M701.1,196.4v700.9 M377.9,131.8l317.6,0.2c3.2,0,5.7,2.5,5.7,5.7l-0.1,18.7"/>
	<path id="rect821" class="st0" d="M377.8,962.1H344c-3.2,0-5.7-2.5-5.7-5.7V805.8c0-3.1,2.5-5.7,5.7-5.7h33.8"/>
	<path class="st0" d="M701.1,156.4h37.7"/>
	<path class="st0" d="M710.1,196.4"/>
	<path class="st0" d="M738.8,196.4h-37.7"/>
	<path id="rect840" class="st0" d="M303.7,369.1v272.5c0,1.6-1.3,2.8-2.8,2.8H148.3c-1.6,0-2.8-1.3-2.8-2.8V369.1
		c0-1.6,1.3-2.8,2.8-2.8h152.6C302.5,366.3,303.7,367.5,303.7,369.1L303.7,369.1z"/>
	<path class="st0" d="M701.1,937.4h37.7"/>
	<path class="st0" d="M701.1,937.4"/>
	<path class="st0" d="M701.1,897.3"/>
	<path class="st0" d="M738.8,897.3h-37.7"/>
	<path id="rect840-9" class="st0" d="M309.7,706.9v-28.4c0-3.2-2.6-5.9-5.8-5.9h-28c-3.3,0-5.8,2.6-5.8,5.9v28.4
		c0,3.2,2.6,5.9,5.8,5.9h28C307.2,712.8,309.7,710.1,309.7,706.9z"/>
	<path id="path860" class="st0" d="M654.9,1003.6c-9.1,0-16.6-7.4-16.6-16.5c0-9.1,7.4-16.5,16.6-16.5c9.1,0,16.6,7.4,16.6,16.5
		C671.4,996.1,664,1003.6,654.9,1003.6z"/>
	<path id="rect862" class="st0" d="M370.8,364.1v282.5c0,1.6-1.3,2.9-2.9,2.9H125.8c-1.6,0-2.9-1.3-2.9-2.9V364.1
		c0-1.6,1.3-2.9,2.9-2.9H368C369.5,361.3,370.8,362.6,370.8,364.1z"/>
	<path id="rect864" class="st0" d="M323,681.8v21.7c0,1.6-1.3,2.8-2.8,2.8h-0.4c-1.6,0-2.8-1.3-2.8-2.8v-21.7c0-1.6,1.3-2.8,2.8-2.8
		h0.4C321.7,679,323,680.3,323,681.8z"/>
	<g id="layer1-5" transform="matrix(1.0410324,0,0,1.0411074,638.38743,20.704036)">
		<path id="path1024" class="st1" d="M-396.3,883.2c0.1,0.3,0.8,0.1,1,0.1c0.8,0,1.2,0.3,1.3,0.4c0.5,0.2,0.5,0,1.5,1
			c1.1,1.1,0.9,1.5,1.1,1.5c0.1,0,0.5-0.2,0.8-0.5c0.1-0.1,1.9-1.5,2.1-1.6c1.7-1.3,1.4-1.1,1.7-1.1l3.1,4.1
			c0.9,1.2,0.9,1.2,0.9,1.3c0,0.1-0.4,0.4-3.1,2.5c0,0-2.7,2.1-3.8,3c-0.1,0.1-1.8,1.4-2.4,1.9c-0.5,0.4-0.8,0.6-2.6,2.1
			c-1,0.8-1.3,1-1.3,1.1c-0.1,0-0.6,0.5-3.5,2.7l-0.4,0.3l-3.9,3.1c-0.5,0.4-1.1,0.8-1.6,1.3c-1.9,1.5-2.3,1.8-2.4,1.9
			c-0.5,0.4-0.4,0.2-0.6,0.3c-6.6-8.6-4.6-5.9-9.4-12.2c-1-1.3-0.8-1-1-1.3l-3.7-4.8c-3-3.8-3-3.8-3-3.9l-3.6-4.6l-3.9-5.1l-3.7-4.8
			l-2.9-3.7c-0.5-0.6-6-7.7-6.1-8c-0.4-0.5-1.1-1.4-2.8-3.7c-1.7-2.2-1.5-1.9-1.7-2.2l-4.2-5.4l-2.4-3.1c-0.7-0.9,0.1,0.1-1.5-2
			c-0.4-0.5-1.1-1.4-2.4-3.1c-2-2.6-1.9-2.5-1.9-2.5c-0.8-1.1-0.7-0.9-0.7-1.1c0.2-0.3,0.7-0.6,3.6-2.8c0.2-0.1,2.3-1.7,2.3-1.7
			c0.7-0.5-0.2,0.1,2.5-1.9c0,0,2.4-1.8,2.6-1.9l3.7-2.7c0.2-0.2,1.7-1.3,1.8-1.3c0,0,1.9-1.4,2.4-1.8c2.2-1.6,1.9-1.4,2.2-1.7
			c-1.1-1.8-2.2-2.8-2.2-3.2c0-0.2,0.2-0.2,1.6-1.3c0.2-0.2,3.1-2.3,3.2-2.4c0.6-0.4,0.7-0.5,0.8-0.5c0.2,0,0.3,0.2,1.7,2.1l2.5,3.3
			c0.3,0.4,2.4,3.2,4.5,5.9l3.1,4.2c1,1.3,0.8,1.2,0.9,1.2c-0.6,0.7-4,2.9-4.5,3.5c0.6,0.9,0.3-0.2,1.6,2c1,1.8,0.3,1.1,0.5,2.2
			c0.1,0,0.6-0.4,0.6-0.4s0.5-0.9,0.9-1.3c0.7-0.8,1.6-1,1.6-1.1c0.1,0,1.7-0.8,3.6,0.4c1.9,1.2,2.2,3.5,1.9,4.5
			c-0.5,1.8-1.9,3-3.6,3.2c0.1,0.3,0.1,0.3,2.7,3.7c1.7,2.2,1.5,1.3,2.1,2.3c1.1,2.1,0.9,1.5,0.9,2.8c0.1-0.1,0.1,0,0.5-0.3l2.9-2.2
			c1.7-1.3,1.6-1.3,1.9-1.3c0.3,0.1,0.5,0.6,1.5,1.8l2.5,3.4c0.1,0.2,0.2,0.3,0.2,0.4c0,0.3-2.4,1.8-4.5,3.6
			c0.4,0.6,2.4,3.2,2.7,3.6c4.9-3.6,4.1-3.4,4.8-3.3c2,2.8,4.7,6,5.4,8c0.2,0.6,1,2.6,0,4.8c-0.9,1.9-2.4,2.9-2.9,3.3
			c1.5,0.2,0.4-0.3,2.7,0.9c1.4,0.7-0.1-0.1,1.4,1.3c0,0,0.5,0.4,1,1.1c1.5,2.4,1,1.9,1.3,3.2C-396,882.4-396.4,883.1-396.3,883.2
			L-396.3,883.2z"/>
	</g>
	<path id="rect843" class="st0" d="M378.6,139.3l-38.8-7.5h38.8"/>
</g>
</svg>
