<?xml version="1.0" encoding="utf-8"?>
<!-- Generator: Adobe Illustrator 25.3.0, SVG Export Plug-In . SVG Version: 6.00 Build 0)  -->
<svg version="1.1" id="Layer_1" xmlns="http://www.w3.org/2000/svg" xmlns:xlink="http://www.w3.org/1999/xlink" x="0px" y="0px"
	 viewBox="0 0 4280.3 1133.9" style="enable-background:new 0 0 4280.3 1133.9;" xml:space="preserve">
<style type="text/css">
	.st0{fill:none;stroke:#000000;stroke-miterlimit:10;}
	.st1{fill:none;stroke:#010101;stroke-linecap:round;stroke-linejoin:round;stroke-miterlimit:11.3386;}
</style>
<g>
	<path class="st0" d="M103.9,1038.9c-6.3,0-11.3-5.1-11.3-11.3"/>
	<path class="st0" d="M730.4,1038.9H103.9"/>
	<path class="st0" d="M741.7,1027.6c0,6.3-5.1,11.3-11.3,11.3"/>
	<path class="st0" d="M741.7,969.4v58.1"/>
	<path class="st0" d="M741.7,910.4"/>
	<line class="st0" x1="741.7" y1="205.5" x2="741.7" y2="928.3"/>
	<path class="st0" d="M741.7,106.3v58.1"/>
	<path class="st0" d="M730.4,95c6.3,0,11.3,5.1,11.3,11.3"/>
	<path class="st0" d="M103.9,95h626.5"/>
	<path class="st0" d="M92.6,106.3c0-6.3,5.1-11.3,11.3-11.3"/>
	<path class="st0" d="M92.6,1027.6V106.3"/>
	<path class="st0" d="M363.3,151.7"/>
	<path class="st0" d="M363.3,171.8"/>
	<line class="st0" x1="362.9" y1="384.4" x2="362.9" y2="160.2"/>
	<path class="st0" d="M363.2,643.6"/>
	<line class="st0" x1="363.3" y1="817.8" x2="362.9" y2="670.7"/>
	<path class="st0" d="M361.3,151.7h328c3.1,0,5.7,2.5,5.7,5.7v819.2c0,3.1-2.5,5.7-5.7,5.7h-326"/>
	<path class="st0" d="M741.7,205.5h-25.5c-1.6,0-2.8-1.3-2.8-2.8v-35.4c0-1.6,1.3-2.8,2.8-2.8h25.5"/>
	<path class="st0" d="M741.7,205.5"/>
	<path class="st0" d="M741.7,164.4"/>
	<path class="st0" d="M741.7,928.3h-25.5c-1.6,0-2.8,1.3-2.8,2.8v35.4c0,1.6,1.3,2.8,2.8,2.8h25.5"/>
	<path class="st0" d="M741.7,928.3"/>
	<path class="st0" d="M741.7,969.4"/>
	<circle class="st0" cx="663.2" cy="1011.2" r="18.4"/>
	<path class="st0" d="M363.3,982.2h-25.5c-3.1,0-5.7-2.5-5.7-5.7V823.5c0-3.1,2.5-5.7,5.7-5.7h25.5"/>
	<path class="st0" d="M363.3,982.2"/>
	<path class="st0" d="M363.3,817.8"/>
	<polyline class="st0" points="362.9,670.7 118.2,670.7 118.2,384.4 362.9,384.4 	"/>
	<path class="st0" d="M362.9,670.7"/>
	<path class="st0" d="M362.9,384.4"/>
	<g id="layer1">
		<path id="path1024" class="st1" d="M217.8,964c0.2,0.3,1,0.1,1.1,0.1c0.9,0,1.4,0.4,1.5,0.4c0.5,0.3,0.5,0,1.7,1.2
			c1.2,1.2,1,1.7,1.2,1.7c0.1,0,0.5-0.3,0.9-0.6c0.1-0.1,2.2-1.7,2.3-1.8c1.9-1.5,1.6-1.2,1.9-1.2l3.5,4.7c1,1.3,1,1.4,1,1.5
			c0,0.2-0.4,0.4-3.5,2.9c0,0-3.1,2.4-4.3,3.5c-0.1,0.1-2,1.6-2.8,2.2c-0.6,0.5-0.9,0.7-2.9,2.3c-1.1,0.9-1.5,1.2-1.5,1.2
			c-0.1,0.1-0.7,0.6-3.9,3.1l-0.5,0.4l-4.4,3.6c-0.6,0.5-1.2,1-1.8,1.5c-2.2,1.8-2.6,2.1-2.7,2.2c-0.5,0.4-0.4,0.3-0.7,0.3
			c-7.6-9.8-5.2-6.7-10.7-13.9c-1.2-1.5-0.9-1.2-1.1-1.4l-4.2-5.4c-3.4-4.4-3.4-4.4-3.4-4.4l-4.1-5.3l-4.5-5.8l-4.2-5.5l-3.2-4.2
			c-0.5-0.7-6.8-8.8-7-9.1c-0.4-0.5-1.3-1.6-3.2-4.2c-1.9-2.5-1.7-2.2-1.9-2.5l-4.7-6.1l-2.7-3.5c-0.8-1,0.1,0.2-1.8-2.3
			c-0.4-0.5-1.2-1.6-2.7-3.5c-2.3-3-2.1-2.8-2.2-2.8c-0.9-1.3-0.8-1.1-0.8-1.2c0.3-0.4,0.8-0.7,4.1-3.2c0.2-0.1,2.6-1.9,2.7-1.9
			c0.8-0.6-0.2,0.1,2.9-2.1c0,0,2.8-2.1,3-2.2l4.2-3.1c0.2-0.2,2-1.5,2-1.5c0,0,2.2-1.6,2.8-2c2.5-1.9,2.2-1.6,2.5-1.9
			c-1.2-2-2.5-3.1-2.5-3.6c0-0.3,0.2-0.3,1.8-1.4c0.3-0.2,3.5-2.6,3.7-2.7c0.6-0.5,0.8-0.6,0.9-0.6c0.2,0,0.3,0.2,2,2.4l2.9,3.8
			c0.4,0.5,2.8,3.7,5.1,6.8l3.6,4.8c1.1,1.4,1,1.4,1,1.4c-0.7,0.8-4.6,3.3-5.1,4c0.6,1,0.4-0.2,1.8,2.3c1.1,2,0.3,1.2,0.6,2.5
			c0.1,0,0.7-0.5,0.7-0.5c0,0,0.6-1,1-1.4c0.8-0.9,1.8-1.2,1.9-1.2c0.1,0,1.9-0.9,4.1,0.5c2.2,1.3,2.5,4,2.1,5.1
			c-0.6,2-2.2,3.5-4,3.6c0.2,0.3,0.1,0.3,3.1,4.2c1.9,2.5,1.8,1.5,2.4,2.7c1.3,2.4,1,1.8,1,3.2c0.1-0.1,0.1,0,0.5-0.4l3.3-2.5
			c2-1.5,1.9-1.5,2.2-1.5c0.3,0.1,0.6,0.7,1.7,2.1l2.9,3.8c0.2,0.2,0.3,0.3,0.2,0.4c0,0.3-2.7,2-5.1,4.1c0.4,0.7,2.7,3.7,3.1,4.1
			c5.6-4.1,4.7-3.9,5.4-3.8c2.3,3.2,5.3,6.9,6.2,9.2c0.2,0.6,1.2,3,0,5.5c-1,2.2-2.8,3.3-3.3,3.8c1.7,0.2,0.5-0.3,3.1,1
			c1.6,0.8-0.1-0.1,1.6,1.4c0,0,0.6,0.4,1.1,1.3c1.7,2.8,1.1,2.2,1.5,3.7C218.2,963,217.7,963.9,217.8,964L217.8,964z"/>
	</g>
	<line class="st0" x1="362.9" y1="160.2" x2="331.7" y2="151.7"/>
	<line class="st0" x1="331.7" y1="151.7" x2="361.9" y2="151.7"/>
	<path class="st0" d="M360.1,1027.6v-34c0-1.6,1.3-2.8,2.8-2.8H404c1.6,0,2.8,1.3,2.8,2.8v34c0,1.6-1.3,2.8-2.8,2.8h-41.1
		C361.3,1030.4,360.1,1029.1,360.1,1027.6z"/>
	<path class="st0" d="M412.9,1021.9v-22.7c0-2.3,1.9-4.3,4.3-4.3l0,0c2.3,0,4.3,1.9,4.3,4.3v22.7c0,2.3-1.9,4.3-4.3,4.3l0,0
		C414.8,1026.1,412.9,1024.2,412.9,1021.9z"/>
	<path class="st0" d="M126.9,664.9v-275c0-1.6,1.3-2.8,2.8-2.8h187.1c1.6,0,2.8,1.3,2.8,2.8v275c0,1.6-1.3,2.8-2.8,2.8H129.7
		C128.2,667.7,126.9,666.4,126.9,664.9z"/>
	<path class="st0" d="M319.6,643.8V530.4c0-1.6,1.3-2.8,2.8-2.8h39.7c1.6,0,2.8,1.3,2.8,2.8l0.1,104.9l-42.6,11.3
		C320.9,646.6,319.6,645.4,319.6,643.8z"/>
	<path class="st0" d="M319.6,411.3v113.4c0,1.6,1.3,2.8,2.8,2.8h39.7c1.6,0,2.8-1.3,2.8-2.8l0.1-104.9l-42.6-11.3
		C320.9,408.5,319.6,409.8,319.6,411.3z"/>
</g>
</svg>
