<?xml version="1.0" encoding="utf-8"?>
<!-- Generator: Adobe Illustrator 25.2.0, SVG Export Plug-In . SVG Version: 6.00 Build 0)  -->
<svg version="1.1" id="Layer_1" xmlns="http://www.w3.org/2000/svg" xmlns:xlink="http://www.w3.org/1999/xlink" x="0px" y="0px"
	 viewBox="0 0 4280.3 1133.9" style="enable-background:new 0 0 4280.3 1133.9;" xml:space="preserve">
<style type="text/css">
	.st0{fill:none;stroke:#010101;stroke-miterlimit:11.3386;}
	.st1{fill:none;stroke:#010101;stroke-width:1.1745;stroke-linecap:round;stroke-linejoin:round;stroke-miterlimit:13.8636;}
</style>
<g>
	<path id="rect1380" class="st0" d="M697.9,934.2l0.2,66.7c0,4.7-3.8,8.5-8.5,8.5H81.2c-4.7,0-8.5-3.8-8.5-8.5V88.2
		c0-4.7,3.8-8.5,8.5-8.5h608.4c4.7,0,8.5,3.8,8.5,8.5l-0.2,64.7 M697.9,193.6v699.8"/>
	<path id="rect1382" class="st0" d="M341.1,130.1h312.8c4.7,0,8.5,3.8,8.5,10.7v810.5c0,2.6-3.8,6.4-8.5,6.4H349.6 M341.3,796.9
		l-0.2-656.5"/>
	<path id="rect1414" class="st0" d="M697.9,193.6h-27.2c-1.6,0-2.8-1.3-2.8-2.8v-35.1c0-1.6,1.3-2.8,2.8-2.8h27.2"/>
	<path id="rect1412-2" class="st0" d="M327.1,646.2v-283l-0.1-2.8H95.7c-1.6,0-2.8,1.3-2.8,2.8v283c0,1.6,1.3,2.8,2.8,2.8H327
		L327.1,646.2z"/>
	<path id="rect1412-28" class="st0" d="M341.3,796.9h-39.4c-1.6,0-2.8,1.3-2.8,2.8v155.1c0,1.6,1.3,2.8,2.8,2.8h47.7"/>
	<path id="rect1414-3" class="st0" d="M697.9,893.4h-27.2c-1.6,0-2.8,1.3-2.8,2.8v35.2c0,1.6,1.3,2.8,2.8,2.8h27.2"/>
	<path id="path1452" class="st0" d="M614.7,1000c-9.1,0-16.5-7.4-16.5-16.5s7.4-16.5,16.5-16.5s16.5,7.4,16.5,16.5
		S623.9,1000,614.7,1000z"/>
	<g id="layer1-3" transform="matrix(1.0410324,0,0,1.0411074,468.4321,-74.051927)">
		<path id="path1024" class="st1" d="M-273.5,975.4c0.1,0.3,0.8,0.1,1,0.1c0.8,0,1.2,0.3,1.3,0.4c0.5,0.2,0.4,0,1.5,1
			c1.1,1.1,0.9,1.5,1.1,1.5c0.1,0,0.5-0.2,0.8-0.5c0.1-0.1,1.9-1.5,2.1-1.6c1.7-1.3,1.4-1.1,1.7-1.1l3.1,4.1
			c0.9,1.2,0.9,1.2,0.9,1.3s-0.4,0.4-3.1,2.5c0,0-2.7,2.1-3.8,3c-0.1,0.1-1.7,1.4-2.4,1.9c-0.5,0.4-0.8,0.6-2.6,2.1
			c-1,0.8-1.3,1-1.3,1.1c-0.1,0-0.6,0.5-3.5,2.8l-0.4,0.3l-3.9,3.1c-0.5,0.4-1.1,0.8-1.6,1.3c-1.9,1.5-2.3,1.8-2.4,1.9
			c-0.5,0.4-0.4,0.2-0.6,0.3c-6.6-8.6-4.5-5.9-9.4-12.2c-1-1.3-0.8-1-1-1.3l-3.7-4.8c-2.9-3.8-2.9-3.8-3-3.9l-3.6-4.6l-3.9-5.1
			l-3.7-4.8l-2.8-3.7c-0.5-0.6-6-7.8-6.1-8c-0.4-0.5-1.1-1.4-2.8-3.7c-1.7-2.2-1.5-1.9-1.7-2.2l-4.1-5.4l-2.4-3.1
			c-0.7-0.9,0.1,0.1-1.5-2c-0.4-0.5-1.1-1.4-2.4-3.1c-2-2.6-1.9-2.5-1.9-2.5c-0.8-1.1-0.7-1-0.7-1.1c0.2-0.3,0.7-0.6,3.6-2.8
			c0.2-0.1,2.3-1.7,2.3-1.7c0.7-0.5-0.2,0.1,2.5-1.9c0,0,2.4-1.8,2.6-1.9l3.7-2.7c0.2-0.2,1.7-1.3,1.8-1.3c0,0,1.9-1.4,2.4-1.8
			c2.2-1.6,1.9-1.4,2.2-1.7c-1.1-1.8-2.2-2.8-2.2-3.2c0-0.2,0.2-0.2,1.5-1.3c0.2-0.2,3.1-2.3,3.2-2.4c0.6-0.4,0.7-0.5,0.8-0.5
			c0.2,0,0.3,0.2,1.7,2.1l2.5,3.3c0.3,0.4,2.4,3.2,4.4,5.9l3.1,4.2c0.9,1.3,0.8,1.2,0.8,1.2c-0.6,0.7-4,2.9-4.5,3.5
			c0.6,0.9,0.3-0.2,1.5,2c1,1.8,0.3,1.1,0.5,2.2c0.1,0,0.6-0.4,0.6-0.4s0.5-0.9,0.9-1.3c0.7-0.8,1.6-1,1.6-1.1
			c0.1,0,1.7-0.8,3.6,0.4s2.2,3.5,1.9,4.5c-0.5,1.8-1.9,3-3.5,3.2c0.1,0.3,0.1,0.3,2.7,3.7c1.7,2.2,1.5,1.3,2.1,2.3
			c1.1,2.1,0.9,1.5,0.9,2.8c0.1-0.1,0.1,0,0.5-0.3l2.9-2.2c1.7-1.3,1.6-1.3,1.9-1.3c0.3,0.1,0.5,0.6,1.5,1.8l2.5,3.4
			c0.1,0.2,0.2,0.3,0.2,0.4c0,0.3-2.4,1.8-4.5,3.6c0.4,0.6,2.3,3.2,2.7,3.6c4.9-3.6,4.1-3.4,4.7-3.3c2,2.8,4.7,6,5.4,8.1
			c0.2,0.6,1,2.6,0,4.8c-0.9,1.9-2.4,2.9-2.9,3.3c1.5,0.2,0.4-0.3,2.7,0.9c1.4,0.7-0.1-0.1,1.4,1.3c0,0,0.5,0.4,1,1.1
			c1.4,2.4,1,1.9,1.3,3.2C-273.1,974.6-273.6,975.3-273.5,975.4L-273.5,975.4z"/>
	</g>
	<path id="rect1462" class="st0" d="M341.1,140.4l-41.5-10.3h41.5"/>
	<path id="rect1468" class="st0" d="M261.8,371.5v271.4l-0.3,2.8H106.9c-1.6,0-2.8-1.3-2.8-2.8V371.5c0-1.6,1.3-2.8,2.8-2.8h154.6
		L261.8,371.5z"/>
	<path id="rect1470" class="st0" d="M292.9,369.8v271.4c0,1.6-1.3,2.8-2.8,2.8h-13.2c-1.6,0-2.8-1.3-2.8-2.8V369.8
		c0-1.6,1.3-2.8,2.8-2.8h13.2C291.6,366.9,292.9,368.2,292.9,369.8L292.9,369.8z"/>
</g>
</svg>
