<?xml version="1.0" encoding="utf-8"?>
<!-- Generator: Adobe Illustrator 25.2.0, SVG Export Plug-In . SVG Version: 6.00 Build 0)  -->
<svg version="1.1" id="Layer_1" xmlns="http://www.w3.org/2000/svg" xmlns:xlink="http://www.w3.org/1999/xlink" x="0px" y="0px"
	 viewBox="0 0 4280.3 1133.9" style="enable-background:new 0 0 4280.3 1133.9;" xml:space="preserve">
<style type="text/css">
	.st0{fill:none;stroke:#010101;stroke-miterlimit:11.3386;}
	.st1{fill:none;stroke:#010101;stroke-width:1.1745;stroke-linecap:round;stroke-linejoin:round;stroke-miterlimit:13.8636;}
</style>
<g>
	<path class="st0" d="M412.7,143.3"/>
	<path class="st0" d="M391.6,143.3"/>
	<path class="st0" d="M370.5,1073.4l-217.9-0.4c-4.7,0-8.5-3.8-8.5-8.5V151.8c0-4.7,3.8-8.5,8.5-8.5h217.9"/>
	<line class="st0" x1="412.7" y1="860.5" x2="412.5" y2="204"/>
	<path id="rect1412-2" class="st0" d="M398.5,709.7v-283l-0.1-2.8H167.1c-1.6,0-2.8,1.3-2.8,2.8v283c0,1.6,1.3,2.8,2.8,2.8h231.3
		L398.5,709.7z"/>
	<path class="st0" d="M412.7,860.5h-39.4c-1.6,0-2.8,1.3-2.8,2.8v210.1"/>
	<g id="layer1-3" transform="matrix(1.0410324,0,0,1.0411074,468.4321,-74.051927)">
		<path id="path1024" class="st1" d="M-204.9,1036.5c0.1,0.3,0.8,0.1,1,0.1c0.8,0,1.2,0.3,1.3,0.4c0.5,0.2,0.4,0,1.5,1
			c1.1,1.1,0.9,1.5,1.1,1.5c0.1,0,0.5-0.2,0.8-0.5c0.1-0.1,1.9-1.5,2.1-1.6c1.7-1.3,1.4-1.1,1.7-1.1l3.1,4.1
			c0.9,1.2,0.9,1.2,0.9,1.3s-0.4,0.4-3.1,2.5c0,0-2.7,2.1-3.8,3c-0.1,0.1-1.7,1.4-2.4,1.9c-0.5,0.4-0.8,0.6-2.6,2.1
			c-1,0.8-1.3,1-1.3,1.1c-0.1,0-0.6,0.5-3.5,2.8l-0.4,0.3l-3.9,3.1c-0.5,0.4-1.1,0.8-1.6,1.3c-1.9,1.5-2.3,1.8-2.4,1.9
			c-0.5,0.4-0.4,0.2-0.6,0.3c-6.6-8.6-4.5-5.9-9.4-12.2c-1-1.3-0.8-1-1-1.3l-3.7-4.8c-2.9-3.8-2.9-3.8-3-3.9l-3.6-4.6l-3.9-5.1
			l-3.7-4.8l-2.8-3.7c-0.5-0.6-6-7.8-6.1-8c-0.4-0.5-1.1-1.4-2.8-3.7c-1.7-2.2-1.5-1.9-1.7-2.2l-4.1-5.4l-2.4-3.1
			c-0.7-0.9,0.1,0.1-1.5-2c-0.4-0.5-1.1-1.4-2.4-3.1c-2-2.6-1.9-2.5-1.9-2.5c-0.8-1.1-0.7-1-0.7-1.1c0.2-0.3,0.7-0.6,3.6-2.8
			c0.2-0.1,2.3-1.7,2.3-1.7c0.7-0.5-0.2,0.1,2.5-1.9c0,0,2.4-1.8,2.6-1.9l3.7-2.7c0.2-0.2,1.7-1.3,1.8-1.3c0,0,1.9-1.4,2.4-1.8
			c2.2-1.6,1.9-1.4,2.2-1.7c-1.1-1.8-2.2-2.8-2.2-3.2c0-0.2,0.2-0.2,1.5-1.3c0.2-0.2,3.1-2.3,3.2-2.4c0.6-0.4,0.7-0.5,0.8-0.5
			c0.2,0,0.3,0.2,1.7,2.1l2.5,3.3c0.3,0.4,2.4,3.2,4.4,5.9l3.1,4.2c0.9,1.3,0.8,1.2,0.8,1.2c-0.6,0.7-4,2.9-4.5,3.5
			c0.6,0.9,0.3-0.2,1.5,2c1,1.8,0.3,1.1,0.5,2.2c0.1,0,0.6-0.4,0.6-0.4s0.5-0.9,0.9-1.3c0.7-0.8,1.6-1,1.6-1.1
			c0.1,0,1.7-0.8,3.6,0.4s2.2,3.5,1.9,4.5c-0.5,1.8-1.9,3-3.5,3.2c0.1,0.3,0.1,0.3,2.7,3.7c1.7,2.2,1.5,1.3,2.1,2.3
			c1.1,2.1,0.9,1.5,0.9,2.8c0.1-0.1,0.1,0,0.5-0.3l2.9-2.2c1.7-1.3,1.6-1.3,1.9-1.3c0.3,0.1,0.5,0.6,1.5,1.8l2.5,3.4
			c0.1,0.2,0.2,0.3,0.2,0.4c0,0.3-2.4,1.8-4.5,3.6c0.4,0.6,2.3,3.2,2.7,3.6c4.9-3.6,4.1-3.4,4.7-3.3c2,2.8,4.7,6,5.4,8.1
			c0.2,0.6,1,2.6,0,4.8c-0.9,1.9-2.4,2.9-2.9,3.3c1.5,0.2,0.4-0.3,2.7,0.9c1.4,0.7-0.1-0.1,1.4,1.3c0,0,0.5,0.4,1,1.1
			c1.4,2.4,1,1.9,1.3,3.2C-204.5,1035.7-205,1036.4-204.9,1036.5L-204.9,1036.5z"/>
	</g>
	<path class="st0" d="M412.5,193.7"/>
	<path class="st0" d="M371,193.7"/>
	<path class="st0" d="M412.5,204L371,193.7"/>
	<path id="rect1468" class="st0" d="M333.2,435.1v271.4l-0.3,2.8H178.3c-1.6,0-2.8-1.3-2.8-2.8V435.1c0-1.6,1.3-2.8,2.8-2.8h154.6
		L333.2,435.1z"/>
	<path id="rect1470" class="st0" d="M364.3,433.4v271.4c0,1.6-1.3,2.8-2.8,2.8h-13.2c-1.6,0-2.8-1.3-2.8-2.8V433.4
		c0-1.6,1.3-2.8,2.8-2.8h13.2C363,430.5,364.3,431.8,364.3,433.4L364.3,433.4z"/>
	<line class="st0" x1="371" y1="193.7" x2="370.5" y2="143.3"/>
</g>
</svg>
