<?xml version="1.0" encoding="UTF-8" standalone="no"?>
<!-- Generator: Adobe Illustrator 24.2.2, SVG Export Plug-In . SVG Version: 6.00 Build 0)  -->

<svg
   xmlns:dc="http://purl.org/dc/elements/1.1/"
   xmlns:cc="http://creativecommons.org/ns#"
   xmlns:rdf="http://www.w3.org/1999/02/22-rdf-syntax-ns#"
   xmlns:svg="http://www.w3.org/2000/svg"
   xmlns="http://www.w3.org/2000/svg"
   xmlns:sodipodi="http://sodipodi.sourceforge.net/DTD/sodipodi-0.dtd"
   xmlns:inkscape="http://www.inkscape.org/namespaces/inkscape"
   version="1.1"
   id="Layer_1"
   x="0px"
   y="0px"
   viewBox="0 0 2245.0394 3178.5826"
   xml:space="preserve"
   sodipodi:docname="T470S_PR.svg"
   width="594mm"
   height="841mm"
   inkscape:version="0.92.3 (2405546, 2018-03-11)"><metadata
   id="metadata37"><rdf:RDF><cc:Work
       rdf:about=""><dc:format>image/svg+xml</dc:format><dc:type
         rdf:resource="http://purl.org/dc/dcmitype/StillImage" /><dc:title></dc:title></cc:Work></rdf:RDF></metadata><defs
   id="defs35" /><sodipodi:namedview
   pagecolor="#ffffff"
   bordercolor="#666666"
   borderopacity="1"
   objecttolerance="10"
   gridtolerance="10"
   guidetolerance="10"
   inkscape:pageopacity="0"
   inkscape:pageshadow="2"
   inkscape:window-width="1920"
   inkscape:window-height="1017"
   id="namedview33"
   showgrid="false"
   units="mm"
   showguides="true"
   inkscape:guide-bbox="true"
   inkscape:zoom="0.35355339"
   inkscape:cx="686.37441"
   inkscape:cy="1499.3023"
   inkscape:window-x="-8"
   inkscape:window-y="-8"
   inkscape:window-maximized="1"
   inkscape:current-layer="Layer_1" />
<style
   type="text/css"
   id="style2">
	.st0{fill:none;stroke:#000000;stroke-linecap:round;stroke-linejoin:round;stroke-miterlimit:11.3386;}
</style>














<g
   id="g4628"
   style="stroke:#000000;stroke-opacity:1;stroke-width:1.33333333;stroke-miterlimit:4;stroke-dasharray:none"><path
     id="path4"
     d="m 323.61276,2107.8553 c -3.10369,-0.3866 -8.66446,-3.4796 -9.44038,-5.4127 -0.38797,-0.9021 -1.29321,-2.4485 -1.93981,-3.3506 l -1.2932,-1.8042 v -406.5917 -406.5917 l 1.55184,-1.9331 c 0.77592,-1.031 2.19845,-2.8352 2.84505,-3.8662 0.77592,-1.031 2.45708,-2.4486 3.75029,-3.0929 2.32776,-1.1599 3.10369,-1.1599 47.97785,-1.2887 55.73707,-0.1289 51.59882,-0.2578 52.50406,1.0309 0.51728,0.7733 0.77592,4.8972 0.77592,17.6555 0,9.5366 0.25864,17.2689 0.51728,18.0421 l 0.51729,1.4176 h 24.05358 24.05359 l 1.55184,-1.5464 1.55184,-1.5465 -0.25864,-15.9802 -0.25864,-15.9801 1.29321,-1.4176 1.2932,-1.4176 h 456.8888 c 251.26947,0 457.66467,0 458.44067,0 2.7157,0 2.845,1.031 2.7157,18.6865 -0.1293,12.114 0,16.6245 0.5173,17.7843 l 0.6466,1.5465 h 24.1829 24.1829 l 0.9052,-1.2887 c 0.776,-1.1599 0.9053,-3.6084 0.9053,-16.7534 0,-8.5056 -0.1293,-15.5935 -0.388,-15.9802 -0.2586,-0.2577 0.388,-1.4176 1.1639,-2.3197 l 1.5518,-1.8042 h 46.1674 c 40.2186,0 46.426,0.1289 48.2365,0.9021 1.1639,0.5155 2.5864,1.031 3.233,1.1599 1.9398,0.5155 5.0435,4.8971 5.4315,7.6034 0.1293,1.2888 0.2586,185.4471 0.1293,409.4269 l -0.1293,407.1072 -1.5519,2.062 c -0.9052,1.1598 -2.5864,2.5774 -3.8796,3.2218 -1.2932,0.6443 -2.845,1.4176 -3.621,1.9331 -1.1638,0.6443 -76.5576,0.7732 -608.19357,0.7732 -333.64651,-0.1289 -607.54701,-0.2578 -608.58157,-0.3866 z"
     class="st0"
     inkscape:connector-curvature="0"
     style="fill:none;stroke:#000000;stroke-width:1.33333333;stroke-linecap:round;stroke-linejoin:round;stroke-miterlimit:4;stroke-opacity:1;stroke-dasharray:none" /><path
     sodipodi:nodetypes="ccccccccccccccccsccsc"
     id="path10"
     d="m 392.03087,1746.1799 c 0.66161,-0.524 86.40685,-0.6551 433.75445,-0.524 l 432.82828,0.131 2.6464,1.5721 c 1.4555,0.9171 2.7788,2.0962 2.911,2.7513 0.1323,0.655 0.3971,9.4328 0.3971,19.5207 0.1322,11.66 0.3969,24.4726 0.7939,24.8656 0.2646,0.262 2.3819,0.786 4.499,1.0481 2.1171,0.262 49.621,0.5241 105.329,0.393 83.3634,0 101.7562,-0.262 102.8149,-0.786 0.6616,-0.3931 1.7202,-1.7032 2.2494,-2.7513 0.9263,-1.8342 0.9263,-25.3896 1.0587,-236.449 l 0.1323,-228.3528 -1.191,-1.5722 c -0.6616,-0.917 -2.2494,-2.2271 -3.4404,-2.8821 l -2.1171,-1.3102 H 931.24666 c -429.12315,0 -543.97942,0.131 -545.96425,0.6551 -5.55757,1.5721 -6.8808,3.4063 -6.35151,9.0398 0.26465,1.8341 0.26465,103.4989 0.13233,225.8636 -0.13233,122.3646 -0.13233,236.9813 -0.13233,237.5053"
     class="st0"
     inkscape:connector-curvature="0"
     style="fill:none;stroke:#000000;stroke-width:1.33333333;stroke-linecap:round;stroke-linejoin:round;stroke-miterlimit:4;stroke-opacity:1;stroke-dasharray:none" /><path
     id="path14"
     d="m 1523.9907,1401.5266 c 0.9101,-0.6594 2.2103,-1.3188 2.9905,-1.5826 1.9504,-0.6594 6.1111,-4.7479 7.4113,-7.2537 0.6502,-1.187 1.6904,-3.0335 2.3405,-3.8248 1.0402,-1.4507 1.1702,-2.3739 1.1702,-8.3087 0,-6.3306 -0.13,-6.8582 -1.6903,-9.3641 -3.1206,-5.0116 -6.3712,-8.4407 -10.4019,-10.5508 -3.7707,-2.1102 -4.0307,-2.1102 -9.7517,-2.1102 -5.071,0 -6.2412,0.1319 -8.7117,1.4507 -1.5603,0.7913 -3.5106,1.5827 -4.2908,1.9783 -1.0401,0.3957 -6.5011,6.99 -8.4515,10.1552 -0.26,0.3958 -0.6501,3.0335 -0.9101,5.6712 -0.5201,5.9349 0.39,11.606 2.0803,13.5843 5.071,5.803 6.7612,7.3856 8.1916,8.177 0.9101,0.5275 2.2103,1.3188 2.7304,1.8464 1.5603,1.4508 2.6005,1.5826 9.4918,1.4508 5.3309,0 6.3711,-0.2639 7.8014,-1.319 z"
     class="st0"
     inkscape:connector-curvature="0"
     style="fill:none;stroke:#000000;stroke-width:1.33333333;stroke-linecap:round;stroke-linejoin:round;stroke-miterlimit:4;stroke-opacity:1;stroke-dasharray:none" /><path
     id="path16"
     d="m 684.84417,2071.9509 c -1.72672,-0.3965 -3.45346,-0.9253 -3.85193,-1.1896 -0.79695,-0.7931 -0.79695,-203.5594 0,-204.3525 0.92977,-0.9253 370.31746,-1.0575 371.64566,-0.1322 0.9299,0.6609 0.9299,6.4769 0.9299,102.044 0,89.6191 -0.1328,101.5155 -0.9299,102.5728 l -0.7969,1.3219 H 870.66703 c -99.61911,0 -181.43962,0.1321 -181.83809,0.2643 -0.39848,0.1323 -2.25804,-0.1322 -3.98477,-0.5287 z"
     class="st0"
     inkscape:connector-curvature="0"
     style="fill:none;stroke:#000000;stroke-width:1.33333333;stroke-linecap:round;stroke-linejoin:round;stroke-miterlimit:4;stroke-opacity:1;stroke-dasharray:none" /><path
     style="opacity:1;fill:none;fill-opacity:0.12093021;stroke:#000000;stroke-width:1.33333333;stroke-miterlimit:4;stroke-dasharray:none;stroke-opacity:1"
     d="m 679.37238,1832.4163 h 372.83992 v 27.0131 H 679.37238 Z"
     id="rect4563-3" /><path
     style="opacity:1;fill:none;fill-opacity:0.12093021;stroke:#000000;stroke-width:1.33333333;stroke-miterlimit:4;stroke-dasharray:none;stroke-opacity:1"
     d="m 684.21225,1769.8495 h 365.28085 c 4.1877,0 7.5591,3.3713 7.5591,7.559 v 297.2494 c 0,4.1877 -3.3714,7.559 -7.5591,7.559 H 684.21225 c -4.18771,0 -7.55905,-3.3713 -7.55905,-7.559 v -297.2494 c 0,-4.1877 3.37134,-7.559 7.55905,-7.559 z"
     id="rect4582" /><path
     style="opacity:1;fill:none;fill-opacity:0.12093021;stroke:#000000;stroke-width:1.33333333;stroke-miterlimit:4;stroke-dasharray:none;stroke-opacity:1"
     d="m 1116.4089,1855.0172 h 32.6824 c 4.1877,0 7.5591,3.3714 7.5591,7.5591 v 32.6824 c 0,4.1877 -3.3714,7.559 -7.5591,7.559 h -32.6824 c -4.1877,0 -7.559,-3.3713 -7.559,-7.559 v -32.6824 c 0,-4.1877 3.3713,-7.5591 7.559,-7.5591 z"
     id="rect4584" /><path
     style="opacity:1;fill:none;fill-opacity:0.12093021;stroke:#000000;stroke-width:1.33333333;stroke-miterlimit:4;stroke-dasharray:none;stroke-opacity:1"
     d="m 1120.7795,1834.3571 h 25.1234 c 2.0938,0 3.7795,1.3883 3.7795,3.1128 0,1.7245 -1.6857,3.1129 -3.7795,3.1129 h -25.1234 c -2.0938,0 -3.7795,-1.3884 -3.7795,-3.1129 0,-1.7245 1.6857,-3.1128 3.7795,-3.1128 z"
     id="rect4586" /><g
     style="stroke-width:0.33886079;stroke:#000000;stroke-opacity:1;stroke-miterlimit:4;stroke-dasharray:none"
     transform="matrix(3.9346106,0,0,3.9348943,1502.8884,1635.085)"
     inkscape:label="Layer 1"
     id="layer1"><path
       id="path1024"
       d="m -11.218154,83.475673 c 0.107181,-0.0517 0.0208,-0.29473 0.0197,-0.34728 -0.005,-0.26778 0.117461,-0.43797 0.133241,-0.47142 0.0774,-0.16388 3.43e-4,-0.15867 0.357499,-0.51536 0.378511,-0.37841 0.512551,-0.30623 0.536391,-0.375 0.0143,-0.0411 -0.086,-0.1598 -0.182871,-0.28424 -0.0252,-0.0324 -0.527541,-0.66923 -0.57043,-0.72405 -0.465911,-0.59642 -0.381631,-0.48512 -0.386111,-0.59532 l 1.4579701,-1.09671 c 0.407201,-0.30661 0.41935,-0.31721 0.4536,-0.31352 0.05,0.005 0.1343,0.13326 0.896782,1.08934 0.01,0.0118 0.753837,0.94811 1.066487,1.34184 0.0241,0.0304 0.495282,0.616091 0.683361,0.85067 0.154839,0.19327 0.221559,0.27846 0.72549,0.9058 0.280429,0.35015 0.36498,0.45492 0.371592,0.4632 0.01741,0.0216 0.176958,0.22206 0.970147,1.21975 l 0.118833,0.1497 1.097859,1.37396 c 0.14478,0.181831 0.295471,0.37137 0.452729,0.567961 0.543091,0.680109 0.635751,0.7938 0.664651,0.831239 0.124169,0.1606 0.0869,0.130251 0.0922,0.213971 -3.041859,2.333819 -2.085311,1.599989 -4.304991,3.301999 -0.46754,0.35854 -0.362651,0.27793 -0.445799,0.34171 l -1.682861,1.29312 c -1.3515901,1.03868 -1.3522101,1.03788 -1.3643401,1.0472 l -1.6335,1.25559 -1.79394,1.381121 -1.70093,1.30209 -1.30121,1.002479 c -0.21189,0.16346 -2.73312,2.100607 -2.80812,2.158107 -0.16679,0.12793 -0.50527,0.38956 -1.29311,0.99449 -0.77149,0.59225 -0.68585,0.52643 -0.7715,0.59238 l -1.89932,1.46211 -1.08983,0.83626 c -0.31709,0.24267 0.0489,-0.0338 -0.7059,0.54121 -0.1649,0.12546 -0.49332,0.37835 -1.08922,0.83328 -0.91178,0.69688 -0.86896,0.66398 -0.87681,0.67001 -0.38991,0.29333 -0.33499,0.23827 -0.37694,0.25902 -0.11543,-0.084 -0.22497,-0.25074 -0.97743,-1.27519 -0.0452,-0.0621 -0.58328,-0.79855 -0.59947,-0.82029 -0.18219,-0.24528 0.0418,0.0609 -0.6597,-0.89093 -0.006,-0.008 -0.63438,-0.85602 -0.68602,-0.92618 l -0.95514,-1.29458 c -0.0555,-0.0754 -0.45003,-0.61204 -0.46239,-0.62877 -0.006,-0.008 -0.50656,-0.6846 -0.63336,-0.85567 -0.57565,-0.776167 -0.4849,-0.670857 -0.59197,-0.763747 -0.62797,0.38118 -0.97054,0.786317 -1.11936,0.763347 -0.0773,-0.0116 -0.0832,-0.0581 -0.44289,-0.546767 -0.0636,-0.0861 -0.80557,-1.08831 -0.84255,-1.139209 -0.14051,-0.194341 -0.17488,-0.239051 -0.17181,-0.27823 0.005,-0.0684 0.0737,-0.107151 0.74582,-0.609721 l 1.179031,-0.881849 c 0.1585,-0.11802 1.14319,-0.85823 2.09188,-1.569121 l 1.47507,-1.1053 c 0.44741,-0.33501 0.42635,-0.29662 0.43042,-0.29886 0.23909,0.22841 1.03333,1.41043 1.2366,1.58503 0.30737,-0.19824 -0.0745,-0.11574 0.72061,-0.546209 0.62035,-0.335981 0.37391,-0.0965 0.768,-0.183721 -0.0135,-0.0225 -0.14164,-0.22436 -0.14333,-0.22608 -0.007,-0.007 -0.30683,-0.17245 -0.44404,-0.30159 -0.27357,-0.25753 -0.3606,-0.54983 -0.37118,-0.57852 -0.007,-0.0213 -0.27027,-0.5885 0.14425,-1.25993 0.41501,-0.67242 1.22417,-0.7609 1.57553,-0.66341 0.63046,0.1751 1.07242,0.67882 1.11189,1.24993 0.0891,-0.047 0.10529,-0.0394 1.30635,-0.9566 0.76976,-0.58776 0.4661,-0.54258 0.82493,-0.73687 0.74658,-0.40409 0.54276,-0.31253 0.98334,-0.31477 -0.0278,-0.0412 -0.008,-0.0217 -0.11456,-0.16382 l -0.7629,-1.00949 c -0.46273,-0.61198 -0.47159,-0.57363 -0.4517,-0.66837 0.0195,-0.0929 0.20362,-0.18436 0.64139,-0.51421 l 1.18763,-0.894769 c 0.0656,-0.0495 0.10768,-0.079 0.13478,-0.0746 0.0888,0.014 0.62582,0.83421 1.26203,1.578229 0.20145,-0.13337 1.1289,-0.828569 1.2785,-0.959669 -1.27915,-1.72588 -1.19271,-1.4465 -1.18043,-1.67374 0.97796,-0.69971 2.1265,-1.6483 2.83932,-1.914981 0.19857,-0.0743 0.91202,-0.36098 1.70377,0.002 0.67693,0.309911 1.03006,0.854771 1.17763,1.009371 0.0647,-0.51939 -0.0972,-0.14438 0.30318,-0.95086 0.23857,-0.48058 -0.0393,0.0251 0.44271,-0.50378 0.003,-0.004 0.12872,-0.190611 0.39379,-0.348531 0.857,-0.510659 0.66494,-0.33733 1.13456,-0.44851 0.41056,-0.0971 0.66367,0.0505 0.69717,0.0343 z"
       inkscape:connector-curvature="0"
       style="fill:none;fill-opacity:1;stroke:#000000;stroke-width:0.33886079;stroke-linecap:round;stroke-linejoin:round;stroke-opacity:1;stroke-miterlimit:4;stroke-dasharray:none" /></g><path
     inkscape:connector-curvature="0"
     id="path4615"
     d="m 378.9309,1794.8979 13.09997,-48.718"
     style="fill:none;stroke:#000000;stroke-width:1.33333333;stroke-linecap:butt;stroke-linejoin:miter;stroke-opacity:1;stroke-miterlimit:4;stroke-dasharray:none" /></g></svg>