<?xml version="1.0" encoding="utf-8"?>
<!-- Generator: Adobe Illustrator 25.2.0, SVG Export Plug-In . SVG Version: 6.00 Build 0)  -->
<svg version="1.1" id="Layer_1" xmlns="http://www.w3.org/2000/svg" xmlns:xlink="http://www.w3.org/1999/xlink" x="0px" y="0px"
	 viewBox="0 0 4280.31 1133.86" style="enable-background:new 0 0 4280.31 1133.86;" xml:space="preserve">
<style type="text/css">
	.st0{fill:none;stroke:#000000;stroke-miterlimit:10;}
	.st1{fill:none;stroke:#010101;stroke-linecap:round;stroke-linejoin:round;stroke-miterlimit:11.3386;}
</style>
<g>
	<g>
		<path class="st0" d="M200.61,203.42"/>
		<path class="st0" d="M200.61,203.42"/>
		<path class="st0" d="M122.16,203.42"/>
		<path class="st0" d="M75.46,203.42h39.69"/>
		<path class="st0" d="M66.95,211.92c0-4.7,3.81-8.5,8.5-8.5"/>
		<path class="st0" d="M66.95,821.37V211.92"/>
		<path class="st0" d="M75.46,829.87c-4.7,0-8.5-3.81-8.5-8.5"/>
		<path class="st0" d="M341.92,830l-266.46-0.13"/>
		<path class="st0" d="M374.29,829.87"/>
		<path class="st0" d="M207.84,246.39"/>
		<path class="st0" d="M207.84,246.39"/>
		<path class="st0" d="M196.23,246.39"/>
		<path class="st0" d="M115.14,566.7V254.89c0-4.7,3.81-8.5,8.5-8.5l63.78-0.13"/>
		<line class="st0" x1="341.92" y1="567.04" x2="123.58" y2="566.7"/>
		<path class="st0" d="M388.35,556.9"/>
		<path class="st0" d="M341.92,567.04"/>
		<line class="st0" x1="341.92" y1="830" x2="341.92" y2="567.04"/>
		<path class="st0" d="M341.92,830"/>
		<path class="st1" d="M123.65,595.05"/>
		<path class="st1" d="M123.65,566.7"/>
		<polyline class="st1" points="122.58,566.7 115.14,595.05 115.14,566.7 		"/>
		<path class="st0" d="M14.03,181.42"/>
		<path class="st0" d="M14.03,288.26"/>
		<path class="st0" d="M14.03,288.26"/>
		<path class="st0" d="M187.43,288.26"/>
		<line class="st0" x1="187.43" y1="231.76" x2="187.43" y2="246.26"/>
		<polyline class="st0" points="187.43,231.76 115.14,231.76 115.14,203.42 		"/>
		<path class="st0" d="M187.43,231.76"/>
		<path class="st0" d="M187.43,203.42"/>
		<path class="st0" d="M187.43,203.42"/>
		<path class="st0" d="M115.14,203.42"/>
		<path class="st0" d="M283.32,786.07"/>
		<path class="st0" d="M315.7,523.23"/>
		<path class="st0" d="M315.7,786.2"/>
	</g>
	<g>
		<path class="st0" d="M564.22,211.82c0-4.7-3.81-8.5-8.5-8.5"/>
		<path class="st0" d="M564.22,701.58V211.82"/>
		<path class="st0" d="M564.22,701.58"/>
		<path class="st0" d="M119.6,203.32"/>
		<path class="st0" d="M555.72,203.32l-354.33-0.13"/>
		<path class="st0" d="M472.89,466.49"/>
		<path class="st0" d="M516.04,466.49"/>
		<line class="st0" x1="516.04" y1="701.58" x2="516.04" y2="466.49"/>
		<path class="st0" d="M516.04,701.58"/>
		<line class="st0" x1="351.63" y1="465.69" x2="201.39" y2="466.15"/>
		<path class="st0" d="M339.99,466.49"/>
		<path class="st0" d="M361.4,466.49"/>
		<path class="st0" d="M361.4,466.49"/>
		<path class="st0" d="M472.89,466.49"/>
		<path class="st0" d="M516.04,465.69v-19.84c0-4.7-3.81-8.5-8.5-8.5h-147.4c-4.7,0-8.5,3.81-8.5,8.5v19.84"/>
		<path class="st0" d="M516.04,458.69"/>
		<path class="st0" d="M351.63,465.69"/>
		<line class="st0" x1="201.39" y1="466.15" x2="201.39" y2="203.19"/>
		<path class="st0" d="M201.39,466.15"/>
		<path class="st0" d="M201.39,203.19"/>
		<g id="layer1">
			<path id="path1024" class="st1" d="M491.33,319.59c-0.1-0.05-0.85,0.39-2.08,0.1c-1.4-0.33-0.83,0.19-3.38-1.34
				c-0.79-0.47-1.16-1.03-1.17-1.04c-1.44-1.58-0.61-0.07-1.32-1.5c-1.19-2.4-0.71-1.29-0.9-2.83c-0.44,0.46-1.49,2.09-3.51,3.01
				c-2.36,1.08-4.49,0.23-5.08,0.01c-2.12-0.79-5.55-3.62-8.46-5.71c-0.04-0.68-0.29,0.16,3.52-4.99c-0.45-0.39-3.21-2.46-3.81-2.86
				c-1.9,2.22-3.5,4.66-3.76,4.7c-0.08,0.01-0.21-0.07-0.4-0.22l-3.54-2.67c-1.3-0.98-1.85-1.26-1.91-1.53
				c-0.06-0.28-0.03-0.17,1.35-1.99l2.27-3.01c0.32-0.42,0.26-0.37,0.34-0.49c-1.31-0.01-0.71,0.27-2.93-0.94
				c-1.07-0.58-0.16-0.44-2.46-2.2c-3.58-2.73-3.63-2.71-3.89-2.85c-0.12,1.7-1.44,3.2-3.31,3.73c-1.05,0.29-3.46,0.03-4.7-1.98
				c-1.24-2-0.45-3.69-0.43-3.76c0.03-0.09,0.29-0.96,1.11-1.72c0.41-0.38,1.3-0.88,1.32-0.9c0.01-0.01,0.39-0.61,0.43-0.67
				c-1.17-0.26-0.44,0.45-2.29-0.55c-2.37-1.28-1.23-1.04-2.15-1.63c-0.61,0.52-2.97,4.04-3.69,4.72c-0.01-0.01,0.05,0.11-1.28-0.89
				l-4.4-3.29c-2.83-2.12-5.76-4.33-6.24-4.68l-3.51-2.63c-2-1.5-2.21-1.61-2.22-1.82c-0.01-0.12,0.09-0.25,0.51-0.83
				c0.11-0.15,2.32-3.14,2.51-3.4c1.07-1.46,1.09-1.6,1.32-1.63c0.44-0.07,1.46,1.14,3.34,2.28c0.32-0.28,0.05,0.04,1.76-2.28
				c0.38-0.51,1.87-2.53,1.89-2.55c0.04-0.05,1.21-1.65,1.38-1.87l2.85-3.86c0.15-0.21,2.03-2.74,2.05-2.76
				c2.09-2.84,1.42-1.92,1.97-2.66c0.05-0.06,1.65-2.26,1.79-2.45c2.24-3.05,2.57-3.55,2.91-3.8c0.13,0.06-0.04-0.1,1.12,0.77
				c0.02,0.02-0.1-0.08,2.61,2c1.78,1.36,2.76,2.11,3.25,2.48c2.25,1.71,1.16,0.89,2.1,1.61l3.25,2.49l5.66,4.36
				c0.26,0.2,0,0,2.3,1.77c2.35,1.8,3.36,2.58,3.85,2.96c0.22,0.17,7.74,5.95,8.37,6.43l3.88,2.99l5.07,3.88l5.35,4.12l4.87,3.74
				c0.04,0.03,0.04,0.03,4.07,3.12l5.02,3.85c0.25,0.19-0.06-0.05,1.33,1.02c6.62,5.07,3.77,2.89,12.83,9.84
				c-0.02,0.25,0.1,0.16-0.27,0.64c-0.09,0.11-0.36,0.45-1.98,2.48c-0.47,0.59-0.92,1.15-1.35,1.69l-3.27,4.1l-0.35,0.45
				c-2.36,2.97-2.84,3.57-2.89,3.64c-0.02,0.02-0.27,0.34-1.11,1.38c-1.5,1.87-1.7,2.12-2.16,2.7c-0.56,0.7-1.97,2.45-2.04,2.54
				c-0.93,1.17-3.15,3.96-3.18,4c-2.27,2.85-2.52,3.23-2.67,3.25c-0.1,0.01-0.14-0.02-1.35-0.93l-4.35-3.27
				c0.01-0.33-0.24,0,1.15-1.77c0.13-0.16,1.63-2.06,1.7-2.16c0.29-0.37,0.59-0.72,0.55-0.85c-0.07-0.21-0.47,0.01-1.6-1.12
				c-1.06-1.06-0.83-1.05-1.07-1.54c-0.05-0.1-0.41-0.61-0.4-1.41C491.39,320.47,491.64,319.74,491.33,319.59L491.33,319.59z"/>
		</g>
		<path class="st1" d="M456.54,347.54h-45.35c-1.57,0-2.83,1.27-2.83,2.83v36.85c0,1.57,1.27,2.83,2.83,2.83h45.35
			c1.57,0,2.83-1.27,2.83-2.83v-36.85C459.37,348.81,458.1,347.54,456.54,347.54z"/>
		<g>
			<path class="st0" d="M430.57,816.1"/>
			<path class="st0" d="M430.57,816.1"/>
			<path class="st0" d="M509.03,830.1"/>
			<path class="st0" d="M555.73,830.1h-39.68"/>
			<path class="st0" d="M564.23,821.6c0,4.7-3.81,8.5-8.5,8.5"/>
			<path class="st0" d="M564.23,699.65V821.6"/>
			<path class="st0" d="M423.35,773.13"/>
			<path class="st0" d="M423.35,773.13"/>
			<path class="st0" d="M434.96,773.13"/>
			<path class="st0" d="M516.04,701.58l0.01,77.05c0,4.7-3.81,8.5-8.5,8.5l-63.78,0.13"/>
			<path class="st0" d="M516.04,698.1"/>
			<path class="st0" d="M443.76,745.26"/>
			<line class="st0" x1="443.76" y1="801.76" x2="443.76" y2="787.26"/>
			<polyline class="st0" points="443.76,801.76 516.04,801.76 516.04,830.1 			"/>
			<path class="st0" d="M443.76,801.76"/>
			<path class="st0" d="M443.76,830.1"/>
			<path class="st0" d="M443.76,830.1"/>
			<path class="st0" d="M516.04,830.1"/>
		</g>
	</g>
</g>
</svg>
