<?xml version="1.0" encoding="utf-8"?>
<!-- Generator: Adobe Illustrator 25.2.1, SVG Export Plug-In . SVG Version: 6.00 Build 0)  -->
<svg version="1.1" id="Layer_1" xmlns="http://www.w3.org/2000/svg" xmlns:xlink="http://www.w3.org/1999/xlink" x="0px" y="0px"
	 viewBox="0 0 4280.3 1133.9" style="enable-background:new 0 0 4280.3 1133.9;" xml:space="preserve">
<style type="text/css">
	.st0{fill:none;stroke:#000000;stroke-miterlimit:10;}
	.st1{fill:none;stroke:#010101;stroke-linecap:round;stroke-linejoin:round;stroke-miterlimit:11.3386;}
</style>
<g>
	<path class="st0" d="M728.8,932l0.1,104.9c0,4.7-3.8,8.5-8.5,8.5H108.2c-4.7,0-8.5-3.8-8.5-8.5V121.3c0-4.7,3.8-8.5,8.5-8.5h612.3
		c4.7,0,8.5,3.8,8.5,8.5v104.9"/>
	<path class="st0" d="M728.9,849"/>
	<line class="st0" x1="728.9" y1="277.2" x2="728.8" y2="881"/>
	<path class="st0" d="M358.6,163.5h318.9c1.6,0,2.8,1.3,2.8,2.8v825.6c0,1.6-1.3,2.8-2.8,2.8H358.6"/>
	<line class="st0" x1="358.2" y1="833.1" x2="358.6" y2="170.1"/>
	<path class="st0" d="M129.1,675.5V399.1c0-3.1,2.5-5.7,5.7-5.7h206.9c1.6,0,2.8,1.3,2.8,2.8v282c0,1.6-1.3,2.8-2.8,2.8H134.7
		C131.6,681.1,129.1,678.6,129.1,675.5z"/>
	<line class="st0" x1="109.2" y1="393.7" x2="134.7" y2="393.4"/>
	<line class="st0" x1="109.2" y1="681.3" x2="134.7" y2="681"/>
	<line class="st0" x1="333.9" y1="163.5" x2="358.6" y2="170.1"/>
	<line class="st0" x1="358.6" y1="163.5" x2="333.9" y2="163.5"/>
	<path class="st0" d="M359.2,994.7h-20.8c-3.1,0-5.7-2.5-5.7-5.7V838.8c0-3.1,2.5-5.7,5.7-5.7h19.8"/>
	<path class="st0" d="M358.2,833.1"/>
	<path class="st0" d="M351.9,1035.6v-31.2c0-1.6,1.3-2.8,2.8-2.8h14.2c1.6,0,2.8,1.3,2.8,2.8v31.2c0,1.6-1.3,2.8-2.8,2.8h-14.2
		C353.2,1038.4,351.9,1037.2,351.9,1035.6z"/>
	<path class="st0" d="M728.9,277.2h-28.3c-1.6,0-2.8-1.3-2.8-2.8V229c0-1.6,1.3-2.8,2.8-2.8h28.3"/>
	<path class="st0" d="M728.9,256.4"/>
	<path class="st0" d="M728.9,256.4"/>
	<path class="st0" d="M728.9,236.2"/>
	<path class="st0" d="M728.9,226.2"/>
	<path class="st0" d="M728.8,881h-28.3c-1.6,0-2.8,1.3-2.8,2.8v45.4c0,1.6,1.3,2.8,2.8,2.8h28.3"/>
	<path class="st0" d="M728.8,881"/>
	<path class="st0" d="M728.8,932"/>
	<g id="layer1">
		<path id="path1024" class="st1" d="M214.5,971.3c0.1,0.3,0.8,0.1,1,0.1c0.8,0,1.2,0.3,1.3,0.4c0.5,0.2,0.4,0,1.5,1
			c1.1,1.1,0.9,1.5,1.1,1.5c0.1,0,0.5-0.2,0.8-0.5c0.1-0.1,1.9-1.5,2.1-1.6c1.7-1.3,1.4-1.1,1.7-1.1l3.1,4.1
			c0.9,1.2,0.9,1.2,0.9,1.3c0,0.1-0.4,0.4-3.1,2.5c0,0-2.7,2.1-3.8,3c-0.1,0.1-1.7,1.4-2.4,1.9c-0.5,0.4-0.8,0.6-2.6,2.1
			c-1,0.8-1.3,1-1.3,1.1c-0.1,0-0.6,0.5-3.5,2.8l-0.4,0.3l-3.9,3.1c-0.5,0.4-1.1,0.8-1.6,1.3c-1.9,1.5-2.3,1.8-2.4,1.9
			c-0.5,0.4-0.4,0.2-0.6,0.3c-6.6-8.6-4.5-5.9-9.4-12.2c-1-1.3-0.8-1-1-1.3l-3.7-4.8c-2.9-3.8-2.9-3.8-3-3.9l-3.6-4.6l-3.9-5.1
			l-3.7-4.8l-2.8-3.7c-0.5-0.6-6-7.7-6.1-8c-0.4-0.5-1.1-1.4-2.8-3.7c-1.7-2.2-1.5-1.9-1.7-2.2l-4.1-5.4l-2.4-3.1
			c-0.7-0.9,0.1,0.1-1.5-2c-0.4-0.5-1.1-1.4-2.4-3.1c-2-2.6-1.9-2.5-1.9-2.5c-0.8-1.1-0.7-0.9-0.7-1.1c0.2-0.3,0.7-0.6,3.6-2.8
			c0.2-0.1,2.3-1.7,2.3-1.7c0.7-0.5-0.2,0.1,2.5-1.9c0,0,2.4-1.8,2.6-1.9l3.7-2.7c0.2-0.2,1.7-1.3,1.8-1.3c0,0,1.9-1.4,2.4-1.8
			c2.2-1.6,1.9-1.4,2.2-1.7c-1.1-1.8-2.2-2.8-2.2-3.2c0-0.2,0.2-0.2,1.5-1.3c0.2-0.2,3.1-2.3,3.2-2.4c0.6-0.4,0.7-0.5,0.8-0.5
			c0.2,0,0.3,0.2,1.7,2.1l2.5,3.3c0.3,0.4,2.4,3.2,4.4,5.9l3.1,4.2c0.9,1.3,0.8,1.2,0.8,1.2c-0.6,0.7-4,2.9-4.5,3.5
			c0.6,0.9,0.3-0.2,1.5,2c1,1.8,0.3,1.1,0.5,2.2c0.1,0,0.6-0.4,0.6-0.4c0,0,0.5-0.9,0.9-1.3c0.7-0.8,1.6-1,1.6-1.1
			c0.1,0,1.7-0.8,3.6,0.4c1.9,1.2,2.2,3.5,1.9,4.5c-0.5,1.8-1.9,3-3.5,3.2c0.1,0.3,0.1,0.3,2.7,3.7c1.7,2.2,1.5,1.3,2.1,2.3
			c1.1,2.1,0.9,1.5,0.9,2.8c0.1-0.1,0.1,0,0.5-0.3l2.9-2.2c1.7-1.3,1.6-1.3,1.9-1.3c0.3,0.1,0.5,0.6,1.5,1.8l2.5,3.4
			c0.1,0.2,0.2,0.3,0.2,0.4c0,0.3-2.4,1.8-4.5,3.6c0.4,0.6,2.3,3.2,2.7,3.6c4.9-3.6,4.1-3.4,4.7-3.3c2,2.8,4.7,6,5.4,8
			c0.2,0.6,1,2.6,0,4.8c-0.9,1.9-2.4,2.9-2.9,3.3c1.5,0.2,0.4-0.3,2.7,0.9c1.4,0.7-0.1-0.1,1.4,1.3c0,0,0.5,0.4,1,1.1
			c1.4,2.4,1,1.9,1.3,3.2C214.9,970.5,214.5,971.2,214.5,971.3L214.5,971.3z"/>
	</g>
	<path class="st1" d="M139,674.8v-275c0-1.6,1.3-2.8,2.8-2.8h189.9c1.6,0,2.8,1.3,2.8,2.8v275c0,1.6-1.3,2.8-2.8,2.8H141.8
		C140.2,677.6,139,676.3,139,674.8z"/>
</g>
</svg>
