<?xml version="1.0" encoding="utf-8"?>
<!-- Generator: Adobe Illustrator 26.0.2, SVG Export Plug-In . SVG Version: 6.00 Build 0)  -->
<svg version="1.1" id="Layer_1" xmlns="http://www.w3.org/2000/svg" xmlns:xlink="http://www.w3.org/1999/xlink" x="0px" y="0px"
	 viewBox="0 0 4280.3 1133.9" style="enable-background:new 0 0 4280.3 1133.9;" xml:space="preserve">
<style type="text/css">
	.st0{fill:none;stroke:#000000;stroke-miterlimit:10;}
	.st1{fill:none;stroke:#010101;stroke-linecap:round;stroke-linejoin:round;stroke-miterlimit:11.3386;}
</style>
<g>
	<line class="st0" x1="1158.8" y1="190.7" x2="1158.8" y2="893.7"/>
	<path class="st0" d="M1158.8,933.4v51c0,6.3-5.1,11.3-11.3,11.3H572c-6.3,0-11.3-5.1-11.3-11.3V100c0-6.3,5.1-11.3,11.3-11.3h575.4
		c6.3,0,11.3,5.1,11.3,11.3v51"/>
	<path class="st0" d="M793.2,126.2h320.3c3.1,0,5.7,2.5,5.7,5.7v820.6c0,3.1-2.5,5.7-5.7,5.7H793.2"/>
	<path class="st0" d="M793.2,357.9V137.5"/>
	<line class="st0" x1="793.2" y1="796.6" x2="793.2" y2="644.2"/>
	<path class="st0" d="M793.2,958.2"/>
	<path class="st0" d="M793.2,958.2H762c-3.1,0-5.7-2.5-5.7-5.7V802.3c0-3.1,2.5-5.7,5.7-5.7h31.2"/>
	<path class="st0" d="M793.2,958.2"/>
	<path class="st0" d="M793.2,796.6"/>
	<path class="st0" d="M587.3,635.7V366.4c0-3.1,2.5-5.7,5.7-5.7h150.2v280.6H593C589.8,641.4,587.3,638.9,587.3,635.7z"/>
	<polyline class="st0" points="793.2,644.2 577.7,644.2 577.7,357.9 793.2,357.9 	"/>
	<path class="st0" d="M793.2,644.2"/>
	<path class="st0" d="M793.2,357.9"/>
	<g>
		<line class="st0" x1="793.7" y1="137.5" x2="756.8" y2="126.2"/>
		<line class="st0" x1="756.8" y1="126.2" x2="793.7" y2="126.2"/>
	</g>
	<path class="st0" d="M1158.8,190.7H1139c-1.6,0-2.8-1.3-2.8-2.8v-34c0-1.6,1.3-2.8,2.8-2.8h19.8"/>
	<path class="st0" d="M1158.8,190.7"/>
	<path class="st0" d="M1158.8,151"/>
	<path class="st0" d="M1158.8,893.7H1139c-1.6,0-2.8,1.3-2.8,2.8v34c0,1.6,1.3,2.8,2.8,2.8h19.8"/>
	<path class="st0" d="M1158.8,893.7"/>
	<path class="st0" d="M1158.8,933.4"/>
	<circle class="st0" cx="1139.2" cy="813.6" r="17"/>
	<g id="layer1">
		<path id="path1024" class="st1" d="M682.9,922c0.2,0.4,1,0.1,1.2,0.1c0.9,0,1.5,0.4,1.6,0.4c0.5,0.3,0.5,0,1.7,1.2
			c1.3,1.3,1,1.7,1.2,1.8c0.1,0,0.5-0.3,0.9-0.6c0.1-0.1,2.2-1.8,2.4-1.9c2-1.5,1.6-1.3,2-1.3l3.6,4.8c1,1.4,1.1,1.4,1,1.5
			c0,0.2-0.4,0.4-3.6,3c0,0-3.1,2.5-4.5,3.5c-0.1,0.1-2,1.6-2.8,2.3c-0.6,0.5-0.9,0.7-3,2.4c-1.2,0.9-1.5,1.2-1.5,1.2
			c-0.1,0.1-0.7,0.6-4.1,3.2l-0.5,0.4l-4.6,3.6c-0.6,0.5-1.2,1-1.9,1.5c-2.3,1.8-2.6,2.1-2.8,2.2c-0.5,0.4-0.4,0.3-0.7,0.3
			c-7.8-10.1-5.3-6.9-11-14.3c-1.2-1.6-0.9-1.2-1.1-1.5l-4.3-5.6c-3.5-4.5-3.4-4.5-3.5-4.5l-4.2-5.4l-4.6-6l-4.3-5.6l-3.3-4.3
			c-0.5-0.7-7-9.1-7.2-9.3c-0.4-0.6-1.3-1.7-3.3-4.3s-1.7-2.3-2-2.6l-4.9-6.3l-2.8-3.6c-0.8-1.1,0.1,0.2-1.8-2.3
			c-0.4-0.5-1.3-1.6-2.8-3.6c-2.3-3-2.2-2.9-2.2-2.9c-1-1.3-0.8-1.1-0.9-1.3c0.3-0.4,0.8-0.7,4.2-3.2c0.2-0.2,2.7-1.9,2.7-2
			c0.8-0.6-0.2,0.1,3-2.2c0,0,2.8-2.1,3.1-2.3l4.3-3.2c0.3-0.2,2-1.5,2.1-1.5c0,0,2.3-1.7,2.8-2.1c2.6-1.9,2.2-1.6,2.5-2
			c-1.3-2.1-2.6-3.2-2.5-3.7c0-0.3,0.2-0.3,1.8-1.5c0.3-0.2,3.6-2.7,3.8-2.8c0.6-0.5,0.8-0.6,0.9-0.6c0.2,0,0.4,0.2,2,2.5l2.9,3.9
			c0.4,0.5,2.9,3.8,5.2,6.9l3.7,4.9c1.1,1.5,1,1.4,1,1.4c-0.8,0.8-4.7,3.4-5.3,4.1c0.7,1,0.4-0.2,1.8,2.4c1.1,2.1,0.3,1.2,0.6,2.6
			c0.1,0,0.7-0.5,0.8-0.5c0,0,0.6-1,1-1.5c0.9-0.9,1.8-1.2,1.9-1.2c0.1,0,2-0.9,4.2,0.5s2.5,4.1,2.2,5.2c-0.6,2.1-2.3,3.6-4.2,3.7
			c0.2,0.3,0.1,0.3,3.2,4.3c2,2.6,1.8,1.5,2.4,2.7c1.3,2.5,1,1.8,1,3.3c0.1-0.1,0.1,0,0.5-0.4l3.4-2.5c2-1.5,1.9-1.6,2.2-1.5
			s0.6,0.7,1.7,2.1l3,3.9c0.2,0.2,0.3,0.4,0.2,0.4c0,0.3-2.8,2.1-5.2,4.2c0.4,0.7,2.8,3.7,3.2,4.2c5.7-4.2,4.8-4,5.6-3.9
			c2.3,3.2,5.5,7.1,6.4,9.4c0.2,0.7,1.2,3,0,5.7c-1,2.2-2.8,3.4-3.4,3.9c1.7,0.2,0.5-0.3,3.2,1c1.6,0.8-0.1-0.1,1.7,1.5
			c0,0,0.6,0.4,1.2,1.3c1.7,2.8,1.1,2.2,1.5,3.8C683.3,921.1,682.8,921.9,682.9,922L682.9,922z"/>
	</g>
	<polygon class="st0" points="750.6,623.5 750.6,506.8 793.2,506.8 793.2,614.5 	"/>
	<polygon class="st0" points="750.6,390.1 750.6,506.8 793.2,506.8 793.2,399.1 	"/>
</g>
</svg>
