<?xml version="1.0" encoding="utf-8"?>
<!-- Generator: Adobe Illustrator 25.3.1, SVG Export Plug-In . SVG Version: 6.00 Build 0)  -->
<svg version="1.1" id="Layer_1" xmlns="http://www.w3.org/2000/svg" xmlns:xlink="http://www.w3.org/1999/xlink" x="0px" y="0px"
	 viewBox="0 0 4280.3 1133.9" style="enable-background:new 0 0 4280.3 1133.9;" xml:space="preserve">
<style type="text/css">
	.st0{fill:none;stroke:#000000;stroke-miterlimit:10;}
	.st1{fill:none;stroke:#010101;stroke-linecap:round;stroke-linejoin:round;stroke-miterlimit:11.3386;}
</style>
<g>
	<path class="st0" d="M222.5,1034.6c-6.3,0-11.3-5.1-11.3-11.3"/>
	<path class="st0" d="M792.3,1034.6H222.5"/>
	<path class="st0" d="M795.1,1031.8c0,1.6-1.3,2.8-2.8,2.8"/>
	<path class="st0" d="M795.1,102v929.8"/>
	<path class="st0" d="M792.3,99.2c1.6,0,2.8,1.3,2.8,2.8"/>
	<path class="st0" d="M222.5,99.2h569.8"/>
	<path class="st0" d="M211.2,110.6c0-6.3,5.1-11.3,11.3-11.3"/>
	<path class="st0" d="M211.2,1023.3V110.6"/>
	<path class="st0" d="M465.9,151.7h292.3c4.7,0,8.5,3.8,8.5,8.5v813.5c0,4.7-3.8,8.5-8.5,8.5H468.3"/>
	<path class="st0" d="M465.9,151.7"/>
	<path class="st0" d="M465.9,165.3"/>
	<line class="st0" x1="466.6" y1="382.7" x2="466.6" y2="160.2"/>
	<line class="st0" x1="469.5" y1="817.8" x2="469.5" y2="669"/>
	<circle class="st0" cx="737" cy="1008.4" r="17"/>
	<path class="st0" d="M469.5,982.2H444c-3.1,0-5.7-2.5-5.7-5.7V823.5c0-3.1,2.5-5.7,5.7-5.7h25.5"/>
	<path class="st0" d="M369.9,911.3v-22.7c0-4.7,3.8-8.5,8.5-8.5h22.7c4.7,0,8.5,3.8,8.5,8.5v22.7c0,4.7-3.8,8.5-8.5,8.5h-22.7
		C373.7,919.8,369.9,916,369.9,911.3z"/>
	<path class="st0" d="M469.5,669H228.2c-3.1,0-5.7-2.5-5.7-5.7v-275c0-3.1,2.5-5.7,5.7-5.7h238.4"/>
	<line class="st0" x1="434.5" y1="151.7" x2="465.7" y2="151.7"/>
	<path class="st0" d="M465.7,160.2"/>
	<path class="st0" d="M465.7,160.2"/>
	<path class="st0" d="M465.7,151.7"/>
	<line class="st0" x1="434.5" y1="151.7" x2="465.7" y2="160.2"/>
	<path class="st0" d="M415.4,910.6v-21.3c0-2,1.6-3.5,3.5-3.5l0,0c2,0,3.5,1.6,3.5,3.5v21.3c0,2-1.6,3.5-3.5,3.5l0,0
		C417,914.2,415.4,912.6,415.4,910.6z"/>
	<g id="layer1">
		<path id="path1024" class="st1" d="M327.5,960.5c0.1,0.3,0.9,0.1,1,0.1c0.8,0,1.3,0.3,1.4,0.4c0.5,0.2,0.5,0,1.5,1
			c1.1,1.1,0.9,1.5,1.1,1.6c0.1,0,0.5-0.2,0.8-0.5c0.1-0.1,1.9-1.5,2.1-1.7c1.7-1.3,1.4-1.1,1.7-1.1l3.2,4.2
			c0.9,1.2,0.9,1.2,0.9,1.3c0,0.1-0.4,0.4-3.2,2.6c0,0-2.7,2.2-3.9,3.1c-0.1,0.1-1.8,1.4-2.5,2c-0.6,0.4-0.8,0.6-2.6,2.1
			c-1,0.8-1.3,1.1-1.3,1.1c-0.1,0.1-0.6,0.5-3.5,2.8l-0.4,0.3l-4,3.2c-0.5,0.4-1.1,0.9-1.6,1.3c-2,1.6-2.3,1.8-2.4,1.9
			c-0.5,0.4-0.4,0.3-0.6,0.3c-6.8-8.8-4.6-6-9.6-12.5c-1-1.4-0.8-1.1-1-1.3l-3.7-4.9c-3-3.9-3-3.9-3-4l-3.6-4.7l-4-5.2l-3.8-4.9
			l-2.9-3.8c-0.5-0.6-6.1-7.9-6.2-8.1c-0.4-0.5-1.1-1.5-2.9-3.7c-1.7-2.2-1.5-2-1.7-2.2l-4.2-5.5l-2.4-3.2c-0.7-0.9,0.1,0.1-1.6-2
			c-0.4-0.5-1.1-1.4-2.4-3.2c-2-2.6-1.9-2.5-1.9-2.5c-0.8-1.1-0.7-1-0.8-1.1c0.2-0.3,0.7-0.7,3.7-2.8c0.2-0.1,2.3-1.7,2.4-1.7
			c0.7-0.5-0.2,0.1,2.6-1.9c0,0,2.5-1.8,2.7-2l3.7-2.8c0.2-0.2,1.8-1.3,1.8-1.3c0,0,2-1.5,2.5-1.8c2.2-1.7,1.9-1.4,2.2-1.7
			c-1.1-1.8-2.3-2.8-2.2-3.2c0-0.2,0.2-0.2,1.6-1.3c0.2-0.2,3.2-2.3,3.3-2.4c0.6-0.4,0.7-0.5,0.8-0.5c0.2,0,0.3,0.2,1.8,2.2l2.6,3.4
			c0.3,0.5,2.5,3.3,4.5,6.1l3.2,4.3c1,1.3,0.9,1.2,0.9,1.2c-0.7,0.7-4.1,3-4.6,3.6c0.6,0.9,0.3-0.2,1.6,2.1c1,1.8,0.3,1.1,0.5,2.2
			c0.1,0,0.6-0.4,0.7-0.4c0,0,0.5-0.9,0.9-1.3c0.7-0.8,1.6-1,1.7-1.1c0.1,0,1.7-0.8,3.6,0.4c1.9,1.2,2.2,3.5,1.9,4.6
			c-0.5,1.8-2,3.1-3.6,3.2c0.1,0.3,0.1,0.3,2.8,3.8c1.7,2.2,1.6,1.3,2.1,2.4c1.2,2.2,0.9,1.6,0.9,2.8c0.1-0.1,0.1,0,0.5-0.3l2.9-2.2
			c1.8-1.3,1.7-1.4,1.9-1.3c0.3,0.1,0.5,0.6,1.5,1.9l2.6,3.4c0.1,0.2,0.2,0.3,0.2,0.4c0,0.3-2.4,1.8-4.6,3.7
			c0.4,0.6,2.4,3.3,2.8,3.7c5-3.7,4.2-3.5,4.8-3.4c2,2.8,4.8,6.2,5.5,8.2c0.2,0.6,1,2.6,0,4.9c-0.9,2-2.5,3-2.9,3.4
			c1.5,0.2,0.4-0.3,2.8,0.9c1.4,0.7-0.1-0.1,1.5,1.3c0,0,0.6,0.4,1,1.1c1.5,2.5,1,1.9,1.3,3.3C327.9,959.7,327.5,960.4,327.5,960.5
			L327.5,960.5z"/>
	</g>
	<path class="st0" d="M243.8,660.5V391.2c0-3.1,2.5-5.7,5.7-5.7h155.9v280.6H249.5C246.4,666.1,243.8,663.6,243.8,660.5z"/>
</g>
</svg>
