<?xml version="1.0" encoding="UTF-8" standalone="no"?>
<!-- exported from Silhouette Studio Business Edition V4.1.206ssbe -->

<svg
   xmlns:dc="http://purl.org/dc/elements/1.1/"
   xmlns:cc="http://creativecommons.org/ns#"
   xmlns:rdf="http://www.w3.org/1999/02/22-rdf-syntax-ns#"
   xmlns:svg="http://www.w3.org/2000/svg"
   xmlns="http://www.w3.org/2000/svg"
   xmlns:sodipodi="http://sodipodi.sourceforge.net/DTD/sodipodi-0.dtd"
   xmlns:inkscape="http://www.inkscape.org/namespaces/inkscape"
   version="1.1"
   width="1200mm"
   height="800mm"
   viewBox="0 0 1200 800"
   id="svg32"
   sodipodi:docname="X1CARBON20A8_pr.svg"
   inkscape:version="0.92.3 (2405546, 2018-03-11)">
  <metadata
     id="metadata36">
    <rdf:RDF>
      <cc:Work
         rdf:about="">
        <dc:format>image/svg+xml</dc:format>
        <dc:type
           rdf:resource="http://purl.org/dc/dcmitype/StillImage" />
        <dc:title></dc:title>
      </cc:Work>
    </rdf:RDF>
  </metadata>
  <sodipodi:namedview
     pagecolor="#ffffff"
     bordercolor="#666666"
     borderopacity="1"
     objecttolerance="10"
     gridtolerance="10"
     guidetolerance="10"
     inkscape:pageopacity="0"
     inkscape:pageshadow="2"
     inkscape:window-width="1664"
     inkscape:window-height="887"
     id="namedview34"
     showgrid="false"
     inkscape:zoom="0.31303735"
     inkscape:cx="1679.9265"
     inkscape:cy="2395.3137"
     inkscape:window-x="0"
     inkscape:window-y="28"
     inkscape:window-maximized="1"
     inkscape:current-layer="svg32" />
  <defs
     id="defs2" />
  <g
     id="g1050"
     transform="matrix(1.0045109,0,0,1.0030405,-1.8217147,-1.103571)">
    <path
       style="fill:none;fill-opacity:1;stroke:#000000;stroke-width:0.52916658;stroke-linecap:round;stroke-linejoin:round;stroke-opacity:1"
       inkscape:connector-curvature="0"
       id="path4"
       d="m 445.80089,335.27033 c 0.27257,0.1216 0.35429,0.0875 0.64073,0.1714 0.0302,0.009 0.30309,0.1012 0.56667,0.2726 0.26789,0.1742 0.3718,0.3054 0.4755,0.427 0.0448,0.0524 0.0646,0.0736 0.1339,0.1086 0,0 0.10774,0.0179 0.20714,-0.0118 0.06,-0.0179 0.2908,-0.1202 0.56197,-0.277 l 1.05132,-0.6442 c 0.073,0.0824 0.94297,0.9594 1.34643,1.7424 0,0 0.16993,0.3541 0.18439,0.3953 0.0367,0.1043 0.0306,0.1462 0.0258,0.2444 -0.043,0.0775 -0.0815,0.1436 -0.17563,0.2375 -0.11268,0.1123 -0.28016,0.2435 -0.40236,0.3453 -0.52097,0.4341 -2.29853,1.8311 -3.5476,2.8025 l -4.41763,3.4074 c -0.063,0.0477 -0.94159,0.725 -1.28414,0.9222 0,0 -0.31996,0.2087 -0.55661,0.2014 -0.22349,-0.007 -0.38454,-0.1942 -0.58279,-0.4647 -0.0901,-0.1229 -0.20197,-0.2925 -0.28994,-0.4169 -0.2378,-0.3363 -0.55983,-0.7811 -0.80157,-1.1145 -0.28457,-0.3926 -0.66742,-0.9134 -0.95347,-1.3048 0,0 -2.71728,-3.7189 -2.86043,-3.9145 -1.22245,-1.6707 -7.30161,-10.0499 -12.30949,-16.6448 -0.49572,-0.6528 -2.35882,-3.0978 -2.47855,-3.2642 0,0 -0.34438,-0.4774 -0.38892,-0.6162 -0.0124,-0.0385 -0.0145,-0.0744 -0.007,-0.1347 0.10508,-0.1628 0.2271,-0.2303 0.31131,-0.2973 0,0 0.47413,-0.3651 0.67733,-0.5215 0.39378,-0.3032 1.45229,-1.1009 2.65349,-1.984 l 1.14957,-0.8453 c 0.50293,-0.366 1.08559,-0.7389 1.14164,-0.7794 0.16773,-0.121 1.3128,-1.0193 1.57961,-1.3354 0,0 0.20517,-0.2011 0.2125,-0.408 0.004,-0.1051 -0.0418,-0.2345 -0.13768,-0.3977 -0.21293,-0.3625 -0.5515,-0.6782 -0.41861,-0.9641 0.0727,-0.1564 0.24578,-0.2937 0.48877,-0.487 0,0 0.65977,-0.5048 0.95285,-0.7067 0,0 0.37934,-0.266 0.52301,-0.3191 0.0324,-0.012 0.0849,-0.0323 0.17103,-0.0254 0.15736,0.1366 0.18881,0.1806 0.35655,0.3799 0.36618,0.435 0.5674,0.6905 1.01754,1.2665 0,0 1.84545,2.3801 1.94271,2.5053 l 1.07724,1.3863 c 0.0534,0.0681 0.42635,0.4831 0.4454,0.7421 0.015,0.2036 -0.13719,0.375 -0.37512,0.5677 -0.20791,0.1685 -0.93238,0.6654 -1.05216,0.8264 -0.11287,0.1518 -0.13953,0.313 -0.048,0.5382 0.0121,0.0299 0.1553,0.3403 0.38516,0.5177 0.0436,0.0337 0.15549,0.1121 0.25194,0.1117 0.27619,-10e-4 0.94225,-0.4308 1.26342,-0.5574 0.19716,-0.0777 0.54927,-0.2264 1.057,-0.0751 0.0422,0.0126 0.51239,0.1707 0.79101,0.3859 0.20743,0.1602 0.35407,0.3184 0.46149,0.7419 0,0 0.11437,0.4299 0.0355,0.8457 -0.0736,0.3879 -0.34592,0.7164 -0.47622,0.8647 0,0 -0.27798,0.2949 -0.32613,0.3478 -0.0914,0.1003 -0.21585,0.2322 -0.30002,0.3386 -0.0788,0.0997 -0.17054,0.2426 -0.24362,0.3465 0,0 1.19533,1.5617 1.62983,2.0519 0,0 0.20892,0.2358 0.24579,0.2774 0.0772,0.0871 0.25602,0.3236 0.45623,0.3619 0.11283,0.0215 0.25454,-0.0483 0.4341,-0.1508 0,0 0.73864,-0.467 0.82286,-0.5153 0,0 0.27822,-0.1624 0.44423,-0.2034 0.0334,-0.008 0.0762,-0.01 0.13744,-0.001 0.12801,0.0797 0.14371,0.0893 0.26594,0.2038 0.063,0.059 0.14427,0.1406 0.20414,0.2028 0.0783,0.0813 0.42639,0.4535 0.73288,0.8586 0.21697,0.2867 0.36252,0.5005 0.31326,0.7351 -0.0476,0.2265 -0.31152,0.4695 -0.59007,0.7135 -0.0351,0.0308 -0.51542,0.4146 -0.67909,0.6422 -0.0167,0.0232 -0.0919,0.1192 -0.1201,0.2591 -0.0376,0.1863 0.0764,0.385 0.21931,0.5941 0.10591,0.1549 0.32015,0.4843 0.58259,0.4731 0.17693,-0.008 0.34862,-0.0979 0.64652,-0.2894 l 0.4553,-0.3081 c 0.0721,-0.0487 0.33176,-0.2392 0.49218,-0.3064 0.1055,-0.0442 0.15259,-0.0452 0.28105,-0.0527 0,0 0.11765,0.0252 0.214,0.0898 0.05,0.0336 0.15758,0.127 0.28991,0.2781 0.12293,0.1405 0.63408,0.8082 1.11113,1.4993 0.42559,0.6165 0.57575,0.7946 0.62785,1.5419 0.003,0.0429 0.0352,0.4873 -0.0801,0.857 -0.12252,0.3928 -0.34234,0.6475 -0.44627,0.798 l -0.21678,0.3243 c -0.0548,0.0855 -0.10967,0.1738 -0.17717,0.3653 0.003,0.1321 0.0241,0.1555 0.11677,0.2694 0,0 0.30564,0.3403 0.33999,0.3778 0.0799,0.0871 0.57991,0.6009 0.75424,0.9096 0.21434,0.3795 0.27956,0.826 0.41973,1.1723 0,0 0.0942,0.2241 0.19398,0.3487 0.042,0.0524 0.0891,0.0861 0.17217,0.1431" />
    <path
       style="fill:none;fill-opacity:1;stroke:#000000;stroke-width:0.52916658;stroke-linecap:round;stroke-linejoin:round;stroke-opacity:1"
       inkscape:connector-curvature="0"
       id="path6"
       d="m 404.08649,196.70603 c 0,0 0.0917,-143.88595 0.10187,-159.87329 l 2.48584,-2.38222 c 0,0 124.26762,-0.03388 177.52512,0.04278 0,0 23.7261,0.04001 27.9129,0.0802 5.5783,0.05352 10.0803,0.13957 11.1473,0.46558 0,0 0.1639,0.04406 0.3037,0.13324 0,0 0.4462,0.3313 0.5859,0.45275 0,0 0.46,0.40845 0.765,0.80386 0.1042,0.13516 0.1603,0.20613 0.1932,0.44773 0.0458,0.33721 0.0902,1.81285 0.1002,2.26651 0.1543,6.98418 0.0501,20.95891 -0.0899,27.94337 -0.006,0.28328 -0.0833,3.96666 -0.1808,5.66386 0,0 -0.075,1.14171 -0.0843,1.20119 -0.0122,0.07851 -0.0422,0.18059 -0.0602,0.25795 -0.142,0.07352 -0.2094,0.09918 -0.4329,0.14661 -0.1178,0.02501 -0.5918,0.11938 -1.1904,0.18899 -1.7468,0.2031 -3.8066,0.18868 -5.8496,0.37664 -0.5337,0.04911 -0.7641,0.07051 -1.5171,0.20993 0,0 -0.2342,0.03895 -0.2916,0.05398 -0.0324,0.0085 -0.1572,0.05689 -0.3094,0.12567 -0.0337,0.05031 -0.0857,0.11335 -0.1123,0.16774 -0.031,0.06339 -0.0553,0.15522 -0.0738,0.22327 -0.0173,0.06306 -0.0343,0.14867 -0.0461,0.21298 -0.0198,0.10785 -0.0945,0.59661 -0.1317,1.08867 -0.0784,1.03459 -0.131,3.45714 -0.1412,6.9157 -0.005,1.67935 -0.0449,7.18962 0.3363,8.39006 0.0901,0.28358 0.1919,0.53123 0.6277,0.768 0.2114,0.1149 0.7699,0.26938 1.5696,0.33096 0.99,0.07624 3.9707,0.09009 3.9707,0.09009 0.4388,0.0094 1.0529,0.03665 1.7536,0.08222 0,0 1.0867,0.07736 1.355,0.12298 0.1096,0.01863 0.281,0.0683 0.4297,0.11457 0.0825,0.25962 0.0806,0.36775 0.1012,0.6735 0.115,1.70954 0.1222,2.78194 0.1468,4.28095 0.1837,11.21034 0.2159,33.63518 0.2324,56.05888 0.0192,26.0322 0.0414,110.6374 -0.0716,130.1613 -0.009,1.6097 -0.0685,12.8834 -0.289,16.0954 l -0.0801,0.913 c -0.004,0.0305 -0.0605,0.4307 -0.1398,0.5963 -0.0212,0.0442 -0.0623,0.1184 -0.1704,0.1756 -0.1429,0.0756 -0.3772,0.1597 -0.7756,0.2276 -0.3636,0.062 -1.2208,0.172 -2.4493,0.2079 -0.2545,0.007 -2.5453,0.0167 -2.5453,0.0167 -1.1054,0.005 -1.7387,-0.0268 -2.4512,0.1614 0,0 -0.3151,0.0858 -0.5345,0.2282 -0.082,0.0531 -0.2807,0.191 -0.4543,0.4664 -0.3302,0.5237 -0.4303,1.2857 -0.4851,2.0061 -0.061,0.8016 -0.0706,1.6069 -0.0719,2.6789 0,0 -0.003,2.3205 -0.003,2.73 0,0 0.0185,6.4818 0.0639,7.6247 0.006,0.1463 0.0407,0.9553 0.1428,1.4576 0.0675,0.3319 0.1563,0.6295 0.4814,0.8394 0.1195,0.0772 0.3438,0.1424 0.5389,0.1825 0.4348,0.0896 1.3211,0.1827 2.2077,0.2304 2.1271,0.1143 3.737,-0.0147 5.3222,0.1833 0.3392,0.0424 0.6384,0.0753 0.9548,0.2044 0.0664,0.0271 0.158,0.0582 0.2189,0.0961 0.0569,0.0354 0.1198,0.1007 0.1712,0.1438 0.0143,0.0373 0.0889,0.2245 0.1182,0.3815 0.0127,0.0686 0.1062,0.9706 0.1326,1.388 0,0 0.0956,2.3166 0.1165,3.31 0.0701,3.3195 0.0856,18.815 0.0559,22.1352 0,0 -0.0274,4.0757 -0.0653,5.4336 -0.0649,2.3174 -0.1992,4.1539 -0.5514,5.1222 -0.0911,0.2505 -0.2364,0.5388 -0.4456,0.7689 -0.1836,0.2018 -0.4514,0.3727 -0.614,0.4802 -0.3802,0.2513 -0.4404,0.2858 -0.8475,0.3351 -0.6776,0.0821 -2.9544,0.145 -4.5466,0.1792 -10.041,0.2157 -46.8683,0.2913 -66.955,0.3117 0,0 -107.65507,0.1097 -143.54008,0.1463 l -1.59312,-1.0579 c 0,0 -0.65607,-0.4032 -1.05322,-0.8737 -0.51795,-0.6137 -0.65601,-1.3621 -0.79139,-2.1538 -0.007,-0.0384 -0.0975,-0.5772 -0.10949,-0.7717 0,0 -0.003,-0.6956 -0.003,-0.7322 0,0 -0.006,-1.3913 -0.006,-1.4645 -0.0281,-7.9345 -0.0194,-126.9528 -0.0153,-158.691" />
    <g
       transform="translate(386.08582,22.71093)"
       id="g14">
      <path
         style="fill:none;fill-opacity:1;stroke:#000000;stroke-width:0.52916658;stroke-linecap:round;stroke-linejoin:round;stroke-opacity:1"
         inkscape:connector-curvature="0"
         id="path10"
         d="m 100.1479,320.9731 c 0.05,0.0404 0.241,0.2252 0.5334,0.3586 0,0 0.3052,0.125 0.5649,0.1948 0.6321,0.1697 1.754,0.2829 1.8471,0.2921 2.0741,0.2062 10.421,0.1512 20.8427,0.1637 23.2302,0.0281 78.9861,0.0111 92.9205,-0.3149 0.219,-0.005 2.8536,-0.0429 4.3749,-0.236 0,0 0.2787,-0.0396 0.3694,-0.0633 0.1476,-0.0387 0.2084,-0.0749 0.3125,-0.1319 0.1193,-0.3113 0.118,-0.4196 0.1402,-0.6518 0.0739,-0.7717 0.1443,-3.0975 0.1859,-5.164 0.1528,-7.5855 0.2166,-27.8187 0.2413,-50.5798 0.0103,-9.4251 0.0609,-150.8019 0.006,-188.50227 -0.003,-2.03813 -0.0687,-32.61093 -0.2064,-40.76236 -0.004,-0.22838 -0.0227,-2.51571 -0.1975,-4.56399 0,0 -0.0507,-0.57577 -0.0833,-0.71626 -0.0282,-0.12175 -0.0779,-0.23792 -0.144,-0.39086 l -0.1153,-0.09721 c 0,0 -0.4026,-0.05757 -0.7344,-0.07442 0,0 -1.4065,-0.04042 -1.7581,-0.04915 0,0 -3.494,-0.08078 -5.8237,-0.11361 -10.1538,-0.14305 -37.2342,-0.28375 -67.6984,-0.18352 -1.6408,0.0054 -22.9721,0.05435 -32.816,0.20092 0,0 -6.7982,0.09089 -8.4929,0.21216 0,0 -0.3181,-0.0015 -0.5044,0.08281 -0.104,0.04708 -0.2206,0.14925 -0.3153,0.21322 l -0.076,0.11951 -0.001,0.07137 c 0.0377,0.06215 0.0701,0.13427 0.1829,0.22593 0.0643,0.05221 0.1585,0.11052 0.229,0.15406 0.0505,0.03127 0.5179,0.29301 1.0497,0.55904 0.3327,0.16643 1.6829,0.79539 2.2227,1.10055 0,0 0.55,0.31318 0.7843,0.55423 0.124,0.12752 0.3158,0.34481 0.4435,0.77064 0,0 0.1028,0.44238 0.1142,0.49154 0.0296,0.12736 0.0814,0.31921 0.1058,0.64519 0,0 0.0342,1.70991 0.0397,2.13746 0.1425,11.11428 0.148,55.57584 0.1674,74.10112" />
      <path
         style="fill:none;fill-opacity:1;stroke:#000000;stroke-width:0.52916658;stroke-linecap:round;stroke-linejoin:round;stroke-opacity:1"
         inkscape:connector-curvature="0"
         id="path12"
         d="m 108.8585,111.3282 c 0,0 -0.0949,135.9049 -0.1054,151.0054 -0.055,0.0445 -0.9324,0.7594 -1.1042,0.8839 -0.0374,0.027 -0.2077,0.149 -0.3951,0.2386 -0.2468,0.1179 -0.617,0.2387 -1.0481,0.3141 -0.3145,0.0551 -0.8259,0.0953 -1.2727,0.1097 0,0 -1.0849,0.0171 -1.6659,0.0729 0,0 -1.5818,0.1039 -2.6444,0.733 -0.5429,0.3214 -0.87088,0.7626 -0.94946,1.0318 -0.06201,0.2126 -0.15149,1.7655 -0.16965,2.208 -0.19513,4.7598 -0.19976,17.4668 -0.14828,31.7578 0.01788,4.9587 0.05173,16.8711 0.34353,19.832 0.004,0.041 0.04767,0.4946 0.13434,0.8124 0,0 0.05457,0.2761 0.17352,0.4651 0.0366,0.0581 0.0989,0.1261 0.1412,0.1802" />
    </g>
    <path
       style="fill:none;fill-opacity:1;stroke:#000000;stroke-width:0.52916658;stroke-linecap:round;stroke-linejoin:round;stroke-opacity:1"
       inkscape:connector-curvature="0"
       id="path16"
       d="m 493.41062,346.38143 v 14.372 h 6.0159 v -14.372 h -6.0159" />
    <path
       style="fill:none;fill-opacity:1;stroke:#000000;stroke-width:0.52916658;stroke-linecap:round;stroke-linejoin:round;stroke-opacity:1"
       inkscape:connector-curvature="0"
       id="path18"
       d="m 493.42572,361.09043 0.0201,1.5313" />
    <path
       style="fill:none;fill-opacity:1;stroke:#000000;stroke-width:0.52916658;stroke-linecap:round;stroke-linejoin:round;stroke-opacity:1"
       inkscape:connector-curvature="0"
       id="path20"
       d="m 493.38742,344.46453 0.0206,1.5659" />
    <path
       style="fill:none;fill-opacity:1;stroke:#000000;stroke-width:0.52916658;stroke-linecap:round;stroke-linejoin:round;stroke-opacity:1"
       inkscape:connector-curvature="0"
       id="path30"
       d="M 489.84492,34.38248 V 52.99037" />
    <path
       id="rect1012"
       d="m 403.98615,132.91434 h 90.656 v 101.65601 h -90.656 z"
       style="opacity:1;vector-effect:none;fill:none;fill-opacity:1;fill-rule:evenodd;stroke:#000000;stroke-width:0.26458332;stroke-linecap:butt;stroke-linejoin:miter;stroke-miterlimit:4;stroke-dasharray:none;stroke-dashoffset:0;stroke-opacity:1"
       inkscape:connector-curvature="0" />
    <path
       sodipodi:nodetypes="cc"
       inkscape:connector-curvature="0"
       id="path1014"
       d="m 414.17565,234.61736 -1e-5,-101.82565"
       style="fill:none;stroke:#000000;stroke-width:0.26458332px;stroke-linecap:butt;stroke-linejoin:miter;stroke-opacity:1" />
    <path
       sodipodi:nodetypes="cc"
       inkscape:connector-curvature="0"
       id="path1016"
       d="m 490.89973,234.46794 0.0747,-101.67623"
       style="fill:none;stroke:#000000;stroke-width:0.26458332px;stroke-linecap:butt;stroke-linejoin:miter;stroke-opacity:1" />
    <path
       inkscape:connector-curvature="0"
       id="path1018"
       d="m 408.87194,132.91539 5.28257,4.43737"
       style="fill:none;stroke:#000000;stroke-width:0.26458332px;stroke-linecap:butt;stroke-linejoin:miter;stroke-opacity:1" />
    <path
       inkscape:connector-curvature="0"
       id="path1018-6"
       d="m 414.12722,230.21505 -5.28257,4.43737"
       style="fill:none;stroke:#000000;stroke-width:0.26458332px;stroke-linecap:butt;stroke-linejoin:miter;stroke-opacity:1" />
  </g>
</svg>
