<?xml version="1.0" encoding="UTF-8" standalone="no"?>
<!-- Created with Inkscape (http://www.inkscape.org/) -->

<svg
   xmlns:dc="http://purl.org/dc/elements/1.1/"
   xmlns:cc="http://creativecommons.org/ns#"
   xmlns:rdf="http://www.w3.org/1999/02/22-rdf-syntax-ns#"
   xmlns:svg="http://www.w3.org/2000/svg"
   xmlns="http://www.w3.org/2000/svg"
   xmlns:sodipodi="http://sodipodi.sourceforge.net/DTD/sodipodi-0.dtd"
   xmlns:inkscape="http://www.inkscape.org/namespaces/inkscape"
   width="594mm"
   height="841mm"
   viewBox="0 0 594 841"
   version="1.1"
   id="svg8"
   inkscape:version="0.92.3 (2405546, 2018-03-11)"
   sodipodi:docname="640_G1_PR_FP.svg">
  <defs
     id="defs2" />
  <sodipodi:namedview
     id="base"
     pagecolor="#ffffff"
     bordercolor="#666666"
     borderopacity="1.0"
     inkscape:pageopacity="0.0"
     inkscape:pageshadow="2"
     inkscape:zoom="0.7"
     inkscape:cx="1211.2473"
     inkscape:cy="1039.7702"
     inkscape:document-units="mm"
     inkscape:current-layer="layer1"
     showgrid="false"
     showguides="true"
     inkscape:guide-bbox="true"
     inkscape:window-width="1920"
     inkscape:window-height="1017"
     inkscape:window-x="-8"
     inkscape:window-y="-8"
     inkscape:window-maximized="1" />
  <metadata
     id="metadata5">
    <rdf:RDF>
      <cc:Work
         rdf:about="">
        <dc:format>image/svg+xml</dc:format>
        <dc:type
           rdf:resource="http://purl.org/dc/dcmitype/StillImage" />
        <dc:title></dc:title>
      </cc:Work>
    </rdf:RDF>
  </metadata>
  <g
     inkscape:label="Layer 1"
     inkscape:groupmode="layer"
     id="layer1"
     transform="translate(0,544)">
    <g
       id="g917"
       style="stroke:#000000;stroke-opacity:1;stroke-width:0.35277778;stroke-miterlimit:4;stroke-dasharray:none">
      <path
         sodipodi:nodetypes="cssssssssc"
         inkscape:connector-curvature="0"
         id="rect815"
         d="m 189.16508,117.00579 -76.64722,0.0776 c -8.31,0.008 -15,-6.69 -15,-15 V -86.563873 c 0,-8.31 6.69,-14.999997 15,-14.999997 h 302.64722 c 8.31,0 15,6.689997 15,14.999997 V 102.08334 c 0,8.31 -6.69,15.00522 -15,15 l -123.35278,-0.0776"
         style="opacity:1;fill:none;fill-opacity:0.12558139;stroke:#000000;stroke-width:0.35277778;stroke-miterlimit:4;stroke-dasharray:none;stroke-opacity:1" />
      <path
         sodipodi:nodetypes="cssssssssc"
         inkscape:connector-curvature="0"
         id="rect817"
         d="m 189.16508,40.335654 -63.23709,0.01312 c -5.54,0.0011 -10,-4.46 -10,-10 v -92.647217 c 0,-5.54 4.46,-10 10,-10 h 275.64722 c 5.54,0 10,4.46 10,10 v 92.647217 c 0,5.54 -4.46,10.000662 -10,10 L 291.8123,40.335654"
         style="opacity:1;fill:none;fill-opacity:0.12558139;stroke:#000000;stroke-width:0.35277778;stroke-miterlimit:4;stroke-dasharray:none;stroke-opacity:1" />
      <path
         sodipodi:nodetypes="cccc"
         inkscape:connector-curvature="0"
         id="rect823"
         d="m 291.8123,40.335654 v 76.670136 m -102.64722,0 V 40.335654"
         style="opacity:1;fill:none;fill-opacity:0.12558139;stroke:#000000;stroke-width:0.35277778;stroke-miterlimit:4;stroke-dasharray:none;stroke-opacity:1" />
      <path
         id="rect825"
         d="m 159.66508,43.087334 h 10.64723 c 0.554,0 1,0.446 1,1 v 1.647222 c 0,0.554 -0.446,1 -1,1 h -10.64723 c -0.554,0 -1,-0.446 -1,-1 v -1.647222 c 0,-0.554 0.446,-1 1,-1 z"
         style="opacity:1;fill:none;fill-opacity:0.12558139;stroke:#000000;stroke-width:0.35277778;stroke-miterlimit:4;stroke-dasharray:none;stroke-opacity:1" />
      <path
         id="rect825-9"
         d="m 309.14899,42.996002 h 10.64722 c 0.554,0 1,0.446 1,1 v 1.647223 c 0,0.554 -0.446,1 -1,1 h -10.64722 c -0.554,0 -1,-0.446 -1,-1 v -1.647223 c 0,-0.554 0.446,-1 1,-1 z"
         style="opacity:1;fill:none;fill-opacity:0.12558139;stroke:#000000;stroke-width:0.35277778;stroke-miterlimit:4;stroke-dasharray:none;stroke-opacity:1" />
      <path
         id="rect842"
         d="m 390.69458,53.996002 h 15.64722 c 0.554,0 1,0.446 1,1 v 1.647222 c 0,0.554 -0.446,1 -1,1 h -15.64722 c -0.554,0 -1,-0.446 -1,-1 v -1.647222 c 0,-0.554 0.446,-1 1,-1 z"
         style="opacity:1;fill:none;fill-opacity:0.12558139;stroke:#000000;stroke-width:0.35277778;stroke-miterlimit:4;stroke-dasharray:none;stroke-opacity:1" />
      <path
         id="rect846"
         d="m 136.46629,-95.782501 h 254.64722 c 0.277,0 0.5,0.223 0.5,0.5 v 18.647222 c 0,0.277 -0.223,0.5 -0.5,0.5 H 136.46629 c -0.277,0 -0.5,-0.223 -0.5,-0.5 v -18.647222 c 0,-0.277 0.223,-0.5 0.5,-0.5 z"
         style="opacity:1;fill:none;fill-opacity:0.12558139;stroke:#000000;stroke-width:0.35277778;stroke-miterlimit:4;stroke-dasharray:none;stroke-opacity:1" />
      <path
         id="rect848"
         d="m 106.18803,-89.592888 h 18.64722 c 0.554,0 1,0.446 1,1.000001 v 6.64722 c 0,0.554 -0.446,1.000001 -1,1.000001 h -18.64722 c -0.554,0 -1,-0.446001 -1,-1.000001 v -6.64722 c 0,-0.554001 0.446,-1.000001 1,-1.000001 z"
         style="opacity:1;fill:none;fill-opacity:0.12558139;stroke:#000000;stroke-width:0.35277778;stroke-miterlimit:4;stroke-dasharray:none;stroke-opacity:1" />
      <path
         id="rect850"
         d="m 399.85761,-89.592888 h 24.64722 c 0.554,0 1,0.446 1,1.000001 v 6.647221 c 0,0.554 -0.446,1.000001 -1,1.000001 h -24.64722 c -0.554,0 -1.00001,-0.446001 -1.00001,-1.000001 v -6.647221 c 0,-0.554001 0.44601,-1.000001 1.00001,-1.000001 z"
         style="opacity:1;fill:none;fill-opacity:0.12558139;stroke:#000000;stroke-width:0.35277778;stroke-miterlimit:4;stroke-dasharray:none;stroke-opacity:1" />
      <path
         id="rect852"
         d="M 194.90178,54.317074 H 288.549 c 0.554,0 1,0.446 1,1 V 100.9643 c 0,0.554 -0.446,1 -1,1 h -93.64722 c -0.554,0 -1,-0.446 -1,-1 V 55.317074 c 0,-0.554 0.446,-1 1,-1 z"
         style="opacity:1;fill:none;fill-opacity:0.12558139;stroke:#000000;stroke-width:0.35277778;stroke-miterlimit:4;stroke-dasharray:none;stroke-opacity:1" />
      <path
         inkscape:connector-curvature="0"
         id="rect854"
         d="m 195.05296,104.05157 h 44.64722 c 0.554,0 1,0.446 1,1 v 6.64722 c 0,0.554 -0.446,1 -1,1 h -44.64722 c -0.554,0 -1,-0.446 -1,-1 v -6.64722 c 0,-0.554 0.446,-1 1,-1 z"
         style="opacity:1;fill:none;fill-opacity:0.12558139;stroke:#000000;stroke-width:0.35277778;stroke-miterlimit:4;stroke-dasharray:none;stroke-opacity:1" />
      <path
         inkscape:connector-curvature="0"
         id="rect854-5"
         d="m 243.81686,104.05157 h 44.64722 c 0.554,0 1,0.446 1,1 v 6.64722 c 0,0.554 -0.446,1 -1,1 h -44.64722 c -0.554,0 -1,-0.446 -1,-1 v -6.64722 c 0,-0.554 0.446,-1 1,-1 z"
         style="opacity:1;fill:none;fill-opacity:0.12558139;stroke:#000000;stroke-width:0.35277778;stroke-miterlimit:4;stroke-dasharray:none;stroke-opacity:1" />
      <path
         inkscape:connector-curvature="0"
         id="rect854-4"
         d="m 194.14085,42.229369 h 44.64722 c 0.554,0 1,0.446 1,1 v 6.64722 c 0,0.554 -0.446,1 -1,1 h -44.64722 c -0.554,0 -1,-0.446 -1,-1 v -6.64722 c 0,-0.554 0.446,-1 1,-1 z"
         style="opacity:1;fill:none;fill-opacity:0.12558139;stroke:#000000;stroke-width:0.35277778;stroke-miterlimit:4;stroke-dasharray:none;stroke-opacity:1" />
      <path
         inkscape:connector-curvature="0"
         id="rect854-5-3"
         d="m 243.43392,42.229369 h 44.64722 c 0.554,0 1,0.446 1,1 v 6.64722 c 0,0.554 -0.446,1 -1,1 h -44.64722 c -0.554,0 -1,-0.446 -1,-1 v -6.64722 c 0,-0.554 0.446,-1 1,-1 z"
         style="opacity:1;fill:none;fill-opacity:0.12558139;stroke:#000000;stroke-width:0.35277778;stroke-miterlimit:4;stroke-dasharray:none;stroke-opacity:1" />
    </g>
  </g>
</svg>
