<?xml version="1.0" encoding="UTF-8" standalone="no"?>
<!-- Created with Inkscape (http://www.inkscape.org/) -->

<svg
   xmlns:dc="http://purl.org/dc/elements/1.1/"
   xmlns:cc="http://creativecommons.org/ns#"
   xmlns:rdf="http://www.w3.org/1999/02/22-rdf-syntax-ns#"
   xmlns:svg="http://www.w3.org/2000/svg"
   xmlns="http://www.w3.org/2000/svg"
   xmlns:sodipodi="http://sodipodi.sourceforge.net/DTD/sodipodi-0.dtd"
   xmlns:inkscape="http://www.inkscape.org/namespaces/inkscape"
   width="594mm"
   height="841mm"
   viewBox="0 0 594 841"
   version="1.1"
   id="svg831"
   inkscape:version="0.92.3 (2405546, 2018-03-11)"
   sodipodi:docname="840_G3_HALF_PR_FP.svg">
  <defs
     id="defs825" />
  <sodipodi:namedview
     id="base"
     pagecolor="#ffffff"
     bordercolor="#666666"
     borderopacity="1.0"
     inkscape:pageopacity="0.0"
     inkscape:pageshadow="2"
     inkscape:zoom="0.7"
     inkscape:cx="1091.5822"
     inkscape:cy="1224.4449"
     inkscape:document-units="mm"
     inkscape:current-layer="g1467"
     showgrid="false"
     showguides="true"
     inkscape:guide-bbox="true"
     inkscape:window-width="1920"
     inkscape:window-height="1017"
     inkscape:window-x="-8"
     inkscape:window-y="-8"
     inkscape:window-maximized="1" />
  <metadata
     id="metadata828">
    <rdf:RDF>
      <cc:Work
         rdf:about="">
        <dc:format>image/svg+xml</dc:format>
        <dc:type
           rdf:resource="http://purl.org/dc/dcmitype/StillImage" />
        <dc:title />
      </cc:Work>
    </rdf:RDF>
  </metadata>
  <g
     inkscape:label="Layer 1"
     inkscape:groupmode="layer"
     id="layer1"
     transform="translate(0,544)">
    <g
       id="g1467"
       style="stroke:#000000;stroke-opacity:1;stroke-width:0.35277778;stroke-miterlimit:4;stroke-dasharray:none">
      <g
         id="g843"
         style="stroke:#000000;stroke-opacity:1;stroke-width:0.353;stroke-miterlimit:4;stroke-dasharray:none">
        <path
           sodipodi:nodetypes="cssssc"
           inkscape:connector-curvature="0"
           style="opacity:1;fill:none;fill-opacity:0.25116284;stroke:#000000;stroke-width:0.353;stroke-miterlimit:4;stroke-dasharray:none;stroke-opacity:1"
           d="m 466.13334,-81.933476 0.0734,63.08205 c 0.0128,10.9875668 -5.6241,15.7383736 -16,15.7383736 h -299.6472 c -10.94287,0 -15.96942,-5.5091553 -16,-15.7383736 l -0.1886,-63.084607"
           id="rect1379" />
        <path
           style="opacity:1;fill:none;fill-opacity:0.25116284;stroke:#000000;stroke-width:0.353;stroke-miterlimit:4;stroke-dasharray:none;stroke-opacity:1"
           d="m 466.13334,-81.933476 -139.27936,-0.143781 m -97.58889,-0.04998 -94.89415,0.191163"
           id="rect1381"
           inkscape:connector-curvature="0"
           sodipodi:nodetypes="cccc" />
        <path
           style="opacity:1;fill:none;fill-opacity:0.25116284;stroke:#000000;stroke-width:0.353;stroke-miterlimit:4;stroke-dasharray:none;stroke-opacity:1"
           d="m 427.7406,-74.352443 h 15.64723 c 0.554,0 1,0.446 1,1 v 1.647222 c 0,0.554 -0.446,1 -1,1 H 427.7406 c -0.554,0 -1,-0.446 -1,-1 v -1.647222 c 0,-0.554 0.446,-1 1,-1 z"
           id="rect1404"
           inkscape:connector-curvature="0" />
        <path
           style="opacity:1;fill:none;fill-opacity:0.25116284;stroke:#000000;stroke-width:0.353;stroke-miterlimit:4;stroke-dasharray:none;stroke-opacity:1"
           d="m 326.85398,-82.077257 v 65.316964 c 0,3.878001 -3.122,6.470834 -7,6.470834 h -83.58889 c -3.878,0 -7,-2.592833 -7,-6.470834 v -65.366945"
           id="rect1408"
           inkscape:connector-curvature="0"
           sodipodi:nodetypes="cssssc" />
        <path
           style="opacity:1;fill:none;fill-opacity:0.25116284;stroke:#000000;stroke-width:0.353;stroke-miterlimit:4;stroke-dasharray:none;stroke-opacity:1"
           d="m 230.78316,-20.378093 h 46.50506 v 8.647204 h -38.41133 c -4.56268,0 -8.1414,-3.515817 -8.1414,-5.911094 0,-2.39528 0.0477,-2.73611 0.0477,-2.73611 z"
           id="rect1417"
           inkscape:connector-curvature="0"
           sodipodi:nodetypes="cccssc" />
        <path
           style="opacity:1;fill:none;fill-opacity:0.25116284;stroke:#000000;stroke-width:0.353;stroke-miterlimit:4;stroke-dasharray:none;stroke-opacity:1"
           d="m 325.38079,-20.378093 h -46.50506 v 8.647204 h 38.41133 c 4.56268,0 8.1414,-3.515817 8.1414,-5.911094 0,-2.39528 -0.0477,-2.73611 -0.0477,-2.73611 z"
           id="rect1417-2"
           inkscape:connector-curvature="0"
           sodipodi:nodetypes="cccssc" />
        <path
           style="opacity:1;fill:none;fill-opacity:0.25116284;stroke:#000000;stroke-width:0.353;stroke-miterlimit:4;stroke-dasharray:none;stroke-opacity:1"
           d="m 277.46253,-76.096122 -46.64722,-0.0723 v -6.574897 c 0,-1.108 0.93195,-1.999997 2.08959,-1.999997 h 44.55763 z"
           id="rect1435"
           inkscape:connector-curvature="0"
           sodipodi:nodetypes="ccssc" />
        <path
           style="opacity:1;fill:none;fill-opacity:0.25116284;stroke:#000000;stroke-width:0.353;stroke-miterlimit:4;stroke-dasharray:none;stroke-opacity:1"
           d="m 279.05004,-76.096132 46.64722,-0.0723 v -6.574887 c 0,-1.108 -0.93195,-1.999997 -2.08959,-1.999997 h -44.55763 z"
           id="rect1435-8"
           inkscape:connector-curvature="0"
           sodipodi:nodetypes="ccssc" />
        <path
           id="rect1453"
           d="m 230.65835,-74.112133 h 94.64723 c 0.554,0 1,0.446 1,1 v 50.64719 c 0,0.554 -0.446,1 -1,1 h -94.64723 c -0.554,0 -1,-0.446 -1,-1 v -50.64719 c 0,-0.554 0.446,-1 1,-1 z"
           style="opacity:1;fill:none;fill-opacity:0.25116284;stroke:#000000;stroke-width:0.353;stroke-miterlimit:4;stroke-dasharray:none;stroke-opacity:1"
           inkscape:connector-curvature="0" />
      </g>
    </g>
  </g>
</svg>
