<?xml version="1.0" encoding="UTF-8" standalone="no"?>
<!-- exported from Silhouette Studio® Business Edition V4.2.471ssbe -->

<svg
   xmlns:dc="http://purl.org/dc/elements/1.1/"
   xmlns:cc="http://creativecommons.org/ns#"
   xmlns:rdf="http://www.w3.org/1999/02/22-rdf-syntax-ns#"
   xmlns:svg="http://www.w3.org/2000/svg"
   xmlns="http://www.w3.org/2000/svg"
   xmlns:sodipodi="http://sodipodi.sourceforge.net/DTD/sodipodi-0.dtd"
   xmlns:inkscape="http://www.inkscape.org/namespaces/inkscape"
   version="1.1"
   width="304.8mm"
   height="600mm"
   viewBox="0 0 304.8 600"
   id="svg3992"
   sodipodi:docname="840_G1_G2_PR_FULL.svg"
   inkscape:version="0.92.4 (5da689c313, 2019-01-14)">
  <metadata
     id="metadata3996">
    <rdf:RDF>
      <cc:Work
         rdf:about="">
        <dc:format>image/svg+xml</dc:format>
        <dc:type
           rdf:resource="http://purl.org/dc/dcmitype/StillImage" />
      </cc:Work>
    </rdf:RDF>
  </metadata>
  <sodipodi:namedview
     pagecolor="#ffffff"
     bordercolor="#666666"
     borderopacity="1"
     objecttolerance="10"
     gridtolerance="10"
     guidetolerance="10"
     inkscape:pageopacity="0"
     inkscape:pageshadow="2"
     inkscape:window-width="1920"
     inkscape:window-height="1078"
     id="namedview3994"
     showgrid="false"
     inkscape:zoom="0.10406944"
     inkscape:cx="575.99998"
     inkscape:cy="1133.8583"
     inkscape:window-x="0"
     inkscape:window-y="49"
     inkscape:window-maximized="1"
     inkscape:current-layer="svg3992" />
  <defs
     id="defs3972" />
  <g
     id="g4007">
    <path
       id="path3974"
       stroke-linejoin="round"
       stroke-linecap="round"
       stroke-width="0.3527778"
       stroke-opacity="1"
       stroke="#000000"
       fill-opacity="1"
       fill="none"
       d="M -87.11696 272.591 C -88.81671 272.5131 -89.04288 272.4702 -89.85008 272.0717 C -90.33411 271.8328 -91.01392 271.5081 -91.36084 271.3504 C -92.29922 270.9234 -93.10392 270.3014 -94.31054 269.0706 C -95.00497 268.3622 -95.47874 267.7426 -95.63127 267.3433 C -95.76208 267.0009 -95.92567 266.7207 -95.99483 266.7207 C -96.21364 266.7207 -96.63943 265.7036 -96.81602 264.759 C -96.90971 264.2581 -97.07662 263.5372 -97.187 263.1571 C -97.36034 262.5602 -97.38721 248.4594 -97.38425 159.6759 C -97.38219 97.42877 -97.32984 56.66461 -97.25156 56.32516 C -97.18045 56.01691 -97.01981 55.07111 -96.89456 54.22336 C -96.6742 52.73181 -96.32214 51.62851 -96.00381 51.43182 C -95.91899 51.37943 -95.75198 51.0007 -95.6326 50.59024 C -95.51324 50.17981 -95.29223 49.73233 -95.14146 49.59592 C -94.99068 49.45953 -94.70112 49.05762 -94.49799 48.70288 C -94.29485 48.34811 -93.90008 47.83176 -93.62073 47.55536 C -93.34137 47.27896 -92.97853 46.90057 -92.81439 46.7146 C -92.31998 46.1543 -91.20631 45.28009 -90.58879 44.96754 C -90.26935 44.80583 -89.87717 44.54282 -89.7173 44.38301 C -89.55745 44.22319 -89.05766 43.99036 -88.6067 43.86562 C -88.15573 43.74088 -87.69217 43.5777 -87.57654 43.50307 C -86.91728 43.07742 -86.4686 42.89998 -85.76726 42.78757 C -84.44885 42.57623 -70.76898 42.38878 -70.19679 42.5742 C -69.27785 42.87204 -69.20749 43.21129 -69.22581 47.25681 C -69.23949 50.27417 -69.20891 50.84988 -69.01955 51.13882 L -68.79716 51.47803 L -57.5773 51.47479 L -46.35742 51.47156 L -45.86687 51.04095 L -45.37633 50.61038 L -45.38748 47.30237 C -45.39893 43.91757 -45.30063 43.01019 -44.89008 42.71005 C -44.76158 42.61612 -44.33237 42.50069 -43.93628 42.45346 C -43.54021 42.40628 7.35672 42.38689 69.16805 42.41032 L 181.5522 42.45294 L 181.9612 42.91055 L 182.3701 43.36818 L 182.3698 46.97415 C 182.3694 50.44308 182.3814 50.60306 182.6851 51.18454 C 182.9726 51.73499 183.0384 51.78192 183.4213 51.71024 C 184.1012 51.58298 201.8681 51.52484 202.4908 51.64789 C 202.8621 51.72122 203.2753 51.69714 203.6821 51.57852 C 204.0339 51.47598 204.4576 51.44183 204.6555 51.50006 C 205.2851 51.68527 205.4731 51.63699 205.7754 51.21255 C 206.0595 50.81372 206.0747 50.62042 206.1003 47.08154 L 206.1271 43.36896 L 206.5851 42.91095 L 207.0433 42.45294 L 212.1915 42.4048 C 219.0851 42.3403 223.0098 42.62402 223.9662 43.25601 C 224.2532 43.44563 224.8325 43.68893 225.2538 43.79668 C 225.675 43.90443 226.2111 44.13243 226.4452 44.30333 C 226.6792 44.47423 227.1691 44.77461 227.5339 44.97089 C 227.8987 45.16711 228.2966 45.47937 228.4181 45.66479 C 228.5397 45.85025 228.856 46.10489 229.1212 46.23068 C 229.3863 46.35645 229.6987 46.6438 229.8152 46.86914 C 229.9317 47.09451 230.1535 47.34656 230.3081 47.42923 C 230.4626 47.51187 230.7558 47.84479 230.9597 48.16901 C 231.1636 48.49326 231.4361 48.83377 231.5656 48.92572 C 231.695 49.0177 231.9728 49.45908 232.1827 49.90659 C 232.3927 50.3541 232.6853 50.91278 232.833 51.14813 C 232.9806 51.38348 233.2691 52.20325 233.4742 52.96979 C 233.6792 53.7363 233.9286 54.66055 234.0286 55.02371 C 234.1629 55.51123 234.2278 57.65591 234.2769 63.22095 C 234.3213 68.26419 234.397 70.96854 234.5057 71.39447 C 234.6965 72.1423 234.6118 79.94049 234.3907 81.96783 C 234.3025 82.7778 234.2491 115.3968 234.2415 173.15 C 234.2309 254.8717 234.2096 263.1256 234.0077 263.6698 C 233.8854 263.9991 233.6378 264.7672 233.4573 265.3768 C 233.2768 265.9864 232.9984 266.6485 232.8387 266.8482 C 232.6789 267.0478 232.414 267.4605 232.2499 267.7654 C 231.8751 268.4612 230.6114 269.7949 229.8397 270.3089 C 229.5172 270.5237 229.0957 270.837 228.903 271.005 C 228.7102 271.173 228.2056 271.4216 227.7817 271.5575 C 227.3577 271.6934 226.8468 271.9195 226.6462 272.0599 C 226.4456 272.2003 225.9861 272.3813 225.625 272.4622 C 224.9866 272.6053 213.4081 272.6144 44.81313 272.6054 C 11.4939 272.6037 -4.405823 272.5564 -4.771393 272.458 C -5.067368 272.3783 -5.386917 272.3633 -5.481522 272.4245 C -5.68364 272.5554 -84.39154 272.716 -87.11696 272.591 Z" />
    <path
       id="path3976"
       stroke-linejoin="round"
       stroke-linecap="round"
       stroke-width="0.3527778"
       stroke-opacity="1"
       stroke="#000000"
       fill-opacity="1"
       fill="none"
       d="M 95.10461 263.7805 C 95.21909 263.666 95.26169 253.5347 95.26324 226.0428 C 95.26489 196.1136 95.3013 188.3981 95.44165 188.1496 C 95.53857 187.978 95.75845 187.7573 95.93015 187.6592 C 96.18109 187.5159 106.4056 187.4746 148.0311 187.4492 C 176.5149 187.4317 202.1547 187.4002 205.0082 187.3791 L 210.1964 187.3407 L 210.8881 186.8824 C 211.2686 186.6304 211.8215 186.3518 212.1168 186.2634 C 212.4958 186.1498 212.7141 185.9756 212.8591 185.6707 C 212.9721 185.4332 213.227 185.1443 213.4255 185.0287 C 213.68 184.8805 213.8843 184.535 214.1181 183.858 C 214.3005 183.3297 214.5459 182.7911 214.6635 182.6612 C 215.1571 182.1159 215.1841 181.2534 215.0922 168.9688 C 214.9718 152.8715 214.9719 100.2736 215.0922 90.79559 C 215.1838 83.59479 215.153 82.44598 214.7915 79.52502 C 214.7476 79.17044 214.6033 78.80966 214.4552 78.68427 C 214.2897 78.54419 214.1284 78.08725 214.0095 77.42166 C 213.8448 76.49997 213.7748 76.35187 213.409 76.1492 C 213.1812 76.02304 212.9723 75.79883 212.9447 75.65091 C 212.8668 75.23276 212.6556 75.04547 212.0904 74.89334 C 211.7676 74.80643 211.5126 74.62946 211.4212 74.42892 C 211.3034 74.17026 211.089 74.07095 210.3587 73.9364 C 209.0452 73.69443 -72.9911 73.69431 -73.896 73.93628 C -74.32005 74.04974 -74.58304 74.22308 -74.74388 74.49533 C -74.8723 74.71265 -75.14693 74.92706 -75.35507 74.97253 C -75.56296 75.01797 -75.80392 75.07632 -75.89055 75.10229 C -75.97717 75.12823 -76.09021 75.37405 -76.14172 75.64859 C -76.21794 76.05472 -76.31529 76.16843 -76.66426 76.25885 C -77.04832 76.35837 -77.12706 76.4769 -77.4178 77.39365 C -77.59636 77.9567 -77.85797 78.54498 -77.99919 78.70096 C -78.24693 78.97464 -78.25717 80.77713 -78.29207 130.1884 C -78.32729 180.0488 -78.32133 181.4059 -78.06494 181.9143 C -77.92012 182.2015 -77.65712 182.8981 -77.48045 183.4625 C -77.23416 184.2493 -77.05359 184.5692 -76.70619 184.8341 C -76.45705 185.0241 -76.18126 185.3505 -76.0934 185.5595 C -75.9805 185.828 -75.69872 186.0386 -75.13255 186.2778 C -74.69196 186.4639 -74.11073 186.7791 -73.84091 186.9784 L -73.35034 187.3407 L -39.64203 187.4108 C -14.4818 187.4631 -5.862289 187.522 -5.651855 187.643 C -5.496841 187.7322 -5.254349 187.933 -5.112991 188.0891 C -4.865097 188.3629 -4.856004 189.7076 -4.85582 226.007 C -4.855635 261.8489 -4.843811 263.6492 -4.60762 263.8146 C -4.265701 264.054 94.86496 264.0201 95.10461 263.7805 Z" />
    <path
       id="path3978"
       stroke-linejoin="round"
       stroke-linecap="round"
       stroke-width="0.3527778"
       stroke-opacity="1"
       stroke="#000000"
       fill-opacity="1"
       fill="none"
       d="M 211.7155 203.0261 C 211.9237 202.5202 211.9651 202.1441 211.916 201.209 C 211.8146 199.2768 212.7477 199.4613 203.0812 199.4613 L 194.8227 199.4613 L 194.4357 199.8483 C 194.0999 200.1839 194.0379 200.3799 193.9659 201.3302 C 193.8852 202.3971 193.8946 202.4409 194.3286 203.0365 L 194.7741 203.6478 L 203.1136 203.6559 L 211.4531 203.6641 L 211.7155 203.0261 Z" />
    <path
       id="path3980"
       stroke-linejoin="round"
       stroke-linecap="round"
       stroke-width="0.3527778"
       stroke-opacity="1"
       stroke="#000000"
       fill-opacity="1"
       fill="none"
       d="M -22.12869 193.24 C -21.71982 193.0924 -21.61964 192.9671 -21.48341 192.4333 C -21.34903 191.9065 -21.35966 191.722 -21.54752 191.3242 C -21.97145 190.4267 -21.96347 190.4277 -28.66855 190.3842 C -31.99924 190.3626 -35.01726 190.3941 -35.37524 190.4542 C -35.99117 190.5577 -36.03972 190.5993 -36.27814 191.2273 C -36.49602 191.8013 -36.50639 191.9719 -36.35495 192.4884 C -36.2444 192.8654 -36.05573 193.1497 -35.84358 193.259 C -35.36017 193.5078 -22.82236 193.4905 -22.12869 193.24 Z" />
    <path
       id="path3982"
       stroke-linejoin="round"
       stroke-linecap="round"
       stroke-width="0.3527778"
       stroke-opacity="1"
       stroke="#000000"
       fill-opacity="1"
       fill="none"
       d="M 126.1962 193.2901 C 126.6313 193.1693 126.7402 193.0603 126.8611 192.6253 C 126.9406 192.3391 127.006 192.0023 127.0065 191.8769 C 127.0078 191.4803 126.6071 190.6725 126.3467 190.5467 C 126.0342 190.3958 114.0994 190.3169 113.1195 190.4593 C 112.4208 190.5609 112.3956 190.581 112.148 191.2335 C 111.9309 191.8058 111.9177 191.9995 112.0572 192.5635 C 112.1975 193.131 112.2795 193.2364 112.6409 193.3134 C 113.3699 193.4688 125.6285 193.4477 126.1962 193.2901 Z" />
    <path
       id="path3984"
       stroke-linejoin="round"
       stroke-linecap="round"
       stroke-width="0.3527778"
       stroke-opacity="1"
       stroke="#000000"
       fill-opacity="1"
       fill="none"
       d="M 134.1791 69.43814 L 177.3019 69.42676 L 177.5366 68.72018 C 177.7502 68.07736 177.7632 67.22064 177.6815 59.22678 C 177.5652 47.85428 177.5647 47.83527 177.3532 47.4624 C 177.1421 47.0903 177.2126 47.10144 176.5361 47.33319 C 176.1886 47.45218 175.8161 47.48038 175.5023 47.41147 C 175.2325 47.35223 167.0962 47.30743 157.4218 47.31189 C 144.791 47.31772 139.5156 47.27423 138.7104 47.15765 C 137.1307 46.92896 88.74896 47.01782 87.13184 47.25241 C 86.29068 47.37445 70.53918 47.40442 24.06026 47.37244 C -10.01243 47.34903 -37.9847 47.3136 -38.10034 47.29373 C -38.21597 47.27386 -38.82758 47.30457 -39.45941 47.36197 C -40.30574 47.43887 -40.63048 47.52432 -40.69264 47.68637 C -40.9384 48.32654 -41.00168 68.4498 -40.75998 69.08539 C -40.65245 69.36823 -40.52579 69.41812 -39.82349 69.45465 C -39.37682 69.47784 -9.746136 69.48618 26.02251 69.47314 C 61.79116 69.46011 110.4616 69.44437 134.1791 69.43814 Z" />
    <path
       id="path3986"
       stroke-linejoin="round"
       stroke-linecap="round"
       stroke-width="0.3527778"
       stroke-opacity="1"
       stroke="#000000"
       fill-opacity="1"
       fill="none"
       d="M -60.08981 66.44127 C -58.8669 66.11839 -58.85266 66.07344 -58.83739 62.49062 C -58.8297 60.68687 -58.88292 59.78883 -59.02411 59.33788 C -59.36275 58.25639 -59.38545 58.25349 -67.6739 58.24406 C -75.6964 58.23491 -79.23605 58.3578 -79.50983 58.65483 C -79.91328 59.09261 -80.14809 60.5229 -80.14809 62.54289 C -80.14809 65.27397 -79.85696 66.34071 -79.11021 66.34618 C -78.94872 66.34737 -78.72198 66.40947 -78.60634 66.48418 C -78.27757 66.69658 -60.9043 66.65633 -60.08981 66.44127 Z" />
    <path
       id="path3988"
       stroke-linejoin="round"
       stroke-linecap="round"
       stroke-width="0.3527778"
       stroke-opacity="1"
       stroke="#000000"
       fill-opacity="1"
       fill="none"
       d="M 216.1134 66.16541 C 216.3638 66.02853 216.5689 65.81958 216.5689 65.70102 C 216.5689 65.58246 216.7323 65.12833 216.932 64.6918 C 217.2758 63.94043 217.2925 63.79715 217.2474 62.00342 C 217.2057 60.34955 217.1621 60.05521 216.9043 59.68829 C 216.7419 59.45709 216.5071 59.09933 216.3826 58.89331 C 215.9785 58.22513 215.6146 58.20761 202.9711 58.24887 L 191.2702 58.28705 L 190.6773 58.70743 C 189.8487 59.29486 189.739 59.71008 189.7333 62.28058 C 189.7261 65.51093 189.953 66.04013 191.4804 66.35538 C 191.7502 66.41104 197.3005 66.44705 203.8144 66.43542 C 214.8713 66.41562 215.6881 66.39767 216.1134 66.16541 Z" />
    <path
       id="path3990"
       stroke-linejoin="round"
       stroke-linecap="round"
       stroke-width="0.3527778"
       stroke-opacity="1"
       stroke="#000000"
       fill-opacity="1"
       fill="none"
       d="M 89.13086 253.0324 C 88.99686 252.9973 88.7446 252.996 88.57025 253.0295 C 88.3959 253.063 88.50552 253.0918 88.81384 253.0933 C 89.12213 253.0949 89.26486 253.0675 89.13086 253.0324 Z" />
  </g>
</svg>
