<?xml version="1.0" encoding="utf-8"?>
<!-- Generator: Adobe Illustrator 24.2.2, SVG Export Plug-In . SVG Version: 6.00 Build 0)  -->
<svg version="1.1" id="Layer_1" xmlns="http://www.w3.org/2000/svg" xmlns:xlink="http://www.w3.org/1999/xlink" x="0px" y="0px"
	 viewBox="0 0 864 1700.8" style="enable-background:new 0 0 864 1700.8;" xml:space="preserve">
<style type="text/css">
	.st0{fill:none;stroke:#000000;stroke-linecap:round;stroke-linejoin:round;stroke-miterlimit:11.3386;}
</style>
<g>
	<path class="st0" d="M527.9,308.8c-2.4-3.5-4.9-4.7-9.2-4.2c-3.7,0.4-3.9,0.5-6.2,3.2c-2,2.3-2,2.4-1.8,6c0.2,3.2,0.4,3.8,1.7,5.2
		c2.1,2.2,6.3,4.2,8,3.8c2.9-0.6,6.3-2.4,7.1-3.8c0.4-0.8,1.1-1.7,1.6-2.1c0.5-0.4,0.8-1.5,0.8-3
		C529.8,312.1,529.5,311.1,527.9,308.8z"/>
	<path class="st0" d="M528.2,737.3c-2.3-3.7-4.7-4.8-8.9-4.3c-3.6,0.4-3.7,0.5-6,3.3c-1.9,2.4-1.9,2.4-1.8,6.2
		c0.2,3.3,0.4,4,1.7,5.4c2.1,2.2,6.1,4.3,7.7,4c2.8-0.6,6.1-2.5,6.8-3.9c0.4-0.8,1.1-1.7,1.5-2.1c0.5-0.4,0.8-1.5,0.8-3.1
		C530.1,740.7,529.7,739.6,528.2,737.3z"/>
	<path class="st0" d="M522.4,499.1c-0.6-2.3-0.8-2.4-3.6-3.3c-2-0.6-8.9-0.7-72.4-0.7c-69.9,0-70.2,0-71.9,0.9
		c-1.2,0.6-2.1,1.5-2.9,2.9l-1.1,2l-0.1,100.3l-0.1,100.3l0.9,2.8c1.1,3.5,1.2,3.6,3.5,5l1.9,1.1l70.4,0l70.4,0l2.3-1.3
		c3.8-2.1,3.5,7.4,3.4-107.7C522.9,522.8,522.8,500.5,522.4,499.1z"/>
	<path class="st0" d="M479.9,106.2l-0.4-1.5l-2.6,0c-6.5-0.1-15.9,0-16,0.1c-1.4,2.8-1.5,3.4-1.5,5.3c0,1.1,0,12.3,0,24.9
		c0,12.5,0,23.9,0.2,25.3c0.4,4,0.5,4,11,3.9c8.2-0.1,8.8-0.2,9.2-1.1c0.4-0.8,0.5-5.4,0.5-28.1
		C480.3,116.4,480.2,107.2,479.9,106.2z"/>
	<rect x="357.5" y="55.9" class="st0" width="195.7" height="941.2"/>
	
		<rect x="506.4" y="873.3" transform="matrix(4.487172e-11 -1 1 4.487172e-11 -337.1238 1426.5184)" class="st0" width="76.5" height="17"/>
</g>
</svg>
