<?xml version="1.0" encoding="UTF-8" standalone="no"?>
<!-- exported from Silhouette Studio® Business Edition V4.2.471ssbe -->

<svg
   xmlns:dc="http://purl.org/dc/elements/1.1/"
   xmlns:cc="http://creativecommons.org/ns#"
   xmlns:rdf="http://www.w3.org/1999/02/22-rdf-syntax-ns#"
   xmlns:svg="http://www.w3.org/2000/svg"
   xmlns="http://www.w3.org/2000/svg"
   xmlns:sodipodi="http://sodipodi.sourceforge.net/DTD/sodipodi-0.dtd"
   xmlns:inkscape="http://www.inkscape.org/namespaces/inkscape"
   version="1.1"
   width="304.8mm"
   height="600mm"
   viewBox="0 0 304.8 600"
   id="svg20"
   sodipodi:docname="8460p_8470p_PR_noFP.svg"
   inkscape:version="0.92.4 (5da689c313, 2019-01-14)">
  <metadata
     id="metadata24">
    <rdf:RDF>
      <cc:Work
         rdf:about="">
        <dc:format>image/svg+xml</dc:format>
        <dc:type
           rdf:resource="http://purl.org/dc/dcmitype/StillImage" />
        <dc:title></dc:title>
      </cc:Work>
    </rdf:RDF>
  </metadata>
  <sodipodi:namedview
     pagecolor="#ffffff"
     bordercolor="#666666"
     borderopacity="1"
     objecttolerance="10"
     gridtolerance="10"
     guidetolerance="10"
     inkscape:pageopacity="0"
     inkscape:pageshadow="2"
     inkscape:window-width="1920"
     inkscape:window-height="1017"
     id="namedview22"
     showgrid="false"
     inkscape:zoom="0.25"
     inkscape:cx="729.29964"
     inkscape:cy="1943.1763"
     inkscape:window-x="-8"
     inkscape:window-y="32"
     inkscape:window-maximized="1"
     inkscape:current-layer="svg20" />
  <defs
     id="defs2" />
  <g
     id="g4808">
    <g
       transform="translate(0,107.95)"
       id="g4770">
      <path
         inkscape:connector-curvature="0"
         style="fill:none;fill-opacity:1;stroke:#000000;stroke-width:0.35037467;stroke-linecap:round;stroke-linejoin:round;stroke-opacity:1"
         d="m -88.306643,134.99603 -0.03955,-24.61751"
         id="path4726" />
      <path
         inkscape:connector-curvature="0"
         style="fill:none;fill-opacity:1;stroke:#000000;stroke-width:0.35037467;stroke-linecap:round;stroke-linejoin:round;stroke-opacity:1"
         d="m -88.346193,110.37852 c 0,0 21.721837,-0.16252 185.817704,-0.12404"
         id="path4724" />
      <path
         inkscape:connector-curvature="0"
         style="fill:none;fill-opacity:1;stroke:#000000;stroke-width:0.35037467;stroke-linecap:round;stroke-linejoin:round;stroke-opacity:1"
         d="m 97.471511,110.25448 c 183.348339,0.043 183.740859,0.0438 184.433729,0.38568"
         id="path4722" />
      <path
         inkscape:connector-curvature="0"
         style="fill:none;fill-opacity:1;stroke:#000000;stroke-width:0.35037467;stroke-linecap:round;stroke-linejoin:round;stroke-opacity:1"
         d="m 281.90524,110.64016 0.69428,0.34263"
         id="path4720" />
      <path
         inkscape:connector-curvature="0"
         style="fill:none;fill-opacity:1;stroke:#000000;stroke-width:0.35037467;stroke-linecap:round;stroke-linejoin:round;stroke-opacity:1"
         d="m 282.59952,110.98279 -0.0598,23.3127"
         id="path4718" />
      <path
         inkscape:connector-curvature="0"
         id="path6"
         d="m 282.53974,134.29549 -370.846386,0.70054"
         style="fill:none;fill-opacity:1;stroke:#000000;stroke-width:0.3561435;stroke-linecap:round;stroke-linejoin:round;stroke-opacity:1" />
      <path
         style="fill:none;fill-opacity:1;stroke:#000000;stroke-width:0.30930024;stroke-linecap:round;stroke-linejoin:round;stroke-opacity:1"
         inkscape:connector-curvature="0"
         d="m 262.39588,125.34276 c 0.31558,-0.25166 0.66839,-0.45759 0.78438,-0.45759 0.11592,0 0.27934,-0.18098 0.36322,-0.40245 0.0839,-0.22148 0.3214,-0.6042 0.52799,-0.85066 0.33258,-0.39666 0.37558,-0.5913 0.37558,-1.6956 0,-1.17325 -0.033,-1.29942 -0.55396,-2.12366 -0.30468,-0.48189 -0.6413,-0.87628 -0.74805,-0.87628 -0.10673,0 -0.41729,-0.18863 -0.69023,-0.41917 -0.4572,-0.38609 -0.59943,-0.41916 -1.80569,-0.41944 -1.2069,-2.6e-4 -1.3482,0.0326 -1.8061,0.41918 -0.27321,0.23074 -0.59231,0.41943 -0.70922,0.41943 -0.11683,0 -0.32491,0.2231 -0.46238,0.4957 -0.13772,0.27268 -0.35077,0.61107 -0.47355,0.75183 -0.56539,0.64811 -0.59461,2.69088 -0.0476,3.32402 0.15059,0.17436 0.35826,0.52139 0.46126,0.77085 0.10289,0.24952 0.23768,0.45369 0.29944,0.45369 0.0617,0 0.3783,0.18181 0.70333,0.40389 0.76803,0.52487 1.15348,0.63498 2.27933,0.65067 0.8135,0.0115 0.99989,-0.0436 1.5023,-0.44441 z"
         id="path16" />
      <path
         style="fill:none;fill-opacity:1;stroke:#000000;stroke-width:0.34134525;stroke-linecap:round;stroke-linejoin:round;stroke-opacity:1"
         inkscape:connector-curvature="0"
         d="m -60.12217,123.80946 c 0.16287,-0.20488 0.225686,-0.84208 0.225686,-2.29071 0,-1.44856 -0.06282,-2.08558 -0.225686,-2.29034 -0.205505,-0.25837 -1.136293,-0.28388 -10.39482,-0.28388 -7.577156,0 -10.279798,0.0526 -10.603642,0.20656 l -0.434507,0.20669 0.05713,2.15314 c 0.03146,1.18427 0.116917,2.24975 0.189872,2.36778 0.103842,0.16785 2.395853,0.21452 10.546414,0.21452 9.486202,0 10.433856,-0.0252 10.639551,-0.28376 z"
         id="path18" />
      <path
         style="fill:none;fill-opacity:1;stroke:#000000;stroke-width:0.30930024;stroke-linecap:round;stroke-linejoin:round;stroke-opacity:1"
         inkscape:connector-curvature="0"
         d="m 243.50563,125.42465 c 0.31558,-0.25166 0.66839,-0.45759 0.78438,-0.45759 0.11592,0 0.27934,-0.18098 0.36322,-0.40245 0.0839,-0.22148 0.3214,-0.6042 0.52799,-0.85066 0.33258,-0.39666 0.37558,-0.5913 0.37558,-1.6956 0,-1.17325 -0.033,-1.29942 -0.55396,-2.12366 -0.30468,-0.48189 -0.6413,-0.87628 -0.74805,-0.87628 -0.10673,0 -0.41729,-0.18863 -0.69023,-0.41917 -0.4572,-0.38609 -0.59943,-0.41916 -1.80569,-0.41944 -1.2069,-2.6e-4 -1.3482,0.0326 -1.8061,0.41918 -0.27321,0.23074 -0.59231,0.41943 -0.70922,0.41943 -0.11683,0 -0.32491,0.2231 -0.46238,0.4957 -0.13772,0.27268 -0.35077,0.61107 -0.47355,0.75183 -0.56539,0.64811 -0.59461,2.69088 -0.0476,3.32402 0.15059,0.17436 0.35826,0.52139 0.46126,0.77085 0.10289,0.24952 0.23768,0.45369 0.29944,0.45369 0.0617,0 0.3783,0.18181 0.70333,0.40389 0.76803,0.52487 1.15348,0.63498 2.27933,0.65067 0.8135,0.0115 0.99989,-0.0436 1.5023,-0.44441 z"
         id="path16-7" />
      <path
         style="fill:none;fill-opacity:1;stroke:#000000;stroke-width:0.30930024;stroke-linecap:round;stroke-linejoin:round;stroke-opacity:1"
         inkscape:connector-curvature="0"
         d="m 224.47848,125.33157 c 0.31558,-0.25166 0.66839,-0.45759 0.78438,-0.45759 0.11592,0 0.27934,-0.18098 0.36322,-0.40245 0.0839,-0.22148 0.3214,-0.6042 0.52799,-0.85066 0.33258,-0.39666 0.37558,-0.5913 0.37558,-1.6956 0,-1.17325 -0.033,-1.29942 -0.55396,-2.12366 -0.30468,-0.48189 -0.6413,-0.87628 -0.74805,-0.87628 -0.10673,0 -0.41729,-0.18863 -0.69023,-0.41917 -0.4572,-0.38609 -0.59943,-0.41916 -1.80569,-0.41944 -1.2069,-2.6e-4 -1.3482,0.0326 -1.8061,0.41918 -0.27321,0.23074 -0.59231,0.41943 -0.70922,0.41943 -0.11683,0 -0.32491,0.2231 -0.46238,0.4957 -0.13772,0.27268 -0.35077,0.61107 -0.47355,0.75183 -0.56539,0.64811 -0.59461,2.69088 -0.0476,3.32402 0.15059,0.17436 0.35826,0.52139 0.46126,0.77085 0.10289,0.24952 0.23768,0.45369 0.29944,0.45369 0.0617,0 0.3783,0.18181 0.70333,0.40389 0.76803,0.52487 1.15348,0.63498 2.27933,0.65067 0.8135,0.0115 0.99989,-0.0436 1.5023,-0.44441 z"
         id="path16-4" />
      <path
         style="fill:none;fill-opacity:1;stroke:#000000;stroke-width:0.30930024;stroke-linecap:round;stroke-linejoin:round;stroke-opacity:1"
         inkscape:connector-curvature="0"
         d="m 205.88148,125.45281 c 0.31558,-0.25166 0.66839,-0.45759 0.78438,-0.45759 0.11592,0 0.27934,-0.18098 0.36322,-0.40245 0.0839,-0.22148 0.3214,-0.6042 0.52799,-0.85066 0.33258,-0.39666 0.37558,-0.5913 0.37558,-1.6956 0,-1.17325 -0.033,-1.29942 -0.55396,-2.12366 -0.30468,-0.48189 -0.6413,-0.87628 -0.74805,-0.87628 -0.10673,0 -0.41729,-0.18863 -0.69023,-0.41917 -0.4572,-0.38609 -0.59943,-0.41916 -1.80569,-0.41944 -1.2069,-2.6e-4 -1.3482,0.0326 -1.8061,0.41918 -0.27321,0.23074 -0.59231,0.41943 -0.70922,0.41943 -0.11683,0 -0.32491,0.2231 -0.46238,0.4957 -0.13772,0.27268 -0.35077,0.61107 -0.47355,0.75183 -0.56539,0.64811 -0.59461,2.69088 -0.0476,3.32402 0.15059,0.17436 0.35826,0.52139 0.46126,0.77085 0.10289,0.24952 0.23768,0.45369 0.29944,0.45369 0.0617,0 0.3783,0.18181 0.70333,0.40389 0.76803,0.52487 1.15348,0.63498 2.27933,0.65067 0.8135,0.0115 0.99989,-0.0436 1.5023,-0.44441 z"
         id="path16-3" />
    </g>
    <g
       id="g4757">
      <path
         style="fill:none;fill-opacity:1;stroke:#000000;stroke-width:0.35037467;stroke-linecap:round;stroke-linejoin:round;stroke-opacity:1"
         d="m -87.002297,349.5533 c -0.306502,-0.18446 -0.736105,-0.66612 -0.954706,-1.07016"
         id="path4732" />
      <path
         style="fill:none;fill-opacity:1;stroke:#000000;stroke-width:0.35037467;stroke-linecap:round;stroke-linejoin:round;stroke-opacity:1"
         d="m -87.957003,348.48314 -0.397603,-0.73478"
         id="path4730" />
      <path
         style="fill:none;fill-opacity:1;stroke:#000000;stroke-width:0.35037467;stroke-linecap:round;stroke-linejoin:round;stroke-opacity:1"
         d="m -88.354606,347.74836 -0.273429,-84.89034"
         id="path4728" />
      <path
         style="fill:none;fill-opacity:1;stroke:#000000;stroke-width:0.35037467;stroke-linecap:round;stroke-linejoin:round;stroke-opacity:1"
         d="m 282.57572,262.9539 0.0238,84.79446"
         id="path4716" />
      <path
         style="fill:none;fill-opacity:1;stroke:#000000;stroke-width:0.35037467;stroke-linecap:round;stroke-linejoin:round;stroke-opacity:1"
         d="m 282.59952,347.74836 -0.37207,0.68526"
         id="path4714" />
      <path
         style="fill:none;fill-opacity:1;stroke:#000000;stroke-width:0.35037467;stroke-linecap:round;stroke-linejoin:round;stroke-opacity:1"
         d="m 282.22745,348.43362 c -0.2046,0.37701 -0.54468,0.83954 -0.75587,1.02795"
         id="path4712" />
      <path
         style="fill:none;fill-opacity:1;stroke:#000000;stroke-width:0.35037467;stroke-linecap:round;stroke-linejoin:round;stroke-opacity:1"
         d="m 281.47158,349.46157 c -0.37701,0.33656 -0.6607,0.34347 -16.25516,0.38815"
         id="path4710" />
      <path
         style="fill:none;fill-opacity:1;stroke:#000000;stroke-width:0.35037467;stroke-linecap:round;stroke-linejoin:round;stroke-opacity:1"
         d="m 265.21642,349.84972 c -10.61671,0.0304 -10.09476,0.18554 -10.3176,0.0678"
         id="path4708" />
      <path
         style="fill:none;fill-opacity:1;stroke:#000000;stroke-width:0.35037467;stroke-linecap:round;stroke-linejoin:round;stroke-opacity:1"
         d="m 254.89882,349.91752 -0.20559,-5.27158"
         id="path4706" />
      <path
         style="fill:none;fill-opacity:1;stroke:#000000;stroke-width:0.35037467;stroke-linecap:round;stroke-linejoin:round;stroke-opacity:1"
         d="m 254.69323,344.64594 c -0.65507,-0.15953 -10.20271,0.086 -10.20271,0.086"
         id="path4704" />
      <path
         style="fill:none;fill-opacity:1;stroke:#000000;stroke-width:0.35037467;stroke-linecap:round;stroke-linejoin:round;stroke-opacity:1"
         d="m 244.49052,344.73194 c -0.24461,1.46638 0.36677,4.13626 -0.26244,5.14307"
         id="path4702" />
      <path
         style="fill:none;fill-opacity:1;stroke:#000000;stroke-width:0.35037467;stroke-linecap:round;stroke-linejoin:round;stroke-opacity:1"
         d="m 244.22808,349.87501 c -0.26216,0.25883 -15.98505,0.0122 -145.981254,-0.0277"
         id="path4700" />
      <path
         style="fill:none;fill-opacity:1;stroke:#000000;stroke-width:0.35037467;stroke-linecap:round;stroke-linejoin:round;stroke-opacity:1"
         d="m 98.246826,349.84731 c -115.040748,-0.0354 -148.626716,0.0508 -148.811217,-0.13108"
         id="path4698" />
      <path
         style="fill:none;fill-opacity:1;stroke:#000000;stroke-width:0.35037467;stroke-linecap:round;stroke-linejoin:round;stroke-opacity:1"
         d="m -50.564391,349.71623 c -0.578469,-1.08642 0.337616,-4.50379 -0.415138,-5.04778"
         id="path4696" />
      <path
         style="fill:none;fill-opacity:1;stroke:#000000;stroke-width:0.35037467;stroke-linecap:round;stroke-linejoin:round;stroke-opacity:1"
         d="m -50.979529,344.66845 c -0.295702,-0.18406 -8.11438,-0.29033 -8.780984,-0.10804"
         id="path4694" />
      <path
         style="fill:none;fill-opacity:1;stroke:#000000;stroke-width:0.35037467;stroke-linecap:round;stroke-linejoin:round;stroke-opacity:1"
         d="m -59.760513,344.56041 c -0.429903,0.11748 -0.401778,2.85549 -0.487678,5.15581"
         id="path4692" />
      <path
         style="fill:none;fill-opacity:1;stroke:#000000;stroke-width:0.35037467;stroke-linecap:round;stroke-linejoin:round;stroke-opacity:1"
         d="m -60.248191,349.71622 c 0,0 -6.743956,0.039 -9.163373,0.17291"
         id="path4690" />
      <path
         style="fill:none;fill-opacity:1;stroke:#000000;stroke-width:0.35037467;stroke-linecap:round;stroke-linejoin:round;stroke-opacity:1"
         d="m -69.411564,349.88913 c -16.602908,-6.9e-4 -17.047711,-0.009 -17.590714,-0.33578"
         id="path4688" />
      <path
         style="fill:none;fill-opacity:1;stroke:#000000;stroke-width:0.35037467;stroke-linecap:round;stroke-linejoin:round;stroke-opacity:1"
         d="m -87.002278,349.55335 -1.5e-5,-5e-5"
         id="path4" />
      <g
         id="g4684">
        <path
           sodipodi:nodetypes="cccsc"
           style="fill:none;fill-opacity:1;stroke:#000000;stroke-width:0.3561435;stroke-linecap:round;stroke-linejoin:round;stroke-opacity:1"
           d="m -88.291962,262.89777 79.8292293,0.005 M 104.0257,263.13955 c 0,0 38.54826,-0.29596 99.33892,-0.29252 l 79.08762,0.004"
           id="path4663"
           inkscape:connector-curvature="0" />
        <path
           sodipodi:nodetypes="cccc"
           inkscape:connector-curvature="0"
           id="rect4606"
           d="m -8.237886,337.97467 -0.2248467,-75.07235 m 112.4884327,0.23678 -0.05,74.83557"
           style="fill:none;stroke:#000000;stroke-width:0.26458332;stroke-miterlimit:4;stroke-dasharray:none;stroke-opacity:1" />
        <path
           sodipodi:nodetypes="cc"
           inkscape:connector-curvature="0"
           id="rect4611"
           d="M -8.237886,337.97467 H 103.97572"
           style="fill:none;stroke:#000000;stroke-width:0.3340205;stroke-miterlimit:4;stroke-dasharray:none;stroke-opacity:1" />
      </g>
    </g>
  </g>
</svg>
