<?xml version="1.0" encoding="UTF-8" standalone="no"?>
<!-- Created with Inkscape (http://www.inkscape.org/) -->

<svg
   xmlns:dc="http://purl.org/dc/elements/1.1/"
   xmlns:cc="http://creativecommons.org/ns#"
   xmlns:rdf="http://www.w3.org/1999/02/22-rdf-syntax-ns#"
   xmlns:svg="http://www.w3.org/2000/svg"
   xmlns="http://www.w3.org/2000/svg"
   xmlns:sodipodi="http://sodipodi.sourceforge.net/DTD/sodipodi-0.dtd"
   xmlns:inkscape="http://www.inkscape.org/namespaces/inkscape"
   width="800mm"
   height="800mm"
   viewBox="0 0 800 800"
   version="1.1"
   id="svg8"
   inkscape:version="0.92.5 (2060ec1f9f, 2020-04-08)"
   sodipodi:docname="e5450_PR.svg">
  <defs
     id="defs2" />
  <sodipodi:namedview
     id="base"
     pagecolor="#ffffff"
     bordercolor="#666666"
     borderopacity="1.0"
     inkscape:pageopacity="0.0"
     inkscape:pageshadow="2"
     inkscape:zoom="0.98994949"
     inkscape:cx="1383.9404"
     inkscape:cy="2257.114"
     inkscape:document-units="mm"
     inkscape:current-layer="layer3"
     showgrid="false"
     showguides="true"
     inkscape:guide-bbox="true"
     inkscape:window-width="1848"
     inkscape:window-height="1136"
     inkscape:window-x="72"
     inkscape:window-y="27"
     inkscape:window-maximized="1">
    <sodipodi:guide
       position="375.51368,628.35065"
       orientation="1,0"
       id="guide822"
       inkscape:locked="false" />
  </sodipodi:namedview>
  <metadata
     id="metadata5">
    <rdf:RDF>
      <cc:Work
         rdf:about="">
        <dc:format>image/svg+xml</dc:format>
        <dc:type
           rdf:resource="http://purl.org/dc/dcmitype/StillImage" />
        <dc:title></dc:title>
      </cc:Work>
    </rdf:RDF>
  </metadata>
  <g
     inkscape:label="Layer 1"
     inkscape:groupmode="layer"
     id="layer1"
     transform="translate(0,503)" />
  <g
     inkscape:groupmode="layer"
     id="layer2"
     inkscape:label="Layer 2" />
  <g
     inkscape:groupmode="layer"
     id="layer3"
     inkscape:label="Layer 3">
    <g
       id="g839"
       style="fill:none">
      <path
         transform="translate(0,503.00001)"
         style="fill:none;fill-opacity:0.53921569;stroke:#000000;stroke-width:0.35277778;stroke-miterlimit:4;stroke-dasharray:none;stroke-opacity:1"
         d="m 217.8497,-407.24991 h 315.23352 c 4.986,0 9,4.014 9,9 v 202.23354 c 0,4.986 -4.014,9 -9,9 H 217.8497 c -4.986,0 -9,-4.014 -9,-9 v -202.23354 c 0,-4.986 4.014,-9 9,-9 z"
         id="rect815" />
      <path
         style="fill:none;fill-opacity:0.53921569;stroke:#000000;stroke-width:0.35277778;stroke-miterlimit:4;stroke-dasharray:none;stroke-opacity:1"
         d="m 239.94186,102.60715 h 271.19687 c 4.986,0 9,4.014 9,9 v 108.19687 c 0,4.986 -4.014,9 -9,9 H 239.94186 c -4.986,0 -9,-4.014 -9,-9 V 111.60715 c 0,-4.986 4.014,-9 9,-9 z"
         id="rect818" />
      <path
         style="fill:none;fill-opacity:0.53921569;stroke:#000000;stroke-width:0.30051172;stroke-miterlimit:4;stroke-dasharray:none;stroke-opacity:1"
         d="m 317.22595,236.08305 h 96.6995 c 1.108,0 2,0.892 2,2 v 67.19949 c 0,1.108 -0.892,2 -2,2 h -96.6995 c -1.108,0 -2,-0.892 -2,-2 v -67.19949 c 0,-1.108 0.892,-2 2,-2 z"
         id="rect820" />
      <path
         style="fill:none;fill-opacity:0.53921569;stroke:#000000;stroke-width:0.35277778;stroke-miterlimit:4;stroke-dasharray:none;stroke-opacity:1"
         d="m 536.68338,113.98351 a 5.4454613,5.4454613 0 0 1 -5.44546,5.44546 5.4454613,5.4454613 0 0 1 -5.44547,-5.44546 5.4454613,5.4454613 0 0 1 5.44547,-5.44546 5.4454613,5.4454613 0 0 1 5.44546,5.44546 z"
         id="path826" />
    </g>
  </g>
</svg>
