<?xml version="1.0" encoding="UTF-8" standalone="no"?>
<!-- exported from Silhouette Studio Business Edition V4.1.479ssbe -->

<svg
   xmlns:dc="http://purl.org/dc/elements/1.1/"
   xmlns:cc="http://creativecommons.org/ns#"
   xmlns:rdf="http://www.w3.org/1999/02/22-rdf-syntax-ns#"
   xmlns:svg="http://www.w3.org/2000/svg"
   xmlns="http://www.w3.org/2000/svg"
   xmlns:sodipodi="http://sodipodi.sourceforge.net/DTD/sodipodi-0.dtd"
   xmlns:inkscape="http://www.inkscape.org/namespaces/inkscape"
   version="1.1"
   width="1200mm"
   height="1200mm"
   viewBox="0 0 1200 1200"
   id="svg16"
   sodipodi:docname="E7440_PR_noFP.svg"
   inkscape:version="0.92.3 (2405546, 2018-03-11)">
  <metadata
     id="metadata20">
    <rdf:RDF>
      <cc:Work
         rdf:about="">
        <dc:format>image/svg+xml</dc:format>
        <dc:type
           rdf:resource="http://purl.org/dc/dcmitype/StillImage" />
      </cc:Work>
    </rdf:RDF>
  </metadata>
  <sodipodi:namedview
     pagecolor="#ffffff"
     bordercolor="#666666"
     borderopacity="1"
     objecttolerance="10"
     gridtolerance="10"
     guidetolerance="10"
     inkscape:pageopacity="0"
     inkscape:pageshadow="2"
     inkscape:window-width="1366"
     inkscape:window-height="684"
     id="namedview18"
     showgrid="false"
     inkscape:snap-bbox="true"
     inkscape:bbox-paths="true"
     inkscape:bbox-nodes="true"
     inkscape:snap-bbox-edge-midpoints="true"
     inkscape:snap-bbox-midpoints="true"
     inkscape:zoom="0.20813888"
     inkscape:cx="1866.3742"
     inkscape:cy="3903.2098"
     inkscape:window-x="0"
     inkscape:window-y="28"
     inkscape:window-maximized="1"
     inkscape:current-layer="svg16" />
  <defs
     id="defs2" />
  <g
     id="g847-3-3"
     transform="rotate(180,510.77922,180.66208)">
    <path
       id="path4-6-6-7-6-6"
       d="m 1124.0645,338.12062 c -0.087,1.06179 -0.1925,1.43809 -0.7321,2.60609 -0.8414,1.82149 -2.2416,3.22438 -4.1834,4.19148 -1.0374,0.5166 -1.1711,0.5607 -2.0402,0.6727 -0.8017,0.1034 -14.9045,0.12 -102.2021,0.1206 -92.76374,5e-4 -101.34583,-0.0107 -102.14801,-0.1347 -0.53979,-0.0834 -0.98366,-0.2021 -1.15708,-0.3096 -0.15477,-0.0959 -0.54775,-0.3094 -0.87332,-0.4744 -1.25068,-0.6341 -2.23465,-1.46479 -3.10867,-2.62439 -0.61628,-0.8177 -1.35901,-2.39989 -1.51872,-3.23559 -0.16596,-0.86799 -0.1573,-315.510412 0.009,-316.471508 0.0638,-0.369199 0.19911,-0.803197 0.30088,-0.964596 0.10167,-0.1616 0.23669,-0.425899 0.29997,-0.587298 0.2507,-0.639497 0.53768,-1.124495 1.07173,-1.810893 1.02679,-1.319894 1.92178,-2.078491 2.84357,-2.41009 0.31559,-0.113599 0.72217,-0.308399 0.90355,-0.433098 0.38855,-0.267099 0.6722,-0.337699 1.86232,-0.462898 0.64761,-0.0681 28.17266,-0.0911 101.77118,-0.0848 84.6761,0.007 101.043,0.027 101.8761,0.1232 0.943,0.108699 1.0439,0.139799 2.0205,0.622297 0.5654,0.279299 1.1933,0.644998 1.3953,0.812497 0.2022,0.167499 0.5304,0.415798 0.7294,0.551598 0.199,0.135899 0.5101,0.463598 0.6911,0.728197 0.1811,0.264399 0.5239,0.674797 0.7617,0.912196 0.2379,0.237199 0.4325,0.487498 0.4325,0.555998 0,0.0686 0.152,0.439698 0.3378,0.824696 0.1859,0.384999 0.4238,1.058896 0.5285,1.497094 l 0.1905,0.796897 V 180.24906 c 0,86.41415 -0.028,157.45636 -0.062,157.87156 z"
       inkscape:connector-curvature="0"
       style="fill:none;fill-opacity:1;stroke:#000000;stroke-width:0.35412246;stroke-linecap:round;stroke-linejoin:round;stroke-opacity:1" />
    <path
       id="path6-7-0-9-7-0"
       d="m 1117.9316,150.92238 c -0.1054,-0.2586 -0.3086,-0.6456 -0.4517,-0.8598 -0.2202,-0.3299 -0.3293,-0.4096 -0.7112,-0.5197 -0.2481,-0.0716 -0.5574,-0.21309 -0.6875,-0.31459 l -0.2365,-0.1847 h -30.1009 -30.101 l -0.3369,0.1889 c -0.1853,0.1038 -0.3891,0.18879 -0.4528,0.18879 -0.1383,0 -1.1126,0.9692 -1.1126,1.1069 0,0.0528 -0.067,0.1691 -0.148,0.2582 -0.1405,0.1541 -0.1492,2.37909 -0.1702,43.86872 l -0.022,43.70642 0.208,0.4508 c 0.3558,0.771 1.4024,1.65079 2.1227,1.78439 0.2531,0.0468 12.2235,0.072 30.2222,0.0635 27.6199,-0.0131 29.8287,-0.0243 30.1537,-0.1541 1.0039,-0.40099 1.8493,-1.38649 2.0023,-2.33449 0.019,-0.1153 0.03,-19.68782 0.024,-43.49442 l -0.01,-43.28472 z"
       inkscape:connector-curvature="0"
       style="fill:none;fill-opacity:1;stroke:#000000;stroke-width:0.35412246;stroke-linecap:round;stroke-linejoin:round;stroke-opacity:1" />
    <path
       id="path10-3-2-0-5-6"
       d="m 914.04686,272.48058 -0.0213,-8.34656 -0.2894,-0.5296 c -0.35831,-0.6557 -0.55279,-0.8105 -1.30237,-1.0364 -0.53194,-0.16029 -0.71755,-0.17309 -1.81567,-0.1261 l -1.22308,0.0524 -0.55934,0.4011 c -0.41162,0.295 -0.61517,0.5116 -0.77065,0.8198 l -0.2114,0.4188 v 15.89623 c 0,14.98644 0.008,15.91164 0.14812,16.16494 0.45092,0.81829 1.09803,1.11099 2.59992,1.17589 0.90174,0.0391 1.16181,0.0195 1.77013,-0.1332 1.27648,-0.3202 1.58935,-0.72149 1.68387,-2.15949 0.0299,-0.4563 0.0449,-3.84948 0.0333,-7.54037 -0.0116,-3.69088 -0.0306,-10.46675 -0.0422,-15.05744 z"
       inkscape:connector-curvature="0"
       style="fill:none;fill-opacity:1;stroke:#000000;stroke-width:0.35412246;stroke-linecap:round;stroke-linejoin:round;stroke-opacity:1" />
    <path
       id="path12-5-6-2-3-2"
       d="m 913.89662,65.590626 c -0.21241,-0.682497 -0.5014,-1.031796 -1.05389,-1.274295 -0.91958,-0.403498 -2.74301,-0.499598 -3.73311,-0.196999 -0.73296,0.224299 -1.18469,0.451198 -1.2915,0.649197 -0.046,0.0851 -0.16767,0.434099 -0.27065,0.775697 -0.18067,0.599498 -0.18823,0.770997 -0.21826,4.98298 -0.0171,2.39899 0.003,5.437678 0.044,6.752573 0.067,2.128591 0.095,2.44159 0.25503,2.852688 0.41505,1.066196 0.92955,1.286295 3.01547,1.290195 2.04743,0.004 2.56868,-0.200599 3.08893,-1.212495 0.0951,-0.1852 0.20495,-0.552198 0.24385,-0.815597 0.0389,-0.263299 0.0754,-3.353286 0.0811,-6.866272 0.0101,-6.193175 0.005,-6.404174 -0.16102,-6.937672 z"
       inkscape:connector-curvature="0"
       style="fill:none;fill-opacity:1;stroke:#000000;stroke-width:0.35412246;stroke-linecap:round;stroke-linejoin:round;stroke-opacity:1" />
    <path
       id="path14-6-1-3-5-6"
       d="m 913.80422,96.363901 c -0.14782,-0.529198 -0.3951,-0.797297 -0.99676,-1.080096 -0.53244,-0.250299 -0.60459,-0.261999 -1.61414,-0.260799 -1.29311,0.002 -1.77194,0.121 -2.20331,0.548998 -0.62968,0.624598 -0.59391,-0.126499 -0.56781,11.913756 l 0.0233,10.77215 0.22168,0.4689 c 0.37998,0.8039 0.83836,0.9943 2.3993,0.996 1.95472,0.002 2.60576,-0.4513 2.74673,-1.9133 0.1063,-1.10249 0.0979,-21.062511 -0.009,-21.445609 z"
       inkscape:connector-curvature="0"
       style="fill:none;fill-opacity:1;stroke:#000000;stroke-width:0.35412246;stroke-linecap:round;stroke-linejoin:round;stroke-opacity:1" />
    <path
       id="rect41-6-1"
       d="m 924.6446,30.221565 h 117.2816 c 4.7139,0 8.5087,4.035357 8.5087,9.047886 V 321.17239 c 0,5.01254 -3.7948,9.04786 -8.5087,9.04786 H 924.6446 c -4.7137,0 -8.50849,-4.03532 -8.50849,-9.04786 V 39.269451 c 0,-5.012529 3.79479,-9.047886 8.50849,-9.047886 z"
       style="fill:none;stroke:#000000;stroke-width:0.2013095;stroke-miterlimit:4;stroke-dasharray:none;stroke-opacity:1"
       inkscape:connector-curvature="0" />
  </g>
  <g
     id="g847-3-3-3"
     transform="rotate(180,621.88123,180.66208)">
    <path
       id="path4-6-6-7-6-6-6"
       d="m 1124.0645,338.12062 c -0.087,1.06179 -0.1925,1.43809 -0.7321,2.60609 -0.8414,1.82149 -2.2416,3.22438 -4.1834,4.19148 -1.0374,0.5166 -1.1711,0.5607 -2.0402,0.6727 -0.8017,0.1034 -14.9045,0.12 -102.2021,0.1206 -92.76374,5e-4 -101.34583,-0.0107 -102.14801,-0.1347 -0.53979,-0.0834 -0.98366,-0.2021 -1.15708,-0.3096 -0.15477,-0.0959 -0.54775,-0.3094 -0.87332,-0.4744 -1.25068,-0.6341 -2.23465,-1.46479 -3.10867,-2.62439 -0.61628,-0.8177 -1.35901,-2.39989 -1.51872,-3.23559 -0.16596,-0.86799 -0.1573,-315.510412 0.009,-316.471508 0.0638,-0.369199 0.19911,-0.803197 0.30088,-0.964596 0.10167,-0.1616 0.23669,-0.425899 0.29997,-0.587298 0.2507,-0.639497 0.53768,-1.124495 1.07173,-1.810893 1.02679,-1.319894 1.92178,-2.078491 2.84357,-2.41009 0.31559,-0.113599 0.72217,-0.308399 0.90355,-0.433098 0.38855,-0.267099 0.6722,-0.337699 1.86232,-0.462898 0.64761,-0.0681 28.17266,-0.0911 101.77118,-0.0848 84.6761,0.007 101.043,0.027 101.8761,0.1232 0.943,0.108699 1.0439,0.139799 2.0205,0.622297 0.5654,0.279299 1.1933,0.644998 1.3953,0.812497 0.2022,0.167499 0.5304,0.415798 0.7294,0.551598 0.199,0.135899 0.5101,0.463598 0.6911,0.728197 0.1811,0.264399 0.5239,0.674797 0.7617,0.912196 0.2379,0.237199 0.4325,0.487498 0.4325,0.555998 0,0.0686 0.152,0.439698 0.3378,0.824696 0.1859,0.384999 0.4238,1.058896 0.5285,1.497094 l 0.1905,0.796897 V 180.24906 c 0,86.41415 -0.028,157.45636 -0.062,157.87156 z"
       inkscape:connector-curvature="0"
       style="fill:none;fill-opacity:1;stroke:#000000;stroke-width:0.35412246;stroke-linecap:round;stroke-linejoin:round;stroke-opacity:1" />
    <path
       id="path6-7-0-9-7-0-7"
       d="m 1117.9316,150.92238 c -0.1054,-0.2586 -0.3086,-0.6456 -0.4517,-0.8598 -0.2202,-0.3299 -0.3293,-0.4096 -0.7112,-0.5197 -0.2481,-0.0716 -0.5574,-0.21309 -0.6875,-0.31459 l -0.2365,-0.1847 h -30.1009 -30.101 l -0.3369,0.1889 c -0.1853,0.1038 -0.3891,0.18879 -0.4528,0.18879 -0.1383,0 -1.1126,0.9692 -1.1126,1.1069 0,0.0528 -0.067,0.1691 -0.148,0.2582 -0.1405,0.1541 -0.1492,2.37909 -0.1702,43.86872 l -0.022,43.70642 0.208,0.4508 c 0.3558,0.771 1.4024,1.65079 2.1227,1.78439 0.2531,0.0468 12.2235,0.072 30.2222,0.0635 27.6199,-0.0131 29.8287,-0.0243 30.1537,-0.1541 1.0039,-0.40099 1.8493,-1.38649 2.0023,-2.33449 0.019,-0.1153 0.03,-19.68782 0.024,-43.49442 l -0.01,-43.28472 z"
       inkscape:connector-curvature="0"
       style="fill:none;fill-opacity:1;stroke:#000000;stroke-width:0.35412246;stroke-linecap:round;stroke-linejoin:round;stroke-opacity:1" />
    <path
       id="path10-3-2-0-5-6-5"
       d="m 914.04686,272.48058 -0.0213,-8.34656 -0.2894,-0.5296 c -0.35831,-0.6557 -0.55279,-0.8105 -1.30237,-1.0364 -0.53194,-0.16029 -0.71755,-0.17309 -1.81567,-0.1261 l -1.22308,0.0524 -0.55934,0.4011 c -0.41162,0.295 -0.61517,0.5116 -0.77065,0.8198 l -0.2114,0.4188 v 15.89623 c 0,14.98644 0.008,15.91164 0.14812,16.16494 0.45092,0.81829 1.09803,1.11099 2.59992,1.17589 0.90174,0.0391 1.16181,0.0195 1.77013,-0.1332 1.27648,-0.3202 1.58935,-0.72149 1.68387,-2.15949 0.0299,-0.4563 0.0449,-3.84948 0.0333,-7.54037 -0.0116,-3.69088 -0.0306,-10.46675 -0.0422,-15.05744 z"
       inkscape:connector-curvature="0"
       style="fill:none;fill-opacity:1;stroke:#000000;stroke-width:0.35412246;stroke-linecap:round;stroke-linejoin:round;stroke-opacity:1" />
    <path
       id="path12-5-6-2-3-2-3"
       d="m 913.89662,65.590626 c -0.21241,-0.682497 -0.5014,-1.031796 -1.05389,-1.274295 -0.91958,-0.403498 -2.74301,-0.499598 -3.73311,-0.196999 -0.73296,0.224299 -1.18469,0.451198 -1.2915,0.649197 -0.046,0.0851 -0.16767,0.434099 -0.27065,0.775697 -0.18067,0.599498 -0.18823,0.770997 -0.21826,4.98298 -0.0171,2.39899 0.003,5.437678 0.044,6.752573 0.067,2.128591 0.095,2.44159 0.25503,2.852688 0.41505,1.066196 0.92955,1.286295 3.01547,1.290195 2.04743,0.004 2.56868,-0.200599 3.08893,-1.212495 0.0951,-0.1852 0.20495,-0.552198 0.24385,-0.815597 0.0389,-0.263299 0.0754,-3.353286 0.0811,-6.866272 0.0101,-6.193175 0.005,-6.404174 -0.16102,-6.937672 z"
       inkscape:connector-curvature="0"
       style="fill:none;fill-opacity:1;stroke:#000000;stroke-width:0.35412246;stroke-linecap:round;stroke-linejoin:round;stroke-opacity:1" />
    <path
       id="path14-6-1-3-5-6-5"
       d="m 913.80422,96.363901 c -0.14782,-0.529198 -0.3951,-0.797297 -0.99676,-1.080096 -0.53244,-0.250299 -0.60459,-0.261999 -1.61414,-0.260799 -1.29311,0.002 -1.77194,0.121 -2.20331,0.548998 -0.62968,0.624598 -0.59391,-0.126499 -0.56781,11.913756 l 0.0233,10.77215 0.22168,0.4689 c 0.37998,0.8039 0.83836,0.9943 2.3993,0.996 1.95472,0.002 2.60576,-0.4513 2.74673,-1.9133 0.1063,-1.10249 0.0979,-21.062511 -0.009,-21.445609 z"
       inkscape:connector-curvature="0"
       style="fill:none;fill-opacity:1;stroke:#000000;stroke-width:0.35412246;stroke-linecap:round;stroke-linejoin:round;stroke-opacity:1" />
    <path
       id="rect41-6-1-6"
       d="m 924.6446,30.221565 h 117.2816 c 4.7139,0 8.5087,4.035357 8.5087,9.047886 V 321.17239 c 0,5.01254 -3.7948,9.04786 -8.5087,9.04786 H 924.6446 c -4.7137,0 -8.50849,-4.03532 -8.50849,-9.04786 V 39.269451 c 0,-5.012529 3.79479,-9.047886 8.50849,-9.047886 z"
       style="fill:none;stroke:#000000;stroke-width:0.2013095;stroke-miterlimit:4;stroke-dasharray:none;stroke-opacity:1"
       inkscape:connector-curvature="0" />
  </g>
  <g
     id="g847-3-3-3-2"
     transform="rotate(180,733.77698,180.66208)">
    <path
       id="path4-6-6-7-6-6-6-9"
       d="m 1124.0645,338.12062 c -0.087,1.06179 -0.1925,1.43809 -0.7321,2.60609 -0.8414,1.82149 -2.2416,3.22438 -4.1834,4.19148 -1.0374,0.5166 -1.1711,0.5607 -2.0402,0.6727 -0.8017,0.1034 -14.9045,0.12 -102.2021,0.1206 -92.76374,5e-4 -101.34583,-0.0107 -102.14801,-0.1347 -0.53979,-0.0834 -0.98366,-0.2021 -1.15708,-0.3096 -0.15477,-0.0959 -0.54775,-0.3094 -0.87332,-0.4744 -1.25068,-0.6341 -2.23465,-1.46479 -3.10867,-2.62439 -0.61628,-0.8177 -1.35901,-2.39989 -1.51872,-3.23559 -0.16596,-0.86799 -0.1573,-315.510412 0.009,-316.471508 0.0638,-0.369199 0.19911,-0.803197 0.30088,-0.964596 0.10167,-0.1616 0.23669,-0.425899 0.29997,-0.587298 0.2507,-0.639497 0.53768,-1.124495 1.07173,-1.810893 1.02679,-1.319894 1.92178,-2.078491 2.84357,-2.41009 0.31559,-0.113599 0.72217,-0.308399 0.90355,-0.433098 0.38855,-0.267099 0.6722,-0.337699 1.86232,-0.462898 0.64761,-0.0681 28.17266,-0.0911 101.77118,-0.0848 84.6761,0.007 101.043,0.027 101.8761,0.1232 0.943,0.108699 1.0439,0.139799 2.0205,0.622297 0.5654,0.279299 1.1933,0.644998 1.3953,0.812497 0.2022,0.167499 0.5304,0.415798 0.7294,0.551598 0.199,0.135899 0.5101,0.463598 0.6911,0.728197 0.1811,0.264399 0.5239,0.674797 0.7617,0.912196 0.2379,0.237199 0.4325,0.487498 0.4325,0.555998 0,0.0686 0.152,0.439698 0.3378,0.824696 0.1859,0.384999 0.4238,1.058896 0.5285,1.497094 l 0.1905,0.796897 V 180.24906 c 0,86.41415 -0.028,157.45636 -0.062,157.87156 z"
       inkscape:connector-curvature="0"
       style="fill:none;fill-opacity:1;stroke:#000000;stroke-width:0.35412246;stroke-linecap:round;stroke-linejoin:round;stroke-opacity:1" />
    <path
       id="path6-7-0-9-7-0-7-1"
       d="m 1117.9316,150.92238 c -0.1054,-0.2586 -0.3086,-0.6456 -0.4517,-0.8598 -0.2202,-0.3299 -0.3293,-0.4096 -0.7112,-0.5197 -0.2481,-0.0716 -0.5574,-0.21309 -0.6875,-0.31459 l -0.2365,-0.1847 h -30.1009 -30.101 l -0.3369,0.1889 c -0.1853,0.1038 -0.3891,0.18879 -0.4528,0.18879 -0.1383,0 -1.1126,0.9692 -1.1126,1.1069 0,0.0528 -0.067,0.1691 -0.148,0.2582 -0.1405,0.1541 -0.1492,2.37909 -0.1702,43.86872 l -0.022,43.70642 0.208,0.4508 c 0.3558,0.771 1.4024,1.65079 2.1227,1.78439 0.2531,0.0468 12.2235,0.072 30.2222,0.0635 27.6199,-0.0131 29.8287,-0.0243 30.1537,-0.1541 1.0039,-0.40099 1.8493,-1.38649 2.0023,-2.33449 0.019,-0.1153 0.03,-19.68782 0.024,-43.49442 l -0.01,-43.28472 z"
       inkscape:connector-curvature="0"
       style="fill:none;fill-opacity:1;stroke:#000000;stroke-width:0.35412246;stroke-linecap:round;stroke-linejoin:round;stroke-opacity:1" />
    <path
       id="path10-3-2-0-5-6-5-2"
       d="m 914.04686,272.48058 -0.0213,-8.34656 -0.2894,-0.5296 c -0.35831,-0.6557 -0.55279,-0.8105 -1.30237,-1.0364 -0.53194,-0.16029 -0.71755,-0.17309 -1.81567,-0.1261 l -1.22308,0.0524 -0.55934,0.4011 c -0.41162,0.295 -0.61517,0.5116 -0.77065,0.8198 l -0.2114,0.4188 v 15.89623 c 0,14.98644 0.008,15.91164 0.14812,16.16494 0.45092,0.81829 1.09803,1.11099 2.59992,1.17589 0.90174,0.0391 1.16181,0.0195 1.77013,-0.1332 1.27648,-0.3202 1.58935,-0.72149 1.68387,-2.15949 0.0299,-0.4563 0.0449,-3.84948 0.0333,-7.54037 -0.0116,-3.69088 -0.0306,-10.46675 -0.0422,-15.05744 z"
       inkscape:connector-curvature="0"
       style="fill:none;fill-opacity:1;stroke:#000000;stroke-width:0.35412246;stroke-linecap:round;stroke-linejoin:round;stroke-opacity:1" />
    <path
       id="path12-5-6-2-3-2-3-7"
       d="m 913.89662,65.590626 c -0.21241,-0.682497 -0.5014,-1.031796 -1.05389,-1.274295 -0.91958,-0.403498 -2.74301,-0.499598 -3.73311,-0.196999 -0.73296,0.224299 -1.18469,0.451198 -1.2915,0.649197 -0.046,0.0851 -0.16767,0.434099 -0.27065,0.775697 -0.18067,0.599498 -0.18823,0.770997 -0.21826,4.98298 -0.0171,2.39899 0.003,5.437678 0.044,6.752573 0.067,2.128591 0.095,2.44159 0.25503,2.852688 0.41505,1.066196 0.92955,1.286295 3.01547,1.290195 2.04743,0.004 2.56868,-0.200599 3.08893,-1.212495 0.0951,-0.1852 0.20495,-0.552198 0.24385,-0.815597 0.0389,-0.263299 0.0754,-3.353286 0.0811,-6.866272 0.0101,-6.193175 0.005,-6.404174 -0.16102,-6.937672 z"
       inkscape:connector-curvature="0"
       style="fill:none;fill-opacity:1;stroke:#000000;stroke-width:0.35412246;stroke-linecap:round;stroke-linejoin:round;stroke-opacity:1" />
    <path
       id="path14-6-1-3-5-6-5-0"
       d="m 913.80422,96.363901 c -0.14782,-0.529198 -0.3951,-0.797297 -0.99676,-1.080096 -0.53244,-0.250299 -0.60459,-0.261999 -1.61414,-0.260799 -1.29311,0.002 -1.77194,0.121 -2.20331,0.548998 -0.62968,0.624598 -0.59391,-0.126499 -0.56781,11.913756 l 0.0233,10.77215 0.22168,0.4689 c 0.37998,0.8039 0.83836,0.9943 2.3993,0.996 1.95472,0.002 2.60576,-0.4513 2.74673,-1.9133 0.1063,-1.10249 0.0979,-21.062511 -0.009,-21.445609 z"
       inkscape:connector-curvature="0"
       style="fill:none;fill-opacity:1;stroke:#000000;stroke-width:0.35412246;stroke-linecap:round;stroke-linejoin:round;stroke-opacity:1" />
    <path
       id="rect41-6-1-6-9"
       d="m 924.6446,30.221565 h 117.2816 c 4.7139,0 8.5087,4.035357 8.5087,9.047886 V 321.17239 c 0,5.01254 -3.7948,9.04786 -8.5087,9.04786 H 924.6446 c -4.7137,0 -8.50849,-4.03532 -8.50849,-9.04786 V 39.269451 c 0,-5.012529 3.79479,-9.047886 8.50849,-9.047886 z"
       style="fill:none;stroke:#000000;stroke-width:0.2013095;stroke-miterlimit:4;stroke-dasharray:none;stroke-opacity:1"
       inkscape:connector-curvature="0" />
  </g>
</svg>
