<?xml version="1.0" encoding="UTF-8" standalone="no"?>
<!-- Created with Inkscape (http://www.inkscape.org/) -->

<svg
   xmlns:dc="http://purl.org/dc/elements/1.1/"
   xmlns:cc="http://creativecommons.org/ns#"
   xmlns:rdf="http://www.w3.org/1999/02/22-rdf-syntax-ns#"
   xmlns:svg="http://www.w3.org/2000/svg"
   xmlns="http://www.w3.org/2000/svg"
   xmlns:sodipodi="http://sodipodi.sourceforge.net/DTD/sodipodi-0.dtd"
   xmlns:inkscape="http://www.inkscape.org/namespaces/inkscape"
   width="600mm"
   height="600mm"
   viewBox="0 0 600 600"
   version="1.1"
   id="svg8"
   inkscape:version="0.92.3 (2405546, 2018-03-11)"
   sodipodi:docname="E7470_PR_NOFP.svg">
  <defs
     id="defs2" />
  <sodipodi:namedview
     id="base"
     pagecolor="#ffffff"
     bordercolor="#666666"
     borderopacity="1.0"
     inkscape:pageopacity="0.0"
     inkscape:pageshadow="2"
     inkscape:zoom="0.35"
     inkscape:cx="264.93142"
     inkscape:cy="1926.6798"
     inkscape:document-units="mm"
     inkscape:current-layer="g877"
     showgrid="false"
     showguides="true"
     inkscape:guide-bbox="true"
     inkscape:window-width="1920"
     inkscape:window-height="1017"
     inkscape:window-x="-8"
     inkscape:window-y="-8"
     inkscape:window-maximized="1" />
  <metadata
     id="metadata5">
    <rdf:RDF>
      <cc:Work
         rdf:about="">
        <dc:format>image/svg+xml</dc:format>
        <dc:type
           rdf:resource="http://purl.org/dc/dcmitype/StillImage" />
        <dc:title />
      </cc:Work>
    </rdf:RDF>
  </metadata>
  <g
     inkscape:label="Layer 1"
     inkscape:groupmode="layer"
     id="layer1"
     transform="translate(0,303)" />
  <g
     inkscape:groupmode="layer"
     id="layer2"
     inkscape:label="Layer 2">
    <g
       id="g837"
       style="fill:none">
      <g
         id="g877"
         style="stroke:#000000;stroke-opacity:1;stroke-width:0.35277778;stroke-miterlimit:4;stroke-dasharray:none">
        <g
           id="g1534"
           transform="translate(397.63095,10.583333)"
           style="stroke:#000000;stroke-opacity:1;stroke-width:0.35277778;stroke-miterlimit:4;stroke-dasharray:none">
          <path
             sodipodi:nodetypes="cssscc"
             inkscape:connector-curvature="0"
             id="rect847"
             d="M 83.56058,54.849014 V 262.08534 c 0,6.53429 -4.46,10.58729 -10,10.58729 h -312.64687 c -5.54,0 -10.019,-3.81979 -10.00001,-10.58729 V 54.849014"
             style="opacity:1;fill:none;fill-opacity:0.24186048;stroke:#000000;stroke-width:0.35277778;stroke-miterlimit:4;stroke-dasharray:none;stroke-opacity:1" />
          <g
             transform="translate(5.4604131)"
             id="g834"
             style="stroke:#000000;stroke-opacity:1;stroke-width:0.35277778;stroke-miterlimit:4;stroke-dasharray:none">
            <path
               style="opacity:1;fill:none;fill-opacity:0.24186048;stroke:#000000;stroke-width:0.35277778;stroke-miterlimit:4;stroke-dasharray:none;stroke-opacity:1"
               d="m -148.20773,196.75686 h 96.705211 c 1.108,0 1.470833,0.36283 1.470833,1.47083 v 67.17604 c 0,1.108 -0.892,2 -2,2 h -95.646874 c -1.108,0 -2,-0.892 -2,-2 v -67.17604 c 0,-1.108 0.36283,-1.47083 1.47083,-1.47083 z"
               id="rect849"
               inkscape:connector-curvature="0"
               sodipodi:nodetypes="sssssssss" />
            <path
               inkscape:connector-curvature="0"
               style="opacity:1;fill:none;fill-opacity:0.24186048;stroke:#000000;stroke-width:0.35277778;stroke-miterlimit:4;stroke-dasharray:none;stroke-opacity:1"
               d="m -148.19865,197.64506 h 96.646874 c 0.554,0 1,0.446 1,1 v 51.14687 c 0,0.554 -0.446,1 -1,1 h -96.646874 c -0.554,0 -1,-0.446 -1,-1 v -51.14687 c 0,-0.554 0.446,-1 1,-1 z"
               id="rect853" />
            <path
               inkscape:connector-curvature="0"
               style="opacity:1;fill:none;fill-opacity:0.24186048;stroke:#000000;stroke-width:0.35277778;stroke-miterlimit:4;stroke-dasharray:none;stroke-opacity:1"
               d="m -147.88212,252.90205 h 46.64687 c 0.554,0 1,0.446 1,1 v 10.64687 c 0,0.554 -0.446,1 -1,1 h -46.64687 c -0.554,0 -1,-0.446 -1,-1 v -10.64687 c 0,-0.554 0.446,-1 1,-1 z"
               id="rect855" />
            <path
               inkscape:connector-curvature="0"
               style="opacity:1;fill:none;fill-opacity:0.24186048;stroke:#000000;stroke-width:0.35277778;stroke-miterlimit:4;stroke-dasharray:none;stroke-opacity:1"
               d="m -98.492813,252.79356 h 46.646868 c 0.554,0 1.000001,0.446 1.000001,1 v 10.64687 c 0,0.554 -0.446001,1 -1.000001,1 h -46.646868 c -0.554001,0 -1.000001,-0.446 -1.000001,-1 v -10.64687 c 0,-0.554 0.446,-1 1.000001,-1 z"
               id="rect855-2" />
          </g>
          <path
             inkscape:connector-curvature="0"
             id="path1504"
             d="M -249.0863,54.849013 H 83.560578"
             style="fill:none;stroke:#000000;stroke-width:0.35277778;stroke-linecap:butt;stroke-linejoin:miter;stroke-opacity:1;stroke-miterlimit:4;stroke-dasharray:none" />
          <path
             sodipodi:nodetypes="cssssssccc"
             inkscape:connector-curvature="0"
             id="rect1506"
             d="m -144.35225,172.20484 -74.17639,0.002 c -0.554,1e-5 -1,-0.446 -1,-1 V 68.559326 c 0,-0.554 0.446,-1 1,-1 H 52.618576 c 0.554,0 1,0.446 1,1 l 4e-6,104.647154 m -60.6472207,-1.01109 -37.6763843,0.0662"
             style="opacity:1;fill:none;fill-opacity:0.25116284;stroke:#000000;stroke-width:0.35277778;stroke-miterlimit:4;stroke-dasharray:none;stroke-opacity:1" />
          <path
             sodipodi:nodetypes="cssssc"
             inkscape:connector-curvature="0"
             id="rect1510"
             d="m 53.61858,173.20648 v 4.14722 c 0,0.554 -0.446,1 -1.000001,1 H -6.0286402 c -0.5540003,0 -1.0000005,-0.446 -1.0000005,-1 v -5.15831"
             style="opacity:1;fill:none;fill-opacity:0.25116284;stroke:#000000;stroke-width:0.35277778;stroke-miterlimit:4;stroke-dasharray:none;stroke-opacity:1" />
          <path
             sodipodi:nodetypes="cssssc"
             inkscape:connector-curvature="0"
             id="rect1512"
             d="m -44.705025,172.26154 v 15.09216 c 0,0.554 -0.446,1 -1,1 h -97.647225 c -0.554,0 -1,-0.446 -1,-1 v -15.14886"
             style="opacity:1;fill:none;fill-opacity:0.25116284;stroke:#000000;stroke-width:0.35277778;stroke-miterlimit:4;stroke-dasharray:none;stroke-opacity:1" />
          <path
             style="opacity:1;fill:none;fill-opacity:0.25116284;stroke:#000000;stroke-width:0.35277778;stroke-miterlimit:4;stroke-dasharray:none;stroke-opacity:1"
             d="m 74.477031,74.374763 a 5.8236113,5.8236113 0 0 1 -5.823612,5.823612 5.8236113,5.8236113 0 0 1 -5.823611,-5.823612 5.8236113,5.8236113 0 0 1 5.823611,-5.823611 5.8236113,5.8236113 0 0 1 5.823612,5.823611 z"
             id="path1519" />
        </g>
      </g>
    </g>
  </g>
  <g
     inkscape:groupmode="layer"
     id="layer3"
     inkscape:label="Layer 3" />
</svg>
