<?xml version="1.0" encoding="utf-8"?>
<!-- Generator: Adobe Illustrator 25.2.1, SVG Export Plug-In . SVG Version: 6.00 Build 0)  -->
<svg version="1.1" id="Layer_1" xmlns="http://www.w3.org/2000/svg" xmlns:xlink="http://www.w3.org/1999/xlink" x="0px" y="0px"
	 viewBox="0 0 4280.3 1133.9" style="enable-background:new 0 0 4280.3 1133.9;" xml:space="preserve">
<style type="text/css">
	.st0{fill:none;stroke:#000000;stroke-miterlimit:10;}
	.st1{fill:#010101;}
</style>
<g>
	<path class="st0" d="M125.6,1044.9V41.4c0-12.5,10.2-22.7,22.7-22.7h618c12.5,0,22.7,10.2,22.7,22.7v1003.5
		c0,12.5-10.2,22.7-22.7,22.7h-618C135.8,1067.6,125.6,1057.4,125.6,1044.9z"/>
	<path class="st0" d="M183.7,1026.5V59.9c0-3.1,2.5-5.7,5.7-5.7h542.8c3.1,0,5.7,2.5,5.7,5.7v966.6c0,3.1-2.5,5.7-5.7,5.7H189.4
		C186.3,1032.2,183.7,1029.6,183.7,1026.5z"/>
	<path class="st0" d="M754.9,548.8v-11.3c0-3.1,2.5-5.7,5.7-5.7h11.3c3.1,0,5.7,2.5,5.7,5.7v11.3c0,3.1-2.5,5.7-5.7,5.7h-11.3
		C757.4,554.5,754.9,552,754.9,548.8z"/>
	<circle class="st0" cx="766.2" cy="472.3" r="4.3"/>
	<circle class="st0" cx="766.2" cy="614" r="4.3"/>
	<circle class="st0" cx="766.2" cy="567.7" r="4.3"/>
	<g>
		<path id="path817" class="st1" d="M145.1,539L145.1,539l3.4-5.1l3.4-5l-0.6-0.2l-0.6-0.2l-0.5-0.3l-0.5-0.3l-0.5-0.3l-0.5-0.3
			l-0.3-0.3l-0.3-0.3l-0.4-0.5l-0.4-0.5l-0.3-0.5l-0.3-0.5l-0.2-0.4l-0.2-0.4l-0.1-0.3l-0.1-0.3l-0.1-0.3l-0.1-0.3l-0.1-0.5
			l-0.1-0.5v-4.1v-4.1l8.3,0l8.3,0l0,0.1l0,0.1l0,3.9l0,3.9l0,0.4l0,0.4l-0.2,0.7l-0.2,0.7l-0.3,0.6l-0.3,0.6l-0.2,0.4l-0.2,0.4
			l-0.3,0.3l-0.3,0.3l-0.5,0.5l-0.5,0.5l-0.3,0.2l-0.3,0.2l-0.5,0.3l-0.5,0.3l-0.4,0.2l-0.4,0.2l-0.1,0l-0.1,0l0.1,0.1l0.1,0.1
			l3.2,5l3.2,5l0,0.1l0,0.1l-1.2,1.8l-1.2,1.8l-0.1,0l-0.1,0l-2.5-3.9l-2.5-3.9l0,0l0,0l-0.4,0.6l-0.4,0.6l0.1,0.2l0.1,0.2l2.4,3.8
			l2.4,3.8v0.1v0.1l-1.1,1.7l-1.1,1.7h-0.1h-0.1l-1.6-2.4l-1.6-2.4l-1-1.5l-1-1.5l-0.4,0.6l-0.4,0.6l2.6,4l2.6,4l2.8,0l2.8,0v3v3
			l-5.6,0l-5.6,0l0,2.6l0,2.6h-2.7h-2.7l0-5.6l0-5.6l2.7,0l2.7,0l-3.2-4.9L145.1,539L145.1,539L145.1,539z M145.2,539L145.2,539
			l3.2,4.9l3.2,4.9l0,0.1l0,0.1h-2.7h-2.7l0,5.6l0,5.6l2.6,0l2.6,0v-2.7v-2.7h5.6h5.6V552V549h-2.8H157l-2.6-4l-2.6-4l0-0.1l0-0.1
			l0.4-0.7l0.4-0.7l0,0l0,0l2.6,3.9l2.6,3.9h0h0l1.1-1.7l1.1-1.7l0,0l0,0l-2.5-4l-2.5-4V536v-0.1l0.4-0.6l0.4-0.6l0.1,0l0.1,0
			l2.5,3.9l2.5,3.9l0,0l0,0l1.1-1.7l1.1-1.7l0.1-0.1l0.1-0.1l-3.3-5.1l-3.3-5.1l0-0.1l0-0.1l0.2,0l0.2,0l0.4-0.2l0.4-0.2l0.6-0.3
			l0.6-0.3l0.4-0.3l0.4-0.3l0.2-0.2l0.2-0.2l0.3-0.3l0.3-0.3l0.2-0.3l0.2-0.3l0.2-0.3l0.2-0.3l0.3-0.6l0.3-0.6l0.2-0.7l0.2-0.7
			l0-0.4l0-0.4v-3.9v-3.9l-8.2,0l-8.2,0v4v4l0.1,0.5l0.1,0.5l0.1,0.3l0.1,0.3l0.1,0.3l0.1,0.3l0.2,0.4l0.2,0.4l0.3,0.5l0.3,0.5
			l0.4,0.5l0.4,0.5l0.3,0.3l0.3,0.3l0.4,0.3l0.4,0.3l0.6,0.3l0.6,0.3l0.5,0.2l0.5,0.2l0,0.1l0,0.1l-3.4,5L145.2,539L145.2,539
			L145.2,539z M151.4,519.9l0-0.8l0,0l0,0l3,0l3,0l0,1.1l0,1.1l-0.1,0.3l-0.1,0.3l-0.2,0.3l-0.2,0.3l-0.3,0.3l-0.3,0.3l-0.4,0.2
			l-0.4,0.2l-0.3,0.1l-0.3,0.1l-0.5,0l-0.5,0l-0.3-0.1l-0.3-0.1l-0.3-0.1l-0.3-0.1l-0.2-0.2l-0.2-0.2l-0.2-0.2l-0.2-0.2l-0.1-0.2
			l-0.1-0.2l-0.1-0.3l-0.1-0.3l0-0.4l0-0.4L151.4,519.9L151.4,519.9z M151.4,519.9l0,0.7l0,0.4l0,0.4l0.1,0.3l0.1,0.3l0.1,0.3
			l0.1,0.3l0.2,0.2l0.2,0.2l0.3,0.2l0.3,0.2l0.2,0.1l0.2,0.1l0.3,0.1l0.3,0.1h0.5h0.5l0.3-0.1l0.3-0.1l0.2-0.1l0.2-0.1l0.3-0.2
			l0.3-0.2l0.2-0.2l0.2-0.2l0.1-0.2l0.1-0.2l0.1-0.3l0.1-0.3l0-0.3l0-0.3l0-0.8l0-0.8h-3h-3L151.4,519.9L151.4,519.9z M146.1,567.3
			l0-5.6l8.3,0l8.3,0v3v3l-5.6,0l-5.6,0l0,2.6l0,2.6h-2.7h-2.7L146.1,567.3z M146.1,567.3l0,5.6l2.6,0l2.6,0v-2.6v-2.6h5.6h5.6v-2.9
			v-2.9h-8.2h-8.2L146.1,567.3z"/>
	</g>
</g>
</svg>
