<?xml version="1.0" encoding="UTF-8" standalone="no"?>
<!-- Created with Inkscape (http://www.inkscape.org/) -->

<svg
   xmlns:dc="http://purl.org/dc/elements/1.1/"
   xmlns:cc="http://creativecommons.org/ns#"
   xmlns:rdf="http://www.w3.org/1999/02/22-rdf-syntax-ns#"
   xmlns:svg="http://www.w3.org/2000/svg"
   xmlns="http://www.w3.org/2000/svg"
   xmlns:sodipodi="http://sodipodi.sourceforge.net/DTD/sodipodi-0.dtd"
   xmlns:inkscape="http://www.inkscape.org/namespaces/inkscape"
   width="1200mm"
   height="297mm"
   viewBox="0 0 1200 297"
   version="1.1"
   id="svg8"
   inkscape:version="0.92.3 (2405546, 2018-03-11)"
   sodipodi:docname="t410touchpad.svg">
  <defs
     id="defs2" />
  <sodipodi:namedview
     id="base"
     pagecolor="#ffffff"
     bordercolor="#666666"
     borderopacity="1.0"
     inkscape:pageopacity="0.0"
     inkscape:pageshadow="2"
     inkscape:zoom="0.35"
     inkscape:cx="-52.857143"
     inkscape:cy="400.74085"
     inkscape:document-units="mm"
     inkscape:current-layer="layer1"
     showgrid="false"
     inkscape:window-width="1680"
     inkscape:window-height="926"
     inkscape:window-x="0"
     inkscape:window-y="28"
     inkscape:window-maximized="1" />
  <metadata
     id="metadata5">
    <rdf:RDF>
      <cc:Work
         rdf:about="">
        <dc:format>image/svg+xml</dc:format>
        <dc:type
           rdf:resource="http://purl.org/dc/dcmitype/StillImage" />
        <dc:title></dc:title>
      </cc:Work>
    </rdf:RDF>
  </metadata>
  <g
     inkscape:label="Layer 1"
     inkscape:groupmode="layer"
     id="layer1">
    <path
       style="opacity:1;vector-effect:none;fill:none;fill-opacity:1;fill-rule:evenodd;stroke:#000000;stroke-width:0.22499999;stroke-linecap:butt;stroke-linejoin:miter;stroke-miterlimit:4;stroke-dasharray:none;stroke-dashoffset:0;stroke-opacity:1"
       d="M 22.506058,3.5290056 H 92.55347 c 1.58662,0 2.86395,1.13214 2.86395,2.5384397 V 45.765875 c 0,1.40629 -1.27733,2.53844 -2.86395,2.53844 H 22.506058 c -1.586628,0 -2.863949,-1.13215 -2.863949,-2.53844 V 6.0674453 c 0,-1.4062997 1.277321,-2.5384397 2.863949,-2.5384397 z"
       id="rect815"
       inkscape:connector-curvature="0" />
    <path
       style="opacity:1;vector-effect:none;fill:none;fill-opacity:1;fill-rule:evenodd;stroke:#000000;stroke-width:0.22500001;stroke-linecap:butt;stroke-linejoin:miter;stroke-miterlimit:4;stroke-dasharray:none;stroke-dashoffset:0;stroke-opacity:1"
       d="M 22.353077,51.984366 H 92.40049 c 1.586619,0 2.863951,1.13214 2.863951,2.53844 v 39.69842 c 0,1.406277 -1.277332,2.538437 -2.863951,2.538437 H 22.353077 c -1.586628,0 -2.863949,-1.13216 -2.863949,-2.538437 v -39.69842 c 0,-1.4063 1.277321,-2.53844 2.863949,-2.53844 z"
       id="rect815-3"
       inkscape:connector-curvature="0" />
    <path
       style="opacity:1;vector-effect:none;fill:none;fill-opacity:1;fill-rule:evenodd;stroke:#000000;stroke-width:0.22500001;stroke-linecap:butt;stroke-linejoin:miter;stroke-miterlimit:4;stroke-dasharray:none;stroke-dashoffset:0;stroke-opacity:1"
       d="m 22.353976,100.40367 h 70.047412 c 1.586621,0 2.86395,1.13214 2.86395,2.53844 v 39.69843 c 0,1.40629 -1.277329,2.53844 -2.86395,2.53844 H 22.353976 c -1.586628,0 -2.863949,-1.13215 -2.863949,-2.53844 v -39.69843 c 0,-1.4063 1.277321,-2.53844 2.863949,-2.53844 z"
       id="rect815-6"
       inkscape:connector-curvature="0" />
    <path
       style="opacity:1;vector-effect:none;fill:none;fill-opacity:1;fill-rule:evenodd;stroke:#000000;stroke-width:0.22500002;stroke-linecap:butt;stroke-linejoin:miter;stroke-miterlimit:4;stroke-dasharray:none;stroke-dashoffset:0;stroke-opacity:1"
       d="m 22.200995,148.85903 h 70.047413 c 1.586619,0 2.863951,1.13214 2.863951,2.53844 v 39.69842 c 0,1.40628 -1.277332,2.53844 -2.863951,2.53844 H 22.200995 c -1.586628,0 -2.863949,-1.13216 -2.863949,-2.53844 v -39.69842 c 0,-1.4063 1.277321,-2.53844 2.863949,-2.53844 z"
       id="rect815-3-7"
       inkscape:connector-curvature="0" />
    <path
       style="opacity:1;vector-effect:none;fill:none;fill-opacity:1;fill-rule:evenodd;stroke:#000000;stroke-width:0.22500001;stroke-linecap:butt;stroke-linejoin:miter;stroke-miterlimit:4;stroke-dasharray:none;stroke-dashoffset:0;stroke-opacity:1"
       d="m 22.353966,196.5609 h 70.047368 c 1.58662,0 2.86395,1.13214 2.86395,2.53844 v 39.69844 c 0,1.40629 -1.27733,2.53844 -2.86395,2.53844 H 22.353966 c -1.58663,0 -2.86395,-1.13215 -2.86395,-2.53844 v -39.69844 c 0,-1.4063 1.27732,-2.53844 2.86395,-2.53844 z"
       id="rect815-5"
       inkscape:connector-curvature="0" />
    <path
       style="opacity:1;vector-effect:none;fill:none;fill-opacity:1;fill-rule:evenodd;stroke:#000000;stroke-width:0.22500002;stroke-linecap:butt;stroke-linejoin:miter;stroke-miterlimit:4;stroke-dasharray:none;stroke-dashoffset:0;stroke-opacity:1"
       d="m 22.200986,245.01627 h 70.047368 c 1.58662,0 2.86395,1.13214 2.86395,2.53844 v 39.69842 c 0,1.40628 -1.27733,2.53844 -2.86395,2.53844 H 22.200986 c -1.58663,0 -2.86395,-1.13216 -2.86395,-2.53844 v -39.69842 c 0,-1.4063 1.27732,-2.53844 2.86395,-2.53844 z"
       id="rect815-3-3"
       inkscape:connector-curvature="0" />
    <path
       style="opacity:1;vector-effect:none;fill:none;fill-opacity:1;fill-rule:evenodd;stroke:#000000;stroke-width:0.22500001;stroke-linecap:butt;stroke-linejoin:miter;stroke-miterlimit:4;stroke-dasharray:none;stroke-dashoffset:0;stroke-opacity:1"
       d="m 101.20023,3.1317642 h 70.04741 c 1.58662,0 2.86395,1.1321367 2.86395,2.5384367 V 45.368609 c 0,1.406287 -1.27733,2.538437 -2.86395,2.538437 h -70.04741 c -1.586627,0 -2.863947,-1.13215 -2.863947,-2.538437 V 5.6702009 c 0,-1.4063 1.27732,-2.5384367 2.863947,-2.5384367 z"
       id="rect815-56"
       inkscape:connector-curvature="0" />
    <path
       style="opacity:1;vector-effect:none;fill:none;fill-opacity:1;fill-rule:evenodd;stroke:#000000;stroke-width:0.22500002;stroke-linecap:butt;stroke-linejoin:miter;stroke-miterlimit:4;stroke-dasharray:none;stroke-dashoffset:0;stroke-opacity:1"
       d="m 101.04725,51.587093 h 70.04741 c 1.58662,0 2.86396,1.13214 2.86396,2.53844 v 39.698396 c 0,1.40628 -1.27734,2.53844 -2.86396,2.53844 h -70.04741 c -1.586627,0 -2.863947,-1.13216 -2.863947,-2.53844 V 54.125533 c 0,-1.4063 1.27732,-2.53844 2.863947,-2.53844 z"
       id="rect815-3-2"
       inkscape:connector-curvature="0" />
    <path
       style="opacity:1;vector-effect:none;fill:none;fill-opacity:1;fill-rule:evenodd;stroke:#000000;stroke-width:0.22500002;stroke-linecap:butt;stroke-linejoin:miter;stroke-miterlimit:4;stroke-dasharray:none;stroke-dashoffset:0;stroke-opacity:1"
       d="m 101.04815,100.00636 h 70.04741 c 1.58662,0 2.86395,1.13214 2.86395,2.53844 v 39.69844 c 0,1.40629 -1.27733,2.53843 -2.86395,2.53843 h -70.04741 c -1.586627,0 -2.863947,-1.13214 -2.863947,-2.53843 V 102.5448 c 0,-1.4063 1.27732,-2.53844 2.863947,-2.53844 z"
       id="rect815-6-9"
       inkscape:connector-curvature="0" />
    <path
       style="opacity:1;vector-effect:none;fill:none;fill-opacity:1;fill-rule:evenodd;stroke:#000000;stroke-width:0.22500002;stroke-linecap:butt;stroke-linejoin:miter;stroke-miterlimit:4;stroke-dasharray:none;stroke-dashoffset:0;stroke-opacity:1"
       d="m 100.89517,148.46173 h 70.04741 c 1.58662,0 2.86395,1.13214 2.86395,2.53844 v 39.69842 c 0,1.40628 -1.27733,2.53844 -2.86395,2.53844 h -70.04741 c -1.586627,0 -2.863947,-1.13216 -2.863947,-2.53844 v -39.69842 c 0,-1.4063 1.27732,-2.53844 2.863947,-2.53844 z"
       id="rect815-3-7-1"
       inkscape:connector-curvature="0" />
    <path
       style="opacity:1;vector-effect:none;fill:none;fill-opacity:1;fill-rule:evenodd;stroke:#000000;stroke-width:0.22500002;stroke-linecap:butt;stroke-linejoin:miter;stroke-miterlimit:4;stroke-dasharray:none;stroke-dashoffset:0;stroke-opacity:1"
       d="m 101.04814,196.1636 h 70.04737 c 1.58662,0 2.86395,1.13214 2.86395,2.53844 v 39.69844 c 0,1.40629 -1.27733,2.53844 -2.86395,2.53844 h -70.04737 c -1.586627,0 -2.863947,-1.13215 -2.863947,-2.53844 v -39.69844 c 0,-1.4063 1.27732,-2.53844 2.863947,-2.53844 z"
       id="rect815-5-2"
       inkscape:connector-curvature="0" />
    <path
       style="opacity:1;vector-effect:none;fill:none;fill-opacity:1;fill-rule:evenodd;stroke:#000000;stroke-width:0.22500002;stroke-linecap:butt;stroke-linejoin:miter;stroke-miterlimit:4;stroke-dasharray:none;stroke-dashoffset:0;stroke-opacity:1"
       d="m 100.89516,244.61897 h 70.04737 c 1.58662,0 2.86395,1.13214 2.86395,2.53844 v 39.69843 c 0,1.40626 -1.27733,2.53844 -2.86395,2.53844 h -70.04737 c -1.586627,0 -2.863947,-1.13218 -2.863947,-2.53844 v -39.69843 c 0,-1.4063 1.27732,-2.53844 2.863947,-2.53844 z"
       id="rect815-3-3-7"
       inkscape:connector-curvature="0" />
    <path
       style="opacity:1;vector-effect:none;fill:none;fill-opacity:1;fill-rule:evenodd;stroke:#000000;stroke-width:0.22500001;stroke-linecap:butt;stroke-linejoin:miter;stroke-miterlimit:4;stroke-dasharray:none;stroke-dashoffset:0;stroke-opacity:1"
       d="m 180.46227,3.4059244 h 70.04741 c 1.58662,0 2.86395,1.13214 2.86395,2.5384369 V 45.642773 c 0,1.40629 -1.27733,2.538427 -2.86395,2.538427 h -70.04741 c -1.58663,0 -2.86395,-1.132137 -2.86395,-2.538427 V 5.9443613 c 0,-1.4062969 1.27732,-2.5384369 2.86395,-2.5384369 z"
       id="rect815-0"
       inkscape:connector-curvature="0" />
    <path
       style="opacity:1;vector-effect:none;fill:none;fill-opacity:1;fill-rule:evenodd;stroke:#000000;stroke-width:0.22500002;stroke-linecap:butt;stroke-linejoin:miter;stroke-miterlimit:4;stroke-dasharray:none;stroke-dashoffset:0;stroke-opacity:1"
       d="m 180.30928,51.86125 h 70.04742 c 1.58662,0 2.86395,1.132147 2.86395,2.538447 v 39.698399 c 0,1.406267 -1.27733,2.538427 -2.86395,2.538427 h -70.04742 c -1.58662,0 -2.86394,-1.13216 -2.86394,-2.538427 V 54.399697 c 0,-1.4063 1.27732,-2.538447 2.86394,-2.538447 z"
       id="rect815-3-9"
       inkscape:connector-curvature="0" />
    <path
       style="opacity:1;vector-effect:none;fill:none;fill-opacity:1;fill-rule:evenodd;stroke:#000000;stroke-width:0.22500002;stroke-linecap:butt;stroke-linejoin:miter;stroke-miterlimit:4;stroke-dasharray:none;stroke-dashoffset:0;stroke-opacity:1"
       d="m 180.31018,100.28053 h 70.04742 c 1.58662,0 2.86395,1.13215 2.86395,2.53845 v 39.69845 c 0,1.40629 -1.27733,2.53844 -2.86395,2.53844 h -70.04742 c -1.58662,0 -2.86395,-1.13215 -2.86395,-2.53844 v -39.69845 c 0,-1.4063 1.27733,-2.53845 2.86395,-2.53845 z"
       id="rect815-6-3"
       inkscape:connector-curvature="0" />
    <path
       style="opacity:1;vector-effect:none;fill:none;fill-opacity:1;fill-rule:evenodd;stroke:#000000;stroke-width:0.22500002;stroke-linecap:butt;stroke-linejoin:miter;stroke-miterlimit:4;stroke-dasharray:none;stroke-dashoffset:0;stroke-opacity:1"
       d="m 180.1572,148.73592 h 70.04742 c 1.58662,0 2.86395,1.13214 2.86395,2.53844 v 39.69842 c 0,1.40628 -1.27733,2.53844 -2.86395,2.53844 H 180.1572 c -1.58663,0 -2.86395,-1.13216 -2.86395,-2.53844 v -39.69842 c 0,-1.4063 1.27732,-2.53844 2.86395,-2.53844 z"
       id="rect815-3-7-6"
       inkscape:connector-curvature="0" />
    <path
       style="opacity:1;vector-effect:none;fill:none;fill-opacity:1;fill-rule:evenodd;stroke:#000000;stroke-width:0.22500002;stroke-linecap:butt;stroke-linejoin:miter;stroke-miterlimit:4;stroke-dasharray:none;stroke-dashoffset:0;stroke-opacity:1"
       d="m 180.31017,196.43779 h 70.04737 c 1.58662,0 2.86395,1.13214 2.86395,2.53844 v 39.69844 c 0,1.40629 -1.27733,2.53844 -2.86395,2.53844 h -70.04737 c -1.58663,0 -2.86395,-1.13215 -2.86395,-2.53844 v -39.69844 c 0,-1.4063 1.27732,-2.53844 2.86395,-2.53844 z"
       id="rect815-5-0"
       inkscape:connector-curvature="0" />
    <path
       style="opacity:1;vector-effect:none;fill:none;fill-opacity:1;fill-rule:evenodd;stroke:#000000;stroke-width:0.22500002;stroke-linecap:butt;stroke-linejoin:miter;stroke-miterlimit:4;stroke-dasharray:none;stroke-dashoffset:0;stroke-opacity:1"
       d="m 180.15719,244.89316 h 70.04737 c 1.58662,0 2.86395,1.13214 2.86395,2.53844 v 39.69841 c 0,1.40628 -1.27733,2.53844 -2.86395,2.53844 h -70.04737 c -1.58663,0 -2.86395,-1.13216 -2.86395,-2.53844 V 247.4316 c 0,-1.4063 1.27732,-2.53844 2.86395,-2.53844 z"
       id="rect815-3-3-6"
       inkscape:connector-curvature="0" />
    <path
       style="opacity:1;vector-effect:none;fill:none;fill-opacity:1;fill-rule:evenodd;stroke:#000000;stroke-width:0.22500002;stroke-linecap:butt;stroke-linejoin:miter;stroke-miterlimit:4;stroke-dasharray:none;stroke-dashoffset:0;stroke-opacity:1"
       d="m 259.15644,3.0086744 h 70.04741 c 1.58662,0 2.86395,1.13214 2.86395,2.5384368 V 45.245503 c 0,1.40629 -1.27733,2.538437 -2.86395,2.538437 h -70.04741 c -1.58663,0 -2.86395,-1.132147 -2.86395,-2.538437 V 5.5471112 c 0,-1.4062968 1.27732,-2.5384368 2.86395,-2.5384368 z"
       id="rect815-56-2"
       inkscape:connector-curvature="0" />
    <path
       style="opacity:1;vector-effect:none;fill:none;fill-opacity:1;fill-rule:evenodd;stroke:#000000;stroke-width:0.22500002;stroke-linecap:butt;stroke-linejoin:miter;stroke-miterlimit:4;stroke-dasharray:none;stroke-dashoffset:0;stroke-opacity:1"
       d="m 259.00346,51.46398 h 70.04741 c 1.58662,0 2.86396,1.13214 2.86396,2.538437 v 39.698379 c 0,1.40628 -1.27734,2.538437 -2.86396,2.538437 h -70.04741 c -1.58663,0 -2.86395,-1.132157 -2.86395,-2.538437 V 54.002417 c 0,-1.406297 1.27732,-2.538437 2.86395,-2.538437 z"
       id="rect815-3-2-6"
       inkscape:connector-curvature="0" />
    <path
       style="opacity:1;vector-effect:none;fill:none;fill-opacity:1;fill-rule:evenodd;stroke:#000000;stroke-width:0.22500002;stroke-linecap:butt;stroke-linejoin:miter;stroke-miterlimit:4;stroke-dasharray:none;stroke-dashoffset:0;stroke-opacity:1"
       d="m 259.00436,99.883223 h 70.04741 c 1.58662,0 2.86394,1.132137 2.86394,2.538447 v 39.69846 c 0,1.40629 -1.27732,2.53843 -2.86394,2.53843 h -70.04741 c -1.58663,0 -2.86395,-1.13214 -2.86395,-2.53843 v -39.69846 c 0,-1.40631 1.27732,-2.538447 2.86395,-2.538447 z"
       id="rect815-6-9-1"
       inkscape:connector-curvature="0" />
    <path
       style="opacity:1;vector-effect:none;fill:none;fill-opacity:1;fill-rule:evenodd;stroke:#000000;stroke-width:0.22500002;stroke-linecap:butt;stroke-linejoin:miter;stroke-miterlimit:4;stroke-dasharray:none;stroke-dashoffset:0;stroke-opacity:1"
       d="m 258.85138,148.33862 h 70.0474 c 1.58663,0 2.86395,1.13214 2.86395,2.53844 v 39.69842 c 0,1.40628 -1.27732,2.53844 -2.86395,2.53844 h -70.0474 c -1.58663,0 -2.86395,-1.13216 -2.86395,-2.53844 v -39.69842 c 0,-1.4063 1.27732,-2.53844 2.86395,-2.53844 z"
       id="rect815-3-7-1-8"
       inkscape:connector-curvature="0" />
    <path
       style="opacity:1;vector-effect:none;fill:none;fill-opacity:1;fill-rule:evenodd;stroke:#000000;stroke-width:0.22500002;stroke-linecap:butt;stroke-linejoin:miter;stroke-miterlimit:4;stroke-dasharray:none;stroke-dashoffset:0;stroke-opacity:1"
       d="m 259.00435,196.04049 h 70.04737 c 1.58662,0 2.86395,1.13214 2.86395,2.53844 v 39.69844 c 0,1.40629 -1.27733,2.53844 -2.86395,2.53844 h -70.04737 c -1.58663,0 -2.86395,-1.13215 -2.86395,-2.53844 v -39.69844 c 0,-1.4063 1.27732,-2.53844 2.86395,-2.53844 z"
       id="rect815-5-2-7"
       inkscape:connector-curvature="0" />
    <path
       style="opacity:1;vector-effect:none;fill:none;fill-opacity:1;fill-rule:evenodd;stroke:#000000;stroke-width:0.22500002;stroke-linecap:butt;stroke-linejoin:miter;stroke-miterlimit:4;stroke-dasharray:none;stroke-dashoffset:0;stroke-opacity:1"
       d="m 258.85137,244.49586 h 70.04737 c 1.58662,0 2.86394,1.13214 2.86394,2.53844 v 39.69844 c 0,1.40626 -1.27732,2.53844 -2.86394,2.53844 h -70.04737 c -1.58663,0 -2.86395,-1.13218 -2.86395,-2.53844 V 247.0343 c 0,-1.4063 1.27732,-2.53844 2.86395,-2.53844 z"
       id="rect815-3-3-7-9"
       inkscape:connector-curvature="0" />
  </g>
</svg>
