<?xml version="1.0" encoding="UTF-8" standalone="no"?>
<!-- exported from Silhouette Studio Business Edition V4.1.206ssbe -->

<svg
   xmlns:osb="http://www.openswatchbook.org/uri/2009/osb"
   xmlns:dc="http://purl.org/dc/elements/1.1/"
   xmlns:cc="http://creativecommons.org/ns#"
   xmlns:rdf="http://www.w3.org/1999/02/22-rdf-syntax-ns#"
   xmlns:svg="http://www.w3.org/2000/svg"
   xmlns="http://www.w3.org/2000/svg"
   xmlns:sodipodi="http://sodipodi.sourceforge.net/DTD/sodipodi-0.dtd"
   xmlns:inkscape="http://www.inkscape.org/namespaces/inkscape"
   version="1.1"
   width="304.8mm"
   height="1050mm"
   viewBox="0 0 304.8 1050"
   id="svg84"
   sodipodi:docname="t440_tp_.svg"
   inkscape:version="0.92.3 (2405546, 2018-03-11)">
  <metadata
     id="metadata88">
    <rdf:RDF>
      <cc:Work
         rdf:about="">
        <dc:format>image/svg+xml</dc:format>
        <dc:type
           rdf:resource="http://purl.org/dc/dcmitype/StillImage" />
      </cc:Work>
    </rdf:RDF>
  </metadata>
  <sodipodi:namedview
     pagecolor="#ffffff"
     bordercolor="#666666"
     borderopacity="1"
     objecttolerance="10"
     gridtolerance="10"
     guidetolerance="10"
     inkscape:pageopacity="0"
     inkscape:pageshadow="2"
     inkscape:window-width="1680"
     inkscape:window-height="926"
     id="namedview86"
     showgrid="false"
     inkscape:zoom="0.12188047"
     inkscape:cx="380.98594"
     inkscape:cy="1355.8077"
     inkscape:window-x="0"
     inkscape:window-y="28"
     inkscape:window-maximized="1"
     inkscape:current-layer="svg84" />
  <defs
     id="defs2">
    <linearGradient
       id="linearGradient900"
       osb:paint="solid">
      <stop
         style="stop-color:#000000;stop-opacity:1;"
         offset="0"
         id="stop898" />
    </linearGradient>
  </defs>
  <g
     id="g967">
    <path
       style="fill:none;fill-opacity:1;stroke:#000000;stroke-width:0.26458332;stroke-linecap:round;stroke-linejoin:round;stroke-miterlimit:4;stroke-dasharray:none;stroke-opacity:0.98876403"
       id="path4"
       d="m 549.52421,383.85543 c -0.7634,0 -1.3836,0.63704 -1.3836,1.42128 v 60.15742 c 0,0.78424 0.6202,1.42128 1.3836,1.42128 l 95.73285,2e-5 c 0.76344,0 1.38358,-0.63704 1.38358,-1.42128 l 1e-5,-60.15743 c 0,-0.78424 -0.62014,-1.42129 -1.38358,-1.42129 z"
       inkscape:connector-curvature="0" />
    <path
       style="fill:none;fill-opacity:1;stroke:#000000;stroke-width:0.26458332;stroke-linecap:round;stroke-linejoin:round;stroke-miterlimit:4;stroke-dasharray:none;stroke-opacity:0.98876403"
       id="path6"
       d="m 549.52421,450.19829 c -0.7634,0 -1.3836,0.63706 -1.3836,1.4213 v 60.15736 c 0,0.7843 0.6202,1.4213 1.3836,1.4213 h 95.73285 c 0.76344,0 1.38358,-0.637 1.38358,-1.4212 l 1e-5,-60.15746 c 0,-0.78424 -0.62014,-1.42129 -1.38358,-1.42129 z"
       inkscape:connector-curvature="0" />
    <path
       style="fill:none;fill-opacity:1;stroke:#000000;stroke-width:0.26458332;stroke-linecap:round;stroke-linejoin:round;stroke-miterlimit:4;stroke-dasharray:none;stroke-opacity:0.98876403"
       id="path8"
       d="m 549.52421,516.54125 c -0.7634,0 -1.3836,0.637 -1.3836,1.4212 v 60.1575 c 0,0.7842 0.6201,1.4213 1.3836,1.4213 h 95.73284 c 0.76344,0 1.38359,-0.6371 1.38359,-1.4213 l 0,-60.1574 c 0,-0.7843 -0.62014,-1.4213 -1.38358,-1.4213 z"
       inkscape:connector-curvature="0" />
    <path
       style="fill:none;fill-opacity:1;stroke:#000000;stroke-width:0.26458332;stroke-linecap:round;stroke-linejoin:round;stroke-miterlimit:4;stroke-dasharray:none;stroke-opacity:0.98876403"
       id="path10"
       d="m 549.52421,582.88385 c -0.7634,0 -1.3836,0.637 -1.3836,1.4213 v 60.1574 c 0,0.7842 0.6201,1.4213 1.3836,1.4213 h 95.73285 c 0.76344,0 1.38358,-0.6371 1.38358,-1.4213 l 0,-60.1574 c 0,-0.7843 -0.62014,-1.4213 -1.38358,-1.4213 z"
       inkscape:connector-curvature="0" />
    <path
       style="fill:none;fill-opacity:1;stroke:#000000;stroke-width:0.26458332;stroke-linecap:round;stroke-linejoin:round;stroke-miterlimit:4;stroke-dasharray:none;stroke-opacity:0.98876403"
       id="path12"
       d="m 447.68151,383.85543 c -0.7634,0 -1.3836,0.63707 -1.3836,1.42131 v 60.15741 c 0,0.78424 0.6201,1.42128 1.3836,1.42128 l 95.7329,0 c 0.7634,0 1.3835,-0.63703 1.3835,-1.42127 v -60.15742 c 0,-0.78424 -0.6201,-1.4213 -1.3835,-1.4213 z"
       inkscape:connector-curvature="0" />
    <path
       style="fill:none;fill-opacity:1;stroke:#000000;stroke-width:0.26458332;stroke-linecap:round;stroke-linejoin:round;stroke-miterlimit:4;stroke-dasharray:none;stroke-opacity:0.98876403"
       id="path14"
       d="m 447.68151,450.1983 c -0.7634,0 -1.3836,0.63705 -1.3836,1.42129 v 60.15746 c 0,0.7842 0.6201,1.4213 1.3836,1.4213 h 95.7329 c 0.7634,0 1.3835,-0.6371 1.3835,-1.4213 v -60.15744 c 0,-0.78424 -0.6201,-1.4213 -1.3835,-1.4213 z"
       inkscape:connector-curvature="0" />
    <path
       style="fill:none;fill-opacity:1;stroke:#000000;stroke-width:0.26458332;stroke-linecap:round;stroke-linejoin:round;stroke-miterlimit:4;stroke-dasharray:none;stroke-opacity:0.98876403"
       id="path16"
       d="m 447.68151,516.54125 c -0.7634,0 -1.3836,0.637 -1.3836,1.4213 v 60.1574 c 0,0.7842 0.6201,1.4213 1.3836,1.4213 h 95.7329 c 0.7634,0 1.3835,-0.6371 1.3835,-1.4213 v -60.1574 c 0,-0.7843 -0.6201,-1.4213 -1.3835,-1.4213 z"
       inkscape:connector-curvature="0" />
    <path
       style="fill:none;fill-opacity:1;stroke:#000000;stroke-width:0.26458332;stroke-linecap:round;stroke-linejoin:round;stroke-miterlimit:4;stroke-dasharray:none;stroke-opacity:0.98876403"
       id="path18"
       d="m 447.68151,582.88385 c -0.7634,0 -1.3836,0.637 -1.3836,1.4213 v 60.1574 c 0,0.7842 0.6201,1.4213 1.3836,1.4213 h 95.7329 c 0.7634,0 1.3835,-0.6371 1.3835,-1.4213 v -60.1574 c 0,-0.7843 -0.6201,-1.4213 -1.3835,-1.4213 z"
       inkscape:connector-curvature="0" />
    <path
       style="fill:none;fill-opacity:1;stroke:#000000;stroke-width:0.26458332;stroke-linecap:round;stroke-linejoin:round;stroke-miterlimit:4;stroke-dasharray:none;stroke-opacity:0.98876403"
       id="path20"
       d="m 345.83871,383.85544 c -0.7634,0 -1.3836,0.63706 -1.3836,1.4213 v 60.15741 c 0,0.78425 0.6201,1.42129 1.3836,1.42129 h 95.7329 c 0.7634,0 1.3836,-0.63703 1.3836,-1.42128 l -1e-4,-60.15742 c 0,-0.78424 -0.6201,-1.42129 -1.3835,-1.42129 z"
       inkscape:connector-curvature="0" />
    <path
       style="fill:none;fill-opacity:1;stroke:#000000;stroke-width:0.26458332;stroke-linecap:round;stroke-linejoin:round;stroke-miterlimit:4;stroke-dasharray:none;stroke-opacity:0.98876403"
       id="path22"
       d="m 345.83871,450.19831 c -0.7634,0 -1.3836,0.63705 -1.3836,1.42129 v 60.15745 c 0,0.7842 0.6202,1.4213 1.3836,1.4213 h 95.7329 c 0.7634,0 1.3836,-0.6371 1.3836,-1.4213 v -60.15743 c 0,-0.78424 -0.6202,-1.42131 -1.3836,-1.42131 z"
       inkscape:connector-curvature="0" />
    <path
       style="fill:none;fill-opacity:1;stroke:#000000;stroke-width:0.26458332;stroke-linecap:round;stroke-linejoin:round;stroke-miterlimit:4;stroke-dasharray:none;stroke-opacity:0.98876403"
       id="path24"
       d="m 345.83871,516.54125 c -0.7634,0 -1.3836,0.637 -1.3836,1.4213 v 60.1574 c 0,0.7842 0.6202,1.4213 1.3836,1.4213 h 95.7329 c 0.7634,0 1.3836,-0.6371 1.3836,-1.4213 l -1e-4,-60.1574 c 0,-0.7842 -0.6201,-1.4213 -1.3835,-1.4213 z"
       inkscape:connector-curvature="0" />
    <path
       style="fill:none;fill-opacity:1;stroke:#000000;stroke-width:0.26458332;stroke-linecap:round;stroke-linejoin:round;stroke-miterlimit:4;stroke-dasharray:none;stroke-opacity:0.98876403"
       id="path26"
       d="m 345.83871,582.88385 c -0.7634,0 -1.3836,0.637 -1.3836,1.4213 v 60.1574 c 0,0.7843 0.6201,1.4213 1.3836,1.4213 h 95.7329 c 0.7634,0 1.3835,-0.6371 1.3835,-1.4213 l 0,-60.1574 c 0,-0.7843 -0.6201,-1.4213 -1.3835,-1.4213 z"
       inkscape:connector-curvature="0" />
    <path
       style="fill:none;fill-opacity:1;stroke:#000000;stroke-width:0.26458332;stroke-linecap:round;stroke-linejoin:round;stroke-miterlimit:4;stroke-dasharray:none;stroke-opacity:0.98876403"
       id="path28"
       d="m 243.99591,383.85543 c -0.7634,0 -1.3836,0.63705 -1.3836,1.42129 v 60.15743 c 0,0.78424 0.6201,1.42128 1.3836,1.42128 h 95.7328 c 0.7635,0 1.3836,-0.63703 1.3836,-1.42127 v -60.15742 c 0,-0.78424 -0.6201,-1.4213 -1.3836,-1.4213 z"
       inkscape:connector-curvature="0" />
    <path
       style="fill:none;fill-opacity:1;stroke:#000000;stroke-width:0.26458332;stroke-linecap:round;stroke-linejoin:round;stroke-miterlimit:4;stroke-dasharray:none;stroke-opacity:0.98876403"
       id="path30"
       d="m 243.99591,450.19831 c -0.7634,0 -1.3836,0.63706 -1.3836,1.4213 v 60.15744 c 0,0.7842 0.6201,1.4213 1.3836,1.4213 h 95.7329 c 0.7634,0 1.3835,-0.6371 1.3835,-1.4213 v -60.15743 c 0,-0.78424 -0.6201,-1.42131 -1.3836,-1.42131 z"
       inkscape:connector-curvature="0" />
    <path
       style="fill:none;fill-opacity:1;stroke:#000000;stroke-width:0.26458332;stroke-linecap:round;stroke-linejoin:round;stroke-miterlimit:4;stroke-dasharray:none;stroke-opacity:0.98876403"
       id="path32"
       d="m 243.99591,516.54125 c -0.7634,0 -1.3835,0.637 -1.3835,1.4213 l -1e-4,60.1574 c 0,0.7842 0.6201,1.4213 1.3836,1.4213 h 95.7329 c 0.7634,0 1.3835,-0.637 1.3835,-1.4213 v -60.1574 c 0,-0.7842 -0.6201,-1.4213 -1.3835,-1.4213 z"
       inkscape:connector-curvature="0" />
    <path
       style="fill:none;fill-opacity:1;stroke:#000000;stroke-width:0.26458332;stroke-linecap:round;stroke-linejoin:round;stroke-miterlimit:4;stroke-dasharray:none;stroke-opacity:0.98876403"
       id="path34"
       d="m 243.99591,582.88385 c -0.7634,0 -1.3835,0.637 -1.3835,1.4213 l -1e-4,60.1574 c 0,0.7843 0.6201,1.4213 1.3836,1.4213 h 95.7329 c 0.7634,0 1.3835,-0.637 1.3835,-1.4213 v -60.1574 c 0,-0.7843 -0.6201,-1.4213 -1.3835,-1.4213 z"
       inkscape:connector-curvature="0" />
    <path
       style="fill:none;fill-opacity:1;stroke:#000000;stroke-width:0.26458332;stroke-linecap:round;stroke-linejoin:round;stroke-miterlimit:4;stroke-dasharray:none;stroke-opacity:0.98876403"
       id="path36"
       d="m 142.15311,383.85543 c -0.7634,0 -1.3836,0.63707 -1.3836,1.42131 v 60.15741 c 0,0.78424 0.6202,1.42128 1.3836,1.42128 l 95.7329,10e-6 c 0.7634,0 1.3836,-0.63703 1.3836,-1.42128 v -60.15742 c 0,-0.78424 -0.6202,-1.42129 -1.3836,-1.42129 z"
       inkscape:connector-curvature="0" />
    <path
       style="fill:none;fill-opacity:1;stroke:#000000;stroke-width:0.26458332;stroke-linecap:round;stroke-linejoin:round;stroke-miterlimit:4;stroke-dasharray:none;stroke-opacity:0.98876403"
       id="path38"
       d="m 142.15311,450.19831 c -0.7634,0 -1.3836,0.63706 -1.3836,1.4213 v 60.15744 c 0,0.7842 0.6202,1.4213 1.3837,1.4213 h 95.7328 c 0.7634,0 1.3836,-0.6371 1.3836,-1.4213 v -60.15743 c 0,-0.78424 -0.6202,-1.42131 -1.3836,-1.42131 z"
       inkscape:connector-curvature="0" />
    <path
       style="fill:none;fill-opacity:1;stroke:#000000;stroke-width:0.26458332;stroke-linecap:round;stroke-linejoin:round;stroke-miterlimit:4;stroke-dasharray:none;stroke-opacity:0.98876403"
       id="path40"
       d="m 142.15311,516.54125 c -0.7634,0 -1.3836,0.637 -1.3836,1.4212 v 60.1575 c 0,0.7842 0.6202,1.4213 1.3836,1.4213 h 95.7329 c 0.7634,0 1.3836,-0.6371 1.3836,-1.4213 v -60.1574 c 0,-0.7843 -0.6202,-1.4213 -1.3836,-1.4213 z"
       inkscape:connector-curvature="0" />
    <path
       style="fill:none;fill-opacity:1;stroke:#000000;stroke-width:0.26458332;stroke-linecap:round;stroke-linejoin:round;stroke-miterlimit:4;stroke-dasharray:none;stroke-opacity:0.98876403"
       id="path42"
       d="m 142.15311,582.88385 c -0.7634,0 -1.3836,0.637 -1.3836,1.4213 v 60.1574 c 0,0.7842 0.6202,1.4213 1.3836,1.4213 l 95.7329,0 c 0.7634,0 1.3836,-0.6371 1.3836,-1.4213 v -60.1574 c 0,-0.7843 -0.6202,-1.4213 -1.3836,-1.4213 z"
       inkscape:connector-curvature="0" />
    <path
       style="fill:none;fill-opacity:1;stroke:#000000;stroke-width:0.26458332;stroke-linecap:round;stroke-linejoin:round;stroke-miterlimit:4;stroke-dasharray:none;stroke-opacity:0.98876403"
       id="path44"
       d="m 40.31061,383.85543 c -0.7634,0 -1.3835,0.63705 -1.3835,1.42129 v 60.15743 c 0,0.78424 0.62,1.42129 1.3835,1.42129 h 95.7329 c 0.7634,0 1.3835,-0.63702 1.3835,-1.42127 l 1e-4,-60.15743 c 0,-0.78424 -0.6202,-1.4213 -1.3836,-1.4213 z"
       inkscape:connector-curvature="0" />
    <path
       style="fill:none;fill-opacity:1;stroke:#000000;stroke-width:0.26458332;stroke-linecap:round;stroke-linejoin:round;stroke-miterlimit:4;stroke-dasharray:none;stroke-opacity:0.98876403"
       id="path46"
       d="m 40.31061,450.19829 c -0.7635,0 -1.3836,0.63706 -1.3836,1.4213 v 60.15746 c 0,0.7842 0.6201,1.4213 1.3836,1.4213 h 95.7329 c 0.7634,0 1.3835,-0.6371 1.3835,-1.4213 v -60.15746 c 0,-0.78424 -0.6202,-1.42129 -1.3836,-1.42129 z"
       inkscape:connector-curvature="0" />
    <path
       style="fill:none;fill-opacity:1;stroke:#000000;stroke-width:0.26458332;stroke-linecap:round;stroke-linejoin:round;stroke-miterlimit:4;stroke-dasharray:none;stroke-opacity:0.98876403"
       id="path48"
       d="m 40.31061,516.54125 c -0.7635,0 -1.3836,0.637 -1.3836,1.4213 v 60.1574 c 0,0.7842 0.6201,1.4213 1.3836,1.4213 h 95.7329 c 0.7634,0 1.3835,-0.6371 1.3835,-1.4213 l 1e-4,-60.1574 c 0,-0.7843 -0.6202,-1.4213 -1.3836,-1.4213 z"
       inkscape:connector-curvature="0" />
    <path
       style="fill:none;fill-opacity:1;stroke:#000000;stroke-width:0.26458332;stroke-linecap:round;stroke-linejoin:round;stroke-miterlimit:4;stroke-dasharray:none;stroke-opacity:0.98876403"
       id="path50"
       d="m 40.31061,582.88385 c -0.7635,0 -1.3836,0.637 -1.3836,1.4213 l 10e-5,60.1574 c 0,0.7842 0.6201,1.4213 1.3835,1.4213 h 95.7329 c 0.7634,0 1.3835,-0.6371 1.3835,-1.4213 l 1e-4,-60.1574 c 0,-0.7843 -0.6202,-1.4213 -1.3836,-1.4213 z"
       inkscape:connector-curvature="0" />
    <path
       style="fill:none;fill-opacity:1;stroke:#000000;stroke-width:0.26458332;stroke-linecap:round;stroke-linejoin:round;stroke-miterlimit:4;stroke-dasharray:none;stroke-opacity:0.98876403"
       id="path52"
       d="m -61.53209,383.85542 c -0.7634,0 -1.3836,0.63705 -1.3836,1.42129 l -1e-4,60.15742 c 0,0.78424 0.6203,1.4213 1.3837,1.4213 h 95.7328 c 0.7635,0 1.3835,-0.63703 1.3835,-1.42128 v -60.15742 c 0,-0.78424 -0.62,-1.4213 -1.3835,-1.4213 z"
       inkscape:connector-curvature="0" />
    <path
       style="fill:none;fill-opacity:1;stroke:#000000;stroke-width:0.26458332;stroke-linecap:round;stroke-linejoin:round;stroke-miterlimit:4;stroke-dasharray:none;stroke-opacity:0.98876403"
       id="path54"
       d="m -61.53219,450.1983 c -0.7634,0 -1.3836,0.63705 -1.3836,1.42129 v 60.15746 c 0,0.7842 0.6202,1.4213 1.3836,1.4213 h 95.7329 c 0.7634,0 1.3835,-0.6371 1.3835,-1.4213 v -60.15744 c 0,-0.78424 -0.6201,-1.4213 -1.3835,-1.4213 z"
       inkscape:connector-curvature="0" />
    <path
       style="fill:none;fill-opacity:1;stroke:#000000;stroke-width:0.26458332;stroke-linecap:round;stroke-linejoin:round;stroke-miterlimit:4;stroke-dasharray:none;stroke-opacity:0.98876403"
       id="path56"
       d="m -61.53219,516.54125 c -0.7634,0 -1.3836,0.637 -1.3836,1.4213 v 60.1574 c 0,0.7842 0.6202,1.4213 1.3836,1.4213 h 95.7329 c 0.7634,0 1.3835,-0.6371 1.3835,-1.4213 v -60.1574 c 0,-0.7842 -0.6201,-1.4213 -1.3835,-1.4213 z"
       inkscape:connector-curvature="0" />
    <path
       style="fill:none;fill-opacity:1;stroke:#000000;stroke-width:0.26458332;stroke-linecap:round;stroke-linejoin:round;stroke-miterlimit:4;stroke-dasharray:none;stroke-opacity:0.98876403"
       id="path58"
       d="m -61.53219,582.88385 c -0.7634,0 -1.3836,0.637 -1.3836,1.4213 l 1e-4,60.1574 c 0,0.7843 0.6202,1.4213 1.3836,1.4213 h 95.7328 c 0.7635,0 1.3836,-0.6371 1.3836,-1.4213 l -1e-4,-60.1574 c 0,-0.7843 -0.6201,-1.4213 -1.3835,-1.4213 z"
       inkscape:connector-curvature="0" />
    <path
       style="fill:none;fill-opacity:1;stroke:#000000;stroke-width:0.26458332;stroke-linecap:round;stroke-linejoin:round;stroke-miterlimit:4;stroke-dasharray:none;stroke-opacity:0.98876403"
       id="path60"
       d="m -163.37489,383.85544 c -0.7635,0 -1.3837,0.63706 -1.3837,1.4213 l -1e-4,60.15742 c 0,0.78424 0.6203,1.42129 1.3837,1.42129 l 95.7329,10e-6 c 0.7634,0 1.3835,-0.63704 1.3835,-1.42128 l 1e-4,-60.15743 c 0,-0.78424 -0.6202,-1.4213 -1.3836,-1.4213 z"
       inkscape:connector-curvature="0" />
    <path
       style="fill:none;fill-opacity:1;stroke:#000000;stroke-width:0.26458332;stroke-linecap:round;stroke-linejoin:round;stroke-miterlimit:4;stroke-dasharray:none;stroke-opacity:0.98876403"
       id="path62"
       d="m -163.37489,450.19831 c -0.7635,0 -1.3837,0.63705 -1.3837,1.42129 l -1e-4,60.15745 c 0,0.7842 0.6203,1.4213 1.3837,1.4213 h 95.7329 c 0.7634,0 1.3835,-0.6371 1.3835,-1.4213 l 1e-4,-60.15743 c 0,-0.78424 -0.6202,-1.42131 -1.3836,-1.42131 z"
       inkscape:connector-curvature="0" />
    <path
       style="fill:none;fill-opacity:1;stroke:#000000;stroke-width:0.26458332;stroke-linecap:round;stroke-linejoin:round;stroke-miterlimit:4;stroke-dasharray:none;stroke-opacity:0.98876403"
       id="path64"
       d="m -163.37489,516.54125 c -0.7635,0 -1.3837,0.637 -1.3837,1.4213 l -1e-4,60.1574 c 0,0.7842 0.6203,1.4213 1.3837,1.4213 h 95.7329 c 0.7634,0 1.3835,-0.637 1.3835,-1.4213 l 1e-4,-60.1574 c 0,-0.7842 -0.6202,-1.4213 -1.3836,-1.4213 z"
       inkscape:connector-curvature="0" />
    <path
       style="fill:none;fill-opacity:1;stroke:#000000;stroke-width:0.26458332;stroke-linecap:round;stroke-linejoin:round;stroke-miterlimit:4;stroke-dasharray:none;stroke-opacity:0.98876403"
       id="path66"
       d="m -163.37489,582.88385 c -0.7635,0 -1.3837,0.637 -1.3837,1.4213 l 1e-4,60.1574 c 0,0.7843 0.6202,1.4213 1.3836,1.4213 h 95.7329 c 0.7634,0 1.3835,-0.637 1.3835,-1.4213 v -60.1574 c 0,-0.7843 -0.6202,-1.4213 -1.3836,-1.4213 z"
       inkscape:connector-curvature="0" />
  </g>
</svg>
