<?xml version="1.0" encoding="UTF-8" standalone="no"?>
<!-- exported from Silhouette Studio Business Edition V4.1.206ssbe -->

<svg
   xmlns:dc="http://purl.org/dc/elements/1.1/"
   xmlns:cc="http://creativecommons.org/ns#"
   xmlns:rdf="http://www.w3.org/1999/02/22-rdf-syntax-ns#"
   xmlns:svg="http://www.w3.org/2000/svg"
   xmlns="http://www.w3.org/2000/svg"
   xmlns:sodipodi="http://sodipodi.sourceforge.net/DTD/sodipodi-0.dtd"
   xmlns:inkscape="http://www.inkscape.org/namespaces/inkscape"
   version="1.1"
   width="250mm"
   height="304.79999mm"
   viewBox="0 0 250 304.8"
   id="svg6"
   sodipodi:docname="T450s-TP.svg"
   inkscape:version="0.92.3 (2405546, 2018-03-11)">
  <metadata
     id="metadata10">
    <rdf:RDF>
      <cc:Work
         rdf:about="">
        <dc:format>image/svg+xml</dc:format>
        <dc:type
           rdf:resource="http://purl.org/dc/dcmitype/StillImage" />
        <dc:title></dc:title>
      </cc:Work>
    </rdf:RDF>
  </metadata>
  <sodipodi:namedview
     pagecolor="#ffffff"
     bordercolor="#666666"
     borderopacity="1"
     objecttolerance="10"
     gridtolerance="10"
     guidetolerance="10"
     inkscape:pageopacity="0"
     inkscape:pageshadow="2"
     inkscape:window-width="1664"
     inkscape:window-height="887"
     id="namedview8"
     showgrid="false"
     inkscape:zoom="0.57943475"
     inkscape:cx="619.22589"
     inkscape:cy="962.90256"
     inkscape:window-x="0"
     inkscape:window-y="28"
     inkscape:window-maximized="1"
     inkscape:current-layer="svg6" />
  <defs
     id="defs2" />
  <path
     d="m 6.8551503,98.519913 c 0,0.85459 1.1384,1.548797 2.53984,1.548797 H 60.315169 c 1.40144,0 2.53984,-0.694207 2.53984,-1.548797 V 2.6174894 c 0,-0.8546 -1.1384,-1.5488 -2.53984,-1.5488 H 9.3949903 c -1.40144,0 -2.53984,0.6942 -2.53984,1.5488 z"
     id="path4"
     inkscape:connector-curvature="0"
     style="fill:none;fill-opacity:1;stroke:#ff0000;stroke-width:0.1;stroke-linecap:round;stroke-linejoin:round;stroke-opacity:1" />
  <path
     d="m 64.630928,98.869109 c 0,0.854584 1.1384,1.548791 2.53984,1.548791 h 50.920162 c 1.40143,0 2.53983,-0.694207 2.53983,-1.548791 V 2.9667303 c 0,-0.8546 -1.1384,-1.5488 -2.53983,-1.5488 H 67.170768 c -1.40144,0 -2.53984,0.6942 -2.53984,1.5488 z"
     id="path4-3"
     inkscape:connector-curvature="0"
     style="fill:none;fill-opacity:1;stroke:#ff0000;stroke-width:0.1;stroke-linecap:round;stroke-linejoin:round;stroke-opacity:1" />
  <path
     d="m 122.33821,98.85461 c 0,0.85459 1.1384,1.5488 2.53984,1.5488 h 50.92018 c 1.40144,0 2.53984,-0.69421 2.53984,-1.5488 V 2.9522241 c 0,-0.8546 -1.1384,-1.5488 -2.53984,-1.5488 h -50.92018 c -1.40144,0 -2.53984,0.6942 -2.53984,1.5488 z"
     id="path4-6"
     inkscape:connector-curvature="0"
     style="fill:none;fill-opacity:1;stroke:#ff0000;stroke-width:0.1;stroke-linecap:round;stroke-linejoin:round;stroke-opacity:1" />
  <path
     d="m 180.11399,99.20381 c 0,0.85458 1.1384,1.54879 2.53984,1.54879 h 50.92016 c 1.40143,0 2.53983,-0.69421 2.53983,-1.54879 V 3.3014651 c 0,-0.8546 -1.1384,-1.5488 -2.53983,-1.5488 h -50.92016 c -1.40144,0 -2.53984,0.6942 -2.53984,1.5488 z"
     id="path4-3-7"
     inkscape:connector-curvature="0"
     style="fill:none;fill-opacity:1;stroke:#ff0000;stroke-width:0.1;stroke-linecap:round;stroke-linejoin:round;stroke-opacity:1" />
</svg>
