<?xml version="1.0" encoding="UTF-8" standalone="no"?>
<!-- Created with Inkscape (http://www.inkscape.org/) -->

<svg
   xmlns:dc="http://purl.org/dc/elements/1.1/"
   xmlns:cc="http://creativecommons.org/ns#"
   xmlns:rdf="http://www.w3.org/1999/02/22-rdf-syntax-ns#"
   xmlns:svg="http://www.w3.org/2000/svg"
   xmlns="http://www.w3.org/2000/svg"
   xmlns:sodipodi="http://sodipodi.sourceforge.net/DTD/sodipodi-0.dtd"
   xmlns:inkscape="http://www.inkscape.org/namespaces/inkscape"
   width="30cm"
   height="29.700001cm"
   viewBox="0 0 300 297"
   version="1.1"
   id="svg8"
   inkscape:version="0.92.3 (2405546, 2018-03-11)"
   sodipodi:docname="t450_t550_t541_tp.svg">
  <defs
     id="defs2" />
  <sodipodi:namedview
     id="base"
     pagecolor="#ffffff"
     bordercolor="#666666"
     borderopacity="1.0"
     inkscape:pageopacity="0.0"
     inkscape:pageshadow="2"
     inkscape:zoom="0.24814453"
     inkscape:cx="441.89674"
     inkscape:cy="323.2103"
     inkscape:document-units="mm"
     inkscape:current-layer="layer1"
     showgrid="false"
     inkscape:window-width="1664"
     inkscape:window-height="887"
     inkscape:window-x="0"
     inkscape:window-y="28"
     inkscape:window-maximized="1"
     units="cm"
     inkscape:snap-bbox="true"
     inkscape:bbox-paths="true"
     inkscape:snap-bbox-edge-midpoints="true"
     inkscape:bbox-nodes="true"
     inkscape:snap-bbox-midpoints="true" />
  <metadata
     id="metadata5">
    <rdf:RDF>
      <cc:Work
         rdf:about="">
        <dc:format>image/svg+xml</dc:format>
        <dc:type
           rdf:resource="http://purl.org/dc/dcmitype/StillImage" />
        <dc:title></dc:title>
      </cc:Work>
    </rdf:RDF>
  </metadata>
  <g
     inkscape:label="Layer 1"
     inkscape:groupmode="layer"
     id="layer1"
     transform="translate(0,-7.6293945e-6)">
    <path
       style="opacity:1;vector-effect:none;fill:#000000;fill-opacity:1;fill-rule:evenodd;stroke:#000000;stroke-width:0.3730711;stroke-linecap:butt;stroke-linejoin:miter;stroke-miterlimit:4;stroke-dasharray:none;stroke-dashoffset:0;stroke-opacity:1"
       d="M 59.045709,4.8799796 V 101.00691 c 0,0.831 -0.669,1.5 -1.5,1.5 H 4.9187791 c -0.831,0 -1.5,-0.669 -1.5,-1.5 V 4.8799796 c 0,-0.831 0.669,-1.5 1.5,-1.5 H 57.545709 c 0.831,0 1.5,0.669 1.5,1.5 z"
       id="rect10"
       inkscape:connector-curvature="0" />
    <path
       style="opacity:1;vector-effect:none;fill:#000000;fill-opacity:1;fill-rule:evenodd;stroke:#000000;stroke-width:0.3730711;stroke-linecap:butt;stroke-linejoin:miter;stroke-miterlimit:4;stroke-dasharray:none;stroke-dashoffset:0;stroke-opacity:1"
       d="M 116.10405,4.8799796 V 101.00691 c 0,0.831 -0.669,1.5 -1.5,1.5 H 61.977114 c -0.831,0 -1.5,-0.669 -1.5,-1.5 V 4.8799796 c 0,-0.831 0.669,-1.5 1.5,-1.5 h 52.626936 c 0.831,0 1.5,0.669 1.5,1.5 z"
       id="rect10-3"
       inkscape:connector-curvature="0" />
    <path
       style="opacity:1;vector-effect:none;fill:#000000;fill-opacity:1;fill-rule:evenodd;stroke:#000000;stroke-width:0.3730711;stroke-linecap:butt;stroke-linejoin:miter;stroke-miterlimit:4;stroke-dasharray:none;stroke-dashoffset:0;stroke-opacity:1"
       d="M 173.16239,4.8799796 V 101.00691 c 0,0.831 -0.669,1.5 -1.5,1.5 h -52.62693 c -0.831,0 -1.5,-0.669 -1.5,-1.5 V 4.8799796 c 0,-0.831 0.669,-1.5 1.5,-1.5 h 52.62693 c 0.831,0 1.5,0.669 1.5,1.5 z"
       id="rect10-6"
       inkscape:connector-curvature="0" />
    <path
       style="opacity:1;vector-effect:none;fill:#000000;fill-opacity:1;fill-rule:evenodd;stroke:#000000;stroke-width:0.3730711;stroke-linecap:butt;stroke-linejoin:miter;stroke-miterlimit:4;stroke-dasharray:none;stroke-dashoffset:0;stroke-opacity:1"
       d="M 230.22074,4.8799796 V 101.00691 c 0,0.831 -0.669,1.5 -1.5,1.5 H 176.0938 c -0.831,0 -1.5,-0.669 -1.5,-1.5 V 4.8799796 c 0,-0.831 0.669,-1.5 1.5,-1.5 h 52.62694 c 0.831,0 1.5,0.669 1.5,1.5 z"
       id="rect10-3-7"
       inkscape:connector-curvature="0" />
    <path
       style="opacity:1;vector-effect:none;fill:#000000;fill-opacity:1;fill-rule:evenodd;stroke:#000000;stroke-width:0.3730711;stroke-linecap:butt;stroke-linejoin:miter;stroke-miterlimit:4;stroke-dasharray:none;stroke-dashoffset:0;stroke-opacity:1"
       d="m 59.045709,105.43832 v 96.12694 c 0,0.831 -0.668999,1.5 -1.499999,1.5 H 4.9187791 c -0.831,0 -1.5,-0.669 -1.5,-1.5 v -96.12694 c 0,-0.831 0.669,-1.5 1.5,-1.5 H 57.54571 c 0.831,0 1.499999,0.669 1.499999,1.5 z"
       id="rect10-5"
       inkscape:connector-curvature="0" />
    <path
       style="opacity:1;vector-effect:none;fill:#000000;fill-opacity:1;fill-rule:evenodd;stroke:#000000;stroke-width:0.3730711;stroke-linecap:butt;stroke-linejoin:miter;stroke-miterlimit:4;stroke-dasharray:none;stroke-dashoffset:0;stroke-opacity:1"
       d="m 116.10405,105.43832 v 96.12694 c 0,0.831 -0.669,1.5 -1.5,1.5 H 61.977115 c -0.831,0 -1.499999,-0.669 -1.499999,-1.5 v -96.12694 c 0,-0.831 0.668999,-1.5 1.499999,-1.5 h 52.626935 c 0.831,0 1.5,0.669 1.5,1.5 z"
       id="rect10-3-3"
       inkscape:connector-curvature="0" />
    <path
       style="opacity:1;vector-effect:none;fill:#000000;fill-opacity:1;fill-rule:evenodd;stroke:#000000;stroke-width:0.3730711;stroke-linecap:butt;stroke-linejoin:miter;stroke-miterlimit:4;stroke-dasharray:none;stroke-dashoffset:0;stroke-opacity:1"
       d="m 173.16239,105.43832 v 96.12694 c 0,0.831 -0.669,1.5 -1.5,1.5 h -52.62693 c -0.831,0 -1.5,-0.669 -1.5,-1.5 v -96.12694 c 0,-0.831 0.669,-1.5 1.5,-1.5 h 52.62693 c 0.831,0 1.5,0.669 1.5,1.5 z"
       id="rect10-6-5"
       inkscape:connector-curvature="0" />
    <path
       style="opacity:1;vector-effect:none;fill:#000000;fill-opacity:1;fill-rule:evenodd;stroke:#000000;stroke-width:0.3730711;stroke-linecap:butt;stroke-linejoin:miter;stroke-miterlimit:4;stroke-dasharray:none;stroke-dashoffset:0;stroke-opacity:1"
       d="m 230.22074,105.43832 v 96.12694 c 0,0.831 -0.669,1.5 -1.5,1.5 H 176.0938 c -0.831,0 -1.5,-0.669 -1.5,-1.5 v -96.12694 c 0,-0.831 0.669,-1.5 1.5,-1.5 h 52.62694 c 0.831,0 1.5,0.669 1.5,1.5 z"
       id="rect10-3-7-6"
       inkscape:connector-curvature="0" />
  </g>
</svg>
