<?xml version="1.0" encoding="utf-8"?>
<!-- Generator: Adobe Illustrator 25.4.1, SVG Export Plug-In . SVG Version: 6.00 Build 0)  -->
<svg version="1.1" id="Layer_1" xmlns="http://www.w3.org/2000/svg" xmlns:xlink="http://www.w3.org/1999/xlink" x="0px" y="0px"
	 viewBox="0 0 4280.3 1133.9" style="enable-background:new 0 0 4280.3 1133.9;" xml:space="preserve">
<style type="text/css">
	.st0{fill:#010101;}
	.st1{fill:none;stroke:#010101;stroke-miterlimit:10;}
</style>
<g>
	<path id="path817" class="st0" d="M591.3,414.2L591.3,414.2l-7.3-4.9l-7.2-4.9l-0.3,0.8l-0.3,0.8l-0.4,0.8l-0.4,0.8l-0.5,0.6
		l-0.5,0.6l-0.4,0.4l-0.4,0.4l-0.7,0.6l-0.7,0.6l-0.8,0.4l-0.8,0.4l-0.6,0.2l-0.6,0.2l-0.4,0.1l-0.4,0.1l-0.4,0.1l-0.4,0.1l-0.7,0.1
		l-0.7,0.1h-5.8h-5.8l0-11.9l0-11.9l0.1,0l0.1,0l5.6,0l5.6,0l0.6,0.1l0.6,0.1l1,0.2l1,0.2l0.9,0.4l0.9,0.4l0.5,0.3l0.5,0.3l0.5,0.4
		l0.5,0.4l0.7,0.7l0.7,0.7l0.3,0.4l0.3,0.4l0.4,0.8l0.4,0.8l0.2,0.6l0.2,0.6l0.1,0.1l0.1,0.1l0.2-0.1l0.2-0.1l7.1-4.6l7.1-4.6l0.1,0
		l0.1,0l2.6,1.8l2.6,1.8l0,0.1l0,0.1l-5.6,3.6l-5.6,3.6l0,0l0,0l0.8,0.5l0.8,0.5l0.3-0.2l0.3-0.2l5.4-3.5l5.4-3.5h0.1h0.1l2.4,1.6
		l2.4,1.6v0.1v0.1l-3.4,2.3l-3.4,2.3l-2.2,1.4l-2.2,1.4l0.9,0.5l0.9,0.5l5.7-3.7l5.7-3.7l0-4l0-4h4.3h4.3l0,8l0,8l3.8,0l3.8,0v3.8
		v3.8l-8.1,0l-8.1,0l0-3.8l0-3.8l-7.1,4.5L591.3,414.2L591.3,414.2L591.3,414.2z M591.3,414L591.3,414l7.1-4.5l7-4.5l0.1,0l0.1,0
		v3.9v3.9l8,0l8,0l0-3.7l0-3.7h-3.8H614v-8v-8h-4.2h-4.2v4v4l-5.7,3.7l-5.7,3.7l-0.1,0l-0.1,0l-1-0.6l-1-0.6l0-0.1l0-0.1l5.6-3.7
		l5.6-3.7v0v0l-2.4-1.6l-2.4-1.6l-0.1,0l-0.1,0l-5.7,3.6l-5.7,3.6H587h-0.1l-0.9-0.6l-0.9-0.6l0-0.1l0-0.1l5.6-3.6l5.6-3.6l0,0l0,0
		l-2.4-1.6l-2.4-1.6l-0.2-0.1l-0.2-0.1l-7.3,4.7l-7.3,4.7l-0.1,0l-0.1,0l-0.1-0.2l-0.1-0.2l-0.2-0.6l-0.2-0.6l-0.5-0.8l-0.5-0.8
		l-0.4-0.5l-0.4-0.5l-0.3-0.3l-0.3-0.3l-0.5-0.4l-0.5-0.4l-0.4-0.3l-0.4-0.3l-0.4-0.2l-0.4-0.2l-0.9-0.4l-0.9-0.4l-1-0.2l-1-0.2
		l-0.6-0.1l-0.6-0.1h-5.6h-5.6l0,11.7l0,11.7h5.7h5.7l0.7-0.1l0.7-0.1l0.5-0.1l0.5-0.1l0.5-0.1l0.5-0.1l0.6-0.2l0.6-0.2l0.7-0.4
		l0.7-0.4l0.8-0.6l0.8-0.6l0.4-0.5l0.4-0.5l0.4-0.5l0.4-0.5l0.4-0.9l0.4-0.9l0.2-0.7l0.2-0.7l0.1,0l0.1,0l7.2,4.9L591.3,414
		L591.3,414L591.3,414z M564.1,405.2l-1.1,0l0-0.1l0-0.1l0-4.3l0-4.3l1.6,0l1.6,0l0.5,0.2l0.5,0.2l0.4,0.2l0.4,0.2l0.4,0.4l0.4,0.4
		l0.3,0.5l0.3,0.5l0.1,0.5l0.1,0.5l0,0.8l0,0.8l-0.1,0.4l-0.1,0.4l-0.2,0.4l-0.2,0.4l-0.3,0.3l-0.3,0.3l-0.3,0.3l-0.3,0.3l-0.3,0.2
		l-0.3,0.2l-0.4,0.1l-0.4,0.1l-0.5,0.1l-0.5,0.1L564.1,405.2L564.1,405.2z M564.1,405.1l1,0l0.5-0.1l0.5-0.1l0.4-0.1l0.4-0.1
		l0.4-0.2l0.4-0.2l0.3-0.2l0.3-0.2l0.3-0.4l0.3-0.4l0.2-0.3l0.2-0.3l0.1-0.4l0.1-0.4v-0.7v-0.7l-0.1-0.4l-0.1-0.4l-0.2-0.3l-0.2-0.3
		l-0.2-0.4l-0.2-0.4l-0.3-0.3l-0.3-0.3l-0.3-0.2l-0.3-0.2l-0.4-0.1l-0.4-0.1l-0.5-0.1l-0.5-0.1l-1.1,0l-1.1,0v4.3v4.3L564.1,405.1
		L564.1,405.1z M631.7,412.8l-8.1,0l0-11.9l0-11.9h4.3h4.3l0,8l0,8l3.7,0l3.7,0v3.8v3.8L631.7,412.8z M631.7,412.6l8,0l0-3.7l0-3.7
		H636h-3.8v-8v-8H628h-4.2v11.8v11.8L631.7,412.6z"/>
	<circle class="st1" cx="597.3" cy="400.8" r="51"/>
</g>
</svg>
