<?xml version="1.0" encoding="utf-8"?>
<!DOCTYPE svg PUBLIC "-//W3C//DTD SVG 1.1//EN" "http://www.w3.org/Graphics/SVG/1.1/DTD/svg11.dtd">
<!-- exported from Silhouette Studio Business Edition V4.1.454ssbe -->
<svg version="1.1" xmlns="http://www.w3.org/2000/svg" xmlns:xlink="http://www.w3.org/1999/xlink" width="304.8mm" height="451mm" viewBox="0 0 304.8 451">
<defs/>
<g>
<path d="M 218.3713 110.9784 C 219.8092 111.4342 223.2841 112.382 227.6174 114.9321 C 228.3235 115.3476 231.1992 117.0094 234.2457 119.7482 C 237.7497 122.8982 239.8418 125.8523 241.7571 128.8221 C 241.8862 129.0775 242.0359 129.322 242.1069 129.4462 C 242.1069 129.4462 242.3269 129.8255 242.5029 130.1382 C 242.9397 130.9144 243.9483 132.7499 244.9906 135.53 C 247.1602 141.3168 247.4004 145.7844 247.4818 147.6367 C 247.5573 149.3547 247.7106 153.4701 246.3963 159.0495 C 246.1351 160.1579 245.0144 164.6912 242.1702 169.6236 C 240.9852 171.6787 238.6681 175.2473 234.7695 178.8931 C 230.7509 182.6511 226.7444 184.7163 225.7656 185.2191 C 221.8549 187.228 218.0837 188.3063 215.3887 188.8424 C 214.5549 189.0083 213.716 189.158 212.5895 189.2835 C 212.3997 189.3047 210.5007 189.5149 208.785 189.6069 C 207.7543 189.6622 207.3084 189.6632 205.8358 189.5858 C 205.8358 189.5858 204.5318 189.5068 203.8314 189.4432 C 202.9091 189.3594 200.735 189.1779 197.743 188.4177 C 196.9392 188.2134 194.7922 187.6372 192.4891 186.6962 C 191.2586 186.1935 189.1133 185.2524 186.5538 183.7052 C 186.1358 183.4525 184.465 182.4213 182.5564 180.8969 C 180.7948 179.4899 179.2 177.8817 178.4228 177.0652 C 178.2455 176.8789 176.6257 175.2068 175.1247 173.1187 C 171.9095 168.6462 170.4861 164.9634 169.9103 163.4145 C 169.5228 162.3719 168.8077 160.2541 168.3432 158.0786 C 168.3432 158.0786 167.8258 155.407 167.731 154.5057 C 167.6932 154.1466 167.46 150.5341 167.5506 147.285 C 167.5951 145.6894 167.6759 144.5423 167.9926 142.7458 C 168.0408 142.473 168.4818 140.0086 169.3047 137.3638 C 169.391 137.0863 169.5041 136.7154 169.6013 136.4414 C 169.66 136.276 169.7496 136.0597 169.8131 135.8961 C 169.8767 135.7325 169.9614 135.5144 170.025 135.3507 C 170.025 135.3507 170.4266 134.3142 170.4486 134.26 C 170.5023 134.1281 170.5814 133.9552 170.6342 133.823 C 170.6869 133.6908 170.7448 133.5098 170.8002 133.3788 C 170.9566 133.0091 171.1964 132.5298 171.3736 132.1695 C 171.5025 131.9075 171.6811 131.5615 171.8159 131.3026 C 171.8159 131.3026 172.5802 129.8357 173.2795 128.6785 C 174.2204 127.1214 174.9202 126.217 175.8784 124.9458" fill="none" fill-opacity="1" stroke="#000000" stroke-opacity="1" stroke-width="0.4409722" stroke-linecap="round" stroke-linejoin="round"/>
<path d="M 196.7106 111.1483 C 196.6874 111.2407 196.6611 111.3652 196.6333 111.4563 C 196.5983 111.5708 196.5387 111.7191 196.4978 111.8316 C 196.4978 111.8316 195.7898 113.7683 195.6132 114.2526 L 193.0548 121.2768 L 187.9381 135.325 L 178.7344 160.5978 C 178.7344 160.5978 177.6374 163.6165 177.4438 164.1492 L 176.8093 165.8897 C 176.7216 166.1474 176.6181 166.4954 176.5361 166.755 L 176.5479 166.7734 C 176.6321 166.7872 176.8857 166.8277 177.113 166.8389 C 177.113 166.8389 177.9324 166.8491 178.7518 166.8469 C 178.7518 166.8469 184.5032 166.832 184.8059 166.8313 C 184.8059 166.8313 193.916 141.8393 194.9282 139.0624 C 194.9282 139.0624 195.2863 138.093 195.3781 137.8516 C 195.4667 137.6185 195.4754 137.5915 195.5964 137.3423 L 195.6344 137.324 C 196.3135 137.232 196.3857 137.2494 197.0023 137.2377 C 199.497 137.1904 199.9969 137.2275 201.9924 137.2746 C 201.9763 137.3609 201.9603 137.4772 201.9385 137.5622 C 201.9111 137.6691 201.8594 137.8073 201.8238 137.9118 C 201.7782 138.0454 201.7143 138.2225 201.6669 138.3554 C 201.6669 138.3554 201.2141 139.6125 201.1638 139.7521 C 201.1638 139.7521 198.3526 147.4794 198.2046 147.8861 L 192.8116 162.7131 C 192.7671 162.8357 192.0101 164.9189 191.922 165.1643 C 191.8431 165.3841 191.7343 165.6761 191.6615 165.898 C 191.5831 166.1371 191.4919 166.4601 191.4193 166.701 L 191.4242 166.7311 L 191.4418 166.7579 L 191.4765 166.7814 L 191.5326 166.802 C 191.6895 166.8183 191.8982 166.8465 192.0557 166.8565 C 192.2389 166.8681 192.4839 166.8679 192.6674 166.8703 C 192.8582 166.8727 193.1126 166.8718 193.3034 166.8725 C 193.3034 166.8725 194.9251 166.8782 195.2113 166.8791 C 195.3663 166.8796 197.3808 166.8801 198.3102 166.8549 L 199.1563 166.8321 C 199.2739 166.8233 199.4296 166.7982 199.5467 166.7838 L 199.5962 166.7661 L 199.6232 166.7467 C 199.8328 166.2084 200.329 164.9549 200.9928 163.1473 L 205.8976 149.649 C 205.8976 149.649 206.8461 147.0295 206.896 146.8917 C 206.896 146.8917 208.4935 142.4798 208.8928 141.3769 C 208.9926 141.1011 209.1267 140.7338 209.2256 140.4577 C 209.3197 140.1952 209.4445 139.8449 209.5362 139.5815 C 209.5362 139.5815 209.7901 138.8689 209.874 138.556 C 209.9886 138.1286 210.1043 137.5094 210.1063 136.8015 C 210.107 136.5414 210.0764 135.8268 209.8119 135.0928 C 209.6931 134.7632 209.363 133.9363 208.4752 133.1776 C 208.4752 133.1776 207.758 132.5267 206.8737 132.2878 C 206.6224 132.2199 206.2336 132.1537 205.5842 132.1107 C 204.8689 132.0632 202.4782 132.0429 200.8054 132.0293 C 200.722 132.0286 199.8053 132.0249 199.1385 132.0171 C 199.1385 132.0171 198.078 131.9986 197.9609 131.9856 C 197.8774 131.9764 197.7682 131.9495 197.6857 131.9341 L 197.6468 131.9118 L 197.6265 131.8867 L 197.6207 131.8584 C 197.6498 131.7445 197.6841 131.5915 197.7177 131.4789 C 197.754 131.3572 197.8132 131.1985 197.8548 131.0786 C 197.9057 130.9318 197.9742 130.7363 198.0262 130.5899 L 198.3844 129.5949 C 198.3844 129.5949 200.3996 124.0558 200.7555 123.0785 L 205.6873 109.536 L 205.7502 109.5344" fill="none" fill-opacity="1" stroke="#000000" stroke-opacity="1" stroke-width="0.4409722" stroke-linecap="round" stroke-linejoin="round"/>
<path d="M 206.1369 189.2458 C 206.5043 188.4724 206.492 188.4654 206.7877 187.6619 L 207.3994 185.9853 C 207.3994 185.9853 208.6992 182.4224 208.9286 181.7936 C 208.9286 181.7936 211.834 173.8296 211.9869 173.4104 C 212.6756 171.5226 213.9005 168.0455 214.3049 167.1258 L 214.3606 167.0483 L 214.4115 167.0186 L 214.4888 166.9929 C 215.0954 166.9167 215.2337 166.9198 215.8451 166.9126 C 215.8451 166.9126 216.9924 166.8989 217.0527 166.8983 C 217.0527 166.8983 226.2812 166.8346 226.7669 166.8312 C 227.6221 166.4325 228.528 166.0125 229.3909 165.0969 C 230.0541 164.3932 230.2076 163.9536 230.6934 162.6604 C 231.1293 161.5 237.9239 142.8661 239.138 139.3511 C 239.2635 138.9877 239.3657 138.7483 239.4995 138.1216 C 239.4995 138.1216 239.5957 137.6586 239.6302 137.1889 C 239.6556 136.8444 239.6909 135.9823 239.2543 134.9167 C 239.1364 134.6289 238.8347 133.9068 238.0515 133.227 C 237.3733 132.6383 236.4927 132.2961 236.0534 132.2031 C 235.5585 132.0983 234.7416 132.0967 234.0335 132.0849 C 234.0335 132.0849 228.658 132.048 226.3541 132.0426 C 224.0665 132.0372 221.0162 132.0385 218.7285 132.0367 C 218.7285 132.0367 204.0947 172.1238 203.3255 174.234 C 203.3255 174.234 200.5991 181.6726 199.9233 183.5343 C 199.2521 185.3833 199.0914 185.8483 198.2973 188.1752 L 198.3365 188.2254 C 198.8714 188.4338 198.9361 188.4291 199.4409 188.5391 C 199.973 188.655 201.0463 188.8485 202.1261 188.9902 C 202.7126 189.0671 203.5948 189.1738 205.0706 189.2685 C 205.0706 189.2685 205.6254 189.3094 205.7235 189.3103 C 205.8086 189.3111 205.9218 189.3013 206.0068 189.2974 L 206.0826 189.2762 L 206.1369 189.2458" fill="none" fill-opacity="1" stroke="#000000" stroke-opacity="1" stroke-width="0.4409722" stroke-linecap="round" stroke-linejoin="round"/>
<path d="M 216.3372 161.564 C 216.4798 161.1391 216.6654 160.571 216.8125 160.1476 C 217.0288 159.5245 217.3306 158.6984 217.5553 158.0783 L 221.6508 146.8618 C 221.6508 146.8618 223.4142 142.03 223.5074 141.7759 L 224.0765 140.2233 C 224.0765 140.2233 224.5318 138.9813 224.6456 138.6707 C 224.6456 138.6707 224.9018 137.972 224.9302 137.8944 C 224.9302 137.8944 225.0366 137.5809 225.0725 137.5063 C 225.0955 137.4584 225.1368 137.4003 225.1644 137.3548 L 225.257 137.2577 L 225.3445 137.2229 C 226.2706 137.2199 228.4317 137.2229 231.5185 137.2599 C 231.4262 137.6399 231.4274 137.6412 231.2986 138.0104 C 231.1938 138.3105 231.0495 138.709 230.9418 139.008 C 230.9418 139.008 230.3221 140.7197 230.2127 141.0218 C 230.2127 141.0218 226.5164 151.3221 222.7106 161.5821 L 222.6227 161.6093 C 222.6227 161.6093 222.2395 161.6436 221.8554 161.6619 C 221.6779 161.6704 219.9008 161.7316 218.3022 161.6977 C 217.3271 161.677 217.1303 161.6699 216.3552 161.5803 L 216.3372 161.564" fill="none" fill-opacity="1" stroke="#000000" stroke-opacity="1" stroke-width="0.4409722" stroke-linecap="round" stroke-linejoin="round"/>
<path d="M 175.0099 126.0197 C 175.0934 125.9109 176.0054 124.7089 176.7103 123.8687 C 177.0326 123.4845 177.7854 122.5854 178.9553 121.3913 C 179.1067 121.2368 180.4632 119.8289 182.1461 118.47 C 182.6018 118.1021 183.677 117.2527 185.3033 116.1726 L 186.3792 115.4581 C 186.4838 115.3897 186.621 115.2949 186.7296 115.2331 C 186.7805 115.2042 186.8527 115.1739 186.9042 115.1459 C 186.9042 115.1459 187.8458 114.594 188.0846 114.4619 C 188.4072 114.2834 188.8407 114.0512 189.1681 113.8815 C 189.1681 113.8815 189.8773 113.517 190.601 113.1829 C 191.0829 112.9604 193.0199 112.0629 195.5543 111.276 C 197.8927 110.5499 200.7947 109.8256 205.1925 109.5346" fill="none" fill-opacity="1" stroke="#000000" stroke-opacity="1" stroke-width="0.4409722" stroke-linecap="round" stroke-linejoin="round"/>
<path d="M 205.7355 109.5084 C 208.0952 109.4225 210.1345 109.4734 212.4767 109.7729 C 215.0015 110.0957 216.7786 110.5487 219.5801 111.3321" fill="none" fill-opacity="1" stroke="#000000" stroke-opacity="1" stroke-width="0.4409722" stroke-linecap="round" stroke-linejoin="round"/>
</g>
<path d="M 218.2601 111.3755 C 218.8198 111.5482 220.5093 112.0443 221.961 112.6205 C 222.1874 112.7104 223.316 113.1708 224.1983 113.5843 C 225.1472 114.029 227.6645 115.2895 230.2404 117.092 C 231.3294 117.854 233.2032 119.2622 235.3346 121.36 C 236.012 122.0267 236.941 122.9843 237.9128 124.154 C 238.4647 124.8182 239.0064 125.4941 239.9925 126.9121 C 240.0547 127.0016 240.9194 128.2587 241.2119 128.7183 C 241.2726 128.8136 241.3543 128.9403 241.4095 129.0389 C 241.439 129.0916 241.4713 129.1656 241.5003 129.2185 C 241.6774 129.5416 241.8931 129.8429 242.2454 130.4901 C 242.5196 130.9938 243.6198 133.0228 244.6247 135.7086 C 245.5417 138.1592 246.9673 142.6676 247.1112 148.5533 C 247.1787 151.3107 247.0383 156.3059 245.076 162.1938 C 244.6945 163.3388 244.1044 164.9292 243.2729 166.6721 C 243.0169 167.2088 241.9836 169.37 240.3117 171.8286 C 238.5077 174.4815 236.7246 176.3571 236.2831 176.8227 C 235.2613 177.9003 233.412 179.764 230.7075 181.7259 C 229.2472 182.7852 227.4563 183.9134 225.5818 184.8704 C 225.1073 185.1126 223.1989 186.0867 220.687 186.9727 C 219.3163 187.4562 216.5171 188.3284 213.6417 188.7541 C 212.0755 188.9859 208.5946 189.2735 207.3282 189.2503 C 207.3282 189.2503 205.2352 189.1738 203.5305 189.0125 C 203.1838 188.9797 201.7922 188.8535 200.0818 188.5264 C 199.4378 188.4032 196.8388 187.9069 193.7659 186.7637 C 188.1573 184.6773 184.2822 181.833 182.2433 180.1252 C 181.7666 179.7259 179.8576 178.108 177.7838 175.7914 C 176.7505 174.6371 175.3932 172.9281 174.0592 170.839 C 172.5755 168.5156 171.3707 166.016 170.8507 164.7394 C 170.7358 164.4572 170.5965 164.0754 170.4858 163.7915 C 170.4169 163.6146 170.3199 163.3808 170.2534 163.203 C 170.2534 163.203 169.9819 162.4588 169.7401 161.7047 C 169.7401 161.7047 169.2817 160.2828 168.9254 158.8337 C 168.9254 158.8337 168.7688 158.176 168.6977 157.819 C 168.6739 157.6998 168.3466 155.9054 168.2681 155.4254 C 168.2128 155.0869 168.1438 154.7489 168.0923 154.0649 C 168.0859 153.9791 168.0358 153.12 168.0074 152.3461 C 167.9233 150.0458 167.8932 147.4094 168.0108 145.7695 C 168.1237 144.1932 168.4104 142.3011 169.1176 139.5457 C 169.1943 139.2466 169.5797 137.7488 169.983 136.5813 C 170.1409 136.1244 170.2865 135.7773 170.3644 135.5771 C 170.4014 135.4822 170.4476 135.3544 170.4845 135.2595 C 170.5654 135.0517 170.6758 134.7757 170.7605 134.5695 C 170.7605 134.5695 171.0967 133.7744 171.1287 133.684 C 171.1428 133.6443 171.1552 133.5892 171.1698 133.5497 C 171.2031 133.4598 171.2587 133.3446 171.2982 133.2573 C 171.5917 132.6077 172.2523 131.3433 172.3641 131.1336 C 174.0254 128.0177 175.1321 126.6102 176.1967 125.2018" fill="none" fill-opacity="1" stroke="#000000" stroke-opacity="1" stroke-width="0.4409722" stroke-linecap="round" stroke-linejoin="round"/>
<path d="M 196.4573 110.8881 L 179.1698 158.3512 C 177.8753 161.909 176.5503 165.4571 175.97 167.2589 L 175.9821 167.278 C 176.4297 167.3483 176.5334 167.3453 176.9865 167.3475 L 177.8306 167.3516 L 184.4903 167.3375 C 184.4903 167.3375 191.2454 148.8059 191.601 147.8306 L 194.9192 138.7273 C 194.9192 138.7273 195.2797 137.7577 195.2986 137.7066 C 195.3977 137.44 195.4352 137.3229 195.6077 136.955 C 195.8829 136.8791 196.1743 136.8661 196.745 136.8549 C 196.745 136.8549 197.9953 136.8321 198.216 136.8303 C 200.0078 136.8155 200.2072 136.8362 202.1975 136.8853 C 202.1796 136.978 202.1615 137.1028 202.1378 137.1941 C 202.1102 137.3004 202.0591 137.4379 202.0237 137.5418 C 201.9181 137.8515 201.7706 138.2622 201.6601 138.5702 C 201.6601 138.5702 199.9722 143.21 199.0633 145.7084 L 195.4333 155.6914 C 195.4333 155.6914 193.7791 160.2471 193.0702 162.1995 C 192.9315 162.5813 191.7519 165.8264 191.6849 166.0182 C 191.6439 166.1357 191.4881 166.6088 191.304 167.2033 L 191.3091 167.2344 L 191.3272 167.2619 L 191.363 167.2862 L 191.4208 167.3074 C 191.5825 167.3242 191.7975 167.3532 191.9598 167.3635 C 192.1485 167.3754 192.4009 167.3753 192.59 167.3777 C 192.8134 167.3806 193.1112 167.3796 193.3347 167.3804 C 193.3347 167.3804 194.4517 167.3844 194.824 167.3857 C 194.824 167.3857 197.4022 167.3834 198.2615 167.3685 C 198.4886 167.3645 198.7917 167.3632 199.0185 167.3499 C 199.2167 167.3382 199.4799 167.307 199.6776 167.2886 L 199.7287 167.2704 L 199.7564 167.2504 C 199.8361 167.0618 199.9464 166.8119 200.0221 166.6216 C 200.1037 166.4165 200.2032 166.1393 200.2798 165.9322 C 200.4511 165.4692 200.6758 164.8506 200.8455 164.387 C 200.959 164.0768 203.1091 158.1796 203.1091 158.1796 C 203.1091 158.1796 204.8962 153.2614 206.6827 148.3429 C 206.6827 148.3429 208.0228 144.6538 208.0933 144.4597 L 209.5038 140.5763 C 209.5038 140.5763 210.0342 139.1756 210.2562 138.4013 C 210.2562 138.4013 210.5287 137.5117 210.5606 136.5977 C 210.5917 135.7088 210.376 134.6009 209.8143 133.7283 C 209.5978 133.392 209.2325 132.9479 208.7295 132.552 C 208.7295 132.552 208.2614 132.1839 207.8253 131.9796 C 207.5454 131.8486 207.2519 131.7171 206.6404 131.628 C 205.9651 131.5296 204.0834 131.5254 203.2305 131.5128 C 203.2305 131.5128 200.6454 131.483 199.7836 131.4762 C 199.7836 131.4762 198.5276 131.4615 198.4615 131.459 C 198.1091 131.4457 198.107 131.4479 197.7603 131.383 L 197.7202 131.3601 L 197.6992 131.3341 L 197.6932 131.305 C 197.7525 131.0998 197.8256 130.8244 197.8909 130.6211 C 197.9514 130.4323 198.0443 130.1847 198.1111 129.9981 C 198.1785 129.8097 198.2701 129.5592 198.3382 129.3711 C 198.3382 129.3711 198.7468 128.2426 198.7922 128.1172 C 198.7922 128.1172 202.5071 117.9088 205.5484 109.557" fill="none" fill-opacity="1" stroke="#000000" stroke-opacity="1" stroke-width="0.4409722" stroke-linecap="round" stroke-linejoin="round"/>
<path d="M 206.0692 189.8063 C 206.4113 188.9909 209.7289 179.8464 212.1503 173.1996 C 212.3162 172.7442 213.8073 168.6444 213.8073 168.6444 C 213.8073 168.6444 213.939 168.3132 213.9537 168.2764 C 213.9537 168.2764 214.0854 167.9451 214.1 167.9083 L 214.1732 167.7243 C 214.1842 167.6967 214.195 167.6581 214.2098 167.6323 C 214.2239 167.6078 214.2504 167.5805 214.2678 167.5583 L 214.3197 167.5281 L 214.3986 167.5018 C 214.5877 167.4763 214.7772 167.4455 215.1585 167.4298 C 215.5363 167.4144 216.0405 167.4106 216.4186 167.4057 L 220.3579 167.3799 L 226.9234 167.3369 C 227.6769 166.9763 228.6811 166.5804 229.694 165.4691 C 230.357 164.7417 230.5865 164.0209 230.9719 162.9641 C 230.9719 162.9641 234.4276 153.4644 234.8114 152.4088 C 234.8114 152.4088 238.2911 142.8595 238.6742 141.7971 C 238.7864 141.4858 239.5325 139.4664 239.7598 138.671 C 239.7598 138.671 240.0015 137.882 240.0449 137.0703 C 240.0648 136.6996 240.061 136.0284 239.824 135.2275 C 239.6886 134.7701 239.3665 133.9247 238.5839 133.1903 C 238.3529 132.9734 237.9978 132.6944 237.5491 132.4584 C 237.3461 132.3517 236.7847 132.0548 236.103 131.9619 C 235.2419 131.8445 227.4134 131.8424 218.7234 131.8431 C 215.5819 140.3103 200.1472 182.7466 198.1015 188.4092" fill="none" fill-opacity="1" stroke="#000000" stroke-opacity="1" stroke-width="0.4409722" stroke-linecap="round" stroke-linejoin="round"/>
<path d="M 216.6363 161.0869 C 216.6363 161.0153 216.8514 160.3693 217.1143 159.6514 C 217.3773 158.9334 217.9654 157.3222 218.4213 156.0709 C 218.8772 154.8195 219.5394 153.0034 219.8928 152.0351 C 220.2462 151.0668 220.8237 149.4823 221.1761 148.514 C 222.17 145.7826 224.6068 139.0938 224.9455 138.1674 C 225.0478 137.8876 225.1824 137.7062 225.2886 137.705 C 227.0436 137.6854 231.189 137.7102 231.2193 137.7405 C 231.2587 137.7799 230.8861 138.8611 229.9801 141.3364 C 229.3294 143.114 228.3839 145.7129 227.8318 147.241 C 227.5626 147.9859 227.0537 149.3875 226.7008 150.3558 C 226.3479 151.3241 225.7704 152.9086 225.4175 153.8769 C 225.0646 154.8452 224.5554 156.2469 224.286 156.9918 C 223.284 159.7621 222.8261 160.9947 222.7584 161.1044 C 222.6524 161.2759 216.6363 161.2588 216.6363 161.0869 Z" fill="none" fill-opacity="1" stroke="#000000" stroke-opacity="1" stroke-width="0.4409722" stroke-linecap="round" stroke-linejoin="round"/>
<path d="M 175.4257 126.127 C 176.776 124.3325 178.207 122.5755 180.3789 120.5143 C 180.621 120.2845 181.7175 119.2533 182.8995 118.327 C 183.8634 117.5718 184.8736 116.8769 185.7426 116.2883 L 186.6956 115.6544 C 186.6956 115.6544 186.907 115.5142 187.0271 115.4493 C 187.078 115.4218 187.149 115.3909 187.1998 115.363 L 187.5812 115.1338 C 188.2878 114.7091 189.9694 113.7506 192.5078 112.6988 C 195.074 111.6355 199.8382 109.9877 206.0845 109.7692 C 206.755 109.7458 209.4606 109.6459 212.7859 110.0873 C 213.8156 110.2239 216.2386 110.5634 219.5457 111.5877" fill="none" fill-opacity="1" stroke="#000000" stroke-opacity="1" stroke-width="0.4409722" stroke-linecap="round" stroke-linejoin="round"/>
</svg>