<?xml version="1.0" encoding="utf-8"?>
<!-- Generator: Adobe Illustrator 25.4.1, SVG Export Plug-In . SVG Version: 6.00 Build 0)  -->
<svg version="1.1" id="Layer_1" xmlns="http://www.w3.org/2000/svg" xmlns:xlink="http://www.w3.org/1999/xlink" x="0px" y="0px"
	 viewBox="0 0 864 1278.4" style="enable-background:new 0 0 864 1278.4;" xml:space="preserve">
<style type="text/css">
	.st0{fill:none;stroke:#000000;stroke-width:1.25;stroke-linecap:round;stroke-linejoin:round;stroke-miterlimit:11.3386;}
</style>
<g>
	<path class="st0" d="M571,364l-27,73.7c-2,5.5-4.1,11-5,13.8l0,0c0.7,0.1,0.9,0.1,1.6,0.1l1.3,0l10.4,0c0,0,10.5-28.8,11.1-30.3
		l5.2-14.1c0,0,0.6-1.5,0.6-1.6c0.2-0.4,0.2-0.6,0.5-1.2c0.4-0.1,0.9-0.1,1.8-0.2c0,0,1.9,0,2.3,0c2.8,0,3.1,0,6.2,0.1
		c0,0.1-0.1,0.3-0.1,0.5c0,0.2-0.1,0.4-0.2,0.5c-0.2,0.5-0.4,1.1-0.6,1.6c0,0-2.6,7.2-4,11.1l-5.7,15.5c0,0-2.6,7.1-3.7,10.1
		c-0.2,0.6-2.1,5.6-2.2,5.9c-0.1,0.2-0.3,0.9-0.6,1.8l0,0l0,0l0.1,0l0.1,0c0.3,0,0.6,0.1,0.8,0.1c0.3,0,0.7,0,1,0c0.3,0,0.8,0,1.2,0
		c0,0,1.7,0,2.3,0c0,0,4,0,5.4,0c0.4,0,0.8,0,1.2,0c0.3,0,0.7-0.1,1-0.1l0.1,0l0,0c0.1-0.3,0.3-0.7,0.4-1c0.1-0.3,0.3-0.7,0.4-1.1
		c0.3-0.7,0.6-1.7,0.9-2.4c0.2-0.5,3.5-9.6,3.5-9.6s2.8-7.6,5.6-15.3c0,0,2.1-5.7,2.2-6l2.2-6c0,0,0.8-2.2,1.2-3.4
		c0,0,0.4-1.4,0.5-2.8c0-1.4-0.3-3.1-1.2-4.5c-0.3-0.5-0.9-1.2-1.7-1.8c0,0-0.7-0.6-1.4-0.9c-0.4-0.2-0.9-0.4-1.8-0.5
		c-1.1-0.2-4-0.2-5.3-0.2c0,0-4,0-5.4-0.1c0,0-2,0-2.1,0c-0.5,0-0.6,0-1.1-0.1l-0.1,0l0,0l0,0c0.1-0.3,0.2-0.7,0.3-1.1
		c0.1-0.3,0.2-0.7,0.3-1c0.1-0.3,0.2-0.7,0.4-1c0,0,0.6-1.8,0.7-1.9c0,0,5.8-15.8,10.5-28.8"/>
	<path class="st0" d="M586,486.5c0.5-1.3,5.7-15.5,9.5-25.8c0.3-0.7,2.6-7.1,2.6-7.1s0.2-0.5,0.2-0.6c0,0,0.2-0.5,0.2-0.6l0.1-0.3
		c0,0,0-0.1,0.1-0.1c0,0,0.1-0.1,0.1-0.1l0.1,0l0.1,0c0.3,0,0.6-0.1,1.2-0.1c0.6,0,1.4,0,2,0l6.1,0l10.2-0.1
		c1.2-0.6,2.7-1.2,4.3-2.9c1-1.1,1.4-2.2,2-3.9c0,0,5.4-14.7,6-16.4c0,0,5.4-14.8,6-16.5c0.2-0.5,1.3-3.6,1.7-4.9
		c0,0,0.4-1.2,0.4-2.5c0-0.6,0-1.6-0.3-2.9c-0.2-0.7-0.7-2-1.9-3.2c-0.4-0.3-0.9-0.8-1.6-1.1c-0.3-0.2-1.2-0.6-2.3-0.8
		c-1.3-0.2-13.5-0.2-27.1-0.2c-4.9,13.1-29,79-32.2,87.8"/>
	<path class="st0" d="M602.5,441.9c0-0.1,0.3-1.1,0.7-2.2c0.4-1.1,1.3-3.6,2-5.6c0.7-1.9,1.7-4.8,2.3-6.3c0.6-1.5,1.5-4,2-5.5
		c1.5-4.2,5.3-14.6,5.9-16.1c0.2-0.4,0.4-0.7,0.5-0.7c2.7,0,9.2,0,9.2,0.1c0.1,0.1-0.5,1.7-1.9,5.6c-1,2.8-2.5,6.8-3.3,9.2
		c-0.4,1.2-1.2,3.3-1.8,4.8c-0.6,1.5-1.5,4-2,5.5c-0.6,1.5-1.3,3.7-1.8,4.8c-1.6,4.3-2.3,6.2-2.4,6.4
		C611.9,442.2,602.5,442.2,602.5,441.9z"/>
	<circle class="st0" cx="587.4" cy="424.3" r="62.4"/>
</g>
</svg>
