<?xml version="1.0" encoding="utf-8"?>
<!DOCTYPE svg PUBLIC "-//W3C//DTD SVG 1.1//EN" "http://www.w3.org/Graphics/SVG/1.1/DTD/svg11.dtd">
<!-- exported from Silhouette Studio® Business Edition V4.3.370ssbe -->
<svg version="1.1" xmlns="http://www.w3.org/2000/svg" xmlns:xlink="http://www.w3.org/1999/xlink" width="304.8mm" height="304.8mm" viewBox="0 0 304.8 304.8">
<defs/>
<path d="M 96.70419 135.6106 C 96.67879 135.5134 96.63781 135.5132 74.65337 135.5132 C 52.92733 135.5132 52.62731 135.5119 52.57761 135.419 C 52.54334 135.3549 52.52723 132.0158 52.52723 124.9734 L 52.52723 114.622 L 50.99417 114.622 L 49.46111 114.622 L 49.46111 113.088 C 49.46111 111.7459 49.47039 111.5541 49.53532 111.5541 C 49.57613 111.5541 49.63034 111.4993 49.65578 111.4323 L 49.70205 111.3106 L 56.43789 111.3106 C 62.00795 111.3106 63.1831 111.3219 63.22785 111.3758 C 63.26533 111.421 63.28586 112.1058 63.29464 113.6037 L 63.30732 115.7664 L 66.25177 115.7664 L 69.19622 115.7664 L 69.22195 113.8185 C 69.23611 112.7472 69.25253 111.8677 69.25845 111.8641 C 69.26437 111.8605 69.31303 111.8462 69.36656 111.8321 C 69.43672 111.8138 69.4639 111.7657 69.4639 111.66 C 69.4639 111.4494 69.50993 111.3579 69.64088 111.3081 C 69.70415 111.284 69.75591 111.2317 69.75591 111.1918 C 69.75591 111.0955 69.90797 111.0184 70.09795 111.0184 C 70.21078 111.0184 70.25848 110.9925 70.27716 110.921 C 70.30138 110.8284 70.34354 110.8236 71.14296 110.8236 C 71.94238 110.8236 71.98455 110.8284 72.00877 110.921 C 72.02744 110.9925 72.07515 111.0184 72.18798 111.0184 C 72.43462 111.0184 72.53001 111.095 72.53001 111.2932 C 72.53001 111.4406 72.57079 111.506 72.79712 111.7219 L 73.06421 111.9766 L 73.07697 113.8715 L 73.08971 115.7664 L 78.41891 115.7664 L 83.74812 115.7664 L 83.7608 113.6037 C 83.76958 112.1058 83.79012 111.421 83.8276 111.3758 C 83.87057 111.324 84.17566 111.3106 85.30977 111.3106 C 86.67183 111.3106 86.74015 111.3149 86.7882 111.4048 C 86.82074 111.4656 86.83858 112.2588 86.83858 113.6449 L 86.83858 115.7907 L 89.66136 115.7907 L 92.48413 115.7907 L 92.48488 114.9507 C 92.48529 114.4887 92.50172 114.0866 92.52138 114.0571 C 92.54105 114.0276 92.60641 113.9776 92.66664 113.9458 C 92.7629 113.8951 92.77615 113.8502 92.77615 113.5744 C 92.77615 113.2949 92.78918 113.2522 92.89592 113.1822 C 92.96179 113.139 93.02792 113.0651 93.04286 113.018 C 93.0578 112.9709 93.12437 112.9076 93.19077 112.8773 C 93.25717 112.8471 93.3115 112.7925 93.3115 112.756 C 93.3115 112.7196 93.36435 112.6656 93.42895 112.6362 C 93.49355 112.6068 93.55997 112.5399 93.57657 112.4875 C 93.59316 112.4352 93.65144 112.3807 93.70607 112.3664 C 93.76071 112.3521 93.8166 112.2977 93.83026 112.2454 C 93.84393 112.1931 93.9061 112.1271 93.96843 112.0986 C 94.03075 112.0702 94.09608 112.0018 94.11359 111.9466 C 94.1311 111.8914 94.17603 111.8463 94.21344 111.8463 C 94.25085 111.8463 94.3074 111.797 94.33911 111.7367 C 94.41817 111.5865 94.47563 111.5557 94.67857 111.5548 C 94.81731 111.5542 94.86469 111.529 94.90871 111.4323 C 94.9622 111.3148 94.9804 111.3106 95.42874 111.3106 C 95.87238 111.3106 95.89532 111.3054 95.93708 111.1955 C 95.99782 111.0357 96.06919 111.0184 96.66963 111.0184 C 97.27007 111.0184 97.34145 111.0357 97.40219 111.1955 C 97.44393 111.3053 97.467 111.3106 97.90836 111.3106 C 98.34792 111.3106 98.37473 111.3166 98.45051 111.4323 C 98.509 111.5216 98.57318 111.5541 98.6915 111.5541 C 98.84592 111.5541 99.00572 111.6555 99.00572 111.7535 C 99.00572 111.7791 99.06048 111.8208 99.1274 111.8463 C 99.19431 111.8717 99.24907 111.9264 99.24907 111.9678 C 99.24907 112.0092 99.30341 112.0679 99.36981 112.0982 C 99.43621 112.1284 99.50304 112.1926 99.5183 112.2407 C 99.53356 112.2889 99.58542 112.3407 99.63352 112.356 C 99.68163 112.3713 99.74574 112.4382 99.77599 112.5046 C 99.80625 112.5711 99.85181 112.6254 99.87724 112.6254 C 99.97507 112.6254 100.0764 112.7854 100.0764 112.9398 C 100.0764 113.0582 100.1088 113.1224 100.1981 113.181 C 100.2949 113.2444 100.3198 113.3012 100.3198 113.459 C 100.3198 113.6187 100.3394 113.6623 100.4209 113.6836 C 100.5711 113.7229 100.6118 113.8901 100.6118 114.4675 C 100.6118 114.9611 100.6175 114.991 100.7213 115.0366 C 100.8159 115.0781 100.8341 115.1309 100.8551 115.4255 L 100.8795 115.7664 L 110.5645 115.7664 L 120.2496 115.7664 L 120.2739 114.3645 C 120.2943 113.1898 120.3101 112.9552 120.3712 112.9165 C 120.4879 112.8428 123.4002 112.8551 123.5007 112.9298 C 123.5737 112.984 123.584 113.1431 123.5952 114.3785 L 123.6077 115.7664 L 131.7306 115.7787 L 139.8535 115.791 L 140.1086 116.0587 C 140.3261 116.2871 140.3895 116.3264 140.5402 116.3264 C 140.6813 116.3264 140.7279 116.3509 140.7722 116.4482 C 140.815 116.5422 140.8642 116.5699 140.9881 116.5699 C 141.126 116.5699 141.2175 116.638 141.6373 117.0525 C 142.0702 117.4799 142.1261 117.5544 142.1261 117.7042 C 142.1261 117.8324 142.1496 117.8795 142.2234 117.8988 C 142.3203 117.9242 142.3208 117.9653 142.3208 125.6718 C 142.3208 133.3867 142.3204 133.4192 142.2234 133.4192 C 142.1435 133.4192 142.1259 133.4519 142.1253 133.6018 C 142.1245 133.8075 142.0912 133.8749 141.9679 133.9204 C 141.9101 133.9417 141.8828 134.004 141.8828 134.1145 C 141.8828 134.3425 141.7904 134.4439 141.5538 134.4757 C 141.4151 134.4943 141.341 134.5313 141.3219 134.5917 C 141.3064 134.6405 141.253 134.6933 141.2032 134.7091 C 141.1535 134.7249 141.0774 134.7918 141.0343 134.8577 C 140.9725 134.952 140.9143 134.9775 140.761 134.9775 C 140.6011 134.9775 140.5585 134.9981 140.5226 135.0926 C 140.467 135.2389 140.3832 135.2697 140.0409 135.2697 C 139.8008 135.2697 139.7581 135.2841 139.7164 135.3793 L 139.6683 135.4888 L 118.4321 135.5011 C 97.24595 135.5133 97.19579 135.5135 97.17041 135.6107 C 97.13317 135.7531 96.74144 135.7531 96.70419 135.6106 Z" fill="none" fill-opacity="1" stroke="#000000" stroke-opacity="1" stroke-width="0.3527778" stroke-linecap="round" stroke-linejoin="round"/>
</svg>