<?xml version="1.0" encoding="utf-8"?>
<!-- Generator: Adobe Illustrator 25.2.1, SVG Export Plug-In . SVG Version: 6.00 Build 0)  -->
<svg version="1.1" id="Layer_1" xmlns="http://www.w3.org/2000/svg" xmlns:xlink="http://www.w3.org/1999/xlink" x="0px" y="0px"
	 viewBox="0 0 864 864" style="enable-background:new 0 0 864 864;" xml:space="preserve">
<style type="text/css">
	.st0{fill:none;stroke:#000000;stroke-width:1;stroke-linecap:round;stroke-linejoin:round;stroke-miterlimit:11.3386;}
</style>
<path class="st0" d="M272.8,363.9c0-0.1-0.1-0.1-25.9-0.1c-25.5,0-25.9,0-25.9-0.1c0-0.1-0.1-4-0.1-12.3v-12.2h-1.8h-1.8v-1.8
	c0-1.6,0-1.8,0.1-1.8c0,0,0.1-0.1,0.1-0.1l0.1-0.1h7.9c6.5,0,7.9,0,8,0.1c0,0.1,0.1,0.9,0.1,2.6l0,2.5h3.5h3.5l0-2.3
	c0-1.3,0-2.3,0-2.3s0.1,0,0.1,0c0.1,0,0.1-0.1,0.1-0.2c0-0.2,0.1-0.4,0.2-0.4c0.1,0,0.1-0.1,0.1-0.1c0-0.1,0.2-0.2,0.4-0.2
	c0.1,0,0.2,0,0.2-0.1c0-0.1,0.1-0.1,1-0.1s1,0,1,0.1c0,0.1,0.1,0.1,0.2,0.1c0.3,0,0.4,0.1,0.4,0.3c0,0.2,0,0.3,0.3,0.5l0.3,0.3
	l0,2.2l0,2.2h6.3h6.3l0-2.5c0-1.8,0-2.6,0.1-2.6c0.1-0.1,0.4-0.1,1.7-0.1c1.6,0,1.7,0,1.7,0.1c0,0.1,0.1,1,0.1,2.6v2.5h3.3h3.3l0-1
	c0-0.5,0-1,0-1.1c0,0,0.1-0.1,0.2-0.1c0.1-0.1,0.1-0.1,0.1-0.4c0-0.3,0-0.4,0.1-0.5c0.1-0.1,0.2-0.1,0.2-0.2c0-0.1,0.1-0.1,0.2-0.2
	c0.1,0,0.1-0.1,0.1-0.1c0,0,0.1-0.1,0.1-0.1c0.1,0,0.2-0.1,0.2-0.2c0-0.1,0.1-0.1,0.2-0.1s0.1-0.1,0.1-0.1s0.1-0.1,0.2-0.2
	c0.1,0,0.2-0.1,0.2-0.2c0-0.1,0.1-0.1,0.1-0.1c0,0,0.1-0.1,0.1-0.1c0.1-0.2,0.2-0.2,0.4-0.2c0.2,0,0.2,0,0.3-0.1
	c0.1-0.1,0.1-0.1,0.6-0.1c0.5,0,0.5,0,0.6-0.1c0.1-0.2,0.2-0.2,0.9-0.2c0.7,0,0.8,0,0.9,0.2c0,0.1,0.1,0.1,0.6,0.1
	c0.5,0,0.5,0,0.6,0.1c0.1,0.1,0.1,0.1,0.3,0.1c0.2,0,0.4,0.1,0.4,0.2c0,0,0.1,0.1,0.1,0.1c0.1,0,0.1,0.1,0.1,0.1
	c0,0,0.1,0.1,0.1,0.2c0.1,0,0.2,0.1,0.2,0.2c0,0.1,0.1,0.1,0.1,0.1c0.1,0,0.1,0.1,0.2,0.2c0,0.1,0.1,0.1,0.1,0.1
	c0.1,0,0.2,0.2,0.2,0.4c0,0.1,0,0.2,0.1,0.3c0.1,0.1,0.1,0.1,0.1,0.3c0,0.2,0,0.2,0.1,0.3c0.2,0,0.2,0.2,0.2,0.9
	c0,0.6,0,0.6,0.1,0.7c0.1,0,0.1,0.1,0.2,0.5l0,0.4h11.4h11.4l0-1.6c0-1.4,0-1.7,0.1-1.7c0.1-0.1,3.6-0.1,3.7,0
	c0.1,0.1,0.1,0.3,0.1,1.7l0,1.6l9.5,0l9.5,0l0.3,0.3c0.3,0.3,0.3,0.3,0.5,0.3c0.2,0,0.2,0,0.3,0.1c0.1,0.1,0.1,0.1,0.3,0.1
	c0.2,0,0.3,0.1,0.8,0.6c0.5,0.5,0.6,0.6,0.6,0.8c0,0.2,0,0.2,0.1,0.2c0.1,0,0.1,0.1,0.1,9.1c0,9.1,0,9.1-0.1,9.1
	c-0.1,0-0.1,0-0.1,0.2c0,0.2,0,0.3-0.2,0.4c-0.1,0-0.1,0.1-0.1,0.2c0,0.3-0.1,0.4-0.4,0.4c-0.2,0-0.3,0.1-0.3,0.1
	c0,0.1-0.1,0.1-0.1,0.1c-0.1,0-0.1,0.1-0.2,0.2c-0.1,0.1-0.1,0.1-0.3,0.1c-0.2,0-0.2,0-0.3,0.1c-0.1,0.2-0.2,0.2-0.6,0.2
	c-0.3,0-0.3,0-0.4,0.1l-0.1,0.1l-25,0c-24.9,0-25,0-25,0.1C273.3,364.1,272.8,364.1,272.8,363.9z"/>
</svg>
