<?xml version="1.0" encoding="UTF-8" standalone="no"?>
<!-- Created with Inkscape (http://www.inkscape.org/) -->

<svg
   xmlns:dc="http://purl.org/dc/elements/1.1/"
   xmlns:cc="http://creativecommons.org/ns#"
   xmlns:rdf="http://www.w3.org/1999/02/22-rdf-syntax-ns#"
   xmlns:svg="http://www.w3.org/2000/svg"
   xmlns="http://www.w3.org/2000/svg"
   xmlns:sodipodi="http://sodipodi.sourceforge.net/DTD/sodipodi-0.dtd"
   xmlns:inkscape="http://www.inkscape.org/namespaces/inkscape"
   version="1.1"
   id="svg2"
   width="841mm"
   height="594mm"
   viewBox="0 0 3178.5827 2245.0394"
   sodipodi:docname="Lat_7370_LID.svg"
   inkscape:version="0.92.3 (2405546, 2018-03-11)">
  <metadata
     id="metadata8">
    <rdf:RDF>
      <cc:Work
         rdf:about="">
        <dc:format>image/svg+xml</dc:format>
        <dc:type
           rdf:resource="http://purl.org/dc/dcmitype/StillImage" />
        <dc:title></dc:title>
      </cc:Work>
    </rdf:RDF>
  </metadata>
  <defs
     id="defs6" />
  <sodipodi:namedview
     pagecolor="#ffffff"
     bordercolor="#666666"
     borderopacity="1"
     objecttolerance="10"
     gridtolerance="10"
     guidetolerance="10"
     inkscape:pageopacity="0"
     inkscape:pageshadow="2"
     inkscape:window-width="1920"
     inkscape:window-height="1017"
     id="namedview4"
     showgrid="false"
     units="mm"
     showguides="true"
     inkscape:guide-bbox="true"
     inkscape:zoom="0.40587929"
     inkscape:cx="1155.1207"
     inkscape:cy="1271.7628"
     inkscape:window-x="-8"
     inkscape:window-y="-8"
     inkscape:window-maximized="1"
     inkscape:current-layer="svg2" />
  <g
     id="g876"
     style="stroke:#000000;stroke-opacity:1;stroke-width:1.33333333;stroke-miterlimit:4;stroke-dasharray:none">
    <path
       sodipodi:nodetypes="cssssssssc"
       inkscape:connector-curvature="0"
       id="rect860"
       d="m 1650.9064,783.85908 119.8251,0.11846 c 6.2816,0.006 11.3386,5.05701 11.3386,11.3386 v 765.91076 c 0,6.2816 -5.057,11.3386 -11.3386,11.3386 H 653.32468 c -6.28158,0 -11.3386,-5.057 -11.3386,-11.3386 V 795.31614 c 0,-6.28159 5.05702,-11.33231 11.3386,-11.3386 l 118.28512,-0.11846"
       style="opacity:1;fill:none;fill-opacity:0.12093021;stroke:#000000;stroke-width:1.33333333;stroke-miterlimit:4;stroke-dasharray:none;stroke-opacity:1" />
    <path
       sodipodi:nodetypes="cssssc"
       inkscape:connector-curvature="0"
       id="rect862"
       d="m 1650.9064,783.85908 v 40.07411 c 0,4.18772 -3.3714,7.55906 -7.5591,7.55906 H 779.16886 c -4.18772,0 -7.55906,-3.37134 -7.55906,-7.55906 v -40.07411"
       style="opacity:1;fill:none;fill-opacity:0.12093021;stroke:#000000;stroke-width:1.33333333;stroke-miterlimit:4;stroke-dasharray:none;stroke-opacity:1" />
    <path
       id="path866"
       d="m 1269.9644,1184.3552 a 57.916012,57.916012 0 0 1 -57.9161,57.916 57.916012,57.916012 0 0 1 -57.916,-57.916 57.916012,57.916012 0 0 1 57.916,-57.916 57.916012,57.916012 0 0 1 57.9161,57.916 z"
       style="opacity:1;fill:none;fill-opacity:0.12093021;stroke:#000000;stroke-width:1.33333333;stroke-miterlimit:4;stroke-dasharray:none;stroke-opacity:1" />
  </g>
</svg>
