<?xml version="1.0" encoding="UTF-8" standalone="no"?>
<!-- Created with Inkscape (http://www.inkscape.org/) -->

<svg
   xmlns:dc="http://purl.org/dc/elements/1.1/"
   xmlns:cc="http://creativecommons.org/ns#"
   xmlns:rdf="http://www.w3.org/1999/02/22-rdf-syntax-ns#"
   xmlns:svg="http://www.w3.org/2000/svg"
   xmlns="http://www.w3.org/2000/svg"
   xmlns:sodipodi="http://sodipodi.sourceforge.net/DTD/sodipodi-0.dtd"
   xmlns:inkscape="http://www.inkscape.org/namespaces/inkscape"
   width="210mm"
   height="297mm"
   viewBox="0 0 210 297"
   version="1.1"
   id="svg1193"
   inkscape:version="0.92.3 (2405546, 2018-03-11)"
   sodipodi:docname="T440S_PR_NOFP.svg">
  <defs
     id="defs1187" />
  <sodipodi:namedview
     id="base"
     pagecolor="#ffffff"
     bordercolor="#666666"
     borderopacity="1.0"
     inkscape:pageopacity="0.0"
     inkscape:pageshadow="2"
     inkscape:zoom="0.49497476"
     inkscape:cx="-1277.3387"
     inkscape:cy="-744.1154"
     inkscape:document-units="mm"
     inkscape:current-layer="layer1"
     showgrid="false"
     inkscape:window-width="1920"
     inkscape:window-height="1017"
     inkscape:window-x="-8"
     inkscape:window-y="-8"
     inkscape:window-maximized="1"
     inkscape:snap-bbox="true"
     inkscape:bbox-paths="true"
     inkscape:bbox-nodes="true"
     inkscape:snap-bbox-edge-midpoints="true"
     inkscape:snap-bbox-midpoints="true"
     showguides="false" />
  <metadata
     id="metadata1190">
    <rdf:RDF>
      <cc:Work
         rdf:about="">
        <dc:format>image/svg+xml</dc:format>
        <dc:type
           rdf:resource="http://purl.org/dc/dcmitype/StillImage" />
        <dc:title />
      </cc:Work>
    </rdf:RDF>
  </metadata>
  <g
     inkscape:label="Layer 1"
     inkscape:groupmode="layer"
     id="layer1">
    <g
       id="g850">
      <path
         sodipodi:nodetypes="ccccccccscccc"
         style="fill:none;fill-opacity:1;stroke:#000000;stroke-width:0.35277778;stroke-linecap:round;stroke-linejoin:round;stroke-miterlimit:4;stroke-dasharray:none;stroke-opacity:1"
         inkscape:connector-curvature="0"
         id="path4-6-7"
         d="m -169.90967,585.66929 c 0.44424,-0.13104 0.45664,-0.18772 0.86349,-0.60112 l 0.11695,-40.02325 -0.18378,-39.26587 c -0.35275,-0.36104 -0.97696,-0.94512 -0.97696,-0.94512 l -49.36517,-0.29575 c 0,0 -48.91184,-0.0846 -49.3587,0.0697 -0.65024,0.22512 -0.88549,0.55719 -1.0743,1.19195 -0.1215,0.40844 -0.0469,5.53461 -0.0469,39.19848 0,37.38781 0.004,38.74671 0.17648,39.2952 0.23572,0.74839 0.3549,0.86331 1.07419,1.0873 0.46445,0.14454 4.50468,0.15622 49.1788,0.16328 45.58126,0.007 49.07151,0.27993 49.59588,0.12522 z" />
      <path
         style="fill:none;fill-opacity:1;stroke:#000000;stroke-width:0.35277778;stroke-linecap:round;stroke-linejoin:round;stroke-miterlimit:4;stroke-dasharray:none;stroke-opacity:1"
         inkscape:connector-curvature="0"
         id="path6-7-5"
         d="m -48.150973,393.99144 c 0.2425,-0.05 0.4884,-0.1394 0.5466,-0.1987 0.0581,-0.0592 0.1957,-0.1077 0.3057,-0.1077 0.11,0 0.2515,-0.0631 0.3143,-0.1403 0.063,-0.0772 0.1572,-0.1404 0.2096,-0.1404 0.1035,0 0.8893,-0.5893 1.2629,-0.947 0.535,-0.5126 1.1275,-1.4692 1.4709,-2.3748 0.1671,-0.4409 0.3638,-1.5376 0.3635,-2.0277 -5e-4,-1.0157 -0.4049,-2.3697 -0.9877,-3.306 -0.3679,-0.5912 -1.4166,-1.7311 -1.5925,-1.7311 -0.0388,0 -0.1258,-0.0526 -0.1933,-0.117 -0.1149,-0.1094 -0.4815,-0.2989 -1.1304,-0.5843 -0.3513,-0.1545 -1.6132,-0.4212 -2.0003,-0.4228 -0.3739,-0.001 -1.5815,0.2659 -1.9631,0.4347 -0.1592,0.0704 -0.3522,0.1279 -0.4287,0.1279 -0.0766,0 -0.153,0.0336 -0.1698,0.0747 -0.0169,0.0411 -0.1851,0.1568 -0.3738,0.2573 -0.4738,0.2522 -1.2658,0.9457 -1.6072,1.407 -0.2411,0.3258 -0.4818,0.7643 -0.9644,1.757 -0.1711,0.352 -0.283,1.1597 -0.2869,2.0717 -0.005,1.2442 0.2059,2.177 0.6707,2.9599 0.103,0.1733 0.2164,0.3783 0.2522,0.4555 0.1384,0.2986 1.1331,1.3633 1.4863,1.5907 0.1198,0.0773 0.2652,0.1825 0.3229,0.234 0.217,0.1934 1.2179,0.614 1.8473,0.7762 0.4309,0.1111 2.012,0.0819 2.6452,-0.0488 z" />
      <path
         sodipodi:nodetypes="cc"
         style="fill:none;fill-opacity:1;stroke:#000000;stroke-width:0.35277778;stroke-linecap:round;stroke-linejoin:round;stroke-miterlimit:4;stroke-dasharray:none;stroke-opacity:1"
         inkscape:connector-curvature="0"
         id="path10-3-5"
         d="M -327.2197,369.9642 H -82.144143" />
      <path
         sodipodi:nodetypes="cccccccccccccccccccccccccc"
         style="fill:none;fill-opacity:1;stroke:#000000;stroke-width:0.35277778;stroke-linecap:round;stroke-linejoin:round;stroke-miterlimit:4;stroke-dasharray:none;stroke-opacity:1"
         inkscape:connector-curvature="0"
         id="path12-5-6"
         d="m -68.063825,369.93885 c 0,0 22.585235,0.009 24.025955,0.0223 0.35744,0.003 1.43539,-2e-4 1.78612,0.0685 0.27904,0.0547 0.57653,0.2427 0.8296,0.4558 0.12583,0.106 0.50162,0.4518 0.70145,0.841 0.11601,0.2258 0.11059,0.2678 0.12714,0.54879 0,0 0.0208,0.3492 0.0215,0.3676 0.0173,0.4498 0.0456,4.50109 0.0599,9.00227 0.0333,10.48897 0.041,146.84594 0.0478,209.77987 -0.0309,0.0576 -0.32576,0.65847 -0.73625,1.08154 -0.0753,0.0775 -0.43375,0.43158 -0.87832,0.63089 -0.14719,0.066 -0.31925,0.0629 -0.6422,0.0705 0,0 -0.64671,0.0174 -0.92405,0.0215 -5.92367,0.0875 -53.31886,0.082 -59.24314,0.0829 0,0 -251.15532,0.0199 -264.37401,0.0207 -0.32795,-0.16238 -0.88282,-0.40267 -1.25289,-0.75549 -0.0247,-0.0235 -0.24615,-0.2406 -0.43343,-0.52414 -0.0147,-0.0223 -0.20293,-0.2955 -0.23559,-0.47933 -0.0445,-0.2503 -0.0561,-1.60895 -0.057,-1.69366 -0.11081,-10.87653 -0.0812,-108.77063 -0.0933,-217.54119 0,0 0.22544,-0.47759 0.37183,-0.72089 0.14374,-0.2391 0.21156,-0.3457 0.5009,-0.6207 0.0277,-0.0262 0.34578,-0.3102 0.61904,-0.4476 0.17874,-0.09 0.38282,-0.1345 0.64909,-0.1564 0.17618,-0.0145 0.8836,-0.0317 1.76754,-0.0341 4.19888,-0.0115 22.74585,-0.0195 24.0055,-0.0229" />
      <path
         sodipodi:nodetypes="ccccccccccccccsccccccccccccccc"
         d="m -90.959556,510.80573 c 0,0 17.628995,-0.002 25.523264,-0.0325 0.2345,-9e-4 3.988693,-0.003 4.691296,-0.0434 0.307251,-0.0175 0.323197,0.0107 0.605036,-0.1149 0.05431,-0.0243 0.125671,-0.0594 0.178291,-0.0874 0.773407,-0.40273 1.265722,-1.24676 1.315811,-1.92541 0.126276,1.62259 0.09884,-15.38014 0.10295,-18.96158 0.003,-3.42532 0.005,-65.08105 0.004,-68.50637 0,0 -0.01,-26.79999 -0.06996,-33.49963 0,0 -0.01305,-1.06381 -0.03339,-1.63621 0,0 -9.96e-4,-0.27401 -0.03897,-0.41471 -0.02063,-0.0768 -0.06209,-0.1748 -0.09488,-0.2471 -0.280842,-0.6202 -0.871627,-1.06381 -1.165225,-1.23001 -0.03119,-0.0176 -0.320507,-0.1997 -0.675496,-0.2302 -0.0585,-0.005 -0.136932,-0.004 -0.195632,-0.006 -0.0587,-0.002 -0.136833,-0.005 -0.195533,-0.006 -0.0587,-0.002 -0.137033,-0.005 -0.195732,-0.007 -0.942983,-0.0314 -10.377796,-0.0748 -18.869128,-0.0869 -11.525979,-0.0164 -149.838816,-0.0707 -230.521276,-0.0131 0,0 -34.22172,0.002 -38.02305,0.0901 -0.0542,10e-4 -0.92269,0.025 -1.08202,0.0577 0,0 -0.22022,0.0618 -0.41945,0.1696 0,0 -0.34113,0.1851 -0.61399,0.45271 -0.0423,0.0415 -0.50196,0.4832 -0.64159,1.0019 -0.0272,0.101 -0.0558,0.57361 -0.0672,1.04451 -0.0973,4.00023 -0.087,40.01438 -0.087,40.01438 m 0,0 c 9e-5,3.57012 -0.0156,55.80216 0.0787,70.08226 m 2.08776,1.85241 c 68.86837,0.26029 138.53035,0.14232 207.39951,0.1635"
         id="path20-2-2"
         inkscape:connector-curvature="0"
         style="fill:none;fill-opacity:1;stroke:#000000;stroke-width:0.35277778;stroke-linecap:round;stroke-linejoin:round;stroke-miterlimit:4;stroke-dasharray:none;stroke-opacity:1" />
      <path
         sodipodi:nodetypes="cccccccccc"
         d="m -141.96246,498.68638 c 0,0 22.49626,0.0319 25.06948,0.0329 l 0.0735,6.03352 c 0.0217,2.10022 -0.006,4.02343 0.28483,4.65843 0.12697,0.27741 0.33486,0.47141 0.35459,0.49451 0.072,0.0843 0.17131,0.1937 0.23918,0.2815 0.0397,0.0511 0.0811,0.1284 0.12418,0.1767 0.11002,0.1234 0.25782,0.1768 0.4989,0.2272 0.48564,0.1016 1.12621,0.11839 1.99375,0.14029 2.23577,0.0565 11.18225,0.0655 22.364494,0.0743"
         id="path22-7-7"
         inkscape:connector-curvature="0"
         style="fill:none;fill-opacity:1;stroke:#000000;stroke-width:0.35277778;stroke-linecap:round;stroke-linejoin:round;stroke-miterlimit:4;stroke-dasharray:none;stroke-opacity:1" />
      <path
         id="Path6-0"
         d="m -66.846452,551.15348 c 0.0344,-0.0705 0.0688,-0.14117 0.0688,-0.21176 0.0344,-0.0705 0.0344,-0.14117 0.0344,-0.21176 0.0344,-0.14116 0.0688,-0.24704 0.172,-0.49408 0.0688,-0.17646 0.2064,-0.35293 0.3096,-0.49409 0.10321,-0.10589 0.13762,-0.14117 0.24082,-0.24706 0,0 0.0687,-0.0353 0.1032,-0.10587 0,-0.0706 0,-0.14117 0,-0.21176 -0.0344,-0.10587 -0.17201,-0.35292 -0.27521,-0.52938 0,0 -0.55041,-0.95289 -0.61922,-1.02348 0.48162,-0.4588 0.89443,-0.84702 1.44485,-1.19994 0.17201,-0.10588 0.24081,-0.14117 0.44722,-0.24705 0,0 0.2408,-0.14117 0.37841,-0.0705 0.0344,0 0.1376,0.0705 0.20641,0.17647 0.2408,0.24704 1.44485,1.7999 1.44485,1.7999 0.65362,0.81173 2.09847,2.75281 4.16255,5.50561 0.0688,0.0706 1.10084,1.48227 1.37605,1.87049 0,0 0.20641,0.31763 0.27521,0.56467 0.0688,0.24706 0,0.38822 -0.13761,0.4941 -0.0344,0.0353 -0.1376,0.14117 -0.2752,0.24705 -0.10321,0.0705 -0.27521,0.17646 -0.37842,0.28234 -0.34402,0.21175 -0.75683,0.52938 -1.06644,0.77643 0,0 -8.94432,6.67025 -12.76285,9.56423 -1.03205,0.77643 -5.64181,4.27038 -10.18278,7.8349 -0.1376,0.10588 -0.82562,0.63526 -1.16963,0.88231 0,0 -0.20641,0.14117 -0.20641,0.14117 0,0 -0.1032,0.0706 -0.2064,0.0353 -0.0688,-0.0353 -0.13761,-0.14117 -0.27522,-0.31763 -0.82562,-1.05877 -3.02731,-4.12921 -3.16491,-4.34097 -0.17201,-0.21175 -0.30961,-0.4235 -0.51602,-0.74113 -0.13761,-0.28234 -0.27521,-0.42351 -0.58482,-0.84702 -0.0344,-0.0353 -0.48162,-0.63527 -0.79123,-0.9529 0,0 -0.17201,-0.17645 -0.30961,-0.24704 -0.0344,-0.0353 -0.13761,-0.10587 -0.30961,-0.0706 -0.0344,0.0353 -0.13761,0.0706 -0.24081,0.14117 -0.34401,0.21176 -0.61922,0.4588 -0.86003,0.4235 -0.1032,0 -0.2064,-0.10587 -0.27521,-0.21174 -0.1032,-0.10589 -0.37841,-0.42352 -0.58482,-0.74115 -0.1032,-0.14117 -0.24081,-0.31763 -0.34401,-0.4588 -0.0687,-0.10587 -0.13761,-0.24704 -0.20641,-0.35292 -0.0344,-0.0353 -0.0344,-0.0706 -0.0688,-0.10588 0,0 -0.0344,-0.10587 -0.0687,-0.17646 0,0 0.0344,-0.0353 0.0344,-0.0353 0.0688,-0.10587 0.0688,-0.10587 0.17201,-0.21174 0.0688,-0.0353 0.13761,-0.10589 0.17201,-0.14117 0,0 0.34401,-0.28235 0.34401,-0.28235 0.65363,-0.56467 3.64653,-2.89397 4.54097,-3.63511 0.0688,-0.0706 0.41281,-0.35293 0.61922,-0.42351 0.1032,-0.0353 0.2064,-0.0353 0.37841,0.0706 0.17201,0.14117 0.30961,0.35293 0.55043,0.67056 0.0688,0.10587 0.344,0.52938 0.48161,0.63526 0.0688,0.0353 0.2064,0.10588 0.30961,0.0706 0.1032,0 0.27521,-0.0353 0.48161,-0.21176 0.0344,0 0.20641,-0.14117 0.27522,-0.31763 0,0 0.0344,-0.0705 0.0344,-0.14117 0,-0.17646 -0.172,-0.4588 -0.27521,-0.67055 -0.172,-0.31764 -0.37841,-0.74114 -0.37841,-1.16466 0,-0.10587 0,-0.31763 0.1376,-0.59996 0,0 0.0688,-0.24705 0.20641,-0.4588 0,0 0.1032,-0.21176 0.30961,-0.35293 0,0 0.1032,-0.0706 0.24081,-0.14117 0.0688,-0.0353 0.34401,-0.10587 0.61922,-0.14117 0.0688,0 0.24081,0 0.41281,0.0353 0.48162,0.10588 0.82563,0.4588 0.96324,0.59997 0,0 0.34401,0.35292 0.51602,0.45881 0.0688,0.0706 0.17201,0.17646 0.30961,0.24705 0.48162,-0.38822 1.82326,-1.4117 2.33929,-1.94109 0.0344,-0.0353 0.2064,-0.17647 0.2064,-0.31764 0.0344,-0.10586 -0.0344,-0.24703 -0.13761,-0.42349 0,0 -0.2408,-0.38822 -0.2408,-0.42351 -0.1032,-0.14117 -0.37842,-0.59997 -0.44722,-0.81172 0,-0.10588 0,-0.14117 0.0688,-0.24705 0.1376,-0.14117 0.44721,-0.4588 0.92883,-0.88231 0,0 0.37841,-0.31763 0.55042,-0.42351 0.0687,0 0.20641,-0.0706 0.34401,-0.0353 0.13761,0 0.27521,0.10589 0.44722,0.28235 0.30961,0.31763 0.65362,0.84701 0.96323,1.02347 0.0688,0.0353 0.17201,0.0353 0.27521,0.0353 0.13761,-0.0353 0.27521,-0.14117 0.41281,-0.21176 0.27522,-0.21175 0.44722,-0.35292 0.44722,-0.56467 0,-0.10588 -0.0344,-0.24705 -0.1032,-0.38822 -0.17201,-0.31764 -0.55042,-0.77644 -0.65363,-0.98818 -0.0344,-0.0706 -0.172,-0.28235 -0.1376,-0.4588 0,-0.0706 0.0344,-0.17647 0.1376,-0.28235 0.20641,-0.24704 0.72244,-0.59997 1.13525,-0.9176 0.0344,-0.0353 0.65362,-0.49409 0.89443,-0.63526 0,0 0.172,-0.14117 0.34401,-0.21176 0.24081,-0.0706 0.55042,-0.10587 0.72242,-0.14117 0,0 0.34402,0 0.65363,0.0706 0.0687,0 0.20641,0.0353 0.37842,0.10589 0.1032,0.0706 0.17201,0.10587 0.344,0.21174 0,0 0.30961,0.24706 0.48162,0.35293 0,0 0.10321,0.0705 0.24082,0.14117 0.0687,0 0.1376,0.0706 0.2752,0 0.0344,-0.0353 0.13761,-0.10588 0.27521,-0.24704 0.17201,-0.14117 0.37842,-0.38823 0.55043,-0.52939 0.2064,-0.17647 0.3784,-0.35293 0.68801,-0.4941 0.13761,-0.0353 0.68803,-0.21175 0.68803,-0.21175 0.0344,0 0.37841,-0.10588 0.55042,-0.28234 0.0688,-0.0353 0.0688,-0.0706 0.1376,-0.14117 z"
         inkscape:connector-curvature="0"
         style="fill:none;fill-opacity:0;stroke:#000000;stroke-width:0.35277778;stroke-linecap:round;stroke-linejoin:round;stroke-miterlimit:4;stroke-dasharray:none;stroke-opacity:1" />
      <path
         sodipodi:nodetypes="cssssc"
         inkscape:connector-curvature="0"
         id="rect887"
         d="m -327.2197,369.9642 -0.0412,8.546 c -0.003,0.55399 -0.446,1 -1,1 h -12.14722 c -0.554,0 -0.99919,-0.446 -1,-1 l -0.0125,-8.57359"
         style="opacity:1;fill:none;fill-opacity:0.25116284;stroke:#000000;stroke-width:0.35277778;stroke-miterlimit:4;stroke-dasharray:none;stroke-opacity:1" />
      <path
         sodipodi:nodetypes="cssssc"
         inkscape:connector-curvature="0"
         id="rect887-7"
         d="m -68.063825,369.93885 0.02585,8.57135 c 0.0017,0.554 -0.446,1 -1,1 h -12.147224 c -0.554,0 -1.002661,-0.44601 -1,-1 l 0.04105,-8.546"
         style="opacity:1;fill:none;fill-opacity:0.25116284;stroke:#000000;stroke-width:0.35277778;stroke-miterlimit:4;stroke-dasharray:none;stroke-opacity:1" />
      <path
         sodipodi:nodetypes="cc"
         inkscape:connector-curvature="0"
         id="path835"
         d="m -351.44973,496.67047 -0.004,9.86884"
         style="fill:none;stroke:#000000;stroke-width:0.26458332px;stroke-linecap:butt;stroke-linejoin:miter;stroke-opacity:1" />
      <path
         sodipodi:nodetypes="cc"
         inkscape:connector-curvature="0"
         id="path837"
         d="m -351.45373,506.53931 2.09176,-8.01643"
         style="fill:none;stroke:#000000;stroke-width:0.26458332px;stroke-linecap:butt;stroke-linejoin:miter;stroke-opacity:1" />
    </g>
  </g>
</svg>
