<?xml version="1.0" encoding="UTF-8" standalone="no"?>
<!-- exported from Silhouette Studio Business Edition V4.1.479ssbe -->

<svg
   xmlns:dc="http://purl.org/dc/elements/1.1/"
   xmlns:cc="http://creativecommons.org/ns#"
   xmlns:rdf="http://www.w3.org/1999/02/22-rdf-syntax-ns#"
   xmlns:svg="http://www.w3.org/2000/svg"
   xmlns="http://www.w3.org/2000/svg"
   xmlns:sodipodi="http://sodipodi.sourceforge.net/DTD/sodipodi-0.dtd"
   xmlns:inkscape="http://www.inkscape.org/namespaces/inkscape"
   version="1.1"
   width="594mm"
   height="841mm"
   viewBox="0 0 594.00002 841.00003"
   id="svg16"
   sodipodi:docname="t440_pr.svg"
   inkscape:version="0.92.3 (2405546, 2018-03-11)">
  <metadata
     id="metadata20">
    <rdf:RDF>
      <cc:Work
         rdf:about="">
        <dc:format>image/svg+xml</dc:format>
        <dc:type
           rdf:resource="http://purl.org/dc/dcmitype/StillImage" />
        <dc:title></dc:title>
      </cc:Work>
    </rdf:RDF>
  </metadata>
  <sodipodi:namedview
     pagecolor="#ffffff"
     bordercolor="#666666"
     borderopacity="1"
     objecttolerance="10"
     gridtolerance="10"
     guidetolerance="10"
     inkscape:pageopacity="0"
     inkscape:pageshadow="2"
     inkscape:window-width="1920"
     inkscape:window-height="1017"
     id="namedview18"
     showgrid="false"
     inkscape:zoom="0.40972224"
     inkscape:cx="592.81882"
     inkscape:cy="1296.3592"
     inkscape:window-x="-8"
     inkscape:window-y="-8"
     inkscape:window-maximized="1"
     inkscape:current-layer="svg16"
     showguides="true"
     inkscape:guide-bbox="true" />
  <defs
     id="defs2" />
  <g
     id="g913"
     style="stroke:#000000;stroke-opacity:1;stroke-width:0.35277779;stroke-miterlimit:4;stroke-dasharray:none">
    <path
       sodipodi:nodetypes="csccccccccccccccsccccc"
       id="path4-9"
       d="m 100.5613,333.11661 c 17.53026,-0.0342 73.61908,0.11948 127.19454,0.11948 62.47843,0 111.225,-0.1154 127.31423,-0.0658 m 13.64731,0 25.04556,0.0837 0.7705,0.38074 c 0.6333,0.313 0.8601,0.53201 1.2749,1.23103 l 0.5044,0.8503 0.0353,111.4731 0.0353,111.473 -0.4602,0.907 c -0.4898,0.9654 -1.1675,1.5573 -2.0893,1.8251 -0.5052,0.1468 -331.24182,0.1886 -331.81976,0.042 l 1e-5,-4e-5 c -0.63791,-0.1619 -1.80262,-0.9431 -1.93488,-1.2978 -0.07587,-0.2035 -0.26218,-0.6293 -0.41394,-0.9462 -0.27283,-0.5696 -0.27602,-1.8529 -0.27594,-111.7605 v -111.1843 l 0.47913,-1.05195 c 0.44952,-0.98686 0.53186,-1.08003 1.33014,-1.50572 l 0.85098,-0.45374 24.864406,-0.1194"
       inkscape:connector-curvature="0"
       style="fill:none;fill-opacity:1;stroke:#000000;stroke-width:0.35277779;stroke-linecap:round;stroke-linejoin:round;stroke-opacity:1;stroke-miterlimit:4;stroke-dasharray:none" />
    <path
       sodipodi:nodetypes="ccccccccsccscccccccccc"
       id="path10-7"
       d="m 372.16584,479.25064 c 0.19422,-0.0907 0.58554,-0.3951 0.86968,-0.6766 0.50099,-0.4962 0.51953,-0.5516 0.60807,-1.8191 0.13808,-1.976 0.0237,-121.59127 -0.11635,-121.83642 -0.0668,-0.11691 -0.38793,-0.44826 -0.71345,-0.73636 -0.47736,-0.4226 -0.76769,-0.55233 -1.50257,-0.67145 -1.0951,-0.17753 -285.097956,-0.19818 -286.942403,-0.0208 -1.30283,0.12524 -1.741876,0.35527 -2.214301,1.16006 -0.277992,0.47354 -0.283864,0.82091 -0.373743,21.88023 -0.123866,29.02679 -0.270334,99.83869 -0.206507,99.83869 l 2.937826,-9.1305 c 0.167285,-0.2022 11.27692,-0.2227 115.267258,-0.222 74.9113,5e-4 114.7273,0.0492 115.05532,0.1406 0.34894,0.0973 0.63558,0.3304 0.94146,0.7659 l 0.43967,0.6261 -0.0411,2.4573 c -0.0226,1.3516 0.01,3.4339 0.0721,4.6275 0.12412,2.3782 0.18434,2.5606 1.06807,3.237 0.4318,0.3305 0.70338,0.4093 1.66229,0.4825 0.6303,0.0481 12.77636,0.0819 26.99089,0.075 19.33937,-0.009 25.93358,-0.0541 26.19778,-0.1776 z"
       inkscape:connector-curvature="0"
       style="fill:none;fill-opacity:1;stroke:#000000;stroke-width:0.35277779;stroke-linecap:round;stroke-linejoin:round;stroke-miterlimit:4;stroke-dasharray:none;stroke-opacity:1" />
    <path
       sodipodi:nodetypes="cccc"
       inkscape:connector-curvature="0"
       id="rect864"
       d="m 100.5613,333.11661 v 10.64731 H 86.913986 v -10.64731"
       style="opacity:1;fill:none;fill-opacity:0.25116284;stroke:#000000;stroke-width:0.35277779;stroke-miterlimit:4;stroke-dasharray:none;stroke-opacity:1" />
    <path
       sodipodi:nodetypes="cccc"
       inkscape:connector-curvature="0"
       id="rect864-3"
       d="m -355.07007,333.17029 v 10.64731 h -13.64731 v -10.64731"
       style="opacity:1;fill:none;fill-opacity:0.25116284;stroke:#000000;stroke-width:0.35277779;stroke-miterlimit:4;stroke-dasharray:none;stroke-opacity:1"
       transform="scale(-1,1)" />
    <path
       transform="scale(-1,1)"
       style="opacity:1;fill:none;fill-opacity:0.25116284;stroke:#000000;stroke-width:0.35277778;stroke-miterlimit:4;stroke-dasharray:none;stroke-opacity:1"
       d="m -259.91516,485.05838 h 96.64731 c 0.554,0 1,0.446 1,1 v 60.64731 c 0,0.554 -0.446,1 -1,1 h -96.64731 c -0.554,0 -1,-0.446 -1,-1 v -60.64731 c 0,-0.554 0.446,-1 1,-1 z"
       id="rect866-6" />
    <path
       style="opacity:1;fill:none;fill-opacity:0.25116284;stroke:#000000;stroke-width:0.35277778;stroke-miterlimit:4;stroke-dasharray:none;stroke-opacity:1"
       d="m 390.71193,357.68399 a 5.8236556,5.8236556 0 0 1 -5.82365,5.82366 5.8236556,5.8236556 0 0 1 -5.82366,-5.82366 5.8236556,5.8236556 0 0 1 5.82366,-5.82366 5.8236556,5.8236556 0 0 1 5.82365,5.82366 z"
       id="path890" />
    <path
       style="fill:none;fill-opacity:1;stroke:#000000;stroke-width:0.35277779;stroke-linecap:round;stroke-linejoin:round;stroke-opacity:1;stroke-miterlimit:4;stroke-dasharray:none"
       inkscape:connector-curvature="0"
       d="m 371.08501,521.28761 c 0.11174,-0.0526 0.0246,-0.30571 0.0241,-0.36027 -0.004,-0.27796 0.12621,-0.45346 0.14292,-0.488 0.082,-0.16936 0.003,-0.16469 0.37611,-0.53143 0.39657,-0.38906 0.53497,-0.31284 0.56039,-0.38397 0.0152,-0.0426 -0.0876,-0.16671 -0.18702,-0.29683 -0.026,-0.0338 -0.54096,-0.6998 -0.58495,-0.75712 -0.47768,-0.62365 -0.3913,-0.50731 -0.39488,-0.62172 l 1.52396,-1.12404 c 0.42565,-0.31424 0.43835,-0.32514 0.47387,-0.32096 0.0517,0.006 0.1381,0.13962 0.92007,1.13949 0.009,0.0123 0.77311,0.99151 1.09374,1.40325 0.0247,0.0318 0.50798,0.64434 0.70091,0.88963 0.1588,0.20213 0.22804,0.29061 0.74407,0.94735 0.2876,0.36619 0.37433,0.47575 0.38115,0.48442 0.0179,0.0225 0.18148,0.23223 0.99494,1.27557 l 0.12184,0.15655 1.12597,1.43688 c 0.14848,0.19016 0.30303,0.38836 0.46432,0.59395 0.557,0.71129 0.65206,0.8302 0.68168,0.86933 0.1273,0.16792 0.0888,0.13606 0.0937,0.223 -3.17999,2.39258 -2.18004,1.64028 -4.5005,3.38511 -0.48878,0.36758 -0.37911,0.28493 -0.46606,0.35032 l -1.7593,1.32569 c -1.41298,1.06484 -1.41362,1.06403 -1.4263,1.07357 l -1.70772,1.28722 -1.87546,1.41594 -1.77814,1.33485 -1.36037,1.02779 c -0.22149,0.16755 -2.85729,2.15352 -2.93566,2.21247 -0.17438,0.13112 -0.52824,0.39936 -1.35188,1.01953 -0.80654,0.60715 -0.71701,0.5397 -0.80655,0.6073 l -1.98561,1.49901 -1.13936,0.8573 c -0.33148,0.24876 0.051,-0.0345 -0.73796,0.55482 -0.17237,0.12862 -0.51569,0.38787 -1.13864,0.85423 -0.95317,0.7144 -0.9084,0.68065 -0.91662,0.68685 -0.40754,0.30064 -0.35003,0.24403 -0.39374,0.26514 -0.11898,-0.0883 -0.23104,-0.26248 -1.00196,-1.33318 -0.0463,-0.065 -0.59755,-0.83461 -0.61414,-0.8573 -0.18669,-0.25639 0.0418,0.0641 -0.67595,-0.93123 -0.006,-0.009 -0.65002,-0.89474 -0.70294,-0.96808 l -0.97861,-1.35311 c -0.0569,-0.0788 -0.46109,-0.63969 -0.47374,-0.65717 -0.006,-0.008 -0.51906,-0.71556 -0.64897,-0.89436 -0.58985,-0.81128 -0.49668,-0.70111 -0.6069,-0.79856 -0.65553,0.3895 -1.01505,0.80666 -1.16927,0.78136 -0.0801,-0.0131 -0.0858,-0.0611 -0.4543,-0.57187 -0.0653,-0.0899 -0.82542,-1.13754 -0.8633,-1.19076 -0.14393,-0.20307 -0.17915,-0.24981 -0.17558,-0.29048 0.005,-0.071 0.0777,-0.11047 0.78003,-0.62554 l 1.23237,-0.90375 c 0.16568,-0.12094 1.19492,-0.87956 2.18653,-1.60815 l 1.5418,-1.13279 c 0.46767,-0.34335 0.44541,-0.30371 0.44967,-0.30598 0.24592,0.23942 1.05863,1.47411 1.2679,1.65733 0.32095,-0.20274 -0.0763,-0.12085 0.75327,-0.55987 0.64717,-0.34266 0.38905,-0.0966 0.79891,-0.18317 -0.0138,-0.0235 -0.14478,-0.23425 -0.14655,-0.23606 -0.007,-0.008 -0.31676,-0.182 -0.45787,-0.3174 -0.28142,-0.26999 -0.36889,-0.57424 -0.37959,-0.60415 -0.007,-0.0221 -0.27472,-0.61347 0.16208,-1.30631 0.43734,-0.69388 1.278,-0.77779 1.64175,-0.67316 0.65261,0.18795 1.10637,0.71512 1.14176,1.30831 0.0929,-0.0478 0.10965,-0.04 1.3652,-0.98009 0.80471,-0.60253 0.4891,-0.55861 0.86343,-0.75675 0.77884,-0.41212 0.56638,-0.31909 1.02367,-0.31706 -0.0285,-0.043 -0.007,-0.0225 -0.11726,-0.17119 l -0.78192,-1.05529 c -0.47426,-0.63975 -0.48385,-0.60002 -0.46228,-0.69817 0.0212,-0.0962 0.21316,-0.18937 0.67075,-0.52744 l 1.24142,-0.91708 c 0.0686,-0.0507 0.11252,-0.081 0.1406,-0.076 0.0919,0.0155 0.64138,0.872 1.29436,1.65053 0.21042,-0.13647 1.17981,-0.84895 1.33637,-0.98358 -1.31066,-1.80393 -1.2237,-1.51309 -1.20873,-1.74883 1.02187,-0.7167 2.22323,-1.69003 2.9657,-1.95981 0.20679,-0.0752 0.9501,-0.36575 1.7683,0.0183 0.69952,0.32833 1.0607,0.89732 1.21235,1.05925 0.0723,-0.53848 -0.0995,-0.15081 0.32399,-0.98399 0.25232,-0.49648 -0.041,0.0257 0.46443,-0.51856 0.004,-0.004 0.13545,-0.19659 0.41211,-0.35787 0.8945,-0.52166 0.69345,-0.34362 1.18197,-0.45442 0.42706,-0.0967 0.68833,0.0588 0.72323,0.0424 z"
       id="path894" />
    <path
       style="opacity:1;fill:none;fill-opacity:0.25116284;stroke:#000000;stroke-width:0.35277778;stroke-miterlimit:4;stroke-dasharray:none;stroke-opacity:1"
       d="m 162.26518,474.15427 h 98.64733 c 0.554,0 1,0.446 1,1 v 77.64731 c 0,0.554 -0.446,1 -1,1 h -98.64733 c -0.554,0 -1,-0.446 -1,-1 v -77.64731 c 0,-0.554 0.446,-1 1,-1 z"
       id="rect903" />
  </g>
</svg>
