<?xml version="1.0" encoding="UTF-8" standalone="no"?>
<!-- exported from Silhouette Studio Business Edition V4.1.479ssbe -->

<svg
   xmlns:dc="http://purl.org/dc/elements/1.1/"
   xmlns:cc="http://creativecommons.org/ns#"
   xmlns:rdf="http://www.w3.org/1999/02/22-rdf-syntax-ns#"
   xmlns:svg="http://www.w3.org/2000/svg"
   xmlns="http://www.w3.org/2000/svg"
   xmlns:sodipodi="http://sodipodi.sourceforge.net/DTD/sodipodi-0.dtd"
   xmlns:inkscape="http://www.inkscape.org/namespaces/inkscape"
   version="1.1"
   width="1200mm"
   height="1200mm"
   viewBox="0 0 1200 1200"
   id="svg42"
   sodipodi:docname="lenovo_m91p_bottom_top_combined.svg"
   inkscape:version="0.92.3 (2405546, 2018-03-11)">
  <metadata
     id="metadata46">
    <rdf:RDF>
      <cc:Work
         rdf:about="">
        <dc:format>image/svg+xml</dc:format>
        <dc:type
           rdf:resource="http://purl.org/dc/dcmitype/StillImage" />
        <dc:title></dc:title>
      </cc:Work>
    </rdf:RDF>
  </metadata>
  <sodipodi:namedview
     pagecolor="#ffffff"
     bordercolor="#666666"
     borderopacity="1"
     objecttolerance="10"
     gridtolerance="10"
     guidetolerance="10"
     inkscape:pageopacity="0"
     inkscape:pageshadow="2"
     inkscape:window-width="1664"
     inkscape:window-height="887"
     id="namedview44"
     showgrid="false"
     inkscape:zoom="0.10406944"
     inkscape:cx="2576.9873"
     inkscape:cy="2316.3044"
     inkscape:window-x="0"
     inkscape:window-y="28"
     inkscape:window-maximized="1"
     inkscape:current-layer="svg42" />
  <defs
     id="defs2" />
  <path
     d="m 701.63201,370.86799 c 5.5178,0 10,4.4923 10,10.0227 0,5.5305 -4.4822,10.0229 -10,10.0229 -5.5179,0 -10.0001,-4.4924 -10.0001,-10.0229 0,-5.5304 4.4822,-10.0227 10.0001,-10.0227 z"
     id="path4-6"
     style="fill:none;fill-opacity:1;stroke:#3f3f3f;stroke-width:0.26458332;stroke-linecap:round;stroke-linejoin:round;stroke-miterlimit:4;stroke-dasharray:none;stroke-opacity:1"
     inkscape:connector-curvature="0" />
  <path
     d="m 701.63191,115.07859 c 5.5178,0 10,4.4924 10,10.0228 0,5.5305 -4.4822,10.0228 -10,10.0228 -5.5179,0 -10.0001,-4.4923 -10.0001,-10.0228 0,-5.5304 4.4822,-10.0228 10.0001,-10.0228 z"
     id="path6-7"
     style="fill:none;fill-opacity:1;stroke:#3f3f3f;stroke-width:0.26458332;stroke-linecap:round;stroke-linejoin:round;stroke-miterlimit:4;stroke-dasharray:none;stroke-opacity:1"
     inkscape:connector-curvature="0" />
  <path
     d="m 410.05257,370.86799 c 5.5179,0 10.0001,4.4923 10.0001,10.0227 0,5.5305 -4.4822,10.0229 -10.0001,10.0229 -5.5179,0 -10.0001,-4.4924 -10.0001,-10.0229 0,-5.5304 4.4822,-10.0227 10.0001,-10.0227 z"
     id="path8-5"
     style="fill:none;fill-opacity:1;stroke:#3f3f3f;stroke-width:0.26458332;stroke-linecap:round;stroke-linejoin:round;stroke-miterlimit:4;stroke-dasharray:none;stroke-opacity:1"
     inkscape:connector-curvature="0" />
  <path
     d="m 410.05247,115.07859 c 5.5179,0 10,4.4924 10,10.0228 0,5.5305 -4.4821,10.0228 -10,10.0228 -5.5179,0 -10.0002,-4.4923 -10.0002,-10.0228 0,-5.5304 4.4823,-10.0228 10.0002,-10.0228 z"
     id="path10-3"
     style="fill:none;fill-opacity:1;stroke:#3f3f3f;stroke-width:0.26458332;stroke-linecap:round;stroke-linejoin:round;stroke-miterlimit:4;stroke-dasharray:none;stroke-opacity:1"
     inkscape:connector-curvature="0" />
  <path
     inkscape:connector-curvature="0"
     d="m 737.69711,172.55139 -10e-5,-0.1214 h -54.9992 l 0,160.3646 54.9984,0 v -0.2256"
     id="path12-5"
     style="fill:none;fill-opacity:1;stroke:#3f3f3f;stroke-width:0.26458332;stroke-linecap:round;stroke-linejoin:round;stroke-miterlimit:4;stroke-dasharray:none;stroke-opacity:1" />
  <path
     d="m 737.69711,172.55139 -0.0412,-127.6293 v -0.7861 l -301.7868,-0.2155"
     id="path16-6"
     style="fill:none;fill-opacity:1;stroke:#3f3f3f;stroke-width:0.26458332;stroke-linecap:round;stroke-linejoin:round;stroke-miterlimit:4;stroke-dasharray:none;stroke-opacity:1"
     inkscape:connector-curvature="0"
     sodipodi:nodetypes="cccc" />
  <path
     d="m 390.67081,1.97222 45.1983,41.94827"
     id="path28-9"
     style="fill:none;fill-opacity:1;stroke:#3f3f3f;stroke-width:0.26824418;stroke-linecap:round;stroke-linejoin:round;stroke-miterlimit:4;stroke-dasharray:none;stroke-opacity:1"
     inkscape:connector-curvature="0" />
  <path
     inkscape:connector-curvature="0"
     d="m 707.64604,421.85036 c 4.60899,0 8.35284,3.7439 8.35284,8.35284 0,4.60893 -3.74385,8.35283 -8.35284,8.35283 -4.60898,0 -8.35283,-3.7439 -8.35283,-8.35283 0,-4.60894 3.74385,-8.35284 8.35283,-8.35284 z"
     id="path32-1"
     style="fill:none;fill-opacity:1;stroke:#3f3f3f;stroke-width:0.29433393;stroke-linecap:round;stroke-linejoin:round;stroke-miterlimit:4;stroke-dasharray:none;stroke-opacity:1" />
  <path
     inkscape:connector-curvature="0"
     d="m 408.44456,422.9088 c 4.60895,0 8.35277,3.74389 8.35277,8.35283 0,4.60894 -3.74382,8.35283 -8.35277,8.35283 -4.60896,0 -8.35289,-3.74389 -8.35289,-8.35283 0,-4.60894 3.74393,-8.35283 8.35289,-8.35283 z"
     id="path34-2"
     style="fill:none;fill-opacity:1;stroke:#3f3f3f;stroke-width:0.2943331;stroke-linecap:round;stroke-linejoin:round;stroke-miterlimit:4;stroke-dasharray:none;stroke-opacity:1" />
  <path
     d="m 390.67081,1.97222 0.0373,504.8388"
     id="path40-0"
     style="fill:none;fill-opacity:1;stroke:#3f3f3f;stroke-width:0.26458332;stroke-linecap:round;stroke-linejoin:round;stroke-miterlimit:4;stroke-dasharray:none;stroke-opacity:1"
     inkscape:connector-curvature="0"
     sodipodi:nodetypes="cc" />
  <path
     style="fill:none;fill-opacity:1;stroke:#3f3f3f;stroke-width:0.26382443;stroke-linecap:round;stroke-linejoin:round;stroke-miterlimit:4;stroke-dasharray:none;stroke-opacity:1"
     id="path4-7"
     d="m 390.62796,506.27112 0.11171,344.72195"
     inkscape:connector-curvature="0"
     sodipodi:nodetypes="cc" />
  <path
     style="fill:none;fill-opacity:1;stroke:#3f3f3f;stroke-width:0.2620855;stroke-linecap:round;stroke-linejoin:round;stroke-miterlimit:4;stroke-dasharray:none;stroke-opacity:1"
     id="path6-5"
     d="M 434.29676,896.64131 H 737.59268 V 461.90266 l 0.10353,-129.10807"
     inkscape:connector-curvature="0"
     sodipodi:nodetypes="cccc" />
  <path
     style="fill:none;fill-opacity:1;stroke:#3f3f3f;stroke-width:0.26382443;stroke-linecap:round;stroke-linejoin:round;stroke-miterlimit:4;stroke-dasharray:none;stroke-opacity:1"
     id="path10-5"
     d="M 434.29673,896.64131 390.73967,850.99307"
     inkscape:connector-curvature="0"
     sodipodi:nodetypes="cc" />
  <path
     style="fill:none;fill-opacity:1;stroke:#3f3f3f;stroke-width:0.26382443;stroke-linecap:round;stroke-linejoin:round;stroke-miterlimit:4;stroke-dasharray:none;stroke-opacity:1"
     id="path12-6"
     d="m 706.26923,511.64276 c -4.93755,0 -8.94843,-4.034 -8.94843,-9.00001 0,-4.96601 4.01088,-9.00001 8.94843,-9.00001 4.93764,0 8.94842,4.034 8.94842,9.00001 0,4.96601 -4.01078,9.00001 -8.94842,9.00001 z"
     inkscape:connector-curvature="0" />
  <path
     style="fill:none;fill-opacity:1;stroke:#3f3f3f;stroke-width:0.26382443;stroke-linecap:round;stroke-linejoin:round;stroke-miterlimit:4;stroke-dasharray:none;stroke-opacity:1"
     id="path14-2"
     d="m 408.76669,510.58443 c -4.93754,0 -8.94843,-4.03391 -8.94843,-8.99992 0,-4.9661 4.01089,-9.00001 8.94843,-9.00001 4.93755,0 8.94843,4.03391 8.94843,9.00001 0,4.96601 -4.01088,8.99992 -8.94843,8.99992 z"
     inkscape:connector-curvature="0" />
</svg>
