<?xml version="1.0" encoding="utf-8"?>
<!DOCTYPE svg PUBLIC "-//W3C//DTD SVG 1.1//EN" "http://www.w3.org/Graphics/SVG/1.1/DTD/svg11.dtd">
<!-- exported from Silhouette Studio® Business Edition V4.2.471ssbe -->
<svg version="1.1" xmlns="http://www.w3.org/2000/svg" xmlns:xlink="http://www.w3.org/1999/xlink" width="304.8mm" height="600mm" viewBox="0 0 304.8 600">
<defs/>
<g>
<path d="M 236.7487 288.3784 C 240.5146 288.2163 247.0567 287.0529 248.1084 286.8577 C 253.5815 285.8418 256.6705 283.3175 258.0738 282.0053 C 258.6446 281.4716 260.739 279.5062 262.339 276.0489 C 263.4744 273.5953 263.7523 271.6991 263.7523 271.6991" fill="none" fill-opacity="1" stroke="#000000" stroke-opacity="1" stroke-width="0.3527778" stroke-linecap="round" stroke-linejoin="round"/>
<path d="M -255.4075 288.3734 L 237.4804 288.3734" fill="none" fill-opacity="1" stroke="#000000" stroke-opacity="1" stroke-width="0.3527778" stroke-linecap="round" stroke-linejoin="round"/>
</g>
<g>
<path d="M -281.1487 288.3788 C -284.9146 288.2167 -291.4566 287.0533 -292.5084 286.8581 C -297.9815 285.8424 -301.0705 283.3178 -302.4738 282.0057 C -307.2489 277.5409 -308.1523 271.6994 -308.1523 271.6994" fill="none" fill-opacity="1" stroke="#000000" stroke-opacity="1" stroke-width="0.3527778" stroke-linecap="round" stroke-linejoin="round"/>
<path d="M -253.8396 288.3739 L -281.8803 288.3738" fill="none" fill-opacity="1" stroke="#000000" stroke-opacity="1" stroke-width="0.3527778" stroke-linecap="round" stroke-linejoin="round"/>
</g>
<path d="M -308.1999 272.4588 L -308.1999 249.3736 L 263.7997 249.3736 L 263.7997 272.0923" fill="none" fill-opacity="1" stroke="#000000" stroke-opacity="1" stroke-width="0.3527778" stroke-linecap="round" stroke-linejoin="round"/>
</svg>