<?xml version="1.0" encoding="UTF-8" standalone="no"?>
<!-- exported from Silhouette Studio Business Edition V4.1.206ssbe -->

<svg
   xmlns:dc="http://purl.org/dc/elements/1.1/"
   xmlns:cc="http://creativecommons.org/ns#"
   xmlns:rdf="http://www.w3.org/1999/02/22-rdf-syntax-ns#"
   xmlns:svg="http://www.w3.org/2000/svg"
   xmlns="http://www.w3.org/2000/svg"
   xmlns:sodipodi="http://sodipodi.sourceforge.net/DTD/sodipodi-0.dtd"
   xmlns:inkscape="http://www.inkscape.org/namespaces/inkscape"
   version="1.1"
   width="304.8mm"
   height="800mm"
   viewBox="0 0 304.8 800"
   id="svg16"
   sodipodi:docname="7240lid.svg"
   inkscape:version="0.92.3 (2405546, 2018-03-11)">
  <metadata
     id="metadata20">
    <rdf:RDF>
      <cc:Work
         rdf:about="">
        <dc:format>image/svg+xml</dc:format>
        <dc:type
           rdf:resource="http://purl.org/dc/dcmitype/StillImage" />
      </cc:Work>
    </rdf:RDF>
  </metadata>
  <sodipodi:namedview
     pagecolor="#ffffff"
     bordercolor="#666666"
     borderopacity="1"
     objecttolerance="10"
     gridtolerance="10"
     guidetolerance="10"
     inkscape:pageopacity="0"
     inkscape:pageshadow="2"
     inkscape:window-width="1664"
     inkscape:window-height="887"
     id="namedview18"
     showgrid="false"
     inkscape:zoom="0.62441667"
     inkscape:cx="762.87056"
     inkscape:cy="2016.7365"
     inkscape:window-x="0"
     inkscape:window-y="28"
     inkscape:window-maximized="1"
     inkscape:current-layer="svg16"
     showguides="true"
     inkscape:guide-bbox="true" />
  <defs
     id="defs2" />
  <path
     style="fill:none;fill-opacity:1;stroke:#000000;stroke-width:0.2;stroke-linecap:round;stroke-linejoin:round;stroke-miterlimit:4;stroke-dasharray:none;stroke-opacity:1"
     inkscape:connector-curvature="0"
     d="m 22.452,140.117 c 0.34597,-0.658 0.80957,-1.6118 1.57482,-2.5224 0.26108,-0.3107 0.67627,-0.768 1.47556,-1.3928 0.98917,-0.7733 1.92874,-1.3472 3.09293,-1.8176 0.4338,-0.1753 1.62945,-0.6244 3.02722,-0.7505 0.58917,-0.0531 0.93078,-0.0423 1.69009,0.001 l 1.27942,0.0737 c 0,0 -0.1456,147.0945 -0.19934,163.4382 0,0 -0.0538,10.8724 -0.06531,14.4965 0,0 -0.04086,33.7743 -0.04522,39.7345 l -0.03641,91.4976 c -0.91925,0.2124 -1.23694,0.3227 -2.07532,0.2993 -0.14545,-0.004 -0.73077,-0.032 -1.44598,-0.1664 -0.32279,-0.0608 -1.63239,-0.3209 -3.13025,-0.994 0,0 -0.99484,-0.432 -1.87616,-1.0456 -0.16477,-0.1148 -0.83707,-0.5706 -1.5448,-1.2826 -1.27078,-1.2787 -1.84668,-2.5711 -2.46131,-3.7754 1e-5,-29.4328 0,-279.6122 0,-294.3286 L 22.452,140.117"
     id="path4" />
  <path
     style="fill:none;fill-opacity:1;stroke:#000000;stroke-width:0.2;stroke-linecap:round;stroke-linejoin:round;stroke-miterlimit:4;stroke-dasharray:none;stroke-opacity:1"
     inkscape:connector-curvature="0"
     d="m 127.9788,133.5457 c 0,0 59.2479,-0.0389 74.0595,0.0652 1.6958,0.0119 12.7252,0.0752 16.9546,0.38 1.1353,0.0819 2.8817,0.2309 3.7421,0.6421 0.4978,0.238 1.15003,0.35978 1.46693,0.63048 0.1435,0.1227 0.0749,-0.0749 1.11721,0.50468 0.1639,0.1521 0.6195,0.5127 1.1015,1.0848 0.297,0.3527 1.37742,1.02388 2.02612,2.25508 0.305,0.5789 0.87777,2.76594 1.05877,3.80324 l 0.0805,7.2356 -9.24705,-0.11396 v 277.22809 l 9.27364,0.12298 c -0.1271,2.503 0.0537,7.22464 -0.28689,8.57214 -0.1723,0.6815 -0.92763,1.55869 -1.61223,2.77759 0,0 -0.81087,0.80446 -1.32277,1.50346 -0.0957,0.1307 -1.07814,0.69062 -1.64754,1.26172 -0.2934,0.2944 -1.70484,1.14625 -1.70484,1.14625 l -1.72974,0.80652 c 0,0 -139.69309,0.1773 -174.61594,0.026 0,0 -5.79111,-0.023 -7.2385,-0.0548 -0.20306,-0.004 -0.47397,-0.008 -0.67663,-0.0211 -0.2052,-0.0139 -0.47742,-0.0496 -0.68201,-0.0708 0,0 -1.09116,-0.1131 -1.36395,-0.1413 v -309.644 h 91.24723"
     id="path6"
     sodipodi:nodetypes="cccccccccccccccccccccccccc" />
  <g
     style="stroke:#000000;stroke-width:0.20538171;stroke-miterlimit:4;stroke-dasharray:none;stroke-opacity:1"
     id="g14"
     transform="matrix(0.97379659,0,0,0.97379659,4.4054733,7.4928166)">
    <path
       style="fill:none;fill-opacity:1;stroke:#000000;stroke-width:0.20538171;stroke-linecap:round;stroke-linejoin:round;stroke-miterlimit:4;stroke-dasharray:none;stroke-opacity:1"
       inkscape:connector-curvature="0"
       d="m 124.3969,302.8676 c -7.6665,0 -13.8939,-6.2274 -13.8939,-13.8939 0,-7.6664 6.2274,-13.8939 13.8939,-13.8939 7.6664,0 13.8939,6.2275 13.8939,13.8939 0,7.6665 -6.2275,13.8939 -13.8939,13.8939 z"
       id="path8" />
    <path
       style="fill:none;fill-opacity:1;stroke:#000000;stroke-width:0.20538171;stroke-linecap:round;stroke-linejoin:round;stroke-miterlimit:4;stroke-dasharray:none;stroke-opacity:1"
       inkscape:connector-curvature="0"
       d="m 124.711,305.8781 c -9.3275,0 -16.9042,-7.5768 -16.9042,-16.9043 0,-9.3275 7.5767,-16.9043 16.9042,-16.9043 9.3275,0 16.9043,7.5768 16.9043,16.9043 0,9.3275 -7.5768,16.9043 -16.9043,16.9043 z"
       id="path10" />
    <path
       style="fill:none;fill-opacity:1;stroke:#000000;stroke-width:0.20538171;stroke-linecap:round;stroke-linejoin:round;stroke-miterlimit:4;stroke-dasharray:none;stroke-opacity:1"
       inkscape:connector-curvature="0"
       d="m 121.3184,295.3044 c -0.5719,0.8027 -0.7115,0.97 -0.7303,2.0649 -0.006,0.3734 0.0586,2.6135 0.0901,3.7333 0,0 6.3945,0 7.5229,0 0.005,-0.174 0.0972,-2.959 0.088,-3.4813 -0.006,-0.3424 -0.004,-0.8552 -0.2441,-1.3479 -0.1024,-0.2105 -0.4365,-0.7474 -0.9,-1.275 -0.0391,-0.0446 -0.1916,-0.2316 -0.4279,-0.411 -0.0253,-0.0193 -0.0634,-0.0395 -0.0869,-0.061 -0.0193,-0.0179 -0.0391,-0.0472 -0.0559,-0.0674 l -0.0241,-0.0779 c 0.007,-0.0735 0.007,-0.1093 0.0522,-0.2045 0.0519,-0.1084 0.2166,-0.3255 0.3449,-0.4921 l 1.0648,-1.3401 c 0.0416,-0.054 0.591,-0.7562 0.7697,-1.1237 0.0123,-0.0251 0.1671,-0.2827 0.0916,-0.5524 -0.0326,-0.1166 -0.208,-0.3945 -0.4203,-0.6894 -0.5298,-0.7356 -0.831,-1.012 -1.2717,-1.5624 -0.1929,-0.241 -0.3005,-0.3818 -0.5202,-0.7124 -0.072,-0.1083 -0.1245,-0.1695 -0.1698,-0.3303 l 0.0185,-0.0554 c 0.0816,-0.0793 0.125,-0.1041 0.2481,-0.1392 0.1553,-0.0442 0.3182,-0.0678 0.6409,-0.081 0.2056,-0.008 0.5771,0.0198 0.7899,-0.2315 0.266,-0.314 0.3031,-1.1296 0.3148,-1.335 0.0754,-1.3199 -0.0367,-6.6102 -0.0746,-8.8132 0,0 -2.4904,-0.1877 -2.6215,-0.1976 0,0 0,1.4069 0,2.0099 0,0 -2.9143,0.002 -3.0676,0.006 0,0 -0.6854,0.018 -0.9752,0.0622 -0.1125,0.0171 -0.4917,0.0672 -0.7028,0.2851 -0.1712,0.1767 -0.2199,0.4499 -0.243,0.6595 -0.0374,0.3403 -0.0267,2.1682 -0.0267,2.2823 0,0 4.0926,0 4.8148,0 l -0.1415,2.4209 c -1.7436,-0.0837 -3.3262,-0.1977 -4.3616,0.1462 0,0 -0.3458,0.08 -0.4429,0.3003 -0.0777,0.1765 -0.081,0.4212 -0.0714,0.7682 0,0 0.0378,1.1773 0.1239,1.4567 0,0 0.0551,0.2046 0.1844,0.2883 0.1401,0.0908 0.3171,0.1177 0.6482,0.1598 0,0 0.8246,0.0982 0.8679,0.1034 -1.0036,1.1745 -1.4386,1.6753 -2.7961,3.4154 0,0 1.237,1.6776 2.474,3.3553 l -0.7735,1.0639"
       id="path12" />
  </g>
</svg>
