<?xml version="1.0" encoding="utf-8"?>
<!-- Generator: Adobe Illustrator 24.2.2, SVG Export Plug-In . SVG Version: 6.00 Build 0)  -->
<svg version="1.1"
	 id="svg16" xmlns:cc="http://creativecommons.org/ns#" xmlns:dc="http://purl.org/dc/elements/1.1/" xmlns:inkscape="http://www.inkscape.org/namespaces/inkscape" xmlns:rdf="http://www.w3.org/1999/02/22-rdf-syntax-ns#" xmlns:sodipodi="http://sodipodi.sourceforge.net/DTD/sodipodi-0.dtd" xmlns:svg="http://www.w3.org/2000/svg"
	 xmlns="http://www.w3.org/2000/svg" xmlns:xlink="http://www.w3.org/1999/xlink" x="0px" y="0px" viewBox="0 0 864 2267.7"
	 style="enable-background:new 0 0 864 2267.7;" xml:space="preserve">
<style type="text/css">
	.st0{fill:none;stroke:#000000;stroke-width:0.5669;stroke-linecap:round;stroke-linejoin:round;stroke-miterlimit:11.3386;}
	.st1{fill:none;stroke:#000000;stroke-width:0.5669;stroke-linecap:round;stroke-linejoin:round;stroke-miterlimit:11.0415;}
</style>
<sodipodi:namedview  bordercolor="#666666" borderopacity="1" gridtolerance="10" guidetolerance="10" id="namedview18" inkscape:current-layer="svg16" inkscape:cx="-1292.7571" inkscape:cy="1082.4768" inkscape:guide-bbox="true" inkscape:pageopacity="0" inkscape:pageshadow="2" inkscape:window-height="684" inkscape:window-maximized="1" inkscape:window-width="1366" inkscape:window-x="0" inkscape:window-y="28" inkscape:zoom="0.15610417" objecttolerance="10" pagecolor="#ffffff" showgrid="false" showguides="true">
	</sodipodi:namedview>
<g>
	<path id="path4-0" inkscape:connector-curvature="0" sodipodi:nodetypes="ccccscccccccccccc" class="st0" d="M-262.3,1365.3
		c1-1.9,2.3-4.6,4.5-7.2c0.7-0.9,1.9-2.2,4.2-3.9c2.8-2.2,5.5-3.8,8.8-5.2c0.6-0.2,1.7-0.7,3.2-1.1c1.5-0.4,3.4-0.9,5.4-1
		c1.7-0.2,2.6-0.1,4.8,0l14.1,0.2 M-217.5,2225.6c-2.6,0.6-15.1-0.3-17.5-0.4c-0.4,0-2.8-0.5-4.8-0.9c-0.9-0.2-2.2-1.5-6.5-3.4
		c0,0-4.2-1.1-6.7-2.8c-0.5-0.3-2.4-1.6-4.4-3.6c-3.6-3.6-5.2-7.3-7-10.7c0-83.4,0-792.6,0-834.3l2.1-4.2"/>
	<path id="path6-9" inkscape:connector-curvature="0" sodipodi:nodetypes="ccccccccccccccccccccccc" class="st0" d="M41.3,1347.1
		c0,0,167.9-0.1,209.9,0.2c4.8,0,36.1,0.2,48.1,1.1c3.2,0.2,8.2,0.7,10.6,1.8c1.4,0.7,3.3,1,4.2,1.8c0.4,0.3,0.2-0.2,3.2,1.4
		c0.5,0.4,1.8,1.5,3.1,3.1c0.8,1,3.9,2.9,5.7,6.4c0.9,1.6,2.5,7.8,3,10.8l0.2,20.5l-26.2-0.3v785.8l26.3,0.3
		c-0.4,7.1,0.2,20.5-0.8,24.3c-0.5,1.9-2.6,4.4-4.6,7.9c0,0-2.3,2.3-3.7,4.3c-0.3,0.4-3.1,2-4.7,3.6c-0.8,0.8-4.8,3.2-4.8,3.2
		l-4.9,2.3c0,0-396,0.5-495,0.1c-8-0.4-20.7,0.8-28.4-0.1 M-217.4,1347.1H41.3"/>
	<g id="g14-3" transform="matrix(0.9737966,0,0,0.9737966,8.0464024,322.96848)">
		<path id="path8-6" inkscape:connector-curvature="0" class="st1" d="M27,1543.3c-21.7,0-39.4-17.7-39.4-39.4
			c0-21.7,17.7-39.4,39.4-39.4c21.7,0,39.4,17.7,39.4,39.4C66.4,1525.7,48.8,1543.3,27,1543.3L27,1543.3z"/>
		<path id="path10-0" inkscape:connector-curvature="0" class="st1" d="M27.9,1551.9c-26.4,0-47.9-21.5-47.9-47.9
			c0-26.4,21.5-47.9,47.9-47.9s47.9,21.5,47.9,47.9S54.4,1551.9,27.9,1551.9z"/>
		<path id="path12-6" inkscape:connector-curvature="0" class="st1" d="M18.3,1521.9c-1.6,2.3-2,2.7-2.1,5.9c0,1.1,0.2,7.4,0.3,10.6
			c0,0,18.1,0,21.3,0c0-0.5,0.3-8.4,0.2-9.9c0-1,0-2.4-0.7-3.8c-0.3-0.6-1.2-2.1-2.6-3.6c-0.1-0.1-0.5-0.7-1.2-1.2
			c-0.1-0.1-0.2-0.1-0.2-0.2c-0.1-0.1-0.1-0.1-0.2-0.2l-0.1-0.2c0-0.2,0-0.3,0.1-0.6c0.1-0.3,0.6-0.9,1-1.4l3-3.8
			c0.1-0.2,1.7-2.1,2.2-3.2c0-0.1,0.5-0.8,0.3-1.6c-0.1-0.3-0.6-1.1-1.2-2c-1.5-2.1-2.4-2.9-3.6-4.4c-0.5-0.7-0.9-1.1-1.5-2
			c-0.2-0.3-0.4-0.5-0.5-0.9l0.1-0.2c0.2-0.2,0.4-0.3,0.7-0.4c0.4-0.1,0.9-0.2,1.8-0.2c0.6,0,1.6,0.1,2.2-0.7
			c0.8-0.9,0.9-3.2,0.9-3.8c0.2-3.7-0.1-18.7-0.2-25c0,0-7.1-0.5-7.4-0.6c0,0,0,4,0,5.7c0,0-8.3,0-8.7,0c0,0-1.9,0.1-2.8,0.2
			c-0.3,0-1.4,0.2-2,0.8c-0.5,0.5-0.6,1.3-0.7,1.9c-0.1,1-0.1,6.1-0.1,6.5c0,0,11.6,0,13.6,0l-0.4,6.9c-4.9-0.2-9.4-0.6-12.4,0.4
			c0,0-1,0.2-1.3,0.9c-0.2,0.5-0.2,1.2-0.2,2.2c0,0,0.1,3.3,0.4,4.1c0,0,0.2,0.6,0.5,0.8c0.4,0.3,0.9,0.3,1.8,0.5
			c0,0,2.3,0.3,2.5,0.3c-2.8,3.3-4.1,4.7-7.9,9.7c0,0,3.5,4.8,7,9.5L18.3,1521.9"/>
	</g>
</g>
<sodipodi:namedview  bordercolor="#666666" borderopacity="1" gridtolerance="10" guidetolerance="10" id="namedview18" inkscape:current-layer="svg16" inkscape:cx="-1292.7571" inkscape:cy="1082.4768" inkscape:guide-bbox="true" inkscape:pageopacity="0" inkscape:pageshadow="2" inkscape:window-height="684" inkscape:window-maximized="1" inkscape:window-width="1366" inkscape:window-x="0" inkscape:window-y="28" inkscape:zoom="0.15610417" objecttolerance="10" pagecolor="#ffffff" showgrid="false" showguides="true">
	</sodipodi:namedview>
<g>
	<path id="path4-0_1_" inkscape:connector-curvature="0" sodipodi:nodetypes="ccccscccccccccccc" class="st0" d="M339.9,1365.3
		c1-1.9,2.3-4.6,4.5-7.2c0.7-0.9,1.9-2.2,4.2-3.9c2.8-2.2,5.5-3.8,8.8-5.2c0.6-0.2,1.7-0.7,3.2-1.1c1.5-0.4,3.4-0.9,5.4-1
		c1.7-0.2,2.6-0.1,4.8,0l14.1,0.2 M384.7,2225.7c-2.6,0.6-15.1-0.3-17.5-0.4c-0.4,0-2.8-0.5-4.8-0.9c-0.9-0.2-2.2-1.5-6.5-3.4
		c0,0-4.2-1.1-6.7-2.8c-0.5-0.3-2.4-1.6-4.4-3.6c-3.6-3.6-5.2-7.3-7-10.7c0-83.4,0-792.6,0-834.3l2.1-4.2"/>
	<path id="path6-9_1_" inkscape:connector-curvature="0" sodipodi:nodetypes="ccccccccccccccccccccccc" class="st0" d="
		M643.5,1347.2c0,0,167.9-0.1,209.9,0.2c4.8,0,36.1,0.2,48.1,1.1c3.2,0.2,8.2,0.7,10.6,1.8c1.4,0.7,3.3,1,4.2,1.8
		c0.4,0.3,0.2-0.2,3.2,1.4c0.5,0.4,1.8,1.5,3.1,3.1c0.8,1,3.9,2.9,5.7,6.4c0.9,1.6,2.5,7.8,3,10.8l0.2,20.5l-26.2-0.3v785.8
		l26.3,0.3c-0.4,7.1,0.2,20.5-0.8,24.3c-0.5,1.9-2.6,4.4-4.6,7.9c0,0-2.3,2.3-3.7,4.3c-0.3,0.4-3.1,2-4.7,3.6
		c-0.8,0.8-4.8,3.2-4.8,3.2l-4.9,2.3c0,0-396,0.5-495,0.1c-8-0.4-20.7,0.8-28.4-0.1 M384.9,1347.2h258.7"/>
	<g id="g14-3_1_" transform="matrix(0.9737966,0,0,0.9737966,8.0464024,322.96848)">
		<path id="path8-6_1_" inkscape:connector-curvature="0" class="st1" d="M645.5,1543.4c-21.7,0-39.4-17.7-39.4-39.4
			c0-21.7,17.7-39.4,39.4-39.4c21.7,0,39.4,17.7,39.4,39.4C684.9,1525.7,667.2,1543.4,645.5,1543.4L645.5,1543.4z"/>
		<path id="path10-0_1_" inkscape:connector-curvature="0" class="st1" d="M646.4,1551.9c-26.4,0-47.9-21.5-47.9-47.9
			s21.5-47.9,47.9-47.9c26.4,0,47.9,21.5,47.9,47.9C694.3,1530.4,672.8,1551.9,646.4,1551.9z"/>
		<path id="path12-6_1_" inkscape:connector-curvature="0" class="st1" d="M636.7,1521.9c-1.6,2.3-2,2.7-2.1,5.9
			c0,1.1,0.2,7.4,0.3,10.6c0,0,18.1,0,21.3,0c0-0.5,0.3-8.4,0.2-9.9c0-1,0-2.4-0.7-3.8c-0.3-0.6-1.2-2.1-2.6-3.6
			c-0.1-0.1-0.5-0.7-1.2-1.2c-0.1-0.1-0.2-0.1-0.2-0.2c-0.1-0.1-0.1-0.1-0.2-0.2l-0.1-0.2c0-0.2,0-0.3,0.1-0.6
			c0.1-0.3,0.6-0.9,1-1.4l3-3.8c0.1-0.2,1.7-2.1,2.2-3.2c0-0.1,0.5-0.8,0.3-1.6c-0.1-0.3-0.6-1.1-1.2-2c-1.5-2.1-2.4-2.9-3.6-4.4
			c-0.5-0.7-0.9-1.1-1.5-2c-0.2-0.3-0.4-0.5-0.5-0.9l0.1-0.2c0.2-0.2,0.4-0.3,0.7-0.4c0.4-0.1,0.9-0.2,1.8-0.2
			c0.6,0,1.6,0.1,2.2-0.7c0.8-0.9,0.9-3.2,0.9-3.8c0.2-3.7-0.1-18.7-0.2-25c0,0-7.1-0.5-7.4-0.6c0,0,0,4,0,5.7c0,0-8.3,0-8.7,0
			c0,0-1.9,0.1-2.8,0.2c-0.3,0-1.4,0.2-2,0.8c-0.5,0.5-0.6,1.3-0.7,1.9c-0.1,1-0.1,6.1-0.1,6.5c0,0,11.6,0,13.6,0l-0.4,6.9
			c-4.9-0.2-9.4-0.6-12.4,0.4c0,0-1,0.2-1.3,0.9c-0.2,0.5-0.2,1.2-0.2,2.2c0,0,0.1,3.3,0.4,4.1c0,0,0.2,0.6,0.5,0.8
			c0.4,0.3,0.9,0.3,1.8,0.5c0,0,2.3,0.3,2.5,0.3c-2.8,3.3-4.1,4.7-7.9,9.7c0,0,3.5,4.8,7,9.5L636.7,1521.9"/>
	</g>
</g>
<g>
	<path id="path4-0_3_" inkscape:connector-curvature="0" sodipodi:nodetypes="ccccscccccccccccc" class="st0" d="M942.9,1365.4
		c1-1.9,2.3-4.6,4.5-7.2c0.7-0.9,1.9-2.2,4.2-3.9c2.8-2.2,5.5-3.8,8.8-5.2c0.6-0.2,1.7-0.7,3.2-1.1c1.5-0.4,3.4-0.9,5.4-1
		c1.7-0.2,2.6-0.1,4.8,0l14.1,0.2 M987.7,2225.7c-2.6,0.6-15.1-0.3-17.5-0.4c-0.4,0-2.8-0.5-4.8-0.9c-0.9-0.2-2.2-1.5-6.5-3.4
		c0,0-4.2-1.1-6.7-2.8c-0.5-0.3-2.4-1.6-4.4-3.6c-3.6-3.6-5.2-7.3-7-10.7c0-83.4,0-792.6,0-834.3l2.1-4.2"/>
	<path id="path6-9_3_" inkscape:connector-curvature="0" sodipodi:nodetypes="ccccccccccccccccccccccc" class="st0" d="
		M1246.5,1347.3c0,0,167.9-0.1,209.9,0.2c4.8,0,36.1,0.2,48.1,1.1c3.2,0.2,8.2,0.7,10.6,1.8c1.4,0.7,3.3,1,4.2,1.8
		c0.4,0.3,0.2-0.2,3.2,1.4c0.5,0.4,1.8,1.5,3.1,3.1c0.8,1,3.9,2.9,5.7,6.4c0.9,1.6,2.5,7.8,3,10.8l0.2,20.5l-26.2-0.3v785.8
		l26.3,0.3c-0.4,7.1,0.2,20.5-0.8,24.3c-0.5,1.9-2.6,4.4-4.6,7.9c0,0-2.3,2.3-3.7,4.3c-0.3,0.4-3.1,2-4.7,3.6
		c-0.8,0.8-4.8,3.2-4.8,3.2l-4.9,2.3c0,0-396,0.5-495,0.1c-8-0.4-20.7,0.8-28.4-0.1 M987.9,1347.3h258.7"/>
	<g id="g14-3_3_" transform="matrix(0.9737966,0,0,0.9737966,8.0464024,322.96848)">
		<path id="path8-6_3_" inkscape:connector-curvature="0" class="st1" d="M1264.7,1543.4c-21.7,0-39.4-17.7-39.4-39.4
			c0-21.7,17.7-39.4,39.4-39.4c21.7,0,39.4,17.7,39.4,39.4C1304.1,1525.8,1286.4,1543.4,1264.7,1543.4L1264.7,1543.4z"/>
		<path id="path10-0_3_" inkscape:connector-curvature="0" class="st1" d="M1265.6,1552c-26.4,0-47.9-21.5-47.9-47.9
			c0-26.4,21.5-47.9,47.9-47.9c26.4,0,47.9,21.5,47.9,47.9C1313.5,1530.5,1292,1552,1265.6,1552z"/>
		<path id="path12-6_3_" inkscape:connector-curvature="0" class="st1" d="M1256,1522c-1.6,2.3-2,2.7-2.1,5.9
			c0,1.1,0.2,7.4,0.3,10.6c0,0,18.1,0,21.3,0c0-0.5,0.3-8.4,0.2-9.9c0-1,0-2.4-0.7-3.8c-0.3-0.6-1.2-2.1-2.6-3.6
			c-0.1-0.1-0.5-0.7-1.2-1.2c-0.1-0.1-0.2-0.1-0.2-0.2c-0.1-0.1-0.1-0.1-0.2-0.2l-0.1-0.2c0-0.2,0-0.3,0.1-0.6
			c0.1-0.3,0.6-0.9,1-1.4l3-3.8c0.1-0.2,1.7-2.1,2.2-3.2c0-0.1,0.5-0.8,0.3-1.6c-0.1-0.3-0.6-1.1-1.2-2c-1.5-2.1-2.4-2.9-3.6-4.4
			c-0.5-0.7-0.9-1.1-1.5-2c-0.2-0.3-0.4-0.5-0.5-0.9l0.1-0.2c0.2-0.2,0.4-0.3,0.7-0.4c0.4-0.1,0.9-0.2,1.8-0.2
			c0.6,0,1.6,0.1,2.2-0.7c0.8-0.9,0.9-3.2,0.9-3.8c0.2-3.7-0.1-18.7-0.2-25c0,0-7.1-0.5-7.4-0.6c0,0,0,4,0,5.7c0,0-8.3,0-8.7,0
			c0,0-1.9,0.1-2.8,0.2c-0.3,0-1.4,0.2-2,0.8c-0.5,0.5-0.6,1.3-0.7,1.9c-0.1,1-0.1,6.1-0.1,6.5c0,0,11.6,0,13.6,0l-0.4,6.9
			c-4.9-0.2-9.4-0.6-12.4,0.4c0,0-1,0.2-1.3,0.9c-0.2,0.5-0.2,1.2-0.2,2.2c0,0,0.1,3.3,0.4,4.1c0,0,0.2,0.6,0.5,0.8
			c0.4,0.3,0.9,0.3,1.8,0.5c0,0,2.3,0.3,2.5,0.3c-2.8,3.3-4.1,4.7-7.9,9.7c0,0,3.5,4.8,7,9.5L1256,1522"/>
	</g>
</g>
<g>
	<path id="path4-0_2_" inkscape:connector-curvature="0" sodipodi:nodetypes="ccccscccccccccccc" class="st0" d="M1545.2,1365.5
		c1-1.9,2.3-4.6,4.5-7.2c0.7-0.9,1.9-2.2,4.2-3.9c2.8-2.2,5.5-3.8,8.8-5.2c0.6-0.2,1.7-0.7,3.2-1.1c1.5-0.4,3.4-0.9,5.4-1
		c1.7-0.2,2.6-0.1,4.8,0l14.1,0.2 M1590,2225.8c-2.6,0.6-15.1-0.3-17.5-0.4c-0.4,0-2.8-0.5-4.8-0.9c-0.9-0.2-2.2-1.5-6.5-3.4
		c0,0-4.2-1.1-6.7-2.8c-0.5-0.3-2.4-1.6-4.4-3.6c-3.6-3.6-5.2-7.3-7-10.7c0-83.4,0-792.6,0-834.3l2.1-4.2"/>
	<path id="path6-9_2_" inkscape:connector-curvature="0" sodipodi:nodetypes="ccccccccccccccccccccccc" class="st0" d="
		M1848.8,1347.3c0,0,167.9-0.1,209.9,0.2c4.8,0,36.1,0.2,48.1,1.1c3.2,0.2,8.2,0.7,10.6,1.8c1.4,0.7,3.3,1,4.2,1.8
		c0.4,0.3,0.2-0.2,3.2,1.4c0.5,0.4,1.8,1.5,3.1,3.1c0.8,1,3.9,2.9,5.7,6.4c0.9,1.6,2.5,7.8,3,10.8l0.2,20.5l-26.2-0.3v785.8
		l26.3,0.3c-0.4,7.1,0.2,20.5-0.8,24.3c-0.5,1.9-2.6,4.4-4.6,7.9c0,0-2.3,2.3-3.7,4.3c-0.3,0.4-3.1,2-4.7,3.6
		c-0.8,0.8-4.8,3.2-4.8,3.2l-4.9,2.3c0,0-396,0.5-495,0.1c-8-0.4-20.7,0.8-28.4-0.1 M1590.1,1347.3h258.7"/>
	<g id="g14-3_2_" transform="matrix(0.9737966,0,0,0.9737966,8.0464024,322.96848)">
		<path id="path8-6_2_" inkscape:connector-curvature="0" class="st1" d="M1883.2,1543.5c-21.7,0-39.4-17.7-39.4-39.4
			c0-21.7,17.7-39.4,39.4-39.4c21.7,0,39.4,17.7,39.4,39.4C1922.5,1525.8,1904.9,1543.5,1883.2,1543.5L1883.2,1543.5z"/>
		<path id="path10-0_2_" inkscape:connector-curvature="0" class="st1" d="M1884,1552c-26.4,0-47.9-21.5-47.9-47.9
			c0-26.4,21.5-47.9,47.9-47.9c26.4,0,47.9,21.5,47.9,47.9C1932,1530.5,1910.5,1552,1884,1552z"/>
		<path id="path12-6_2_" inkscape:connector-curvature="0" class="st1" d="M1874.4,1522c-1.6,2.3-2,2.7-2.1,5.9
			c0,1.1,0.2,7.4,0.3,10.6c0,0,18.1,0,21.3,0c0-0.5,0.3-8.4,0.2-9.9c0-1,0-2.4-0.7-3.8c-0.3-0.6-1.2-2.1-2.6-3.6
			c-0.1-0.1-0.5-0.7-1.2-1.2c-0.1-0.1-0.2-0.1-0.2-0.2c-0.1-0.1-0.1-0.1-0.2-0.2l-0.1-0.2c0-0.2,0-0.3,0.1-0.6
			c0.1-0.3,0.6-0.9,1-1.4l3-3.8c0.1-0.2,1.7-2.1,2.2-3.2c0-0.1,0.5-0.8,0.3-1.6c-0.1-0.3-0.6-1.1-1.2-2c-1.5-2.1-2.4-2.9-3.6-4.4
			c-0.5-0.7-0.9-1.1-1.5-2c-0.2-0.3-0.4-0.5-0.5-0.9l0.1-0.2c0.2-0.2,0.4-0.3,0.7-0.4c0.4-0.1,0.9-0.2,1.8-0.2
			c0.6,0,1.6,0.1,2.2-0.7c0.8-0.9,0.9-3.2,0.9-3.8c0.2-3.7-0.1-18.7-0.2-25c0,0-7.1-0.5-7.4-0.6c0,0,0,4,0,5.7c0,0-8.3,0-8.7,0
			c0,0-1.9,0.1-2.8,0.2c-0.3,0-1.4,0.2-2,0.8c-0.5,0.5-0.6,1.3-0.7,1.9c-0.1,1-0.1,6.1-0.1,6.5c0,0,11.6,0,13.6,0l-0.4,6.9
			c-4.9-0.2-9.4-0.6-12.4,0.4c0,0-1,0.2-1.3,0.9c-0.2,0.5-0.2,1.2-0.2,2.2c0,0,0.1,3.3,0.4,4.1c0,0,0.2,0.6,0.5,0.8
			c0.4,0.3,0.9,0.3,1.8,0.5c0,0,2.3,0.3,2.5,0.3c-2.8,3.3-4.1,4.7-7.9,9.7c0,0,3.5,4.8,7,9.5L1874.4,1522"/>
	</g>
</g>
<g>
	<path id="path4-0_5_" inkscape:connector-curvature="0" sodipodi:nodetypes="ccccscccccccccccc" class="st0" d="M2158.6,1365.6
		c1-1.9,2.3-4.6,4.5-7.2c0.7-0.9,1.9-2.2,4.2-3.9c2.8-2.2,5.5-3.8,8.8-5.2c0.6-0.2,1.7-0.7,3.2-1.1c1.5-0.4,3.4-0.9,5.4-1
		c1.7-0.2,2.6-0.1,4.8,0l14.1,0.2 M2203.4,2225.9c-2.6,0.6-15.1-0.3-17.5-0.4c-0.4,0-2.8-0.5-4.8-0.9c-0.9-0.2-2.2-1.5-6.5-3.4
		c0,0-4.2-1.1-6.7-2.8c-0.5-0.3-2.4-1.6-4.4-3.6c-3.6-3.6-5.2-7.3-7-10.7c0-83.4,0-792.6,0-834.3l2.1-4.2"/>
	<path id="path6-9_5_" inkscape:connector-curvature="0" sodipodi:nodetypes="ccccccccccccccccccccccc" class="st0" d="
		M2462.2,1347.5c0,0,167.9-0.1,209.9,0.2c4.8,0,36.1,0.2,48.1,1.1c3.2,0.2,8.2,0.7,10.6,1.8c1.4,0.7,3.3,1,4.2,1.8
		c0.4,0.3,0.2-0.2,3.2,1.4c0.5,0.4,1.8,1.5,3.1,3.1c0.8,1,3.9,2.9,5.7,6.4c0.9,1.6,2.5,7.8,3,10.8l0.2,20.5l-26.2-0.3V2180l26.3,0.3
		c-0.4,7.1,0.2,20.5-0.8,24.3c-0.5,1.9-2.6,4.4-4.6,7.9c0,0-2.3,2.3-3.7,4.3c-0.3,0.4-3.1,2-4.7,3.6c-0.8,0.8-4.8,3.2-4.8,3.2
		l-4.9,2.3c0,0-396,0.5-495,0.1c-8-0.4-20.7,0.8-28.4-0.1 M2203.5,1347.5h258.7"/>
	<g id="g14-3_5_" transform="matrix(0.9737966,0,0,0.9737966,8.0464024,322.96848)">
		<path id="path8-6_5_" inkscape:connector-curvature="0" class="st1" d="M2513.1,1543.6c-21.7,0-39.4-17.7-39.4-39.4
			c0-21.7,17.7-39.4,39.4-39.4s39.4,17.7,39.4,39.4C2552.5,1526,2534.8,1543.6,2513.1,1543.6L2513.1,1543.6z"/>
		<path id="path10-0_5_" inkscape:connector-curvature="0" class="st1" d="M2514,1552.2c-26.4,0-47.9-21.5-47.9-47.9
			c0-26.4,21.5-47.9,47.9-47.9s47.9,21.5,47.9,47.9C2561.9,1530.7,2540.4,1552.2,2514,1552.2z"/>
		<path id="path12-6_5_" inkscape:connector-curvature="0" class="st1" d="M2504.4,1522.2c-1.6,2.3-2,2.7-2.1,5.9
			c0,1.1,0.2,7.4,0.3,10.6c0,0,18.1,0,21.3,0c0-0.5,0.3-8.4,0.2-9.9c0-1,0-2.4-0.7-3.8c-0.3-0.6-1.2-2.1-2.6-3.6
			c-0.1-0.1-0.5-0.7-1.2-1.2c-0.1-0.1-0.2-0.1-0.2-0.2c-0.1-0.1-0.1-0.1-0.2-0.2l-0.1-0.2c0-0.2,0-0.3,0.1-0.6
			c0.1-0.3,0.6-0.9,1-1.4l3-3.8c0.1-0.2,1.7-2.1,2.2-3.2c0-0.1,0.5-0.8,0.3-1.6c-0.1-0.3-0.6-1.1-1.2-2c-1.5-2.1-2.4-2.9-3.6-4.4
			c-0.5-0.7-0.9-1.1-1.5-2c-0.2-0.3-0.4-0.5-0.5-0.9l0.1-0.2c0.2-0.2,0.4-0.3,0.7-0.4c0.4-0.1,0.9-0.2,1.8-0.2
			c0.6,0,1.6,0.1,2.2-0.7c0.8-0.9,0.9-3.2,0.9-3.8c0.2-3.7-0.1-18.7-0.2-25c0,0-7.1-0.5-7.4-0.6c0,0,0,4,0,5.7c0,0-8.3,0-8.7,0
			c0,0-1.9,0.1-2.8,0.2c-0.3,0-1.4,0.2-2,0.8c-0.5,0.5-0.6,1.3-0.7,1.9c-0.1,1-0.1,6.1-0.1,6.5c0,0,11.6,0,13.6,0l-0.4,6.9
			c-4.9-0.2-9.4-0.6-12.4,0.4c0,0-1,0.2-1.3,0.9c-0.2,0.5-0.2,1.2-0.2,2.2c0,0,0.1,3.3,0.4,4.1c0,0,0.2,0.6,0.5,0.8
			c0.4,0.3,0.9,0.3,1.8,0.5c0,0,2.3,0.3,2.5,0.3c-2.8,3.3-4.1,4.7-7.9,9.7c0,0,3.5,4.8,7,9.5L2504.4,1522.2"/>
	</g>
</g>
<g>
	<path id="path4-0_4_" inkscape:connector-curvature="0" sodipodi:nodetypes="ccccscccccccccccc" class="st0" d="M2760.9,1365.7
		c1-1.9,2.3-4.6,4.5-7.2c0.7-0.9,1.9-2.2,4.2-3.9c2.8-2.2,5.5-3.8,8.8-5.2c0.6-0.2,1.7-0.7,3.2-1.1c1.5-0.4,3.4-0.9,5.4-1
		c1.7-0.2,2.6-0.1,4.8,0l14.1,0.2 M2805.6,2226c-2.6,0.6-15.1-0.3-17.5-0.4c-0.4,0-2.8-0.5-4.8-0.9c-0.9-0.2-2.2-1.5-6.5-3.4
		c0,0-4.2-1.1-6.7-2.8c-0.5-0.3-2.4-1.6-4.4-3.6c-3.6-3.6-5.2-7.3-7-10.7c0-83.4,0-792.6,0-834.3l2.1-4.2"/>
	<path id="path6-9_4_" inkscape:connector-curvature="0" sodipodi:nodetypes="ccccccccccccccccccccccc" class="st0" d="
		M3064.4,1347.5c0,0,167.9-0.1,209.9,0.2c4.8,0,36.1,0.2,48.1,1.1c3.2,0.2,8.2,0.7,10.6,1.8c1.4,0.7,3.3,1,4.2,1.8
		c0.4,0.3,0.2-0.2,3.2,1.4c0.5,0.4,1.8,1.5,3.1,3.1c0.8,1,3.9,2.9,5.7,6.4c0.9,1.6,2.5,7.8,3,10.8l0.2,20.5l-26.2-0.3v785.8
		l26.3,0.3c-0.4,7.1,0.2,20.5-0.8,24.3c-0.5,1.9-2.6,4.4-4.6,7.9c0,0-2.3,2.3-3.7,4.3c-0.3,0.4-3.1,2-4.7,3.6
		c-0.8,0.8-4.8,3.2-4.8,3.2l-4.9,2.3c0,0-396,0.5-495,0.1c-8-0.4-20.7,0.8-28.4-0.1 M2805.8,1347.5h258.7"/>
	<g id="g14-3_4_" transform="matrix(0.9737966,0,0,0.9737966,8.0464024,322.96848)">
		<path id="path8-6_4_" inkscape:connector-curvature="0" class="st1" d="M3131.5,1543.7c-21.7,0-39.4-17.7-39.4-39.4
			c0-21.7,17.7-39.4,39.4-39.4s39.4,17.7,39.4,39.4C3170.9,1526,3153.3,1543.7,3131.5,1543.7L3131.5,1543.7z"/>
		<path id="path10-0_4_" inkscape:connector-curvature="0" class="st1" d="M3132.4,1552.2c-26.4,0-47.9-21.5-47.9-47.9
			c0-26.4,21.5-47.9,47.9-47.9s47.9,21.5,47.9,47.9S3158.9,1552.2,3132.4,1552.2z"/>
		<path id="path12-6_4_" inkscape:connector-curvature="0" class="st1" d="M3122.8,1522.2c-1.6,2.3-2,2.7-2.1,5.9
			c0,1.1,0.2,7.4,0.3,10.6c0,0,18.1,0,21.3,0c0-0.5,0.3-8.4,0.2-9.9c0-1,0-2.4-0.7-3.8c-0.3-0.6-1.2-2.1-2.6-3.6
			c-0.1-0.1-0.5-0.7-1.2-1.2c-0.1-0.1-0.2-0.1-0.2-0.2c-0.1-0.1-0.1-0.1-0.2-0.2l-0.1-0.2c0-0.2,0-0.3,0.1-0.6
			c0.1-0.3,0.6-0.9,1-1.4l3-3.8c0.1-0.2,1.7-2.1,2.2-3.2c0-0.1,0.5-0.8,0.3-1.6c-0.1-0.3-0.6-1.1-1.2-2c-1.5-2.1-2.4-2.9-3.6-4.4
			c-0.5-0.7-0.9-1.1-1.5-2c-0.2-0.3-0.4-0.5-0.5-0.9l0.1-0.2c0.2-0.2,0.4-0.3,0.7-0.4c0.4-0.1,0.9-0.2,1.8-0.2
			c0.6,0,1.6,0.1,2.2-0.7c0.8-0.9,0.9-3.2,0.9-3.8c0.2-3.7-0.1-18.7-0.2-25c0,0-7.1-0.5-7.4-0.6c0,0,0,4,0,5.7c0,0-8.3,0-8.7,0
			c0,0-1.9,0.1-2.8,0.2c-0.3,0-1.4,0.2-2,0.8c-0.5,0.5-0.6,1.3-0.7,1.9c-0.1,1-0.1,6.1-0.1,6.5c0,0,11.6,0,13.6,0l-0.4,6.9
			c-4.9-0.2-9.4-0.6-12.4,0.4c0,0-1,0.2-1.3,0.9c-0.2,0.5-0.2,1.2-0.2,2.2c0,0,0.1,3.3,0.4,4.1c0,0,0.2,0.6,0.5,0.8
			c0.4,0.3,0.9,0.3,1.8,0.5c0,0,2.3,0.3,2.5,0.3c-2.8,3.3-4.1,4.7-7.9,9.7c0,0,3.5,4.8,7,9.5L3122.8,1522.2"/>
	</g>
</g>
<g>
	<path id="path4-0_11_" inkscape:connector-curvature="0" sodipodi:nodetypes="ccccscccccccccccc" class="st0" d="M-260.2,465.6
		c1-1.9,2.3-4.6,4.5-7.2c0.7-0.9,1.9-2.2,4.2-3.9c2.8-2.2,5.5-3.8,8.8-5.2c0.6-0.2,1.7-0.7,3.2-1.1c1.5-0.4,3.4-0.9,5.4-1
		c1.7-0.2,2.6-0.1,4.8,0l14.1,0.2 M-215.4,1325.9c-2.6,0.6-15.1-0.3-17.5-0.4c-0.4,0-2.8-0.5-4.8-0.9c-0.9-0.2-2.2-1.5-6.5-3.4
		c0,0-4.2-1.1-6.7-2.8c-0.5-0.3-2.4-1.6-4.4-3.6c-3.6-3.6-5.2-7.3-7-10.7c0-83.4,0-792.6,0-834.3l2.1-4.2"/>
	<path id="path6-9_11_" inkscape:connector-curvature="0" sodipodi:nodetypes="ccccccccccccccccccccccc" class="st0" d="M43.4,447.4
		c0,0,167.9-0.1,209.9,0.2c4.8,0,36.1,0.2,48.1,1.1c3.2,0.2,8.2,0.7,10.6,1.8c1.4,0.7,3.3,1,4.2,1.8c0.4,0.3,0.2-0.2,3.2,1.4
		c0.5,0.4,1.8,1.5,3.1,3.1c0.8,1,3.9,2.9,5.7,6.4c0.9,1.6,2.5,7.8,3,10.8l0.2,20.5l-26.2-0.3V1280l26.3,0.3
		c-0.4,7.1,0.2,20.5-0.8,24.3c-0.5,1.9-2.6,4.4-4.6,7.9c0,0-2.3,2.3-3.7,4.3c-0.3,0.4-3.1,2-4.7,3.6c-0.8,0.8-4.8,3.2-4.8,3.2
		l-4.9,2.3c0,0-396,0.5-495,0.1c-8-0.4-20.7,0.8-28.4-0.1 M-215.3,447.4H43.4"/>
	<g id="g14-3_11_" transform="matrix(0.9737966,0,0,0.9737966,8.0464024,322.96848)">
		<path id="path8-6_11_" inkscape:connector-curvature="0" class="st1" d="M29.2,619.4c-21.7,0-39.4-17.7-39.4-39.4
			c0-21.7,17.7-39.4,39.4-39.4c21.7,0,39.4,17.7,39.4,39.4C68.6,601.7,50.9,619.4,29.2,619.4L29.2,619.4z"/>
		<path id="path10-0_11_" inkscape:connector-curvature="0" class="st1" d="M30.1,627.9c-26.4,0-47.9-21.5-47.9-47.9
			c0-26.4,21.5-47.9,47.9-47.9S78,553.6,78,580C78,606.4,56.5,627.9,30.1,627.9z"/>
		<path id="path12-6_11_" inkscape:connector-curvature="0" class="st1" d="M20.5,597.9c-1.6,2.3-2,2.7-2.1,5.9
			c0,1.1,0.2,7.4,0.3,10.6c0,0,18.1,0,21.3,0c0-0.5,0.3-8.4,0.2-9.9c0-1,0-2.4-0.7-3.8c-0.3-0.6-1.2-2.1-2.6-3.6
			c-0.1-0.1-0.5-0.7-1.2-1.2c-0.1-0.1-0.2-0.1-0.2-0.2c-0.1-0.1-0.1-0.1-0.2-0.2l-0.1-0.2c0-0.2,0-0.3,0.1-0.6
			c0.1-0.3,0.6-0.9,1-1.4l3-3.8c0.1-0.2,1.7-2.1,2.2-3.2c0-0.1,0.5-0.8,0.3-1.6c-0.1-0.3-0.6-1.1-1.2-2c-1.5-2.1-2.4-2.9-3.6-4.4
			c-0.5-0.7-0.9-1.1-1.5-2c-0.2-0.3-0.4-0.5-0.5-0.9l0.1-0.2c0.2-0.2,0.4-0.3,0.7-0.4c0.4-0.1,0.9-0.2,1.8-0.2
			c0.6,0,1.6,0.1,2.2-0.7c0.8-0.9,0.9-3.2,0.9-3.8c0.2-3.7-0.1-18.7-0.2-25c0,0-7.1-0.5-7.4-0.6c0,0,0,4,0,5.7c0,0-8.3,0-8.7,0
			c0,0-1.9,0.1-2.8,0.2c-0.3,0-1.4,0.2-2,0.8c-0.5,0.5-0.6,1.3-0.7,1.9c-0.1,1-0.1,6.1-0.1,6.5c0,0,11.6,0,13.6,0l-0.4,6.9
			c-4.9-0.2-9.4-0.6-12.4,0.4c0,0-1,0.2-1.3,0.9c-0.2,0.5-0.2,1.2-0.2,2.2c0,0,0.1,3.3,0.4,4.1c0,0,0.2,0.6,0.5,0.8
			c0.4,0.3,0.9,0.3,1.8,0.5c0,0,2.3,0.3,2.5,0.3c-2.8,3.3-4.1,4.7-7.9,9.7c0,0,3.5,4.8,7,9.5L20.5,597.9"/>
	</g>
</g>
<g>
	<path id="path4-0_10_" inkscape:connector-curvature="0" sodipodi:nodetypes="ccccscccccccccccc" class="st0" d="M342,465.6
		c1-1.9,2.3-4.6,4.5-7.2c0.7-0.9,1.9-2.2,4.2-3.9c2.8-2.2,5.5-3.8,8.8-5.2c0.6-0.2,1.7-0.7,3.2-1.1c1.5-0.4,3.4-0.9,5.4-1
		c1.7-0.2,2.6-0.1,4.8,0l14.1,0.2 M386.8,1325.9c-2.6,0.6-15.1-0.3-17.5-0.4c-0.4,0-2.8-0.5-4.8-0.9c-0.9-0.2-2.2-1.5-6.5-3.4
		c0,0-4.2-1.1-6.7-2.8c-0.5-0.3-2.4-1.6-4.4-3.6c-3.6-3.6-5.2-7.3-7-10.7c0-83.4,0-792.6,0-834.3l2.1-4.2"/>
	<path id="path6-9_10_" inkscape:connector-curvature="0" sodipodi:nodetypes="ccccccccccccccccccccccc" class="st0" d="
		M645.6,447.4c0,0,167.9-0.1,209.9,0.2c4.8,0,36.1,0.2,48.1,1.1c3.2,0.2,8.2,0.7,10.6,1.8c1.4,0.7,3.3,1,4.2,1.8
		c0.4,0.3,0.2-0.2,3.2,1.4c0.5,0.4,1.8,1.5,3.1,3.1c0.8,1,3.9,2.9,5.7,6.4c0.9,1.6,2.5,7.8,3,10.8l0.2,20.5l-26.2-0.3V1280l26.3,0.3
		c-0.4,7.1,0.2,20.5-0.8,24.3c-0.5,1.9-2.6,4.4-4.6,7.9c0,0-2.3,2.3-3.7,4.3c-0.3,0.4-3.1,2-4.7,3.6c-0.8,0.8-4.8,3.2-4.8,3.2
		l-4.9,2.3c0,0-396,0.5-495,0.1c-8-0.4-20.7,0.8-28.4-0.1 M387,447.4h258.7"/>
	<g id="g14-3_10_" transform="matrix(0.9737966,0,0,0.9737966,8.0464024,322.96848)">
		<path id="path8-6_10_" inkscape:connector-curvature="0" class="st1" d="M647.6,619.4c-21.7,0-39.4-17.7-39.4-39.4
			c0-21.7,17.7-39.4,39.4-39.4c21.7,0,39.4,17.7,39.4,39.4C687,601.8,669.4,619.4,647.6,619.4L647.6,619.4z"/>
		<path id="path10-0_10_" inkscape:connector-curvature="0" class="st1" d="M648.5,627.9c-26.4,0-47.9-21.5-47.9-47.9
			c0-26.4,21.5-47.9,47.9-47.9c26.4,0,47.9,21.5,47.9,47.9C696.4,606.5,675,627.9,648.5,627.9z"/>
		<path id="path12-6_10_" inkscape:connector-curvature="0" class="st1" d="M638.9,598c-1.6,2.3-2,2.7-2.1,5.9
			c0,1.1,0.2,7.4,0.3,10.6c0,0,18.1,0,21.3,0c0-0.5,0.3-8.4,0.2-9.9c0-1,0-2.4-0.7-3.8c-0.3-0.6-1.2-2.1-2.6-3.6
			c-0.1-0.1-0.5-0.7-1.2-1.2c-0.1-0.1-0.2-0.1-0.2-0.2c-0.1-0.1-0.1-0.1-0.2-0.2l-0.1-0.2c0-0.2,0-0.3,0.1-0.6
			c0.1-0.3,0.6-0.9,1-1.4l3-3.8c0.1-0.2,1.7-2.1,2.2-3.2c0-0.1,0.5-0.8,0.3-1.6c-0.1-0.3-0.6-1.1-1.2-2c-1.5-2.1-2.4-2.9-3.6-4.4
			c-0.5-0.7-0.9-1.1-1.5-2c-0.2-0.3-0.4-0.5-0.5-0.9l0.1-0.2c0.2-0.2,0.4-0.3,0.7-0.4c0.4-0.1,0.9-0.2,1.8-0.2
			c0.6,0,1.6,0.1,2.2-0.7c0.8-0.9,0.9-3.2,0.9-3.8c0.2-3.7-0.1-18.7-0.2-25c0,0-7.1-0.5-7.4-0.6c0,0,0,4,0,5.7c0,0-8.3,0-8.7,0
			c0,0-1.9,0.1-2.8,0.2c-0.3,0-1.4,0.2-2,0.8c-0.5,0.5-0.6,1.3-0.7,1.9c-0.1,1-0.1,6.1-0.1,6.5c0,0,11.6,0,13.6,0l-0.4,6.9
			c-4.9-0.2-9.4-0.6-12.4,0.4c0,0-1,0.2-1.3,0.9c-0.2,0.5-0.2,1.2-0.2,2.2c0,0,0.1,3.3,0.4,4.1c0,0,0.2,0.6,0.5,0.8
			c0.4,0.3,0.9,0.3,1.8,0.5c0,0,2.3,0.3,2.5,0.3c-2.8,3.3-4.1,4.7-7.9,9.7c0,0,3.5,4.8,7,9.5L638.9,598"/>
	</g>
</g>
<g>
	<path id="path4-0_9_" inkscape:connector-curvature="0" sodipodi:nodetypes="ccccscccccccccccc" class="st0" d="M945,465.7
		c1-1.9,2.3-4.6,4.5-7.2c0.7-0.9,1.9-2.2,4.2-3.9c2.8-2.2,5.5-3.8,8.8-5.2c0.6-0.2,1.7-0.7,3.2-1.1c1.5-0.4,3.4-0.9,5.4-1
		c1.7-0.2,2.6-0.1,4.8,0l14.1,0.2 M989.8,1326c-2.6,0.6-15.1-0.3-17.5-0.4c-0.4,0-2.8-0.5-4.8-0.9c-0.9-0.2-2.2-1.5-6.5-3.4
		c0,0-4.2-1.1-6.7-2.8c-0.5-0.3-2.4-1.6-4.4-3.6c-3.6-3.6-5.2-7.3-7-10.7c0-83.4,0-792.6,0-834.3l2.1-4.2"/>
	<path id="path6-9_9_" inkscape:connector-curvature="0" sodipodi:nodetypes="ccccccccccccccccccccccc" class="st0" d="
		M1248.6,447.5c0,0,167.9-0.1,209.9,0.2c4.8,0,36.1,0.2,48.1,1.1c3.2,0.2,8.2,0.7,10.6,1.8c1.4,0.7,3.3,1,4.2,1.8
		c0.4,0.3,0.2-0.2,3.2,1.4c0.5,0.4,1.8,1.5,3.1,3.1c0.8,1,3.9,2.9,5.7,6.4c0.9,1.6,2.5,7.8,3,10.8l0.2,20.5l-26.2-0.3v785.8
		l26.3,0.3c-0.4,7.1,0.2,20.5-0.8,24.3c-0.5,1.9-2.6,4.4-4.6,7.9c0,0-2.3,2.3-3.7,4.3c-0.3,0.4-3.1,2-4.7,3.6
		c-0.8,0.8-4.8,3.2-4.8,3.2l-4.9,2.3c0,0-396,0.5-495,0.1c-8-0.4-20.7,0.8-28.4-0.1 M990,447.5h258.7"/>
	<g id="g14-3_9_" transform="matrix(0.9737966,0,0,0.9737966,8.0464024,322.96848)">
		<path id="path8-6_9_" inkscape:connector-curvature="0" class="st1" d="M1266.9,619.5c-21.7,0-39.4-17.7-39.4-39.4
			c0-21.7,17.7-39.4,39.4-39.4c21.7,0,39.4,17.7,39.4,39.4C1306.2,601.8,1288.6,619.5,1266.9,619.5L1266.9,619.5z"/>
		<path id="path10-0_9_" inkscape:connector-curvature="0" class="st1" d="M1267.7,628c-26.4,0-47.9-21.5-47.9-47.9
			c0-26.4,21.5-47.9,47.9-47.9s47.9,21.5,47.9,47.9C1315.7,606.5,1294.2,628,1267.7,628z"/>
		<path id="path12-6_9_" inkscape:connector-curvature="0" class="st1" d="M1258.1,598.1c-1.6,2.3-2,2.7-2.1,5.9
			c0,1.1,0.2,7.4,0.3,10.6c0,0,18.1,0,21.3,0c0-0.5,0.3-8.4,0.2-9.9c0-1,0-2.4-0.7-3.8c-0.3-0.6-1.2-2.1-2.6-3.6
			c-0.1-0.1-0.5-0.7-1.2-1.2c-0.1-0.1-0.2-0.1-0.2-0.2c-0.1-0.1-0.1-0.1-0.2-0.2l-0.1-0.2c0-0.2,0-0.3,0.1-0.6
			c0.1-0.3,0.6-0.9,1-1.4l3-3.8c0.1-0.2,1.7-2.1,2.2-3.2c0-0.1,0.5-0.8,0.3-1.6c-0.1-0.3-0.6-1.1-1.2-2c-1.5-2.1-2.4-2.9-3.6-4.4
			c-0.5-0.7-0.9-1.1-1.5-2c-0.2-0.3-0.4-0.5-0.5-0.9l0.1-0.2c0.2-0.2,0.4-0.3,0.7-0.4c0.4-0.1,0.9-0.2,1.8-0.2
			c0.6,0,1.6,0.1,2.2-0.7c0.8-0.9,0.9-3.2,0.9-3.8c0.2-3.7-0.1-18.7-0.2-25c0,0-7.1-0.5-7.4-0.6c0,0,0,4,0,5.7c0,0-8.3,0-8.7,0
			c0,0-1.9,0.1-2.8,0.2c-0.3,0-1.4,0.2-2,0.8c-0.5,0.5-0.6,1.3-0.7,1.9c-0.1,1-0.1,6.1-0.1,6.5c0,0,11.6,0,13.6,0l-0.4,6.9
			c-4.9-0.2-9.4-0.6-12.4,0.4c0,0-1,0.2-1.3,0.9c-0.2,0.5-0.2,1.2-0.2,2.2c0,0,0.1,3.3,0.4,4.1c0,0,0.2,0.6,0.5,0.8
			c0.4,0.3,0.9,0.3,1.8,0.5c0,0,2.3,0.3,2.5,0.3c-2.8,3.3-4.1,4.7-7.9,9.7c0,0,3.5,4.8,7,9.5L1258.1,598.1"/>
	</g>
</g>
<g>
	<path id="path4-0_8_" inkscape:connector-curvature="0" sodipodi:nodetypes="ccccscccccccccccc" class="st0" d="M1547.3,465.7
		c1-1.9,2.3-4.6,4.5-7.2c0.7-0.9,1.9-2.2,4.2-3.9c2.8-2.2,5.5-3.8,8.8-5.2c0.6-0.2,1.7-0.7,3.2-1.1c1.5-0.4,3.4-0.9,5.4-1
		c1.7-0.2,2.6-0.1,4.8,0l14.1,0.2 M1592.1,1326c-2.6,0.6-15.1-0.3-17.5-0.4c-0.4,0-2.8-0.5-4.8-0.9c-0.9-0.2-2.2-1.5-6.5-3.4
		c0,0-4.2-1.1-6.7-2.8c-0.5-0.3-2.4-1.6-4.4-3.6c-3.6-3.6-5.2-7.3-7-10.7c0-83.4,0-792.6,0-834.3l2.1-4.2"/>
	<path id="path6-9_8_" inkscape:connector-curvature="0" sodipodi:nodetypes="ccccccccccccccccccccccc" class="st0" d="
		M1850.9,447.6c0,0,167.9-0.1,209.9,0.2c4.8,0,36.1,0.2,48.1,1.1c3.2,0.2,8.2,0.7,10.6,1.8c1.4,0.7,3.3,1,4.2,1.8
		c0.4,0.3,0.2-0.2,3.2,1.4c0.5,0.4,1.8,1.5,3.1,3.1c0.8,1,3.9,2.9,5.7,6.4c0.9,1.6,2.5,7.8,3,10.8l0.2,20.5l-26.2-0.3v785.8
		l26.3,0.3c-0.4,7.1,0.2,20.5-0.8,24.3c-0.5,1.9-2.6,4.4-4.6,7.9c0,0-2.3,2.3-3.7,4.3c-0.3,0.4-3.1,2-4.7,3.6
		c-0.8,0.8-4.8,3.2-4.8,3.2l-4.9,2.3c0,0-396,0.5-495,0.1c-8-0.4-20.7,0.8-28.4-0.1 M1592.2,447.6h258.7"/>
	<g id="g14-3_8_" transform="matrix(0.9737966,0,0,0.9737966,8.0464024,322.96848)">
		<path id="path8-6_8_" inkscape:connector-curvature="0" class="st1" d="M1885.3,619.5c-21.7,0-39.4-17.7-39.4-39.4
			c0-21.7,17.7-39.4,39.4-39.4c21.7,0,39.4,17.7,39.4,39.4C1924.7,601.9,1907,619.5,1885.3,619.5L1885.3,619.5z"/>
		<path id="path10-0_8_" inkscape:connector-curvature="0" class="st1" d="M1886.2,628.1c-26.4,0-47.9-21.5-47.9-47.9
			c0-26.4,21.5-47.9,47.9-47.9s47.9,21.5,47.9,47.9C1934.1,606.6,1912.6,628.1,1886.2,628.1z"/>
		<path id="path12-6_8_" inkscape:connector-curvature="0" class="st1" d="M1876.6,598.1c-1.6,2.3-2,2.7-2.1,5.9
			c0,1.1,0.2,7.4,0.3,10.6c0,0,18.1,0,21.3,0c0-0.5,0.3-8.4,0.2-9.9c0-1,0-2.4-0.7-3.8c-0.3-0.6-1.2-2.1-2.6-3.6
			c-0.1-0.1-0.5-0.7-1.2-1.2c-0.1-0.1-0.2-0.1-0.2-0.2c-0.1-0.1-0.1-0.1-0.2-0.2l-0.1-0.2c0-0.2,0-0.3,0.1-0.6
			c0.1-0.3,0.6-0.9,1-1.4l3-3.8c0.1-0.2,1.7-2.1,2.2-3.2c0-0.1,0.5-0.8,0.3-1.6c-0.1-0.3-0.6-1.1-1.2-2c-1.5-2.1-2.4-2.9-3.6-4.4
			c-0.5-0.7-0.9-1.1-1.5-2c-0.2-0.3-0.4-0.5-0.5-0.9l0.1-0.2c0.2-0.2,0.4-0.3,0.7-0.4c0.4-0.1,0.9-0.2,1.8-0.2
			c0.6,0,1.6,0.1,2.2-0.7c0.8-0.9,0.9-3.2,0.9-3.8c0.2-3.7-0.1-18.7-0.2-25c0,0-7.1-0.5-7.4-0.6c0,0,0,4,0,5.7c0,0-8.3,0-8.7,0
			c0,0-1.9,0.1-2.8,0.2c-0.3,0-1.4,0.2-2,0.8c-0.5,0.5-0.6,1.3-0.7,1.9c-0.1,1-0.1,6.1-0.1,6.5c0,0,11.6,0,13.6,0l-0.4,6.9
			c-4.9-0.2-9.4-0.6-12.4,0.4c0,0-1,0.2-1.3,0.9c-0.2,0.5-0.2,1.2-0.2,2.2c0,0,0.1,3.3,0.4,4.1c0,0,0.2,0.6,0.5,0.8
			c0.4,0.3,0.9,0.3,1.8,0.5c0,0,2.3,0.3,2.5,0.3c-2.8,3.3-4.1,4.7-7.9,9.7c0,0,3.5,4.8,7,9.5L1876.6,598.1"/>
	</g>
</g>
<g>
	<path id="path4-0_7_" inkscape:connector-curvature="0" sodipodi:nodetypes="ccccscccccccccccc" class="st0" d="M2160.7,465.9
		c1-1.9,2.3-4.6,4.5-7.2c0.7-0.9,1.9-2.2,4.2-3.9c2.8-2.2,5.5-3.8,8.8-5.2c0.6-0.2,1.7-0.7,3.2-1.1c1.5-0.4,3.4-0.9,5.4-1
		c1.7-0.2,2.6-0.1,4.8,0l14.1,0.2 M2205.5,1326.2c-2.6,0.6-15.1-0.3-17.5-0.4c-0.4,0-2.8-0.5-4.8-0.9c-0.9-0.2-2.2-1.5-6.5-3.4
		c0,0-4.2-1.1-6.7-2.8c-0.5-0.3-2.4-1.6-4.4-3.6c-3.6-3.6-5.2-7.3-7-10.7c0-83.4,0-792.6,0-834.3l2.1-4.2"/>
	<path id="path6-9_7_" inkscape:connector-curvature="0" sodipodi:nodetypes="ccccccccccccccccccccccc" class="st0" d="
		M2464.3,447.7c0,0,167.9-0.1,209.9,0.2c4.8,0,36.1,0.2,48.1,1.1c3.2,0.2,8.2,0.7,10.6,1.8c1.4,0.7,3.3,1,4.2,1.8
		c0.4,0.3,0.2-0.2,3.2,1.4c0.5,0.4,1.8,1.5,3.1,3.1c0.8,1,3.9,2.9,5.7,6.4c0.9,1.6,2.5,7.8,3,10.8l0.2,20.5l-26.2-0.3v785.8
		l26.3,0.3c-0.4,7.1,0.2,20.5-0.8,24.3c-0.5,1.9-2.6,4.4-4.6,7.9c0,0-2.3,2.3-3.7,4.3c-0.3,0.4-3.1,2-4.7,3.6
		c-0.8,0.8-4.8,3.2-4.8,3.2l-4.9,2.3c0,0-396,0.5-495,0.1c-8-0.4-20.7,0.8-28.4-0.1 M2205.6,447.7h258.7"/>
	<g id="g14-3_7_" transform="matrix(0.9737966,0,0,0.9737966,8.0464024,322.96848)">
		<path id="path8-6_7_" inkscape:connector-curvature="0" class="st1" d="M2515.2,619.7c-21.7,0-39.4-17.7-39.4-39.4
			c0-21.7,17.7-39.4,39.4-39.4c21.7,0,39.4,17.7,39.4,39.4C2554.6,602,2537,619.7,2515.2,619.7L2515.2,619.7z"/>
		<path id="path10-0_7_" inkscape:connector-curvature="0" class="st1" d="M2516.1,628.2c-26.4,0-47.9-21.5-47.9-47.9
			c0-26.4,21.5-47.9,47.9-47.9c26.4,0,47.9,21.5,47.9,47.9C2564,606.8,2542.6,628.2,2516.1,628.2z"/>
		<path id="path12-6_7_" inkscape:connector-curvature="0" class="st1" d="M2506.5,598.3c-1.6,2.3-2,2.7-2.1,5.9
			c0,1.1,0.2,7.4,0.3,10.6c0,0,18.1,0,21.3,0c0-0.5,0.3-8.4,0.2-9.9c0-1,0-2.4-0.7-3.8c-0.3-0.6-1.2-2.1-2.6-3.6
			c-0.1-0.1-0.5-0.7-1.2-1.2c-0.1-0.1-0.2-0.1-0.2-0.2c-0.1-0.1-0.1-0.1-0.2-0.2l-0.1-0.2c0-0.2,0-0.3,0.1-0.6
			c0.1-0.3,0.6-0.9,1-1.4l3-3.8c0.1-0.2,1.7-2.1,2.2-3.2c0-0.1,0.5-0.8,0.3-1.6c-0.1-0.3-0.6-1.1-1.2-2c-1.5-2.1-2.4-2.9-3.6-4.4
			c-0.5-0.7-0.9-1.1-1.5-2c-0.2-0.3-0.4-0.5-0.5-0.9l0.1-0.2c0.2-0.2,0.4-0.3,0.7-0.4c0.4-0.1,0.9-0.2,1.8-0.2
			c0.6,0,1.6,0.1,2.2-0.7c0.8-0.9,0.9-3.2,0.9-3.8c0.2-3.7-0.1-18.7-0.2-25c0,0-7.1-0.5-7.4-0.6c0,0,0,4,0,5.7c0,0-8.3,0-8.7,0
			c0,0-1.9,0.1-2.8,0.2c-0.3,0-1.4,0.2-2,0.8c-0.5,0.5-0.6,1.3-0.7,1.9c-0.1,1-0.1,6.1-0.1,6.5c0,0,11.6,0,13.6,0l-0.4,6.9
			c-4.9-0.2-9.4-0.6-12.4,0.4c0,0-1,0.2-1.3,0.9c-0.2,0.5-0.2,1.2-0.2,2.2c0,0,0.1,3.3,0.4,4.1c0,0,0.2,0.6,0.5,0.8
			c0.4,0.3,0.9,0.3,1.8,0.5c0,0,2.3,0.3,2.5,0.3c-2.8,3.3-4.1,4.7-7.9,9.7c0,0,3.5,4.8,7,9.5L2506.5,598.3"/>
	</g>
</g>
<g>
	<path id="path4-0_6_" inkscape:connector-curvature="0" sodipodi:nodetypes="ccccscccccccccccc" class="st0" d="M2763,465.9
		c1-1.9,2.3-4.6,4.5-7.2c0.7-0.9,1.9-2.2,4.2-3.9c2.8-2.2,5.5-3.8,8.8-5.2c0.6-0.2,1.7-0.7,3.2-1.1c1.5-0.4,3.4-0.9,5.4-1
		c1.7-0.2,2.6-0.1,4.8,0l14.1,0.2 M2807.7,1326.2c-2.6,0.6-15.1-0.3-17.5-0.4c-0.4,0-2.8-0.5-4.8-0.9c-0.9-0.2-2.2-1.5-6.5-3.4
		c0,0-4.2-1.1-6.7-2.8c-0.5-0.3-2.4-1.6-4.4-3.6c-3.6-3.6-5.2-7.3-7-10.7c0-83.4,0-792.6,0-834.3l2.1-4.2"/>
	<path id="path6-9_6_" inkscape:connector-curvature="0" sodipodi:nodetypes="ccccccccccccccccccccccc" class="st0" d="
		M3066.5,447.7c0,0,167.9-0.1,209.9,0.2c4.8,0,36.1,0.2,48.1,1.1c3.2,0.2,8.2,0.7,10.6,1.8c1.4,0.7,3.3,1,4.2,1.8
		c0.4,0.3,0.2-0.2,3.2,1.4c0.5,0.4,1.8,1.5,3.1,3.1c0.8,1,3.9,2.9,5.7,6.4c0.9,1.6,2.5,7.8,3,10.8l0.2,20.5l-26.2-0.3v785.8
		l26.3,0.3c-0.4,7.1,0.2,20.5-0.8,24.3c-0.5,1.9-2.6,4.4-4.6,7.9c0,0-2.3,2.3-3.7,4.3c-0.3,0.4-3.1,2-4.7,3.6
		c-0.8,0.8-4.8,3.2-4.8,3.2l-4.9,2.3c0,0-396,0.5-495,0.1c-8-0.4-20.7,0.8-28.4-0.1 M2807.9,447.7h258.7"/>
	<g id="g14-3_6_" transform="matrix(0.9737966,0,0,0.9737966,8.0464024,322.96848)">
		<path id="path8-6_6_" inkscape:connector-curvature="0" class="st1" d="M3133.7,619.7c-21.7,0-39.4-17.7-39.4-39.4
			c0-21.7,17.7-39.4,39.4-39.4c21.7,0,39.4,17.7,39.4,39.4C3173.1,602.1,3155.4,619.7,3133.7,619.7L3133.7,619.7z"/>
		<path id="path10-0_6_" inkscape:connector-curvature="0" class="st1" d="M3134.6,628.3c-26.4,0-47.9-21.5-47.9-47.9
			c0-26.4,21.5-47.9,47.9-47.9c26.4,0,47.9,21.5,47.9,47.9C3182.5,606.8,3161,628.3,3134.6,628.3z"/>
		<path id="path12-6_6_" inkscape:connector-curvature="0" class="st1" d="M3125,598.3c-1.6,2.3-2,2.7-2.1,5.9
			c0,1.1,0.2,7.4,0.3,10.6c0,0,18.1,0,21.3,0c0-0.5,0.3-8.4,0.2-9.9c0-1,0-2.4-0.7-3.8c-0.3-0.6-1.2-2.1-2.6-3.6
			c-0.1-0.1-0.5-0.7-1.2-1.2c-0.1-0.1-0.2-0.1-0.2-0.2c-0.1-0.1-0.1-0.1-0.2-0.2l-0.1-0.2c0-0.2,0-0.3,0.1-0.6
			c0.1-0.3,0.6-0.9,1-1.4l3-3.8c0.1-0.2,1.7-2.1,2.2-3.2c0-0.1,0.5-0.8,0.3-1.6c-0.1-0.3-0.6-1.1-1.2-2c-1.5-2.1-2.4-2.9-3.6-4.4
			c-0.5-0.7-0.9-1.1-1.5-2c-0.2-0.3-0.4-0.5-0.5-0.9l0.1-0.2c0.2-0.2,0.4-0.3,0.7-0.4c0.4-0.1,0.9-0.2,1.8-0.2
			c0.6,0,1.6,0.1,2.2-0.7c0.8-0.9,0.9-3.2,0.9-3.8c0.2-3.7-0.1-18.7-0.2-25c0,0-7.1-0.5-7.4-0.6c0,0,0,4,0,5.7c0,0-8.3,0-8.7,0
			c0,0-1.9,0.1-2.8,0.2c-0.3,0-1.4,0.2-2,0.8c-0.5,0.5-0.6,1.3-0.7,1.9c-0.1,1-0.1,6.1-0.1,6.5c0,0,11.6,0,13.6,0l-0.4,6.9
			c-4.9-0.2-9.4-0.6-12.4,0.4c0,0-1,0.2-1.3,0.9c-0.2,0.5-0.2,1.2-0.2,2.2c0,0,0.1,3.3,0.4,4.1c0,0,0.2,0.6,0.5,0.8
			c0.4,0.3,0.9,0.3,1.8,0.5c0,0,2.3,0.3,2.5,0.3c-2.8,3.3-4.1,4.7-7.9,9.7c0,0,3.5,4.8,7,9.5L3125,598.3"/>
	</g>
</g>
</svg>
