<?xml version="1.0" encoding="utf-8"?>
<!-- Generator: Adobe Illustrator 25.2.0, SVG Export Plug-In . SVG Version: 6.00 Build 0)  -->
<svg version="1.1"
	 id="Layer_1" xmlns:cc="http://creativecommons.org/ns#" xmlns:dc="http://purl.org/dc/elements/1.1/" xmlns:inkscape="http://www.inkscape.org/namespaces/inkscape" xmlns:rdf="http://www.w3.org/1999/02/22-rdf-syntax-ns#" xmlns:sodipodi="http://sodipodi.sourceforge.net/DTD/sodipodi-0.dtd" xmlns:svg="http://www.w3.org/2000/svg"
	 xmlns="http://www.w3.org/2000/svg" xmlns:xlink="http://www.w3.org/1999/xlink" x="0px" y="0px" viewBox="0 0 4280.3 1133.9"
	 style="enable-background:new 0 0 4280.3 1133.9;" xml:space="preserve">
<style type="text/css">
	.st0{fill:none;stroke:#07060B;stroke-miterlimit:11.3386;}
</style>
<sodipodi:namedview  bordercolor="#666666" borderopacity="1.0" id="base" inkscape:current-layer="Layer_1" inkscape:cx="-429.53713" inkscape:cy="566.95001" inkscape:window-height="1017" inkscape:window-maximized="1" inkscape:window-width="1920" inkscape:window-x="-8" inkscape:window-y="-8" inkscape:zoom="0.066350492" pagecolor="#ffffff" showgrid="false" showguides="true">
	</sodipodi:namedview>
<g id="g8">
	<path id="rect815" class="st0" d="M676,1002.6v21.5c0,14.1-11.5,25.5-25.7,25.5H106.4c-14.3,0-25.7-11.4-25.7-25.5V200.2
		c0-14.1,11.5-25.5,25.7-25.5h543.8c14.3,0,25.7,11.4,25.7,25.5v21"/>
	<path id="rect817" class="st0" d="M676,1002.6h-22V221.2h22"/>
	<path id="path821" class="st0" d="M384.4,657.7c-25.3,0-45.8-20.4-45.8-45.6c0-25.2,20.5-45.6,45.8-45.6
		c25.3,0,45.8,20.4,45.8,45.6C430.3,637.3,409.7,657.7,384.4,657.7z"/>
</g>
</svg>
