<?xml version="1.0" encoding="utf-8"?>
<!-- Generator: Adobe Illustrator 25.2.0, SVG Export Plug-In . SVG Version: 6.00 Build 0)  -->
<svg version="1.1" id="Layer_1" xmlns="http://www.w3.org/2000/svg" xmlns:xlink="http://www.w3.org/1999/xlink" x="0px" y="0px"
	 viewBox="0 0 4280.3 1133.9" style="enable-background:new 0 0 4280.3 1133.9;" xml:space="preserve">
<style type="text/css">
	.st0{fill:none;stroke:#010101;stroke-width:0.5669;stroke-linecap:round;stroke-linejoin:round;stroke-miterlimit:11.3386;}
	.st1{fill:none;stroke:#010101;stroke-width:0.552;stroke-linecap:round;stroke-linejoin:round;stroke-miterlimit:10.7522;}
</style>
<g>
	<path id="path4-0_11_" class="st0" d="M235.9,1038.9c-2.6,0.6-15.1-0.5-17.5-0.4c-15.6,0.7-29.4-14-29.4-25.4V182.8
		c0-13.6,14.6-22.9,28.2-22.6c1.7,0,2.6-0.1,4.8,0l14.1,0.2"/>
	<path id="path6-9_11_" class="st0" d="M494.7,160.4c0,0,167.9-0.1,209.9,0.2c4.8,0,48.1,1.1,48.1,1.1c14.5-1.3,30.8,18.3,29.8,25.3
		l0.2,20.5l-23.2-0.3V993l23.3,0.3l-0.8,24.3c-0.1,10.4-12.5,21.6-22.7,21.3c0,0-396,0.5-495,0.1c-8-0.4-20.7,0.8-28.4-0.1
		 M236,160.4h258.7"/>
	<path id="path10-0_11_" class="st1" d="M488.7,647.5c-25.7,0-46.6-20.9-46.6-46.6s20.9-46.6,46.6-46.6c25.7,0,46.6,20.9,46.6,46.6
		S514.4,647.5,488.7,647.5z"/>
</g>
</svg>
