<?xml version="1.0" encoding="utf-8"?>
<!DOCTYPE svg PUBLIC "-//W3C//DTD SVG 1.1//EN" "http://www.w3.org/Graphics/SVG/1.1/DTD/svg11.dtd">
<!-- exported from Silhouette Studio® Business Edition V4.3.370ssbe -->
<svg version="1.1" xmlns="http://www.w3.org/2000/svg" xmlns:xlink="http://www.w3.org/1999/xlink" width="304.8mm" height="600mm" viewBox="0 0 304.8 600">
<defs/>
<path d="M 254.6465 352.0486 L 254.6465 360.5673" fill="none" fill-opacity="1" stroke="#000000" stroke-opacity="1" stroke-width="0.3527778" stroke-linecap="round" stroke-linejoin="round"/>
<g>
<path d="M 148.6347 285.2591 C 148.7417 285.0978 148.8725 285.0419 149.1422 285.0419 C 149.4307 285.0419 149.5219 285.0865 149.5857 285.2591 C 149.6635 285.4694 149.6473 285.4764 149.0783 285.4764 L 148.4905 285.4764 L 148.6347 285.2591 Z" fill="none" fill-opacity="1" stroke="#000000" stroke-opacity="1" stroke-width="0.3527778" stroke-linecap="round" stroke-linejoin="round"/>
<path d="M 254.7834 351.9638 L 133.3066 351.959 C 23.7086 351.9546 -17.41119 351.9554 -18.27768 351.9617 C -18.44284 351.9629 -18.69324 352.1902 -18.83412 352.4669 C -19.0433 352.8777 -19.07384 353.5891 -19.00069 356.3482 L -19.07681 360.3893 C -20.09283 360.4312 -21.7995 360.446 -24.19679 360.4334 C -26.33194 360.4222 -28.3728 360.3553 -28.73203 360.2845 C -29.36987 360.1589 -29.64728 360.0453 -31.34349 359.2172 C -33.30827 358.2579 -35.11368 356.073 -35.90189 353.7006 L -36.35321 352.3421 L -36.3089 253.7676 C -36.26777 162.2561 -36.24385 155.1488 -35.97484 154.5741 C -35.81546 154.2336 -35.59874 153.6765 -35.49321 153.336 C -34.61525 150.5032 -31.26784 147.6113 -27.81505 146.7026 C -26.92625 146.4687 -9.979515 146.438 118.0941 146.438 L 262.9975 146.438 L 264.4753 146.8729 C 265.2881 147.112 266.257 147.4864 266.6283 147.7047 C 268.1298 148.5874 270.1772 150.2877 270.1772 150.6519 C 270.1772 150.7513 270.3731 151.069 270.6124 151.3578 C 271.2112 152.0804 272.0582 154.2227 272.3625 155.7836 C 272.7399 157.7199 272.7394 350.7219 272.3619 352.5307 C 271.672 355.837 269.8399 358.1481 266.798 359.5488 C 265.0134 360.3705 264.085 360.4828 259.7274 360.4034 C 259.1885 360.3937 258.228 360.3837 256.954 360.3743 L 254.8207 360.3606" fill="none" fill-opacity="1" stroke="#000000" stroke-opacity="1" stroke-width="0.3527778" stroke-linecap="round" stroke-linejoin="round"/>
<path d="M 134.3924 253.7571 C 134.3924 262.8615 126.9968 270.257 117.8925 270.257 C 108.7881 270.257 101.3925 262.8615 101.3925 253.7571 C 101.3925 244.6527 108.7881 237.2571 117.8925 237.2571 C 126.9968 237.2571 134.3924 244.6527 134.3924 253.7571 Z" fill="none" fill-opacity="1" stroke="#000000" stroke-opacity="1" stroke-width="0.3527778" stroke-linecap="round" stroke-linejoin="round"/>
</g>
</svg>