<?xml version="1.0" encoding="utf-8"?>
<!-- Generator: Adobe Illustrator 26.1.0, SVG Export Plug-In . SVG Version: 6.00 Build 0)  -->
<svg version="1.1" id="Layer_1" xmlns="http://www.w3.org/2000/svg" xmlns:xlink="http://www.w3.org/1999/xlink" x="0px" y="0px"
	 viewBox="0 0 4280.3 1133.9" style="enable-background:new 0 0 4280.3 1133.9;" xml:space="preserve">
<style type="text/css">
	.st0{fill:none;stroke:#000000;stroke-miterlimit:10;}
</style>
<g>
	<path class="st0" d="M102.6,162.6v-39.7c0-7.8,6.3-14.2,14.2-14.2h566.9c4.7,0,8.5,3.8,8.5,8.5v841.9c0,4.7-3.8,8.5-8.5,8.5H116.8
		c-7.8,0-14.2-6.3-14.2-14.2v-39.7"/>
	<line class="st0" x1="102.6" y1="828.7" x2="102.6" y2="247.6"/>
	<circle class="st0" cx="397.8" cy="538.2" r="45.4"/>
	<path class="st0" d="M102.6,828.7h28.3c1.6,0,2.8,1.3,2.8,2.8v79.4c0,1.6-1.3,2.8-2.8,2.8h-28.3"/>
	<path class="st0" d="M102.6,247.6h28.3c1.6,0,2.8-1.3,2.8-2.8v-79.4c0-1.6-1.3-2.8-2.8-2.8h-28.3"/>
</g>
</svg>
