<?xml version="1.0" encoding="UTF-8" standalone="no"?>
<!-- exported from Silhouette Studio Business Edition V4.1.206ssbe -->

<svg
   xmlns:dc="http://purl.org/dc/elements/1.1/"
   xmlns:cc="http://creativecommons.org/ns#"
   xmlns:rdf="http://www.w3.org/1999/02/22-rdf-syntax-ns#"
   xmlns:svg="http://www.w3.org/2000/svg"
   xmlns="http://www.w3.org/2000/svg"
   xmlns:sodipodi="http://sodipodi.sourceforge.net/DTD/sodipodi-0.dtd"
   xmlns:inkscape="http://www.inkscape.org/namespaces/inkscape"
   version="1.1"
   width="304.8mm"
   height="304.8mm"
   viewBox="0 0 304.8 304.8"
   id="svg692"
   sodipodi:docname="E7240_TP.svg"
   inkscape:version="0.92.3 (2405546, 2018-03-11)">
  <metadata
     id="metadata696">
    <rdf:RDF>
      <cc:Work
         rdf:about="">
        <dc:format>image/svg+xml</dc:format>
        <dc:type
           rdf:resource="http://purl.org/dc/dcmitype/StillImage" />
      </cc:Work>
    </rdf:RDF>
  </metadata>
  <sodipodi:namedview
     pagecolor="#ffffff"
     bordercolor="#666666"
     borderopacity="1"
     objecttolerance="10"
     gridtolerance="10"
     guidetolerance="10"
     inkscape:pageopacity="0"
     inkscape:pageshadow="2"
     inkscape:window-width="1284"
     inkscape:window-height="921"
     id="namedview694"
     showgrid="false"
     inkscape:zoom="0.20486112"
     inkscape:cx="575.99998"
     inkscape:cy="575.99998"
     inkscape:window-x="0"
     inkscape:window-y="28"
     inkscape:window-maximized="1"
     inkscape:current-layer="svg692" />
  <defs
     id="defs688" />
  <path
     d="M 140.4011 230.2701 C 141.0678 230.2701 141.6094 229.773 141.6094 229.161 L 141.6094 185.3791 C 141.6094 184.7671 141.0678 184.2701 140.4011 184.2701 L 53.81787 184.2701 C 53.15115 184.2701 52.60956 184.7671 52.60956 185.3791 L 52.60956 229.161 C 52.60956 229.773 53.15115 230.2701 53.81787 230.2701 L 140.4011 230.2701 Z"
     fill="none"
     fill-opacity="1"
     stroke="#000000"
     stroke-opacity="1"
     stroke-width="0.3527777"
     stroke-linecap="round"
     stroke-linejoin="round"
     id="path690" />
  <path
     inkscape:connector-curvature="0"
     style="fill:none;fill-opacity:1;stroke:#000000;stroke-width:0.35277769;stroke-linecap:round;stroke-linejoin:round;stroke-opacity:1"
     d="m 233.20865,230.40641 c 0.6667,0 1.2083,-0.4971 1.2083,-1.1091 v -43.7819 c 0,-0.612 -0.5416,-1.109 -1.2083,-1.109 h -86.58323 c -0.66672,0 -1.20831,0.497 -1.20831,1.109 v 43.7819 c 0,0.612 0.54159,1.1091 1.20831,1.1091 z"
     id="path690-2" />
  <path
     inkscape:connector-curvature="0"
     style="fill:none;fill-opacity:1;stroke:#000000;stroke-width:0.35277769;stroke-linecap:round;stroke-linejoin:round;stroke-opacity:1"
     d="m 326.3344,229.87189 c 0.6667,0 1.2083,-0.4971 1.2083,-1.1091 v -43.7819 c 0,-0.612 -0.5416,-1.109 -1.2083,-1.109 h -86.58323 c -0.66672,0 -1.20831,0.497 -1.20831,1.109 v 43.7819 c 0,0.612 0.54159,1.1091 1.20831,1.1091 z"
     id="path690-5" />
  <path
     inkscape:connector-curvature="0"
     style="fill:none;fill-opacity:1;stroke:#000000;stroke-width:0.35277769;stroke-linecap:round;stroke-linejoin:round;stroke-opacity:1"
     d="m 419.14195,230.00819 c 0.6667,0 1.2083,-0.49709 1.2083,-1.10909 v -43.7819 c 0,-0.612 -0.5416,-1.109 -1.2083,-1.109 h -86.58323 c -0.66672,0 -1.20831,0.497 -1.20831,1.109 v 43.7819 c 0,0.612 0.54159,1.10909 1.20831,1.10909 z"
     id="path690-2-4" />
  <path
     inkscape:connector-curvature="0"
     style="fill:none;fill-opacity:1;stroke:#000000;stroke-width:0.35277769;stroke-linecap:round;stroke-linejoin:round;stroke-opacity:1"
     d="m 140.20753,180.46386 c 0.6667,0 1.2083,-0.4971 1.2083,-1.1091 v -43.7819 c 0,-0.612 -0.5416,-1.109 -1.2083,-1.109 H 53.624317 c -0.66672,0 -1.20831,0.497 -1.20831,1.109 v 43.7819 c 0,0.612 0.54159,1.1091 1.20831,1.1091 z"
     id="path690-7" />
  <path
     inkscape:connector-curvature="0"
     style="fill:none;fill-opacity:1;stroke:#000000;stroke-width:0.35277769;stroke-linecap:round;stroke-linejoin:round;stroke-opacity:1"
     d="m 233.01508,180.60017 c 0.6667,0 1.2083,-0.4971 1.2083,-1.1091 v -43.7819 c 0,-0.612 -0.5416,-1.109 -1.2083,-1.109 h -86.58323 c -0.66672,0 -1.20831,0.497 -1.20831,1.109 v 43.7819 c 0,0.612 0.54159,1.1091 1.20831,1.1091 z"
     id="path690-2-44" />
  <path
     inkscape:connector-curvature="0"
     style="fill:none;fill-opacity:1;stroke:#000000;stroke-width:0.35277769;stroke-linecap:round;stroke-linejoin:round;stroke-opacity:1"
     d="m 326.14084,180.06565 c 0.6667,0 1.2083,-0.4971 1.2083,-1.1091 v -43.7819 c 0,-0.612 -0.5416,-1.109 -1.2083,-1.109 H 239.5576 c -0.66672,0 -1.20831,0.497 -1.20831,1.109 v 43.7819 c 0,0.612 0.54159,1.1091 1.20831,1.1091 z"
     id="path690-5-3" />
  <path
     inkscape:connector-curvature="0"
     style="fill:none;fill-opacity:1;stroke:#000000;stroke-width:0.35277769;stroke-linecap:round;stroke-linejoin:round;stroke-opacity:1"
     d="m 418.9484,180.20195 c 0.66669,0 1.2083,-0.49709 1.2083,-1.10909 v -43.7819 c 0,-0.612 -0.54161,-1.109 -1.2083,-1.109 h -86.58326 c -0.6667,0 -1.2083,0.497 -1.2083,1.109 v 43.7819 c 0,0.612 0.5416,1.10909 1.2083,1.10909 z"
     id="path690-2-4-0" />
  <path
     inkscape:connector-curvature="0"
     style="fill:none;fill-opacity:1;stroke:#000000;stroke-width:0.35277769;stroke-linecap:round;stroke-linejoin:round;stroke-opacity:1"
     d="m 139.90074,129.75896 c 0.6667,0 1.20831,-0.4971 1.20831,-1.1091 V 84.867933 c 0,-0.612 -0.54161,-1.10901 -1.20831,-1.10901 H 53.317494 c -0.66672,0 -1.20831,0.49701 -1.20831,1.10901 v 43.781927 c 0,0.612 0.54159,1.1091 1.20831,1.1091 z"
     id="path690-78" />
  <path
     inkscape:connector-curvature="0"
     style="fill:none;fill-opacity:1;stroke:#000000;stroke-width:0.35277769;stroke-linecap:round;stroke-linejoin:round;stroke-opacity:1"
     d="m 232.70829,129.89527 c 0.6667,0 1.2083,-0.49711 1.2083,-1.10911 V 85.004233 c 0,-0.612 -0.5416,-1.10899 -1.2083,-1.10899 h -86.58323 c -0.66671,0 -1.20831,0.49699 -1.20831,1.10899 v 43.781927 c 0,0.612 0.5416,1.10911 1.20831,1.10911 z"
     id="path690-2-6" />
  <path
     inkscape:connector-curvature="0"
     style="fill:none;fill-opacity:1;stroke:#000000;stroke-width:0.35277769;stroke-linecap:round;stroke-linejoin:round;stroke-opacity:1"
     d="m 325.83405,129.36074 c 0.66669,0 1.2083,-0.4971 1.2083,-1.10909 V 84.469713 c 0,-0.612 -0.54161,-1.10899 -1.2083,-1.10899 h -86.58323 c -0.66673,0 -1.20832,0.49699 -1.20832,1.10899 v 43.781937 c 0,0.61199 0.54159,1.10909 1.20832,1.10909 z"
     id="path690-5-8" />
  <path
     inkscape:connector-curvature="0"
     style="fill:none;fill-opacity:1;stroke:#000000;stroke-width:0.35277769;stroke-linecap:round;stroke-linejoin:round;stroke-opacity:1"
     d="m 418.6416,129.49704 c 0.6667,0 1.2083,-0.49708 1.2083,-1.10908 V 84.606033 c 0,-0.612 -0.5416,-1.10901 -1.2083,-1.10901 h -86.58323 c -0.66672,0 -1.20833,0.49701 -1.20833,1.10901 v 43.781927 c 0,0.612 0.54161,1.10908 1.20833,1.10908 z"
     id="path690-2-4-8" />
  <path
     inkscape:connector-curvature="0"
     style="fill:none;fill-opacity:1;stroke:#000000;stroke-width:0.35277769;stroke-linecap:round;stroke-linejoin:round;stroke-opacity:1"
     d="m 139.70717,79.952683 c 0.6667,0 1.2083,-0.49709 1.2083,-1.10909 v -43.78191 c 0,-0.612 -0.5416,-1.109 -1.2083,-1.109 H 53.123944 c -0.66672,0 -1.20831,0.497 -1.20831,1.109 v 43.78191 c 0,0.612 0.54159,1.10909 1.20831,1.10909 z"
     id="path690-7-4" />
  <path
     inkscape:connector-curvature="0"
     style="fill:none;fill-opacity:1;stroke:#000000;stroke-width:0.35277769;stroke-linecap:round;stroke-linejoin:round;stroke-opacity:1"
     d="m 232.51472,80.089003 c 0.6667,0 1.2083,-0.4971 1.2083,-1.1091 v -43.78191 c 0,-0.612 -0.5416,-1.109 -1.2083,-1.109 h -86.58323 c -0.66672,0 -1.20831,0.497 -1.20831,1.109 v 43.78191 c 0,0.612 0.54159,1.1091 1.20831,1.1091 z"
     id="path690-2-44-3" />
  <path
     inkscape:connector-curvature="0"
     style="fill:none;fill-opacity:1;stroke:#000000;stroke-width:0.35277769;stroke-linecap:round;stroke-linejoin:round;stroke-opacity:1"
     d="m 325.64048,79.554483 c 0.66669,0 1.2083,-0.49711 1.2083,-1.10911 v -43.7819 c 0,-0.612 -0.54161,-1.109 -1.2083,-1.109 h -86.58324 c -0.66671,0 -1.20831,0.497 -1.20831,1.109 v 43.7819 c 0,0.612 0.5416,1.10911 1.20831,1.10911 z"
     id="path690-5-3-1" />
  <path
     inkscape:connector-curvature="0"
     style="fill:none;fill-opacity:1;stroke:#000000;stroke-width:0.35277769;stroke-linecap:round;stroke-linejoin:round;stroke-opacity:1"
     d="m 418.44806,79.690783 c 0.66667,0 1.2083,-0.4971 1.2083,-1.1091 v -43.7819 c 0,-0.612 -0.54163,-1.109 -1.2083,-1.109 h -86.58329 c -0.66669,0 -1.2083,0.497 -1.2083,1.109 v 43.7819 c 0,0.612 0.54161,1.1091 1.2083,1.1091 z"
     id="path690-2-4-0-4" />
  <path
     inkscape:connector-curvature="0"
     style="fill:none;fill-opacity:1;stroke:#000000;stroke-width:0.35277769;stroke-linecap:round;stroke-linejoin:round;stroke-opacity:1"
     d="m 139.32577,30.072004 c 0.6667,0 1.2083,-0.4971 1.2083,-1.1091 v -43.7819 c 0,-0.612 -0.5416,-1.109 -1.2083,-1.109 H 52.742539 c -0.66672,0 -1.20831,0.497 -1.20831,1.109 v 43.7819 c 0,0.612 0.54159,1.1091 1.20831,1.1091 z"
     id="path690-9" />
  <path
     inkscape:connector-curvature="0"
     style="fill:none;fill-opacity:1;stroke:#000000;stroke-width:0.35277769;stroke-linecap:round;stroke-linejoin:round;stroke-opacity:1"
     d="m 232.13332,30.208314 c 0.6667,0 1.2083,-0.4971 1.2083,-1.1091 v -43.7819 c 0,-0.612 -0.5416,-1.109 -1.2083,-1.109 h -86.58323 c -0.66672,0 -1.20831,0.497 -1.20831,1.109 v 43.7819 c 0,0.612 0.54159,1.1091 1.20831,1.1091 z"
     id="path690-2-2" />
  <path
     inkscape:connector-curvature="0"
     style="fill:none;fill-opacity:1;stroke:#000000;stroke-width:0.35277769;stroke-linecap:round;stroke-linejoin:round;stroke-opacity:1"
     d="m 325.25908,29.673794 c 0.66669,0 1.2083,-0.4971 1.2083,-1.1091 v -43.7819 c 0,-0.612 -0.54161,-1.109 -1.2083,-1.109 h -86.58324 c -0.66672,0 -1.20831,0.497 -1.20831,1.109 v 43.7819 c 0,0.612 0.54159,1.1091 1.20831,1.1091 z"
     id="path690-5-0" />
  <path
     inkscape:connector-curvature="0"
     style="fill:none;fill-opacity:1;stroke:#000000;stroke-width:0.35277769;stroke-linecap:round;stroke-linejoin:round;stroke-opacity:1"
     d="m 418.06663,29.810094 c 0.6667,0 1.2083,-0.49709 1.2083,-1.10909 v -43.7819 c 0,-0.612 -0.5416,-1.109 -1.2083,-1.109 H 331.4834 c -0.66672,0 -1.20833,0.497 -1.20833,1.109 v 43.7819 c 0,0.612 0.54161,1.10909 1.20833,1.10909 z"
     id="path690-2-4-6" />
  <path
     inkscape:connector-curvature="0"
     style="fill:none;fill-opacity:1;stroke:#000000;stroke-width:0.35277769;stroke-linecap:round;stroke-linejoin:round;stroke-opacity:1"
     d="m 139.1322,-19.734236 c 0.6667,0 1.2083,-0.4971 1.2083,-1.1091 v -43.7819 c 0,-0.612 -0.5416,-1.109 -1.2083,-1.109 H 52.548989 c -0.66672,0 -1.20831,0.497 -1.20831,1.109 v 43.7819 c 0,0.612 0.54159,1.1091 1.20831,1.1091 z"
     id="path690-7-8" />
  <path
     inkscape:connector-curvature="0"
     style="fill:none;fill-opacity:1;stroke:#000000;stroke-width:0.35277769;stroke-linecap:round;stroke-linejoin:round;stroke-opacity:1"
     d="m 231.93975,-19.597926 c 0.6667,0 1.2083,-0.4971 1.2083,-1.1091 v -43.7819 c 0,-0.612 -0.5416,-1.109 -1.2083,-1.109 h -86.58323 c -0.66672,0 -1.20831,0.497 -1.20831,1.109 v 43.7819 c 0,0.612 0.54159,1.1091 1.20831,1.1091 z"
     id="path690-2-44-9" />
  <path
     inkscape:connector-curvature="0"
     style="fill:none;fill-opacity:1;stroke:#000000;stroke-width:0.35277769;stroke-linecap:round;stroke-linejoin:round;stroke-opacity:1"
     d="m 325.06551,-20.132446 c 0.66669,0 1.2083,-0.4971 1.2083,-1.1091 v -43.7819 c 0,-0.612 -0.54161,-1.109 -1.2083,-1.109 h -86.58324 c -0.66672,0 -1.20831,0.497 -1.20831,1.109 v 43.7819 c 0,0.612 0.54159,1.1091 1.20831,1.1091 z"
     id="path690-5-3-2" />
  <path
     inkscape:connector-curvature="0"
     style="fill:none;fill-opacity:1;stroke:#000000;stroke-width:0.35277769;stroke-linecap:round;stroke-linejoin:round;stroke-opacity:1"
     d="m 417.87306,-19.996146 c 0.6667,0 1.2083,-0.49709 1.2083,-1.10909 v -43.7819 c 0,-0.612 -0.5416,-1.109 -1.2083,-1.109 H 331.2898 c -0.66669,0 -1.2083,0.497 -1.2083,1.109 v 43.7819 c 0,0.612 0.54161,1.10909 1.2083,1.10909 z"
     id="path690-2-4-0-6" />
  <path
     inkscape:connector-curvature="0"
     style="fill:none;fill-opacity:1;stroke:#000000;stroke-width:0.35277769;stroke-linecap:round;stroke-linejoin:round;stroke-opacity:1"
     d="m 138.82541,-70.439136 c 0.6667,0 1.20831,-0.4971 1.20831,-1.1091 v -43.781934 c 0,-0.612 -0.54161,-1.10901 -1.20831,-1.10901 H 52.242159 c -0.66672,0 -1.20831,0.49701 -1.20831,1.10901 v 43.781934 c 0,0.612 0.54159,1.1091 1.20831,1.1091 z"
     id="path690-78-6" />
  <path
     inkscape:connector-curvature="0"
     style="fill:none;fill-opacity:1;stroke:#000000;stroke-width:0.35277769;stroke-linecap:round;stroke-linejoin:round;stroke-opacity:1"
     d="m 231.63296,-70.302826 c 0.6667,0 1.2083,-0.49711 1.2083,-1.10911 v -43.781934 c 0,-0.612 -0.5416,-1.10899 -1.2083,-1.10899 h -86.58323 c -0.66671,0 -1.20831,0.49699 -1.20831,1.10899 v 43.781934 c 0,0.612 0.5416,1.10911 1.20831,1.10911 z"
     id="path690-2-6-4" />
  <path
     inkscape:connector-curvature="0"
     style="fill:none;fill-opacity:1;stroke:#000000;stroke-width:0.35277769;stroke-linecap:round;stroke-linejoin:round;stroke-opacity:1"
     d="m 324.75872,-70.837356 c 0.6667,0 1.2083,-0.4971 1.2083,-1.10909 v -43.781944 c 0,-0.612 -0.5416,-1.10899 -1.2083,-1.10899 h -86.58323 c -0.66673,0 -1.20832,0.49699 -1.20832,1.10899 v 43.781944 c 0,0.61199 0.54159,1.10909 1.20832,1.10909 z"
     id="path690-5-8-9" />
  <path
     inkscape:connector-curvature="0"
     style="fill:none;fill-opacity:1;stroke:#000000;stroke-width:0.35277769;stroke-linecap:round;stroke-linejoin:round;stroke-opacity:1"
     d="m 417.56627,-70.701056 c 0.6667,0 1.2083,-0.49708 1.2083,-1.10908 v -43.781934 c 0,-0.612 -0.5416,-1.10901 -1.2083,-1.10901 h -86.58322 c -0.66673,0 -1.20833,0.49701 -1.20833,1.10901 v 43.781934 c 0,0.612 0.5416,1.10908 1.20833,1.10908 z"
     id="path690-2-4-8-5" />
  <path
     inkscape:connector-curvature="0"
     style="fill:none;fill-opacity:1;stroke:#000000;stroke-width:0.35277769;stroke-linecap:round;stroke-linejoin:round;stroke-opacity:1"
     d="m 138.63184,-120.24542 c 0.6667,0 1.2083,-0.49709 1.2083,-1.10909 v -43.78191 c 0,-0.612 -0.5416,-1.109 -1.2083,-1.109 H 52.048609 c -0.66672,0 -1.20831,0.497 -1.20831,1.109 v 43.78191 c 0,0.612 0.54159,1.10909 1.20831,1.10909 z"
     id="path690-7-4-0" />
  <path
     inkscape:connector-curvature="0"
     style="fill:none;fill-opacity:1;stroke:#000000;stroke-width:0.35277769;stroke-linecap:round;stroke-linejoin:round;stroke-opacity:1"
     d="m 231.43939,-120.1091 c 0.6667,0 1.2083,-0.4971 1.2083,-1.1091 v -43.78191 c 0,-0.612 -0.5416,-1.109 -1.2083,-1.109 h -86.58323 c -0.66672,0 -1.20831,0.497 -1.20831,1.109 v 43.78191 c 0,0.612 0.54159,1.1091 1.20831,1.1091 z"
     id="path690-2-44-3-4" />
  <path
     inkscape:connector-curvature="0"
     style="fill:none;fill-opacity:1;stroke:#000000;stroke-width:0.35277769;stroke-linecap:round;stroke-linejoin:round;stroke-opacity:1"
     d="m 324.56515,-120.64362 c 0.6667,0 1.2083,-0.49711 1.2083,-1.10911 v -43.7819 c 0,-0.612 -0.5416,-1.109 -1.2083,-1.109 h -86.58324 c -0.66671,0 -1.20831,0.497 -1.20831,1.109 v 43.7819 c 0,0.612 0.5416,1.10911 1.20831,1.10911 z"
     id="path690-5-3-1-8" />
  <path
     inkscape:connector-curvature="0"
     style="fill:none;fill-opacity:1;stroke:#000000;stroke-width:0.35277769;stroke-linecap:round;stroke-linejoin:round;stroke-opacity:1"
     d="m 417.37273,-120.50732 c 0.66667,0 1.2083,-0.4971 1.2083,-1.1091 v -43.7819 c 0,-0.612 -0.54163,-1.109 -1.2083,-1.109 h -86.58328 c -0.6667,0 -1.20833,0.497 -1.20833,1.109 v 43.7819 c 0,0.612 0.54163,1.1091 1.20833,1.1091 z"
     id="path690-2-4-0-4-7" />
</svg>
