<?xml version="1.0" encoding="utf-8"?>
<!-- Generator: Adobe Illustrator 25.2.1, SVG Export Plug-In . SVG Version: 6.00 Build 0)  -->
<svg version="1.1"
	 id="svg42" inkscape:version="0.92.3 (2405546, 2018-03-11)" sodipodi:docname="x220lid.svg" xmlns:cc="http://creativecommons.org/ns#" xmlns:dc="http://purl.org/dc/elements/1.1/" xmlns:inkscape="http://www.inkscape.org/namespaces/inkscape" xmlns:rdf="http://www.w3.org/1999/02/22-rdf-syntax-ns#" xmlns:sodipodi="http://sodipodi.sourceforge.net/DTD/sodipodi-0.dtd" xmlns:svg="http://www.w3.org/2000/svg"
	 xmlns="http://www.w3.org/2000/svg" xmlns:xlink="http://www.w3.org/1999/xlink" x="0px" y="0px" viewBox="0 0 3401.6 1278.4"
	 style="enable-background:new 0 0 3401.6 1278.4;" xml:space="preserve">
<style type="text/css">
	.st0{fill:none;stroke:#000000;stroke-width:1;stroke-linecap:round;stroke-linejoin:round;stroke-miterlimit:11.3386;}
	.st1{fill:none;stroke:#000000;stroke-linecap:round;stroke-linejoin:round;stroke-miterlimit:11.3386;}
	.st2{fill:none;stroke:#000000;stroke-width:1;stroke-miterlimit:11.3386;}
</style>
<sodipodi:namedview  bordercolor="#666666" borderopacity="1" gridtolerance="10" guidetolerance="10" id="namedview44" inkscape:current-layer="svg42" inkscape:cx="2418.4459" inkscape:cy="1099.7525" inkscape:guide-bbox="true" inkscape:pageopacity="0" inkscape:pageshadow="2" inkscape:window-height="1017" inkscape:window-maximized="1" inkscape:window-width="1920" inkscape:window-x="-8" inkscape:window-y="-8" inkscape:zoom="0.39160023" objecttolerance="10" pagecolor="#ffffff" showgrid="false" showguides="true">
	</sodipodi:namedview>
<g>
	<path id="path38-7" inkscape:connector-curvature="0" class="st0" d="M135.5,212.6c-16.8,0-26.2,0-28.1,0c-1.7,0-3.2-0.1-4.9,0.4
		c-1.9,0.6-3.3,1.7-4.2,2.6c-0.4,0.4-2.1,2.2-3.1,5c-0.4,1.3-0.7,2.9-0.9,5.3l0,826.5c0.1,1,0.1,2.8,0.8,4.9
		c0.1,0.2,0.7,2.3,2.2,4.2c0.2,0.3,0.7,0.8,1.3,1.4c0.3,0.3,0.6,0.6,1.4,1.1c0.3,0.2,1.3,0.9,2.8,1.3c0.3,0.1,1.4,0.3,2.9,0.4
		c2.3,0,3.7,0,4.2,0c4.8,0,7.7,0,8.5,0c0.9,0,15.3,0,17,0"/>
	<path class="st0" d="M671.3,1029l0,25.5c0,6.3-5.1,11.3-11.3,11.3H135.5V212.6H660c6.3,0,11.3,5.1,11.3,11.3l0,25.5"/>
	<line class="st0" x1="671.3" y1="303.3" x2="671.3" y2="975.1"/>
	<g id="layer1" inkscape:groupmode="layer" inkscape:label="Layer 1">
		<path id="path1024" inkscape:connector-curvature="0" class="st1" d="M203.3,1006.3c0.1,0.2,0.7,0,0.8,0c0.6,0,1,0.3,1,0.3
			c0.4,0.2,0.4,0,1.1,0.8c0.8,0.8,0.7,1.1,0.8,1.2c0.1,0,0.4-0.2,0.6-0.4c0.1-0.1,1.5-1.2,1.6-1.3c1.3-1,1.1-0.8,1.3-0.9l2.4,3.2
			c0.7,0.9,0.7,0.9,0.7,1c0,0.1-0.3,0.3-2.4,2c0,0-2.1,1.7-3,2.4c-0.1,0.1-1.4,1.1-1.9,1.5c-0.4,0.3-0.6,0.5-2,1.6
			c-0.8,0.6-1,0.8-1,0.8c0,0-0.5,0.4-2.7,2.1l-0.3,0.3l-3,2.4c-0.4,0.3-0.8,0.7-1.3,1c-1.5,1.2-1.8,1.4-1.8,1.5
			c-0.4,0.3-0.3,0.2-0.5,0.2c-5.2-6.7-3.5-4.6-7.3-9.5c-0.8-1-0.6-0.8-0.8-1l-2.9-3.7c-2.3-3-2.3-3-2.3-3l-2.8-3.6l-3.1-4l-2.9-3.8
			l-2.2-2.9c-0.4-0.5-4.7-6.1-4.8-6.2c-0.3-0.4-0.9-1.1-2.2-2.9c-1.3-1.7-1.2-1.5-1.3-1.7l-3.2-4.2l-1.9-2.4
			c-0.5-0.7,0.1,0.1-1.2-1.6c-0.3-0.4-0.8-1.1-1.8-2.4c-1.5-2-1.5-1.9-1.5-1.9c-0.6-0.9-0.5-0.7-0.6-0.8c0.2-0.3,0.6-0.5,2.8-2.2
			c0.1-0.1,1.8-1.3,1.8-1.3c0.5-0.4-0.1,0.1,2-1.5c0,0,1.9-1.4,2.1-1.5l2.9-2.1c0.2-0.1,1.4-1,1.4-1c0,0,1.5-1.1,1.9-1.4
			c1.7-1.3,1.5-1.1,1.7-1.3c-0.8-1.4-1.7-2.1-1.7-2.5c0-0.2,0.1-0.2,1.2-1c0.2-0.1,2.4-1.8,2.5-1.9c0.4-0.3,0.5-0.4,0.6-0.4
			c0.2,0,0.2,0.2,1.4,1.7l2,2.6c0.3,0.4,1.9,2.5,3.5,4.6l2.4,3.3c0.7,1,0.7,0.9,0.7,1c-0.5,0.5-3.1,2.3-3.5,2.7
			c0.4,0.7,0.3-0.2,1.2,1.6c0.7,1.4,0.2,0.8,0.4,1.7c0,0,0.5-0.3,0.5-0.3c0,0,0.4-0.7,0.7-1c0.6-0.6,1.2-0.8,1.3-0.8
			c0,0,1.3-0.6,2.8,0.3c1.5,0.9,1.7,2.7,1.5,3.5c-0.4,1.4-1.5,2.4-2.8,2.5c0.1,0.2,0.1,0.2,2.1,2.9c1.3,1.7,1.2,1,1.6,1.8
			c0.9,1.7,0.7,1.2,0.7,2.2c0.1-0.1,0,0,0.4-0.3l2.2-1.7c1.4-1,1.3-1,1.5-1c0.2,0,0.4,0.5,1.1,1.4l2,2.6c0.1,0.1,0.2,0.2,0.2,0.3
			c0,0.2-1.8,1.4-3.5,2.8c0.3,0.4,1.8,2.5,2.1,2.8c3.8-2.8,3.2-2.6,3.7-2.6c1.5,2.2,3.7,4.7,4.2,6.3c0.2,0.4,0.8,2,0,3.8
			c-0.7,1.5-1.9,2.3-2.2,2.6c1.2,0.1,0.3-0.2,2.1,0.7c1.1,0.5-0.1-0.1,1.1,1c0,0,0.4,0.3,0.8,0.9c1.1,1.9,0.7,1.5,1,2.5
			C203.6,1005.7,203.3,1006.2,203.3,1006.3L203.3,1006.3z"/>
	</g>
	<g id="layer1_1_" inkscape:groupmode="layer" inkscape:label="Layer 1">
		<g id="layer1-03" transform="translate(6.8035713,-28.726187)" inkscape:label="Layer 1">
			<path id="path8-5-9" inkscape:connector-curvature="0" class="st0" d="M171.1,285.8c-0.3-0.1-0.8-0.5-1.7-0.9
				c0,0-2.1-0.8-2.7-1.1c0,0-4.3-1.5-8.7-2.8c-0.3-0.1-4.8-1.4-6.9-1.6c-0.4-0.1-0.6-0.1-1.3,0l-0.1,0.1c-0.1,1.2-0.1,1.2-0.2,2.3
				c0,1-0.1,2.3-0.1,3.2c0,0-0.1,5.4-0.2,10.9c-0.2,14.7-0.4,73.3-0.5,97.7c1.3,2.2,2,3.4,3.2,4.7c0.9,1,1.7,1.4,2.1,1.6
				c1,0.6,2.5,1.2,4.7,1.3c0.2,0,2,0.1,3.5-0.1c0.1,0,0.8-0.1,1.4-0.5c0.7-0.4,1.1-0.9,1.6-1.6c0,0,1.7-2.1,1.8-2.3
				c0.6-49.1,0.6-49.1,0.9-98.2c0.3,0.1,1.9,0.7,2.1,0.7c0.1,0,0.7,0.1,1.1-0.1c0.6-0.3,1.1-1.2,1.4-2.4c0.1-0.7,0.4-2.3,0.3-4.5
				c0-0.2-0.1-2.8-0.3-3.9c0,0-0.2-0.9-0.4-1.3C171.9,286.5,171.8,286.4,171.1,285.8"/>
		</g>
	</g>
	<path id="rect1384_1_" class="st2" d="M667,733.8v24.5c0,4.7-3.8,8.5-8.5,8.5H658c-4.7,0-8.5-3.8-8.5-8.5v-24.5
		c0-4.7,3.8-8.5,8.5-8.5h0.4C663.2,725.3,667,729,667,733.8z"/>
	<path class="st1" d="M671.3,303.3h-25.5c-1.6,0-2.8-1.3-2.8-2.8v-48.2c0-1.6,1.3-2.8,2.8-2.8h25.5"/>
	<path class="st1" d="M671.3,303.3"/>
	<path class="st1" d="M671.3,249.4"/>
	<path class="st1" d="M671.3,975.1h-25.5c-1.6,0-2.8,1.3-2.8,2.8v48.2c0,1.6,1.3,2.8,2.8,2.8h25.5"/>
	<path class="st1" d="M671.3,975.1"/>
	<path class="st1" d="M671.3,1029"/>
</g>
</svg>
