<?xml version="1.0" encoding="utf-8"?>
<!-- Generator: Adobe Illustrator 25.2.0, SVG Export Plug-In . SVG Version: 6.00 Build 0)  -->
<svg version="1.1" id="Layer_1" xmlns="http://www.w3.org/2000/svg" xmlns:xlink="http://www.w3.org/1999/xlink" x="0px" y="0px"
	 viewBox="0 0 4280.3 1133.9" style="enable-background:new 0 0 4280.3 1133.9;" xml:space="preserve">
<style type="text/css">
	.st0{fill:#FFFFFF;stroke:#000000;stroke-miterlimit:10;}
	.st1{fill:none;stroke:#010101;stroke-linecap:round;stroke-linejoin:round;stroke-miterlimit:11.3386;}
</style>
<g>
	<path class="st0" d="M425.4,140.6l232.4-1.4c4.7,0,8.5,3.8,8.5,8.5v379.1"/>
	<polyline class="st0" points="397,994.6 90.9,994.6 90.9,138.5 397,139.9 	"/>
	<path class="st0" d="M666.3,607.7v379.1c0,4.7-3.8,8.5-8.5,8.5l-232.4-0.7"/>
	<g id="layer1">
		<path id="path1024" class="st1" d="M163.3,937.1c0.1,0.2,0.7,0.1,0.8,0.1c0.6,0,1,0.3,1.1,0.3c0.4,0.2,0.4,0,1.2,0.8
			c0.9,0.9,0.7,1.2,0.9,1.2c0.1,0,0.4-0.2,0.6-0.4c0.1-0.1,1.5-1.2,1.7-1.3c1.4-1.1,1.1-0.9,1.4-0.9l2.5,3.3c0.7,0.9,0.7,1,0.7,1
			c0,0.1-0.3,0.3-2.5,2.1c0,0-2.2,1.7-3.1,2.4c-0.1,0.1-1.4,1.1-2,1.6c-0.4,0.4-0.6,0.5-2.1,1.7c-0.8,0.6-1.1,0.8-1.1,0.8
			c-0.1,0-0.5,0.4-2.8,2.2l-0.3,0.3l-3.2,2.5c-0.4,0.3-0.9,0.7-1.3,1c-1.6,1.2-1.8,1.5-1.9,1.5c-0.4,0.3-0.3,0.2-0.5,0.2
			c-5.4-7-3.7-4.8-7.6-9.9c-0.8-1.1-0.6-0.8-0.8-1l-3-3.9c-2.4-3.1-2.4-3.1-2.4-3.1l-2.9-3.8l-3.2-4.1l-3-3.9l-2.3-3
			c-0.4-0.5-4.8-6.3-5-6.5c-0.3-0.4-0.9-1.2-2.3-3c-1.4-1.8-1.2-1.6-1.4-1.8l-3.4-4.4l-1.9-2.5c-0.6-0.7,0.1,0.1-1.2-1.6
			c-0.3-0.4-0.9-1.1-1.9-2.5c-1.6-2.1-1.5-2-1.5-2c-0.7-0.9-0.6-0.8-0.6-0.9c0.2-0.3,0.6-0.5,2.9-2.2c0.1-0.1,1.8-1.3,1.9-1.4
			c0.6-0.4-0.1,0.1,2.1-1.5c0,0,2-1.5,2.1-1.6l3-2.2c0.2-0.1,1.4-1,1.4-1.1c0,0,1.6-1.2,2-1.5c1.8-1.3,1.5-1.1,1.8-1.4
			c-0.9-1.4-1.8-2.2-1.8-2.6c0-0.2,0.1-0.2,1.3-1c0.2-0.2,2.5-1.8,2.6-1.9c0.4-0.3,0.6-0.4,0.6-0.4c0.2,0,0.2,0.2,1.4,1.7l2,2.7
			c0.3,0.4,2,2.6,3.6,4.8l2.5,3.4c0.8,1,0.7,1,0.7,1c-0.5,0.5-3.2,2.4-3.6,2.8c0.5,0.7,0.3-0.2,1.3,1.7c0.8,1.4,0.2,0.9,0.4,1.8
			c0.1,0,0.5-0.3,0.5-0.3c0,0,0.4-0.7,0.7-1c0.6-0.6,1.3-0.8,1.3-0.8c0.1,0,1.4-0.6,2.9,0.3s1.8,2.8,1.5,3.6
			c-0.4,1.5-1.6,2.5-2.9,2.6c0.1,0.2,0.1,0.2,2.2,3c1.4,1.8,1.2,1.1,1.7,1.9c0.9,1.7,0.7,1.2,0.7,2.3c0.1-0.1,0.1,0,0.4-0.3l2.3-1.8
			c1.4-1.1,1.3-1.1,1.5-1c0.2,0,0.4,0.5,1.2,1.5l2.1,2.7c0.1,0.2,0.2,0.2,0.2,0.3c0,0.2-1.9,1.4-3.6,2.9c0.3,0.5,1.9,2.6,2.2,2.9
			c4-2.9,3.3-2.7,3.9-2.7c1.6,2.2,3.8,4.9,4.4,6.5c0.2,0.5,0.8,2.1,0,3.9c-0.7,1.6-2,2.4-2.3,2.7c1.2,0.2,0.3-0.2,2.2,0.7
			c1.1,0.6-0.1-0.1,1.2,1c0,0,0.4,0.3,0.8,0.9c1.2,2,0.8,1.5,1,2.6C163.6,936.5,163.2,937.1,163.3,937.1L163.3,937.1z"/>
	</g>
	<g id="layer1_1_">
		<g id="layer1-03" transform="translate(6.8035713,-28.726187)">
			<path id="path8-5-9" class="st1" d="M132,216.9c-0.2-0.1-0.8-0.5-1.7-0.9c0,0-2.1-0.8-2.8-1.1c0,0-4.3-1.5-8.7-2.8
				c-0.3-0.1-4.8-1.4-6.9-1.6c-0.4,0-0.7-0.1-1.3,0l-0.1,0.1c-0.1,1.2-0.1,1.2-0.2,2.3c0,1-0.1,2.2-0.1,3.2c0,0-0.1,5.4-0.2,10.9
				c-0.2,14.7-0.4,73.3-0.5,97.7c1.3,2.2,2,3.4,3.2,4.7c0.9,1,1.7,1.4,2.1,1.6c1.1,0.6,2.5,1.2,4.7,1.3c0.2,0,1.9,0.1,3.5-0.1
				c0.1,0,0.8-0.1,1.4-0.5c0.7-0.4,1.1-0.9,1.6-1.5c0,0,1.7-2.1,1.8-2.2c0.6-49.1,0.6-49.1,0.9-98.2c0.3,0.1,1.9,0.7,2.1,0.8
				c0.1,0,0.7,0.1,1.1-0.1c0.6-0.3,1.1-1.2,1.4-2.4c0.1-0.7,0.4-2.2,0.3-4.5c0-0.2-0.1-2.8-0.3-4c0,0-0.2-0.9-0.4-1.3
				C132.8,217.6,132.6,217.4,132,216.9"/>
		</g>
	</g>
	<path class="st1" d="M640,326.1v-22.7c0-4.7,3.8-8.5,8.5-8.5h1.4c4.7,0,8.5,3.8,8.5,8.5v22.7c0,4.7-3.8,8.5-8.5,8.5h-1.4
		C643.8,334.6,640,330.8,640,326.1z"/>
	<path class="st1" d="M666.3,607.7h-34c-1.6,0-2.8-1.3-2.8-2.8v-75.1c0-1.6,1.3-2.8,2.8-2.8h34"/>
	<path class="st1" d="M666.3,607.7"/>
	<path class="st1" d="M666.3,526.9"/>
	<path class="st1" d="M90.5,995.3H63.6c-4.7,0-8.5-3.8-8.5-8.5V147.8c0-4.7,3.8-8.5,8.5-8.5l26.9,0"/>
	<path class="st1" d="M425.4,140.6v8.5c0,1.6-1.3,2.8-2.8,2.8h-22.7c-1.6,0-2.8-1.3-2.8-2.8v-8.5"/>
	<path class="st1" d="M425.4,994.6v-8.5c0-1.6-1.3-2.8-2.8-2.8h-22.7c-1.6,0-2.8,1.3-2.8,2.8v8.5"/>
</g>
</svg>
