<?xml version="1.0" encoding="UTF-8" standalone="no"?>
<!-- exported from Silhouette Studio Business Edition V4.1.454ssbe -->

<svg
   xmlns:dc="http://purl.org/dc/elements/1.1/"
   xmlns:cc="http://creativecommons.org/ns#"
   xmlns:rdf="http://www.w3.org/1999/02/22-rdf-syntax-ns#"
   xmlns:svg="http://www.w3.org/2000/svg"
   xmlns="http://www.w3.org/2000/svg"
   xmlns:sodipodi="http://sodipodi.sourceforge.net/DTD/sodipodi-0.dtd"
   xmlns:inkscape="http://www.inkscape.org/namespaces/inkscape"
   version="1.1"
   width="1200mm"
   height="960mm"
   viewBox="0 0 1200 960"
   id="svg18"
   sodipodi:docname="X240.svg"
   inkscape:version="0.92.3 (2405546, 2018-03-11)">
  <metadata
     id="metadata22">
    <rdf:RDF>
      <cc:Work
         rdf:about="">
        <dc:format>image/svg+xml</dc:format>
        <dc:type
           rdf:resource="http://purl.org/dc/dcmitype/StillImage" />
        <dc:title></dc:title>
      </cc:Work>
    </rdf:RDF>
  </metadata>
  <sodipodi:namedview
     pagecolor="#ffffff"
     bordercolor="#666666"
     borderopacity="1"
     objecttolerance="10"
     gridtolerance="10"
     guidetolerance="10"
     inkscape:pageopacity="0"
     inkscape:pageshadow="2"
     inkscape:window-width="1680"
     inkscape:window-height="887"
     id="namedview20"
     showgrid="false"
     inkscape:zoom="0.091985262"
     inkscape:cx="261.78671"
     inkscape:cy="2927.0647"
     inkscape:window-x="0"
     inkscape:window-y="28"
     inkscape:window-maximized="1"
     inkscape:current-layer="svg18" />
  <defs
     id="defs2" />
  <g
     id="g37"
     style="stroke:#000000;stroke-width:1.00012505;stroke-miterlimit:4;stroke-dasharray:none;stroke-opacity:1"
     transform="matrix(1.0048393,0,0,1.001644,966.41531,-0.51845597)">
    <path
       d="m 211.9918,314.3732 c 1.8785,0 3.4045,-1.6415 3.4045,-3.6623 V 16.03539 c 0,-2.02082 -1.5259,-3.66233 -3.4044,-3.66233 H 12.80017 c -1.8785,0 -3.404429,1.64151 -3.404429,3.66233 l 1.5e-5,294.67551 c 0,2.0208 1.525914,3.6623 3.404434,3.6623 z"
       id="path4"
       inkscape:connector-curvature="0"
       style="fill:none;fill-opacity:1;stroke:#000000;stroke-width:1.00012505;stroke-linecap:round;stroke-linejoin:round;stroke-miterlimit:4;stroke-dasharray:none;stroke-opacity:1" />
    <path
       style="fill:none;fill-opacity:1;stroke:#000000;stroke-width:1.00012505;stroke-linecap:round;stroke-linejoin:round;stroke-miterlimit:4;stroke-dasharray:none;stroke-opacity:1"
       inkscape:connector-curvature="0"
       id="path6"
       d="m 188.7855,251.9519 c 0.09,-0.002 0.2103,-0.0106 0.3002,-0.005 0.0901,0.005 0.2089,0.0262 0.298,0.0397 0.1887,0.0287 0.44,0.069 0.627,0.1071 5.7426,1.3763 8.765,2.1008 9.0672,2.1734 0.0186,2.2065 -4e-4,3.5021 -0.057,3.8867 -0.0237,0.11 -0.0385,0.1787 -0.0444,0.2062 -0.007,0.0309 -0.0121,0.0732 -0.0222,0.1031 -0.01,0.0285 -0.03,0.0635 -0.0428,0.0906" />
    <path
       style="fill:none;fill-opacity:1;stroke:#000000;stroke-width:1.00012505;stroke-linecap:round;stroke-linejoin:round;stroke-miterlimit:4;stroke-dasharray:none;stroke-opacity:1"
       inkscape:connector-curvature="0"
       id="path8"
       d="m 196.4132,261.4218 c -0.011,12.3623 -0.0294,33.5607 -0.1774,35.3205 -0.0288,0.5241 -0.1514,1.0147 -0.3678,1.4717 -0.0239,0.0503 -0.2453,0.5223 -0.6497,0.9061 -0.1206,0.1144 -0.4192,0.3939 -0.9366,0.5918 -0.167,0.0639 -0.5757,0.2009 -1.1713,0.2207 -0.8234,0.0274 -1.691,-0.1589 -2.2943,-0.5257 -0.1284,-0.0781 -0.7641,-0.4946 -1.1873,-0.9217 -0.3515,-0.3548 -0.6084,-0.7086 -0.8539,-1.1437 -0.0692,-0.1035 -0.1141,-0.1944 -0.1347,-0.2729 -0.014,-0.0532 -0.0292,-0.255 -0.0346,-0.3648 -0.026,-0.6854 -0.0397,-1.0461 -0.0411,-1.0822 -0.1318,-3.4743 -0.165,-27.8148 -0.1371,-34.7685 0.001,-0.3569 0.0195,-4.9976 0.0906,-7.138 0.0126,-0.4727 0.023,-0.7878 0.0314,-0.9452 0.006,-0.1127 0.009,-0.2638 0.0272,-0.3751 0.0172,-0.1078 0.0619,-0.2471 0.0883,-0.3531 l 0.0564,-0.0635 0.0641,-0.0263" />
    <path
       style="fill:none;fill-opacity:1;stroke:#000000;stroke-width:1.00012505;stroke-linecap:round;stroke-linejoin:round;stroke-miterlimit:4;stroke-dasharray:none;stroke-opacity:1"
       inkscape:connector-curvature="0"
       id="path10"
       d="m 199.0796,257.0622 c -0.002,0.6379 0.004,2.714 -0.055,3.1888 l -0.0312,0.2522 c -0.01,0.0435 -0.0713,0.1953 -0.1072,0.2768 l -0.0694,0.046 c -0.0291,-0.001 -0.466,-0.0274 -0.581,-0.0471 -0.0928,-0.0159 -0.914,-0.2297 -1.8241,-0.4743 l 8e-4,1.9892" />
    <path
       id="path16"
       d="m 196.8217,49.47003 c 0.0672,0.02294 0.1554,0.05807 0.2239,0.07646 0.0438,0.01173 0.1042,0.01881 0.1483,0.02925 0.0829,0.01966 0.1931,0.04828 0.2737,0.0759 0,0 0.2108,0.08854 0.2781,0.12429 0.295,0.15692 0.3372,0.22373 0.5237,0.41535 0.0475,0.04883 0.0805,0.08077 0.1698,0.15087 0.1814,-0.01557 0.1888,-0.0082 0.3541,-0.08443 0.085,-0.0392 0.1933,-0.10177 0.275,-0.14766 0,0 0.4978,-0.29596 0.9917,-0.59857 0,0 0.8353,0.85632 1.1987,1.55122 0.009,0.01719 0.1641,0.35192 0.1641,0.35192 0.003,0.01047 0.0181,0.11928 0.023,0.21762 -0.1425,0.21709 -0.1751,0.23508 -0.3994,0.41651 -0.0299,0.02415 -0.5976,0.48328 -0.5976,0.48328 -0.4363,0.3528 -2.205,1.73429 -4.4197,3.45598 -1.7499,1.36027 -3.1541,2.4729 -3.5689,2.62922 -0.3056,0.11516 -0.4127,0.0721 -0.6302,-0.17149 -0.1084,-0.12133 -0.5807,-0.78435 -0.644,-0.87239 l -1.8034,-2.47796 c -0.4119,-0.56491 -6.1847,-8.46952 -8.2661,-11.27808 0,0 -3.0727,-4.12247 -5.1349,-6.86052 0,0 -1.4878,-1.96805 -1.652,-2.18756 -0.1011,-0.1352 -0.2413,-0.31189 -0.3338,-0.45312 -0.0633,-0.09664 -0.1351,-0.23328 -0.193,-0.33326 l -0.006,-0.11999 c 0.0346,-0.04031 0.0772,-0.09737 0.1153,-0.13433 0.0448,-0.0434 0.1129,-0.09181 0.1619,-0.13038 0.0598,-0.04709 0.1405,-0.10858 0.201,-0.15474 0,0 0.4224,-0.31947 0.6498,-0.4915 0.1888,-0.14282 2.6413,-2.00462 3.8142,-2.80611 0.101,-0.06902 0.2405,-0.15389 0.3402,-0.22472 0.118,-0.0838 0.2695,-0.20355 0.3837,-0.29248 0.0766,-0.05967 0.1786,-0.13949 0.2533,-0.20152 l 0.3583,-0.31039 c 0,0 0.3199,-0.28781 0.418,-0.39229 0.1093,-0.11652 0.1297,-0.1628 0.1822,-0.35554 -0.0315,-0.1846 -0.0303,-0.19096 -0.1225,-0.35396 -0.0241,-0.04257 -0.0637,-0.09467 -0.0911,-0.13525 0,0 -0.1312,-0.187 -0.1821,-0.27053 -0.0533,-0.08729 -0.1382,-0.2079 -0.1199,-0.39104 0.0388,-0.08005 0.0595,-0.14173 0.1635,-0.24736 0.0605,-0.06144 0.1495,-0.13474 0.2165,-0.18891 0,0 0.2455,-0.18335 0.4091,-0.30557 l 0.4091,-0.30555 c 0,0 0.2838,-0.18347 0.5713,-0.36101 l 0.1522,-0.02257 c 0.0558,0.05456 0.1328,0.12466 0.1859,0.18185 0.0417,0.04493 0.0921,0.10944 0.1316,0.15634 0.3428,0.40711 0.4212,0.51497 0.8301,1.0397 0,0 1.2623,1.62076 1.683,2.16102 0,0 1.2892,1.65202 1.3499,1.74405 0.0642,0.09739 0.1767,0.25825 0.1035,0.45506 -0.0596,0.16023 -0.3172,0.362 -0.4793,0.48781 0,0 -0.3719,0.27438 -0.4612,0.34758 0,0 -0.1455,0.11917 -0.1819,0.14896 -0.027,0.02213 -0.1096,0.07691 -0.1607,0.16826 -0.02,0.0358 -0.0356,0.08887 -0.0509,0.12695 0.006,0.21358 0.02,0.33652 0.215,0.57135 0.0659,0.07935 0.2305,0.29817 0.4356,0.27606 0.0559,-0.006 0.1277,-0.0314 0.1808,-0.05009 0.062,-0.02184 0.1419,-0.05849 0.2012,-0.08667 0.1484,-0.07037 0.3371,-0.18238 0.4856,-0.25237 0.0231,-0.0109 0.2789,-0.13343 0.4771,-0.18407 0.1423,-0.03636 0.3834,-0.07481 0.7336,0.03583 0.0295,0.0093 0.3303,0.10559 0.5614,0.2613 0,0 0.1749,0.12173 0.2655,0.22873 0.0794,0.09383 0.1888,0.259 0.2555,0.55897 0.1403,0.63109 -0.0702,1.00529 -0.2606,1.26646 -0.0984,0.13486 -0.4401,0.50204 -0.4401,0.50204 -0.081,0.08963 -0.1921,0.20672 -0.2671,0.30153 -0.0701,0.08874 -0.1518,0.21592 -0.2168,0.30845 0.077,0.09944 0.9954,1.29911 1.5736,1.9634 0.0171,0.01958 0.2538,0.30107 0.363,0.37138 0.0287,0.01849 0.0718,0.03462 0.1026,0.04945 l 0.1196,0.01026 c 0.0192,-0.0078 0.196,-0.07238 0.3753,-0.17679 l 0.6556,-0.40813 c 0,0 0.2462,-0.15631 0.3968,-0.1833 0.0374,-0.0067 0.0885,-0.0039 0.1264,-0.0055 0.0319,0.01986 0.0766,0.04324 0.1064,0.06623 0.034,0.02628 0.0732,0.06864 0.104,0.09861 0.065,0.06309 0.1506,0.14826 0.2138,0.21303 0.0624,0.06386 0.1452,0.14936 0.2051,0.21559 0.0874,0.09672 0.2005,0.22873 0.2829,0.32968 0.048,0.05875 0.1106,0.13826 0.1551,0.19968 0,0 0.203,0.29536 0.2226,0.33 0.0147,0.02577 0.0843,0.14162 0.0666,0.28869 -0.0118,0.09816 -0.0714,0.21356 -0.1882,0.34781 -0.0491,0.0563 -0.3245,0.30888 -0.5475,0.50731 -0.0162,0.01434 -0.2587,0.22905 -0.3171,0.29257 -0.1388,0.15096 -0.1441,0.18346 -0.1948,0.36091 0.0217,0.18641 0.0219,0.22041 0.1383,0.39347 l 0.1131,0.16825 c 0.0181,0.02693 0.087,0.14316 0.2145,0.24371 0,0 0.1245,0.08972 0.187,0.10513 0.2272,0.05603 0.6576,-0.26307 1.0461,-0.52397 0.0214,-0.01439 0.3904,-0.25329 0.4382,-0.27278 0.0118,-0.0048 0.1746,-0.03619 0.2502,-0.04689 0.1507,0.06847 0.2353,0.0877 0.3917,0.26498 0,0 0.3273,0.41862 0.3442,0.44091 0,0 0.5001,0.68147 0.5265,0.71734 0,0 0.3644,0.4734 0.4868,0.69725 0.1351,0.24702 0.3234,0.69023 0.2333,1.38833 -0.0234,0.1813 -0.0523,0.3785 -0.246,0.68854 -0.0216,0.03452 -0.3341,0.46389 -0.4481,0.67998 -0.0377,0.0714 -0.0776,0.17161 -0.1109,0.24518 l 0.0303,0.14161 c 0.1612,0.18317 0.9262,1.0328 1.0478,1.24431 0.1211,0.21047 0.2744,0.76148 0.2744,0.76148 0.008,0.02599 0.0836,0.2932 0.2113,0.50289 0.0713,0.11722 0.1085,0.12949 0.214,0.21725"
       style="fill:none;fill-opacity:1;stroke:#000000;stroke-width:1.00012505;stroke-linecap:round;stroke-linejoin:round;stroke-miterlimit:4;stroke-dasharray:none;stroke-opacity:1"
       inkscape:connector-curvature="0" />
  </g>
</svg>
