<?xml version="1.0" encoding="UTF-8" standalone="no"?>
<!-- exported from Silhouette Studio® Business Edition V4.3.370ssbe -->

<svg
   xmlns:dc="http://purl.org/dc/elements/1.1/"
   xmlns:cc="http://creativecommons.org/ns#"
   xmlns:rdf="http://www.w3.org/1999/02/22-rdf-syntax-ns#"
   xmlns:svg="http://www.w3.org/2000/svg"
   xmlns="http://www.w3.org/2000/svg"
   xmlns:sodipodi="http://sodipodi.sourceforge.net/DTD/sodipodi-0.dtd"
   xmlns:inkscape="http://www.inkscape.org/namespaces/inkscape"
   version="1.1"
   width="594mm"
   height="841mm"
   viewBox="0 0 594.00002 841"
   id="svg6"
   sodipodi:docname="YOGA_260_LID.svg"
   inkscape:version="0.92.3 (2405546, 2018-03-11)">
  <metadata
     id="metadata10">
    <rdf:RDF>
      <cc:Work
         rdf:about="">
        <dc:format>image/svg+xml</dc:format>
        <dc:type
           rdf:resource="http://purl.org/dc/dcmitype/StillImage" />
        <dc:title></dc:title>
      </cc:Work>
    </rdf:RDF>
  </metadata>
  <sodipodi:namedview
     pagecolor="#ffffff"
     bordercolor="#666666"
     borderopacity="1"
     objecttolerance="10"
     gridtolerance="10"
     guidetolerance="10"
     inkscape:pageopacity="0"
     inkscape:pageshadow="2"
     inkscape:window-width="1920"
     inkscape:window-height="1017"
     id="namedview8"
     showgrid="false"
     inkscape:zoom="0.41627778"
     inkscape:cx="1206.7634"
     inkscape:cy="1435.6929"
     inkscape:window-x="-8"
     inkscape:window-y="-8"
     inkscape:window-maximized="1"
     inkscape:current-layer="g883" />
  <defs
     id="defs2" />
  <g
     inkscape:groupmode="layer"
     id="layer1"
     inkscape:label="Layer 1"
     style="display:none">
    <path
       d="m 79.851848,470.63099 c -0.292118,-0.0474 -0.645175,-0.23648 -0.880407,-0.47137 -0.382926,-0.3824 -0.395356,-0.43508 -0.498313,-2.11451 -0.05809,-0.94726 -0.0741,-2.29318 -0.0356,-2.99101 0.07439,-1.34824 -0.08738,-1.95868 -0.586869,-2.21459 -0.487414,-0.2498 -2.152079,-0.27938 -16.093049,-0.285 -16.289485,-0.006 -14.783927,-0.11623 -15.016918,1.09306 -0.07102,0.36871 -0.131614,1.63898 -0.134652,2.82284 -0.0061,2.41063 -0.154282,3.2391 -0.679415,3.80054 l -0.349861,0.37397 h -8.31609 c -5.560242,0 -8.503194,-0.0471 -8.88067,-0.14201 -0.8856,-0.22267 -1.982085,-1.19987 -2.402327,-2.1409 L 25.62816,467.57924 V 363.41226 259.24536 l 0.415637,-0.87281 c 0.454972,-0.95542 1.16634,-1.59231 2.262507,-2.02566 0.562448,-0.22235 7.043793,-0.23407 149.780216,-0.27074 l 149.19239,-0.0384 1.16441,0.36321 c 1.22478,0.38202 1.92969,0.89895 2.36077,1.73134 0.28767,0.55546 0.47382,2.08396 0.45349,3.72206 -0.01,0.78925 -0.006,47.38015 0.009,103.53534 0.0246,95.34134 0.0122,102.14413 -0.19325,102.76069 -0.24823,0.74623 -1.17861,1.86312 -1.73289,2.08017 -0.19949,0.0782 -0.71152,0.20336 -1.13783,0.27815 -1.03116,0.18099 -16.45781,0.18649 -16.79557,0.006 -0.13398,-0.0716 -0.38001,-0.32117 -0.54669,-0.55447 -0.29049,-0.40673 -0.30567,-0.54837 -0.36825,-3.42462 -0.0743,-3.4119 -0.14329,-3.70387 -0.91458,-3.87374 -0.25154,-0.0555 -7.03186,-0.1007 -15.06758,-0.10058 -16.08613,2.4e-4 -15.18172,-0.0468 -15.50613,0.80684 -0.10434,0.27424 -0.17537,1.34115 -0.19791,2.9717 -0.0194,1.3992 -0.0767,2.7643 -0.12749,3.03378 -0.10862,0.57708 -0.65751,1.09563 -1.27511,1.20476 -0.56885,0.10058 -196.933463,0.15277 -197.550899,0.0525 z M 324.33949,459.24587 c 0.296,-0.13443 0.33262,-0.23965 0.39189,-1.12557 0.0364,-0.54408 -0.0122,-1.43989 -0.10936,-2.02089 -0.10741,-0.64149 -0.13974,-1.34518 -0.0839,-1.82633 0.11463,-0.98796 0.11291,-2.13247 -0.006,-3.74139 l -0.0929,-1.26269 -0.93196,-0.14775 c -1.33353,-0.21155 -1.56793,-0.33315 -2.0382,-1.05774 l -0.41969,-0.64687 0.53113,-0.51476 c 0.54069,-0.52392 0.69647,-0.58844 1.68562,-0.69709 1.07427,-0.11818 1.45183,-0.62902 0.98757,-1.33651 -0.20489,-0.31237 -0.19779,-0.38118 0.13985,-1.3497 0.4388,-1.25866 0.34425,-1.86006 -0.37927,-2.41112 -0.24934,-0.18979 -0.60792,-0.60861 -0.79689,-0.93064 -0.32343,-0.55105 -0.33115,-0.6025 -0.13177,-0.87613 0.11659,-0.15986 0.41969,-0.59065 0.67368,-0.95741 l 0.46182,-0.66654 -0.29245,-0.50742 c -0.16092,-0.27914 -0.45422,-0.69649 -0.65201,-0.92735 -0.50774,-0.59309 -0.40168,-1.20598 0.34499,-1.99351 0.30604,-0.32289 0.62213,-0.71531 0.70222,-0.87198 0.49072,-0.95924 -0.23158,-2.45267 -1.32777,-2.74549 -0.82065,-0.21912 -1.51136,-0.0814 -2.0322,0.40538 -0.56481,0.52795 -0.80852,1.00568 -0.82273,1.61319 -0.0178,0.75686 0.17513,3.12996 0.26441,3.2523 0.0437,0.0601 0.30494,0.27705 0.58061,0.48225 0.51007,0.37983 0.99993,1.04882 1.00079,1.36669 2.4e-4,0.0968 -0.35221,0.50131 -0.78342,0.89923 l -0.78378,0.72325 v 1.12374 c 0,0.61814 -0.0588,1.32819 -0.13042,1.57799 -0.14831,0.51635 0.0168,1.20415 0.39152,1.63128 0.43671,0.49789 0.54032,0.83777 0.44614,1.46434 -0.0558,0.37214 -0.21015,0.72545 -0.39911,0.91415 -0.27408,0.27375 -0.30813,0.42688 -0.30813,1.38771 0,0.78277 0.0834,1.32881 0.30286,1.9835 0.32576,0.9717 0.30886,1.145 -0.22632,2.33167 -0.35209,0.78057 -0.0986,1.86947 0.61686,2.65077 0.24089,0.263 1.49274,0.94348 1.73571,0.94348 0.0516,0 0.28547,0.14604 0.51987,0.32459 0.79554,0.6058 0.74998,1.50479 -0.12443,2.45584 l -0.56211,0.61131 h -1.25332 c -0.68936,0 -1.41889,0.0655 -1.6212,0.14555 l -0.36777,0.14568 0.45729,0.16706 c 0.29098,0.10645 0.81342,0.14433 1.43701,0.10449 0.53898,-0.0346 1.21499,-0.006 1.50241,0.0623 0.55269,0.13223 0.96712,0.09 1.50242,-0.15289 z M 49.600831,297.01202 c 0,-0.0984 2.400661,-1.93927 3.402958,-2.6095 0.268236,-0.17938 1.0879,-0.79577 1.82147,-1.36976 0.733571,-0.574 1.607132,-1.23458 1.941243,-1.46799 0.334123,-0.2334 0.901422,-0.62883 1.260688,-0.87872 0.359265,-0.24988 0.917758,-0.64784 1.241093,-0.88435 0.323346,-0.2365 0.852435,-0.6221 1.175782,-0.85689 0.323334,-0.2348 0.764248,-0.56945 0.9798,-0.74366 1.055765,-0.85328 2.847428,-2.21877 3.551815,-2.70697 0.561395,-0.38909 1.816682,-1.30129 2.457693,-1.78596 0.287403,-0.21732 0.690964,-0.49766 0.896792,-0.62296 0.205841,-0.12532 0.799482,-0.58439 1.319215,-1.02019 0.519744,-0.43578 1.144981,-0.93059 1.389423,-1.0996 0.244442,-0.16899 0.69917,-0.55997 1.010502,-0.86884 0.544594,-0.54027 0.560478,-0.57841 0.419091,-1.00623 -0.08084,-0.24457 -0.423744,-0.76317 -0.762032,-1.15245 -0.338275,-0.38927 -0.850194,-1.04021 -1.137609,-1.44651 -0.287415,-0.40629 -0.920833,-1.24311 -1.40761,-1.85957 -0.486777,-0.61648 -0.98476,-1.27802 -1.106626,-1.47011 -0.579765,-0.91382 -1.255421,-1.58853 -1.588749,-1.58657 -0.61964,0.004 -0.710497,0.15775 -0.678252,1.15047 0.0197,0.60662 -0.03549,1.03938 -0.163737,1.28371 -0.198958,0.37903 -1.199626,1.27657 -1.614834,1.44839 -0.128442,0.0532 -0.645052,0.36821 -1.148019,0.70013 -1.175856,0.77595 -1.771603,0.94904 -2.385206,0.69303 -0.638475,-0.26638 -1.517878,-0.23685 -2.122761,0.0713 -0.635096,0.32355 -0.727815,0.50017 -0.822554,1.56663 -0.100973,1.13665 -0.149604,1.2309 -0.781577,1.51487 -0.415037,0.18648 -0.771032,0.23365 -1.497536,0.19842 -1.298224,-0.0629 -1.358061,1.7e-4 -1.327163,1.40015 l 0.02464,1.11597 -0.704265,0.62287 c -0.387335,0.34258 -0.903883,0.68947 -1.147884,0.77087 -0.563171,0.18785 -1.80293,0.0793 -2.35585,-0.20614 -0.413065,-0.21329 -0.438783,-0.21034 -0.916927,0.10559 -0.470685,0.31103 -0.494994,0.36289 -0.562228,1.19924 -0.04711,0.58603 -0.155997,0.98723 -0.330376,1.21723 -0.248263,0.32746 -0.30794,0.34127 -1.312429,0.30391 -0.954744,-0.0354 -1.104569,-0.006 -1.615325,0.31427 -0.309642,0.19438 -0.635818,0.45579 -0.724814,0.58091 -0.08901,0.12513 -0.591901,0.55072 -1.117537,0.94575 -0.740208,0.55629 -0.989707,0.82889 -1.106515,1.20893 -0.179131,0.58282 -0.06952,0.70551 0.933949,1.04551 0.769575,0.26075 1.539921,0.9278 2.00719,1.73804 0.18965,0.32887 0.60601,0.89146 0.925229,1.25021 0.319207,0.35876 0.71754,0.86851 0.885171,1.13278 0.530105,0.83576 1.505166,1.85974 1.984044,2.08357 0.441869,0.20653 0.810626,0.19753 0.810626,-0.0198 z"
       id="path4"
       inkscape:connector-curvature="0"
       style="fill:#ff0000;fill-opacity:0.21860465;stroke:#000000;stroke-width:0.35277781;stroke-linecap:round;stroke-linejoin:round;stroke-opacity:1" />
  </g>
  <g
     inkscape:groupmode="layer"
     id="layer2"
     inkscape:label="Layer 2">
    <g
       style="fill:none;stroke:#000000;stroke-opacity:1;stroke-width:0.35277778;stroke-miterlimit:4;stroke-dasharray:none"
       id="g883">
      <g
         id="g907">
        <path
           sodipodi:nodetypes="cssssssssccc"
           inkscape:connector-curvature="0"
           id="rect821"
           d="m 44.388741,470.83478 -15.702519,-0.001 c -1.662,-1.3e-4 -3,-1.338 -3,-3 v -208.6475 c 0,-1.662 1.338,-3 3,-3 H 328.33344 c 1.662,0 3,1.338 3,3 v 208.64723 c 0,1.662 -1.33801,3.00641 -3,3 l -15.64722,-0.0604 m -31.64722,0 -205.003037,0.0616"
           style="display:inline;opacity:1;fill:none;fill-opacity:0.21860465;stroke:#000000;stroke-width:0.35277778;stroke-miterlimit:4;stroke-dasharray:none;stroke-opacity:1" />
        <path
           sodipodi:nodetypes="cccc"
           inkscape:connector-curvature="0"
           id="rect831"
           d="m 44.388741,470.83478 v -6.92752 h 31.647222 v 6.92752"
           style="display:inline;opacity:1;fill:none;fill-opacity:0.21860465;stroke:#000000;stroke-width:0.35277778;stroke-miterlimit:4;stroke-dasharray:none;stroke-opacity:1" />
        <g
           style="display:inline;fill:none;stroke:#000000;stroke-opacity:1;stroke-width:0.35277778;stroke-miterlimit:4;stroke-dasharray:none"
           id="layer1-1"
           inkscape:label="Layer 1"
           transform="translate(75.853045,191.73969)">
          <path
             style="fill:none;fill-opacity:1;stroke:#000000;stroke-width:0.35277778;stroke-linecap:round;stroke-linejoin:round;stroke-opacity:1;stroke-miterlimit:4;stroke-dasharray:none"
             inkscape:connector-curvature="0"
             d="m -11.218154,83.475673 c 0.107181,-0.0517 0.0208,-0.29473 0.0197,-0.34728 -0.005,-0.26778 0.117461,-0.43797 0.133241,-0.47142 0.0774,-0.16388 3.43e-4,-0.15867 0.357499,-0.51536 0.378511,-0.37841 0.512551,-0.30623 0.536391,-0.375 0.0143,-0.0411 -0.086,-0.1598 -0.182871,-0.28424 -0.0252,-0.0324 -0.527541,-0.66923 -0.57043,-0.72405 -0.465911,-0.59642 -0.381631,-0.48512 -0.386111,-0.59532 l 1.4579701,-1.09671 c 0.407201,-0.30661 0.41935,-0.31721 0.4536,-0.31352 0.05,0.005 0.1343,0.13326 0.896782,1.08934 0.01,0.0118 0.753837,0.94811 1.066487,1.34184 0.0241,0.0304 0.495282,0.616091 0.683361,0.85067 0.154839,0.19327 0.221559,0.27846 0.72549,0.9058 0.280429,0.35015 0.36498,0.45492 0.371592,0.4632 0.01741,0.0216 0.176958,0.22206 0.970147,1.21975 l 0.118833,0.1497 1.097859,1.37396 c 0.14478,0.181831 0.295471,0.37137 0.452729,0.567961 0.543091,0.680109 0.635751,0.7938 0.664651,0.831239 0.124169,0.1606 0.0869,0.130251 0.0922,0.213971 -3.041859,2.333819 -2.085311,1.599989 -4.304991,3.301999 -0.46754,0.35854 -0.362651,0.27793 -0.445799,0.34171 l -1.682861,1.29312 c -1.3515901,1.03868 -1.3522101,1.03788 -1.3643401,1.0472 l -1.6335,1.25559 -1.79394,1.381121 -1.70093,1.30209 -1.30121,1.002479 c -0.21189,0.16346 -2.73312,2.100607 -2.80812,2.158107 -0.16679,0.12793 -0.50527,0.38956 -1.29311,0.99449 -0.77149,0.59225 -0.68585,0.52643 -0.7715,0.59238 l -1.89932,1.46211 -1.08983,0.83626 c -0.31709,0.24267 0.0489,-0.0338 -0.7059,0.54121 -0.1649,0.12546 -0.49332,0.37835 -1.08922,0.83328 -0.91178,0.69688 -0.86896,0.66398 -0.87681,0.67001 -0.38991,0.29333 -0.33499,0.23827 -0.37694,0.25902 -0.11543,-0.084 -0.22497,-0.25074 -0.97743,-1.27519 -0.0452,-0.0621 -0.58328,-0.79855 -0.59947,-0.82029 -0.18219,-0.24528 0.0418,0.0609 -0.6597,-0.89093 -0.006,-0.008 -0.63438,-0.85602 -0.68602,-0.92618 l -0.95514,-1.29458 c -0.0555,-0.0754 -0.45003,-0.61204 -0.46239,-0.62877 -0.006,-0.008 -0.50656,-0.6846 -0.63336,-0.85567 -0.57565,-0.776167 -0.4849,-0.670857 -0.59197,-0.763747 -0.62797,0.38118 -0.97054,0.786317 -1.11936,0.763347 -0.0773,-0.0116 -0.0832,-0.0581 -0.44289,-0.546767 -0.0636,-0.0861 -0.80557,-1.08831 -0.84255,-1.139209 -0.14051,-0.194341 -0.17488,-0.239051 -0.17181,-0.27823 0.005,-0.0684 0.0737,-0.107151 0.74582,-0.609721 l 1.179031,-0.881849 c 0.1585,-0.11802 1.14319,-0.85823 2.09188,-1.569121 l 1.47507,-1.1053 c 0.44741,-0.33501 0.42635,-0.29662 0.43042,-0.29886 0.23909,0.22841 1.03333,1.41043 1.2366,1.58503 0.30737,-0.19824 -0.0745,-0.11574 0.72061,-0.546209 0.62035,-0.335981 0.37391,-0.0965 0.768,-0.183721 -0.0135,-0.0225 -0.14164,-0.22436 -0.14333,-0.22608 -0.007,-0.007 -0.30683,-0.17245 -0.44404,-0.30159 -0.27357,-0.25753 -0.3606,-0.54983 -0.37118,-0.57852 -0.007,-0.0213 -0.27027,-0.5885 0.14425,-1.25993 0.41501,-0.67242 1.22417,-0.7609 1.57553,-0.66341 0.63046,0.1751 1.07242,0.67882 1.11189,1.24993 0.0891,-0.047 0.10529,-0.0394 1.30635,-0.9566 0.76976,-0.58776 0.4661,-0.54258 0.82493,-0.73687 0.74658,-0.40409 0.54276,-0.31253 0.98334,-0.31477 -0.0278,-0.0412 -0.008,-0.0217 -0.11456,-0.16382 l -0.7629,-1.00949 c -0.46273,-0.61198 -0.47159,-0.57363 -0.4517,-0.66837 0.0195,-0.0929 0.20362,-0.18436 0.64139,-0.51421 l 1.18763,-0.894769 c 0.0656,-0.0495 0.10768,-0.079 0.13478,-0.0746 0.0888,0.014 0.62582,0.83421 1.26203,1.578229 0.20145,-0.13337 1.1289,-0.828569 1.2785,-0.959669 -1.27915,-1.72588 -1.19271,-1.4465 -1.18043,-1.67374 0.97796,-0.69971 2.1265,-1.6483 2.83932,-1.914981 0.19857,-0.0743 0.91202,-0.36098 1.70377,0.002 0.67693,0.309911 1.03006,0.854771 1.17763,1.009371 0.0647,-0.51939 -0.0972,-0.14438 0.30318,-0.95086 0.23857,-0.48058 -0.0393,0.0251 0.44271,-0.50378 0.003,-0.004 0.12872,-0.190611 0.39379,-0.348531 0.857,-0.510659 0.66494,-0.33733 1.13456,-0.44851 0.41056,-0.0971 0.66367,0.0505 0.69717,0.0343 z"
             id="path1024" />
        </g>
        <path
           sodipodi:nodetypes="cccc"
           inkscape:connector-curvature="0"
           id="rect831-4"
           d="m -312.68622,470.77312 v -6.8478 h 31.64722 v 6.8478"
           style="display:inline;opacity:1;fill:none;fill-opacity:0.21860465;stroke:#000000;stroke-width:0.35277778;stroke-miterlimit:4;stroke-dasharray:none;stroke-opacity:1"
           transform="scale(-1,1)" />
        <g
           style="fill:none;stroke:#000000;stroke-opacity:1;stroke-width:0.35277778;stroke-miterlimit:4;stroke-dasharray:none"
           id="g861"
           transform="translate(-19.674927,0.24032593)">
          <path
             sodipodi:nodetypes="cccccc"
             inkscape:connector-curvature="0"
             id="rect837-8"
             d="m -340.21392,460.94596 h -5.64723 v -28.05972 l 2.81969,-1.5875 2.82754,1.5875 -1e-5,26.4125"
             style="opacity:1;fill:none;fill-opacity:0.21860465;stroke:#000000;stroke-width:0.35277778;stroke-miterlimit:4;stroke-dasharray:none;stroke-opacity:1"
             transform="scale(-1,1)" />
          <path
             sodipodi:nodetypes="cccc"
             inkscape:connector-curvature="0"
             id="rect857"
             d="m 340.21393,460.94596 h -1.64722 v -1.64722 h 1.64722"
             style="opacity:1;fill:none;fill-opacity:0.21860465;stroke:#000000;stroke-width:0.35277778;stroke-miterlimit:4;stroke-dasharray:none;stroke-opacity:1" />
        </g>
      </g>
    </g>
  </g>
  <g
     inkscape:groupmode="layer"
     id="layer3"
     inkscape:label="Layer 3" />
</svg>
