<?xml version="1.0" encoding="utf-8"?>
<!DOCTYPE svg PUBLIC "-//W3C//DTD SVG 1.1//EN" "http://www.w3.org/Graphics/SVG/1.1/DTD/svg11.dtd">
<!-- exported from Silhouette Studio Business Edition V4.1.479ssbe -->
<svg version="1.1" xmlns="http://www.w3.org/2000/svg" xmlns:xlink="http://www.w3.org/1999/xlink" width="431.35mm" height="279.08mm" viewBox="0 0 431.35 279.08">
<defs/>
<path d="M 164.2947 128.7463 C 164.2421 128.7157 164.2282 128.6761 164.2456 128.6067 C 164.2756 128.4872 164.2146 128.3652 164.1081 128.3314 C 164.064 128.3174 164.028 128.2808 164.028 128.25 C 164.028 128.1564 163.7916 127.9185 163.6725 127.8923 C 163.6028 127.877 163.4778 127.8987 163.3415 127.9496 C 163.0471 128.0598 162.4103 128.0753 162.137 127.979 C 161.8726 127.8859 161.5391 127.8515 161.4358 127.9068 C 161.3895 127.9316 161.3224 128.0013 161.2868 128.0616 C 161.2278 128.1616 161.2044 128.1701 161.0232 128.1574 C 160.7306 128.1368 160.6592 128.1685 160.5359 128.3737 C 160.4436 128.5273 160.4146 128.5507 160.3662 128.5105 C 160.334 128.4838 160.2886 128.391 160.2652 128.3042 C 160.2303 128.1744 160.2071 128.1486 160.1349 128.1588 C 160.065 128.1688 160.0426 128.2053 160.0249 128.3379 C 159.9936 128.5719 159.9282 128.6374 159.7465 128.6165 C 159.6646 128.6071 159.5461 128.5725 159.4833 128.5396 C 159.373 128.4818 159.3666 128.4837 159.2986 128.5956 C 159.202 128.7543 159.065 128.7489 158.9374 128.5814 C 158.8829 128.5099 158.8254 128.4104 158.8096 128.3603 C 158.7937 128.3102 158.7365 128.2402 158.6825 128.2048 C 158.5931 128.1462 158.5706 128.146 158.4354 128.2025 C 158.3536 128.2366 158.2544 128.2749 158.2148 128.2874 C 158.1753 128.3 158.124 128.3645 158.1009 128.4308 C 158.0525 128.5695 158.0618 128.5656 157.9273 128.5044 C 157.867 128.4769 157.7924 128.3856 157.7477 128.2844 C 157.7056 128.1892 157.6546 128.1113 157.6343 128.1113 C 157.6141 128.1113 157.5296 128.0573 157.4465 127.9913 C 157.277 127.8566 157.1628 127.8442 156.7654 127.9174 C 156.5568 127.9559 156.4894 127.9534 156.3607 127.9026 C 156.1612 127.8238 156.0508 127.8717 155.9707 128.0718 C 155.9081 128.2284 155.7226 128.4062 155.6615 128.3684 C 155.642 128.3564 155.6262 128.3138 155.6262 128.2737 C 155.6262 128.1878 155.4059 127.9591 155.2735 127.9074 C 155.2225 127.8876 155.1017 127.8713 155.005 127.8713 C 154.8649 127.8713 154.8083 127.8936 154.7263 127.9813 C 154.6082 128.1076 154.5673 128.2316 154.6003 128.363 C 154.6293 128.4786 154.5039 128.6921 154.3894 128.722 C 154.2734 128.7524 154.2144 128.6298 154.2204 128.3704 C 154.2263 128.1138 154.1861 128.0733 153.7857 127.933 L 153.4857 127.8279 L 125.7596 127.8392 C 98.62486 127.8502 98.02711 127.8489 97.73345 127.7744 C 97.33824 127.6742 96.98583 127.5136 96.7182 127.3115 C 96.43688 127.0992 96.06416 126.6409 95.90461 126.3112 C 95.64063 125.7658 95.65457 126.396 95.65865 115.1907 C 95.66068 109.6134 95.66264 104.9061 95.66301 104.7301 C 95.66338 104.5541 95.66046 93.07635 95.65657 79.22398 C 95.65157 61.54347 95.6622 53.93529 95.69224 53.69361 C 95.75734 53.16983 95.86064 52.89056 96.13475 52.49739 C 96.26896 52.30488 96.39208 52.14737 96.40836 52.14737 C 96.42463 52.14737 96.52968 52.06908 96.6418 51.97339 C 96.98862 51.67739 97.28529 51.54887 97.81959 51.46315 C 98.2837 51.38869 99.43903 51.38734 154.2958 51.39723 L 210.2981 51.40733 L 210.6258 51.51198 C 211.181 51.68928 211.6479 52.04544 211.9727 52.53919 C 212.2299 52.93023 212.3402 53.18466 212.4187 53.56744 C 212.4792 53.86267 212.4841 56.65583 212.4812 89.62205 C 212.4785 121.5723 212.4717 125.3881 212.4168 125.6537 C 212.3129 126.1569 212.1126 126.5729 211.8177 126.898 C 211.3748 127.3864 210.9286 127.6476 210.2891 127.7928 C 210.183 127.8169 204.1449 127.835 194.0855 127.8413 C 185.2666 127.8468 175.3865 127.8603 172.1298 127.8713 L 166.2085 127.8913 L 165.9635 128.0213 C 165.7069 128.1575 165.5174 128.1832 165.321 128.1086 C 165.1686 128.0507 164.6585 128.0523 164.5488 128.111 C 164.4791 128.1483 164.4654 128.1812 164.4849 128.2649 C 164.5605 128.5897 164.5609 128.6831 164.4865 128.7375 C 164.3992 128.8013 164.39 128.8017 164.2947 128.7463 Z" fill="none" fill-opacity="1" stroke="#000000" stroke-opacity="1" stroke-width="0.1763889" stroke-linecap="round" stroke-linejoin="round"/>
<path d="M 159.657 128.2994 C 159.767 128.2162 159.71 128.1513 159.527 128.1513 C 159.3613 128.1513 159.347 128.1594 159.347 128.252 C 159.347 128.3404 159.3627 128.3517 159.477 128.3449 C 159.5485 128.3407 159.6295 128.3202 159.657 128.2994 Z" fill="none" fill-opacity="1" stroke="#000000" stroke-opacity="1" stroke-width="0.1763889" stroke-linecap="round" stroke-linejoin="round"/>
<path d="M 153.6883 125.0803 C 153.8671 124.9307 153.9598 124.6857 153.9637 124.353 C 153.9656 124.1952 153.9818 124.164 154.1058 124.0796 C 154.232 123.9938 154.2735 123.9869 154.5259 124.01 C 154.8929 124.0434 154.945 124.006 154.9738 123.6883 C 154.9909 123.5001 154.982 123.4376 154.9326 123.3965 C 154.8795 123.3525 154.8487 123.3602 154.7364 123.4459 C 154.4905 123.6334 154.2032 123.5782 153.9552 123.2957 C 153.8326 123.1561 153.5609 122.9925 153.4857 123.0131 C 153.4637 123.0191 153.3965 123.0349 153.3364 123.0482 C 153.2763 123.0614 153.1648 123.1269 153.0887 123.1937 C 153.0126 123.2605 152.8458 123.3558 152.7179 123.4054 L 152.4855 123.4956 L 152.3345 123.41 C 152.2515 123.3629 152.1331 123.276 152.0715 123.2169 C 151.9134 123.0655 151.7637 123.0337 151.179 123.0271 C 150.7665 123.0224 150.6466 123.034 150.5671 123.0861 L 150.4682 123.1508 L 150.4566 123.961 C 150.4397 125.1401 150.4475 125.1498 151.3564 125.0905 C 151.7795 125.0628 151.8162 125.0531 152.1388 124.883 C 152.4247 124.7322 152.4995 124.7086 152.62 124.7313 C 152.7876 124.7627 152.9733 124.8512 153.0856 124.9532 C 153.3004 125.1483 153.5453 125.1999 153.6883 125.0803 Z" fill="none" fill-opacity="1" stroke="#000000" stroke-opacity="1" stroke-width="0.1763889" stroke-linecap="round" stroke-linejoin="round"/>
<path d="M 156.3711 125.0115 C 156.7175 124.8675 156.7074 124.451 156.3551 124.3527 C 156.2371 124.3198 156.1667 124.3253 156.0155 124.3793 C 155.8358 124.4435 155.8099 124.4435 155.5688 124.3793 C 155.2059 124.2826 154.6847 124.2878 154.5175 124.3898 C 154.3957 124.464 154.3913 124.475 154.433 124.5996 C 154.4863 124.7589 154.6048 124.8961 154.766 124.985 C 154.9878 125.1073 156.0965 125.1257 156.3711 125.0115 Z" fill="none" fill-opacity="1" stroke="#000000" stroke-opacity="1" stroke-width="0.1763889" stroke-linecap="round" stroke-linejoin="round"/>
<path d="M 157.6117 124.8982 C 157.6574 124.7658 157.6559 124.732 157.6009 124.6481 C 157.5205 124.5255 157.3562 124.5206 157.2089 124.6364 C 157.1223 124.7046 157.1057 124.7427 157.1267 124.8262 C 157.1612 124.9637 157.2132 125.0225 157.3194 125.044 C 157.503 125.0812 157.5581 125.0537 157.6117 124.8982 Z" fill="none" fill-opacity="1" stroke="#000000" stroke-opacity="1" stroke-width="0.1763889" stroke-linecap="round" stroke-linejoin="round"/>
<path d="M 156.7384 123.7409 C 156.7497 123.5245 156.7441 123.5082 156.6458 123.4709 C 156.4803 123.408 156.4328 123.4225 156.3629 123.5576 C 156.3083 123.6631 156.3053 123.7099 156.3442 123.8398 C 156.3897 123.9917 156.3949 123.9952 156.5586 123.9833 L 156.7264 123.9711 L 156.7384 123.7409 Z" fill="none" fill-opacity="1" stroke="#000000" stroke-opacity="1" stroke-width="0.1763889" stroke-linecap="round" stroke-linejoin="round"/>
<path d="M 209.1832 120.2911 C 209.2331 120.2584 209.2973 120.164 209.3259 120.0813 C 209.3684 119.9585 209.3796 114.2648 209.3871 89.0693 C 209.3951 61.69463 209.3894 58.18916 209.336 58.0437 C 209.3029 57.95351 209.2299 57.83651 209.1737 57.78369 L 209.0714 57.68766 L 154.0668 57.68766 C 99.74196 57.68766 99.06108 57.68861 98.97663 57.76503 C 98.9296 57.80758 98.85538 57.90022 98.8117 57.97089 C 98.73308 58.09808 98.73231 58.18816 98.73545 66.85399 C 98.74767 100.5874 98.77352 119.8246 98.80674 119.9309 C 98.87153 120.1383 98.94227 120.2655 99.00915 120.2949 C 99.04468 120.3105 99.40681 120.334 99.8139 120.3471 C 100.221 120.3602 124.9752 120.3664 154.8233 120.3608 C 202.759 120.3518 209.103 120.3436 209.1832 120.2911 Z" fill="none" fill-opacity="1" stroke="#000000" stroke-opacity="1" stroke-width="0.1763889" stroke-linecap="round" stroke-linejoin="round"/>
<path d="M 155.2001 55.63417 C 155.3901 55.46386 155.403 55.38269 155.3951 54.40748 C 155.391 53.90145 155.3776 53.44142 155.3654 53.38518 C 155.3179 53.1672 155.2118 53.14741 154.0904 53.14741 C 153.2518 53.14741 153.0387 53.1588 152.9094 53.21053 C 152.8227 53.24524 152.7421 53.29861 152.7304 53.32914 C 152.7186 53.35966 152.7062 53.82316 152.7026 54.35913 C 152.6959 55.38829 152.7079 55.46946 152.8914 55.63429 C 152.9923 55.72491 153.0658 55.72951 154.1658 55.71407 C 154.9917 55.70248 155.1364 55.69131 155.2001 55.63417 Z" fill="none" fill-opacity="1" stroke="#000000" stroke-opacity="1" stroke-width="0.1763889" stroke-linecap="round" stroke-linejoin="round"/>
<path d="M 157.1164 54.6973 C 157.1769 54.64791 157.2374 54.54998 157.251 54.47968 C 157.2729 54.36611 157.2606 54.34254 157.1411 54.26835 C 156.8972 54.11706 156.5864 54.23987 156.5864 54.48749 C 156.5864 54.6619 156.7126 54.76535 156.9464 54.78267 C 156.9794 54.78511 157.0559 54.7467 157.1164 54.6973 Z" fill="none" fill-opacity="1" stroke="#000000" stroke-opacity="1" stroke-width="0.1763889" stroke-linecap="round" stroke-linejoin="round"/>
<path d="M 145.0258 54.48646 C 145.1247 54.43533 145.1438 54.40126 145.1432 54.27645 C 145.1425 54.08801 145.1139 54.04465 144.9433 53.97293 C 144.8215 53.92174 144.7912 53.9222 144.6845 53.97678 C 144.5288 54.05653 144.5051 54.09589 144.5043 54.2762 C 144.5038 54.39764 144.5239 54.43589 144.6137 54.48461 C 144.756 54.56178 144.8791 54.56233 145.0258 54.48646 Z" fill="none" fill-opacity="1" stroke="#000000" stroke-opacity="1" stroke-width="0.1763889" stroke-linecap="round" stroke-linejoin="round"/>
<path d="M 163.4493 54.44289 C 163.671 54.29765 163.5055 53.90746 163.2222 53.90746 C 162.9597 53.90746 162.8013 54.24362 162.974 54.43434 C 163.0577 54.52684 163.3141 54.53145 163.4493 54.44289 Z" fill="none" fill-opacity="1" stroke="#000000" stroke-opacity="1" stroke-width="0.1763889" stroke-linecap="round" stroke-linejoin="round"/>
<path d="M 162.9993 128.5749 C 162.9641 128.4601 162.9674 128.4324 163.019 128.4126 C 163.1073 128.3787 163.1562 128.4433 163.1409 128.5734 C 163.122 128.7349 163.0486 128.7357 162.9993 128.5749 Z" fill="none" fill-opacity="1" stroke="#000000" stroke-opacity="1" stroke-width="0.1763889" stroke-linecap="round" stroke-linejoin="round"/>
<path d="M 163.8279 128.6314 C 163.8279 128.5874 163.8459 128.5514 163.868 128.5514 C 163.89 128.5514 163.908 128.5874 163.908 128.6314 C 163.908 128.6754 163.89 128.7114 163.868 128.7114 C 163.8459 128.7114 163.8279 128.6754 163.8279 128.6314 Z" fill="none" fill-opacity="1" stroke="#000000" stroke-opacity="1" stroke-width="0.1763889" stroke-linecap="round" stroke-linejoin="round"/>
<path d="M 162.4723 128.52 C 162.4378 128.4556 162.4424 128.4342 162.4951 128.414 C 162.5977 128.3746 162.6566 128.4596 162.5799 128.5363 C 162.5207 128.5955 162.512 128.5942 162.4723 128.52 Z" fill="none" fill-opacity="1" stroke="#000000" stroke-opacity="1" stroke-width="0.1763889" stroke-linecap="round" stroke-linejoin="round"/>
<path d="M 161.174 128.5247 C 161.1327 128.4833 161.1426 128.279 161.1874 128.2513 C 161.2115 128.2364 161.2274 128.2909 161.2274 128.389 C 161.2274 128.5548 161.2208 128.5715 161.174 128.5247 Z" fill="none" fill-opacity="1" stroke="#000000" stroke-opacity="1" stroke-width="0.1763889" stroke-linecap="round" stroke-linejoin="round"/>
<path d="M 165.1514 128.488 C 165.1533 128.4414 165.1628 128.432 165.1756 128.4639 C 165.1871 128.4928 165.1857 128.5272 165.1724 128.5405 C 165.1591 128.5538 165.1497 128.5302 165.1514 128.488 Z" fill="none" fill-opacity="1" stroke="#000000" stroke-opacity="1" stroke-width="0.1763889" stroke-linecap="round" stroke-linejoin="round"/>
<path d="M 165.6854 128.498 C 165.6713 128.4614 165.6726 128.3999 165.6883 128.3614 C 165.7137 128.2989 165.7214 128.3012 165.7593 128.3827 C 165.7899 128.4484 165.7891 128.4867 165.7564 128.5193 C 165.7225 128.5532 165.7045 128.5478 165.6854 128.498 Z" fill="none" fill-opacity="1" stroke="#000000" stroke-opacity="1" stroke-width="0.1763889" stroke-linecap="round" stroke-linejoin="round"/>
</svg>