<?xml version="1.0" encoding="UTF-8" standalone="no"?>
<!-- Created with Inkscape (http://www.inkscape.org/) -->

<svg
   xmlns:dc="http://purl.org/dc/elements/1.1/"
   xmlns:cc="http://creativecommons.org/ns#"
   xmlns:rdf="http://www.w3.org/1999/02/22-rdf-syntax-ns#"
   xmlns:svg="http://www.w3.org/2000/svg"
   xmlns="http://www.w3.org/2000/svg"
   xmlns:sodipodi="http://sodipodi.sourceforge.net/DTD/sodipodi-0.dtd"
   xmlns:inkscape="http://www.inkscape.org/namespaces/inkscape"
   width="210mm"
   height="297mm"
   viewBox="0 0 210 297"
   version="1.1"
   id="svg13495"
   inkscape:version="0.92.3 (2405546, 2018-03-11)"
   sodipodi:docname="E5440 TP.svg">
  <defs
     id="defs13489" />
  <sodipodi:namedview
     id="base"
     pagecolor="#ffffff"
     bordercolor="#666666"
     borderopacity="1.0"
     inkscape:pageopacity="0.0"
     inkscape:pageshadow="2"
     inkscape:zoom="0.35"
     inkscape:cx="523.11586"
     inkscape:cy="814.25848"
     inkscape:document-units="mm"
     inkscape:current-layer="layer1"
     showgrid="false"
     inkscape:window-width="1680"
     inkscape:window-height="926"
     inkscape:window-x="0"
     inkscape:window-y="28"
     inkscape:window-maximized="1" />
  <metadata
     id="metadata13492">
    <rdf:RDF>
      <cc:Work
         rdf:about="">
        <dc:format>image/svg+xml</dc:format>
        <dc:type
           rdf:resource="http://purl.org/dc/dcmitype/StillImage" />
        <dc:title />
      </cc:Work>
    </rdf:RDF>
  </metadata>
  <g
     inkscape:label="Layer 1"
     inkscape:groupmode="layer"
     id="layer1">
    <g
       id="g968">
      <path
         inkscape:connector-curvature="0"
         id="rect14040"
         d="M 5.7797621,6.3363094 H 86.779762 c 1.108,0 2,0.8920001 2,2.0000001 V 57.336309 c 0,1.108 -0.892,2 -2,2 H 5.7797621 c -1.108,0 -2,-0.892 -2,-2 V 8.3363095 c 0,-1.108 0.892,-2.0000001 2,-2.0000001 z"
         style="opacity:1;vector-effect:none;fill:none;fill-opacity:1;fill-rule:evenodd;stroke:#000000;stroke-width:0.25;stroke-linecap:butt;stroke-linejoin:miter;stroke-miterlimit:4;stroke-dasharray:none;stroke-dashoffset:0;stroke-opacity:1" />
      <path
         inkscape:connector-curvature="0"
         id="rect14040-4"
         d="M 5.8398798,62.083928 H 86.839883 c 1.108,0 2,0.892 2,2 v 49.000002 c 0,1.10799 -0.892,2 -2,2 H 5.8398798 c -1.108,0 -2,-0.89201 -2,-2 V 64.083928 c 0,-1.108 0.892,-2 2,-2 z"
         style="opacity:1;vector-effect:none;fill:none;fill-opacity:1;fill-rule:evenodd;stroke:#000000;stroke-width:0.25;stroke-linecap:butt;stroke-linejoin:miter;stroke-miterlimit:4;stroke-dasharray:none;stroke-dashoffset:0;stroke-opacity:1" />
      <path
         inkscape:connector-curvature="0"
         id="rect14040-3"
         d="m 93.27351,6.3910703 h 81 c 1.108,0 2,0.892001 2,2.0000009 V 57.39107 c 0,1.107998 -0.892,1.999999 -2,1.999999 h -81 c -1.108,0 -2,-0.892001 -2,-1.999999 V 8.3910712 c 0,-1.1079999 0.892,-2.0000009 2,-2.0000009 z"
         style="opacity:1;vector-effect:none;fill:none;fill-opacity:1;fill-rule:evenodd;stroke:#000000;stroke-width:0.25;stroke-linecap:butt;stroke-linejoin:miter;stroke-miterlimit:4;stroke-dasharray:none;stroke-dashoffset:0;stroke-opacity:1" />
      <path
         inkscape:connector-curvature="0"
         id="rect14040-4-1"
         d="m 93.333628,62.138687 h 81.000002 c 1.108,0 2,0.892 2,2.000001 v 48.999982 c 0,1.10799 -0.892,2 -2,2 H 93.333628 c -1.108,0 -2,-0.89201 -2,-2 V 64.138688 c 0,-1.108001 0.892,-2.000001 2,-2.000001 z"
         style="opacity:1;vector-effect:none;fill:none;fill-opacity:1;fill-rule:evenodd;stroke:#000000;stroke-width:0.25;stroke-linecap:butt;stroke-linejoin:miter;stroke-miterlimit:4;stroke-dasharray:none;stroke-dashoffset:0;stroke-opacity:1" />
      <path
         inkscape:connector-curvature="0"
         id="rect14040-49"
         d="M 6.2105681,117.6399 H 87.210568 c 1.108,0 2,0.892 2,2 v 49 c 0,1.10799 -0.892,1.99999 -2,1.99999 H 6.2105681 c -1.108,0 -2,-0.892 -2,-1.99999 v -49 c 0,-1.108 0.892,-2 2,-2 z"
         style="opacity:1;vector-effect:none;fill:none;fill-opacity:1;fill-rule:evenodd;stroke:#000000;stroke-width:0.25;stroke-linecap:butt;stroke-linejoin:miter;stroke-miterlimit:4;stroke-dasharray:none;stroke-dashoffset:0;stroke-opacity:1" />
      <path
         inkscape:connector-curvature="0"
         id="rect14040-4-2"
         d="M 6.2706781,173.38751 H 87.270688 c 1.108,0 2,0.892 2,2 v 49 c 0,1.10799 -0.892,2 -2,2 H 6.2706781 c -1.108,0 -2,-0.89201 -2,-2 v -49 c 0,-1.108 0.892,-2 2,-2 z"
         style="opacity:1;vector-effect:none;fill:none;fill-opacity:1;fill-rule:evenodd;stroke:#000000;stroke-width:0.25;stroke-linecap:butt;stroke-linejoin:miter;stroke-miterlimit:4;stroke-dasharray:none;stroke-dashoffset:0;stroke-opacity:1" />
      <path
         inkscape:connector-curvature="0"
         id="rect14040-3-0"
         d="m 93.704318,117.69466 h 81.000002 c 1.108,0 2,0.892 2,2 v 49 c 0,1.10799 -0.892,1.99999 -2,1.99999 H 93.704318 c -1.10801,0 -2,-0.892 -2,-1.99999 v -49 c 0,-1.108 0.89199,-2 2,-2 z"
         style="opacity:1;vector-effect:none;fill:none;fill-opacity:1;fill-rule:evenodd;stroke:#000000;stroke-width:0.25;stroke-linecap:butt;stroke-linejoin:miter;stroke-miterlimit:4;stroke-dasharray:none;stroke-dashoffset:0;stroke-opacity:1" />
      <path
         inkscape:connector-curvature="0"
         id="rect14040-4-1-6"
         d="m 93.764428,173.44227 h 81.000012 c 1.108,0 2,0.892 2,2 v 48.99998 c 0,1.10799 -0.892,2 -2,2 H 93.764428 c -1.108,0 -2,-0.89201 -2,-2 v -48.99998 c 0,-1.108 0.892,-2 2,-2 z"
         style="opacity:1;vector-effect:none;fill:none;fill-opacity:1;fill-rule:evenodd;stroke:#000000;stroke-width:0.25;stroke-linecap:butt;stroke-linejoin:miter;stroke-miterlimit:4;stroke-dasharray:none;stroke-dashoffset:0;stroke-opacity:1" />
      <path
         inkscape:connector-curvature="0"
         id="rect14040-8"
         d="m 182.35885,6.727982 h 81 c 1.108,0 2,0.892 2,2 v 49 c 0,1.107998 -0.892,1.999999 -2,1.999999 h -81 c -1.108,0 -2,-0.892001 -2,-1.999999 v -49 c 0,-1.108 0.892,-2 2,-2 z"
         style="opacity:1;vector-effect:none;fill:none;fill-opacity:1;fill-rule:evenodd;stroke:#000000;stroke-width:0.25;stroke-linecap:butt;stroke-linejoin:miter;stroke-miterlimit:4;stroke-dasharray:none;stroke-dashoffset:0;stroke-opacity:1" />
      <path
         inkscape:connector-curvature="0"
         id="rect14040-4-9"
         d="m 182.41897,62.475599 h 81 c 1.108,0 2,0.892 2,2.000001 v 49 c 0,1.10799 -0.892,2 -2,2 h -81 c -1.108,0 -2,-0.89201 -2,-2 v -49 c 0,-1.108001 0.892,-2.000001 2,-2.000001 z"
         style="opacity:1;vector-effect:none;fill:none;fill-opacity:1;fill-rule:evenodd;stroke:#000000;stroke-width:0.25;stroke-linecap:butt;stroke-linejoin:miter;stroke-miterlimit:4;stroke-dasharray:none;stroke-dashoffset:0;stroke-opacity:1" />
      <path
         inkscape:connector-curvature="0"
         id="rect14040-3-2"
         d="m 269.8526,6.782743 h 81 c 1.108,0 2,0.892001 2,2.000001 v 48.999999 c 0,1.107998 -0.892,1.999998 -2,1.999998 h -81 c -1.108,0 -2,-0.892 -2,-1.999998 V 8.782744 c 0,-1.108 0.892,-2.000001 2,-2.000001 z"
         style="opacity:1;vector-effect:none;fill:none;fill-opacity:1;fill-rule:evenodd;stroke:#000000;stroke-width:0.25;stroke-linecap:butt;stroke-linejoin:miter;stroke-miterlimit:4;stroke-dasharray:none;stroke-dashoffset:0;stroke-opacity:1" />
      <path
         inkscape:connector-curvature="0"
         id="rect14040-4-1-66"
         d="m 269.91271,62.53036 h 81.00001 c 1.108,0 2,0.892 2,2.000001 v 48.999979 c 0,1.10799 -0.892,2 -2,2 h -81.00001 c -1.108,0 -2,-0.89201 -2,-2 V 64.530361 c 0,-1.108001 0.892,-2.000001 2,-2.000001 z"
         style="opacity:1;vector-effect:none;fill:none;fill-opacity:1;fill-rule:evenodd;stroke:#000000;stroke-width:0.25;stroke-linecap:butt;stroke-linejoin:miter;stroke-miterlimit:4;stroke-dasharray:none;stroke-dashoffset:0;stroke-opacity:1" />
      <path
         inkscape:connector-curvature="0"
         id="rect14040-49-4"
         d="m 182.78965,118.03157 h 81 c 1.108,0 2,0.892 2,2 v 49 c 0,1.10799 -0.892,1.99999 -2,1.99999 h -81 c -1.108,0 -2,-0.892 -2,-1.99999 v -49 c 0,-1.108 0.892,-2 2,-2 z"
         style="opacity:1;vector-effect:none;fill:none;fill-opacity:1;fill-rule:evenodd;stroke:#000000;stroke-width:0.25;stroke-linecap:butt;stroke-linejoin:miter;stroke-miterlimit:4;stroke-dasharray:none;stroke-dashoffset:0;stroke-opacity:1" />
      <path
         inkscape:connector-curvature="0"
         id="rect14040-4-2-9"
         d="m 182.84976,173.77918 h 81.00001 c 1.10801,0 2,0.892 2,2 v 48.99999 c 0,1.10799 -0.89199,2 -2,2 h -81.00001 c -1.108,0 -2,-0.89201 -2,-2 v -48.99999 c 0,-1.108 0.892,-2 2,-2 z"
         style="opacity:1;vector-effect:none;fill:none;fill-opacity:1;fill-rule:evenodd;stroke:#000000;stroke-width:0.25;stroke-linecap:butt;stroke-linejoin:miter;stroke-miterlimit:4;stroke-dasharray:none;stroke-dashoffset:0;stroke-opacity:1" />
      <path
         inkscape:connector-curvature="0"
         id="rect14040-3-0-5"
         d="m 270.2834,118.08633 h 81.00001 c 1.108,0 2,0.892 2,2 v 49 c 0,1.10799 -0.892,1.99999 -2,1.99999 H 270.2834 c -1.108,0 -1.99999,-0.892 -1.99999,-1.99999 v -49 c 0,-1.108 0.89199,-2 1.99999,-2 z"
         style="opacity:1;vector-effect:none;fill:none;fill-opacity:1;fill-rule:evenodd;stroke:#000000;stroke-width:0.25;stroke-linecap:butt;stroke-linejoin:miter;stroke-miterlimit:4;stroke-dasharray:none;stroke-dashoffset:0;stroke-opacity:1" />
      <path
         inkscape:connector-curvature="0"
         id="rect14040-4-1-6-0"
         d="m 270.34351,173.83394 h 81.00002 c 1.108,0 2,0.892 2,2 v 48.99997 c 0,1.10799 -0.892,2 -2,2 h -81.00002 c -1.108,0 -2,-0.89201 -2,-2 v -48.99997 c 0,-1.108 0.892,-2 2,-2 z"
         style="opacity:1;vector-effect:none;fill:none;fill-opacity:1;fill-rule:evenodd;stroke:#000000;stroke-width:0.25;stroke-linecap:butt;stroke-linejoin:miter;stroke-miterlimit:4;stroke-dasharray:none;stroke-dashoffset:0;stroke-opacity:1" />
      <path
         inkscape:connector-curvature="0"
         id="rect14040-48"
         d="m 358.72288,7.1059578 h 81 c 1.108,0 2,0.8919994 2,1.9999988 V 58.105959 c 0,1.108 -0.892,2 -2,2 h -81 c -1.108,0 -2,-0.892 -2,-2 V 9.1059566 c 0,-1.1079994 0.892,-1.9999988 2,-1.9999988 z"
         style="opacity:1;vector-effect:none;fill:none;fill-opacity:1;fill-rule:evenodd;stroke:#000000;stroke-width:0.25;stroke-linecap:butt;stroke-linejoin:miter;stroke-miterlimit:4;stroke-dasharray:none;stroke-dashoffset:0;stroke-opacity:1" />
      <path
         inkscape:connector-curvature="0"
         id="rect14040-4-7"
         d="M 358.78299,62.853579 H 439.783 c 1.108,0 2,0.892 2,2 v 48.999981 c 0,1.10799 -0.892,2 -2,2 h -81.00001 c -1.108,0 -2,-0.89201 -2,-2 V 64.853579 c 0,-1.108 0.892,-2 2,-2 z"
         style="opacity:1;vector-effect:none;fill:none;fill-opacity:1;fill-rule:evenodd;stroke:#000000;stroke-width:0.25;stroke-linecap:butt;stroke-linejoin:miter;stroke-miterlimit:4;stroke-dasharray:none;stroke-dashoffset:0;stroke-opacity:1" />
      <path
         inkscape:connector-curvature="0"
         id="rect14040-3-1"
         d="m 446.21662,7.1607188 h 81.00001 c 1.108,0 2,0.8920004 2,1.9999998 V 58.160719 c 0,1.108 -0.892,2 -2,2 h -81.00001 c -1.108,0 -1.99999,-0.892 -1.99999,-2 V 9.1607186 c 0,-1.1079994 0.89199,-1.9999998 1.99999,-1.9999998 z"
         style="opacity:1;vector-effect:none;fill:none;fill-opacity:1;fill-rule:evenodd;stroke:#000000;stroke-width:0.25;stroke-linecap:butt;stroke-linejoin:miter;stroke-miterlimit:4;stroke-dasharray:none;stroke-dashoffset:0;stroke-opacity:1" />
      <path
         inkscape:connector-curvature="0"
         id="rect14040-4-1-7"
         d="m 446.27674,62.908339 h 81.00001 c 1.108,0 2,0.892 2,2 V 113.9083 c 0,1.10799 -0.892,2 -2,2 h -81.00001 c -1.108,0 -2,-0.89201 -2,-2 V 64.908339 c 0,-1.108 0.892,-2 2,-2 z"
         style="opacity:1;vector-effect:none;fill:none;fill-opacity:1;fill-rule:evenodd;stroke:#000000;stroke-width:0.25;stroke-linecap:butt;stroke-linejoin:miter;stroke-miterlimit:4;stroke-dasharray:none;stroke-dashoffset:0;stroke-opacity:1" />
      <path
         inkscape:connector-curvature="0"
         id="rect14040-49-2"
         d="m 359.15368,118.40953 h 81 c 1.108,0 2,0.892 2,2 v 49 c 0,1.10799 -0.892,1.99999 -2,1.99999 h -81 c -1.108,0 -2,-0.892 -2,-1.99999 v -49 c 0,-1.108 0.892,-2 2,-2 z"
         style="opacity:1;vector-effect:none;fill:none;fill-opacity:1;fill-rule:evenodd;stroke:#000000;stroke-width:0.25;stroke-linecap:butt;stroke-linejoin:miter;stroke-miterlimit:4;stroke-dasharray:none;stroke-dashoffset:0;stroke-opacity:1" />
      <path
         inkscape:connector-curvature="0"
         id="rect14040-4-2-7"
         d="m 359.21379,174.15714 h 81.00001 c 1.108,0 2,0.892 2,2 v 49 c 0,1.10799 -0.892,2 -2,2 h -81.00001 c -1.108,0 -2,-0.89201 -2,-2 v -49 c 0,-1.108 0.892,-2 2,-2 z"
         style="opacity:1;vector-effect:none;fill:none;fill-opacity:1;fill-rule:evenodd;stroke:#000000;stroke-width:0.25;stroke-linecap:butt;stroke-linejoin:miter;stroke-miterlimit:4;stroke-dasharray:none;stroke-dashoffset:0;stroke-opacity:1" />
      <path
         inkscape:connector-curvature="0"
         id="rect14040-3-0-2"
         d="m 446.64743,118.46429 h 81.00001 c 1.108,0 2,0.892 2,2 v 49 c 0,1.10799 -0.892,1.99999 -2,1.99999 h -81.00001 c -1.10801,0 -2,-0.892 -2,-1.99999 v -49 c 0,-1.108 0.89199,-2 2,-2 z"
         style="opacity:1;vector-effect:none;fill:none;fill-opacity:1;fill-rule:evenodd;stroke:#000000;stroke-width:0.25;stroke-linecap:butt;stroke-linejoin:miter;stroke-miterlimit:4;stroke-dasharray:none;stroke-dashoffset:0;stroke-opacity:1" />
      <path
         inkscape:connector-curvature="0"
         id="rect14040-4-1-6-2"
         d="m 446.70754,174.2119 h 81.00002 c 1.108,0 2,0.892 2,2 v 48.99998 c 0,1.10799 -0.892,2 -2,2 h -81.00002 c -1.108,0 -2,-0.89201 -2,-2 V 176.2119 c 0,-1.108 0.892,-2 2,-2 z"
         style="opacity:1;vector-effect:none;fill:none;fill-opacity:1;fill-rule:evenodd;stroke:#000000;stroke-width:0.25;stroke-linecap:butt;stroke-linejoin:miter;stroke-miterlimit:4;stroke-dasharray:none;stroke-dashoffset:0;stroke-opacity:1" />
      <path
         inkscape:connector-curvature="0"
         id="rect14040-36"
         d="m -525.09367,4.7556671 h 81 c 1.108,0 2,0.892 2,2 V 55.755669 c 0,1.107998 -0.892,1.999999 -2,1.999999 h -81 c -1.108,0 -2,-0.892001 -2,-1.999999 V 6.7556671 c 0,-1.108 0.892,-2 2,-2 z"
         style="opacity:1;vector-effect:none;fill:none;fill-opacity:1;fill-rule:evenodd;stroke:#000000;stroke-width:0.25;stroke-linecap:butt;stroke-linejoin:miter;stroke-miterlimit:4;stroke-dasharray:none;stroke-dashoffset:0;stroke-opacity:1" />
      <path
         inkscape:connector-curvature="0"
         id="rect14040-4-75"
         d="m -525.03356,60.503286 h 81.00001 c 1.108,0 2,0.892 2,2.000001 V 111.5033 c 0,1.10799 -0.892,2 -2,2 h -81.00001 c -1.108,0 -2,-0.89201 -2,-2 V 62.503287 c 0,-1.108001 0.892,-2.000001 2,-2.000001 z"
         style="opacity:1;vector-effect:none;fill:none;fill-opacity:1;fill-rule:evenodd;stroke:#000000;stroke-width:0.25;stroke-linecap:butt;stroke-linejoin:miter;stroke-miterlimit:4;stroke-dasharray:none;stroke-dashoffset:0;stroke-opacity:1" />
      <path
         inkscape:connector-curvature="0"
         id="rect14040-3-3"
         d="m -437.59992,4.8104281 h 81 c 1.108,0 2,0.892001 2,2.000001 V 55.81043 c 0,1.107998 -0.892,1.999998 -2,1.999998 h -81 c -1.10801,0 -2,-0.892 -2,-1.999998 V 6.8104291 c 0,-1.108 0.89199,-2.000001 2,-2.000001 z"
         style="opacity:1;vector-effect:none;fill:none;fill-opacity:1;fill-rule:evenodd;stroke:#000000;stroke-width:0.25;stroke-linecap:butt;stroke-linejoin:miter;stroke-miterlimit:4;stroke-dasharray:none;stroke-dashoffset:0;stroke-opacity:1" />
      <path
         inkscape:connector-curvature="0"
         id="rect14040-4-1-5"
         d="m -437.53981,60.558047 h 81.00001 c 1.108,0 2,0.892 2,2.000001 v 48.999992 c 0,1.10799 -0.892,2 -2,2 h -81.00001 c -1.108,0 -2,-0.89201 -2,-2 V 62.558048 c 0,-1.108001 0.892,-2.000001 2,-2.000001 z"
         style="opacity:1;vector-effect:none;fill:none;fill-opacity:1;fill-rule:evenodd;stroke:#000000;stroke-width:0.25;stroke-linecap:butt;stroke-linejoin:miter;stroke-miterlimit:4;stroke-dasharray:none;stroke-dashoffset:0;stroke-opacity:1" />
      <path
         inkscape:connector-curvature="0"
         id="rect14040-49-6"
         d="m -524.66287,116.05927 h 81 c 1.108,0 2,0.892 2,2 v 49 c 0,1.10799 -0.892,1.99999 -2,1.99999 h -81 c -1.108,0 -2,-0.892 -2,-1.99999 v -49 c 0,-1.108 0.892,-2 2,-2 z"
         style="opacity:1;vector-effect:none;fill:none;fill-opacity:1;fill-rule:evenodd;stroke:#000000;stroke-width:0.25;stroke-linecap:butt;stroke-linejoin:miter;stroke-miterlimit:4;stroke-dasharray:none;stroke-dashoffset:0;stroke-opacity:1" />
      <path
         inkscape:connector-curvature="0"
         id="rect14040-4-2-2"
         d="m -524.60276,171.80688 h 81.00001 c 1.108,0 2,0.892 2,2 v 49 c 0,1.10799 -0.892,2 -2,2 h -81.00001 c -1.108,0 -2,-0.89201 -2,-2 v -49 c 0,-1.108 0.892,-2 2,-2 z"
         style="opacity:1;vector-effect:none;fill:none;fill-opacity:1;fill-rule:evenodd;stroke:#000000;stroke-width:0.25;stroke-linecap:butt;stroke-linejoin:miter;stroke-miterlimit:4;stroke-dasharray:none;stroke-dashoffset:0;stroke-opacity:1" />
      <path
         inkscape:connector-curvature="0"
         id="rect14040-3-0-9"
         d="m -437.16912,116.11403 h 81.00001 c 1.108,0 2,0.892 2,2 v 49 c 0,1.10799 -0.892,1.99999 -2,1.99999 h -81.00001 c -1.10801,0 -2,-0.892 -2,-1.99999 v -49 c 0,-1.108 0.89199,-2 2,-2 z"
         style="opacity:1;vector-effect:none;fill:none;fill-opacity:1;fill-rule:evenodd;stroke:#000000;stroke-width:0.25;stroke-linecap:butt;stroke-linejoin:miter;stroke-miterlimit:4;stroke-dasharray:none;stroke-dashoffset:0;stroke-opacity:1" />
      <path
         inkscape:connector-curvature="0"
         id="rect14040-4-1-6-1"
         d="m -437.10901,171.86164 h 81.00002 c 1.108,0 2,0.892 2,2 v 48.99998 c 0,1.10799 -0.892,2 -2,2 h -81.00002 c -1.108,0 -2,-0.89201 -2,-2 v -48.99998 c 0,-1.108 0.892,-2 2,-2 z"
         style="opacity:1;vector-effect:none;fill:none;fill-opacity:1;fill-rule:evenodd;stroke:#000000;stroke-width:0.25;stroke-linecap:butt;stroke-linejoin:miter;stroke-miterlimit:4;stroke-dasharray:none;stroke-dashoffset:0;stroke-opacity:1" />
      <path
         inkscape:connector-curvature="0"
         id="rect14040-8-2"
         d="m -348.51458,5.1473401 h 81 c 1.108,0 2,0.892 2,2 V 56.147342 c 0,1.107996 -0.892,1.999999 -2,1.999999 h -81 c -1.108,0 -2,-0.892003 -2,-1.999999 V 7.1473401 c 0,-1.108 0.892,-2 2,-2 z"
         style="opacity:1;vector-effect:none;fill:none;fill-opacity:1;fill-rule:evenodd;stroke:#000000;stroke-width:0.25;stroke-linecap:butt;stroke-linejoin:miter;stroke-miterlimit:4;stroke-dasharray:none;stroke-dashoffset:0;stroke-opacity:1" />
      <path
         inkscape:connector-curvature="0"
         id="rect14040-4-9-7"
         d="m -348.45446,60.894959 h 81 c 1.108,0 2,0.891998 2,1.999999 v 49.000012 c 0,1.10799 -0.892,2 -2,2 h -81 c -1.108,0 -2,-0.89201 -2,-2 V 62.894958 c 0,-1.108001 0.892,-1.999999 2,-1.999999 z"
         style="opacity:1;vector-effect:none;fill:none;fill-opacity:1;fill-rule:evenodd;stroke:#000000;stroke-width:0.25;stroke-linecap:butt;stroke-linejoin:miter;stroke-miterlimit:4;stroke-dasharray:none;stroke-dashoffset:0;stroke-opacity:1" />
      <path
         inkscape:connector-curvature="0"
         id="rect14040-3-2-0"
         d="m -261.02082,5.2021011 h 80.99999 c 1.10799,0 2.00001,0.892001 2.00001,2.000001 V 56.202103 c 0,1.107998 -0.89202,1.999996 -2.00001,1.999996 h -80.99999 c -1.108,0 -2.00001,-0.891998 -2.00001,-1.999996 V 7.2021021 c 0,-1.108 0.89201,-2.000001 2.00001,-2.000001 z"
         style="opacity:1;vector-effect:none;fill:none;fill-opacity:1;fill-rule:evenodd;stroke:#000000;stroke-width:0.25;stroke-linecap:butt;stroke-linejoin:miter;stroke-miterlimit:4;stroke-dasharray:none;stroke-dashoffset:0;stroke-opacity:1" />
      <path
         inkscape:connector-curvature="0"
         id="rect14040-4-1-66-9"
         d="m -260.96071,60.94972 h 80.99999 c 1.10802,0 2.00001,0.891998 2.00001,2.000002 v 48.999988 c 0,1.10799 -0.89199,2 -2.00001,2 h -80.99999 c -1.10802,0 -2.00001,-0.89201 -2.00001,-2 V 62.949722 c 0,-1.108004 0.89199,-2.000002 2.00001,-2.000002 z"
         style="opacity:1;vector-effect:none;fill:none;fill-opacity:1;fill-rule:evenodd;stroke:#000000;stroke-width:0.25;stroke-linecap:butt;stroke-linejoin:miter;stroke-miterlimit:4;stroke-dasharray:none;stroke-dashoffset:0;stroke-opacity:1" />
      <path
         inkscape:connector-curvature="0"
         id="rect14040-49-4-3"
         d="m -348.08378,116.45094 h 81 c 1.108,0 2,0.892 2,2 v 49 c 0,1.10799 -0.892,1.99999 -2,1.99999 h -81 c -1.108,0 -2,-0.892 -2,-1.99999 v -49 c 0,-1.108 0.892,-2 2,-2 z"
         style="opacity:1;vector-effect:none;fill:none;fill-opacity:1;fill-rule:evenodd;stroke:#000000;stroke-width:0.25;stroke-linecap:butt;stroke-linejoin:miter;stroke-miterlimit:4;stroke-dasharray:none;stroke-dashoffset:0;stroke-opacity:1" />
      <path
         inkscape:connector-curvature="0"
         id="rect14040-4-2-9-6"
         d="m -348.02367,172.19855 h 81.00001 c 1.10801,0 2,0.892 2,2 v 48.99999 c 0,1.10799 -0.89199,2 -2,2 h -81.00001 c -1.108,0 -2,-0.89201 -2,-2 v -48.99999 c 0,-1.108 0.892,-2 2,-2 z"
         style="opacity:1;vector-effect:none;fill:none;fill-opacity:1;fill-rule:evenodd;stroke:#000000;stroke-width:0.25;stroke-linecap:butt;stroke-linejoin:miter;stroke-miterlimit:4;stroke-dasharray:none;stroke-dashoffset:0;stroke-opacity:1" />
      <path
         inkscape:connector-curvature="0"
         id="rect14040-3-0-5-0"
         d="m -260.59003,116.5057 h 81.00002 c 1.108,0 1.99999,0.892 1.99999,2 v 49 c 0,1.10799 -0.89199,1.99999 -1.99999,1.99999 h -81.00002 c -1.10799,0 -1.99998,-0.892 -1.99998,-1.99999 v -49 c 0,-1.108 0.89199,-2 1.99998,-2 z"
         style="opacity:1;vector-effect:none;fill:none;fill-opacity:1;fill-rule:evenodd;stroke:#000000;stroke-width:0.25;stroke-linecap:butt;stroke-linejoin:miter;stroke-miterlimit:4;stroke-dasharray:none;stroke-dashoffset:0;stroke-opacity:1" />
      <path
         inkscape:connector-curvature="0"
         id="rect14040-4-1-6-0-6"
         d="m -260.52991,172.25331 h 81.00001 c 1.108,0 1.99999,0.892 1.99999,2 v 48.99997 c 0,1.10799 -0.89199,2 -1.99999,2 h -81.00001 c -1.108,0 -2.00002,-0.89201 -2.00002,-2 v -48.99997 c 0,-1.108 0.89202,-2 2.00002,-2 z"
         style="opacity:1;vector-effect:none;fill:none;fill-opacity:1;fill-rule:evenodd;stroke:#000000;stroke-width:0.25;stroke-linecap:butt;stroke-linejoin:miter;stroke-miterlimit:4;stroke-dasharray:none;stroke-dashoffset:0;stroke-opacity:1" />
      <path
         inkscape:connector-curvature="0"
         id="rect14040-48-2"
         d="m -172.15054,5.5253161 h 81.000002 c 1.10799,0 1.99998,0.891999 1.99998,1.9999987 V 56.525318 c 0,1.108001 -0.89199,2.000001 -1.99998,2.000001 h -81.000002 c -1.10802,0 -2.00001,-0.892 -2.00001,-2.000001 V 7.5253148 c 0,-1.1079997 0.89199,-1.9999987 2.00001,-1.9999987 z"
         style="opacity:1;vector-effect:none;fill:none;fill-opacity:1;fill-rule:evenodd;stroke:#000000;stroke-width:0.25;stroke-linecap:butt;stroke-linejoin:miter;stroke-miterlimit:4;stroke-dasharray:none;stroke-dashoffset:0;stroke-opacity:1" />
      <path
         inkscape:connector-curvature="0"
         id="rect14040-4-7-6"
         d="m -172.09045,61.272938 h 81.000022 c 1.10799,0 2.00001,0.892 2.00001,2.000001 v 48.999991 c 0,1.10799 -0.89202,2 -2.00001,2 h -81.000022 c -1.10799,0 -1.99998,-0.89201 -1.99998,-2 V 63.272939 c 0,-1.108001 0.89199,-2.000001 1.99998,-2.000001 z"
         style="opacity:1;vector-effect:none;fill:none;fill-opacity:1;fill-rule:evenodd;stroke:#000000;stroke-width:0.25;stroke-linecap:butt;stroke-linejoin:miter;stroke-miterlimit:4;stroke-dasharray:none;stroke-dashoffset:0;stroke-opacity:1" />
      <path
         inkscape:connector-curvature="0"
         id="rect14040-3-1-1"
         d="m -84.656798,5.5800771 h 80.9999988 c 1.10799,0 2.0000101,0.892 2.0000101,1.9999987 V 56.580079 c 0,1.107998 -0.8920201,1.999998 -2.0000101,1.999998 H -84.656798 c -1.10802,0 -2.00001,-0.892 -2.00001,-1.999998 V 7.5800758 c 0,-1.1079987 0.89199,-1.9999987 2.00001,-1.9999987 z"
         style="opacity:1;vector-effect:none;fill:none;fill-opacity:1;fill-rule:evenodd;stroke:#000000;stroke-width:0.25;stroke-linecap:butt;stroke-linejoin:miter;stroke-miterlimit:4;stroke-dasharray:none;stroke-dashoffset:0;stroke-opacity:1" />
      <path
         inkscape:connector-curvature="0"
         id="rect14040-4-1-7-8"
         d="m -84.596678,61.327699 h 81.0000188 c 1.10799,0 1.9999798,0.892 1.9999798,1.999998 v 48.999973 c 0,1.10799 -0.8919898,2 -1.9999798,2 H -84.596678 c -1.108,0 -2.00001,-0.89201 -2.00001,-2 V 63.327697 c 0,-1.107998 0.89201,-1.999998 2.00001,-1.999998 z"
         style="opacity:1;vector-effect:none;fill:none;fill-opacity:1;fill-rule:evenodd;stroke:#000000;stroke-width:0.25;stroke-linecap:butt;stroke-linejoin:miter;stroke-miterlimit:4;stroke-dasharray:none;stroke-dashoffset:0;stroke-opacity:1" />
      <path
         inkscape:connector-curvature="0"
         id="rect14040-49-2-7"
         d="m -171.71974,116.8289 h 80.999992 c 1.108,0 2.00001,0.892 2.00001,2 v 49 c 0,1.10799 -0.89201,1.99999 -2.00001,1.99999 h -80.999992 c -1.108,0 -2.00001,-0.892 -2.00001,-1.99999 v -49 c 0,-1.108 0.89201,-2 2.00001,-2 z"
         style="opacity:1;vector-effect:none;fill:none;fill-opacity:1;fill-rule:evenodd;stroke:#000000;stroke-width:0.25;stroke-linecap:butt;stroke-linejoin:miter;stroke-miterlimit:4;stroke-dasharray:none;stroke-dashoffset:0;stroke-opacity:1" />
      <path
         inkscape:connector-curvature="0"
         id="rect14040-4-2-7-9"
         d="m -171.65963,172.57651 h 80.999992 c 1.108,0 2.00002,0.892 2.00002,2 v 49 c 0,1.10799 -0.89202,2 -2.00002,2 h -80.999992 c -1.10802,0 -2.00001,-0.89201 -2.00001,-2 v -49 c 0,-1.108 0.89199,-2 2.00001,-2 z"
         style="opacity:1;vector-effect:none;fill:none;fill-opacity:1;fill-rule:evenodd;stroke:#000000;stroke-width:0.25;stroke-linecap:butt;stroke-linejoin:miter;stroke-miterlimit:4;stroke-dasharray:none;stroke-dashoffset:0;stroke-opacity:1" />
      <path
         inkscape:connector-curvature="0"
         id="rect14040-3-0-2-2"
         d="m -84.225998,116.88366 h 81.0000188 c 1.10799,0 1.9999798,0.892 1.9999798,2 v 49 c 0,1.10799 -0.8919898,1.99999 -1.9999798,1.99999 H -84.225998 c -1.108,0 -1.99999,-0.892 -1.99999,-1.99999 v -49 c 0,-1.108 0.89199,-2 1.99999,-2 z"
         style="opacity:1;vector-effect:none;fill:none;fill-opacity:1;fill-rule:evenodd;stroke:#000000;stroke-width:0.25;stroke-linecap:butt;stroke-linejoin:miter;stroke-miterlimit:4;stroke-dasharray:none;stroke-dashoffset:0;stroke-opacity:1" />
      <path
         inkscape:connector-curvature="0"
         id="rect14040-4-1-6-2-0"
         d="m -84.165888,172.63127 h 81.0000188 c 1.1080001,0 2.0000098,0.892 2.0000098,2 v 48.99998 c 0,1.10799 -0.8920097,2 -2.0000098,2 H -84.165888 c -1.10799,0 -2.00001,-0.89201 -2.00001,-2 v -48.99998 c 0,-1.108 0.89202,-2 2.00001,-2 z"
         style="opacity:1;vector-effect:none;fill:none;fill-opacity:1;fill-rule:evenodd;stroke:#000000;stroke-width:0.25;stroke-linecap:butt;stroke-linejoin:miter;stroke-miterlimit:4;stroke-dasharray:none;stroke-dashoffset:0;stroke-opacity:1" />
    </g>
  </g>
</svg>
