<?xml version="1.0" encoding="utf-8"?>
<!DOCTYPE svg PUBLIC "-//W3C//DTD SVG 1.1//EN" "http://www.w3.org/Graphics/SVG/1.1/DTD/svg11.dtd">
<!-- exported from Silhouette Studio® Business Edition V4.3.356ssbe -->
<svg version="1.1" xmlns="http://www.w3.org/2000/svg" xmlns:xlink="http://www.w3.org/1999/xlink" width="304.8mm" height="304.8mm" viewBox="0 0 304.8 304.8">
<defs/>
<path d="M 143.6201 98.43446 L 187.6593 98.42773 L 353.5954 98.38216 L 354.6369 97.94619 C 356.9535 96.97646 358.6855 95.31656 359.7366 93.0587 C 360.1041 92.26957 360.4447 91.37642 360.4934 91.07391 C 360.5423 90.7713 360.7205 90.28665 360.8895 89.99683 C 361.1736 89.50948 361.2384 89.47786 361.7528 89.57459 C 362.6948 89.75165 362.7072 89.81012 362.6519 93.74568 L 362.6024 97.282 L 361.9877 98.61798 C 361.2388 100.2457 360.2269 101.3667 358.2527 102.7553 C 357.1738 103.514 353.8774 105.1546 352.9945 105.372 C 352.5812 105.4737 352.1418 105.6511 352.018 105.7663 C 351.894 105.8814 351.4884 106.0579 351.1165 106.1585 C 350.7447 106.2591 349.9302 106.5076 349.3069 106.7105 C 348.6835 106.9134 347.7373 107.1588 347.2036 107.2558 C 346.6703 107.3527 345.9296 107.5637 345.5578 107.7247 C 345.1858 107.8856 344.3408 108.1052 343.6798 108.2126 C 343.0188 108.3199 342.2883 108.5075 342.0566 108.6293 C 341.8248 108.7511 340.7582 108.9855 339.6861 109.1502 C 338.6142 109.3146 337.683 109.4844 337.6167 109.5273 C 337.1857 109.8058 334.8265 109.9298 329.7325 109.9417 C 324.6413 109.9535 323.8555 109.9235 323.5371 109.7052 L 323.1725 109.4553 L 323.1725 106.1113 C 323.1725 103.7199 323.1212 102.7134 322.9923 102.5786 C 322.7304 102.3046 286.0555 102.3046 285.7937 102.5786 C 285.6647 102.7133 285.6134 103.7153 285.6134 106.0905 C 285.6134 109.1077 285.5882 109.4378 285.3393 109.6734 C 285.0851 109.914 277.9271 109.9359 187.1518 109.9727 L 143.6281 109.9828" fill="none" fill-opacity="1" stroke="#000000" stroke-opacity="1" stroke-width="0.3527778" stroke-linecap="round" stroke-linejoin="round"/>
<path d="M 146.5532 98.5667 L 19.28033 98.53172 L 18.23889 98.09574 C 15.92236 97.12603 14.19031 95.46613 13.13916 93.20827 C 12.77167 92.41914 12.43109 91.52597 12.38232 91.22346 C 12.33347 90.92085 12.1553 90.4362 11.9863 90.14639 C 11.70221 89.65903 11.63742 89.62741 11.12292 89.72415 C 10.181 89.9012 10.16852 89.95967 10.22382 93.89523 L 10.27341 97.43155 L 10.88812 98.76754 C 11.63702 100.3952 12.64886 101.5163 14.62308 102.9048 C 15.70197 103.6636 18.99835 105.3042 19.88135 105.5216 C 20.29456 105.6233 20.73395 105.8007 20.85785 105.9158 C 20.98184 106.031 21.38745 106.2075 21.75925 106.3081 C 22.13113 106.4087 22.9455 106.6572 23.56879 106.86 C 24.1922 107.063 25.13855 107.3084 25.67212 107.4053 C 26.20551 107.5023 26.94623 107.7133 27.31802 107.8743 C 27.69 108.0352 28.53503 108.2548 29.19598 108.3622 C 29.85703 108.4696 30.58752 108.6571 30.81918 108.7789 C 31.05103 108.9007 32.11765 109.1351 33.18967 109.2998 C 34.26157 109.4642 35.19278 109.634 35.25906 109.6768 C 35.69006 109.9554 38.04926 110.0794 43.14334 110.0913 C 48.23453 110.103 49.02029 110.0731 49.33871 109.8548 L 49.70328 109.6049 L 49.70328 106.2609 C 49.70328 103.8695 49.75461 102.863 49.88348 102.7282 C 50.14536 102.4542 86.82033 102.4542 87.08214 102.7282 C 87.21106 102.8629 87.26242 103.8648 87.26242 106.24 C 87.26242 109.2573 87.28764 109.5874 87.53651 109.823 C 87.72716 110.0034 91.80118 110.0609 132.1221 110.0938 L 146.5635 110.1015" fill="none" fill-opacity="1" stroke="#000000" stroke-opacity="1" stroke-width="0.3527778" stroke-linecap="round" stroke-linejoin="round"/>
</svg>