<?xml version="1.0" encoding="UTF-8" standalone="no"?>
<!-- exported from Silhouette Studio Business Edition V4.1.206ssbe -->

<svg
   xmlns:dc="http://purl.org/dc/elements/1.1/"
   xmlns:cc="http://creativecommons.org/ns#"
   xmlns:rdf="http://www.w3.org/1999/02/22-rdf-syntax-ns#"
   xmlns:svg="http://www.w3.org/2000/svg"
   xmlns="http://www.w3.org/2000/svg"
   xmlns:sodipodi="http://sodipodi.sourceforge.net/DTD/sodipodi-0.dtd"
   xmlns:inkscape="http://www.inkscape.org/namespaces/inkscape"
   version="1.1"
   width="1100mm"
   height="600mm"
   viewBox="0 0 1100 600.00002"
   id="svg6"
   sodipodi:docname="E7440-TP.svg"
   inkscape:version="0.92.3 (2405546, 2018-03-11)">
  <metadata
     id="metadata10">
    <rdf:RDF>
      <cc:Work
         rdf:about="">
        <dc:format>image/svg+xml</dc:format>
        <dc:type
           rdf:resource="http://purl.org/dc/dcmitype/StillImage" />
        <dc:title></dc:title>
      </cc:Work>
    </rdf:RDF>
  </metadata>
  <sodipodi:namedview
     pagecolor="#ffffff"
     bordercolor="#666666"
     borderopacity="1"
     objecttolerance="10"
     gridtolerance="10"
     guidetolerance="10"
     inkscape:pageopacity="0"
     inkscape:pageshadow="2"
     inkscape:window-width="1664"
     inkscape:window-height="887"
     id="namedview8"
     showgrid="false"
     inkscape:zoom="0.28971737"
     inkscape:cx="2431.9498"
     inkscape:cy="1779.2189"
     inkscape:window-x="0"
     inkscape:window-y="28"
     inkscape:window-maximized="1"
     inkscape:current-layer="svg6" />
  <defs
     id="defs2" />
  <path
     d="m 247.58281,92.655427 c 0,0.7323 0.9223,1.3272 2.05771,1.3272 h 41.88459 c 1.13541,0 2.05771,-0.5949 2.05771,-1.3272 V 5.3099473 c 0,-0.7323 -0.9223,-1.32714 -2.05771,-1.32714 h -41.88459 c -1.13541,0 -2.05771,0.59484 -2.05771,1.32714 z"
     id="path4"
     inkscape:connector-curvature="0"
     style="fill:none;fill-opacity:1;stroke:#000000;stroke-width:0.42333329;stroke-linecap:round;stroke-linejoin:round;stroke-opacity:1" />
  <path
     inkscape:connector-curvature="0"
     style="fill:none;fill-opacity:1;stroke:#000000;stroke-width:0.42333329;stroke-linecap:round;stroke-linejoin:round;stroke-opacity:1"
     d="m 198.67297,92.606777 c 0,0.7323 0.9223,1.3272 2.0577,1.3272 h 41.8846 c 1.13541,0 2.05771,-0.5949 2.05771,-1.3272 V 5.2613073 c 0,-0.7323 -0.9223,-1.32714 -2.05771,-1.32714 h -41.8846 c -1.1354,0 -2.0577,0.59484 -2.0577,1.32714 z"
     id="path4-6" />
  <path
     d="m 149.96627,91.872207 c 0,0.7323 0.9223,1.3272 2.05771,1.3272 h 41.88459 c 1.13541,0 2.05771,-0.5949 2.05771,-1.3272 V 4.5267273 c 0,-0.7323 -0.9223,-1.32714 -2.05771,-1.32714 h -41.88459 c -1.13541,0 -2.05771,0.59484 -2.05771,1.32714 z"
     id="path4-7"
     inkscape:connector-curvature="0"
     style="fill:none;fill-opacity:1;stroke:#000000;stroke-width:0.42333329;stroke-linecap:round;stroke-linejoin:round;stroke-opacity:1" />
  <path
     inkscape:connector-curvature="0"
     style="fill:none;fill-opacity:1;stroke:#000000;stroke-width:0.42333329;stroke-linecap:round;stroke-linejoin:round;stroke-opacity:1"
     d="m 101.29541,91.366927 c 0,0.7323 0.9223,1.3272 2.0577,1.3272 h 41.8846 c 1.13541,0 2.05771,-0.5949 2.05771,-1.3272 V 4.0214573 c 0,-0.7323 -0.9223,-1.32714 -2.05771,-1.32714 h -41.8846 c -1.1354,0 -2.0577,0.59484 -2.0577,1.32714 z"
     id="path4-6-5" />
  <path
     d="m 51.792291,91.415577 c 0,0.7323 0.9223,1.3272 2.05771,1.3272 h 41.88459 c 1.13541,0 2.057713,-0.5949 2.057713,-1.3272 V 4.0700973 c 0,-0.7323 -0.922303,-1.32714 -2.057713,-1.32714 h -41.88459 c -1.13541,0 -2.05771,0.59484 -2.05771,1.32714 z"
     id="path4-3"
     inkscape:connector-curvature="0"
     style="fill:none;fill-opacity:1;stroke:#000000;stroke-width:0.42333329;stroke-linecap:round;stroke-linejoin:round;stroke-opacity:1" />
  <path
     inkscape:connector-curvature="0"
     style="fill:none;fill-opacity:1;stroke:#000000;stroke-width:0.42333329;stroke-linecap:round;stroke-linejoin:round;stroke-opacity:1"
     d="m 3.5780468,90.91031 c 0,0.732297 0.9223,1.327197 2.0577,1.327197 H 47.520348 c 1.135409,0 2.05771,-0.5949 2.05771,-1.327197 V 3.5648373 c 0,-0.7323 -0.922301,-1.32714 -2.05771,-1.32714 H 5.6357468 c -1.1354,0 -2.0577,0.59484 -2.0577,1.32714 z"
     id="path4-6-56" />
  <path
     d="m 247.06777,186.09988 c 0,0.7323 0.9223,1.3272 2.05771,1.3272 h 41.88459 c 1.13541,0 2.05772,-0.5949 2.05772,-1.3272 V 98.754344 c 0,-0.7323 -0.92231,-1.32714 -2.05772,-1.32714 h -41.88459 c -1.13541,0 -2.05771,0.59484 -2.05771,1.32714 z"
     id="path4-2"
     inkscape:connector-curvature="0"
     style="fill:none;fill-opacity:1;stroke:#000000;stroke-width:0.42333329;stroke-linecap:round;stroke-linejoin:round;stroke-opacity:1" />
  <path
     inkscape:connector-curvature="0"
     style="fill:none;fill-opacity:1;stroke:#000000;stroke-width:0.42333329;stroke-linecap:round;stroke-linejoin:round;stroke-opacity:1"
     d="m 198.15793,186.05123 c 0,0.7323 0.9223,1.3272 2.0577,1.3272 h 41.8846 c 1.13541,0 2.05771,-0.5949 2.05771,-1.3272 V 98.705704 c 0,-0.7323 -0.9223,-1.32714 -2.05771,-1.32714 h -41.8846 c -1.1354,0 -2.0577,0.59484 -2.0577,1.32714 z"
     id="path4-6-9" />
  <path
     d="m 149.45123,185.31665 c 0,0.7323 0.9223,1.3272 2.05771,1.3272 h 41.88459 c 1.13541,0 2.05771,-0.5949 2.05771,-1.3272 V 97.971124 c 0,-0.7323 -0.9223,-1.32714 -2.05771,-1.32714 h -41.88459 c -1.13541,0 -2.05771,0.59484 -2.05771,1.32714 z"
     id="path4-7-1"
     inkscape:connector-curvature="0"
     style="fill:none;fill-opacity:1;stroke:#000000;stroke-width:0.42333329;stroke-linecap:round;stroke-linejoin:round;stroke-opacity:1" />
  <path
     inkscape:connector-curvature="0"
     style="fill:none;fill-opacity:1;stroke:#000000;stroke-width:0.42333329;stroke-linecap:round;stroke-linejoin:round;stroke-opacity:1"
     d="m 100.78037,184.81138 c 0,0.7323 0.9223,1.3272 2.0577,1.3272 h 41.8846 c 1.13541,0 2.05771,-0.5949 2.05771,-1.3272 V 97.465854 c 0,-0.7323 -0.9223,-1.327137 -2.05771,-1.327137 h -41.8846 c -1.1354,0 -2.0577,0.594837 -2.0577,1.327137 z"
     id="path4-6-5-2" />
  <path
     d="m 51.277247,184.86003 c 0,0.7323 0.9223,1.3272 2.05771,1.3272 h 41.88459 c 1.13542,0 2.05772,-0.5949 2.05772,-1.3272 V 97.514494 c 0,-0.7323 -0.9223,-1.327137 -2.05772,-1.327137 h -41.88459 c -1.13541,0 -2.05771,0.594837 -2.05771,1.327137 z"
     id="path4-3-7"
     inkscape:connector-curvature="0"
     style="fill:none;fill-opacity:1;stroke:#000000;stroke-width:0.42333329;stroke-linecap:round;stroke-linejoin:round;stroke-opacity:1" />
  <path
     inkscape:connector-curvature="0"
     style="fill:none;fill-opacity:1;stroke:#000000;stroke-width:0.42333329;stroke-linecap:round;stroke-linejoin:round;stroke-opacity:1"
     d="m 3.0630027,184.35476 c 0,0.7323 0.9223,1.3272 2.0577,1.3272 H 47.005303 c 1.13541,0 2.05771,-0.5949 2.05771,-1.3272 V 97.009234 c 0,-0.732297 -0.9223,-1.327137 -2.05771,-1.327137 H 5.1207027 c -1.1354,0 -2.0577,0.59484 -2.0577,1.327137 z"
     id="path4-6-56-0" />
  <path
     d="m 296.86391,92.819187 c 0,0.7323 0.9223,1.3272 2.05771,1.3272 h 41.88459 c 1.13541,0 2.05771,-0.5949 2.05771,-1.3272 V 5.4737173 c 0,-0.7323 -0.9223,-1.32714 -2.05771,-1.32714 h -41.88459 c -1.13541,0 -2.05771,0.59484 -2.05771,1.32714 z"
     id="path4-60"
     inkscape:connector-curvature="0"
     style="fill:none;fill-opacity:1;stroke:#000000;stroke-width:0.42333329;stroke-linecap:round;stroke-linejoin:round;stroke-opacity:1" />
  <path
     d="m 296.34887,186.26365 c 0,0.7323 0.9223,1.3272 2.05771,1.3272 h 41.88459 c 1.13541,0 2.05772,-0.5949 2.05772,-1.3272 V 98.918114 c 0,-0.7323 -0.92231,-1.32714 -2.05772,-1.32714 h -41.88459 c -1.13541,0 -2.05771,0.59484 -2.05771,1.32714 z"
     id="path4-2-6"
     inkscape:connector-curvature="0"
     style="fill:none;fill-opacity:1;stroke:#000000;stroke-width:0.42333329;stroke-linecap:round;stroke-linejoin:round;stroke-opacity:1" />
  <path
     d="m 246.96943,279.20117 c 0,0.7323 0.9223,1.3272 2.05771,1.3272 h 41.8846 c 1.1354,0 2.05772,-0.5949 2.05772,-1.3272 v -87.34553 c 0,-0.7323 -0.92232,-1.32714 -2.05772,-1.32714 h -41.8846 c -1.13541,0 -2.05771,0.59484 -2.05771,1.32714 z"
     id="path4-2-2"
     inkscape:connector-curvature="0"
     style="fill:none;fill-opacity:1;stroke:#000000;stroke-width:0.42333329;stroke-linecap:round;stroke-linejoin:round;stroke-opacity:1" />
  <path
     inkscape:connector-curvature="0"
     style="fill:none;fill-opacity:1;stroke:#000000;stroke-width:0.42333329;stroke-linecap:round;stroke-linejoin:round;stroke-opacity:1"
     d="m 198.05959,279.15253 c 0,0.73229 0.9223,1.32719 2.0577,1.32719 h 41.8846 c 1.13541,0 2.05771,-0.5949 2.05771,-1.32719 V 191.807 c 0,-0.7323 -0.9223,-1.32714 -2.05771,-1.32714 h -41.8846 c -1.1354,0 -2.0577,0.59484 -2.0577,1.32714 z"
     id="path4-6-9-6" />
  <path
     d="m 149.35289,278.41794 c 0,0.7323 0.9223,1.3272 2.05771,1.3272 h 41.88459 c 1.13541,0 2.05771,-0.5949 2.05771,-1.3272 v -87.34552 c 0,-0.7323 -0.9223,-1.32714 -2.05771,-1.32714 H 151.4106 c -1.13541,0 -2.05771,0.59484 -2.05771,1.32714 z"
     id="path4-7-1-1"
     inkscape:connector-curvature="0"
     style="fill:none;fill-opacity:1;stroke:#000000;stroke-width:0.42333329;stroke-linecap:round;stroke-linejoin:round;stroke-opacity:1" />
  <path
     inkscape:connector-curvature="0"
     style="fill:none;fill-opacity:1;stroke:#000000;stroke-width:0.42333329;stroke-linecap:round;stroke-linejoin:round;stroke-opacity:1"
     d="m 100.68201,277.91267 c 0,0.73231 0.9223,1.3272 2.0577,1.3272 h 41.88462 c 1.13541,0 2.05771,-0.59489 2.05771,-1.3272 v -87.34552 c 0,-0.7323 -0.9223,-1.32714 -2.05771,-1.32714 h -41.88462 c -1.1354,0 -2.0577,0.59484 -2.0577,1.32714 z"
     id="path4-6-5-2-8" />
  <path
     d="m 51.178878,277.96132 c 0,0.7323 0.9223,1.3272 2.05771,1.3272 h 41.88459 c 1.13542,0 2.057716,-0.5949 2.057716,-1.3272 v -87.34553 c 0,-0.7323 -0.922296,-1.32714 -2.057716,-1.32714 h -41.88459 c -1.13541,0 -2.05771,0.59484 -2.05771,1.32714 z"
     id="path4-3-7-7"
     inkscape:connector-curvature="0"
     style="fill:none;fill-opacity:1;stroke:#000000;stroke-width:0.42333329;stroke-linecap:round;stroke-linejoin:round;stroke-opacity:1" />
  <path
     inkscape:connector-curvature="0"
     style="fill:none;fill-opacity:1;stroke:#000000;stroke-width:0.42333329;stroke-linecap:round;stroke-linejoin:round;stroke-opacity:1"
     d="m 2.9646325,277.45605 c 0,0.7323 0.9223,1.3272 2.0577,1.3272 H 46.906934 c 1.135412,0 2.05771,-0.5949 2.05771,-1.3272 v -87.34552 c 0,-0.7323 -0.922298,-1.32714 -2.05771,-1.32714 H 5.0223325 c -1.1354,0 -2.0577,0.59484 -2.0577,1.32714 z"
     id="path4-6-56-0-9" />
  <path
     d="m 296.25053,279.36494 c 0,0.7323 0.92231,1.3272 2.05771,1.3272 h 41.88458 c 1.13541,0 2.05772,-0.5949 2.05772,-1.3272 v -87.34553 c 0,-0.7323 -0.92231,-1.32714 -2.05772,-1.32714 h -41.88458 c -1.1354,0 -2.05771,0.59484 -2.05771,1.32714 z"
     id="path4-2-6-2"
     inkscape:connector-curvature="0"
     style="fill:none;fill-opacity:1;stroke:#000000;stroke-width:0.42333329;stroke-linecap:round;stroke-linejoin:round;stroke-opacity:1" />
  <path
     d="m 246.86105,371.51209 c 0,0.7323 0.9223,1.3272 2.05771,1.3272 h 41.88461 c 1.1354,0 2.05772,-0.5949 2.05772,-1.3272 v -87.34553 c 0,-0.7323 -0.92232,-1.32714 -2.05772,-1.32714 h -41.88461 c -1.13541,0 -2.05771,0.59484 -2.05771,1.32714 z"
     id="path4-2-2-0"
     inkscape:connector-curvature="0"
     style="fill:none;fill-opacity:1;stroke:#000000;stroke-width:0.42333329;stroke-linecap:round;stroke-linejoin:round;stroke-opacity:1" />
  <path
     inkscape:connector-curvature="0"
     style="fill:none;fill-opacity:1;stroke:#000000;stroke-width:0.42333329;stroke-linecap:round;stroke-linejoin:round;stroke-opacity:1"
     d="m 197.95121,371.46345 c 0,0.73229 0.92231,1.32719 2.0577,1.32719 h 41.8846 c 1.13541,0 2.05772,-0.5949 2.05772,-1.32719 v -87.34553 c 0,-0.7323 -0.92231,-1.32714 -2.05772,-1.32714 h -41.8846 c -1.13539,0 -2.0577,0.59484 -2.0577,1.32714 z"
     id="path4-6-9-6-2" />
  <path
     d="m 149.24451,370.72886 c 0,0.7323 0.9223,1.3272 2.05771,1.3272 h 41.88459 c 1.13541,0 2.05771,-0.5949 2.05771,-1.3272 v -87.34552 c 0,-0.7323 -0.9223,-1.32714 -2.05771,-1.32714 h -41.88459 c -1.13541,0 -2.05771,0.59484 -2.05771,1.32714 z"
     id="path4-7-1-1-3"
     inkscape:connector-curvature="0"
     style="fill:none;fill-opacity:1;stroke:#000000;stroke-width:0.42333329;stroke-linecap:round;stroke-linejoin:round;stroke-opacity:1" />
  <path
     inkscape:connector-curvature="0"
     style="fill:none;fill-opacity:1;stroke:#000000;stroke-width:0.42333329;stroke-linecap:round;stroke-linejoin:round;stroke-opacity:1"
     d="m 100.57364,370.22359 c 0,0.73231 0.92229,1.3272 2.0577,1.3272 h 41.88461 c 1.13541,0 2.05771,-0.59489 2.05771,-1.3272 v -87.34552 c 0,-0.7323 -0.9223,-1.32714 -2.05771,-1.32714 h -41.88461 c -1.13541,0 -2.0577,0.59484 -2.0577,1.32714 z"
     id="path4-6-5-2-8-7" />
  <path
     d="m 51.070542,370.27224 c 0,0.7323 0.9223,1.3272 2.05771,1.3272 h 41.884566 c 1.13542,0 2.05772,-0.5949 2.05772,-1.3272 v -87.34553 c 0,-0.7323 -0.9223,-1.32714 -2.05772,-1.32714 H 53.128252 c -1.13541,0 -2.05771,0.59484 -2.05771,1.32714 z"
     id="path4-3-7-7-5"
     inkscape:connector-curvature="0"
     style="fill:none;fill-opacity:1;stroke:#000000;stroke-width:0.42333329;stroke-linecap:round;stroke-linejoin:round;stroke-opacity:1" />
  <path
     inkscape:connector-curvature="0"
     style="fill:none;fill-opacity:1;stroke:#000000;stroke-width:0.42333329;stroke-linecap:round;stroke-linejoin:round;stroke-opacity:1"
     d="m 2.8563306,369.76697 c 0,0.7323 0.9223,1.3272 2.0577,1.3272 H 46.798605 c 1.13541,0 2.05771,-0.5949 2.05771,-1.3272 v -87.34552 c 0,-0.7323 -0.9223,-1.32714 -2.05771,-1.32714 H 4.9140306 c -1.1354,0 -2.0577,0.59484 -2.0577,1.32714 z"
     id="path4-6-56-0-9-9" />
  <path
     d="m 296.14216,371.67586 c 0,0.7323 0.92231,1.3272 2.05772,1.3272 h 41.88457 c 1.13541,0 2.05772,-0.5949 2.05772,-1.3272 v -87.34553 c 0,-0.7323 -0.92231,-1.32714 -2.05772,-1.32714 h -41.88457 c -1.13541,0 -2.05772,0.59484 -2.05772,1.32714 z"
     id="path4-2-6-2-2"
     inkscape:connector-curvature="0"
     style="fill:none;fill-opacity:1;stroke:#000000;stroke-width:0.42333329;stroke-linecap:round;stroke-linejoin:round;stroke-opacity:1" />
  <path
     d="m 589.98144,94.074183 c 0,0.7323 0.9223,1.3272 2.05771,1.3272 h 41.88458 c 1.13541,0 2.05772,-0.5949 2.05772,-1.3272 V 6.7287034 c 0,-0.7323 -0.92231,-1.32714 -2.05772,-1.32714 h -41.88458 c -1.13541,0 -2.05771,0.59484 -2.05771,1.32714 z"
     id="path4-36"
     inkscape:connector-curvature="0"
     style="fill:none;fill-opacity:1;stroke:#000000;stroke-width:0.42333329;stroke-linecap:round;stroke-linejoin:round;stroke-opacity:1" />
  <path
     inkscape:connector-curvature="0"
     style="fill:none;fill-opacity:1;stroke:#000000;stroke-width:0.42333329;stroke-linecap:round;stroke-linejoin:round;stroke-opacity:1"
     d="m 541.0716,94.025533 c 0,0.7323 0.9223,1.3272 2.0577,1.3272 h 41.8846 c 1.13541,0 2.05771,-0.5949 2.05771,-1.3272 V 6.6800634 c 0,-0.7323 -0.9223,-1.32714 -2.05771,-1.32714 h -41.8846 c -1.1354,0 -2.0577,0.59484 -2.0577,1.32714 z"
     id="path4-6-7" />
  <path
     d="m 492.3649,93.290963 c 0,0.7323 0.9223,1.3272 2.05771,1.3272 h 41.88459 c 1.13541,0 2.05771,-0.5949 2.05771,-1.3272 V 5.9454834 c 0,-0.7323 -0.9223,-1.32714 -2.05771,-1.32714 h -41.88459 c -1.13541,0 -2.05771,0.59484 -2.05771,1.32714 z"
     id="path4-7-5"
     inkscape:connector-curvature="0"
     style="fill:none;fill-opacity:1;stroke:#000000;stroke-width:0.42333329;stroke-linecap:round;stroke-linejoin:round;stroke-opacity:1" />
  <path
     inkscape:connector-curvature="0"
     style="fill:none;fill-opacity:1;stroke:#000000;stroke-width:0.42333329;stroke-linecap:round;stroke-linejoin:round;stroke-opacity:1"
     d="m 443.69403,92.785683 c 0,0.7323 0.9223,1.3272 2.05771,1.3272 h 41.8846 c 1.13541,0 2.05771,-0.5949 2.05771,-1.3272 V 5.4402134 c 0,-0.7323 -0.9223,-1.32714 -2.05771,-1.32714 h -41.8846 c -1.13541,0 -2.05771,0.59484 -2.05771,1.32714 z"
     id="path4-6-5-3" />
  <path
     d="m 394.19091,92.834333 c 0,0.7323 0.9223,1.3272 2.05771,1.3272 h 41.88459 c 1.13541,0 2.05772,-0.5949 2.05772,-1.3272 V 5.4888534 c 0,-0.7323 -0.92231,-1.32714 -2.05772,-1.32714 h -41.88459 c -1.13541,0 -2.05771,0.59484 -2.05771,1.32714 z"
     id="path4-3-5"
     inkscape:connector-curvature="0"
     style="fill:none;fill-opacity:1;stroke:#000000;stroke-width:0.42333329;stroke-linecap:round;stroke-linejoin:round;stroke-opacity:1" />
  <path
     inkscape:connector-curvature="0"
     style="fill:none;fill-opacity:1;stroke:#000000;stroke-width:0.42333329;stroke-linecap:round;stroke-linejoin:round;stroke-opacity:1"
     d="m 345.97667,92.329073 c 0,0.73229 0.9223,1.32719 2.0577,1.32719 h 41.8846 c 1.13541,0 2.05771,-0.5949 2.05771,-1.32719 V 4.9835934 c 0,-0.7323 -0.9223,-1.32714 -2.05771,-1.32714 h -41.8846 c -1.1354,0 -2.0577,0.59484 -2.0577,1.32714 z"
     id="path4-6-56-6" />
  <path
     d="m 589.4664,187.51864 c 0,0.7323 0.9223,1.3272 2.05771,1.3272 h 41.88458 c 1.13541,0 2.05772,-0.5949 2.05772,-1.3272 V 100.1731 c 0,-0.732297 -0.92231,-1.327137 -2.05772,-1.327137 h -41.88458 c -1.13541,0 -2.05771,0.59484 -2.05771,1.327137 z"
     id="path4-2-29"
     inkscape:connector-curvature="0"
     style="fill:none;fill-opacity:1;stroke:#000000;stroke-width:0.42333329;stroke-linecap:round;stroke-linejoin:round;stroke-opacity:1" />
  <path
     inkscape:connector-curvature="0"
     style="fill:none;fill-opacity:1;stroke:#000000;stroke-width:0.42333329;stroke-linecap:round;stroke-linejoin:round;stroke-opacity:1"
     d="m 540.55656,187.46999 c 0,0.7323 0.9223,1.3272 2.0577,1.3272 h 41.8846 c 1.13541,0 2.05771,-0.5949 2.05771,-1.3272 v -87.34553 c 0,-0.732297 -0.9223,-1.327137 -2.05771,-1.327137 h -41.8846 c -1.1354,0 -2.0577,0.59484 -2.0577,1.327137 z"
     id="path4-6-9-1" />
  <path
     d="m 491.84986,186.73541 c 0,0.7323 0.9223,1.3272 2.05771,1.3272 h 41.88459 c 1.13541,0 2.05771,-0.5949 2.05771,-1.3272 V 99.389883 c 0,-0.7323 -0.9223,-1.32714 -2.05771,-1.32714 h -41.88459 c -1.13541,0 -2.05771,0.59484 -2.05771,1.32714 z"
     id="path4-7-1-2"
     inkscape:connector-curvature="0"
     style="fill:none;fill-opacity:1;stroke:#000000;stroke-width:0.42333329;stroke-linecap:round;stroke-linejoin:round;stroke-opacity:1" />
  <path
     inkscape:connector-curvature="0"
     style="fill:none;fill-opacity:1;stroke:#000000;stroke-width:0.42333329;stroke-linecap:round;stroke-linejoin:round;stroke-opacity:1"
     d="m 443.17899,186.23014 c 0,0.7323 0.9223,1.3272 2.05771,1.3272 h 41.8846 c 1.13541,0 2.05771,-0.5949 2.05771,-1.3272 V 98.884613 c 0,-0.7323 -0.9223,-1.32714 -2.05771,-1.32714 h -41.8846 c -1.13541,0 -2.05771,0.59484 -2.05771,1.32714 z"
     id="path4-6-5-2-7" />
  <path
     d="m 393.67587,186.27879 c 0,0.7323 0.9223,1.3272 2.05771,1.3272 h 41.88459 c 1.13542,0 2.05772,-0.5949 2.05772,-1.3272 V 98.933253 c 0,-0.7323 -0.9223,-1.32714 -2.05772,-1.32714 h -41.88459 c -1.13541,0 -2.05771,0.59484 -2.05771,1.32714 z"
     id="path4-3-7-0"
     inkscape:connector-curvature="0"
     style="fill:none;fill-opacity:1;stroke:#000000;stroke-width:0.42333329;stroke-linecap:round;stroke-linejoin:round;stroke-opacity:1" />
  <path
     inkscape:connector-curvature="0"
     style="fill:none;fill-opacity:1;stroke:#000000;stroke-width:0.42333329;stroke-linecap:round;stroke-linejoin:round;stroke-opacity:1"
     d="m 345.46162,185.77352 c 0,0.7323 0.9223,1.3272 2.0577,1.3272 h 41.8846 c 1.13541,0 2.05771,-0.5949 2.05771,-1.3272 V 98.427993 c 0,-0.7323 -0.9223,-1.32714 -2.05771,-1.32714 h -41.8846 c -1.1354,0 -2.0577,0.59484 -2.0577,1.32714 z"
     id="path4-6-56-0-93" />
  <path
     d="m 589.36806,280.61993 c 0,0.73229 0.9223,1.32721 2.05771,1.32721 h 41.88461 c 1.13538,0 2.05771,-0.59492 2.05771,-1.32721 V 193.2744 c 0,-0.7323 -0.92233,-1.32714 -2.05771,-1.32714 h -41.88461 c -1.13541,0 -2.05771,0.59484 -2.05771,1.32714 z"
     id="path4-2-2-6"
     inkscape:connector-curvature="0"
     style="fill:none;fill-opacity:1;stroke:#000000;stroke-width:0.42333329;stroke-linecap:round;stroke-linejoin:round;stroke-opacity:1" />
  <path
     inkscape:connector-curvature="0"
     style="fill:none;fill-opacity:1;stroke:#000000;stroke-width:0.42333329;stroke-linecap:round;stroke-linejoin:round;stroke-opacity:1"
     d="m 540.45822,280.5713 c 0,0.73229 0.9223,1.32718 2.0577,1.32718 h 41.8846 c 1.13541,0 2.05771,-0.59489 2.05771,-1.32718 v -87.34554 c 0,-0.7323 -0.9223,-1.32714 -2.05771,-1.32714 h -41.8846 c -1.1354,0 -2.0577,0.59484 -2.0577,1.32714 z"
     id="path4-6-9-6-26" />
  <path
     d="m 491.75152,279.83669 c 0,0.73231 0.9223,1.3272 2.05771,1.3272 h 41.88459 c 1.13541,0 2.05771,-0.59489 2.05771,-1.3272 v -87.34551 c 0,-0.7323 -0.9223,-1.32714 -2.05771,-1.32714 h -41.88459 c -1.13541,0 -2.05771,0.59484 -2.05771,1.32714 z"
     id="path4-7-1-1-1"
     inkscape:connector-curvature="0"
     style="fill:none;fill-opacity:1;stroke:#000000;stroke-width:0.42333329;stroke-linecap:round;stroke-linejoin:round;stroke-opacity:1" />
  <path
     inkscape:connector-curvature="0"
     style="fill:none;fill-opacity:1;stroke:#000000;stroke-width:0.42333329;stroke-linecap:round;stroke-linejoin:round;stroke-opacity:1"
     d="m 443.08063,279.33144 c 0,0.73231 0.9223,1.3272 2.05771,1.3272 h 41.88462 c 1.13541,0 2.05771,-0.59489 2.05771,-1.3272 v -87.34553 c 0,-0.7323 -0.9223,-1.32714 -2.05771,-1.32714 h -41.88462 c -1.13541,0 -2.05771,0.59484 -2.05771,1.32714 z"
     id="path4-6-5-2-8-8" />
  <path
     d="m 393.5775,279.38007 c 0,0.73231 0.9223,1.3272 2.05771,1.3272 h 41.88459 c 1.13542,0 2.05772,-0.59489 2.05772,-1.3272 v -87.34552 c 0,-0.7323 -0.9223,-1.32714 -2.05772,-1.32714 h -41.88459 c -1.13541,0 -2.05771,0.59484 -2.05771,1.32714 z"
     id="path4-3-7-7-7"
     inkscape:connector-curvature="0"
     style="fill:none;fill-opacity:1;stroke:#000000;stroke-width:0.42333329;stroke-linecap:round;stroke-linejoin:round;stroke-opacity:1" />
  <path
     inkscape:connector-curvature="0"
     style="fill:none;fill-opacity:1;stroke:#000000;stroke-width:0.42333329;stroke-linecap:round;stroke-linejoin:round;stroke-opacity:1"
     d="m 345.36325,278.87482 c 0,0.73229 0.9223,1.32718 2.0577,1.32718 h 41.88461 c 1.13541,0 2.0577,-0.59489 2.0577,-1.32718 v -87.34553 c 0,-0.7323 -0.92229,-1.32714 -2.0577,-1.32714 h -41.88461 c -1.1354,0 -2.0577,0.59484 -2.0577,1.32714 z"
     id="path4-6-56-0-9-92" />
  <path
     d="m 589.25968,372.93086 c 0,0.73229 0.9223,1.32718 2.05771,1.32718 H 633.202 c 1.13541,0 2.05772,-0.59489 2.05772,-1.32718 v -87.34554 c 0,-0.73229 -0.92231,-1.32713 -2.05772,-1.32713 h -41.88461 c -1.13541,0 -2.05771,0.59484 -2.05771,1.32713 z"
     id="path4-2-2-0-2"
     inkscape:connector-curvature="0"
     style="fill:none;fill-opacity:1;stroke:#000000;stroke-width:0.42333329;stroke-linecap:round;stroke-linejoin:round;stroke-opacity:1" />
  <path
     inkscape:connector-curvature="0"
     style="fill:none;fill-opacity:1;stroke:#000000;stroke-width:0.42333329;stroke-linecap:round;stroke-linejoin:round;stroke-opacity:1"
     d="m 540.34984,372.88221 c 0,0.73228 0.92231,1.3272 2.0577,1.3272 h 41.8846 c 1.13541,0 2.05772,-0.59492 2.05772,-1.3272 v -87.34552 c 0,-0.73232 -0.92231,-1.32715 -2.05772,-1.32715 h -41.8846 c -1.13539,0 -2.0577,0.59483 -2.0577,1.32715 z"
     id="path4-6-9-6-2-3" />
  <path
     d="m 491.64314,372.14762 c 0,0.73231 0.9223,1.3272 2.05771,1.3272 h 41.88459 c 1.13541,0 2.05771,-0.59489 2.05771,-1.3272 V 284.8021 c 0,-0.73229 -0.9223,-1.32713 -2.05771,-1.32713 h -41.88459 c -1.13541,0 -2.05771,0.59484 -2.05771,1.32713 z"
     id="path4-7-1-1-3-7"
     inkscape:connector-curvature="0"
     style="fill:none;fill-opacity:1;stroke:#000000;stroke-width:0.42333329;stroke-linecap:round;stroke-linejoin:round;stroke-opacity:1" />
  <path
     inkscape:connector-curvature="0"
     style="fill:none;fill-opacity:1;stroke:#000000;stroke-width:0.42333329;stroke-linecap:round;stroke-linejoin:round;stroke-opacity:1"
     d="m 442.97226,371.64234 c 0,0.73232 0.92229,1.3272 2.0577,1.3272 h 41.88462 c 1.13541,0 2.05771,-0.59488 2.05771,-1.3272 v -87.34552 c 0,-0.73229 -0.9223,-1.32712 -2.05771,-1.32712 h -41.88462 c -1.13541,0 -2.0577,0.59483 -2.0577,1.32712 z"
     id="path4-6-5-2-8-7-5" />
  <path
     d="m 393.46916,371.691 c 0,0.73231 0.9223,1.3272 2.05771,1.3272 h 41.88457 c 1.13542,0 2.05772,-0.59489 2.05772,-1.3272 v -87.34552 c 0,-0.73232 -0.9223,-1.32715 -2.05772,-1.32715 h -41.88457 c -1.13541,0 -2.05771,0.59483 -2.05771,1.32715 z"
     id="path4-3-7-7-5-9"
     inkscape:connector-curvature="0"
     style="fill:none;fill-opacity:1;stroke:#000000;stroke-width:0.42333329;stroke-linecap:round;stroke-linejoin:round;stroke-opacity:1" />
  <path
     inkscape:connector-curvature="0"
     style="fill:none;fill-opacity:1;stroke:#000000;stroke-width:0.42333329;stroke-linecap:round;stroke-linejoin:round;stroke-opacity:1"
     d="m 345.25495,371.18572 c 0,0.73232 0.9223,1.32721 2.0577,1.32721 h 41.88458 c 1.13541,0 2.05771,-0.59489 2.05771,-1.32721 V 283.8402 c 0,-0.73228 -0.9223,-1.32712 -2.05771,-1.32712 h -41.88458 c -1.1354,0 -2.0577,0.59484 -2.0577,1.32712 z"
     id="path4-6-56-0-9-9-2" />
</svg>
