<?xml version="1.0" encoding="utf-8"?>
<!-- Generator: Adobe Illustrator 25.4.1, SVG Export Plug-In . SVG Version: 6.00 Build 0)  -->
<svg version="1.1" id="Layer_1" xmlns="http://www.w3.org/2000/svg" xmlns:xlink="http://www.w3.org/1999/xlink" x="0px" y="0px"
	 viewBox="0 0 4280.3 1133.9" style="enable-background:new 0 0 4280.3 1133.9;" xml:space="preserve">
<style type="text/css">
	.st0{fill:none;stroke:#000000;stroke-miterlimit:10;}
</style>
<g>
	<path class="st0" d="M856.8,181.6v739.8c0,26.6-21.6,48.2-48.2,48.2H366.5c-26.6,0-48.2-21.6-48.2-48.2V181.6
		c0-26.6,21.6-48.2,48.2-48.2h442.2C835.3,133.4,856.8,155,856.8,181.6z"/>
	<path class="st0" d="M661.3,168.8v765.4c0,7.8-6.3,14.2-14.2,14.2H363.6c-7.8,0-14.2-6.3-14.2-14.2V168.8c0-7.8,6.3-14.2,14.2-14.2
		h283.5C654.9,154.7,661.3,161,661.3,168.8z"/>
	<path class="st0" d="M838.4,422.5v258c0,7.8-6.3,14.2-14.2,14.2H693.9c-7.8,0-14.2-6.3-14.2-14.2v-258c0-7.8,6.3-14.2,14.2-14.2
		h130.4C832.1,408.4,838.4,414.7,838.4,422.5z"/>
</g>
</svg>
