<?xml version="1.0" encoding="utf-8"?>
<!-- Generator: Adobe Illustrator 26.1.0, SVG Export Plug-In . SVG Version: 6.00 Build 0)  -->
<svg version="1.1" id="Layer_1" xmlns="http://www.w3.org/2000/svg" xmlns:xlink="http://www.w3.org/1999/xlink" x="0px" y="0px"
	 viewBox="0 0 4280.3 1133.9" style="enable-background:new 0 0 4280.3 1133.9;" xml:space="preserve">
<style type="text/css">
	.st0{fill:none;stroke:#000000;stroke-miterlimit:10;}
</style>
<g>
	<path class="st0" d="M272.5,172.2H709c17.2,0,31.2,14,31.2,31.2v788c0,17.2-14,31.2-31.2,31.2H213"/>
	<path class="st0" d="M170.4,214.7c0-23.5,19-42.5,42.5-42.5"/>
	<path class="st0" d="M170.4,243.1v-28.3"/>
	<path class="st0" d="M170.4,980.1v-28.3"/>
	<path class="st0" d="M213,1022.6c-23.5,0-42.5-19-42.5-42.5"/>
	<path class="st0" d="M217.2,255.1v684.6"/>
	<path class="st0" d="M205.2,243.1c6.7,0,12,5.4,12,12"/>
	<path class="st0" d="M205.2,243.1L205.2,243.1"/>
	<path class="st0" d="M205.2,951.8L205.2,951.8"/>
	<path class="st0" d="M217.2,939.7c0,6.7-5.4,12-12,12"/>
	<path class="st0" d="M683.5,255.1v684.6c0,6.7-5.4,12-12,12h0c-6.7,0-12-5.4-12-12V255.1c0-6.7,5.4-12,12-12h0
		C678.1,243.1,683.5,248.5,683.5,255.1z"/>
	<line class="st0" x1="170.4" y1="951.8" x2="205.2" y2="951.8"/>
	<line class="st0" x1="205.2" y1="243.1" x2="170.4" y2="243.1"/>
	<line class="st0" x1="211.8" y1="172.2" x2="222.6" y2="172.2"/>
	<path class="st0" d="M272.5,172.2v42.5c0,3.1-2.5,5.7-5.7,5.7h-39.7c-3.1,0-5.7-2.5-5.7-5.7v-42.5"/>
	<circle class="st0" cx="198.8" cy="210.5" r="8.5"/>
	<circle class="st0" cx="198.8" cy="984.4" r="8.5"/>
	<circle class="st0" cx="712.9" cy="994.3" r="8.5"/>
	<circle class="st0" cx="711.9" cy="200.6" r="8.5"/>
	<path class="st0" d="M728.9,917.7v53.9c0,1.6-1.3,2.8-2.8,2.8h-25.5c-1.6,0-2.8-1.3-2.8-2.8v-53.9c0-1.6,1.3-2.8,2.8-2.8H726
		C727.6,914.9,728.9,916.2,728.9,917.7z"/>
	<path class="st0" d="M728.9,223.2v53.9c0,1.6-1.3,2.8-2.8,2.8h-25.5c-1.6,0-2.8-1.3-2.8-2.8v-53.9c0-1.6,1.3-2.8,2.8-2.8H726
		C727.6,220.4,728.9,221.7,728.9,223.2z"/>
	<path class="st0" d="M615.8,496.8v201.3c0,1.6-1.3,2.8-2.8,2.8h-62.4c-1.6,0-2.8-1.3-2.8-2.8V496.8c0-1.6,1.3-2.8,2.8-2.8h62.4
		C614.5,494,615.8,495.2,615.8,496.8z"/>
	<circle class="st0" cx="429.8" cy="353.6" r="8.5"/>
	<circle class="st0" cx="429.8" cy="841.2" r="8.5"/>
</g>
</svg>
