<?xml version="1.0" encoding="utf-8"?>
<!-- Generator: Adobe Illustrator 25.4.1, SVG Export Plug-In . SVG Version: 6.00 Build 0)  -->
<svg version="1.1" id="Layer_1" xmlns="http://www.w3.org/2000/svg" xmlns:xlink="http://www.w3.org/1999/xlink" x="0px" y="0px"
	 viewBox="0 0 4280.3 1133.9" style="enable-background:new 0 0 4280.3 1133.9;" xml:space="preserve">
<style type="text/css">
	.st0{fill:none;stroke:#000000;stroke-miterlimit:10;}
</style>
<g>
	<g>
		<path class="st0" d="M846.6,182.8v768.2c0,28.2-22.8,51-51,51H310.9c-28.2,0-51-22.8-51-51V182.8c0-28.2,22.8-51,51-51h484.7
			C823.8,131.8,846.6,154.7,846.6,182.8z"/>
		<path class="st0" d="M802.4,863.2v62.4c0,3.1-2.5,5.7-5.7,5.7l0,0c-3.1,0-5.7-2.5-5.7-5.7v-62.4c0-3.1,2.5-5.7,5.7-5.7l0,0
			C799.8,857.6,802.4,860.1,802.4,863.2z"/>
		<g>
			<path class="st0" d="M793.5,208.3"/>
			<path class="st0" d="M787.8,202.7"/>
			<path class="st0" d="M787.8,202.7"/>
			<path class="st0" d="M776.4,202.7"/>
			<path class="st0" d="M776.4,202.7"/>
			<path class="st0" d="M770.8,208.3"/>
			<path class="st0" d="M793.5,232.3V316c0,3.1-2.5,5.7-5.7,5.7h-11.3c-3.1,0-5.7-2.5-5.7-5.7v-83.7"/>
			<path class="st0" d="M770.8,232.3c-3.8-3.1-5.7-7.3-5.7-12.7c0-9.4,7.6-17,17-17"/>
			<path class="st0" d="M782.1,202.7c9.4,0,17,7.6,17,17c0,5.2-2,9.5-5.7,12.7"/>
		</g>
		<circle class="st0" cx="549.3" cy="567" r="46.8"/>
	</g>
	<g>
		<line class="st0" x1="287.1" y1="996.2" x2="300.7" y2="974.8"/>
		<line class="st0" x1="300.7" y1="974.8" x2="292.4" y2="998.6"/>
	</g>
	<g>
		<line class="st0" x1="263.7" y1="970.6" x2="286.1" y2="961.9"/>
		<line class="st0" x1="286.1" y1="961.9" x2="265.9" y2="975.9"/>
	</g>
	<g>
		<line class="st0" x1="287.8" y1="137.6" x2="301.5" y2="159"/>
		<line class="st0" x1="301.5" y1="159" x2="293.2" y2="135.2"/>
	</g>
	<g>
		<line class="st0" x1="264.5" y1="163.2" x2="286.9" y2="172"/>
		<line class="st0" x1="286.9" y1="172" x2="266.6" y2="157.9"/>
	</g>
	<g>
		<line class="st0" x1="819.1" y1="137.7" x2="805.4" y2="159.1"/>
		<line class="st0" x1="805.4" y1="159.1" x2="813.8" y2="135.3"/>
	</g>
	<g>
		<line class="st0" x1="842.4" y1="163.3" x2="820.1" y2="172.1"/>
		<line class="st0" x1="820.1" y1="172.1" x2="840.3" y2="158"/>
	</g>
	<g>
		<line class="st0" x1="819.1" y1="995.6" x2="805.5" y2="974.2"/>
		<line class="st0" x1="805.5" y1="974.2" x2="813.8" y2="998.1"/>
	</g>
	<g>
		<line class="st0" x1="842.5" y1="970.1" x2="820.1" y2="961.3"/>
		<line class="st0" x1="820.1" y1="961.3" x2="840.3" y2="975.3"/>
	</g>
</g>
</svg>
