<?xml version="1.0" encoding="utf-8"?>
<!-- Generator: Adobe Illustrator 26.1.0, SVG Export Plug-In . SVG Version: 6.00 Build 0)  -->
<svg version="1.1" id="Layer_1" xmlns="http://www.w3.org/2000/svg" xmlns:xlink="http://www.w3.org/1999/xlink" x="0px" y="0px"
	 viewBox="0 0 4280.3 1133.9" style="enable-background:new 0 0 4280.3 1133.9;" xml:space="preserve">
<style type="text/css">
	.st0{fill:none;stroke:#000000;stroke-miterlimit:10;}
</style>
<g>
	<path class="st0" d="M334,128.9V96.3c0-15.7,12.7-28.3,28.3-28.3h501.7c15.7,0,28.3,12.7,28.3,28.3v771c0,15.7-12.7,28.3-28.3,28.3
		H362.4c-15.7,0-28.3-12.7-28.3-28.3v-32.6"/>
	<line class="st0" x1="334" y1="741.2" x2="334" y2="222.4"/>
	<path class="st0" d="M334,741.2h17c1.6,0,2.8,1.3,2.8,2.8v87.9c0,1.6-1.3,2.8-2.8,2.8h-17"/>
	<path class="st0" d="M334,222.4h17c1.6,0,2.8-1.3,2.8-2.8v-87.9c0-1.6-1.3-2.8-2.8-2.8h-17"/>
	<circle class="st0" cx="613.3" cy="481.8" r="45.4"/>
	<path class="st0" d="M865.6,774.7v59.5c0,3.1-2.5,5.7-5.7,5.7l0,0c-3.1,0-5.7-2.5-5.7-5.7v-59.5c0-3.1,2.5-5.7,5.7-5.7l0,0
		C863.1,769.1,865.6,771.6,865.6,774.7z"/>
	<polyline class="st0" points="838.7,178.5 838.7,240.9 821.7,240.9 821.7,153.3 	"/>
	<line class="st0" x1="838.7" y1="153.3" x2="838.7" y2="172.1"/>
	<path class="st0" d="M814.6,140.2c0-8.6,7-15.6,15.6-15.6"/>
	<path class="st0" d="M822.1,153.7c-4.9-2.6-7.5-7.6-7.5-13.5"/>
	<path class="st0" d="M830.2,155.8"/>
	<path class="st0" d="M845.8,140.2c0,5.8-2.4,10.8-7.1,13.5"/>
	<path class="st0" d="M830.2,124.6c8.6,0,15.6,7,15.6,15.6"/>
	<line class="st0" x1="838.7" y1="172.1" x2="845.8" y2="172.8"/>
	<line class="st0" x1="845.8" y1="178.5" x2="838.7" y2="178.5"/>
	<line class="st0" x1="845.8" y1="172.8" x2="845.8" y2="178.5"/>
</g>
</svg>
