<?xml version="1.0" encoding="UTF-8" standalone="no"?>
<!-- Created with Inkscape (http://www.inkscape.org/) -->

<svg
   xmlns:dc="http://purl.org/dc/elements/1.1/"
   xmlns:cc="http://creativecommons.org/ns#"
   xmlns:rdf="http://www.w3.org/1999/02/22-rdf-syntax-ns#"
   xmlns:svg="http://www.w3.org/2000/svg"
   xmlns="http://www.w3.org/2000/svg"
   xmlns:sodipodi="http://sodipodi.sourceforge.net/DTD/sodipodi-0.dtd"
   xmlns:inkscape="http://www.inkscape.org/namespaces/inkscape"
   width="1200mm"
   height="1200mm"
   viewBox="0 0 1200 1200"
   version="1.1"
   id="svg1076"
   inkscape:version="0.92.3 (2405546, 2018-03-11)"
   sodipodi:docname="Dell_ optx_790_DT.svg">
  <defs
     id="defs1070" />
  <sodipodi:namedview
     id="base"
     pagecolor="#ffffff"
     bordercolor="#666666"
     borderopacity="1.0"
     inkscape:pageopacity="0.0"
     inkscape:pageshadow="2"
     inkscape:zoom="0.12994541"
     inkscape:cx="1925.388"
     inkscape:cy="3375.889"
     inkscape:document-units="mm"
     inkscape:current-layer="layer1"
     showgrid="false"
     inkscape:window-width="1680"
     inkscape:window-height="903"
     inkscape:window-x="0"
     inkscape:window-y="28"
     inkscape:window-maximized="1"
     showguides="true"
     inkscape:guide-bbox="true" />
  <metadata
     id="metadata1073">
    <rdf:RDF>
      <cc:Work
         rdf:about="">
        <dc:format>image/svg+xml</dc:format>
        <dc:type
           rdf:resource="http://purl.org/dc/dcmitype/StillImage" />
        <dc:title />
      </cc:Work>
    </rdf:RDF>
  </metadata>
  <g
     inkscape:label="Layer 1"
     inkscape:groupmode="layer"
     id="layer1"
     transform="translate(0,903)">
    <g
       style="fill:none;stroke:#000000;stroke-width:0.5;stroke-miterlimit:4;stroke-dasharray:none;stroke-opacity:1"
       id="g1761"
       transform="rotate(90,399.68894,-167.3633)">
      <path
         inkscape:connector-curvature="0"
         id="rect1078"
         d="m -187.68109,-245.93808 h 388.90395 c 0.16101,0 0.29063,0.50589 0.29063,1.13429 v 94.21669 c 0,0.62839 -0.12962,1.13428 -0.29063,1.13428 h -388.90395 c -0.16102,0 -0.29063,-0.50589 -0.29063,-1.13428 v -94.21669 c 0,-0.6284 0.12961,-1.13429 0.29063,-1.13429 z"
         style="opacity:1;vector-effect:none;fill:none;fill-opacity:1;fill-rule:evenodd;stroke:#000000;stroke-width:0.5;stroke-linecap:butt;stroke-linejoin:miter;stroke-miterlimit:4;stroke-dasharray:none;stroke-dashoffset:0;stroke-opacity:1" />
      <path
         inkscape:connector-curvature="0"
         id="rect1081"
         d="m -179.1305,-222.75834 h 13.50069 c 0.0629,0 0.11347,0.0506 0.11347,0.11347 v 51.00069 c 0,0.0629 -0.0506,0.11347 -0.11347,0.11347 h -13.50069 c -0.0629,0 -0.11347,-0.0506 -0.11347,-0.11347 v -51.00069 c 0,-0.0629 0.0506,-0.11347 0.11347,-0.11347 z"
         style="opacity:1;vector-effect:none;fill:none;fill-opacity:1;fill-rule:evenodd;stroke:#000000;stroke-width:0.5;stroke-linecap:butt;stroke-linejoin:miter;stroke-miterlimit:4;stroke-dasharray:none;stroke-dashoffset:0;stroke-opacity:1" />
    </g>
    <g
       id="g926"
       transform="rotate(180,89.17434,-573.10195)">
      <path
         style="opacity:1;vector-effect:none;fill:none;fill-opacity:1;fill-rule:evenodd;stroke:#000000;stroke-width:0.5;stroke-linecap:butt;stroke-linejoin:miter;stroke-miterlimit:4;stroke-dasharray:none;stroke-dashoffset:0;stroke-opacity:1"
         d="m -177.94618,-744.7344 h 389.73437 v 355.73438 h -389.73437 z"
         id="rect1763"
         inkscape:connector-curvature="0" />
      <path
         style="opacity:1;vector-effect:none;fill:none;fill-opacity:1;fill-rule:evenodd;stroke:#000000;stroke-width:0.5;stroke-linecap:butt;stroke-linejoin:miter;stroke-miterlimit:4;stroke-dasharray:none;stroke-dashoffset:0;stroke-opacity:1"
         d="m -154.11508,-716.76935 h 30.53753 c 0.63602,0 1.14805,0.39373 1.14805,0.8828 v 5.06802 c 0,0.48907 -0.51203,0.8828 -1.14805,0.8828 h -30.53753 c -0.63602,0 -1.14804,-0.39373 -1.14804,-0.8828 v -5.06802 c 0,-0.48907 0.51202,-0.8828 1.14804,-0.8828 z"
         id="rect831"
         inkscape:connector-curvature="0" />
      <path
         transform="scale(1,-1)"
         style="opacity:1;vector-effect:none;fill:none;fill-opacity:1;fill-rule:evenodd;stroke:#000000;stroke-width:0.5;stroke-linecap:butt;stroke-linejoin:miter;stroke-miterlimit:4;stroke-dasharray:none;stroke-dashoffset:0;stroke-opacity:1"
         d="m -154.11508,416.96506 h 30.53753 c 0.63602,0 1.14805,0.39373 1.14805,0.8828 v 5.06801 c 0,0.48907 -0.51203,0.8828 -1.14805,0.8828 h -30.53753 c -0.63602,0 -1.14804,-0.39373 -1.14804,-0.8828 v -5.06801 c 0,-0.48907 0.51202,-0.8828 1.14804,-0.8828 z"
         id="rect831-6"
         inkscape:connector-curvature="0" />
      <path
         transform="scale(-1)"
         style="opacity:1;vector-effect:none;fill:none;fill-opacity:1;fill-rule:evenodd;stroke:#000000;stroke-width:0.5;stroke-linecap:butt;stroke-linejoin:miter;stroke-miterlimit:4;stroke-dasharray:none;stroke-dashoffset:0;stroke-opacity:1"
         d="m -187.95709,416.96506 h 30.53753 c 0.63602,0 1.14805,0.39373 1.14805,0.8828 v 5.06801 c 0,0.48907 -0.51203,0.8828 -1.14805,0.8828 h -30.53753 c -0.63602,0 -1.14804,-0.39373 -1.14804,-0.8828 v -5.06801 c 0,-0.48907 0.51202,-0.8828 1.14804,-0.8828 z"
         id="rect831-62"
         inkscape:connector-curvature="0" />
      <path
         transform="scale(-1,1)"
         style="opacity:1;vector-effect:none;fill:none;fill-opacity:1;fill-rule:evenodd;stroke:#000000;stroke-width:0.5;stroke-linecap:butt;stroke-linejoin:miter;stroke-miterlimit:4;stroke-dasharray:none;stroke-dashoffset:0;stroke-opacity:1"
         d="m -187.95709,-716.76935 h 30.53753 c 0.63602,0 1.14805,0.39373 1.14805,0.8828 v 5.06802 c 0,0.48907 -0.51203,0.8828 -1.14805,0.8828 h -30.53753 c -0.63602,0 -1.14804,-0.39373 -1.14804,-0.8828 v -5.06802 c 0,-0.48907 0.51202,-0.8828 1.14804,-0.8828 z"
         id="rect831-7"
         inkscape:connector-curvature="0" />
    </g>
    <rect
       style="opacity:1;vector-effect:none;fill:#000000;fill-opacity:1;fill-rule:evenodd;stroke:#000000;stroke-width:0.25;stroke-linecap:butt;stroke-linejoin:miter;stroke-miterlimit:4;stroke-dasharray:none;stroke-dashoffset:0;stroke-opacity:1"
       id="rect904"
       width="5.7589927"
       height="2.8794963"
       x="1000.6249"
       y="-1000.2131"
       rx="1.4487895"
       ry="0.89820749" />
    <g
       id="g967"
       transform="rotate(90,266.25393,-470.52512)">
      <g
         id="g956">
        <path
           style="opacity:1;vector-effect:none;fill:none;fill-opacity:1;fill-rule:evenodd;stroke:#000000;stroke-width:0.45982745;stroke-linecap:butt;stroke-linejoin:miter;stroke-miterlimit:4;stroke-dasharray:none;stroke-dashoffset:0;stroke-opacity:1"
           d="m 387.49961,-679.47992 h 326.1585 c 0.93672,0 1.69083,0.89237 1.69083,2.00083 v 92.8358 c 0,1.10846 -0.75411,2.00083 -1.69083,2.00083 h -326.1585 c -0.93672,0 -1.69083,-0.89237 -1.69083,-2.00083 v -92.8358 c 0,-1.10846 0.75411,-2.00083 1.69083,-2.00083 z"
           id="rect902"
           inkscape:connector-curvature="0" />
        <path
           transform="scale(-1,1)"
           style="opacity:1;vector-effect:none;fill:none;fill-opacity:1;fill-rule:evenodd;stroke:#000000;stroke-width:0.5;stroke-linecap:butt;stroke-linejoin:miter;stroke-miterlimit:4;stroke-dasharray:none;stroke-dashoffset:0;stroke-opacity:1"
           d="m -689.4208,-672.92712 h 30.53753 c 0.63602,0 1.14804,0.39373 1.14804,0.8828 v 5.06801 c 0,0.48907 -0.51202,0.8828 -1.14804,0.8828 h -30.53753 c -0.63602,0 -1.14805,-0.39373 -1.14805,-0.8828 v -5.06801 c 0,-0.48907 0.51203,-0.8828 1.14805,-0.8828 z"
           id="rect831-7-3"
           inkscape:connector-curvature="0" />
        <path
           transform="scale(-1)"
           style="opacity:1;vector-effect:none;fill:none;fill-opacity:1;fill-rule:evenodd;stroke:#000000;stroke-width:0.5;stroke-linecap:butt;stroke-linejoin:miter;stroke-miterlimit:4;stroke-dasharray:none;stroke-dashoffset:0;stroke-opacity:1"
           d="m -689.4208,589.19525 h 30.53753 c 0.63602,0 1.14804,0.39373 1.14804,0.8828 v 5.06802 c 0,0.48907 -0.51202,0.8828 -1.14804,0.8828 h -30.53753 c -0.63602,0 -1.14805,-0.39373 -1.14805,-0.8828 v -5.06802 c 0,-0.48907 0.51203,-0.8828 1.14805,-0.8828 z"
           id="rect831-7-3-6"
           inkscape:connector-curvature="0" />
      </g>
      <path
         style="opacity:1;vector-effect:none;fill:none;fill-opacity:1;fill-rule:evenodd;stroke:#000000;stroke-width:0.23232278;stroke-linecap:butt;stroke-linejoin:miter;stroke-miterlimit:4;stroke-dasharray:none;stroke-dashoffset:0;stroke-opacity:1"
         d="m 564.56492,-670.435 h 72.26882 c 0.41518,0 0.74943,0.52087 0.74943,1.16787 v 74.43194 c 0,0.647 -0.33425,1.16787 -0.74943,1.16787 h -72.26882 c -0.41518,0 -0.74943,-0.52087 -0.74943,-1.16787 v -74.43194 c 0,-0.647 0.33425,-1.16787 0.74943,-1.16787 z"
         id="rect960"
         inkscape:connector-curvature="0" />
    </g>
    <g
       id="g983"
       transform="rotate(180,412.40792,-333.94577)">
      <path
         style="opacity:1;vector-effect:none;fill:none;fill-opacity:1;fill-rule:evenodd;stroke:#000000;stroke-width:0.40946263;stroke-linecap:butt;stroke-linejoin:miter;stroke-miterlimit:4;stroke-dasharray:none;stroke-dashoffset:0;stroke-opacity:1"
         d="m 471.26038,-600.62042 h 383.59051 c 1.662,0 3,1.338 3,3 v 323.59054 c 0,1.662 -1.338,3 -3,3 H 471.26038 c -1.662,0 -3,-1.338 -3,-3 v -323.59054 c 0,-1.662 1.338,-3 3,-3 z"
         id="rect977"
         inkscape:connector-curvature="0" />
      <path
         style="opacity:1;vector-effect:none;fill:none;fill-opacity:1;fill-rule:evenodd;stroke:#000000;stroke-width:0.5;stroke-linecap:butt;stroke-linejoin:miter;stroke-miterlimit:4;stroke-dasharray:none;stroke-dashoffset:0;stroke-opacity:1"
         d="m 470.57414,-600.62042 h 168.11215 c 1.28183,0 2.31377,1.88088 2.31377,4.21722 v 246.30524 c 0,2.33634 -1.03194,4.21722 -2.31377,4.21722 H 470.57414 c -1.28182,0 -2.31376,-1.88088 -2.31376,-4.21722 V -596.4032 c 0,-2.33634 1.03194,-4.21722 2.31376,-4.21722 z"
         id="rect979"
         inkscape:connector-curvature="0" />
    </g>
  </g>
</svg>
