<?xml version="1.0" encoding="utf-8"?>
<!-- Generator: Adobe Illustrator 25.2.1, SVG Export Plug-In . SVG Version: 6.00 Build 0)  -->
<svg version="1.1" id="Layer_1" xmlns="http://www.w3.org/2000/svg" xmlns:xlink="http://www.w3.org/1999/xlink" x="0px" y="0px"
	 viewBox="0 0 4280.3 1133.9" style="enable-background:new 0 0 4280.3 1133.9;" xml:space="preserve">
<style type="text/css">
	.st0{fill:none;stroke:#000000;stroke-miterlimit:10;}
	.st1{fill:#FFFFFF;stroke:#000000;stroke-miterlimit:10;}
</style>
<g>
	<path class="st0" d="M626.2,459.4h-224c-1.6,0-2.8-1.3-2.8-2.8v-48.2c0-6.3,5.1-11.3,11.3-11.3h215.4c1.6,0,2.8,1.3,2.8,2.8v56.7
		C629,458.1,627.7,459.4,626.2,459.4z"/>
	<path class="st0" d="M456.4,450.9h-34c-3.1,0-5.7-2.5-5.7-5.7v-34c0-3.1,2.5-5.7,5.7-5.7h34c3.1,0,5.7,2.5,5.7,5.7v34
		C462.1,448.3,459.6,450.9,456.4,450.9z"/>
</g>
<path class="st1" d="M547,593.5H289c-7.8,0-14.2-6.3-14.2-14.2v-31.2h286.3v31.2C561.1,587.2,554.8,593.5,547,593.5z"/>
</svg>
