<?xml version="1.0" encoding="utf-8"?>
<!-- Generator: Adobe Illustrator 25.2.1, SVG Export Plug-In . SVG Version: 6.00 Build 0)  -->
<svg version="1.1" id="Layer_1" xmlns="http://www.w3.org/2000/svg" xmlns:xlink="http://www.w3.org/1999/xlink" x="0px" y="0px"
	 viewBox="0 0 4280.3 1133.9" style="enable-background:new 0 0 4280.3 1133.9;" xml:space="preserve">
<style type="text/css">
	.st0{fill:none;stroke:#010101;stroke-width:1.1607;stroke-miterlimit:11.3386;}
	.st1{fill:none;stroke:#010101;stroke-width:1.4173;stroke-miterlimit:11.3386;}
</style>
<g>
	<path id="rect977" class="st0" d="M1172.3,1025.8H85c-4.7,0-8.5-3.8-8.5-8.5V100.1c0-4.7,3.8-8.5,8.5-8.5h1087.3
		c4.7,0,8.5,3.8,8.5,8.5v917.3C1180.9,1022,1177.1,1025.8,1172.3,1025.8z"/>
	<path class="st1" d="M558.4,805.9H187.1c-1.6,0-2.8-1.3-2.8-2.8V618.8c0-1.6,1.3-2.8,2.8-2.8h371.3c1.6,0,2.8,1.3,2.8,2.8v184.3
		C561.2,804.6,560,805.9,558.4,805.9z"/>
	<path class="st1" d="M560.9,522.4H362.5c-1.6,0-2.8-1.3-2.8-2.8V275.8c0-1.6,1.3-2.8,2.8-2.8h198.4c1.6,0,2.8,1.3,2.8,2.8v243.8
		C563.8,521.2,562.5,522.4,560.9,522.4z"/>
	<path class="st1" d="M320.3,428.9H143.1c-11,0-19.8-8.9-19.8-19.8V168.1c0-11,8.9-19.8,19.8-19.8h177.2c11,0,19.8,8.9,19.8,19.8
		V409C340.1,420,331.2,428.9,320.3,428.9z"/>
</g>
</svg>
