<?xml version="1.0" encoding="utf-8"?>
<!-- Generator: Adobe Illustrator 25.2.1, SVG Export Plug-In . SVG Version: 6.00 Build 0)  -->
<svg version="1.1" id="Layer_1" xmlns="http://www.w3.org/2000/svg" xmlns:xlink="http://www.w3.org/1999/xlink" x="0px" y="0px"
	 viewBox="0 0 4280.3 1133.9" style="enable-background:new 0 0 4280.3 1133.9;" xml:space="preserve">
<style type="text/css">
	.st0{fill:none;stroke:#010101;stroke-width:1.4173;stroke-miterlimit:11.3386;}
</style>
<path id="rect1763" class="st0" d="M1187.3,1060.9H82.5V52.5h1104.8V1060.9z"/>
<path id="rect831" class="st0" d="M1119.7,975.6h-86.6c-1.8,0-3.3-1.1-3.3-2.5v-14.4c0-1.4,1.5-2.5,3.3-2.5h86.6
	c1.8,0,3.3,1.1,3.3,2.5v14.4C1123,974.5,1121.5,975.6,1119.7,975.6z"/>
<path id="rect831-6" class="st0" d="M1119.7,137.8h-86.6c-1.8,0-3.3,1.1-3.3,2.5v14.4c0,1.4,1.5,2.5,3.3,2.5h86.6
	c1.8,0,3.3-1.1,3.3-2.5v-14.4C1123,138.9,1121.5,137.8,1119.7,137.8z"/>
<path id="rect831-62" class="st0" d="M150.1,137.8h86.6c1.8,0,3.3,1.1,3.3,2.5v14.4c0,1.4-1.5,2.5-3.3,2.5h-86.6
	c-1.8,0-3.3-1.1-3.3-2.5v-14.4C146.8,138.9,148.3,137.8,150.1,137.8z"/>
<path id="rect831-7" class="st0" d="M150.1,975.6h86.6c1.8,0,3.3-1.1,3.3-2.5v-14.4c0-1.4-1.5-2.5-3.3-2.5h-86.6
	c-1.8,0-3.3,1.1-3.3,2.5v14.4C146.8,974.5,148.3,975.6,150.1,975.6z"/>
</svg>
