<?xml version="1.0" encoding="utf-8"?>
<!-- Generator: Adobe Illustrator 25.2.1, SVG Export Plug-In . SVG Version: 6.00 Build 0)  -->
<svg version="1.1" id="Layer_1" xmlns="http://www.w3.org/2000/svg" xmlns:xlink="http://www.w3.org/1999/xlink" x="0px" y="0px"
	 viewBox="0 0 4280.3 1133.9" style="enable-background:new 0 0 4280.3 1133.9;" xml:space="preserve">
<style type="text/css">
	.st0{fill:none;stroke:#010101;stroke-width:1.3034;stroke-miterlimit:11.3386;}
	.st1{fill:none;stroke:#010101;stroke-width:1.4173;stroke-miterlimit:11.3386;}
	.st2{fill:none;stroke:#010101;stroke-width:0.6586;stroke-miterlimit:11.3386;}
</style>
<g>
	<path id="rect902" class="st0" d="M493.8,58.2v924.5c0,2.7-2.6,4.8-5.7,4.8H221.9c-3.2,0-5.7-2.1-5.7-4.8V58.2
		c0-2.7,2.6-4.8,5.7-4.8h266.2C491.3,53.4,493.8,55.5,493.8,58.2L493.8,58.2z"/>
	<g>
		<path id="rect831-7-3" class="st1" d="M479,914v-86.6c0-1.8-1.1-3.3-2.5-3.3H462c-1.4,0-2.5,1.5-2.5,3.3V914
			c0,1.8,1.1,3.3,2.5,3.3h14.5C477.9,917.3,479,915.8,479,914z"/>
		<path id="rect831-7-3-6" class="st1" d="M230.9,914v-86.6c0-1.8,1.1-3.3,2.5-3.3H248c1.4,0,2.5,1.5,2.5,3.3V914
			c0,1.8-1.1,3.3-2.5,3.3h-14.5C232.1,917.3,230.9,915.8,230.9,914z"/>
	</g>
	<path id="rect960" class="st2" d="M469.3,558.7v207.6c0,1.2-1.5,2.2-3.4,2.2H249.7c-1.9,0-3.4-1-3.4-2.2V558.7
		c0-1.2,1.5-2.2,3.4-2.2h216.2C467.8,556.6,469.3,557.5,469.3,558.7z"/>
</g>
</svg>
