<?xml version="1.0" encoding="UTF-8" standalone="no"?>
<!-- Created with Inkscape (http://www.inkscape.org/) -->

<svg
   xmlns:dc="http://purl.org/dc/elements/1.1/"
   xmlns:cc="http://creativecommons.org/ns#"
   xmlns:rdf="http://www.w3.org/1999/02/22-rdf-syntax-ns#"
   xmlns:svg="http://www.w3.org/2000/svg"
   xmlns="http://www.w3.org/2000/svg"
   xmlns:sodipodi="http://sodipodi.sourceforge.net/DTD/sodipodi-0.dtd"
   xmlns:inkscape="http://www.inkscape.org/namespaces/inkscape"
   width="594mm"
   height="841mm"
   viewBox="0 0 594 841"
   version="1.1"
   id="svg8"
   inkscape:version="0.92.3 (2405546, 2018-03-11)"
   sodipodi:docname="T540_W540_W541_LID.svg">
  <defs
     id="defs2" />
  <sodipodi:namedview
     id="base"
     pagecolor="#ffffff"
     bordercolor="#666666"
     borderopacity="1.0"
     inkscape:pageopacity="0.0"
     inkscape:pageshadow="2"
     inkscape:zoom="0.49497475"
     inkscape:cx="863.50647"
     inkscape:cy="2600.8838"
     inkscape:document-units="mm"
     inkscape:current-layer="layer1"
     showgrid="false"
     showguides="true"
     inkscape:guide-bbox="true"
     inkscape:window-width="1920"
     inkscape:window-height="1017"
     inkscape:window-x="-8"
     inkscape:window-y="-8"
     inkscape:window-maximized="1"
     inkscape:lockguides="false" />
  <metadata
     id="metadata5">
    <rdf:RDF>
      <cc:Work
         rdf:about="">
        <dc:format>image/svg+xml</dc:format>
        <dc:type
           rdf:resource="http://purl.org/dc/dcmitype/StillImage" />
        <dc:title></dc:title>
      </cc:Work>
    </rdf:RDF>
  </metadata>
  <g
     inkscape:label="Layer 1"
     inkscape:groupmode="layer"
     id="layer1"
     transform="translate(0,544)">
    <g
       id="g1697"
       style="stroke:#000000;stroke-opacity:1;stroke-width:0.35277778;stroke-miterlimit:4;stroke-dasharray:none">
      <path
         sodipodi:nodetypes="cssssssssccc"
         inkscape:connector-curvature="0"
         id="rect1626"
         d="m 471.5631,-466.74276 19.28054,3e-4 c 1.662,3e-5 3,1.338 3,3 v 237.64723 c 0,1.662 -1.338,3 -3,3 H 123.19643 c -1.662,0 -3,-1.338 -3,-3 v -237.64723 c 0,-1.662 1.33803,-3.00978 3,-3 l 19.22501,0.1131 m 25.74722,0 277.64722,-0.1134"
         style="opacity:1;fill:none;fill-opacity:0.28372097;stroke:#000000;stroke-width:0.35277778;stroke-miterlimit:4;stroke-dasharray:none;stroke-opacity:1" />
      <path
         id="path1024"
         d="m 451.02217,-243.16723 c -0.11802,0.0569 -0.0229,0.32459 -0.0217,0.38247 0.005,0.29491 -0.12934,0.48234 -0.14672,0.51918 -0.0852,0.18048 -3.7e-4,0.17474 -0.39365,0.56757 -0.41679,0.41675 -0.56438,0.33725 -0.59063,0.41299 -0.0158,0.0453 0.0947,0.17599 0.20136,0.31304 0.0277,0.0357 0.58089,0.73703 0.62811,0.7974 0.51303,0.65684 0.42023,0.53427 0.42516,0.65563 l -1.60541,1.20782 c -0.44838,0.33767 -0.46175,0.34935 -0.49947,0.34528 -0.055,-0.005 -0.14788,-0.14676 -0.98746,-1.1997 -0.011,-0.013 -0.83008,-1.04416 -1.17434,-1.47778 -0.0265,-0.0335 -0.54537,-0.67851 -0.75247,-0.93685 -0.1705,-0.21285 -0.24396,-0.30667 -0.79885,-0.99757 -0.30879,-0.38562 -0.40189,-0.50101 -0.40917,-0.51013 -0.0192,-0.0238 -0.19486,-0.24455 -1.06826,-1.34332 l -0.13084,-0.16486 -1.20889,-1.51316 c -0.15942,-0.20025 -0.32534,-0.40899 -0.49851,-0.6255 -0.59801,-0.74901 -0.70004,-0.87422 -0.73186,-0.91545 -0.13673,-0.17687 -0.0957,-0.14345 -0.10152,-0.23565 3.34946,-2.57026 2.29618,-1.76209 4.74033,-3.63653 0.51482,-0.39486 0.39932,-0.30608 0.49088,-0.37633 l 1.85304,-1.42412 c 1.48827,-1.14391 1.48895,-1.14303 1.50231,-1.15329 l 1.79869,-1.3828 1.97535,-1.52104 1.87294,-1.434 1.43279,-1.10405 c 0.23332,-0.18002 3.00951,-2.31342 3.09209,-2.37674 0.18366,-0.14089 0.55637,-0.42903 1.42388,-1.09525 0.8495,-0.65225 0.7552,-0.57976 0.84952,-0.65239 l 2.09138,-1.61024 1.20004,-0.92098 c 0.34916,-0.26725 -0.0538,0.0372 0.77729,-0.59604 0.18157,-0.13817 0.5432,-0.41668 1.19937,-0.91769 1.00398,-0.76749 0.95683,-0.73126 0.96547,-0.7379 0.42934,-0.32304 0.36887,-0.26241 0.41506,-0.28526 0.1271,0.0925 0.24772,0.27614 1.07627,1.40438 0.0498,0.0684 0.64227,0.87945 0.6601,0.9034 0.20061,0.27012 -0.046,-0.0671 0.72641,0.98119 0.007,0.009 0.69853,0.94274 0.75539,1.02001 l 1.05173,1.42573 c 0.0611,0.083 0.49554,0.67405 0.50915,0.69247 0.007,0.009 0.55778,0.75396 0.69741,0.94236 0.63386,0.8548 0.53393,0.73882 0.65183,0.84113 0.69147,-0.4198 1.06869,-0.86599 1.23256,-0.84069 0.0851,0.0128 0.0916,0.064 0.48767,0.60216 0.07,0.0948 0.88704,1.19857 0.92776,1.25463 0.15472,0.21403 0.19256,0.26327 0.18918,0.30641 -0.006,0.0753 -0.0811,0.11801 -0.82124,0.6715 l -1.29826,0.97119 c -0.17453,0.12997 -1.2588,0.94517 -2.30342,1.72808 l -1.62424,1.21728 c -0.49265,0.36895 -0.46946,0.32667 -0.47394,0.32914 -0.26327,-0.25155 -1.13783,-1.55332 -1.36166,-1.74561 -0.33845,0.21832 0.082,0.12747 -0.79348,0.60155 -0.68308,0.37001 -0.41172,0.10627 -0.84566,0.20233 0.0149,0.0248 0.15596,0.24709 0.15782,0.24898 0.008,0.008 0.33786,0.18992 0.48895,0.33215 0.30123,0.28362 0.39706,0.60553 0.40871,0.63713 0.008,0.0235 0.2976,0.64812 -0.15884,1.38757 -0.45697,0.74054 -1.34796,0.83799 -1.73485,0.73062 -0.69422,-0.19284 -1.18087,-0.74759 -1.22433,-1.37656 -0.0981,0.0518 -0.11594,0.0434 -1.43846,1.05351 -0.8476,0.64731 -0.51323,0.59755 -0.90835,0.81153 -0.82208,0.44502 -0.59764,0.34419 -1.08278,0.34666 0.0306,0.0454 0.009,0.0239 0.12615,0.18041 l 0.84005,1.11176 c 0.50952,0.67398 0.51928,0.63175 0.49737,0.73609 -0.0215,0.10231 -0.22421,0.20303 -0.70625,0.5663 l -1.30773,0.98542 c -0.0722,0.0545 -0.11856,0.087 -0.14841,0.0822 -0.0978,-0.0154 -0.6891,-0.91873 -1.38965,-1.73812 -0.22182,0.14688 -1.24306,0.91251 -1.40779,1.05689 1.40851,1.90073 1.31333,1.59305 1.2998,1.84331 -1.07685,0.7706 -2.34154,1.81529 -3.12644,2.10898 -0.21865,0.0818 -1.00425,0.39756 -1.87607,-0.002 -0.74538,-0.3413 -1.13422,-0.94136 -1.29671,-1.11163 -0.0713,0.57201 0.10703,0.15901 -0.33384,1.04719 -0.2627,0.52927 0.0433,-0.0276 -0.48748,0.55482 -0.003,0.004 -0.14174,0.20992 -0.43361,0.38384 -0.94367,0.5624 -0.73219,0.37151 -1.2493,0.49395 -0.45207,0.10694 -0.73078,-0.0556 -0.76767,-0.0378 z"
         inkscape:connector-curvature="0"
         style="fill:none;fill-opacity:1;stroke:#000000;stroke-width:0.35277778;stroke-linecap:round;stroke-linejoin:round;stroke-opacity:1;stroke-miterlimit:4;stroke-dasharray:none" />
      <g
         id="g1668"
         transform="translate(500.06249,-100.33244)"
         style="stroke:#000000;stroke-opacity:1;stroke-width:0.35277778;stroke-miterlimit:4;stroke-dasharray:none">
        <path
           sodipodi:nodetypes="cssssc"
           inkscape:connector-curvature="0"
           id="rect1628"
           d="m -331.89383,-366.29692 v 7.67193 c 0,0.554 -0.446,1 -1,1 h -23.74722 c -0.554,0 -1,-0.446 -1,-1 v -7.67193"
           style="opacity:1;fill:none;fill-opacity:0.28372097;stroke:#000000;stroke-width:0.35277778;stroke-miterlimit:4;stroke-dasharray:none;stroke-opacity:1" />
        <path
           sodipodi:nodetypes="cssssc"
           inkscape:connector-curvature="0"
           id="rect1628-2"
           d="m -28.49939,-366.41032 v 7.78533 c 0,0.554 -0.446,1 -1,1 h -23.747223 c -0.554,0 -1,-0.446 -1,-1 v -7.78533"
           style="opacity:1;fill:none;fill-opacity:0.28372097;stroke:#000000;stroke-width:0.35277778;stroke-miterlimit:4;stroke-dasharray:none;stroke-opacity:1" />
      </g>
      <g
         style="stroke-width:0.32344222;stroke:#000000;stroke-opacity:1;stroke-miterlimit:4;stroke-dasharray:none"
         id="layer1-7"
         inkscape:label="Layer 1"
         transform="matrix(-1.0894837,0,0,-1.0919136,238.37528,-40.232567)">
        <path
           style="fill:none;fill-opacity:1;stroke:#000000;stroke-width:0.32344222;stroke-linecap:round;stroke-linejoin:round;stroke-miterlimit:4;stroke-dasharray:none;stroke-opacity:1"
           inkscape:connector-curvature="0"
           id="path8-5-9"
           d="m 44.024517,188.27715 c -0.0602,0.10687 -0.210902,0.35236 -0.3738,0.72748 0,0 -0.350901,0.87646 -0.459402,1.17181 0,0 -0.651298,1.82965 -1.178499,3.69653 -0.0413,0.14631 -0.582099,2.05439 -0.701201,2.95874 -0.02151,0.16376 -0.0435,0.27607 -0.0185,0.55011 l 0.0302,0.0468 c 0.493699,0.0564 0.494498,0.0547 0.990999,0.0733 0.4113,0.0154 0.9598,0.0334 1.371201,0.0451 0,0 2.320999,0.0563 4.642289,0.0867 6.253202,0.0821 31.268093,0.17395 41.690883,0.21454 0.9245,-0.57197 1.4689,-0.86567 1.991,-1.36841 0.4066,-0.39154 0.6135,-0.7403 0.6992,-0.88636 0.2618,-0.4461 0.4949,-1.06469 0.552,-1.99395 0.005,-0.0748 0.0572,-0.83325 -0.0618,-1.49677 -0.006,-0.0323 -0.0533,-0.33636 -0.2228,-0.61725 -0.1742,-0.28857 -0.402,-0.48486 -0.6619,-0.69946 0,0 -0.9127,-0.71863 -0.9607,-0.75647 -20.95059,-0.25214 -20.95059,-0.25604 -41.902182,-0.40436 0.0503,-0.13415 0.298302,-0.80707 0.319,-0.90033 0.01029,-0.0466 0.0463,-0.28112 -0.0455,-0.47546 -0.125598,-0.26593 -0.4953,-0.4856 -1.012399,-0.59943 -0.283099,-0.0623 -0.961591,-0.16009 -1.927691,-0.13788 -0.0844,0.002 -1.1855,0.0347 -1.683999,0.125 0,0 -0.382201,0.0745 -0.5653,0.17029 -0.245999,0.12879 -0.2911,0.20124 -0.511099,0.46973" />
      </g>
    </g>
  </g>
</svg>
