<?xml version="1.0" encoding="UTF-8" standalone="no"?>
<!-- exported from Silhouette Studio Business Edition V4.1.206ssbe -->

<svg
   xmlns:dc="http://purl.org/dc/elements/1.1/"
   xmlns:cc="http://creativecommons.org/ns#"
   xmlns:rdf="http://www.w3.org/1999/02/22-rdf-syntax-ns#"
   xmlns:svg="http://www.w3.org/2000/svg"
   xmlns="http://www.w3.org/2000/svg"
   xmlns:sodipodi="http://sodipodi.sourceforge.net/DTD/sodipodi-0.dtd"
   xmlns:inkscape="http://www.inkscape.org/namespaces/inkscape"
   version="1.1"
   width="304.8mm"
   height="1000mm"
   viewBox="0 0 304.8 1000"
   id="svg20"
   sodipodi:docname="W520lid.svg"
   inkscape:version="0.92.3 (2405546, 2018-03-11)">
  <metadata
     id="metadata24">
    <rdf:RDF>
      <cc:Work
         rdf:about="">
        <dc:format>image/svg+xml</dc:format>
        <dc:type
           rdf:resource="http://purl.org/dc/dcmitype/StillImage" />
      </cc:Work>
    </rdf:RDF>
  </metadata>
  <sodipodi:namedview
     pagecolor="#ffffff"
     bordercolor="#666666"
     borderopacity="1"
     objecttolerance="10"
     gridtolerance="10"
     guidetolerance="10"
     inkscape:pageopacity="0"
     inkscape:pageshadow="2"
     inkscape:window-width="1680"
     inkscape:window-height="887"
     id="namedview22"
     showgrid="false"
     inkscape:zoom="0.49953333"
     inkscape:cx="994.33255"
     inkscape:cy="2942.1168"
     inkscape:window-x="0"
     inkscape:window-y="28"
     inkscape:window-maximized="1"
     inkscape:current-layer="svg20"
     showguides="true"
     inkscape:guide-bbox="true" />
  <defs
     id="defs2" />
  <g
     id="g921">
    <g
       id="g8"
       style="stroke:#000000;stroke-width:0.2;stroke-miterlimit:4;stroke-dasharray:none;stroke-opacity:1">
      <path
         id="path4"
         d="m 283.404,117.3626 -0.002,-17.2441 -0.003,-1.31157 c 0,0 0.0188,-0.57982 -0.1285,-1.12801 -0.2284,-0.85007 -0.8523,-1.94687 -2.2349,-2.72059 -0.195,-0.1091 -1.0134,-0.56044 -2.1217,-0.69919 -0.8183,-0.10243 -3.573,-0.07547 -5.4971,-0.07219 -11.1814,0.01905 -223.63058,0.0038 -223.63058,0.0038 0,0 -1.94328,0.0086 -2.04556,0.009 -0.50427,0.0022 -1.41853,-0.0192 -2.0155,0.07981 -0.84759,0.14059 -2.1094,0.5516 -3.07955,1.52552 -0.14756,0.14814 -0.79633,0.78159 -1.08805,1.78552 -0.17629,0.60667 -0.15421,1.16669 -0.15421,1.79847 0,0.32757 0,6.22379 0,6.55129 v 263.271 c 0,0 10e-6,53.1269 0,66.4085 0,0 -0.01016,22.1575 0.0014,23.3237 0,0 0.0076,0.7711 0.0085,0.8568 0.0019,0.1959 0.01463,0.5465 0.13579,0.9705 0,0 0.13544,0.3941 0.14351,0.4144 0,0 0.11029,0.2438 0.17957,0.3698 0.06725,0.1225 0.34194,0.6288 0.84915,1.1088 0.2819,0.2668 0.82406,0.7161 1.62897,1.0548 0.90653,0.3815 1.5514,0.4579 2.41172,0.4787 h 23.43093 c 2.56014,0 40.96231,0 51.20291,0 0,0 108.8842,0 114.6149,0 h 24.2055 c 0,0 12.5428,-0.002 13.2028,0 0,0 2.0781,0.0223 3.1971,0.0154 0.3617,-0.002 1.6949,0.0215 2.4094,-0.0912 0.0448,-0.007 0.4491,-0.0728 0.882,-0.2058 0.0692,-0.0213 0.7083,-0.2064 1.3229,-0.5893 0.1433,-0.0893 0.7419,-0.4543 1.2693,-1.1135 0.0504,-0.063 0.5305,-0.6504 0.7544,-1.4246 0.023,-0.0798 0.1105,-0.4053 0.1324,-0.8198 0.004,-0.0783 0.0168,-0.7838 0.0168,-1.5678 0,0 0,-2.8397 0,-3.1553 0,0 0,-12.7786 0,-14.1985"
         style="fill:none;fill-opacity:1;stroke:#000000;stroke-width:0.2;stroke-linecap:round;stroke-linejoin:round;stroke-miterlimit:4;stroke-dasharray:none;stroke-opacity:1"
         inkscape:connector-curvature="0" />
      <path
         id="path6"
         d="M 283.404,418.2574 V 140.0669"
         style="fill:none;fill-opacity:1;stroke:#000000;stroke-width:0.2;stroke-linecap:round;stroke-linejoin:round;stroke-miterlimit:4;stroke-dasharray:none;stroke-opacity:1"
         inkscape:connector-curvature="0" />
    </g>
    <path
       inkscape:connector-curvature="0"
       id="path10"
       d="m 60.566406,112.5293 c -0.12361,0.0137 -0.246947,0.0633 -0.363281,0.17187 -0.146357,0.13664 -0.188105,0.3119 -0.255859,0.55078 -0.08697,0.30669 -0.100134,0.4014 -0.144532,0.79493 -0.02887,0.25578 -0.05561,0.59578 -0.07031,0.85156 -0.01799,0.3127 -0.0649,1.96888 -0.103516,4.23828 -0.03862,2.2694 -0.06886,5.14333 -0.05273,7.86719 0.006,1.01001 0.02508,2.72991 0.07227,4.34765 0.04718,1.61774 0.120646,3.12234 0.242187,3.74024 a 0.10001,0.10001 0 0 0 0.002,0.0117 c 0,0 0.104946,0.31746 0.158203,0.63867 0.02295,0.1383 0.04509,0.32775 0.05664,0.46875 0.0032,0.0391 0.03171,0.48126 -0.02148,0.95508 -0.114536,1.01997 -0.427984,1.49761 -0.544922,2.55078 -0.007,0.0628 -0.06049,0.60498 -0.03711,1.10547 0.02692,0.5763 0.08972,0.96456 0.275391,1.90039 0.111662,0.56281 0.465462,2.08839 0.550781,2.77734 0.01259,0.10169 0.07116,0.44719 0.01563,0.88086 -0.01909,0.14917 -0.02493,0.28217 -0.179687,0.50781 0.0067,-0.01 -0.01986,0.0253 -0.04687,0.0606 -0.02702,0.0352 -0.06122,0.0803 -0.0957,0.125 -0.06898,0.0895 -0.136719,0.17773 -0.136719,0.17773 a 0.10001,0.10001 0 0 0 -0.0098,0.0156 c 0,0 -0.182798,0.36705 -0.269531,0.70117 -0.04083,0.15736 -0.153235,0.733 -0.185547,1.47266 -0.01311,0.29989 -0.02021,0.75997 0.07813,1.50195 3.53e-4,0.004 0.06462,0.68447 0.300781,1.32812 0.07211,0.19652 0.175107,0.44716 0.41211,0.74805 0.181147,0.23006 0.416186,0.46995 0.511718,0.75391 0.05212,0.15482 0.05745,0.25584 0.0078,0.53906 -0.09161,0.52274 -0.287953,0.9493 -0.480469,1.46484 0,0 -0.309289,0.8491 -0.363281,1.01172 -0.108743,0.32743 -0.205817,0.66405 -0.292969,1.11719 -0.01371,0.0713 -0.13598,0.73229 -0.162109,1.3457 -0.05641,1.3244 0.282141,2.62451 0.363281,2.91016 4.41e-4,0.002 0.255806,1.02518 0.867187,1.85547 0.108537,0.14735 0.587524,0.81074 1.433594,1.25195 0.240495,0.12538 0.9282,0.44851 1.744141,0.44727 0.158081,-2.1e-4 0.579403,-0.0156 1.025391,-0.16407 0.255789,-0.085 0.511949,-0.21013 0.794921,-0.42968 0.335223,-0.26 0.466946,-0.43604 0.642579,-0.71094 0.137036,-0.21447 0.299433,-0.49977 0.404296,-0.95117 0.08877,-0.38213 0.15226,-0.95849 0.195313,-1.91211 0.0088,-0.19519 0.09161,-2.1338 0.06641,-3.88281 0,0 -0.0049,-1.69015 -0.175781,-3.3711 -0.01365,-0.13437 -0.05409,-0.48627 -0.103516,-0.84961 -0.04943,-0.36333 -0.105482,-0.7313 -0.158203,-0.91797 a 0.10001,0.10001 0 0 0 -0.002,-0.006 c 0,0 -0.146596,-0.40314 -0.203125,-0.66796 -0.0461,-0.21604 -0.05873,-0.29544 -0.03906,-0.60938 0.02054,-0.32804 0.02571,-0.38475 0.13086,-0.69336 0.0016,-0.004 0.195402,-0.48885 0.304687,-1.00586 0.207348,-0.9811 0.245922,-2.56962 0.222657,-3.94922 a 0.10001,0.10001 0 0 0 0,-0.002 c 0,0 -0.166149,-6.18042 -0.171875,-6.49414 0,0 -0.04543,-3.16585 -0.02539,-6.33008 0,0 0.01827,-2.5771 0.06836,-5.37891 0.05009,-2.8018 0.134856,-5.84258 0.259766,-6.71679 0.004,-0.0283 0.02128,-0.16525 0.06055,-0.34375 0.03927,-0.1785 0.101504,-0.39388 0.18164,-0.55078 0.0015,-0.003 0.07898,-0.13826 0.189454,-0.20508 0.102554,-0.062 0.259236,-0.0675 0.474609,-0.0918 0.14539,-0.0165 0.342082,-0.0339 0.490234,-0.0488 l 0.982422,-0.0996 a 0.10001,0.10001 0 0 0 0.04883,-0.0176 l 0.08203,-0.0586 a 0.10001,0.10001 0 0 0 0.0293,-0.0332 c 0.01828,-0.0328 0.05725,-0.085 0.08203,-0.15039 0.02489,-0.0656 0.03083,-0.13268 0.03906,-0.16992 0.02023,-0.0915 0.04877,-0.21485 0.06836,-0.31055 v -0.002 c 4.5e-4,-0.002 0.09844,-0.45145 0.125,-0.83594 0.01549,-0.22407 0.0078,-0.8418 0.0078,-0.8418 1.37e-4,-0.11875 0.01008,-0.28385 0.0059,-0.41406 -0.0087,-0.27079 -0.05545,-0.53469 -0.103515,-0.75781 0,0 -0.07802,-0.54633 -0.439453,-0.92774 -0.20978,-0.22137 -0.476819,-0.36215 -0.701172,-0.47461 a 0.10001,0.10001 0 0 0 -0.0059,-0.006 c -0.0033,-0.002 -0.0065,-0.006 -0.0098,-0.008 a 0.10001,0.10001 0 0 0 -0.01367,-0.008 0.10001,0.10001 0 0 0 -0.0039,-0.002 0.10001,0.10001 0 0 0 -0.0039,-0.002 0.10001,0.10001 0 0 0 -0.002,0 0.10001,0.10001 0 0 0 -0.01758,-0.006 c -5.31e-4,-1.9e-4 -0.0034,2e-4 -0.0039,0 -0.741944,-0.26794 -2.465866,-0.93584 -5.037109,-1.4375 -0.114167,-0.0222 -1.486261,-0.29034 -2.314454,-0.33398 a 0.10001,0.10001 0 0 0 -0.0039,0 l -0.318359,-0.004 c -0.154615,-0.002 -0.27678,-0.0176 -0.400391,-0.004 z m 0.02148,0.19922 c 0.09176,-0.0102 0.212988,0.002 0.376953,0.004 l 0.314453,0.004 c 0.795681,0.0419 2.169209,0.30751 2.285156,0.33008 2.560734,0.4996 4.273512,1.16242 5.019531,1.43164 3.45e-4,1.2e-4 0.0016,0.002 0.002,0.002 0.224626,0.11173 0.483421,0.2523 0.671874,0.45117 0.304189,0.321 0.386719,0.82031 0.386719,0.82031 a 0.10001,0.10001 0 0 0 0,0.008 c 0.04705,0.21763 0.09141,0.47416 0.09961,0.72851 0.0038,0.11597 -0.0038,0.28029 -0.0039,0.40821 0,0 0.0055,0.63403 -0.0078,0.82617 -0.02498,0.36163 -0.121094,0.80859 -0.121094,0.80859 a 0.10001,0.10001 0 0 0 0,0.002 c -0.0186,0.0911 -0.04755,0.21446 -0.06836,0.3086 -0.01237,0.056 -0.02228,0.117 -0.03125,0.14062 -0.0072,0.0191 -0.03457,0.0625 -0.05859,0.10352 l -0.04297,0.0312 -0.955078,0.0977 c -0.146648,0.0148 -0.345091,0.0339 -0.49414,0.0508 -0.202567,0.0229 -0.387303,0.016 -0.554688,0.11718 -0.175118,0.10593 -0.263672,0.28516 -0.263672,0.28516 a 0.10001,0.10001 0 0 0 -0.002,0.002 c -0.09448,0.185 -0.156073,0.41041 -0.197266,0.59766 -0.04119,0.18725 -0.0617,0.34014 -0.06445,0.35937 -0.132109,0.9246 -0.211607,3.93905 -0.261718,6.74219 -0.05011,2.80315 -0.06641,5.38086 -0.06641,5.38086 -0.02006,3.16697 0.02344,6.33203 0.02344,6.33203 a 0.10001,0.10001 0 0 0 0,0.002 c 0.0061,0.33607 0.173828,6.49609 0.173828,6.49609 0.02315,1.373 -0.01948,2.9614 -0.21875,3.9043 -0.105027,0.49687 -0.296875,0.97656 -0.296875,0.97656 a 0.10001,0.10001 0 0 0 -0.002,0.006 c -0.107391,0.31519 -0.119988,0.41458 -0.140625,0.74414 -0.02019,0.32226 -0.0041,0.4437 0.04297,0.66406 0.06241,0.29238 0.210938,0.69531 0.210938,0.69531 0.04335,0.15636 0.101755,0.52533 0.150391,0.88282 0.04907,0.36069 0.08839,0.71217 0.101562,0.84179 0.169544,1.66785 0.175781,3.35352 0.175781,3.35352 0.02508,1.74058 -0.05778,3.67908 -0.06641,3.87109 -0.04281,0.94818 -0.107897,1.51748 -0.191406,1.87696 -0.09892,0.4258 -0.246563,0.68154 -0.378906,0.88867 -0.172568,0.2701 -0.273886,0.41055 -0.595704,0.66015 -0.266067,0.20645 -0.495624,0.31712 -0.734374,0.39649 -0.413933,0.13776 -0.818892,0.15606 -0.962891,0.15625 -0.76236,0.001 -1.426339,-0.30796 -1.652344,-0.42578 -0.80079,-0.4176 -1.251578,-1.04171 -1.363281,-1.19336 -0.58083,-0.7888 -0.835938,-1.78711 -0.835938,-1.78711 a 0.10001,0.10001 0 0 0 0,-0.004 c -0.07742,-0.27255 -0.41213,-1.56325 -0.357422,-2.84765 0.02525,-0.59279 0.146572,-1.25591 0.158204,-1.31641 0.08537,-0.44386 0.179912,-0.76902 0.287109,-1.0918 0.04719,-0.14213 0.360253,-1.00094 0.361328,-1.0039 v -0.002 c 0.189158,-0.5063 0.393534,-0.94623 0.490235,-1.49804 0.05198,-0.29658 0.04489,-0.45695 -0.01563,-0.63672 -0.115347,-0.34285 -0.373415,-0.59912 -0.542968,-0.81446 -0.221577,-0.2813 -0.313062,-0.50327 -0.382813,-0.69336 -0.224894,-0.61294 -0.289062,-1.2832 -0.289062,-1.2832 a 0.10001,0.10001 0 0 0 0,-0.004 c -0.0968,-0.73042 -0.09096,-1.17114 -0.07813,-1.46485 0.03161,-0.72355 0.146934,-1.30735 0.179687,-1.43359 0.07801,-0.30051 0.254951,-0.65636 0.25586,-0.6582 2e-6,-1e-5 0,-0.002 0,-0.002 0.01033,-0.0134 0.06197,-0.0784 0.125,-0.16015 0.03454,-0.0448 0.07044,-0.0915 0.09766,-0.12696 0.02722,-0.0355 0.03947,-0.0491 0.05273,-0.0684 0.176243,-0.25696 0.194842,-0.45467 0.212891,-0.5957 0.05956,-0.46513 -0.006,-0.85353 -0.01563,-0.93164 -0.08912,-0.71965 -0.443417,-2.24003 -0.552735,-2.79102 -0.185306,-0.93397 -0.246996,-1.305 -0.273437,-1.87109 -0.02238,-0.47912 0.03207,-1.0288 0.03711,-1.07422 0.113282,-1.02023 0.426698,-1.496 0.544922,-2.54883 0.05559,-0.49518 0.02626,-0.93623 0.02148,-0.99414 -0.01205,-0.1472 -0.03425,-0.33963 -0.05859,-0.48633 -0.05563,-0.33551 -0.15852,-0.64531 -0.162109,-0.65625 v -0.006 c -0.111974,-0.5728 -0.189291,-2.08851 -0.236329,-3.70118 -0.04711,-1.6152 -0.06629,-3.33496 -0.07227,-4.34375 -0.01611,-2.72154 0.01414,-5.59498 0.05273,-7.86328 0.0386,-2.2683 0.0848,-3.93917 0.101563,-4.23047 0.0145,-0.25222 0.04214,-0.58827 0.07031,-0.83789 0.0443,-0.39267 0.05294,-0.46136 0.138672,-0.76367 0.06839,-0.24111 0.102436,-0.36863 0.199219,-0.45898 0.09073,-0.0847 0.156282,-0.10896 0.248047,-0.11914 z"
       style="color:#000000;font-style:normal;font-variant:normal;font-weight:normal;font-stretch:normal;font-size:medium;line-height:normal;font-family:sans-serif;font-variant-ligatures:normal;font-variant-position:normal;font-variant-caps:normal;font-variant-numeric:normal;font-variant-alternates:normal;font-feature-settings:normal;text-indent:0;text-align:start;text-decoration:none;text-decoration-line:none;text-decoration-style:solid;text-decoration-color:#000000;letter-spacing:normal;word-spacing:normal;text-transform:none;writing-mode:lr-tb;direction:ltr;text-orientation:mixed;dominant-baseline:auto;baseline-shift:baseline;text-anchor:start;white-space:normal;shape-padding:0;clip-rule:nonzero;display:inline;overflow:visible;visibility:visible;opacity:1;isolation:auto;mix-blend-mode:normal;color-interpolation:sRGB;color-interpolation-filters:linearRGB;solid-color:#000000;solid-opacity:1;vector-effect:none;fill:#000000;fill-opacity:1;fill-rule:nonzero;stroke:none;stroke-width:0.2;stroke-linecap:round;stroke-linejoin:round;stroke-miterlimit:4;stroke-dasharray:none;stroke-dashoffset:0;stroke-opacity:1;color-rendering:auto;image-rendering:auto;shape-rendering:auto;text-rendering:auto;enable-background:accumulate" />
    <path
       inkscape:connector-curvature="0"
       id="path12"
       d="m 65.458984,415.07617 c -0.167435,-0.048 -0.371471,-0.0601 -0.689453,0.0293 -0.252453,0.0711 -0.499414,0.19779 -0.763672,0.41601 -0.07542,0.0622 -0.351223,0.3166 -0.53125,0.65821 0,0 -0.12946,0.23988 -0.197265,0.50781 -0.05261,0.20786 -0.05459,0.34775 -0.06055,0.42188 -0.0024,0.0297 -0.0013,0.059 -0.0098,0.10937 -0.0084,0.0498 -0.0265,0.11152 -0.05859,0.17187 -3.28e-4,6.2e-4 3.3e-4,10e-4 0,0.002 -0.01054,0.0153 -0.167755,0.24359 -0.19336,0.2793 -0.06589,0.0918 -0.200818,0.29294 -0.425781,0.5625 -0.315596,0.3782 -0.826285,0.92403 -1.767578,1.73437 v -0.002 c 0,0 -1.105763,0.92939 -1.16211,0.97656 -0.07188,0.0603 -1.474609,1.23437 -1.474609,1.23437 a 0.10001,0.10001 0 0 0 -0.002,0 c -0.03894,0.0342 -0.354588,0.32087 -0.560547,0.57618 -0.196102,0.24316 -0.460724,0.49902 -0.455078,0.86914 0.0037,0.24393 0.130144,0.43385 0.253906,0.60742 0.09032,0.1266 0.216738,0.28284 0.306641,0.40039 0.09132,0.11928 0.213332,0.27912 0.304687,0.39844 0.09133,0.11928 0.213362,0.27913 0.304688,0.39843 0.09133,0.1193 0.211413,0.27719 0.302734,0.39649 0.09137,0.11943 0.213353,0.27914 0.304688,0.39844 l 0.609375,0.79492 c 0,0 0.867979,1.13322 0.914062,1.19336 l 2.130859,2.7832 c 0,0 7.735456,10.10673 8.142579,10.63867 0.477457,0.62381 2.688253,3.54391 3.210937,4.15625 0,0 0.436766,0.51942 0.9375,0.98047 0.01515,0.014 0.172473,0.15727 0.28711,0.23828 a 0.10001,0.10001 0 0 0 0,0.002 c 0,0 0.03284,0.0212 0.06641,0.0449 0.03357,0.0237 0.0754,0.0545 0.07031,0.0508 0.114506,0.0825 0.159248,0.10451 0.28125,0.13867 a 0.10001,0.10001 0 0 0 0.03516,0.002 c 0.03089,-0.002 0.08581,10e-4 0.146485,-0.0137 a 0.10001,0.10001 0 0 0 0.002,0 c 0.06781,-0.0169 0.121151,-0.05 0.154297,-0.0644 l 0.002,-0.002 c 0.003,-10e-4 0.184073,-0.0717 0.289062,-0.12305 0.739069,-0.36098 2.004605,-1.33381 2.214844,-1.49414 a 0.10001,0.10001 0 0 0 0,-0.002 c 0,0 1.250833,-0.96741 2.259766,-1.7793 0.257385,-0.20716 0.507067,-0.41539 1.037109,-0.80078 0.161311,-0.11726 1.726563,-1.21094 1.726563,-1.21094 a 0.10001,0.10001 0 0 0 0.0039,-0.002 c 0.133719,-0.0998 0.329822,-0.28491 0.578125,-0.52735 0.04217,-0.0412 0.110572,-0.0982 0.185547,-0.2207 v -0.002 c 0.0011,-0.002 0.115007,-0.17173 0.158203,-0.33008 0.03981,-0.14595 0.0905,-0.4183 -0.04492,-0.77539 -0.143744,-0.37908 -0.470052,-0.80589 -0.494141,-0.83789 a 0.10001,0.10001 0 0 0 -0.002,-0.004 c -1.31e-4,-1.7e-4 -0.0018,-0.006 -0.002,-0.006 a 0.10001,0.10001 0 0 0 -0.01367,-0.0215 0.10001,0.10001 0 0 0 -0.002,-0.004 0.10001,0.10001 0 0 0 -0.0039,-0.004 0.10001,0.10001 0 0 0 0,-0.002 c -0.0024,-0.003 -0.0035,-0.003 -0.0059,-0.006 a 0.10001,0.10001 0 0 0 -0.0078,-0.006 c -0.143312,-0.1557 -0.183279,-0.20203 -0.394531,-0.33984 -0.07255,-0.0473 -0.287655,-0.16294 -0.34961,-0.19141 -0.331224,-0.15232 -0.694931,-0.20989 -0.998046,-0.23242 a 0.10001,0.10001 0 0 0 -0.0098,0 c 0,0 -0.113268,0.002 -0.255859,-0.004 -0.142592,-0.006 -0.315525,-0.022 -0.416016,-0.0508 -0.01247,-0.005 -0.310046,-0.12388 -0.384766,-0.16406 -0.180835,-0.0974 -0.285824,-0.20043 -0.457031,-0.38086 -0.006,-0.006 -0.257926,-0.2884 -0.371094,-0.44922 l -0.002,-0.002 c -0.0109,-0.0157 -0.08725,-0.13137 -0.1875,-0.29492 -0.101025,-0.16481 -0.228209,-0.38269 -0.353515,-0.61719 a 0.10001,0.10001 0 0 0 -0.002,-0.002 c 0,0 -0.355311,-0.63706 -0.572265,-1.31836 -0.07182,-0.22559 -0.234166,-0.82784 -0.224609,-1.15821 0.0013,-0.0465 0.02137,-0.14894 0.03906,-0.26757 0.01769,-0.11863 0.0321,-0.25746 0.01367,-0.40235 -0.0096,-0.0758 -0.04638,-0.24114 -0.117188,-0.45703 -0.07081,-0.21588 -0.173659,-0.47588 -0.320312,-0.71875 -0.08708,-0.14422 -0.358012,-0.56116 -0.6875,-0.86719 -0.09863,-0.0916 -0.400428,-0.333 -0.675781,-0.44531 -0.158414,-0.0646 -0.294567,-0.0498 -0.458985,-0.041 a 0.10001,0.10001 0 0 0 -0.002,0 c -0.02858,0.002 -0.09575,0.009 -0.208984,0.0156 -0.113235,0.006 -0.261202,0.0115 -0.416016,0.006 0,0 -0.09798,-0.004 -0.179687,-0.006 a 0.10001,0.10001 0 0 0 -0.01172,0 c 0,0 -0.186154,0.0115 -0.335938,-0.0488 -0.05383,-0.0217 -0.117472,-0.0575 -0.167968,-0.15234 -0.04904,-0.0922 -0.05098,-0.28 0.01758,-0.53125 0.0036,-0.0107 0.165884,-0.49664 0.177734,-0.5332 0.225518,-0.694 0.149119,-1.16593 -0.03711,-1.5 -0.08165,-0.14664 -0.266553,-0.40486 -0.603516,-0.56446 -0.05687,-0.0269 -0.190733,-0.0782 -0.36914,-0.13086 -0.178408,-0.0526 -0.395733,-0.10459 -0.59961,-0.11914 a 0.10001,0.10001 0 0 0 -0.0098,0 c 0,0 -0.236689,0.007 -0.423828,-0.008 0,0 -0.351532,-0.0323 -0.558593,-0.0898 -0.02196,-0.006 -0.07316,-0.0181 -0.154297,-0.0508 -0.08114,-0.0327 -0.182086,-0.0835 -0.273438,-0.15429 -0.180705,-0.13996 -0.345886,-0.32102 -0.492187,-0.76758 -0.111401,-0.34013 -0.142902,-0.59493 -0.179688,-1.01172 -9.75e-4,-0.011 -0.008,-0.12553 -0.01758,-0.27734 -0.0096,-0.15182 -0.02134,-0.34642 -0.0332,-0.53907 -0.02373,-0.38529 -0.04687,-0.76171 -0.04687,-0.76171 a 0.10001,0.10001 0 0 0 0,-0.01 l -0.07422,-0.45508 a 0.10001,0.10001 0 0 0 -0.002,-0.008 c -0.02208,-0.0867 -0.09582,-0.33319 -0.345703,-0.51367 -0.282551,-0.20406 -0.717822,-0.23342 -1.009766,-0.27735 -0.133397,-0.0201 -0.334698,-0.0265 -0.580078,-0.10546 -0.03261,-0.0106 -0.07496,-0.0247 -0.107422,-0.0352 a 0.10001,0.10001 0 0 0 -0.002,0 c -0.01993,-0.006 -0.10013,-0.0287 -0.195312,-0.0605 -0.09518,-0.0318 -0.204361,-0.0763 -0.230469,-0.0937 -0.09828,-0.0655 -0.100697,-0.10065 -0.134766,-0.17773 -4.35e-4,-0.003 -0.0015,-0.006 -0.002,-0.0117 -0.0016,-0.0177 -0.0024,-0.0408 -0.002,-0.0664 7.88e-4,-0.0505 0.01019,-0.10922 0.03125,-0.14843 2.66e-4,-5e-4 -2.69e-4,-0.001 0,-0.002 0.01304,-0.0174 0.139582,-0.1842 0.164063,-0.21679 l 0.287109,-0.38086 a 0.10001,0.10001 0 0 0 0.01758,-0.0449 c -0.0017,0.0108 0.0038,-0.0117 0.0078,-0.0332 0.004,-0.0215 0.0079,-0.0506 0.01172,-0.084 0.0077,-0.0668 0.01282,-0.1529 -0.0039,-0.24024 a 0.10001,0.10001 0 0 0 -0.002,-0.01 c 0,0 -0.0569,-0.18826 -0.128906,-0.37305 -0.179689,-0.46098 -0.299377,-0.73425 -0.634766,-1.27734 -0.06209,-0.10054 -0.717928,-1.18708 -1.443359,-2.06446 h 0.002 c 0,0 -0.495863,-0.61382 -0.982422,-1.04883 -0.242135,-0.21656 -0.338605,-0.27028 -0.521484,-0.39453 -0.05402,-0.0367 -0.154446,-0.12803 -0.300782,-0.16992 z m -0.05469,0.19336 c 0.09471,0.0271 0.168519,0.0913 0.244141,0.14258 0.18774,0.12755 0.264935,0.16671 0.5,0.37695 0.466861,0.4174 0.958984,1.02735 0.958984,1.02735 0.711409,0.86042 1.358163,1.93031 1.427734,2.04297 0.330951,0.5359 0.440609,0.78807 0.619141,1.24609 0.06589,0.1691 0.11572,0.33437 0.119141,0.3457 0.01064,0.0556 0.01022,0.12478 0.0039,0.17969 -0.0032,0.0274 -0.0083,0.0521 -0.01172,0.0703 -0.0012,0.006 -0.0011,0.01 -0.002,0.0137 l -0.273438,0.36328 c -0.02577,0.0343 -0.171875,0.22852 -0.171875,0.22852 a 0.10001,0.10001 0 0 0 -0.0078,0.0117 c -0.0465,0.0844 -0.05555,0.17242 -0.05664,0.24219 -5.44e-4,0.0349 0.0018,0.065 0.0039,0.0879 0.0021,0.0229 0.0049,0.0518 0.0039,0.0371 a 0.10001,0.10001 0 0 0 0.0078,0.0332 c 0.03286,0.0727 0.07694,0.17693 0.212891,0.26758 0.07421,0.0495 0.179162,0.0837 0.279297,0.11719 0.09924,0.0332 0.192621,0.0611 0.197265,0.0625 0.03237,0.0104 0.07715,0.0228 0.109375,0.0332 a 0.10001,0.10001 0 0 0 0,0.002 c 0.273121,0.0879 0.505346,0.0954 0.611329,0.11133 0.302236,0.0455 0.717306,0.0944 0.921874,0.24219 0.195276,0.14104 0.250681,0.32463 0.269532,0.39843 6.3e-5,2.5e-4 -6.3e-5,0.002 0,0.002 l 0.07031,0.43554 c 0,0 0.02314,0.37634 0.04687,0.76172 0.01187,0.1927 0.02364,0.38708 0.0332,0.53907 0.0096,0.15198 0.01505,0.25474 0.01758,0.2832 0.03704,0.41961 0.07217,0.69857 0.189454,1.05664 0.155699,0.47524 0.355839,0.70624 0.558593,0.86328 0.111389,0.0863 0.229184,0.14409 0.322266,0.18164 0.09308,0.0376 0.171073,0.0578 0.173828,0.0586 a 0.10001,0.10001 0 0 0 0.002,0 c 0.243139,0.0676 0.59375,0.0957 0.59375,0.0957 a 0.10001,0.10001 0 0 0 0.002,0 c 0.199197,0.0153 0.425303,0.008 0.435547,0.008 0.180063,0.0129 0.386796,0.0612 0.556641,0.11133 0.169845,0.0501 0.309743,0.10488 0.339844,0.11914 0.286316,0.13561 0.446098,0.36106 0.513671,0.48242 0.159612,0.28633 0.235047,0.68459 0.02148,1.3418 -0.0055,0.017 -0.177734,0.53516 -0.177735,0.53515 a 0.10001,0.10001 0 0 0 -0.002,0.006 c -0.07454,0.27316 -0.09479,0.50316 -0.002,0.67774 0.07474,0.14037 0.18604,0.21046 0.269532,0.24414 0.208676,0.0841 0.429687,0.0625 0.429687,0.0625 0.07576,0.002 0.166016,0.006 0.166016,0.006 0.163296,0.006 0.316145,6.2e-4 0.433593,-0.006 0.117449,-0.006 0.209695,-0.0154 0.212891,-0.0156 l -0.002,0.002 c 0.169362,-0.009 0.26062,-0.0204 0.373047,0.0254 0.225787,0.0921 0.545857,0.34002 0.617187,0.40625 0.302292,0.28077 0.570348,0.69164 0.650391,0.82422 0.135647,0.22463 0.235331,0.47224 0.302734,0.67773 0.0674,0.20549 0.103714,0.37537 0.109375,0.41992 0.01473,0.11581 0.0028,0.23694 -0.01367,0.34766 -0.01651,0.11072 -0.03856,0.20623 -0.04102,0.29102 -0.0115,0.39763 0.158854,0.98739 0.234375,1.2246 0.225105,0.7069 0.58789,1.35547 0.58789,1.35547 0.127363,0.23819 0.257161,0.46021 0.359375,0.62696 0.102592,0.16736 0.174464,0.27491 0.195313,0.30468 0.128034,0.18277 0.353539,0.43546 0.388672,0.47266 0.173433,0.18277 0.302787,0.30951 0.507812,0.41992 0.117503,0.0632 0.416016,0.17774 0.416016,0.17774 a 0.10001,0.10001 0 0 0 0.0078,0.004 c 0.136579,0.0391 0.315568,0.0508 0.464844,0.0566 0.143829,0.006 0.249541,0.004 0.257813,0.004 0.288924,0.0215 0.631612,0.0778 0.929687,0.21484 0.0077,0.004 0.300431,0.16028 0.324219,0.17578 0.208344,0.13591 0.215467,0.15362 0.363281,0.31446 8.48e-4,9.2e-4 0.0011,10e-4 0.002,0.002 0.002,0.003 0.353646,0.47876 0.482422,0.81836 0.118203,0.3117 0.07454,0.52229 0.03906,0.65234 C 84.10719,440.72218 84,440.89844 84,440.89844 a 0.10001,0.10001 0 0 0 0,0.002 c -0.06285,0.10317 -0.103575,0.13217 -0.15625,0.18359 -0.246797,0.24097 -0.445833,0.42559 -0.558594,0.50977 -0.0063,0.004 -1.546781,1.08026 -1.726562,1.21094 -0.533918,0.38821 -0.789908,0.60335 -1.044922,0.80859 -1.006468,0.80991 -2.255859,1.77539 -2.25586,1.77539 -0.211721,0.16147 -1.490388,1.13699 -2.18164,1.47461 -0.08855,0.0433 -0.277344,0.11914 -0.277344,0.11914 a 0.10001,0.10001 0 0 0 -0.002,0 c -0.05228,0.0223 -0.105858,0.0514 -0.126953,0.0566 -0.01281,0.003 -0.05378,0.004 -0.0918,0.006 -0.100336,-0.0279 -0.101474,-0.0255 -0.207031,-0.10156 -0.01192,-0.009 -0.03865,-0.027 -0.07227,-0.0508 -0.03361,-0.0237 -0.06641,-0.0469 -0.06641,-0.0469 -0.0911,-0.0644 -0.254299,-0.21222 -0.265625,-0.22265 -0.488246,-0.44955 -0.919922,-0.96289 -0.919922,-0.96289 a 0.10001,0.10001 0 0 0 -0.002,0 c -0.499216,-0.58486 -2.723843,-3.52225 -3.203125,-4.14844 -0.407218,-0.53206 -8.144531,-10.63867 -8.144531,-10.63867 l -2.13086,-2.78321 c -0.04526,-0.0591 -0.914062,-1.19336 -0.914062,-1.19336 l -0.607422,-0.79492 c -0.09134,-0.1193 -0.213375,-0.27907 -0.304688,-0.39844 -0.09132,-0.11929 -0.21334,-0.27912 -0.304687,-0.39843 -0.09132,-0.1193 -0.213336,-0.27717 -0.304688,-0.39649 -0.09132,-0.11928 -0.213332,-0.27911 -0.304687,-0.39843 -0.09274,-0.12126 -0.218556,-0.27654 -0.302734,-0.39454 -0.120098,-0.16843 -0.212163,-0.32022 -0.214844,-0.49609 -0.0041,-0.26968 0.204478,-0.4852 0.410156,-0.74023 0.188201,-0.2333 0.515134,-0.53319 0.535156,-0.55079 0.004,-0.003 1.399219,-1.16724 1.47461,-1.23046 0.05999,-0.0502 1.162109,-0.97657 1.162109,-0.97657 a 0.10001,0.10001 0 0 0 0.002,-0.002 c 0.947707,-0.81586 1.467752,-1.36846 1.791016,-1.75586 0.231717,-0.27764 0.374921,-0.49244 0.433594,-0.57422 a 0.10001,0.10001 0 0 0 0,-0.002 c 0.03536,-0.0493 0.201171,-0.29102 0.201171,-0.29102 a 0.10001,0.10001 0 0 0 0.0059,-0.01 c 0.04584,-0.0853 0.06898,-0.16842 0.08008,-0.23438 0.0111,-0.066 0.01144,-0.12352 0.01172,-0.12695 0.0072,-0.0891 0.0069,-0.19973 0.05469,-0.38867 0.0598,-0.23628 0.179688,-0.46289 0.179688,-0.46289 0.158513,-0.30079 0.433419,-0.55725 0.482421,-0.59766 0.246763,-0.20377 0.46542,-0.31328 0.691407,-0.37695 0.293818,-0.0826 0.442054,-0.0689 0.580078,-0.0293 z"
       style="color:#000000;font-style:normal;font-variant:normal;font-weight:normal;font-stretch:normal;font-size:medium;line-height:normal;font-family:sans-serif;font-variant-ligatures:normal;font-variant-position:normal;font-variant-caps:normal;font-variant-numeric:normal;font-variant-alternates:normal;font-feature-settings:normal;text-indent:0;text-align:start;text-decoration:none;text-decoration-line:none;text-decoration-style:solid;text-decoration-color:#000000;letter-spacing:normal;word-spacing:normal;text-transform:none;writing-mode:lr-tb;direction:ltr;text-orientation:mixed;dominant-baseline:auto;baseline-shift:baseline;text-anchor:start;white-space:normal;shape-padding:0;clip-rule:nonzero;display:inline;overflow:visible;visibility:visible;opacity:1;isolation:auto;mix-blend-mode:normal;color-interpolation:sRGB;color-interpolation-filters:linearRGB;solid-color:#000000;solid-opacity:1;vector-effect:none;fill:#000000;fill-opacity:1;fill-rule:nonzero;stroke:none;stroke-width:0.2;stroke-linecap:round;stroke-linejoin:round;stroke-miterlimit:4;stroke-dasharray:none;stroke-dashoffset:0;stroke-opacity:1;color-rendering:auto;image-rendering:auto;shape-rendering:auto;text-rendering:auto;enable-background:accumulate" />
    <path
       inkscape:connector-curvature="0"
       id="path14"
       d="m 271.45312,117.56275 a 0.10001,0.10001 0 0 0 -0.0996,0.10157 v 23 a 0.10001,0.10001 0 0 0 0.0996,0.0996 h 13 a 0.10001,0.10001 0 0 0 0.0996,-0.0996 v -0.0703 a 0.10001,0.10001 0 0 0 -0.19531,-0.0312 H 271.55272 V 117.764 h 12.80079 v 0.13476 a 0.10001,0.10001 0 1 0 0.19921,0 v -0.23437 a 0.10001,0.10001 0 0 0 -0.0996,-0.10157 z"
       style="color:#000000;font-style:normal;font-variant:normal;font-weight:normal;font-stretch:normal;font-size:medium;line-height:normal;font-family:sans-serif;font-variant-ligatures:normal;font-variant-position:normal;font-variant-caps:normal;font-variant-numeric:normal;font-variant-alternates:normal;font-feature-settings:normal;text-indent:0;text-align:start;text-decoration:none;text-decoration-line:none;text-decoration-style:solid;text-decoration-color:#000000;letter-spacing:normal;word-spacing:normal;text-transform:none;writing-mode:lr-tb;direction:ltr;text-orientation:mixed;dominant-baseline:auto;baseline-shift:baseline;text-anchor:start;white-space:normal;shape-padding:0;clip-rule:nonzero;display:inline;overflow:visible;visibility:visible;opacity:1;isolation:auto;mix-blend-mode:normal;color-interpolation:sRGB;color-interpolation-filters:linearRGB;solid-color:#000000;solid-opacity:1;vector-effect:none;fill:#000000;fill-opacity:1;fill-rule:nonzero;stroke:none;stroke-width:0.2;stroke-linecap:round;stroke-linejoin:round;stroke-miterlimit:4;stroke-dasharray:none;stroke-dashoffset:0;stroke-opacity:1;color-rendering:auto;image-rendering:auto;shape-rendering:auto;text-rendering:auto;enable-background:accumulate" />
    <path
       inkscape:connector-curvature="0"
       id="path16"
       d="m 271.44141,418.63502 a 0.10001,0.10001 0 0 0 -0.0879,0.10156 v 23 a 0.10001,0.10001 0 0 0 0.0996,0.0996 h 13 a 0.10001,0.10001 0 0 0 0.0996,-0.0996 v -0.16211 a 0.10001,0.10001 0 1 0 -0.19921,0 v 0.0625 h -12.80079 v -22.90039 a 0.10001,0.10001 0 0 0 -0.11132,-0.10156 z"
       style="color:#000000;font-style:normal;font-variant:normal;font-weight:normal;font-stretch:normal;font-size:medium;line-height:normal;font-family:sans-serif;font-variant-ligatures:normal;font-variant-position:normal;font-variant-caps:normal;font-variant-numeric:normal;font-variant-alternates:normal;font-feature-settings:normal;text-indent:0;text-align:start;text-decoration:none;text-decoration-line:none;text-decoration-style:solid;text-decoration-color:#000000;letter-spacing:normal;word-spacing:normal;text-transform:none;writing-mode:lr-tb;direction:ltr;text-orientation:mixed;dominant-baseline:auto;baseline-shift:baseline;text-anchor:start;white-space:normal;shape-padding:0;clip-rule:nonzero;display:inline;overflow:visible;visibility:visible;opacity:1;isolation:auto;mix-blend-mode:normal;color-interpolation:sRGB;color-interpolation-filters:linearRGB;solid-color:#000000;solid-opacity:1;vector-effect:none;fill:#000000;fill-opacity:1;fill-rule:nonzero;stroke:none;stroke-width:0.2;stroke-linecap:round;stroke-linejoin:round;stroke-miterlimit:4;stroke-dasharray:none;stroke-dashoffset:0;stroke-opacity:1;color-rendering:auto;image-rendering:auto;shape-rendering:auto;text-rendering:auto;enable-background:accumulate" />
    <path
       inkscape:connector-curvature="0"
       id="path18"
       d="m 271.44336,418.63697 a 0.10001,0.10001 0 0 0 0.01,0.19922 h 12.91211 a 0.10001,0.10001 0 0 0 0.1875,-0.0488 v -0.0508 a 0.10001,0.10001 0 0 0 -0.0996,-0.0996 h -13 a 0.10001,0.10001 0 0 0 -0.01,0 z"
       style="color:#000000;font-style:normal;font-variant:normal;font-weight:normal;font-stretch:normal;font-size:medium;line-height:normal;font-family:sans-serif;font-variant-ligatures:normal;font-variant-position:normal;font-variant-caps:normal;font-variant-numeric:normal;font-variant-alternates:normal;font-feature-settings:normal;text-indent:0;text-align:start;text-decoration:none;text-decoration-line:none;text-decoration-style:solid;text-decoration-color:#000000;letter-spacing:normal;word-spacing:normal;text-transform:none;writing-mode:lr-tb;direction:ltr;text-orientation:mixed;dominant-baseline:auto;baseline-shift:baseline;text-anchor:start;white-space:normal;shape-padding:0;clip-rule:nonzero;display:inline;overflow:visible;visibility:visible;opacity:1;isolation:auto;mix-blend-mode:normal;color-interpolation:sRGB;color-interpolation-filters:linearRGB;solid-color:#000000;solid-opacity:1;vector-effect:none;fill:#000000;fill-opacity:1;fill-rule:nonzero;stroke:none;stroke-width:0.2;stroke-linecap:round;stroke-linejoin:round;stroke-miterlimit:4;stroke-dasharray:none;stroke-dashoffset:0;stroke-opacity:1;color-rendering:auto;image-rendering:auto;shape-rendering:auto;text-rendering:auto;enable-background:accumulate" />
    <path
       inkscape:connector-curvature="0"
       id="rect858"
       d="m 277.57189,176.05859 c -2.07895,0 -3.75391,1.69963 -3.75391,3.80469 v 16.90039 c 0,2.10506 1.67496,3.80274 3.75391,3.80274 2.07894,0 3.7539,-1.69768 3.7539,-3.80274 v -16.90039 c 0,-2.10506 -1.67496,-3.80469 -3.7539,-3.80469 z m 0,0.19922 c 1.97014,0 3.55468,1.60631 3.55468,3.60547 v 16.90039 c 0,1.99916 -1.58454,3.60352 -3.55468,3.60352 -1.97015,0 -3.55469,-1.60436 -3.55469,-3.60352 v -16.90039 c 0,-1.99916 1.58454,-3.60547 3.55469,-3.60547 z"
       style="color:#000000;font-style:normal;font-variant:normal;font-weight:normal;font-stretch:normal;font-size:medium;line-height:normal;font-family:sans-serif;font-variant-ligatures:normal;font-variant-position:normal;font-variant-caps:normal;font-variant-numeric:normal;font-variant-alternates:normal;font-feature-settings:normal;text-indent:0;text-align:start;text-decoration:none;text-decoration-line:none;text-decoration-style:solid;text-decoration-color:#000000;letter-spacing:normal;word-spacing:normal;text-transform:none;writing-mode:lr-tb;direction:ltr;text-orientation:mixed;dominant-baseline:auto;baseline-shift:baseline;text-anchor:start;white-space:normal;shape-padding:0;clip-rule:nonzero;display:inline;overflow:visible;visibility:visible;opacity:1;isolation:auto;mix-blend-mode:normal;color-interpolation:sRGB;color-interpolation-filters:linearRGB;solid-color:#000000;solid-opacity:1;vector-effect:none;fill:#000000;fill-opacity:1;fill-rule:nonzero;stroke:none;stroke-width:0.2;stroke-linecap:butt;stroke-linejoin:miter;stroke-miterlimit:4;stroke-dasharray:none;stroke-dashoffset:0;stroke-opacity:1;color-rendering:auto;image-rendering:auto;shape-rendering:auto;text-rendering:auto;enable-background:accumulate" />
    <path
       inkscape:connector-curvature="0"
       id="path866"
       d="m 283.76562,115.23463 c -0.069,0 -0.13028,0.0153 -0.17578,0.0586 -0.0455,0.0433 -0.0581,0.10104 -0.0586,0.14258 -5.2e-4,0.0415 0.007,0.0761 0.01,0.0996 0.002,0.0235 -0.003,0.0328 0.004,0.0195 2e-4,-3.9e-4 -0.011,0.0101 -0.0371,0.0293 -0.0182,0.0133 -0.0428,0.0442 -0.0664,0.0723 -0.004,0.003 -0.008,4e-4 -0.0117,0.004 -5e-4,5e-4 -0.01,0.0138 -0.0137,0.0195 -0.002,0.003 -0.003,0.005 -0.004,0.008 -10e-4,0.003 -0.005,0.005 -0.006,0.008 -0.004,0.009 -0.006,0.0167 -0.008,0.0234 -0.003,0.0134 -0.003,0.024 -0.004,0.0352 -0.002,0.0223 -0.002,0.0461 -0.002,0.0723 7e-5,0.003 -10e-5,0.008 0,0.0117 -0.0173,0.0186 -0.0448,0.0389 -0.0937,0.0879 l -0.13281,0.13281 c -0.0441,0.0441 -0.0887,0.0887 -0.13282,0.13281 -0.0294,0.0293 -0.10365,0.0647 -0.15039,0.1582 -0.0301,0.0598 -0.0147,0.1076 -0.01,0.13086 0.005,0.0233 -4.2e-4,0.0203 0.01,0 -0.004,0.008 -0.0374,0.051 -0.082,0.0937 -0.0446,0.0427 -0.10209,0.0907 -0.16016,0.14063 -0.0581,0.0499 -0.11541,0.1 -0.16601,0.14844 -0.0506,0.0484 -0.0946,0.0916 -0.12305,0.14843 -0.0172,0.0341 -0.003,0.0449 0,0.0684 -0.002,-1.9e-4 -0.002,1.6e-4 -0.004,0 -0.0277,-0.002 -0.0766,0.004 -0.10938,0.0371 -0.042,0.042 -0.0527,0.0909 -0.0527,0.13672 0,0.0459 0.0107,0.0947 0.0527,0.13672 0.049,0.049 0.11492,0.0465 0.14844,0.041 0.0335,-0.006 0.0562,-0.0117 0.0547,-0.0117 0.092,0 0.15872,-0.008 0.21484,-0.0332 0.0561,-0.0254 0.0952,-0.0718 0.11523,-0.10742 0.0296,-0.0526 0.0494,-0.0733 0.082,-0.0996 0.002,0.008 5e-4,0.015 0.004,0.0234 0.0116,0.0288 0.0374,0.0622 0.0762,0.0781 0.15227,0.0625 0.30784,0.098 0.46289,0.14844 8.9e-4,0.0194 -0.004,0.0301 0.0156,0.0684 0.0148,0.0295 0.0348,0.0676 0.0664,0.10547 0.0316,0.0378 0.0822,0.082 0.15429,0.082 0.0222,0 0.0525,-0.008 0.0762,-0.0273 0.0237,-0.0196 0.0366,-0.0454 0.041,-0.0645 0.006,-0.0248 3.1e-4,-0.0366 -0.002,-0.0508 0.22616,0.0669 0.4526,0.14388 0.67383,0.21485 l 0.0605,-0.18946 c -0.25339,-0.0813 -0.49681,-0.16489 -0.74804,-0.24023 v -0.10938 c 0.007,-0.0205 0.0121,-0.0418 0.0156,-0.0664 0.004,-0.0246 0.006,-0.0494 0.002,-0.082 -0.002,-0.0132 -0.008,-0.0305 -0.0176,-0.0488 9e-5,-0.0225 4.2e-4,-0.062 0,-0.0801 -0.001,-0.0429 -0.009,-0.0777 -0.0176,-0.11328 0.005,-0.0106 0.007,-0.0188 0.01,-0.0293 0.0185,-0.0214 0.0293,-0.0407 0.0469,-0.0723 0.007,-0.0124 0.0191,-0.0371 0.0273,-0.0527 0.0291,-0.004 0.0684,-0.01 0.0684,-0.01 -7e-5,-4.6e-4 1.1e-4,-10e-4 0,-0.002 -10e-6,-1.5e-4 2e-5,-0.002 0,-0.002 -9.4e-4,-0.0106 -0.004,-0.0523 -0.004,-0.125 0.01,-0.0248 0.02,-0.0484 0.0234,-0.0801 0.002,-0.0228 0.006,-0.0466 -0.008,-0.082 -0.0137,-0.0354 -0.0691,-0.0801 -0.11524,-0.0801 -0.0222,0 -0.0525,0.008 -0.0762,0.0273 -0.0237,0.0196 -0.0347,0.0473 -0.0391,0.0664 -0.009,0.0381 -0.004,0.0573 0,0.0762 0.005,0.0271 0.009,0.0363 0.0117,0.0449 -0.002,0.003 -0.002,0.005 -0.004,0.008 -0.0152,-0.009 -0.0282,-0.0217 -0.0449,-0.0234 -0.009,-9.7e-4 -0.0151,0.003 -0.0234,0.004 -0.021,-0.0493 -0.0296,-0.0709 -0.0605,-0.15039 0.0154,-0.006 0.0302,-8.8e-4 0.043,-0.0137 4.9e-4,-4.9e-4 0.01,-0.0138 0.0137,-0.0195 0.004,-0.006 0.008,-0.009 0.01,-0.0137 0.004,-0.009 0.006,-0.0167 0.008,-0.0234 0.003,-0.0134 0.005,-0.024 0.006,-0.0352 0.002,-0.0223 5.3e-4,-0.0461 0,-0.0723 -10e-4,-0.0524 -0.004,-0.11551 -0.008,-0.17773 -0.003,-0.0499 -0.006,-0.0939 -0.008,-0.13477 2.3e-4,-0.006 0.002,-0.0103 0.002,-0.0156 0.0277,0.002 0.0766,-0.004 0.10938,-0.0371 0.0298,-0.0298 0.0336,-0.0713 0.0332,-0.0996 0.0283,4.1e-4 0.0679,-0.003 0.0977,-0.0332 0.0489,-0.049 0.0465,-0.11493 0.041,-0.14844 -0.006,-0.0335 -0.0117,-0.0562 -0.0117,-0.0547 0,0.0113 0.008,-0.0249 0.0156,-0.0625 0.004,-0.0188 0.0107,-0.04 0.002,-0.0781 -0.004,-0.0191 -0.0173,-0.0448 -0.041,-0.0645 -0.0237,-0.0196 -0.054,-0.0273 -0.0762,-0.0273 z m -0.35937,0.86523 c 9.1e-4,0.0174 10e-4,0.0377 0.002,0.0527 -8.5e-4,-9e-5 -0.001,7e-5 -0.002,0 -0.0211,-0.002 -0.053,0.0129 -0.082,0.0293 z m -0.11719,0.11719 c -0.0144,0.0255 -0.0257,0.0514 -0.0254,0.0723 -0.0203,-3e-4 -0.0453,0.01 -0.0703,0.0234 0.0318,-0.0318 0.0639,-0.0639 0.0957,-0.0957 z m -0.13281,0.13086 c -0.0147,0.0257 -0.0257,0.0532 -0.0254,0.0742 -0.0181,-7e-5 -0.0402,0.0112 -0.0625,0.0215 -1.7e-4,-7.3e-4 1.5e-4,-0.003 0,-0.004 -0.005,-0.0232 0.002,-0.0203 -0.008,0 v -0.002 c 0.008,-0.0154 0.0496,-0.0472 0.0957,-0.0898 z m 0.21484,0.14063 c 0.0227,0.0559 0.0351,0.0907 0.0508,0.12695 -0.0254,0.0436 -0.0358,0.0938 -0.0313,0.12109 0.006,0.0335 0.01,0.0562 0.01,0.0547 0,0.004 1.5e-4,0.0334 0,0.041 -0.0285,-0.0171 -0.0552,-0.0413 -0.082,-0.0391 -0.0383,0.003 -0.0733,0.0179 -0.11328,0.0371 -9.7e-4,-0.0156 -9.5e-4,-0.0292 -0.002,-0.0449 -0.004,-0.0551 -0.006,-0.10741 -0.008,-0.15039 0.002,1.8e-4 0.002,-1.5e-4 0.004,0 0.0277,0.002 0.0746,-0.004 0.10742,-0.0371 0.0298,-0.0298 0.0336,-0.0713 0.0332,-0.0996 0.009,1.4e-4 0.0205,-0.008 0.0312,-0.01 z m -0.375,0.1621 c 0.002,0.0459 0.005,0.0952 0.008,0.14649 0.004,0.0551 0.006,0.10742 0.008,0.15039 -8.8e-4,-9e-5 -10e-4,8e-5 -0.002,0 -0.008,-6.7e-4 -0.0209,0.009 -0.0312,0.01 -0.0465,-0.0104 -0.10961,-0.0272 -0.1836,0.01 -0.13575,0.0679 -0.17832,0.17929 -0.19726,0.21289 -0.009,0.0168 -0.008,0.0164 -0.0234,0.0234 -0.005,0.002 -0.0312,0.004 -0.041,0.006 0.006,-0.0177 0.0196,-0.037 0.0195,-0.0508 -2.3e-4,-0.0277 -0.006,-0.0451 -0.01,-0.0586 -0.007,-0.0271 0.003,-0.0277 -0.0117,0.002 v -0.002 c 0.004,-0.008 0.0355,-0.0491 0.0801,-0.0918 0.0446,-0.0427 0.10209,-0.0907 0.16015,-0.14063 0.0581,-0.0499 0.11737,-0.1 0.16797,-0.14844 0.0235,-0.0224 0.0373,-0.0466 0.0566,-0.0684 z m 0.26953,0.38086 c 10e-4,0.006 10e-4,0.0102 0.004,0.0176 0.003,0.007 0.0113,0.0208 0.0117,0.0215 4.6e-4,6.8e-4 0.0209,0.0229 0.0215,0.0234 6.1e-4,5e-4 0.0285,0.0173 0.0293,0.0176 7.7e-4,3e-4 0.022,0.007 0.0312,0.008 0.0126,10e-4 0.0204,-0.002 0.0293,-0.004 -2.1e-4,0.009 1.9e-4,0.0122 0,0.0215 -6e-4,0.0296 2.9e-4,0.0536 0,0.082 -0.0793,-0.0265 -0.16241,-0.0488 -0.24024,-0.0781 0.006,-0.003 0.006,-0.006 0.0117,-0.01 0.003,-0.003 0.007,-8.7e-4 0.01,-0.004 5e-4,-5e-4 0.012,-0.0139 0.0156,-0.0195 5.5e-4,-8.6e-4 10e-4,-0.001 0.002,-0.002 0.0207,-0.0202 0.0474,-0.0414 0.0586,-0.0566 0.01,-0.0131 0.0104,-0.0119 0.0156,-0.0176 z"
       style="color:#000000;font-style:normal;font-variant:normal;font-weight:normal;font-stretch:normal;font-size:medium;line-height:normal;font-family:sans-serif;font-variant-ligatures:normal;font-variant-position:normal;font-variant-caps:normal;font-variant-numeric:normal;font-variant-alternates:normal;font-feature-settings:normal;text-indent:0;text-align:start;text-decoration:none;text-decoration-line:none;text-decoration-style:solid;text-decoration-color:#000000;letter-spacing:normal;word-spacing:normal;text-transform:none;writing-mode:lr-tb;direction:ltr;text-orientation:mixed;dominant-baseline:auto;baseline-shift:baseline;text-anchor:start;white-space:normal;shape-padding:0;clip-rule:nonzero;display:inline;overflow:visible;visibility:visible;opacity:1;isolation:auto;mix-blend-mode:normal;color-interpolation:sRGB;color-interpolation-filters:linearRGB;solid-color:#000000;solid-opacity:1;vector-effect:none;fill:#000000;fill-opacity:1;fill-rule:nonzero;stroke:none;stroke-width:0.2;stroke-linecap:butt;stroke-linejoin:miter;stroke-miterlimit:4;stroke-dasharray:none;stroke-dashoffset:0;stroke-opacity:1;color-rendering:auto;image-rendering:auto;shape-rendering:auto;text-rendering:auto;enable-background:accumulate" />
    <path
       inkscape:connector-curvature="0"
       id="path868"
       d="m 283.40039,417.10963 v 0.0254 c -0.0125,0.002 -0.0321,0.006 -0.0312,0.006 h -0.13281 -0.13281 c -0.007,0 -0.027,-0.003 -0.0566,-0.006 -0.0296,-0.003 -0.0747,-0.006 -0.1211,0.0176 -0.0163,0.008 -0.0121,0.0177 -0.0234,0.0273 -0.0223,-0.0164 -0.0429,-0.0391 -0.0625,-0.0391 -0.0222,0 -0.0544,0.008 -0.0781,0.0273 -0.0237,0.0197 -0.0347,0.0454 -0.0391,0.0645 -0.009,0.0381 -0.002,0.0593 0.002,0.0781 0.003,0.0128 0.002,0.0107 0.004,0.0215 -6.8e-4,0.004 -10e-4,0.005 -0.002,0.01 -0.002,0.0137 0.001,0.0358 0.0117,0.0625 v 0.10156 c 0,0.0374 -0.005,0.1964 -0.008,0.34571 -0.002,0.0746 -0.003,0.14739 -0.002,0.20703 5.8e-4,0.0298 0.002,0.0573 0.004,0.0801 0.002,0.0228 -0.003,0.0328 0.0176,0.0742 0.0281,0.0562 0.0696,0.0824 0.0957,0.10157 0.0261,0.0192 0.0373,0.0317 0.0371,0.0312 -0.0149,-0.0298 -0.005,-0.0291 -0.0117,-0.002 -0.004,0.0136 -0.01,0.0328 -0.01,0.0606 -2.2e-4,0.0277 0.01,0.0705 0.0391,0.0996 0.0328,0.0328 0.0817,0.0395 0.10938,0.0371 0.002,-1.6e-4 0.002,1.9e-4 0.004,0 -0.003,0.0234 -0.0171,0.0343 0,0.0684 0.0281,0.0562 0.0715,0.0844 0.0977,0.10351 0.0261,0.0192 0.0353,0.0297 0.0351,0.0293 -0.015,-0.0298 -0.005,-0.0271 -0.0117,0 -0.004,0.0136 -0.01,0.0309 -0.01,0.0586 -2.2e-4,0.0277 0.0119,0.0705 0.041,0.0996 0.0291,0.0291 0.0719,0.0412 0.0996,0.041 0.0277,-2.2e-4 0.045,-0.006 0.0586,-0.01 0.0271,-0.007 0.0296,0.003 0,-0.0117 0.0127,0.006 0.0437,0.0454 0.0742,0.0801 1e-5,0.005 -3e-5,0.0128 0,0.0176 1.2e-4,0.0234 0.002,0.0437 0.002,0.0586 1.9e-4,0.007 -3.9e-4,0.0133 0,0.0195 1.9e-4,0.003 10e-4,0.005 0.002,0.01 3.3e-4,0.003 0.002,0.0114 0.002,0.0117 3e-5,1.6e-4 0.004,0.0136 0.004,0.0137 2e-5,5e-5 0.006,0.0117 0.006,0.0117 2e-5,4e-5 0.0879,-0.0469 0.0879,-0.0469 l -0.0723,0.0684 v 0.002 c 0.0489,0.0489 0.0944,0.0539 0.14453,0.0566 0.025,10e-4 0.0507,10e-4 0.084,-0.0137 0.0333,-0.015 0.0762,-0.064 0.0762,-0.11328 -1e-5,-0.0784 -0.0561,-0.12871 -0.0918,-0.1543 -0.0217,-0.0156 -0.0299,-0.0205 -0.043,-0.0293 6e-5,-0.0228 -1.2e-4,-0.0404 0,-0.0645 4.6e-4,-0.0916 0.002,-0.15264 0.002,-0.20703 0.18743,0.0559 0.34412,0.0888 0.82032,0.24219 l 0.0625,-0.19141 c -0.53642,-0.17273 -0.73114,-0.20915 -0.88282,-0.25586 v -0.29297 c 0.0282,0.001 0.0725,-0.006 0.10352,-0.0371 0.0489,-0.049 0.0446,-0.11296 0.0391,-0.14648 -0.006,-0.0335 -0.01,-0.0582 -0.01,-0.0566 0,-0.0186 0.003,-0.11248 0.006,-0.20117 0.001,-0.0444 0.003,-0.089 0.002,-0.12696 -5.2e-4,-0.019 -0.002,-0.036 -0.004,-0.0527 -0.002,-0.0167 -6.7e-4,-0.0306 -0.0156,-0.0606 -0.0281,-0.0562 -0.0696,-0.0824 -0.0957,-0.10156 -0.0179,-0.0131 -0.0208,-0.0169 -0.0254,-0.0215 v -0.008 c 0.004,-0.0136 0.01,-0.0328 0.01,-0.0605 5e-5,-0.007 -0.008,-0.0168 -0.01,-0.0254 v -0.004 -0.13086 z m -0.38477,0.2207 c -0.007,0.003 -0.006,0.002 0.01,0.004 0.0157,0.002 0.0411,0.008 0.0781,0.008 h 0.13281 0.0469 c -0.0119,0.0753 -0.0181,0.15457 -0.0312,0.23047 4e-5,5e-4 -4e-5,0.001 0,0.002 -0.006,0.0328 -0.008,0.0667 -0.0137,0.0996 -0.0251,0.004 -0.0501,0.003 -0.0723,0.0254 -0.0489,0.049 -0.0465,0.11492 -0.041,0.14844 0.006,0.0335 0.0117,0.0562 0.0117,0.0547 0,0.18413 -0.007,0.30572 0.008,0.4082 6.3e-4,0.004 0.007,0.005 0.008,0.01 -6.8e-4,0.0108 -0.005,0.0204 -0.006,0.0312 -0.0285,-0.0155 -0.0594,-0.0291 -0.0801,-0.0274 -0.002,1.5e-4 -0.002,-1.8e-4 -0.004,0 0.003,-0.0234 0.0152,-0.0342 -0.002,-0.0684 -0.0281,-0.0562 -0.0696,-0.0824 -0.0957,-0.10156 -0.0261,-0.0192 -0.0373,-0.0316 -0.0371,-0.0312 0.0146,0.0294 0.005,0.0133 0.004,-0.002 -10e-4,-0.0153 -10e-4,-0.0391 -0.002,-0.0664 -10e-4,-0.0546 -10e-4,-0.12585 0,-0.19922 0.003,-0.14673 0.01,-0.29494 0.01,-0.34961 v -0.0723 c 0.002,-0.002 0.006,-0.002 0.008,-0.004 0.0233,-0.0217 0.0345,-0.0417 0.0449,-0.0586 0.0209,-0.0337 0.0371,-0.0479 0.0234,-0.041 z m 0.38477,0.63672 v 0.0723 c -0.001,0.009 -0.01,0.0183 -0.01,0.0254 2.4e-4,0.0277 0.006,0.047 0.01,0.0605 v 0.008 c -0.005,0.005 -0.007,0.008 -0.0254,0.0215 0.007,-0.0618 0.0163,-0.1254 0.0254,-0.1875 z m -0.17187,0.58399 c 0.0243,0.007 0.0466,0.0109 0.0664,0.01 0.005,-2.6e-4 0.009,-0.006 0.0137,-0.006 0.0151,0.008 0.0752,0.0202 0.0918,0.0273 -8e-5,0.0194 -10e-4,0.0936 -0.002,0.15821 -0.0323,-0.0111 -0.0494,-0.007 -0.0703,-0.002 0.006,-0.0255 0.0193,-0.0436 -0.002,-0.0859 -0.0281,-0.0562 -0.0715,-0.0824 -0.0976,-0.10156 z"
       style="color:#000000;font-style:normal;font-variant:normal;font-weight:normal;font-stretch:normal;font-size:medium;line-height:normal;font-family:sans-serif;font-variant-ligatures:normal;font-variant-position:normal;font-variant-caps:normal;font-variant-numeric:normal;font-variant-alternates:normal;font-feature-settings:normal;text-indent:0;text-align:start;text-decoration:none;text-decoration-line:none;text-decoration-style:solid;text-decoration-color:#000000;letter-spacing:normal;word-spacing:normal;text-transform:none;writing-mode:lr-tb;direction:ltr;text-orientation:mixed;dominant-baseline:auto;baseline-shift:baseline;text-anchor:start;white-space:normal;shape-padding:0;clip-rule:nonzero;display:inline;overflow:visible;visibility:visible;opacity:1;isolation:auto;mix-blend-mode:normal;color-interpolation:sRGB;color-interpolation-filters:linearRGB;solid-color:#000000;solid-opacity:1;vector-effect:none;fill:#000000;fill-opacity:1;fill-rule:nonzero;stroke:none;stroke-width:0.2;stroke-linecap:butt;stroke-linejoin:miter;stroke-miterlimit:4;stroke-dasharray:none;stroke-dashoffset:0;stroke-opacity:1;color-rendering:auto;image-rendering:auto;shape-rendering:auto;text-rendering:auto;enable-background:accumulate" />
  </g>
</svg>
