<?xml version="1.0" encoding="UTF-8" standalone="no"?>
<!-- Created with Inkscape (http://www.inkscape.org/) -->

<svg
   xmlns:dc="http://purl.org/dc/elements/1.1/"
   xmlns:cc="http://creativecommons.org/ns#"
   xmlns:rdf="http://www.w3.org/1999/02/22-rdf-syntax-ns#"
   xmlns:svg="http://www.w3.org/2000/svg"
   xmlns="http://www.w3.org/2000/svg"
   xmlns:sodipodi="http://sodipodi.sourceforge.net/DTD/sodipodi-0.dtd"
   xmlns:inkscape="http://www.inkscape.org/namespaces/inkscape"
   width="600mm"
   height="600mm"
   viewBox="0 0 600 600"
   version="1.1"
   id="svg8"
   inkscape:version="0.92.3 (2405546, 2018-03-11)"
   sodipodi:docname="M6700_M6800_LID.svg">
  <defs
     id="defs2" />
  <sodipodi:namedview
     id="base"
     pagecolor="#ffffff"
     bordercolor="#666666"
     borderopacity="1.0"
     inkscape:pageopacity="0.0"
     inkscape:pageshadow="2"
     inkscape:zoom="0.35"
     inkscape:cx="1968.7087"
     inkscape:cy="1914.6918"
     inkscape:document-units="mm"
     inkscape:current-layer="g836"
     showgrid="false"
     showguides="true"
     inkscape:guide-bbox="true"
     inkscape:window-width="1920"
     inkscape:window-height="1017"
     inkscape:window-x="-8"
     inkscape:window-y="-8"
     inkscape:window-maximized="1" />
  <metadata
     id="metadata5">
    <rdf:RDF>
      <cc:Work
         rdf:about="">
        <dc:format>image/svg+xml</dc:format>
        <dc:type
           rdf:resource="http://purl.org/dc/dcmitype/StillImage" />
        <dc:title></dc:title>
      </cc:Work>
    </rdf:RDF>
  </metadata>
  <g
     inkscape:label="Layer 1"
     inkscape:groupmode="layer"
     id="layer1"
     transform="translate(0,303)" />
  <g
     inkscape:groupmode="layer"
     id="layer2"
     inkscape:label="Layer 2">
    <g
       id="g836"
       style="fill:none;stroke-width:0.35277778;stroke-miterlimit:4;stroke-dasharray:none;stroke:#000000;stroke-opacity:1">
      <g
         id="g846"
         transform="translate(444.5,-2.2678571)">
        <path
           sodipodi:nodetypes="cssssssssc"
           inkscape:connector-curvature="0"
           id="rect815"
           d="m 62.079254,-236.56985 6.853668,1e-5 c 0.554,0 1,0.446 1,1 V 20.077377 c 0,0.554 -0.446,1 -1,1 H -343.71429 c -0.554,0 -1,-0.446 -1,-1 V -235.56984 c 0,-0.554 0.446,-1 1,-1 l 6.14654,-1e-5"
           style="opacity:1;fill:none;fill-opacity:0.25116284;stroke:#000000;stroke-width:0.35277778;stroke-miterlimit:4;stroke-dasharray:none;stroke-opacity:1"
           transform="translate(0,303.00001)" />
        <path
           id="rect818"
           d="M -343.71429,22.135712 H 68.932708 c 0.554,0 1.000001,0.446 1.000001,1 V 43.78271 c 0,0.554001 -0.446001,1.000001 -1.000001,1.000001 H -343.71429 c -0.554,0 -1,-0.446 -1,-1.000001 V 23.135712 c 0,-0.554 0.446,-1 1,-1 z"
           style="opacity:1;fill:none;fill-opacity:0.25116284;stroke:#000000;stroke-width:0.35277778;stroke-miterlimit:4;stroke-dasharray:none;stroke-opacity:1"
           transform="translate(0,303.00001)"
           inkscape:connector-curvature="0" />
        <path
           id="path825"
           d="m -117.21395,-95.300919 a 20.3235,20.3235 0 0 1 -20.3235,20.3235 20.3235,20.3235 0 0 1 -20.32349,-20.3235 20.3235,20.3235 0 0 1 20.32349,-20.323501 20.3235,20.3235 0 0 1 20.3235,20.323501 z"
           style="opacity:1;fill:none;fill-opacity:0.25116284;stroke:#000000;stroke-width:0.35277778;stroke-miterlimit:4;stroke-dasharray:none;stroke-opacity:1"
           transform="translate(0,303.00001)"
           inkscape:connector-curvature="0" />
        <path
           sodipodi:nodetypes="cccc"
           inkscape:connector-curvature="0"
           id="rect820"
           d="M 62.079254,66.430161 V 72.07716 H -337.56775 v -5.646999"
           style="opacity:1;fill:none;fill-opacity:0.25116284;stroke:#000000;stroke-width:0.35277778;stroke-miterlimit:4;stroke-dasharray:none;stroke-opacity:1" />
      </g>
    </g>
  </g>
</svg>
