<?xml version="1.0" encoding="UTF-8" standalone="no"?>
<!-- Created with Inkscape (http://www.inkscape.org/) -->

<svg
   xmlns:dc="http://purl.org/dc/elements/1.1/"
   xmlns:cc="http://creativecommons.org/ns#"
   xmlns:rdf="http://www.w3.org/1999/02/22-rdf-syntax-ns#"
   xmlns:svg="http://www.w3.org/2000/svg"
   xmlns="http://www.w3.org/2000/svg"
   xmlns:sodipodi="http://sodipodi.sourceforge.net/DTD/sodipodi-0.dtd"
   xmlns:inkscape="http://www.inkscape.org/namespaces/inkscape"
   width="210mm"
   height="297mm"
   viewBox="0 0 210 297"
   version="1.1"
   id="svg8"
   inkscape:version="0.92.3 (2405546, 2018-03-11)"
   sodipodi:docname="yoga_feets.svg">
  <defs
     id="defs2" />
  <sodipodi:namedview
     id="base"
     pagecolor="#ffffff"
     bordercolor="#666666"
     borderopacity="1.0"
     inkscape:pageopacity="0.0"
     inkscape:pageshadow="2"
     inkscape:zoom="1.4"
     inkscape:cx="97.43036"
     inkscape:cy="741.37697"
     inkscape:document-units="mm"
     inkscape:current-layer="layer1"
     showgrid="false"
     showguides="true"
     inkscape:guide-bbox="true"
     inkscape:window-width="1680"
     inkscape:window-height="987"
     inkscape:window-x="-8"
     inkscape:window-y="-8"
     inkscape:window-maximized="1" />
  <metadata
     id="metadata5">
    <rdf:RDF>
      <cc:Work
         rdf:about="">
        <dc:format>image/svg+xml</dc:format>
        <dc:type
           rdf:resource="http://purl.org/dc/dcmitype/StillImage" />
        <dc:title></dc:title>
      </cc:Work>
    </rdf:RDF>
  </metadata>
  <g
     inkscape:label="Layer 1"
     inkscape:groupmode="layer"
     id="layer1">
    <path
       style="fill:none;fill-opacity:1;stroke:#00000d;stroke-width:0.14058855;stroke-miterlimit:4;stroke-dasharray:none;stroke-opacity:1"
       d="M 2.9187317,50.681449 H 17.432751 c 1.480674,0 2.672697,0.953621 2.672697,2.138163 v 0.583086 c 0,1.184542 -1.192023,2.138162 -2.672697,2.138162 H 2.9187317 c -1.480673,0 -2.67269598,-0.95362 -2.67269598,-2.138162 v -0.583086 c 0,-1.184542 1.19202298,-2.138163 2.67269598,-2.138163 z"
       id="rect815"
       inkscape:connector-curvature="0" />
    <path
       style="fill:none;fill-opacity:1;stroke:#00000d;stroke-width:0.14058855;stroke-miterlimit:4;stroke-dasharray:none;stroke-opacity:1"
       d="m 2.909976,58.063623 h 14.514019 c 1.480673,0 2.672697,0.953621 2.672697,2.138163 v 0.583086 c 0,1.184542 -1.192024,2.138162 -2.672697,2.138162 H 2.909976 c -1.480673,0 -2.67269594,-0.95362 -2.67269594,-2.138162 v -0.583086 c 0,-1.184542 1.19202294,-2.138163 2.67269594,-2.138163 z"
       id="rect815-6"
       inkscape:connector-curvature="0" />
    <path
       style="fill:none;fill-opacity:1;stroke:#00000d;stroke-width:0.14058855;stroke-miterlimit:4;stroke-dasharray:none;stroke-opacity:1"
       d="M 2.8307008,64.860518 H 17.344719 c 1.480674,0 2.672697,0.953621 2.672697,2.138163 v 0.583086 c 0,1.184542 -1.192023,2.138162 -2.672697,2.138162 H 2.8307008 c -1.4806731,0 -2.67269599,-0.95362 -2.67269599,-2.138162 v -0.583086 c 0,-1.184542 1.19202289,-2.138163 2.67269599,-2.138163 z"
       id="rect815-4"
       inkscape:connector-curvature="0" />
    <path
       style="fill:none;fill-opacity:1;stroke:#00000d;stroke-width:0.14058855;stroke-miterlimit:4;stroke-dasharray:none;stroke-opacity:1"
       d="m 2.821945,72.242692 h 14.514019 c 1.480672,0 2.672697,0.953621 2.672697,2.138163 v 0.583085 c 0,1.184542 -1.192025,2.138163 -2.672697,2.138163 H 2.821945 c -1.480673,0 -2.67269585,-0.953621 -2.67269585,-2.138163 v -0.583085 c 0,-1.184542 1.19202285,-2.138163 2.67269585,-2.138163 z"
       id="rect815-6-7"
       inkscape:connector-curvature="0" />
    <path
       style="fill:none;fill-opacity:1;stroke:#00000d;stroke-width:0.14058855;stroke-miterlimit:4;stroke-dasharray:none;stroke-opacity:1"
       d="M 2.9211451,78.81318 H 17.435163 c 1.480674,0 2.672697,0.953621 2.672697,2.138163 v 0.583086 c 0,1.184542 -1.192023,2.138162 -2.672697,2.138162 H 2.9211451 c -1.4806731,0 -2.67269604,-0.95362 -2.67269604,-2.138162 v -0.583086 c 0,-1.184542 1.19202294,-2.138163 2.67269604,-2.138163 z"
       id="rect815-8"
       inkscape:connector-curvature="0" />
    <path
       style="fill:none;fill-opacity:1;stroke:#00000d;stroke-width:0.14058855;stroke-miterlimit:4;stroke-dasharray:none;stroke-opacity:1"
       d="M 2.9123892,86.195354 H 17.426407 c 1.480673,0 2.672697,0.953621 2.672697,2.138163 v 0.583086 c 0,1.184542 -1.192024,2.138163 -2.672697,2.138163 H 2.9123892 c -1.4806729,0 -2.67269574,-0.953621 -2.67269574,-2.138163 v -0.583086 c 0,-1.184542 1.19202284,-2.138163 2.67269574,-2.138163 z"
       id="rect815-6-8"
       inkscape:connector-curvature="0" />
    <path
       style="fill:none;fill-opacity:1;stroke:#00000d;stroke-width:0.14058855;stroke-miterlimit:4;stroke-dasharray:none;stroke-opacity:1"
       d="M 2.8331142,92.992249 H 17.347131 c 1.480674,0 2.672697,0.953617 2.672697,2.138161 v 0.583077 c 0,1.184531 -1.192023,2.138148 -2.672697,2.138148 H 2.8331142 c -1.4806732,0 -2.67269604,-0.953617 -2.67269604,-2.138148 V 95.13041 c 0,-1.184544 1.19202284,-2.138161 2.67269604,-2.138161 z"
       id="rect815-4-4"
       inkscape:connector-curvature="0" />
    <path
       style="fill:none;fill-opacity:1;stroke:#00000d;stroke-width:0.14058855;stroke-miterlimit:4;stroke-dasharray:none;stroke-opacity:1"
       d="M 2.8243584,100.37439 H 17.338376 c 1.480672,0 2.672697,0.95362 2.672697,2.13816 v 0.58309 c 0,1.18454 -1.192025,2.13816 -2.672697,2.13816 H 2.8243584 c -1.4806731,0 -2.67269584,-0.95362 -2.67269584,-2.13816 v -0.58309 c 0,-1.18454 1.19202274,-2.13816 2.67269584,-2.13816 z"
       id="rect815-6-7-2"
       inkscape:connector-curvature="0" />
    <path
       style="fill:none;fill-opacity:1;stroke:#00000d;stroke-width:0.14058855;stroke-miterlimit:4;stroke-dasharray:none;stroke-opacity:1"
       d="M 3.0333317,107.42078 H 17.547347 c 1.480674,0 2.672697,0.95362 2.672697,2.13816 v 0.58309 c 0,1.18454 -1.192023,2.13816 -2.672697,2.13816 H 3.0333317 c -1.4806731,0 -2.67269604,-0.95362 -2.67269604,-2.13816 v -0.58309 c 0,-1.18454 1.19202294,-2.13816 2.67269604,-2.13816 z"
       id="rect815-7"
       inkscape:connector-curvature="0" />
    <path
       style="fill:none;fill-opacity:1;stroke:#00000d;stroke-width:0.14058855;stroke-miterlimit:4;stroke-dasharray:none;stroke-opacity:1"
       d="M 3.0245758,114.80295 H 17.538591 c 1.480673,0 2.672697,0.95362 2.672697,2.13816 v 0.58309 c 0,1.18454 -1.192024,2.13816 -2.672697,2.13816 H 3.0245758 c -1.4806729,0 -2.67269574,-0.95362 -2.67269574,-2.13816 v -0.58309 c 0,-1.18454 1.19202284,-2.13816 2.67269574,-2.13816 z"
       id="rect815-6-2"
       inkscape:connector-curvature="0" />
    <path
       style="fill:none;fill-opacity:1;stroke:#00000d;stroke-width:0.14058855;stroke-miterlimit:4;stroke-dasharray:none;stroke-opacity:1"
       d="M 2.9453008,121.59985 H 17.459315 c 1.480674,0 2.672697,0.95362 2.672697,2.13816 v 0.58309 c 0,1.18454 -1.192023,2.13816 -2.672697,2.13816 H 2.9453008 c -1.4806732,0 -2.67269604,-0.95362 -2.67269604,-2.13816 v -0.58309 c 0,-1.18454 1.19202284,-2.13816 2.67269604,-2.13816 z"
       id="rect815-4-6"
       inkscape:connector-curvature="0" />
    <path
       style="fill:none;fill-opacity:1;stroke:#00000d;stroke-width:0.14058855;stroke-miterlimit:4;stroke-dasharray:none;stroke-opacity:1"
       d="M 2.936545,128.98202 H 17.45056 c 1.480672,0 2.672697,0.95362 2.672697,2.13816 v 0.58309 c 0,1.18454 -1.192025,2.13816 -2.672697,2.13816 H 2.936545 c -1.4806731,0 -2.67269584,-0.95362 -2.67269584,-2.13816 v -0.58309 c 0,-1.18454 1.19202274,-2.13816 2.67269584,-2.13816 z"
       id="rect815-6-7-9"
       inkscape:connector-curvature="0" />
    <path
       style="fill:none;fill-opacity:1;stroke:#00000d;stroke-width:0.14058855;stroke-miterlimit:4;stroke-dasharray:none;stroke-opacity:1"
       d="M 3.0357449,135.55251 H 17.549759 c 1.480674,0 2.672697,0.95362 2.672697,2.13816 v 0.58309 c 0,1.18454 -1.192023,2.13816 -2.672697,2.13816 H 3.0357449 c -1.4806729,0 -2.67269584,-0.95362 -2.67269584,-2.13816 v -0.58309 c 0,-1.18454 1.19202294,-2.13816 2.67269584,-2.13816 z"
       id="rect815-8-1"
       inkscape:connector-curvature="0" />
    <path
       style="fill:none;fill-opacity:1;stroke:#00000d;stroke-width:0.14058855;stroke-miterlimit:4;stroke-dasharray:none;stroke-opacity:1"
       d="M 3.0269891,142.93468 H 17.541003 c 1.480673,0 2.672697,0.95362 2.672697,2.13817 v 0.58308 c 0,1.18454 -1.192024,2.13817 -2.672697,2.13817 H 3.0269891 c -1.4806729,0 -2.67269564,-0.95363 -2.67269564,-2.13817 v -0.58308 c 0,-1.18455 1.19202274,-2.13817 2.67269564,-2.13817 z"
       id="rect815-6-8-7"
       inkscape:connector-curvature="0" />
    <path
       style="fill:none;fill-opacity:1;stroke:#00000d;stroke-width:0.14058855;stroke-miterlimit:4;stroke-dasharray:none;stroke-opacity:1"
       d="M 2.9477141,149.73158 H 17.461727 c 1.480674,0 2.672697,0.95362 2.672697,2.13816 v 0.58308 c 0,1.18453 -1.192023,2.13814 -2.672697,2.13814 H 2.9477141 c -1.4806732,0 -2.67269594,-0.95361 -2.67269594,-2.13814 v -0.58308 c 0,-1.18454 1.19202274,-2.13816 2.67269594,-2.13816 z"
       id="rect815-4-4-1"
       inkscape:connector-curvature="0" />
    <path
       style="fill:none;fill-opacity:1;stroke:#00000d;stroke-width:0.14058855;stroke-miterlimit:4;stroke-dasharray:none;stroke-opacity:1"
       d="M 2.9389582,157.11372 H 17.452972 c 1.480672,0 2.672697,0.95362 2.672697,2.13816 v 0.58309 c 0,1.18454 -1.192025,2.13816 -2.672697,2.13816 H 2.9389582 c -1.4806729,0 -2.67269564,-0.95362 -2.67269564,-2.13816 v -0.58309 c 0,-1.18454 1.19202274,-2.13816 2.67269564,-2.13816 z"
       id="rect815-6-7-2-3"
       inkscape:connector-curvature="0" />
    <path
       style="fill:none;fill-opacity:1;stroke:#00000d;stroke-width:0.14058855;stroke-miterlimit:4;stroke-dasharray:none;stroke-opacity:1"
       d="m 24.898649,50.665169 h 14.51402 c 1.480674,0 2.672697,0.953621 2.672697,2.138163 v 0.583086 c 0,1.184542 -1.192023,2.138162 -2.672697,2.138162 h -14.51402 c -1.480673,0 -2.672696,-0.95362 -2.672696,-2.138162 v -0.583086 c 0,-1.184542 1.192023,-2.138163 2.672696,-2.138163 z"
       id="rect815-0"
       inkscape:connector-curvature="0" />
    <path
       style="fill:none;fill-opacity:1;stroke:#00000d;stroke-width:0.14058855;stroke-miterlimit:4;stroke-dasharray:none;stroke-opacity:1"
       d="m 24.889894,58.047343 h 14.514019 c 1.480673,0 2.672697,0.953621 2.672697,2.138163 v 0.583086 c 0,1.184542 -1.192024,2.138163 -2.672697,2.138163 H 24.889894 c -1.480673,0 -2.672696,-0.953621 -2.672696,-2.138163 v -0.583086 c 0,-1.184542 1.192023,-2.138163 2.672696,-2.138163 z"
       id="rect815-6-0"
       inkscape:connector-curvature="0" />
    <path
       style="fill:none;fill-opacity:1;stroke:#00000d;stroke-width:0.14058855;stroke-miterlimit:4;stroke-dasharray:none;stroke-opacity:1"
       d="m 24.810619,64.844238 h 14.514018 c 1.480674,0 2.672697,0.953622 2.672697,2.138163 v 0.583086 c 0,1.184543 -1.192023,2.138163 -2.672697,2.138163 H 24.810619 c -1.480674,0 -2.672697,-0.95362 -2.672697,-2.138163 v -0.583086 c 0,-1.184541 1.192023,-2.138163 2.672697,-2.138163 z"
       id="rect815-4-5"
       inkscape:connector-curvature="0" />
    <path
       style="fill:none;fill-opacity:1;stroke:#00000d;stroke-width:0.14058855;stroke-miterlimit:4;stroke-dasharray:none;stroke-opacity:1"
       d="m 24.801863,72.226412 h 14.514019 c 1.480672,0 2.672697,0.953622 2.672697,2.138163 v 0.583086 c 0,1.184541 -1.192025,2.138163 -2.672697,2.138163 H 24.801863 c -1.480673,0 -2.672696,-0.953622 -2.672696,-2.138163 v -0.583086 c 0,-1.184541 1.192023,-2.138163 2.672696,-2.138163 z"
       id="rect815-6-7-6"
       inkscape:connector-curvature="0" />
    <path
       style="fill:none;fill-opacity:1;stroke:#00000d;stroke-width:0.14058855;stroke-miterlimit:4;stroke-dasharray:none;stroke-opacity:1"
       d="m 24.901063,78.7969 h 14.514018 c 1.480674,0 2.672697,0.953622 2.672697,2.138164 v 0.583086 c 0,1.184542 -1.192023,2.138161 -2.672697,2.138161 H 24.901063 c -1.480673,0 -2.672696,-0.953619 -2.672696,-2.138161 v -0.583086 c 0,-1.184542 1.192023,-2.138164 2.672696,-2.138164 z"
       id="rect815-8-8"
       inkscape:connector-curvature="0" />
    <path
       style="fill:none;fill-opacity:1;stroke:#00000d;stroke-width:0.14058855;stroke-miterlimit:4;stroke-dasharray:none;stroke-opacity:1"
       d="m 24.892307,86.179074 h 14.514018 c 1.480673,0 2.672697,0.953622 2.672697,2.138164 v 0.583086 c 0,1.184542 -1.192024,2.138164 -2.672697,2.138164 H 24.892307 c -1.480673,0 -2.672696,-0.953622 -2.672696,-2.138164 v -0.583086 c 0,-1.184542 1.192023,-2.138164 2.672696,-2.138164 z"
       id="rect815-6-8-8"
       inkscape:connector-curvature="0" />
    <path
       style="fill:none;fill-opacity:1;stroke:#00000d;stroke-width:0.14058855;stroke-miterlimit:4;stroke-dasharray:none;stroke-opacity:1"
       d="m 24.813032,92.975971 h 14.514017 c 1.480674,0 2.672697,0.953616 2.672697,2.138159 v 0.583078 c 0,1.184531 -1.192023,2.138148 -2.672697,2.138148 H 24.813032 c -1.480673,0 -2.672696,-0.953617 -2.672696,-2.138148 V 95.11413 c 0,-1.184543 1.192023,-2.138159 2.672696,-2.138159 z"
       id="rect815-4-4-2"
       inkscape:connector-curvature="0" />
    <path
       style="fill:none;fill-opacity:1;stroke:#00000d;stroke-width:0.14058855;stroke-miterlimit:4;stroke-dasharray:none;stroke-opacity:1"
       d="m 24.804276,100.35811 h 14.514018 c 1.480672,0 2.672697,0.95362 2.672697,2.13816 v 0.58309 c 0,1.18454 -1.192025,2.13816 -2.672697,2.13816 H 24.804276 c -1.480673,0 -2.672696,-0.95362 -2.672696,-2.13816 v -0.58309 c 0,-1.18454 1.192023,-2.13816 2.672696,-2.13816 z"
       id="rect815-6-7-2-5"
       inkscape:connector-curvature="0" />
    <path
       style="fill:none;fill-opacity:1;stroke:#00000d;stroke-width:0.14058855;stroke-miterlimit:4;stroke-dasharray:none;stroke-opacity:1"
       d="m 25.013249,107.4045 h 14.514016 c 1.480674,0 2.672697,0.95362 2.672697,2.13816 v 0.58309 c 0,1.18454 -1.192023,2.13816 -2.672697,2.13816 H 25.013249 c -1.480673,0 -2.672696,-0.95362 -2.672696,-2.13816 v -0.58309 c 0,-1.18454 1.192023,-2.13816 2.672696,-2.13816 z"
       id="rect815-7-4"
       inkscape:connector-curvature="0" />
    <path
       style="fill:none;fill-opacity:1;stroke:#00000d;stroke-width:0.14058855;stroke-miterlimit:4;stroke-dasharray:none;stroke-opacity:1"
       d="m 25.004494,114.78667 h 14.514015 c 1.480673,0 2.672697,0.95362 2.672697,2.13816 v 0.58309 c 0,1.18454 -1.192024,2.13816 -2.672697,2.13816 H 25.004494 c -1.480673,0 -2.672696,-0.95362 -2.672696,-2.13816 v -0.58309 c 0,-1.18454 1.192023,-2.13816 2.672696,-2.13816 z"
       id="rect815-6-2-4"
       inkscape:connector-curvature="0" />
    <path
       style="fill:none;fill-opacity:1;stroke:#00000d;stroke-width:0.14058855;stroke-miterlimit:4;stroke-dasharray:none;stroke-opacity:1"
       d="m 24.925219,121.58357 h 14.514014 c 1.480674,0 2.672697,0.95362 2.672697,2.13816 v 0.58309 c 0,1.18454 -1.192023,2.13816 -2.672697,2.13816 H 24.925219 c -1.480674,0 -2.672697,-0.95362 -2.672697,-2.13816 v -0.58309 c 0,-1.18454 1.192023,-2.13816 2.672697,-2.13816 z"
       id="rect815-4-6-4"
       inkscape:connector-curvature="0" />
    <path
       style="fill:none;fill-opacity:1;stroke:#00000d;stroke-width:0.14058855;stroke-miterlimit:4;stroke-dasharray:none;stroke-opacity:1"
       d="m 24.916463,128.96574 h 14.514015 c 1.480672,0 2.672697,0.95362 2.672697,2.13816 v 0.58309 c 0,1.18454 -1.192025,2.13816 -2.672697,2.13816 H 24.916463 c -1.480673,0 -2.672696,-0.95362 -2.672696,-2.13816 v -0.58309 c 0,-1.18454 1.192023,-2.13816 2.672696,-2.13816 z"
       id="rect815-6-7-9-6"
       inkscape:connector-curvature="0" />
    <path
       style="fill:none;fill-opacity:1;stroke:#00000d;stroke-width:0.14058855;stroke-miterlimit:4;stroke-dasharray:none;stroke-opacity:1"
       d="m 25.015663,135.53623 h 14.514014 c 1.480674,0 2.672697,0.95362 2.672697,2.13816 v 0.58309 c 0,1.18454 -1.192023,2.13816 -2.672697,2.13816 H 25.015663 c -1.480673,0 -2.672696,-0.95362 -2.672696,-2.13816 v -0.58309 c 0,-1.18454 1.192023,-2.13816 2.672696,-2.13816 z"
       id="rect815-8-1-2"
       inkscape:connector-curvature="0" />
    <path
       style="fill:none;fill-opacity:1;stroke:#00000d;stroke-width:0.14058855;stroke-miterlimit:4;stroke-dasharray:none;stroke-opacity:1"
       d="m 25.006907,142.9184 h 14.514014 c 1.480673,0 2.672697,0.95362 2.672697,2.13817 v 0.58308 c 0,1.18454 -1.192024,2.13817 -2.672697,2.13817 H 25.006907 c -1.480673,0 -2.672696,-0.95363 -2.672696,-2.13817 v -0.58308 c 0,-1.18455 1.192023,-2.13817 2.672696,-2.13817 z"
       id="rect815-6-8-7-6"
       inkscape:connector-curvature="0" />
    <path
       style="fill:none;fill-opacity:1;stroke:#00000d;stroke-width:0.14058855;stroke-miterlimit:4;stroke-dasharray:none;stroke-opacity:1"
       d="m 24.927632,149.7153 h 14.514013 c 1.480674,0 2.672697,0.95362 2.672697,2.13816 v 0.58308 c 0,1.18453 -1.192023,2.13814 -2.672697,2.13814 H 24.927632 c -1.480673,0 -2.672696,-0.95361 -2.672696,-2.13814 v -0.58308 c 0,-1.18454 1.192023,-2.13816 2.672696,-2.13816 z"
       id="rect815-4-4-1-6"
       inkscape:connector-curvature="0" />
    <path
       style="fill:none;fill-opacity:1;stroke:#00000d;stroke-width:0.14058855;stroke-miterlimit:4;stroke-dasharray:none;stroke-opacity:1"
       d="M 24.918876,157.09744 H 39.43289 c 1.480672,0 2.672697,0.95362 2.672697,2.13816 v 0.58309 c 0,1.18454 -1.192025,2.13816 -2.672697,2.13816 H 24.918876 c -1.480673,0 -2.672696,-0.95362 -2.672696,-2.13816 v -0.58309 c 0,-1.18454 1.192023,-2.13816 2.672696,-2.13816 z"
       id="rect815-6-7-2-3-6"
       inkscape:connector-curvature="0" />
  </g>
</svg>
