<?xml version="1.0" encoding="UTF-8" standalone="no"?>
<!-- exported from Silhouette Studio Business Edition V4.1.454ssbe -->

<svg
   xmlns:dc="http://purl.org/dc/elements/1.1/"
   xmlns:cc="http://creativecommons.org/ns#"
   xmlns:rdf="http://www.w3.org/1999/02/22-rdf-syntax-ns#"
   xmlns:svg="http://www.w3.org/2000/svg"
   xmlns="http://www.w3.org/2000/svg"
   xmlns:sodipodi="http://sodipodi.sourceforge.net/DTD/sodipodi-0.dtd"
   xmlns:inkscape="http://www.inkscape.org/namespaces/inkscape"
   version="1.1"
   width="1200mm"
   height="1000mm"
   viewBox="0 0 1200 1000"
   id="svg122"
   sodipodi:docname="yogas1lid.svg"
   inkscape:version="0.92.3 (2405546, 2018-03-11)">
  <metadata
     id="metadata126">
    <rdf:RDF>
      <cc:Work
         rdf:about="">
        <dc:format>image/svg+xml</dc:format>
        <dc:type
           rdf:resource="http://purl.org/dc/dcmitype/StillImage" />
        <dc:title />
      </cc:Work>
    </rdf:RDF>
  </metadata>
  <sodipodi:namedview
     pagecolor="#ffffff"
     bordercolor="#666666"
     borderopacity="1"
     objecttolerance="10"
     gridtolerance="10"
     guidetolerance="10"
     inkscape:pageopacity="0"
     inkscape:pageshadow="2"
     inkscape:window-width="1284"
     inkscape:window-height="921"
     id="namedview124"
     showgrid="false"
     inkscape:zoom="0.1279745"
     inkscape:cx="-259.11752"
     inkscape:cy="2694.2448"
     inkscape:window-x="0"
     inkscape:window-y="28"
     inkscape:window-maximized="1"
     inkscape:current-layer="g123" />
  <defs
     id="defs2" />
  <g
     transform="rotate(90,277.14995,428.64085)"
     id="g1301-1-4-0">
    <g
       id="g1508">
      <g
         id="g122">
        <g
           id="g123">
          <g
             id="g124">
            <path
               id="path8-4-5-0-6-4"
               d="m 198.87007,729.79178 c 0,0 0.5224,0.039 0.9362,0.13989 l 1.0286,0.29431 5.1949,1.49417 c 0,0 -0.0202,1.73751 -0.0213,1.82895 0,0 -0.01,0.86877 -0.0106,0.9145 -0.002,0.13456 0.004,0.31481 -0.0117,0.44845 -0.0151,0.12744 -0.0626,0.29286 -0.0894,0.41837 l -0.0482,0.0383 c 0,0 -0.3935,-0.0262 -0.7681,-0.13413 0,0 -0.6794,-0.22313 -0.905,-0.30034 -0.005,1.5262 -0.0993,30.52407 -0.0993,30.52407 0,0 -0.008,0.86509 -0.01,1.08136 -0.002,0.22283 0.0171,0.61948 -0.0804,1.1113 -0.0444,0.22421 -0.2323,1.40678 -1.2598,1.90727 -0.625,0.3044 -1.4355,0.2408 -1.9861,0.0131 -0.4583,-0.18954 -0.8026,-0.48091 -1.1333,-0.85044 -0.1295,-0.14466 -0.5126,-0.59964 -0.7268,-1.07093 -0.1273,-0.27991 -0.1253,-0.53422 -0.1303,-0.67079 0,0 -0.0182,-0.89459 -0.0226,-1.4911 0,0 -0.0911,-11.60934 -0.1037,-15.47921 0,0 0.0138,-12.61168 0.0232,-14.83725 8e-4,-0.17966 0.0162,-3.2338 0.0239,-3.59303 0.0157,-0.73437 0.04,-0.97877 0.087,-1.63 l 0.068,-0.13492 0.0447,-0.0219"
               style="fill:none;fill-opacity:1;stroke:#000000;stroke-width:1;stroke-linecap:round;stroke-linejoin:round;stroke-miterlimit:4;stroke-dasharray:none;stroke-opacity:0.99468085"
               inkscape:connector-curvature="0" />
            <path
               id="path12-6-7-1-7-7"
               d="m -34.84244,789.74669 181.99801,0.28114"
               style="fill:none;fill-opacity:1;stroke:#000000;stroke-width:1;stroke-linecap:round;stroke-linejoin:round;stroke-miterlimit:4;stroke-dasharray:none;stroke-opacity:0.99468085"
               inkscape:connector-curvature="0"
               sodipodi:nodetypes="cc" />
            <path
               id="path22-7-3-0-5-8"
               d="m -34.84244,789.74669 -4e-5,-9.54956"
               style="fill:none;fill-opacity:1;stroke:#000000;stroke-width:1;stroke-linecap:round;stroke-linejoin:round;stroke-miterlimit:4;stroke-dasharray:none;stroke-opacity:0.99468085"
               inkscape:connector-curvature="0"
               sodipodi:nodetypes="cc" />
            <g
               transform="rotate(-90,344.81336,453.90769)"
               id="g30-4-1-6-3-4"
               style="fill:none;fill-opacity:1;stroke:#000000;stroke-width:1;stroke-miterlimit:4;stroke-dasharray:none;stroke-opacity:0.99468085">
              <path
                 id="path24-5-8-4-5-5"
                 d="m 18.52392,74.25185 v 0 0"
                 style="fill:none;fill-opacity:1;stroke:#000000;stroke-width:1;stroke-linecap:round;stroke-linejoin:round;stroke-miterlimit:4;stroke-dasharray:none;stroke-opacity:0.99468085"
                 inkscape:connector-curvature="0"
                 sodipodi:nodetypes="ccc" />
              <path
                 id="path26-2-9-6-6-0"
                 d="m 18.52392,74.25185 10e-6,-44.58625 -9.581331,-7e-5"
                 style="fill:none;fill-opacity:1;stroke:#000000;stroke-width:1;stroke-linecap:round;stroke-linejoin:round;stroke-miterlimit:4;stroke-dasharray:none;stroke-opacity:0.99468085"
                 inkscape:connector-curvature="0"
                 sodipodi:nodetypes="ccc" />
            </g>
            <g
               transform="rotate(-90,344.81336,453.90769)"
               id="g54-3-8-8-2-3"
               style="fill:none;fill-opacity:1;stroke:#000000;stroke-width:1;stroke-miterlimit:4;stroke-dasharray:none;stroke-opacity:0.99468085">
              <g
                 id="g50-6-8-4-9-6"
                 style="fill:none;fill-opacity:1;stroke:#000000;stroke-width:1;stroke-miterlimit:4;stroke-dasharray:none;stroke-opacity:0.99468085">
                <path
                   id="path46-8-8-0-1-1"
                   d="m 19.147702,321.8465 189.499798,0.0128 c 0.5463,-0.001 2.3745,0.0246 3.6394,-0.1321 0.2333,-0.0289 0.7798,-0.0979 1.5429,-0.2769 0.2989,-0.0702 1.1909,-0.3113 1.9578,-0.5987 0.1215,-0.0455 1.2265,-0.4565 2.3361,-1.1284 0.2172,-0.1315 1.2041,-0.7289 2.0514,-1.4949 0.0807,-0.0729 0.818,-0.7305 1.4916,-1.5854 0.5379,-0.6827 1.0521,-1.5427 1.3237,-2.1009 0.0428,-0.0878 0.426,-0.8856 0.6962,-1.8232 0.1095,-0.38 0.2847,-1.0588 0.3507,-1.9462 0.0671,-0.9017 0.014,-287.3211 0.0142,-288.5869"
                   style="fill:none;fill-opacity:1;stroke:#000000;stroke-width:1;stroke-linecap:round;stroke-linejoin:round;stroke-miterlimit:4;stroke-dasharray:none;stroke-opacity:0.99468085"
                   inkscape:connector-curvature="0"
                   sodipodi:nodetypes="cccccccccccc" />
              </g>
              <path
                 id="path52-4-9-2-2-0"
                 d="m 8.766415,300.9247 0.00938,14.6197 c 0,0 0.00157,1.0696 0.00263,1.7827 7.33e-4,0.497 -0.028312,1.0011 0.054085,1.4191 0.054638,0.2772 0.191414,0.785 0.579628,1.2884 0.162712,0.211 0.57465,0.7247 1.355214,1.1485 0.40539,0.2201 1.10704,0.5042 1.74632,0.5957 0.2572,0.0368 0.5187,0.0398 1.03832,0.0449 0.17667,0.002 0.41224,0.004 0.5889,0.006 0,0 4.50613,0.0155 5.00681,0.0168"
                 style="fill:none;fill-opacity:1;stroke:#000000;stroke-width:1;stroke-linecap:round;stroke-linejoin:round;stroke-miterlimit:4;stroke-dasharray:none;stroke-opacity:0.99468085"
                 inkscape:connector-curvature="0"
                 sodipodi:nodetypes="cccccccccc" />
            </g>
            <g
               transform="rotate(-90,344.81336,453.90769)"
               id="g70-2-3-1-7-6"
               style="fill:none;fill-opacity:1;stroke:#000000;stroke-width:1;stroke-miterlimit:4;stroke-dasharray:none;stroke-opacity:0.99468085">
              <path
                 id="path64-0-0-3-0-3"
                 d="m 18.52388,300.8384 v 0 l 1e-5,-44.5861"
                 style="fill:none;fill-opacity:1;stroke:#000000;stroke-width:1;stroke-linecap:round;stroke-linejoin:round;stroke-miterlimit:4;stroke-dasharray:none;stroke-opacity:0.99468085"
                 inkscape:connector-curvature="0"
                 sodipodi:nodetypes="ccc" />
            </g>
            <path
               id="path78-6-4-0-9-2"
               d="m 147.15557,790.02783 0.002,-9.83067"
               style="fill:none;fill-opacity:1;stroke:#000000;stroke-width:1;stroke-linecap:round;stroke-linejoin:round;stroke-miterlimit:4;stroke-dasharray:none;stroke-opacity:0.99468085"
               inkscape:connector-curvature="0"
               sodipodi:nodetypes="cc" />
            <path
               id="path80-4-0-3-3-0"
               d="m 191.83037,789.95464 -0.0863,-9.75747"
               style="fill:none;fill-opacity:1;stroke:#000000;stroke-width:1;stroke-linecap:round;stroke-linejoin:round;stroke-miterlimit:4;stroke-dasharray:none;stroke-opacity:0.99468085"
               inkscape:connector-curvature="0"
               sodipodi:nodetypes="cc" />
            <path
               id="path90-8-9-9-6-6"
               d="m -62.17051,593.52725 c 0.02267,-0.0616 0.0582,-0.1419 0.07555,-0.2052 0.01406,-0.0512 0.0214,-0.1221 0.03218,-0.1741 0.007,-0.0339 0.01581,-0.0795 0.0259,-0.1126 0.02653,-0.0874 0.1821,-0.4188 0.1821,-0.4188 0.01002,-0.0218 0.10819,-0.2467 0.25262,-0.4063 0.0462,-0.0511 0.11803,-0.1091 0.1659,-0.1586 0.04829,-0.05 0.10805,-0.1208 0.15435,-0.1726 0,0 -0.04412,-0.2495 -0.04855,-0.2621 -0.03343,-0.095 -0.2274,-0.4212 -0.24023,-0.4429 l -0.55762,-0.9464 c 0.20147,-0.1843 0.79646,-0.7643 1.42345,-1.1343 0.3393,-0.2003 0.34799,-0.2182 0.73747,-0.2777 0.17083,0.127 0.17836,0.1219 0.31993,0.2809 0.04671,0.0525 0.87112,1.102 0.87112,1.102 0,0 3.01412,3.8453 3.34652,4.2745 0.32398,0.4183 1.72223,2.2357 2.13773,2.8059 0,0 0.26645,0.3334 0.38355,0.589 0.03225,0.0704 0.08457,0.2372 0.12241,0.3674 l -0.08342,0.2285 c -0.06275,0.0599 -0.14265,0.1441 -0.2092,0.1998 -0.06671,0.0558 -0.16377,0.1199 -0.23412,0.1711 -0.07441,0.0542 -0.17394,0.1259 -0.24836,0.1801 0,0 -0.45284,0.3307 -0.50315,0.3674 0,0 -10.22131,7.497 -10.75821,7.8931 0,0 -8.88958,6.5927 -11.84677,8.7984 0,0 -0.57743,0.4307 -0.6793,0.5067 -0.09553,0.0712 -0.21883,0.1721 -0.31841,0.2376 -0.08209,0.054 -0.19866,0.1145 -0.2838,0.1636 l -0.12219,0.006 c -0.03479,-0.0286 -0.08411,-0.0636 -0.11597,-0.0955 -0.05132,-0.0513 -0.1088,-0.1298 -0.15374,-0.1868 -0.05072,-0.0644 -0.11532,-0.1525 -0.16452,-0.218 0,0 -0.48494,-0.6486 -0.51043,-0.6828 0,0 -1.66813,-2.2378 -1.7559,-2.3556 -0.24918,-0.3345 -0.58984,-0.7744 -0.83028,-1.1153 -0.10495,-0.1488 -0.23306,-0.3553 -0.33703,-0.5048 -0.35953,-0.5168 -0.89312,-1.1289 -1.13034,-1.3993 -0.10195,-0.1163 -0.21499,-0.2565 -0.30683,-0.3177 -0.0585,-0.0391 -0.22729,-0.0949 -0.32697,-0.1294 0,0 -0.26995,0.1078 -0.37905,0.1674 -0.0813,0.0444 -0.18214,0.1164 -0.26177,0.1637 -0.11676,0.0694 -0.16444,0.1132 -0.35165,0.1642 -0.03956,0.0108 -0.09294,0.0227 -0.13277,0.0324 -0.0574,-0.0335 -0.13923,-0.0703 -0.19133,-0.1115 -0.05182,-0.041 -0.10891,-0.1093 -0.15172,-0.1597 0,0 -0.33742,-0.4427 -0.48073,-0.6334 0,0 -0.48102,-0.6389 -0.5448,-0.7645 -0.04233,-0.0833 -0.07193,-0.2058 -0.10276,-0.2941 0.13332,-0.1215 0.30701,-0.2882 0.44435,-0.4051 0.17237,-0.1469 0.4129,-0.3296 0.59077,-0.4697 0,0 4.20702,-3.2634 4.42864,-3.435 l 0.31889,-0.0691 c 0.01985,0.011 0.21452,0.1002 0.36528,0.2701 0,0 0.34384,0.4382 0.38192,0.487 l 0.25773,0.3302 c 0.0384,0.047 0.0875,0.1118 0.13155,0.1534 0.0333,0.0315 0.08493,0.0649 0.12133,0.0928 0,0 0.15465,0.0332 0.30751,0.0149 0.0412,-0.005 0.09394,-0.0233 0.13421,-0.0334 0.15019,-0.104 0.214,-0.1498 0.41882,-0.3116 l 0.10886,-0.2259 c -0.0031,-0.0184 -0.02629,-0.2058 -0.08681,-0.3619 -0.01068,-0.0276 -0.03109,-0.0616 -0.0444,-0.0879 l -0.08877,-0.176 c 0,0 -0.16871,-0.3342 -0.17758,-0.3517 -0.20335,-0.403 -0.34079,-0.8164 -0.03572,-1.504 0.05381,-0.1213 0.19079,-0.4621 0.58415,-0.6644 0.06304,-0.0324 0.33298,-0.1607 0.68713,-0.1739 0.09187,-0.003 0.50133,-0.009 0.8873,0.2406 0.08594,0.0556 0.27674,0.2275 0.39227,0.3286 0.15456,0.1353 0.35511,0.3224 0.51689,0.4489 0.09077,0.0711 0.22004,0.1547 0.31434,0.2209 0,0 1.16586,-0.9389 1.22722,-0.9883 0,0 0.63148,-0.5079 0.70125,-0.5648 0.02006,-0.0164 0.32198,-0.2636 0.3864,-0.3447 0.04692,-0.0591 0.08843,-0.1522 0.12632,-0.2175 -0.01051,-0.0574 -0.01653,-0.1359 -0.03506,-0.1912 -0.02159,-0.0645 -0.06837,-0.1433 -0.10165,-0.2025 -0.03956,-0.0704 -0.43254,-0.682 -0.43254,-0.682 -0.15057,-0.2412 -0.14387,-0.2856 -0.2206,-0.5921 0.49291,-0.5662 0.56214,-0.6102 1.0872,-1.0354 0.04799,-0.0388 0.31409,-0.277 0.52471,-0.3254 0.18823,-0.0432 0.36307,0.0254 0.59298,0.2507 0.04483,0.0439 0.37916,0.4186 0.4215,0.465 0.09814,0.1074 0.22208,0.2582 0.332,0.3535 0.03713,0.0322 0.09384,0.0658 0.13406,0.094 l 0.33527,0.0808 c 0.02704,-0.0129 0.33623,-0.1429 0.52081,-0.2956 0.0302,-0.025 0.13805,-0.1393 0.26775,-0.2862 l 0.03138,-0.1441 c -0.08869,-0.2945 -0.08078,-0.3047 -0.24734,-0.5632 -0.04282,-0.0665 -0.10532,-0.1515 -0.1489,-0.2175 -0.1304,-0.1974 -0.29661,-0.4657 -0.42373,-0.6652 l -0.04782,-0.255 0.18432,-0.3183 c 0.77742,-0.5847 0.86006,-0.6551 1.7389,-1.2842 0.0667,-0.0477 0.33659,-0.2719 0.73723,-0.3594 0.46896,-0.1024 0.92897,-0.1186 1.36956,0.0719 0.15063,0.0651 0.56341,0.3368 0.70166,0.4252 0.05589,0.0358 0.12842,0.0868 0.18633,0.1192 0.08767,0.049 0.211,0.1021 0.30142,0.1458 l 0.12114,-0.0218 0.96498,-0.8312 c 0,0 0.27811,-0.2102 0.35556,-0.2497 0,0 0.31648,-0.1179 0.57541,-0.2144 0.02794,-0.0105 0.3666,-0.1292 0.55503,-0.2194 0.06762,-0.0323 0.15383,-0.0831 0.21979,-0.1187 l 0.12994,-0.1561"
               style="fill:none;fill-opacity:1;stroke:#000000;stroke-width:1;stroke-linecap:round;stroke-linejoin:round;stroke-miterlimit:4;stroke-dasharray:none;stroke-opacity:0.99468085"
               inkscape:connector-curvature="0" />
            <g
               transform="rotate(-90,344.81336,453.90769)"
               id="g118-2-7-0-0-1"
               style="fill:none;fill-opacity:1;stroke:#000000;stroke-width:1;stroke-miterlimit:4;stroke-dasharray:none;stroke-opacity:0.99468085">
              <path
                 id="path98-7-7-5-6-5"
                 d="m 224.0515,22.1857 c 0,0 -0.004,-1.65215 -0.1878,-2.73204 -0.013,-0.07615 -0.1355,-0.76464 -0.3799,-1.49735 -0.1069,-0.32061 -0.3597,-0.95106 -0.6727,-1.55022 -0.1866,-0.35734 -0.9807,-1.819 -2.4415,-3.20788 -0.4194,-0.39876 -1.1964,-1.06934 -2.3145,-1.7367 -0.5468,-0.32639 -2.8738,-1.700782 -6.043,-2.009868"
                 style="fill:none;fill-opacity:1;stroke:#000000;stroke-width:1;stroke-linecap:round;stroke-linejoin:round;stroke-miterlimit:4;stroke-dasharray:none;stroke-opacity:0.99468085"
                 inkscape:connector-curvature="0"
                 sodipodi:nodetypes="ccccccc" />
              <g
                 id="g114-6-8-4-2-5"
                 style="fill:none;fill-opacity:1;stroke:#000000;stroke-width:1;stroke-miterlimit:4;stroke-dasharray:none;stroke-opacity:0.99468085">
                <path
                   id="path112-5-3-2-6-4"
                   d="M 8.942599,29.66553 8.780962,14.22601 c 2.02e-4,-0.07584 -0.013298,-1.21524 0.022182,-1.5165 0.091759,-0.77908 0.470101,-1.32994 0.689034,-1.60129 0.543678,-0.67385 1.256008,-1.05694 1.754328,-1.267925 0,0 0.5336,-0.218567 0.99168,-0.316513 0.37031,-0.079178 0.51561,-0.087509 0.94145,-0.099549 0.23305,-0.00659 198.599334,0.028909 198.832464,0.027409"
                   style="fill:none;fill-opacity:1;stroke:#000000;stroke-width:1;stroke-linecap:round;stroke-linejoin:round;stroke-miterlimit:4;stroke-dasharray:none;stroke-opacity:0.99468085"
                   inkscape:connector-curvature="0"
                   sodipodi:nodetypes="cccccccc" />
              </g>
            </g>
            <path
               id="path8-4-5-0-6-4-6"
               d="m 198.63224,955.71433 c 0,0 0.5224,0.039 0.9362,0.13989 l 1.0286,0.29431 5.1949,1.49417 c 0,0 -0.0202,1.73751 -0.0213,1.82895 0,0 -0.01,0.86877 -0.0106,0.9145 -0.002,0.13456 0.004,0.31481 -0.0117,0.44845 -0.0151,0.12744 -0.0626,0.29286 -0.0894,0.41837 l -0.0482,0.0383 c 0,0 -0.3935,-0.0262 -0.7681,-0.13413 0,0 -0.6794,-0.22313 -0.905,-0.30034 -0.005,1.5262 -0.0993,30.52407 -0.0993,30.52407 0,0 -0.008,0.86509 -0.01,1.08136 -0.002,0.22283 0.0171,0.61948 -0.0804,1.1113 -0.0444,0.22421 -0.2323,1.40678 -1.2598,1.90727 -0.625,0.3044 -1.4355,0.2408 -1.9861,0.0131 -0.4583,-0.18954 -0.8026,-0.48091 -1.1333,-0.85044 -0.1295,-0.14466 -0.5126,-0.59964 -0.7268,-1.07093 -0.1273,-0.27991 -0.1253,-0.53422 -0.1303,-0.67079 0,0 -0.0182,-0.89459 -0.0226,-1.4911 0,0 -0.0911,-11.60934 -0.1037,-15.47921 0,0 0.0138,-12.61168 0.0232,-14.83725 8e-4,-0.17966 0.0162,-3.2338 0.0239,-3.59303 0.0157,-0.73437 0.04,-0.97877 0.087,-1.63 l 0.068,-0.13492 0.0447,-0.0219"
               style="fill:none;fill-opacity:1;stroke:#000000;stroke-width:1;stroke-linecap:round;stroke-linejoin:round;stroke-miterlimit:4;stroke-dasharray:none;stroke-opacity:0.99468085"
               inkscape:connector-curvature="0" />
            <path
               id="path12-6-7-1-7-7-5"
               d="m -35.08027,1015.6692 181.99801,0.2812"
               style="fill:none;fill-opacity:1;stroke:#000000;stroke-width:1;stroke-linecap:round;stroke-linejoin:round;stroke-miterlimit:4;stroke-dasharray:none;stroke-opacity:0.99468085"
               inkscape:connector-curvature="0"
               sodipodi:nodetypes="cc" />
            <path
               id="path22-7-3-0-5-8-6"
               d="m -35.08027,1015.6692 -4e-5,-9.5495"
               style="fill:none;fill-opacity:1;stroke:#000000;stroke-width:1;stroke-linecap:round;stroke-linejoin:round;stroke-miterlimit:4;stroke-dasharray:none;stroke-opacity:0.99468085"
               inkscape:connector-curvature="0"
               sodipodi:nodetypes="cc" />
            <g
               transform="rotate(-90,457.65572,566.98788)"
               id="g30-4-1-6-3-4-9"
               style="fill:none;fill-opacity:1;stroke:#000000;stroke-width:1;stroke-miterlimit:4;stroke-dasharray:none;stroke-opacity:0.99468085">
              <path
                 id="path24-5-8-4-5-5-3"
                 d="m 18.52392,74.25185 v 0 0"
                 style="fill:none;fill-opacity:1;stroke:#000000;stroke-width:1;stroke-linecap:round;stroke-linejoin:round;stroke-miterlimit:4;stroke-dasharray:none;stroke-opacity:0.99468085"
                 inkscape:connector-curvature="0"
                 sodipodi:nodetypes="ccc" />
              <path
                 id="path26-2-9-6-6-0-7"
                 d="m 18.52392,74.25185 10e-6,-44.58625 -9.581331,-7e-5"
                 style="fill:none;fill-opacity:1;stroke:#000000;stroke-width:1;stroke-linecap:round;stroke-linejoin:round;stroke-miterlimit:4;stroke-dasharray:none;stroke-opacity:0.99468085"
                 inkscape:connector-curvature="0"
                 sodipodi:nodetypes="ccc" />
            </g>
            <g
               transform="rotate(-90,457.65572,566.98788)"
               id="g54-3-8-8-2-3-4"
               style="fill:none;fill-opacity:1;stroke:#000000;stroke-width:1;stroke-miterlimit:4;stroke-dasharray:none;stroke-opacity:0.99468085">
              <g
                 id="g50-6-8-4-9-6-5"
                 style="fill:none;fill-opacity:1;stroke:#000000;stroke-width:1;stroke-miterlimit:4;stroke-dasharray:none;stroke-opacity:0.99468085">
                <path
                   id="path46-8-8-0-1-1-2"
                   d="m 19.147702,321.8465 189.499798,0.0128 c 0.5463,-0.001 2.3745,0.0246 3.6394,-0.1321 0.2333,-0.0289 0.7798,-0.0979 1.5429,-0.2769 0.2989,-0.0702 1.1909,-0.3113 1.9578,-0.5987 0.1215,-0.0455 1.2265,-0.4565 2.3361,-1.1284 0.2172,-0.1315 1.2041,-0.7289 2.0514,-1.4949 0.0807,-0.0729 0.818,-0.7305 1.4916,-1.5854 0.5379,-0.6827 1.0521,-1.5427 1.3237,-2.1009 0.0428,-0.0878 0.426,-0.8856 0.6962,-1.8232 0.1095,-0.38 0.2847,-1.0588 0.3507,-1.9462 0.0671,-0.9017 0.014,-287.3211 0.0142,-288.5869"
                   style="fill:none;fill-opacity:1;stroke:#000000;stroke-width:1;stroke-linecap:round;stroke-linejoin:round;stroke-miterlimit:4;stroke-dasharray:none;stroke-opacity:0.99468085"
                   inkscape:connector-curvature="0"
                   sodipodi:nodetypes="cccccccccccc" />
              </g>
              <path
                 id="path52-4-9-2-2-0-5"
                 d="m 8.766415,300.9247 0.00938,14.6197 c 0,0 0.00157,1.0696 0.00263,1.7827 7.33e-4,0.497 -0.028312,1.0011 0.054085,1.4191 0.054638,0.2772 0.191414,0.785 0.579628,1.2884 0.162712,0.211 0.57465,0.7247 1.355214,1.1485 0.40539,0.2201 1.10704,0.5042 1.74632,0.5957 0.2572,0.0368 0.5187,0.0398 1.03832,0.0449 0.17667,0.002 0.41224,0.004 0.5889,0.006 0,0 4.50613,0.0155 5.00681,0.0168"
                 style="fill:none;fill-opacity:1;stroke:#000000;stroke-width:1;stroke-linecap:round;stroke-linejoin:round;stroke-miterlimit:4;stroke-dasharray:none;stroke-opacity:0.99468085"
                 inkscape:connector-curvature="0"
                 sodipodi:nodetypes="cccccccccc" />
            </g>
            <g
               transform="rotate(-90,457.65572,566.98788)"
               id="g70-2-3-1-7-6-4"
               style="fill:none;fill-opacity:1;stroke:#000000;stroke-width:1;stroke-miterlimit:4;stroke-dasharray:none;stroke-opacity:0.99468085">
              <path
                 id="path64-0-0-3-0-3-7"
                 d="m 18.52388,300.8384 v 0 l 1e-5,-44.5861"
                 style="fill:none;fill-opacity:1;stroke:#000000;stroke-width:1;stroke-linecap:round;stroke-linejoin:round;stroke-miterlimit:4;stroke-dasharray:none;stroke-opacity:0.99468085"
                 inkscape:connector-curvature="0"
                 sodipodi:nodetypes="ccc" />
            </g>
            <path
               id="path78-6-4-0-9-2-4"
               d="m 146.91774,1015.9504 0.002,-9.8307"
               style="fill:none;fill-opacity:1;stroke:#000000;stroke-width:1;stroke-linecap:round;stroke-linejoin:round;stroke-miterlimit:4;stroke-dasharray:none;stroke-opacity:0.99468085"
               inkscape:connector-curvature="0"
               sodipodi:nodetypes="cc" />
            <path
               id="path80-4-0-3-3-0-4"
               d="m 191.59254,1015.8772 -0.0863,-9.7575"
               style="fill:none;fill-opacity:1;stroke:#000000;stroke-width:1;stroke-linecap:round;stroke-linejoin:round;stroke-miterlimit:4;stroke-dasharray:none;stroke-opacity:0.99468085"
               inkscape:connector-curvature="0"
               sodipodi:nodetypes="cc" />
            <path
               id="path90-8-9-9-6-6-3"
               d="m -62.40834,819.4498 c 0.02267,-0.0616 0.0582,-0.1419 0.07555,-0.2052 0.01406,-0.0512 0.0214,-0.1221 0.03218,-0.1741 0.007,-0.0339 0.01581,-0.0795 0.0259,-0.1126 0.02653,-0.0874 0.1821,-0.4188 0.1821,-0.4188 0.01002,-0.0218 0.10819,-0.2467 0.25262,-0.4063 0.0462,-0.0511 0.11803,-0.1091 0.1659,-0.1586 0.04829,-0.05 0.10805,-0.1208 0.15435,-0.1726 0,0 -0.04412,-0.2495 -0.04855,-0.2621 -0.03343,-0.095 -0.2274,-0.4212 -0.24023,-0.4429 l -0.55762,-0.9464 c 0.20147,-0.1843 0.79646,-0.7643 1.42345,-1.1343 0.3393,-0.2003 0.34799,-0.2182 0.73747,-0.2777 0.17083,0.127 0.17836,0.1219 0.31993,0.2809 0.04671,0.0525 0.87112,1.102 0.87112,1.102 0,0 3.01412,3.8453 3.34652,4.2745 0.32398,0.4183 1.72223,2.2357 2.13773,2.8059 0,0 0.26645,0.3334 0.38355,0.589 0.03225,0.0704 0.08457,0.2372 0.12241,0.3674 l -0.08342,0.2285 c -0.06275,0.0599 -0.14265,0.1441 -0.2092,0.1998 -0.06671,0.0558 -0.16377,0.1199 -0.23412,0.1711 -0.07441,0.0542 -0.17394,0.1259 -0.24836,0.1801 0,0 -0.45284,0.3307 -0.50315,0.3674 0,0 -10.22131,7.497 -10.75821,7.8931 0,0 -8.88958,6.5927 -11.84677,8.7984 0,0 -0.57743,0.4307 -0.6793,0.5067 -0.09553,0.0712 -0.21883,0.1721 -0.31841,0.2376 -0.08209,0.054 -0.19866,0.1145 -0.2838,0.1636 l -0.12219,0.006 c -0.03479,-0.0286 -0.08411,-0.0636 -0.11597,-0.0955 -0.05132,-0.0513 -0.1088,-0.1298 -0.15374,-0.1868 -0.05072,-0.0644 -0.11532,-0.1525 -0.16452,-0.218 0,0 -0.48494,-0.6486 -0.51043,-0.6828 0,0 -1.66813,-2.2378 -1.7559,-2.3556 -0.24918,-0.3345 -0.58984,-0.7744 -0.83028,-1.1153 -0.10495,-0.1488 -0.23306,-0.3553 -0.33703,-0.5048 -0.35953,-0.5168 -0.89312,-1.1289 -1.13034,-1.3993 -0.10195,-0.1163 -0.21499,-0.2565 -0.30683,-0.3177 -0.0585,-0.0391 -0.22729,-0.0949 -0.32697,-0.1294 0,0 -0.26995,0.1078 -0.37905,0.1674 -0.0813,0.0444 -0.18214,0.1164 -0.26177,0.1637 -0.11676,0.0694 -0.16444,0.1132 -0.35165,0.1642 -0.03956,0.0108 -0.09294,0.0227 -0.13277,0.0324 -0.0574,-0.0335 -0.13923,-0.0703 -0.19133,-0.1115 -0.05182,-0.041 -0.10891,-0.1093 -0.15172,-0.1597 0,0 -0.33742,-0.4427 -0.48073,-0.6334 0,0 -0.48102,-0.6389 -0.5448,-0.7645 -0.04233,-0.0833 -0.07193,-0.2058 -0.10276,-0.2941 0.13332,-0.1215 0.30701,-0.2882 0.44435,-0.4051 0.17237,-0.1469 0.4129,-0.3296 0.59077,-0.4697 0,0 4.20702,-3.2634 4.42864,-3.435 l 0.31889,-0.0691 c 0.01985,0.011 0.21452,0.1002 0.36528,0.2701 0,0 0.34384,0.4382 0.38192,0.487 l 0.25773,0.3302 c 0.0384,0.047 0.0875,0.1118 0.13155,0.1534 0.0333,0.0315 0.08493,0.0649 0.12133,0.0928 0,0 0.15465,0.0332 0.30751,0.0149 0.0412,-0.005 0.09394,-0.0233 0.13421,-0.0334 0.15019,-0.104 0.214,-0.1498 0.41882,-0.3116 l 0.10886,-0.2259 c -0.0031,-0.0184 -0.02629,-0.2058 -0.08681,-0.3619 -0.01068,-0.0276 -0.03109,-0.0616 -0.0444,-0.0879 l -0.08877,-0.176 c 0,0 -0.16871,-0.3342 -0.17758,-0.3517 -0.20335,-0.403 -0.34079,-0.8164 -0.03572,-1.504 0.05381,-0.1213 0.19079,-0.4621 0.58415,-0.6644 0.06304,-0.0324 0.33298,-0.1607 0.68713,-0.1739 0.09187,-0.003 0.50133,-0.009 0.8873,0.2406 0.08594,0.0556 0.27674,0.2275 0.39227,0.3286 0.15456,0.1353 0.35511,0.3224 0.51689,0.4489 0.09077,0.0711 0.22004,0.1547 0.31434,0.2209 0,0 1.16586,-0.9389 1.22722,-0.9883 0,0 0.63148,-0.5079 0.70125,-0.5648 0.02006,-0.0164 0.32198,-0.2636 0.3864,-0.3447 0.04692,-0.0591 0.08843,-0.1522 0.12632,-0.2175 -0.01051,-0.0574 -0.01653,-0.1359 -0.03506,-0.1912 -0.02159,-0.0645 -0.06837,-0.1433 -0.10165,-0.2025 -0.03956,-0.0704 -0.43254,-0.682 -0.43254,-0.682 -0.15057,-0.2412 -0.14387,-0.2856 -0.2206,-0.5921 0.49291,-0.5662 0.56214,-0.6102 1.0872,-1.0354 0.04799,-0.0388 0.31409,-0.277 0.52471,-0.3254 0.18823,-0.0432 0.36307,0.0254 0.59298,0.2507 0.04483,0.0439 0.37916,0.4186 0.4215,0.465 0.09814,0.1074 0.22208,0.2582 0.332,0.3535 0.03713,0.0322 0.09384,0.0658 0.13406,0.094 l 0.33527,0.0808 c 0.02704,-0.0129 0.33623,-0.1429 0.52081,-0.2956 0.0302,-0.025 0.13805,-0.1393 0.26775,-0.2862 l 0.03138,-0.1441 c -0.08869,-0.2945 -0.08078,-0.3047 -0.24734,-0.5632 -0.04282,-0.0665 -0.10532,-0.1515 -0.1489,-0.2175 -0.1304,-0.1974 -0.29661,-0.4657 -0.42373,-0.6652 l -0.04782,-0.255 0.18432,-0.3183 c 0.77742,-0.5847 0.86006,-0.6551 1.7389,-1.2842 0.0667,-0.0477 0.33659,-0.2719 0.73723,-0.3594 0.46896,-0.1024 0.92897,-0.1186 1.36956,0.0719 0.15063,0.0651 0.56341,0.3368 0.70166,0.4252 0.05589,0.0358 0.12842,0.0868 0.18633,0.1192 0.08767,0.049 0.211,0.1021 0.30142,0.1458 l 0.12114,-0.0218 0.96498,-0.8312 c 0,0 0.27811,-0.2102 0.35556,-0.2497 0,0 0.31648,-0.1179 0.57541,-0.2144 0.02794,-0.0105 0.3666,-0.1292 0.55503,-0.2194 0.06762,-0.0323 0.15383,-0.0831 0.21979,-0.1187 l 0.12994,-0.1561"
               style="fill:none;fill-opacity:1;stroke:#000000;stroke-width:1;stroke-linecap:round;stroke-linejoin:round;stroke-miterlimit:4;stroke-dasharray:none;stroke-opacity:0.99468085"
               inkscape:connector-curvature="0" />
            <g
               transform="rotate(-90,457.65572,566.98788)"
               id="g118-2-7-0-0-1-0"
               style="fill:none;fill-opacity:1;stroke:#000000;stroke-width:1;stroke-miterlimit:4;stroke-dasharray:none;stroke-opacity:0.99468085">
              <path
                 id="path98-7-7-5-6-5-7"
                 d="m 224.0515,22.1857 c 0,0 -0.004,-1.65215 -0.1878,-2.73204 -0.013,-0.07615 -0.1355,-0.76464 -0.3799,-1.49735 -0.1069,-0.32061 -0.3597,-0.95106 -0.6727,-1.55022 -0.1866,-0.35734 -0.9807,-1.819 -2.4415,-3.20788 -0.4194,-0.39876 -1.1964,-1.06934 -2.3145,-1.7367 -0.5468,-0.32639 -2.8738,-1.700782 -6.043,-2.009868"
                 style="fill:none;fill-opacity:1;stroke:#000000;stroke-width:1;stroke-linecap:round;stroke-linejoin:round;stroke-miterlimit:4;stroke-dasharray:none;stroke-opacity:0.99468085"
                 inkscape:connector-curvature="0"
                 sodipodi:nodetypes="ccccccc" />
              <g
                 id="g114-6-8-4-2-5-8"
                 style="fill:none;fill-opacity:1;stroke:#000000;stroke-width:1;stroke-miterlimit:4;stroke-dasharray:none;stroke-opacity:0.99468085">
                <path
                   id="path112-5-3-2-6-4-6"
                   d="M 8.942599,29.66553 8.780962,14.22601 c 2.02e-4,-0.07584 -0.013298,-1.21524 0.022182,-1.5165 0.091759,-0.77908 0.470101,-1.32994 0.689034,-1.60129 0.543678,-0.67385 1.256008,-1.05694 1.754328,-1.267925 0,0 0.5336,-0.218567 0.99168,-0.316513 0.37031,-0.079178 0.51561,-0.087509 0.94145,-0.099549 0.23305,-0.00659 198.599334,0.028909 198.832464,0.027409"
                   style="fill:none;fill-opacity:1;stroke:#000000;stroke-width:1;stroke-linecap:round;stroke-linejoin:round;stroke-miterlimit:4;stroke-dasharray:none;stroke-opacity:0.99468085"
                   inkscape:connector-curvature="0"
                   sodipodi:nodetypes="cccccccc" />
              </g>
            </g>
            <path
               id="path8-4-5-0-6-4-6-6"
               d="m 198.92499,501.76255 c 0,0 0.5224,0.039 0.93618,0.13989 l 1.02862,0.29431 5.19488,1.49417 c 0,0 -0.0201,1.73751 -0.0214,1.82895 0,0 -0.0101,0.86877 -0.0106,0.9145 -0.003,0.13456 0.004,0.31481 -0.0116,0.44845 -0.0151,0.12744 -0.0626,0.29286 -0.0894,0.41837 l -0.0482,0.0383 c 0,0 -0.39351,-0.0262 -0.76811,-0.13413 0,0 -0.6794,-0.22313 -0.90498,-0.30034 -0.005,1.5262 -0.0993,30.52407 -0.0993,30.52407 0,0 -0.008,0.86509 -0.0101,1.08136 -0.003,0.22283 0.0172,0.61948 -0.0804,1.1113 -0.0444,0.22421 -0.2323,1.40678 -1.25981,1.90727 -0.625,0.3044 -1.4355,0.2408 -1.9861,0.0131 -0.45828,-0.18954 -0.80258,-0.48091 -1.13329,-0.85044 -0.12951,-0.14466 -0.5126,-0.59964 -0.72681,-1.07093 -0.12729,-0.27991 -0.1253,-0.53422 -0.13031,-0.67079 0,0 -0.0182,-0.89459 -0.0225,-1.4911 0,0 -0.0911,-11.60934 -0.10369,-15.47921 0,0 0.0138,-12.61168 0.0233,-14.83725 0,-0.17966 0.0161,-3.2338 0.0238,-3.59303 0.0156,-0.73437 0.04,-0.97877 0.087,-1.63 l 0.068,-0.13492 0.0447,-0.0219"
               style="fill:none;fill-opacity:1;stroke:#000000;stroke-width:1;stroke-linecap:round;stroke-linejoin:round;stroke-miterlimit:4;stroke-dasharray:none;stroke-opacity:0.99468085"
               inkscape:connector-curvature="0" />
            <path
               id="path12-6-7-1-7-7-5-2"
               d="m -34.787466,561.71742 181.997946,0.2812"
               style="fill:none;fill-opacity:1;stroke:#000000;stroke-width:1;stroke-linecap:round;stroke-linejoin:round;stroke-miterlimit:4;stroke-dasharray:none;stroke-opacity:0.99468085"
               inkscape:connector-curvature="0"
               sodipodi:nodetypes="cc" />
            <path
               id="path22-7-3-0-5-8-6-6"
               d="m -34.787466,561.71742 -4e-5,-9.5495"
               style="fill:none;fill-opacity:1;stroke:#000000;stroke-width:1;stroke-linecap:round;stroke-linejoin:round;stroke-miterlimit:4;stroke-dasharray:none;stroke-opacity:0.99468085"
               inkscape:connector-curvature="0"
               sodipodi:nodetypes="cc" />
            <g
               transform="rotate(-90,230.82615,339.86537)"
               id="g30-4-1-6-3-4-9-1"
               style="fill:none;fill-opacity:1;stroke:#000000;stroke-width:1;stroke-miterlimit:4;stroke-dasharray:none;stroke-opacity:0.99468085">
              <path
                 id="path24-5-8-4-5-5-3-8"
                 d="m 18.52392,74.25185 v 0 0"
                 style="fill:none;fill-opacity:1;stroke:#000000;stroke-width:1;stroke-linecap:round;stroke-linejoin:round;stroke-miterlimit:4;stroke-dasharray:none;stroke-opacity:0.99468085"
                 inkscape:connector-curvature="0"
                 sodipodi:nodetypes="ccc" />
              <path
                 id="path26-2-9-6-6-0-7-7"
                 d="m 18.52392,74.25185 10e-6,-44.58625 -9.581331,-7e-5"
                 style="fill:none;fill-opacity:1;stroke:#000000;stroke-width:1;stroke-linecap:round;stroke-linejoin:round;stroke-miterlimit:4;stroke-dasharray:none;stroke-opacity:0.99468085"
                 inkscape:connector-curvature="0"
                 sodipodi:nodetypes="ccc" />
            </g>
            <g
               transform="rotate(-90,230.82615,339.86537)"
               id="g54-3-8-8-2-3-4-9"
               style="fill:none;fill-opacity:1;stroke:#000000;stroke-width:1;stroke-miterlimit:4;stroke-dasharray:none;stroke-opacity:0.99468085">
              <g
                 id="g50-6-8-4-9-6-5-2"
                 style="fill:none;fill-opacity:1;stroke:#000000;stroke-width:1;stroke-miterlimit:4;stroke-dasharray:none;stroke-opacity:0.99468085">
                <path
                   id="path46-8-8-0-1-1-2-0"
                   d="m 19.147702,321.8465 189.499798,0.0128 c 0.5463,-0.001 2.3745,0.0246 3.6394,-0.1321 0.2333,-0.0289 0.7798,-0.0979 1.5429,-0.2769 0.2989,-0.0702 1.1909,-0.3113 1.9578,-0.5987 0.1215,-0.0455 1.2265,-0.4565 2.3361,-1.1284 0.2172,-0.1315 1.2041,-0.7289 2.0514,-1.4949 0.0807,-0.0729 0.818,-0.7305 1.4916,-1.5854 0.5379,-0.6827 1.0521,-1.5427 1.3237,-2.1009 0.0428,-0.0878 0.426,-0.8856 0.6962,-1.8232 0.1095,-0.38 0.2847,-1.0588 0.3507,-1.9462 0.0671,-0.9017 0.014,-287.3211 0.0142,-288.5869"
                   style="fill:none;fill-opacity:1;stroke:#000000;stroke-width:1;stroke-linecap:round;stroke-linejoin:round;stroke-miterlimit:4;stroke-dasharray:none;stroke-opacity:0.99468085"
                   inkscape:connector-curvature="0"
                   sodipodi:nodetypes="cccccccccccc" />
              </g>
              <path
                 id="path52-4-9-2-2-0-5-2"
                 d="m 8.766415,300.9247 0.00938,14.6197 c 0,0 0.00157,1.0696 0.00263,1.7827 7.33e-4,0.497 -0.028312,1.0011 0.054085,1.4191 0.054638,0.2772 0.191414,0.785 0.579628,1.2884 0.162712,0.211 0.57465,0.7247 1.355214,1.1485 0.40539,0.2201 1.10704,0.5042 1.74632,0.5957 0.2572,0.0368 0.5187,0.0398 1.03832,0.0449 0.17667,0.002 0.41224,0.004 0.5889,0.006 0,0 4.50613,0.0155 5.00681,0.0168"
                 style="fill:none;fill-opacity:1;stroke:#000000;stroke-width:1;stroke-linecap:round;stroke-linejoin:round;stroke-miterlimit:4;stroke-dasharray:none;stroke-opacity:0.99468085"
                 inkscape:connector-curvature="0"
                 sodipodi:nodetypes="cccccccccc" />
            </g>
            <g
               transform="rotate(-90,230.82615,339.86537)"
               id="g70-2-3-1-7-6-4-3"
               style="fill:none;fill-opacity:1;stroke:#000000;stroke-width:1;stroke-miterlimit:4;stroke-dasharray:none;stroke-opacity:0.99468085">
              <path
                 id="path64-0-0-3-0-3-7-7"
                 d="m 18.52388,300.8384 v 0 l 1e-5,-44.5861"
                 style="fill:none;fill-opacity:1;stroke:#000000;stroke-width:1;stroke-linecap:round;stroke-linejoin:round;stroke-miterlimit:4;stroke-dasharray:none;stroke-opacity:0.99468085"
                 inkscape:connector-curvature="0"
                 sodipodi:nodetypes="ccc" />
            </g>
            <path
               id="path78-6-4-0-9-2-4-5"
               d="m 147.21048,561.99862 0.002,-9.8307"
               style="fill:none;fill-opacity:1;stroke:#000000;stroke-width:1;stroke-linecap:round;stroke-linejoin:round;stroke-miterlimit:4;stroke-dasharray:none;stroke-opacity:0.99468085"
               inkscape:connector-curvature="0"
               sodipodi:nodetypes="cc" />
            <path
               id="path80-4-0-3-3-0-4-9"
               d="m 191.88528,561.92542 -0.0863,-9.7575"
               style="fill:none;fill-opacity:1;stroke:#000000;stroke-width:1;stroke-linecap:round;stroke-linejoin:round;stroke-miterlimit:4;stroke-dasharray:none;stroke-opacity:0.99468085"
               inkscape:connector-curvature="0"
               sodipodi:nodetypes="cc" />
            <path
               id="path90-8-9-9-6-6-3-2"
               d="m -62.115537,365.49802 c 0.0227,-0.0616 0.0582,-0.1419 0.0756,-0.2052 0.014,-0.0512 0.0214,-0.1221 0.0322,-0.1741 0.007,-0.0339 0.0158,-0.0795 0.0259,-0.1126 0.0265,-0.0874 0.1821,-0.4188 0.1821,-0.4188 0.01,-0.0218 0.10819,-0.2467 0.25262,-0.4063 0.0462,-0.0511 0.11803,-0.1091 0.1659,-0.1586 0.0483,-0.05 0.10805,-0.1208 0.15435,-0.1726 0,0 -0.0441,-0.2495 -0.0485,-0.2621 -0.0334,-0.095 -0.2274,-0.4212 -0.24023,-0.4429 l -0.55762,-0.9464 c 0.20147,-0.1843 0.79646,-0.7643 1.42345,-1.1343 0.3393,-0.2003 0.34799,-0.2182 0.73747,-0.2777 0.17083,0.127 0.17836,0.1219 0.31993,0.2809 0.0467,0.0525 0.871119,1.102 0.871119,1.102 0,0 3.014119,3.8453 3.346517,4.2745 0.32398,0.4183 1.722231,2.2357 2.137729,2.8059 0,0 0.266452,0.3334 0.383551,0.589 0.03225,0.0704 0.08457,0.2372 0.12241,0.3674 l -0.08342,0.2285 c -0.06275,0.0599 -0.14265,0.1441 -0.209201,0.1998 -0.06671,0.0558 -0.163769,0.1199 -0.234119,0.1711 -0.07441,0.0542 -0.17394,0.1259 -0.248358,0.1801 0,0 -0.45284,0.3307 -0.50315,0.3674 0,0 -10.221308,7.497 -10.758208,7.8931 0,0 -8.889581,6.5927 -11.84677,8.7984 0,0 -0.57743,0.4307 -0.6793,0.5067 -0.0955,0.0712 -0.21883,0.1721 -0.31841,0.2376 -0.0821,0.054 -0.19866,0.1145 -0.2838,0.1636 l -0.12219,0.006 c -0.0348,-0.0286 -0.0841,-0.0636 -0.11597,-0.0955 -0.0513,-0.0513 -0.1088,-0.1298 -0.15374,-0.18681 -0.0507,-0.0644 -0.11532,-0.15249 -0.16452,-0.21799 0,0 -0.484945,-0.6486 -0.510435,-0.6828 0,0 -1.66812,-2.2378 -1.75589,-2.3556 -0.24918,-0.3345 -0.58984,-0.77441 -0.83028,-1.11531 -0.10495,-0.14879 -0.23306,-0.35529 -0.33703,-0.50479 -0.35953,-0.5168 -0.89312,-1.1289 -1.13034,-1.3993 -0.10195,-0.1163 -0.21499,-0.2565 -0.30683,-0.3177 -0.0585,-0.0391 -0.22729,-0.0949 -0.32697,-0.1294 0,0 -0.26995,0.1078 -0.37905,0.1674 -0.0813,0.0444 -0.182147,0.1164 -0.261777,0.1637 -0.11676,0.0694 -0.16444,0.1132 -0.35165,0.1642 -0.0396,0.0108 -0.0929,0.0227 -0.13277,0.0324 -0.0574,-0.0335 -0.13923,-0.0703 -0.19133,-0.1115 -0.0518,-0.041 -0.10891,-0.1093 -0.15172,-0.1597 0,0 -0.33742,-0.4427 -0.48073,-0.63341 0,0 -0.48102,-0.6389 -0.5448,-0.76449 -0.0423,-0.0833 -0.0719,-0.2058 -0.10276,-0.2941 0.13332,-0.12151 0.30701,-0.2882 0.44435,-0.4051 0.17237,-0.1469 0.4129,-0.3296 0.59077,-0.4697 0,0 4.207027,-3.2634 4.428647,-3.435 l 0.31889,-0.0691 c 0.0198,0.011 0.21452,0.10021 0.36528,0.2701 0,0 0.34383,0.43821 0.38191,0.487 l 0.25773,0.3302 c 0.0384,0.047 0.0875,0.1118 0.13155,0.1534 0.0333,0.0315 0.0849,0.0649 0.12133,0.0928 0,0 0.15465,0.0332 0.30751,0.0149 0.0412,-0.005 0.0939,-0.0233 0.134215,-0.0334 0.15019,-0.104 0.214,-0.1498 0.41882,-0.3116 l 0.10886,-0.2259 c -0.003,-0.0184 -0.0263,-0.2058 -0.0868,-0.3619 -0.0107,-0.0276 -0.0311,-0.0616 -0.0444,-0.0879 l -0.0888,-0.176 c 0,0 -0.16871,-0.3342 -0.17758,-0.3517 -0.203345,-0.403 -0.340785,-0.8164 -0.0357,-1.504 0.0538,-0.1213 0.19079,-0.4621 0.58415,-0.6644 0.063,-0.0324 0.33298,-0.1607 0.68713,-0.1739 0.0919,-0.003 0.50133,-0.009 0.8873,0.2406 0.0859,0.0556 0.27674,0.2275 0.39227,0.3286 0.15456,0.1353 0.35511,0.3224 0.51689,0.4489 0.0908,0.0711 0.22004,0.1547 0.31434,0.2209 0,0 1.16586,-0.9389 1.22722,-0.9883 0,0 0.63148,-0.5079 0.70125,-0.5648 0.02,-0.0164 0.32198,-0.2636 0.3864,-0.3447 0.0469,-0.0591 0.0884,-0.1522 0.12632,-0.2175 -0.0105,-0.0574 -0.0165,-0.1359 -0.0351,-0.1912 -0.0216,-0.0645 -0.0684,-0.1433 -0.10165,-0.2025 -0.0396,-0.0704 -0.43254,-0.682 -0.43254,-0.682 -0.15057,-0.2412 -0.14387,-0.2856 -0.2206,-0.5921 0.49291,-0.5662 0.56214,-0.6102 1.0872,-1.0354 0.048,-0.0388 0.31409,-0.277 0.52471,-0.3254 0.18823,-0.0432 0.36307,0.0254 0.59298,0.2507 0.0448,0.0439 0.37916,0.4186 0.4215,0.465 0.0981,0.1074 0.22208,0.2582 0.332,0.3535 0.0371,0.0322 0.0938,0.0658 0.13406,0.094 l 0.33527,0.0808 c 0.027,-0.0129 0.33623,-0.1429 0.52081,-0.2956 0.0302,-0.025 0.13805,-0.1393 0.26775,-0.2862 l 0.0314,-0.1441 c -0.0887,-0.2945 -0.0808,-0.3047 -0.24734,-0.5632 -0.0428,-0.0665 -0.10532,-0.1515 -0.1489,-0.2175 -0.1304,-0.1974 -0.29661,-0.4657 -0.42373,-0.6652 l -0.0478,-0.255 0.18432,-0.3183 c 0.777419,-0.5847 0.860059,-0.6551 1.738899,-1.2842 0.0667,-0.0477 0.336591,-0.2719 0.737231,-0.3594 0.46896,-0.1024 0.92897,-0.1186 1.36956,0.0719 0.15063,0.0651 0.56341,0.3368 0.70166,0.4252 0.0559,0.0358 0.12842,0.0868 0.18633,0.1192 0.0877,0.049 0.211,0.1021 0.30142,0.1458 l 0.12114,-0.0218 0.964979,-0.8312 c 0,0 0.27811,-0.2102 0.35556,-0.2497 0,0 0.31648,-0.1179 0.57541,-0.2144 0.0279,-0.0105 0.366601,-0.1292 0.555031,-0.2194 0.0676,-0.0323 0.15383,-0.0831 0.21979,-0.1187 l 0.12994,-0.1561"
               style="fill:none;fill-opacity:1;stroke:#000000;stroke-width:1;stroke-linecap:round;stroke-linejoin:round;stroke-miterlimit:4;stroke-dasharray:none;stroke-opacity:0.99468085"
               inkscape:connector-curvature="0" />
            <g
               transform="rotate(-90,230.82615,339.86537)"
               id="g118-2-7-0-0-1-0-2"
               style="fill:none;fill-opacity:1;stroke:#000000;stroke-width:1;stroke-miterlimit:4;stroke-dasharray:none;stroke-opacity:0.99468085">
              <path
                 id="path98-7-7-5-6-5-7-8"
                 d="m 224.0515,22.1857 c 0,0 -0.004,-1.65215 -0.1878,-2.73204 -0.013,-0.07615 -0.1355,-0.76464 -0.3799,-1.49735 -0.1069,-0.32061 -0.3597,-0.95106 -0.6727,-1.55022 -0.1866,-0.35734 -0.9807,-1.819 -2.4415,-3.20788 -0.4194,-0.39876 -1.1964,-1.06934 -2.3145,-1.7367 -0.5468,-0.32639 -2.8738,-1.700782 -6.043,-2.009868"
                 style="fill:none;fill-opacity:1;stroke:#000000;stroke-width:1;stroke-linecap:round;stroke-linejoin:round;stroke-miterlimit:4;stroke-dasharray:none;stroke-opacity:0.99468085"
                 inkscape:connector-curvature="0"
                 sodipodi:nodetypes="ccccccc" />
              <g
                 id="g114-6-8-4-2-5-8-9"
                 style="fill:none;fill-opacity:1;stroke:#000000;stroke-width:1;stroke-miterlimit:4;stroke-dasharray:none;stroke-opacity:0.99468085">
                <path
                   id="path112-5-3-2-6-4-6-7"
                   d="M 8.942599,29.66553 8.780962,14.22601 c 2.02e-4,-0.07584 -0.013298,-1.21524 0.022182,-1.5165 0.091759,-0.77908 0.470101,-1.32994 0.689034,-1.60129 0.543678,-0.67385 1.256008,-1.05694 1.754328,-1.267925 0,0 0.5336,-0.218567 0.99168,-0.316513 0.37031,-0.079178 0.51561,-0.087509 0.94145,-0.099549 0.23305,-0.00659 198.599334,0.028909 198.832464,0.027409"
                   style="fill:none;fill-opacity:1;stroke:#000000;stroke-width:1;stroke-linecap:round;stroke-linejoin:round;stroke-miterlimit:4;stroke-dasharray:none;stroke-opacity:0.99468085"
                   inkscape:connector-curvature="0"
                   sodipodi:nodetypes="cccccccc" />
              </g>
            </g>
          </g>
        </g>
      </g>
    </g>
  </g>
</svg>
