<?xml version="1.0" encoding="utf-8"?>
<!-- Generator: Adobe Illustrator 26.0.0, SVG Export Plug-In . SVG Version: 6.00 Build 0)  -->
<svg version="1.1" id="Layer_1" xmlns="http://www.w3.org/2000/svg" xmlns:xlink="http://www.w3.org/1999/xlink" x="0px" y="0px"
	 viewBox="0 0 4280.3 1133.9" style="enable-background:new 0 0 4280.3 1133.9;" xml:space="preserve">
<style type="text/css">
	.st0{fill:none;stroke:#000000;stroke-miterlimit:10;}
</style>
<g>
	<path class="st0" d="M510.3,210.2v667.6c0,15.7-12.7,28.3-28.3,28.3H83.7c-15.7,0-28.3-12.7-28.3-28.3V210.2
		c0-15.7,12.7-28.3,28.3-28.3h398.3C497.6,181.9,510.3,194.6,510.3,210.2z"/>
	<path class="st0" d="M94,519.9v48.2c0,7.8-6.3,14.2-14.2,14.2h0c-7.8,0-14.2-6.3-14.2-14.2v-48.2c0-7.8,6.3-14.2,14.2-14.2h0
		C87.7,505.7,94,512.1,94,519.9z"/>
	<circle class="st0" cx="293.8" cy="544" r="45.4"/>
</g>
</svg>
