<?xml version="1.0" encoding="utf-8"?>
<!-- Generator: Adobe Illustrator 26.0.0, SVG Export Plug-In . SVG Version: 6.00 Build 0)  -->
<svg version="1.1" id="Layer_1" xmlns="http://www.w3.org/2000/svg" xmlns:xlink="http://www.w3.org/1999/xlink" x="0px" y="0px"
	 viewBox="0 0 4280.3 1133.9" style="enable-background:new 0 0 4280.3 1133.9;" xml:space="preserve">
<style type="text/css">
	.st0{fill:none;stroke:#000000;stroke-miterlimit:10;}
</style>
<g>
	<path class="st0" d="M485.8,97.4v669c0,18.8-15.2,34-34,34H332.7v-737h119.1C470.6,63.4,485.8,78.6,485.8,97.4z"/>
	
		<rect x="275.4" y="390.8" transform="matrix(4.489837e-11 -1 1 4.489837e-11 -51.5422 866.058)" class="st0" width="263.6" height="136.1"/>
	<path class="st0" d="M346,757.9v22.7c0,2.3-1.9,4.3-4.3,4.3h0c-2.3,0-4.3-1.9-4.3-4.3v-22.7c0-2.3,1.9-4.3,4.3-4.3h0
		C344.1,753.6,346,755.5,346,757.9z"/>
	<path class="st0" d="M346,105.9V83.2c0-2.3-1.9-4.3-4.3-4.3h0c-2.3,0-4.3,1.9-4.3,4.3v22.7c0,2.3,1.9,4.3,4.3,4.3h0
		C344.1,110.1,346,108.2,346,105.9z"/>
	<path class="st0" d="M471.8,334.1v249.4c0,1.6-1.3,2.8-2.8,2.8H345.6c-1.6,0-2.8-1.3-2.8-2.8V334.1c0-1.6,1.3-2.8,2.8-2.8h123.3
		C470.5,331.2,471.8,332.5,471.8,334.1z"/>
</g>
</svg>
