<?xml version="1.0" encoding="UTF-8" standalone="no"?>
<!-- Created with Inkscape (http://www.inkscape.org/) -->

<svg
   xmlns:dc="http://purl.org/dc/elements/1.1/"
   xmlns:cc="http://creativecommons.org/ns#"
   xmlns:rdf="http://www.w3.org/1999/02/22-rdf-syntax-ns#"
   xmlns:svg="http://www.w3.org/2000/svg"
   xmlns="http://www.w3.org/2000/svg"
   xmlns:sodipodi="http://sodipodi.sourceforge.net/DTD/sodipodi-0.dtd"
   xmlns:inkscape="http://www.inkscape.org/namespaces/inkscape"
   width="594mm"
   height="841mm"
   viewBox="0 0 594 841"
   version="1.1"
   id="svg8"
   inkscape:version="0.92.3 (2405546, 2018-03-11)"
   sodipodi:docname="E5250_PR_FP.svg">
  <defs
     id="defs2" />
  <sodipodi:namedview
     id="base"
     pagecolor="#ffffff"
     bordercolor="#666666"
     borderopacity="1.0"
     inkscape:pageopacity="0.0"
     inkscape:pageshadow="2"
     inkscape:zoom="0.98994949"
     inkscape:cx="1139.5495"
     inkscape:cy="2727.3676"
     inkscape:document-units="mm"
     inkscape:current-layer="layer1"
     showgrid="false"
     showguides="true"
     inkscape:guide-bbox="true"
     inkscape:window-width="1920"
     inkscape:window-height="1017"
     inkscape:window-x="-8"
     inkscape:window-y="-8"
     inkscape:window-maximized="1" />
  <metadata
     id="metadata5">
    <rdf:RDF>
      <cc:Work
         rdf:about="">
        <dc:format>image/svg+xml</dc:format>
        <dc:type
           rdf:resource="http://purl.org/dc/dcmitype/StillImage" />
        <dc:title></dc:title>
      </cc:Work>
    </rdf:RDF>
  </metadata>
  <g
     inkscape:label="Layer 1"
     inkscape:groupmode="layer"
     id="layer1"
     transform="translate(0,544)">
    <g
       id="g888"
       style="stroke:#000007;stroke-opacity:1;stroke-width:0.35277778;stroke-miterlimit:4;stroke-dasharray:none">
      <path
         sodipodi:nodetypes="cssccccssc"
         inkscape:connector-curvature="0"
         id="rect833"
         d="m 219.15912,-318.17072 -81.64722,0.20356 c -4.98598,0.0124 -9,-4.014 -9,-9 v -189.64305 l 9,-0.004 h 286.64722 l 9,0.004 v 189.64305 c 0,4.986 -4.01401,9.00973 -9,9 l -104.35278,-0.20356"
         style="opacity:1;fill:none;fill-opacity:1;stroke:#000007;stroke-width:0.35277778;stroke-miterlimit:4;stroke-dasharray:none;stroke-opacity:1" />
      <path
         id="rect835"
         d="m 151.21844,-510.39548 h 259.14722 c 3.324,0 6,2.676 6,6 v 106.64722 c 0,3.324 -2.676,6 -6,6 H 151.21844 c -3.324,0 -6,-2.676 -6,-6 v -106.64722 c 0,-3.324 2.676,-6 6,-6 z"
         style="opacity:1;fill:none;fill-opacity:1;stroke:#000007;stroke-width:0.35277778;stroke-miterlimit:4;stroke-dasharray:none;stroke-opacity:1" />
      <path
         sodipodi:nodetypes="cssssc"
         inkscape:connector-curvature="0"
         id="rect841"
         d="m 219.15912,-318.17072 v -67.44366 c 0,-0.554 0.446,-1 1,-1 h 98.64722 c 0.554,0 1,0.446 1,1 v 67.44366"
         style="opacity:1;fill:none;fill-opacity:1;stroke:#000007;stroke-width:0.35277778;stroke-miterlimit:4;stroke-dasharray:none;stroke-opacity:1" />
      <path
         id="rect843"
         d="m 401.86468,-340.2616 h 14.64723 c 0.554,0 1,0.446 1,1 v 8.64723 c 0,0.554 -0.446,1 -1,1 h -14.64723 c -0.55399,0 -0.99999,-0.446 -0.99999,-1 v -8.64723 c 0,-0.554 0.446,-1 0.99999,-1 z"
         style="opacity:1;fill:none;fill-opacity:1;stroke:#000007;stroke-width:0.35277778;stroke-miterlimit:4;stroke-dasharray:none;stroke-opacity:1" />
      <path
         id="path845"
         d="m 430.59604,-499.20987 a 5.8236113,5.8236113 0 0 1 -5.82361,5.82361 5.8236113,5.8236113 0 0 1 -5.82361,-5.82361 5.8236113,5.8236113 0 0 1 5.82361,-5.82361 5.8236113,5.8236113 0 0 1 5.82361,5.82361 z"
         style="opacity:1;fill:none;fill-opacity:1;stroke:#000007;stroke-width:0.35277778;stroke-miterlimit:4;stroke-dasharray:none;stroke-opacity:1" />
      <path
         id="path849"
         d="m 358.57843,-513.3252 a 0.82361114,0.82361114 0 0 1 -0.82361,0.82362 0.82361114,0.82361114 0 0 1 -0.82361,-0.82362 0.82361114,0.82361114 0 0 1 0.82361,-0.82361 0.82361114,0.82361114 0 0 1 0.82361,0.82361 z"
         style="opacity:1;fill:none;fill-opacity:1;stroke:#000007;stroke-width:0.35277778;stroke-miterlimit:4;stroke-dasharray:none;stroke-opacity:1" />
      <path
         id="rect851"
         d="m 221.57162,-385.02686 h 95.64723 c 0.554,0 1,0.446 1,1 v 48.64723 c 0,0.554 -0.446,1 -1,1 h -95.64723 c -0.554,0 -1,-0.446 -1,-1 v -48.64723 c 0,-0.554 0.446,-1 1,-1 z"
         style="opacity:1;fill:none;fill-opacity:1;stroke:#000007;stroke-width:0.35277778;stroke-miterlimit:4;stroke-dasharray:none;stroke-opacity:1" />
      <path
         inkscape:connector-curvature="0"
         id="rect853"
         d="m 221.48901,-332.96184 h 44.64722 c 0.554,0 1,0.44601 1,1.00001 v 9.64722 c 0,0.554 -0.446,1 -1,1 h -44.64722 c -0.554,0 -1,-0.446 -1,-1 v -9.64722 c 0,-0.554 0.446,-1.00001 1,-1.00001 z"
         style="opacity:1;fill:none;fill-opacity:1;stroke:#000007;stroke-width:0.35277778;stroke-miterlimit:4;stroke-dasharray:none;stroke-opacity:1" />
      <path
         inkscape:connector-curvature="0"
         id="rect853-1"
         d="m 271.84053,-332.96184 h 44.64722 c 0.554,0 1,0.44601 1,1.00001 v 9.64722 c 0,0.554 -0.446,1 -1,1 h -44.64722 c -0.554,0 -1,-0.446 -1,-1 v -9.64722 c 0,-0.554 0.446,-1.00001 1,-1.00001 z"
         style="opacity:1;fill:none;fill-opacity:1;stroke:#000007;stroke-width:0.35277778;stroke-miterlimit:4;stroke-dasharray:none;stroke-opacity:1" />
    </g>
  </g>
</svg>
