<?xml version="1.0" encoding="UTF-8" standalone="no"?>
<!-- Created with Inkscape (http://www.inkscape.org/) -->

<svg
   xmlns:dc="http://purl.org/dc/elements/1.1/"
   xmlns:cc="http://creativecommons.org/ns#"
   xmlns:rdf="http://www.w3.org/1999/02/22-rdf-syntax-ns#"
   xmlns:svg="http://www.w3.org/2000/svg"
   xmlns="http://www.w3.org/2000/svg"
   xmlns:sodipodi="http://sodipodi.sourceforge.net/DTD/sodipodi-0.dtd"
   xmlns:inkscape="http://www.inkscape.org/namespaces/inkscape"
   version="1.1"
   id="svg815"
   width="841mm"
   height="594mm"
   viewBox="0 0 3178.5827 2245.0394"
   sodipodi:docname="E7240_PR_NO_FP.svg"
   inkscape:version="0.92.3 (2405546, 2018-03-11)">
  <metadata
     id="metadata821">
    <rdf:RDF>
      <cc:Work
         rdf:about="">
        <dc:format>image/svg+xml</dc:format>
        <dc:type
           rdf:resource="http://purl.org/dc/dcmitype/StillImage" />
        <dc:title></dc:title>
      </cc:Work>
    </rdf:RDF>
  </metadata>
  <defs
     id="defs819" />
  <sodipodi:namedview
     pagecolor="#ffffff"
     bordercolor="#666666"
     borderopacity="1"
     objecttolerance="10"
     gridtolerance="10"
     guidetolerance="10"
     inkscape:pageopacity="0"
     inkscape:pageshadow="2"
     inkscape:window-width="1920"
     inkscape:window-height="1017"
     id="namedview817"
     showgrid="false"
     units="mm"
     showguides="true"
     inkscape:guide-bbox="true"
     inkscape:zoom="0.38266667"
     inkscape:cx="466.69081"
     inkscape:cy="875.71599"
     inkscape:window-x="-8"
     inkscape:window-y="-8"
     inkscape:window-maximized="1"
     inkscape:current-layer="layer3" />
  <g
     inkscape:groupmode="layer"
     id="layer1"
     inkscape:label="Layer 1" />
  <g
     inkscape:groupmode="layer"
     id="layer2"
     inkscape:label="Layer 2"
     style="display:inline" />
  <g
     inkscape:groupmode="layer"
     id="layer3"
     inkscape:label="Layer 3"
     style="display:inline">
    <g
       id="g1502"
       style="stroke:#000000;stroke-opacity:1;stroke-width:1.33333333;stroke-miterlimit:4;stroke-dasharray:none">
      <g
         style="fill:none;stroke:#000000;stroke-opacity:1;stroke-width:1.33333333;stroke-miterlimit:4;stroke-dasharray:none"
         id="g1441">
        <path
           style="display:inline;opacity:1;fill:none;fill-opacity:0.12558139;stroke:#000000;stroke-width:1.33333333;stroke-miterlimit:4;stroke-dasharray:none;stroke-opacity:1"
           d="M -341.51099,1294.5642 H 738.09973 c 18.84473,0 34.01575,15.171 34.01575,34.0158 v 663.3115 c 0,18.8447 -15.17102,34.0157 -34.01575,34.0157 H -341.51099 c -18.84472,0 -34.01574,-15.171 -34.01574,-34.0157 V 1328.58 c 0,-18.8448 15.17102,-34.0158 34.01574,-34.0158 z"
           id="rect1370"
           inkscape:connector-curvature="0" />
        <path
           style="opacity:1;fill:none;fill-opacity:0.12558139;stroke:#000000;stroke-width:1.33333333;stroke-miterlimit:4;stroke-dasharray:none;stroke-opacity:1"
           d="M -19.137417,1769.6779 H 312.12683 c 4.18771,0 7.55905,3.3713 7.55905,7.559 v 229.217 c 0,4.1877 -3.37134,7.5591 -7.55905,7.5591 H -19.137417 c -4.187716,0 -7.559055,-3.3714 -7.559055,-7.5591 v -229.217 c 0,-4.1877 3.371339,-7.559 7.559055,-7.559 z"
           id="rect1377"
           inkscape:connector-curvature="0" />
        <path
           style="opacity:1;fill:none;fill-opacity:0.12558139;stroke:#000000;stroke-width:1.33333333;stroke-miterlimit:4;stroke-dasharray:none;stroke-opacity:1"
           d="M -11.991378,1776.7336 H 304.15475 c 4.18772,0 7.55906,3.3714 7.55906,7.5591 v 153.6265 c 0,4.1877 -3.37134,7.559 -7.55906,7.559 H -11.991378 c -4.187719,0 -7.55906,-3.3713 -7.55906,-7.559 v -153.6265 c 0,-4.1877 3.371341,-7.5591 7.55906,-7.5591 z"
           id="rect1382"
           inkscape:connector-curvature="0" />
        <path
           style="opacity:1;fill:none;fill-opacity:0.12558139;stroke:#000000;stroke-width:1.33333333;stroke-miterlimit:4;stroke-dasharray:none;stroke-opacity:1"
           d="M -12.334463,1956.7319 H 139.40223 c 2.09386,0 3.77953,1.6857 3.77953,3.7796 v 38.3508 c 0,2.0939 -1.68567,3.7796 -3.77953,3.7796 H -12.334463 c -2.093858,0 -3.779528,-1.6857 -3.779528,-3.7796 v -38.3508 c 0,-2.0939 1.68567,-3.7796 3.779528,-3.7796 z"
           id="rect1384"
           inkscape:connector-curvature="0" />
        <path
           style="opacity:1;fill:none;fill-opacity:0.12558139;stroke:#000000;stroke-width:1.33333333;stroke-miterlimit:4;stroke-dasharray:none;stroke-opacity:1"
           d="m 154.96128,1956.7319 h 151.73669 c 2.09385,0 3.77952,1.6857 3.77952,3.7796 v 38.3508 c 0,2.0939 -1.68567,3.7796 -3.77952,3.7796 H 154.96128 c -2.09386,0 -3.77953,-1.6857 -3.77953,-3.7796 v -38.3508 c 0,-2.0939 1.68567,-3.7796 3.77953,-3.7796 z"
           id="rect1384-8"
           inkscape:connector-curvature="0" />
        <path
           style="fill:none;stroke:#000000;stroke-width:1.33333333;stroke-linecap:butt;stroke-linejoin:miter;stroke-opacity:1;stroke-miterlimit:4;stroke-dasharray:none"
           d="m -375.76991,1728.4817 20.88437,0.038"
           id="path1401"
           inkscape:connector-curvature="0"
           sodipodi:nodetypes="cc" />
        <path
           style="fill:none;stroke:#000000;stroke-width:1.33333333;stroke-linecap:butt;stroke-linejoin:miter;stroke-opacity:1;stroke-miterlimit:4;stroke-dasharray:none"
           d="m 751.26754,1770.2886 20.74226,0.038"
           id="path1401-6"
           inkscape:connector-curvature="0"
           sodipodi:nodetypes="cc" />
        <path
           style="opacity:1;fill:none;fill-opacity:0.12558139;stroke:#000000;stroke-width:1.33333333;stroke-miterlimit:4;stroke-dasharray:none;stroke-opacity:1"
           d="m 490.01706,1755.8948 -825.82676,-0.045 c -10.46929,-6e-4 -18.89764,-8.4284 -18.89764,-18.8977 v -395.5162 c 0,-10.4693 8.42835,-18.8976 18.89764,-18.8976 H 732.46241 c 10.46929,0 18.89764,8.4283 18.89764,18.8976 v 395.5162"
           id="rect1418"
           inkscape:connector-curvature="0"
           sodipodi:nodetypes="cssssssc" />
        <path
           style="opacity:1;fill:none;fill-opacity:0.12558139;stroke:#000000;stroke-width:1.33333333;stroke-miterlimit:4;stroke-dasharray:none;stroke-opacity:1"
           d="m 751.36005,1736.9518 v 40.6534 c 0,10.4693 -8.42835,18.8976 -18.89764,18.8976 H 508.9147 c -10.46929,0 -18.89764,-8.4283 -18.89764,-18.8976 v -21.7104"
           id="rect1422"
           inkscape:connector-curvature="0"
           sodipodi:nodetypes="cssssc" />
      </g>
      <path
         style="opacity:1;fill:none;fill-opacity:0.12558139;stroke:#000000;stroke-width:1.33333337;stroke-miterlimit:4;stroke-dasharray:none;stroke-opacity:1"
         d="m -320.09337,1298.2449 h 119.61155 c 2.09386,0 3.77953,1.6856 3.77953,3.7795 v 13.7848 c 0,2.0938 -1.68567,3.7795 -3.77953,3.7795 h -119.61155 c -2.09385,0 -3.77952,-1.6857 -3.77952,-3.7795 v -13.7848 c 0,-2.0939 1.68567,-3.7795 3.77952,-3.7795 z"
         id="rect1443" />
      <path
         style="display:inline;opacity:1;fill:none;fill-opacity:0.12558139;stroke:#000000;stroke-width:1.33333337;stroke-miterlimit:4;stroke-dasharray:none;stroke-opacity:1"
         d="m 532.87889,1298.0911 h 55.35958 c 2.09386,0 3.77953,1.6856 3.77953,3.7795 v 13.7848 c 0,2.0938 -1.68567,3.7795 -3.77953,3.7795 h -55.35958 c -2.09386,0 -3.77952,-1.6857 -3.77952,-3.7795 v -13.7848 c 0,-2.0939 1.68566,-3.7795 3.77952,-3.7795 z"
         id="rect1443-2" />
      <path
         style="opacity:1;fill:none;fill-opacity:0.12558139;stroke:#000000;stroke-width:1.33333337;stroke-miterlimit:4;stroke-dasharray:none;stroke-opacity:1"
         d="m 402.88423,1308.4684 a 8.7821522,8.7821522 0 0 1 -8.78215,8.7821 8.7821522,8.7821522 0 0 1 -8.78215,-8.7821 8.7821522,8.7821522 0 0 1 8.78215,-8.7822 8.7821522,8.7821522 0 0 1 8.78215,8.7822 z"
         id="path1462" />
      <path
         style="display:inline;opacity:1;fill:none;fill-opacity:0.12558139;stroke:#000000;stroke-width:1.33333337;stroke-miterlimit:4;stroke-dasharray:none;stroke-opacity:1"
         d="m 440.68187,1308.4999 a 8.7821522,8.7821522 0 0 1 -8.78215,8.7821 8.7821522,8.7821522 0 0 1 -8.78215,-8.7821 8.7821522,8.7821522 0 0 1 8.78215,-8.7822 8.7821522,8.7821522 0 0 1 8.78215,8.7822 z"
         id="path1462-6" />
      <path
         style="display:inline;opacity:1;fill:none;fill-opacity:0.12558139;stroke:#000000;stroke-width:1.33333337;stroke-miterlimit:4;stroke-dasharray:none;stroke-opacity:1"
         d="m 478.58998,1308.4154 a 8.7821522,8.7821522 0 0 1 -8.78215,8.7822 8.7821522,8.7821522 0 0 1 -8.78215,-8.7822 8.7821522,8.7821522 0 0 1 8.78215,-8.7821 8.7821522,8.7821522 0 0 1 8.78215,8.7821 z"
         id="path1462-65" />
    </g>
  </g>
</svg>
