<?xml version="1.0" encoding="UTF-8" standalone="no"?>
<!-- exported from Silhouette Studio® Business Edition V4.3.370ssbe -->

<svg
   xmlns:dc="http://purl.org/dc/elements/1.1/"
   xmlns:cc="http://creativecommons.org/ns#"
   xmlns:rdf="http://www.w3.org/1999/02/22-rdf-syntax-ns#"
   xmlns:svg="http://www.w3.org/2000/svg"
   xmlns="http://www.w3.org/2000/svg"
   xmlns:sodipodi="http://sodipodi.sourceforge.net/DTD/sodipodi-0.dtd"
   xmlns:inkscape="http://www.inkscape.org/namespaces/inkscape"
   version="1.1"
   width="304.8mm"
   height="600mm"
   viewBox="0 0 304.8 600"
   id="svg829"
   sodipodi:docname="E7250_PR.svg"
   inkscape:version="0.92.3 (2405546, 2018-03-11)">
  <metadata
     id="metadata833">
    <rdf:RDF>
      <cc:Work
         rdf:about="">
        <dc:format>image/svg+xml</dc:format>
        <dc:type
           rdf:resource="http://purl.org/dc/dcmitype/StillImage" />
        <dc:title></dc:title>
      </cc:Work>
    </rdf:RDF>
  </metadata>
  <sodipodi:namedview
     pagecolor="#ffffff"
     bordercolor="#666666"
     borderopacity="1"
     objecttolerance="10"
     gridtolerance="10"
     guidetolerance="10"
     inkscape:pageopacity="0"
     inkscape:pageshadow="2"
     inkscape:window-width="1920"
     inkscape:window-height="1017"
     id="namedview831"
     showgrid="false"
     showguides="true"
     inkscape:guide-bbox="true"
     inkscape:zoom="0.37482639"
     inkscape:cx="614.65243"
     inkscape:cy="848.76142"
     inkscape:window-x="-8"
     inkscape:window-y="-8"
     inkscape:window-maximized="1"
     inkscape:current-layer="layer4" />
  <defs
     id="defs825" />
  <g
     inkscape:groupmode="layer"
     id="layer1"
     inkscape:label="Layer 1" />
  <g
     inkscape:groupmode="layer"
     id="layer2"
     inkscape:label="Layer 2"
     style="display:inline" />
  <g
     inkscape:groupmode="layer"
     id="layer3"
     inkscape:label="Layer 3" />
  <g
     inkscape:groupmode="layer"
     id="layer4"
     inkscape:label="Layer 4">
    <g
       id="g917"
       style="fill:none;stroke:#000000;stroke-opacity:1;stroke-width:0.35277778;stroke-miterlimit:4;stroke-dasharray:none">
      <path
         style="display:inline;opacity:1;fill:none;fill-opacity:0.14883722;stroke:#000000;stroke-width:0.35277778;stroke-miterlimit:4;stroke-dasharray:none;stroke-opacity:1"
         d="M -31.071297,177.17632 H 256.57592 c 4.986,0 9,4.014 9,9 v 179.64721 c 0,4.986 -4.014,9 -9,9 H -31.071297 c -4.986,0 -9,-4.014 -9,-9 V 186.17632 c 0,-4.986 4.014,-9 9,-9 z"
         id="rect840" />
      <path
         style="display:inline;opacity:1;fill:none;fill-opacity:0.14883722;stroke:#000000;stroke-width:0.35277778;stroke-miterlimit:4;stroke-dasharray:none;stroke-opacity:1"
         d="M -16.412502,184.35252 H 242.23471 c 3.324,0 6,2.676 6,6 v 106.64722 c 0,3.324 -2.676,6 -6,6 H -16.412502 c -3.324,0 -6,-2.676 -6,-6 V 190.35252 c 0,-3.324 2.676,-6 6,-6 z"
         id="rect843" />
      <path
         style="display:inline;opacity:1;fill:none;fill-opacity:0.14883722;stroke:#000000;stroke-width:0.35277778;stroke-miterlimit:4;stroke-dasharray:none;stroke-opacity:1"
         d="m 262.52146,191.08838 a 5.3236113,5.3236113 0 0 1 -5.32361,5.32361 5.3236113,5.3236113 0 0 1 -5.32362,-5.32361 5.3236113,5.3236113 0 0 1 5.32362,-5.32361 5.3236113,5.3236113 0 0 1 5.32361,5.32361 z"
         id="path845" />
      <path
         style="display:inline;opacity:1;fill:none;fill-opacity:0.14883722;stroke:#000000;stroke-width:0.35277778;stroke-miterlimit:4;stroke-dasharray:none;stroke-opacity:1"
         d="m 53.330032,306.62109 h 95.647228 c 1.108,0 2,0.892 2,2 v 62.64723 c 0,1.108 -0.892,2 -2,2 H 53.330032 c -1.108,0 -2,-0.892 -2,-2 v -62.64723 c 0,-1.108 0.892,-2 2,-2 z"
         id="rect847" />
      <path
         style="display:inline;opacity:1;fill:none;fill-opacity:0.14883722;stroke:#000000;stroke-width:0.35277778;stroke-miterlimit:4;stroke-dasharray:none;stroke-opacity:1"
         d="m 190.58408,180.64977 a 2.323611,2.323611 0 0 1 -2.32361,2.32361 2.323611,2.323611 0 0 1 -2.32361,-2.32361 2.323611,2.323611 0 0 1 2.32361,-2.32362 2.323611,2.323611 0 0 1 2.32361,2.32362 z"
         id="path851" />
      <path
         style="display:inline;opacity:1;fill:none;fill-opacity:0.14883722;stroke:#000000;stroke-width:0.35277778;stroke-miterlimit:4;stroke-dasharray:none;stroke-opacity:1"
         d="m 199.69231,180.64474 a 2.323611,2.323611 0 0 1 -2.32361,2.32362 2.323611,2.323611 0 0 1 -2.32361,-2.32362 2.323611,2.323611 0 0 1 2.32361,-2.32361 2.323611,2.323611 0 0 1 2.32361,2.32361 z"
         id="path851-9" />
      <path
         style="display:inline;opacity:1;fill:none;fill-opacity:0.14883722;stroke:#000000;stroke-width:0.35277778;stroke-miterlimit:4;stroke-dasharray:none;stroke-opacity:1"
         d="m 209.48545,180.64474 a 2.323611,2.323611 0 0 1 -2.32362,2.32362 2.323611,2.323611 0 0 1 -2.32361,-2.32362 2.323611,2.323611 0 0 1 2.32361,-2.32361 2.323611,2.323611 0 0 1 2.32362,2.32361 z"
         id="path851-3" />
      <path
         style="opacity:1;fill:none;fill-opacity:0.14883722;stroke:#000000;stroke-width:0.35277778;stroke-miterlimit:4;stroke-dasharray:none;stroke-opacity:1"
         d="m 52.388367,307.8042 h 97.647223 v 50.64722 H 52.388367 Z"
         id="rect874" />
      <path
         style="opacity:1;fill:none;fill-opacity:0.14883722;stroke:#000000;stroke-width:0.35277778;stroke-miterlimit:4;stroke-dasharray:none;stroke-opacity:1"
         d="m 52.388367,360.03894 h 47.647223 v 11.64722 H 52.388367 Z"
         id="rect883" />
      <path
         style="opacity:1;fill:none;fill-opacity:0.14883722;stroke:#000000;stroke-width:0.35277778;stroke-miterlimit:4;stroke-dasharray:none;stroke-opacity:1"
         d="m 101.25095,359.85663 h 47.64722 v 11.64722 h -47.64722 z"
         id="rect883-9" />
    </g>
  </g>
</svg>
