<?xml version="1.0" encoding="utf-8"?>
<!-- Generator: Adobe Illustrator 25.2.1, SVG Export Plug-In . SVG Version: 6.00 Build 0)  -->
<svg version="1.1" id="Layer_1" xmlns="http://www.w3.org/2000/svg" xmlns:xlink="http://www.w3.org/1999/xlink" x="0px" y="0px"
	 viewBox="0 0 4280.3 1133.9" style="enable-background:new 0 0 4280.3 1133.9;" xml:space="preserve">
<style type="text/css">
	.st0{fill:none;stroke:#000000;stroke-miterlimit:10;}
</style>
<g>
	<g>
		<path class="st0" d="M155,950h660.5c3.1,0,5.7-2.5,5.7-5.7V248.4c0-3.1-2.5-5.7-5.7-5.7H155c-3.1,0-5.7,2.5-5.7,5.7v695.9
			C149.3,947.5,151.9,950,155,950z"/>
		<circle class="st0" cx="462.5" cy="597.1" r="93.5"/>
		<g>
			<circle class="st0" cx="604.3" cy="738.8" r="8.5"/>
			<circle class="st0" cx="320.8" cy="738.8" r="8.5"/>
			<circle class="st0" cx="320.8" cy="455.4" r="8.5"/>
			<circle class="st0" cx="604.3" cy="455.4" r="8.5"/>
		</g>
		<line class="st0" x1="400" y1="566.7" x2="401.2" y2="629.1"/>
		<line class="st0" x1="446.5" y1="566.7" x2="447.6" y2="629.1"/>
		<line class="st0" x1="473.2" y1="566.7" x2="474.3" y2="627.9"/>
		<line class="st0" x1="473.8" y1="566.7" x2="517.9" y2="588"/>
		<line class="st0" x1="510.5" y1="586.2" x2="474.5" y2="606.2"/>
		<line class="st0" x1="400.8" y1="597.9" x2="444.9" y2="597.9"/>
	</g>
	<circle class="st0" cx="204.1" cy="327.6" r="17.7"/>
	<circle class="st0" cx="766.4" cy="327.6" r="17.7"/>
	<circle class="st0" cx="204.3" cy="865.9" r="17.7"/>
	<circle class="st0" cx="766.6" cy="865.9" r="17.7"/>
</g>
</svg>
