<?xml version="1.0" encoding="utf-8"?>
<!-- Generator: Adobe Illustrator 25.2.1, SVG Export Plug-In . SVG Version: 6.00 Build 0)  -->
<svg version="1.1" id="Layer_1" xmlns="http://www.w3.org/2000/svg" xmlns:xlink="http://www.w3.org/1999/xlink" x="0px" y="0px"
	 viewBox="0 0 4280.3 1133.9" style="enable-background:new 0 0 4280.3 1133.9;" xml:space="preserve">
<style type="text/css">
	.st0{fill:none;stroke:#000000;stroke-miterlimit:10;}
</style>
<g>
	<path class="st0" d="M253,479.3"/>
	<path class="st0" d="M814.3,380.7h104.9c1.6,0,2.8,1.3,2.8,2.8v154.5c0,1.6-1.3,2.8-2.8,2.8H255.9c-1.6,0-2.8-1.3-2.8-2.8v-29.8"/>
	<path class="st0" d="M729.8,380.7"/>
	<path class="st0" d="M253,508.3"/>
	<path class="st0" d="M618.7,508.3H253"/>
	<path class="st0" d="M621.5,505.5c0,1.6-1.3,2.8-2.8,2.8"/>
	<path class="st0" d="M621.5,446.4v59.1"/>
	<path class="st0" d="M621.5,380.7"/>
	<path class="st0" d="M621.5,380.7"/>
	<path class="st0" d="M253,445.9"/>
	<path class="st0" d="M564.5,445.9"/>
	<path class="st0" d="M811.5,445.9l-189.9,0.4"/>
	<path class="st0" d="M814.3,443.1c0,1.6-1.3,2.8-2.8,2.8"/>
	<path class="st0" d="M814.3,380.7v62.4"/>
	<path class="st0" d="M814.3,380.7"/>
</g>
</svg>
