<?xml version="1.0" encoding="utf-8"?>
<!-- Generator: Adobe Illustrator 25.2.1, SVG Export Plug-In . SVG Version: 6.00 Build 0)  -->
<svg version="1.1" id="Layer_1" xmlns="http://www.w3.org/2000/svg" xmlns:xlink="http://www.w3.org/1999/xlink" x="0px" y="0px"
	 viewBox="0 0 4280.3 1133.9" style="enable-background:new 0 0 4280.3 1133.9;" xml:space="preserve">
<style type="text/css">
	.st0{fill:none;stroke:#000000;stroke-miterlimit:10;}
</style>
<g>
	<path class="st0" d="M815.5,950H155c-3.1,0-5.7-2.5-5.7-5.7V248.4c0-3.1,2.5-5.7,5.7-5.7h660.5c3.1,0,5.7,2.5,5.7,5.7v695.9
		C821.1,947.5,818.6,950,815.5,950z"/>
	<circle class="st0" cx="507.9" cy="597.1" r="93.5"/>
	<g>
		<circle class="st0" cx="366.2" cy="738.8" r="8.5"/>
		<circle class="st0" cx="649.6" cy="738.8" r="8.5"/>
		<circle class="st0" cx="649.6" cy="455.4" r="8.5"/>
		<circle class="st0" cx="366.2" cy="455.4" r="8.5"/>
	</g>
	<line class="st0" x1="452.6" y1="566.7" x2="453.7" y2="629.1"/>
	<line class="st0" x1="499" y1="566.7" x2="500.2" y2="629.1"/>
	<line class="st0" x1="525.7" y1="566.7" x2="526.9" y2="627.9"/>
	<line class="st0" x1="526.3" y1="566.7" x2="570.4" y2="588"/>
	<line class="st0" x1="563.1" y1="586.2" x2="527.1" y2="606.2"/>
	<line class="st0" x1="453.3" y1="597.9" x2="497.5" y2="597.9"/>
</g>
</svg>
