<?xml version="1.0" encoding="utf-8"?>
<!-- Generator: Adobe Illustrator 25.2.1, SVG Export Plug-In . SVG Version: 6.00 Build 0)  -->
<svg version="1.1" id="Layer_1" xmlns="http://www.w3.org/2000/svg" xmlns:xlink="http://www.w3.org/1999/xlink" x="0px" y="0px"
	 viewBox="0 0 4280.3 1133.9" style="enable-background:new 0 0 4280.3 1133.9;" xml:space="preserve">
<style type="text/css">
	.st0{fill:none;stroke:#000000;stroke-miterlimit:10;}
</style>
<g>
	<path class="st0" d="M1124.5,889.2H458.3c-1.6,0-2.8-1.3-2.8-2.8V186.2c0-1.6,1.3-2.8,2.8-2.8h666.1c1.6,0,2.8,1.3,2.8,2.8v700.2
		C1127.3,887.9,1126,889.2,1124.5,889.2z"/>
	<circle class="st0" cx="811.3" cy="539.1" r="93.5"/>
	<circle class="st0" cx="669.5" cy="397.4" r="9.9"/>
	<circle class="st0" cx="953" cy="397.4" r="9.9"/>
	<circle class="st0" cx="953" cy="680.9" r="9.9"/>
	<circle class="st0" cx="669.5" cy="680.9" r="9.9"/>
	<line class="st0" x1="800.3" y1="507.3" x2="801.3" y2="562"/>
	<line class="st0" x1="781.7" y1="507.6" x2="782.7" y2="562.3"/>
	<line class="st0" x1="820.4" y1="510.6" x2="821.4" y2="565.3"/>
	<line class="st0" x1="777.1" y1="534.6" x2="802.9" y2="534.6"/>
	<line class="st0" x1="818.4" y1="511" x2="844.7" y2="524.4"/>
	<line class="st0" x1="845.4" y1="525" x2="814.8" y2="531.5"/>
</g>
</svg>
