<?xml version="1.0" encoding="utf-8"?>
<!-- Generator: Adobe Illustrator 25.4.0, SVG Export Plug-In . SVG Version: 6.00 Build 0)  -->
<svg version="1.1" id="Layer_1" xmlns="http://www.w3.org/2000/svg" xmlns:xlink="http://www.w3.org/1999/xlink" x="0px" y="0px"
	 viewBox="0 0 4280.3 1133.9" style="enable-background:new 0 0 4280.3 1133.9;" xml:space="preserve">
<style type="text/css">
	.st0{fill:none;stroke:#000000;stroke-miterlimit:10;}
</style>
<g>
	<rect x="641.4" y="528.5" class="st0" width="195.6" height="104.9"/>
	
		<rect x="692.9" y="226.1" transform="matrix(4.489215e-11 -1 1 4.489215e-11 302.4023 1117.4453)" class="st0" width="34" height="362.8"/>
	<rect x="1161.4" y="403.1" class="st0" width="34" height="110.6"/>
	<rect x="1195.4" y="365.7" class="st0" width="34" height="147.4"/>
	<rect x="367.5" y="461.4" class="st0" width="263.6" height="45.4"/>
	<rect x="931.1" y="467.4" class="st0" width="178.6" height="45.4"/>
	<rect x="472.7" y="424.5" class="st0" width="589.6" height="36.9"/>
	<rect x="640" y="633.5" class="st0" width="99.2" height="42.5"/>
	<rect x="739.2" y="633.5" class="st0" width="99.2" height="42.5"/>
	<polygon class="st0" points="814.7,528.4 735.4,528.4 735.4,485.8 809.1,485.8 	"/>
	<polygon class="st0" points="656,528.4 735.4,528.4 735.4,485.8 661.7,485.8 	"/>
	<g>
		<rect x="545.5" y="353.7" class="st0" width="150.2" height="36.9"/>
		<circle class="st0" cx="591.3" cy="372.1" r="8.5"/>
		<circle class="st0" cx="622.4" cy="372.1" r="8.5"/>
		<circle class="st0" cx="653.6" cy="372.1" r="8.5"/>
	</g>
	<g>
		<rect x="731.7" y="353.2" class="st0" width="150.2" height="36.9"/>
		<rect x="757.2" y="371.6" class="st0" width="42.5" height="14.2"/>
		<rect x="818.9" y="356.1" class="st0" width="31.2" height="31.2"/>
	</g>
	<rect x="838.4" y="512.9" class="st0" width="391.2" height="164.4"/>
	<rect x="1215.4" y="512.9" class="st0" width="14.2" height="28.3"/>
	<g>
		<rect x="305.5" y="506.7" class="st0" width="334.5" height="164.4"/>
		<rect x="305.5" y="506.7" class="st0" width="14.2" height="28.3"/>
	</g>
</g>
</svg>
