<?xml version="1.0" encoding="utf-8"?>
<!-- Generator: Adobe Illustrator 25.2.1, SVG Export Plug-In . SVG Version: 6.00 Build 0)  -->
<svg version="1.1" id="Layer_1" xmlns="http://www.w3.org/2000/svg" xmlns:xlink="http://www.w3.org/1999/xlink" x="0px" y="0px"
	 viewBox="0 0 4280.3 1133.9" style="enable-background:new 0 0 4280.3 1133.9;" xml:space="preserve">
<style type="text/css">
	.st0{fill:none;stroke:#010101;stroke-miterlimit:11.3386;}
</style>
<g id="layer1" transform="translate(0,544)">
	<path id="rect815" class="st0" d="M124.4-136.3l-0.4-274c0-15.7,12.6-28.3,28.3-28.3h534.7c15.7,0,28.3,12.6,28.3,28.3v866.4
		c0,15.7-12.6,28.3-28.3,28.3H152.3c-15.7,0-28.4-12.6-28.3-28.3l0.4-363.8"/>
	<path id="rect817" class="st0" d="M296.6-136.3l-0.2-240.7c0-15.7,3.6-19.3,19.3-19.3h334.5c15.7,0,19.3,3.6,19.3,19.3v796.5
		c0,15.7-3.6,19.3-19.3,19.3H315.7c-15.7,0-19.3-3.6-19.3-19.3c0-110.4,0.2-327.2,0.2-327.2"/>
	<path id="rect821" class="st0" d="M283.4-127.6V81.1c0,3.1-2.5,5.7-5.7,5.7h-95.4c-3.1,0-5.7-2.5-5.7-5.7v-208.8
		c0-3.1,2.5-5.7,5.7-5.7h95.4C280.9-133.3,283.4-130.8,283.4-127.6L283.4-127.6z"/>
	<path id="rect823" class="st0" d="M296.6,92.3H124.4 M124.4-136.3h172.2"/>
	<path id="rect825" class="st0" d="M168.8-123.3v92.5c0,3.1-2.5,5.7-5.7,5.7h-24.5c-3.1,0-5.7-2.5-5.7-5.7v-92.5
		c0-3.1,2.5-5.7,5.7-5.7h24.5C166.3-129,168.8-126.4,168.8-123.3z"/>
	<path id="rect825-2" class="st0" d="M168.8-10.4v92.5c0,3.1-2.5,5.7-5.7,5.7h-24.5c-3.1,0-5.7-2.5-5.7-5.7v-92.5
		c0-3.1,2.5-5.7,5.7-5.7h24.5C166.3-16.1,168.8-13.6,168.8-10.4z"/>
	<path id="rect842" class="st0" d="M552,454.3v16c0,3.1-2.5,5.7-5.7,5.7h-98.2c-3.1,0-5.7-2.5-5.7-5.7v-16c0-3.1,2.5-5.7,5.7-5.7
		h98.2C549.5,448.7,552,451.2,552,454.3z"/>
	<path id="rect844" class="st0" d="M709.4,367.4v21.7c0,3.1-2.5,5.7-5.7,5.7h-21.7c-3.1,0-5.7-2.5-5.7-5.7v-21.7
		c0-3.1,2.5-5.7,5.7-5.7h21.7C706.9,361.8,709.4,364.3,709.4,367.4z"/>
</g>
</svg>
