<?xml version="1.0" encoding="utf-8"?>
<!-- Generator: Adobe Illustrator 25.2.0, SVG Export Plug-In . SVG Version: 6.00 Build 0)  -->
<svg version="1.1" id="Layer_1" xmlns="http://www.w3.org/2000/svg" xmlns:xlink="http://www.w3.org/1999/xlink" x="0px" y="0px"
	 viewBox="0 0 4280.3 1133.9" style="enable-background:new 0 0 4280.3 1133.9;" xml:space="preserve">
<style type="text/css">
	.st0{fill:none;stroke:#000000;stroke-miterlimit:10;}
</style>
<g>
	<g>
		<path class="st0" d="M98.5,457.3l1.4-277.8c0-15.7,12.7-28.4,28.4-28.4h538.6c15.7,0,28.3,12.7,28.3,28.4v871.7
			c0,15.7-12.7,28.3-28.3,28.3H128.3c-15.7,0-28.4-12.7-28.4-28.3l-1-360"/>
		<path class="st0" d="M99.9,502.8"/>
		<path class="st0" d="M273.9,457.3l0.3-240.2c0-11,8.9-19.8,19.8-19.8h333.1c11,0,19.8,8.9,19.8,19.8v796.5
			c0,11-8.9,19.8-19.8,19.8H294c-11,0-19.8-8.9-19.8-19.8l0.1-322.4"/>
		<path class="st0" d="M274.2,663"/>
		<line class="st0" x1="273.9" y1="457.3" x2="98.5" y2="457.3"/>
		<line class="st0" x1="98.9" y1="691.2" x2="274.3" y2="691.2"/>
		<path class="st0" d="M652.4,981v-25.5c0-3.1,2.5-5.7,5.7-5.7h25.5c3.1,0,5.7,2.5,5.7,5.7V981c0,3.1-2.5,5.7-5.7,5.7H658
			C654.9,986.7,652.4,984.2,652.4,981z"/>
		<path class="st0" d="M425.9,1064v-14.2c0-3.1,2.5-5.7,5.7-5.7H528c3.1,0,5.7,2.5,5.7,5.7v14.2c0,3.1-2.5,5.7-5.7,5.7h-96.4
			C428.5,1069.7,425.9,1067.2,425.9,1064z"/>
		<path class="st0" d="M146.2,680.1V464.7c0-1.6,1.3-2.8,2.8-2.8h102.1c1.6,0,2.8,1.3,2.8,2.8v215.4c0,1.6-1.3,2.8-2.8,2.8H149
			C147.5,682.9,146.2,681.7,146.2,680.1z"/>
		<g>
			<rect x="105.4" y="469.4" class="st0" width="35.4" height="104.9"/>
			<polyline class="st0" points="140.8,574.3 140.8,679.1 105.3,679.1 105.3,574.3 			"/>
		</g>
	</g>
	<circle class="st0" cx="602.6" cy="174.6" r="7.1"/>
	<circle class="st0" cx="548.9" cy="174.6" r="7.1"/>
	<circle class="st0" cx="575.8" cy="174.6" r="7.1"/>
</g>
</svg>
