<?xml version="1.0" encoding="UTF-8" standalone="no"?>
<!-- Created with Inkscape (http://www.inkscape.org/) -->

<svg
   xmlns:dc="http://purl.org/dc/elements/1.1/"
   xmlns:cc="http://creativecommons.org/ns#"
   xmlns:rdf="http://www.w3.org/1999/02/22-rdf-syntax-ns#"
   xmlns:svg="http://www.w3.org/2000/svg"
   xmlns="http://www.w3.org/2000/svg"
   xmlns:sodipodi="http://sodipodi.sourceforge.net/DTD/sodipodi-0.dtd"
   xmlns:inkscape="http://www.inkscape.org/namespaces/inkscape"
   version="1.1"
   id="svg2"
   width="841mm"
   height="594mm"
   viewBox="0 0 3178.5827 2245.0394"
   sodipodi:docname="Lat_7370_PR.svg"
   inkscape:version="0.92.3 (2405546, 2018-03-11)">
  <metadata
     id="metadata8">
    <rdf:RDF>
      <cc:Work
         rdf:about="">
        <dc:format>image/svg+xml</dc:format>
        <dc:type
           rdf:resource="http://purl.org/dc/dcmitype/StillImage" />
        <dc:title />
      </cc:Work>
    </rdf:RDF>
  </metadata>
  <defs
     id="defs6" />
  <sodipodi:namedview
     pagecolor="#ffffff"
     bordercolor="#666666"
     borderopacity="1"
     objecttolerance="10"
     gridtolerance="10"
     guidetolerance="10"
     inkscape:pageopacity="0"
     inkscape:pageshadow="2"
     inkscape:window-width="1920"
     inkscape:window-height="1017"
     id="namedview4"
     showgrid="false"
     units="mm"
     showguides="true"
     inkscape:guide-bbox="true"
     inkscape:zoom="0.81175858"
     inkscape:cx="906.59974"
     inkscape:cy="564.72063"
     inkscape:window-x="-8"
     inkscape:window-y="-8"
     inkscape:window-maximized="1"
     inkscape:current-layer="svg2" />
  <path
     style="opacity:1;fill:none;fill-opacity:0.12093021;stroke:#000000;stroke-width:1.33333337;stroke-miterlimit:4;stroke-dasharray:none;stroke-opacity:1"
     d="m 782.8688,2105.1886 -323.07934,0.4777 c -10.53869,0.015 -19.02293,-8.4689 -19.02293,-18.9887 v -750.6148 c 0,-10.5197 8.48429,-19.0239 19.02293,-18.9887 l 105.86536,0.3533 m 896.54038,0 107.1915,-0.3533 c 10.5385,-0.035 19.0229,8.469 19.0229,18.9887 v 750.6148 c 0,10.5198 -8.4843,19.0011 -19.0229,18.9887 l -407.4014,-0.4777"
     id="rect830"
     inkscape:connector-curvature="0"
     sodipodi:nodetypes="cssssccssssc" />
  <path
     style="opacity:1;fill:none;fill-opacity:0.12093021;stroke:#000000;stroke-width:1.33333337;stroke-miterlimit:4;stroke-dasharray:none;stroke-opacity:1"
     d="M 1245.7755,1796.537 H 531.63705 c -10.5784,0 -19.09457,-8.4689 -19.09457,-18.9887 v -374.6375 c 0,-10.5197 8.51617,-18.9887 19.09457,-18.9887 h 968.65885 c 10.5783,0 19.0946,8.469 19.0946,18.9887 l 10e-5,393.6262"
     id="rect832"
     inkscape:connector-curvature="0"
     sodipodi:nodetypes="cssssssc" />
  <path
     style="opacity:1;fill:none;fill-opacity:0.12093021;stroke:#000000;stroke-width:1.33333337;stroke-miterlimit:4;stroke-dasharray:none;stroke-opacity:1"
     d="m 1462.1952,1317.4274 v 51.8712 H 565.65482 v -51.8712"
     id="rect836"
     inkscape:connector-curvature="0"
     sodipodi:nodetypes="cccc" />
  <path
     style="opacity:1;fill:none;fill-opacity:0.12093021;stroke:#000000;stroke-width:1.33333337;stroke-miterlimit:4;stroke-dasharray:none;stroke-opacity:1"
     d="m 782.8688,2105.1886 v -256.8462 c 0,-6.0018 5.09054,-10.8336 11.41376,-10.8336 h 356.28894 c 6.3233,0 11.4138,4.8318 11.4138,10.8336 v 256.8462"
     id="rect838"
     inkscape:connector-curvature="0"
     sodipodi:nodetypes="cssssc" />
  <path
     style="opacity:1;fill:none;fill-opacity:0.12093021;stroke:#000000;stroke-width:1.33333337;stroke-miterlimit:4;stroke-dasharray:none;stroke-opacity:1"
     d="m 1519.3906,1796.537 c 0.8852,9.9741 -8.4046,17.2027 -19.3589,17.649 h -235.1521 c -12.78,-3.2237 -9.4365,-13.0571 -21.8563,-17.649"
     id="rect840"
     inkscape:connector-curvature="0"
     sodipodi:nodetypes="cccc" />
  <path
     inkscape:connector-curvature="0"
     id="path847"
     d="m 1570.3774,1425.4665 a 18.351847,18.318867 0 0 1 -18.3517,18.3189 18.351847,18.318867 0 0 1 -18.3519,-18.3189 18.351847,18.318867 0 0 1 18.3519,-18.3188 18.351847,18.318867 0 0 1 18.3517,18.3188 z"
     style="opacity:1;fill:none;fill-opacity:0.12093021;stroke:#000000;stroke-width:1.33333337;stroke-miterlimit:4;stroke-dasharray:none;stroke-opacity:1" />
</svg>
