<?xml version="1.0" encoding="utf-8"?>
<!-- Generator: Adobe Illustrator 26.1.0, SVG Export Plug-In . SVG Version: 6.00 Build 0)  -->
<svg version="1.1" id="Layer_1" xmlns="http://www.w3.org/2000/svg" xmlns:xlink="http://www.w3.org/1999/xlink" x="0px" y="0px"
	 viewBox="0 0 4280.3 1133.9" style="enable-background:new 0 0 4280.3 1133.9;" xml:space="preserve">
<style type="text/css">
	.st0{fill:none;stroke:#000000;stroke-miterlimit:10;}
</style>
<g>
	<path class="st0" d="M67.5,203.3l0-36.9c0-4.7,3.8-8.5,8.5-8.5h541.4c4.7,0,8.5,3.8,8.5,8.5v841.9c0,4.7-3.8,8.5-8.5,8.5H76
		c-4.7,0-8.5-3.8-8.5-8.5l0-36.9"/>
	<path class="st0" d="M67.5,203.3l331.6-0.3"/>
	<path class="st0" d="M387.8,429.8v533.2c0,4.7-3.8,8.5-8.5,8.5H67.5"/>
	<path class="st0" d="M399.2,203c4.7,0,8.5,3.8,8.5,8.5"/>
	<path class="st0" d="M407.7,373.1c0,9.9-19.8,41.1-19.8,56.7"/>
	<path class="st0" d="M407.7,211.5v163.3"/>
	<path class="st0" d="M597.6,492.4V739c0,3.1-2.5,5.7-5.7,5.7H413.3c-3.1,0-5.7-2.5-5.7-5.7V492.4c0-3.1,2.5-5.7,5.7-5.7h178.6
		C595,486.7,597.6,489.3,597.6,492.4z"/>
	<path class="st0" d="M467.2,206.1v34c0,3.1-2.5,5.7-5.7,5.7h-34c-3.1,0-5.7-2.5-5.7-5.7v-34c0-3.1,2.5-5.7,5.7-5.7h34
		C464.6,200.4,467.2,203,467.2,206.1z"/>
	<path class="st0" d="M387.8,178.7L387.8,178.7c0,2.3-1.9,4.3-4.3,4.3H341c-2.3,0-4.3-1.9-4.3-4.3l0,0c0-2.3,1.9-4.3,4.3-4.3h42.5
		C385.9,174.5,387.8,176.4,387.8,178.7z"/>
	<path class="st0" d="M547.8,743.4V488.3H414.6c-3.1,0-5.7,2.5-5.7,5.7v243.8c0,3.1,2.5,5.7,5.7,5.7H547.8z"/>
	<path class="st0" d="M387.8,995.6L387.8,995.6c0-2.3-1.9-4.3-4.3-4.3H341c-2.3,0-4.3,1.9-4.3,4.3l0,0c0,2.3,1.9,4.3,4.3,4.3h42.5
		C385.9,999.8,387.8,997.9,387.8,995.6z"/>
	<path class="st0" d="M582,620V739c0,3.1-2.5,5.7-5.7,5.7H548V620H582z"/>
	<path class="st0" d="M582,500.9V620h-34V495.2h28.3C579.4,495.2,582,497.8,582,500.9z"/>
</g>
</svg>
