<?xml version="1.0" encoding="utf-8"?>
<!-- Generator: Adobe Illustrator 24.2.2, SVG Export Plug-In . SVG Version: 6.00 Build 0)  -->
<svg version="1.1" id="Layer_1" xmlns="http://www.w3.org/2000/svg" xmlns:xlink="http://www.w3.org/1999/xlink" x="0px" y="0px"
	 viewBox="0 0 864 1700.8" style="enable-background:new 0 0 864 1700.8;" xml:space="preserve">
<style type="text/css">
	.st0{fill:none;stroke:#000000;stroke-linecap:round;stroke-linejoin:round;stroke-miterlimit:11.3386;}
	.st1{fill:#FFFFFF;stroke:#000000;stroke-miterlimit:10;}
</style>
<path class="st0" d="M-2938,35.7c35.1-2.6,43.2-29.5,43.2-43v-628.3c0-2.3,0.1-17.8-12.7-30.5c-4.8-4.7-14.9-12.5-30.5-12.5h-982.3
	c-15.5,0-25.4,7.9-29.1,11.3c-12.1,11-14.1,24.6-14.1,31.7V-7.3c0,13,5.7,22.6,10.4,28c13.1,15.1,30.1,15,32.8,15h44.6"/>
<path class="st0" d="M-2984.9,35.7l46.9,0"/>
<path class="st0" d="M-3371.5-331.1c0,32.1-26,58.1-58.1,58.1s-58.1-26-58.1-58.1c0-32.1,26-58.1,58.1-58.1
	S-3371.5-363.1-3371.5-331.1z"/>
<path class="st0" d="M-2984.9,35.7V9.1h-890.5v26.5"/>
<rect x="-3963.5" y="-1509.2" class="st1" width="4025.9" height="600.3"/>
<path class="st0" d="M-1835.3,35.7c35.1-2.6,43.2-29.5,43.2-43v-628.3c0-2.3,0.1-17.8-12.7-30.5c-4.8-4.7-14.9-12.5-30.5-12.5
	h-982.3c-15.5,0-25.4,7.9-29.1,11.3c-12.1,11-14.1,24.6-14.1,31.7V-7.3c0,13,5.7,22.6,10.4,28c13.1,15.1,30.1,15,32.8,15h44.6"/>
<path class="st0" d="M-1882.2,35.7l46.9,0"/>
<path class="st0" d="M-2268.8-331.1c0,32.1-26,58.1-58.1,58.1s-58.1-26-58.1-58.1c0-32.1,26-58.1,58.1-58.1
	S-2268.8-363.1-2268.8-331.1z"/>
<path class="st0" d="M-1882.2,35.7V9.1h-890.5v26.5"/>
<path class="st0" d="M-725.7,35.7c35.1-2.6,43.2-29.5,43.2-43v-628.3c0-2.3,0.1-17.8-12.7-30.5c-4.8-4.7-14.9-12.5-30.5-12.5H-1708
	c-15.5,0-25.4,7.9-29.1,11.3c-12.1,11-14.1,24.6-14.1,31.7V-7.3c0,13,5.7,22.6,10.4,28c13.1,15.1,30.1,15,32.8,15h44.6"/>
<path class="st0" d="M-772.6,35.7l46.9,0"/>
<path class="st0" d="M-1159.3-331.1c0,32.1-26,58.1-58.1,58.1c-32.1,0-58.1-26-58.1-58.1c0-32.1,26-58.1,58.1-58.1
	C-1185.3-389.2-1159.3-363.1-1159.3-331.1z"/>
<path class="st0" d="M-772.7,35.7V9.1h-890.5v26.5"/>
<path class="st0" d="M-636.8,348.3c2.8,35.1,29.8,43,43.3,42.9l628.3-4.3c2.3,0,17.8,0,30.4-12.9c4.7-4.8,12.4-15,12.3-30.6
	l-6.8-982.3c-0.1-15.5-8.1-25.3-11.5-29c-11-12.1-24.7-13.9-31.8-13.9l-628.3,4.3c-13,0.1-22.5,5.8-27.9,10.6
	c-15.1,13.3-14.8,30.2-14.8,32.9l0.3,44.6"/>
<path class="st0" d="M-637.1,301.3l0.3,46.9"/>
<path class="st0" d="M-273-87.8c-32.1,0.2-58.3-25.6-58.5-57.7c-0.2-32.1,25.6-58.3,57.7-58.5c32.1-0.2,58.3,25.6,58.5,57.7
	C-215.1-114.3-240.9-88-273-87.8z"/>
<path class="st0" d="M-637.1,301.3l26.6-0.2l-6.1-890.5l-26.5,0.2"/>
</svg>
