<?xml version="1.0" encoding="utf-8"?>
<!DOCTYPE svg PUBLIC "-//W3C//DTD SVG 1.1//EN" "http://www.w3.org/Graphics/SVG/1.1/DTD/svg11.dtd">
<!-- exported from Silhouette Studio® Business Edition V4.3.370ssbe -->
<svg version="1.1" xmlns="http://www.w3.org/2000/svg" xmlns:xlink="http://www.w3.org/1999/xlink" width="304.8mm" height="600mm" viewBox="0 0 304.8 600">
<defs/>
<path d="M -0.9258881 328.6982 C -3.034454 328.1859 -6.055725 326.5392 -7.728378 324.9907 C -9.69902 323.1663 -11.59981 320.0041 -12.28932 317.403 C -12.49178 316.6392 -12.54409 293.3519 -12.5441 203.9948 L -12.54411 91.54767 L -11.78816 89.73227 C -9.995483 85.42719 -7.586532 83.12991 -3.323792 81.66013 L -1.435287 81.00897 L 174.3401 81.00897 L 350.1154 81.00897 L 351.9539 81.62784 C 352.9651 81.96826 354.0468 82.42868 354.3576 82.65103 C 354.6684 82.87338 354.9878 83.05527 355.0675 83.05527 C 355.4567 83.05527 357.2272 84.59753 358.05 85.65326 C 359.1354 87.04578 360.3314 89.32251 360.6628 90.62683 C 360.7914 91.13336 361.0044 91.87 361.136 92.26392 C 361.3175 92.80777 361.3893 119.4498 361.4344 202.9716 C 361.4879 301.8421 361.4618 313.1699 361.176 315.0095 C 360.7237 317.9205 360.4948 318.6998 359.584 320.4323 C 359.1402 321.2764 358.64 322.2432 358.4724 322.581 C 358.0775 323.3769 355.7916 325.5821 354.3108 326.5958 C 353.6729 327.0325 353.1029 327.3899 353.0439 327.3899 C 352.9851 327.3899 352.4375 327.6195 351.8269 327.9001 C 351.2164 328.1807 350.1368 328.5476 349.4279 328.7155 C 348.2903 328.985 327.7225 329.0192 174.2127 329.0069 C 23.5845 328.9948 0.1240996 328.9534 -0.9258881 328.6982 Z" fill="none" fill-opacity="1" stroke="#000000" stroke-opacity="1" stroke-width="0.3527778" stroke-linecap="round" stroke-linejoin="round"/>
<path d="M 195.7623 201.9454 C 195.7623 213.8088 186.1256 223.4455 174.2622 223.4455 C 162.3988 223.4455 152.7621 213.8088 152.7621 201.9454 C 152.7621 190.082 162.3988 180.4453 174.2622 180.4453 C 186.1256 180.4453 195.7623 190.082 195.7623 201.9454 Z" fill="none" fill-opacity="1" stroke="#000000" stroke-opacity="1" stroke-width="0.3527778" stroke-linecap="round" stroke-linejoin="round"/>
<path d="M 173.2452 215.0835 L 173.0495 199.1131 L 171.2784 199.0558 L 174.116 189.8271 L 177.1821 199.2468 L 175.411 199.1895 L 175.6067 215.1599 L 173.2452 215.0835 Z" fill="none" fill-opacity="1" stroke="#000000" stroke-opacity="1" stroke-width="0.3527778" stroke-linecap="round" stroke-linejoin="round"/>
</svg>