<?xml version="1.0" encoding="utf-8"?>
<!-- Generator: Adobe Illustrator 26.1.0, SVG Export Plug-In . SVG Version: 6.00 Build 0)  -->
<svg version="1.1" id="Layer_1" xmlns="http://www.w3.org/2000/svg" xmlns:xlink="http://www.w3.org/1999/xlink" x="0px" y="0px"
	 viewBox="0 0 4280.3 1133.9" style="enable-background:new 0 0 4280.3 1133.9;" xml:space="preserve">
<style type="text/css">
	.st0{fill:none;stroke:#000000;stroke-miterlimit:10;}
	.st1{fill:none;stroke:#010101;stroke-linecap:round;stroke-linejoin:round;stroke-miterlimit:11.3386;}
</style>
<g>
	<path class="st0" d="M2299.9,76.4v999.2c0,4.7-3.8,8.5-8.5,8.5h-640.6c-1.6,0-2.8-1.3-2.8-2.8V70.7c0-1.6,1.3-2.8,2.8-2.8h640.6
		C2296,67.9,2299.9,71.7,2299.9,76.4z"/>
	<path class="st1" d="M1965,562.1c0.1,0.2,13.5,5.1,40.1,14.8l-0.1-13.1c0.1,0-40.2-14.4-40.1-14.6C1965,549.2,1965,562,1965,562.1z
		"/>
	<path class="st1" d="M1915,569.2c0.6-0.1,90.2,34.2,90.1,34c-0.2-0.4,0-13.8-0.1-13.9c-0.4-0.9-91.1-33.7-90.2-34
		C1915,555.2,1914.8,569.2,1915,569.2z"/>
	<path class="st1" d="M1965,613.2c0.1,0.2,13.5,5.1,40.1,14.8l-0.1-13.1c0.1,0-40.2-14.4-40.1-14.6
		C1965,600.3,1965,613.1,1965,613.2z"/>
	<path class="st1" d="M2052.5,555.5c-0.4-0.9-88.4-32.1-87.5-32.4c0.2,0,0,13.9,0.2,13.9c0.6-0.1,87.4,33.2,87.3,33"/>
	<line class="st1" x1="2260.2" y1="1084.1" x2="2260.2" y2="67.9"/>
	<line class="st1" x1="2052.5" y1="555.5" x2="2052.5" y2="570"/>
</g>
</svg>
