<?xml version="1.0" encoding="utf-8"?>
<!-- Generator: Adobe Illustrator 25.2.0, SVG Export Plug-In . SVG Version: 6.00 Build 0)  -->
<svg version="1.1" id="Layer_1" xmlns="http://www.w3.org/2000/svg" xmlns:xlink="http://www.w3.org/1999/xlink" x="0px" y="0px"
	 viewBox="0 0 4280.3 1133.9" style="enable-background:new 0 0 4280.3 1133.9;" xml:space="preserve">
<style type="text/css">
	.st0{fill:none;stroke:#000000;stroke-miterlimit:10;}
</style>
<g>
	<path class="st0" d="M784.9,1003.2v81c0,6.3-5.1,11.3-11.3,11.3h-656V38.3h656c6.3,0,11.3,5.1,11.3,11.3v81"/>
	<polyline class="st0" points="754,236.5 753.5,130.6 784.9,130.6 	"/>
	<path class="st0" d="M753.5,941.4"/>
	<polyline class="st0" points="784.9,1003.2 753.5,1003.2 754,897.3 	"/>
	<path class="st0" d="M784.9,1003.2"/>
	<path class="st0" d="M784.9,130.6"/>
	<ellipse class="st0" cx="431.2" cy="566.9" rx="37" ry="37"/>
	<path class="st0" d="M117.5,1095.6H92.9c-6.3,0-11.3-5.1-11.3-11.3V49.6c0-6.3,5.1-11.3,11.3-11.3h24.6"/>
	<line class="st0" x1="758.2" y1="897.3" x2="754" y2="897.3"/>
	<line class="st0" x1="758.2" y1="236.5" x2="758.2" y2="897.3"/>
	<line class="st0" x1="754" y1="236.5" x2="758.2" y2="236.5"/>
	<path class="st0" d="M754,236.5"/>
	<path class="st0" d="M754,897.3"/>
</g>
</svg>
