<?xml version="1.0" encoding="utf-8"?>
<!-- Generator: Adobe Illustrator 25.2.1, SVG Export Plug-In . SVG Version: 6.00 Build 0)  -->
<svg version="1.1" id="Layer_1" xmlns="http://www.w3.org/2000/svg" xmlns:xlink="http://www.w3.org/1999/xlink" x="0px" y="0px"
	 viewBox="0 0 4280.3 1133.9" style="enable-background:new 0 0 4280.3 1133.9;" xml:space="preserve">
<style type="text/css">
	.st0{fill:none;stroke:#000000;stroke-miterlimit:10;}
</style>
<g>
	<path class="st0" d="M528.9,377V96.4c0-1.6,1.3-2.8,2.8-2.8h1014.8c1.6,0,2.8,1.3,2.8,2.8v941.1c0,1.6-1.3,2.8-2.8,2.8H531.8
		c-1.6,0-2.8-1.3-2.8-2.8v-292"/>
	<path class="st0" d="M628.2,189.9h-56.7c-1.6,0-2.8-1.3-2.8-2.8v-31.2c0-1.6,1.3-2.8,2.8-2.8h56.7c1.6,0,2.8,1.3,2.8,2.8v31.2
		C631,188.7,629.7,189.9,628.2,189.9z"/>
	<path class="st0" d="M528.9,377h124.7c1.6,0,2.8,1.3,2.8,2.8v362.8c0,1.6-1.3,2.8-2.8,2.8H528.9"/>
	<path class="st0" d="M528.9,377"/>
	<path class="st0" d="M528.9,745.5"/>
	<path class="st0" d="M1182.3,656.2H938.5c-9.4,0-17-7.6-17-17V498.9c0-9.4,7.6-17,17-17h243.8c9.4,0,17,7.6,17,17v140.3
		C1199.3,648.6,1191.7,656.2,1182.3,656.2z"/>
	<path class="st0" d="M565.8,975.1v-34c0-1.6,1.3-2.8,2.8-2.8h53.9c1.6,0,2.8,1.3,2.8,2.8v34c0,1.6-1.3,2.8-2.8,2.8h-53.9
		C567.1,978,565.8,976.7,565.8,975.1z"/>
	<path class="st0" d="M1501.2,975.1v-34c0-1.6-1.3-2.8-2.8-2.8h-53.9c-1.6,0-2.8,1.3-2.8,2.8v34c0,1.6,1.3,2.8,2.8,2.8h53.9
		C1500,978,1501.2,976.7,1501.2,975.1z"/>
	<path class="st0" d="M1501.2,158.7v34c0,1.6-1.3,2.8-2.8,2.8h-53.9c-1.6,0-2.8-1.3-2.8-2.8v-34c0-1.6,1.3-2.8,2.8-2.8h53.9
		C1500,155.9,1501.2,157.2,1501.2,158.7z"/>
</g>
</svg>
