<?xml version="1.0" encoding="utf-8"?>
<!-- Generator: Adobe Illustrator 25.2.1, SVG Export Plug-In . SVG Version: 6.00 Build 0)  -->
<svg version="1.1" id="Layer_1" xmlns="http://www.w3.org/2000/svg" xmlns:xlink="http://www.w3.org/1999/xlink" x="0px" y="0px"
	 viewBox="0 0 4280.3 1133.9" style="enable-background:new 0 0 4280.3 1133.9;" xml:space="preserve">
<style type="text/css">
	.st0{fill:none;stroke:#000000;stroke-miterlimit:10;}
</style>
<g>
	<path class="st0" d="M1277.4,1002.9H259.8c-1.6,0-2.8-1.3-2.8-2.8V87.3c0-1.6,1.3-2.8,2.8-2.8h1017.6c1.6,0,2.8,1.3,2.8,2.8V1000
		C1280.2,1001.6,1279,1002.9,1277.4,1002.9z"/>
	<path class="st0" d="M863.5,631.3H631.1c-12.5,0-22.7-10.2-22.7-22.7V481c0-12.5,10.2-22.7,22.7-22.7h232.4
		c12.5,0,22.7,10.2,22.7,22.7v127.6C886.2,621.1,876.1,631.3,863.5,631.3z"/>
	<path class="st0" d="M1172.5,744.9h-102c-26.6,0-48.2-21.6-48.2-48.2V555c0-26.6,21.6-48.2,48.2-48.2h102
		c26.6,0,48.2,21.6,48.2,48.2v141.7C1220.7,723.3,1199.1,744.9,1172.5,744.9z"/>
</g>
</svg>
