<?xml version="1.0" encoding="utf-8"?>
<!-- Generator: Adobe Illustrator 25.2.1, SVG Export Plug-In . SVG Version: 6.00 Build 0)  -->
<svg version="1.1"
	 id="svg76" inkscape:version="0.92.3 (2405546, 2018-03-11)" xmlns:cc="http://creativecommons.org/ns#" xmlns:dc="http://purl.org/dc/elements/1.1/" xmlns:inkscape="http://www.inkscape.org/namespaces/inkscape" xmlns:rdf="http://www.w3.org/1999/02/22-rdf-syntax-ns#" xmlns:sodipodi="http://sodipodi.sourceforge.net/DTD/sodipodi-0.dtd" xmlns:svg="http://www.w3.org/2000/svg"
	 xmlns="http://www.w3.org/2000/svg" xmlns:xlink="http://www.w3.org/1999/xlink" x="0px" y="0px" viewBox="0 0 3401.6 2834.6"
	 style="enable-background:new 0 0 3401.6 2834.6;" xml:space="preserve">
<style type="text/css">
	.st0{fill:none;stroke:#000000;stroke-width:1.25;stroke-linecap:round;stroke-linejoin:round;stroke-miterlimit:11.3386;}
	.st1{fill:none;stroke:#000000;stroke-width:1.3999;stroke-linecap:round;stroke-linejoin:round;stroke-miterlimit:11.3386;}
	.st2{fill:none;stroke:#000000;stroke-width:0.7237;stroke-miterlimit:11.3386;}
</style>
<sodipodi:namedview  bordercolor="#666666" borderopacity="1" gridtolerance="10" guidetolerance="10" id="namedview78" inkscape:bbox-nodes="true" inkscape:bbox-paths="true" inkscape:current-layer="svg76" inkscape:cx="619.12252" inkscape:cy="3448.7096" inkscape:guide-bbox="true" inkscape:measure-end="258.433,3594.57" inkscape:measure-start="453.72,3595.75" inkscape:pageopacity="0" inkscape:pageshadow="2" inkscape:snap-bbox="true" inkscape:snap-bbox-edge-midpoints="true" inkscape:snap-bbox-midpoints="true" inkscape:window-height="903" inkscape:window-maximized="1" inkscape:window-width="1680" inkscape:window-x="0" inkscape:window-y="28" inkscape:zoom="0.35416134" objecttolerance="10" pagecolor="#ffffff" showgrid="false" showguides="true">
	</sodipodi:namedview>
<g id="g987">
	<path id="path6-6" inkscape:connector-curvature="0" sodipodi:nodetypes="ccccccccccccccccccccccccccc" class="st0" d="
		M1217.8,77.7l0-0.7c0,0-0.2-0.9-0.3-1.2c-0.1-0.3-0.4-0.9-0.8-1.5c-0.8-1.2-2.1-1.9-2.3-2.1c-0.5-0.3-1.8-1.1-3.8-1.4
		c-0.4-0.1-1.1-0.2-2.3-0.2H204c0,0-1.9,0-3.7,0.6c-0.5,0.2-1.7,0.5-3,1.5c-0.1,0.1-1,0.8-1.8,1.8c-0.3,0.5-0.6,1-0.9,1.8
		c-0.1,0.6-0.1,0.7-0.2,1.4v929.7c0,0.2,0,0.6,0.1,1.2c0.2,0.6,0.2,0.8,0.6,1.6c0,0,0.4,0.6,0.8,1.1c0.2,0.2,0.8,0.9,1.8,1.6
		c0.7,0.4,1.7,1.1,3.6,1.5c0.9,0.2,1.7,0.2,2.6,0.3l1004.2,0c1.5,0,1.8-0.1,3.3-0.5c0.3-0.1,1.6-0.4,3-1.3c0.7-0.4,1.6-1.1,2.3-2.2
		c0.3-0.4,0.7-1.2,0.9-2.1c0-0.2,0.1-0.6,0.1-1.1l0.6-574.5"/>
	<path id="path8-7" inkscape:connector-curvature="0" class="st1" d="M1217.8,431.4V77.9"/>
	<path id="path34-6_1_" inkscape:connector-curvature="0" class="st0" d="M1218.4,432.8"/>
	<path id="rect941" class="st2" d="M1097.6,910.2h85.2c2.1,0,3.8,2.2,3.8,5v51.6c0,2.8-1.7,5-3.8,5h-85.2c-2.1,0-3.8-2.2-3.8-5
		v-51.6C1093.8,912.5,1095.5,910.2,1097.6,910.2z"/>
	<path id="rect941-3" class="st2" d="M230.1,113.7h85.2c2.1,0,3.8,2.2,3.8,5v51.6c0,2.8-1.7,5-3.8,5h-85.2c-2.1,0-3.8-2.2-3.8-5
		v-51.6C226.2,115.9,227.9,113.7,230.1,113.7z"/>
	<path id="rect941-6" class="st2" d="M1098,113.3h85.2c2.1,0,3.8,2.2,3.8,5v51.6c0,2.8-1.7,5-3.8,5H1098c-2.1,0-3.8-2.2-3.8-5v-51.6
		C1094.2,115.6,1095.9,113.3,1098,113.3z"/>
	<path id="rect941-7" class="st2" d="M230.1,910.6h85.2c2.1,0,3.8,2.2,3.8,5v51.6c0,2.8-1.7,5-3.8,5h-85.2c-2.1,0-3.8-2.2-3.8-5
		v-51.6C226.2,912.8,227.9,910.6,230.1,910.6z"/>
</g>
</svg>
