<?xml version="1.0" encoding="utf-8"?>
<!-- Generator: Adobe Illustrator 25.2.1, SVG Export Plug-In . SVG Version: 6.00 Build 0)  -->
<svg version="1.1"
	 id="svg76" xmlns:cc="http://creativecommons.org/ns#" xmlns:dc="http://purl.org/dc/elements/1.1/" xmlns:inkscape="http://www.inkscape.org/namespaces/inkscape" xmlns:rdf="http://www.w3.org/1999/02/22-rdf-syntax-ns#" xmlns:sodipodi="http://sodipodi.sourceforge.net/DTD/sodipodi-0.dtd" xmlns:svg="http://www.w3.org/2000/svg"
	 xmlns="http://www.w3.org/2000/svg" xmlns:xlink="http://www.w3.org/1999/xlink" x="0px" y="0px" viewBox="0 0 3401.6 2834.6"
	 style="enable-background:new 0 0 3401.6 2834.6;" xml:space="preserve">
<style type="text/css">
	.st0{fill:none;stroke:#000000;stroke-width:1.25;stroke-linecap:round;stroke-linejoin:round;stroke-miterlimit:11.3386;}
</style>
<sodipodi:namedview  bordercolor="#666666" borderopacity="1" gridtolerance="10" guidetolerance="10" id="namedview78" inkscape:bbox-nodes="true" inkscape:bbox-paths="true" inkscape:current-layer="svg76" inkscape:cx="2765.7911" inkscape:cy="2337.3584" inkscape:measure-end="1950.65,3144.59" inkscape:measure-start="1954.64,2374.43" inkscape:pageopacity="0" inkscape:pageshadow="2" inkscape:snap-bbox="true" inkscape:snap-bbox-edge-midpoints="true" inkscape:snap-bbox-midpoints="true" inkscape:window-height="903" inkscape:window-maximized="1" inkscape:window-width="1680" inkscape:window-x="0" inkscape:window-y="28" inkscape:zoom="0.25042989" objecttolerance="10" pagecolor="#ffffff" showgrid="false">
	</sodipodi:namedview>
<g>
	<g id="g72-6-3" transform="matrix(0,1,1,0,300.76441,61.04489)">
		<path id="path66-0-0" inkscape:connector-curvature="0" class="st0" d="M988.7,1332l0.7,0c0,0,1-0.3,1.1-0.3
			c0.4-0.2,1.3-0.5,2.2-1.5c0.1-0.1,0.7-0.8,1.3-1.7c0.4-0.7,0.9-1.8,1.2-3.1c0.2-1,0.3-1.9,0.3-3V318.3c0-0.2,0-1.9-0.5-3.7
			c0-0.1-0.4-1.2-0.9-2c-0.3-0.6-0.8-1.4-1.7-2.2c-1.1-1-1.5-1-2.5-1.4c-0.6-0.1-0.8-0.1-1.4-0.2H82.8c0,0-1,0-1.9,0.3
			c0,0-0.8,0.3-1.2,0.6c-0.6,0.4-1,0.7-1.7,1.7c-0.5,0.7-1.2,1.7-1.6,3c-0.5,1.5-0.5,2.5-0.6,3.9l0,1004.2c0,0.9,0,1.9,0.6,3.7
			c0.1,0.5,0.6,1.8,1.5,3.1c0,0,0.9,1.2,2.1,2c1.3,0.7,1.9,0.7,2.8,0.8h227.1"/>
		<path id="path68-6-7" inkscape:connector-curvature="0" class="st0" d="M791.3,1332h197.5"/>
		<path id="path70-2-8" inkscape:connector-curvature="0" class="st0" d="M308.5,1331.9H791"/>
	</g>
	<path id="path74-6-6" inkscape:connector-curvature="0" class="st0" d="M1575.2,730.4c0,22.9-18.7,41.5-41.7,41.5h-109.3
		c-23,0-41.7-18.6-41.7-41.5V562c0-22.9,18.7-41.5,41.7-41.5h109.3c23,0,41.7,18.6,41.7,41.5V730.4z"/>
</g>
</svg>
