<?xml version="1.0" encoding="utf-8"?>
<!-- Generator: Adobe Illustrator 25.2.1, SVG Export Plug-In . SVG Version: 6.00 Build 0)  -->
<svg version="1.1" id="Layer_1" xmlns="http://www.w3.org/2000/svg" xmlns:xlink="http://www.w3.org/1999/xlink" x="0px" y="0px"
	 viewBox="0 0 4280.3 1133.9" style="enable-background:new 0 0 4280.3 1133.9;" xml:space="preserve">
<style type="text/css">
	.st0{fill:none;stroke:#010101;stroke-width:0.441;stroke-linecap:round;stroke-linejoin:round;}
	.st1{fill:none;stroke:#010101;stroke-width:0.4555;stroke-miterlimit:11.3386;}
</style>
<g>
	<path id="path6-6-6" class="st0" d="M1650,1055.5l0.1,0.7c0,0,0.2,0.9,0.3,1.2c0.1,0.3,0.4,0.9,0.8,1.5c0.8,1.2,2.1,1.9,2.3,2.1
		c0.5,0.3,1.8,1.1,3.8,1.4c0.5,0.1,1.1,0.2,2.3,0.2h1009.8c0,0,1.9,0,3.7-0.6c0.5-0.2,1.7-0.5,3.1-1.5c0.1-0.1,1.1-0.8,1.8-1.8
		c0.3-0.5,0.6-1,0.9-1.8c0.1-0.6,0.1-0.7,0.2-1.4V125.9c0-0.2,0-0.6-0.1-1.2c-0.2-0.6-0.2-0.8-0.6-1.6c0,0-0.4-0.6-0.8-1.1
		c-0.2-0.2-0.8-0.9-1.8-1.6c-0.7-0.4-1.7-1.1-3.7-1.5c-0.9-0.2-1.7-0.2-2.6-0.3l-1009.8,0c-1.5,0-1.9,0.1-3.3,0.5
		c-0.3,0.1-1.6,0.4-3,1.3c-0.7,0.4-1.6,1.1-2.3,2.2c-0.3,0.4-0.7,1.2-0.9,2.1c0,0.2-0.1,0.6-0.1,1.1l0,647.8"/>
	<path id="path8-7-1" class="st0" d="M1650,773.7v281.9"/>
	<path id="path10-3-7" class="st0" d="M2215.4,480.6c4.1,1.3,14,4,26.4,11.2c2,1.2,10.2,5.9,18.9,13.7c10,8.9,16,17.3,21.4,25.7
		c0.4,0.7,0.8,1.4,1,1.8c0,0,0.6,1.1,1.1,2c1.2,2.2,4.1,7.4,7.1,15.3c6.2,16.4,6.9,29.1,7.1,34.3c0.2,4.9,0.7,16.5-3.1,32.4
		c-0.7,3.1-3.9,16-12,30c-3.4,5.8-10,15.9-21.1,26.3c-11.5,10.7-22.9,16.5-25.7,17.9c-11.1,5.7-21.9,8.8-29.6,10.3
		c-2.4,0.5-4.8,0.9-8,1.3c-0.5,0.1-6,0.7-10.8,0.9c-2.9,0.2-4.2,0.2-8.4-0.1c0,0-3.7-0.2-5.7-0.4c-2.6-0.2-8.8-0.8-17.4-2.9
		c-2.3-0.6-8.4-2.2-15-4.9c-3.5-1.4-9.6-4.1-16.9-8.5c-1.2-0.7-6-3.6-11.4-8c-5-4-9.6-8.5-11.8-10.9c-0.5-0.5-5.1-5.3-9.4-11.2
		c-9.2-12.7-13.2-23.1-14.9-27.5c-1.1-3-3.1-9-4.5-15.1c0,0-1.5-7.6-1.7-10.1c-0.1-1-0.8-11.3-0.5-20.5c0.1-4.5,0.4-7.8,1.3-12.9
		c0.1-0.8,1.4-7.8,3.7-15.3c0.2-0.8,0.6-1.8,0.8-2.6c0.2-0.5,0.4-1.1,0.6-1.5c0.2-0.5,0.4-1.1,0.6-1.5c0,0,1.1-2.9,1.2-3.1
		c0.2-0.4,0.4-0.9,0.5-1.2c0.2-0.4,0.3-0.9,0.5-1.3c0.4-1,1.1-2.4,1.6-3.4c0.4-0.7,0.9-1.7,1.3-2.5c0,0,2.2-4.2,4.2-7.4
		c2.7-4.4,4.7-7,7.4-10.6"/>
	<path id="path18-9-2" class="st0" d="M2091.8,523.2c0.2-0.3,2.8-3.7,4.8-6.1c0.9-1.1,3.1-3.6,6.4-7c0.4-0.4,4.3-4.4,9.1-8.3
		c1.3-1,4.4-3.5,9-6.5l3.1-2c0.3-0.2,0.7-0.5,1-0.6c0.1-0.1,0.4-0.2,0.5-0.2c0,0,2.7-1.6,3.4-1.9c0.9-0.5,2.2-1.2,3.1-1.6
		c0,0,2-1,4.1-2c1.4-0.6,6.9-3.2,14.1-5.4c6.7-2.1,16.5-4.2,29-5"/>
	<path id="path20-1-3" class="st0" d="M2179.4,476.4c6.7-0.2,12.5-0.1,19.2,0.7c7.2,0.9,12.3,2.2,20.2,4.4"/>
	<path id="rect306-9" class="st1" d="M2567.4,970.6h62.1c1.5,0,2.7,1.2,2.7,2.8v28c0,1.5-1.2,2.8-2.7,2.8h-62.1
		c-1.5,0-2.7-1.2-2.7-2.8v-28C2564.7,971.8,2565.9,970.6,2567.4,970.6z"/>
	<path id="rect306-6-7" class="st1" d="M2567.5,210.6h62.1c1.5,0,2.7-1.2,2.7-2.8v-28c0-1.5-1.2-2.8-2.7-2.8h-62.1
		c-1.5,0-2.7,1.2-2.7,2.8v28C2564.7,209.4,2565.9,210.6,2567.5,210.6z"/>
	<path id="rect306-6-3-36" class="st1" d="M1759.1,210.6H1697c-1.5,0-2.7-1.2-2.7-2.8v-28c0-1.5,1.2-2.8,2.7-2.8h62.1
		c1.5,0,2.7,1.2,2.7,2.8v28C1761.8,209.4,1760.6,210.6,1759.1,210.6z"/>
	<path id="rect306-6-3-3-1" class="st1" d="M1759.1,970H1697c-1.5,0-2.7,1.2-2.7,2.8v28c0,1.5,1.2,2.8,2.7,2.8h62.1
		c1.5,0,2.7-1.2,2.7-2.8v-28C1761.8,971.2,1760.6,970,1759.1,970z"/>
	<g id="g22-5-8" transform="translate(1086.8509,34.741888)">
		<path id="path12-5-9" class="st0" d="M1071.6,446.8c-0.1,0.3-0.1,0.6-0.2,0.9c-0.1,0.3-0.3,0.7-0.4,1.1c0,0-2,5.5-2.5,6.9
			l-7.3,19.9l-14.6,39.8l-26.2,71.6c0,0-3.1,8.6-3.7,10.1l-1.8,4.9c-0.3,0.7-0.5,1.7-0.8,2.5l0,0.1c0.2,0,1,0.2,1.6,0.2
			c0,0,2.3,0,4.7,0c0,0,16.4,0,17.3,0c0,0,26-70.8,28.9-78.7c0,0,1-2.7,1.3-3.4c0.3-0.7,0.3-0.7,0.6-1.4l0.1-0.1
			c1.9-0.3,2.1-0.2,3.9-0.2c7.1-0.1,8.5,0,14.2,0.1c0,0.2-0.1,0.6-0.2,0.8c-0.1,0.3-0.2,0.7-0.3,1c-0.1,0.4-0.3,0.9-0.4,1.3
			c0,0-1.3,3.6-1.4,4c0,0-8,21.9-8.4,23.1l-15.4,42c-0.1,0.3-2.3,6.3-2.5,6.9c-0.2,0.6-0.5,1.5-0.7,2.1c-0.2,0.7-0.5,1.6-0.7,2.3
			l0,0.1l0.1,0.1l0.1,0.1l0.2,0.1c0.4,0,1,0.1,1.5,0.2c0.5,0,1.2,0,1.7,0c0.5,0,1.3,0,1.8,0c0,0,4.6,0,5.4,0c0.4,0,6.2,0,8.8-0.1
			l2.4-0.1c0.3,0,0.8-0.1,1.1-0.1l0.1-0.1l0.1-0.1c0.6-1.5,2-5.1,3.9-10.2l14-38.3c0,0,2.7-7.4,2.8-7.8c0,0,4.6-12.5,5.7-15.6
			c0.3-0.8,0.7-1.8,0.9-2.6c0.3-0.7,0.6-1.7,0.9-2.5c0,0,0.7-2,1-2.9c0.3-1.2,0.7-3,0.7-5c0-0.7-0.1-2.8-0.8-4.8
			c-0.3-0.9-1.3-3.3-3.8-5.4c0,0-2-1.8-4.6-2.5c-0.7-0.2-1.8-0.4-3.7-0.5c-2-0.1-8.9-0.2-13.6-0.2c-0.2,0-2.9,0-4.8,0
			c0,0-3-0.1-3.4-0.1c-0.2,0-0.5-0.1-0.8-0.1l-0.1-0.1l-0.1-0.1l0-0.1c0.1-0.3,0.2-0.8,0.3-1.1c0.1-0.3,0.3-0.8,0.4-1.1
			c0.1-0.4,0.3-1,0.5-1.4l1-2.8c0,0,5.7-15.7,6.8-18.5l14.1-38.4l0.2,0"/>
		<path id="path14-6-2" class="st0" d="M1098.5,668.1c1-2.2,1-2.2,1.9-4.5l1.7-4.8c0,0,3.7-10.1,4.4-11.9c0,0,8.3-22.6,8.7-23.8
			c2-5.4,5.5-15.2,6.6-17.8l0.2-0.2l0.1-0.1l0.2-0.1c1.7-0.2,2.1-0.2,3.9-0.2c0,0,3.3,0,3.4,0c0,0,26.3-0.2,27.7-0.2
			c2.4-1.1,5-2.3,7.5-4.9c1.9-2,2.3-3.2,3.7-6.9c1.2-3.3,20.6-56.1,24.1-66.1c0.4-1,0.6-1.7,1-3.5c0,0,0.3-1.3,0.4-2.6
			c0.1-1,0.2-3.4-1.1-6.4c-0.3-0.8-1.2-2.9-3.4-4.8c-1.9-1.7-4.4-2.6-5.7-2.9c-1.4-0.3-3.7-0.3-5.8-0.3c0,0-15.3-0.1-21.9-0.1
			c-6.5,0-15.2,0-21.7,0c0,0-41.7,113.6-43.9,119.6c0,0-7.8,21.1-9.7,26.4c-1.9,5.2-2.4,6.6-4.6,13.2l0.1,0.1
			c1.5,0.6,1.7,0.6,3.1,0.9c1.5,0.3,4.6,0.9,7.7,1.3c1.7,0.2,4.2,0.5,8.4,0.8c0,0,1.6,0.1,1.9,0.1c0.2,0,0.6,0,0.8,0l0.2-0.1
			L1098.5,668.1z"/>
		<path id="path16-2-0" class="st0" d="M1127.5,589.7c0.4-1.2,0.9-2.8,1.4-4c0.6-1.8,1.5-4.1,2.1-5.9l11.7-31.8c0,0,5-13.7,5.3-14.4
			l1.6-4.4c0,0,1.3-3.5,1.6-4.4c0,0,0.7-2,0.8-2.2c0,0,0.3-0.9,0.4-1.1c0.1-0.1,0.2-0.3,0.3-0.4l0.3-0.3l0.2-0.1
			c2.6,0,8.8,0,17.6,0.1c-0.3,1.1-0.3,1.1-0.6,2.1c-0.3,0.9-0.7,2-1,2.8c0,0-1.8,4.9-2.1,5.7c0,0-10.5,29.2-21.4,58.3l-0.3,0.1
			c0,0-1.1,0.1-2.2,0.1c-0.5,0-5.6,0.2-10.1,0.1C1130.4,590,1129.8,590,1127.5,589.7L1127.5,589.7z"/>
	</g>
	<path id="path26-7-5" class="st0" d="M2157.7,480.8l-49.3,134.5c-3.7,10.1-7.5,20.1-9.1,25.3l0,0.1c1.3,0.2,1.6,0.2,2.9,0.2l2.4,0
		l19,0c0,0,19.3-52.5,20.3-55.3l9.5-25.8c0,0,1-2.7,1.1-2.9c0.3-0.8,0.4-1.1,0.9-2.1c0.8-0.2,1.6-0.3,3.2-0.3c0,0,3.6-0.1,4.2-0.1
		c5.1,0,5.7,0,11.3,0.2c-0.1,0.3-0.1,0.6-0.2,0.9c-0.1,0.3-0.2,0.7-0.3,1c-0.3,0.9-0.7,2-1,2.9c0,0-4.8,13.2-7.4,20.2l-10.3,28.3
		c0,0-4.7,12.9-6.7,18.4c-0.4,1.1-3.8,10.3-3.9,10.8c-0.1,0.3-0.6,1.7-1.1,3.4l0,0.1l0.1,0.1l0.1,0.1l0.2,0.1c0.5,0,1.1,0.1,1.5,0.2
		c0.5,0,1.3,0,1.8,0c0.6,0,1.5,0,2.1,0c0,0,3.2,0,4.2,0c0,0,7.3,0,9.8,0c0.6,0,1.5,0,2.2-0.1c0.6,0,1.3-0.1,1.9-0.2l0.1-0.1l0.1-0.1
		c0.2-0.5,0.5-1.2,0.8-1.8c0.2-0.6,0.5-1.4,0.7-2c0.5-1.3,1.1-3.1,1.6-4.4c0.3-0.9,6.5-17.6,6.5-17.6s5.1-13.9,10.2-27.9
		c0,0,3.8-10.5,4-11l4-11c0,0,1.5-4,2.1-6.2c0,0,0.8-2.5,0.9-5.1c0.1-2.5-0.5-5.7-2.1-8.1c-0.6-1-1.7-2.2-3.1-3.3c0,0-1.3-1-2.6-1.6
		c-0.8-0.4-1.6-0.7-3.4-1c-1.9-0.3-7.3-0.3-9.7-0.3c0,0-7.4-0.1-9.8-0.1c0,0-3.6,0-3.8,0c-1,0-1,0-2-0.2l-0.1-0.1l-0.1-0.1l0-0.1
		c0.2-0.6,0.4-1.4,0.6-1.9c0.2-0.5,0.4-1.2,0.6-1.8c0.2-0.5,0.5-1.2,0.6-1.8c0,0,1.2-3.2,1.3-3.6c0,0,10.6-28.9,19.3-52.6"/>
	<path id="path28-0-9" class="st0" d="M2185.1,704.5c1-2.3,10.4-28.2,17.3-47.1c0.5-1.3,4.7-12.9,4.7-12.9s0.4-0.9,0.4-1
		c0,0,0.4-0.9,0.4-1l0.2-0.5c0-0.1,0.1-0.2,0.1-0.3c0-0.1,0.1-0.1,0.2-0.2l0.1-0.1l0.2-0.1c0.5-0.1,1.1-0.2,2.2-0.2
		c1.1,0,2.5-0.1,3.6-0.1l11.2-0.1l18.7-0.1c2.1-1,5-2.1,7.9-5.3c1.9-2.1,2.5-4.1,3.6-7.1c0,0,9.8-26.9,10.9-29.9
		c0,0,9.9-27.1,11-30.1c0.3-0.9,2.4-6.6,3.1-8.9c0,0,0.7-2.2,0.8-4.5c0.1-1.1,0-3-0.6-5.2c-0.4-1.3-1.3-3.7-3.5-5.8
		c-0.7-0.6-1.7-1.4-2.9-2.1c-0.6-0.3-2.2-1.1-4.1-1.4c-2.5-0.3-24.8-0.3-49.5-0.3c-9,24-52.9,144.3-58.8,160.3"/>
	<path id="path30-9-2" class="st0" d="M2215.2,623.1c0-0.2,0.6-2,1.4-4.1c0.7-2,2.4-6.6,3.7-10.1c1.3-3.5,3.2-8.7,4.2-11.4
		c1-2.7,2.7-7.2,3.7-10c2.8-7.7,9.8-26.7,10.7-29.3c0.3-0.8,0.7-1.3,1-1.3c5-0.1,16.8,0,16.9,0.1c0.1,0.1-0.9,3.2-3.5,10.2
		c-1.9,5-4.6,12.4-6.1,16.7c-0.8,2.1-2.2,6.1-3.2,8.8s-2.7,7.2-3.7,10c-1,2.7-2.5,6.7-3.2,8.8c-2.9,7.9-4.2,11.3-4.4,11.7
		C2232.4,623.6,2215.2,623.6,2215.2,623.1L2215.2,623.1z"/>
</g>
</svg>
