<?xml version="1.0" encoding="UTF-8" standalone="no"?>
<!-- exported from Silhouette Studio Business Edition V4.1.454ssbe -->

<svg
   xmlns:dc="http://purl.org/dc/elements/1.1/"
   xmlns:cc="http://creativecommons.org/ns#"
   xmlns:rdf="http://www.w3.org/1999/02/22-rdf-syntax-ns#"
   xmlns:svg="http://www.w3.org/2000/svg"
   xmlns="http://www.w3.org/2000/svg"
   xmlns:sodipodi="http://sodipodi.sourceforge.net/DTD/sodipodi-0.dtd"
   xmlns:inkscape="http://www.inkscape.org/namespaces/inkscape"
   version="1.1"
   width="1200mm"
   height="1000mm"
   viewBox="0 0 1200 1000"
   id="svg76"
   sodipodi:docname="HP6305_bottom.svg"
   inkscape:version="0.92.3 (2405546, 2018-03-11)">
  <metadata
     id="metadata80">
    <rdf:RDF>
      <cc:Work
         rdf:about="">
        <dc:format>image/svg+xml</dc:format>
        <dc:type
           rdf:resource="http://purl.org/dc/dcmitype/StillImage" />
        <dc:title />
      </cc:Work>
    </rdf:RDF>
  </metadata>
  <sodipodi:namedview
     pagecolor="#ffffff"
     bordercolor="#666666"
     borderopacity="1"
     objecttolerance="10"
     gridtolerance="10"
     guidetolerance="10"
     inkscape:pageopacity="0"
     inkscape:pageshadow="2"
     inkscape:window-width="1366"
     inkscape:window-height="684"
     id="namedview78"
     showgrid="false"
     inkscape:zoom="0.17708067"
     inkscape:cx="2205.8098"
     inkscape:cy="3123.4832"
     inkscape:window-x="0"
     inkscape:window-y="28"
     inkscape:window-maximized="1"
     inkscape:current-layer="svg76" />
  <defs
     id="defs2" />
  <path
     d="m 7.0973004,23.263359 c -2.1265,0 -3.8538996,1.482 -3.8538996,3.307 V 382.95566 c 0,1.8251 1.7273996,3.3077 3.8538996,3.3077 H 97.389543 c 2.12648,0 3.853827,-1.4826 3.853827,-3.3077 V 26.570359 c 0,-1.825 -1.727347,-3.307 -3.853827,-3.307 z"
     id="path4"
     inkscape:connector-curvature="0"
     style="fill:none;fill-opacity:1;stroke:#000000;stroke-width:0.44097209;stroke-linecap:round;stroke-linejoin:round;stroke-opacity:1" />
  <path
     d="m 107.78574,23.617444 c -2.1265,0 -3.8539,1.482 -3.8539,3.307 V 383.30974 c 0,1.8251 1.7274,3.30772 3.8539,3.30772 h 90.29225 c 2.12648,0 3.85383,-1.48262 3.85383,-3.30772 V 26.924444 c 0,-1.825 -1.72735,-3.307 -3.85383,-3.307 z"
     id="path4-3"
     inkscape:connector-curvature="0"
     style="fill:none;fill-opacity:1;stroke:#000000;stroke-width:0.44097209;stroke-linecap:round;stroke-linejoin:round;stroke-opacity:1" />
  <path
     d="m 208.22491,24.347444 c -2.1265,0 -3.8539,1.482 -3.8539,3.307 V 384.03972 c 0,1.8251 1.7274,3.30772 3.8539,3.30772 h 90.29225 c 2.12648,0 3.85383,-1.48262 3.85383,-3.30772 V 27.654444 c 0,-1.825 -1.72735,-3.307 -3.85383,-3.307 z"
     id="path4-6"
     inkscape:connector-curvature="0"
     style="fill:none;fill-opacity:1;stroke:#000000;stroke-width:0.44097209;stroke-linecap:round;stroke-linejoin:round;stroke-opacity:1" />
  <path
     d="m 308.91336,24.701534 c -2.1265,0 -3.8539,1.482 -3.8539,3.307 V 384.39382 c 0,1.82509 1.7274,3.30771 3.8539,3.30771 h 90.29225 c 2.12648,0 3.85383,-1.48262 3.85383,-3.30771 V 28.008534 c 0,-1.825 -1.72735,-3.307 -3.85383,-3.307 z"
     id="path4-3-7"
     inkscape:connector-curvature="0"
     style="fill:none;fill-opacity:1;stroke:#000000;stroke-width:0.44097209;stroke-linecap:round;stroke-linejoin:round;stroke-opacity:1" />
  <path
     d="m 410.5671,23.956702 c -2.1265,0 -3.8539,1.482 -3.8539,3.307 V 383.649 c 0,1.8251 1.7274,3.30772 3.8539,3.30772 h 90.29225 c 2.12648,0 3.85383,-1.48262 3.85383,-3.30772 V 27.263702 c 0,-1.825 -1.72735,-3.307 -3.85383,-3.307 z"
     id="path4-5"
     inkscape:connector-curvature="0"
     style="fill:none;fill-opacity:1;stroke:#000000;stroke-width:0.44097209;stroke-linecap:round;stroke-linejoin:round;stroke-opacity:1" />
  <path
     d="m 511.25555,24.310782 c -2.1265,0 -3.8539,1.482 -3.8539,3.307 V 384.0031 c 0,1.82509 1.7274,3.30771 3.8539,3.30771 h 90.29225 c 2.12648,0 3.85383,-1.48262 3.85383,-3.30771 V 27.617782 c 0,-1.825 -1.72735,-3.307 -3.85383,-3.307 z"
     id="path4-3-3"
     inkscape:connector-curvature="0"
     style="fill:none;fill-opacity:1;stroke:#000000;stroke-width:0.44097209;stroke-linecap:round;stroke-linejoin:round;stroke-opacity:1" />
  <path
     d="m 7.4345677,390.14133 c -2.1265,0 -3.8539,1.482 -3.8539,3.307 v 356.38529 c 0,1.8251 1.7274,3.30772 3.8539,3.30772 H 97.726807 c 2.126476,0 3.853823,-1.48262 3.853823,-3.30772 V 393.44833 c 0,-1.825 -1.727347,-3.307 -3.853823,-3.307 z"
     id="path4-7"
     inkscape:connector-curvature="0"
     style="fill:none;fill-opacity:1;stroke:#000000;stroke-width:0.44097209;stroke-linecap:round;stroke-linejoin:round;stroke-opacity:1" />
  <path
     d="m 108.123,390.49541 c -2.12651,0 -3.8539,1.482 -3.8539,3.307 v 356.38531 c 0,1.82509 1.72739,3.30771 3.8539,3.30771 h 90.29225 c 2.12648,0 3.85383,-1.48262 3.85383,-3.30771 V 393.80241 c 0,-1.825 -1.72735,-3.307 -3.85383,-3.307 z"
     id="path4-3-0"
     inkscape:connector-curvature="0"
     style="fill:none;fill-opacity:1;stroke:#000000;stroke-width:0.44097209;stroke-linecap:round;stroke-linejoin:round;stroke-opacity:1" />
  <path
     d="m 208.56216,391.22541 c -2.12649,0 -3.85389,1.482 -3.85389,3.307 v 356.38527 c 0,1.82512 1.7274,3.30774 3.85389,3.30774 h 90.29228 c 2.1264,0 3.8538,-1.48262 3.8538,-3.30774 V 394.53241 c 0,-1.825 -1.7274,-3.307 -3.8538,-3.307 z"
     id="path4-6-9"
     inkscape:connector-curvature="0"
     style="fill:none;fill-opacity:1;stroke:#000000;stroke-width:0.44097209;stroke-linecap:round;stroke-linejoin:round;stroke-opacity:1" />
  <path
     d="m 309.25064,391.5795 c -2.1265,0 -3.8539,1.482 -3.8539,3.307 v 356.38529 c 0,1.8251 1.7274,3.30772 3.8539,3.30772 h 90.2922 c 2.1265,0 3.8539,-1.48262 3.8539,-3.30772 V 394.8865 c 0,-1.825 -1.7274,-3.307 -3.8539,-3.307 z"
     id="path4-3-7-3"
     inkscape:connector-curvature="0"
     style="fill:none;fill-opacity:1;stroke:#000000;stroke-width:0.44097209;stroke-linecap:round;stroke-linejoin:round;stroke-opacity:1" />
  <path
     d="m 410.90434,390.83467 c -2.1265,0 -3.8539,1.482 -3.8539,3.307 v 356.3853 c 0,1.82509 1.7274,3.30771 3.8539,3.30771 h 90.2923 c 2.1264,0 3.8538,-1.48262 3.8538,-3.30771 v -356.3853 c 0,-1.825 -1.7274,-3.307 -3.8538,-3.307 z"
     id="path4-5-6"
     inkscape:connector-curvature="0"
     style="fill:none;fill-opacity:1;stroke:#000000;stroke-width:0.44097209;stroke-linecap:round;stroke-linejoin:round;stroke-opacity:1" />
  <path
     d="m 511.59284,391.18875 c -2.1265,0 -3.8539,1.482 -3.8539,3.307 v 356.38531 c 0,1.82509 1.7274,3.30771 3.8539,3.30771 h 90.2922 c 2.1265,0 3.8539,-1.48262 3.8539,-3.30771 V 394.49575 c 0,-1.825 -1.7274,-3.307 -3.8539,-3.307 z"
     id="path4-3-3-0"
     inkscape:connector-curvature="0"
     style="fill:none;fill-opacity:1;stroke:#000000;stroke-width:0.44097209;stroke-linecap:round;stroke-linejoin:round;stroke-opacity:1" />
</svg>
