<?xml version="1.0" encoding="UTF-8" standalone="no"?>
<!-- exported from Silhouette Studio Business Edition V4.1.454ssbe -->

<svg
   xmlns:dc="http://purl.org/dc/elements/1.1/"
   xmlns:cc="http://creativecommons.org/ns#"
   xmlns:rdf="http://www.w3.org/1999/02/22-rdf-syntax-ns#"
   xmlns:svg="http://www.w3.org/2000/svg"
   xmlns="http://www.w3.org/2000/svg"
   xmlns:sodipodi="http://sodipodi.sourceforge.net/DTD/sodipodi-0.dtd"
   xmlns:inkscape="http://www.inkscape.org/namespaces/inkscape"
   version="1.1"
   width="1200mm"
   height="1000mm"
   viewBox="0 0 1200 1000"
   id="svg76"
   sodipodi:docname="HP6305_top_panel_alone.svg"
   inkscape:version="0.92.3 (2405546, 2018-03-11)">
  <metadata
     id="metadata80">
    <rdf:RDF>
      <cc:Work
         rdf:about="">
        <dc:format>image/svg+xml</dc:format>
        <dc:type
           rdf:resource="http://purl.org/dc/dcmitype/StillImage" />
        <dc:title />
      </cc:Work>
    </rdf:RDF>
  </metadata>
  <sodipodi:namedview
     pagecolor="#ffffff"
     bordercolor="#666666"
     borderopacity="1"
     objecttolerance="10"
     gridtolerance="10"
     guidetolerance="10"
     inkscape:pageopacity="0"
     inkscape:pageshadow="2"
     inkscape:window-width="1680"
     inkscape:window-height="926"
     id="namedview78"
     showgrid="false"
     inkscape:zoom="0.17708067"
     inkscape:cx="2147.1853"
     inkscape:cy="2372.4213"
     inkscape:window-x="0"
     inkscape:window-y="28"
     inkscape:window-maximized="1"
     inkscape:current-layer="svg76" />
  <defs
     id="defs2" />
  <g
     inkscape:tile-y0="34.069724"
     inkscape:tile-x0="32.717386"
     transform="rotate(90,321.23098,276.96285)"
     id="use4683">
    <path
       d="m 59.832393,294.80727 c 0,2.1264 1.475,3.8538 3.289,3.8538 H 417.54273 c 1.8152,0 3.2895,-1.7274 3.2895,-3.8538 v -90.2923 c 0,-2.1265 -1.4743,-3.8538 -3.2895,-3.8538 H 63.121393 c -1.814,0 -3.289,1.7273 -3.289,3.8538 z"
       id="path4739"
       inkscape:connector-curvature="0"
       style="fill:none;fill-opacity:1;stroke:#000000;stroke-width:0.44097209;stroke-linecap:round;stroke-linejoin:round;stroke-opacity:1" />
    <path
       d="m 350.09023,287.89155 c 0,1.3842 1.4662,2.5087 3.2711,2.5087 h 30.4578 c 1.8049,0 3.2711,-1.1245 3.2711,-2.5087 v -74.9827 c 0,-1.3842 -1.4662,-2.5086 -3.2711,-2.5086 h -30.4578 c -1.8049,0 -3.2711,1.1244 -3.2711,2.5086 z"
       id="path4741"
       inkscape:connector-curvature="0"
       style="fill:none;fill-opacity:1;stroke:#000000;stroke-width:0.44097209;stroke-linecap:round;stroke-linejoin:round;stroke-opacity:1" />
  </g>
  <g
     inkscape:tile-y0="34.069724"
     inkscape:tile-x0="32.717386"
     transform="rotate(90,271.21679,226.94866)"
     id="use4685">
    <path
       d="m 59.832393,294.80727 c 0,2.1264 1.475,3.8538 3.289,3.8538 H 417.54273 c 1.8152,0 3.2895,-1.7274 3.2895,-3.8538 v -90.2923 c 0,-2.1265 -1.4743,-3.8538 -3.2895,-3.8538 H 63.121393 c -1.814,0 -3.289,1.7273 -3.289,3.8538 z"
       id="path4745"
       inkscape:connector-curvature="0"
       style="fill:none;fill-opacity:1;stroke:#000000;stroke-width:0.44097209;stroke-linecap:round;stroke-linejoin:round;stroke-opacity:1" />
    <path
       d="m 350.09023,287.89155 c 0,1.3842 1.4662,2.5087 3.2711,2.5087 h 30.4578 c 1.8049,0 3.2711,-1.1245 3.2711,-2.5087 v -74.9827 c 0,-1.3842 -1.4662,-2.5086 -3.2711,-2.5086 h -30.4578 c -1.8049,0 -3.2711,1.1244 -3.2711,2.5086 z"
       id="path4747"
       inkscape:connector-curvature="0"
       style="fill:none;fill-opacity:1;stroke:#000000;stroke-width:0.44097209;stroke-linecap:round;stroke-linejoin:round;stroke-opacity:1" />
  </g>
  <g
     id="g4821"
     transform="rotate(90,490.11583,445.93719)">
    <g
       id="use4687"
       transform="translate(-1.5895904,538.86317)"
       inkscape:tile-x0="32.717386"
       inkscape:tile-y0="34.069724">
      <path
         style="fill:none;fill-opacity:1;stroke:#000000;stroke-width:0.44097209;stroke-linecap:round;stroke-linejoin:round;stroke-opacity:1"
         inkscape:connector-curvature="0"
         id="path4751"
         d="m 59.832393,294.80727 c 0,2.1264 1.475,3.8538 3.289,3.8538 H 417.54273 c 1.8152,0 3.2895,-1.7274 3.2895,-3.8538 v -90.2923 c 0,-2.1265 -1.4743,-3.8538 -3.2895,-3.8538 H 63.121393 c -1.814,0 -3.289,1.7273 -3.289,3.8538 z" />
      <path
         style="fill:none;fill-opacity:1;stroke:#000000;stroke-width:0.44097209;stroke-linecap:round;stroke-linejoin:round;stroke-opacity:1"
         inkscape:connector-curvature="0"
         id="path4753"
         d="m 350.09023,287.89155 c 0,1.3842 1.4662,2.5087 3.2711,2.5087 h 30.4578 c 1.8049,0 3.2711,-1.1245 3.2711,-2.5087 v -74.9827 c 0,-1.3842 -1.4662,-2.5086 -3.2711,-2.5086 h -30.4578 c -1.8049,0 -3.2711,1.1244 -3.2711,2.5086 z" />
    </g>
    <g
       id="use4689"
       transform="translate(-1.5895904,638.89154)"
       inkscape:tile-x0="32.717386"
       inkscape:tile-y0="34.069724">
      <path
         style="fill:none;fill-opacity:1;stroke:#000000;stroke-width:0.44097209;stroke-linecap:round;stroke-linejoin:round;stroke-opacity:1"
         inkscape:connector-curvature="0"
         id="path4757"
         d="m 59.832393,294.80727 c 0,2.1264 1.475,3.8538 3.289,3.8538 H 417.54273 c 1.8152,0 3.2895,-1.7274 3.2895,-3.8538 v -90.2923 c 0,-2.1265 -1.4743,-3.8538 -3.2895,-3.8538 H 63.121393 c -1.814,0 -3.289,1.7273 -3.289,3.8538 z" />
      <path
         style="fill:none;fill-opacity:1;stroke:#000000;stroke-width:0.44097209;stroke-linecap:round;stroke-linejoin:round;stroke-opacity:1"
         inkscape:connector-curvature="0"
         id="path4759"
         d="m 350.09023,287.89155 c 0,1.3842 1.4662,2.5087 3.2711,2.5087 h 30.4578 c 1.8049,0 3.2711,-1.1245 3.2711,-2.5087 v -74.9827 c 0,-1.3842 -1.4662,-2.5086 -3.2711,-2.5086 h -30.4578 c -1.8049,0 -3.2711,1.1244 -3.2711,2.5086 z" />
    </g>
  </g>
</svg>
