<?xml version="1.0" encoding="utf-8"?>
<!-- Generator: Adobe Illustrator 27.5.0, SVG Export Plug-In . SVG Version: 6.00 Build 0)  -->
<svg version="1.1"
	 id="svg76" xmlns:cc="http://creativecommons.org/ns#" xmlns:dc="http://purl.org/dc/elements/1.1/" xmlns:svg="http://www.w3.org/2000/svg" xmlns:inkscape="http://www.inkscape.org/namespaces/inkscape" xmlns:sodipodi="http://sodipodi.sourceforge.net/DTD/sodipodi-0.dtd" xmlns:rdf="http://www.w3.org/1999/02/22-rdf-syntax-ns#" inkscape:version="0.92.3 (2405546, 2018-03-11)" sodipodi:docname="HP_800_G1_SFF_bottom.svg"
	 xmlns="http://www.w3.org/2000/svg" xmlns:xlink="http://www.w3.org/1999/xlink" x="0px" y="0px" viewBox="0 0 3401.6 2834.6"
	 style="enable-background:new 0 0 3401.6 2834.6;" xml:space="preserve">
<style type="text/css">
	.st0{fill:none;stroke:#000000;stroke-width:1.25;stroke-linecap:round;stroke-linejoin:round;stroke-miterlimit:11.3386;}
</style>
<sodipodi:namedview  bordercolor="#666666" borderopacity="1" gridtolerance="10" guidetolerance="10" id="namedview78" inkscape:current-layer="svg76" inkscape:cx="1310.7375" inkscape:cy="2083.031" inkscape:pageopacity="0" inkscape:pageshadow="2" inkscape:window-height="903" inkscape:window-maximized="1" inkscape:window-width="1680" inkscape:window-x="0" inkscape:window-y="28" inkscape:zoom="0.17708067" objecttolerance="10" pagecolor="#ffffff" showgrid="false">
	</sodipodi:namedview>
<path id="path4" inkscape:connector-curvature="0" class="st0" d="M20.1,65.9c-6,0-10.9,4.2-10.9,9.4v1010.2c0,5.2,4.9,9.4,10.9,9.4
	h255.9c6,0,10.9-4.2,10.9-9.4V75.3c0-5.2-4.9-9.4-10.9-9.4H20.1z"/>
<path id="path4-3" inkscape:connector-curvature="0" class="st0" d="M305.5,66.9c-6,0-10.9,4.2-10.9,9.4v1010.2
	c0,5.2,4.9,9.4,10.9,9.4h255.9c6,0,10.9-4.2,10.9-9.4V76.3c0-5.2-4.9-9.4-10.9-9.4H305.5z"/>
<path id="path4-6" inkscape:connector-curvature="0" class="st0" d="M590.2,69c-6,0-10.9,4.2-10.9,9.4v1010.2
	c0,5.2,4.9,9.4,10.9,9.4h255.9c6,0,10.9-4.2,10.9-9.4V78.4c0-5.2-4.9-9.4-10.9-9.4H590.2z"/>
<path id="path4-3-7" inkscape:connector-curvature="0" class="st0" d="M875.7,70c-6,0-10.9,4.2-10.9,9.4v1010.2
	c0,5.2,4.9,9.4,10.9,9.4h255.9c6,0,10.9-4.2,10.9-9.4V79.4c0-5.2-4.9-9.4-10.9-9.4H875.7z"/>
<path id="path4-5" inkscape:connector-curvature="0" class="st0" d="M1163.8,67.9c-6,0-10.9,4.2-10.9,9.4v1010.2
	c0,5.2,4.9,9.4,10.9,9.4h255.9c6,0,10.9-4.2,10.9-9.4V77.3c0-5.2-4.9-9.4-10.9-9.4L1163.8,67.9z"/>
<path id="path4-3-3" inkscape:connector-curvature="0" class="st0" d="M1449.2,68.9c-6,0-10.9,4.2-10.9,9.4v1010.2
	c0,5.2,4.9,9.4,10.9,9.4h255.9c6,0,10.9-4.2,10.9-9.4V78.3c0-5.2-4.9-9.4-10.9-9.4L1449.2,68.9z"/>
<path id="path4-6-5" inkscape:connector-curvature="0" class="st0" d="M1733.9,71c-6,0-10.9,4.2-10.9,9.4v1010.2
	c0,5.2,4.9,9.4,10.9,9.4h255.9c6,0,10.9-4.2,10.9-9.4V80.4c0-5.2-4.9-9.4-10.9-9.4H1733.9z"/>
<path id="path4-3-7-6" inkscape:connector-curvature="0" class="st0" d="M2019.4,72c-6,0-10.9,4.2-10.9,9.4v1010.2
	c0,5.2,4.9,9.4,10.9,9.4h255.9c6,0,10.9-4.2,10.9-9.4V81.4c0-5.2-4.9-9.4-10.9-9.4H2019.4z"/>
<path id="path4-2" inkscape:connector-curvature="0" class="st0" d="M2305.1,69.1c-6,0-10.9,4.2-10.9,9.4v1010.2
	c0,5.2,4.9,9.4,10.9,9.4H2561c6,0,10.9-4.2,10.9-9.4V78.5c0-5.2-4.9-9.4-10.9-9.4H2305.1z"/>
<path id="path4-3-9" inkscape:connector-curvature="0" class="st0" d="M2590.5,70.1c-6,0-10.9,4.2-10.9,9.4v1010.2
	c0,5.2,4.9,9.4,10.9,9.4h255.9c6,0,10.9-4.2,10.9-9.4V79.5c0-5.2-4.9-9.4-10.9-9.4H2590.5z"/>
<path id="path4-6-1" inkscape:connector-curvature="0" class="st0" d="M2875.2,72.2c-6,0-10.9,4.2-10.9,9.4v1010.2
	c0,5.2,4.9,9.4,10.9,9.4h255.9c6,0,10.9-4.2,10.9-9.4V81.6c0-5.2-4.9-9.4-10.9-9.4H2875.2z"/>
<path id="path4-3-7-2" inkscape:connector-curvature="0" class="st0" d="M3160.6,73.2c-6,0-10.9,4.2-10.9,9.4v1010.2
	c0,5.2,4.9,9.4,10.9,9.4h255.9c6,0,10.9-4.2,10.9-9.4V82.6c0-5.2-4.9-9.4-10.9-9.4L3160.6,73.2z"/>
<path id="path4-7" inkscape:connector-curvature="0" class="st0" d="M21.1,1105.9c-6,0-10.9,4.2-10.9,9.4v1010.2
	c0,5.2,4.9,9.4,10.9,9.4H277c6,0,10.9-4.2,10.9-9.4V1115.3c0-5.2-4.9-9.4-10.9-9.4H21.1z"/>
<path id="path4-3-0" inkscape:connector-curvature="0" class="st0" d="M306.5,1106.9c-6,0-10.9,4.2-10.9,9.4v1010.2
	c0,5.2,4.9,9.4,10.9,9.4h255.9c6,0,10.9-4.2,10.9-9.4V1116.3c0-5.2-4.9-9.4-10.9-9.4L306.5,1106.9z"/>
<path id="path4-6-9" inkscape:connector-curvature="0" class="st0" d="M591.2,1109c-6,0-10.9,4.2-10.9,9.4v1010.2
	c0,5.2,4.9,9.4,10.9,9.4h255.9c6,0,10.9-4.2,10.9-9.4V1118.4c0-5.2-4.9-9.4-10.9-9.4H591.2z"/>
<path id="path4-3-7-3" inkscape:connector-curvature="0" class="st0" d="M876.6,1110c-6,0-10.9,4.2-10.9,9.4v1010.2
	c0,5.2,4.9,9.4,10.9,9.4h255.9c6,0,10.9-4.2,10.9-9.4V1119.4c0-5.2-4.9-9.4-10.9-9.4H876.6z"/>
<path id="path4-5-6" inkscape:connector-curvature="0" class="st0" d="M1164.8,1107.9c-6,0-10.9,4.2-10.9,9.4v1010.2
	c0,5.2,4.9,9.4,10.9,9.4h255.9c6,0,10.9-4.2,10.9-9.4V1117.3c0-5.2-4.9-9.4-10.9-9.4H1164.8z"/>
<path id="path4-3-3-0" inkscape:connector-curvature="0" class="st0" d="M1450.2,1108.9c-6,0-10.9,4.2-10.9,9.4v1010.2
	c0,5.2,4.9,9.4,10.9,9.4h255.9c6,0,10.9-4.2,10.9-9.4V1118.3c0-5.2-4.9-9.4-10.9-9.4H1450.2z"/>
<path id="path4-6-5-6" inkscape:connector-curvature="0" class="st0" d="M1734.9,1111c-6,0-10.9,4.2-10.9,9.4v1010.2
	c0,5.2,4.9,9.4,10.9,9.4h255.9c6,0,10.9-4.2,10.9-9.4V1120.3c0-5.2-4.9-9.4-10.9-9.4L1734.9,1111z"/>
<path id="path4-3-7-6-2" inkscape:connector-curvature="0" class="st0" d="M2020.3,1112c-6,0-10.9,4.2-10.9,9.4v1010.2
	c0,5.2,4.9,9.4,10.9,9.4h255.9c6,0,10.9-4.2,10.9-9.4V1121.3c0-5.2-4.9-9.4-10.9-9.4H2020.3z"/>
<path id="path4-2-6" inkscape:connector-curvature="0" class="st0" d="M2306,1109.1c-6,0-10.9,4.2-10.9,9.4v1010.2
	c0,5.2,4.9,9.4,10.9,9.4H2562c6,0,10.9-4.2,10.9-9.4V1118.5c0-5.2-4.9-9.4-10.9-9.4H2306z"/>
<path id="path4-3-9-1" inkscape:connector-curvature="0" class="st0" d="M2591.4,1110.1c-6,0-10.9,4.2-10.9,9.4v1010.2
	c0,5.2,4.9,9.4,10.9,9.4h255.9c6,0,10.9-4.2,10.9-9.4V1119.5c0-5.2-4.9-9.4-10.9-9.4L2591.4,1110.1z"/>
<path id="path4-6-1-8" inkscape:connector-curvature="0" class="st0" d="M2876.1,1112.2c-6,0-10.9,4.2-10.9,9.4v1010.2
	c0,5.2,4.9,9.4,10.9,9.4h255.9c6,0,10.9-4.2,10.9-9.4V1121.6c0-5.2-4.9-9.4-10.9-9.4H2876.1z"/>
<path id="path4-3-7-2-7" inkscape:connector-curvature="0" class="st0" d="M3161.6,1113.2c-6,0-10.9,4.2-10.9,9.4v1010.2
	c0,5.2,4.9,9.4,10.9,9.4h255.9c6,0,10.9-4.2,10.9-9.4V1122.6c0-5.2-4.9-9.4-10.9-9.4H3161.6z"/>
</svg>
