<?xml version="1.0" encoding="utf-8"?>
<!-- Generator: Adobe Illustrator 25.2.1, SVG Export Plug-In . SVG Version: 6.00 Build 0)  -->
<svg version="1.1" id="Layer_1" xmlns="http://www.w3.org/2000/svg" xmlns:xlink="http://www.w3.org/1999/xlink" x="0px" y="0px"
	 viewBox="0 0 4280.3 1133.9" style="enable-background:new 0 0 4280.3 1133.9;" xml:space="preserve">
<style type="text/css">
	.st0{fill:none;stroke:#000000;stroke-miterlimit:10;}
</style>
<g>
	<path class="st0" d="M368,384.1V95c0-1.6,1.3-2.8,2.8-2.8h1020.5c1.6,0,2.8,1.3,2.8,2.8v943.9c0,1.6-1.3,2.8-2.8,2.8H370.9
		c-1.6,0-2.8-1.3-2.8-2.8V744.1"/>
	<circle class="st0" cx="903.8" cy="565.5" r="113.4"/>
	<path class="st0" d="M489.9,165.8h-56.7c-1.6,0-2.8-1.3-2.8-2.8v-28.3c0-1.6,1.3-2.8,2.8-2.8h56.7c1.6,0,2.8,1.3,2.8,2.8V163
		C492.8,164.6,491.5,165.8,489.9,165.8z"/>
	<path class="st0" d="M1329,177.2h-56.7c-1.6,0-2.8-1.3-2.8-2.8V146c0-1.6,1.3-2.8,2.8-2.8h56.7c1.6,0,2.8,1.3,2.8,2.8v28.3
		C1331.8,175.9,1330.6,177.2,1329,177.2z"/>
	<path class="st0" d="M1329,956.7h-56.7c-1.6,0-2.8,1.3-2.8,2.8v28.3c0,1.6,1.3,2.8,2.8,2.8h56.7c1.6,0,2.8-1.3,2.8-2.8v-28.3
		C1331.8,958,1330.6,956.7,1329,956.7z"/>
	<path class="st0" d="M489.9,968h-56.7c-1.6,0-2.8,1.3-2.8,2.8v28.3c0,1.6,1.3,2.8,2.8,2.8h56.7c1.6,0,2.8-1.3,2.8-2.8v-28.3
		C492.8,969.3,491.5,968,489.9,968z"/>
	<path class="st0" d="M368,384.1h130.4c1.6,0,2.8,1.3,2.8,2.8v354.3c0,1.6-1.3,2.8-2.8,2.8H368"/>
	<path class="st0" d="M368,384.1"/>
	<path class="st0" d="M368,744.1"/>
</g>
</svg>
