<?xml version="1.0" encoding="utf-8"?>
<!-- Generator: Adobe Illustrator 26.1.0, SVG Export Plug-In . SVG Version: 6.00 Build 0)  -->
<svg version="1.1" id="Layer_1" xmlns="http://www.w3.org/2000/svg" xmlns:xlink="http://www.w3.org/1999/xlink" x="0px" y="0px"
	 viewBox="0 0 4280.3 1133.9" style="enable-background:new 0 0 4280.3 1133.9;" xml:space="preserve">
<style type="text/css">
	.st0{fill:none;stroke:#000000;stroke-miterlimit:10;}
	.st1{fill:#020202;}
	.st2{fill:none;stroke:#020202;stroke-miterlimit:10;}
</style>
<g>
	<path class="st0" d="M748,147.6v858.9c0,12.5-10.2,22.7-22.7,22.7H178.2c-9.4,0-17-7.6-17-17V142c0-9.4,7.6-17,17-17h547.1
		C737.8,125,748,135.1,748,147.6z"/>
	<g>
		<g>
			<path id="path817" class="st1" d="M466.1,582.2L466.1,582.2l-4.2,6.3l-4.2,6.2l0.7,0.3l0.7,0.3l0.7,0.3l0.7,0.3l0.5,0.4l0.5,0.4
				l0.3,0.3l0.3,0.3l0.5,0.6l0.5,0.6l0.3,0.7l0.3,0.7l0.2,0.5l0.2,0.5l0.1,0.3l0.1,0.3l0.1,0.3l0.1,0.3l0.1,0.6l0.1,0.6v5v5h-10.3
				h-10.3v-0.1v-0.1v-4.8v-4.8l0.1-0.5l0.1-0.5l0.2-0.9l0.2-0.9l0.3-0.8l0.3-0.8l0.3-0.4l0.3-0.4l0.3-0.4l0.3-0.4l0.6-0.6l0.6-0.6
				l0.3-0.3l0.3-0.3l0.7-0.3l0.7-0.3l0.5-0.2l0.5-0.2l0.1-0.1l0.1-0.1l-0.1-0.2l-0.1-0.2l-4-6.1l-4-6.1v-0.1v-0.1l1.6-2.2l1.6-2.2
				h0.1h0.1l3.1,4.8l3.1,4.8l0,0l0,0l0.4-0.7l0.4-0.7l-0.2-0.3l-0.2-0.3l-3-4.7l-3-4.7V576V576l1.4-2.1l1.4-2.1h0.1h0.1l2,2.9l2,2.9
				l1.2,1.9l1.2,1.9l0.4-0.8l0.4-0.8L454,575l-3.2-4.9h-3.4h-3.4v-3.7v-3.7h6.9h6.9v-3.3v-3.3h3.3h3.3v7v7H461h-3.3l3.9,6.1
				L466.1,582.2L466.1,582.2L466.1,582.2z M466,582.2L466,582.2l-3.9-6.1l-3.9-6V570v-0.1h3.4h3.4V563v-6.9h-3.2h-3.2v3.3v3.3h-6.9
				h-6.9v3.6v3.6h3.4h3.4l3.2,4.9l3.2,4.9v0.1v0.1l-0.5,0.9l-0.5,0.9h-0.1h-0.1l-3.2-4.8l-3.2-4.8l0,0l0,0l-1.4,2.1l-1.4,2.1v0.1
				v0.1l3.1,4.9l3.1,4.9V586v0.1l-0.5,0.8l-0.5,0.8h-0.1h-0.1l-3.1-4.8l-3.1-4.8l0,0l0,0l-1.4,2.1l-1.4,2.1l-0.1,0.2l-0.1,0.2l4,6.3
				l4,6.3v0.1v0.1l-0.2,0.1l-0.2,0.1l-0.5,0.2l-0.5,0.2l-0.7,0.4l-0.7,0.4l-0.4,0.3l-0.4,0.3l-0.3,0.3l-0.3,0.3l-0.3,0.4l-0.3,0.4
				l-0.3,0.3l-0.3,0.3l-0.2,0.3L446,600l-0.3,0.8l-0.3,0.8l-0.2,0.9l-0.2,0.9l-0.1,0.5l-0.1,0.5v4.8v4.8h10.1h10.1V609v-4.9
				l-0.1-0.6l-0.1-0.6l-0.1-0.4l-0.1-0.4l-0.1-0.4l-0.1-0.4l-0.2-0.5l-0.2-0.5l-0.3-0.6l-0.3-0.6l-0.5-0.7l-0.5-0.7l-0.4-0.3
				l-0.4-0.3l-0.4-0.3l-0.4-0.3l-0.8-0.3l-0.8-0.3l-0.6-0.2l-0.6-0.2v-0.1V595l4.2-6.2L466,582.2L466,582.2L466,582.2z M458.4,605.7
				v0.9h-0.1h-0.1h-3.7h-3.7v-1.4v-1.4l0.2-0.4l0.2-0.4l0.2-0.3l0.2-0.3l0.3-0.3l0.3-0.3l0.4-0.3l0.4-0.3l0.4-0.1l0.4-0.1h0.7h0.7
				l0.3,0.1l0.3,0.1l0.3,0.2l0.3,0.2l0.3,0.3l0.3,0.3l0.3,0.3l0.3,0.3l0.2,0.3l0.2,0.3l0.1,0.3l0.1,0.3l0.1,0.4l0.1,0.4V605.7
				L458.4,605.7z M458.3,605.7v-0.9l-0.1-0.4l-0.1-0.4l-0.1-0.3l-0.1-0.3l-0.2-0.3l-0.2-0.3l-0.2-0.3l-0.2-0.3l-0.3-0.3l-0.3-0.3
				l-0.3-0.2l-0.3-0.2l-0.3-0.1l-0.3-0.1h-0.6h-0.6l-0.3,0.1l-0.3,0.1l-0.3,0.2l-0.3,0.2l-0.3,0.2l-0.3,0.2l-0.3,0.3l-0.3,0.3
				l-0.2,0.3l-0.2,0.3l-0.1,0.3l-0.1,0.3l-0.1,0.4l-0.1,0.4v0.9v0.9h3.7h3.7L458.3,605.7L458.3,605.7z M464.9,547.4v7h-10.3h-10.3
				v-3.7V547h6.9h6.9v-3.2v-3.2h3.3h3.3L464.9,547.4z M464.7,547.4v-6.9h-3.2h-3.2v3.2v3.3h-6.9h-6.9v3.6v3.6h10.2h10.2L464.7,547.4
				z"/>
			<circle class="st2" cx="454.6" cy="577.1" r="43.9"/>
		</g>
		<circle class="st0" cx="454.8" cy="577.1" r="51"/>
	</g>
</g>
</svg>
