<?xml version="1.0" encoding="utf-8"?>
<!-- Generator: Adobe Illustrator 26.1.0, SVG Export Plug-In . SVG Version: 6.00 Build 0)  -->
<svg version="1.1" id="Layer_1" xmlns="http://www.w3.org/2000/svg" xmlns:xlink="http://www.w3.org/1999/xlink" x="0px" y="0px"
	 viewBox="0 0 4280.3 1133.9" style="enable-background:new 0 0 4280.3 1133.9;" xml:space="preserve">
<style type="text/css">
	.st0{fill:none;stroke:#000000;stroke-miterlimit:10;}
	.st1{fill:#020202;}
	.st2{fill:none;stroke:#020202;stroke-miterlimit:10;}
</style>
<g>
	<path class="st0" d="M1317.9,732.3H467.6c-15.7,0-28.3-12.7-28.3-28.3V156.8c0-7.8,6.3-14.2,14.2-14.2h878.7
		c7.8,0,14.2,6.3,14.2,14.2v547.1C1346.3,719.6,1333.6,732.3,1317.9,732.3z"/>
	<circle class="st0" cx="892.8" cy="437.5" r="51"/>
	<g>
		<path id="path817" class="st1" d="M887.7,448.6L887.7,448.6l-6.1-4.1l-6-4.1l-0.3,0.7l-0.3,0.7l-0.3,0.7l-0.3,0.7l-0.4,0.5
			l-0.4,0.5l-0.3,0.3l-0.3,0.3l-0.6,0.5l-0.6,0.5l-0.7,0.3l-0.7,0.3l-0.5,0.2l-0.5,0.2l-0.3,0.1l-0.3,0.1l-0.3,0.1l-0.3,0.1
			l-0.6,0.1l-0.6,0.1h-4.8h-4.8v-9.9v-9.9h0.1h0.1h4.7h4.7l0.5,0.1l0.5,0.1l0.8,0.2l0.8,0.2l0.8,0.3l0.8,0.3l0.4,0.3l0.4,0.3
			l0.4,0.3l0.4,0.3l0.6,0.6l0.6,0.6l0.3,0.3l0.3,0.3l0.3,0.7l0.3,0.7l0.2,0.5l0.2,0.5l0.1,0.1l0.1,0.1l0.2-0.1l0.2-0.1l5.9-3.8
			l5.9-3.8h0.1h0.1l2.2,1.5l2.2,1.5v0.1v0.1l-4.7,3l-4.7,3l0,0l0,0l0.7,0.4l0.7,0.4l0.3-0.2l0.3-0.2l4.5-2.9l4.5-2.9h0.1h0.1l2,1.3
			l2,1.3v0.1v0.1l-2.8,1.9l-2.8,1.9l-1.8,1.2l-1.8,1.2l0.8,0.4l0.8,0.4l4.8-3.1l4.8-3.1v-3.3v-3.3h3.6h3.6v6.7v6.7h3.2h3.2v3.2v3.2
			h-6.8h-6.8v-3.2v-3.2l-5.9,3.8L887.7,448.6L887.7,448.6L887.7,448.6z M887.7,448.5L887.7,448.5l5.9-3.8l5.8-3.8h0.1h0.1v3.3v3.3
			h6.7h6.7v-3.1v-3.1h-3.2h-3.2v-6.7V428h-3.5h-3.5v3.3v3.3l-4.8,3.1l-4.8,3.1h-0.1H890l-0.8-0.5l-0.8-0.5v-0.1v-0.1l4.7-3.1
			l4.7-3.1l0,0l0,0l-2-1.3l-2-1.3h-0.1h-0.1l-4.8,3l-4.8,3h0.2h-0.1l-0.8-0.5l-0.8-0.5v-0.1v-0.1l4.7-3l4.7-3l0,0l0,0l-2-1.3l-2-1.3
			l-0.2-0.1l-0.2-0.1l-6.1,3.9l-6.1,3.9h-0.1h-0.1l-0.1-0.2l-0.1-0.2l-0.2-0.5l-0.2-0.5l-0.4-0.7l-0.4-0.7l-0.3-0.4l-0.3-0.4
			l-0.3-0.3l-0.3-0.3l-0.4-0.3l-0.4-0.3l-0.3-0.3l-0.3-0.3l-0.3-0.2l-0.3-0.2l-0.8-0.3l-0.8-0.3l-0.8-0.2l-0.8-0.2l-0.5-0.1
			l-0.5-0.1h-4.7h-4.7v9.8v9.8h4.8h4.8l0.6-0.1l0.6-0.1l0.4-0.1l0.4-0.1l0.4-0.1l0.4-0.1l0.5-0.2l0.5-0.2l0.6-0.3l0.6-0.3l0.7-0.5
			l0.7-0.5l0.3-0.4l0.3-0.4l0.3-0.4l0.3-0.4l0.3-0.8l0.3-0.8l0.2-0.6l0.2-0.6h0.1h0.1l6,4.1L887.7,448.5L887.7,448.5L887.7,448.5z
			 M865.1,441.1h-0.9V441V441v-3.6v-3.6h1.3h1.3l0.4,0.2l0.4,0.2l0.3,0.2l0.3,0.2l0.3,0.3l0.3,0.3l0.3,0.4l0.3,0.4l0.1,0.4l0.1,0.4
			v0.7v0.7l-0.1,0.3l-0.1,0.3l-0.2,0.3l-0.2,0.3l-0.3,0.3l-0.3,0.3l-0.3,0.3l-0.3,0.3l-0.3,0.2l-0.3,0.2l-0.3,0.1L867,441l-0.4,0.1
			l-0.4,0.1H865.1L865.1,441.1z M865.1,441h0.8l0.4-0.1l0.4-0.1l0.3-0.1l0.3-0.1l0.3-0.2l0.3-0.2l0.3-0.2l0.3-0.2l0.3-0.3l0.3-0.3
			l0.2-0.3l0.2-0.3l0.1-0.3l0.1-0.3v-0.6V437l-0.1-0.3l-0.1-0.3l-0.2-0.3l-0.2-0.3l-0.2-0.3l-0.2-0.3l-0.3-0.3l-0.3-0.3l-0.3-0.2
			l-0.3-0.2l-0.3-0.1l-0.3-0.1l-0.4-0.1l-0.4-0.1h-0.9h-0.9v3.6v3.6L865.1,441L865.1,441z M921.4,447.5h-6.8v-9.9v-9.9h3.6h3.6v6.7
			v6.7h3.1h3.1v3.2v3.2L921.4,447.5z M921.4,447.3h6.7v-3.1v-3.1H925h-3.2v-6.7v-6.7h-3.5h-3.5v9.8v9.8L921.4,447.3z"/>
		<circle class="st2" cx="892.8" cy="437.5" r="42.5"/>
	</g>
</g>
</svg>
