<?xml version="1.0" encoding="utf-8"?>
<!-- Generator: Adobe Illustrator 24.2.2, SVG Export Plug-In . SVG Version: 6.00 Build 0)  -->
<svg version="1.1"
	 id="svg12" inkscape:version="0.92.3 (2405546, 2018-03-11)" xmlns:cc="http://creativecommons.org/ns#" xmlns:dc="http://purl.org/dc/elements/1.1/" xmlns:inkscape="http://www.inkscape.org/namespaces/inkscape" xmlns:rdf="http://www.w3.org/1999/02/22-rdf-syntax-ns#" xmlns:sodipodi="http://sodipodi.sourceforge.net/DTD/sodipodi-0.dtd" xmlns:svg="http://www.w3.org/2000/svg"
	 xmlns="http://www.w3.org/2000/svg" xmlns:xlink="http://www.w3.org/1999/xlink" x="0px" y="0px" viewBox="0 0 864 1700.8"
	 style="enable-background:new 0 0 864 1700.8;" xml:space="preserve">
<style type="text/css">
	.st0{fill:none;stroke:#000000;stroke-linecap:round;stroke-linejoin:round;stroke-miterlimit:11.3386;}
</style>
<sodipodi:namedview  bordercolor="#666666" borderopacity="1" gridtolerance="10" guidetolerance="10" id="namedview14" inkscape:current-layer="svg12" inkscape:cx="1031.2632" inkscape:cy="1623.0022" inkscape:pageopacity="0" inkscape:pageshadow="2" inkscape:window-height="877" inkscape:window-maximized="1" inkscape:window-width="1280" inkscape:window-x="0" inkscape:window-y="28" inkscape:zoom="0.10406944" objecttolerance="10" pagecolor="#ffffff" showgrid="false">
	</sodipodi:namedview>
<path id="path4" class="st0" d="M2612.1,1628.5c0,31.3-25.4,56.7-56.7,56.7c-31.3,0-56.7-25.4-56.7-56.7c0-31.3,25.4-56.7,56.7-56.7
	C2586.7,1571.8,2612.1,1597.2,2612.1,1628.5z"/>
<path id="path6" class="st0" d="M2232.8,1146.4c0.1,0,3.3-3,7-5.5c2.5-1.7,5.8-3.1,6.4-3.3c2.1-0.6,11.5-0.9,17-1
	c0.2,0,18.3-0.2,18.5-0.2c0.2,0,16.4-0.2,17.7-0.2l42.5-0.3l23.3-0.1l36.5-0.1c0.6,0,7.6,0,7.7,0l26.7-0.1l72.3-0.4l22.6-0.1
	l51.2-0.2l72.4-0.2l32.6,0c8.1,0,85.3-0.1,86.9-0.1l30.6,0c1.3,0,17,0,17.2,0c1.8,0,11.8,0.1,12.9,0.1c20.6,0.4,28.5,7.1,37.7,30.2
	c16.3,40.8,14.6,61.9,14.6,67.1l0.1,33.9l0,52.5c0,1,0,96.7-0.1,117l-0.1,115.8c-2.9,3.1-3.5,4.2-3.7,14.8c0,0.1-0.1,13.3-0.1,13.4
	l-0.1,21.2l0,70.8c0,3.2,0,23.7,0,23.9c0.1,3.3,1,5.7,3.9,9.4l0.1,188.8c0,4.3,0,83.1,0,95.9c0,13.8,0,14,0,14.1l-0.1,24.1
	c-0.1,18.1,1.6,30.9-13,64.3c-4.2,9.6-7.6,15.3-11.4,18.7c-8.8,7.7-12.1,7.2-19.9,10.5l-113.9,0.1l-46.4,0c-6.7,0-82.1-0.1-88.9-0.1
	l-50.1-0.1l-94.4-0.2c-2.8,0,4.1,0-62.1-0.2l-74.7-0.3l-43.2-0.2c-10.8-0.1-15.8,0-18.3-0.4c-2.4-0.3-0.7,0-0.7,0"/>
<path id="path8" class="st0" d="M2249.1,2119.8c-0.1-0.1-5.3-0.4-7.3-1.8c-0.1-0.1-4.5-3.7-5-4.2c-4.6-3.9-7.7-10.1-9.2-11.9
	c-3.4-4.1-8.5-16.7-9.8-20.5c-6.1-17.6-9.6-42.5-8.2-45.5c1.2-2.6,5.9-3.8,6.4-4.1c1.8-0.9,6.1-6.9,6.3-7.4
	c0.3-0.7,0.6-1.5,0.7-13.2l0.1-34.7l0.1-69l0.1-162.1l0-98.8c0-40.6,0,11.7,0-175.6c0-4.9,0,4.3-0.1-138.2l-0.1-53.7l-0.1-27
	c0-7.7-0.1-15-0.1-15.5c0.1-1.8,1.1-5.3-3.5-9.4c-5-4.6-8-3.4-9.1-6.1c-0.1-0.3-1.7-10,0.9-20c1.6-6.3-1.2,0,2.8-13.7
	c9.6-33.4,19-41.2,19-41.2"/>
<path id="path10" class="st0" d="M2866.6,2106.2L2866.6,2106.2c-13.2-12.2-9.4-6.3-15.1-11.6c-11-10.2-9.5-9.1-9.7-47.3l-0.2-30.1
	l-0.2-49.7l-0.1-69.4c0-0.6,0-0.6-0.1-66.7l-0.1-228.7c0-3.8,0-28.5,0-427.3c15-14.8,10.4-9.6,15-13.1c7.4-5.6,6.2-2.7,8.8-6.2
	c1.3-1.7,0.6-1.3,1.4-1.5c0.2,0,0.6,0.4,0.6,0.4"/>
<path id="path88" class="st0" d="M2612.1,1628.5c0,31.3-25.4,56.7-56.7,56.7c-31.3,0-56.7-25.4-56.7-56.7
	c0-31.3,25.4-56.7,56.7-56.7C2586.7,1571.8,2612.1,1597.2,2612.1,1628.5z"/>
<path id="path90" class="st0" d="M2232.8,1146.4c0.1,0,3.3-3,7-5.5c2.5-1.7,5.8-3.1,6.4-3.3c2.1-0.6,11.5-0.9,17-1
	c0.2,0,18.3-0.2,18.5-0.2c0.2,0,16.4-0.2,17.7-0.2l42.5-0.3l23.3-0.1l36.5-0.1c0.6,0,7.6,0,7.7,0l26.7-0.1l72.3-0.4l22.6-0.1
	l51.2-0.2l72.4-0.2l32.6,0c8.1,0,85.3-0.1,86.9-0.1l30.6,0c1.3,0,17,0,17.2,0c1.8,0,11.8,0.1,12.9,0.1c20.6,0.4,28.5,7.1,37.7,30.2
	c16.3,40.8,14.6,61.9,14.6,67.1l0.1,33.9l0,52.5c0,1,0,96.7-0.1,117l-0.1,115.8c-2.9,3.1-3.5,4.2-3.7,14.8c0,0.1-0.1,13.3-0.1,13.4
	l-0.1,21.2l0,70.8c0,3.2,0,23.7,0,23.9c0.1,3.3,1,5.7,3.9,9.4l0.1,188.8c0,4.3,0,83.1,0,95.9c0,13.8,0,14,0,14.1l-0.1,24.1
	c-0.1,18.1,1.6,30.9-13,64.3c-4.2,9.6-7.6,15.3-11.4,18.7c-8.8,7.7-12.1,7.2-19.9,10.5l-113.9,0.1l-46.4,0c-6.7,0-82.1-0.1-88.9-0.1
	l-50.1-0.1l-94.4-0.2c-2.8,0,4.1,0-62.1-0.2l-74.7-0.3l-43.2-0.2c-10.8-0.1-15.8,0-18.3-0.4c-2.4-0.3-0.7,0-0.7,0"/>
<path id="path92" class="st0" d="M2249.1,2119.8c-0.1-0.1-5.3-0.4-7.3-1.8c-0.1-0.1-4.5-3.7-5-4.2c-4.6-3.9-7.7-10.1-9.2-11.9
	c-3.4-4.1-8.5-16.7-9.8-20.5c-6.1-17.6-9.6-42.5-8.2-45.5c1.2-2.6,5.9-3.8,6.4-4.1c1.8-0.9,6.1-6.9,6.3-7.4
	c0.3-0.7,0.6-1.5,0.7-13.2l0.1-34.7l0.1-69l0.1-162.1l0-98.8c0-40.6,0,11.7,0-175.6c0-4.9,0,4.3-0.1-138.2l-0.1-53.7l-0.1-27
	c0-7.7-0.1-15-0.1-15.5c0.1-1.8,1.1-5.3-3.5-9.4c-5-4.6-8-3.4-9.1-6.1c-0.1-0.3-1.7-10,0.9-20c1.6-6.3-1.2,0,2.8-13.7
	c9.6-33.4,19-41.2,19-41.2"/>
<path id="path94" class="st0" d="M2866.6,2106.2L2866.6,2106.2c-13.2-12.2-9.4-6.3-15.1-11.6c-11-10.2-9.5-9.1-9.7-47.3l-0.2-30.1
	l-0.2-49.7l-0.1-69.4c0-0.6,0-0.6-0.1-66.7l-0.1-228.7c0-3.8,0-28.5,0-427.3c15-14.8,10.4-9.6,15-13.1c7.4-5.6,6.2-2.7,8.8-6.2
	c1.3-1.7,0.6-1.3,1.4-1.5c0.2,0,0.6,0.4,0.6,0.4"/>
<path id="path132" inkscape:connector-curvature="0" class="st0" d="M3315.3,1628.5c0,31.3-25.4,56.7-56.7,56.7
	c-31.3,0-56.7-25.4-56.7-56.7c0-31.3,25.4-56.7,56.7-56.7C3289.9,1571.8,3315.3,1597.2,3315.3,1628.5L3315.3,1628.5z"/>
<path id="path134" inkscape:connector-curvature="0" class="st0" d="M2936,1146.4c0.1,0,3.3-3,7-5.5c2.5-1.7,5.8-3.1,6.4-3.3
	c2.1-0.6,11.5-0.9,17-1c0.2,0,18.3-0.2,18.5-0.2c0.2,0,16.4-0.2,17.7-0.2l42.5-0.3l23.3-0.1l36.5-0.1c0.6,0,7.6,0,7.7,0l26.7-0.1
	l72.3-0.4l22.6-0.1l51.2-0.2l72.4-0.2l32.6,0c8.1,0,85.3-0.1,86.9-0.1l30.6,0c1.3,0,17,0,17.2,0c1.8,0,11.8,0.1,12.9,0.1
	c20.6,0.4,28.5,7.1,37.7,30.2c16.3,40.8,14.6,61.9,14.6,67.1l0.1,33.9l0,52.5c0,1,0,96.7-0.1,117l-0.1,115.8
	c-2.9,3.1-3.5,4.2-3.7,14.8c0,0.1-0.1,13.3-0.1,13.4l-0.1,21.2l0,70.8c0,3.2,0,23.7,0,23.9c0.1,3.3,1,5.7,3.9,9.4l0.1,188.8
	c0,4.3,0,83.1,0,95.9c0,13.8,0,14,0,14.1l-0.1,24.1c-0.1,18.1,1.6,30.9-13,64.3c-4.2,9.6-7.6,15.3-11.4,18.7
	c-8.8,7.7-12.1,7.2-19.9,10.5l-113.9,0.1l-46.4,0c-6.7,0-82.1-0.1-88.9-0.1l-50.1-0.1l-94.4-0.2c-2.8,0,4.1,0-62.1-0.2l-74.7-0.3
	l-43.2-0.2c-10.8-0.1-15.8,0-18.3-0.4c-2.4-0.3-0.7,0-0.7,0"/>
<path id="path136" inkscape:connector-curvature="0" class="st0" d="M2952.3,2119.8c-0.1-0.1-5.3-0.4-7.3-1.8
	c-0.1-0.1-4.5-3.7-5-4.2c-4.6-3.9-7.7-10.1-9.2-11.9c-3.4-4.1-8.5-16.7-9.8-20.5c-6.1-17.6-9.6-42.5-8.2-45.5
	c1.2-2.6,5.9-3.8,6.4-4.1c1.8-0.9,6.1-6.9,6.3-7.4c0.3-0.7,0.6-1.5,0.7-13.2l0.1-34.7l0.1-69l0.1-162.1l0-98.8
	c0-40.6,0,11.7,0-175.6c0-4.9,0,4.3-0.1-138.2l-0.1-53.7l-0.1-27c0-7.7-0.1-15-0.1-15.5c0.1-1.8,1.1-5.3-3.5-9.4
	c-5-4.6-8-3.4-9.1-6.1c-0.1-0.3-1.7-10,0.9-20c1.6-6.3-1.2,0,2.8-13.7c9.6-33.4,19-41.2,19-41.2"/>
<path id="path138" inkscape:connector-curvature="0" class="st0" d="M3569.8,2106.2L3569.8,2106.2c-13.2-12.2-9.4-6.3-15.1-11.6
	c-11-10.2-9.5-9.1-9.7-47.3l-0.2-30.1l-0.2-49.7l-0.1-69.4c0-0.6,0-0.6-0.1-66.7l-0.1-228.7c0-3.8,0-28.5,0-427.3
	c15-14.8,10.4-9.6,15-13.1c7.4-5.6,6.2-2.7,8.8-6.2c1.3-1.7,0.6-1.3,1.4-1.5c0.2,0,0.6,0.4,0.6,0.4"/>
<path id="path140" inkscape:connector-curvature="0" class="st0" d="M3315.3,1628.5c0,31.3-25.4,56.7-56.7,56.7
	c-31.3,0-56.7-25.4-56.7-56.7c0-31.3,25.4-56.7,56.7-56.7C3289.9,1571.8,3315.3,1597.2,3315.3,1628.5L3315.3,1628.5z"/>
<path id="path142" inkscape:connector-curvature="0" class="st0" d="M2936,1146.4c0.1,0,3.3-3,7-5.5c2.5-1.7,5.8-3.1,6.4-3.3
	c2.1-0.6,11.5-0.9,17-1c0.2,0,18.3-0.2,18.5-0.2c0.2,0,16.4-0.2,17.7-0.2l42.5-0.3l23.3-0.1l36.5-0.1c0.6,0,7.6,0,7.7,0l26.7-0.1
	l72.3-0.4l22.6-0.1l51.2-0.2l72.4-0.2l32.6,0c8.1,0,85.3-0.1,86.9-0.1l30.6,0c1.3,0,17,0,17.2,0c1.8,0,11.8,0.1,12.9,0.1
	c20.6,0.4,28.5,7.1,37.7,30.2c16.3,40.8,14.6,61.9,14.6,67.1l0.1,33.9l0,52.5c0,1,0,96.7-0.1,117l-0.1,115.8
	c-2.9,3.1-3.5,4.2-3.7,14.8c0,0.1-0.1,13.3-0.1,13.4l-0.1,21.2l0,70.8c0,3.2,0,23.7,0,23.9c0.1,3.3,1,5.7,3.9,9.4l0.1,188.8
	c0,4.3,0,83.1,0,95.9c0,13.8,0,14,0,14.1l-0.1,24.1c-0.1,18.1,1.6,30.9-13,64.3c-4.2,9.6-7.6,15.3-11.4,18.7
	c-8.8,7.7-12.1,7.2-19.9,10.5l-113.9,0.1l-46.4,0c-6.7,0-82.1-0.1-88.9-0.1l-50.1-0.1l-94.4-0.2c-2.8,0,4.1,0-62.1-0.2l-74.7-0.3
	l-43.2-0.2c-10.8-0.1-15.8,0-18.3-0.4c-2.4-0.3-0.7,0-0.7,0"/>
<path id="path144" inkscape:connector-curvature="0" class="st0" d="M2952.3,2119.8c-0.1-0.1-5.3-0.4-7.3-1.8
	c-0.1-0.1-4.5-3.7-5-4.2c-4.6-3.9-7.7-10.1-9.2-11.9c-3.4-4.1-8.5-16.7-9.8-20.5c-6.1-17.6-9.6-42.5-8.2-45.5
	c1.2-2.6,5.9-3.8,6.4-4.1c1.8-0.9,6.1-6.9,6.3-7.4c0.3-0.7,0.6-1.5,0.7-13.2l0.1-34.7l0.1-69l0.1-162.1l0-98.8
	c0-40.6,0,11.7,0-175.6c0-4.9,0,4.3-0.1-138.2l-0.1-53.7l-0.1-27c0-7.7-0.1-15-0.1-15.5c0.1-1.8,1.1-5.3-3.5-9.4
	c-5-4.6-8-3.4-9.1-6.1c-0.1-0.3-1.7-10,0.9-20c1.6-6.3-1.2,0,2.8-13.7c9.6-33.4,19-41.2,19-41.2"/>
<path id="path146" inkscape:connector-curvature="0" class="st0" d="M3569.8,2106.2L3569.8,2106.2c-13.2-12.2-9.4-6.3-15.1-11.6
	c-11-10.2-9.5-9.1-9.7-47.3l-0.2-30.1l-0.2-49.7l-0.1-69.4c0-0.6,0-0.6-0.1-66.7l-0.1-228.7c0-3.8,0-28.5,0-427.3
	c15-14.8,10.4-9.6,15-13.1c7.4-5.6,6.2-2.7,8.8-6.2c1.3-1.7,0.6-1.3,1.4-1.5c0.2,0,0.6,0.4,0.6,0.4"/>
<path id="path148" inkscape:connector-curvature="0" class="st0" d="M4023.7,1628.5c0,31.3-25.4,56.7-56.7,56.7
	c-31.3,0-56.7-25.4-56.7-56.7c0-31.3,25.4-56.7,56.7-56.7C3998.3,1571.8,4023.7,1597.2,4023.7,1628.5L4023.7,1628.5z"/>
<path id="path150" inkscape:connector-curvature="0" class="st0" d="M3644.3,1146.4c0.1,0,3.3-3,7-5.5c2.5-1.7,5.8-3.1,6.4-3.3
	c2.1-0.6,11.5-0.9,17-1c0.2,0,18.3-0.2,18.5-0.2c0.2,0,16.4-0.2,17.7-0.2l42.5-0.3l23.3-0.1l36.5-0.1c0.6,0,7.6,0,7.7,0l26.7-0.1
	l72.3-0.4l22.6-0.1l51.2-0.2l72.4-0.2l32.6,0c8.1,0,85.3-0.1,86.9-0.1l30.6,0c1.3,0,17,0,17.2,0c1.8,0,11.8,0.1,12.9,0.1
	c20.6,0.4,28.5,7.1,37.7,30.2c16.3,40.8,14.6,61.9,14.6,67.1l0.1,33.9l0,52.5c0,1,0,96.7-0.1,117l-0.1,115.8
	c-2.9,3.1-3.5,4.2-3.7,14.8c0,0.1-0.1,13.3-0.1,13.4l-0.1,21.2l0,70.8c0,3.2,0,23.7,0,23.9c0.1,3.3,1,5.7,3.9,9.4l0.1,188.8
	c0,4.3,0,83.1,0,95.9c0,13.8,0,14,0,14.1l-0.1,24.1c-0.1,18.1,1.6,30.9-13,64.3c-4.2,9.6-7.6,15.3-11.4,18.7
	c-8.8,7.7-12.1,7.2-19.9,10.5l-113.9,0.1l-46.4,0c-6.7,0-82.1-0.1-88.9-0.1l-50.1-0.1l-94.4-0.2c-2.8,0,4.1,0-62.1-0.2l-74.7-0.3
	l-43.2-0.2c-10.8-0.1-15.8,0-18.3-0.4c-2.4-0.3-0.7,0-0.7,0"/>
<path id="path152" inkscape:connector-curvature="0" class="st0" d="M3660.7,2119.8c-0.1-0.1-5.3-0.4-7.3-1.8
	c-0.1-0.1-4.5-3.7-5-4.2c-4.6-3.9-7.7-10.1-9.2-11.9c-3.4-4.1-8.5-16.7-9.8-20.5c-6.1-17.6-9.6-42.5-8.2-45.5
	c1.2-2.6,5.9-3.8,6.4-4.1c1.8-0.9,6.1-6.9,6.3-7.4c0.3-0.7,0.6-1.5,0.7-13.2l0.1-34.7l0.1-69l0.1-162.1l0-98.8
	c0-40.6,0,11.7,0-175.6c0-4.9,0,4.3-0.1-138.2l-0.1-53.7l-0.1-27c0-7.7-0.1-15-0.1-15.5c0.1-1.8,1.1-5.3-3.5-9.4
	c-5-4.6-8-3.4-9.1-6.1c-0.1-0.3-1.7-10,0.9-20c1.6-6.3-1.2,0,2.8-13.7c9.6-33.4,19-41.2,19-41.2"/>
<path id="path154" inkscape:connector-curvature="0" class="st0" d="M4278.1,2106.2L4278.1,2106.2c-13.2-12.2-9.4-6.3-15.1-11.6
	c-11-10.2-9.5-9.1-9.7-47.3l-0.2-30.1l-0.2-49.7l-0.1-69.4c0-0.6,0-0.6-0.1-66.7l-0.1-228.7c0-3.8,0-28.5,0-427.3
	c15-14.8,10.4-9.6,15-13.1c7.4-5.6,6.2-2.7,8.8-6.2c1.3-1.7,0.6-1.3,1.4-1.5c0.2,0,0.6,0.4,0.6,0.4"/>
<path id="path156" inkscape:connector-curvature="0" class="st0" d="M4023.7,1628.5c0,31.3-25.4,56.7-56.7,56.7
	c-31.3,0-56.7-25.4-56.7-56.7c0-31.3,25.4-56.7,56.7-56.7C3998.3,1571.8,4023.7,1597.2,4023.7,1628.5L4023.7,1628.5z"/>
<path id="path158" inkscape:connector-curvature="0" class="st0" d="M3644.3,1146.4c0.1,0,3.3-3,7-5.5c2.5-1.7,5.8-3.1,6.4-3.3
	c2.1-0.6,11.5-0.9,17-1c0.2,0,18.3-0.2,18.5-0.2c0.2,0,16.4-0.2,17.7-0.2l42.5-0.3l23.3-0.1l36.5-0.1c0.6,0,7.6,0,7.7,0l26.7-0.1
	l72.3-0.4l22.6-0.1l51.2-0.2l72.4-0.2l32.6,0c8.1,0,85.3-0.1,86.9-0.1l30.6,0c1.3,0,17,0,17.2,0c1.8,0,11.8,0.1,12.9,0.1
	c20.6,0.4,28.5,7.1,37.7,30.2c16.3,40.8,14.6,61.9,14.6,67.1l0.1,33.9l0,52.5c0,1,0,96.7-0.1,117l-0.1,115.8
	c-2.9,3.1-3.5,4.2-3.7,14.8c0,0.1-0.1,13.3-0.1,13.4l-0.1,21.2l0,70.8c0,3.2,0,23.7,0,23.9c0.1,3.3,1,5.7,3.9,9.4l0.1,188.8
	c0,4.3,0,83.1,0,95.9c0,13.8,0,14,0,14.1l-0.1,24.1c-0.1,18.1,1.6,30.9-13,64.3c-4.2,9.6-7.6,15.3-11.4,18.7
	c-8.8,7.7-12.1,7.2-19.9,10.5l-113.9,0.1l-46.4,0c-6.7,0-82.1-0.1-88.9-0.1l-50.1-0.1l-94.4-0.2c-2.8,0,4.1,0-62.1-0.2l-74.7-0.3
	l-43.2-0.2c-10.8-0.1-15.8,0-18.3-0.4c-2.4-0.3-0.7,0-0.7,0"/>
<path id="path160" inkscape:connector-curvature="0" class="st0" d="M3660.7,2119.8c-0.1-0.1-5.3-0.4-7.3-1.8
	c-0.1-0.1-4.5-3.7-5-4.2c-4.6-3.9-7.7-10.1-9.2-11.9c-3.4-4.1-8.5-16.7-9.8-20.5c-6.1-17.6-9.6-42.5-8.2-45.5
	c1.2-2.6,5.9-3.8,6.4-4.1c1.8-0.9,6.1-6.9,6.3-7.4c0.3-0.7,0.6-1.5,0.7-13.2l0.1-34.7l0.1-69l0.1-162.1l0-98.8
	c0-40.6,0,11.7,0-175.6c0-4.9,0,4.3-0.1-138.2l-0.1-53.7l-0.1-27c0-7.7-0.1-15-0.1-15.5c0.1-1.8,1.1-5.3-3.5-9.4
	c-5-4.6-8-3.4-9.1-6.1c-0.1-0.3-1.7-10,0.9-20c1.6-6.3-1.2,0,2.8-13.7c9.6-33.4,19-41.2,19-41.2"/>
<path id="path162" inkscape:connector-curvature="0" class="st0" d="M4278.1,2106.2L4278.1,2106.2c-13.2-12.2-9.4-6.3-15.1-11.6
	c-11-10.2-9.5-9.1-9.7-47.3l-0.2-30.1l-0.2-49.7l-0.1-69.4c0-0.6,0-0.6-0.1-66.7l-0.1-228.7c0-3.8,0-28.5,0-427.3
	c15-14.8,10.4-9.6,15-13.1c7.4-5.6,6.2-2.7,8.8-6.2c1.3-1.7,0.6-1.3,1.4-1.5c0.2,0,0.6,0.4,0.6,0.4"/>
<path id="path4-3" inkscape:connector-curvature="0" class="st0" d="M499.7,1642.5c0,31.3-25.4,56.7-56.7,56.7
	c-31.3,0-56.7-25.4-56.7-56.7c0-31.3,25.4-56.7,56.7-56.7C474.2,1585.8,499.7,1611.2,499.7,1642.5z"/>
<path id="path6-6" inkscape:connector-curvature="0" class="st0" d="M120.3,1160.4c0.1,0,3.3-3,7-5.5c2.5-1.7,5.8-3.1,6.4-3.3
	c2.1-0.6,11.5-0.9,17-1c0.2,0,18.3-0.2,18.5-0.2c0.2,0,16.4-0.2,17.7-0.2l42.5-0.3l23.3-0.1l36.5-0.1c0.6,0,7.6,0,7.7,0l26.7-0.1
	l72.3-0.4l22.6-0.1l51.2-0.2l72.4-0.2l32.6,0c8.1,0,85.3-0.1,86.9-0.1l30.6,0c1.3,0,17,0,17.2,0c1.8,0,11.8,0.1,12.9,0.1
	c20.6,0.4,28.5,7.1,37.7,30.2c16.3,40.8,14.6,61.9,14.6,67.1l0.1,33.9l0,52.5c0,1,0,96.7-0.1,117l-0.1,115.8
	c-2.9,3.1-3.5,4.2-3.7,14.8c0,0.1-0.1,13.3-0.1,13.4l-0.1,21.2l0,70.8c0,3.2,0,23.7,0,23.9c0.1,3.3,1,5.7,3.9,9.4l0.1,188.8
	c0,4.3,0,83.1,0,95.9c0,13.8,0,14,0,14.1l-0.1,24.1c-0.1,18.1,1.6,30.9-13,64.3c-4.2,9.6-7.6,15.3-11.4,18.7
	c-8.8,7.7-12.1,7.2-19.9,10.5l-113.9,0.1l-46.4,0c-6.7,0-82.1-0.1-88.9-0.1l-50.1-0.1l-94.4-0.2c-2.8,0,4.1,0-62.1-0.2l-74.7-0.3
	l-43.2-0.2c-10.8-0.1-15.8,0-18.3-0.4c-2.4-0.3-0.7,0-0.7,0"/>
<path id="path8-7" inkscape:connector-curvature="0" class="st0" d="M136.7,2133.8c-0.1-0.1-5.3-0.4-7.3-1.8c-0.1-0.1-4.5-3.7-5-4.2
	c-4.6-3.9-7.7-10.1-9.2-11.9c-3.4-4.1-8.5-16.7-9.8-20.5c-6.1-17.6-9.6-42.5-8.2-45.5c1.2-2.6,5.9-3.8,6.4-4.1
	c1.8-0.9,6.1-6.9,6.3-7.4c0.3-0.7,0.6-1.5,0.7-13.2l0.1-34.7l0.1-69l0.1-162.1l0-98.8c0-40.6,0,11.7,0-175.6c0-4.9,0,4.3-0.1-138.2
	l-0.1-53.7l-0.1-27c0-7.7-0.1-15-0.1-15.5c0.1-1.8,1.1-5.3-3.5-9.4c-5-4.6-8-3.4-9.1-6.1c-0.1-0.3-1.7-10,0.9-20
	c1.6-6.3-1.2,0,2.8-13.7c9.6-33.4,19-41.2,19-41.2"/>
<path id="path10-5" inkscape:connector-curvature="0" class="st0" d="M754.1,2120.2L754.1,2120.2c-13.2-12.2-9.4-6.3-15.1-11.6
	c-11-10.2-9.5-9.1-9.7-47.3l-0.2-30.1l-0.2-49.7l-0.1-69.4c0-0.6,0-0.6-0.1-66.7l-0.1-228.7c0-3.8,0-28.5,0-427.3
	c15-14.8,10.4-9.6,15-13.1c7.4-5.6,6.2-2.7,8.8-6.2c1.3-1.7,0.6-1.3,1.4-1.5c0.2,0,0.6,0.4,0.6,0.4"/>
<path id="path88-3" inkscape:connector-curvature="0" class="st0" d="M499.7,1642.5c0,31.3-25.4,56.7-56.7,56.7
	c-31.3,0-56.7-25.4-56.7-56.7c0-31.3,25.4-56.7,56.7-56.7C474.2,1585.8,499.7,1611.2,499.7,1642.5z"/>
<path id="path90-5" inkscape:connector-curvature="0" class="st0" d="M120.3,1160.4c0.1,0,3.3-3,7-5.5c2.5-1.7,5.8-3.1,6.4-3.3
	c2.1-0.6,11.5-0.9,17-1c0.2,0,18.3-0.2,18.5-0.2c0.2,0,16.4-0.2,17.7-0.2l42.5-0.3l23.3-0.1l36.5-0.1c0.6,0,7.6,0,7.7,0l26.7-0.1
	l72.3-0.4l22.6-0.1l51.2-0.2l72.4-0.2l32.6,0c8.1,0,85.3-0.1,86.9-0.1l30.6,0c1.3,0,17,0,17.2,0c1.8,0,11.8,0.1,12.9,0.1
	c20.6,0.4,28.5,7.1,37.7,30.2c16.3,40.8,14.6,61.9,14.6,67.1l0.1,33.9l0,52.5c0,1,0,96.7-0.1,117l-0.1,115.8
	c-2.9,3.1-3.5,4.2-3.7,14.8c0,0.1-0.1,13.3-0.1,13.4l-0.1,21.2l0,70.8c0,3.2,0,23.7,0,23.9c0.1,3.3,1,5.7,3.9,9.4l0.1,188.8
	c0,4.3,0,83.1,0,95.9c0,13.8,0,14,0,14.1l-0.1,24.1c-0.1,18.1,1.6,30.9-13,64.3c-4.2,9.6-7.6,15.3-11.4,18.7
	c-8.8,7.7-12.1,7.2-19.9,10.5l-113.9,0.1l-46.4,0c-6.7,0-82.1-0.1-88.9-0.1l-50.1-0.1l-94.4-0.2c-2.8,0,4.1,0-62.1-0.2l-74.7-0.3
	l-43.2-0.2c-10.8-0.1-15.8,0-18.3-0.4c-2.4-0.3-0.7,0-0.7,0"/>
<path id="path92-6" inkscape:connector-curvature="0" class="st0" d="M136.7,2133.8c-0.1-0.1-5.3-0.4-7.3-1.8
	c-0.1-0.1-4.5-3.7-5-4.2c-4.6-3.9-7.7-10.1-9.2-11.9c-3.4-4.1-8.5-16.7-9.8-20.5c-6.1-17.6-9.6-42.5-8.2-45.5
	c1.2-2.6,5.9-3.8,6.4-4.1c1.8-0.9,6.1-6.9,6.3-7.4c0.3-0.7,0.6-1.5,0.7-13.2l0.1-34.7l0.1-69l0.1-162.1l0-98.8
	c0-40.6,0,11.7,0-175.6c0-4.9,0,4.3-0.1-138.2l-0.1-53.7l-0.1-27c0-7.7-0.1-15-0.1-15.5c0.1-1.8,1.1-5.3-3.5-9.4
	c-5-4.6-8-3.4-9.1-6.1c-0.1-0.3-1.7-10,0.9-20c1.6-6.3-1.2,0,2.8-13.7c9.6-33.4,19-41.2,19-41.2"/>
<path id="path94-2" inkscape:connector-curvature="0" class="st0" d="M754.1,2120.2L754.1,2120.2c-13.2-12.2-9.4-6.3-15.1-11.6
	c-11-10.2-9.5-9.1-9.7-47.3l-0.2-30.1l-0.2-49.7l-0.1-69.4c0-0.6,0-0.6-0.1-66.7l-0.1-228.7c0-3.8,0-28.5,0-427.3
	c15-14.8,10.4-9.6,15-13.1c7.4-5.6,6.2-2.7,8.8-6.2c1.3-1.7,0.6-1.3,1.4-1.5c0.2,0,0.6,0.4,0.6,0.4"/>
<path id="path148-2" inkscape:connector-curvature="0" class="st0" d="M1208.1,1644.2c0,31.3-25.4,56.7-56.7,56.7
	c-31.3,0-56.7-25.4-56.7-56.7c0-31.3,25.4-56.7,56.7-56.7C1182.7,1587.5,1208.1,1612.9,1208.1,1644.2z"/>
<path id="path150-0" inkscape:connector-curvature="0" class="st0" d="M828.7,1162.1c0.1,0,3.3-3,7-5.5c2.5-1.7,5.8-3.1,6.4-3.3
	c2.1-0.6,11.5-0.9,17-1c0.2,0,18.3-0.2,18.5-0.2c0.2,0,16.4-0.2,17.7-0.2l42.5-0.3l23.3-0.1l36.5-0.1c0.6,0,7.6,0,7.7,0l26.7-0.1
	l72.3-0.4l22.6-0.1l51.2-0.2l72.4-0.2l32.6,0c8.1,0,85.3-0.1,86.9-0.1l30.6,0c1.3,0,17,0,17.2,0c1.8,0,11.8,0.1,12.9,0.1
	c20.6,0.4,28.5,7.1,37.7,30.2c16.3,40.8,14.6,61.9,14.6,67.1l0.1,33.9l0,52.5c0,1,0,96.7-0.1,117l-0.1,115.8
	c-2.9,3.1-3.5,4.2-3.7,14.8c0,0.1-0.1,13.3-0.1,13.4l-0.1,21.2l0,70.8c0,3.2,0,23.7,0,23.9c0.1,3.3,1,5.7,3.9,9.4l0.1,188.8
	c0,4.3,0,83.1,0,95.9c0,13.8,0,14,0,14.1l-0.1,24.1c-0.1,18.1,1.6,30.9-13,64.3c-4.2,9.6-7.6,15.3-11.4,18.7
	c-8.8,7.7-12.1,7.2-19.9,10.5l-113.9,0.1l-46.4,0c-6.7,0-82.1-0.1-88.9-0.1l-50.1-0.1l-94.4-0.2c-2.8,0,4.1,0-62.1-0.2l-74.7-0.3
	l-43.2-0.2c-10.8-0.1-15.8,0-18.3-0.4c-2.4-0.3-0.7,0-0.7,0"/>
<path id="path152-2" inkscape:connector-curvature="0" class="st0" d="M845.1,2135.6c-0.1-0.1-5.3-0.4-7.3-1.8
	c-0.1-0.1-4.5-3.7-5-4.2c-4.6-3.9-7.7-10.1-9.2-11.9c-3.4-4.1-8.5-16.7-9.8-20.5c-6.1-17.6-9.6-42.5-8.2-45.5
	c1.2-2.6,5.9-3.8,6.4-4.1c1.8-0.9,6.1-6.9,6.3-7.4c0.3-0.7,0.6-1.5,0.7-13.2l0.1-34.7l0.1-69l0.1-162.1l0-98.8
	c0-40.6,0,11.7,0-175.6c0-4.9,0,4.3-0.1-138.2l-0.1-53.7l-0.1-27c0-7.7-0.1-15-0.1-15.5c0.1-1.8,1.1-5.3-3.5-9.4
	c-5-4.6-8-3.4-9.1-6.1c-0.1-0.3-1.7-10,0.9-20c1.6-6.3-1.2,0,2.8-13.7c9.6-33.4,19-41.2,19-41.2"/>
<path id="path154-3" inkscape:connector-curvature="0" class="st0" d="M1462.5,2121.9L1462.5,2121.9c-13.2-12.2-9.4-6.3-15.1-11.6
	c-11-10.2-9.5-9.1-9.7-47.3l-0.2-30.1l-0.2-49.7l-0.1-69.4c0-0.6,0-0.6-0.1-66.7l-0.1-228.7c0-3.8,0-28.5,0-427.3
	c15-14.8,10.4-9.6,15-13.1c7.4-5.6,6.2-2.7,8.8-6.2c1.3-1.7,0.6-1.3,1.4-1.5c0.2,0,0.6,0.4,0.6,0.4"/>
<path id="path156-7" inkscape:connector-curvature="0" class="st0" d="M1208.1,1644.2c0,31.3-25.4,56.7-56.7,56.7
	c-31.3,0-56.7-25.4-56.7-56.7c0-31.3,25.4-56.7,56.7-56.7C1182.7,1587.5,1208.1,1612.9,1208.1,1644.2z"/>
<path id="path158-5" inkscape:connector-curvature="0" class="st0" d="M828.7,1162.1c0.1,0,3.3-3,7-5.5c2.5-1.7,5.8-3.1,6.4-3.3
	c2.1-0.6,11.5-0.9,17-1c0.2,0,18.3-0.2,18.5-0.2c0.2,0,16.4-0.2,17.7-0.2l42.5-0.3l23.3-0.1l36.5-0.1c0.6,0,7.6,0,7.7,0l26.7-0.1
	l72.3-0.4l22.6-0.1l51.2-0.2l72.4-0.2l32.6,0c8.1,0,85.3-0.1,86.9-0.1l30.6,0c1.3,0,17,0,17.2,0c1.8,0,11.8,0.1,12.9,0.1
	c20.6,0.4,28.5,7.1,37.7,30.2c16.3,40.8,14.6,61.9,14.6,67.1l0.1,33.9l0,52.5c0,1,0,96.7-0.1,117l-0.1,115.8
	c-2.9,3.1-3.5,4.2-3.7,14.8c0,0.1-0.1,13.3-0.1,13.4l-0.1,21.2l0,70.8c0,3.2,0,23.7,0,23.9c0.1,3.3,1,5.7,3.9,9.4l0.1,188.8
	c0,4.3,0,83.1,0,95.9c0,13.8,0,14,0,14.1l-0.1,24.1c-0.1,18.1,1.6,30.9-13,64.3c-4.2,9.6-7.6,15.3-11.4,18.7
	c-8.8,7.7-12.1,7.2-19.9,10.5l-113.9,0.1l-46.4,0c-6.7,0-82.1-0.1-88.9-0.1l-50.1-0.1l-94.4-0.2c-2.8,0,4.1,0-62.1-0.2l-74.7-0.3
	l-43.2-0.2c-10.8-0.1-15.8,0-18.3-0.4c-2.4-0.3-0.7,0-0.7,0"/>
<path id="path160-9" inkscape:connector-curvature="0" class="st0" d="M845.1,2135.6c-0.1-0.1-5.3-0.4-7.3-1.8
	c-0.1-0.1-4.5-3.7-5-4.2c-4.6-3.9-7.7-10.1-9.2-11.9c-3.4-4.1-8.5-16.7-9.8-20.5c-6.1-17.6-9.6-42.5-8.2-45.5
	c1.2-2.6,5.9-3.8,6.4-4.1c1.8-0.9,6.1-6.9,6.3-7.4c0.3-0.7,0.6-1.5,0.7-13.2l0.1-34.7l0.1-69l0.1-162.1l0-98.8
	c0-40.6,0,11.7,0-175.6c0-4.9,0,4.3-0.1-138.2l-0.1-53.7l-0.1-27c0-7.7-0.1-15-0.1-15.5c0.1-1.8,1.1-5.3-3.5-9.4
	c-5-4.6-8-3.4-9.1-6.1c-0.1-0.3-1.7-10,0.9-20c1.6-6.3-1.2,0,2.8-13.7c9.6-33.4,19-41.2,19-41.2"/>
<path id="path162-2" inkscape:connector-curvature="0" class="st0" d="M1462.5,2121.9L1462.5,2121.9c-13.2-12.2-9.4-6.3-15.1-11.6
	c-11-10.2-9.5-9.1-9.7-47.3l-0.2-30.1l-0.2-49.7l-0.1-69.4c0-0.6,0-0.6-0.1-66.7l-0.1-228.7c0-3.8,0-28.5,0-427.3
	c15-14.8,10.4-9.6,15-13.1c7.4-5.6,6.2-2.7,8.8-6.2c1.3-1.7,0.6-1.3,1.4-1.5c0.2,0,0.6,0.4,0.6,0.4"/>
<path id="path148-28" inkscape:connector-curvature="0" class="st0" d="M1916.2,1643c0,31.3-25.4,56.7-56.7,56.7
	c-31.3,0-56.7-25.4-56.7-56.7c0-31.3,25.4-56.7,56.7-56.7C1890.8,1586.3,1916.2,1611.7,1916.2,1643z"/>
<path id="path150-9" inkscape:connector-curvature="0" class="st0" d="M1536.9,1160.9c0.1,0,3.3-3,7-5.5c2.5-1.7,5.8-3.1,6.4-3.3
	c2.1-0.6,11.5-0.9,17-1c0.2,0,18.3-0.2,18.5-0.2c0.2,0,16.4-0.2,17.7-0.2l42.5-0.3l23.3-0.1l36.5-0.1c0.6,0,7.6,0,7.7,0l26.7-0.1
	l72.3-0.4l22.6-0.1l51.2-0.2l72.4-0.2l32.6,0c8.1,0,85.3-0.1,86.9-0.1l30.6,0c1.3,0,17,0,17.2,0c1.8,0,11.8,0.1,12.9,0.1
	c20.6,0.4,28.5,7.1,37.7,30.2c16.3,40.8,14.6,61.9,14.6,67.1l0.1,33.9l0,52.5c0,1,0,96.7-0.1,117l-0.1,115.8
	c-2.9,3.1-3.5,4.2-3.7,14.8c0,0.1-0.1,13.3-0.1,13.4l-0.1,21.2v70.8c0,3.2,0,23.7,0,23.9c0.1,3.3,1,5.7,3.9,9.4l0.1,188.8
	c0,4.3,0,83.1,0,95.9c0,13.8,0,14,0,14.1l-0.1,24.1c-0.1,18.1,1.6,30.9-13,64.3c-4.2,9.6-7.6,15.3-11.4,18.7
	c-8.8,7.7-12.1,7.2-19.9,10.5l-113.9,0.1l-46.4,0c-6.7,0-82.1-0.1-88.9-0.1l-50.1-0.1l-94.4-0.2c-2.8,0,4.1,0-62.1-0.2l-74.7-0.3
	l-43.2-0.2c-10.8-0.1-15.8,0-18.3-0.4c-2.4-0.3-0.7,0-0.7,0"/>
<path id="path152-7" inkscape:connector-curvature="0" class="st0" d="M1553.2,2134.3c-0.1-0.1-5.3-0.4-7.3-1.8
	c-0.1-0.1-4.5-3.7-5-4.2c-4.6-3.9-7.7-10.1-9.2-11.9c-3.4-4.1-8.5-16.7-9.8-20.5c-6.1-17.6-9.6-42.5-8.2-45.5
	c1.2-2.6,5.9-3.8,6.4-4.1c1.8-0.9,6.1-6.9,6.3-7.4c0.3-0.7,0.6-1.5,0.7-13.2l0.1-34.7l0.1-69l0.1-162.1l0-98.8
	c0-40.6,0,11.7,0-175.6c0-4.9,0,4.3-0.1-138.2l-0.1-53.7l-0.1-27c0-7.7-0.1-15-0.1-15.5c0.1-1.8,1.1-5.3-3.5-9.4
	c-5-4.6-8-3.4-9.1-6.1c-0.1-0.3-1.7-10,0.9-20c1.6-6.3-1.2,0,2.8-13.7c9.6-33.4,19-41.2,19-41.2"/>
<path id="path154-36" inkscape:connector-curvature="0" class="st0" d="M2170.7,2120.7L2170.7,2120.7c-13.2-12.2-9.4-6.3-15.1-11.6
	c-11-10.2-9.5-9.1-9.7-47.3l-0.2-30.1l-0.2-49.7l-0.1-69.4c0-0.6,0-0.6-0.1-66.7l-0.1-228.7c0-3.8,0-28.5,0-427.3
	c15-14.8,10.4-9.6,15-13.1c7.4-5.6,6.2-2.7,8.8-6.2c1.3-1.7,0.6-1.3,1.4-1.5c0.2,0,0.6,0.4,0.6,0.4"/>
<path id="path156-1" inkscape:connector-curvature="0" class="st0" d="M1916.2,1643c0,31.3-25.4,56.7-56.7,56.7
	c-31.3,0-56.7-25.4-56.7-56.7c0-31.3,25.4-56.7,56.7-56.7C1890.8,1586.3,1916.2,1611.7,1916.2,1643z"/>
<path id="path158-2" inkscape:connector-curvature="0" class="st0" d="M1536.9,1160.9c0.1,0,3.3-3,7-5.5c2.5-1.7,5.8-3.1,6.4-3.3
	c2.1-0.6,11.5-0.9,17-1c0.2,0,18.3-0.2,18.5-0.2c0.2,0,16.4-0.2,17.7-0.2l42.5-0.3l23.3-0.1l36.5-0.1c0.6,0,7.6,0,7.7,0l26.7-0.1
	l72.3-0.4l22.6-0.1l51.2-0.2l72.4-0.2l32.6,0c8.1,0,85.3-0.1,86.9-0.1l30.6,0c1.3,0,17,0,17.2,0c1.8,0,11.8,0.1,12.9,0.1
	c20.6,0.4,28.5,7.1,37.7,30.2c16.3,40.8,14.6,61.9,14.6,67.1l0.1,33.9l0,52.5c0,1,0,96.7-0.1,117l-0.1,115.8
	c-2.9,3.1-3.5,4.2-3.7,14.8c0,0.1-0.1,13.3-0.1,13.4l-0.1,21.2v70.8c0,3.2,0,23.7,0,23.9c0.1,3.3,1,5.7,3.9,9.4l0.1,188.8
	c0,4.3,0,83.1,0,95.9c0,13.8,0,14,0,14.1l-0.1,24.1c-0.1,18.1,1.6,30.9-13,64.3c-4.2,9.6-7.6,15.3-11.4,18.7
	c-8.8,7.7-12.1,7.2-19.9,10.5l-113.9,0.1l-46.4,0c-6.7,0-82.1-0.1-88.9-0.1l-50.1-0.1l-94.4-0.2c-2.8,0,4.1,0-62.1-0.2l-74.7-0.3
	l-43.2-0.2c-10.8-0.1-15.8,0-18.3-0.4c-2.4-0.3-0.7,0-0.7,0"/>
<path id="path160-93" inkscape:connector-curvature="0" class="st0" d="M1553.2,2134.3c-0.1-0.1-5.3-0.4-7.3-1.8
	c-0.1-0.1-4.5-3.7-5-4.2c-4.6-3.9-7.7-10.1-9.2-11.9c-3.4-4.1-8.5-16.7-9.8-20.5c-6.1-17.6-9.6-42.5-8.2-45.5
	c1.2-2.6,5.9-3.8,6.4-4.1c1.8-0.9,6.1-6.9,6.3-7.4c0.3-0.7,0.6-1.5,0.7-13.2l0.1-34.7l0.1-69l0.1-162.1l0-98.8
	c0-40.6,0,11.7,0-175.6c0-4.9,0,4.3-0.1-138.2l-0.1-53.7l-0.1-27c0-7.7-0.1-15-0.1-15.5c0.1-1.8,1.1-5.3-3.5-9.4
	c-5-4.6-8-3.4-9.1-6.1c-0.1-0.3-1.7-10,0.9-20c1.6-6.3-1.2,0,2.8-13.7c9.6-33.4,19-41.2,19-41.2"/>
<path id="path162-1" inkscape:connector-curvature="0" class="st0" d="M2170.7,2120.7L2170.7,2120.7c-13.2-12.2-9.4-6.3-15.1-11.6
	c-11-10.2-9.5-9.1-9.7-47.3l-0.2-30.1l-0.2-49.7l-0.1-69.4c0-0.6,0-0.6-0.1-66.7l-0.1-228.7c0-3.8,0-28.5,0-427.3
	c15-14.8,10.4-9.6,15-13.1c7.4-5.6,6.2-2.7,8.8-6.2c1.3-1.7,0.6-1.3,1.4-1.5c0.2,0,0.6,0.4,0.6,0.4"/>
</svg>
