<?xml version="1.0" encoding="utf-8"?>
<!-- Generator: Adobe Illustrator 25.2.1, SVG Export Plug-In . SVG Version: 6.00 Build 0)  -->
<svg version="1.1" id="Layer_1" xmlns="http://www.w3.org/2000/svg" xmlns:xlink="http://www.w3.org/1999/xlink" x="0px" y="0px"
	 viewBox="0 0 4280.3 1133.9" style="enable-background:new 0 0 4280.3 1133.9;" xml:space="preserve">
<style type="text/css">
	.st0{fill:none;stroke:#010101;stroke-miterlimit:11.3386;}
</style>
<g>
	<path id="rect815_4_" class="st0" d="M724.2,984.5l0.1,32.3c0,14.1-11.4,25.5-25.5,25.5H102.3c-14.1,0-25.5-11.4-25.5-25.5V117
		c0-14.1,11.4-25.5,25.5-25.5h596.5c14.1,0,25.6,11.4,25.5,25.5l-0.1,31.8"/>
	<path id="rect817_4_" class="st0" d="M724.2,984.5H702V148.8h22.2"/>
	<path id="path821_4_" class="st0" d="M404.2,617.8c-28.2,0-51-22.9-51-51c0-28.2,22.9-51,51-51l0,0c28.2,0,51,22.9,51,51
		C455.2,595,432.3,617.8,404.2,617.8L404.2,617.8z"/>
</g>
</svg>
