<?xml version="1.0" encoding="utf-8"?>
<!-- Generator: Adobe Illustrator 25.2.1, SVG Export Plug-In . SVG Version: 6.00 Build 0)  -->
<svg version="1.1" id="Layer_1" xmlns="http://www.w3.org/2000/svg" xmlns:xlink="http://www.w3.org/1999/xlink" x="0px" y="0px"
	 viewBox="0 0 4280.3 1133.9" style="enable-background:new 0 0 4280.3 1133.9;" xml:space="preserve">
<style type="text/css">
	.st0{fill:none;stroke:#000000;stroke-miterlimit:10;}
</style>
<g>
	<path class="st0" d="M680.8,74.8l-562.2,0.8c-4.2,0-8.4,0.8-12,2.2c-1.4,0.6-4.3,1.9-7.4,4.4c-2.8,2.5-4.4,5.2-5.3,7
		c0,0-0.7,1.5-1,3.3c-0.2,1-0.3,2-0.3,3.2V1039c0,0,0,2.1,0.6,4.1c0,0.1,0.1,0.2,0.1,0.4c0.2,0.7,0.5,1.9,1.3,3.3
		c1,1.9,2.4,3.7,4.4,5.5c2.5,2.2,5.6,3.9,9.5,5.4c4.1,1.4,569.9,2.6,572.3,2.6"/>
	<path class="st0" d="M680.8,74.8v985.5c-0.1,0.4-0.4,0.7-0.7,0.7"/>
	<ellipse class="st0" cx="394.9" cy="568" rx="59.9" ry="59.7"/>
</g>
</svg>
