<?xml version="1.0" encoding="utf-8"?>
<!-- Generator: Adobe Illustrator 24.2.2, SVG Export Plug-In . SVG Version: 6.00 Build 0)  -->
<svg version="1.1"
	 id="svg48" xmlns:cc="http://creativecommons.org/ns#" xmlns:dc="http://purl.org/dc/elements/1.1/" xmlns:inkscape="http://www.inkscape.org/namespaces/inkscape" xmlns:rdf="http://www.w3.org/1999/02/22-rdf-syntax-ns#" xmlns:sodipodi="http://sodipodi.sourceforge.net/DTD/sodipodi-0.dtd" xmlns:svg="http://www.w3.org/2000/svg"
	 xmlns="http://www.w3.org/2000/svg" xmlns:xlink="http://www.w3.org/1999/xlink" x="0px" y="0px" viewBox="0 0 3401.6 2222.4"
	 style="enable-background:new 0 0 3401.6 2222.4;" xml:space="preserve">
<style type="text/css">
	.st0{fill:none;stroke:#000000;stroke-width:0.2;stroke-linecap:round;stroke-linejoin:round;}
	.st1{fill:none;stroke:#000000;stroke-width:0.1437;stroke-linecap:round;stroke-linejoin:round;}
	.st2{fill:none;stroke:#000000;stroke-width:0.2646;}
</style>
<sodipodi:namedview  bordercolor="#666666" borderopacity="1" gridtolerance="10" guidetolerance="10" id="namedview50" inkscape:current-layer="svg48" inkscape:cx="950.7037" inkscape:cy="3571.1175" inkscape:pageopacity="0" inkscape:pageshadow="2" inkscape:window-height="887" inkscape:window-maximized="1" inkscape:window-width="1664" inkscape:window-x="0" inkscape:window-y="28" inkscape:zoom="0.11263502" objecttolerance="10" pagecolor="#ffffff" showgrid="false">
	</sodipodi:namedview>
<g id="g1812" transform="matrix(1.004824,0,0,1.0029849,-1.1712416,-1.1927285)">
	<path id="path4-0" inkscape:connector-curvature="0" class="st0" d="M27.5,1292.1h0.7h22.7c0,0,0,733.5,0,815"/>
	<path id="path6-63" inkscape:connector-curvature="0" class="st0" d="M50.8,2116.9v32.5H28.1h-0.7"/>
	<path id="path34-56" inkscape:connector-curvature="0" class="st1" d="M50.8,2107.2v9.4"/>
	<path id="rect931" inkscape:connector-curvature="0" class="st2" d="M61.4,1247.8h577.6c18.8,0,34,15.2,34,34V2162
		c0,18.8-15.2,34-34,34H61.4c-18.8,0-34-15.2-34-34v-880.1C27.3,1263,42.5,1247.8,61.4,1247.8L61.4,1247.8z"/>
	<path id="path10" inkscape:connector-curvature="0" class="st0" d="M301,1712.6c0.9-5.6,3.3-11.9,6.8-17.5c1-1.7,5.4-8.5,13.4-14.2
		c3.7-2.7,9.5-6,16.6-7.8c1.6-0.4,4-1,8.2-1.3c1.6-0.1,5.8-0.3,10.4,0.1c8.8,0.9,16.1,4.5,20.7,7.5c3.4,2.2,9.4,6.7,14.6,14.3
		c1,1.5,3.5,5.3,5.5,11.2c0.2,0.5,1.8,5.4,2.5,10.9c0.2,1.6,0.6,4.6,0.3,8.3c-0.1,0.8-0.4,4.2-1.3,8.3c-1.4,6.3-3.6,11.7-7.3,17
		c-2.4,3.4-7.2,9.5-15.2,14.4c-3.6,2.2-7.5,4-12.9,5.6c-0.4,0.1-4,1.3-7.4,1.4c-2.5,0.1-12.1-0.2-12.7-0.2c-3-0.2-4.3-0.5-6.5-1.2
		c-16.4-4.9-24.9-15.8-27.8-20.1c-1.5-2.3-5.2-7.9-7.2-16.8c-0.8-3.4-1.3-7.5-1.2-11.6C300.4,1721,300.4,1716.3,301,1712.6"/>
	<path id="path12" inkscape:connector-curvature="0" class="st0" d="M307,1730.9c0.9,4.4,2.6,8.1,2.8,8.5c0.5,1.2,1.7,3.5,3,5.7
		c0.3,0.4,1.5,2.3,2.8,4c1.3,1.6,4.6,5.6,10.5,9.4c6,3.8,12.1,5.6,14.4,6.2c2,0.5,4.1,0.5,6.9,0.6l7.1,0c0,0,1.4,0,2.7-0.2
		c3.9-0.5,10.1-2.7,14.9-5.4c2.5-1.4,4.5-2.8,6.6-4.6c0.5-0.5,2.8-2.4,5.1-5.1c2.5-3,6.9-8.8,9-17.4c0.9-3.7,2-10.6,0.6-19.1
		c-0.4-2.6-1.7-9.2-6.7-16.6c-4.4-6.5-9.5-10.4-12.4-12.3c-6.6-4.4-12.2-5.7-14.5-6.1c-2.8-0.6-10.6-1.8-19-0.1
		c-5,1-18.7,5-27.9,19.2c-1.8,2.8-4.6,8-6.1,15.1c-0.6,2.9-1,5.1-0.9,8.6C306,1721.1,306.1,1726.6,307,1730.9"/>
	<path id="path14" inkscape:connector-curvature="0" class="st0" d="M340,1711.9c0,0,3.5-4.5,4.6-6c0.6-0.8,0.7-0.8,1.2-1.7
		c-0.1-0.1-0.3-0.3-0.4-0.4c-0.2-0.2-0.4-0.3-0.6-0.5c-0.3-0.2-0.6-0.5-0.9-0.7l-0.7-0.6c0,0-0.4-0.3-0.7-0.7c0,0-0.6-0.7-0.9-1.3
		c-0.1-0.1-0.9-1.3-1.3-2.7c-0.2-0.7-0.3-1.3-0.3-2.5c-0.1-1.5-0.1-9.8-0.1-10.3h21.5c0,3.5,0,5-0.3,10c0,0.6-0.1,2.1-0.3,2.8
		c-0.1,0.5-0.4,1.3-1,2.2c0,0-0.7,1-1.6,2c-0.2,0.2-0.9,1-1.6,1.5c-0.2,0.2-0.5,0.4-0.8,0.6c-0.2,0.1-0.5,0.3-0.7,0.4l-0.1,0.2
		l0,0.2l8.4,10.8c0,0-1.8,2.4-2.2,3c-0.2,0.2-0.4,0.5-0.7,0.7c-0.1,0.1-0.3,0.2-0.4,0.3c-0.2-0.1-0.4-0.3-0.5-0.4
		c-0.2-0.2-0.4-0.4-0.5-0.6c-0.4-0.5-1-1.1-1.4-1.6c-0.7-0.9-2.7-3.4-2.9-3.5c0,0-1.4-1.6-2-2.2c-0.1-0.1-0.3-0.4-0.4-0.5
		c-0.1-0.1-0.3-0.2-0.4-0.3l-0.5,0.2l-0.4,0.4l-0.1,0.2c0.1,0.2,0.1,0.5,0.2,0.7c0.1,0.2,0.2,0.4,0.3,0.6c0.2,0.4,0.6,0.8,0.8,1.1
		c0.5,0.7,2.1,2.8,2.6,3.4c0,0,1.5,2,2.5,3.4c0.5,0.7,0.5,0.7,0.9,1.5c-0.5,1.1-0.6,1.2-1.4,2.2c0,0-1.6,1.9-1.8,2.1
		c-1.7-2.3-2.7-3.6-5-6.6c0,0-0.7-0.9-1.5-1.8c0,0-0.6-0.7-0.8-0.9c-0.2-0.2-0.5-0.4-0.7-0.5l-0.3,0c-0.1,0.1-0.3,0.2-0.4,0.4
		l-0.2,0.7c0.1,0.2,0.4,0.8,0.8,1.4c0.3,0.5,1.1,1.5,2.2,3c1.4,1.8,2.3,2.9,4.5,5.8h7.5v8h-15.1l-0.2,7.3h-6.3v-15.1l7.1-0.4
		c0,0-2.9-3.5-4.7-5.9c0,0-1.4-1.9-1.5-2c0,0-1.1-1.5-1.5-2c-0.7-0.9-0.7-1-1.3-2c0.2-0.3,0.3-0.7,0.5-0.9c0.2-0.3,0.5-0.6,0.7-0.9
		C339.3,1712.9,339.7,1712.4,340,1711.9"/>
	<path id="path16" inkscape:connector-curvature="0" class="st0" d="M347.3,1696.3c0.1,0.1,1.3,1.3,2.9,1.4c0.5,0,1.2,0,2-0.3
		c0,0,1.1-0.5,1.8-1.4c0.1-0.2,0.6-1.1,0.9-2.2c0-0.2,0.1-0.5,0.1-1l-0.2-0.5c-0.3-0.2-0.5-0.4-1-0.5l-0.7,0c-0.7,0-6.9-0.1-6.9-0.1
		c0,0.2-0.1,2.3,0.1,3.2C346.5,1695.4,347,1695.9,347.3,1696.3"/>
	<path id="path18" inkscape:connector-curvature="0" class="st0" d="M350.4,1744.5h11v7.6h-15.1l-0.2,7.3h-6.3l-0.2-14.9H350.4"/>
	<path id="path34_2_" inkscape:connector-curvature="0" class="st1" d="M49.9,2117.1"/>
	<path id="path34_1_" inkscape:connector-curvature="0" class="st1" d="M49.9,2107.7"/>
</g>
</svg>
