<?xml version="1.0" encoding="utf-8"?>
<!-- Generator: Adobe Illustrator 25.2.1, SVG Export Plug-In . SVG Version: 6.00 Build 0)  -->
<svg version="1.1"
	 id="svg48" xmlns:cc="http://creativecommons.org/ns#" xmlns:dc="http://purl.org/dc/elements/1.1/" xmlns:inkscape="http://www.inkscape.org/namespaces/inkscape" xmlns:rdf="http://www.w3.org/1999/02/22-rdf-syntax-ns#" xmlns:sodipodi="http://sodipodi.sourceforge.net/DTD/sodipodi-0.dtd" xmlns:svg="http://www.w3.org/2000/svg"
	 xmlns="http://www.w3.org/2000/svg" xmlns:xlink="http://www.w3.org/1999/xlink" x="0px" y="0px" viewBox="0 0 3401.6 2222.4"
	 style="enable-background:new 0 0 3401.6 2222.4;" xml:space="preserve">
<style type="text/css">
	.st0{fill:none;stroke:#000000;stroke-width:0.7534;stroke-miterlimit:11.3386;}
	.st1{fill:none;stroke:#000000;stroke-width:0.5695;stroke-linecap:round;stroke-linejoin:round;stroke-miterlimit:11.3386;}
	.st2{fill:none;stroke:#000000;stroke-width:0.4091;stroke-linecap:round;stroke-linejoin:round;stroke-miterlimit:11.3386;}
</style>
<sodipodi:namedview  bordercolor="#666666" borderopacity="1" gridtolerance="10" guidetolerance="10" id="namedview50" inkscape:current-layer="svg48" inkscape:cx="701.43664" inkscape:cy="2009.3781" inkscape:pageopacity="0" inkscape:pageshadow="2" inkscape:window-height="903" inkscape:window-maximized="1" inkscape:window-width="1680" inkscape:window-x="0" inkscape:window-y="28" inkscape:zoom="0.45054008" objecttolerance="10" pagecolor="#ffffff" showgrid="false">
	</sodipodi:namedview>
<g>
	<path inkscape:connector-curvature="0" class="st0" d="M1067.1,1102.7c0,18.8-15.4,34-34.5,34H449.8c-19.1,0-37.5-15.2-37.5-34
		V222.6c0-18.8,18.4-34,37.5-34h582.8c19.1,0,34.5,15.2,34.5,34V244"/>
	<path inkscape:connector-curvature="0" class="st0" d="M1067.1,1083.1v19.6"/>
	<g id="g144" transform="translate(-0.9996954)">
		<path id="path10" inkscape:connector-curvature="0" class="st1" d="M790.6,669.2c-0.9,5.6-3.3,11.9-6.9,17.5
			c-1,1.7-5.5,8.5-13.6,14.2c-3.8,2.7-9.6,6-16.8,7.8c-1.6,0.4-4.1,1-8.3,1.3c-1.6,0.1-5.9,0.3-10.6-0.1c-8.9-0.9-16.3-4.5-21-7.5
			c-3.5-2.2-9.6-6.7-14.8-14.3c-1.1-1.5-3.6-5.3-5.6-11.2c-0.2-0.5-1.8-5.4-2.5-10.9c-0.2-1.6-0.6-4.6-0.3-8.3
			c0.1-0.8,0.4-4.2,1.3-8.3c1.5-6.3,3.6-11.7,7.4-17c2.4-3.4,7.3-9.5,15.4-14.4c3.7-2.2,7.6-4,13.1-5.6c0.4-0.1,4.1-1.3,7.5-1.4
			c2.6-0.1,12.3,0.2,12.9,0.2c3,0.2,4.3,0.5,6.6,1.2c16.7,4.9,25.3,15.8,28.2,20.1c1.6,2.3,5.3,7.9,7.3,16.8
			c0.8,3.4,1.3,7.5,1.2,11.6C791.2,660.7,791.1,665.4,790.6,669.2"/>
		<path id="path12" inkscape:connector-curvature="0" class="st1" d="M784.5,650.8c-0.9-4.4-2.6-8.1-2.8-8.5
			c-0.5-1.2-1.7-3.5-3.1-5.7c-0.3-0.4-1.5-2.3-2.9-4c-1.3-1.6-4.6-5.6-10.7-9.4c-6-3.8-12.3-5.6-14.6-6.2c-2.1-0.5-4.2-0.5-7-0.6
			l-7.2,0c0,0-1.4,0-2.8,0.2c-4,0.5-10.2,2.7-15.1,5.4c-2.5,1.4-4.5,2.8-6.7,4.6c-0.6,0.5-2.8,2.4-5.1,5.1c-2.5,3-7,8.8-9.1,17.4
			c-0.9,3.7-2.1,10.6-0.6,19.1c0.4,2.6,1.7,9.2,6.8,16.6c4.5,6.5,9.6,10.4,12.6,12.3c6.7,4.4,12.4,5.7,14.7,6.1
			c2.8,0.6,10.7,1.8,19.2,0.1c5-1,19-5,28.2-19.2c1.8-2.8,4.6-8,6.2-15.1c0.6-2.9,1-5.1,0.9-8.6
			C785.5,660.6,785.4,655.1,784.5,650.8"/>
		<path id="path14" inkscape:connector-curvature="0" class="st1" d="M751,669.8c0,0-3.5,4.5-4.7,6c-0.6,0.8-0.7,0.8-1.2,1.7
			c0.1,0.1,0.3,0.3,0.4,0.4c0.2,0.2,0.4,0.3,0.6,0.5c0.3,0.2,0.6,0.5,0.9,0.7l0.7,0.6c0,0,0.4,0.3,0.7,0.7c0,0,0.6,0.7,0.9,1.3
			c0.1,0.1,0.9,1.3,1.3,2.7c0.2,0.7,0.3,1.3,0.3,2.5c0.1,1.5,0.1,9.8,0.1,10.3h-21.8c0-3.5,0-5,0.3-10c0-0.6,0.1-2.1,0.3-2.8
			c0.1-0.5,0.4-1.3,1-2.2c0,0,0.7-1,1.6-2c0.2-0.2,0.9-1,1.6-1.5c0.2-0.2,0.5-0.4,0.8-0.6c0.2-0.1,0.5-0.3,0.8-0.4l0.1-0.2l0-0.2
			l-8.5-10.8c0,0,1.8-2.4,2.3-3c0.2-0.2,0.4-0.5,0.7-0.7c0.1-0.1,0.3-0.2,0.4-0.3c0.2,0.1,0.4,0.3,0.5,0.4c0.2,0.2,0.4,0.4,0.6,0.6
			c0.4,0.5,1,1.1,1.4,1.6c0.7,0.9,2.8,3.4,2.9,3.5c0,0,1.4,1.6,2,2.2c0.1,0.1,0.3,0.4,0.4,0.5c0.1,0.1,0.3,0.2,0.4,0.3l0.5-0.2
			l0.4-0.4l0.1-0.2c-0.1-0.2-0.1-0.5-0.2-0.7c-0.1-0.2-0.2-0.4-0.3-0.6c-0.2-0.4-0.6-0.8-0.8-1.1c-0.5-0.7-2.1-2.8-2.7-3.4
			c0,0-1.6-2-2.5-3.4c-0.5-0.7-0.5-0.7-0.9-1.5c0.5-1.1,0.6-1.2,1.4-2.2c0,0,1.6-1.9,1.8-2.1c1.8,2.3,2.8,3.6,5.1,6.6
			c0,0,0.7,0.9,1.5,1.8c0,0,0.6,0.7,0.8,0.9c0.2,0.2,0.5,0.4,0.7,0.5l0.3,0c0.1-0.1,0.3-0.2,0.4-0.4l0.2-0.7
			c-0.1-0.2-0.4-0.8-0.9-1.4c-0.3-0.5-1.1-1.5-2.3-3c-1.4-1.8-2.3-2.9-4.6-5.8h-7.6v-8h15.3l0.2-7.3h6.4v15.1l-7.2,0.4
			c0,0,2.9,3.5,4.8,5.9c0,0,1.5,1.9,1.5,2c0,0,1.1,1.5,1.5,2c0.7,0.9,0.7,1,1.3,2c-0.2,0.3-0.3,0.7-0.5,0.9
			c-0.2,0.3-0.5,0.6-0.7,0.9C751.8,668.8,751.4,669.4,751,669.8"/>
		<path id="path16" inkscape:connector-curvature="0" class="st1" d="M743.6,685.4c-0.1-0.1-1.3-1.3-3-1.4c-0.5,0-1.2,0-2,0.3
			c0,0-1.2,0.5-1.8,1.4c-0.1,0.2-0.7,1.1-0.9,2.2c0,0.2-0.1,0.5-0.1,1l0.2,0.5c0.3,0.2,0.5,0.4,1,0.5l0.7,0c0.7,0,7,0.1,7,0.1
			c0-0.2,0.1-2.3-0.1-3.2C744.4,686.3,744,685.8,743.6,685.4"/>
		<path id="path18" inkscape:connector-curvature="0" class="st1" d="M740.5,637.2h-11.1v-7.6h15.3l0.2-7.3h6.4l0.2,14.9H740.5"/>
	</g>
	<polyline class="st2" points="1067.1,1083.1 1041.6,1083.1 1041.6,244 1067.1,244 	"/>
	<path class="st2" d="M1067.1,1083.1"/>
	<path class="st2" d="M1067.1,244"/>
	<path class="st0" d="M1174.8-196.5"/>
</g>
</svg>
