<?xml version="1.0" encoding="UTF-8" standalone="no"?>
<!-- Created with Inkscape (http://www.inkscape.org/) -->

<svg
   xmlns:dc="http://purl.org/dc/elements/1.1/"
   xmlns:cc="http://creativecommons.org/ns#"
   xmlns:rdf="http://www.w3.org/1999/02/22-rdf-syntax-ns#"
   xmlns:svg="http://www.w3.org/2000/svg"
   xmlns="http://www.w3.org/2000/svg"
   xmlns:sodipodi="http://sodipodi.sourceforge.net/DTD/sodipodi-0.dtd"
   xmlns:inkscape="http://www.inkscape.org/namespaces/inkscape"
   width="700mm"
   height="700mm"
   viewBox="0 0 700 700"
   version="1.1"
   id="svg8"
   inkscape:version="0.92.3 (2405546, 2018-03-11)"
   sodipodi:docname="E7480_PR.svg">
  <defs
     id="defs2" />
  <sodipodi:namedview
     id="base"
     pagecolor="#ffffff"
     bordercolor="#666666"
     borderopacity="1.0"
     inkscape:pageopacity="0.0"
     inkscape:pageshadow="2"
     inkscape:zoom="0.35"
     inkscape:cx="-789.82822"
     inkscape:cy="1359.1477"
     inkscape:document-units="mm"
     inkscape:current-layer="layer1"
     showgrid="false"
     showguides="true"
     inkscape:guide-bbox="true"
     inkscape:window-width="1920"
     inkscape:window-height="1017"
     inkscape:window-x="-8"
     inkscape:window-y="-8"
     inkscape:window-maximized="1">
    <sodipodi:guide
       position="-405.56844,358.69942"
       orientation="1,0"
       id="guide1432"
       inkscape:locked="false" />
  </sodipodi:namedview>
  <metadata
     id="metadata5">
    <rdf:RDF>
      <cc:Work
         rdf:about="">
        <dc:format>image/svg+xml</dc:format>
        <dc:type
           rdf:resource="http://purl.org/dc/dcmitype/StillImage" />
        <dc:title></dc:title>
      </cc:Work>
    </rdf:RDF>
  </metadata>
  <g
     inkscape:label="Layer 1"
     inkscape:groupmode="layer"
     id="layer1"
     transform="translate(0,403)">
    <g
       id="g2997">
      <path
         sodipodi:nodetypes="cssssssssc"
         inkscape:connector-curvature="0"
         id="rect833"
         d="m -16.038177,-50.158897 h 28.720886 c 1.662,0 3,1.338 3,3 V 165.48811 c 0,1.662 -1.338,3 -3,3 H -309.96429 c -1.662,0 -3,-1.338 -3,-3 V -47.158897 c 0,-1.662 1.338,-3 3,-3 h 29.27911"
         style="opacity:1;fill:none;fill-opacity:0.25116284;stroke:#000000;stroke-width:0.35299999;stroke-miterlimit:4;stroke-dasharray:none;stroke-opacity:1" />
      <path
         sodipodi:nodetypes="cccc"
         inkscape:connector-curvature="0"
         id="rect835"
         d="m -16.038177,-50.158897 v 11.647 H -280.68518 v -11.647"
         style="opacity:1;fill:none;fill-opacity:0.25116284;stroke:#000000;stroke-width:0.35299999;stroke-miterlimit:4;stroke-dasharray:none;stroke-opacity:1" />
      <path
         id="rect1434"
         d="m -283.21017,-35.132122 h 269.646999 c 3.8779996,0 6.9999996,3.122 6.9999996,7 V 85.514881 c 0,3.878 -3.122,7 -6.9999996,7 H -283.21017 c -3.878,0 -7,-3.122 -7,-7 V -28.132122 c 0,-3.878 3.122,-7 7,-7 z"
         style="opacity:1;fill:none;fill-opacity:0.25116284;stroke:#000000;stroke-width:0.35299999;stroke-miterlimit:4;stroke-dasharray:none;stroke-opacity:1"
         inkscape:connector-curvature="0" />
      <path
         id="rect1436"
         d="m -208.31729,97.194092 h 96.647 c 1.108,0 2,0.892 2,2 V 162.8411 c 0,1.108 -0.892,1.99999 -2,1.99999 h -96.647 c -1.108,0 -2,-0.89199 -2,-1.99999 V 99.194092 c 0,-1.108 0.892,-2 2,-2 z"
         style="opacity:1;fill:none;fill-opacity:0.25116284;stroke:#000000;stroke-width:0.35299999;stroke-miterlimit:4;stroke-dasharray:none;stroke-opacity:1"
         inkscape:connector-curvature="0" />
      <path
         id="rect1440"
         d="m -207.90477,98.781593 h 95.647 c 0.554,0 1,0.446 1,1 v 48.646997 c 0,0.554 -0.446,1 -1,1 h -95.647 c -0.554,0 -1,-0.446 -1,-1 V 99.781593 c 0,-0.554 0.446,-1 1,-1 z"
         style="opacity:1;fill:none;fill-opacity:0.25116284;stroke:#000000;stroke-width:0.35299996;stroke-miterlimit:4;stroke-dasharray:none;stroke-opacity:1"
         inkscape:connector-curvature="0" />
      <path
         sodipodi:nodetypes="sssssssss"
         inkscape:connector-curvature="0"
         id="rect1442"
         d="m -206.71785,151.52269 h 44.82199 c 1.662,0 1.4125,-0.2495 1.4125,1.4125 v 8.822 c 0,1.662 0.2495,1.4125 -1.4125,1.4125 h -43.23449 c -1.662,0 -3,-1.338 -3,-3 v -7.2345 c 0,-1.662 -0.2495,-1.4125 1.4125,-1.4125 z"
         style="opacity:1;fill:none;fill-opacity:0.25116284;stroke:#000000;stroke-width:0.35299999;stroke-miterlimit:4;stroke-dasharray:none;stroke-opacity:1" />
      <path
         sodipodi:nodetypes="sssssssss"
         inkscape:connector-curvature="0"
         id="rect1442-7"
         d="m -113.37442,151.54527 h -44.82199 c -1.662,0 -1.4125,-0.2495 -1.4125,1.41251 v 8.822 c 0,1.662 -0.2495,1.4125 1.4125,1.4125 h 43.23449 c 1.662,0 3,-1.338 3,-3 v -7.2345 c 0,-1.66201 0.2495,-1.41251 -1.4125,-1.41251 z"
         style="opacity:1;fill:none;fill-opacity:0.25116284;stroke:#000000;stroke-width:0.35299999;stroke-miterlimit:4;stroke-dasharray:none;stroke-opacity:1" />
      <path
         id="path1460"
         d="m 10.39793,-24.479557 a 5.8235002,5.8235002 0 0 1 -5.8235005,5.8235 5.8235002,5.8235002 0 0 1 -5.8235001,-5.8235 5.8235002,5.8235002 0 0 1 5.8235001,-5.8235 5.8235002,5.8235002 0 0 1 5.8235005,5.8235 z"
         style="opacity:1;fill:none;fill-opacity:0.25116284;stroke:#000000;stroke-width:0.35299999;stroke-miterlimit:4;stroke-dasharray:none;stroke-opacity:1"
         inkscape:connector-curvature="0" />
    </g>
  </g>
</svg>
