<?xml version="1.0" encoding="utf-8"?>
<!-- Generator: Adobe Illustrator 27.5.0, SVG Export Plug-In . SVG Version: 6.00 Build 0)  -->
<svg version="1.1"
	 id="svg8" xmlns:svg="http://www.w3.org/2000/svg" xmlns:inkscape="http://www.inkscape.org/namespaces/inkscape" xmlns:rdf="http://www.w3.org/1999/02/22-rdf-syntax-ns#" xmlns:sodipodi="http://sodipodi.sourceforge.net/DTD/sodipodi-0.dtd" xmlns:cc="http://creativecommons.org/ns#" xmlns:dc="http://purl.org/dc/elements/1.1/"
	 xmlns="http://www.w3.org/2000/svg" xmlns:xlink="http://www.w3.org/1999/xlink" x="0px" y="0px" viewBox="0 0 1127.5 750.3"
	 style="enable-background:new 0 0 1127.5 750.3;" xml:space="preserve">
<style type="text/css">
	.st0{fill:none;stroke:#000000;stroke-width:1.0006;stroke-miterlimit:11.3386;}
</style>
<sodipodi:namedview  bordercolor="#666666" borderopacity="1.0" id="base" inkscape:current-layer="layer1" inkscape:cx="-509.23849" inkscape:cy="831.42857" inkscape:document-units="mm" inkscape:guide-bbox="true" inkscape:pageopacity="0.0" inkscape:pageshadow="2" inkscape:window-height="1017" inkscape:window-maximized="1" inkscape:window-width="1920" inkscape:window-x="-8" inkscape:window-y="-8" inkscape:zoom="0.7" pagecolor="#ffffff" showgrid="false" showguides="false">
	<sodipodi:guide  id="guide819" inkscape:locked="false" orientation="1,0" position="-218.84821,204.10715"></sodipodi:guide>
</sodipodi:namedview>
<g id="layer1" inkscape:groupmode="layer" inkscape:label="Layer 1">
	<g id="g831">
		<path id="rect815" inkscape:connector-curvature="0" sodipodi:nodetypes="cssssssssc" class="st0" d="M892.7,40.9l79.5,0.2
			c6.3,0,12.8,6.6,12.8,12.8v602.6c0,6.3-2.1,8.3-8.3,8.3H57.8c-6.3,0-8.3-2.1-8.3-8.3V53.9C49.4,47.6,56,41,62.3,41l83.1-0.2"/>
		<path id="rect817" inkscape:connector-curvature="0" sodipodi:nodetypes="cssssc" class="st0" d="M892.7,40.9v21.8
			c0,1.6-1.3,2.8-2.8,2.8H148.2c-1.6,0-2.8-1.3-2.8-2.8V40.9"/>
		<path id="path821" inkscape:connector-curvature="0" sodipodi:nodetypes="sssss" class="st0" d="M569.8,352.9
			c0,27.9-22.6,50.5-50.5,50.5s-50.5-22.6-50.5-50.5s22.6-50.5,50.5-50.5C547.2,302.4,569.8,325,569.8,352.9z"/>
	</g>
</g>
</svg>
