<?xml version="1.0" encoding="utf-8"?>
<!-- Generator: Adobe Illustrator 25.4.1, SVG Export Plug-In . SVG Version: 6.00 Build 0)  -->
<svg version="1.1" id="Layer_1" xmlns="http://www.w3.org/2000/svg" xmlns:xlink="http://www.w3.org/1999/xlink" x="0px" y="0px"
	 viewBox="0 0 4280.3 1133.9" style="enable-background:new 0 0 4280.3 1133.9;" xml:space="preserve">
<style type="text/css">
	.st0{fill:none;stroke:#000000;stroke-miterlimit:10;}
</style>
<g>
	<g>
		<path class="st0" d="M361.3,1053.4"/>
		<line class="st0" x1="501.7" y1="1053.4" x2="328.8" y2="1053.4"/>
		<path class="st0" d="M472.8,1053.4"/>
		<path class="st0" d="M759.6,719.5"/>
		<line class="st0" x1="759.1" y1="631.1" x2="759.6" y2="795.5"/>
		<line class="st0" x1="759.6" y1="327.8" x2="759.1" y2="492.2"/>
		<path class="st0" d="M464.6,69.8"/>
		<line class="st0" x1="328.8" y1="69.8" x2="501.7" y2="69.8"/>
		<path class="st0" d="M70.8,390.8"/>
		<line class="st0" x1="70.8" y1="795.5" x2="70.8" y2="327.8"/>
		<g>
			<path class="st0" d="M70.8,795.5"/>
			<path class="st0" d="M70.8,795.5"/>
			<path class="st0" d="M328.8,1053.4"/>
			<path class="st0" d="M328.8,1053.4"/>
			<path class="st0" d="M328.8,1053.4"/>
			<path class="st0" d="M297.3,1021.9"/>
			<line class="st0" x1="121.8" y1="846.5" x2="277.8" y2="1002.4"/>
			<path class="st0" d="M70.8,795.5"/>
		</g>
		<g>
			<path class="st0" d="M70.8,327.8"/>
			<path class="st0" d="M70.8,327.8"/>
			<path class="st0" d="M328.8,69.8"/>
			<path class="st0" d="M328.8,69.8"/>
			<path class="st0" d="M328.8,69.8"/>
			<path class="st0" d="M305.9,92.7"/>
			<line class="st0" x1="121.8" y1="276.7" x2="277.8" y2="120.8"/>
			<path class="st0" d="M70.8,327.8"/>
		</g>
		<g>
			<path class="st0" d="M759.6,795.5"/>
			<path class="st0" d="M759.6,795.5"/>
			<path class="st0" d="M501.7,1053.4"/>
			<path class="st0" d="M501.7,1053.4"/>
			<path class="st0" d="M501.7,1053.4"/>
			<path class="st0" d="M522.2,1032.9"/>
			<line class="st0" x1="708.6" y1="846.5" x2="552.7" y2="1002.4"/>
			<path class="st0" d="M734.1,821"/>
			<path class="st0" d="M759.6,795.5"/>
		</g>
		<g>
			<path class="st0" d="M759.6,327.8"/>
			<path class="st0" d="M759.6,327.8"/>
			<path class="st0" d="M501.7,69.8"/>
			<path class="st0" d="M501.7,69.8"/>
			<path class="st0" d="M527.2,95.3"/>
			<line class="st0" x1="708.6" y1="276.7" x2="552.7" y2="120.8"/>
			<path class="st0" d="M759.6,327.8"/>
		</g>
		<path class="st0" d="M70.8,795.5"/>
		<line class="st0" x1="70.8" y1="846.5" x2="70.8" y2="795.5"/>
		<line class="st0" x1="121.8" y1="846.5" x2="70.8" y2="846.5"/>
		<path class="st0" d="M121.8,846.5"/>
		<line class="st0" x1="70.8" y1="276.7" x2="121.8" y2="276.7"/>
		<line class="st0" x1="70.8" y1="327.8" x2="70.8" y2="276.7"/>
		<path class="st0" d="M70.8,327.8"/>
		<path class="st0" d="M121.8,276.7"/>
		<path class="st0" d="M277.8,1002.4"/>
		<line class="st0" x1="277.8" y1="1053.4" x2="277.8" y2="1002.4"/>
		<line class="st0" x1="328.8" y1="1053.4" x2="277.8" y2="1053.4"/>
		<path class="st0" d="M328.8,1053.4"/>
		<path class="st0" d="M552.7,1002.4"/>
		<path class="st0" d="M501.7,1053.4"/>
		<line class="st0" x1="552.7" y1="1053.4" x2="501.7" y2="1053.4"/>
		<line class="st0" x1="552.7" y1="1002.4" x2="552.7" y2="1053.4"/>
		<path class="st0" d="M759.6,795.5"/>
		<path class="st0" d="M708.6,846.5"/>
		<line class="st0" x1="759.6" y1="846.5" x2="708.6" y2="846.5"/>
		<line class="st0" x1="759.6" y1="795.5" x2="759.6" y2="846.5"/>
		<line class="st0" x1="708.6" y1="276.7" x2="759.6" y2="276.7"/>
		<path class="st0" d="M708.6,276.7"/>
		<path class="st0" d="M759.6,327.8"/>
		<line class="st0" x1="759.6" y1="276.7" x2="759.6" y2="327.8"/>
		<line class="st0" x1="501.7" y1="69.8" x2="552.7" y2="69.8"/>
		<path class="st0" d="M501.7,69.8"/>
		<path class="st0" d="M552.7,120.8"/>
		<line class="st0" x1="552.7" y1="69.8" x2="552.7" y2="120.8"/>
		<line class="st0" x1="277.8" y1="69.8" x2="328.8" y2="69.8"/>
		<line class="st0" x1="277.8" y1="120.8" x2="277.8" y2="69.8"/>
		<path class="st0" d="M277.8,120.8"/>
		<path class="st0" d="M328.8,69.8"/>
	</g>
	<polyline class="st0" points="759.1,631.1 739.3,631.1 739.3,492.2 759.1,492.2 	"/>
	<path class="st0" d="M759.1,631.1"/>
	<path class="st0" d="M759.1,492.2"/>
	<circle class="st0" cx="415.2" cy="561.6" r="59.5"/>
	<circle class="st0" cx="530" cy="1036" r="9.9"/>
	<circle class="st0" cx="300.5" cy="1036" r="9.9"/>
	<circle class="st0" cx="300.5" cy="86.8" r="9.9"/>
	<circle class="st0" cx="530" cy="86.8" r="9.9"/>
	<circle class="st0" cx="93.5" cy="821" r="9.9"/>
	<circle class="st0" cx="93.5" cy="302.3" r="9.9"/>
	<circle class="st0" cx="93.5" cy="561.6" r="9.9"/>
	<circle class="st0" cx="742.1" cy="823.8" r="9.9"/>
	<circle class="st0" cx="742.1" cy="299.4" r="9.9"/>
</g>
</svg>
