<?xml version="1.0" encoding="utf-8"?>
<!-- Generator: Adobe Illustrator 27.5.0, SVG Export Plug-In . SVG Version: 6.00 Build 0)  -->
<svg version="1.1" id="Layer_1" xmlns="http://www.w3.org/2000/svg" xmlns:xlink="http://www.w3.org/1999/xlink" x="0px" y="0px"
	 viewBox="0 0 4280.3 1133.9" style="enable-background:new 0 0 4280.3 1133.9;" xml:space="preserve">
<style type="text/css">
	.st0{fill:none;stroke:#000000;stroke-miterlimit:10;}
	.st1{fill:none;stroke:#010101;stroke-miterlimit:10;}
	.st2{fill:#030303;}
	.st3{fill:none;stroke:#030303;stroke-miterlimit:10;}
</style>
<g>
	<path class="st0" d="M992,228.6h81c12.5,0,22.7,10.2,22.7,22.7v564c0,9.4-7.6,17-17,17H205.6c-9.4,0-17-7.6-17-17V251.3
		c0-12.5,10.2-22.7,22.7-22.7h80"/>
	<line class="st0" x1="314" y1="228.6" x2="969.3" y2="228.6"/>
	<g>
		<path class="st1" d="M592.2,530.5c0-28.2,21.8-50,50-50s51,21.8,51,50c0,28.2-22.8,51-51,51S592.2,558.6,592.2,530.5z"/>
		<g>
			<path id="path817" class="st2" d="M647.3,519.3L647.3,519.3l6.1,4.1l6,4.1l0.3-0.7l0.3-0.7l0.3-0.7l0.3-0.7l0.4-0.5l0.4-0.5
				l0.3-0.3l0.3-0.3l0.6-0.5l0.6-0.5l0.7-0.3l0.7-0.3l0.5-0.2l0.5-0.2l0.3-0.1l0.3-0.1l0.3-0.1l0.3-0.1l0.6-0.1l0.6-0.1h4.8h4.8v9.9
				v9.9h-0.1h-0.1h-4.7H668l-0.5-0.1l-0.5-0.1l-0.8-0.2l-0.8-0.2l-0.8-0.3l-0.8-0.3l-0.4-0.3l-0.4-0.3l-0.4-0.3l-0.4-0.3l-0.6-0.6
				l-0.6-0.6l-0.3-0.3l-0.3-0.3l-0.3-0.7l-0.3-0.7l-0.2-0.5l-0.2-0.5l-0.1-0.1l-0.1-0.1l-0.2,0.1l-0.2,0.1l-5.9,3.8l-5.9,3.8h-0.1
				h-0.1l-2.2-1.5l-2.2-1.5v-0.1v-0.1l4.7-3l4.7-3l0,0l0,0l-0.7-0.4l-0.7-0.4l-0.3,0.2l-0.3,0.2l-4.5,2.9l-4.5,2.9h-0.1h-0.1l-2-1.3
				l-2-1.3v-0.1v-0.1l2.8-1.9l2.8-1.9l1.8-1.2l1.8-1.2l-0.8-0.4l-0.8-0.4l-4.8,3.1l-4.8,3.1v3.3v3.3H631h-3.6v-6.7v-6.7h-3.2H621
				v-3.2v-3.2h6.8h6.8v3.2v3.2l5.9-3.8L647.3,519.3L647.3,519.3L647.3,519.3z M647.3,519.5L647.3,519.5l-5.9,3.8l-5.8,3.8h-0.1h-0.1
				v-3.3v-3.3h-6.7H622v3.1v3.1h3.2h3.2v6.7v6.6h3.5h3.5v-3.3v-3.3l4.8-3.1l4.8-3.1h0.1H645l0.8,0.5l0.8,0.5v0.1v0.1l-4.7,3.1
				l-4.7,3.1l0,0l0,0l2,1.3l2,1.3h0.1h0.1l4.8-3l4.8-3h-0.2h0.1l0.8,0.5l0.8,0.5v0.1v0.1l-4.7,3l-4.7,3l0,0l0,0l2,1.3l2,1.3l0.2,0.1
				l0.2,0.1l6.1-3.9l6.1-3.9h0.1h0.1l0.1,0.2l0.1,0.2l0.2,0.5l0.2,0.5l0.4,0.7l0.4,0.7l0.3,0.4l0.3,0.4l0.3,0.3l0.3,0.3l0.4,0.3
				l0.4,0.3l0.3,0.3l0.3,0.3l0.3,0.2l0.3,0.2l0.8,0.3l0.8,0.3l0.8,0.2l0.8,0.2l0.5,0.1l0.5,0.1h4.7h4.7v-9.8v-9.8h-4.8h-4.8
				l-0.6,0.1l-0.6,0.1l-0.4,0.1l-0.4,0.1l-0.4,0.1l-0.4,0.1l-0.5,0.2l-0.5,0.2l-0.6,0.3l-0.6,0.3l-0.7,0.5l-0.7,0.5l-0.3,0.4
				l-0.3,0.4l-0.3,0.4l-0.3,0.4l-0.3,0.8l-0.3,0.8l-0.2,0.6l-0.2,0.6h-0.1h-0.1l-6-4.1L647.3,519.5L647.3,519.5L647.3,519.5z
				 M669.9,526.8h0.9v0.1l0,0v3.6v3.6h-1.3h-1.3l-0.4-0.2l-0.4-0.2l-0.3-0.2l-0.3-0.2l-0.3-0.3l-0.3-0.3l-0.3-0.4l-0.3-0.4l-0.1-0.4
				l-0.1-0.4v-0.7v-0.7l0.1-0.3l0.1-0.3l0.2-0.3l0.2-0.3l0.3-0.3l0.3-0.3l0.3-0.3l0.3-0.3l0.3-0.2l0.3-0.2l0.3-0.1L668,527l0.4-0.1
				l0.4-0.1L669.9,526.8L669.9,526.8L669.9,526.8z M669.9,527h-0.8l-0.4,0.1l-0.4,0.1l-0.3,0.1l-0.3,0.1l-0.3,0.2l-0.3,0.2l-0.3,0.2
				l-0.3,0.2l-0.3,0.3l-0.3,0.3l-0.2,0.3l-0.2,0.3l-0.1,0.3l-0.1,0.3v0.6v0.4l0.1,0.3l0.1,0.3l0.2,0.3l0.2,0.3l0.2,0.3l0.2,0.3
				l0.3,0.3l0.3,0.3l0.3,0.2l0.3,0.2l0.3,0.1l0.3,0.1l0.4,0.1l0.4,0.1h0.9h0.9v-3.6v-3.6L669.9,527L669.9,527z M613.6,520.5h6.8v9.9
				v9.9h-3.6h-3.6v-6.7v-6.7h-3.1H607v-3.2v-3.2L613.6,520.5z M613.6,520.7h-6.7v3.1v3.1h3.1h3.2v6.7v6.7h3.5h3.5v-9.8v-9.8H613.6z"
				/>
			
				<ellipse transform="matrix(0.1602 -0.9871 0.9871 0.1602 15.7459 1079.4071)" class="st3" cx="642.2" cy="530.5" rx="42.5" ry="42.5"/>
		</g>
	</g>
	<path class="st0" d="M992,228.6v3.9c0,0.5-1.3,1.8-2.8,1.8h-17c-1.6,0-2.8-1.3-2.8-2.8v-2.8"/>
	<path class="st0" d="M291.3,228.6v3.4c0,1.6,1.3,2.8,2.8,2.8h17c1.6,0,2.8-1.3,2.8-2.8v-3.4"/>
</g>
</svg>
