<?xml version="1.0" encoding="UTF-8" standalone="no"?>
<!-- exported from Silhouette Studio Business Edition V4.1.454ssbe -->

<svg
   xmlns:dc="http://purl.org/dc/elements/1.1/"
   xmlns:cc="http://creativecommons.org/ns#"
   xmlns:rdf="http://www.w3.org/1999/02/22-rdf-syntax-ns#"
   xmlns:svg="http://www.w3.org/2000/svg"
   xmlns="http://www.w3.org/2000/svg"
   xmlns:sodipodi="http://sodipodi.sourceforge.net/DTD/sodipodi-0.dtd"
   xmlns:inkscape="http://www.inkscape.org/namespaces/inkscape"
   version="1.1"
   width="1000mm"
   height="1040mm"
   viewBox="0 0 1000 1040"
   id="svg10"
   sodipodi:docname="E5570_LID.svg"
   inkscape:version="0.92.3 (2405546, 2018-03-11)">
  <metadata
     id="metadata14">
    <rdf:RDF>
      <cc:Work
         rdf:about="">
        <dc:format>image/svg+xml</dc:format>
        <dc:type
           rdf:resource="http://purl.org/dc/dcmitype/StillImage" />
        <dc:title></dc:title>
      </cc:Work>
    </rdf:RDF>
  </metadata>
  <sodipodi:namedview
     pagecolor="#ffffff"
     bordercolor="#666666"
     borderopacity="1"
     objecttolerance="10"
     gridtolerance="10"
     guidetolerance="10"
     inkscape:pageopacity="0"
     inkscape:pageshadow="2"
     inkscape:window-width="1920"
     inkscape:window-height="1017"
     id="namedview12"
     showgrid="false"
     inkscape:zoom="0.3396379"
     inkscape:cx="2464.812"
     inkscape:cy="2917.3837"
     inkscape:window-x="-8"
     inkscape:window-y="-8"
     inkscape:window-maximized="1"
     inkscape:current-layer="svg10"
     showguides="true"
     inkscape:guide-bbox="true" />
  <defs
     id="defs2" />
  <g
     id="g833"
     style="stroke:#151515;stroke-width:0.35277778;stroke-miterlimit:4;stroke-dasharray:none;stroke-opacity:1"
     transform="translate(768.88872,41.287844)">
    <path
       id="path4"
       d="m -96.777917,355.97677 6.547222,-0.0766 c 1.579266,-0.0185 3.836444,0.0111 4.512655,-0.02 0.638714,-0.0295 1.773976,-0.12203 3.151725,-0.53885 0.932646,-0.28216 2.237381,-0.78683 3.523022,-1.67305 0.178773,-0.12322 0.897723,-0.62458 1.670789,-1.38862 0,0 0.551258,-0.54905 1.012783,-1.17099 0.200538,-0.27022 1.033657,-1.38931 1.533964,-2.99892 0.418786,-1.34731 0.407705,-2.22632 0.426008,-2.79072 v -229.8295 c -0.01355,-0.53615 -0.01237,-1.08425 -0.244762,-2.13104 -0.0188,-0.0842 -0.200439,-0.84551 -0.542749,-1.63633 -0.08716,-0.20119 -0.447278,-1.01463 -1.090049,-1.90147 -0.119413,-0.16473 -0.604979,-0.82827 -1.34144,-1.52876 -0.06737,-0.0641 -0.678486,-0.6459 -1.448189,-1.16681 -0.0924,-0.0625 -0.92948,-0.63087 -1.947308,-1.08165 -2.534875,-1.1228 -4.592197,-1.11204 -5.422645,-1.13515 H -433.36242 c 0,0 -1.21913,-0.007 -2.40918,0.20837 -0.13259,0.0239 -1.33965,0.24163 -2.59045,0.74501 -0.31593,0.12708 -1.16045,0.48405 -2.02126,1.03613 0,0 -0.5744,0.37669 -0.93587,0.65726 -0.17468,0.13556 -0.58294,0.45528 -1.10765,0.97379 -0.74923,0.74053 -1.71384,1.94668 -2.32159,3.52325 -0.56588,1.46801 -0.6302,2.56281 -0.6512,3.4374 v 229.8295 c 0.01,0.39986 0.005,1.36015 0.38062,2.63876 0.13535,0.46131 0.40799,1.27293 0.9555,2.20437 0.4255,0.72389 1.57732,2.50083 3.97362,3.92956 0.294,0.17529 1.49932,0.88961 3.1502,1.33233 0.47499,0.12738 1.60542,0.42083 3.24311,0.47359 0,0 6.85061,-0.17535 10.17872,-0.17535"
       style="fill:none;fill-opacity:1;stroke:#151515;stroke-width:0.35277778;stroke-linecap:round;stroke-linejoin:round;stroke-miterlimit:4;stroke-dasharray:none;stroke-opacity:1"
       inkscape:connector-curvature="0"
       sodipodi:nodetypes="cscscccccccccccccccccccccccccccc" />
    <path
       id="path6"
       d="m -260.08208,209.94157 c 1.22608,0.0293 4.23969,0.037 8.01905,1.60605 2.64756,1.09899 4.71349,2.6636 6.03267,3.88151 0.29423,0.27171 1.48579,1.37099 2.66606,2.99178 0.22824,0.31344 1.15139,1.58135 1.97788,3.3374 0.63921,1.35804 1.65288,3.89944 1.8736,7.27339 0.0261,0.39959 0.12901,2.01739 -0.13365,4.00192 -0.14336,1.08365 -0.48824,3.00553 -1.44414,5.26924 -0.26504,0.62778 -0.55966,1.2452 -1.00882,2.03413 -0.12664,0.22251 -0.63466,1.11701 -1.39942,2.1418 -0.18342,0.24591 -0.92255,1.23633 -2.01161,2.3147 -1.53614,1.52109 -5.93591,5.42591 -13.10048,5.93088 -0.40553,0.0286 -2.04684,0.14372 -4.06399,-0.10866 -1.22638,-0.15349 -2.94862,-0.49193 -4.79917,-1.19331 -3.32446,-1.26024 -5.55472,-3.10135 -6.71333,-4.18111 -1.00398,-0.93564 -2.33434,-2.37277 -3.48701,-4.24634 -0.23833,-0.38745 -0.79572,-1.29958 -1.39912,-2.69199 -0.0976,-0.2251 -0.37149,-0.90905 -0.58202,-1.52866 -0.56462,-1.66163 -1.12043,-4.13868 -1.03267,-6.947 0.19717,-6.30896 3.05417,-11.14314 6.50794,-14.35584 1.1693,-1.08763 3.42478,-2.93322 6.77764,-4.20232 0.90564,-0.34283 2.20879,-0.75806 3.73444,-1.022 1.06403,-0.18406 1.78714,-0.26254 3.58615,-0.30557"
       style="fill:none;fill-opacity:1;stroke:#151515;stroke-width:0.35277778;stroke-linecap:round;stroke-linejoin:round;stroke-miterlimit:4;stroke-dasharray:none;stroke-opacity:1"
       inkscape:connector-curvature="0" />
    <path
       id="path8"
       d="m -423.51785,355.72228 v -9.7703 l 326.602227,6e-5 0.137706,10.02473"
       style="fill:none;fill-opacity:1;stroke:#151515;stroke-width:0.35277778;stroke-linecap:round;stroke-linejoin:round;stroke-miterlimit:4;stroke-dasharray:none;stroke-opacity:1"
       inkscape:connector-curvature="0"
       sodipodi:nodetypes="cccc" />
  </g>
</svg>
