<?xml version="1.0" encoding="UTF-8" standalone="no"?>
<!-- Generator: Adobe Illustrator 24.2.2, SVG Export Plug-In . SVG Version: 6.00 Build 0)  -->

<svg
   xmlns:dc="http://purl.org/dc/elements/1.1/"
   xmlns:cc="http://creativecommons.org/ns#"
   xmlns:rdf="http://www.w3.org/1999/02/22-rdf-syntax-ns#"
   xmlns:svg="http://www.w3.org/2000/svg"
   xmlns="http://www.w3.org/2000/svg"
   xmlns:sodipodi="http://sodipodi.sourceforge.net/DTD/sodipodi-0.dtd"
   xmlns:inkscape="http://www.inkscape.org/namespaces/inkscape"
   version="1.1"
   id="svg16"
   x="0px"
   y="0px"
   viewBox="0 0 3401.6 2976.4"
   style="enable-background:new 0 0 3401.6 2976.4;"
   xml:space="preserve"
   sodipodi:docname="E6530_LID.svg"
   inkscape:version="0.92.3 (2405546, 2018-03-11)"><metadata
   id="metadata68"><rdf:RDF><cc:Work
       rdf:about=""><dc:format>image/svg+xml</dc:format><dc:type
         rdf:resource="http://purl.org/dc/dcmitype/StillImage" /></cc:Work></rdf:RDF></metadata><defs
   id="defs66" />
<style
   type="text/css"
   id="style2">
	.st0{fill:none;stroke:#000000;stroke-miterlimit:10;}
	.st1{fill:none;stroke:#000000;stroke-width:2.8346;stroke-miterlimit:11.3386;}
</style>
<sodipodi:namedview
   bordercolor="#666666"
   borderopacity="1"
   gridtolerance="10"
   guidetolerance="10"
   id="namedview18"
   inkscape:current-layer="svg16"
   inkscape:cx="283.40545"
   inkscape:cy="2533.6012"
   inkscape:pageopacity="0"
   inkscape:pageshadow="2"
   inkscape:window-height="1017"
   inkscape:window-maximized="1"
   inkscape:window-width="1920"
   inkscape:window-x="-8"
   inkscape:window-y="-8"
   inkscape:zoom="0.16864825"
   objecttolerance="10"
   pagecolor="#ffffff"
   showgrid="false">
	</sodipodi:namedview>
<g
   id="g8"
   transform="rotate(90,382.7,596.1)">
	<path
   class="st0"
   d="M 63,1134.7 C 63,1124.5 63,57.5 63,57.5 h 606 l 4.3,0.4 1.8,0.3 4.8,1.2 4.3,1.6 4.4,2.2 2.9,1.9 3.4,2.9 2.6,2.9 2.5,3.9 1,2.3 1.4,4 v 1029.2 l -1.7,5.4 -1.8,3.4 -2.9,3.7 -3.2,3 -3.7,2.6 -4.5,2.3 -6.2,2.2 -8.3,1.7 H 63 Z"
   id="path5"
   inkscape:connector-curvature="0"
   style="fill:none;stroke:#000000;stroke-miterlimit:10" />
	<path
   id="path1515-2-9-2_4_"
   inkscape:connector-curvature="0"
   class="st1"
   d="m 434,596.5 c 0,31.9 -25.8,57.7 -57.7,57.7 -31.9,0 -57.7,-25.8 -57.7,-57.7 0,-31.9 25.8,-57.7 57.7,-57.7 31.9,0 57.7,25.9 57.7,57.7 z"
   style="fill:none;stroke:#000000;stroke-width:2.83459997;stroke-miterlimit:11.33860016" />
</g>











</svg>