<?xml version="1.0" encoding="utf-8"?>
<!-- Generator: Adobe Illustrator 25.2.1, SVG Export Plug-In . SVG Version: 6.00 Build 0)  -->
<svg version="1.1" id="Layer_1" xmlns="http://www.w3.org/2000/svg" xmlns:xlink="http://www.w3.org/1999/xlink" x="0px" y="0px"
	 viewBox="0 0 4280.3 1133.9" style="enable-background:new 0 0 4280.3 1133.9;" xml:space="preserve">
<style type="text/css">
	.st0{fill:none;stroke:#404040;stroke-width:0.75;stroke-linecap:round;stroke-linejoin:round;stroke-miterlimit:11.3386;}
</style>
<g>
	<path class="st0" d="M1258.4,777.8H220.9c-1.6,0-2.8-1.3-2.8-2.8V293c0-1.6,1.3-2.8,2.8-2.8h1037.5c1.6,0,2.8,1.3,2.8,2.8v481.9
		C1261.2,776.5,1260,777.8,1258.4,777.8z"/>
	<g>
		<circle class="st0" cx="307.4" cy="370.3" r="59.5"/>
		<circle class="st0" cx="307.4" cy="697.7" r="59.5"/>
	</g>
	<path class="st0" d="M921.1,604.8H464.7c-3.1,0-5.7-2.5-5.7-5.7V468.8c0-3.1,2.5-5.7,5.7-5.7h456.4c3.1,0,5.7,2.5,5.7,5.7v130.4
		C926.8,602.3,924.2,604.8,921.1,604.8z"/>
	<g>
		<circle class="st0" cx="1120.9" cy="370.3" r="59.5"/>
		<circle class="st0" cx="1120.9" cy="697.7" r="59.5"/>
	</g>
</g>
</svg>
