<?xml version="1.0" encoding="utf-8"?>
<!-- Generator: Adobe Illustrator 25.2.1, SVG Export Plug-In . SVG Version: 6.00 Build 0)  -->
<svg version="1.1" id="Layer_1" xmlns="http://www.w3.org/2000/svg" xmlns:xlink="http://www.w3.org/1999/xlink" x="0px" y="0px"
	 viewBox="0 0 4280.3 1133.9" style="enable-background:new 0 0 4280.3 1133.9;" xml:space="preserve">
<style type="text/css">
	.st0{fill:none;stroke:#404040;stroke-width:0.75;stroke-linecap:round;stroke-linejoin:round;stroke-miterlimit:11.3386;}
</style>
<g>
	<path class="st0" d="M1342.3,1043.4H299.2c-1.6,0-2.8-1.3-2.8-2.8V65.5c0-1.6,1.3-2.8,2.8-2.8h1043.1c1.6,0,2.8,1.3,2.8,2.8v975.1
		C1345.2,1042.2,1343.9,1043.4,1342.3,1043.4z"/>
	<circle class="st0" cx="1244.5" cy="453.8" r="39.7"/>
	<line class="st0" x1="431.3" y1="196.1" x2="434.2" y2="196.1"/>
	<line class="st0" x1="480.1" y1="204.4" x2="482.9" y2="204.4"/>
	<line class="st0" x1="527.7" y1="217" x2="530.5" y2="217"/>
	<line class="st0" x1="574.2" y1="196.1" x2="577" y2="196.1"/>
	<line class="st0" x1="627.6" y1="217" x2="630.4" y2="217"/>
	<line class="st0" x1="658.9" y1="196.1" x2="661.8" y2="196.1"/>
	<line class="st0" x1="704.2" y1="217" x2="707.1" y2="217"/>
	<line class="st0" x1="749.5" y1="196.1" x2="752.4" y2="196.1"/>
</g>
</svg>
