<?xml version="1.0" encoding="utf-8"?>
<!-- Generator: Adobe Illustrator 25.2.1, SVG Export Plug-In . SVG Version: 6.00 Build 0)  -->
<svg version="1.1" id="Layer_1" xmlns="http://www.w3.org/2000/svg" xmlns:xlink="http://www.w3.org/1999/xlink" x="0px" y="0px"
	 viewBox="0 0 4280.3 1133.9" style="enable-background:new 0 0 4280.3 1133.9;" xml:space="preserve">
<style type="text/css">
	.st0{fill:none;stroke:#000000;stroke-miterlimit:10;}
	.st1{fill:none;stroke:#010101;stroke-linecap:round;stroke-linejoin:round;stroke-miterlimit:11.3386;}
</style>
<path class="st0" d="M1140.7,374.2H673c-6.3,0-11.3-5.1-11.3-11.3V212.6c0-6.3,5.1-11.3,11.3-11.3h467.7c6.3,0,11.3,5.1,11.3,11.3
	v150.2C1152,369.1,1146.9,374.2,1140.7,374.2z"/>
<circle class="st0" cx="1091.4" cy="280" r="31.9"/>
<circle class="st0" cx="1017.2" cy="281" r="9.9"/>
<circle class="st0" cx="1045.7" cy="281" r="9.9"/>
<path class="st1" d="M760.6,268.7c0-0.1-0.1-0.1-31-0.1c-30.5,0-30.9,0-31-0.1c0-0.1-0.1-4.8-0.1-14.7v-14.5h-2.2h-2.2v-2.2
	c0-1.9,0-2.2,0.1-2.2s0.1-0.1,0.2-0.2l0.1-0.2h9.5c7.8,0,9.5,0,9.5,0.1c0.1,0.1,0.1,1,0.1,3.1v3h4.1h4.1V238c0-1.5,0-2.7,0.1-2.7
	c0,0,0.1,0,0.2,0c0.1,0,0.1-0.1,0.1-0.2c0-0.3,0.1-0.4,0.2-0.5c0.1,0,0.2-0.1,0.2-0.2c0-0.1,0.2-0.2,0.5-0.2c0.2,0,0.2,0,0.3-0.1
	c0-0.1,0.1-0.1,1.2-0.1s1.2,0,1.2,0.1s0.1,0.1,0.3,0.1c0.3,0,0.5,0.1,0.5,0.4c0,0.2,0.1,0.3,0.4,0.6l0.4,0.4v2.7v2.7h7.5h7.5v-3
	c0-2.1,0-3.1,0.1-3.1c0.1-0.1,0.5-0.1,2.1-0.1c1.9,0,2,0,2.1,0.1c0,0.1,0.1,1.2,0.1,3.1v3h4h4v-1.2c0-0.6,0-1.2,0.1-1.3
	c0,0,0.1-0.1,0.2-0.2c0.1-0.1,0.2-0.1,0.2-0.5s0-0.5,0.2-0.6c0.1-0.1,0.2-0.2,0.2-0.2c0-0.1,0.1-0.2,0.2-0.2c0.1,0,0.2-0.1,0.2-0.2
	c0-0.1,0.1-0.1,0.2-0.2c0.1,0,0.2-0.1,0.2-0.2c0-0.1,0.1-0.1,0.2-0.2c0.1,0,0.2-0.1,0.2-0.2c0-0.1,0.1-0.2,0.2-0.2
	c0.1,0,0.2-0.1,0.2-0.2c0-0.1,0.1-0.1,0.1-0.1c0.1,0,0.1-0.1,0.2-0.2c0.1-0.2,0.2-0.3,0.5-0.3c0.2,0,0.3,0,0.3-0.2
	c0.1-0.2,0.1-0.2,0.7-0.2c0.6,0,0.7,0,0.7-0.2c0.1-0.2,0.2-0.2,1-0.2s0.9,0,1,0.2s0.1,0.2,0.7,0.2c0.6,0,0.7,0,0.8,0.2
	c0.1,0.1,0.2,0.2,0.3,0.2c0.2,0,0.4,0.1,0.4,0.3c0,0,0.1,0.1,0.2,0.1c0.1,0,0.2,0.1,0.2,0.2s0.1,0.1,0.2,0.2c0.1,0,0.2,0.1,0.2,0.2
	c0,0.1,0.1,0.1,0.2,0.2c0.1,0,0.2,0.1,0.2,0.2c0,0.1,0.1,0.2,0.1,0.2c0.1,0,0.3,0.2,0.3,0.4s0,0.3,0.2,0.3c0.1,0.1,0.2,0.2,0.2,0.4
	s0,0.3,0.1,0.3c0.2,0.1,0.3,0.3,0.3,1.1c0,0.7,0,0.7,0.2,0.8c0.1,0.1,0.2,0.1,0.2,0.5v0.5H780h13.6v-2c0-1.6,0.1-2,0.1-2
	c0.2-0.1,4.3-0.1,4.4,0c0.1,0.1,0.1,0.3,0.1,2v1.9h11.4H821l0.4,0.4c0.3,0.3,0.4,0.4,0.6,0.4c0.2,0,0.3,0,0.3,0.2
	c0.1,0.1,0.1,0.2,0.3,0.2s0.3,0.1,0.9,0.7c0.6,0.6,0.7,0.7,0.7,0.9s0,0.2,0.1,0.3c0.1,0,0.1,0.1,0.1,10.9c0,10.8,0,10.9-0.1,10.9
	s-0.1,0-0.1,0.3s0,0.4-0.2,0.4c-0.1,0-0.1,0.1-0.1,0.3c0,0.3-0.1,0.5-0.5,0.5c-0.2,0-0.3,0.1-0.3,0.2s-0.1,0.1-0.2,0.2
	c-0.1,0-0.2,0.1-0.2,0.2c-0.1,0.1-0.2,0.2-0.4,0.2s-0.3,0-0.3,0.2c-0.1,0.2-0.2,0.2-0.7,0.2c-0.3,0-0.4,0-0.5,0.2l-0.1,0.2h-29.8
	c-29.7,0-29.8,0-29.9,0.2C761.2,268.9,760.6,268.9,760.6,268.7z"/>
</svg>
