<?xml version="1.0" encoding="UTF-8" standalone="no"?>
<!-- exported from Silhouette Studio® Business Edition V4.3.356ssbe -->

<svg
   xmlns:dc="http://purl.org/dc/elements/1.1/"
   xmlns:cc="http://creativecommons.org/ns#"
   xmlns:rdf="http://www.w3.org/1999/02/22-rdf-syntax-ns#"
   xmlns:svg="http://www.w3.org/2000/svg"
   xmlns="http://www.w3.org/2000/svg"
   xmlns:sodipodi="http://sodipodi.sourceforge.net/DTD/sodipodi-0.dtd"
   xmlns:inkscape="http://www.inkscape.org/namespaces/inkscape"
   version="1.1"
   width="304.8mm"
   height="304.8mm"
   viewBox="0 0 304.8 304.8"
   id="svg22"
   sodipodi:docname="E6420_backedge.svg"
   inkscape:version="0.92.3 (2405546, 2018-03-11)">
  <metadata
     id="metadata26">
    <rdf:RDF>
      <cc:Work
         rdf:about="">
        <dc:format>image/svg+xml</dc:format>
        <dc:type
           rdf:resource="http://purl.org/dc/dcmitype/StillImage" />
      </cc:Work>
    </rdf:RDF>
  </metadata>
  <sodipodi:namedview
     pagecolor="#ffffff"
     bordercolor="#666666"
     borderopacity="1"
     objecttolerance="10"
     gridtolerance="10"
     guidetolerance="10"
     inkscape:pageopacity="0"
     inkscape:pageshadow="2"
     inkscape:window-width="640"
     inkscape:window-height="480"
     id="namedview24"
     showgrid="false"
     inkscape:zoom="0.20486112"
     inkscape:cx="575.99998"
     inkscape:cy="575.99998"
     inkscape:window-x="0"
     inkscape:window-y="28"
     inkscape:window-maximized="0"
     inkscape:current-layer="svg22" />
  <defs
     id="defs2" />
  <g
     id="g37">
    <path
       id="path4"
       stroke-linejoin="round"
       stroke-linecap="round"
       stroke-width="0.3527778"
       stroke-opacity="1"
       stroke="#000000"
       fill-opacity="1"
       fill="none"
       d="M 313.5185 107.6777 L 328.4762 107.6777 L 328.4762 92.27771 L -24.53914 92.27771 L -24.53914 107.6777 L 296.8112 107.6777" />
    <path
       id="path6"
       stroke-linejoin="round"
       stroke-linecap="round"
       stroke-width="0.3527778"
       stroke-opacity="1"
       stroke="#000000"
       fill-opacity="1"
       fill="none"
       d="M 276.3792 100.3279 C 276.3792 103.2693 273.9898 105.6586 271.0484 105.6586 C 268.107 105.6586 265.7176 103.2693 265.7176 100.3279 C 265.7176 97.38644 268.107 94.9971 271.0484 94.9971 C 273.9898 94.9971 276.3792 97.38644 276.3792 100.3279 Z" />
    <path
       id="path8"
       stroke-linejoin="round"
       stroke-linecap="round"
       stroke-width="0.3527778"
       stroke-opacity="1"
       stroke="#000000"
       fill-opacity="1"
       fill="none"
       d="M 26.80315 100.7822 C 26.80315 103.07 24.94478 104.9284 22.657 104.9284 C 20.36921 104.9284 18.51084 103.07 18.51084 100.7822 C 18.51084 98.49442 20.36921 96.63606 22.657 96.63606 C 24.94478 96.63606 26.80315 98.49442 26.80315 100.7822 Z" />
    <path
       id="path10"
       stroke-linejoin="round"
       stroke-linecap="round"
       stroke-width="0.3527778"
       stroke-opacity="1"
       stroke="#000000"
       fill-opacity="1"
       fill="none"
       d="M 288.3391 99.57067 C 288.3391 101.8585 286.4807 103.7168 284.193 103.7168 C 281.9052 103.7168 280.0469 101.8585 280.0469 99.57067 C 280.0469 97.28289 281.9052 95.42453 284.193 95.42453 C 286.4807 95.42453 288.3391 97.28289 288.3391 99.57067 Z" />
    <path
       id="path12"
       stroke-linejoin="round"
       stroke-linecap="round"
       stroke-width="0.3527778"
       stroke-opacity="1"
       stroke="#000000"
       fill-opacity="1"
       fill="none"
       d="M 313.5238 107.6171 L 313.5951 107.6171 L 313.5951 93.53307 L 296.7851 93.53307 L 296.7851 107.6171 L 296.8314 107.6171" />
    <path
       id="path14"
       stroke-linejoin="round"
       stroke-linecap="round"
       stroke-width="0.3527778"
       stroke-opacity="1"
       stroke="#000000"
       fill-opacity="1"
       fill="none"
       d="M 28.73465 95.04752 L 28.73465 106.4056 L 42.21291 106.4056 L 42.21291 95.04752 L 28.73465 95.04752 Z" />
    <path
       id="path16"
       stroke-linejoin="round"
       stroke-linecap="round"
       stroke-width="0.3527778"
       stroke-opacity="1"
       stroke="#000000"
       fill-opacity="1"
       fill="none"
       d="M 10.41288 95.3823 L 10.41288 104.8592 L 15.70811 104.8592 L 15.70811 95.3823 L 10.41288 95.3823 Z" />
    <path
       id="path18"
       stroke-linejoin="round"
       stroke-linecap="round"
       stroke-width="0.3527778"
       stroke-opacity="1"
       stroke="#000000"
       fill-opacity="1"
       fill="none"
       d="M -17.90918 98.67522 L -17.90918 101.3797 C -17.90918 102.8159 -14.08541 103.9825 -9.378101 103.9825 L -6.298601 103.9825 C -1.591286 103.9825 2.232483 102.8159 2.232483 101.3797 L 2.232485 98.49573" />
    <path
       id="path20"
       stroke-linejoin="round"
       stroke-linecap="round"
       stroke-width="0.3527778"
       stroke-opacity="1"
       stroke="#000000"
       fill-opacity="1"
       fill="none"
       d="M 2.244892 99.04352 L 2.244894 95.50407 L -17.89356 95.50407 L -17.89356 99.43697 L -17.85577 99.43697" />
  </g>
</svg>
