<?xml version="1.0" encoding="UTF-8" standalone="no"?>
<!-- Created with Inkscape (http://www.inkscape.org/) -->

<svg
   xmlns:dc="http://purl.org/dc/elements/1.1/"
   xmlns:cc="http://creativecommons.org/ns#"
   xmlns:rdf="http://www.w3.org/1999/02/22-rdf-syntax-ns#"
   xmlns:svg="http://www.w3.org/2000/svg"
   xmlns="http://www.w3.org/2000/svg"
   xmlns:sodipodi="http://sodipodi.sourceforge.net/DTD/sodipodi-0.dtd"
   xmlns:inkscape="http://www.inkscape.org/namespaces/inkscape"
   width="300mm"
   height="600mm"
   viewBox="0 0 300 600"
   version="1.1"
   id="svg873"
   inkscape:version="0.92.3 (2405546, 2018-03-11)"
   sodipodi:docname="E6430_TP.svg">
  <defs
     id="defs867" />
  <sodipodi:namedview
     id="base"
     pagecolor="#ffffff"
     bordercolor="#666666"
     borderopacity="1.0"
     inkscape:pageopacity="0.0"
     inkscape:pageshadow="2"
     inkscape:zoom="0.22627417"
     inkscape:cx="-641.62873"
     inkscape:cy="1862.7746"
     inkscape:document-units="mm"
     inkscape:current-layer="layer1"
     showgrid="false"
     inkscape:window-width="1366"
     inkscape:window-height="684"
     inkscape:window-x="0"
     inkscape:window-y="28"
     inkscape:window-maximized="1"
     inkscape:snap-bbox="true"
     inkscape:bbox-paths="true"
     inkscape:bbox-nodes="true"
     inkscape:snap-bbox-edge-midpoints="true"
     inkscape:snap-bbox-midpoints="true"
     inkscape:object-paths="true"
     inkscape:snap-intersection-paths="true"
     inkscape:snap-midpoints="true"
     inkscape:snap-smooth-nodes="true"
     inkscape:snap-center="true"
     inkscape:snap-object-midpoints="true" />
  <metadata
     id="metadata870">
    <rdf:RDF>
      <cc:Work
         rdf:about="">
        <dc:format>image/svg+xml</dc:format>
        <dc:type
           rdf:resource="http://purl.org/dc/dcmitype/StillImage" />
        <dc:title />
      </cc:Work>
    </rdf:RDF>
  </metadata>
  <g
     inkscape:label="Layer 1"
     inkscape:groupmode="layer"
     id="layer1"
     transform="translate(0,303)">
    <g
       id="g968"
       transform="rotate(90,294.58032,-121.44713)">
      <path
         inkscape:connector-curvature="0"
         id="rect1418-9"
         d="m 46.99017,-218.38182 v 76.57298 c 0,0.59178 -0.47762,1.0683 -1.0709,1.0683 H 4.0515298 c -0.59329,0 -1.07091,-0.47643 -1.07091,-1.0683 v -76.57298 c 0,-0.59183 0.47762,-1.06829 1.07091,-1.06829 H 45.91927 c 0.59328,0 1.0709,0.47645 1.0709,1.06829 z"
         style="opacity:1;vector-effect:none;fill:none;fill-opacity:1;fill-rule:evenodd;stroke:#000000;stroke-width:0.49044758;stroke-linecap:butt;stroke-linejoin:miter;stroke-miterlimit:4;stroke-dasharray:none;stroke-dashoffset:0;stroke-opacity:1" />
      <path
         inkscape:connector-curvature="0"
         id="rect1418-6-1"
         d="m 92.01935,-218.38182 v 76.57298 c 0,0.59179 -0.47763,1.06831 -1.07091,1.06831 H 49.0807 c -0.59328,0 -1.07091,-0.47644 -1.07091,-1.06831 v -76.57298 c 0,-0.59183 0.47763,-1.06829 1.07091,-1.06829 h 41.86774 c 0.59328,0 1.07091,0.47645 1.07091,1.06829 z"
         style="opacity:1;vector-effect:none;fill:none;fill-opacity:1;fill-rule:evenodd;stroke:#000000;stroke-width:0.49044761;stroke-linecap:butt;stroke-linejoin:miter;stroke-miterlimit:4;stroke-dasharray:none;stroke-dashoffset:0;stroke-opacity:1" />
      <path
         inkscape:connector-curvature="0"
         id="rect1418-7-2"
         d="m 137.08724,-218.38182 v 76.57298 c 0,0.59179 -0.47762,1.0683 -1.07091,1.0683 H 94.14859 c -0.59328,0 -1.07091,-0.47643 -1.07091,-1.0683 v -76.57298 c 0,-0.59183 0.47763,-1.06829 1.07091,-1.06829 h 41.86774 c 0.59329,0 1.07091,0.47645 1.07091,1.06829 z"
         style="opacity:1;vector-effect:none;fill:none;fill-opacity:1;fill-rule:evenodd;stroke:#000000;stroke-width:0.49044761;stroke-linecap:butt;stroke-linejoin:miter;stroke-miterlimit:4;stroke-dasharray:none;stroke-dashoffset:0;stroke-opacity:1" />
      <path
         inkscape:connector-curvature="0"
         id="rect1418-6-5-7"
         d="m 182.11642,-218.38182 v 76.57298 c 0,0.59179 -0.47764,1.06831 -1.07091,1.06831 h -41.86775 c -0.59327,0 -1.07091,-0.47644 -1.07091,-1.06831 v -76.57298 c 0,-0.59183 0.47764,-1.06829 1.07091,-1.06829 h 41.86775 c 0.59327,0 1.07091,0.47645 1.07091,1.06829 z"
         style="opacity:1;vector-effect:none;fill:none;fill-opacity:1;fill-rule:evenodd;stroke:#000000;stroke-width:0.49044761;stroke-linecap:butt;stroke-linejoin:miter;stroke-miterlimit:4;stroke-dasharray:none;stroke-dashoffset:0;stroke-opacity:1" />
      <path
         inkscape:connector-curvature="0"
         id="rect1418-3-0"
         d="m 227.1843,-218.38182 v 76.57298 c 0,0.59178 -0.47762,1.0683 -1.0709,1.0683 h -41.86774 c -0.59329,0 -1.07091,-0.47643 -1.07091,-1.0683 v -76.57298 c 0,-0.59183 0.47762,-1.06829 1.07091,-1.06829 h 41.86774 c 0.59328,0 1.0709,0.47645 1.0709,1.06829 z"
         style="opacity:1;vector-effect:none;fill:none;fill-opacity:1;fill-rule:evenodd;stroke:#000000;stroke-width:0.49044761;stroke-linecap:butt;stroke-linejoin:miter;stroke-miterlimit:4;stroke-dasharray:none;stroke-dashoffset:0;stroke-opacity:1" />
      <path
         inkscape:connector-curvature="0"
         id="rect1418-6-56-9"
         d="m 272.21347,-218.38182 v 76.57298 c 0,0.59179 -0.47762,1.06831 -1.0709,1.06831 h -41.86773 c -0.59328,0 -1.07092,-0.47644 -1.07092,-1.06831 v -76.57298 c 0,-0.59183 0.47764,-1.06829 1.07092,-1.06829 h 41.86773 c 0.59328,0 1.0709,0.47645 1.0709,1.06829 z"
         style="opacity:1;vector-effect:none;fill:none;fill-opacity:1;fill-rule:evenodd;stroke:#000000;stroke-width:0.49044761;stroke-linecap:butt;stroke-linejoin:miter;stroke-miterlimit:4;stroke-dasharray:none;stroke-dashoffset:0;stroke-opacity:1" />
      <path
         inkscape:connector-curvature="0"
         id="rect1418-36"
         d="m 46.990175,-138.61391 v 76.572935 c 0,0.59178 -0.477623,1.0683 -1.070906,1.0683 H 4.0515315 c -0.59329,0 -1.07091,-0.47644 -1.07091,-1.0683 v -76.572935 c 0,-0.59183 0.47762,-1.06829 1.07091,-1.06829 H 45.919269 c 0.593283,0 1.070906,0.47646 1.070906,1.06829 z"
         style="opacity:1;vector-effect:none;fill:none;fill-opacity:1;fill-rule:evenodd;stroke:#000000;stroke-width:0.49044758;stroke-linecap:butt;stroke-linejoin:miter;stroke-miterlimit:4;stroke-dasharray:none;stroke-dashoffset:0;stroke-opacity:1" />
      <path
         inkscape:connector-curvature="0"
         id="rect1418-6-0"
         d="m 92.019351,-138.61391 v 76.572925 c 0,0.59179 -0.477632,1.06831 -1.070909,1.06831 H 49.080701 c -0.59328,0 -1.070913,-0.47644 -1.070913,-1.06831 v -76.572925 c 0,-0.59183 0.477632,-1.06829 1.070913,-1.06829 h 41.867741 c 0.593277,0 1.070909,0.47646 1.070909,1.06829 z"
         style="opacity:1;vector-effect:none;fill:none;fill-opacity:1;fill-rule:evenodd;stroke:#000000;stroke-width:0.49044761;stroke-linecap:butt;stroke-linejoin:miter;stroke-miterlimit:4;stroke-dasharray:none;stroke-dashoffset:0;stroke-opacity:1" />
      <path
         inkscape:connector-curvature="0"
         id="rect1418-7-6"
         d="m 137.08724,-138.61391 v 76.572925 c 0,0.59179 -0.47762,1.0683 -1.07091,1.0683 H 94.148593 c -0.593284,0 -1.070909,-0.47643 -1.070909,-1.0683 v -76.572925 c 0,-0.59183 0.477622,-1.06829 1.070909,-1.06829 h 41.867737 c 0.59329,0 1.07091,0.47646 1.07091,1.06829 z"
         style="opacity:1;vector-effect:none;fill:none;fill-opacity:1;fill-rule:evenodd;stroke:#000000;stroke-width:0.49044761;stroke-linecap:butt;stroke-linejoin:miter;stroke-miterlimit:4;stroke-dasharray:none;stroke-dashoffset:0;stroke-opacity:1" />
      <path
         inkscape:connector-curvature="0"
         id="rect1418-6-5-2"
         d="m 182.11642,-138.61391 v 76.572925 c 0,0.59179 -0.47764,1.06831 -1.07091,1.06831 h -41.86775 c -0.59327,0 -1.07091,-0.47644 -1.07091,-1.06831 v -76.572925 c 0,-0.59183 0.47764,-1.06829 1.07091,-1.06829 h 41.86775 c 0.59327,0 1.07091,0.47646 1.07091,1.06829 z"
         style="opacity:1;vector-effect:none;fill:none;fill-opacity:1;fill-rule:evenodd;stroke:#000000;stroke-width:0.49044761;stroke-linecap:butt;stroke-linejoin:miter;stroke-miterlimit:4;stroke-dasharray:none;stroke-dashoffset:0;stroke-opacity:1" />
      <path
         inkscape:connector-curvature="0"
         id="rect1418-3-6"
         d="m 227.1843,-138.61391 v 76.572935 c 0,0.59178 -0.47762,1.0683 -1.0709,1.0683 h -41.86774 c -0.59329,0 -1.07091,-0.47644 -1.07091,-1.0683 v -76.572935 c 0,-0.59183 0.47762,-1.06829 1.07091,-1.06829 h 41.86774 c 0.59328,0 1.0709,0.47646 1.0709,1.06829 z"
         style="opacity:1;vector-effect:none;fill:none;fill-opacity:1;fill-rule:evenodd;stroke:#000000;stroke-width:0.49044761;stroke-linecap:butt;stroke-linejoin:miter;stroke-miterlimit:4;stroke-dasharray:none;stroke-dashoffset:0;stroke-opacity:1" />
      <path
         inkscape:connector-curvature="0"
         id="rect1418-6-56-1"
         d="m 272.21347,-138.61391 v 76.572925 c 0,0.59179 -0.47762,1.06831 -1.0709,1.06831 h -41.86773 c -0.59328,0 -1.07092,-0.47644 -1.07092,-1.06831 v -76.572925 c 0,-0.59183 0.47764,-1.06829 1.07092,-1.06829 h 41.86773 c 0.59328,0 1.0709,0.47646 1.0709,1.06829 z"
         style="opacity:1;vector-effect:none;fill:none;fill-opacity:1;fill-rule:evenodd;stroke:#000000;stroke-width:0.49044761;stroke-linecap:butt;stroke-linejoin:miter;stroke-miterlimit:4;stroke-dasharray:none;stroke-dashoffset:0;stroke-opacity:1" />
      <path
         inkscape:connector-curvature="0"
         id="rect1418-8"
         d="m 46.990181,-58.355593 v 76.57301 c 0,0.59178 -0.47763,1.0683 -1.07091,1.0683 H 4.0515315 c -0.59328,0 -1.07091,-0.47643 -1.07091,-1.0683 v -76.57301 c 0,-0.59184 0.47763,-1.0683 1.07091,-1.0683 H 45.919271 c 0.59328,0 1.07091,0.47646 1.07091,1.0683 z"
         style="opacity:1;vector-effect:none;fill:none;fill-opacity:1;fill-rule:evenodd;stroke:#000000;stroke-width:0.49044758;stroke-linecap:butt;stroke-linejoin:miter;stroke-miterlimit:4;stroke-dasharray:none;stroke-dashoffset:0;stroke-opacity:1" />
      <path
         inkscape:connector-curvature="0"
         id="rect1418-6-7"
         d="m 92.019352,-58.355593 v 76.57301 c 0,0.59178 -0.47763,1.0683 -1.07091,1.0683 H 49.080701 c -0.59328,0 -1.07091,-0.47643 -1.07091,-1.0683 v -76.57301 c 0,-0.59184 0.47763,-1.0683 1.07091,-1.0683 h 41.867741 c 0.59328,0 1.07091,0.47646 1.07091,1.0683 z"
         style="opacity:1;vector-effect:none;fill:none;fill-opacity:1;fill-rule:evenodd;stroke:#000000;stroke-width:0.49044761;stroke-linecap:butt;stroke-linejoin:miter;stroke-miterlimit:4;stroke-dasharray:none;stroke-dashoffset:0;stroke-opacity:1" />
      <path
         inkscape:connector-curvature="0"
         id="rect1418-7-9"
         d="m 137.08724,-58.355593 v 76.57301 c 0,0.59178 -0.47762,1.0683 -1.0709,1.0683 H 94.148603 c -0.59329,0 -1.07091,-0.47643 -1.07091,-1.0683 v -76.57301 c 0,-0.59184 0.47762,-1.0683 1.07091,-1.0683 h 41.867737 c 0.59328,0 1.0709,0.47646 1.0709,1.0683 z"
         style="opacity:1;vector-effect:none;fill:none;fill-opacity:1;fill-rule:evenodd;stroke:#000000;stroke-width:0.49044761;stroke-linecap:butt;stroke-linejoin:miter;stroke-miterlimit:4;stroke-dasharray:none;stroke-dashoffset:0;stroke-opacity:1" />
      <path
         inkscape:connector-curvature="0"
         id="rect1418-6-5-20"
         d="m 182.11642,-58.355593 v 76.57301 c 0,0.59178 -0.47763,1.0683 -1.0709,1.0683 h -41.86775 c -0.59327,0 -1.07091,-0.47643 -1.07091,-1.0683 v -76.57301 c 0,-0.59184 0.47764,-1.0683 1.07091,-1.0683 h 41.86775 c 0.59327,0 1.0709,0.47646 1.0709,1.0683 z"
         style="opacity:1;vector-effect:none;fill:none;fill-opacity:1;fill-rule:evenodd;stroke:#000000;stroke-width:0.49044761;stroke-linecap:butt;stroke-linejoin:miter;stroke-miterlimit:4;stroke-dasharray:none;stroke-dashoffset:0;stroke-opacity:1" />
      <path
         inkscape:connector-curvature="0"
         id="rect1418-3-2"
         d="m 227.18431,-58.355593 v 76.57301 c 0,0.59178 -0.47762,1.0683 -1.0709,1.0683 h -41.86774 c -0.59329,0 -1.07091,-0.47643 -1.07091,-1.0683 v -76.57301 c 0,-0.59184 0.47762,-1.0683 1.07091,-1.0683 h 41.86774 c 0.59328,0 1.0709,0.47646 1.0709,1.0683 z"
         style="opacity:1;vector-effect:none;fill:none;fill-opacity:1;fill-rule:evenodd;stroke:#000000;stroke-width:0.49044761;stroke-linecap:butt;stroke-linejoin:miter;stroke-miterlimit:4;stroke-dasharray:none;stroke-dashoffset:0;stroke-opacity:1" />
      <path
         inkscape:connector-curvature="0"
         id="rect1418-6-56-3"
         d="m 272.2135,-58.355593 v 76.57301 c 0,0.59178 -0.47765,1.0683 -1.07093,1.0683 h -41.86773 c -0.59328,0 -1.07091,-0.47643 -1.07091,-1.0683 v -76.57301 c 0,-0.59184 0.47763,-1.0683 1.07091,-1.0683 h 41.86773 c 0.59328,0 1.07093,0.47646 1.07093,1.0683 z"
         style="opacity:1;vector-effect:none;fill:none;fill-opacity:1;fill-rule:evenodd;stroke:#000000;stroke-width:0.49044761;stroke-linecap:butt;stroke-linejoin:miter;stroke-miterlimit:4;stroke-dasharray:none;stroke-dashoffset:0;stroke-opacity:1" />
      <path
         inkscape:connector-curvature="0"
         id="rect1418-9-7"
         d="m 46.990171,21.412337 v 76.57298 c 0,0.59178 -0.47762,1.0683 -1.0709,1.0683 H 4.0515315 c -0.59329,0 -1.07091,-0.47643 -1.07091,-1.0683 v -76.57298 c 0,-0.59183 0.47762,-1.06829 1.07091,-1.06829 H 45.919271 c 0.59328,0 1.0709,0.47646 1.0709,1.06829 z"
         style="opacity:1;vector-effect:none;fill:none;fill-opacity:1;fill-rule:evenodd;stroke:#000000;stroke-width:0.49044761;stroke-linecap:butt;stroke-linejoin:miter;stroke-miterlimit:4;stroke-dasharray:none;stroke-dashoffset:0;stroke-opacity:1" />
      <path
         inkscape:connector-curvature="0"
         id="rect1418-6-1-5"
         d="m 92.019352,21.412337 v 76.57298 c 0,0.5918 -0.47763,1.06832 -1.07091,1.06832 H 49.080701 c -0.59328,0 -1.07091,-0.47645 -1.07091,-1.06832 v -76.57298 c 0,-0.59183 0.47763,-1.06829 1.07091,-1.06829 h 41.867741 c 0.59328,0 1.07091,0.47646 1.07091,1.06829 z"
         style="opacity:1;vector-effect:none;fill:none;fill-opacity:1;fill-rule:evenodd;stroke:#000000;stroke-width:0.49044761;stroke-linecap:butt;stroke-linejoin:miter;stroke-miterlimit:4;stroke-dasharray:none;stroke-dashoffset:0;stroke-opacity:1" />
      <path
         inkscape:connector-curvature="0"
         id="rect1418-7-2-9"
         d="m 137.08724,21.412337 v 76.57298 c 0,0.5918 -0.47762,1.0683 -1.0709,1.0683 H 94.148593 c -0.59328,0 -1.07091,-0.47643 -1.07091,-1.0683 v -76.57298 c 0,-0.59183 0.47763,-1.06829 1.07091,-1.06829 h 41.867747 c 0.59328,0 1.0709,0.47646 1.0709,1.06829 z"
         style="opacity:1;vector-effect:none;fill:none;fill-opacity:1;fill-rule:evenodd;stroke:#000000;stroke-width:0.49044761;stroke-linecap:butt;stroke-linejoin:miter;stroke-miterlimit:4;stroke-dasharray:none;stroke-dashoffset:0;stroke-opacity:1" />
      <path
         inkscape:connector-curvature="0"
         id="rect1418-6-5-7-2"
         d="m 182.11643,21.412337 v 76.57298 c 0,0.5918 -0.47764,1.06832 -1.07091,1.06832 h -41.86775 c -0.59327,0 -1.07091,-0.47645 -1.07091,-1.06832 v -76.57298 c 0,-0.59183 0.47764,-1.06829 1.07091,-1.06829 h 41.86775 c 0.59327,0 1.07091,0.47646 1.07091,1.06829 z"
         style="opacity:1;vector-effect:none;fill:none;fill-opacity:1;fill-rule:evenodd;stroke:#000000;stroke-width:0.49044761;stroke-linecap:butt;stroke-linejoin:miter;stroke-miterlimit:4;stroke-dasharray:none;stroke-dashoffset:0;stroke-opacity:1" />
      <path
         inkscape:connector-curvature="0"
         id="rect1418-3-0-2"
         d="m 227.18431,21.412337 v 76.57298 c 0,0.59178 -0.47762,1.0683 -1.0709,1.0683 h -41.86774 c -0.59329,0 -1.07091,-0.47643 -1.07091,-1.0683 v -76.57298 c 0,-0.59183 0.47762,-1.06829 1.07091,-1.06829 h 41.86774 c 0.59328,0 1.0709,0.47646 1.0709,1.06829 z"
         style="opacity:1;vector-effect:none;fill:none;fill-opacity:1;fill-rule:evenodd;stroke:#000000;stroke-width:0.49044761;stroke-linecap:butt;stroke-linejoin:miter;stroke-miterlimit:4;stroke-dasharray:none;stroke-dashoffset:0;stroke-opacity:1" />
      <path
         inkscape:connector-curvature="0"
         id="rect1418-6-56-9-8"
         d="m 272.21347,21.412337 v 76.57298 c 0,0.5918 -0.47762,1.06832 -1.0709,1.06832 h -41.86772 c -0.59328,0 -1.07092,-0.47645 -1.07092,-1.06832 v -76.57298 c 0,-0.59183 0.47764,-1.06829 1.07092,-1.06829 h 41.86772 c 0.59328,0 1.0709,0.47646 1.0709,1.06829 z"
         style="opacity:1;vector-effect:none;fill:none;fill-opacity:1;fill-rule:evenodd;stroke:#000000;stroke-width:0.49044761;stroke-linecap:butt;stroke-linejoin:miter;stroke-miterlimit:4;stroke-dasharray:none;stroke-dashoffset:0;stroke-opacity:1" />
      <path
         inkscape:connector-curvature="0"
         id="rect1418-36-9"
         d="m 46.990181,101.18026 v 76.57294 c 0,0.59178 -0.47763,1.0683 -1.07091,1.0683 H 4.0515315 c -0.59329,0 -1.07091,-0.47644 -1.07091,-1.0683 v -76.57294 c 0,-0.59184 0.47762,-1.06829 1.07091,-1.06829 H 45.919271 c 0.59328,0 1.07091,0.47645 1.07091,1.06829 z"
         style="opacity:1;vector-effect:none;fill:none;fill-opacity:1;fill-rule:evenodd;stroke:#000000;stroke-width:0.49044761;stroke-linecap:butt;stroke-linejoin:miter;stroke-miterlimit:4;stroke-dasharray:none;stroke-dashoffset:0;stroke-opacity:1" />
      <path
         inkscape:connector-curvature="0"
         id="rect1418-6-0-7"
         d="m 92.019352,101.18026 v 76.57292 c 0,0.5918 -0.47763,1.06832 -1.07091,1.06832 H 49.080701 c -0.59328,0 -1.07091,-0.47644 -1.07091,-1.06832 v -76.57292 c 0,-0.59184 0.47763,-1.06829 1.07091,-1.06829 h 41.867741 c 0.59328,0 1.07091,0.47645 1.07091,1.06829 z"
         style="opacity:1;vector-effect:none;fill:none;fill-opacity:1;fill-rule:evenodd;stroke:#000000;stroke-width:0.49044761;stroke-linecap:butt;stroke-linejoin:miter;stroke-miterlimit:4;stroke-dasharray:none;stroke-dashoffset:0;stroke-opacity:1" />
      <path
         inkscape:connector-curvature="0"
         id="rect1418-7-6-3"
         d="m 137.08724,101.18026 v 76.57292 c 0,0.5918 -0.47762,1.06831 -1.0709,1.06831 H 94.148603 c -0.59329,0 -1.07091,-0.47643 -1.07091,-1.06831 v -76.57292 c 0,-0.59184 0.47762,-1.06829 1.07091,-1.06829 h 41.867737 c 0.59328,0 1.0709,0.47645 1.0709,1.06829 z"
         style="opacity:1;vector-effect:none;fill:none;fill-opacity:1;fill-rule:evenodd;stroke:#000000;stroke-width:0.49044761;stroke-linecap:butt;stroke-linejoin:miter;stroke-miterlimit:4;stroke-dasharray:none;stroke-dashoffset:0;stroke-opacity:1" />
      <path
         inkscape:connector-curvature="0"
         id="rect1418-6-5-2-6"
         d="m 182.11643,101.18026 v 76.57292 c 0,0.5918 -0.47764,1.06832 -1.07091,1.06832 h -41.86775 c -0.59327,0 -1.07091,-0.47644 -1.07091,-1.06832 v -76.57292 c 0,-0.59184 0.47764,-1.06829 1.07091,-1.06829 h 41.86775 c 0.59327,0 1.07091,0.47645 1.07091,1.06829 z"
         style="opacity:1;vector-effect:none;fill:none;fill-opacity:1;fill-rule:evenodd;stroke:#000000;stroke-width:0.49044761;stroke-linecap:butt;stroke-linejoin:miter;stroke-miterlimit:4;stroke-dasharray:none;stroke-dashoffset:0;stroke-opacity:1" />
      <path
         inkscape:connector-curvature="0"
         id="rect1418-3-6-1"
         d="m 227.18431,101.18026 v 76.57294 c 0,0.59178 -0.47762,1.0683 -1.0709,1.0683 h -41.86774 c -0.59329,0 -1.07091,-0.47644 -1.07091,-1.0683 v -76.57294 c 0,-0.59184 0.47762,-1.06829 1.07091,-1.06829 h 41.86774 c 0.59328,0 1.0709,0.47645 1.0709,1.06829 z"
         style="opacity:1;vector-effect:none;fill:none;fill-opacity:1;fill-rule:evenodd;stroke:#000000;stroke-width:0.49044761;stroke-linecap:butt;stroke-linejoin:miter;stroke-miterlimit:4;stroke-dasharray:none;stroke-dashoffset:0;stroke-opacity:1" />
      <path
         inkscape:connector-curvature="0"
         id="rect1418-6-56-1-2"
         d="m 272.21347,101.18026 v 76.57292 c 0,0.5918 -0.47762,1.06832 -1.0709,1.06832 h -41.86772 c -0.59328,0 -1.07092,-0.47644 -1.07092,-1.06832 v -76.57292 c 0,-0.59184 0.47764,-1.06829 1.07092,-1.06829 h 41.86772 c 0.59328,0 1.0709,0.47645 1.0709,1.06829 z"
         style="opacity:1;vector-effect:none;fill:none;fill-opacity:1;fill-rule:evenodd;stroke:#000000;stroke-width:0.49044761;stroke-linecap:butt;stroke-linejoin:miter;stroke-miterlimit:4;stroke-dasharray:none;stroke-dashoffset:0;stroke-opacity:1" />
      <path
         inkscape:connector-curvature="0"
         id="rect1418-36-9-9"
         d="m 47.002758,180.93818 v 76.57294 c 0,0.59178 -0.477631,1.0683 -1.07091,1.0683 H 4.0641081 c -0.59329,0 -1.07091,-0.47644 -1.07091,-1.0683 v -76.57294 c 0,-0.59184 0.47762,-1.06829 1.07091,-1.06829 H 45.931848 c 0.593279,0 1.07091,0.47645 1.07091,1.06829 z"
         style="opacity:1;vector-effect:none;fill:none;fill-opacity:1;fill-rule:evenodd;stroke:#000000;stroke-width:0.49044761;stroke-linecap:butt;stroke-linejoin:miter;stroke-miterlimit:4;stroke-dasharray:none;stroke-dashoffset:0;stroke-opacity:1" />
      <path
         inkscape:connector-curvature="0"
         id="rect1418-6-0-7-3"
         d="m 92.031927,180.93818 v 76.57293 c 0,0.59179 -0.47763,1.06831 -1.07091,1.06831 h -41.86774 c -0.59328,0 -1.07091,-0.47644 -1.07091,-1.06831 v -76.57293 c 0,-0.59184 0.47763,-1.06829 1.07091,-1.06829 h 41.86774 c 0.59328,0 1.07091,0.47645 1.07091,1.06829 z"
         style="opacity:1;vector-effect:none;fill:none;fill-opacity:1;fill-rule:evenodd;stroke:#000000;stroke-width:0.49044761;stroke-linecap:butt;stroke-linejoin:miter;stroke-miterlimit:4;stroke-dasharray:none;stroke-dashoffset:0;stroke-opacity:1" />
      <path
         inkscape:connector-curvature="0"
         id="rect1418-7-6-3-1"
         d="m 137.09981,180.93818 v 76.57293 c 0,0.59179 -0.47762,1.0683 -1.0709,1.0683 H 94.161178 c -0.59329,0 -1.07091,-0.47643 -1.07091,-1.0683 v -76.57293 c 0,-0.59184 0.47762,-1.06829 1.07091,-1.06829 h 41.867732 c 0.59328,0 1.0709,0.47645 1.0709,1.06829 z"
         style="opacity:1;vector-effect:none;fill:none;fill-opacity:1;fill-rule:evenodd;stroke:#000000;stroke-width:0.49044761;stroke-linecap:butt;stroke-linejoin:miter;stroke-miterlimit:4;stroke-dasharray:none;stroke-dashoffset:0;stroke-opacity:1" />
      <path
         inkscape:connector-curvature="0"
         id="rect1418-6-5-2-6-9"
         d="m 182.129,180.93818 v 76.57293 c 0,0.59179 -0.47764,1.06831 -1.07091,1.06831 h -41.86775 c -0.59327,0 -1.07091,-0.47644 -1.07091,-1.06831 v -76.57293 c 0,-0.59184 0.47764,-1.06829 1.07091,-1.06829 h 41.86775 c 0.59327,0 1.07091,0.47645 1.07091,1.06829 z"
         style="opacity:1;vector-effect:none;fill:none;fill-opacity:1;fill-rule:evenodd;stroke:#000000;stroke-width:0.49044761;stroke-linecap:butt;stroke-linejoin:miter;stroke-miterlimit:4;stroke-dasharray:none;stroke-dashoffset:0;stroke-opacity:1" />
      <path
         inkscape:connector-curvature="0"
         id="rect1418-3-6-1-4"
         d="m 227.19689,180.93818 v 76.57294 c 0,0.59178 -0.47763,1.0683 -1.07091,1.0683 h -41.86774 c -0.59329,0 -1.07091,-0.47644 -1.07091,-1.0683 v -76.57294 c 0,-0.59184 0.47762,-1.06829 1.07091,-1.06829 h 41.86774 c 0.59328,0 1.07091,0.47645 1.07091,1.06829 z"
         style="opacity:1;vector-effect:none;fill:none;fill-opacity:1;fill-rule:evenodd;stroke:#000000;stroke-width:0.49044761;stroke-linecap:butt;stroke-linejoin:miter;stroke-miterlimit:4;stroke-dasharray:none;stroke-dashoffset:0;stroke-opacity:1" />
      <path
         inkscape:connector-curvature="0"
         id="rect1418-6-56-1-2-7"
         d="m 272.22604,180.93818 v 76.57293 c 0,0.59179 -0.47762,1.06831 -1.0709,1.06831 h -41.86772 c -0.59328,0 -1.07092,-0.47644 -1.07092,-1.06831 v -76.57293 c 0,-0.59184 0.47764,-1.06829 1.07092,-1.06829 h 41.86772 c 0.59328,0 1.0709,0.47645 1.0709,1.06829 z"
         style="opacity:1;vector-effect:none;fill:none;fill-opacity:1;fill-rule:evenodd;stroke:#000000;stroke-width:0.49044761;stroke-linecap:butt;stroke-linejoin:miter;stroke-miterlimit:4;stroke-dasharray:none;stroke-dashoffset:0;stroke-opacity:1" />
      <path
         inkscape:connector-curvature="0"
         id="rect1418-367"
         d="m 47.570639,261.72568 v 76.57301 c 0,0.59178 -0.477623,1.0683 -1.070907,1.0683 H 4.6319936 c -0.593284,0 -1.070908,-0.47643 -1.070908,-1.0683 v -76.57301 c 0,-0.59184 0.477623,-1.0683 1.070908,-1.0683 H 46.499732 c 0.593284,0 1.070907,0.47646 1.070907,1.0683 z"
         style="opacity:1;vector-effect:none;fill:none;fill-opacity:1;fill-rule:evenodd;stroke:#000000;stroke-width:0.49044758;stroke-linecap:butt;stroke-linejoin:miter;stroke-miterlimit:4;stroke-dasharray:none;stroke-dashoffset:0;stroke-opacity:1" />
      <path
         inkscape:connector-curvature="0"
         id="rect1418-6-53"
         d="m 92.599814,261.72568 v 76.57301 c 0,0.59178 -0.477631,1.0683 -1.070911,1.0683 H 49.661165 c -0.593281,0 -1.070912,-0.47643 -1.070912,-1.0683 v -76.57301 c 0,-0.59184 0.477631,-1.0683 1.070912,-1.0683 h 41.867738 c 0.59328,0 1.070911,0.47646 1.070911,1.0683 z"
         style="opacity:1;vector-effect:none;fill:none;fill-opacity:1;fill-rule:evenodd;stroke:#000000;stroke-width:0.49044761;stroke-linecap:butt;stroke-linejoin:miter;stroke-miterlimit:4;stroke-dasharray:none;stroke-dashoffset:0;stroke-opacity:1" />
      <path
         inkscape:connector-curvature="0"
         id="rect1418-7-5"
         d="m 137.6677,261.72568 v 76.57301 c 0,0.59178 -0.47762,1.0683 -1.0709,1.0683 H 94.729057 c -0.593286,0 -1.070909,-0.47643 -1.070909,-1.0683 v -76.57301 c 0,-0.59184 0.477623,-1.0683 1.070909,-1.0683 H 136.5968 c 0.59328,0 1.0709,0.47646 1.0709,1.0683 z"
         style="opacity:1;vector-effect:none;fill:none;fill-opacity:1;fill-rule:evenodd;stroke:#000000;stroke-width:0.49044761;stroke-linecap:butt;stroke-linejoin:miter;stroke-miterlimit:4;stroke-dasharray:none;stroke-dashoffset:0;stroke-opacity:1" />
      <path
         inkscape:connector-curvature="0"
         id="rect1418-6-5-6"
         d="m 182.69688,261.72568 v 76.57301 c 0,0.59178 -0.47763,1.0683 -1.0709,1.0683 h -41.86775 c -0.59327,0 -1.07091,-0.47643 -1.07091,-1.0683 v -76.57301 c 0,-0.59184 0.47764,-1.0683 1.07091,-1.0683 h 41.86775 c 0.59327,0 1.0709,0.47646 1.0709,1.0683 z"
         style="opacity:1;vector-effect:none;fill:none;fill-opacity:1;fill-rule:evenodd;stroke:#000000;stroke-width:0.49044761;stroke-linecap:butt;stroke-linejoin:miter;stroke-miterlimit:4;stroke-dasharray:none;stroke-dashoffset:0;stroke-opacity:1" />
      <path
         inkscape:connector-curvature="0"
         id="rect1418-3-29"
         d="m 227.76477,261.72568 v 76.57301 c 0,0.59178 -0.47762,1.0683 -1.0709,1.0683 h -41.86774 c -0.59329,0 -1.07091,-0.47643 -1.07091,-1.0683 v -76.57301 c 0,-0.59184 0.47762,-1.0683 1.07091,-1.0683 h 41.86774 c 0.59328,0 1.0709,0.47646 1.0709,1.0683 z"
         style="opacity:1;vector-effect:none;fill:none;fill-opacity:1;fill-rule:evenodd;stroke:#000000;stroke-width:0.49044761;stroke-linecap:butt;stroke-linejoin:miter;stroke-miterlimit:4;stroke-dasharray:none;stroke-dashoffset:0;stroke-opacity:1" />
      <path
         inkscape:connector-curvature="0"
         id="rect1418-6-56-12"
         d="m 272.79396,261.72568 v 76.57301 c 0,0.59178 -0.47765,1.0683 -1.07093,1.0683 H 229.8553 c -0.59328,0 -1.07091,-0.47643 -1.07091,-1.0683 v -76.57301 c 0,-0.59184 0.47763,-1.0683 1.07091,-1.0683 h 41.86773 c 0.59328,0 1.07093,0.47646 1.07093,1.0683 z"
         style="opacity:1;vector-effect:none;fill:none;fill-opacity:1;fill-rule:evenodd;stroke:#000000;stroke-width:0.49044761;stroke-linecap:butt;stroke-linejoin:miter;stroke-miterlimit:4;stroke-dasharray:none;stroke-dashoffset:0;stroke-opacity:1" />
      <path
         inkscape:connector-curvature="0"
         id="rect1418-9-70"
         d="m 47.570634,341.49361 v 76.57298 c 0,0.59178 -0.477621,1.0683 -1.070902,1.0683 H 4.6319936 c -0.59329,0 -1.07091,-0.47643 -1.07091,-1.0683 v -76.57298 c 0,-0.59183 0.47762,-1.06829 1.07091,-1.06829 H 46.499732 c 0.593281,0 1.070902,0.47646 1.070902,1.06829 z"
         style="opacity:1;vector-effect:none;fill:none;fill-opacity:1;fill-rule:evenodd;stroke:#000000;stroke-width:0.49044761;stroke-linecap:butt;stroke-linejoin:miter;stroke-miterlimit:4;stroke-dasharray:none;stroke-dashoffset:0;stroke-opacity:1" />
      <path
         inkscape:connector-curvature="0"
         id="rect1418-6-1-9"
         d="m 92.599814,341.49361 v 76.57298 c 0,0.5918 -0.477631,1.06832 -1.070911,1.06832 H 49.661165 c -0.593281,0 -1.070912,-0.47645 -1.070912,-1.06832 v -76.57298 c 0,-0.59183 0.477631,-1.06829 1.070912,-1.06829 h 41.867738 c 0.59328,0 1.070911,0.47646 1.070911,1.06829 z"
         style="opacity:1;vector-effect:none;fill:none;fill-opacity:1;fill-rule:evenodd;stroke:#000000;stroke-width:0.49044761;stroke-linecap:butt;stroke-linejoin:miter;stroke-miterlimit:4;stroke-dasharray:none;stroke-dashoffset:0;stroke-opacity:1" />
      <path
         inkscape:connector-curvature="0"
         id="rect1418-7-2-3"
         d="m 137.6677,341.49361 v 76.57298 c 0,0.5918 -0.47762,1.0683 -1.0709,1.0683 H 94.729054 c -0.59328,0 -1.070909,-0.47643 -1.070909,-1.0683 v -76.57298 c 0,-0.59183 0.477629,-1.06829 1.070909,-1.06829 H 136.5968 c 0.59328,0 1.0709,0.47646 1.0709,1.06829 z"
         style="opacity:1;vector-effect:none;fill:none;fill-opacity:1;fill-rule:evenodd;stroke:#000000;stroke-width:0.49044761;stroke-linecap:butt;stroke-linejoin:miter;stroke-miterlimit:4;stroke-dasharray:none;stroke-dashoffset:0;stroke-opacity:1" />
      <path
         inkscape:connector-curvature="0"
         id="rect1418-6-5-7-6"
         d="m 182.69689,341.49361 v 76.57298 c 0,0.5918 -0.47764,1.06832 -1.07091,1.06832 h -41.86775 c -0.59327,0 -1.07091,-0.47645 -1.07091,-1.06832 v -76.57298 c 0,-0.59183 0.47764,-1.06829 1.07091,-1.06829 h 41.86775 c 0.59327,0 1.07091,0.47646 1.07091,1.06829 z"
         style="opacity:1;vector-effect:none;fill:none;fill-opacity:1;fill-rule:evenodd;stroke:#000000;stroke-width:0.49044761;stroke-linecap:butt;stroke-linejoin:miter;stroke-miterlimit:4;stroke-dasharray:none;stroke-dashoffset:0;stroke-opacity:1" />
      <path
         inkscape:connector-curvature="0"
         id="rect1418-3-0-0"
         d="m 227.76477,341.49361 v 76.57298 c 0,0.59178 -0.47762,1.0683 -1.0709,1.0683 h -41.86774 c -0.59329,0 -1.07091,-0.47643 -1.07091,-1.0683 v -76.57298 c 0,-0.59183 0.47762,-1.06829 1.07091,-1.06829 h 41.86774 c 0.59328,0 1.0709,0.47646 1.0709,1.06829 z"
         style="opacity:1;vector-effect:none;fill:none;fill-opacity:1;fill-rule:evenodd;stroke:#000000;stroke-width:0.49044761;stroke-linecap:butt;stroke-linejoin:miter;stroke-miterlimit:4;stroke-dasharray:none;stroke-dashoffset:0;stroke-opacity:1" />
      <path
         inkscape:connector-curvature="0"
         id="rect1418-6-56-9-6"
         d="m 272.79393,341.49361 v 76.57298 c 0,0.5918 -0.47762,1.06832 -1.0709,1.06832 h -41.86772 c -0.59328,0 -1.07092,-0.47645 -1.07092,-1.06832 v -76.57298 c 0,-0.59183 0.47764,-1.06829 1.07092,-1.06829 h 41.86772 c 0.59328,0 1.0709,0.47646 1.0709,1.06829 z"
         style="opacity:1;vector-effect:none;fill:none;fill-opacity:1;fill-rule:evenodd;stroke:#000000;stroke-width:0.49044761;stroke-linecap:butt;stroke-linejoin:miter;stroke-miterlimit:4;stroke-dasharray:none;stroke-dashoffset:0;stroke-opacity:1" />
      <path
         inkscape:connector-curvature="0"
         id="rect1418-36-2"
         d="m 47.570639,421.26153 v 76.57293 c 0,0.59178 -0.477623,1.0683 -1.070907,1.0683 H 4.6319953 c -0.59329,0 -1.07091,-0.47644 -1.07091,-1.0683 v -76.57293 c 0,-0.59184 0.47762,-1.06829 1.07091,-1.06829 H 46.499732 c 0.593284,0 1.070907,0.47645 1.070907,1.06829 z"
         style="opacity:1;vector-effect:none;fill:none;fill-opacity:1;fill-rule:evenodd;stroke:#000000;stroke-width:0.49044761;stroke-linecap:butt;stroke-linejoin:miter;stroke-miterlimit:4;stroke-dasharray:none;stroke-dashoffset:0;stroke-opacity:1" />
      <path
         inkscape:connector-curvature="0"
         id="rect1418-6-0-6"
         d="m 92.599814,421.26153 v 76.57292 c 0,0.59179 -0.477631,1.06831 -1.070909,1.06831 h -41.86774 c -0.593281,0 -1.070915,-0.47644 -1.070915,-1.06831 v -76.57292 c 0,-0.59184 0.477634,-1.06829 1.070915,-1.06829 h 41.86774 c 0.593278,0 1.070909,0.47645 1.070909,1.06829 z"
         style="opacity:1;vector-effect:none;fill:none;fill-opacity:1;fill-rule:evenodd;stroke:#000000;stroke-width:0.49044761;stroke-linecap:butt;stroke-linejoin:miter;stroke-miterlimit:4;stroke-dasharray:none;stroke-dashoffset:0;stroke-opacity:1" />
      <path
         inkscape:connector-curvature="0"
         id="rect1418-7-6-1"
         d="m 137.6677,421.26153 v 76.57292 c 0,0.59179 -0.47762,1.0683 -1.0709,1.0683 H 94.729057 c -0.593283,0 -1.070909,-0.47643 -1.070909,-1.0683 v -76.57292 c 0,-0.59184 0.477623,-1.06829 1.070909,-1.06829 H 136.5968 c 0.59328,0 1.0709,0.47645 1.0709,1.06829 z"
         style="opacity:1;vector-effect:none;fill:none;fill-opacity:1;fill-rule:evenodd;stroke:#000000;stroke-width:0.49044761;stroke-linecap:butt;stroke-linejoin:miter;stroke-miterlimit:4;stroke-dasharray:none;stroke-dashoffset:0;stroke-opacity:1" />
      <path
         inkscape:connector-curvature="0"
         id="rect1418-6-5-2-8"
         d="m 182.69689,421.26153 v 76.57292 c 0,0.59179 -0.47764,1.06831 -1.07091,1.06831 h -41.86775 c -0.59327,0 -1.07091,-0.47644 -1.07091,-1.06831 v -76.57292 c 0,-0.59184 0.47764,-1.06829 1.07091,-1.06829 h 41.86775 c 0.59327,0 1.07091,0.47645 1.07091,1.06829 z"
         style="opacity:1;vector-effect:none;fill:none;fill-opacity:1;fill-rule:evenodd;stroke:#000000;stroke-width:0.49044761;stroke-linecap:butt;stroke-linejoin:miter;stroke-miterlimit:4;stroke-dasharray:none;stroke-dashoffset:0;stroke-opacity:1" />
      <path
         inkscape:connector-curvature="0"
         id="rect1418-3-6-7"
         d="m 227.76477,421.26153 v 76.57293 c 0,0.59178 -0.47762,1.0683 -1.0709,1.0683 h -41.86774 c -0.59329,0 -1.07091,-0.47644 -1.07091,-1.0683 v -76.57293 c 0,-0.59184 0.47762,-1.06829 1.07091,-1.06829 h 41.86774 c 0.59328,0 1.0709,0.47645 1.0709,1.06829 z"
         style="opacity:1;vector-effect:none;fill:none;fill-opacity:1;fill-rule:evenodd;stroke:#000000;stroke-width:0.49044761;stroke-linecap:butt;stroke-linejoin:miter;stroke-miterlimit:4;stroke-dasharray:none;stroke-dashoffset:0;stroke-opacity:1" />
      <path
         inkscape:connector-curvature="0"
         id="rect1418-6-56-1-9"
         d="m 272.79393,421.26153 v 76.57292 c 0,0.59179 -0.47762,1.06831 -1.0709,1.06831 h -41.86772 c -0.59328,0 -1.07092,-0.47644 -1.07092,-1.06831 v -76.57292 c 0,-0.59184 0.47764,-1.06829 1.07092,-1.06829 h 41.86772 c 0.59328,0 1.0709,0.47645 1.0709,1.06829 z"
         style="opacity:1;vector-effect:none;fill:none;fill-opacity:1;fill-rule:evenodd;stroke:#000000;stroke-width:0.49044761;stroke-linecap:butt;stroke-linejoin:miter;stroke-miterlimit:4;stroke-dasharray:none;stroke-dashoffset:0;stroke-opacity:1" />
    </g>
  </g>
</svg>
