<?xml version="1.0" encoding="utf-8"?>
<!-- Generator: Adobe Illustrator 24.2.2, SVG Export Plug-In . SVG Version: 6.00 Build 0)  -->
<svg version="1.1"
	 id="svg8" inkscape:version="0.92.3 (2405546, 2018-03-11)" sodipodi:docname="7*40top_mouse_buttons.svg" xmlns:cc="http://creativecommons.org/ns#" xmlns:dc="http://purl.org/dc/elements/1.1/" xmlns:inkscape="http://www.inkscape.org/namespaces/inkscape" xmlns:rdf="http://www.w3.org/1999/02/22-rdf-syntax-ns#" xmlns:sodipodi="http://sodipodi.sourceforge.net/DTD/sodipodi-0.dtd" xmlns:svg="http://www.w3.org/2000/svg"
	 xmlns="http://www.w3.org/2000/svg" xmlns:xlink="http://www.w3.org/1999/xlink" x="0px" y="0px" viewBox="0 0 595.3 841.9"
	 style="enable-background:new 0 0 595.3 841.9;" xml:space="preserve">
<style type="text/css">
	.st0{fill:none;stroke:#000000;stroke-width:0.5669;stroke-miterlimit:11.3386;}
</style>
<sodipodi:namedview  bordercolor="#666666" borderopacity="1.0" id="base" inkscape:current-layer="layer1" inkscape:cx="449.82048" inkscape:cy="1082.6119" inkscape:document-units="mm" inkscape:pageopacity="0.0" inkscape:pageshadow="2" inkscape:window-height="887" inkscape:window-maximized="1" inkscape:window-width="1664" inkscape:window-x="0" inkscape:window-y="28" inkscape:zoom="0.98994949" pagecolor="#ffffff" showgrid="false">
	</sodipodi:namedview>
<g>
	<path class="st0" d="M44.9,500.5V293.6h92.7c2.3,0,4.2,1.9,4.2,4.2v198.4c0,2.4-2,4.4-4.4,4.4H44.9z"/>
	<path class="st0" d="M0,394.9v-95c0-2.3,1.9-4.2,4.2-4.2h38.3v99.2H0z"/>
	<path class="st0" d="M0,492.6v-95h42.5v99.2H4.2C1.9,496.8,0,494.9,0,492.6z"/>
</g>
<sodipodi:namedview  bordercolor="#666666" borderopacity="1.0" id="base" inkscape:current-layer="layer1" inkscape:cx="449.82048" inkscape:cy="1082.6119" inkscape:document-units="mm" inkscape:pageopacity="0.0" inkscape:pageshadow="2" inkscape:window-height="887" inkscape:window-maximized="1" inkscape:window-width="1664" inkscape:window-x="0" inkscape:window-y="28" inkscape:zoom="0.98994949" pagecolor="#ffffff" showgrid="false">
	</sodipodi:namedview>
<g>
	<path class="st0" d="M191.3,500.5V293.6h92.7c2.3,0,4.2,1.9,4.2,4.2v198.4c0,2.4-2,4.4-4.4,4.4H191.3z"/>
	<path class="st0" d="M146.4,394.9v-95c0-2.3,1.9-4.2,4.2-4.2h38.3v99.2H146.4z"/>
	<path class="st0" d="M146.4,492.6v-95h42.5v99.2h-38.3C148.3,496.8,146.4,494.9,146.4,492.6z"/>
</g>
<g>
	<path class="st0" d="M337.5,500.5V293.6h92.7c2.3,0,4.2,1.9,4.2,4.2v198.4c0,2.4-2,4.4-4.4,4.4H337.5z"/>
	<path class="st0" d="M292.6,394.9v-95c0-2.3,1.9-4.2,4.2-4.2h38.3v99.2H292.6z"/>
	<path class="st0" d="M292.6,492.6v-95h42.5v99.2h-38.3C294.5,496.8,292.6,494.9,292.6,492.6z"/>
</g>
<g>
	<path class="st0" d="M483.9,500.5V293.6h92.7c2.3,0,4.2,1.9,4.2,4.2v198.4c0,2.4-2,4.4-4.4,4.4H483.9z"/>
	<path class="st0" d="M439,394.9v-95c0-2.3,1.9-4.2,4.2-4.2h38.3v99.2H439z"/>
	<path class="st0" d="M439,492.6v-95h42.5v99.2h-38.3C440.9,496.8,439,494.9,439,492.6z"/>
</g>
<g>
	<path class="st0" d="M630.2,501.1V294.2h92.7c2.3,0,4.2,1.9,4.2,4.2v198.4c0,2.4-2,4.4-4.4,4.4H630.2z"/>
	<path class="st0" d="M585.3,395.5v-95c0-2.3,1.9-4.2,4.2-4.2h38.3v99.2H585.3z"/>
	<path class="st0" d="M585.3,493.2v-95h42.5v99.2h-38.3C587.2,497.4,585.3,495.5,585.3,493.2z"/>
</g>
<g>
	<path class="st0" d="M776.6,501.1V294.2h92.7c2.3,0,4.2,1.9,4.2,4.2v198.4c0,2.4-2,4.4-4.4,4.4H776.6z"/>
	<path class="st0" d="M731.7,395.5v-95c0-2.3,1.9-4.2,4.2-4.2h38.3v99.2H731.7z"/>
	<path class="st0" d="M731.7,493.2v-95h42.5v99.2h-38.3C733.6,497.4,731.7,495.5,731.7,493.2z"/>
</g>
<g>
	<path class="st0" d="M922.8,501.1V294.2h92.7c2.3,0,4.2,1.9,4.2,4.2v198.4c0,2.4-2,4.4-4.4,4.4H922.8z"/>
	<path class="st0" d="M877.9,395.5v-95c0-2.3,1.9-4.2,4.2-4.2h38.3v99.2H877.9z"/>
	<path class="st0" d="M877.9,493.2v-95h42.5v99.2h-38.3C879.8,497.4,877.9,495.5,877.9,493.2z"/>
</g>
<g>
	<path class="st0" d="M1069.2,501.1V294.2h92.7c2.3,0,4.2,1.9,4.2,4.2v198.4c0,2.4-2,4.4-4.4,4.4H1069.2z"/>
	<path class="st0" d="M1024.3,395.5v-95c0-2.3,1.9-4.2,4.2-4.2h38.3v99.2H1024.3z"/>
	<path class="st0" d="M1024.3,493.2v-95h42.5v99.2h-38.3C1026.2,497.4,1024.3,495.5,1024.3,493.2z"/>
</g>
<g>
	<path class="st0" d="M2386.5,501.7V294.7h92.7c2.3,0,4.2,1.9,4.2,4.2v198.4c0,2.4-2,4.4-4.4,4.4H2386.5z"/>
	<path class="st0" d="M2341.6,396.1v-95c0-2.3,1.9-4.2,4.2-4.2h38.3v99.2H2341.6z"/>
	<path class="st0" d="M2341.6,493.7v-95h42.5V498h-38.3C2343.5,498,2341.6,496.1,2341.6,493.7z"/>
</g>
<g>
	<path class="st0" d="M2532.9,501.7V294.7h92.7c2.3,0,4.2,1.9,4.2,4.2v198.4c0,2.4-2,4.4-4.4,4.4H2532.9z"/>
	<path class="st0" d="M2488,396.1v-95c0-2.3,1.9-4.2,4.2-4.2h38.3v99.2H2488z"/>
	<path class="st0" d="M2488,493.7v-95h42.5V498h-38.3C2489.9,498,2488,496.1,2488,493.7z"/>
</g>
<g>
	<path class="st0" d="M2679.1,501.7V294.7h92.7c2.3,0,4.2,1.9,4.2,4.2v198.4c0,2.4-2,4.4-4.4,4.4H2679.1z"/>
	<path class="st0" d="M2634.2,396.1v-95c0-2.3,1.9-4.2,4.2-4.2h38.3v99.2H2634.2z"/>
	<path class="st0" d="M2634.2,493.7v-95h42.5V498h-38.3C2636.1,498,2634.2,496.1,2634.2,493.7z"/>
</g>
<g>
	<path class="st0" d="M2825.5,501.7V294.7h92.7c2.3,0,4.2,1.9,4.2,4.2v198.4c0,2.4-2,4.4-4.4,4.4H2825.5z"/>
	<path class="st0" d="M2780.6,396.1v-95c0-2.3,1.9-4.2,4.2-4.2h38.3v99.2H2780.6z"/>
	<path class="st0" d="M2780.6,493.7v-95h42.5V498h-38.3C2782.5,498,2780.6,496.1,2780.6,493.7z"/>
</g>
<g>
	<path class="st0" d="M2971.8,502.2V295.3h92.7c2.3,0,4.2,1.9,4.2,4.2v198.4c0,2.4-2,4.4-4.4,4.4H2971.8z"/>
	<path class="st0" d="M2926.9,396.6v-95c0-2.3,1.9-4.2,4.2-4.2h38.3v99.2H2926.9z"/>
	<path class="st0" d="M2926.9,494.3v-95h42.5v99.2h-38.3C2928.8,498.5,2926.9,496.6,2926.9,494.3z"/>
</g>
<g>
	<path class="st0" d="M3118.2,502.2V295.3h92.7c2.3,0,4.2,1.9,4.2,4.2v198.4c0,2.4-2,4.4-4.4,4.4H3118.2z"/>
	<path class="st0" d="M3073.3,396.6v-95c0-2.3,1.9-4.2,4.2-4.2h38.3v99.2H3073.3z"/>
	<path class="st0" d="M3073.3,494.3v-95h42.5v99.2h-38.3C3075.2,498.5,3073.3,496.6,3073.3,494.3z"/>
</g>
<g>
	<path class="st0" d="M3264.4,502.2V295.3h92.7c2.3,0,4.2,1.9,4.2,4.2v198.4c0,2.4-2,4.4-4.4,4.4H3264.4z"/>
	<path class="st0" d="M3219.5,396.6v-95c0-2.3,1.9-4.2,4.2-4.2h38.3v99.2H3219.5z"/>
	<path class="st0" d="M3219.5,494.3v-95h42.5v99.2h-38.3C3221.4,498.5,3219.5,496.6,3219.5,494.3z"/>
</g>
<g>
	<path class="st0" d="M3410.8,502.2V295.3h92.7c2.3,0,4.2,1.9,4.2,4.2v198.4c0,2.4-2,4.4-4.4,4.4H3410.8z"/>
	<path class="st0" d="M3365.9,396.6v-95c0-2.3,1.9-4.2,4.2-4.2h38.3v99.2H3365.9z"/>
	<path class="st0" d="M3365.9,494.3v-95h42.5v99.2h-38.3C3367.8,498.5,3365.9,496.6,3365.9,494.3z"/>
</g>
<g>
	<path class="st0" d="M1214.6,501.1V294.2h92.7c2.3,0,4.2,1.9,4.2,4.2v198.4c0,2.4-2,4.4-4.4,4.4H1214.6z"/>
	<path class="st0" d="M1169.7,395.5v-95c0-2.3,1.9-4.2,4.2-4.2h38.3v99.2H1169.7z"/>
	<path class="st0" d="M1169.7,493.2v-95h42.5v99.2H1174C1171.6,497.4,1169.7,495.5,1169.7,493.2z"/>
</g>
<g>
	<path class="st0" d="M1361,501.1V294.2h92.7c2.3,0,4.2,1.9,4.2,4.2v198.4c0,2.4-2,4.4-4.4,4.4H1361z"/>
	<path class="st0" d="M1316.1,395.5v-95c0-2.3,1.9-4.2,4.2-4.2h38.3v99.2H1316.1z"/>
	<path class="st0" d="M1316.1,493.2v-95h42.5v99.2h-38.3C1318,497.4,1316.1,495.5,1316.1,493.2z"/>
</g>
<g>
	<path class="st0" d="M1507.2,501.1V294.2h92.7c2.3,0,4.2,1.9,4.2,4.2v198.4c0,2.4-2,4.4-4.4,4.4H1507.2z"/>
	<path class="st0" d="M1462.3,395.5v-95c0-2.3,1.9-4.2,4.2-4.2h38.3v99.2H1462.3z"/>
	<path class="st0" d="M1462.3,493.2v-95h42.5v99.2h-38.3C1464.2,497.4,1462.3,495.5,1462.3,493.2z"/>
</g>
<g>
	<path class="st0" d="M1653.6,501.1V294.2h92.7c2.3,0,4.2,1.9,4.2,4.2v198.4c0,2.4-2,4.4-4.4,4.4H1653.6z"/>
	<path class="st0" d="M1608.7,395.5v-95c0-2.3,1.9-4.2,4.2-4.2h38.3v99.2H1608.7z"/>
	<path class="st0" d="M1608.7,493.2v-95h42.5v99.2h-38.3C1610.6,497.4,1608.7,495.5,1608.7,493.2z"/>
</g>
<g>
	<path class="st0" d="M1799.9,501.7V294.7h92.7c2.3,0,4.2,1.9,4.2,4.2v198.4c0,2.4-2,4.4-4.4,4.4H1799.9z"/>
	<path class="st0" d="M1755,396.1v-95c0-2.3,1.9-4.2,4.2-4.2h38.3v99.2H1755z"/>
	<path class="st0" d="M1755,493.7v-95h42.5V498h-38.3C1756.9,498,1755,496.1,1755,493.7z"/>
</g>
<g>
	<path class="st0" d="M1946.3,501.7V294.7h92.7c2.3,0,4.2,1.9,4.2,4.2v198.4c0,2.4-2,4.4-4.4,4.4H1946.3z"/>
	<path class="st0" d="M1901.4,396.1v-95c0-2.3,1.9-4.2,4.2-4.2h38.3v99.2H1901.4z"/>
	<path class="st0" d="M1901.4,493.7v-95h42.5V498h-38.3C1903.3,498,1901.4,496.1,1901.4,493.7z"/>
</g>
<g>
	<path class="st0" d="M2092.5,501.7V294.7h92.7c2.3,0,4.2,1.9,4.2,4.2v198.4c0,2.4-2,4.4-4.4,4.4H2092.5z"/>
	<path class="st0" d="M2047.6,396.1v-95c0-2.3,1.9-4.2,4.2-4.2h38.3v99.2H2047.6z"/>
	<path class="st0" d="M2047.6,493.7v-95h42.5V498h-38.3C2049.5,498,2047.6,496.1,2047.6,493.7z"/>
</g>
<g>
	<path class="st0" d="M2238.9,501.7V294.7h92.7c2.3,0,4.2,1.9,4.2,4.2v198.4c0,2.4-2,4.4-4.4,4.4H2238.9z"/>
	<path class="st0" d="M2194,396.1v-95c0-2.3,1.9-4.2,4.2-4.2h38.3v99.2H2194z"/>
	<path class="st0" d="M2194,493.7v-95h42.5V498h-38.3C2195.9,498,2194,496.1,2194,493.7z"/>
</g>
<g>
	<path class="st0" d="M3555.5,502.2V295.3h92.7c2.3,0,4.2,1.9,4.2,4.2v198.4c0,2.4-2,4.4-4.4,4.4H3555.5z"/>
	<path class="st0" d="M3510.6,396.6v-95c0-2.3,1.9-4.2,4.2-4.2h38.3v99.2H3510.6z"/>
	<path class="st0" d="M3510.6,494.3v-95h42.5v99.2h-38.3C3512.5,498.5,3510.6,496.6,3510.6,494.3z"/>
</g>
<g>
	<path class="st0" d="M3701.8,502.2V295.3h92.7c2.3,0,4.2,1.9,4.2,4.2v198.4c0,2.4-2,4.4-4.4,4.4H3701.8z"/>
	<path class="st0" d="M3656.9,396.6v-95c0-2.3,1.9-4.2,4.2-4.2h38.3v99.2H3656.9z"/>
	<path class="st0" d="M3656.9,494.3v-95h42.5v99.2h-38.3C3658.8,498.5,3656.9,496.6,3656.9,494.3z"/>
</g>
<g>
	<path class="st0" d="M3848.1,502.2V295.3h92.7c2.3,0,4.2,1.9,4.2,4.2v198.4c0,2.4-2,4.4-4.4,4.4H3848.1z"/>
	<path class="st0" d="M3803.2,396.6v-95c0-2.3,1.9-4.2,4.2-4.2h38.3v99.2H3803.2z"/>
	<path class="st0" d="M3803.2,494.3v-95h42.5v99.2h-38.3C3805.1,498.5,3803.2,496.6,3803.2,494.3z"/>
</g>
</svg>
