<?xml version="1.0" encoding="utf-8"?>
<!-- Generator: Adobe Illustrator 25.3.0, SVG Export Plug-In . SVG Version: 6.00 Build 0)  -->
<svg version="1.1" id="Layer_1" xmlns="http://www.w3.org/2000/svg" xmlns:xlink="http://www.w3.org/1999/xlink" x="0px" y="0px"
	 viewBox="0 0 4280.3 1133.9" style="enable-background:new 0 0 4280.3 1133.9;" xml:space="preserve">
<style type="text/css">
	.st0{fill:none;stroke:#000000;stroke-miterlimit:10;}
</style>
<circle class="st0" cx="798" cy="234.8" r="21.3"/>
<circle class="st0" cx="840.5" cy="234.8" r="21.3"/>
<circle class="st0" cx="883" cy="234.8" r="21.3"/>
<circle class="st0" cx="925.6" cy="234.8" r="21.3"/>
<circle class="st0" cx="968.1" cy="234.8" r="21.3"/>
<circle class="st0" cx="1010.6" cy="234.8" r="21.3"/>
<circle class="st0" cx="1053.1" cy="234.8" r="21.3"/>
<circle class="st0" cx="1095.6" cy="234.8" r="21.3"/>
<circle class="st0" cx="1138.2" cy="234.8" r="21.3"/>
<circle class="st0" cx="1180.7" cy="234.8" r="21.3"/>
<circle class="st0" cx="1223.2" cy="234.8" r="21.3"/>
<circle class="st0" cx="1265.7" cy="234.8" r="21.3"/>
<circle class="st0" cx="1308.2" cy="234.8" r="21.3"/>
<circle class="st0" cx="1350.8" cy="234.8" r="21.3"/>
<circle class="st0" cx="1393.3" cy="234.8" r="21.3"/>
<circle class="st0" cx="1435.8" cy="234.8" r="21.3"/>
<circle class="st0" cx="117.7" cy="234.8" r="21.3"/>
<circle class="st0" cx="160.2" cy="234.8" r="21.3"/>
<circle class="st0" cx="202.7" cy="234.8" r="21.3"/>
<circle class="st0" cx="245.2" cy="234.8" r="21.3"/>
<circle class="st0" cx="287.8" cy="234.8" r="21.3"/>
<circle class="st0" cx="330.3" cy="234.8" r="21.3"/>
<circle class="st0" cx="372.8" cy="234.8" r="21.3"/>
<circle class="st0" cx="415.3" cy="234.8" r="21.3"/>
<circle class="st0" cx="457.8" cy="234.8" r="21.3"/>
<circle class="st0" cx="500.4" cy="234.8" r="21.3"/>
<circle class="st0" cx="542.9" cy="234.8" r="21.3"/>
<circle class="st0" cx="585.4" cy="234.8" r="21.3"/>
<circle class="st0" cx="627.9" cy="234.8" r="21.3"/>
<circle class="st0" cx="670.4" cy="234.8" r="21.3"/>
<circle class="st0" cx="713" cy="234.8" r="21.3"/>
<circle class="st0" cx="755.5" cy="234.8" r="21.3"/>
<circle class="st0" cx="798" cy="277.3" r="21.3"/>
<circle class="st0" cx="840.5" cy="277.3" r="21.3"/>
<circle class="st0" cx="883" cy="277.3" r="21.3"/>
<circle class="st0" cx="925.6" cy="277.3" r="21.3"/>
<circle class="st0" cx="968.1" cy="277.3" r="21.3"/>
<circle class="st0" cx="1010.6" cy="277.3" r="21.3"/>
<circle class="st0" cx="1053.1" cy="277.3" r="21.3"/>
<circle class="st0" cx="1095.6" cy="277.3" r="21.3"/>
<circle class="st0" cx="1138.2" cy="277.3" r="21.3"/>
<circle class="st0" cx="1180.7" cy="277.3" r="21.3"/>
<circle class="st0" cx="1223.2" cy="277.3" r="21.3"/>
<circle class="st0" cx="1265.7" cy="277.3" r="21.3"/>
<circle class="st0" cx="1308.2" cy="277.3" r="21.3"/>
<circle class="st0" cx="1350.8" cy="277.3" r="21.3"/>
<circle class="st0" cx="1393.3" cy="277.3" r="21.3"/>
<circle class="st0" cx="1435.8" cy="277.3" r="21.3"/>
<circle class="st0" cx="117.7" cy="277.3" r="21.3"/>
<circle class="st0" cx="160.2" cy="277.3" r="21.3"/>
<circle class="st0" cx="202.7" cy="277.3" r="21.3"/>
<circle class="st0" cx="245.2" cy="277.3" r="21.3"/>
<circle class="st0" cx="287.8" cy="277.3" r="21.3"/>
<circle class="st0" cx="330.3" cy="277.3" r="21.3"/>
<circle class="st0" cx="372.8" cy="277.3" r="21.3"/>
<circle class="st0" cx="415.3" cy="277.3" r="21.3"/>
<circle class="st0" cx="457.8" cy="277.3" r="21.3"/>
<circle class="st0" cx="500.4" cy="277.3" r="21.3"/>
<circle class="st0" cx="542.9" cy="277.3" r="21.3"/>
<circle class="st0" cx="585.4" cy="277.3" r="21.3"/>
<circle class="st0" cx="627.9" cy="277.3" r="21.3"/>
<circle class="st0" cx="670.4" cy="277.3" r="21.3"/>
<circle class="st0" cx="713" cy="277.3" r="21.3"/>
<circle class="st0" cx="755.5" cy="277.3" r="21.3"/>
<circle class="st0" cx="798" cy="319.9" r="21.3"/>
<circle class="st0" cx="840.5" cy="319.9" r="21.3"/>
<circle class="st0" cx="883" cy="319.9" r="21.3"/>
<circle class="st0" cx="925.6" cy="319.9" r="21.3"/>
<circle class="st0" cx="968.1" cy="319.9" r="21.3"/>
<circle class="st0" cx="1010.6" cy="319.9" r="21.3"/>
<circle class="st0" cx="1053.1" cy="319.9" r="21.3"/>
<circle class="st0" cx="1095.6" cy="319.9" r="21.3"/>
<circle class="st0" cx="1138.2" cy="319.9" r="21.3"/>
<circle class="st0" cx="1180.7" cy="319.9" r="21.3"/>
<circle class="st0" cx="1223.2" cy="319.9" r="21.3"/>
<circle class="st0" cx="1265.7" cy="319.9" r="21.3"/>
<circle class="st0" cx="1308.2" cy="319.9" r="21.3"/>
<circle class="st0" cx="1350.8" cy="319.9" r="21.3"/>
<circle class="st0" cx="1393.3" cy="319.9" r="21.3"/>
<circle class="st0" cx="1435.8" cy="319.9" r="21.3"/>
<circle class="st0" cx="117.7" cy="319.9" r="21.3"/>
<circle class="st0" cx="160.2" cy="319.9" r="21.3"/>
<circle class="st0" cx="202.7" cy="319.9" r="21.3"/>
<circle class="st0" cx="245.2" cy="319.9" r="21.3"/>
<circle class="st0" cx="287.8" cy="319.9" r="21.3"/>
<circle class="st0" cx="330.3" cy="319.9" r="21.3"/>
<circle class="st0" cx="372.8" cy="319.9" r="21.3"/>
<circle class="st0" cx="415.3" cy="319.9" r="21.3"/>
<circle class="st0" cx="457.8" cy="319.9" r="21.3"/>
<circle class="st0" cx="500.4" cy="319.9" r="21.3"/>
<circle class="st0" cx="542.9" cy="319.9" r="21.3"/>
<circle class="st0" cx="585.4" cy="319.9" r="21.3"/>
<circle class="st0" cx="627.9" cy="319.9" r="21.3"/>
<circle class="st0" cx="670.4" cy="319.9" r="21.3"/>
<circle class="st0" cx="713" cy="319.9" r="21.3"/>
<circle class="st0" cx="755.5" cy="319.9" r="21.3"/>
<circle class="st0" cx="798" cy="362.4" r="21.3"/>
<circle class="st0" cx="840.5" cy="362.4" r="21.3"/>
<circle class="st0" cx="883" cy="362.4" r="21.3"/>
<circle class="st0" cx="925.6" cy="362.4" r="21.3"/>
<circle class="st0" cx="968.1" cy="362.4" r="21.3"/>
<circle class="st0" cx="1010.6" cy="362.4" r="21.3"/>
<circle class="st0" cx="1053.1" cy="362.4" r="21.3"/>
<circle class="st0" cx="1095.6" cy="362.4" r="21.3"/>
<circle class="st0" cx="1138.2" cy="362.4" r="21.3"/>
<circle class="st0" cx="1180.7" cy="362.4" r="21.3"/>
<circle class="st0" cx="1223.2" cy="362.4" r="21.3"/>
<circle class="st0" cx="1265.7" cy="362.4" r="21.3"/>
<circle class="st0" cx="1308.2" cy="362.4" r="21.3"/>
<circle class="st0" cx="1350.8" cy="362.4" r="21.3"/>
<circle class="st0" cx="1393.3" cy="362.4" r="21.3"/>
<circle class="st0" cx="1435.8" cy="362.4" r="21.3"/>
<circle class="st0" cx="117.7" cy="362.4" r="21.3"/>
<circle class="st0" cx="160.2" cy="362.4" r="21.3"/>
<circle class="st0" cx="202.7" cy="362.4" r="21.3"/>
<circle class="st0" cx="245.2" cy="362.4" r="21.3"/>
<circle class="st0" cx="287.8" cy="362.4" r="21.3"/>
<circle class="st0" cx="330.3" cy="362.4" r="21.3"/>
<circle class="st0" cx="372.8" cy="362.4" r="21.3"/>
<circle class="st0" cx="415.3" cy="362.4" r="21.3"/>
<circle class="st0" cx="457.8" cy="362.4" r="21.3"/>
<circle class="st0" cx="500.4" cy="362.4" r="21.3"/>
<circle class="st0" cx="542.9" cy="362.4" r="21.3"/>
<circle class="st0" cx="585.4" cy="362.4" r="21.3"/>
<circle class="st0" cx="627.9" cy="362.4" r="21.3"/>
<circle class="st0" cx="670.4" cy="362.4" r="21.3"/>
<circle class="st0" cx="713" cy="362.4" r="21.3"/>
<circle class="st0" cx="755.5" cy="362.4" r="21.3"/>
</svg>
