<?xml version="1.0" encoding="utf-8"?>
<!-- Generator: Adobe Illustrator 25.3.1, SVG Export Plug-In . SVG Version: 6.00 Build 0)  -->
<svg version="1.1" id="Layer_1" xmlns="http://www.w3.org/2000/svg" xmlns:xlink="http://www.w3.org/1999/xlink" x="0px" y="0px"
	 viewBox="0 0 4280.3 1133.9" style="enable-background:new 0 0 4280.3 1133.9;" xml:space="preserve">
<style type="text/css">
	.st0{fill:none;stroke:#000000;stroke-miterlimit:10;}
</style>
<g>
	<circle class="st0" cx="406.4" cy="141" r="25.5"/>
	<circle class="st0" cx="457.4" cy="141" r="25.5"/>
	<circle class="st0" cx="508.4" cy="141" r="25.5"/>
	<circle class="st0" cx="559.4" cy="141" r="25.5"/>
	<circle class="st0" cx="610.4" cy="141" r="25.5"/>
	<circle class="st0" cx="661.5" cy="141" r="25.5"/>
	<circle class="st0" cx="712.5" cy="141" r="25.5"/>
	<circle class="st0" cx="763.5" cy="141" r="25.5"/>
	<circle class="st0" cx="431.9" cy="186.5" r="25.5"/>
	<circle class="st0" cx="482.9" cy="186.5" r="25.5"/>
	<circle class="st0" cx="533.9" cy="186.5" r="25.5"/>
	<circle class="st0" cx="584.9" cy="186.5" r="25.5"/>
	<circle class="st0" cx="636" cy="186.5" r="25.5"/>
	<circle class="st0" cx="687" cy="186.5" r="25.5"/>
	<circle class="st0" cx="738" cy="186.5" r="25.5"/>
	<circle class="st0" cx="789" cy="186.5" r="25.5"/>
	<circle class="st0" cx="406.4" cy="231.5" r="25.5"/>
	<circle class="st0" cx="457.4" cy="231.5" r="25.5"/>
	<circle class="st0" cx="508.4" cy="231.5" r="25.5"/>
	<circle class="st0" cx="559.4" cy="231.5" r="25.5"/>
	<circle class="st0" cx="610.4" cy="231.5" r="25.5"/>
	<circle class="st0" cx="661.5" cy="231.5" r="25.5"/>
	<circle class="st0" cx="712.5" cy="231.5" r="25.5"/>
	<circle class="st0" cx="763.5" cy="231.5" r="25.5"/>
	<circle class="st0" cx="431.9" cy="277" r="25.5"/>
	<circle class="st0" cx="482.9" cy="277" r="25.5"/>
	<circle class="st0" cx="533.9" cy="277" r="25.5"/>
	<circle class="st0" cx="584.9" cy="277" r="25.5"/>
	<circle class="st0" cx="636" cy="277" r="25.5"/>
	<circle class="st0" cx="687" cy="277" r="25.5"/>
	<circle class="st0" cx="738" cy="277" r="25.5"/>
	<circle class="st0" cx="789" cy="277" r="25.5"/>
</g>
</svg>
