<?xml version="1.0" encoding="utf-8"?>
<!-- Generator: Adobe Illustrator 26.0.2, SVG Export Plug-In . SVG Version: 6.00 Build 0)  -->
<svg version="1.1" id="Layer_1" xmlns="http://www.w3.org/2000/svg" xmlns:xlink="http://www.w3.org/1999/xlink" x="0px" y="0px"
	 viewBox="0 0 864 864" style="enable-background:new 0 0 864 864;" xml:space="preserve">
<style type="text/css">
	.st0{fill:none;stroke:#000000;stroke-width:1;stroke-linecap:round;stroke-linejoin:round;stroke-miterlimit:11.3386;}
</style>
<g>
	<path class="st0" d="M344.2,418.3 M346.2,418.8 M346.6,418.1 M346.9,417.3c0,0.1-0.4,1-0.5,1.4 M358.6,420.1
		c0.2-0.5,1.7-5.1,1.9-5.5c0.1-0.4,0.2-0.7,0.3-0.8c0.1-0.2,0.7-1.8,0.8-2.3c0.1-0.2,0.2-0.5,0.2-0.6c0.2-0.3,0.4-1.2,0.8-2.1
		c0.2-0.5,0.3-0.9,0.3-0.9c0,0,0.2-0.5,0.4-1c0.2-0.5,0.4-1.3,0.6-1.7c0.2-0.4,0.3-0.9,0.4-1c0.2-0.6,0.2-0.7,0.5-1.4
		c0.2-0.4,0.4-1.1,0.5-1.5c0.1-0.4,0.4-1.1,0.5-1.5c0.2-0.4,0.3-0.9,0.4-1c0-0.1,0.1-0.4,0.3-0.7c0.1-0.3,0.4-1.1,0.7-1.9
		c0.3-0.8,0.6-1.6,0.7-1.9c0.1-0.3,0.2-0.6,0.2-0.6c0-0.1,0.5-1.4,0.7-1.8c0.1-0.1,0.2-0.4,0.2-0.6c0.1-0.4,0.7-1.9,0.9-2.3
		c0.1-0.1,0.1-0.3,0.1-0.3c0-0.1,0.3-1,0.7-1.9l0.1-0.2l9,0c8.2,0,9,0,9.5-0.1c0.6-0.2,1.2-0.4,1.6-0.6c0.2-0.1,0.5-0.3,0.6-0.4
		c0.9-0.5,2-1.6,2.6-2.4c0.5-0.7,0.8-1.5,1.5-3.4c0.1-0.3,0.3-0.8,0.4-1c0.1-0.3,0.3-0.9,0.5-1.5c0.2-0.5,0.4-1.2,0.6-1.5
		s0.4-1,0.5-1.4c0.2-0.5,0.3-0.9,0.4-0.9s0.1-0.3,0.2-0.5c0.1-0.3,0.2-0.6,0.2-0.7c0-0.1,0.2-0.6,0.4-1c0.2-0.4,0.4-1.1,0.5-1.5
		c0.1-0.4,0.4-1.1,0.5-1.5c0.2-0.4,0.3-0.9,0.4-1c0-0.1,0.2-0.5,0.3-0.8c0.1-0.3,0.4-1.2,0.7-1.9c0.3-0.7,0.5-1.4,0.6-1.5
		c0.1-0.1,0.2-0.4,0.2-0.6c0.2-0.5,0.7-2.1,0.8-2.3c0-0.1,0.1-0.4,0.2-0.7c0.1-0.3,0.3-0.9,0.5-1.4c0.2-0.5,0.4-1,0.4-1.1
		c0-0.1,0.2-0.6,0.4-1c0.2-0.4,0.5-1.2,0.6-1.7c0.2-0.5,0.5-1.3,0.6-1.6c0.2-0.4,0.3-0.7,0.3-0.8c0-0.1,0.1-0.4,0.2-0.7
		c0.3-0.7,0.7-1.8,0.9-2.5c0.1-0.3,0.3-0.8,0.4-1.1c0.8-2,1.3-3.6,1.4-4.4c0.2-1.4,0.1-3.1-0.3-4c-0.3-0.7-0.8-1.7-1.1-1.9
		c-0.1-0.1-0.3-0.4-0.5-0.5c-0.2-0.3-0.6-0.5-1.3-1.1c-0.5-0.3-1.7-0.8-2.5-1c-1.2-0.3-1.5-0.3-13.9-0.3l-12,0l-0.3,0.8
		c-0.1,0.4-0.4,1.1-0.5,1.4c-0.1,0.4-0.4,1-0.5,1.5c-0.2,0.4-0.4,1-0.5,1.3c-0.1,0.3-0.2,0.6-0.2,0.7c0,0.1-0.2,0.6-0.4,1.1
		c-0.2,0.5-0.4,1.1-0.5,1.5c-0.1,0.3-0.4,1-0.5,1.5c-0.2,0.5-0.4,1-0.4,1.1c0,0.1-0.2,0.6-0.4,1c-0.2,0.4-0.4,1-0.5,1.3
		c-0.1,0.3-0.3,1-0.6,1.5c-0.2,0.6-0.4,1.2-0.5,1.4c-0.1,0.2-0.2,0.5-0.2,0.6c-0.1,0.3-0.6,1.6-0.9,2.3c-0.1,0.3-0.2,0.6-0.3,0.7
		c0,0-0.1,0.2-0.2,0.4c-0.3,0.7-0.8,2.4-1,2.8c-0.1,0.3-0.2,0.6-0.3,0.7c0,0.1-0.2,0.6-0.4,1.1c-0.2,0.5-0.4,1.2-0.6,1.6
		c-0.1,0.4-0.4,1.1-0.6,1.7c-0.2,0.5-0.4,1.1-0.5,1.3c-0.1,0.2-0.2,0.5-0.2,0.6c-0.2,0.3-0.4,1.2-0.8,2.1c-0.2,0.5-0.3,0.9-0.3,0.9
		c0,0-0.2,0.5-0.4,1c-0.2,0.5-0.5,1.3-0.7,1.8c-0.2,0.5-0.4,0.9-0.4,1c0,0.1-0.6,1.6-0.8,2c-0.1,0.1-0.1,0.4-0.2,0.5
		c-0.1,0.3-0.6,1.6-0.9,2.3c0,0.1-0.2,0.4-0.3,0.8c-0.2,0.7-0.5,1.5-1.1,3c-0.2,0.5-0.4,1.1-0.5,1.3c-0.2,0.6-0.8,2.1-0.9,2.4
		c-0.1,0.1-0.1,0.4-0.2,0.5c-0.1,0.3-0.7,2-0.9,2.4c-0.1,0.1-0.1,0.3-0.1,0.3c0,0.1-0.5,1.4-0.7,2c-0.1,0.2-0.1,0.4-0.2,0.5
		c0,0.1-0.2,0.6-0.4,1c-0.2,0.4-0.4,1.1-0.5,1.5c-0.1,0.4-0.4,1.1-0.5,1.5c-0.3,0.7-0.3,0.9-0.5,1.4c0,0.1-0.2,0.6-0.4,1
		c-0.2,0.4-0.4,1.2-0.6,1.7c-0.2,0.5-0.3,0.9-0.4,1c-0.1,0.1-0.4,0.9-0.4,1.2c-0.1,0.2-0.5,1.5-0.6,1.7c0,0.1-0.2,0.4-0.3,0.8
		c-0.1,0.4-0.3,1-0.5,1.4c-0.2,0.4-0.3,0.9-0.4,1.1c-0.1,0.2-0.2,0.5-0.3,0.8c-0.4,1-1.2,3.3-1.6,4.4c-0.4,1.2-0.6,1.5-0.8,2.1
		c-0.1,0.3-0.2,0.6-0.3,0.7c0,0.1-0.2,0.6-0.4,1.1c-0.2,0.5-0.4,1.1-0.5,1.5c-0.1,0.3-0.4,1-0.5,1.5c-0.2,0.5-0.4,0.9-0.4,1
		 M363.5,420.4 M357.8,300 M356.9,301.8c0.6-1.8,0.7-1.8,0.7-1.8 M343.2,304.6c-0.1,0.3-0.4,1-0.5,1.5c-0.2,0.5-0.4,1-0.4,1.2
		c-0.1,0.2-0.2,0.5-0.3,0.8c-0.2,0.6-0.7,1.9-0.9,2.5c-0.1,0.3-0.3,0.8-0.4,1s-0.3,0.9-0.5,1.5c-0.2,0.5-0.4,1.2-0.5,1.5
		c-0.1,0.3-0.2,0.6-0.3,0.7c0,0.1-0.2,0.6-0.4,1.1s-0.4,1.2-0.5,1.5c-0.1,0.4-0.2,0.7-0.3,0.8c-0.1,0.2-0.6,1.5-0.8,2.3
		c-0.1,0.3-0.2,0.6-0.3,0.7c0,0-0.1,0.2-0.2,0.4c-0.3,0.7-0.8,2.4-1,2.8c-0.1,0.3-0.2,0.6-0.3,0.7c-0.1,0.2-0.5,1.5-0.6,1.7
		c0,0.1-0.2,0.4-0.3,0.8c-0.1,0.4-0.3,1-0.5,1.4c-0.2,0.4-0.3,0.9-0.4,1.1c-0.1,0.4-0.3,0.9-0.7,1.9c-0.2,0.4-0.3,0.9-0.4,1
		s-0.2,0.5-0.3,0.8c-0.1,0.3-0.3,0.9-0.5,1.4c-0.2,0.4-0.4,1.1-0.5,1.4c-0.2,0.6-0.4,1.1-0.7,1.9c-0.1,0.2-0.2,0.7-0.4,1
		c-0.1,0.3-0.4,1-0.5,1.5c-0.2,0.5-0.4,1.2-0.5,1.5c-0.1,0.3-0.3,0.7-0.3,0.8c0,0.1-0.2,0.6-0.4,1c-0.2,0.4-0.4,1.1-0.5,1.4
		c-0.1,0.3-0.4,1-0.5,1.5c-0.2,0.5-0.4,1-0.4,1.2c-0.1,0.2-0.2,0.5-0.3,0.8c-0.1,0.3-0.3,0.7-0.4,0.9c-0.1,0.2-0.3,0.8-0.4,1.1
		c-0.1,0.4-0.3,0.8-0.3,0.9c-0.1,0.3-0.4,1-0.8,2.1c-0.2,0.5-0.3,0.9-0.4,1c-0.1,0.1-0.4,0.9-0.4,1.2c0,0.1-0.2,0.6-0.4,1
		s-0.4,1.1-0.5,1.5c-0.1,0.4-0.4,1.1-0.5,1.5c-0.3,0.7-0.3,0.9-0.5,1.4c0,0.1-0.2,0.6-0.4,1c-0.2,0.4-0.4,1.2-0.6,1.7
		c-0.2,0.5-0.3,0.9-0.4,1s-0.1,0.3-0.3,0.7c-0.2,0.7-0.5,1.5-0.9,2.4c-0.1,0.3-0.2,0.6-0.2,0.7c0,0.1-0.5,1.5-0.8,2
		c-0.1,0.1-0.1,0.4-0.2,0.6s-0.2,0.7-0.3,1c-0.1,0.3-0.4,1-0.6,1.6c-0.2,0.6-0.5,1.4-0.6,1.8c-0.1,0.4-0.4,1-0.5,1.5
		c-0.2,0.4-0.4,1-0.5,1.3c-0.1,0.3-0.2,0.6-0.2,0.7c0,0.1-0.2,0.6-0.4,1.1c-0.2,0.5-0.4,1.1-0.5,1.5c-0.1,0.3-0.4,1-0.5,1.5
		c-0.2,0.5-0.4,1-0.4,1.1c0,0.1-0.1,0.4-0.2,0.7l-0.2,0.5h6.3c4.9,0,6.3,0,6.4-0.1c0,0,0.3-0.6,0.5-1.3c0.2-0.7,0.5-1.5,0.7-1.8
		c0.1-0.3,0.3-0.7,0.3-0.9c0-0.1,0.2-0.6,0.4-1.1c0.2-0.5,0.4-1.1,0.5-1.5c0.2-0.6,0.6-1.8,0.8-2.2c0.1-0.1,0.1-0.3,0.1-0.3
		c0-0.1,0.3-0.9,0.7-2c0.1-0.4,0.3-0.7,0.3-0.7c0,0,0.1-0.5,0.3-0.9c0.2-0.5,0.4-1.1,0.5-1.5c0.1-0.3,0.4-1,0.5-1.5
		c0.2-0.5,0.4-1,0.4-1.2c0.1-0.2,0.2-0.5,0.3-0.8c0.3-0.8,0.6-1.4,0.8-2.2c0.1-0.4,0.3-0.8,0.3-0.8c0,0,0.3-0.7,0.5-1.5
		c0.3-0.8,0.5-1.4,0.5-1.5c0,0,0.1-0.3,0.2-0.5c0.1-0.3,0.2-0.6,0.2-0.7c0-0.1,0.2-0.6,0.4-1c0.2-0.4,0.4-1.1,0.5-1.5
		c0.1-0.4,0.4-1.1,0.5-1.5s0.3-0.9,0.4-1c0-0.1,0.2-0.6,0.4-1c0.2-0.4,0.5-1.3,0.7-1.9c0.4-1.1,0.7-1.9,1.2-3.4
		c0.2-0.5,0.4-1.1,0.5-1.3c0.1-0.2,0.2-0.7,0.4-1c0.1-0.3,0.3-0.8,0.5-1.2c0.1-0.4,0.4-1,0.5-1.4c0.1-0.4,0.4-1.2,0.6-1.8
		c0.2-0.6,0.4-1.2,0.5-1.4l0.1-0.4l4.8,0c3.8,0,4.8,0,4.8,0.1c0,0-0.1,0.3-0.2,0.5c-0.1,0.2-0.2,0.5-0.2,0.5c0,0-0.1,0.4-0.3,0.8
		c-0.1,0.4-0.5,1.3-0.7,2c-0.3,0.7-0.5,1.4-0.6,1.5c-0.1,0.1-0.2,0.4-0.3,0.7c-0.2,0.6-0.4,1.1-0.8,2.1c-0.1,0.4-0.3,0.8-0.4,1
		c0,0.2-0.2,0.7-0.4,1.2c-0.2,0.5-0.4,1.1-0.5,1.5c-0.1,0.3-0.3,1-0.5,1.5c-0.9,2.3-1.1,2.9-1.2,3.4c-0.1,0.3-0.2,0.6-0.2,0.7
		c-0.1,0.2-0.7,1.8-0.9,2.4c-0.1,0.3-0.2,0.5-0.2,0.6c0,0-0.1,0.2-0.2,0.4c-0.3,0.8-0.9,2.4-1.1,3c-0.1,0.4-0.4,1-0.5,1.4
		c-0.1,0.4-0.3,0.8-0.3,0.8c0,0-0.1,0.3-0.2,0.6c-0.1,0.3-0.3,0.8-0.4,1.2c-0.1,0.4-0.3,0.8-0.3,0.9c0,0.1-0.1,0.2-0.1,0.3
		c0,0-0.2,0.4-0.3,0.8c-0.1,0.4-0.4,1-0.5,1.4c-0.2,0.4-0.3,0.9-0.4,1.1s-0.2,0.5-0.3,0.8c-0.1,0.3-0.3,0.8-0.4,1.2
		c-0.1,0.4-0.4,1.2-0.6,1.7c-0.2,0.5-0.5,1.2-0.6,1.6c-0.1,0.3-0.3,0.9-0.4,1.2c-0.1,0.3-0.3,0.8-0.4,1c-0.3,0.8-0.5,1.4-0.7,1.9
		c-0.1,0.3-0.3,0.8-0.4,1c-0.1,0.3-0.3,0.8-0.4,1.2s-0.3,0.7-0.3,0.8c0,0.1,1.8,0.1,6.3,0.1h6.3l0.4-1.2c0.8-2.1,1.1-3,1.3-3.7
		c0.1-0.4,0.4-1.1,0.5-1.5c0.2-0.4,0.3-0.9,0.4-1.1c0.1-0.4,0.3-0.9,0.4-1.1c0.1-0.2,0.4-1.1,0.7-2c0.2-0.5,0.3-0.9,0.3-0.9
		c0,0,0.2-0.5,0.4-1s0.4-1.2,0.6-1.5c0.1-0.4,0.3-0.9,0.5-1.3c0.1-0.3,0.3-1,0.5-1.4c0.2-0.4,0.3-0.9,0.4-1.1
		c0.1-0.4,0.3-0.9,0.7-1.9c0.2-0.4,0.3-0.9,0.4-1c0.1-0.3,0.4-1.1,0.4-1.2c0,0,0.3-0.7,0.5-1.5c0.3-0.8,0.5-1.4,0.5-1.5
		c0,0,0.1-0.3,0.2-0.5c0.1-0.3,0.2-0.6,0.2-0.7c0-0.1,0.2-0.6,0.4-1s0.4-1,0.5-1.4c0.1-0.3,0.4-1,0.5-1.5c0.2-0.5,0.4-1,0.4-1.1
		c0-0.1,0.2-0.6,0.4-1c0.2-0.4,0.5-1.3,0.7-1.9c0.2-0.6,0.5-1.3,0.6-1.7c0.1-0.3,0.3-0.8,0.4-1c0.1-0.2,0.3-0.7,0.4-1
		c0.1-0.3,0.3-0.9,0.4-1.2c0.2-0.5,0.5-1.3,0.8-2.2c0.3-0.7,0.8-2.4,0.9-2.9c0.3-1.7,0-3.3-0.7-4.8c-1-2-2.7-3.2-5.4-3.8
		c-0.6-0.1-0.8-0.2-6.7-0.2c-3.4,0-6.1-0.1-6.1-0.1c0-0.1,0.6-1.8,0.8-2.4c0.1-0.3,0.3-0.7,0.3-0.9c0-0.2,0.1-0.4,0.2-0.5
		c0.2-0.4,0.6-1.6,0.8-2.2c0.1-0.4,0.2-0.7,0.3-0.8c0.1-0.2,0.6-1.5,0.8-2.3c0.1-0.3,0.2-0.6,0.3-0.7c0,0,0.1-0.2,0.2-0.4
		c0.2-0.7,0.8-2.4,1-2.8c0.1-0.3,0.2-0.6,0.3-0.8c0.1-0.2,0.2-0.7,0.4-1.1c0.2-0.4,0.4-1.1,0.5-1.5c0.1-0.4,0.4-1.1,0.5-1.5
		c0.2-0.4,0.3-0.9,0.4-1c0.1-0.3,0.4-1.1,0.4-1.2c0,0,0.3-0.7,0.5-1.5c0.3-0.8,0.5-1.4,0.5-1.5c0,0,0.1-0.3,0.2-0.6
		c0.2-0.6,0.6-1.7,0.8-2.3c0.1-0.2,0.2-0.5,0.2-0.7c0-0.2,0.2-0.7,0.4-1.2c0.4-1.1,0.6-1.5,0.7-1.8c0-0.2,0.2-0.6,0.3-0.9
		c0.1-0.4,0.4-1.1,0.6-1.6 M343.7,303.1c-0.2,0.5-0.4,1.2-0.5,1.5 M344,302.2c0,0-0.1,0.4-0.3,0.9 M344,302.2 M341.5,302.9
		 M341.5,302.9 M373.6,378.7c0-0.1,0.5-1.6,0.6-1.7c0,0,0.2-0.6,0.5-1.3c0.2-0.7,0.5-1.5,0.7-1.8c0.1-0.3,0.3-0.7,0.3-0.9
		c0-0.1,0.2-0.6,0.4-1.1c0.2-0.5,0.5-1.2,0.6-1.7c0.2-0.4,0.4-1,0.5-1.3c0.1-0.3,0.4-0.9,0.5-1.5c0.3-1,0.5-1.4,1.2-3.2
		c0.2-0.5,0.5-1.2,0.6-1.6c0.1-0.3,0.3-1,0.5-1.4c0.2-0.4,0.3-0.9,0.4-1.1c0.1-0.4,0.3-0.9,0.7-1.9c0.2-0.4,0.3-0.9,0.4-1
		c0.1-0.3,0.3-1,0.4-1.2c0-0.1,0.3-0.7,0.5-1.4c0.3-0.7,0.5-1.5,0.7-1.8c0.1-0.3,0.2-0.6,0.3-0.7c0-0.1,0.2-0.6,0.4-1.1
		c0.2-0.5,0.4-1.1,0.5-1.5c0.2-0.6,0.6-1.8,0.8-2.2c0.1-0.1,0.1-0.3,0.1-0.3c0-0.1,0.1-0.4,0.3-0.9c0.2-0.4,0.5-1.2,0.7-1.8
		c0.2-0.6,0.5-1.4,0.7-1.8c0.1-0.4,0.3-0.8,0.3-0.8c0-0.1,1.1-0.1,4.9-0.1c2.7,0,4.9,0,4.9,0.1c0,0-0.1,0.2-0.1,0.4
		c-0.2,0.4-0.6,1.6-0.7,2c0,0.2-0.2,0.6-0.3,0.9c-0.1,0.4-0.4,1.1-0.6,1.6c-0.2,0.5-0.5,1.3-0.6,1.7c-0.1,0.4-0.4,1-0.5,1.5
		c-0.2,0.4-0.4,1-0.5,1.3c-0.1,0.3-0.2,0.5-0.2,0.6c0,0.1-0.2,0.7-0.5,1.4c-0.3,0.7-0.6,1.5-0.7,1.8c-0.1,0.3-0.3,0.8-0.4,1
		c-0.1,0.3-0.3,0.9-0.5,1.5c-0.2,0.5-0.4,1.2-0.6,1.5c-0.1,0.3-0.2,0.6-0.2,0.7c0,0.1,0,0.2-0.1,0.3c-0.1,0.1-0.2,0.4-0.3,0.8
		c-0.1,0.3-0.2,0.6-0.3,0.6c0,0-0.2,0.4-0.3,0.8c-0.1,0.4-0.4,1-0.5,1.4c-0.2,0.4-0.3,0.9-0.4,1.1c-0.1,0.2-0.2,0.5-0.3,0.8
		c-0.1,0.3-0.3,0.8-0.4,1.2c-0.1,0.4-0.4,1.2-0.6,1.7c-0.2,0.5-0.5,1.2-0.6,1.6c-0.1,0.3-0.3,0.9-0.4,1.2c-0.1,0.3-0.3,0.8-0.4,1
		c-0.2,0.7-0.5,1.4-0.7,1.9c-0.1,0.3-0.3,0.9-0.5,1.3c-0.2,0.5-0.4,1.2-0.6,1.6c-0.2,0.4-0.4,1-0.5,1.3l-0.2,0.5l-4.8,0
		C375.8,378.7,373.6,378.7,373.6,378.7z"/>
	<circle class="st0" cx="360.4" cy="360.2" r="60.2"/>
</g>
</svg>
