<?xml version="1.0" encoding="UTF-8" standalone="no"?>
<!-- Created with Inkscape (http://www.inkscape.org/) -->

<svg
   xmlns:dc="http://purl.org/dc/elements/1.1/"
   xmlns:cc="http://creativecommons.org/ns#"
   xmlns:rdf="http://www.w3.org/1999/02/22-rdf-syntax-ns#"
   xmlns:svg="http://www.w3.org/2000/svg"
   xmlns="http://www.w3.org/2000/svg"
   xmlns:sodipodi="http://sodipodi.sourceforge.net/DTD/sodipodi-0.dtd"
   xmlns:inkscape="http://www.inkscape.org/namespaces/inkscape"
   width="600mm"
   height="600mm"
   viewBox="0 0 600 600"
   version="1.1"
   id="svg854"
   inkscape:version="0.92.3 (2405546, 2018-03-11)"
   sodipodi:docname="M6700_M6800_PR_UPPER.svg">
  <defs
     id="defs848" />
  <sodipodi:namedview
     id="base"
     pagecolor="#ffffff"
     bordercolor="#666666"
     borderopacity="1.0"
     inkscape:pageopacity="0.0"
     inkscape:pageshadow="2"
     inkscape:zoom="0.35"
     inkscape:cx="-919.01866"
     inkscape:cy="1585.6999"
     inkscape:document-units="mm"
     inkscape:current-layer="layer1"
     showgrid="false"
     inkscape:window-width="1920"
     inkscape:window-height="1017"
     inkscape:window-x="-8"
     inkscape:window-y="-8"
     inkscape:window-maximized="1"
     showguides="true"
     inkscape:guide-bbox="true" />
  <metadata
     id="metadata851">
    <rdf:RDF>
      <cc:Work
         rdf:about="">
        <dc:format>image/svg+xml</dc:format>
        <dc:type
           rdf:resource="http://purl.org/dc/dcmitype/StillImage" />
        <dc:title></dc:title>
      </cc:Work>
    </rdf:RDF>
  </metadata>
  <g
     inkscape:label="Layer 1"
     inkscape:groupmode="layer"
     id="layer1"
     transform="translate(0,303)">
    <g
       id="g1506">
      <path
         sodipodi:nodetypes="cccccc"
         inkscape:connector-curvature="0"
         id="rect1482"
         d="m -247.08743,-151.95651 h 7.59155 v 28.647 h -413.647 v -28.647 h 7.40844"
         style="opacity:1;fill:none;fill-opacity:0.25116284;stroke:#000000;stroke-width:0.35299999;stroke-miterlimit:4;stroke-dasharray:none;stroke-opacity:1" />
      <path
         sodipodi:nodetypes="cccc"
         inkscape:connector-curvature="0"
         id="rect1484"
         d="m -247.08743,-151.95651 v 3.647 h -398.64701 v -3.647"
         style="opacity:1;fill:none;fill-opacity:0.25116284;stroke:#000000;stroke-width:0.35299999;stroke-miterlimit:4;stroke-dasharray:none;stroke-opacity:1" />
      <path
         id="rect1488"
         d="m -631.49591,-140.60352 h 33.647 c 0.554,0 1,0.446 1,1 v 7.647 c 0,0.554 -0.446,1 -1,1 h -33.647 c -0.554,0 -1,-0.446 -1,-1 v -7.647 c 0,-0.554 0.446,-1 1,-1 z"
         style="opacity:1;fill:none;fill-opacity:0.25116284;stroke:#000000;stroke-width:0.35299999;stroke-miterlimit:4;stroke-dasharray:none;stroke-opacity:1" />
      <path
         id="rect1492"
         d="m -270.78986,-141.16183 h 8.647 c 0.554,0 1,0.446 1,1 v 8.64699 c 0,0.55401 -0.446,1.00001 -1,1.00001 h -8.647 c -0.554,0 -1,-0.446 -1,-1.00001 v -8.64699 c 0,-0.554 0.446,-1 1,-1 z"
         style="opacity:1;fill:none;fill-opacity:0.25116284;stroke:#000000;stroke-width:0.35299999;stroke-miterlimit:4;stroke-dasharray:none;stroke-opacity:1" />
      <path
         id="rect1494"
         d="m -591.14362,-141.07436 h 309.64701 c 0.554,0 1,0.446 1,1 v 8.647 c 0,0.554 -0.446,1 -1,1 h -309.64701 c -0.554,0 -1,-0.446 -1,-1 v -8.647 c 0,-0.554 0.446,-1 1,-1 z"
         style="opacity:1;fill:none;fill-opacity:0.25116284;stroke:#000000;stroke-width:0.35299999;stroke-miterlimit:4;stroke-dasharray:none;stroke-opacity:1" />
    </g>
  </g>
</svg>
