<?xml version="1.0" encoding="utf-8"?>
<!DOCTYPE svg PUBLIC "-//W3C//DTD SVG 1.1//EN" "http://www.w3.org/Graphics/SVG/1.1/DTD/svg11.dtd">
<!-- exported from Silhouette Studio® Business Edition V4.3.370ssbe -->
<svg version="1.1" xmlns="http://www.w3.org/2000/svg" xmlns:xlink="http://www.w3.org/1999/xlink" width="304.8mm" height="600mm" viewBox="0 0 304.8 600">
<defs/>
<g>
<path d="M -3.933724 255.8264 C -4.412651 255.6856 -5.198189 255.4688 -5.67936 255.3446 C -6.160534 255.2204 -6.803196 254.9911 -7.10751 254.835 C -7.411828 254.679 -7.770264 254.5513 -7.904042 254.5513 C -8.037819 254.5513 -8.32933 254.3948 -8.551846 254.2033 C -8.774364 254.0119 -9.291958 253.6892 -9.702045 253.4861 C -10.50118 253.0903 -12.32197 251.4376 -13.16884 250.3394 C -14.26341 248.9199 -15.16479 247.5456 -15.16581 247.2948 C -15.16639 247.1509 -15.31244 246.7623 -15.49035 246.4313 C -15.66826 246.1002 -15.87095 245.4471 -15.94077 244.9801 C -16.01059 244.513 -16.1981 243.9335 -16.35746 243.6924 C -16.62677 243.2847 -16.64721 236.7423 -16.64721 150.931 C -16.64721 65.79922 -16.625 58.55985 -16.3621 57.98621 C -16.20528 57.64407 -16.01881 57.02268 -15.94773 56.6054 C -15.87664 56.1881 -15.67186 55.57542 -15.49267 55.24386 C -15.31348 54.91229 -15.16686 54.51434 -15.16686 54.3595 C -15.16686 54.20467 -15.0209 53.89265 -14.8425 53.66609 C -14.66411 53.43955 -14.46431 53.08373 -14.39851 52.87538 C -14.23023 52.34258 -12.94724 50.74849 -12.12092 50.04558 C -11.73877 49.7205 -11.30773 49.32597 -11.16305 49.16887 C -10.68974 48.65491 -9.165354 47.69848 -8.457857 47.47157 C -8.076883 47.34937 -7.546389 47.13955 -7.278975 47.00526 C -7.01156 46.87098 -6.076635 46.60936 -5.201361 46.42385 C -3.630213 46.09088 -1.804642 46.0866 138.4003 46.0866 L 280.4104 46.0866 L 282.1794 46.44294 C 284.379 46.88602 286.8146 48.035 288.1825 49.27478 C 289.3071 50.29405 290.8993 52.23038 291.0818 52.80068 C 291.1527 53.02221 291.3988 53.47832 291.6287 53.81425 C 291.8586 54.15018 292.0466 54.5986 292.0466 54.81075 C 292.0466 55.02291 292.2035 55.54815 292.3952 55.97797 C 292.5869 56.4078 292.8809 57.40862 293.0483 58.20202 C 293.336 59.5649 293.3528 64.69972 293.3528 151.1825 L 293.3528 242.7205 L 292.9583 244.1508 C 292.7413 244.9375 292.4083 245.869 292.2181 246.2208 C 292.028 246.5726 291.8725 246.993 291.8725 247.1551 C 291.8725 247.3171 291.7963 247.4964 291.7033 247.5534 C 291.6102 247.6104 291.3795 248.0036 291.1906 248.4272 C 291.0017 248.8507 290.7643 249.1972 290.6632 249.1972 C 290.562 249.1972 290.4792 249.2987 290.4792 249.4227 C 290.4792 249.8585 288.5891 251.9145 287.3997 252.7723 C 284.9565 254.5346 283.4559 255.1862 280.1169 255.9345 C 279.7048 256.0269 221.7268 256.089 138.1786 256.0865 C 13.89444 256.0829 -3.167488 256.0517 -3.933724 255.8264 Z" fill="none" fill-opacity="1" stroke="#000000" stroke-opacity="1" stroke-width="0.3527778" stroke-linecap="round" stroke-linejoin="round"/>
<path d="M 158.6361 148.3636 C 158.6361 159.9511 149.2235 169.3636 137.636 169.3636 C 126.0485 169.3636 116.636 159.9511 116.636 148.3636 C 116.636 136.7762 126.0485 127.3636 137.636 127.3636 C 149.2235 127.3636 158.6361 136.7762 158.6361 148.3636 Z" fill="none" fill-opacity="1" stroke="#000000" stroke-opacity="1" stroke-width="0.3527778" stroke-linecap="round" stroke-linejoin="round"/>
</g>
<path d="M 133.2441 162.473 L 133.2441 152.9888 C 130.7691 152.9888 128.2191 161.0888 125.7441 158.6138 C 125.7441 151.1138 129.9108 143.8645 138.2441 136.8659 C 146.5774 143.8645 150.7441 151.1138 150.7441 158.6138 C 148.2691 161.0888 145.7191 152.9888 143.2441 152.9888 L 143.2441 162.473 L 133.2441 162.473 Z" fill="none" fill-opacity="1" stroke="#000000" stroke-opacity="1" stroke-width="0.3527778" stroke-linecap="round" stroke-linejoin="round"/>
</svg>