<?xml version="1.0" encoding="UTF-8" standalone="no"?>
<!-- exported from Silhouette Studio® Business Edition V4.3.370ssbe -->

<svg
   xmlns:dc="http://purl.org/dc/elements/1.1/"
   xmlns:cc="http://creativecommons.org/ns#"
   xmlns:rdf="http://www.w3.org/1999/02/22-rdf-syntax-ns#"
   xmlns:svg="http://www.w3.org/2000/svg"
   xmlns="http://www.w3.org/2000/svg"
   xmlns:sodipodi="http://sodipodi.sourceforge.net/DTD/sodipodi-0.dtd"
   xmlns:inkscape="http://www.inkscape.org/namespaces/inkscape"
   version="1.1"
   width="594mm"
   height="841mm"
   viewBox="0 0 594.00002 841"
   id="svg6"
   sodipodi:docname="450_G1_PR.svg"
   inkscape:version="0.92.3 (2405546, 2018-03-11)">
  <metadata
     id="metadata10">
    <rdf:RDF>
      <cc:Work
         rdf:about="">
        <dc:format>image/svg+xml</dc:format>
        <dc:type
           rdf:resource="http://purl.org/dc/dcmitype/StillImage" />
        <dc:title></dc:title>
      </cc:Work>
    </rdf:RDF>
  </metadata>
  <sodipodi:namedview
     pagecolor="#ffffff"
     bordercolor="#666666"
     borderopacity="1"
     objecttolerance="10"
     gridtolerance="10"
     guidetolerance="10"
     inkscape:pageopacity="0"
     inkscape:pageshadow="2"
     inkscape:window-width="1920"
     inkscape:window-height="1017"
     id="namedview8"
     showgrid="false"
     showguides="false"
     inkscape:guide-bbox="true"
     inkscape:zoom="0.41627778"
     inkscape:cx="1274.1583"
     inkscape:cy="1529.3036"
     inkscape:window-x="-8"
     inkscape:window-y="-8"
     inkscape:window-maximized="1"
     inkscape:current-layer="svg6">
    <sodipodi:guide
       position="371.68052,617.0705"
       orientation="1,0"
       id="guide853"
       inkscape:locked="false" />
  </sodipodi:namedview>
  <defs
     id="defs2" />
  <g
     id="g935"
     style="stroke:#000000;stroke-opacity:1;stroke-width:0.35277778;stroke-miterlimit:4;stroke-dasharray:none">
    <path
       sodipodi:nodetypes="csccccccscccccccccccccccccccc"
       inkscape:connector-curvature="0"
       id="path851"
       d="m 235.81548,214.54064 135.91134,0.0443 c 114.67806,0.0373 135.97501,0.0772 136.3185,0.25598 m 0,0 c 1.45041,-0.0108 -0.15817,0.005 3.092,-0.0146 m 21.64723,0 c 9.39757,-0.006 13.33447,-0.008 14.04158,0.32068 4.04827,1.49804 7.75286,4.5798 8.78181,9.0009 0.15272,0.72366 0.19289,24.41732 0.19289,114.08527 0,111.03869 -0.004,113.18811 -0.29597,114.02311 -1.11357,3.20259 -2.38586,4.95963 -4.89715,6.76359 -1.84687,1.32649 -2.85377,1.75757 -4.59885,1.9682 -0.80145,0.0969 -92.48756,-0.005 -173.4243,-0.0203 m -106.64721,0 c -0.51895,0.13009 -63.60314,0.21169 -66.94709,0.0837 l -0.002,-5e-5 c -1.57223,-0.0601 -2.9548,-0.19383 -3.43664,-0.3325 -1.16258,-0.33408 -4.0071,-2.0568 -4.50176,-2.72617 -0.2251,-0.30448 -0.77129,-0.95249 -1.21396,-1.43977 -1.05294,-1.15911 -1.64344,-2.41013 -2.21044,-4.68351 l -0.46305,-1.85667 -0.008,-111.7408 c -0.004,-73.95301 0.0436,-112.06804 0.14666,-112.708 0.24708,-1.54063 1.05226,-3.83344 1.6708,-4.75757 2.92089,-4.50032 4.809,-5.48032 10.17176,-6.26511 l 5.18354,-0.0301 c 0.91593,-0.005 1.12729,0.0143 5.56188,0.0184 m 21.64723,0 c 4.73276,0.007 4.27966,0.0111 4.27966,0.0111"
       style="fill:none;fill-opacity:1;stroke:#000000;stroke-width:0.35277778;stroke-linecap:round;stroke-linejoin:round;stroke-miterlimit:4;stroke-dasharray:none;stroke-opacity:1" />
    <path
       sodipodi:nodetypes="cccccccccccccccscc"
       inkscape:connector-curvature="0"
       id="path825"
       d="m 540.33951,367.29796 c 1.7101,-0.37201 2.85318,-1.01187 3.58647,-2.00764 0.2376,-0.32262 0.47487,-0.62215 0.52759,-0.66563 0.85947,-1.03255 1.51891,-2.53622 1.60202,-3.00413 0.0796,-0.44734 0.16644,-73.21901 0.11403,-95.82019 l -0.0153,-5.7776 c -0.6134,-2.61878 -2.34621,-3.88713 -4.64713,-5.28376 -0.27893,-0.16981 -0.94675,-0.39294 -1.48407,-0.496 -1.22938,-0.23565 -333.34366,-0.37522 -335.23016,-0.141 -0.64991,0.0807 -1.51746,0.26214 -1.92793,0.40331 -2.89223,1.35344 -4.94458,3.34702 -5.32663,6.00504 v 50.35747 50.35746 c 0.38066,1.63908 2.20379,3.83064 3.54431,4.99012 0.78479,0.66957 1.25231,0.82059 4.03261,1.30246 0.21503,0.0372 75.38556,0.0775 167.04622,0.0893 l 166.65573,0.0215 z"
       style="fill:none;fill-opacity:1;stroke:#000000;stroke-width:0.35277778;stroke-linecap:round;stroke-linejoin:round;stroke-miterlimit:4;stroke-dasharray:none;stroke-opacity:1" />
    <path
       inkscape:connector-curvature="0"
       id="path823"
       d="m 502.36831,250.37171 c 0.36589,-0.0954 0.81969,-0.3033 1.0084,-0.46177 l 0.3432,-0.28799 3.4e-4,-14.81654 c 0,-8.1491 -0.003,-15.16275 -0.008,-15.58601 -0.008,-0.62282 -0.0785,-0.81758 -0.37666,-1.02008 -0.33126,-0.22499 -13.73188,-0.25024 -131.25607,-0.24765 -113.85549,0.002 -130.95794,0.0334 -131.43117,0.23825 -0.45757,0.19827 -0.54683,0.32117 -0.5616,0.77317 -0.0512,1.56809 0.0554,30.49006 0.11272,30.64558 0.0385,0.10103 0.35896,0.36503 0.71496,0.58688 l 0.64702,0.40317 130.07058,-0.0267 c 91.51102,-0.0186 130.26793,-0.0781 130.73601,-0.2003 z"
       style="fill:none;fill-opacity:1;stroke:#000000;stroke-width:0.35277778;stroke-linecap:round;stroke-linejoin:round;stroke-miterlimit:4;stroke-dasharray:none;stroke-opacity:1" />
    <path
       sodipodi:nodetypes="cccc"
       inkscape:connector-curvature="0"
       id="rect855"
       d="m 231.53628,214.52955 v 12.83487 h -21.64723 v -12.83487"
       style="opacity:1;fill:none;fill-opacity:0.12093021;stroke:#000000;stroke-width:0.35277778;stroke-miterlimit:4;stroke-dasharray:none;stroke-opacity:1" />
    <path
       sodipodi:nodetypes="cccc"
       inkscape:connector-curvature="0"
       id="rect855-0"
       d="m -511.13732,214.82628 v 12.75513 h -21.64723 v -12.75513"
       style="opacity:1;fill:none;fill-opacity:0.12093021;stroke:#000000;stroke-width:0.35277778;stroke-miterlimit:4;stroke-dasharray:none;stroke-opacity:1"
       transform="scale(-1,1)" />
    <path
       id="rect877"
       d="m 201.9565,237.07877 h 19.64722 c 0.554,0 1,0.446 1,1 v 6.64722 c 0,0.554 -0.446,1 -1,1 H 201.9565 c -0.554,0 -1,-0.446 -1,-1 v -6.64722 c 0,-0.554 0.446,-1 1,-1 z"
       style="opacity:1;fill:none;fill-opacity:0.12093021;stroke:#000000;stroke-width:0.35277778;stroke-miterlimit:4;stroke-dasharray:none;stroke-opacity:1" />
    <path
       id="rect877-5"
       d="m 519.29987,237.71587 h 24.64722 c 0.554,0 1,0.446 1,1 v 6.64722 c 0,0.554 -0.446,1 -1,1 h -24.64722 c -0.554,0 -1,-0.446 -1,-1 v -6.64722 c 0,-0.554 0.446,-1 1,-1 z"
       style="opacity:1;fill:none;fill-opacity:0.12093021;stroke:#000000;stroke-width:0.35277778;stroke-miterlimit:4;stroke-dasharray:none;stroke-opacity:1" />
    <path
       id="rect877-5-5"
       d="m 508.47211,396.11877 h 17.64722 c 0.554,0 1,0.446 1,1 v 5.14723 c 0,0.554 -0.446,1 -1,1 h -17.64722 c -0.554,0 -1,-0.446 -1,-1 v -5.14723 c 0,-0.554 0.446,-1 1,-1 z"
       style="opacity:1;fill:none;fill-opacity:0.12093021;stroke:#000000;stroke-width:0.35277778;stroke-miterlimit:4;stroke-dasharray:none;stroke-opacity:1" />
    <path
       sodipodi:nodetypes="cssssc"
       inkscape:connector-curvature="0"
       id="rect909"
       d="M 265.93735,460.96778 V 386.1788 c 0,-4.432 3.568,-8 8,-8 h 90.64721 c 4.432,0 8,3.568 8,8 v 74.78898"
       style="opacity:1;fill:none;fill-opacity:0.12093021;stroke:#000000;stroke-width:0.35277778;stroke-miterlimit:4;stroke-dasharray:none;stroke-opacity:1" />
  </g>
</svg>
