<?xml version="1.0" encoding="utf-8"?>
<!-- Generator: Adobe Illustrator 25.2.1, SVG Export Plug-In . SVG Version: 6.00 Build 0)  -->
<svg version="1.1"
	 id="svg1450" inkscape:version="0.92.3 (2405546, 2018-03-11)" xmlns:cc="http://creativecommons.org/ns#" xmlns:dc="http://purl.org/dc/elements/1.1/" xmlns:inkscape="http://www.inkscape.org/namespaces/inkscape" xmlns:rdf="http://www.w3.org/1999/02/22-rdf-syntax-ns#" xmlns:sodipodi="http://sodipodi.sourceforge.net/DTD/sodipodi-0.dtd" xmlns:svg="http://www.w3.org/2000/svg"
	 xmlns="http://www.w3.org/2000/svg" xmlns:xlink="http://www.w3.org/1999/xlink" x="0px" y="0px" viewBox="0 0 1984.3 1984.3"
	 style="enable-background:new 0 0 1984.3 1984.3;" xml:space="preserve">
<style type="text/css">
	.st0{fill:none;stroke:#000000;}
	.st1{fill:none;stroke:#000000;stroke-miterlimit:11.3386;}
</style>
<sodipodi:namedview  bordercolor="#666666" borderopacity="1.0" id="base" inkscape:current-layer="g2103-6" inkscape:cx="2243.9345" inkscape:cy="1792.6744" inkscape:document-units="mm" inkscape:guide-bbox="true" inkscape:pageopacity="0.0" inkscape:pageshadow="2" inkscape:window-height="1017" inkscape:window-maximized="1" inkscape:window-width="1920" inkscape:window-x="-8" inkscape:window-y="-8" inkscape:zoom="0.49497475" pagecolor="#ffffff" showgrid="false" showguides="true">
	</sodipodi:namedview>
<g id="layer1" transform="translate(0,403)" inkscape:groupmode="layer" inkscape:label="Layer 1">
</g>
<g>
	<path id="rect1995" inkscape:connector-curvature="0" sodipodi:nodetypes="cssssc" class="st0" d="M1374,1166.9l-620.5,0.4
		c-22.9,0-41.3-16.5-41.3-37v-983c0-20.5,18.4-37,41.3-37L1374,110"/>
	<path id="rect1997" inkscape:connector-curvature="0" sodipodi:nodetypes="cssssssssc" class="st0" d="M954.2,348.3l0-186.1
		c0-15.8,12.6-28.4,28.3-28.4h296.6c15.7,0,28.3,12.7,28.3,28.4v954.6c0,15.8-12.6,28.4-28.3,28.4H982.5
		c-15.7,0-28.3-12.7-28.3-28.4l0-463.9"/>
	<path id="rect2004" inkscape:connector-curvature="0" sodipodi:nodetypes="cssssc" class="st0" d="M954.2,652.8h-209
		c-9.4,0-17-7.7-17-17.3v-270c0-9.6,7.6-17.3,17-17.3h209"/>
	<path id="rect2011" inkscape:connector-curvature="0" class="st0" d="M936.5,273.4V297c0,1.7-1.3,3.1-2.8,3.1h-1.8
		c-1.6,0-2.8-1.4-2.8-3.1v-23.6c0-1.7,1.3-3.1,2.8-3.1h1.8C935.3,270.3,936.5,271.7,936.5,273.4z"/>
	<path id="rect2011-2" inkscape:connector-curvature="0" class="st0" d="M936.5,701v23.6c0,1.7-1.3,3.1-2.8,3.1h-1.8
		c-1.6,0-2.8-1.4-2.8-3.1V701c0-1.7,1.3-3.1,2.8-3.1h1.8C935.3,697.9,936.5,699.3,936.5,701z"/>
	<path id="rect2030" inkscape:connector-curvature="0" class="st0" d="M935.1,1024v48.1c0,1.7-1.3,3.1-2.8,3.1h-4.7
		c-1.6,0-2.8-1.4-2.8-3.1V1024c0-1.7,1.3-3.1,2.8-3.1h4.7C933.8,1020.9,935.1,1022.3,935.1,1024L935.1,1024z"/>
	<path id="rect2032" inkscape:connector-curvature="0" class="st0" d="M1373.7,260.2v758.3c0,3.2-2.5,5.7-5.7,5.7h-41.5
		c-3.1,0-5.7-2.5-5.7-5.7V260.2c0-3.2,2.5-5.7,5.7-5.7h41.5C1371.1,254.5,1373.7,257,1373.7,260.2z"/>
	<path id="rect2036" inkscape:connector-curvature="0" class="st0" d="M1359.4,154.9v53c0,3.2-2.5,5.7-5.7,5.7h-13.2
		c-3.1,0-5.7-2.5-5.7-5.7v-53c0-3.2,2.5-5.7,5.7-5.7h13.2C1356.9,149.2,1359.4,151.8,1359.4,154.9z"/>
	<path id="rect2036-5" inkscape:connector-curvature="0" class="st0" d="M1359.4,1069.7v53c0,3.2-2.5,5.7-5.7,5.7h-13.2
		c-3.1,0-5.7-2.5-5.7-5.7v-53c0-3.2,2.5-5.7,5.7-5.7h13.2C1356.9,1064,1359.4,1066.5,1359.4,1069.7z"/>
	<g id="g2103" transform="matrix(1.0018062,0,0,-1.0196102,0.31180656,635.26065)">
		<path id="rect2074" inkscape:connector-curvature="0" sodipodi:nodetypes="cc" class="st1" d="M760.8-13.9l0,291.9"/>
		<path id="rect2004-4" inkscape:connector-curvature="0" sodipodi:nodetypes="cccc" class="st1" d="M760.8,278h161.3 M922.1-13.9
			H760.8"/>
	</g>
	<path id="rect2074-6" inkscape:connector-curvature="0" sodipodi:nodetypes="cc" class="st0" d="M760.8,648.9l0-297.3"/>
	<path id="rect2004-4-7" inkscape:connector-curvature="0" sodipodi:nodetypes="cssssc" class="st0" d="M760.8,351.6l-12.9,0.2
		c-9.1,0.1-16.4,7.5-16.4,16.9V632c0,9.3,7.3,16.9,16.4,16.9h12.9"/>
	<path id="path2126" inkscape:connector-curvature="0" sodipodi:nodetypes="cc" class="st0" d="M760.6,500.2h-28.9"/>
	<path id="path845" inkscape:connector-curvature="0" class="st0" d="M924.1,351.8v297.6"/>
	<g id="g883">
		<path id="rect2004-4-7-1" inkscape:connector-curvature="0" sodipodi:nodetypes="cssssc" class="st0" d="M927.5,352.2l18.9,0.2
			c9.1,0.1,10.4,1.5,10.4,10.9v275.4c0,9.3-1.3,10.9-10.4,10.9h-18.9"/>
		<path id="rect2074-6-0" inkscape:connector-curvature="0" sodipodi:nodetypes="cc" class="st0" d="M927.5,649.5l0-297.3"/>
		<path id="path2126-4" inkscape:connector-curvature="0" sodipodi:nodetypes="cc" class="st0" d="M927.6,500.8h28.9"/>
	</g>
	<path id="rect885" inkscape:connector-curvature="0" sodipodi:nodetypes="cscc" class="st0" d="M1397.6,1159.8
		c-4.6-2.1-9.3-8.5-9.3-17.3V141c-0.1-18.2,3.4-19.4,9.3-23.8"/>
	<path id="rect1995-3" inkscape:connector-curvature="0" sodipodi:nodetypes="csccc" class="st0" d="M1374,1166.9
		c7,0,11.2-0.4,17-3.1c2.4-1.1,4.6-2.4,6.7-3.9 M1397.6,117.3c-7.1-5.1-13.8-7.3-23.6-7.3"/>
</g>
</svg>
