<?xml version="1.0" encoding="UTF-8" standalone="no"?>
<!-- Created with Inkscape (http://www.inkscape.org/) -->

<svg
   xmlns:dc="http://purl.org/dc/elements/1.1/"
   xmlns:cc="http://creativecommons.org/ns#"
   xmlns:rdf="http://www.w3.org/1999/02/22-rdf-syntax-ns#"
   xmlns:svg="http://www.w3.org/2000/svg"
   xmlns="http://www.w3.org/2000/svg"
   xmlns:sodipodi="http://sodipodi.sourceforge.net/DTD/sodipodi-0.dtd"
   xmlns:inkscape="http://www.inkscape.org/namespaces/inkscape"
   version="1.1"
   id="svg2"
   width="5376"
   height="4032"
   viewBox="0 0 5376 4032"
   sodipodi:docname="6570b_PR_noFP.svg"
   inkscape:version="0.92.3 (2405546, 2018-03-11)">
  <metadata
     id="metadata8">
    <rdf:RDF>
      <cc:Work
         rdf:about="">
        <dc:format>image/svg+xml</dc:format>
        <dc:type
           rdf:resource="http://purl.org/dc/dcmitype/StillImage" />
        <dc:title></dc:title>
      </cc:Work>
    </rdf:RDF>
  </metadata>
  <defs
     id="defs6" />
  <sodipodi:namedview
     pagecolor="#ffffff"
     bordercolor="#666666"
     borderopacity="1"
     objecttolerance="10"
     gridtolerance="10"
     guidetolerance="10"
     inkscape:pageopacity="0"
     inkscape:pageshadow="2"
     inkscape:window-width="1853"
     inkscape:window-height="1145"
     id="namedview4"
     showgrid="false"
     showguides="true"
     inkscape:guide-bbox="true"
     inkscape:zoom="0.46825397"
     inkscape:cx="2231.7991"
     inkscape:cy="1313.661"
     inkscape:window-x="67"
     inkscape:window-y="27"
     inkscape:window-maximized="1"
     inkscape:current-layer="g4653" />
  <g
     id="g4653">
    <g
       id="g4743">
      <path
         sodipodi:nodetypes="cssssssssccc"
         inkscape:connector-curvature="0"
         style="fill:none;fill-opacity:0.36279847;stroke:#000000;stroke-width:1;stroke-miterlimit:4;stroke-dasharray:none;stroke-opacity:0.98156684"
         d="m 1582.4251,2865.0897 h -129.9057 c -12.034,0 -21.7221,-9.6881 -21.7221,-21.7221 V 1980.386 c 0,-12.034 9.6881,-21.722 21.7221,-21.722 h 1361.864 c 12.034,0 21.722,9.688 21.722,21.722 v 862.9816 c 0,12.034 -9.688,21.7221 -21.722,21.7221 h -125.6615 m -54.2726,0 h -997.7487"
         id="rect4529" />
      <path
         sodipodi:nodetypes="ccsssssscc"
         inkscape:connector-curvature="0"
         style="fill:none;fill-opacity:0.36279847;stroke:#000000;stroke-width:1;stroke-miterlimit:4;stroke-dasharray:none;stroke-opacity:0.98156684"
         d="m 1739.2944,2535.6997 h -276.3415 c -10.6182,0 -19.1664,-9.8116 -19.1664,-21.999 v -446.6364 c 0,-12.1875 8.5482,-21.9991 19.1664,-21.9991 h 1340.8289 c 10.6182,0 19.1665,9.8116 19.1665,21.9991 v 446.6364 c 0,12.1874 -8.5483,21.999 -19.1665,21.999 h -641.6977"
         id="rect4531" />
      <path
         sodipodi:nodetypes="cssssc"
         inkscape:connector-curvature="0"
         style="fill:none;fill-opacity:0.36279847;stroke:#000000;stroke-width:1;stroke-miterlimit:4;stroke-dasharray:none;stroke-opacity:0.98156684"
         d="m 2162.4125,2534.7375 v 254.8936 c 0,5.6631 -4.5591,10.2222 -10.2222,10.2222 H 1750.506 c -5.663,0 -10.2221,-4.5591 -10.2221,-10.2222 v -254.8936"
         id="rect4545" />
      <path
         sodipodi:nodetypes="cssssc"
         inkscape:connector-curvature="0"
         style="fill:none;fill-opacity:0.36279847;stroke:#000000;stroke-width:1;stroke-miterlimit:4;stroke-dasharray:none;stroke-opacity:0.98156684"
         d="m 1582.1147,2865.0677 v -11.4236 c 0,-3.5394 3.5399,-6.3889 7.9371,-6.3889 h 38.6708 c 4.3971,0 7.9371,2.8495 7.9371,6.3889 v 11.4236"
         id="rect4547" />
      <path
         sodipodi:nodetypes="cssssc"
         inkscape:connector-curvature="0"
         style="fill:none;fill-opacity:0.36279847;stroke:#000000;stroke-width:1;stroke-miterlimit:4;stroke-dasharray:none;stroke-opacity:0.98156684"
         d="m 2634.6597,2865.7202 v -12.7759 c 0,-3.5394 3.54,-6.3888 7.9371,-6.3888 h 38.6709 c 4.3971,0 7.937,2.8494 7.937,6.3888 v 12.0998"
         id="rect4547-3" />
      <path
         style="fill:none;fill-opacity:0.36279847;stroke:#000000;stroke-width:1;stroke-miterlimit:4;stroke-dasharray:none;stroke-opacity:0.98156684"
         d="m 1520.3154,2001.8533 a 22.021767,22.021764 0 0 1 -22.0218,22.0217 22.021767,22.021764 0 0 1 -22.0217,-22.0217 22.021767,22.021764 0 0 1 22.0217,-22.0218 22.021767,22.021764 0 0 1 22.0218,22.0218 z"
         id="path4566"
         inkscape:connector-curvature="0" />
      <path
         style="fill:none;fill-opacity:0.36279847;stroke:#000000;stroke-width:1;stroke-miterlimit:4;stroke-dasharray:none;stroke-opacity:0.98156684"
         d="m 2550.8027,1999.8406 a 17.536791,17.536792 0 0 1 -17.5368,17.5368 17.536791,17.536792 0 0 1 -17.5367,-17.5368 17.536791,17.536792 0 0 1 17.5367,-17.5368 17.536791,17.536792 0 0 1 17.5368,17.5368 z"
         id="path4568"
         inkscape:connector-curvature="0" />
      <path
         style="fill:none;fill-opacity:0.36279847;stroke:#000000;stroke-width:1;stroke-miterlimit:4;stroke-dasharray:none;stroke-opacity:0.98156684"
         d="m 2622.9663,1999.5229 a 17.536791,17.536792 0 0 1 -17.5368,17.5368 17.536791,17.536792 0 0 1 -17.5368,-17.5368 17.536791,17.536792 0 0 1 17.5368,-17.5368 17.536791,17.536792 0 0 1 17.5368,17.5368 z"
         id="path4568-6"
         inkscape:connector-curvature="0" />
      <path
         style="fill:none;fill-opacity:0.36279847;stroke:#000000;stroke-width:1;stroke-miterlimit:4;stroke-dasharray:none;stroke-opacity:0.98156684"
         d="m 2695.1706,1999.5161 a 17.536791,17.536792 0 0 1 -17.5368,17.5368 17.536791,17.536792 0 0 1 -17.5368,-17.5368 17.536791,17.536792 0 0 1 17.5368,-17.5368 17.536791,17.536792 0 0 1 17.5368,17.5368 z"
         id="path4568-7"
         inkscape:connector-curvature="0" />
      <path
         style="fill:none;fill-opacity:0.36279847;stroke:#000000;stroke-width:1;stroke-miterlimit:4;stroke-dasharray:none;stroke-opacity:0.98156684"
         d="m 2767.3341,1999.1984 a 17.536791,17.536792 0 0 1 -17.5368,17.5368 17.536791,17.536792 0 0 1 -17.5368,-17.5368 17.536791,17.536792 0 0 1 17.5368,-17.5368 17.536791,17.536792 0 0 1 17.5368,17.5368 z"
         id="path4568-6-5"
         inkscape:connector-curvature="0" />
    </g>
  </g>
</svg>
