<?xml version="1.0" encoding="UTF-8" standalone="no"?>
<!-- Created with Inkscape (http://www.inkscape.org/) -->

<svg
   xmlns:dc="http://purl.org/dc/elements/1.1/"
   xmlns:cc="http://creativecommons.org/ns#"
   xmlns:rdf="http://www.w3.org/1999/02/22-rdf-syntax-ns#"
   xmlns:svg="http://www.w3.org/2000/svg"
   xmlns="http://www.w3.org/2000/svg"
   xmlns:sodipodi="http://sodipodi.sourceforge.net/DTD/sodipodi-0.dtd"
   xmlns:inkscape="http://www.inkscape.org/namespaces/inkscape"
   version="1.1"
   id="svg2"
   width="1422.4mm"
   height="1066.8mm"
   viewBox="0 0 5376 4032"
   sodipodi:docname="6570b_PR_yesFP_NEW.svg"
   inkscape:version="0.92.3 (2405546, 2018-03-11)">
  <metadata
     id="metadata8">
    <rdf:RDF>
      <cc:Work
         rdf:about="">
        <dc:format>image/svg+xml</dc:format>
        <dc:type
           rdf:resource="http://purl.org/dc/dcmitype/StillImage" />
        <dc:title></dc:title>
      </cc:Work>
    </rdf:RDF>
  </metadata>
  <defs
     id="defs6" />
  <sodipodi:namedview
     pagecolor="#ffffff"
     bordercolor="#666666"
     borderopacity="1"
     objecttolerance="10"
     gridtolerance="10"
     guidetolerance="10"
     inkscape:pageopacity="0"
     inkscape:pageshadow="2"
     inkscape:window-width="1920"
     inkscape:window-height="1017"
     id="namedview4"
     showgrid="false"
     showguides="true"
     inkscape:guide-bbox="true"
     inkscape:zoom="0.46825397"
     inkscape:cx="1867.6805"
     inkscape:cy="1313.661"
     inkscape:window-x="-8"
     inkscape:window-y="-8"
     inkscape:window-maximized="1"
     inkscape:current-layer="g4653"
     inkscape:document-units="mm"
     units="mm" />
  <g
     id="g4653">
    <g
       id="g4666"
       transform="matrix(0.33807595,0,0,0.33807595,1343.0235,1753.9419)"
       style="stroke-width:2.95791531;stroke-miterlimit:4;stroke-dasharray:none">
      <path
         sodipodi:nodetypes="cssssssssccc"
         inkscape:connector-curvature="0"
         style="fill:none;fill-opacity:0.36279847;stroke:#000000;stroke-width:2.95791531;stroke-miterlimit:4;stroke-dasharray:none;stroke-opacity:0.98156684"
         d="M 708.1297,3286.6809 H 323.8795 c -35.59559,0 -64.25197,-28.6564 -64.25197,-64.252 V 669.80251 c 0,-35.59559 28.65638,-64.25197 64.25197,-64.25197 h 4028.2783 c 35.5956,0 64.252,28.65638 64.252,64.25197 V 3222.4289 c 0,35.5956 -28.6564,64.252 -64.252,64.252 h -371.6959 m -160.5339,0 H 868.67196"
         id="rect4529" />
      <path
         sodipodi:nodetypes="ccsssssscc"
         inkscape:connector-curvature="0"
         style="fill:none;fill-opacity:0.36279847;stroke:#000000;stroke-width:2.95791531;stroke-miterlimit:4;stroke-dasharray:none;stroke-opacity:0.98156684"
         d="M 1172.1356,2312.3733 H 354.74101 c -31.40772,0 -56.69264,-29.0218 -56.69264,-65.0713 V 926.18944 c 0,-36.04949 25.28492,-65.07128 56.69264,-65.07128 H 4320.7993 c 31.4078,0 56.6927,29.02179 56.6927,65.07128 V 2247.302 c 0,36.0495 -25.2849,65.0713 -56.6927,65.0713 H 2422.7119"
         id="rect4531" />
      <path
         sodipodi:nodetypes="cssssc"
         inkscape:connector-curvature="0"
         style="fill:none;fill-opacity:0.36279847;stroke:#000000;stroke-width:2.95791531;stroke-miterlimit:4;stroke-dasharray:none;stroke-opacity:0.98156684"
         d="m 2423.6831,2309.5272 v 753.9537 c 0,16.7509 -13.4853,30.2363 -30.2362,30.2363 H 1205.2987 c -16.7508,0 -30.2362,-13.4854 -30.2362,-30.2363 v -753.9537"
         id="rect4545" />
      <path
         sodipodi:nodetypes="cssssc"
         inkscape:connector-curvature="0"
         style="fill:none;fill-opacity:0.36279847;stroke:#000000;stroke-width:2.95791531;stroke-miterlimit:4;stroke-dasharray:none;stroke-opacity:0.98156684"
         d="m 707.21149,3286.6159 v -33.79 c 0,-10.4693 10.47082,-18.8977 23.47718,-18.8977 h 114.38505 c 13.00636,0 23.47718,8.4284 23.47718,18.8977 v 33.79"
         id="rect4547" />
      <path
         sodipodi:nodetypes="cssssc"
         inkscape:connector-curvature="0"
         style="fill:none;fill-opacity:0.36279847;stroke:#000000;stroke-width:2.95791531;stroke-miterlimit:4;stroke-dasharray:none;stroke-opacity:0.98156684"
         d="m 3820.5505,3288.5461 v -37.7901 c 0,-10.4693 10.4709,-18.8976 23.4772,-18.8976 h 114.3851 c 13.0063,0 23.4772,8.4283 23.4772,18.8976 v 35.7901"
         id="rect4547-3" />
      <path
         style="fill:none;fill-opacity:0.36279847;stroke:#000000;stroke-width:2.95791531;stroke-miterlimit:4;stroke-dasharray:none;stroke-opacity:0.98156684"
         d="m 524.41437,733.30078 a 65.138519,65.138512 0 0 1 -65.13852,65.13851 65.138519,65.138512 0 0 1 -65.13852,-65.13851 65.138519,65.138512 0 0 1 65.13852,-65.13851 65.138519,65.138512 0 0 1 65.13852,65.13851 z"
         id="path4566"
         inkscape:connector-curvature="0" />
      <path
         style="fill:none;fill-opacity:0.36279847;stroke:#000000;stroke-width:2.95791531;stroke-miterlimit:4;stroke-dasharray:none;stroke-opacity:0.98156684"
         d="m 3572.5086,727.34747 a 51.872341,51.872345 0 0 1 -51.8724,51.87235 51.872341,51.872345 0 0 1 -51.8723,-51.87235 51.872341,51.872345 0 0 1 51.8723,-51.87234 51.872341,51.872345 0 0 1 51.8724,51.87234 z"
         id="path4568"
         inkscape:connector-curvature="0" />
      <path
         style="fill:none;fill-opacity:0.36279847;stroke:#000000;stroke-width:2.95791531;stroke-miterlimit:4;stroke-dasharray:none;stroke-opacity:0.98156684"
         d="m 3785.9622,726.40765 a 51.872341,51.872345 0 0 1 -51.8724,51.87235 51.872341,51.872345 0 0 1 -51.8723,-51.87235 51.872341,51.872345 0 0 1 51.8723,-51.87234 51.872341,51.872345 0 0 1 51.8724,51.87234 z"
         id="path4568-6"
         inkscape:connector-curvature="0" />
      <path
         style="fill:none;fill-opacity:0.36279847;stroke:#000000;stroke-width:2.95791531;stroke-miterlimit:4;stroke-dasharray:none;stroke-opacity:0.98156684"
         d="m 3999.5364,726.38763 a 51.872341,51.872345 0 0 1 -51.8723,51.87235 51.872341,51.872345 0 0 1 -51.8724,-51.87235 51.872341,51.872345 0 0 1 51.8724,-51.87234 51.872341,51.872345 0 0 1 51.8723,51.87234 z"
         id="path4568-7"
         inkscape:connector-curvature="0" />
      <path
         style="fill:none;fill-opacity:0.36279847;stroke:#000000;stroke-width:2.95791531;stroke-miterlimit:4;stroke-dasharray:none;stroke-opacity:0.98156684"
         d="m 4212.99,725.44781 a 51.872341,51.872345 0 0 1 -51.8723,51.87235 51.872341,51.872345 0 0 1 -51.8724,-51.87235 51.872341,51.872345 0 0 1 51.8724,-51.87234 51.872341,51.872345 0 0 1 51.8723,51.87234 z"
         id="path4568-6-5"
         inkscape:connector-curvature="0" />
      <path
         style="fill:none;fill-opacity:0.36279847;stroke:#000000;stroke-width:2.95791531;stroke-miterlimit:4;stroke-dasharray:none;stroke-opacity:0.98156684"
         d="m 4070.8691,2326.3108 h 233.8456 c 8.3688,0 15.1062,8.2263 15.1062,18.4446 v 79.1797 c 0,10.2183 -6.7374,18.4446 -15.1062,18.4446 h -233.8456 c -8.3688,0 -15.1062,-8.2263 -15.1062,-18.4446 v -79.1797 c 0,-10.2183 6.7374,-18.4446 15.1062,-18.4446 z"
         id="rect4605"
         inkscape:connector-curvature="0" />
    </g>
  </g>
</svg>
