<?xml version="1.0" encoding="utf-8"?>
<!-- Generator: Adobe Illustrator 25.2.1, SVG Export Plug-In . SVG Version: 6.00 Build 0)  -->
<svg version="1.1"
	 id="Layer_1" inkscape:version="0.92.3 (2405546, 2018-03-11)" xmlns:cc="http://creativecommons.org/ns#" xmlns:dc="http://purl.org/dc/elements/1.1/" xmlns:inkscape="http://www.inkscape.org/namespaces/inkscape" xmlns:rdf="http://www.w3.org/1999/02/22-rdf-syntax-ns#" xmlns:sodipodi="http://sodipodi.sourceforge.net/DTD/sodipodi-0.dtd" xmlns:svg="http://www.w3.org/2000/svg"
	 xmlns="http://www.w3.org/2000/svg" xmlns:xlink="http://www.w3.org/1999/xlink" x="0px" y="0px" viewBox="0 0 4280.3 1133.9"
	 style="enable-background:new 0 0 4280.3 1133.9;" xml:space="preserve">
<style type="text/css">
	.st0{fill:none;stroke:#010101;stroke-width:0.75;stroke-miterlimit:1.0142;stroke-opacity:0.9816;}
	.st1{fill:none;stroke:#010101;stroke-width:0.75;stroke-miterlimit:1.0142;}
	.st2{fill:#FFFFFF;stroke:#000000;stroke-miterlimit:10;}
</style>
<sodipodi:namedview  bordercolor="#666666" borderopacity="1" gridtolerance="10" guidetolerance="10" id="namedview4" inkscape:current-layer="Layer_1" inkscape:cx="-429.53713" inkscape:cy="566.95001" inkscape:window-height="1017" inkscape:window-maximized="1" inkscape:window-width="1920" inkscape:window-x="-8" inkscape:window-y="-8" inkscape:zoom="0.066350492" objecttolerance="10" pagecolor="#ffffff" showgrid="false" showguides="true" units="mm">
	</sodipodi:namedview>
<g>
	<path id="rect4529" class="st0" d="M387.2,157.4v-97c0-9,7.2-16.2,16.2-16.2h641.9c9,0,16.2,7.2,16.2,16.2v1016.4
		c0,9-7.2,16.2-16.2,16.2h-642c-9,0-16.2-7.2-16.2-16.2V983 M387.2,942.5V197.9"/>
	<path id="rect4531" class="st0" d="M632.9,271.5l-0.7-203.3c0-7.9,7.3-14.3,16.4-14.3h332.2c9.1,0,16.4,6.4,16.4,14.3v1000.7
		c0,7.9-7.3,14.3-16.4,14.3H648.5c-9.1,0-16.4-6.4-16.4-14.3V589"/>
	<path id="rect4545" class="st0" d="M632.9,588.5H443.3c-4.2,0-7.6-3.4-7.6-7.7V279.2c0-4.3,3.4-7.7,7.6-7.7h189.6"/>
	<path id="rect4547" class="st0" d="M387.2,157.2h8.5c2.6,0,4.8,2.6,4.8,5.9V192c0,3.3-2.1,5.9-4.8,5.9h-8.5"/>
	<path id="rect4547-3" class="st0" d="M386.7,942.7h9.5c2.6,0,4.8,2.6,4.8,5.9v28.9c0,3.3-2.1,5.9-4.8,5.9h-9"/>
	<path id="path4566" class="st0" d="M1029.2,111c-9,0-16.4-7.4-16.4-16.4s7.3-16.4,16.4-16.4c9,0,16.4,7.4,16.4,16.4
		S1038.3,111,1029.2,111z"/>
	<path id="path4568" class="st0" d="M1029.7,878.7c-6.4,0-11.6-5.2-11.6-11.7l0,0c0-6.4,5.2-11.7,11.6-11.7l0,0
		c6.4,0,11.6,5.2,11.6,11.7S1036.1,878.7,1029.7,878.7z"/>
	<path id="path4568-6" class="st0" d="M1029.9,932.5c-6.4,0-11.6-5.2-11.6-11.7l0,0c0-6.4,5.2-11.7,11.6-11.7l0,0
		c6.4,0,11.6,5.2,11.6,11.7C1041.6,927.3,1036.4,932.5,1029.9,932.5z"/>
	<path id="path4568-7" class="st0" d="M1029.9,986.4c-6.4,0-11.6-5.2-11.6-11.7l0,0c0-6.4,5.2-11.7,11.6-11.7l0,0
		c6.4,0,11.6,5.2,11.6,11.7C1041.6,981.2,1036.4,986.4,1029.9,986.4z"/>
	<path id="path4568-6-5" class="st0" d="M1030.2,1040.2c-6.4,0-11.6-5.2-11.6-11.7c0-6.4,5.2-11.7,11.6-11.7l0,0
		c6.4,0,11.6,5.2,11.6,11.7l0,0C1041.8,1035.1,1036.6,1040.2,1030.2,1040.2z"/>
	<rect id="rect16" x="483.5" y="275.5" class="st1" width="153.1" height="309"/>
	<path id="path18" class="st1" d="M443.2,430V285.4c0-3.1,2.5-5.7,5.7-5.7h28.3v150.2L443.2,430L443.2,430z"/>
	<path id="path20" class="st1" d="M443.2,574.6V430h34v150.2h-28.3C445.8,580.2,443.2,577.7,443.2,574.6z"/>
	<rect x="636.6" y="279.8" class="st2" width="26.9" height="150.2"/>
	<rect x="636.6" y="430" class="st2" width="26.9" height="150.2"/>
</g>
</svg>
