<?xml version="1.0" encoding="utf-8"?>
<!DOCTYPE svg PUBLIC "-//W3C//DTD SVG 1.1//EN" "http://www.w3.org/Graphics/SVG/1.1/DTD/svg11.dtd">
<!-- exported from Silhouette Studio® Business Edition V4.3.370ssbe -->
<svg version="1.1" xmlns="http://www.w3.org/2000/svg" xmlns:xlink="http://www.w3.org/1999/xlink" width="304.8mm" height="600mm" viewBox="0 0 304.8 600">
<defs/>
<path d="M -41.11547 303.4511 C -42.81545 303.1406 -45.31927 302.1634 -46.48616 301.355 C -48.59389 299.895 -50.17557 297.3811 -50.75797 294.5658 C -51.09235 292.9494 -51.09468 292.0586 -51.05164 182.3417 L -51.00826 71.74684 L -50.62177 70.49026 C -50.40922 69.79915 -50.01229 68.7372 -49.73975 68.13042 C -49.16537 66.85164 -47.88774 64.80042 -47.66566 64.80042 C -47.58208 64.80042 -47.3644 64.54958 -47.18196 64.24298 C -46.34174 62.83104 -42.6188 60.42033 -39.93594 59.55098 C -37.65305 58.81122 -35.29361 58.62173 -29.09003 58.68004 C -25.2732 58.71591 -24.78791 58.75279 -24.30589 59.04352 C -23.61002 59.46323 -23.56801 59.71826 -23.56801 63.52301 L -23.56801 66.66212 L -22.95622 67.17119 C -22.61975 67.45116 -22.11426 67.72672 -21.8329 67.78352 C -21.55153 67.8403 -15.52518 67.89064 -8.44101 67.89539 C 5.343841 67.90456 4.966705 67.9263 5.938385 67.06729 C 6.2892 66.75716 6.307999 66.58127 6.363144 63.09773 C 6.419998 59.50563 6.426666 59.44792 6.822388 59.12466 C 7.217102 58.80223 9.363976 58.79739 133.1009 58.83989 C 253.6503 58.88129 258.9908 58.89604 259.2813 59.18915 C 259.5461 59.45624 259.5971 59.94762 259.6818 63.04829 C 259.7485 65.49232 259.8468 66.71004 259.9967 66.94965 C 260.1165 67.1412 260.5325 67.43063 260.921 67.59283 C 261.568 67.86298 262.7287 67.88773 274.7543 67.88773 L 287.8813 67.88773 L 288.5502 67.46144 C 288.9182 67.22699 289.3145 66.86038 289.431 66.64674 C 289.5737 66.38495 289.6578 65.20219 289.6889 63.01877 C 289.7403 59.41766 289.8267 59.09428 290.8038 58.84416 C 291.1084 58.7662 294.3395 58.74844 297.9841 58.80472 L 304.6106 58.90706 L 305.5923 59.36676 C 306.1324 59.6196 306.67 59.82645 306.787 59.82645 C 307.011 59.82645 308.9621 60.94176 310.7889 62.11401 C 312.1421 62.98233 314.0121 65.1338 314.8059 66.73564 C 315.1313 67.39227 315.5435 68.17094 315.7216 68.46605 C 315.8998 68.76115 316.2443 69.92877 316.4872 71.06079 L 316.9291 73.11897 L 316.8865 183.2325 L 316.844 293.3461 L 316.4651 295.02 C 316.0658 296.7846 315.8887 297.2153 314.977 298.6387 C 313.6478 300.714 311.2995 302.3132 308.1786 303.2687 L 306.9892 303.6328 L 133.5975 303.6627 C -14.79785 303.6882 -39.98475 303.6577 -41.11547 303.4511 Z" fill="none" fill-opacity="1" stroke="#000000" stroke-opacity="1" stroke-width="0.3527778" stroke-linecap="round" stroke-linejoin="round"/>
<path d="M 277.4611 218.4221 C 277.8391 217.8976 277.8011 216.0728 277.3974 215.3629 L 277.0541 214.7592 L 268.4912 214.7623 C 263.7817 214.764 259.7362 214.8247 259.5012 214.8972 C 258.5752 215.1831 258.4275 218.136 259.3185 218.5498 C 259.5475 218.6561 263.6665 218.7495 268.472 218.7573 C 276.1791 218.7698 277.2389 218.7302 277.4611 218.4221 Z" fill="none" fill-opacity="1" stroke="#000000" stroke-opacity="1" stroke-width="0.3527778" stroke-linecap="round" stroke-linejoin="round"/>
<path d="M 163.976 203.968 L 179.0052 203.9348 C 189.1066 203.8919 203.0758 203.8534 218.6329 203.8291 L 274.3742 203.7422 L 275.4052 203.3826 C 278.5237 202.2949 280.4834 199.8766 280.9616 196.5264 C 281.0231 196.0954 281.0349 173.2053 280.9876 145.6595 C 280.905 97.48171 280.8895 95.53989 280.5833 94.61983 C 280.156 93.33638 278.9855 91.71046 277.8666 90.8465 C 276.7073 89.95135 276.2081 89.7058 274.7178 89.2975 C 273.5423 88.97549 270.3588 88.96808 132.7449 88.96808 L -8.025513 88.96808 L -9.434975 89.44104 C -11.53802 90.14668 -12.6011 91.03098 -14.03581 93.2682 C -15.04992 94.84955 -14.98243 91.0593 -14.98244 146.4421 C -14.98244 192.34 -14.95642 197.2475 -14.70863 198.1023 C -14.25105 199.6808 -13.08472 201.2062 -11.36421 202.4761 C -10.32043 203.2464 -9.481148 203.4994 -7.424271 203.6634 C -6.337799 203.75 8.370882 203.8228 25.26163 203.825 C 33.40839 203.8261 39.44479 203.8251 43.92726 203.8357 L 56.17612 203.8469" fill="none" fill-opacity="1" stroke="#000000" stroke-opacity="1" stroke-width="0.3527778" stroke-linecap="round" stroke-linejoin="round"/>
<path d="M 42.92949 208.9725 C 43.56242 208.6218 43.63123 208.4988 43.58508 207.8007 C 43.55673 207.3717 43.49374 206.8939 43.44514 206.7391 C 43.37671 206.521 41.80722 206.458 36.48601 206.46 C 32.70711 206.4613 29.27919 206.5267 28.86841 206.6052 C 28.26703 206.7201 28.06042 206.8963 27.80766 207.5094 C 27.5063 208.2404 27.51106 208.291 27.92647 208.7715 C 28.47649 209.4077 30.1288 209.5255 37.18463 209.4315 C 41.48965 209.3741 42.32518 209.3074 42.92949 208.9725 Z" fill="none" fill-opacity="1" stroke="#000000" stroke-opacity="1" stroke-width="0.3527778" stroke-linecap="round" stroke-linejoin="round"/>
<path d="M 191.221 208.797 L 191.8549 208.2299 L 191.512 207.5382 C 191.3233 207.1578 191.0199 206.7514 190.8377 206.6351 C 190.6474 206.5137 187.5526 206.4494 183.5646 206.4838 L 176.6227 206.544 L 176.2388 207.3887 L 175.8549 208.2336 L 176.3108 208.8059 C 176.5616 209.1207 176.996 209.4096 177.2763 209.4479 C 177.5565 209.4863 180.6661 209.483 184.1865 209.4407 L 190.5871 209.3639 L 191.221 208.797 Z" fill="none" fill-opacity="1" stroke="#000000" stroke-opacity="1" stroke-width="0.3527778" stroke-linecap="round" stroke-linejoin="round"/>
<path d="M 254.5557 84.49931 C 254.8158 83.74606 254.8158 64.37872 254.5557 63.62547 L 254.3692 63.08533 L 133.3593 63.08533 L 12.34935 63.08533 L 11.76382 63.69505 L 11.17828 64.30478 L 11.13132 74.02893 L 11.08438 83.75305 L 11.61095 84.39624 L 12.13751 85.03943 L 133.2534 85.03943 L 254.3692 85.03943 L 254.5557 84.49931 Z" fill="none" fill-opacity="1" stroke="#000000" stroke-opacity="1" stroke-width="0.3527778" stroke-linecap="round" stroke-linejoin="round"/>
<path d="M -10.77379 83.18684 C -10.15996 82.90265 -9.943108 82.66234 -9.612587 81.9001 C -9.240463 81.0419 -9.211411 80.76408 -9.268089 78.6069 C -9.33741 75.96854 -9.514488 75.48695 -10.6442 74.86473 C -11.18716 74.56567 -11.99564 74.53687 -19.85645 74.53661 L -28.4735 74.53632 L -29.17982 75.14569 C -30.08514 75.92673 -30.24477 76.53757 -30.24564 79.22385 C -30.24649 81.85275 -30.0225 82.48386 -28.86482 83.11444 C -28.09391 83.53435 -28.05182 83.53632 -19.80944 83.53632 C -12.11588 83.53632 -11.47503 83.51152 -10.77379 83.18684 Z" fill="none" fill-opacity="1" stroke="#000000" stroke-opacity="1" stroke-width="0.3527778" stroke-linecap="round" stroke-linejoin="round"/>
<path d="M 56.00009 203.8526 L 56 292.5426 L 164 292.5426 L 164 204.0024" fill="none" fill-opacity="1" stroke="#000000" stroke-opacity="1" stroke-width="0.3527778" stroke-linecap="round" stroke-linejoin="round"/>
<path d="M 298.9179 83.07516 C 299.7072 82.79097 299.986 82.55066 300.4109 81.78842 C 300.8893 80.93022 300.9267 80.6524 300.8538 78.49522 C 300.7647 75.85686 300.537 75.37527 299.0845 74.75305 C 298.3864 74.45399 297.347 74.42519 287.2402 74.42493 L 276.1611 74.42464 L 275.253 75.03401 C 274.0891 75.81505 273.8838 76.42586 273.8827 79.11214 C 273.8816 81.74104 274.1696 82.37216 275.658 83.00276 C 276.6492 83.42267 276.7033 83.42464 287.3007 83.42464 C 297.1924 83.42464 298.0164 83.39984 298.9179 83.07516 Z" fill="none" fill-opacity="1" stroke="#000000" stroke-opacity="1" stroke-width="0.3527778" stroke-linecap="round" stroke-linejoin="round"/>
<path d="M 160.9283 280.5071 C 161.2438 280.5071 161.5 280.0665 161.5 279.5242 L 161.5 217.49 C 161.5 216.9476 161.2438 216.5071 160.9283 216.5071 L 59.07167 216.5071 C 58.75623 216.5071 58.5 216.9476 58.5 217.49 L 58.49998 279.5242 C 58.49998 280.0665 58.75621 280.5071 59.07166 280.5071 L 160.9283 280.5071 Z" fill="none" fill-opacity="1" stroke="#000000" stroke-opacity="1" stroke-width="0.3527778" stroke-linecap="round" stroke-linejoin="round"/>
<path d="M 107.8973 291.5043 C 108.3632 291.5043 108.7417 291.1733 108.7417 290.7658 L 108.7417 282.2428 C 108.7417 281.8353 108.3632 281.5043 107.8973 281.5043 L 59.58643 281.5043 C 59.12054 281.5043 58.74206 281.8353 58.74206 282.2428 L 58.74206 290.7658 C 58.74206 291.1733 59.12054 291.5043 59.58643 291.5043 L 107.8973 291.5043 Z" fill="none" fill-opacity="1" stroke="#000000" stroke-opacity="1" stroke-width="0.3527778" stroke-linecap="round" stroke-linejoin="round"/>
<path d="M 160.4929 291.5042 C 160.9588 291.5042 161.3372 291.1733 161.3372 290.7658 L 161.3372 282.2427 C 161.3372 281.8352 160.9588 281.5043 160.4929 281.5043 L 112.182 281.5043 C 111.716 281.5043 111.3376 281.8352 111.3376 282.2427 L 111.3376 290.7658 C 111.3376 291.1733 111.716 291.5042 112.182 291.5042 L 160.4929 291.5042 Z" fill="none" fill-opacity="1" stroke="#000000" stroke-opacity="1" stroke-width="0.3527778" stroke-linecap="round" stroke-linejoin="round"/>
<path d="M 107.8973 215.0018 C 108.3632 215.0018 108.7417 214.6708 108.7417 214.2633 L 108.7417 205.7403 C 108.7417 205.3328 108.3632 205.0018 107.8973 205.0018 L 59.58643 205.0018 C 59.12052 205.0018 58.74205 205.3328 58.74205 205.7403 L 58.74205 214.2633 C 58.74205 214.6708 59.12052 215.0018 59.58643 215.0018 L 107.8973 215.0018 Z" fill="none" fill-opacity="1" stroke="#000000" stroke-opacity="1" stroke-width="0.3527778" stroke-linecap="round" stroke-linejoin="round"/>
<path d="M 160.2412 215.0018 C 160.7071 215.0018 161.0856 214.6708 161.0856 214.2633 L 161.0856 205.7403 C 161.0856 205.3328 160.7071 205.0018 160.2412 205.0018 L 111.9303 205.0018 C 111.4644 205.0018 111.0859 205.3328 111.0859 205.7403 L 111.0859 214.2633 C 111.0859 214.6708 111.4644 215.0018 111.9303 215.0018 L 160.2412 215.0018 Z" fill="none" fill-opacity="1" stroke="#000000" stroke-opacity="1" stroke-width="0.3527778" stroke-linecap="round" stroke-linejoin="round"/>
</svg>