<?xml version="1.0" encoding="UTF-8" standalone="no"?>
<!-- Created with Inkscape (http://www.inkscape.org/) -->

<svg
   xmlns:dc="http://purl.org/dc/elements/1.1/"
   xmlns:cc="http://creativecommons.org/ns#"
   xmlns:rdf="http://www.w3.org/1999/02/22-rdf-syntax-ns#"
   xmlns:svg="http://www.w3.org/2000/svg"
   xmlns="http://www.w3.org/2000/svg"
   xmlns:sodipodi="http://sodipodi.sourceforge.net/DTD/sodipodi-0.dtd"
   xmlns:inkscape="http://www.inkscape.org/namespaces/inkscape"
   width="594mm"
   height="841mm"
   viewBox="0 0 594 841"
   version="1.1"
   id="svg8"
   inkscape:version="0.92.3 (2405546, 2018-03-11)"
   sodipodi:docname="850_G3_PR.svg">
  <defs
     id="defs2" />
  <sodipodi:namedview
     id="base"
     pagecolor="#ffffff"
     bordercolor="#666666"
     borderopacity="1.0"
     inkscape:pageopacity="0.0"
     inkscape:pageshadow="2"
     inkscape:zoom="0.24748737"
     inkscape:cx="1473.5189"
     inkscape:cy="2433.8796"
     inkscape:document-units="mm"
     inkscape:current-layer="layer1"
     showgrid="false"
     showguides="true"
     inkscape:guide-bbox="true"
     inkscape:window-width="1920"
     inkscape:window-height="1017"
     inkscape:window-x="-8"
     inkscape:window-y="-8"
     inkscape:window-maximized="1" />
  <metadata
     id="metadata5">
    <rdf:RDF>
      <cc:Work
         rdf:about="">
        <dc:format>image/svg+xml</dc:format>
        <dc:type
           rdf:resource="http://purl.org/dc/dcmitype/StillImage" />
        <dc:title></dc:title>
      </cc:Work>
    </rdf:RDF>
  </metadata>
  <g
     inkscape:label="Layer 1"
     inkscape:groupmode="layer"
     id="layer1"
     transform="translate(0,544)">
    <g
       id="g992"
       style="stroke:#000000;stroke-opacity:1;stroke-width:0.35277778;stroke-miterlimit:4;stroke-dasharray:none">
      <path
         sodipodi:nodetypes="cccssssssssc"
         inkscape:connector-curvature="0"
         id="rect861"
         d="m 115.58513,-381.3429 259.6472,0.15119 m 30.64722,0 10.84206,-0.13486 c 9.41727,-0.11714 17,7.58201 17,17.00001 v 218.3472 c 0,9.418 -7.582,17.00001 -17,17.00001 H 74.074406 c -9.418005,0 -17.000008,-7.58201 -17.000008,-17.00001 v -218.3472 c 0,-9.418 7.582014,-16.9857 17.000008,-17.00001 l 10.863498,-0.0165"
         style="opacity:1;fill:none;fill-opacity:1;stroke:#000000;stroke-width:0.35277778;stroke-miterlimit:4;stroke-dasharray:none;stroke-opacity:1" />
      <path
         sodipodi:nodetypes="cssssssssc"
         inkscape:connector-curvature="0"
         id="rect863"
         d="m 148.72162,-228.78362 -65.284112,0.0947 c -6.647993,0.01 -12,-5.352 -12,-12 v -98.64722 c 0,-6.648 5.352,-12 12,-12 H 407.08472 c 6.648,0 12,5.352 12,12 v 98.64722 c 0,6.648 -5.352,12.00409 -12,12 l -153.71588,-0.0947"
         style="opacity:1;fill:none;fill-opacity:1;stroke:#000000;stroke-width:0.35277778;stroke-miterlimit:4;stroke-dasharray:none;stroke-opacity:1" />
      <path
         sodipodi:nodetypes="cccc"
         inkscape:connector-curvature="0"
         id="rect869"
         d="m 115.58513,-381.3429 v 10.76152 H 84.937904 v -10.76152"
         style="opacity:1;fill:none;fill-opacity:1;stroke:#000000;stroke-width:0.35277778;stroke-miterlimit:4;stroke-dasharray:none;stroke-opacity:1" />
      <path
         sodipodi:nodetypes="cccc"
         inkscape:connector-curvature="0"
         id="rect869-5"
         d="m 405.87955,-381.19171 v 10.61033 h -30.64722 v -10.61033"
         style="opacity:1;fill:none;fill-opacity:1;stroke:#000000;stroke-width:0.35277778;stroke-miterlimit:4;stroke-dasharray:none;stroke-opacity:1" />
      <path
         id="rect888"
         d="m 118.92857,-377.88293 h 252.64722 c 0.554,0 1,0.446 1,1 v 20.64722 c 0,0.554 -0.446,1 -1,1 H 118.92857 c -0.554,0 -1,-0.446 -1,-1 v -20.64722 c 0,-0.554 0.446,-1 1,-1 z"
         style="opacity:1;fill:none;fill-opacity:1;stroke:#000000;stroke-width:0.35277778;stroke-miterlimit:4;stroke-dasharray:none;stroke-opacity:1" />
      <path
         id="rect890"
         d="m 77.721619,-365.32504 h 17.647222 c 1.108,0 2,0.892 2,2 v 4.64722 c 0,1.108 -0.892,2 -2,2 H 77.721619 c -1.108,0 -2,-0.892 -2,-2 v -4.64722 c 0,-1.108 0.892,-2 2,-2 z"
         style="opacity:1;fill:none;fill-opacity:1;stroke:#000000;stroke-width:0.35277778;stroke-miterlimit:4;stroke-dasharray:none;stroke-opacity:1" />
      <path
         id="rect890-4"
         d="m -413.0744,-365.32504 h 17.64722 c 1.108,0 2,0.892 2,2 v 4.64722 c 0,1.108 -0.892,2 -2,2 h -17.64722 c -1.108,0 -2,-0.892 -2,-2 v -4.64722 c 0,-1.108 0.892,-2 2,-2 z"
         style="opacity:1;fill:none;fill-opacity:1;stroke:#000000;stroke-width:0.35277778;stroke-miterlimit:4;stroke-dasharray:none;stroke-opacity:1"
         transform="scale(-1,1)" />
      <path
         id="rect890-6-2"
         d="m -412.0744,-220.27362 h 16.64722 c 0.554,0 1,0.446 1,1 v 1.64722 c 0,0.554 -0.446,1 -1,1 h -16.64722 c -0.554,0 -1,-0.446 -1,-1 v -1.64722 c 0,-0.554 0.446,-1 1,-1 z"
         style="opacity:1;fill:none;fill-opacity:1;stroke:#000000;stroke-width:0.35277778;stroke-miterlimit:4;stroke-dasharray:none;stroke-opacity:1"
         transform="scale(-1,1)" />
      <path
         sodipodi:nodetypes="cssssc"
         inkscape:connector-curvature="0"
         id="rect925"
         d="m 253.36884,-228.78362 v 78.15714 c 0,4.986 -4.014,9 -9,9 h -86.64722 c -4.986,0 -9,-4.014 -9,-9 v -78.15714"
         style="opacity:1;fill:none;fill-opacity:1;stroke:#000000;stroke-width:0.35277778;stroke-miterlimit:4;stroke-dasharray:none;stroke-opacity:1" />
      <path
         sodipodi:nodetypes="cssccc"
         inkscape:connector-curvature="0"
         id="rect927"
         d="m 150.56352,-220.1469 -0.12902,-8.64722 c -0.0165,-1.10788 0.892,-2 2,-2 h 47.61271 c 0.0677,3.5559 0.0345,7.113 0.0345,10.66939 0,0 -34.44992,-0.0222 -49.51821,-0.0222"
         style="opacity:1;fill:none;fill-opacity:1;stroke:#000000;stroke-width:0.35277778;stroke-miterlimit:4;stroke-dasharray:none;stroke-opacity:1" />
      <path
         sodipodi:nodetypes="cssccc"
         inkscape:connector-curvature="0"
         id="rect927-6"
         d="m 251.11841,-220.1469 0.12902,-8.64722 c 0.0165,-1.10788 -0.892,-2 -2,-2 h -47.61271 c -0.0677,3.5559 -0.0345,7.113 -0.0345,10.66939 0,0 34.44992,-0.0222 49.51821,-0.0222"
         style="opacity:1;fill:none;fill-opacity:1;stroke:#000000;stroke-width:0.35277778;stroke-miterlimit:4;stroke-dasharray:none;stroke-opacity:1" />
      <path
         sodipodi:nodetypes="cccccc"
         inkscape:connector-curvature="0"
         id="rect927-8"
         d="m 150.83831,-153.79736 -0.12902,4.94306 c 0.0707,3.1866 3.00866,5.75141 6.7625,5.70416 h 42.85022 c 0.0677,-3.5559 0.0345,-7.113 0.0345,-10.66939 0,0 -34.44992,0.0222 -49.51821,0.0222"
         style="opacity:1;fill:none;fill-opacity:1;stroke:#000000;stroke-width:0.35277778;stroke-miterlimit:4;stroke-dasharray:none;stroke-opacity:1" />
      <path
         sodipodi:nodetypes="cccccc"
         inkscape:connector-curvature="0"
         id="rect927-8-3"
         d="m 251.39321,-153.79736 0.12902,4.94306 c -0.0707,3.1866 -3.00866,5.75141 -6.7625,5.70416 h -42.85021 c -0.0677,-3.5559 -0.0345,-7.113 -0.0345,-10.66939 0,0 34.44992,0.0222 49.51821,0.0222"
         style="opacity:1;fill:none;fill-opacity:1;stroke:#000000;stroke-width:0.35277778;stroke-miterlimit:4;stroke-dasharray:none;stroke-opacity:1" />
      <path
         id="rect966"
         d="m 151.26527,-217.95442 h 99.64722 c 0.554,0 1,0.446 1,1 v 60.64722 c 0,0.554 -0.446,1 -1,1 h -99.64722 c -0.554,0 -1,-0.446 -1,-1 v -60.64722 c 0,-0.554 0.446,-1 1,-1 z"
         style="opacity:1;fill:none;fill-opacity:1;stroke:#000000;stroke-width:0.35277778;stroke-miterlimit:4;stroke-dasharray:none;stroke-opacity:1" />
    </g>
  </g>
</svg>
