<?xml version="1.0" encoding="utf-8"?>
<!-- Generator: Adobe Illustrator 26.1.0, SVG Export Plug-In . SVG Version: 6.00 Build 0)  -->
<svg version="1.1" id="Layer_1" xmlns="http://www.w3.org/2000/svg" xmlns:xlink="http://www.w3.org/1999/xlink" x="0px" y="0px"
	 viewBox="0 0 4280.3 1133.9" style="enable-background:new 0 0 4280.3 1133.9;" xml:space="preserve">
<style type="text/css">
	.st0{fill:none;stroke:#010101;stroke-linecap:round;stroke-linejoin:round;stroke-miterlimit:11.3386;}
</style>
<g>
	<path class="st0" d="M331.1,167.2V62.4c0-1.6,1.3-2.8,2.8-2.8h635c6.3,0,11.3,5.1,11.3,11.3V1063c0,6.3-5.1,11.3-11.3,11.3h-635
		c-1.6,0-2.8-1.3-2.8-2.8V966.6"/>
	<path class="st0" d="M730.8,100.6v932.6c0,1.6-1.3,2.8-2.8,2.8H421.8c-1.6,0-2.8-1.3-2.8-2.8V100.6c0-1.6,1.3-2.8,2.8-2.8h306.1
		C729.5,97.8,730.8,99.1,730.8,100.6z"/>
	<path class="st0" d="M966.8,530.1v337.3c0,1.6-1.3,2.8-2.8,2.8H747.1c-1.6,0-2.8-1.3-2.8-2.8V530.1c0-1.6,1.3-2.8,2.8-2.8h216.9
		C965.5,527.2,966.8,528.5,966.8,530.1z"/>
	<path class="st0" d="M331.1,167.2h34.4"/>
	<path class="st0" d="M365.5,966.6h-34.4"/>
	<polyline class="st0" points="365.5,167.2 365.5,96.4 410.9,96.4 410.9,1037.5 365.5,1037.5 365.5,966.6 	"/>
	<path class="st0" d="M964.6,533.5v331.7c0,1.6-1.3,2.8-2.8,2.8H786c-1.6,0-2.8-1.3-2.8-2.8V533.5c0-1.6,1.3-2.8,2.8-2.8h175.7
		C963.3,530.6,964.6,531.9,964.6,533.5z"/>
	<path class="st0" d="M783.1,698.7V866h-28.3c-1.6,0-2.8-1.3-2.8-2.8V698.7H783.1z"/>
	<path class="st0" d="M783.1,531.5v167.2H752V534.3c0-1.6,1.3-2.8,2.8-2.8H783.1z"/>
	<path class="st0" d="M779,107.7v28.3c0,1.6-1.3,2.8-2.8,2.8h-28.3c-1.6,0-2.8-1.3-2.8-2.8v-28.3c0-1.6,1.3-2.8,2.8-2.8h28.3
		C777.7,104.9,779,106.2,779,107.7z"/>
	<path class="st0" d="M753.5,890.1v22.7c0,1.6-1.3,2.8-2.8,2.8h-2.8c-1.6,0-2.8-1.3-2.8-2.8v-22.7c0-1.6,1.3-2.8,2.8-2.8h2.8
		C752.2,887.2,753.5,888.5,753.5,890.1z"/>
	<path class="st0" d="M753.5,485.3V508c0,1.6-1.3,2.8-2.8,2.8h-2.8c-1.6,0-2.8-1.3-2.8-2.8v-22.7c0-1.6,1.3-2.8,2.8-2.8h2.8
		C752.2,482.5,753.5,483.7,753.5,485.3z"/>
</g>
</svg>
