<?xml version="1.0" encoding="utf-8"?>
<!-- Generator: Adobe Illustrator 25.2.1, SVG Export Plug-In . SVG Version: 6.00 Build 0)  -->
<svg version="1.1" id="Layer_1" xmlns="http://www.w3.org/2000/svg" xmlns:xlink="http://www.w3.org/1999/xlink" x="0px" y="0px"
	 viewBox="0 0 4280.3 1133.9" style="enable-background:new 0 0 4280.3 1133.9;" xml:space="preserve">
<style type="text/css">
	.st0{fill:none;stroke:#000000;stroke-miterlimit:10;}
</style>
<g>
	<g>
		<line class="st0" x1="56.5" y1="968.6" x2="56.5" y2="144.2"/>
		<path class="st0" d="M300.8,574.6l-0.5,504.6H65.1c-4.7,0-8.5-3.8-8.5-8.5v-76.5"/>
		<path class="st0" d="M56.5,118.7V41.6c0-4.7,3.8-8.5,8.5-8.5h235.3l-0.5,226.8"/>
		<path class="st0" d="M300.8,574.6H110.4c-4.7,0-8.5-3.8-8.5-8.5V268.4c0-4.7,3.8-8.5,9.5-8.5h188.4"/>
		<path class="st0" d="M300.8,574.6"/>
		<path class="st0" d="M267.7,1050.6v-55.3c0-1.6,1.3-2.8,2.8-2.8h17c1.6,0,2.8,1.3,2.8,2.8v55.3c0,1.6-1.3,2.8-2.8,2.8h-17
			C269,1053.4,267.7,1052.2,267.7,1050.6z"/>
		<polyline class="st0" points="56.5,118.7 73.6,118.7 73.6,144.2 56.5,144.2 		"/>
		<path class="st0" d="M56.5,118.7"/>
		<path class="st0" d="M56.5,125.3"/>
		<polyline class="st0" points="56.5,968.6 73.6,968.6 73.6,994.1 56.5,994.1 		"/>
		<path class="st0" d="M56.5,968.6"/>
		<path class="st0" d="M56.5,994.1"/>
	</g>
	<g>
		<path class="st0" d="M348.5,1076.6V36.2c0-1.6,1.3-2.8,2.8-2.8h59.5c1.6,0,2.8,1.3,2.8,2.8v1040.3c0,1.6-1.3,2.8-2.8,2.8h-59.5
			C349.8,1079.4,348.5,1078.1,348.5,1076.6z"/>
		<path class="st0" d="M374.1,117.9V58.4c0-1.6,1.3-2.8,2.8-2.8h11.3c1.6,0,2.8,1.3,2.8,2.8v59.5c0,1.6-1.3,2.8-2.8,2.8h-11.3
			C375.4,120.8,374.1,119.5,374.1,117.9z"/>
		<circle class="st0" cx="382.6" cy="856.9" r="12.8"/>
		<circle class="st0" cx="382.6" cy="1018.4" r="12.8"/>
		<circle class="st0" cx="382.6" cy="964.6" r="12.8"/>
		<circle class="st0" cx="382.6" cy="910.3" r="12.8"/>
	</g>
	<path class="st0" d="M1234.1,385.2"/>
	<path class="st0" d="M1384.4,385.2"/>
	<g>
		<path class="st0" d="M274.3,416.5V272c0-3.1,2.5-5.7,5.7-5.7h26.9v150.2H274.3z"/>
		<path class="st0" d="M306.9,416.5v150.2H280c-3.1,0-5.7-2.5-5.7-5.7V416.5"/>
		<polyline class="st0" points="306.9,266.3 333.8,266.3 333.8,416.5 306.9,416.5 		"/>
		<polyline class="st0" points="333.8,416.5 333.8,566.8 306.9,566.8 		"/>
	</g>
	<polyline class="st0" points="112.4,263.6 265.4,263.6 265.4,572.6 112.4,572.6 	"/>
	<line class="st0" x1="112.4" y1="263.6" x2="112.4" y2="572.6"/>
</g>
</svg>
