<?xml version="1.0" encoding="utf-8"?>
<!-- Generator: Adobe Illustrator 25.2.1, SVG Export Plug-In . SVG Version: 6.00 Build 0)  -->
<svg version="1.1" id="Layer_1" xmlns="http://www.w3.org/2000/svg" xmlns:xlink="http://www.w3.org/1999/xlink" x="0px" y="0px"
	 viewBox="0 0 4280.3 1133.9" style="enable-background:new 0 0 4280.3 1133.9;" xml:space="preserve">
<style type="text/css">
	.st0{fill:none;stroke:#000000;stroke-miterlimit:10;}
</style>
<g>
	<line class="st0" x1="49.4" y1="967.6" x2="49.4" y2="145.5"/>
	<path class="st0" d="M49.4,120V43.5c0-6.3,5.1-11.3,11.3-11.3h660.5V1081H60.7c-6.3,0-11.3-5.1-11.3-11.3v-76.6"/>
	<path class="st0" d="M251.8,260.3l-0.1-197c0-12.5,10.2-22.7,22.7-22.7h334.5c12.5,0,22.7,10.2,22.7,22.7v986.5
		c0,12.5-10.2,22.7-22.7,22.7H274.4c-12.5,0-22.7-10.2-22.7-22.7l0.1-476.2"/>
	<path class="st0" d="M251.8,573.6H69.2c-4.7,0-8.5-3.8-8.5-8.5V268.8c0-4.7,3.8-8.5,8.5-8.5h182.5"/>
	<path class="st0" d="M251.8,573.6"/>
	<path class="st0" d="M251.8,260.3"/>
	<path class="st0" d="M49.4,120H65c1.6,0,2.8,1.3,2.8,2.8v19.8c0,1.6-1.3,2.8-2.8,2.8H49.4"/>
	<path class="st0" d="M49.4,967.6H65c1.6,0,2.8,1.3,2.8,2.8v19.8c0,1.6-1.3,2.8-2.8,2.8H49.4"/>
	<path class="st0" d="M218,1004.8v-53.9c0-1.6,1.3-2.8,2.8-2.8h19.1c1.6,0,2.8,1.3,2.8,2.8v53.9c0,1.6-1.3,2.8-2.8,2.8h-19.1
		C219.3,1007.6,218,1006.4,218,1004.8z"/>
	<path class="st0" d="M651.7,1061.3V863.4c0-1.5,1.3-2.6,2.8-2.6h12.8c1.6,0,2.8,1.2,2.8,2.6v197.9c0,1.5-1.3,2.6-2.8,2.6h-12.8
		C653,1064,651.7,1062.8,651.7,1061.3z"/>
	<path class="st0" d="M651.7,138.3V80.2c0-1.6,1.3-2.8,2.8-2.8h12.8c1.6,0,2.8,1.3,2.8,2.8v58.1c0,1.6-1.3,2.8-2.8,2.8h-12.8
		C653,141.1,651.7,139.8,651.7,138.3z"/>
	<g>
		<path class="st0" d="M112.7,471.5"/>
		<path class="st0" d="M156.6,471.5"/>
		<g>
			<path class="st0" d="M74,368.5V275c0-3.1,2.5-5.7,5.7-5.7H118v99.2L74,368.5L74,368.5z"/>
			<path class="st0" d="M74,467.7v93.5c0,3.1,2.5,5.7,5.7,5.7H118v-99.2"/>
			<polyline class="st0" points="117.9,368.5 117.9,467.7 74,467.7 74,368.5 			"/>
		</g>
		<g>
			<polyline class="st0" points="117.9,368.5 161.9,368.5 161.9,269.2 117.9,269.2 			"/>
			<path class="st0" d="M117.9,368.5"/>
			<path class="st0" d="M117.9,269.2"/>
			<polyline class="st0" points="117.9,467.7 161.9,467.7 161.9,368.5 			"/>
			<path class="st0" d="M117.9,467.7"/>
			<path class="st0" d="M117.9,368.5"/>
			<polyline class="st0" points="117.9,566.9 161.9,566.9 161.9,467.7 			"/>
			<path class="st0" d="M117.9,566.9"/>
			<path class="st0" d="M117.9,467.7"/>
		</g>
	</g>
</g>
</svg>
