<?xml version="1.0" encoding="utf-8"?>
<!-- Generator: Adobe Illustrator 24.2.2, SVG Export Plug-In . SVG Version: 6.00 Build 0)  -->
<svg version="1.1"
	 id="svg8" xmlns:cc="http://creativecommons.org/ns#" xmlns:dc="http://purl.org/dc/elements/1.1/" xmlns:inkscape="http://www.inkscape.org/namespaces/inkscape" xmlns:rdf="http://www.w3.org/1999/02/22-rdf-syntax-ns#" xmlns:sodipodi="http://sodipodi.sourceforge.net/DTD/sodipodi-0.dtd" xmlns:svg="http://www.w3.org/2000/svg"
	 xmlns="http://www.w3.org/2000/svg" xmlns:xlink="http://www.w3.org/1999/xlink" x="0px" y="0px" viewBox="0 0 595.3 841.9"
	 style="enable-background:new 0 0 595.3 841.9;" xml:space="preserve">
<style type="text/css">
	.st0{fill:none;stroke:#000000;stroke-width:0.75;stroke-miterlimit:11.3386;}
</style>
<path class="st0" d="M620.3,588.8l4.6-1031.1c0-5,4.1-9.1,9.1-9.1l234.7,1l-4.6,1046l-238-1.1C622.9,594.6,620.3,592,620.3,588.8z"
	/>
<rect x="611.3" y="-163" transform="matrix(4.444401e-03 -1 1 4.444401e-03 830.9468 704.2917)" class="st0" width="315.7" height="195.6"/>
<rect x="815.1" y="528.6" transform="matrix(4.444401e-03 -1 1 4.444401e-03 302.6321 1380.9286)" class="st0" width="59.5" height="19.8"/>
<rect x="621.9" y="-363.6" transform="matrix(4.444401e-03 -1 1 4.444401e-03 985.224 277.2022)" class="st0" width="19.8" height="14.7"/>
<rect x="618.1" y="489.5" transform="matrix(4.444401e-03 -1 1 4.444401e-03 128.3662 1122.7108)" class="st0" width="19.8" height="14.7"/>
</svg>
