<?xml version="1.0" encoding="utf-8"?>
<!-- Generator: Adobe Illustrator 25.4.1, SVG Export Plug-In . SVG Version: 6.00 Build 0)  -->
<svg version="1.1" id="Layer_1" xmlns="http://www.w3.org/2000/svg" xmlns:xlink="http://www.w3.org/1999/xlink" x="0px" y="0px"
	 viewBox="0 0 4280.3 1133.9" style="enable-background:new 0 0 4280.3 1133.9;" xml:space="preserve">
<style type="text/css">
	.st0{fill:none;stroke:#000000;stroke-miterlimit:10;}
	.st1{fill:none;}
</style>
<g>
	<path class="st0" d="M848.8,1008.4v69.2c0,28.2-22.8,51-51,51H160c-28.2,0-51-22.8-51-51V94c0-28.2,22.8-51,51-51h637.8
		c28.2,0,51,22.8,51,51v69.7"/>
	<path class="st0" d="M381.1,300.9V99.7c0-6.3,5.1-11.3,11.3-11.3h300.5c6.3,0,11.3,5.1,11.3,11.3V1072c0,6.3-5.1,11.3-11.3,11.3
		H392.4c-6.3,0-11.3-5.1-11.3-11.3V590.1"/>
	<path class="st0" d="M149,587.2V303.8c0-0.8,0.6-1.4,1.4-1.4h155.9c0.8,0,1.4,0.6,1.4,1.4v283.5c0,0.8-0.6,1.4-1.4,1.4H150.4
		C149.6,588.7,149,588,149,587.2z"/>
	<path class="st0" d="M720,992.8V179.3c0-1.6,1.3-2.8,2.8-2.8h60.9c1.6,0,2.8,1.3,2.8,2.8v813.5c0,1.6-1.3,2.8-2.8,2.8h-60.9
		C721.3,995.7,720,994.4,720,992.8z"/>
	<polyline class="st0" points="381.1,590.1 147.2,590.1 147.2,300.9 381.1,300.9 	"/>
	<path class="st0" d="M381.1,590.1"/>
	<path class="st0" d="M381.1,300.9"/>
	<path class="st0" d="M848.8,1008.4h-45.4c-1.6,0-2.8-1.3-2.8-2.8V166.6c0-1.6,1.3-2.8,2.8-2.8h45.4"/>
	<path class="st0" d="M848.8,1008.4"/>
	<path class="st0" d="M848.8,163.7"/>
	<path class="st0" d="M742.5,160.6v-53.9c0-3.1,2.5-5.7,5.7-5.7h14.2c3.1,0,5.7,2.5,5.7,5.7v53.9c0,3.1-2.5,5.7-5.7,5.7h-14.2
		C745,166.3,742.5,163.8,742.5,160.6z"/>
	<path class="st0" d="M365.3,228.8v-36.9c0-2.3,1.9-4.3,4.3-4.3h0c2.3,0,4.3,1.9,4.3,4.3v36.9c0,2.3-1.9,4.3-4.3,4.3h0
		C367.2,233,365.3,231.1,365.3,228.8z"/>
	<path class="st0" d="M365.3,699.2v-36.9c0-2.3,1.9-4.3,4.3-4.3h0c2.3,0,4.3,1.9,4.3,4.3v36.9c0,2.3-1.9,4.3-4.3,4.3h0
		C367.2,703.5,365.3,701.6,365.3,699.2z"/>
	<path class="st0" d="M338.6,1069.1v-48.2c0-1.6,1.3-2.8,2.8-2.8h5.7c1.6,0,2.8,1.3,2.8,2.8v48.2c0,1.6-1.3,2.8-2.8,2.8h-5.7
		C339.8,1072,338.6,1070.7,338.6,1069.1z"/>
	<path class="st0" d="M742.5,1011v53.9c0,3.1,2.5,5.7,5.7,5.7h14.2c3.1,0,5.7-2.5,5.7-5.7V1011c0-3.1-2.5-5.7-5.7-5.7h-14.2
		C745,1005.4,742.5,1007.9,742.5,1011z"/>
	<path class="st0" d="M342.2,396.3v-92.1c0-0.8,0.6-1.4,1.4-1.4h26.9c0.8,0,1.4,0.6,1.4,1.4v92.1c0,0.8-0.6,1.4-1.4,1.4h-26.9
		C342.9,397.7,342.2,397.1,342.2,396.3z"/>
	<path class="st1" d="M508.1,641.3v-92.1c0-0.8,0.6-1.4,1.4-1.4h26.9c0.8,0,1.4,0.6,1.4,1.4v92.1c0,0.8-0.6,1.4-1.4,1.4h-26.9
		C508.7,642.8,508.1,642.1,508.1,641.3z"/>
	<path class="st0" d="M342.2,586.2v-92.1c0-0.8,0.6-1.4,1.4-1.4h26.9c0.8,0,1.4,0.6,1.4,1.4v92.1c0,0.8-0.6,1.4-1.4,1.4h-26.9
		C342.9,587.7,342.2,587,342.2,586.2z"/>
	<path class="st0" d="M342.2,491.3v-92.1c0-0.8,0.6-1.4,1.4-1.4h26.9c0.8,0,1.4,0.6,1.4,1.4v92.1c0,0.8-0.6,1.4-1.4,1.4h-26.9
		C342.9,492.7,342.2,492.1,342.2,491.3z"/>
	<path class="st0" d="M312.5,396.3v-92.1c0-0.8,0.6-1.4,1.4-1.4h26.9c0.8,0,1.4,0.6,1.4,1.4v92.1c0,0.8-0.6,1.4-1.4,1.4h-26.9
		C313.1,397.7,312.5,397.1,312.5,396.3z"/>
	<path class="st0" d="M312.5,586.2v-92.1c0-0.8,0.6-1.4,1.4-1.4h26.9c0.8,0,1.4,0.6,1.4,1.4v92.1c0,0.8-0.6,1.4-1.4,1.4h-26.9
		C313.1,587.7,312.5,587,312.5,586.2z"/>
	<path class="st0" d="M312.5,491.3v-92.1c0-0.8,0.6-1.4,1.4-1.4h26.9c0.8,0,1.4,0.6,1.4,1.4v92.1c0,0.8-0.6,1.4-1.4,1.4h-26.9
		C313.1,492.7,312.5,492.1,312.5,491.3z"/>
</g>
</svg>
