<?xml version="1.0" encoding="UTF-8" standalone="no"?>
<!-- Created with Inkscape (http://www.inkscape.org/) -->

<svg
   xmlns:dc="http://purl.org/dc/elements/1.1/"
   xmlns:cc="http://creativecommons.org/ns#"
   xmlns:rdf="http://www.w3.org/1999/02/22-rdf-syntax-ns#"
   xmlns:svg="http://www.w3.org/2000/svg"
   xmlns="http://www.w3.org/2000/svg"
   xmlns:sodipodi="http://sodipodi.sourceforge.net/DTD/sodipodi-0.dtd"
   xmlns:inkscape="http://www.inkscape.org/namespaces/inkscape"
   version="1.1"
   id="svg1015"
   width="4032"
   height="5376"
   viewBox="0 0 4032 5376"
   sodipodi:docname="ZBOOK_15_g2_PR_noFP.svg"
   inkscape:version="0.92.3 (2405546, 2018-03-11)">
  <metadata
     id="metadata1021">
    <rdf:RDF>
      <cc:Work
         rdf:about="">
        <dc:format>image/svg+xml</dc:format>
        <dc:type
           rdf:resource="http://purl.org/dc/dcmitype/StillImage" />
        <dc:title />
      </cc:Work>
    </rdf:RDF>
  </metadata>
  <defs
     id="defs1019" />
  <sodipodi:namedview
     pagecolor="#ffffff"
     bordercolor="#666666"
     borderopacity="1"
     objecttolerance="10"
     gridtolerance="10"
     guidetolerance="10"
     inkscape:pageopacity="0"
     inkscape:pageshadow="2"
     inkscape:window-width="1920"
     inkscape:window-height="1117"
     id="namedview1017"
     showgrid="false"
     showguides="true"
     inkscape:guide-bbox="true"
     inkscape:zoom="0.24832917"
     inkscape:cx="-9477.986"
     inkscape:cy="2583.8726"
     inkscape:window-x="0"
     inkscape:window-y="28"
     inkscape:window-maximized="1"
     inkscape:current-layer="g5357" />
  <g
     id="g5357">
    <g
       id="g5449"
       transform="matrix(0.29221602,0,0,0.29221602,-7383.6684,2266.3434)"
       style="stroke:#000000;stroke-opacity:1;stroke-width:3.42212586;stroke-miterlimit:4;stroke-dasharray:none">
      <path
         sodipodi:nodetypes="cssccssc"
         inkscape:connector-curvature="0"
         id="rect5273"
         d="m -7627.4339,853.7791 v 2913.9991 c 0,80.4163 -58.9984,145.0559 -132.2833,144.9319 l -2269.0288,-3.841 m -1382.441,-2.3401 -959.089,-1.6236 c -73.285,-0.124 -132.283,-64.9634 -132.283,-145.3797 V 859.81854"
         style="fill:none;fill-opacity:0.35159816;stroke:#000000;stroke-width:3.42212586;stroke-miterlimit:4;stroke-dasharray:none;stroke-opacity:1" />
      <path
         sodipodi:nodetypes="cc"
         inkscape:connector-curvature="0"
         id="rect5275"
         d="M -7631.0005,859.39174 H -12499.539"
         style="fill:none;fill-opacity:0.35159816;stroke:#000000;stroke-width:3.42212586;stroke-miterlimit:4;stroke-dasharray:none;stroke-opacity:1" />
      <path
         id="rect5277"
         d="m -12148.567,1006.2479 h 227.769 c 20.456,0 36.925,16.4684 36.925,36.9246 v 53.8207 c 0,20.4562 -16.469,36.9246 -36.925,36.9246 h -227.769 c -20.456,0 -36.924,-16.4684 -36.924,-36.9246 v -53.8207 c 0,-20.4562 16.468,-36.9246 36.924,-36.9246 z"
         style="fill:none;fill-opacity:0.35159816;stroke:#000000;stroke-width:3.42212586;stroke-miterlimit:4;stroke-dasharray:none;stroke-opacity:1"
         inkscape:connector-curvature="0" />
      <path
         id="rect5277-6"
         d="m -8233.53,1019.5322 h 292.9621 c 26.3113,0 47.4933,21.1821 47.4933,47.4934 v 32.4354 c 0,26.3114 -21.182,47.4934 -47.4933,47.4934 H -8233.53 c -26.3114,0 -47.4934,-21.182 -47.4934,-47.4934 v -32.4354 c 0,-26.3113 21.182,-47.4934 47.4934,-47.4934 z"
         style="fill:none;fill-opacity:0.35159816;stroke:#000000;stroke-width:3.42212586;stroke-miterlimit:4;stroke-dasharray:none;stroke-opacity:1"
         inkscape:connector-curvature="0" />
      <path
         sodipodi:nodetypes="cccc"
         inkscape:connector-curvature="0"
         id="rect5294"
         d="m -10024.964,2777.6949 v 1130.4407 m -1385.196,-2.8475 V 2774.8475"
         style="fill:none;fill-opacity:0.35159816;stroke:#000000;stroke-width:3.42212586;stroke-miterlimit:4;stroke-dasharray:none;stroke-opacity:1" />
      <path
         sodipodi:nodetypes="cssssssssccccccc"
         inkscape:connector-curvature="0"
         id="rect5296"
         d="m -11794.17,2776.7264 h -419.861 c -62.816,0 -113.386,-50.57 -113.386,-113.3858 V 1400.8988 c 0,-62.8158 50.57,-113.3859 113.386,-113.3859 h 4294.7072 c 62.8157,0 113.3858,50.5701 113.3858,113.3859 v 1262.4418 c 0,62.8158 -50.5701,113.3858 -113.3858,113.3858 h -1717.1199 m -231.5071,0 h -152.2522 m 0,0 h -8.543 m -1383.864,0 h -152.339"
         style="fill:none;fill-opacity:0.35159816;stroke:#000000;stroke-width:3.42212586;stroke-miterlimit:4;stroke-dasharray:none;stroke-opacity:1" />
      <path
         sodipodi:nodetypes="cssssc"
         inkscape:connector-curvature="0"
         id="rect5298"
         d="m -11564.324,2776.2712 v 63.5433 c 0,6.2922 -2.387,11.3578 -5.351,11.3578 h -219.249 c -2.965,0 -5.351,-5.0656 -5.351,-11.3578 v -66.3908"
         style="fill:none;fill-opacity:0.35159816;stroke:#000000;stroke-width:3.42212586;stroke-miterlimit:4;stroke-dasharray:none;stroke-opacity:1" />
      <path
         sodipodi:nodetypes="cssssc"
         inkscape:connector-curvature="0"
         id="rect5298-7"
         d="m -9638.2083,2776.6275 v 63.6311 c 0,6.2922 -2.3865,11.3578 -5.351,11.3578 h -219.2489 c -2.9644,0 -5.351,-5.0656 -5.351,-11.3578 v -59.6042"
         style="fill:none;fill-opacity:0.35159816;stroke:#000000;stroke-width:3.42212586;stroke-miterlimit:4;stroke-dasharray:none;stroke-opacity:1" />
      <path
         id="rect5323"
         d="m -11567.766,896.04871 h 3017.4236 c 6.3404,0 11.4447,5.05692 11.4447,11.3384 v 331.68529 c 0,6.2815 -5.1043,11.3384 -11.4447,11.3384 h -3017.4236 c -6.341,0 -11.445,-5.0569 -11.445,-11.3384 V 907.38711 c 0,-6.28148 5.104,-11.3384 11.445,-11.3384 z"
         style="fill:none;fill-opacity:0.35159816;stroke:#000000;stroke-width:3.42212586;stroke-miterlimit:4;stroke-dasharray:none;stroke-opacity:1"
         inkscape:connector-curvature="0" />
    </g>
  </g>
</svg>
