<?xml version="1.0" encoding="UTF-8" standalone="no"?>
<!-- exported from Silhouette Studio® Business Edition V4.3.370ssbe -->

<svg
   xmlns:dc="http://purl.org/dc/elements/1.1/"
   xmlns:cc="http://creativecommons.org/ns#"
   xmlns:rdf="http://www.w3.org/1999/02/22-rdf-syntax-ns#"
   xmlns:svg="http://www.w3.org/2000/svg"
   xmlns="http://www.w3.org/2000/svg"
   xmlns:sodipodi="http://sodipodi.sourceforge.net/DTD/sodipodi-0.dtd"
   xmlns:inkscape="http://www.inkscape.org/namespaces/inkscape"
   version="1.1"
   width="594mm"
   height="841mm"
   viewBox="0 0 594.00002 841"
   id="svg6"
   sodipodi:docname="450G1_LID.svg"
   inkscape:version="0.92.3 (2405546, 2018-03-11)">
  <metadata
     id="metadata10">
    <rdf:RDF>
      <cc:Work
         rdf:about="">
        <dc:format>image/svg+xml</dc:format>
        <dc:type
           rdf:resource="http://purl.org/dc/dcmitype/StillImage" />
        <dc:title></dc:title>
      </cc:Work>
    </rdf:RDF>
  </metadata>
  <sodipodi:namedview
     pagecolor="#ffffff"
     bordercolor="#666666"
     borderopacity="1"
     objecttolerance="10"
     gridtolerance="10"
     guidetolerance="10"
     inkscape:pageopacity="0"
     inkscape:pageshadow="2"
     inkscape:window-width="1920"
     inkscape:window-height="1017"
     id="namedview8"
     showgrid="false"
     showguides="true"
     inkscape:guide-bbox="true"
     inkscape:zoom="0.58870568"
     inkscape:cx="816.90919"
     inkscape:cy="1782.4636"
     inkscape:window-x="-8"
     inkscape:window-y="-8"
     inkscape:window-maximized="1"
     inkscape:current-layer="svg6" />
  <defs
     id="defs2" />
  <g
     id="g898"
     transform="rotate(-180,242.98497,373.86862)">
    <path
       id="path863"
       d="m 69.218527,497.9735 c -2.662121,-0.5028 -4.679711,-1.13077 -6.018793,-1.87328 -2.387257,-1.32375 -5.0336,-4.27451 -5.463541,-6.0922 -0.106117,-0.4488 -0.373756,-1.33578 -0.594755,-1.97137 l -0.401804,-1.15555 -0.03915,-112.67605 -0.03913,-112.67605 0.628965,-1.89134 c 0.975967,-2.93501 2.120414,-4.68082 4.413843,-6.73309 0.349533,-0.31284 0.900695,-0.71437 1.224819,-0.89212 0.324124,-0.17793 0.821173,-0.49147 1.104571,-0.69684 0.539794,-0.39126 3.381391,-1.35402 4.752912,-1.61037 0.514543,-0.0961 62.804376,-0.15279 174.396406,-0.15881 152.05077,-0.009 173.72468,0.0188 174.63286,0.21688 0.57034,0.12428 1.26356,0.32806 1.54068,0.45252 0.27693,0.12463 1.04116,0.34133 1.69791,0.48155 0.81859,0.17474 1.44842,0.42614 2.00282,0.79952 0.44462,0.29956 1.05126,0.66993 1.34785,0.82307 0.60097,0.31018 1.97697,1.60241 2.718,2.55242 0.26631,0.34134 0.80867,1.32853 1.20513,2.19338 0.61797,1.34817 0.74174,1.78653 0.86781,3.07274 0.0921,0.94098 0.13103,43.73173 0.10447,114.81472 l -0.0427,113.31446 -0.32687,0.84751 c -1.28676,3.3337 -1.24054,3.25315 -2.88533,5.02676 -1.5003,1.61781 -2.90464,2.50691 -5.03282,3.18676 -0.97282,0.3107 -2.14218,0.63505 -2.59866,0.72056 -0.556,0.10428 -58.13234,0.15101 -174.47351,0.14181 -143.27149,-0.0124 -173.832188,-0.0496 -174.722011,-0.21759 z"
       style="fill:none;fill-opacity:1;stroke:#000000;stroke-width:0.35277784;stroke-linecap:round;stroke-linejoin:round;stroke-opacity:1"
       inkscape:connector-curvature="0" />
    <ellipse
       ry="20.323612"
       rx="20.32361"
       cy="370.57291"
       cx="242.91972"
       id="path865"
       style="opacity:1;fill:none;fill-opacity:0.12093021;stroke:#000000;stroke-width:0.35277781;stroke-miterlimit:4;stroke-dasharray:none;stroke-opacity:1" />
    <path
       inkscape:connector-curvature="0"
       id="path873"
       d="m 241.79457,371.64527 0.22472,-16.40427 v 0 l -5.16848,4.71903"
       style="fill:none;stroke:#000000;stroke-width:0.26458335px;stroke-linecap:butt;stroke-linejoin:miter;stroke-opacity:1" />
    <path
       inkscape:connector-curvature="0"
       id="path875"
       d="m 242.01929,355.241 5.39318,4.49432"
       style="fill:none;stroke:#000000;stroke-width:0.26458335px;stroke-linecap:butt;stroke-linejoin:miter;stroke-opacity:1" />
    <path
       inkscape:connector-curvature="0"
       id="path877"
       d="M 233.03064,384.60154 Z"
       style="fill:none;stroke:#000000;stroke-width:0.26458335px;stroke-linecap:butt;stroke-linejoin:miter;stroke-opacity:1" />
    <path
       inkscape:connector-curvature="0"
       id="path879"
       d="m 246.73882,384.69422 -0.44943,-5.16846"
       style="fill:none;stroke:#000000;stroke-width:0.26458335px;stroke-linecap:butt;stroke-linejoin:miter;stroke-opacity:1" />
    <path
       inkscape:connector-curvature="0"
       id="path881"
       d="m 246.73882,384.69422 -4.04489,0.22473"
       style="fill:none;stroke:#000000;stroke-width:0.26458335px;stroke-linecap:butt;stroke-linejoin:miter;stroke-opacity:1" />
    <path
       inkscape:connector-curvature="0"
       id="path883"
       d="m 246.06467,382.22235 -3.37074,-0.22472"
       style="fill:none;stroke:#000000;stroke-width:0.26458335px;stroke-linecap:butt;stroke-linejoin:miter;stroke-opacity:1" />
    <path
       inkscape:connector-curvature="0"
       id="path885"
       d="m 234.60415,376.82916 v 6.96621 l -4.49432,0.44943 v -3.14603 l 4.2696,-0.44943 -4.2696,-2.92131"
       style="fill:none;stroke:#000000;stroke-width:0.26458335px;stroke-linecap:butt;stroke-linejoin:miter;stroke-opacity:1" />
  </g>
</svg>
