<?xml version="1.0" encoding="utf-8"?>
<!-- Generator: Adobe Illustrator 25.2.1, SVG Export Plug-In . SVG Version: 6.00 Build 0)  -->
<svg version="1.1" id="Layer_1" xmlns="http://www.w3.org/2000/svg" xmlns:xlink="http://www.w3.org/1999/xlink" x="0px" y="0px"
	 viewBox="0 0 864 1700.8" style="enable-background:new 0 0 864 1700.8;" xml:space="preserve">
<style type="text/css">
	.st0{fill:none;stroke:#000000;stroke-linecap:round;stroke-linejoin:round;stroke-miterlimit:11.3386;}
</style>
<g>
	<line class="st0" x1="800.9" y1="633.9" x2="697.9" y2="633.9"/>
	<line class="st0" x1="800.9" y1="418.5" x2="800.9" y2="633.9"/>
	<path class="st0" d="M645.6,436.9"/>
	<polyline class="st0" points="607.2,633.9 440.9,633.9 440.9,436.9 626.4,436.9 	"/>
	<path class="st0" d="M787.9,418.5"/>
	<path class="st0" d="M787.9,633.9"/>
	<path class="st0" d="M787.9,633.9"/>
	<path class="st0" d="M800.9,633.9"/>
	<path class="st0" d="M800.9,633.9"/>
	<path class="st0" d="M800.9,418.5"/>
	<line class="st0" x1="787.9" y1="418.5" x2="800.9" y2="418.5"/>
	<path class="st0" d="M787.9,469.5c0,1.6-1.3,2.8-2.8,2.8"/>
	<path class="st0" d="M787.9,418.5v51"/>
	<path class="st0" d="M626.4,436.9"/>
	<path class="st0" d="M626.4,469.5v-32.6"/>
	<path class="st0" d="M629.2,472.3c-1.6,0-2.8-1.3-2.8-2.8"/>
	<path class="st0" d="M785.1,472.3H629.2"/>
	<g id="layer1">
		<path id="path1024" class="st0" d="M735.1,534.9c0.2-0.1,0-0.7,0-0.8c0-0.6,0.3-1,0.3-1.1c0.2-0.4,0-0.4,0.8-1.2
			c0.9-0.9,1.2-0.7,1.2-0.9c0-0.1-0.2-0.4-0.4-0.6c-0.1-0.1-1.2-1.5-1.3-1.6c-1.1-1.4-0.9-1.1-0.9-1.4l3.3-2.5c0.9-0.7,1-0.7,1-0.7
			c0.1,0,0.3,0.3,2,2.5c0,0,1.7,2.2,2.4,3.1c0.1,0.1,1.1,1.4,1.6,1.9c0.4,0.4,0.5,0.6,1.7,2.1c0.6,0.8,0.8,1,0.8,1.1
			c0,0,0.4,0.5,2.2,2.8l0.3,0.3l2.5,3.1c0.3,0.4,0.7,0.8,1,1.3c1.2,1.5,1.4,1.8,1.5,1.9c0.3,0.4,0.2,0.3,0.2,0.5
			c-6.9,5.3-4.8,3.6-9.8,7.5c-1.1,0.8-0.8,0.6-1,0.8l-3.8,2.9c-3.1,2.4-3.1,2.4-3.1,2.4l-3.7,2.9l-4.1,3.1l-3.9,3l-3,2.3
			c-0.5,0.4-6.2,4.8-6.4,4.9c-0.4,0.3-1.2,0.9-2.9,2.3c-1.8,1.3-1.6,1.2-1.8,1.3l-4.3,3.3l-2.5,1.9c-0.7,0.6,0.1-0.1-1.6,1.2
			c-0.4,0.3-1.1,0.9-2.5,1.9c-2.1,1.6-2,1.5-2,1.5c-0.9,0.7-0.8,0.5-0.9,0.6c-0.3-0.2-0.5-0.6-2.2-2.9c-0.1-0.1-1.3-1.8-1.4-1.9
			c-0.4-0.6,0.1,0.1-1.5-2c0,0-1.4-2-1.6-2.1l-2.2-2.9c-0.1-0.2-1-1.4-1.1-1.4c0,0-1.2-1.6-1.4-1.9c-1.3-1.8-1.1-1.5-1.3-1.7
			c-1.4,0.9-2.2,1.8-2.6,1.7c-0.2,0-0.2-0.1-1-1.2c-0.1-0.2-1.8-2.5-1.9-2.6c-0.3-0.4-0.4-0.5-0.4-0.6c0-0.2,0.2-0.2,1.7-1.4l2.7-2
			c0.4-0.3,2.6-2,4.8-3.6l3.4-2.5c1-0.8,1-0.7,1-0.7c0.5,0.5,2.4,3.2,2.8,3.6c0.7-0.5-0.2-0.3,1.6-1.2c1.4-0.8,0.9-0.2,1.7-0.4
			c0-0.1-0.3-0.5-0.3-0.5c0,0-0.7-0.4-1-0.7c-0.6-0.6-0.8-1.3-0.8-1.3c0,0-0.6-1.3,0.3-2.9c0.9-1.5,2.8-1.7,3.6-1.5
			c1.4,0.4,2.4,1.5,2.5,2.8c0.2-0.1,0.2-0.1,3-2.2c1.8-1.3,1.1-1.2,1.9-1.7c1.7-0.9,1.2-0.7,2.2-0.7c-0.1-0.1,0,0-0.3-0.4l-1.7-2.3
			c-1.1-1.4-1.1-1.3-1-1.5c0-0.2,0.5-0.4,1.5-1.2l2.7-2c0.1-0.1,0.2-0.2,0.3-0.2c0.2,0,1.4,1.9,2.9,3.6c0.5-0.3,2.6-1.9,2.9-2.2
			c-2.9-3.9-2.7-3.3-2.7-3.8c2.2-1.6,4.8-3.8,6.5-4.4c0.5-0.2,2.1-0.8,3.9,0c1.5,0.7,2.3,1.9,2.7,2.3c0.1-1.2-0.2-0.3,0.7-2.2
			c0.5-1.1-0.1,0.1,1-1.1c0,0,0.3-0.4,0.9-0.8c2-1.2,1.5-0.8,2.6-1C734.5,534.6,735,534.9,735.1,534.9L735.1,534.9z"/>
	</g>
	<polyline class="st0" points="607.2,633.9 613.2,626.8 691.9,626.8 697.9,633.9 	"/>
	<path class="st0" d="M607.2,633.9"/>
	<path class="st0" d="M697.9,633.9"/>
	<path class="st0" d="M172.6,439H432v195.6H155.4c-2.6,0-4.1-2.7-4.1-4.7V417.7"/>
	<path class="st0" d="M164.1,634.6"/>
	<path class="st0" d="M164.1,463"/>
	<line class="st0" x1="164.1" y1="417.7" x2="164.1" y2="475.9"/>
	<line class="st0" x1="151.4" y1="417.7" x2="164.1" y2="417.7"/>
	<path class="st0" d="M151.4,417.7"/>
	<line class="st0" x1="172.6" y1="439" x2="164.1" y2="475.9"/>
	<path class="st0" d="M164.1,475.9"/>
	<path class="st0" d="M164.1,475.9"/>
</g>
</svg>
