<?xml version="1.0" encoding="utf-8"?>
<!-- Generator: Adobe Illustrator 25.2.0, SVG Export Plug-In . SVG Version: 6.00 Build 0)  -->
<svg version="1.1" id="Layer_1" xmlns="http://www.w3.org/2000/svg" xmlns:xlink="http://www.w3.org/1999/xlink" x="0px" y="0px"
	 viewBox="0 0 4280.31 1133.86" style="enable-background:new 0 0 4280.31 1133.86;" xml:space="preserve">
<style type="text/css">
	.st0{fill:#FFFFFF;stroke:#000000;stroke-miterlimit:10;}
	.st1{fill:none;stroke:#010101;stroke-linecap:round;stroke-linejoin:round;stroke-miterlimit:11.3386;}
	.st2{fill:none;stroke:#000000;stroke-miterlimit:10;}
</style>
<g>
	<path class="st0" d="M280.84,1085.51"/>
	<path class="st0" d="M259.84,912.97"/>
	<path class="st0" d="M88.15,1085.8l143.81-0.28"/>
	<path class="st0" d="M72.75,1082.99"/>
	<path class="st0" d="M72.7,748.19l0.35,322.52"/>
	<path class="st0" d="M72.75,727.97"/>
	<path class="st0" d="M75.28,725.51"/>
	<path class="st0" d="M220.15,1085.51l60.69,0.28v-11.62h-58.3c-2.06,0.19-2.39-1.98-2.39-1.98v-159.9
		c-0.07-2.32,3.39-2.02,3.39-2.02h33.55c2.75-0.1,2.75-1.21,2.75-3.76V733.35v-7.84h-6.98H82.62"/>
	<polyline class="st0" points="82.62,725.51 82.62,748.19 72.7,748.19 	"/>
	<path class="st0" d="M72.75,1071.62c0-7.83,6.35-14.17,14.17-14.17s14.17,6.35,14.17,14.17s-6.35,14.17-14.17,14.17"/>
	<path class="st0" d="M72.75,1071.62"/>
	<path class="st0" d="M86.93,1085.8"/>
	<g id="layer1">
		<path id="path1024" class="st1" d="M163.11,1025.69c0.13,0.26,0.73,0.05,0.86,0.05c0.66-0.01,1.08,0.29,1.16,0.33
			c0.4,0.19,0.39,0,1.27,0.88c0.93,0.93,0.76,1.27,0.93,1.32c0.1,0.04,0.39-0.21,0.7-0.45c0.08-0.06,1.65-1.3,1.79-1.41
			c1.47-1.15,1.2-0.94,1.47-0.95l2.71,3.6c0.76,1.01,0.78,1.04,0.77,1.12c-0.01,0.12-0.33,0.33-2.69,2.22
			c-0.03,0.02-2.34,1.86-3.31,2.63c-0.08,0.06-1.52,1.22-2.1,1.69c-0.48,0.38-0.69,0.55-2.24,1.79c-0.86,0.69-1.12,0.9-1.14,0.92
			c-0.05,0.04-0.55,0.44-3.01,2.4l-0.37,0.29l-3.39,2.71c-0.45,0.36-0.92,0.73-1.4,1.12c-1.68,1.34-1.96,1.57-2.05,1.64
			c-0.4,0.31-0.32,0.21-0.53,0.23c-5.76-7.51-3.95-5.15-8.16-10.63c-0.89-1.15-0.69-0.9-0.84-1.1l-3.19-4.16
			c-2.57-3.34-2.56-3.34-2.59-3.37l-3.1-4.03l-3.41-4.43l-3.22-4.2l-2.48-3.21c-0.4-0.52-5.19-6.75-5.33-6.94
			c-0.32-0.41-0.96-1.25-2.46-3.19c-1.46-1.91-1.3-1.69-1.46-1.91l-3.61-4.69l-2.07-2.69c-0.6-0.78,0.08,0.12-1.34-1.74
			c-0.31-0.41-0.93-1.22-2.06-2.69c-1.72-2.25-1.64-2.15-1.65-2.17c-0.72-0.96-0.59-0.83-0.64-0.93c0.21-0.29,0.62-0.56,3.15-2.41
			c0.15-0.11,1.97-1.44,2.03-1.48c0.61-0.45-0.15,0.1,2.2-1.63c0.02-0.01,2.11-1.57,2.29-1.69l3.2-2.36
			c0.19-0.14,1.51-1.11,1.55-1.14c0.02-0.01,1.69-1.25,2.11-1.56c1.92-1.42,1.66-1.2,1.89-1.46c-0.94-1.55-1.94-2.4-1.89-2.76
			c0.03-0.19,0.14-0.21,1.35-1.09c0.21-0.16,2.69-1.99,2.81-2.08c0.48-0.35,0.59-0.43,0.69-0.42c0.17,0.01,0.26,0.18,1.51,1.84
			l2.18,2.91c0.29,0.39,2.12,2.82,3.88,5.17l2.73,3.64c0.83,1.11,0.73,1.05,0.74,1.06c-0.56,0.59-3.48,2.55-3.91,3.05
			c0.49,0.76,0.29-0.18,1.35,1.78c0.83,1.53,0.24,0.92,0.45,1.9c0.06-0.03,0.55-0.35,0.56-0.35c0.02-0.02,0.43-0.76,0.74-1.1
			c0.64-0.68,1.36-0.89,1.43-0.92c0.05-0.02,1.45-0.67,3.11,0.36c1.66,1.03,1.88,3.02,1.64,3.89c-0.43,1.56-1.68,2.65-3.09,2.75
			c0.12,0.22,0.1,0.26,2.36,3.23c1.45,1.9,1.34,1.15,1.82,2.04c1,1.84,0.77,1.34,0.78,2.43c0.1-0.07,0.05-0.02,0.4-0.28l2.49-1.88
			c1.51-1.14,1.42-1.16,1.65-1.12c0.23,0.05,0.46,0.5,1.27,1.58l2.21,2.93c0.12,0.16,0.2,0.27,0.18,0.33
			c-0.03,0.22-2.06,1.55-3.9,3.12c0.33,0.5,2.05,2.79,2.37,3.16c4.26-3.16,3.57-2.95,4.13-2.92c1.73,2.42,4.07,5.25,4.73,7.01
			c0.18,0.49,0.89,2.25,0,4.21c-0.77,1.67-2.11,2.54-2.49,2.91c1.28,0.16,0.36-0.24,2.35,0.75c1.19,0.59-0.06-0.1,1.24,1.09
			c0.01,0.01,0.47,0.32,0.86,0.97c1.26,2.12,0.83,1.64,1.11,2.8C163.43,1024.98,163.07,1025.61,163.11,1025.69L163.11,1025.69z"/>
	</g>
	<g>
		<path class="st0" d="M72.28,458.89c0,7.83,6.35,14.17,14.17,14.17s14.17-6.35,14.17-14.17c0-7.83-6.35-14.17-14.17-14.17"/>
		<path class="st2" d="M72.99,699.84l-0.71-240.94"/>
		<path class="st2" d="M72.28,716.85"/>
		<path class="st2" d="M77.95,722.51"/>
		<path class="st2" d="M258.6,464.89l0.85,257.64l-5.5-0.02H82.91"/>
		<path class="st2" d="M259.36,450.39"/>
		<path class="st2" d="M253.69,444.72"/>
		<path class="st2" d="M86.45,444.72h167.24"/>
		<path class="st0" d="M77.95,444.72"/>
		<path class="st0" d="M72.28,450.39"/>
		<polyline class="st0" points="82.91,722.51 82.91,699.84 72.99,699.84 		"/>
		<path class="st2" d="M218.91,456.06"/>
		<path class="st2" d="M251.5,456.06"/>
		<polyline class="st2" points="218.91,444.72 281.27,444.72 281.27,456.06 219.68,456.06 		"/>
		<line class="st2" x1="258.6" y1="464.89" x2="218.91" y2="456.39"/>
	</g>
</g>
</svg>
