<?xml version="1.0" encoding="UTF-8" standalone="no"?>
<!-- exported from Silhouette Studio Business Edition V4.1.479ssbe -->

<svg
   xmlns:dc="http://purl.org/dc/elements/1.1/"
   xmlns:cc="http://creativecommons.org/ns#"
   xmlns:rdf="http://www.w3.org/1999/02/22-rdf-syntax-ns#"
   xmlns:svg="http://www.w3.org/2000/svg"
   xmlns="http://www.w3.org/2000/svg"
   xmlns:sodipodi="http://sodipodi.sourceforge.net/DTD/sodipodi-0.dtd"
   xmlns:inkscape="http://www.inkscape.org/namespaces/inkscape"
   version="1.1"
   width="431.35mm"
   height="279.08mm"
   viewBox="0 0 431.35 279.08"
   id="svg18"
   sodipodi:docname="yoga12_PR.svg"
   inkscape:version="0.92.3 (2405546, 2018-03-11)">
  <metadata
     id="metadata22">
    <rdf:RDF>
      <cc:Work
         rdf:about="">
        <dc:format>image/svg+xml</dc:format>
        <dc:type
           rdf:resource="http://purl.org/dc/dcmitype/StillImage" />
      </cc:Work>
    </rdf:RDF>
  </metadata>
  <sodipodi:namedview
     pagecolor="#ffffff"
     bordercolor="#666666"
     borderopacity="1"
     objecttolerance="10"
     gridtolerance="10"
     guidetolerance="10"
     inkscape:pageopacity="0"
     inkscape:pageshadow="2"
     inkscape:window-width="1680"
     inkscape:window-height="903"
     id="namedview20"
     showgrid="false"
     showguides="true"
     inkscape:guide-bbox="true"
     inkscape:zoom="0.5933402"
     inkscape:cx="1150.8073"
     inkscape:cy="823.25795"
     inkscape:window-x="0"
     inkscape:window-y="28"
     inkscape:window-maximized="1"
     inkscape:current-layer="g907" />
  <defs
     id="defs2" />
  <g
     id="g836"
     transform="translate(-48.558408,103.4231)">
    <g
       id="g907">
      <path
         sodipodi:nodetypes="ccccscccccccccccccccccscccccccsccc"
         d="m 128.99317,122.63995 c -0.27755,-0.0724 -0.68974,-0.24803 -0.91629,-0.39008 -0.22624,-0.14205 -0.63935,-0.32736 -0.91781,-0.41202 -0.27846,-0.0844 -0.65798,-0.28723 -0.84361,-0.45092 -0.18533,-0.16399 -0.40364,-0.29788 -0.48456,-0.29788 -0.36792,0 -2.43924,-1.89112 -2.74488,-2.50603 -0.12091,-0.24333 -0.33342,-0.54781 -0.47233,-0.67699 -0.13923,-0.12888 -0.31786,-0.43962 -0.39724,-0.68985 -0.0793,-0.25054 -0.27052,-0.61084 -0.4247,-0.80085 -0.15816,-0.19504 -0.31571,-0.60551 -0.36151,-0.94102 -0.0445,-0.32736 -0.22656,-0.90589 -0.40426,-1.28531 l -0.32334,-0.69016 -0.17823,-195.406953 h 18.34247 l 0.2986,111.302654 220.744,0.285963 0.0214,10.236026 c 0.14258,0.146749 55.42216,0.206547 55.56475,0.06014 l -0.14782,-122.124491 19.55682,0.04392 c 0.0299,65.864281 0.0598,129.111062 0.0898,194.975341 l -0.2748,0.49701 c -0.15113,0.27342 -0.27479,0.70395 -0.27479,0.95669 0,0.70615 -0.12671,1.20128 -0.3783,1.47847 -0.12579,0.13891 -0.3044,0.47788 -0.39693,0.75382 -0.20456,0.60926 -1.01459,1.88798 -1.25702,1.98331 -0.0965,0.0382 -0.26411,0.24583 -0.3725,0.46188 -0.16702,0.3327 -0.75598,0.97457 -1.50404,1.63933 -0.10076,0.0894 -0.43051,0.27374 -0.73278,0.40984 -0.30257,0.13577 -0.62256,0.33771 -0.71202,0.44871 -0.0892,0.111 -0.44242,0.29757 -0.7853,0.41453 -0.34288,0.11697 -0.79201,0.31358 -0.99841,0.43712 -0.22564,0.13515 -0.86133,0.27907 -1.59625,0.36185 z"
         id="path4"
         inkscape:connector-curvature="0"
         style="fill:none;fill-opacity:1;stroke:#000000;stroke-width:0.5457812;stroke-linecap:round;stroke-linejoin:round;stroke-opacity:1" />
      <path
         sodipodi:nodetypes="cccccccccccc"
         d="m 311.45633,109.76111 c 0.4757,-0.22294 1.19168,-0.91624 1.32878,-1.28688 0.14289,-0.38569 0.16609,-74.056086 0.0244,-74.28637 -0.0507,-0.08212 -0.31082,-0.307922 -0.57829,-0.501833 l -0.48577,-0.352512 -85.93219,-0.08438 c -0.16793,0.02257 -0.54073,0.248502 -0.82805,0.501833 l -0.52302,0.460599 0.11026,74.462023 c 0.14412,0.38128 0.70989,0.94226 1.11872,1.1094 0.48028,0.19597 85.34718,0.17433 85.76609,-0.022 z"
         id="path10"
         inkscape:connector-curvature="0"
         style="fill:none;fill-opacity:1;stroke:#000000;stroke-width:0.5457812;stroke-linecap:round;stroke-linejoin:round;stroke-opacity:1" />
      <path
         sodipodi:nodetypes="ccscccccscccccccscccccccscsccsscccscccccccscscccccccccccccccccccscccccccccccccccccccccscsscccccc"
         d="m 393.80002,105.75216 c 0.15021,-0.0862 0.47661,-0.32611 0.72484,-0.53306 0.81706,-0.68076 1.17337,-0.94102 1.2894,-0.94102 0.0629,0 0.21922,-0.12104 0.34715,-0.26936 0.12793,-0.148 0.50745,-0.46063 0.84331,-0.69454 0.89125,-0.62087 1.43351,-1.02945 1.71014,-1.28814 0.13434,-0.12574 0.46409,-0.34336 0.73308,-0.48321 0.26868,-0.14017 0.55752,-0.37252 0.6421,-0.51613 0.0846,-0.14362 0.23632,-0.2612 0.33708,-0.2612 0.10106,0 0.27907,-0.11759 0.39601,-0.2612 0.11694,-0.14362 0.40517,-0.37001 0.64027,-0.50328 0.2351,-0.133576 0.7572,-0.523346 1.16023,-0.866386 0.40303,-0.343356 0.934,-0.736255 1.17979,-0.873285 0.24578,-0.137029 0.46562,-0.29538 0.48852,-0.351822 0.0245,-0.05645 0.28914,-0.274058 0.59141,-0.483835 1.3013,-0.902132 1.51656,-1.069577 1.67686,-1.304752 0.0931,-0.136716 0.25128,-0.248346 0.35142,-0.248346 0.10012,0 0.31082,-0.14236 0.46777,-0.316389 0.15693,-0.17403 0.45463,-0.44213 0.66133,-0.595779 0.2064,-0.15396 0.70378,-0.544352 1.10467,-0.86764 0.40089,-0.323602 0.90071,-0.6795 1.11047,-0.790816 0.20976,-0.111317 0.47479,-0.288169 0.58898,-0.392587 0.36914,-0.338339 1.21,-0.949168 2.72533,-1.980177 0.29464,-0.200369 0.72668,-0.524912 0.96026,-0.721205 0.23388,-0.196606 0.47081,-0.357153 0.52729,-0.357153 0.0562,0 0.24091,-0.169326 0.41036,-0.37628 0.16977,-0.207269 0.38777,-0.376595 0.48456,-0.376595 0.0971,0 0.20884,-0.08717 0.24883,-0.193785 0.0397,-0.106926 0.34045,-0.333635 0.66776,-0.503903 0.54103,-0.281583 0.59569,-0.350254 0.59569,-0.746917 0,-0.240506 -0.0504,-0.437112 -0.11176,-0.437112 -0.0617,0 -0.36547,-0.352764 -0.67537,-0.783918 -0.31021,-0.431469 -0.67477,-0.925338 -0.81065,-1.0978 -0.87903,-1.117867 -1.09306,-1.434884 -1.22954,-1.823079 -0.0846,-0.239252 -0.22076,-0.435232 -0.30319,-0.435232 -0.0825,0 -0.26472,-0.155216 -0.40486,-0.344924 -0.14046,-0.189708 -0.3667,-0.486029 -0.50257,-0.658805 -0.56882,-0.720577 -0.82285,-1.096545 -1.10223,-1.630863 -0.16273,-0.310432 -0.41585,-0.664763 -0.56333,-0.787367 -0.14716,-0.122291 -0.30227,-0.335203 -0.34471,-0.472547 -0.0424,-0.137342 -0.28669,-0.359661 -0.54317,-0.493868 -0.46257,-0.242388 -0.4699,-0.242388 -0.96819,0.0063 -0.27632,0.137029 -0.50227,0.294127 -0.50227,0.348687 0,0.05456 -0.21983,0.226396 -0.48882,0.381611 -0.26868,0.154903 -0.48853,0.312627 -0.48853,0.349941 0,0.03762 0.0883,0.443384 0.19602,0.902134 0.24457,1.040729 0.0986,1.784197 -0.41462,2.110621 -0.18198,0.11602 -0.46838,0.334576 -0.63631,0.486342 -0.16793,0.151453 -0.50286,0.34022 -0.74407,0.41924 -0.24151,0.07933 -0.55723,0.283464 -0.70164,0.454359 -0.38074,0.449969 -1.31505,0.44213 -1.84418,-0.01568 l -0.37707,-0.325796 -0.94559,0.465961 c -0.51998,0.256498 -0.97278,0.50986 -1.00636,0.562854 -0.0336,0.0533 -0.33434,0.261201 -0.66806,0.462197 -0.47111,0.283465 -0.625,0.455927 -0.68759,0.768868 -0.0699,0.351822 -0.0357,0.4299 0.26747,0.613964 0.19113,0.11602 0.37676,0.288796 0.4125,0.384434 0.10472,0.280328 -0.0669,0.777019 -0.31602,0.914048 -0.37067,0.203819 -1.15016,-0.07526 -1.46037,-0.522717 -0.21892,-0.315761 -0.32181,-0.368442 -0.58623,-0.301024 -0.17648,0.04484 -0.43081,0.18375 -0.56516,0.30855 -0.13434,0.1248 -0.41646,0.316389 -0.62683,0.425198 -0.56303,0.292244 -0.63202,0.903073 -0.15389,1.360881 0.19419,0.185945 0.35327,0.44558 0.35327,0.577278 0,0.390077 -0.51051,1.051077 -1.09949,1.423909 -0.30227,0.191589 -0.63996,0.405756 -0.75018,0.475994 -0.14961,0.09501 -0.27755,0.06553 -0.50043,-0.114765 -0.39814,-0.321406 -1.2729,-0.626194 -1.80295,-0.628388 -0.95231,-0.0031 -1.67563,0.807435 -1.45305,1.628982 0.15847,0.584488 0.11542,1.290329 -0.0928,1.526758 -0.29158,0.331128 -0.4763,0.286288 -0.86132,-0.209463 -0.48119,-0.619608 -0.94193,-0.602362 -1.60601,0.05958 -0.2751,0.274058 -0.64058,0.534633 -0.81187,0.578845 -0.17159,0.04422 -0.367,0.186259 -0.43417,0.315449 -0.0675,0.129504 -0.29952,0.328619 -0.51601,0.442757 -0.21647,0.114139 -0.51294,0.326423 -0.65888,0.471918 -0.46441,0.462512 -1.0372,0.883946 -1.55381,1.143267 -0.4357,0.21887 -0.50653,0.312313 -0.53891,0.713679 -0.0305,0.374085 0.0184,0.499826 0.25739,0.660686 0.16214,0.109122 0.39205,0.41924 0.51051,0.689221 0.33525,0.764158 1.14558,1.043557 1.46862,0.506722 0.12275,-0.20413 0.39662,-0.143295 0.71202,0.15741 0.16274,0.155216 0.4296,0.375345 0.59264,0.489485 0.16335,0.11383 0.36945,0.43272 0.45798,0.70867 0.0916,0.28502 0.28641,0.57006 0.45097,0.66068 0.15969,0.0878 0.29007,0.19378 0.29007,0.2358 0,0.042 0.16487,0.26183 0.36638,0.48823 0.20152,0.2267 0.3664,0.48915 0.3664,0.58354 0,0.0941 0.15847,0.30229 0.35235,0.46252 0.19388,0.16023 0.4415,0.47254 0.55019,0.69423 0.10901,0.22138 0.33281,0.54091 0.49768,0.71055 0.16518,0.16932 0.33556,0.45373 0.37921,0.63214 0.0547,0.22327 0.19877,0.35998 0.46318,0.43869 0.52762,0.1571 0.53524,0.15678 0.84332,-0.0189 z"
         id="path12"
         inkscape:connector-curvature="0"
         style="fill:none;fill-opacity:1;stroke:#000000;stroke-width:0.5457812;stroke-linecap:round;stroke-linejoin:round;stroke-opacity:1" />
      <path
         sodipodi:nodetypes="sssssss"
         style="opacity:1;vector-effect:none;fill:none;fill-opacity:1;fill-rule:evenodd;stroke:#000000;stroke-width:0.47358546;stroke-linecap:butt;stroke-linejoin:miter;stroke-miterlimit:4;stroke-dasharray:none;stroke-dashoffset:0;stroke-opacity:1"
         d="m 144.76037,116.15861 h 11.52084 c 2.06998,0 3.73643,1.13937 3.73643,2.55466 0,1.41528 -1.66645,2.55466 -3.73643,2.55466 h -11.52084 c -2.07,0 -3.73645,-1.13938 -3.73645,-2.55466 0,-1.41529 1.66645,-2.55466 3.73645,-2.55466 z"
         id="rect838"
         inkscape:connector-curvature="0" />
      <path
         sodipodi:nodetypes="sssssss"
         style="opacity:1;vector-effect:none;fill:none;fill-opacity:1;fill-rule:evenodd;stroke:#000000;stroke-width:0.47358546;stroke-linecap:butt;stroke-linejoin:miter;stroke-miterlimit:4;stroke-dasharray:none;stroke-dashoffset:0;stroke-opacity:1"
         d="m 399.38065,116.06892 h 11.52084 c 2.07,0 3.73645,1.13937 3.73645,2.55466 0,1.41528 -1.66645,2.55466 -3.73645,2.55466 h -11.52084 c -2.06998,0 -3.73643,-1.13938 -3.73643,-2.55466 0,-1.41529 1.66645,-2.55466 3.73643,-2.55466 z"
         id="rect838-3"
         inkscape:connector-curvature="0" />
      <path
         sodipodi:nodetypes="sssssss"
         style="opacity:1;vector-effect:none;fill:none;fill-opacity:1;fill-rule:evenodd;stroke:#000000;stroke-width:0.78245646;stroke-linecap:butt;stroke-linejoin:miter;stroke-miterlimit:4;stroke-dasharray:none;stroke-dashoffset:0;stroke-opacity:1"
         d="m 126.46642,-85.048561 h 6.97708 c 1.43894,0 2.59737,1.923508 2.59737,4.312791 0,2.389297 -1.15843,4.31281 -2.59737,4.31281 h -6.97708 c -1.43894,0 -2.59736,-1.923513 -2.59736,-4.31281 0,-2.389283 1.15842,-4.312791 2.59736,-4.312791 z"
         id="rect855"
         inkscape:connector-curvature="0" />
      <path
         sodipodi:nodetypes="sssssss"
         style="opacity:1;vector-effect:none;fill:none;fill-opacity:1;fill-rule:evenodd;stroke:#000000;stroke-width:0.88733822;stroke-linecap:butt;stroke-linejoin:miter;stroke-miterlimit:4;stroke-dasharray:none;stroke-dashoffset:0;stroke-opacity:1"
         d="m 421.60944,-86.783603 h 7.67943 c 1.58377,0 2.85881,2.247493 2.85881,5.039223 0,2.791728 -1.27504,5.039221 -2.85881,5.039221 h -7.67943 c -1.58379,0 -2.85881,-2.247493 -2.85881,-5.039221 0,-2.79173 1.27502,-5.039223 2.85881,-5.039223 z"
         id="rect855-6"
         inkscape:connector-curvature="0" />
    </g>
  </g>
</svg>
