<?xml version="1.0" encoding="UTF-8" standalone="no"?>
<!-- exported from Silhouette Studio® Business Edition V4.3.370ssbe -->

<svg
   xmlns:dc="http://purl.org/dc/elements/1.1/"
   xmlns:cc="http://creativecommons.org/ns#"
   xmlns:rdf="http://www.w3.org/1999/02/22-rdf-syntax-ns#"
   xmlns:svg="http://www.w3.org/2000/svg"
   xmlns="http://www.w3.org/2000/svg"
   xmlns:sodipodi="http://sodipodi.sourceforge.net/DTD/sodipodi-0.dtd"
   xmlns:inkscape="http://www.inkscape.org/namespaces/inkscape"
   version="1.1"
   width="594mm"
   height="841mm"
   viewBox="0 0 594.00002 841"
   id="svg6"
   sodipodi:docname="YOGA_260_PR_FP.svg"
   inkscape:version="0.92.3 (2405546, 2018-03-11)">
  <metadata
     id="metadata10">
    <rdf:RDF>
      <cc:Work
         rdf:about="">
        <dc:format>image/svg+xml</dc:format>
        <dc:type
           rdf:resource="http://purl.org/dc/dcmitype/StillImage" />
        <dc:title></dc:title>
      </cc:Work>
    </rdf:RDF>
  </metadata>
  <sodipodi:namedview
     pagecolor="#ffffff"
     bordercolor="#666666"
     borderopacity="1"
     objecttolerance="10"
     gridtolerance="10"
     guidetolerance="10"
     inkscape:pageopacity="0"
     inkscape:pageshadow="2"
     inkscape:window-width="1920"
     inkscape:window-height="1017"
     id="namedview8"
     showgrid="false"
     showguides="true"
     inkscape:guide-bbox="true"
     inkscape:zoom="0.58870568"
     inkscape:cx="1010.9476"
     inkscape:cy="2280.6549"
     inkscape:window-x="-8"
     inkscape:window-y="-8"
     inkscape:window-maximized="1"
     inkscape:current-layer="layer2" />
  <defs
     id="defs2" />
  <g
     inkscape:groupmode="layer"
     id="layer1"
     inkscape:label="Layer 1"
     style="display:none">
    <path
       d="m 99.221758,322.66723 c -0.975168,-0.0691 -1.105299,-0.11653 -1.810676,-0.65949 -0.788234,-0.60678 -0.87339,-0.72842 -1.07143,-1.53042 -0.158018,-0.63997 -0.154789,-199.59233 0.0033,-200.27219 0.157774,-0.67865 0.620736,-1.34192 1.224922,-1.75506 l 0.483719,-0.33078 h 38.522547 38.52253 l 0.4814,0.28149 c 0.62283,0.36409 0.8556,0.86594 0.84417,1.82021 -0.011,0.89046 -0.27116,1.33923 -0.99148,1.70808 -0.44612,0.22841 -2.12536,0.2411 -31.03789,0.23426 l -30.56627,-0.007 -0.53523,0.30736 c -0.29439,0.16899 -0.71354,0.58847 -0.93143,0.93219 l -0.39617,0.62483 0.001,54.41493 c 0.001,38.34931 0.0459,54.83075 0.15168,55.82297 0.10849,1.01808 0.22002,1.48491 0.40267,1.68635 0.35743,0.39399 0.45312,0.16021 0.61095,-1.4926 0.0717,-0.75038 0.22966,-1.63389 0.35111,-1.96333 0.34354,-0.93194 0.46076,-1.37217 0.54442,-2.04447 0.0426,-0.34212 0.1948,-0.81456 0.33826,-1.05005 0.25421,-0.41705 0.29351,-0.43022 1.54343,-0.51698 0.70542,-0.049 18.77065,-0.0705 40.14494,-0.0479 36.8572,0.0391 38.88151,0.0537 39.23268,0.2832 0.89094,0.58249 0.84862,0.16557 0.92421,9.11348 0.0616,7.28535 0.0922,8.15617 0.29356,8.357 0.2812,0.28039 0.66955,0.28076 1.63217,10e-4 0.68704,-0.19925 4.6542,-0.21609 43.2805,-0.18351 l 42.52423,0.036 0.41856,0.30869 c 0.2302,0.16985 0.48584,0.30882 0.56816,0.30882 0.0824,0 0.29245,0.15374 0.46699,0.34152 l 0.31717,0.34152 0.0889,-1.04835 c 0.0488,-0.57664 0.0888,-4.50001 0.0888,-8.71865 0,-7.36929 0.011,-7.69092 0.27191,-8.20179 0.19668,-0.38484 0.41538,-0.5825 0.79088,-0.71513 0.42444,-0.14983 4.50119,-0.18314 22.39855,-0.18314 h 21.87968 l 0.5706,0.37678 c 1.0316,0.68108 1.04433,0.74221 1.12542,5.4073 0.0805,4.62654 0.0663,4.56346 1.09154,4.85946 0.33539,0.0969 8.81548,0.12934 26.48924,0.10176 24.52829,-0.0384 26.01601,-0.0543 26.35139,-0.28173 0.79517,-0.5393 0.73903,3.62443 0.77964,-57.98262 l 0.0373,-56.71392 -0.47372,-0.93865 c -0.26053,-0.51625 -0.64815,-1.05652 -0.86134,-1.20062 -0.37783,-0.2555 -1.1686,-0.2638 -31.58696,-0.33066 l -31.19959,-0.0686 -0.40131,-0.44828 c -0.34481,-0.38508 -0.4012,-0.55895 -0.40059,-1.23503 10e-4,-1.26444 0.20831,-1.79971 0.7997,-2.06741 0.46895,-0.21243 3.31755,-0.22927 38.7436,-0.22927 21.03058,0 38.46766,0.0488 38.74911,0.10847 0.60166,0.12739 1.25984,0.6429 1.5907,1.24601 0.22213,0.40473 0.23583,6.27007 0.23583,100.8195 -1.3e-4,97.41981 -0.007,100.40501 -0.25466,100.90088 -0.28512,0.57212 -1.27612,1.29652 -1.93148,1.41195 -0.5569,0.098 -300.08444,0.15886 -301.462389,0.0611 z m 21.906252,-5.26528 c 0.8786,-0.36641 1.22031,-0.73514 1.22031,-1.3169 0,-0.42473 -0.075,-0.57994 -0.37826,-0.7837 -1.03974,-0.69829 -1.21977,-0.7255 -4.74994,-0.72086 l -3.33079,0.005 -0.7565,0.373 c -0.75626,0.37287 -0.7565,0.37324 -0.79731,1.07141 -0.045,0.77088 0.0492,0.90571 0.91653,1.31055 0.42642,0.19901 1.0068,0.23488 3.95594,0.24439 2.68214,0.009 3.56008,-0.0322 3.92002,-0.18228 z m 264.59739,-0.005 c 1.01852,-0.27039 1.2585,-0.52039 1.2585,-1.31092 0,-0.82567 -0.20365,-1.00064 -1.49554,-1.28579 -1.19979,-0.26477 -5.53194,-0.31248 -6.83508,-0.0752 -1.00702,0.18326 -1.42264,0.60141 -1.43011,1.43818 -0.004,0.43413 0.0789,0.63679 0.37331,0.91474 0.20806,0.19644 0.53293,0.38483 0.72215,0.41875 0.1891,0.0338 1.76745,0.0692 3.50725,0.0786 2.34698,0.0127 3.35351,-0.0333 3.89952,-0.17838 z M 199.3732,309.3606 c 1.92217,-0.20108 83.42485,-0.10225 85.06864,0.10323 0.67946,0.0849 1.26743,0.12225 1.30669,0.0831 0.0963,-0.096 0.0917,-56.40998 -0.005,-56.50613 -0.0418,-0.0416 -0.71016,0.16972 -1.48527,0.46963 l -1.40931,0.54541 -42.28621,0.011 -42.28633,0.011 -0.3645,-0.286 c -0.45379,-0.35616 -1.49187,-0.40033 -1.61932,-0.0689 -0.12305,0.31992 -0.0976,55.26707 0.0257,55.46059 0.17613,0.27636 0.75872,0.45182 1.2662,0.38129 0.26482,-0.0368 1.06953,-0.1286 1.78813,-0.20376 z m 165.49079,-3.60174 c 0.30603,-0.24524 0.78159,-0.63471 1.0568,-0.86532 0.27509,-0.23049 0.93339,-0.72232 1.46301,-1.09276 0.5295,-0.37043 1.3961,-1.0215 1.9256,-1.44684 0.52963,-0.42547 1.21043,-0.93512 1.51304,-1.13266 0.3026,-0.19754 0.77621,-0.53125 1.05252,-0.74136 0.27643,-0.21023 1.01912,-0.76979 1.65064,-1.24369 0.63139,-0.47391 1.30277,-0.9943 1.49187,-1.15657 0.18922,-0.16228 0.56607,-0.42303 0.83761,-0.57945 0.60522,-0.34872 1.52894,-1.02297 2.64861,-1.93356 1.20113,-0.97685 2.83061,-2.21017 4.04679,-3.0628 0.57427,-0.40265 1.70727,-1.25284 2.5176,-1.88939 1.20884,-0.94952 1.48858,-1.2382 1.55805,-1.60754 0.10678,-0.56773 -0.25711,-1.35167 -1.05435,-2.27129 -0.32022,-0.36946 -0.79896,-0.98978 -1.06378,-1.37828 -0.26469,-0.38849 -0.6671,-0.94475 -0.894,-1.23612 -0.22701,-0.29137 -0.78929,-1.04615 -1.24956,-1.67733 -0.4604,-0.6313 -1.00861,-1.23893 -1.21826,-1.35033 -0.36205,-0.19242 -0.39777,-0.18339 -0.71041,0.17911 -0.20414,0.23683 -0.32914,0.5548 -0.32914,0.83714 0,0.62118 -0.45428,1.5968 -0.99589,2.13843 -0.24659,0.24671 -1.00531,0.81468 -1.68623,1.26211 -1.35574,0.89095 -1.29984,0.88143 -3.40953,0.57823 -1.32602,-0.19047 -2.16094,0.55614 -2.16094,1.93234 0,0.5554 -0.0676,0.71231 -0.48693,1.1307 -0.48633,0.48537 -0.48792,0.48574 -1.42876,0.3985 l -0.94195,-0.0874 -0.22176,0.46634 c -0.12195,0.25647 -0.22175,0.67644 -0.22175,0.93328 0,0.27832 -0.15926,0.71757 -0.3941,1.08703 -0.66246,1.04236 -1.90212,1.4361 -3.18386,1.01137 -0.58552,-0.194 -0.81511,-0.21011 -1.23036,-0.0859 -0.59225,0.17705 -0.81352,0.557 -0.92593,1.58973 -0.12549,1.15328 -0.29637,1.31019 -1.42802,1.31019 -0.61378,0 -1.12053,0.0794 -1.38864,0.21779 -0.39667,0.20474 -1.7518,1.12449 -1.90249,1.2914 -0.0378,0.0419 -0.31961,0.27087 -0.62637,0.50892 -0.30665,0.23793 -0.67604,0.65192 -0.82062,0.91987 l -0.26297,0.48732 0.43605,0.44877 c 0.23986,0.24696 0.74111,0.557 1.11392,0.68901 0.52363,0.18547 0.84581,0.43804 1.41616,1.11021 0.76851,0.90584 1.91472,2.41527 2.38881,3.14589 0.15131,0.23317 0.52999,0.69097 0.84153,1.01748 0.49244,0.51576 0.64203,0.59348 1.14401,0.59348 0.44572,0 0.70453,-0.10176 1.13398,-0.44609 z m 30.93967,-31.6201 c 0.38003,-0.16082 0.57598,-0.37617 0.82526,-0.90718 0.32413,-0.69023 0.32695,-0.73587 0.32695,-5.3735 0,-5.41512 -0.0336,-5.63901 -0.93437,-6.22334 l -0.57867,-0.37544 h -5.15789 -5.1579 l -0.78257,0.36604 c -1.13961,0.53296 -1.14316,0.55236 -1.14316,6.29008 0,4.25232 0.0257,4.80077 0.25075,5.3829 0.20806,0.53809 0.33649,0.67645 0.75652,0.81481 0.32291,0.1064 1.9974,0.19828 4.63206,0.25416 4.86911,0.10335 6.28906,0.0567 6.96302,-0.22853 z m -3.0772,-16.56148 c 0.13748,-0.0866 0.13687,-0.17521 -0.002,-0.4412 -0.16806,-0.32005 -0.24182,-0.3353 -1.89136,-0.39179 -2.20362,-0.0755 -4.26108,0.28209 -4.26108,0.7405 0,0.21389 5.82353,0.30138 6.15525,0.0925 z M 107.76585,124.38424 c 0.42856,-0.20267 1.3782,-1.25016 1.3782,-1.5203 0,-0.0582 -0.18403,-0.35933 -0.40894,-0.66913 -0.29511,-0.40655 -0.56272,-0.60458 -0.96143,-0.71171 -0.31914,-0.0858 -2.00132,-0.1541 -3.98285,-0.16179 -3.878654,-0.0151 -4.109327,0.0361 -4.595309,1.02114 -0.462179,0.9367 0.106108,1.80447 1.467499,2.24091 0.85596,0.27441 6.43217,0.11799 7.10283,-0.19912 z m 290.88053,0.0506 c 0.87394,-0.26709 1.5134,-0.81139 1.62238,-1.38083 0.0678,-0.35372 -0.002,-0.5027 -0.46014,-0.97294 -0.7394,-0.76015 -1.40455,-0.86508 -5.12231,-0.80786 -2.62561,0.0405 -3.02729,0.0771 -3.58211,0.32675 -0.82012,0.36897 -1.14976,0.99039 -0.92054,1.73578 0.17784,0.57822 0.50577,0.83226 1.52184,1.17927 0.6106,0.20852 1.10083,0.23585 3.46224,0.19253 2.02603,-0.0371 2.94266,-0.10883 3.47864,-0.2727 z M 198.64567,243.67278 c -0.40132,-0.20364 -0.72032,-0.47964 -0.81597,-0.70622 -0.11057,-0.2616 -0.15167,-2.08095 -0.13858,-6.12914 0.0207,-6.35462 -0.0235,-6.02787 0.90978,-6.7231 0.37832,-0.28186 0.44779,-0.28308 17.18463,-0.31029 9.2426,-0.0151 18.30552,-0.0423 20.13975,-0.0604 3.27266,-0.0325 3.34299,-0.0272 3.75556,0.27709 0.36804,0.27161 0.41526,0.38069 0.37856,0.87704 -0.0352,0.47793 -0.114,0.60885 -0.5021,0.83421 -0.41661,0.24196 -0.77621,0.27063 -3.78247,0.30174 -4.09816,0.0422 -4.45556,0.0901 -5.10383,0.68255 -0.42419,0.38764 -0.48437,0.51356 -0.40351,0.84397 0.17258,0.70488 1.5074,4.60518 2.36813,6.91931 0.15693,0.42192 0.3475,1.15266 0.42358,1.62376 0.22604,1.4006 -0.0739,1.64219 -2.24913,1.81142 -0.83651,0.0652 -8.2675,0.11262 -16.51324,0.10543 l -14.99238,-0.0131 z m 51.49382,0.23049 c -0.7164,-0.11555 -1.03967,-0.45512 -1.16236,-1.22051 -0.0927,-0.57798 -0.0309,-0.8042 1.01485,-3.72497 1.07808,-3.01083 1.65798,-4.91547 1.65027,-5.42097 -0.004,-0.26185 -0.17564,-0.61166 -0.47164,-0.96074 l -0.46541,-0.54895 -4.00398,-0.011 -4.00385,-0.011 -0.34921,-0.32724 c -0.47055,-0.44108 -0.4308,-1.28518 0.0782,-1.66281 0.33379,-0.24757 1.02744,-0.25611 20.271,-0.25269 l 19.92546,0.004 0.51054,0.28637 c 1.03955,0.58298 1.02194,0.46792 1.0294,6.71371 0.006,5.15546 -0.0122,5.60423 -0.2516,6.13463 -0.51886,1.14974 0.82452,1.06518 -17.20995,1.08446 -8.77536,0.01 -16.228,-0.027 -16.56168,-0.0808 z M 188.1634,121.97409 c -0.22701,-0.10066 -0.56137,-0.34371 -0.74312,-0.54028 -0.29297,-0.31687 -0.32711,-0.47024 -0.30125,-1.35387 0.0316,-1.07787 0.16154,-1.32666 0.9064,-1.73443 0.3815,-0.20889 5.04794,-0.22927 61.13885,-0.26685 33.39929,-0.0223 60.97848,-0.005 61.28721,0.0393 0.31851,0.0453 0.75187,0.24098 1.00188,0.45231 0.39153,0.33102 0.44987,0.475 0.524,1.29262 0.0974,1.07372 -0.0801,1.6306 -0.64791,2.0341 -0.37832,0.26879 -0.8655,0.27087 -61.56743,0.2655 -50.68215,-0.005 -61.25688,-0.0367 -61.59863,-0.18839 z m 50.8781,186.57329 c -35.91838,-0.0692 -40.7563,-0.10274 -40.97989,-0.2843 -0.13931,-0.11323 -0.51959,-0.46219 -0.84495,-0.77552 l -0.59151,-0.56968 -0.002,-25.02524 c -0.001,-13.76394 -0.0122,-25.11797 -0.023,-25.2312 -0.049,-0.49977 0.0683,-0.68975 0.79541,-1.28701 l 0.7723,-0.63435 42.58857,7.3e-4 c 27.62615,4.9e-4 42.76042,0.0486 43.07782,0.13654 0.2691,0.0745 0.66625,0.31992 0.88275,0.54528 0.37049,0.38581 0.40034,0.50672 0.51274,2.06924 0.0656,0.91266 0.10165,12.40433 0.0801,25.53709 l -0.0393,23.87745 -0.2872,0.23231 c -0.15803,0.12775 -0.42382,0.43083 -0.59053,0.67352 -0.40266,0.58603 -0.96287,0.73233 -2.97348,0.77699 -0.90782,0.02 -19.97744,0.001 -42.37696,-0.0419 z"
       id="path4"
       inkscape:connector-curvature="0"
       style="fill:#ff0000;fill-opacity:0.12093021;stroke:#000000;stroke-width:0.35277781;stroke-linecap:round;stroke-linejoin:round;stroke-opacity:1" />
  </g>
  <g
     inkscape:groupmode="layer"
     id="layer2"
     inkscape:label="Layer 2">
    <g
       id="g920"
       style="fill:none;stroke:#000000;stroke-opacity:1;stroke-width:0.35277778;stroke-miterlimit:4;stroke-dasharray:none">
      <g
         id="g952">
        <path
           id="rect820"
           d="M 96.728671,118.11929 H 401.78839 c 0.43974,0 0.79375,0.35402 0.79375,0.79375 v 203.05974 c 0,0.43973 -0.35401,0.79375 -0.79375,0.79375 H 96.728671 c -0.439737,0 -0.79375,-0.35402 -0.79375,-0.79375 V 118.91304 c 0,-0.43973 0.354013,-0.79375 0.79375,-0.79375 z"
           style="opacity:1;fill:none;fill-opacity:0.12093021;stroke:#000000;stroke-width:0.35277778;stroke-miterlimit:4;stroke-dasharray:none;stroke-opacity:1" />
        <path
           sodipodi:nodetypes="cccssssssc"
           inkscape:connector-curvature="0"
           id="rect823"
           d="m 330.82915,229.60547 -46.59977,0.0412 m -90.64723,0 -81.88297,-0.0412 c -0.43973,-2.2e-4 -0.79375,-0.32392 -0.79375,-0.72628 V 122.68453 c 0,-0.40236 0.35402,-0.72628 0.79375,-0.72628 H 386.7589 c 0.43974,0 0.79377,0.32392 0.79375,0.72628 l -0.007,116.92634"
           style="opacity:1;fill:none;fill-opacity:0.12093021;stroke:#000000;stroke-width:0.35277778;stroke-miterlimit:4;stroke-dasharray:none;stroke-opacity:1" />
        <path
           sodipodi:nodetypes="csssc"
           inkscape:connector-curvature="0"
           id="rect827"
           d="m 387.54591,239.61087 c 0,0.43973 -0.35402,0.79375 -0.79375,0.79375 h -55.05973 c -0.43974,0 -0.79069,-0.35403 -0.79375,-0.79375 l -0.0695,-10.0054"
           style="opacity:1;fill:none;fill-opacity:0.12093021;stroke:#000000;stroke-width:0.35277778;stroke-miterlimit:4;stroke-dasharray:none;stroke-opacity:1" />
        <path
           sodipodi:nodetypes="cssssc"
           inkscape:connector-curvature="0"
           id="rect829"
           d="m 284.22938,229.64665 v 84.67889 c 0,0.43973 -0.35401,0.79375 -0.79375,0.79375 H 194.3759 c -0.43973,0 -0.79375,-0.35402 -0.79375,-0.79375 v -84.67889"
           style="opacity:1;fill:none;fill-opacity:0.12093021;stroke:#000000;stroke-width:0.35277778;stroke-miterlimit:4;stroke-dasharray:none;stroke-opacity:1" />
        <g
           style="fill:none;stroke:#000000;stroke-opacity:1;stroke-width:0.35277778;stroke-miterlimit:4;stroke-dasharray:none"
           id="layer1-1"
           inkscape:label="Layer 1"
           transform="translate(391.12068,202.87704)">
          <path
             style="fill:none;fill-opacity:1;stroke:#000000;stroke-width:0.35277778;stroke-linecap:round;stroke-linejoin:round;stroke-opacity:1;stroke-miterlimit:4;stroke-dasharray:none"
             inkscape:connector-curvature="0"
             d="m -11.218154,83.475673 c 0.107181,-0.0517 0.0208,-0.29473 0.0197,-0.34728 -0.005,-0.26778 0.117461,-0.43797 0.133241,-0.47142 0.0774,-0.16388 3.43e-4,-0.15867 0.357499,-0.51536 0.378511,-0.37841 0.512551,-0.30623 0.536391,-0.375 0.0143,-0.0411 -0.086,-0.1598 -0.182871,-0.28424 -0.0252,-0.0324 -0.527541,-0.66923 -0.57043,-0.72405 -0.465911,-0.59642 -0.381631,-0.48512 -0.386111,-0.59532 l 1.4579701,-1.09671 c 0.407201,-0.30661 0.41935,-0.31721 0.4536,-0.31352 0.05,0.005 0.1343,0.13326 0.896782,1.08934 0.01,0.0118 0.753837,0.94811 1.066487,1.34184 0.0241,0.0304 0.495282,0.616091 0.683361,0.85067 0.154839,0.19327 0.221559,0.27846 0.72549,0.9058 0.280429,0.35015 0.36498,0.45492 0.371592,0.4632 0.01741,0.0216 0.176958,0.22206 0.970147,1.21975 l 0.118833,0.1497 1.097859,1.37396 c 0.14478,0.181831 0.295471,0.37137 0.452729,0.567961 0.543091,0.680109 0.635751,0.7938 0.664651,0.831239 0.124169,0.1606 0.0869,0.130251 0.0922,0.213971 -3.041859,2.333819 -2.085311,1.599989 -4.304991,3.301999 -0.46754,0.35854 -0.362651,0.27793 -0.445799,0.34171 l -1.682861,1.29312 c -1.3515901,1.03868 -1.3522101,1.03788 -1.3643401,1.0472 l -1.6335,1.25559 -1.79394,1.381121 -1.70093,1.30209 -1.30121,1.002479 c -0.21189,0.16346 -2.73312,2.100607 -2.80812,2.158107 -0.16679,0.12793 -0.50527,0.38956 -1.29311,0.99449 -0.77149,0.59225 -0.68585,0.52643 -0.7715,0.59238 l -1.89932,1.46211 -1.08983,0.83626 c -0.31709,0.24267 0.0489,-0.0338 -0.7059,0.54121 -0.1649,0.12546 -0.49332,0.37835 -1.08922,0.83328 -0.91178,0.69688 -0.86896,0.66398 -0.87681,0.67001 -0.38991,0.29333 -0.33499,0.23827 -0.37694,0.25902 -0.11543,-0.084 -0.22497,-0.25074 -0.97743,-1.27519 -0.0452,-0.0621 -0.58328,-0.79855 -0.59947,-0.82029 -0.18219,-0.24528 0.0418,0.0609 -0.6597,-0.89093 -0.006,-0.008 -0.63438,-0.85602 -0.68602,-0.92618 l -0.95514,-1.29458 c -0.0555,-0.0754 -0.45003,-0.61204 -0.46239,-0.62877 -0.006,-0.008 -0.50656,-0.6846 -0.63336,-0.85567 -0.57565,-0.776167 -0.4849,-0.670857 -0.59197,-0.763747 -0.62797,0.38118 -0.97054,0.786317 -1.11936,0.763347 -0.0773,-0.0116 -0.0832,-0.0581 -0.44289,-0.546767 -0.0636,-0.0861 -0.80557,-1.08831 -0.84255,-1.139209 -0.14051,-0.194341 -0.17488,-0.239051 -0.17181,-0.27823 0.005,-0.0684 0.0737,-0.107151 0.74582,-0.609721 l 1.179031,-0.881849 c 0.1585,-0.11802 1.14319,-0.85823 2.09188,-1.569121 l 1.47507,-1.1053 c 0.44741,-0.33501 0.42635,-0.29662 0.43042,-0.29886 0.23909,0.22841 1.03333,1.41043 1.2366,1.58503 0.30737,-0.19824 -0.0745,-0.11574 0.72061,-0.546209 0.62035,-0.335981 0.37391,-0.0965 0.768,-0.183721 -0.0135,-0.0225 -0.14164,-0.22436 -0.14333,-0.22608 -0.007,-0.007 -0.30683,-0.17245 -0.44404,-0.30159 -0.27357,-0.25753 -0.3606,-0.54983 -0.37118,-0.57852 -0.007,-0.0213 -0.27027,-0.5885 0.14425,-1.25993 0.41501,-0.67242 1.22417,-0.7609 1.57553,-0.66341 0.63046,0.1751 1.07242,0.67882 1.11189,1.24993 0.0891,-0.047 0.10529,-0.0394 1.30635,-0.9566 0.76976,-0.58776 0.4661,-0.54258 0.82493,-0.73687 0.74658,-0.40409 0.54276,-0.31253 0.98334,-0.31477 -0.0278,-0.0412 -0.008,-0.0217 -0.11456,-0.16382 l -0.7629,-1.00949 c -0.46273,-0.61198 -0.47159,-0.57363 -0.4517,-0.66837 0.0195,-0.0929 0.20362,-0.18436 0.64139,-0.51421 l 1.18763,-0.894769 c 0.0656,-0.0495 0.10768,-0.079 0.13478,-0.0746 0.0888,0.014 0.62582,0.83421 1.26203,1.578229 0.20145,-0.13337 1.1289,-0.828569 1.2785,-0.959669 -1.27915,-1.72588 -1.19271,-1.4465 -1.18043,-1.67374 0.97796,-0.69971 2.1265,-1.6483 2.83932,-1.914981 0.19857,-0.0743 0.91202,-0.36098 1.70377,0.002 0.67693,0.309911 1.03006,0.854771 1.17763,1.009371 0.0647,-0.51939 -0.0972,-0.14438 0.30318,-0.95086 0.23857,-0.48058 -0.0393,0.0251 0.44271,-0.50378 0.003,-0.004 0.12872,-0.190611 0.39379,-0.348531 0.857,-0.510659 0.66494,-0.33733 1.13456,-0.44851 0.41056,-0.0971 0.66367,0.0505 0.69717,0.0343 z"
             id="path1024" />
        </g>
        <path
           id="rect841"
           d="m 384.5523,264.47211 h 12.11806 c 0.14658,0 0.26458,0.118 0.26458,0.26458 v 12.11806 c 0,0.14658 -0.118,0.26458 -0.26458,0.26458 H 384.5523 c -0.14658,0 -0.26458,-0.118 -0.26458,-0.26458 v -12.11806 c 0,-0.14658 0.118,-0.26458 0.26458,-0.26458 z"
           style="opacity:1;fill:none;fill-opacity:0.12093021;stroke:#000000;stroke-width:0.35277778;stroke-miterlimit:4;stroke-dasharray:none;stroke-opacity:1" />
        <g
           style="fill:none;stroke:#000000;stroke-opacity:1;stroke-width:0.35277778;stroke-miterlimit:4;stroke-dasharray:none"
           id="g864"
           transform="translate(-20.731831,-60.332416)">
          <path
             id="rect843"
             d="m 400.02954,376.55362 h 7.64722 c 0.554,0 1,0.446 1,1 v 0.64722 c 0,0.554 -0.446,1 -1,1 h -7.64722 c -0.554,0 -1,-0.446 -1,-1 v -0.64722 c 0,-0.554 0.446,-1 1,-1 z"
             style="opacity:1;fill:none;fill-opacity:0.12093021;stroke:#000000;stroke-width:0.35277778;stroke-miterlimit:4;stroke-dasharray:none;stroke-opacity:1" />
          <path
             id="rect843-6"
             d="m 132.39793,376.53662 h 7.64723 c 0.554,0 1,0.446 1,1 v 0.64722 c 0,0.554 -0.446,1 -1,1 h -7.64723 c -0.554,0 -1,-0.446 -1,-1 v -0.64722 c 0,-0.554 0.446,-1 1,-1 z"
             style="opacity:1;fill:none;fill-opacity:0.12093021;stroke:#000000;stroke-width:0.35277778;stroke-miterlimit:4;stroke-dasharray:none;stroke-opacity:1" />
        </g>
        <path
           id="rect843-7"
           d="m 391.48813,120.70075 h 7.64722 c 0.554,0 1,0.446 1,1 v 0.64722 c 0,0.554 -0.446,1 -1,1 h -7.64722 c -0.554,0 -1,-0.446 -1,-1 v -0.64722 c 0,-0.554 0.446,-1 1,-1 z"
           style="opacity:1;fill:none;fill-opacity:0.12093021;stroke:#000000;stroke-width:0.35277778;stroke-miterlimit:4;stroke-dasharray:none;stroke-opacity:1" />
        <path
           id="rect843-3"
           d="m 99.806694,120.3354 h 7.647226 c 0.554,0 1,0.446 1,1 v 0.64723 c 0,0.554 -0.446,1 -1,1 h -7.647226 c -0.554,0 -1,-0.446 -1,-1 v -0.64723 c 0,-0.554 0.446,-1 1,-1 z"
           style="opacity:1;fill:none;fill-opacity:0.12093021;stroke:#000000;stroke-width:0.35277778;stroke-miterlimit:4;stroke-dasharray:none;stroke-opacity:1" />
        <g
           style="fill:none;stroke:#000000;stroke-opacity:1;stroke-width:0.35277778;stroke-miterlimit:4;stroke-dasharray:none"
           id="g894"
           transform="translate(-62.021654,-223.76663)">
          <path
             id="rect843-8"
             d="m 376.15424,342.48972 h 7.64722 c 0.554,0 1,0.446 1,1 v 0.64722 c 0,0.554 -0.446,1 -1,1 h -7.64722 c -0.554,0 -1,-0.446 -1,-1 v -0.64722 c 0,-0.554 0.446,-1 1,-1 z"
             style="opacity:1;fill:none;fill-opacity:0.12093021;stroke:#000000;stroke-width:0.35277778;stroke-miterlimit:4;stroke-dasharray:none;stroke-opacity:1" />
          <path
             id="rect843-5"
             d="m 238.58682,342.48981 h 7.64723 c 0.554,0 1,0.446 1,1 v 0.64722 c 0,0.554 -0.446,1 -1,1 h -7.64723 c -0.554,0 -1,-0.446 -1,-1 v -0.64722 c 0,-0.554 0.446,-1 1,-1 z"
             style="opacity:1;fill:none;fill-opacity:0.12093021;stroke:#000000;stroke-width:0.35277778;stroke-miterlimit:4;stroke-dasharray:none;stroke-opacity:1" />
        </g>
        <path
           id="rect843-2"
           d="m 386.81848,258.73578 h 7.64722 c 0.554,0 1,0.446 1,1 v 0.64722 c 0,0.554 -0.446,1 -1,1 h -7.64722 c -0.554,0 -1,-0.446 -1,-1 v -0.64722 c 0,-0.554 0.446,-1 1,-1 z"
           style="opacity:1;fill:none;fill-opacity:0.12093021;stroke:#000000;stroke-width:0.35277778;stroke-miterlimit:4;stroke-dasharray:none;stroke-opacity:1" />
      </g>
      <rect
         style="opacity:1;fill:none;fill-opacity:0.12093021;stroke:#000000;stroke-width:0.35277781;stroke-miterlimit:4;stroke-dasharray:none;stroke-opacity:1"
         id="rect954"
         width="87.647224"
         height="52.647224"
         x="195.242"
         y="257.02228"
         rx="2"
         ry="2" />
      <rect
         style="opacity:1;fill:none;fill-opacity:0.12093021;stroke:#000000;stroke-width:0.35277781;stroke-miterlimit:4;stroke-dasharray:none;stroke-opacity:1"
         id="rect956"
         width="87.647224"
         height="5.6472225"
         x="195.50304"
         y="249.09009" />
    </g>
  </g>
</svg>
