<?xml version="1.0" encoding="utf-8"?>
<!-- Generator: Adobe Illustrator 25.2.1, SVG Export Plug-In . SVG Version: 6.00 Build 0)  -->
<svg version="1.1" id="Layer_1" xmlns="http://www.w3.org/2000/svg" xmlns:xlink="http://www.w3.org/1999/xlink" x="0px" y="0px"
	 viewBox="0 0 4280.3 1133.9" style="enable-background:new 0 0 4280.3 1133.9;" xml:space="preserve">
<style type="text/css">
	.st0{fill:none;stroke:#000000;stroke-miterlimit:10;}
</style>
<rect x="514.4" y="33.3" class="st0" width="19.1" height="19.1"/>
<rect x="533.6" y="33.3" class="st0" width="19.1" height="19.1"/>
<rect x="476.2" y="33.3" class="st0" width="19.1" height="19.1"/>
<rect x="495.3" y="33.3" class="st0" width="19.1" height="19.1"/>
<rect x="591" y="33.3" class="st0" width="19.1" height="19.1"/>
<rect x="610.1" y="33.3" class="st0" width="19.1" height="19.1"/>
<rect x="552.7" y="33.3" class="st0" width="19.1" height="19.1"/>
<rect x="571.8" y="33.3" class="st0" width="19.1" height="19.1"/>
<rect x="514.4" y="52.5" class="st0" width="19.1" height="19.1"/>
<rect x="533.6" y="52.5" class="st0" width="19.1" height="19.1"/>
<rect x="476.2" y="52.5" class="st0" width="19.1" height="19.1"/>
<rect x="495.3" y="52.5" class="st0" width="19.1" height="19.1"/>
<rect x="591" y="52.5" class="st0" width="19.1" height="19.1"/>
<rect x="610.1" y="52.5" class="st0" width="19.1" height="19.1"/>
<rect x="552.7" y="52.5" class="st0" width="19.1" height="19.1"/>
<rect x="571.8" y="52.5" class="st0" width="19.1" height="19.1"/>
<rect x="514.4" y="71.6" class="st0" width="19.1" height="19.1"/>
<rect x="533.6" y="71.6" class="st0" width="19.1" height="19.1"/>
<rect x="476.2" y="71.6" class="st0" width="19.1" height="19.1"/>
<rect x="495.3" y="71.6" class="st0" width="19.1" height="19.1"/>
<rect x="591" y="71.6" class="st0" width="19.1" height="19.1"/>
<rect x="610.1" y="71.6" class="st0" width="19.1" height="19.1"/>
<rect x="552.7" y="71.6" class="st0" width="19.1" height="19.1"/>
<rect x="571.8" y="71.6" class="st0" width="19.1" height="19.1"/>
<rect x="514.4" y="90.7" class="st0" width="19.1" height="19.1"/>
<rect x="533.6" y="90.7" class="st0" width="19.1" height="19.1"/>
<rect x="476.2" y="90.7" class="st0" width="19.1" height="19.1"/>
<rect x="495.3" y="90.7" class="st0" width="19.1" height="19.1"/>
<rect x="591" y="90.7" class="st0" width="19.1" height="19.1"/>
<rect x="610.1" y="90.7" class="st0" width="19.1" height="19.1"/>
<rect x="552.7" y="90.7" class="st0" width="19.1" height="19.1"/>
<rect x="571.8" y="90.7" class="st0" width="19.1" height="19.1"/>
</svg>
