<?xml version="1.0" encoding="utf-8"?>
<!-- Generator: Adobe Illustrator 25.4.1, SVG Export Plug-In . SVG Version: 6.00 Build 0)  -->
<svg version="1.1" id="Layer_1" xmlns="http://www.w3.org/2000/svg" xmlns:xlink="http://www.w3.org/1999/xlink" x="0px" y="0px"
	 viewBox="0 0 612 792" style="enable-background:new 0 0 612 792;" xml:space="preserve">
<style type="text/css">
	.st0{fill:none;stroke:#000000;stroke-miterlimit:10;}
</style>
<g>
	<path class="st0" d="M54.2,99.5L54.2,99.5c-4.7,0-8.5-3.8-8.5-8.5V68.3c0-4.7,3.8-8.5,8.5-8.5h0c4.7,0,8.5,3.8,8.5,8.5v22.7
		C62.7,95.6,58.9,99.5,54.2,99.5z"/>
	<path class="st0" d="M71.2,99.5L71.2,99.5c-4.7,0-8.5-3.8-8.5-8.5V68.3c0-4.7,3.8-8.5,8.5-8.5h0c4.7,0,8.5,3.8,8.5,8.5v22.7
		C79.7,95.6,75.9,99.5,71.2,99.5z"/>
	<path class="st0" d="M88.2,99.5L88.2,99.5c-4.7,0-8.5-3.8-8.5-8.5V68.3c0-4.7,3.8-8.5,8.5-8.5h0c4.7,0,8.5,3.8,8.5,8.5v22.7
		C96.7,95.6,92.9,99.5,88.2,99.5z"/>
	<path class="st0" d="M105.2,99.5L105.2,99.5c-4.7,0-8.5-3.8-8.5-8.5V68.3c0-4.7,3.8-8.5,8.5-8.5h0c4.7,0,8.5,3.8,8.5,8.5v22.7
		C113.7,95.6,109.9,99.5,105.2,99.5z"/>
	<path class="st0" d="M122.2,99.5L122.2,99.5c-4.7,0-8.5-3.8-8.5-8.5V68.3c0-4.7,3.8-8.5,8.5-8.5h0c4.7,0,8.5,3.8,8.5,8.5v22.7
		C130.7,95.6,126.9,99.5,122.2,99.5z"/>
	<path class="st0" d="M139.2,99.5L139.2,99.5c-4.7,0-8.5-3.8-8.5-8.5V68.3c0-4.7,3.8-8.5,8.5-8.5h0c4.7,0,8.5,3.8,8.5,8.5v22.7
		C147.7,95.6,143.9,99.5,139.2,99.5z"/>
	<path class="st0" d="M156.2,99.5L156.2,99.5c-4.7,0-8.5-3.8-8.5-8.5V68.3c0-4.7,3.8-8.5,8.5-8.5h0c4.7,0,8.5,3.8,8.5,8.5v22.7
		C164.7,95.6,160.9,99.5,156.2,99.5z"/>
	<path class="st0" d="M173.3,99.5L173.3,99.5c-4.7,0-8.5-3.8-8.5-8.5V68.3c0-4.7,3.8-8.5,8.5-8.5h0c4.7,0,8.5,3.8,8.5,8.5v22.7
		C181.8,95.6,177.9,99.5,173.3,99.5z"/>
	<path class="st0" d="M190.3,99.5L190.3,99.5c-4.7,0-8.5-3.8-8.5-8.5V68.3c0-4.7,3.8-8.5,8.5-8.5h0c4.7,0,8.5,3.8,8.5,8.5v22.7
		C198.8,95.6,195,99.5,190.3,99.5z"/>
	<path class="st0" d="M207.3,99.5L207.3,99.5c-4.7,0-8.5-3.8-8.5-8.5V68.3c0-4.7,3.8-8.5,8.5-8.5h0c4.7,0,8.5,3.8,8.5,8.5v22.7
		C215.8,95.6,212,99.5,207.3,99.5z"/>
	<path class="st0" d="M224.3,99.5L224.3,99.5c-4.7,0-8.5-3.8-8.5-8.5V68.3c0-4.7,3.8-8.5,8.5-8.5h0c4.7,0,8.5,3.8,8.5,8.5v22.7
		C232.8,95.6,229,99.5,224.3,99.5z"/>
	<path class="st0" d="M241.3,99.5L241.3,99.5c-4.7,0-8.5-3.8-8.5-8.5V68.3c0-4.7,3.8-8.5,8.5-8.5h0c4.7,0,8.5,3.8,8.5,8.5v22.7
		C249.8,95.6,246,99.5,241.3,99.5z"/>
	<path class="st0" d="M258.3,99.5L258.3,99.5c-4.7,0-8.5-3.8-8.5-8.5V68.3c0-4.7,3.8-8.5,8.5-8.5l0,0c4.7,0,8.5,3.8,8.5,8.5v22.7
		C266.8,95.6,263,99.5,258.3,99.5z"/>
	<path class="st0" d="M275.3,99.5L275.3,99.5c-4.7,0-8.5-3.8-8.5-8.5V68.3c0-4.7,3.8-8.5,8.5-8.5l0,0c4.7,0,8.5,3.8,8.5,8.5v22.7
		C283.8,95.6,280,99.5,275.3,99.5z"/>
	<path class="st0" d="M292.3,99.5L292.3,99.5c-4.7,0-8.5-3.8-8.5-8.5V68.3c0-4.7,3.8-8.5,8.5-8.5l0,0c4.7,0,8.5,3.8,8.5,8.5v22.7
		C300.8,95.6,297,99.5,292.3,99.5z"/>
	<path class="st0" d="M309.3,99.5L309.3,99.5c-4.7,0-8.5-3.8-8.5-8.5V68.3c0-4.7,3.8-8.5,8.5-8.5l0,0c4.7,0,8.5,3.8,8.5,8.5v22.7
		C317.8,95.6,314,99.5,309.3,99.5z"/>
	<path class="st0" d="M326.3,99.5L326.3,99.5c-4.7,0-8.5-3.8-8.5-8.5V68.3c0-4.7,3.8-8.5,8.5-8.5l0,0c4.7,0,8.5,3.8,8.5,8.5v22.7
		C334.8,95.6,331,99.5,326.3,99.5z"/>
	<path class="st0" d="M343.3,99.5L343.3,99.5c-4.7,0-8.5-3.8-8.5-8.5V68.3c0-4.7,3.8-8.5,8.5-8.5l0,0c4.7,0,8.5,3.8,8.5,8.5v22.7
		C351.8,95.6,348,99.5,343.3,99.5z"/>
	<path class="st0" d="M360.3,99.5L360.3,99.5c-4.7,0-8.5-3.8-8.5-8.5V68.3c0-4.7,3.8-8.5,8.5-8.5l0,0c4.7,0,8.5,3.8,8.5,8.5v22.7
		C368.8,95.6,365,99.5,360.3,99.5z"/>
	<path class="st0" d="M377.3,99.5L377.3,99.5c-4.7,0-8.5-3.8-8.5-8.5V68.3c0-4.7,3.8-8.5,8.5-8.5l0,0c4.7,0,8.5,3.8,8.5,8.5v22.7
		C385.8,95.6,382,99.5,377.3,99.5z"/>
	<path class="st0" d="M394.4,99.5L394.4,99.5c-4.7,0-8.5-3.8-8.5-8.5V68.3c0-4.7,3.8-8.5,8.5-8.5l0,0c4.7,0,8.5,3.8,8.5,8.5v22.7
		C402.9,95.6,399,99.5,394.4,99.5z"/>
	<path class="st0" d="M411.4,99.5L411.4,99.5c-4.7,0-8.5-3.8-8.5-8.5V68.3c0-4.7,3.8-8.5,8.5-8.5l0,0c4.7,0,8.5,3.8,8.5,8.5v22.7
		C419.9,95.6,416.1,99.5,411.4,99.5z"/>
	<path class="st0" d="M428.4,99.5L428.4,99.5c-4.7,0-8.5-3.8-8.5-8.5V68.3c0-4.7,3.8-8.5,8.5-8.5l0,0c4.7,0,8.5,3.8,8.5,8.5v22.7
		C436.9,95.6,433.1,99.5,428.4,99.5z"/>
	<path class="st0" d="M445.4,99.5L445.4,99.5c-4.7,0-8.5-3.8-8.5-8.5V68.3c0-4.7,3.8-8.5,8.5-8.5l0,0c4.7,0,8.5,3.8,8.5,8.5v22.7
		C453.9,95.6,450.1,99.5,445.4,99.5z"/>
	<path class="st0" d="M462.4,99.5L462.4,99.5c-4.7,0-8.5-3.8-8.5-8.5V68.3c0-4.7,3.8-8.5,8.5-8.5l0,0c4.7,0,8.5,3.8,8.5,8.5v22.7
		C470.9,95.6,467.1,99.5,462.4,99.5z"/>
	<path class="st0" d="M479.4,99.5L479.4,99.5c-4.7,0-8.5-3.8-8.5-8.5V68.3c0-4.7,3.8-8.5,8.5-8.5l0,0c4.7,0,8.5,3.8,8.5,8.5v22.7
		C487.9,95.6,484.1,99.5,479.4,99.5z"/>
	<path class="st0" d="M496.4,99.5L496.4,99.5c-4.7,0-8.5-3.8-8.5-8.5V68.3c0-4.7,3.8-8.5,8.5-8.5l0,0c4.7,0,8.5,3.8,8.5,8.5v22.7
		C504.9,95.6,501.1,99.5,496.4,99.5z"/>
	<path class="st0" d="M513.4,99.5L513.4,99.5c-4.7,0-8.5-3.8-8.5-8.5V68.3c0-4.7,3.8-8.5,8.5-8.5h0c4.7,0,8.5,3.8,8.5,8.5v22.7
		C521.9,95.6,518.1,99.5,513.4,99.5z"/>
	<path class="st0" d="M530.4,99.5L530.4,99.5c-4.7,0-8.5-3.8-8.5-8.5V68.3c0-4.7,3.8-8.5,8.5-8.5h0c4.7,0,8.5,3.8,8.5,8.5v22.7
		C538.9,95.6,535.1,99.5,530.4,99.5z"/>
	<path class="st0" d="M547.4,99.5L547.4,99.5c-4.7,0-8.5-3.8-8.5-8.5V68.3c0-4.7,3.8-8.5,8.5-8.5h0c4.7,0,8.5,3.8,8.5,8.5v22.7
		C555.9,95.6,552.1,99.5,547.4,99.5z"/>
	<path class="st0" d="M564.4,99.5L564.4,99.5c-4.7,0-8.5-3.8-8.5-8.5V68.3c0-4.7,3.8-8.5,8.5-8.5h0c4.7,0,8.5,3.8,8.5,8.5v22.7
		C572.9,95.6,569.1,99.5,564.4,99.5z"/>
	<path class="st0" d="M581.4,99.5L581.4,99.5c-4.7,0-8.5-3.8-8.5-8.5V68.3c0-4.7,3.8-8.5,8.5-8.5h0c4.7,0,8.5,3.8,8.5,8.5v22.7
		C589.9,95.6,586.1,99.5,581.4,99.5z"/>
	<path class="st0" d="M62.7,137.1L62.7,137.1c-4.7,0-8.5-3.8-8.5-8.5V106c0-4.7,3.8-8.5,8.5-8.5h0c4.7,0,8.5,3.8,8.5,8.5v22.7
		C71.2,133.3,67.4,137.1,62.7,137.1z"/>
	<path class="st0" d="M79.7,137.1L79.7,137.1c-4.7,0-8.5-3.8-8.5-8.5V106c0-4.7,3.8-8.5,8.5-8.5h0c4.7,0,8.5,3.8,8.5,8.5v22.7
		C88.2,133.3,84.4,137.1,79.7,137.1z"/>
	<path class="st0" d="M96.7,137.1L96.7,137.1c-4.7,0-8.5-3.8-8.5-8.5V106c0-4.7,3.8-8.5,8.5-8.5h0c4.7,0,8.5,3.8,8.5,8.5v22.7
		C105.2,133.3,101.4,137.1,96.7,137.1z"/>
	<path class="st0" d="M113.7,137.1L113.7,137.1c-4.7,0-8.5-3.8-8.5-8.5V106c0-4.7,3.8-8.5,8.5-8.5h0c4.7,0,8.5,3.8,8.5,8.5v22.7
		C122.2,133.3,118.4,137.1,113.7,137.1z"/>
	<path class="st0" d="M130.7,137.1L130.7,137.1c-4.7,0-8.5-3.8-8.5-8.5V106c0-4.7,3.8-8.5,8.5-8.5h0c4.7,0,8.5,3.8,8.5,8.5v22.7
		C139.2,133.3,135.4,137.1,130.7,137.1z"/>
	<path class="st0" d="M147.7,137.1L147.7,137.1c-4.7,0-8.5-3.8-8.5-8.5V106c0-4.7,3.8-8.5,8.5-8.5h0c4.7,0,8.5,3.8,8.5,8.5v22.7
		C156.2,133.3,152.4,137.1,147.7,137.1z"/>
	<path class="st0" d="M164.7,137.1L164.7,137.1c-4.7,0-8.5-3.8-8.5-8.5V106c0-4.7,3.8-8.5,8.5-8.5h0c4.7,0,8.5,3.8,8.5,8.5v22.7
		C173.3,133.3,169.4,137.1,164.7,137.1z"/>
	<path class="st0" d="M181.8,137.1L181.8,137.1c-4.7,0-8.5-3.8-8.5-8.5V106c0-4.7,3.8-8.5,8.5-8.5h0c4.7,0,8.5,3.8,8.5,8.5v22.7
		C190.3,133.3,186.5,137.1,181.8,137.1z"/>
	<path class="st0" d="M198.8,137.1L198.8,137.1c-4.7,0-8.5-3.8-8.5-8.5V106c0-4.7,3.8-8.5,8.5-8.5h0c4.7,0,8.5,3.8,8.5,8.5v22.7
		C207.3,133.3,203.5,137.1,198.8,137.1z"/>
	<path class="st0" d="M215.8,137.1L215.8,137.1c-4.7,0-8.5-3.8-8.5-8.5V106c0-4.7,3.8-8.5,8.5-8.5h0c4.7,0,8.5,3.8,8.5,8.5v22.7
		C224.3,133.3,220.5,137.1,215.8,137.1z"/>
	<path class="st0" d="M232.8,137.1L232.8,137.1c-4.7,0-8.5-3.8-8.5-8.5V106c0-4.7,3.8-8.5,8.5-8.5h0c4.7,0,8.5,3.8,8.5,8.5v22.7
		C241.3,133.3,237.5,137.1,232.8,137.1z"/>
	<path class="st0" d="M249.8,137.1L249.8,137.1c-4.7,0-8.5-3.8-8.5-8.5V106c0-4.7,3.8-8.5,8.5-8.5h0c4.7,0,8.5,3.8,8.5,8.5v22.7
		C258.3,133.3,254.5,137.1,249.8,137.1z"/>
	<path class="st0" d="M266.8,137.1L266.8,137.1c-4.7,0-8.5-3.8-8.5-8.5V106c0-4.7,3.8-8.5,8.5-8.5l0,0c4.7,0,8.5,3.8,8.5,8.5v22.7
		C275.3,133.3,271.5,137.1,266.8,137.1z"/>
	<path class="st0" d="M283.8,137.1L283.8,137.1c-4.7,0-8.5-3.8-8.5-8.5V106c0-4.7,3.8-8.5,8.5-8.5l0,0c4.7,0,8.5,3.8,8.5,8.5v22.7
		C292.3,133.3,288.5,137.1,283.8,137.1z"/>
	<path class="st0" d="M300.8,137.1L300.8,137.1c-4.7,0-8.5-3.8-8.5-8.5V106c0-4.7,3.8-8.5,8.5-8.5l0,0c4.7,0,8.5,3.8,8.5,8.5v22.7
		C309.3,133.3,305.5,137.1,300.8,137.1z"/>
	<path class="st0" d="M317.8,137.1L317.8,137.1c-4.7,0-8.5-3.8-8.5-8.5V106c0-4.7,3.8-8.5,8.5-8.5l0,0c4.7,0,8.5,3.8,8.5,8.5v22.7
		C326.3,133.3,322.5,137.1,317.8,137.1z"/>
	<path class="st0" d="M334.8,137.1L334.8,137.1c-4.7,0-8.5-3.8-8.5-8.5V106c0-4.7,3.8-8.5,8.5-8.5l0,0c4.7,0,8.5,3.8,8.5,8.5v22.7
		C343.3,133.3,339.5,137.1,334.8,137.1z"/>
	<path class="st0" d="M351.8,137.1L351.8,137.1c-4.7,0-8.5-3.8-8.5-8.5V106c0-4.7,3.8-8.5,8.5-8.5l0,0c4.7,0,8.5,3.8,8.5,8.5v22.7
		C360.3,133.3,356.5,137.1,351.8,137.1z"/>
	<path class="st0" d="M368.8,137.1L368.8,137.1c-4.7,0-8.5-3.8-8.5-8.5V106c0-4.7,3.8-8.5,8.5-8.5l0,0c4.7,0,8.5,3.8,8.5,8.5v22.7
		C377.3,133.3,373.5,137.1,368.8,137.1z"/>
	<path class="st0" d="M385.8,137.1L385.8,137.1c-4.7,0-8.5-3.8-8.5-8.5V106c0-4.7,3.8-8.5,8.5-8.5l0,0c4.7,0,8.5,3.8,8.5,8.5v22.7
		C394.4,133.3,390.5,137.1,385.8,137.1z"/>
	<path class="st0" d="M402.9,137.1L402.9,137.1c-4.7,0-8.5-3.8-8.5-8.5V106c0-4.7,3.8-8.5,8.5-8.5l0,0c4.7,0,8.5,3.8,8.5,8.5v22.7
		C411.4,133.3,407.6,137.1,402.9,137.1z"/>
	<path class="st0" d="M419.9,137.1L419.9,137.1c-4.7,0-8.5-3.8-8.5-8.5V106c0-4.7,3.8-8.5,8.5-8.5l0,0c4.7,0,8.5,3.8,8.5,8.5v22.7
		C428.4,133.3,424.6,137.1,419.9,137.1z"/>
	<path class="st0" d="M436.9,137.1L436.9,137.1c-4.7,0-8.5-3.8-8.5-8.5V106c0-4.7,3.8-8.5,8.5-8.5l0,0c4.7,0,8.5,3.8,8.5,8.5v22.7
		C445.4,133.3,441.6,137.1,436.9,137.1z"/>
	<path class="st0" d="M453.9,137.1L453.9,137.1c-4.7,0-8.5-3.8-8.5-8.5V106c0-4.7,3.8-8.5,8.5-8.5l0,0c4.7,0,8.5,3.8,8.5,8.5v22.7
		C462.4,133.3,458.6,137.1,453.9,137.1z"/>
	<path class="st0" d="M470.9,137.1L470.9,137.1c-4.7,0-8.5-3.8-8.5-8.5V106c0-4.7,3.8-8.5,8.5-8.5l0,0c4.7,0,8.5,3.8,8.5,8.5v22.7
		C479.4,133.3,475.6,137.1,470.9,137.1z"/>
	<path class="st0" d="M487.9,137.1L487.9,137.1c-4.7,0-8.5-3.8-8.5-8.5V106c0-4.7,3.8-8.5,8.5-8.5l0,0c4.7,0,8.5,3.8,8.5,8.5v22.7
		C496.4,133.3,492.6,137.1,487.9,137.1z"/>
	<path class="st0" d="M504.9,137.1L504.9,137.1c-4.7,0-8.5-3.8-8.5-8.5V106c0-4.7,3.8-8.5,8.5-8.5l0,0c4.7,0,8.5,3.8,8.5,8.5v22.7
		C513.4,133.3,509.6,137.1,504.9,137.1z"/>
	<path class="st0" d="M521.9,137.1L521.9,137.1c-4.7,0-8.5-3.8-8.5-8.5V106c0-4.7,3.8-8.5,8.5-8.5l0,0c4.7,0,8.5,3.8,8.5,8.5v22.7
		C530.4,133.3,526.6,137.1,521.9,137.1z"/>
	<path class="st0" d="M538.9,137.1L538.9,137.1c-4.7,0-8.5-3.8-8.5-8.5V106c0-4.7,3.8-8.5,8.5-8.5l0,0c4.7,0,8.5,3.8,8.5,8.5v22.7
		C547.4,133.3,543.6,137.1,538.9,137.1z"/>
	<path class="st0" d="M555.9,137.1L555.9,137.1c-4.7,0-8.5-3.8-8.5-8.5V106c0-4.7,3.8-8.5,8.5-8.5l0,0c4.7,0,8.5,3.8,8.5,8.5v22.7
		C564.4,133.3,560.6,137.1,555.9,137.1z"/>
	<path class="st0" d="M572.9,137.1L572.9,137.1c-4.7,0-8.5-3.8-8.5-8.5V106c0-4.7,3.8-8.5,8.5-8.5l0,0c4.7,0,8.5,3.8,8.5,8.5v22.7
		C581.4,133.3,577.6,137.1,572.9,137.1z"/>
	<path class="st0" d="M589.9,137.1L589.9,137.1c-4.7,0-8.5-3.8-8.5-8.5V106c0-4.7,3.8-8.5,8.5-8.5l0,0c4.7,0,8.5,3.8,8.5,8.5v22.7
		C598.4,133.3,594.6,137.1,589.9,137.1z"/>
	<path class="st0" d="M54.2,174.9L54.2,174.9c-4.7,0-8.5-3.8-8.5-8.5v-22.7c0-4.7,3.8-8.5,8.5-8.5h0c4.7,0,8.5,3.8,8.5,8.5v22.7
		C62.7,171.1,58.9,174.9,54.2,174.9z"/>
	<path class="st0" d="M71.2,174.9L71.2,174.9c-4.7,0-8.5-3.8-8.5-8.5v-22.7c0-4.7,3.8-8.5,8.5-8.5h0c4.7,0,8.5,3.8,8.5,8.5v22.7
		C79.7,171.1,75.9,174.9,71.2,174.9z"/>
	<path class="st0" d="M88.2,174.9L88.2,174.9c-4.7,0-8.5-3.8-8.5-8.5v-22.7c0-4.7,3.8-8.5,8.5-8.5h0c4.7,0,8.5,3.8,8.5,8.5v22.7
		C96.7,171.1,92.9,174.9,88.2,174.9z"/>
	<path class="st0" d="M105.2,174.9L105.2,174.9c-4.7,0-8.5-3.8-8.5-8.5v-22.7c0-4.7,3.8-8.5,8.5-8.5h0c4.7,0,8.5,3.8,8.5,8.5v22.7
		C113.7,171.1,109.9,174.9,105.2,174.9z"/>
	<path class="st0" d="M122.2,174.9L122.2,174.9c-4.7,0-8.5-3.8-8.5-8.5v-22.7c0-4.7,3.8-8.5,8.5-8.5h0c4.7,0,8.5,3.8,8.5,8.5v22.7
		C130.7,171.1,126.9,174.9,122.2,174.9z"/>
	<path class="st0" d="M139.2,174.9L139.2,174.9c-4.7,0-8.5-3.8-8.5-8.5v-22.7c0-4.7,3.8-8.5,8.5-8.5h0c4.7,0,8.5,3.8,8.5,8.5v22.7
		C147.7,171.1,143.9,174.9,139.2,174.9z"/>
	<path class="st0" d="M156.2,174.9L156.2,174.9c-4.7,0-8.5-3.8-8.5-8.5v-22.7c0-4.7,3.8-8.5,8.5-8.5h0c4.7,0,8.5,3.8,8.5,8.5v22.7
		C164.7,171.1,160.9,174.9,156.2,174.9z"/>
	<path class="st0" d="M173.3,174.9L173.3,174.9c-4.7,0-8.5-3.8-8.5-8.5v-22.7c0-4.7,3.8-8.5,8.5-8.5h0c4.7,0,8.5,3.8,8.5,8.5v22.7
		C181.8,171.1,177.9,174.9,173.3,174.9z"/>
	<path class="st0" d="M190.3,174.9L190.3,174.9c-4.7,0-8.5-3.8-8.5-8.5v-22.7c0-4.7,3.8-8.5,8.5-8.5h0c4.7,0,8.5,3.8,8.5,8.5v22.7
		C198.8,171.1,195,174.9,190.3,174.9z"/>
	<path class="st0" d="M207.3,174.9L207.3,174.9c-4.7,0-8.5-3.8-8.5-8.5v-22.7c0-4.7,3.8-8.5,8.5-8.5h0c4.7,0,8.5,3.8,8.5,8.5v22.7
		C215.8,171.1,212,174.9,207.3,174.9z"/>
	<path class="st0" d="M224.3,174.9L224.3,174.9c-4.7,0-8.5-3.8-8.5-8.5v-22.7c0-4.7,3.8-8.5,8.5-8.5h0c4.7,0,8.5,3.8,8.5,8.5v22.7
		C232.8,171.1,229,174.9,224.3,174.9z"/>
	<path class="st0" d="M241.3,174.9L241.3,174.9c-4.7,0-8.5-3.8-8.5-8.5v-22.7c0-4.7,3.8-8.5,8.5-8.5h0c4.7,0,8.5,3.8,8.5,8.5v22.7
		C249.8,171.1,246,174.9,241.3,174.9z"/>
	<path class="st0" d="M258.3,174.9L258.3,174.9c-4.7,0-8.5-3.8-8.5-8.5v-22.7c0-4.7,3.8-8.5,8.5-8.5l0,0c4.7,0,8.5,3.8,8.5,8.5v22.7
		C266.8,171.1,263,174.9,258.3,174.9z"/>
	<path class="st0" d="M275.3,174.9L275.3,174.9c-4.7,0-8.5-3.8-8.5-8.5v-22.7c0-4.7,3.8-8.5,8.5-8.5l0,0c4.7,0,8.5,3.8,8.5,8.5v22.7
		C283.8,171.1,280,174.9,275.3,174.9z"/>
	<path class="st0" d="M292.3,174.9L292.3,174.9c-4.7,0-8.5-3.8-8.5-8.5v-22.7c0-4.7,3.8-8.5,8.5-8.5l0,0c4.7,0,8.5,3.8,8.5,8.5v22.7
		C300.8,171.1,297,174.9,292.3,174.9z"/>
	<path class="st0" d="M309.3,174.9L309.3,174.9c-4.7,0-8.5-3.8-8.5-8.5v-22.7c0-4.7,3.8-8.5,8.5-8.5l0,0c4.7,0,8.5,3.8,8.5,8.5v22.7
		C317.8,171.1,314,174.9,309.3,174.9z"/>
	<path class="st0" d="M326.3,174.9L326.3,174.9c-4.7,0-8.5-3.8-8.5-8.5v-22.7c0-4.7,3.8-8.5,8.5-8.5l0,0c4.7,0,8.5,3.8,8.5,8.5v22.7
		C334.8,171.1,331,174.9,326.3,174.9z"/>
	<path class="st0" d="M343.3,174.9L343.3,174.9c-4.7,0-8.5-3.8-8.5-8.5v-22.7c0-4.7,3.8-8.5,8.5-8.5l0,0c4.7,0,8.5,3.8,8.5,8.5v22.7
		C351.8,171.1,348,174.9,343.3,174.9z"/>
	<path class="st0" d="M360.3,174.9L360.3,174.9c-4.7,0-8.5-3.8-8.5-8.5v-22.7c0-4.7,3.8-8.5,8.5-8.5l0,0c4.7,0,8.5,3.8,8.5,8.5v22.7
		C368.8,171.1,365,174.9,360.3,174.9z"/>
	<path class="st0" d="M377.3,174.9L377.3,174.9c-4.7,0-8.5-3.8-8.5-8.5v-22.7c0-4.7,3.8-8.5,8.5-8.5l0,0c4.7,0,8.5,3.8,8.5,8.5v22.7
		C385.8,171.1,382,174.9,377.3,174.9z"/>
	<path class="st0" d="M394.4,174.9L394.4,174.9c-4.7,0-8.5-3.8-8.5-8.5v-22.7c0-4.7,3.8-8.5,8.5-8.5l0,0c4.7,0,8.5,3.8,8.5,8.5v22.7
		C402.9,171.1,399,174.9,394.4,174.9z"/>
	<path class="st0" d="M411.4,174.9L411.4,174.9c-4.7,0-8.5-3.8-8.5-8.5v-22.7c0-4.7,3.8-8.5,8.5-8.5l0,0c4.7,0,8.5,3.8,8.5,8.5v22.7
		C419.9,171.1,416.1,174.9,411.4,174.9z"/>
	<path class="st0" d="M428.4,174.9L428.4,174.9c-4.7,0-8.5-3.8-8.5-8.5v-22.7c0-4.7,3.8-8.5,8.5-8.5l0,0c4.7,0,8.5,3.8,8.5,8.5v22.7
		C436.9,171.1,433.1,174.9,428.4,174.9z"/>
	<path class="st0" d="M445.4,174.9L445.4,174.9c-4.7,0-8.5-3.8-8.5-8.5v-22.7c0-4.7,3.8-8.5,8.5-8.5l0,0c4.7,0,8.5,3.8,8.5,8.5v22.7
		C453.9,171.1,450.1,174.9,445.4,174.9z"/>
	<path class="st0" d="M462.4,174.9L462.4,174.9c-4.7,0-8.5-3.8-8.5-8.5v-22.7c0-4.7,3.8-8.5,8.5-8.5l0,0c4.7,0,8.5,3.8,8.5,8.5v22.7
		C470.9,171.1,467.1,174.9,462.4,174.9z"/>
	<path class="st0" d="M479.4,174.9L479.4,174.9c-4.7,0-8.5-3.8-8.5-8.5v-22.7c0-4.7,3.8-8.5,8.5-8.5l0,0c4.7,0,8.5,3.8,8.5,8.5v22.7
		C487.9,171.1,484.1,174.9,479.4,174.9z"/>
	<path class="st0" d="M496.4,174.9L496.4,174.9c-4.7,0-8.5-3.8-8.5-8.5v-22.7c0-4.7,3.8-8.5,8.5-8.5l0,0c4.7,0,8.5,3.8,8.5,8.5v22.7
		C504.9,171.1,501.1,174.9,496.4,174.9z"/>
	<path class="st0" d="M513.4,174.9L513.4,174.9c-4.7,0-8.5-3.8-8.5-8.5v-22.7c0-4.7,3.8-8.5,8.5-8.5h0c4.7,0,8.5,3.8,8.5,8.5v22.7
		C521.9,171.1,518.1,174.9,513.4,174.9z"/>
	<path class="st0" d="M530.4,174.9L530.4,174.9c-4.7,0-8.5-3.8-8.5-8.5v-22.7c0-4.7,3.8-8.5,8.5-8.5h0c4.7,0,8.5,3.8,8.5,8.5v22.7
		C538.9,171.1,535.1,174.9,530.4,174.9z"/>
	<path class="st0" d="M547.4,174.9L547.4,174.9c-4.7,0-8.5-3.8-8.5-8.5v-22.7c0-4.7,3.8-8.5,8.5-8.5h0c4.7,0,8.5,3.8,8.5,8.5v22.7
		C555.9,171.1,552.1,174.9,547.4,174.9z"/>
	<path class="st0" d="M564.4,174.9L564.4,174.9c-4.7,0-8.5-3.8-8.5-8.5v-22.7c0-4.7,3.8-8.5,8.5-8.5h0c4.7,0,8.5,3.8,8.5,8.5v22.7
		C572.9,171.1,569.1,174.9,564.4,174.9z"/>
	<path class="st0" d="M581.4,174.9L581.4,174.9c-4.7,0-8.5-3.8-8.5-8.5v-22.7c0-4.7,3.8-8.5,8.5-8.5h0c4.7,0,8.5,3.8,8.5,8.5v22.7
		C589.9,171.1,586.1,174.9,581.4,174.9z"/>
	<path class="st0" d="M62.7,212.6L62.7,212.6c-4.7,0-8.5-3.8-8.5-8.5v-22.7c0-4.7,3.8-8.5,8.5-8.5h0c4.7,0,8.5,3.8,8.5,8.5v22.7
		C71.2,208.8,67.4,212.6,62.7,212.6z"/>
	<path class="st0" d="M79.7,212.6L79.7,212.6c-4.7,0-8.5-3.8-8.5-8.5v-22.7c0-4.7,3.8-8.5,8.5-8.5h0c4.7,0,8.5,3.8,8.5,8.5v22.7
		C88.2,208.8,84.4,212.6,79.7,212.6z"/>
	<path class="st0" d="M96.7,212.6L96.7,212.6c-4.7,0-8.5-3.8-8.5-8.5v-22.7c0-4.7,3.8-8.5,8.5-8.5h0c4.7,0,8.5,3.8,8.5,8.5v22.7
		C105.2,208.8,101.4,212.6,96.7,212.6z"/>
	<path class="st0" d="M113.7,212.6L113.7,212.6c-4.7,0-8.5-3.8-8.5-8.5v-22.7c0-4.7,3.8-8.5,8.5-8.5h0c4.7,0,8.5,3.8,8.5,8.5v22.7
		C122.2,208.8,118.4,212.6,113.7,212.6z"/>
	<path class="st0" d="M130.7,212.6L130.7,212.6c-4.7,0-8.5-3.8-8.5-8.5v-22.7c0-4.7,3.8-8.5,8.5-8.5h0c4.7,0,8.5,3.8,8.5,8.5v22.7
		C139.2,208.8,135.4,212.6,130.7,212.6z"/>
	<path class="st0" d="M147.7,212.6L147.7,212.6c-4.7,0-8.5-3.8-8.5-8.5v-22.7c0-4.7,3.8-8.5,8.5-8.5h0c4.7,0,8.5,3.8,8.5,8.5v22.7
		C156.2,208.8,152.4,212.6,147.7,212.6z"/>
	<path class="st0" d="M164.7,212.6L164.7,212.6c-4.7,0-8.5-3.8-8.5-8.5v-22.7c0-4.7,3.8-8.5,8.5-8.5h0c4.7,0,8.5,3.8,8.5,8.5v22.7
		C173.3,208.8,169.4,212.6,164.7,212.6z"/>
	<path class="st0" d="M181.8,212.6L181.8,212.6c-4.7,0-8.5-3.8-8.5-8.5v-22.7c0-4.7,3.8-8.5,8.5-8.5h0c4.7,0,8.5,3.8,8.5,8.5v22.7
		C190.3,208.8,186.5,212.6,181.8,212.6z"/>
	<path class="st0" d="M198.8,212.6L198.8,212.6c-4.7,0-8.5-3.8-8.5-8.5v-22.7c0-4.7,3.8-8.5,8.5-8.5h0c4.7,0,8.5,3.8,8.5,8.5v22.7
		C207.3,208.8,203.5,212.6,198.8,212.6z"/>
	<path class="st0" d="M215.8,212.6L215.8,212.6c-4.7,0-8.5-3.8-8.5-8.5v-22.7c0-4.7,3.8-8.5,8.5-8.5h0c4.7,0,8.5,3.8,8.5,8.5v22.7
		C224.3,208.8,220.5,212.6,215.8,212.6z"/>
	<path class="st0" d="M232.8,212.6L232.8,212.6c-4.7,0-8.5-3.8-8.5-8.5v-22.7c0-4.7,3.8-8.5,8.5-8.5h0c4.7,0,8.5,3.8,8.5,8.5v22.7
		C241.3,208.8,237.5,212.6,232.8,212.6z"/>
	<path class="st0" d="M249.8,212.6L249.8,212.6c-4.7,0-8.5-3.8-8.5-8.5v-22.7c0-4.7,3.8-8.5,8.5-8.5h0c4.7,0,8.5,3.8,8.5,8.5v22.7
		C258.3,208.8,254.5,212.6,249.8,212.6z"/>
	<path class="st0" d="M266.8,212.6L266.8,212.6c-4.7,0-8.5-3.8-8.5-8.5v-22.7c0-4.7,3.8-8.5,8.5-8.5l0,0c4.7,0,8.5,3.8,8.5,8.5v22.7
		C275.3,208.8,271.5,212.6,266.8,212.6z"/>
	<path class="st0" d="M283.8,212.6L283.8,212.6c-4.7,0-8.5-3.8-8.5-8.5v-22.7c0-4.7,3.8-8.5,8.5-8.5l0,0c4.7,0,8.5,3.8,8.5,8.5v22.7
		C292.3,208.8,288.5,212.6,283.8,212.6z"/>
	<path class="st0" d="M300.8,212.6L300.8,212.6c-4.7,0-8.5-3.8-8.5-8.5v-22.7c0-4.7,3.8-8.5,8.5-8.5l0,0c4.7,0,8.5,3.8,8.5,8.5v22.7
		C309.3,208.8,305.5,212.6,300.8,212.6z"/>
	<path class="st0" d="M317.8,212.6L317.8,212.6c-4.7,0-8.5-3.8-8.5-8.5v-22.7c0-4.7,3.8-8.5,8.5-8.5l0,0c4.7,0,8.5,3.8,8.5,8.5v22.7
		C326.3,208.8,322.5,212.6,317.8,212.6z"/>
	<path class="st0" d="M334.8,212.6L334.8,212.6c-4.7,0-8.5-3.8-8.5-8.5v-22.7c0-4.7,3.8-8.5,8.5-8.5l0,0c4.7,0,8.5,3.8,8.5,8.5v22.7
		C343.3,208.8,339.5,212.6,334.8,212.6z"/>
	<path class="st0" d="M351.8,212.6L351.8,212.6c-4.7,0-8.5-3.8-8.5-8.5v-22.7c0-4.7,3.8-8.5,8.5-8.5l0,0c4.7,0,8.5,3.8,8.5,8.5v22.7
		C360.3,208.8,356.5,212.6,351.8,212.6z"/>
	<path class="st0" d="M368.8,212.6L368.8,212.6c-4.7,0-8.5-3.8-8.5-8.5v-22.7c0-4.7,3.8-8.5,8.5-8.5l0,0c4.7,0,8.5,3.8,8.5,8.5v22.7
		C377.3,208.8,373.5,212.6,368.8,212.6z"/>
	<path class="st0" d="M385.8,212.6L385.8,212.6c-4.7,0-8.5-3.8-8.5-8.5v-22.7c0-4.7,3.8-8.5,8.5-8.5l0,0c4.7,0,8.5,3.8,8.5,8.5v22.7
		C394.4,208.8,390.5,212.6,385.8,212.6z"/>
	<path class="st0" d="M402.9,212.6L402.9,212.6c-4.7,0-8.5-3.8-8.5-8.5v-22.7c0-4.7,3.8-8.5,8.5-8.5l0,0c4.7,0,8.5,3.8,8.5,8.5v22.7
		C411.4,208.8,407.6,212.6,402.9,212.6z"/>
	<path class="st0" d="M419.9,212.6L419.9,212.6c-4.7,0-8.5-3.8-8.5-8.5v-22.7c0-4.7,3.8-8.5,8.5-8.5l0,0c4.7,0,8.5,3.8,8.5,8.5v22.7
		C428.4,208.8,424.6,212.6,419.9,212.6z"/>
	<path class="st0" d="M436.9,212.6L436.9,212.6c-4.7,0-8.5-3.8-8.5-8.5v-22.7c0-4.7,3.8-8.5,8.5-8.5l0,0c4.7,0,8.5,3.8,8.5,8.5v22.7
		C445.4,208.8,441.6,212.6,436.9,212.6z"/>
	<path class="st0" d="M453.9,212.6L453.9,212.6c-4.7,0-8.5-3.8-8.5-8.5v-22.7c0-4.7,3.8-8.5,8.5-8.5l0,0c4.7,0,8.5,3.8,8.5,8.5v22.7
		C462.4,208.8,458.6,212.6,453.9,212.6z"/>
	<path class="st0" d="M470.9,212.6L470.9,212.6c-4.7,0-8.5-3.8-8.5-8.5v-22.7c0-4.7,3.8-8.5,8.5-8.5l0,0c4.7,0,8.5,3.8,8.5,8.5v22.7
		C479.4,208.8,475.6,212.6,470.9,212.6z"/>
	<path class="st0" d="M487.9,212.6L487.9,212.6c-4.7,0-8.5-3.8-8.5-8.5v-22.7c0-4.7,3.8-8.5,8.5-8.5l0,0c4.7,0,8.5,3.8,8.5,8.5v22.7
		C496.4,208.8,492.6,212.6,487.9,212.6z"/>
	<path class="st0" d="M504.9,212.6L504.9,212.6c-4.7,0-8.5-3.8-8.5-8.5v-22.7c0-4.7,3.8-8.5,8.5-8.5l0,0c4.7,0,8.5,3.8,8.5,8.5v22.7
		C513.4,208.8,509.6,212.6,504.9,212.6z"/>
	<path class="st0" d="M521.9,212.6L521.9,212.6c-4.7,0-8.5-3.8-8.5-8.5v-22.7c0-4.7,3.8-8.5,8.5-8.5l0,0c4.7,0,8.5,3.8,8.5,8.5v22.7
		C530.4,208.8,526.6,212.6,521.9,212.6z"/>
	<path class="st0" d="M538.9,212.6L538.9,212.6c-4.7,0-8.5-3.8-8.5-8.5v-22.7c0-4.7,3.8-8.5,8.5-8.5l0,0c4.7,0,8.5,3.8,8.5,8.5v22.7
		C547.4,208.8,543.6,212.6,538.9,212.6z"/>
	<path class="st0" d="M555.9,212.6L555.9,212.6c-4.7,0-8.5-3.8-8.5-8.5v-22.7c0-4.7,3.8-8.5,8.5-8.5l0,0c4.7,0,8.5,3.8,8.5,8.5v22.7
		C564.4,208.8,560.6,212.6,555.9,212.6z"/>
	<path class="st0" d="M572.9,212.6L572.9,212.6c-4.7,0-8.5-3.8-8.5-8.5v-22.7c0-4.7,3.8-8.5,8.5-8.5l0,0c4.7,0,8.5,3.8,8.5,8.5v22.7
		C581.4,208.8,577.6,212.6,572.9,212.6z"/>
	<path class="st0" d="M589.9,212.6L589.9,212.6c-4.7,0-8.5-3.8-8.5-8.5v-22.7c0-4.7,3.8-8.5,8.5-8.5l0,0c4.7,0,8.5,3.8,8.5,8.5v22.7
		C598.4,208.8,594.6,212.6,589.9,212.6z"/>
</g>
</svg>
