<?xml version="1.0" encoding="utf-8"?>
<!-- Generator: Adobe Illustrator 25.2.1, SVG Export Plug-In . SVG Version: 6.00 Build 0)  -->
<svg version="1.1" id="Layer_1" xmlns="http://www.w3.org/2000/svg" xmlns:xlink="http://www.w3.org/1999/xlink" x="0px" y="0px"
	 viewBox="0 0 4280.3 1133.9" style="enable-background:new 0 0 4280.3 1133.9;" xml:space="preserve">
<style type="text/css">
	.st0{fill:none;stroke:#000000;stroke-miterlimit:10;}
</style>
<path class="st0" d="M509.8,364.9V155.1c0-4.7,3.8-8.5,8.5-8.5h89.3c4.7,0,8.5,3.8,8.5,8.5v209.8c0,4.7-3.8,8.5-8.5,8.5h-89.3
	C513.6,373.4,509.8,369.6,509.8,364.9z"/>
<path class="st0" d="M312.9,464.8V116.1c0-1.6,1.3-2.8,2.8-2.8h116.2c1.6,0,2.8,1.3,2.8,2.8v348.7c0,1.6-1.3,2.8-2.8,2.8H315.7
	C314.1,467.6,312.9,466.4,312.9,464.8z"/>
<path class="st0" d="M113.1,576.8v-445c0-1.6,1.3-2.8,2.8-2.8H235c1.6,0,2.8,1.3,2.8,2.8v445c0,1.6-1.3,2.8-2.8,2.8H116
	C114.4,579.6,113.1,578.4,113.1,576.8z"/>
<path class="st0" d="M509.8,628.9V430.4c0-1.6,1.3-2.8,2.8-2.8h212.6c1.6,0,2.8,1.3,2.8,2.8v198.4c0,1.6-1.3,2.8-2.8,2.8H512.6
	C511,631.7,509.8,630.4,509.8,628.9z"/>
</svg>
