<?xml version="1.0" encoding="utf-8"?>
<!-- Generator: Adobe Illustrator 25.2.1, SVG Export Plug-In . SVG Version: 6.00 Build 0)  -->
<svg version="1.1" id="Layer_1" xmlns="http://www.w3.org/2000/svg" xmlns:xlink="http://www.w3.org/1999/xlink" x="0px" y="0px"
	 viewBox="0 0 4280.3 1133.9" style="enable-background:new 0 0 4280.3 1133.9;" xml:space="preserve">
<style type="text/css">
	.st0{fill:none;stroke:#000000;stroke-miterlimit:10;}
</style>
<g>
	<path class="st0" d="M224.2,631.2H116.5c-3.1,0-5.7-2.5-5.7-5.7v-377c0-3.1,2.5-5.7,5.7-5.7h107.7c3.1,0,5.7,2.5,5.7,5.7v377
		C229.9,628.7,227.3,631.2,224.2,631.2z"/>
	<path class="st0" d="M343.2,631.2H235.5c-3.1,0-5.7-2.5-5.7-5.7v-377c0-3.1,2.5-5.7,5.7-5.7h107.7c3.1,0,5.7,2.5,5.7,5.7v377
		C348.9,628.7,346.4,631.2,343.2,631.2z"/>
	<path class="st0" d="M462.3,631.2H354.6c-3.1,0-5.7-2.5-5.7-5.7v-377c0-3.1,2.5-5.7,5.7-5.7h107.7c3.1,0,5.7,2.5,5.7,5.7v377
		C468,628.7,465.4,631.2,462.3,631.2z"/>
	<path class="st0" d="M581.4,631.2H473.6c-3.1,0-5.7-2.5-5.7-5.7v-377c0-3.1,2.5-5.7,5.7-5.7h107.7c3.1,0,5.7,2.5,5.7,5.7v377
		C587,628.7,584.5,631.2,581.4,631.2z"/>
	<path class="st0" d="M700.4,631.2H592.7c-3.1,0-5.7-2.5-5.7-5.7v-377c0-3.1,2.5-5.7,5.7-5.7h107.7c3.1,0,5.7,2.5,5.7,5.7v377
		C706.1,628.7,703.5,631.2,700.4,631.2z"/>
	<path class="st0" d="M819.5,631.2H711.8c-3.1,0-5.7-2.5-5.7-5.7v-377c0-3.1,2.5-5.7,5.7-5.7h107.7c3.1,0,5.7,2.5,5.7,5.7v377
		C825.1,628.7,822.6,631.2,819.5,631.2z"/>
	<path class="st0" d="M938.5,631.2H830.8c-3.1,0-5.7-2.5-5.7-5.7v-377c0-3.1,2.5-5.7,5.7-5.7h107.7c3.1,0,5.7,2.5,5.7,5.7v377
		C944.2,628.7,941.7,631.2,938.5,631.2z"/>
	<path class="st0" d="M1057.6,631.2H949.9c-3.1,0-5.7-2.5-5.7-5.7v-377c0-3.1,2.5-5.7,5.7-5.7h107.7c3.1,0,5.7,2.5,5.7,5.7v377
		C1063.2,628.7,1060.7,631.2,1057.6,631.2z"/>
	<path class="st0" d="M224.2,1019.5H116.5c-3.1,0-5.7-2.5-5.7-5.7v-377c0-3.1,2.5-5.7,5.7-5.7h107.7c3.1,0,5.7,2.5,5.7,5.7v377
		C229.9,1017,227.3,1019.5,224.2,1019.5z"/>
	<path class="st0" d="M343.2,1019.5H235.5c-3.1,0-5.7-2.5-5.7-5.7v-377c0-3.1,2.5-5.7,5.7-5.7h107.7c3.1,0,5.7,2.5,5.7,5.7v377
		C348.9,1017,346.4,1019.5,343.2,1019.5z"/>
	<path class="st0" d="M462.3,1019.5H354.6c-3.1,0-5.7-2.5-5.7-5.7v-377c0-3.1,2.5-5.7,5.7-5.7h107.7c3.1,0,5.7,2.5,5.7,5.7v377
		C468,1017,465.4,1019.5,462.3,1019.5z"/>
	<path class="st0" d="M581.4,1019.5H473.6c-3.1,0-5.7-2.5-5.7-5.7v-377c0-3.1,2.5-5.7,5.7-5.7h107.7c3.1,0,5.7,2.5,5.7,5.7v377
		C587,1017,584.5,1019.5,581.4,1019.5z"/>
	<path class="st0" d="M700.4,1019.5H592.7c-3.1,0-5.7-2.5-5.7-5.7v-377c0-3.1,2.5-5.7,5.7-5.7h107.7c3.1,0,5.7,2.5,5.7,5.7v377
		C706.1,1017,703.5,1019.5,700.4,1019.5z"/>
	<path class="st0" d="M819.5,1019.5H711.8c-3.1,0-5.7-2.5-5.7-5.7v-377c0-3.1,2.5-5.7,5.7-5.7h107.7c3.1,0,5.7,2.5,5.7,5.7v377
		C825.1,1017,822.6,1019.5,819.5,1019.5z"/>
	<path class="st0" d="M938.5,1019.5H830.8c-3.1,0-5.7-2.5-5.7-5.7v-377c0-3.1,2.5-5.7,5.7-5.7h107.7c3.1,0,5.7,2.5,5.7,5.7v377
		C944.2,1017,941.7,1019.5,938.5,1019.5z"/>
	<path class="st0" d="M1057.6,1019.5H949.9c-3.1,0-5.7-2.5-5.7-5.7v-377c0-3.1,2.5-5.7,5.7-5.7h107.7c3.1,0,5.7,2.5,5.7,5.7v377
		C1063.2,1017,1060.7,1019.5,1057.6,1019.5z"/>
</g>
<g>
	<path class="st0" d="M1260,585.6h-79.4c-3.1,0-5.7-2.5-5.7-5.7V370.2c0-3.1,2.5-5.7,5.7-5.7h79.4c3.1,0,5.7,2.5,5.7,5.7v209.8
		C1265.7,583.1,1263.1,585.6,1260,585.6z"/>
	<path class="st0" d="M1350.7,585.6h-79.4c-3.1,0-5.7-2.5-5.7-5.7V370.2c0-3.1,2.5-5.7,5.7-5.7h79.4c3.1,0,5.7,2.5,5.7,5.7v209.8
		C1356.4,583.1,1353.8,585.6,1350.7,585.6z"/>
	<path class="st0" d="M1441.4,585.6H1362c-3.1,0-5.7-2.5-5.7-5.7V370.2c0-3.1,2.5-5.7,5.7-5.7h79.4c3.1,0,5.7,2.5,5.7,5.7v209.8
		C1447.1,583.1,1444.5,585.6,1441.4,585.6z"/>
	<path class="st0" d="M1532.1,585.6h-79.4c-3.1,0-5.7-2.5-5.7-5.7V370.2c0-3.1,2.5-5.7,5.7-5.7h79.4c3.1,0,5.7,2.5,5.7,5.7v209.8
		C1537.8,583.1,1535.2,585.6,1532.1,585.6z"/>
	<path class="st0" d="M1622.8,585.6h-79.4c-3.1,0-5.7-2.5-5.7-5.7V370.2c0-3.1,2.5-5.7,5.7-5.7h79.4c3.1,0,5.7,2.5,5.7,5.7v209.8
		C1628.5,583.1,1626,585.6,1622.8,585.6z"/>
	<path class="st0" d="M1713.5,585.6h-79.4c-3.1,0-5.7-2.5-5.7-5.7V370.2c0-3.1,2.5-5.7,5.7-5.7h79.4c3.1,0,5.7,2.5,5.7,5.7v209.8
		C1719.2,583.1,1716.7,585.6,1713.5,585.6z"/>
	<path class="st0" d="M1804.2,585.6h-79.4c-3.1,0-5.7-2.5-5.7-5.7V370.2c0-3.1,2.5-5.7,5.7-5.7h79.4c3.1,0,5.7,2.5,5.7,5.7v209.8
		C1809.9,583.1,1807.4,585.6,1804.2,585.6z"/>
	<path class="st0" d="M1894.9,585.6h-79.4c-3.1,0-5.7-2.5-5.7-5.7V370.2c0-3.1,2.5-5.7,5.7-5.7h79.4c3.1,0,5.7,2.5,5.7,5.7v209.8
		C1900.6,583.1,1898.1,585.6,1894.9,585.6z"/>
	<path class="st0" d="M1260,364.5h-79.4c-3.1,0-5.7-2.5-5.7-5.7V149.1c0-3.1,2.5-5.7,5.7-5.7h79.4c3.1,0,5.7,2.5,5.7,5.7v209.8
		C1265.7,362,1263.1,364.5,1260,364.5z"/>
	<path class="st0" d="M1350.7,364.5h-79.4c-3.1,0-5.7-2.5-5.7-5.7V149.1c0-3.1,2.5-5.7,5.7-5.7h79.4c3.1,0,5.7,2.5,5.7,5.7v209.8
		C1356.4,362,1353.8,364.5,1350.7,364.5z"/>
	<path class="st0" d="M1441.4,364.5H1362c-3.1,0-5.7-2.5-5.7-5.7V149.1c0-3.1,2.5-5.7,5.7-5.7h79.4c3.1,0,5.7,2.5,5.7,5.7v209.8
		C1447.1,362,1444.5,364.5,1441.4,364.5z"/>
	<path class="st0" d="M1532.1,364.5h-79.4c-3.1,0-5.7-2.5-5.7-5.7V149.1c0-3.1,2.5-5.7,5.7-5.7h79.4c3.1,0,5.7,2.5,5.7,5.7v209.8
		C1537.8,362,1535.2,364.5,1532.1,364.5z"/>
	<path class="st0" d="M1622.8,364.5h-79.4c-3.1,0-5.7-2.5-5.7-5.7V149.1c0-3.1,2.5-5.7,5.7-5.7h79.4c3.1,0,5.7,2.5,5.7,5.7v209.8
		C1628.5,362,1626,364.5,1622.8,364.5z"/>
	<path class="st0" d="M1713.5,364.5h-79.4c-3.1,0-5.7-2.5-5.7-5.7V149.1c0-3.1,2.5-5.7,5.7-5.7h79.4c3.1,0,5.7,2.5,5.7,5.7v209.8
		C1719.2,362,1716.7,364.5,1713.5,364.5z"/>
	<path class="st0" d="M1804.2,364.5h-79.4c-3.1,0-5.7-2.5-5.7-5.7V149.1c0-3.1,2.5-5.7,5.7-5.7h79.4c3.1,0,5.7,2.5,5.7,5.7v209.8
		C1809.9,362,1807.4,364.5,1804.2,364.5z"/>
	<path class="st0" d="M1894.9,364.5h-79.4c-3.1,0-5.7-2.5-5.7-5.7V149.1c0-3.1,2.5-5.7,5.7-5.7h79.4c3.1,0,5.7,2.5,5.7,5.7v209.8
		C1900.6,362,1898.1,364.5,1894.9,364.5z"/>
</g>
<g>
	<path class="st0" d="M1205.1,855.7h-53.9c-1.6,0-2.8-1.3-2.8-2.8V680c0-1.6,1.3-2.8,2.8-2.8h53.9c1.6,0,2.8,1.3,2.8,2.8v172.9
		C1207.9,854.5,1206.7,855.7,1205.1,855.7z"/>
	<path class="st0" d="M1264.6,855.7h-53.9c-1.6,0-2.8-1.3-2.8-2.8V680c0-1.6,1.3-2.8,2.8-2.8h53.9c1.6,0,2.8,1.3,2.8,2.8v172.9
		C1267.5,854.5,1266.2,855.7,1264.6,855.7z"/>
	<path class="st0" d="M1324.1,855.7h-53.9c-1.6,0-2.8-1.3-2.8-2.8V680c0-1.6,1.3-2.8,2.8-2.8h53.9c1.6,0,2.8,1.3,2.8,2.8v172.9
		C1327,854.5,1325.7,855.7,1324.1,855.7z"/>
	<path class="st0" d="M1383.7,855.7h-53.9c-1.6,0-2.8-1.3-2.8-2.8V680c0-1.6,1.3-2.8,2.8-2.8h53.9c1.6,0,2.8,1.3,2.8,2.8v172.9
		C1386.5,854.5,1385.2,855.7,1383.7,855.7z"/>
	<path class="st0" d="M1443.2,855.7h-53.9c-1.6,0-2.8-1.3-2.8-2.8V680c0-1.6,1.3-2.8,2.8-2.8h53.9c1.6,0,2.8,1.3,2.8,2.8v172.9
		C1446,854.5,1444.8,855.7,1443.2,855.7z"/>
	<path class="st0" d="M1502.7,855.7h-53.9c-1.6,0-2.8-1.3-2.8-2.8V680c0-1.6,1.3-2.8,2.8-2.8h53.9c1.6,0,2.8,1.3,2.8,2.8v172.9
		C1505.6,854.5,1504.3,855.7,1502.7,855.7z"/>
	<path class="st0" d="M1562.3,855.7h-53.9c-1.6,0-2.8-1.3-2.8-2.8V680c0-1.6,1.3-2.8,2.8-2.8h53.9c1.6,0,2.8,1.3,2.8,2.8v172.9
		C1565.1,854.5,1563.8,855.7,1562.3,855.7z"/>
	<path class="st0" d="M1621.8,855.7h-53.9c-1.6,0-2.8-1.3-2.8-2.8V680c0-1.6,1.3-2.8,2.8-2.8h53.9c1.6,0,2.8,1.3,2.8,2.8v172.9
		C1624.6,854.5,1623.3,855.7,1621.8,855.7z"/>
	<path class="st0" d="M1205.1,1034.3h-53.9c-1.6,0-2.8-1.3-2.8-2.8V858.6c0-1.6,1.3-2.8,2.8-2.8h53.9c1.6,0,2.8,1.3,2.8,2.8v172.9
		C1207.9,1033.1,1206.7,1034.3,1205.1,1034.3z"/>
	<path class="st0" d="M1264.6,1034.3h-53.9c-1.6,0-2.8-1.3-2.8-2.8V858.6c0-1.6,1.3-2.8,2.8-2.8h53.9c1.6,0,2.8,1.3,2.8,2.8v172.9
		C1267.5,1033.1,1266.2,1034.3,1264.6,1034.3z"/>
	<path class="st0" d="M1324.1,1034.3h-53.9c-1.6,0-2.8-1.3-2.8-2.8V858.6c0-1.6,1.3-2.8,2.8-2.8h53.9c1.6,0,2.8,1.3,2.8,2.8v172.9
		C1327,1033.1,1325.7,1034.3,1324.1,1034.3z"/>
	<path class="st0" d="M1383.7,1034.3h-53.9c-1.6,0-2.8-1.3-2.8-2.8V858.6c0-1.6,1.3-2.8,2.8-2.8h53.9c1.6,0,2.8,1.3,2.8,2.8v172.9
		C1386.5,1033.1,1385.2,1034.3,1383.7,1034.3z"/>
	<path class="st0" d="M1443.2,1034.3h-53.9c-1.6,0-2.8-1.3-2.8-2.8V858.6c0-1.6,1.3-2.8,2.8-2.8h53.9c1.6,0,2.8,1.3,2.8,2.8v172.9
		C1446,1033.1,1444.8,1034.3,1443.2,1034.3z"/>
	<path class="st0" d="M1502.7,1034.3h-53.9c-1.6,0-2.8-1.3-2.8-2.8V858.6c0-1.6,1.3-2.8,2.8-2.8h53.9c1.6,0,2.8,1.3,2.8,2.8v172.9
		C1505.6,1033.1,1504.3,1034.3,1502.7,1034.3z"/>
	<path class="st0" d="M1562.3,1034.3h-53.9c-1.6,0-2.8-1.3-2.8-2.8V858.6c0-1.6,1.3-2.8,2.8-2.8h53.9c1.6,0,2.8,1.3,2.8,2.8v172.9
		C1565.1,1033.1,1563.8,1034.3,1562.3,1034.3z"/>
	<path class="st0" d="M1621.8,1034.3h-53.9c-1.6,0-2.8-1.3-2.8-2.8V858.6c0-1.6,1.3-2.8,2.8-2.8h53.9c1.6,0,2.8,1.3,2.8,2.8v172.9
		C1624.6,1033.1,1623.3,1034.3,1621.8,1034.3z"/>
</g>
</svg>
