<?xml version="1.0" encoding="UTF-8" standalone="no"?>
<!-- Created with Inkscape (http://www.inkscape.org/) -->

<svg
   xmlns:dc="http://purl.org/dc/elements/1.1/"
   xmlns:cc="http://creativecommons.org/ns#"
   xmlns:rdf="http://www.w3.org/1999/02/22-rdf-syntax-ns#"
   xmlns:svg="http://www.w3.org/2000/svg"
   xmlns="http://www.w3.org/2000/svg"
   xmlns:sodipodi="http://sodipodi.sourceforge.net/DTD/sodipodi-0.dtd"
   xmlns:inkscape="http://www.inkscape.org/namespaces/inkscape"
   width="210mm"
   height="297mm"
   viewBox="0 0 210 297"
   version="1.1"
   id="svg124"
   inkscape:version="0.92.3 (2405546, 2018-03-11)"
   sodipodi:docname="Lenovo-TP-1.svg">
  <defs
     id="defs118" />
  <sodipodi:namedview
     id="base"
     pagecolor="#ffffff"
     bordercolor="#666666"
     borderopacity="1.0"
     inkscape:pageopacity="0.0"
     inkscape:pageshadow="2"
     inkscape:zoom="0.35"
     inkscape:cx="1399.4076"
     inkscape:cy="626.46959"
     inkscape:document-units="mm"
     inkscape:current-layer="layer1"
     showgrid="false"
     inkscape:snap-bbox="true"
     inkscape:bbox-paths="true"
     inkscape:bbox-nodes="true"
     inkscape:snap-bbox-edge-midpoints="true"
     inkscape:snap-bbox-midpoints="true"
     inkscape:window-width="1680"
     inkscape:window-height="903"
     inkscape:window-x="0"
     inkscape:window-y="28"
     inkscape:window-maximized="1" />
  <metadata
     id="metadata121">
    <rdf:RDF>
      <cc:Work
         rdf:about="">
        <dc:format>image/svg+xml</dc:format>
        <dc:type
           rdf:resource="http://purl.org/dc/dcmitype/StillImage" />
        <dc:title></dc:title>
      </cc:Work>
    </rdf:RDF>
  </metadata>
  <g
     inkscape:label="Layer 1"
     inkscape:groupmode="layer"
     id="layer1">
    <path
       style="opacity:1;vector-effect:none;fill:none;fill-opacity:1;fill-rule:evenodd;stroke:#000000;stroke-width:0.24857157;stroke-linecap:butt;stroke-linejoin:miter;stroke-miterlimit:4;stroke-dasharray:none;stroke-dashoffset:0;stroke-opacity:1"
       d="M 2.9143312,76.765658 V 4.8670705 c 0,-0.7209916 0.7752147,-1.3014186 1.7381497,-1.3014186 H 44.077609 c 0.962935,0 1.73815,0.580427 1.73815,1.3014186 V 76.765658 c 0,0.720987 -0.775215,1.301421 -1.73815,1.301421 H 4.6524809 c -0.962935,0 -1.7381497,-0.580434 -1.7381497,-1.301421 z"
       id="rect126"
       inkscape:connector-curvature="0" />
    <path
       style="opacity:1;vector-effect:none;fill:none;fill-opacity:1;fill-rule:evenodd;stroke:#000000;stroke-width:0.24857157;stroke-linecap:butt;stroke-linejoin:miter;stroke-miterlimit:4;stroke-dasharray:none;stroke-dashoffset:0;stroke-opacity:1"
       d="M 47.122665,76.765658 V 4.8670709 c 0,-0.720992 0.775214,-1.301419 1.738149,-1.301419 h 39.42513 c 0.962935,0 1.738149,0.580427 1.738149,1.301419 V 76.765658 c 0,0.72099 -0.775214,1.301422 -1.738149,1.301422 h -39.42513 c -0.962935,0 -1.738149,-0.580432 -1.738149,-1.301422 z"
       id="rect126-6"
       inkscape:connector-curvature="0" />
    <path
       style="opacity:1;vector-effect:none;fill:none;fill-opacity:1;fill-rule:evenodd;stroke:#000000;stroke-width:0.24857157;stroke-linecap:butt;stroke-linejoin:miter;stroke-miterlimit:4;stroke-dasharray:none;stroke-dashoffset:0;stroke-opacity:1"
       d="M 91.330999,76.765658 V 4.8670709 c 0,-0.720992 0.77521,-1.301419 1.73815,-1.301419 h 39.425131 c 0.96293,0 1.73814,0.580427 1.73814,1.301419 V 76.765658 c 0,0.72099 -0.77521,1.30142 -1.73814,1.30142 H 93.069149 c -0.96294,0 -1.73815,-0.58043 -1.73815,-1.30142 z"
       id="rect126-9"
       inkscape:connector-curvature="0" />
    <path
       style="opacity:1;vector-effect:none;fill:none;fill-opacity:1;fill-rule:evenodd;stroke:#000000;stroke-width:0.24857157;stroke-linecap:butt;stroke-linejoin:miter;stroke-miterlimit:4;stroke-dasharray:none;stroke-dashoffset:0;stroke-opacity:1"
       d="M 135.53933,76.765658 V 4.8670709 c 0,-0.720992 0.77521,-1.301419 1.73815,-1.301419 h 39.42513 c 0.96294,0 1.73815,0.580427 1.73815,1.301419 V 76.765658 c 0,0.72099 -0.77521,1.30142 -1.73815,1.30142 h -39.42513 c -0.96294,0 -1.73815,-0.58043 -1.73815,-1.30142 z"
       id="rect126-6-3"
       inkscape:connector-curvature="0" />
    <path
       style="opacity:1;vector-effect:none;fill:none;fill-opacity:1;fill-rule:evenodd;stroke:#000000;stroke-width:0.24857157;stroke-linecap:butt;stroke-linejoin:miter;stroke-miterlimit:4;stroke-dasharray:none;stroke-dashoffset:0;stroke-opacity:1"
       d="M 179.74767,76.765662 V 4.8670719 c 0,-0.72099 0.77521,-1.30142 1.73815,-1.30142 h 39.42513 c 0.96293,0 1.73815,0.58043 1.73815,1.30142 V 76.765662 c 0,0.72099 -0.77522,1.30142 -1.73815,1.30142 h -39.42513 c -0.96294,0 -1.73815,-0.58043 -1.73815,-1.30142 z"
       id="rect126-7"
       inkscape:connector-curvature="0" />
    <path
       style="opacity:1;vector-effect:none;fill:none;fill-opacity:1;fill-rule:evenodd;stroke:#000000;stroke-width:0.24857157;stroke-linecap:butt;stroke-linejoin:miter;stroke-miterlimit:4;stroke-dasharray:none;stroke-dashoffset:0;stroke-opacity:1"
       d="M 223.956,76.765662 V 4.8670719 c 0,-0.72099 0.77522,-1.30142 1.73815,-1.30142 h 39.42513 c 0.96294,0 1.73815,0.58043 1.73815,1.30142 V 76.765662 c 0,0.72099 -0.77521,1.30142 -1.73815,1.30142 h -39.42513 c -0.96293,0 -1.73815,-0.58043 -1.73815,-1.30142 z"
       id="rect126-6-4"
       inkscape:connector-curvature="0" />
    <path
       style="opacity:1;vector-effect:none;fill:none;fill-opacity:1;fill-rule:evenodd;stroke:#000000;stroke-width:0.24857157;stroke-linecap:butt;stroke-linejoin:miter;stroke-miterlimit:4;stroke-dasharray:none;stroke-dashoffset:0;stroke-opacity:1"
       d="M 268.16434,76.765662 V 4.8670719 c 0,-0.72099 0.77521,-1.30142 1.73815,-1.30142 h 39.42512 c 0.96293,0 1.73815,0.58043 1.73815,1.30142 V 76.765662 c 0,0.72099 -0.77522,1.30142 -1.73815,1.30142 h -39.42512 c -0.96294,0 -1.73815,-0.58043 -1.73815,-1.30142 z"
       id="rect126-9-5"
       inkscape:connector-curvature="0" />
    <path
       style="opacity:1;vector-effect:none;fill:none;fill-opacity:1;fill-rule:evenodd;stroke:#000000;stroke-width:0.24857157;stroke-linecap:butt;stroke-linejoin:miter;stroke-miterlimit:4;stroke-dasharray:none;stroke-dashoffset:0;stroke-opacity:1"
       d="M 312.37266,76.765662 V 4.8670719 c 0,-0.72099 0.77522,-1.30142 1.73816,-1.30142 h 39.42513 c 0.96294,0 1.73815,0.58043 1.73815,1.30142 V 76.765662 c 0,0.72099 -0.77521,1.30142 -1.73815,1.30142 h -39.42513 c -0.96294,0 -1.73816,-0.58043 -1.73816,-1.30142 z"
       id="rect126-6-3-2"
       inkscape:connector-curvature="0" />
    <path
       style="opacity:1;vector-effect:none;fill:none;fill-opacity:1;fill-rule:evenodd;stroke:#000000;stroke-width:0.24857157;stroke-linecap:butt;stroke-linejoin:miter;stroke-miterlimit:4;stroke-dasharray:none;stroke-dashoffset:0;stroke-opacity:1"
       d="M 356.58101,76.765662 V 4.8670719 c 0,-0.72099 0.77522,-1.30142 1.73815,-1.30142 h 39.42512 c 0.96295,0 1.73816,0.58043 1.73816,1.30142 V 76.765662 c 0,0.72099 -0.77521,1.30142 -1.73816,1.30142 h -39.42512 c -0.96293,0 -1.73815,-0.58043 -1.73815,-1.30142 z"
       id="rect126-6-4-5"
       inkscape:connector-curvature="0" />
    <path
       style="opacity:1;vector-effect:none;fill:none;fill-opacity:1;fill-rule:evenodd;stroke:#000000;stroke-width:0.24857157;stroke-linecap:butt;stroke-linejoin:miter;stroke-miterlimit:4;stroke-dasharray:none;stroke-dashoffset:0;stroke-opacity:1"
       d="M 400.78935,76.765662 V 4.8670719 c 0,-0.72099 0.77521,-1.30142 1.73815,-1.30142 h 39.42512 c 0.96293,0 1.73815,0.58043 1.73815,1.30142 V 76.765662 c 0,0.72099 -0.77522,1.30142 -1.73815,1.30142 H 402.5275 c -0.96294,0 -1.73815,-0.58043 -1.73815,-1.30142 z"
       id="rect126-9-5-4"
       inkscape:connector-curvature="0" />
    <path
       style="opacity:1;vector-effect:none;fill:none;fill-opacity:1;fill-rule:evenodd;stroke:#000000;stroke-width:0.24857157;stroke-linecap:butt;stroke-linejoin:miter;stroke-miterlimit:4;stroke-dasharray:none;stroke-dashoffset:0;stroke-opacity:1"
       d="M 444.99767,76.765662 V 4.8670719 c 0,-0.72099 0.77522,-1.30142 1.73816,-1.30142 h 39.42513 c 0.96294,0 1.73815,0.58043 1.73815,1.30142 V 76.765662 c 0,0.72099 -0.77521,1.30142 -1.73815,1.30142 h -39.42513 c -0.96294,0 -1.73816,-0.58043 -1.73816,-1.30142 z"
       id="rect126-6-3-2-7"
       inkscape:connector-curvature="0" />
    <path
       style="opacity:1;vector-effect:none;fill:none;fill-opacity:1;fill-rule:evenodd;stroke:#000000;stroke-width:0.24857157;stroke-linecap:butt;stroke-linejoin:miter;stroke-miterlimit:4;stroke-dasharray:none;stroke-dashoffset:0;stroke-opacity:1"
       d="M 489.20602,76.765663 V 4.8670719 c 0,-0.72099 0.77522,-1.30142 1.73816,-1.30142 h 39.42513 c 0.96294,0 1.73815,0.58043 1.73815,1.30142 V 76.765663 c 0,0.72099 -0.77521,1.30142 -1.73815,1.30142 h -39.42513 c -0.96294,0 -1.73816,-0.58043 -1.73816,-1.30142 z"
       id="rect126-6-3-2-4"
       inkscape:connector-curvature="0" />
    <path
       style="opacity:1;vector-effect:none;fill:none;fill-opacity:1;fill-rule:evenodd;stroke:#000000;stroke-width:0.24857157;stroke-linecap:butt;stroke-linejoin:miter;stroke-miterlimit:4;stroke-dasharray:none;stroke-dashoffset:0;stroke-opacity:1"
       d="M 533.41437,76.765663 V 4.8670719 c 0,-0.72099 0.77522,-1.30142 1.73815,-1.30142 h 39.42512 c 0.96295,0 1.73816,0.58043 1.73816,1.30142 V 76.765663 c 0,0.72099 -0.77521,1.30142 -1.73816,1.30142 h -39.42512 c -0.96293,0 -1.73815,-0.58043 -1.73815,-1.30142 z"
       id="rect126-6-4-5-4"
       inkscape:connector-curvature="0" />
    <path
       style="opacity:1;vector-effect:none;fill:none;fill-opacity:1;fill-rule:evenodd;stroke:#000000;stroke-width:0.24857157;stroke-linecap:butt;stroke-linejoin:miter;stroke-miterlimit:4;stroke-dasharray:none;stroke-dashoffset:0;stroke-opacity:1"
       d="M 577.62271,76.765663 V 4.8670719 c 0,-0.72099 0.77521,-1.30142 1.73815,-1.30142 h 39.42512 c 0.96293,0 1.73815,0.58043 1.73815,1.30142 V 76.765663 c 0,0.72099 -0.77522,1.30142 -1.73815,1.30142 h -39.42512 c -0.96294,0 -1.73815,-0.58043 -1.73815,-1.30142 z"
       id="rect126-9-5-4-3"
       inkscape:connector-curvature="0" />
    <path
       style="opacity:1;vector-effect:none;fill:none;fill-opacity:1;fill-rule:evenodd;stroke:#000000;stroke-width:0.24857157;stroke-linecap:butt;stroke-linejoin:miter;stroke-miterlimit:4;stroke-dasharray:none;stroke-dashoffset:0;stroke-opacity:1"
       d="M 621.83103,76.765663 V 4.8670719 c 0,-0.72099 0.77522,-1.30142 1.73816,-1.30142 h 39.42513 c 0.96294,0 1.73815,0.58043 1.73815,1.30142 V 76.765663 c 0,0.72099 -0.77521,1.30142 -1.73815,1.30142 h -39.42513 c -0.96294,0 -1.73816,-0.58043 -1.73816,-1.30142 z"
       id="rect126-6-3-2-7-0"
       inkscape:connector-curvature="0" />
    <path
       style="opacity:1;vector-effect:none;fill:none;fill-opacity:1;fill-rule:evenodd;stroke:#000000;stroke-width:0.24857157;stroke-linecap:butt;stroke-linejoin:miter;stroke-miterlimit:4;stroke-dasharray:none;stroke-dashoffset:0;stroke-opacity:1"
       d="M 666.03938,76.765662 V 4.8670719 c 0,-0.72099 0.77521,-1.30142 1.73815,-1.30142 h 39.42512 c 0.96293,0 1.73815,0.58043 1.73815,1.30142 V 76.765662 c 0,0.72099 -0.77522,1.30142 -1.73815,1.30142 h -39.42512 c -0.96294,0 -1.73815,-0.58043 -1.73815,-1.30142 z"
       id="rect126-9-5-4-3-7"
       inkscape:connector-curvature="0" />
    <path
       style="opacity:1;vector-effect:none;fill:none;fill-opacity:1;fill-rule:evenodd;stroke:#000000;stroke-width:0.24857157;stroke-linecap:butt;stroke-linejoin:miter;stroke-miterlimit:4;stroke-dasharray:none;stroke-dashoffset:0;stroke-opacity:1"
       d="M 2.9143301,152.574 V 80.675405 c 0,-0.72099 0.77522,-1.30142 1.73815,-1.30142 H 44.07761 c 0.96294,0 1.73815,0.58043 1.73815,1.30142 V 152.574 c 0,0.72099 -0.77521,1.30142 -1.73815,1.30142 H 4.6524801 c -0.96293,0 -1.73815,-0.58043 -1.73815,-1.30142 z"
       id="rect126-68"
       inkscape:connector-curvature="0" />
    <path
       style="opacity:1;vector-effect:none;fill:none;fill-opacity:1;fill-rule:evenodd;stroke:#000000;stroke-width:0.24857157;stroke-linecap:butt;stroke-linejoin:miter;stroke-miterlimit:4;stroke-dasharray:none;stroke-dashoffset:0;stroke-opacity:1"
       d="M 47.12267,152.574 V 80.675405 c 0,-0.72099 0.77521,-1.30142 1.73814,-1.30142 h 39.42514 c 0.96293,0 1.73814,0.58043 1.73814,1.30142 V 152.574 c 0,0.72099 -0.77521,1.30142 -1.73814,1.30142 H 48.86081 c -0.96293,0 -1.73814,-0.58043 -1.73814,-1.30142 z"
       id="rect126-6-8"
       inkscape:connector-curvature="0" />
    <path
       style="opacity:1;vector-effect:none;fill:none;fill-opacity:1;fill-rule:evenodd;stroke:#000000;stroke-width:0.24857157;stroke-linecap:butt;stroke-linejoin:miter;stroke-miterlimit:4;stroke-dasharray:none;stroke-dashoffset:0;stroke-opacity:1"
       d="M 91.331,152.574 V 80.675405 c 0,-0.72099 0.77521,-1.30142 1.73815,-1.30142 h 39.42513 c 0.96293,0 1.73815,0.58043 1.73815,1.30142 V 152.574 c 0,0.72099 -0.77522,1.30142 -1.73815,1.30142 H 93.06915 c -0.96294,0 -1.73815,-0.58043 -1.73815,-1.30142 z"
       id="rect126-9-4"
       inkscape:connector-curvature="0" />
    <path
       style="opacity:1;vector-effect:none;fill:none;fill-opacity:1;fill-rule:evenodd;stroke:#000000;stroke-width:0.24857157;stroke-linecap:butt;stroke-linejoin:miter;stroke-miterlimit:4;stroke-dasharray:none;stroke-dashoffset:0;stroke-opacity:1"
       d="M 135.53933,152.574 V 80.675405 c 0,-0.72099 0.77522,-1.30142 1.73816,-1.30142 h 39.42513 c 0.96294,0 1.73815,0.58043 1.73815,1.30142 V 152.574 c 0,0.72099 -0.77521,1.30142 -1.73815,1.30142 h -39.42513 c -0.96294,0 -1.73816,-0.58043 -1.73816,-1.30142 z"
       id="rect126-6-3-3"
       inkscape:connector-curvature="0" />
    <path
       style="opacity:1;vector-effect:none;fill:none;fill-opacity:1;fill-rule:evenodd;stroke:#000000;stroke-width:0.24857157;stroke-linecap:butt;stroke-linejoin:miter;stroke-miterlimit:4;stroke-dasharray:none;stroke-dashoffset:0;stroke-opacity:1"
       d="M 179.74768,152.574 V 80.675405 c 0,-0.72099 0.77521,-1.30142 1.73815,-1.30142 h 39.42513 c 0.96293,0 1.73815,0.58043 1.73815,1.30142 V 152.574 c 0,0.72099 -0.77522,1.30142 -1.73815,1.30142 h -39.42513 c -0.96294,0 -1.73815,-0.58043 -1.73815,-1.30142 z"
       id="rect126-7-1"
       inkscape:connector-curvature="0" />
    <path
       style="opacity:1;vector-effect:none;fill:none;fill-opacity:1;fill-rule:evenodd;stroke:#000000;stroke-width:0.24857157;stroke-linecap:butt;stroke-linejoin:miter;stroke-miterlimit:4;stroke-dasharray:none;stroke-dashoffset:0;stroke-opacity:1"
       d="M 223.95601,152.574 V 80.675405 c 0,-0.72099 0.77522,-1.30142 1.73815,-1.30142 h 39.42513 c 0.96294,0 1.73815,0.58043 1.73815,1.30142 V 152.574 c 0,0.72099 -0.77521,1.30142 -1.73815,1.30142 h -39.42513 c -0.96293,0 -1.73815,-0.58043 -1.73815,-1.30142 z"
       id="rect126-6-4-4"
       inkscape:connector-curvature="0" />
    <path
       style="opacity:1;vector-effect:none;fill:none;fill-opacity:1;fill-rule:evenodd;stroke:#000000;stroke-width:0.24857157;stroke-linecap:butt;stroke-linejoin:miter;stroke-miterlimit:4;stroke-dasharray:none;stroke-dashoffset:0;stroke-opacity:1"
       d="M 268.16436,152.574 V 80.675405 c 0,-0.72099 0.7752,-1.30142 1.73815,-1.30142 h 39.42511 c 0.96293,0 1.73816,0.58043 1.73816,1.30142 V 152.574 c 0,0.72099 -0.77523,1.30142 -1.73816,1.30142 h -39.42511 c -0.96295,0 -1.73815,-0.58043 -1.73815,-1.30142 z"
       id="rect126-9-5-9"
       inkscape:connector-curvature="0" />
    <path
       style="opacity:1;vector-effect:none;fill:none;fill-opacity:1;fill-rule:evenodd;stroke:#000000;stroke-width:0.24857157;stroke-linecap:butt;stroke-linejoin:miter;stroke-miterlimit:4;stroke-dasharray:none;stroke-dashoffset:0;stroke-opacity:1"
       d="M 312.37266,152.574 V 80.675405 c 0,-0.72099 0.77523,-1.30142 1.73818,-1.30142 h 39.42511 c 0.96295,0 1.73815,0.58043 1.73815,1.30142 V 152.574 c 0,0.72099 -0.7752,1.30142 -1.73815,1.30142 h -39.42511 c -0.96295,0 -1.73818,-0.58043 -1.73818,-1.30142 z"
       id="rect126-6-3-2-2"
       inkscape:connector-curvature="0" />
    <path
       style="opacity:1;vector-effect:none;fill:none;fill-opacity:1;fill-rule:evenodd;stroke:#000000;stroke-width:0.24857157;stroke-linecap:butt;stroke-linejoin:miter;stroke-miterlimit:4;stroke-dasharray:none;stroke-dashoffset:0;stroke-opacity:1"
       d="M 356.58101,152.574 V 80.675405 c 0,-0.72099 0.77523,-1.30142 1.73816,-1.30142 h 39.42511 c 0.96295,0 1.73818,0.58043 1.73818,1.30142 V 152.574 c 0,0.72099 -0.77523,1.30142 -1.73818,1.30142 h -39.42511 c -0.96293,0 -1.73816,-0.58043 -1.73816,-1.30142 z"
       id="rect126-6-4-5-0"
       inkscape:connector-curvature="0" />
    <path
       style="opacity:1;vector-effect:none;fill:none;fill-opacity:1;fill-rule:evenodd;stroke:#000000;stroke-width:0.24857157;stroke-linecap:butt;stroke-linejoin:miter;stroke-miterlimit:4;stroke-dasharray:none;stroke-dashoffset:0;stroke-opacity:1"
       d="M 400.78937,152.574 V 80.675405 c 0,-0.72099 0.7752,-1.30142 1.73813,-1.30142 h 39.42514 c 0.96292,0 1.73815,0.58043 1.73815,1.30142 V 152.574 c 0,0.72099 -0.77523,1.30142 -1.73815,1.30142 H 402.5275 c -0.96293,0 -1.73813,-0.58043 -1.73813,-1.30142 z"
       id="rect126-9-5-4-6"
       inkscape:connector-curvature="0" />
    <path
       style="opacity:1;vector-effect:none;fill:none;fill-opacity:1;fill-rule:evenodd;stroke:#000000;stroke-width:0.24857157;stroke-linecap:butt;stroke-linejoin:miter;stroke-miterlimit:4;stroke-dasharray:none;stroke-dashoffset:0;stroke-opacity:1"
       d="M 444.99767,152.574 V 80.675405 c 0,-0.72099 0.77523,-1.30142 1.73816,-1.30142 h 39.42514 c 0.96295,0 1.73815,0.58043 1.73815,1.30142 V 152.574 c 0,0.72099 -0.7752,1.30142 -1.73815,1.30142 h -39.42514 c -0.96293,0 -1.73816,-0.58043 -1.73816,-1.30142 z"
       id="rect126-6-3-2-7-8"
       inkscape:connector-curvature="0" />
    <path
       style="opacity:1;vector-effect:none;fill:none;fill-opacity:1;fill-rule:evenodd;stroke:#000000;stroke-width:0.24857157;stroke-linecap:butt;stroke-linejoin:miter;stroke-miterlimit:4;stroke-dasharray:none;stroke-dashoffset:0;stroke-opacity:1"
       d="M 489.20603,152.574 V 80.675405 c 0,-0.72099 0.77523,-1.30142 1.73815,-1.30142 h 39.42514 c 0.96295,0 1.73816,0.58043 1.73816,1.30142 V 152.574 c 0,0.721 -0.77521,1.30143 -1.73816,1.30143 h -39.42514 c -0.96292,0 -1.73815,-0.58043 -1.73815,-1.30143 z"
       id="rect126-6-3-2-4-9"
       inkscape:connector-curvature="0" />
    <path
       style="opacity:1;vector-effect:none;fill:none;fill-opacity:1;fill-rule:evenodd;stroke:#000000;stroke-width:0.24857157;stroke-linecap:butt;stroke-linejoin:miter;stroke-miterlimit:4;stroke-dasharray:none;stroke-dashoffset:0;stroke-opacity:1"
       d="M 533.41439,152.574 V 80.675405 c 0,-0.72099 0.7752,-1.30142 1.73815,-1.30142 h 39.42511 c 0.96295,0 1.73816,0.58043 1.73816,1.30142 V 152.574 c 0,0.721 -0.77521,1.30143 -1.73816,1.30143 h -39.42511 c -0.96295,0 -1.73815,-0.58043 -1.73815,-1.30143 z"
       id="rect126-6-4-5-4-2"
       inkscape:connector-curvature="0" />
    <path
       style="opacity:1;vector-effect:none;fill:none;fill-opacity:1;fill-rule:evenodd;stroke:#000000;stroke-width:0.24857157;stroke-linecap:butt;stroke-linejoin:miter;stroke-miterlimit:4;stroke-dasharray:none;stroke-dashoffset:0;stroke-opacity:1"
       d="M 577.62272,152.574 V 80.675405 c 0,-0.72099 0.7752,-1.30142 1.73815,-1.30142 h 39.42508 c 0.963,0 1.7382,0.58043 1.7382,1.30142 V 152.574 c 0,0.721 -0.7752,1.30143 -1.7382,1.30143 h -39.42508 c -0.96295,0 -1.73815,-0.58043 -1.73815,-1.30143 z"
       id="rect126-9-5-4-3-6"
       inkscape:connector-curvature="0" />
    <path
       style="opacity:1;vector-effect:none;fill:none;fill-opacity:1;fill-rule:evenodd;stroke:#000000;stroke-width:0.24857157;stroke-linecap:butt;stroke-linejoin:miter;stroke-miterlimit:4;stroke-dasharray:none;stroke-dashoffset:0;stroke-opacity:1"
       d="M 621.83105,152.574 V 80.675405 c 0,-0.72099 0.7752,-1.30142 1.7381,-1.30142 h 39.4252 c 0.9629,0 1.7381,0.58043 1.7381,1.30142 V 152.574 c 0,0.721 -0.7752,1.30143 -1.7381,1.30143 h -39.4252 c -0.9629,0 -1.7381,-0.58043 -1.7381,-1.30143 z"
       id="rect126-6-3-2-7-0-6"
       inkscape:connector-curvature="0" />
    <path
       style="opacity:1;vector-effect:none;fill:none;fill-opacity:1;fill-rule:evenodd;stroke:#000000;stroke-width:0.24857157;stroke-linecap:butt;stroke-linejoin:miter;stroke-miterlimit:4;stroke-dasharray:none;stroke-dashoffset:0;stroke-opacity:1"
       d="M 666.03935,152.574 V 80.675405 c 0,-0.72099 0.7752,-1.30142 1.7382,-1.30142 h 39.4251 c 0.9629,0 1.7382,0.58043 1.7382,1.30142 V 152.574 c 0,0.72099 -0.7753,1.30142 -1.7382,1.30142 h -39.4251 c -0.963,0 -1.7382,-0.58043 -1.7382,-1.30142 z"
       id="rect126-9-5-4-3-7-4"
       inkscape:connector-curvature="0" />
    <path
       style="opacity:1;vector-effect:none;fill:none;fill-opacity:1;fill-rule:evenodd;stroke:#000000;stroke-width:0.24857157;stroke-linecap:butt;stroke-linejoin:miter;stroke-miterlimit:4;stroke-dasharray:none;stroke-dashoffset:0;stroke-opacity:1"
       d="m 2.91433,228.38234 v -71.89859 c 0,-0.72099 0.77522,-1.30142 1.7381501,-1.30142 H 44.07761 c 0.96294,0 1.73815,0.58043 1.73815,1.30142 v 71.89859 c 0,0.72099 -0.77521,1.30142 -1.73815,1.30142 H 4.6524801 c -0.96293,0 -1.7381501,-0.58043 -1.7381501,-1.30142 z"
       id="rect126-95"
       inkscape:connector-curvature="0" />
    <path
       style="opacity:1;vector-effect:none;fill:none;fill-opacity:1;fill-rule:evenodd;stroke:#000000;stroke-width:0.24857157;stroke-linecap:butt;stroke-linejoin:miter;stroke-miterlimit:4;stroke-dasharray:none;stroke-dashoffset:0;stroke-opacity:1"
       d="m 47.12267,228.38234 v -71.89859 c 0,-0.72099 0.77521,-1.30142 1.73815,-1.30142 h 39.42513 c 0.96293,0 1.73814,0.58043 1.73814,1.30142 v 71.89859 c 0,0.72099 -0.77521,1.30142 -1.73814,1.30142 H 48.86082 c -0.96294,0 -1.73815,-0.58043 -1.73815,-1.30142 z"
       id="rect126-6-0"
       inkscape:connector-curvature="0" />
    <path
       style="opacity:1;vector-effect:none;fill:none;fill-opacity:1;fill-rule:evenodd;stroke:#000000;stroke-width:0.24857157;stroke-linecap:butt;stroke-linejoin:miter;stroke-miterlimit:4;stroke-dasharray:none;stroke-dashoffset:0;stroke-opacity:1"
       d="m 91.331,228.38234 v -71.89859 c 0,-0.72099 0.77521,-1.30142 1.73815,-1.30142 h 39.42514 c 0.96293,0 1.73814,0.58043 1.73814,1.30142 v 71.89859 c 0,0.72099 -0.77521,1.30142 -1.73814,1.30142 H 93.06915 c -0.96294,0 -1.73815,-0.58043 -1.73815,-1.30142 z"
       id="rect126-9-48"
       inkscape:connector-curvature="0" />
    <path
       style="opacity:1;vector-effect:none;fill:none;fill-opacity:1;fill-rule:evenodd;stroke:#000000;stroke-width:0.24857157;stroke-linecap:butt;stroke-linejoin:miter;stroke-miterlimit:4;stroke-dasharray:none;stroke-dashoffset:0;stroke-opacity:1"
       d="m 135.53934,228.38234 v -71.89859 c 0,-0.72099 0.77521,-1.30142 1.73815,-1.30142 h 39.42513 c 0.96294,0 1.73815,0.58043 1.73815,1.30142 v 71.89859 c 0,0.72099 -0.77521,1.30142 -1.73815,1.30142 h -39.42513 c -0.96294,0 -1.73815,-0.58043 -1.73815,-1.30142 z"
       id="rect126-6-3-7"
       inkscape:connector-curvature="0" />
    <path
       style="opacity:1;vector-effect:none;fill:none;fill-opacity:1;fill-rule:evenodd;stroke:#000000;stroke-width:0.24857157;stroke-linecap:butt;stroke-linejoin:miter;stroke-miterlimit:4;stroke-dasharray:none;stroke-dashoffset:0;stroke-opacity:1"
       d="m 179.74768,228.38234 v -71.89859 c 0,-0.72099 0.77521,-1.30142 1.73815,-1.30142 h 39.42513 c 0.96293,0 1.73815,0.58043 1.73815,1.30142 v 71.89859 c 0,0.72099 -0.77522,1.30142 -1.73815,1.30142 h -39.42513 c -0.96294,0 -1.73815,-0.58043 -1.73815,-1.30142 z"
       id="rect126-7-17"
       inkscape:connector-curvature="0" />
    <path
       style="opacity:1;vector-effect:none;fill:none;fill-opacity:1;fill-rule:evenodd;stroke:#000000;stroke-width:0.24857157;stroke-linecap:butt;stroke-linejoin:miter;stroke-miterlimit:4;stroke-dasharray:none;stroke-dashoffset:0;stroke-opacity:1"
       d="m 223.95601,228.38234 v -71.89859 c 0,-0.72099 0.77522,-1.30142 1.73815,-1.30142 h 39.42513 c 0.96294,0 1.73815,0.58043 1.73815,1.30142 v 71.89859 c 0,0.72099 -0.77521,1.30142 -1.73815,1.30142 h -39.42513 c -0.96293,0 -1.73815,-0.58043 -1.73815,-1.30142 z"
       id="rect126-6-4-2"
       inkscape:connector-curvature="0" />
    <path
       style="opacity:1;vector-effect:none;fill:none;fill-opacity:1;fill-rule:evenodd;stroke:#000000;stroke-width:0.24857157;stroke-linecap:butt;stroke-linejoin:miter;stroke-miterlimit:4;stroke-dasharray:none;stroke-dashoffset:0;stroke-opacity:1"
       d="m 268.16436,228.38234 v -71.89859 c 0,-0.72099 0.7752,-1.30142 1.73815,-1.30142 h 39.42511 c 0.96293,0 1.73816,0.58043 1.73816,1.30142 v 71.89859 c 0,0.72099 -0.77523,1.30142 -1.73816,1.30142 h -39.42511 c -0.96295,0 -1.73815,-0.58043 -1.73815,-1.30142 z"
       id="rect126-9-5-7"
       inkscape:connector-curvature="0" />
    <path
       style="opacity:1;vector-effect:none;fill:none;fill-opacity:1;fill-rule:evenodd;stroke:#000000;stroke-width:0.24857157;stroke-linecap:butt;stroke-linejoin:miter;stroke-miterlimit:4;stroke-dasharray:none;stroke-dashoffset:0;stroke-opacity:1"
       d="m 312.37266,228.38234 v -71.89859 c 0,-0.72099 0.77523,-1.30142 1.73818,-1.30142 h 39.42511 c 0.96295,0 1.73815,0.58043 1.73815,1.30142 v 71.89859 c 0,0.72099 -0.7752,1.30142 -1.73815,1.30142 h -39.42511 c -0.96295,0 -1.73818,-0.58043 -1.73818,-1.30142 z"
       id="rect126-6-3-2-22"
       inkscape:connector-curvature="0" />
    <path
       style="opacity:1;vector-effect:none;fill:none;fill-opacity:1;fill-rule:evenodd;stroke:#000000;stroke-width:0.24857157;stroke-linecap:butt;stroke-linejoin:miter;stroke-miterlimit:4;stroke-dasharray:none;stroke-dashoffset:0;stroke-opacity:1"
       d="m 356.58101,228.38234 v -71.89859 c 0,-0.72099 0.77523,-1.30142 1.73816,-1.30142 h 39.42511 c 0.96295,0 1.73818,0.58043 1.73818,1.30142 v 71.89859 c 0,0.72099 -0.77523,1.30142 -1.73818,1.30142 h -39.42511 c -0.96293,0 -1.73816,-0.58043 -1.73816,-1.30142 z"
       id="rect126-6-4-5-6"
       inkscape:connector-curvature="0" />
    <path
       style="opacity:1;vector-effect:none;fill:none;fill-opacity:1;fill-rule:evenodd;stroke:#000000;stroke-width:0.24857157;stroke-linecap:butt;stroke-linejoin:miter;stroke-miterlimit:4;stroke-dasharray:none;stroke-dashoffset:0;stroke-opacity:1"
       d="m 400.78937,228.38234 v -71.89859 c 0,-0.72099 0.7752,-1.30142 1.73813,-1.30142 h 39.42514 c 0.96292,0 1.73815,0.58043 1.73815,1.30142 v 71.89859 c 0,0.72099 -0.77523,1.30142 -1.73815,1.30142 H 402.5275 c -0.96293,0 -1.73813,-0.58043 -1.73813,-1.30142 z"
       id="rect126-9-5-4-1"
       inkscape:connector-curvature="0" />
    <path
       style="opacity:1;vector-effect:none;fill:none;fill-opacity:1;fill-rule:evenodd;stroke:#000000;stroke-width:0.24857157;stroke-linecap:butt;stroke-linejoin:miter;stroke-miterlimit:4;stroke-dasharray:none;stroke-dashoffset:0;stroke-opacity:1"
       d="m 444.99767,228.38234 v -71.89859 c 0,-0.72099 0.77523,-1.30142 1.73816,-1.30142 h 39.42514 c 0.96295,0 1.73815,0.58043 1.73815,1.30142 v 71.89859 c 0,0.72099 -0.7752,1.30142 -1.73815,1.30142 h -39.42514 c -0.96293,0 -1.73816,-0.58043 -1.73816,-1.30142 z"
       id="rect126-6-3-2-7-06"
       inkscape:connector-curvature="0" />
    <path
       style="opacity:1;vector-effect:none;fill:none;fill-opacity:1;fill-rule:evenodd;stroke:#000000;stroke-width:0.24857157;stroke-linecap:butt;stroke-linejoin:miter;stroke-miterlimit:4;stroke-dasharray:none;stroke-dashoffset:0;stroke-opacity:1"
       d="m 489.20603,228.38234 v -71.89859 c 0,-0.72099 0.77523,-1.30142 1.73815,-1.30142 h 39.42514 c 0.96295,0 1.73816,0.58043 1.73816,1.30142 v 71.89859 c 0,0.72099 -0.77521,1.30142 -1.73816,1.30142 h -39.42514 c -0.96292,0 -1.73815,-0.58043 -1.73815,-1.30142 z"
       id="rect126-6-3-2-4-1"
       inkscape:connector-curvature="0" />
    <path
       style="opacity:1;vector-effect:none;fill:none;fill-opacity:1;fill-rule:evenodd;stroke:#000000;stroke-width:0.24857157;stroke-linecap:butt;stroke-linejoin:miter;stroke-miterlimit:4;stroke-dasharray:none;stroke-dashoffset:0;stroke-opacity:1"
       d="m 533.41439,228.38234 v -71.89859 c 0,-0.72099 0.7752,-1.30142 1.73815,-1.30142 h 39.42513 c 0.9629,0 1.7381,0.58043 1.7381,1.30142 v 71.89859 c 0,0.72099 -0.7752,1.30142 -1.7381,1.30142 h -39.42513 c -0.96295,0 -1.73815,-0.58043 -1.73815,-1.30142 z"
       id="rect126-6-4-5-4-5"
       inkscape:connector-curvature="0" />
    <path
       style="opacity:1;vector-effect:none;fill:none;fill-opacity:1;fill-rule:evenodd;stroke:#000000;stroke-width:0.24857157;stroke-linecap:butt;stroke-linejoin:miter;stroke-miterlimit:4;stroke-dasharray:none;stroke-dashoffset:0;stroke-opacity:1"
       d="m 577.62267,228.38234 v -71.89859 c 0,-0.72099 0.7753,-1.30142 1.7382,-1.30142 h 39.4251 c 0.963,0 1.7382,0.58043 1.7382,1.30142 v 71.89859 c 0,0.72099 -0.7752,1.30142 -1.7382,1.30142 h -39.4251 c -0.9629,0 -1.7382,-0.58043 -1.7382,-1.30142 z"
       id="rect126-9-5-4-3-9"
       inkscape:connector-curvature="0" />
    <path
       style="opacity:1;vector-effect:none;fill:none;fill-opacity:1;fill-rule:evenodd;stroke:#000000;stroke-width:0.24857157;stroke-linecap:butt;stroke-linejoin:miter;stroke-miterlimit:4;stroke-dasharray:none;stroke-dashoffset:0;stroke-opacity:1"
       d="m 621.83107,228.38234 v -71.89859 c 0,-0.72099 0.7752,-1.30142 1.7381,-1.30142 h 39.4252 c 0.9629,0 1.7381,0.58043 1.7381,1.30142 v 71.89859 c 0,0.72099 -0.7752,1.30142 -1.7381,1.30142 h -39.4252 c -0.9629,0 -1.7381,-0.58043 -1.7381,-1.30142 z"
       id="rect126-6-3-2-7-0-4"
       inkscape:connector-curvature="0" />
    <path
       style="opacity:1;vector-effect:none;fill:none;fill-opacity:1;fill-rule:evenodd;stroke:#000000;stroke-width:0.24857157;stroke-linecap:butt;stroke-linejoin:miter;stroke-miterlimit:4;stroke-dasharray:none;stroke-dashoffset:0;stroke-opacity:1"
       d="m 666.03937,228.38234 v -71.89859 c 0,-0.72099 0.7752,-1.30142 1.7382,-1.30142 h 39.4251 c 0.9629,0 1.7381,0.58043 1.7381,1.30142 v 71.89859 c 0,0.72099 -0.7752,1.30142 -1.7381,1.30142 h -39.4251 c -0.963,0 -1.7382,-0.58043 -1.7382,-1.30142 z"
       id="rect126-9-5-4-3-7-9"
       inkscape:connector-curvature="0" />
    <path
       style="opacity:1;vector-effect:none;fill:none;fill-opacity:1;fill-rule:evenodd;stroke:#000000;stroke-width:0.24857157;stroke-linecap:butt;stroke-linejoin:miter;stroke-miterlimit:4;stroke-dasharray:none;stroke-dashoffset:0;stroke-opacity:1"
       d="m 2.91433,304.19069 v -71.89861 c 0,-0.72098 0.77522,-1.30141 1.7381501,-1.30141 H 44.07761 c 0.96294,0 1.73815,0.58043 1.73815,1.30141 v 71.89861 c 0,0.72099 -0.77521,1.30142 -1.73815,1.30142 H 4.6524801 c -0.96293,0 -1.7381501,-0.58043 -1.7381501,-1.30142 z"
       id="rect126-68-0"
       inkscape:connector-curvature="0" />
    <path
       style="opacity:1;vector-effect:none;fill:none;fill-opacity:1;fill-rule:evenodd;stroke:#000000;stroke-width:0.24857157;stroke-linecap:butt;stroke-linejoin:miter;stroke-miterlimit:4;stroke-dasharray:none;stroke-dashoffset:0;stroke-opacity:1"
       d="m 47.12267,304.19069 v -71.89861 c 0,-0.72098 0.77521,-1.30141 1.73814,-1.30141 h 39.42514 c 0.96293,0 1.73814,0.58043 1.73814,1.30141 v 71.89861 c 0,0.72099 -0.77521,1.30142 -1.73814,1.30142 H 48.86081 c -0.96293,0 -1.73814,-0.58043 -1.73814,-1.30142 z"
       id="rect126-6-8-9"
       inkscape:connector-curvature="0" />
    <path
       style="opacity:1;vector-effect:none;fill:none;fill-opacity:1;fill-rule:evenodd;stroke:#000000;stroke-width:0.24857157;stroke-linecap:butt;stroke-linejoin:miter;stroke-miterlimit:4;stroke-dasharray:none;stroke-dashoffset:0;stroke-opacity:1"
       d="m 91.331,304.19069 v -71.89861 c 0,-0.72098 0.77521,-1.30141 1.73815,-1.30141 h 39.42514 c 0.96293,0 1.73815,0.58043 1.73815,1.30141 v 71.89861 c 0,0.72099 -0.77522,1.30142 -1.73815,1.30142 H 93.06915 c -0.96294,0 -1.73815,-0.58043 -1.73815,-1.30142 z"
       id="rect126-9-4-1"
       inkscape:connector-curvature="0" />
    <path
       style="opacity:1;vector-effect:none;fill:none;fill-opacity:1;fill-rule:evenodd;stroke:#000000;stroke-width:0.24857157;stroke-linecap:butt;stroke-linejoin:miter;stroke-miterlimit:4;stroke-dasharray:none;stroke-dashoffset:0;stroke-opacity:1"
       d="m 135.53934,304.19069 v -71.89861 c 0,-0.72098 0.77522,-1.30141 1.73816,-1.30141 h 39.42513 c 0.96294,0 1.73815,0.58043 1.73815,1.30141 v 71.89861 c 0,0.72099 -0.77521,1.30142 -1.73815,1.30142 H 137.2775 c -0.96294,0 -1.73816,-0.58043 -1.73816,-1.30142 z"
       id="rect126-6-3-3-7"
       inkscape:connector-curvature="0" />
    <path
       style="opacity:1;vector-effect:none;fill:none;fill-opacity:1;fill-rule:evenodd;stroke:#000000;stroke-width:0.24857157;stroke-linecap:butt;stroke-linejoin:miter;stroke-miterlimit:4;stroke-dasharray:none;stroke-dashoffset:0;stroke-opacity:1"
       d="m 179.74769,304.19069 v -71.89861 c 0,-0.72098 0.77521,-1.30141 1.73815,-1.30141 h 39.42513 c 0.96293,0 1.73815,0.58043 1.73815,1.30141 v 71.89861 c 0,0.72099 -0.77522,1.30142 -1.73815,1.30142 h -39.42513 c -0.96294,0 -1.73815,-0.58043 -1.73815,-1.30142 z"
       id="rect126-7-1-7"
       inkscape:connector-curvature="0" />
    <path
       style="opacity:1;vector-effect:none;fill:none;fill-opacity:1;fill-rule:evenodd;stroke:#000000;stroke-width:0.24857157;stroke-linecap:butt;stroke-linejoin:miter;stroke-miterlimit:4;stroke-dasharray:none;stroke-dashoffset:0;stroke-opacity:1"
       d="m 223.95602,304.19069 v -71.89861 c 0,-0.72098 0.77522,-1.30141 1.73815,-1.30141 h 39.42513 c 0.96294,0 1.73815,0.58043 1.73815,1.30141 v 71.89861 c 0,0.72099 -0.77521,1.30142 -1.73815,1.30142 h -39.42513 c -0.96293,0 -1.73815,-0.58043 -1.73815,-1.30142 z"
       id="rect126-6-4-4-1"
       inkscape:connector-curvature="0" />
    <path
       style="opacity:1;vector-effect:none;fill:none;fill-opacity:1;fill-rule:evenodd;stroke:#000000;stroke-width:0.24857157;stroke-linecap:butt;stroke-linejoin:miter;stroke-miterlimit:4;stroke-dasharray:none;stroke-dashoffset:0;stroke-opacity:1"
       d="m 268.16438,304.19069 v -71.89861 c 0,-0.72098 0.77518,-1.30141 1.73813,-1.30141 h 39.42511 c 0.96293,0 1.73818,0.58043 1.73818,1.30141 v 71.89861 c 0,0.72099 -0.77525,1.30142 -1.73818,1.30142 h -39.42511 c -0.96295,0 -1.73813,-0.58043 -1.73813,-1.30142 z"
       id="rect126-9-5-9-1"
       inkscape:connector-curvature="0" />
    <path
       style="opacity:1;vector-effect:none;fill:none;fill-opacity:1;fill-rule:evenodd;stroke:#000000;stroke-width:0.24857157;stroke-linecap:butt;stroke-linejoin:miter;stroke-miterlimit:4;stroke-dasharray:none;stroke-dashoffset:0;stroke-opacity:1"
       d="m 312.37266,304.19069 v -71.89861 c 0,-0.72098 0.77523,-1.30141 1.73818,-1.30141 h 39.42511 c 0.96295,0 1.73815,0.58043 1.73815,1.30141 v 71.89861 c 0,0.72099 -0.7752,1.30142 -1.73815,1.30142 h -39.42511 c -0.96295,0 -1.73818,-0.58043 -1.73818,-1.30142 z"
       id="rect126-6-3-2-2-5"
       inkscape:connector-curvature="0" />
    <path
       style="opacity:1;vector-effect:none;fill:none;fill-opacity:1;fill-rule:evenodd;stroke:#000000;stroke-width:0.24857157;stroke-linecap:butt;stroke-linejoin:miter;stroke-miterlimit:4;stroke-dasharray:none;stroke-dashoffset:0;stroke-opacity:1"
       d="m 356.58101,304.19069 v -71.89861 c 0,-0.72098 0.77523,-1.30141 1.73816,-1.30141 h 39.42511 c 0.96295,0 1.73818,0.58043 1.73818,1.30141 v 71.89861 c 0,0.72099 -0.77523,1.30142 -1.73818,1.30142 h -39.42511 c -0.96293,0 -1.73816,-0.58043 -1.73816,-1.30142 z"
       id="rect126-6-4-5-0-9"
       inkscape:connector-curvature="0" />
    <path
       style="opacity:1;vector-effect:none;fill:none;fill-opacity:1;fill-rule:evenodd;stroke:#000000;stroke-width:0.24857157;stroke-linecap:butt;stroke-linejoin:miter;stroke-miterlimit:4;stroke-dasharray:none;stroke-dashoffset:0;stroke-opacity:1"
       d="m 400.78937,304.19069 v -71.89861 c 0,-0.72098 0.7752,-1.30141 1.73813,-1.30141 h 39.42516 c 0.9629,0 1.73813,0.58043 1.73813,1.30141 v 71.89861 c 0,0.72099 -0.77523,1.30142 -1.73813,1.30142 H 402.5275 c -0.96293,0 -1.73813,-0.58043 -1.73813,-1.30142 z"
       id="rect126-9-5-4-6-7"
       inkscape:connector-curvature="0" />
    <path
       style="opacity:1;vector-effect:none;fill:none;fill-opacity:1;fill-rule:evenodd;stroke:#000000;stroke-width:0.24857157;stroke-linecap:butt;stroke-linejoin:miter;stroke-miterlimit:4;stroke-dasharray:none;stroke-dashoffset:0;stroke-opacity:1"
       d="m 444.99767,304.19069 v -71.89861 c 0,-0.72098 0.77523,-1.30141 1.73816,-1.30141 h 39.42516 c 0.96295,0 1.73813,0.58043 1.73813,1.30141 v 71.89861 c 0,0.72099 -0.77518,1.30142 -1.73813,1.30142 h -39.42516 c -0.96293,0 -1.73816,-0.58043 -1.73816,-1.30142 z"
       id="rect126-6-3-2-7-8-7"
       inkscape:connector-curvature="0" />
    <path
       style="opacity:1;vector-effect:none;fill:none;fill-opacity:1;fill-rule:evenodd;stroke:#000000;stroke-width:0.24857157;stroke-linecap:butt;stroke-linejoin:miter;stroke-miterlimit:4;stroke-dasharray:none;stroke-dashoffset:0;stroke-opacity:1"
       d="m 489.20603,304.19069 v -71.89861 c 0,-0.72098 0.77523,-1.30141 1.73815,-1.30141 h 39.42514 c 0.96295,0 1.73818,0.58043 1.73818,1.30141 v 71.89861 c 0,0.721 -0.77523,1.30143 -1.73818,1.30143 h -39.42514 c -0.96292,0 -1.73815,-0.58043 -1.73815,-1.30143 z"
       id="rect126-6-3-2-4-9-6"
       inkscape:connector-curvature="0" />
    <path
       style="opacity:1;vector-effect:none;fill:none;fill-opacity:1;fill-rule:evenodd;stroke:#000000;stroke-width:0.24857157;stroke-linecap:butt;stroke-linejoin:miter;stroke-miterlimit:4;stroke-dasharray:none;stroke-dashoffset:0;stroke-opacity:1"
       d="m 533.41441,304.19069 v -71.89861 c 0,-0.72098 0.77518,-1.30141 1.73813,-1.30141 h 39.42513 c 0.9629,0 1.7382,0.58043 1.7382,1.30141 v 71.89861 c 0,0.721 -0.7753,1.30143 -1.7382,1.30143 h -39.42513 c -0.96295,0 -1.73813,-0.58043 -1.73813,-1.30143 z"
       id="rect126-6-4-5-4-2-7"
       inkscape:connector-curvature="0" />
    <path
       style="opacity:1;vector-effect:none;fill:none;fill-opacity:1;fill-rule:evenodd;stroke:#000000;stroke-width:0.24857157;stroke-linecap:butt;stroke-linejoin:miter;stroke-miterlimit:4;stroke-dasharray:none;stroke-dashoffset:0;stroke-opacity:1"
       d="m 577.62277,304.19069 v -71.89861 c 0,-0.72098 0.7752,-1.30141 1.7381,-1.30141 h 39.4251 c 0.963,0 1.7382,0.58043 1.7382,1.30141 v 71.89861 c 0,0.721 -0.7752,1.30143 -1.7382,1.30143 h -39.4251 c -0.9629,0 -1.7381,-0.58043 -1.7381,-1.30143 z"
       id="rect126-9-5-4-3-6-3"
       inkscape:connector-curvature="0" />
    <path
       style="opacity:1;vector-effect:none;fill:none;fill-opacity:1;fill-rule:evenodd;stroke:#000000;stroke-width:0.24857157;stroke-linecap:butt;stroke-linejoin:miter;stroke-miterlimit:4;stroke-dasharray:none;stroke-dashoffset:0;stroke-opacity:1"
       d="m 621.83107,304.19069 v -71.89861 c 0,-0.72098 0.7752,-1.30141 1.7381,-1.30141 h 39.4252 c 0.9629,0 1.7381,0.58043 1.7381,1.30141 v 71.89861 c 0,0.721 -0.7752,1.30143 -1.7381,1.30143 h -39.4252 c -0.9629,0 -1.7381,-0.58043 -1.7381,-1.30143 z"
       id="rect126-6-3-2-7-0-6-6"
       inkscape:connector-curvature="0" />
    <path
       style="opacity:1;vector-effect:none;fill:none;fill-opacity:1;fill-rule:evenodd;stroke:#000000;stroke-width:0.24857157;stroke-linecap:butt;stroke-linejoin:miter;stroke-miterlimit:4;stroke-dasharray:none;stroke-dashoffset:0;stroke-opacity:1"
       d="m 666.03937,304.19069 v -71.89861 c 0,-0.72098 0.7752,-1.30141 1.7382,-1.30141 h 39.4251 c 0.9629,0 1.7382,0.58043 1.7382,1.30141 v 71.89861 c 0,0.72099 -0.7753,1.30142 -1.7382,1.30142 h -39.4251 c -0.963,0 -1.7382,-0.58043 -1.7382,-1.30142 z"
       id="rect126-9-5-4-3-7-4-5"
       inkscape:connector-curvature="0" />
  </g>
</svg>
