<?xml version="1.0" encoding="utf-8"?>
<!-- Generator: Adobe Illustrator 25.2.1, SVG Export Plug-In . SVG Version: 6.00 Build 0)  -->
<svg version="1.1" id="Layer_1" xmlns="http://www.w3.org/2000/svg" xmlns:xlink="http://www.w3.org/1999/xlink" x="0px" y="0px"
	 viewBox="0 0 4280.3 1133.9" style="enable-background:new 0 0 4280.3 1133.9;" xml:space="preserve">
<style type="text/css">
	.st0{fill:none;stroke:#000000;stroke-miterlimit:10;}
</style>
<g>
	<path class="st0" d="M556,695.5H434.1c-1.6,0-2.8-1.3-2.8-2.8v-445c0-1.6,1.3-2.8,2.8-2.8H556c1.6,0,2.8,1.3,2.8,2.8v445
		C558.8,694.2,557.6,695.5,556,695.5z"/>
	<path class="st0" d="M683.6,695.5H561.7c-1.6,0-2.8-1.3-2.8-2.8v-445c0-1.6,1.3-2.8,2.8-2.8h121.9c1.6,0,2.8,1.3,2.8,2.8v445
		C686.4,694.2,685.1,695.5,683.6,695.5z"/>
	<path class="st0" d="M811.1,695.5H689.2c-1.6,0-2.8-1.3-2.8-2.8v-445c0-1.6,1.3-2.8,2.8-2.8h121.9c1.6,0,2.8,1.3,2.8,2.8v445
		C814,694.2,812.7,695.5,811.1,695.5z"/>
	<path class="st0" d="M938.7,695.5H816.8c-1.6,0-2.8-1.3-2.8-2.8v-445c0-1.6,1.3-2.8,2.8-2.8h121.9c1.6,0,2.8,1.3,2.8,2.8v445
		C941.5,694.2,940.2,695.5,938.7,695.5z"/>
	<path class="st0" d="M1066.2,695.5H944.4c-1.6,0-2.8-1.3-2.8-2.8v-445c0-1.6,1.3-2.8,2.8-2.8h121.9c1.6,0,2.8,1.3,2.8,2.8v445
		C1069.1,694.2,1067.8,695.5,1066.2,695.5z"/>
	<path class="st0" d="M1193.8,695.5h-121.9c-1.6,0-2.8-1.3-2.8-2.8v-445c0-1.6,1.3-2.8,2.8-2.8h121.9c1.6,0,2.8,1.3,2.8,2.8v445
		C1196.6,694.2,1195.4,695.5,1193.8,695.5z"/>
	<path class="st0" d="M1321.4,695.5h-121.9c-1.6,0-2.8-1.3-2.8-2.8v-445c0-1.6,1.3-2.8,2.8-2.8h121.9c1.6,0,2.8,1.3,2.8,2.8v445
		C1324.2,694.2,1322.9,695.5,1321.4,695.5z"/>
	<path class="st0" d="M1448.9,695.5H1327c-1.6,0-2.8-1.3-2.8-2.8v-445c0-1.6,1.3-2.8,2.8-2.8h121.9c1.6,0,2.8,1.3,2.8,2.8v445
		C1451.8,694.2,1450.5,695.5,1448.9,695.5z"/>
	<path class="st0" d="M556,1146.2H434.1c-1.6,0-2.8-1.3-2.8-2.8v-445c0-1.6,1.3-2.8,2.8-2.8H556c1.6,0,2.8,1.3,2.8,2.8v445
		C558.8,1144.9,557.6,1146.2,556,1146.2z"/>
	<path class="st0" d="M683.6,1146.2H561.7c-1.6,0-2.8-1.3-2.8-2.8v-445c0-1.6,1.3-2.8,2.8-2.8h121.9c1.6,0,2.8,1.3,2.8,2.8v445
		C686.4,1144.9,685.1,1146.2,683.6,1146.2z"/>
	<path class="st0" d="M811.1,1146.2H689.2c-1.6,0-2.8-1.3-2.8-2.8v-445c0-1.6,1.3-2.8,2.8-2.8h121.9c1.6,0,2.8,1.3,2.8,2.8v445
		C814,1144.9,812.7,1146.2,811.1,1146.2z"/>
	<path class="st0" d="M938.7,1146.2H816.8c-1.6,0-2.8-1.3-2.8-2.8v-445c0-1.6,1.3-2.8,2.8-2.8h121.9c1.6,0,2.8,1.3,2.8,2.8v445
		C941.5,1144.9,940.2,1146.2,938.7,1146.2z"/>
	<path class="st0" d="M1066.2,1146.2H944.4c-1.6,0-2.8-1.3-2.8-2.8v-445c0-1.6,1.3-2.8,2.8-2.8h121.9c1.6,0,2.8,1.3,2.8,2.8v445
		C1069.1,1144.9,1067.8,1146.2,1066.2,1146.2z"/>
	<path class="st0" d="M1193.8,1146.2h-121.9c-1.6,0-2.8-1.3-2.8-2.8v-445c0-1.6,1.3-2.8,2.8-2.8h121.9c1.6,0,2.8,1.3,2.8,2.8v445
		C1196.6,1144.9,1195.4,1146.2,1193.8,1146.2z"/>
	<path class="st0" d="M1321.4,1146.2h-121.9c-1.6,0-2.8-1.3-2.8-2.8v-445c0-1.6,1.3-2.8,2.8-2.8h121.9c1.6,0,2.8,1.3,2.8,2.8v445
		C1324.2,1144.9,1322.9,1146.2,1321.4,1146.2z"/>
	<path class="st0" d="M1448.9,1146.2H1327c-1.6,0-2.8-1.3-2.8-2.8v-445c0-1.6,1.3-2.8,2.8-2.8h121.9c1.6,0,2.8,1.3,2.8,2.8v445
		C1451.8,1144.9,1450.5,1146.2,1448.9,1146.2z"/>
</g>
</svg>
