<?xml version="1.0" encoding="utf-8"?>
<!-- Generator: Adobe Illustrator 25.4.1, SVG Export Plug-In . SVG Version: 6.00 Build 0)  -->
<svg version="1.1" id="Layer_1" xmlns="http://www.w3.org/2000/svg" xmlns:xlink="http://www.w3.org/1999/xlink" x="0px" y="0px"
	 viewBox="0 0 4280.3 1133.9" style="enable-background:new 0 0 4280.3 1133.9;" xml:space="preserve">
<style type="text/css">
	.st0{fill:none;stroke:#000000;stroke-miterlimit:10;}
</style>
<path class="st0" d="M167.1,1008h-19.8c-0.8,0-1.4-0.6-1.4-1.4V51.3c0-0.8,0.6-1.4,1.4-1.4h19.8c0.8,0,1.4,0.6,1.4,1.4v955.3
	C168.5,1007.4,167.9,1008,167.1,1008z"/>
<path class="st0" d="M189.8,1008h-19.8c-0.8,0-1.4-0.6-1.4-1.4V51.3c0-0.8,0.6-1.4,1.4-1.4h19.8c0.8,0,1.4,0.6,1.4,1.4v955.3
	C191.2,1007.4,190.5,1008,189.8,1008z"/>
<path class="st0" d="M212.5,1008h-19.8c-0.8,0-1.4-0.6-1.4-1.4V51.3c0-0.8,0.6-1.4,1.4-1.4h19.8c0.8,0,1.4,0.6,1.4,1.4v955.3
	C213.9,1007.4,213.3,1008,212.5,1008z"/>
<path class="st0" d="M235.2,1008h-19.8c-0.8,0-1.4-0.6-1.4-1.4V51.3c0-0.8,0.6-1.4,1.4-1.4h19.8c0.8,0,1.4,0.6,1.4,1.4v955.3
	C236.6,1007.4,235.9,1008,235.2,1008z"/>
<path class="st0" d="M257.4,1008h-19.8c-0.8,0-1.4-0.6-1.4-1.4V51.3c0-0.8,0.6-1.4,1.4-1.4h19.8c0.8,0,1.4,0.6,1.4,1.4v955.3
	C258.8,1007.4,258.2,1008,257.4,1008z"/>
<path class="st0" d="M280.1,1008h-19.8c-0.8,0-1.4-0.6-1.4-1.4V51.3c0-0.8,0.6-1.4,1.4-1.4h19.8c0.8,0,1.4,0.6,1.4,1.4v955.3
	C281.5,1007.4,280.9,1008,280.1,1008z"/>
<path class="st0" d="M302.8,1008H283c-0.8,0-1.4-0.6-1.4-1.4V51.3c0-0.8,0.6-1.4,1.4-1.4h19.8c0.8,0,1.4,0.6,1.4,1.4v955.3
	C304.2,1007.4,303.6,1008,302.8,1008z"/>
<path class="st0" d="M325.5,1008h-19.8c-0.8,0-1.4-0.6-1.4-1.4V51.3c0-0.8,0.6-1.4,1.4-1.4h19.8c0.8,0,1.4,0.6,1.4,1.4v955.3
	C326.9,1007.4,326.3,1008,325.5,1008z"/>
</svg>
