<?xml version="1.0" encoding="utf-8"?>
<!-- Generator: Adobe Illustrator 25.2.0, SVG Export Plug-In . SVG Version: 6.00 Build 0)  -->
<svg version="1.1" id="Layer_1" xmlns="http://www.w3.org/2000/svg" xmlns:xlink="http://www.w3.org/1999/xlink" x="0px" y="0px"
	 viewBox="0 0 4280.3 1133.9" style="enable-background:new 0 0 4280.3 1133.9;" xml:space="preserve">
<style type="text/css">
	.st0{fill:none;stroke:#07060B;stroke-miterlimit:11.3386;}
</style>
<g>
	<path id="rect833" class="st0" d="M50.4,498.7l-0.6-234.4c0-14.1,11.4-25.5,25.6-25.5h538.5v25.5v812.5v25.5H75.4
		c-14.2,0-25.6-11.4-25.6-25.5L50.4,784"/>
	<path id="rect835" class="st0" d="M596.3,303.1v734.6c0,9.4-7.6,17-17,17H276.5c-9.4,0-17-7.6-17-17V303.1c0-9.4,7.6-17,17-17
		h302.8C588.7,286.1,596.3,293.6,596.3,303.1z"/>
	<path id="rect841" class="st0" d="M50.4,498.7h191.5c1.6,0,2.8,1.3,2.8,2.8v279.6c0,1.6-1.3,2.8-2.8,2.8H50.4"/>
	<path id="path845" class="st0" d="M562.5,1095c-9.1,0-16.5-7.4-16.5-16.5s7.4-16.5,16.5-16.5s16.5,7.4,16.5,16.5
		C579.1,1087.6,571.7,1095,562.5,1095z"/>
	<path id="path849" class="st0" d="M604.6,890.9c-1.3,0-2.3-1-2.3-2.3s1-2.3,2.3-2.3s2.3,1,2.3,2.3S605.9,890.9,604.6,890.9z"/>
	<path id="rect851" class="st0" d="M240.3,505.5v271.1c0,1.6-1.3,2.8-2.8,2.8H99.4c-1.6,0-2.8-1.3-2.8-2.8V505.5
		c0-1.6,1.3-2.8,2.8-2.8h138.1C239,502.7,240.3,503.9,240.3,505.5L240.3,505.5z"/>
	<path id="rect853" class="st0" d="M92.4,505.3v126.6c0,1.6-1.3,2.8-2.8,2.8H62.2c-1.6,0-2.8-1.3-2.8-2.8V505.3
		c0-1.6,1.3-2.8,2.8-2.8h27.4C91.2,502.4,92.4,503.7,92.4,505.3z"/>
	<path id="rect853-1" class="st0" d="M92.4,645v126.6c0,1.6-1.3,2.8-2.8,2.8H62.2c-1.6,0-2.8-1.3-2.8-2.8V645c0-1.6,1.3-2.8,2.8-2.8
		h27.4C91.2,642.2,92.4,643.4,92.4,645z"/>
</g>
</svg>
