<?xml version="1.0" encoding="utf-8"?>
<!-- Generator: Adobe Illustrator 25.2.0, SVG Export Plug-In . SVG Version: 6.00 Build 0)  -->
<svg version="1.1" id="Layer_1" xmlns="http://www.w3.org/2000/svg" xmlns:xlink="http://www.w3.org/1999/xlink" x="0px" y="0px"
	 viewBox="0 0 4280.3 1133.9" style="enable-background:new 0 0 4280.3 1133.9;" xml:space="preserve">
<style type="text/css">
	.st0{fill:none;stroke:#07060B;stroke-miterlimit:11.3386;}
</style>
<g>
	<path id="rect833" class="st0" d="M1363.4,498.7l-0.6-234.4c0-14.1,11.4-25.5,25.6-25.5h538.5l0,25.5v812.5l0,25.5h-538.5
		c-14.2,0-25.6-11.4-25.6-25.5l0.6-292.8"/>
	<path id="rect835" class="st0" d="M1909.3,303.1v734.6c0,9.4-7.6,17-17,17h-302.8c-9.4,0-17-7.6-17-17V303.1c0-9.4,7.6-17,17-17
		h302.8C1901.7,286.1,1909.3,293.6,1909.3,303.1z"/>
	<path id="rect841" class="st0" d="M1363.4,498.7h191.5c1.6,0,2.8,1.3,2.8,2.8v279.6c0,1.6-1.3,2.8-2.8,2.8h-191.5"/>
	<path id="rect843" class="st0" d="M1430.8,1007.7v44.9c0,1.7-1.3,3.1-2.9,3.1h-25.3c-1.6,0-2.9-1.4-2.9-3.1v-44.9
		c0-1.7,1.3-3.1,2.9-3.1h25.3C1429.5,1004.6,1430.8,1006,1430.8,1007.7z"/>
	<path id="path845" class="st0" d="M1875.5,1095c-9.1,0-16.5-7.4-16.5-16.5c0-9.1,7.4-16.5,16.5-16.5s16.5,7.4,16.5,16.5
		C1892.1,1087.6,1884.7,1095,1875.5,1095z"/>
	<path id="path849" class="st0" d="M1917.6,890.9c-1.3,0-2.3-1-2.3-2.3s1-2.3,2.3-2.3s2.3,1,2.3,2.3S1918.9,890.9,1917.6,890.9z"/>
	<path id="rect851" class="st0" d="M1553.3,505.5v271.1c0,1.6-1.3,2.8-2.8,2.8h-138.1c-1.6,0-2.8-1.3-2.8-2.8V505.5
		c0-1.6,1.3-2.8,2.8-2.8h138.1C1552,502.7,1553.3,503.9,1553.3,505.5L1553.3,505.5z"/>
	<path id="rect853" class="st0" d="M1405.4,505.3v126.6c0,1.6-1.3,2.8-2.8,2.8h-27.4c-1.6,0-2.8-1.3-2.8-2.8V505.3
		c0-1.6,1.3-2.8,2.8-2.8h27.4C1404.2,502.4,1405.4,503.7,1405.4,505.3z"/>
	<path id="rect853-1" class="st0" d="M1405.4,645v126.6c0,1.6-1.3,2.8-2.8,2.8h-27.4c-1.6,0-2.8-1.3-2.8-2.8V645
		c0-1.6,1.3-2.8,2.8-2.8h27.4C1404.2,642.2,1405.4,643.4,1405.4,645z"/>
</g>
</svg>
