<?xml version="1.0" encoding="utf-8"?>
<!-- Generator: Adobe Illustrator 25.2.1, SVG Export Plug-In . SVG Version: 6.00 Build 0)  -->
<svg version="1.1" id="Layer_1" xmlns="http://www.w3.org/2000/svg" xmlns:xlink="http://www.w3.org/1999/xlink" x="0px" y="0px"
	 viewBox="0 0 4280.3 1133.9" style="enable-background:new 0 0 4280.3 1133.9;" xml:space="preserve">
<style type="text/css">
	.st0{fill:none;stroke:#000000;stroke-miterlimit:10;}
</style>
<g>
	<path class="st0" d="M156.1,422.5l0.4-254.4c0-11,8.9-19.8,19.9-19.8h504c11,0,19.9,8.9,19.9,19.8v822c0,11-8.9,19.8-19.9,19.8
		h-504c-11,0-19.9-8.9-19.9-19.8l-0.4-337.3"/>
	<path class="st0" d="M313.7,983.4"/>
	<g>
		<path class="st0" d="M341.4,422.5L341,175.9c0-3.1,2.5-5.7,5.7-5.7h306.1c3.1,0,5.7,2.5,5.7,5.7v806.5c0,3.1-2.5,5.7-5.7,5.7H341"
			/>
		<line class="st0" x1="341" y1="812.2" x2="341.4" y2="652.8"/>
		<path class="st0" d="M341,988h-34c-3.1,0-5.7-2.5-5.7-5.7V817.9c0-3.1,2.5-5.7,5.7-5.7h34"/>
		<path class="st0" d="M341,812.2"/>
	</g>
	<line class="st0" x1="342.4" y1="652.8" x2="157.3" y2="652.8"/>
	<path class="st0" d="M342.4,652.8"/>
	<path class="st0" d="M342.4,422.5"/>
	<line class="st0" x1="157.3" y1="422.5" x2="342.4" y2="422.5"/>
	<path class="st0" d="M157.3,422.5"/>
	<path class="st0" d="M157.3,652.8"/>
	<g>
		<path class="st0" d="M171.2,534.2v-102c0-1.6,1.3-2.8,2.8-2.8h34c1.6,0,2.8,1.3,2.8,2.8v102c0,1.6-1.3,2.8-2.8,2.8h-34
			C172.4,537,171.2,535.7,171.2,534.2z"/>
		<path class="st0" d="M210.9,648.2V427.1c0-1.6,1.3-2.8,2.8-2.8h104.9c1.6,0,2.8,1.3,2.8,2.8v221.1c0,1.6-1.3,2.8-2.8,2.8H213.7
			C212.1,651,210.9,649.8,210.9,648.2z"/>
		<path class="st0" d="M171.2,642.1v-102c0-1.6,1.3-2.8,2.8-2.8h34c1.6,0,2.8,1.3,2.8,2.8v102c0,1.6-1.3,2.8-2.8,2.8h-34
			C172.4,645,171.2,643.7,171.2,642.1z"/>
	</g>
	<path class="st0" d="M663.6,933.4v-25.5c0-1.6,1.3-2.8,2.8-2.8H692c1.6,0,2.8,1.3,2.8,2.8v25.5c0,1.6-1.3,2.8-2.8,2.8h-25.5
		C664.9,936.3,663.6,935,663.6,933.4z"/>
	<path class="st0" d="M666.2,307v-85c0-1.6,1.3-2.8,2.8-2.8h19.8c1.6,0,2.8,1.3,2.8,2.8v85c0,1.6-1.3,2.8-2.8,2.8h-19.8
		C667.5,309.8,666.2,308.5,666.2,307z"/>
	<circle class="st0" cx="679.2" cy="370.7" r="7.1"/>
	<circle class="st0" cx="679.2" cy="395" r="7.1"/>
	<circle class="st0" cx="679.2" cy="419.3" r="7.1"/>
</g>
</svg>
