<?xml version="1.0" encoding="utf-8"?>
<!-- Generator: Adobe Illustrator 25.3.1, SVG Export Plug-In . SVG Version: 6.00 Build 0)  -->
<svg version="1.1"
	 id="svg815" inkscape:version="0.92.3 (2405546, 2018-03-11)" xmlns:cc="http://creativecommons.org/ns#" xmlns:dc="http://purl.org/dc/elements/1.1/" xmlns:inkscape="http://www.inkscape.org/namespaces/inkscape" xmlns:rdf="http://www.w3.org/1999/02/22-rdf-syntax-ns#" xmlns:sodipodi="http://sodipodi.sourceforge.net/DTD/sodipodi-0.dtd" xmlns:svg="http://www.w3.org/2000/svg"
	 xmlns="http://www.w3.org/2000/svg" xmlns:xlink="http://www.w3.org/1999/xlink" x="0px" y="0px" viewBox="0 0 2383.9 1683.8"
	 style="enable-background:new 0 0 2383.9 1683.8;" xml:space="preserve">
<style type="text/css">
	.st0{fill:none;stroke:#000000;stroke-miterlimit:3;}
</style>
<sodipodi:namedview  bordercolor="#666666" borderopacity="1" gridtolerance="10" guidetolerance="10" id="namedview817" inkscape:current-layer="layer3" inkscape:cx="466.69081" inkscape:cy="875.71599" inkscape:guide-bbox="true" inkscape:pageopacity="0" inkscape:pageshadow="2" inkscape:window-height="1017" inkscape:window-maximized="1" inkscape:window-width="1920" inkscape:window-x="-8" inkscape:window-y="-8" inkscape:zoom="0.38266667" objecttolerance="10" pagecolor="#ffffff" showgrid="false" showguides="true" units="mm">
	</sodipodi:namedview>
<g id="layer1" inkscape:groupmode="layer" inkscape:label="Layer 1">
</g>
<g id="layer2" inkscape:groupmode="layer" inkscape:label="Layer 2">
</g>
<g>
	<g id="layer3" inkscape:groupmode="layer" inkscape:label="Layer 3">
		<g id="g1502">
			<g id="g1441">
				<path id="rect1370" inkscape:connector-curvature="0" class="st0" d="M393.2,727.6h809.7c14.1,0,25.5,11.4,25.5,25.5v497.5
					c0,14.1-11.4,25.5-25.5,25.5H393.2c-14.1,0-25.5-11.4-25.5-25.5V753.1C367.7,739,379.1,727.6,393.2,727.6z"/>
				<path id="rect1377" inkscape:connector-curvature="0" class="st0" d="M635,1083.9h248.4c3.1,0,5.7,2.5,5.7,5.7v171.9
					c0,3.1-2.5,5.7-5.7,5.7H635c-3.1,0-5.7-2.5-5.7-5.7v-171.9C629.3,1086.5,631.8,1083.9,635,1083.9z"/>
				<path id="rect1382" inkscape:connector-curvature="0" class="st0" d="M640.3,1089.2h237.1c3.1,0,5.7,2.5,5.7,5.7v115.2
					c0,3.1-2.5,5.7-5.7,5.7H640.3c-3.1,0-5.7-2.5-5.7-5.7v-115.2C634.7,1091.8,637.2,1089.2,640.3,1089.2z"/>
				<path id="rect1384" inkscape:connector-curvature="0" class="st0" d="M640.1,1224.2h113.8c1.6,0,2.8,1.3,2.8,2.8v28.8
					c0,1.6-1.3,2.8-2.8,2.8H640.1c-1.6,0-2.8-1.3-2.8-2.8v-28.8C637.3,1225.5,638.5,1224.2,640.1,1224.2z"/>
				<path id="rect1384-8" inkscape:connector-curvature="0" class="st0" d="M765.6,1224.2h113.8c1.6,0,2.8,1.3,2.8,2.8v28.8
					c0,1.6-1.3,2.8-2.8,2.8H765.6c-1.6,0-2.8-1.3-2.8-2.8v-28.8C762.7,1225.5,764,1224.2,765.6,1224.2z"/>
				<path id="path1401" inkscape:connector-curvature="0" sodipodi:nodetypes="cc" class="st0" d="M367.5,1053l15.7,0"/>
				<path id="path1401-6" inkscape:connector-curvature="0" sodipodi:nodetypes="cc" class="st0" d="M1212.8,1084.4l15.6,0"/>
				<path id="rect1418" inkscape:connector-curvature="0" sodipodi:nodetypes="cssssssc" class="st0" d="M1016.9,1073.6l-619.4,0
					c-7.9,0-14.2-6.3-14.2-14.2V762.8c0-7.9,6.3-14.2,14.2-14.2h801.2c7.9,0,14.2,6.3,14.2,14.2v296.6"/>
				<path id="rect1422" inkscape:connector-curvature="0" sodipodi:nodetypes="cssssc" class="st0" d="M1212.9,1059.4v30.5
					c0,7.9-6.3,14.2-14.2,14.2H1031c-7.9,0-14.2-6.3-14.2-14.2v-16.3"/>
			</g>
			<path id="rect1443" class="st0" d="M409.3,730.4H499c1.6,0,2.8,1.3,2.8,2.8v10.3c0,1.6-1.3,2.8-2.8,2.8h-89.7
				c-1.6,0-2.8-1.3-2.8-2.8v-10.3C406.4,731.6,407.7,730.4,409.3,730.4z"/>
			<path id="rect1443-2" class="st0" d="M1049,730.2h41.5c1.6,0,2.8,1.3,2.8,2.8v10.3c0,1.6-1.3,2.8-2.8,2.8H1049
				c-1.6,0-2.8-1.3-2.8-2.8v-10.3C1046.2,731.5,1047.4,730.2,1049,730.2z"/>
			<path id="path1462" class="st0" d="M951.5,738c0,3.6-2.9,6.6-6.6,6.6s-6.6-2.9-6.6-6.6c0-3.6,2.9-6.6,6.6-6.6c0,0,0,0,0,0
				C948.6,731.4,951.5,734.4,951.5,738C951.5,738,951.5,738,951.5,738z"/>
			<path id="path1462-6" class="st0" d="M979.9,738c0,3.6-2.9,6.6-6.6,6.6s-6.6-2.9-6.6-6.6c0-3.6,2.9-6.6,6.6-6.6c0,0,0,0,0,0
				C976.9,731.5,979.9,734.4,979.9,738C979.9,738,979.9,738,979.9,738z"/>
			<path id="path1462-65" class="st0" d="M1008.3,738c0,3.6-2.9,6.6-6.6,6.6c0,0,0,0,0,0c-3.6,0-6.6-2.9-6.6-6.6c0,0,0,0,0,0
				c0-3.6,2.9-6.6,6.6-6.6S1008.3,734.3,1008.3,738z"/>
		</g>
	</g>
	<path class="st0" d="M1200.1,1241.4h-45.4c-1.6,0-2.8-1.3-2.8-2.8v-31.2c0-1.6,1.3-2.8,2.8-2.8h45.4c1.6,0,2.8,1.3,2.8,2.8v31.2
		C1202.9,1240.2,1201.6,1241.4,1200.1,1241.4z"/>
</g>
</svg>
