<?xml version="1.0" encoding="utf-8"?>
<!-- Generator: Adobe Illustrator 25.2.0, SVG Export Plug-In . SVG Version: 6.00 Build 0)  -->
<svg version="1.1" id="Layer_1" xmlns="http://www.w3.org/2000/svg" xmlns:xlink="http://www.w3.org/1999/xlink" x="0px" y="0px"
	 viewBox="0 0 4280.3 1133.9" style="enable-background:new 0 0 4280.3 1133.9;" xml:space="preserve">
<style type="text/css">
	.st0{fill:none;stroke:#010101;stroke-width:1;stroke-miterlimit:11.3386;}
</style>
<g>
	<path id="rect840" class="st0" d="M627.6,193.8v815.4c0,14.1-11.4,25.5-25.6,25.5H91.9c-14.2,0-25.6-11.4-25.6-25.5V193.8
		c0-14.1,11.4-25.5,25.6-25.5H602C616.2,168.3,627.6,179.7,627.6,193.8z"/>
	<path id="rect843" class="st0" d="M607.4,232.9v738.2c0,9.5-7.6,17.1-17.1,17.1H287.2c-9.5,0-17.1-7.6-17.1-17.1V232.9
		c0-9.5,7.6-17.1,17.1-17.1h303.2C599.8,215.7,607.4,223.4,607.4,232.9z"/>
	<path id="path845" class="st0" d="M588.1,1027.3c-9,0-16.3-7.3-16.3-16.3c0-9,7.3-16.3,16.3-16.3c0,0,0,0,0,0
		c9,0,16.3,7.3,16.3,16.3l0,0C604.4,1020,597.1,1027.3,588.1,1027.3z"/>
	<path id="rect847" class="st0" d="M260,432.2V707c0,3.2-2.5,5.7-5.7,5.7H76.4c-3.1,0-5.7-2.6-5.7-5.7V432.2c0-3.2,2.5-5.7,5.7-5.7
		h177.9C257.5,426.5,260,429.1,260,432.2z"/>
	<path id="path851" class="st0" d="M617.7,824.1c-3.6,0-6.6-2.9-6.6-6.6s3-6.6,6.6-6.6c3.6,0,6.6,2.9,6.6,6.6c0,0,0,0,0,0
		C624.3,821.2,621.4,824.1,617.7,824.1C617.7,824.1,617.7,824.1,617.7,824.1z"/>
	<path id="path851-9" class="st0" d="M617.7,850c-3.6,0-6.6-2.9-6.6-6.6c0,0,0,0,0,0c0-3.6,3-6.6,6.6-6.6c0,0,0,0,0,0
		c3.6,0,6.6,2.9,6.6,6.6S621.4,850,617.7,850z"/>
	<path id="path851-3" class="st0" d="M617.7,877.7c-3.6,0-6.6-2.9-6.6-6.6c0,0,0,0,0,0c0-3.6,3-6.6,6.6-6.6c0,0,0,0,0,0
		c3.6,0,6.6,2.9,6.6,6.6C624.3,874.8,621.4,877.7,617.7,877.7C617.7,877.7,617.7,877.7,617.7,877.7z"/>
	<path id="rect874" class="st0" d="M256.7,430.4v276.8H112.8V430.4H256.7z"/>
	<path id="rect883" class="st0" d="M108.3,430.4v135.1H75.2V430.4H108.3z"/>
	<path id="rect883-9" class="st0" d="M108.8,568.9V704H75.8V568.9H108.8z"/>
</g>
</svg>
