<?xml version="1.0" encoding="utf-8"?>
<!-- Generator: Adobe Illustrator 25.2.0, SVG Export Plug-In . SVG Version: 6.00 Build 0)  -->
<svg version="1.1" id="Layer_1" xmlns="http://www.w3.org/2000/svg" xmlns:xlink="http://www.w3.org/1999/xlink" x="0px" y="0px"
	 viewBox="0 0 4280.3 1133.9" style="enable-background:new 0 0 4280.3 1133.9;" xml:space="preserve">
<style type="text/css">
	.st0{fill:none;stroke:#010101;stroke-miterlimit:11.3386;}
</style>
<g>
	<path id="rect840" class="st0" d="M652.4,170.1v815.4c0,14.1-11.4,25.5-25.6,25.5H116.7c-14.2,0-25.6-11.4-25.6-25.5V170.1
		c0-14.1,11.4-25.5,25.6-25.5h510.1C641,144.6,652.4,156,652.4,170.1z"/>
	<path id="rect843" class="st0" d="M632.2,209.8v736.3c0,9.5-7.6,17.1-17.1,17.1H312c-9.5,0-17.1-7.6-17.1-17.1V209.8
		c0-9.5,7.6-17.1,17.1-17.1h303.2C624.6,192.7,632.2,200.4,632.2,209.8z"/>
	<path id="path845" class="st0" d="M612.9,1003.6c-9,0-16.3-7.3-16.3-16.3s7.3-16.3,16.3-16.3l0,0c9,0,16.3,7.3,16.3,16.3l0,0
		C629.2,996.3,621.9,1003.6,612.9,1003.6z"/>
	<path id="rect847" class="st0" d="M284.8,408.5v274.8c0,3.2-2.5,5.7-5.7,5.7H101.2c-3.1,0-5.7-2.6-5.7-5.7V408.5
		c0-3.2,2.5-5.7,5.7-5.7h177.9C282.3,402.8,284.8,405.4,284.8,408.5z"/>
	<path id="path851" class="st0" d="M642.5,800.4c-3.6,0-6.6-2.9-6.6-6.6s3-6.6,6.6-6.6s6.6,2.9,6.6,6.6l0,0
		C649.1,797.5,646.2,800.4,642.5,800.4L642.5,800.4z"/>
	<path id="path851-9" class="st0" d="M642.5,826.3c-3.6,0-6.6-2.9-6.6-6.6l0,0c0-3.6,3-6.6,6.6-6.6l0,0c3.6,0,6.6,2.9,6.6,6.6
		S646.2,826.3,642.5,826.3z"/>
	<path id="path851-3" class="st0" d="M642.5,854c-3.6,0-6.6-2.9-6.6-6.6l0,0c0-3.6,3-6.6,6.6-6.6l0,0c3.6,0,6.6,2.9,6.6,6.6
		S646.2,854,642.5,854L642.5,854z"/>
	<path id="rect874" class="st0" d="M281.5,406.7v276.8H137.6V406.7H281.5z"/>
	<path id="rect883" class="st0" d="M133.1,406.7v135.1H100V406.7H133.1z"/>
	<path id="rect883-9" class="st0" d="M133.6,545.2v135.1h-33V545.2H133.6z"/>
	<path class="st0" d="M136.3,943v-46.8c0-1.6,1.3-2.8,2.8-2.8h25.5c1.6,0,2.8,1.3,2.8,2.8V943c0,1.6-1.3,2.8-2.8,2.8h-25.5
		C137.6,945.8,136.3,944.6,136.3,943z"/>
</g>
</svg>
