<?xml version="1.0" encoding="utf-8"?>
<!-- Generator: Adobe Illustrator 25.3.1, SVG Export Plug-In . SVG Version: 6.00 Build 0)  -->
<svg version="1.1"
	 id="svg829" inkscape:version="0.92.3 (2405546, 2018-03-11)" xmlns:cc="http://creativecommons.org/ns#" xmlns:dc="http://purl.org/dc/elements/1.1/" xmlns:inkscape="http://www.inkscape.org/namespaces/inkscape" xmlns:rdf="http://www.w3.org/1999/02/22-rdf-syntax-ns#" xmlns:sodipodi="http://sodipodi.sourceforge.net/DTD/sodipodi-0.dtd" xmlns:svg="http://www.w3.org/2000/svg"
	 xmlns="http://www.w3.org/2000/svg" xmlns:xlink="http://www.w3.org/1999/xlink" x="0px" y="0px" viewBox="0 0 864 1700.8"
	 style="enable-background:new 0 0 864 1700.8;" xml:space="preserve">
<style type="text/css">
	.st0{fill:none;stroke:#000000;stroke-width:1;stroke-miterlimit:11.3386;}
</style>
<sodipodi:namedview  bordercolor="#666666" borderopacity="1" gridtolerance="10" guidetolerance="10" id="namedview831" inkscape:current-layer="layer4" inkscape:cx="614.65243" inkscape:cy="848.76142" inkscape:guide-bbox="true" inkscape:pageopacity="0" inkscape:pageshadow="2" inkscape:window-height="1017" inkscape:window-maximized="1" inkscape:window-width="1920" inkscape:window-x="-8" inkscape:window-y="-8" inkscape:zoom="0.37482639" objecttolerance="10" pagecolor="#ffffff" showgrid="false" showguides="true">
	</sodipodi:namedview>
<g id="layer1" inkscape:groupmode="layer" inkscape:label="Layer 1">
</g>
<g id="layer2" inkscape:groupmode="layer" inkscape:label="Layer 2">
</g>
<g id="layer3" inkscape:groupmode="layer" inkscape:label="Layer 3">
</g>
<g id="layer4" inkscape:groupmode="layer" inkscape:label="Layer 4">
	<g id="g917">
		<path id="rect840" class="st0" d="M-88.1,502.2h815.4c14.1,0,25.5,11.4,25.5,25.5V1045c0,14.1-11.4,25.5-25.5,25.5H-88.1
			c-14.1,0-25.5-11.4-25.5-25.5V527.7C-113.6,513.6-102.2,502.2-88.1,502.2z"/>
		<path id="rect843" class="st0" d="M-46.5,522.6h733.2c9.4,0,17,7.6,17,17v302.3c0,9.4-7.6,17-17,17H-46.5c-9.4,0-17-7.6-17-17
			V539.6C-63.5,530.2-55.9,522.6-46.5,522.6z"/>
		<path id="path845" class="st0" d="M744.2,541.7c0,8.3-6.8,15.1-15.1,15.1S714,550,714,541.7c0,0,0,0,0,0c0-8.3,6.8-15.1,15.1-15.1
			l0,0C737.4,526.6,744.2,533.3,744.2,541.7z"/>
		<path id="rect847" class="st0" d="M151.2,872.2h271.1c3.1,0,5.7,2.5,5.7,5.7v177.6c0,3.1-2.5,5.7-5.7,5.7H151.2
			c-3.1,0-5.7-2.5-5.7-5.7V877.8C145.5,874.7,148,872.2,151.2,872.2z"/>
		<path id="path851" class="st0" d="M540.2,512.1c0,3.6-2.9,6.6-6.6,6.6s-6.6-2.9-6.6-6.6c0-3.6,2.9-6.6,6.6-6.6c0,0,0,0,0,0
			C537.3,505.5,540.2,508.4,540.2,512.1C540.2,512.1,540.2,512.1,540.2,512.1z"/>
		<path id="path851-9" class="st0" d="M566.1,512.1c0,3.6-2.9,6.6-6.6,6.6c0,0,0,0,0,0c-3.6,0-6.6-2.9-6.6-6.6c0,0,0,0,0,0
			c0-3.6,2.9-6.6,6.6-6.6S566.1,508.4,566.1,512.1z"/>
		<path id="path851-3" class="st0" d="M593.8,512.1c0,3.6-2.9,6.6-6.6,6.6c0,0,0,0,0,0c-3.6,0-6.6-2.9-6.6-6.6c0,0,0,0,0,0
			c0-3.6,2.9-6.6,6.6-6.6S593.8,508.4,593.8,512.1C593.8,512.1,593.8,512.1,593.8,512.1z"/>
		<path id="rect874" class="st0" d="M148.5,875.5h276.8v143.6H148.5V875.5z"/>
		<path id="rect883" class="st0" d="M148.5,1023.6h135.1v33H148.5V1023.6z"/>
		<path id="rect883-9" class="st0" d="M287,1023.1h135.1v33H287L287,1023.1z"/>
	</g>
</g>
</svg>
