<?xml version="1.0" encoding="utf-8"?>
<!-- Generator: Adobe Illustrator 25.4.0, SVG Export Plug-In . SVG Version: 6.00 Build 0)  -->
<svg version="1.1" id="Layer_1" xmlns="http://www.w3.org/2000/svg" xmlns:xlink="http://www.w3.org/1999/xlink" x="0px" y="0px"
	 viewBox="0 0 864 1700.8" style="enable-background:new 0 0 864 1700.8;" xml:space="preserve">
<style type="text/css">
	.st0{fill:none;stroke:#000000;stroke-linecap:round;stroke-linejoin:round;stroke-miterlimit:11.3386;}
</style>
<g>
	<g>
		<path class="st0" d="M-167.9,484.4l3.6,0.1c36,0.6,157.6,0.8,436.8,0.7c307.1-0.1,407.1-0.2,435-0.7l0.4-0.1"/>
		<path class="st0" d="M707.7,484.4l0.1,33.4C708,553.7,708,623,708,758.1c0,298.9,0.2,280.9-3,287.3c-3.6,7.2-8.9,11.8-17,15
			l-4.3,1.7l-413.6,0l-413.6,0l-3.9-1.4c-2.2-0.8-4.6-1.9-5.4-2.5c-0.8-0.6-2.2-1.5-3.1-1.9c-3.3-1.8-8-8.4-10.2-14.6l-1.6-4.4
			l0-277.8v-275"/>
		<path class="st0" d="M634.8,823.1c0.6-0.2,1.6-1.1,2.1-2c0.8-1.4,0.9-3.4,0.8-12.7c-0.1-6.1-0.2-26.6-0.1-45.5
			c0-19,0.1-36.5,0-38.9c0-2.4,0-21,0-41.2c0.1-51.4,0.1-61.9-0.2-111.6l-0.2-43.8l-1.6-1.8l-1.6-1.8H268.8
			c-330.1,0-365.3,0.1-366.1,0.9c-0.8,0.8-0.9,14.7-0.9,140c0,138.7,0,139.1,1.2,140.3c1.2,1.2,1.3,1.2,285.7,1.3
			c195.6,0.1,284.7,0.3,285.2,0.8c0.3,0.3,0.7,3.7,0.9,7.5c0.2,3.8,0.5,7.1,0.7,7.4c1.6,1.6,7.6,1.7,81.8,1.6
			C599.3,823.5,634.1,823.3,634.8,823.1L634.8,823.1z"/>
		<path class="st0" d="M678.2,556.3c3.9-2.1,5.7-3.6,7.5-6.3c3.3-5,3.2-12.3-0.3-17.5c-2.3-3.4-3.9-4.7-7.9-6.2
			c-5.9-2.2-11.5-1.3-15.9,2.7c-3.9,3.5-5.3,6.5-5.6,11.7c-0.2,3.5-0.1,4.6,1,6.9c2.1,4.4,6.9,8.8,10.7,9.7
			C671.6,558.3,675.2,557.9,678.2,556.3L678.2,556.3z"/>
		<path class="st0" d="M382.3,1050.2c1.2,0,2.2-1.5,2.2-3.2V857.9c0-1.8-1-3.2-2.2-3.2h-282c-1.2,0-2.2,1.5-2.2,3.2V1047
			c0,1.8,1,3.2,2.2,3.2H382.3z"/>
		<path class="st0" d="M379.9,1002.8c1.2,0,2.2-1.8,2.2-4V862.2c0-2.2-1-4-2.2-4H103.7c-1.2,0-2.2,1.8-2.2,4v136.7c0,2.2,1,4,2.2,4
			H379.9z"/>
		<path class="st0" d="M375.8,1044.9c2.6,0,4.8-2.9,4.8-6.4v-21.3c0-3.5-2.1-6.4-4.8-6.4H249.3c-2.6,0-4.8,2.9-4.8,6.4v21.3
			c0,3.5,2.1,6.4,4.8,6.4H375.8z"/>
		<path class="st0" d="M233.3,1044.9c2.6,0,4.8-2.9,4.8-6.4v-21.3c0-3.5-2.1-6.4-4.8-6.4H106.8c-2.6,0-4.8,2.9-4.8,6.4v21.3
			c0,3.5,2.1,6.4,4.8,6.4H233.3z"/>
	</g>
	<path class="st0" d="M676.4,962.7h-36.9c-3.1,0-5.7-2.5-5.7-5.7v-51c0-3.1,2.5-5.7,5.7-5.7h36.9c3.1,0,5.7,2.5,5.7,5.7v51
		C682,960.1,679.5,962.7,676.4,962.7z"/>
</g>
</svg>
