<?xml version="1.0" encoding="utf-8"?>
<!DOCTYPE svg PUBLIC "-//W3C//DTD SVG 1.1//EN" "http://www.w3.org/Graphics/SVG/1.1/DTD/svg11.dtd">
<!-- exported from Silhouette Studio® Business Edition V4.3.370ssbe -->
<svg version="1.1" xmlns="http://www.w3.org/2000/svg" xmlns:xlink="http://www.w3.org/1999/xlink" width="304.8mm" height="600mm" viewBox="0 0 304.8 600">
<defs/>
<path d="M -59.2356 170.8741 L -57.97339 170.9163 C -45.26349 171.1169 -2.369568 171.2153 96.12781 171.1795 C 204.4745 171.1403 239.7588 171.1097 249.5877 170.941 L 249.7143 170.9232" fill="none" fill-opacity="1" stroke="#000000" stroke-opacity="1" stroke-width="0.3527778" stroke-linecap="round" stroke-linejoin="round"/>
<path d="M 249.6783 170.8875 L 249.7101 182.6712 C 249.7583 195.3303 249.759 219.7908 249.7555 267.4318 C 249.7478 372.865 249.8143 366.5419 248.6891 368.7704 C 247.4121 371.2987 245.5582 372.927 242.681 374.0464 L 241.1617 374.6375 L 95.24677 374.6331 L -50.66821 374.6288 L -52.05859 374.1331 C -52.82336 373.8605 -53.68512 373.4679 -53.97333 373.2607 C -54.26166 373.0536 -54.75623 372.7447 -55.07208 372.5746 C -56.23669 371.9472 -57.87677 369.5986 -58.67871 367.4107 L -59.24335 365.87 L -59.24323 267.879 L -59.24323 170.8658" fill="none" fill-opacity="1" stroke="#000000" stroke-opacity="1" stroke-width="0.3527778" stroke-linecap="round" stroke-linejoin="round"/>
<path d="M 223.934 290.3814 C 224.1596 290.3224 224.4941 290.0047 224.6773 289.6754 C 224.9597 289.1676 225.0007 288.4839 224.9461 285.1826 C 224.9106 283.0409 224.8919 275.8114 224.9046 269.1171 C 224.9171 262.4228 224.9234 256.2494 224.9184 255.3984 C 224.9134 254.5474 224.92 248.0027 224.933 240.8545 C 224.9661 222.7342 224.961 219.0086 224.8787 201.4792 L 224.8062 186.0343 L 224.2347 185.388 L 223.6632 184.7417 L 94.82465 184.7417 C -21.63549 184.7417 -34.04443 184.7727 -34.3324 185.0636 C -34.61926 185.3535 -34.65015 190.2661 -34.64343 234.4684 C -34.63598 283.3983 -34.63458 283.5527 -34.22443 283.9673 C -33.81311 284.383 -33.76586 284.3831 66.57196 284.4365 C 135.5652 284.4732 167.0232 284.5569 167.1693 284.704 C 167.2862 284.8217 167.4277 286.02 167.4839 287.367 C 167.54 288.714 167.6534 289.8839 167.7358 289.9671 C 168.2932 290.5296 170.4034 290.5708 196.5887 290.5304 C 211.403 290.5074 223.7084 290.4404 223.934 290.3814 L 223.934 290.3814 Z" fill="none" fill-opacity="1" stroke="#000000" stroke-opacity="1" stroke-width="0.3527778" stroke-linecap="round" stroke-linejoin="round"/>
<path d="M 239.2498 196.2652 C 240.6392 195.5222 241.2721 194.9935 241.9025 194.0494 C 243.075 192.2934 243.0336 189.7148 241.8034 187.8731 C 240.9986 186.668 240.4106 186.2047 239.0194 185.6787 C 236.9428 184.8936 234.9763 185.2324 233.4236 186.6431 C 232.0471 187.8936 231.5508 188.9196 231.4318 190.7602 C 231.3519 191.9968 231.4108 192.3958 231.7907 193.1888 C 232.5426 194.7583 234.2362 196.2956 235.5689 196.6186 C 236.9281 196.948 238.2019 196.8257 239.2498 196.2652 L 239.2498 196.2652 Z" fill="none" fill-opacity="1" stroke="#000000" stroke-opacity="1" stroke-width="0.3527778" stroke-linecap="round" stroke-linejoin="round"/>
<path d="M 134.8668 370.4991 C 135.2896 370.4991 135.633 369.9857 135.633 369.3537 L 135.633 302.6446 C 135.633 302.0125 135.2896 301.4991 134.8668 301.4991 L 35.39804 301.4991 C 34.97525 301.4991 34.63187 302.0125 34.63187 302.6446 L 34.63187 369.3537 C 34.63187 369.9857 34.97525 370.4991 35.39804 370.4991 L 134.8668 370.4991 Z" fill="none" fill-opacity="1" stroke="#000000" stroke-opacity="1" stroke-width="0.3527778" stroke-linecap="round" stroke-linejoin="round"/>
<path d="M 134.0197 353.7604 C 134.4557 353.7604 134.8098 353.1346 134.8098 352.3644 L 134.8098 304.1563 C 134.8098 303.386 134.4557 302.7603 134.0197 302.7603 L 36.60025 302.7603 C 36.16428 302.7603 35.81009 303.386 35.81009 304.1563 L 35.81009 352.3644 C 35.81009 353.1346 36.16428 353.7604 36.60025 353.7604 L 134.0197 353.7604 Z" fill="none" fill-opacity="1" stroke="#000000" stroke-opacity="1" stroke-width="0.3527778" stroke-linecap="round" stroke-linejoin="round"/>
<path d="M 132.5835 368.6111 C 133.5109 368.6111 134.2643 367.6047 134.2643 366.366 L 134.2643 358.856 C 134.2643 357.6172 133.5109 356.6109 132.5835 356.6109 L 87.94558 356.6109 C 87.0182 356.6109 86.26489 357.6172 86.26489 358.856 L 86.26489 366.366 C 86.26489 367.6047 87.0182 368.6111 87.94558 368.6111 L 132.5835 368.6111 Z" fill="none" fill-opacity="1" stroke="#000000" stroke-opacity="1" stroke-width="0.3527778" stroke-linecap="round" stroke-linejoin="round"/>
<path d="M 82.31904 368.6111 C 83.24643 368.6111 83.99976 367.6047 83.99976 366.3659 L 83.99976 358.856 C 83.99976 357.6172 83.24643 356.611 82.31904 356.611 L 37.68069 356.611 C 36.7533 356.611 35.99998 357.6172 35.99998 358.856 L 35.99998 366.3659 C 35.99998 367.6047 36.7533 368.6111 37.68069 368.6111 L 82.31904 368.6111 Z" fill="none" fill-opacity="1" stroke="#000000" stroke-opacity="1" stroke-width="0.3527778" stroke-linecap="round" stroke-linejoin="round"/>
</svg>