<?xml version="1.0" encoding="utf-8"?>
<!-- Generator: Adobe Illustrator 25.3.0, SVG Export Plug-In . SVG Version: 6.00 Build 0)  -->
<svg version="1.1" id="Layer_1" xmlns="http://www.w3.org/2000/svg" xmlns:xlink="http://www.w3.org/1999/xlink" x="0px" y="0px"
	 viewBox="0 0 4280.3 1133.9" style="enable-background:new 0 0 4280.3 1133.9;" xml:space="preserve">
<style type="text/css">
	.st0{fill:none;stroke:#010101;stroke-linecap:round;stroke-linejoin:round;stroke-miterlimit:11.3386;}
</style>
<g>
	<path class="st0" d="M1093.2,981.4c-187.3,0-215.4,0.3-221.8-2.9c-7.2-3.6-11.8-8.9-15-17l-1.7-4.3l0-413.6l0-413.6l1.4-3.9
		c0.8-2.2,1.9-4.6,2.5-5.4c0.6-0.8,1.5-2.2,1.9-3.1c1.8-3.3,8.4-8,14.6-10.2l4.4-1.6l232.2-0.1"/>
	<path class="st0" d="M1093.6,908.4L1093.6,908.4"/>
	<path class="st0" d="M1093.2,830.9c0.1,42-0.2,149.9,0,150.6"/>
	<path class="st0" d="M1094.8,749.1c-1.6,1.6-1.7,7.6-1.6,81.8"/>
	<path class="st0" d="M1102.2,748.4c-3.8,0.2-7.1,0.5-7.4,0.7"/>
	<path class="st0" d="M1109.7,747.5c-0.3,0.3-3.7,0.7-7.5,0.9"/>
	<path class="st0" d="M1110.5,462.3c-0.1,195.6-0.3,284.7-0.8,285.2"/>
	<path class="st0" d="M1111.8,105.6c0,0-0.7,141.7-1.3,356.7"/>
	<path class="st0" d="M866.5,655.9c0,1.2,1.5,2.2,3.2,2.2h189.1c1.8,0,3.2-1,3.2-2.2V374c0-1.2-1.5-2.2-3.2-2.2H869.8
		c-1.8,0-3.2,1-3.2,2.2V655.9z"/>
	<path class="st0" d="M914,653.5c0,1.2,1.8,2.2,4,2.2h136.7c2.2,0,4-1,4-2.2V377.4c0-1.2-1.8-2.2-4-2.2H917.9c-2.2,0-4,1-4,2.2
		V653.5z"/>
	<path class="st0" d="M871.9,649.4c0,2.6,2.9,4.8,6.4,4.8h21.3c3.5,0,6.4-2.1,6.4-4.8V522.9c0-2.6-2.9-4.8-6.4-4.8h-21.3
		c-3.5,0-6.4,2.1-6.4,4.8V649.4z"/>
	<path class="st0" d="M871.9,507c0,2.6,2.9,4.8,6.4,4.8h21.3c3.5,0,6.4-2.1,6.4-4.8V380.4c0-2.6-2.9-4.8-6.4-4.8h-21.3
		c-3.5,0-6.4,2.1-6.4,4.8V507z"/>
</g>
</svg>
