<?xml version="1.0" encoding="utf-8"?>
<!DOCTYPE svg PUBLIC "-//W3C//DTD SVG 1.1//EN" "http://www.w3.org/Graphics/SVG/1.1/DTD/svg11.dtd">
<!-- exported from Silhouette Studio® Business Edition V4.2.471ssbe -->
<svg version="1.1" xmlns="http://www.w3.org/2000/svg" xmlns:xlink="http://www.w3.org/1999/xlink" width="304.8mm" height="600mm" viewBox="0 0 304.8 600">
<defs/>
<path d="M -23.06499 275.6803 L -22.62868 275.2439 L -22.62868 271.8208 C -22.62868 269.6668 -22.56593 268.2096 -22.4594 267.8902 C -22.23619 267.2211 -21.57596 266.5368 -20.68629 266.0525 L -19.96466 265.6596 L -3.195313 265.7 L 13.57404 265.7404 L 14.41901 266.3015 C 15.08984 266.7469 15.34869 267.0391 15.67542 267.7198 C 16.07938 268.5614 16.08807 268.6386 16.1507 271.9363 C 16.19803 274.4308 16.26862 275.4012 16.42499 275.7061 L 16.63559 276.1167 L 128.7958 276.1167 L 240.956 276.1167 L 241.34 275.7807 L 241.7239 275.4449 L 241.7285 272.4264 C 241.7354 267.8992 241.8925 267.3412 243.4719 266.2369 L 244.1819 265.7404 L 261.0605 265.7404 L 277.9391 265.7404 L 278.6677 266.1911 C 279.115 266.4676 279.6271 266.9785 279.994 267.5142 L 280.5917 268.3867 L 280.5971 271.7665 C 280.6014 274.48 280.647 275.2345 280.8285 275.5941 L 281.0545 276.042 L 286.4908 276.0683 C 291.4841 276.0924 291.9705 276.0725 292.4593 275.823 C 293.2266 275.4313 293.4591 275.1114 293.7242 274.0833 C 293.9379 273.2542 293.9564 262.369 293.9234 156.5726 L 293.887 39.97552 L 293.3307 39.13742 C 292.7261 38.22659 292.7011 38.21591 290.8694 38.08261 C 289.9772 38.0177 288.9725 38.1492 288.7629 38.35831 C 288.7079 38.4133 288.6292 41.49857 288.5882 45.21445 L 288.5135 51.97055 L 287.8419 53.06161 C 287.2866 53.9635 287.0096 54.2489 286.2444 54.70786 C 285.7352 55.01324 285.0635 55.30527 284.7517 55.35678 C 284.4398 55.40833 214.2049 55.4512 128.674 55.45212 C -12.09421 55.45361 -26.91307 55.43158 -27.6416 55.21976 C -28.93942 54.84238 -29.77299 54.18304 -30.46008 52.99036 L -31.06213 51.94528 L -31.13676 45.22687 C -31.17783 41.53174 -31.26576 38.42444 -31.33217 38.32178 C -31.4962 38.0683 -34.50398 38.07019 -35.01765 38.32404 C -35.2229 38.42548 -35.54161 38.81204 -35.72592 39.18317 L -36.061 39.85794 L -36.05602 156.8303 C -36.05326 221.1651 -35.99568 274.0868 -35.92802 274.4344 C -35.78099 275.1897 -35.58572 275.4479 -34.87903 275.8216 C -34.38553 276.0825 -33.94359 276.104 -28.92363 276.1101 L -23.50133 276.1167 L -23.06499 275.6803 Z" fill="none" fill-opacity="1" stroke="#000000" stroke-opacity="1" stroke-width="0.3527778" stroke-linecap="round" stroke-linejoin="round"/>
<path d="M 284.5792 52.40579 C 284.8572 52.28961 285.3087 51.91565 285.5825 51.57474 L 286.0805 50.9549 L 286.0774 44.80975 C 286.0742 38.66864 286.0741 38.66449 285.7474 38.39987 C 285.4522 38.16083 285.0263 38.13516 281.3694 38.13583 C 279.1415 38.13623 208.6871 38.1347 124.8041 38.13235 C 21.85014 38.12952 -27.80232 38.17737 -27.99352 38.27972 C -28.40588 38.50046 -28.46312 39.49179 -28.41615 45.59998 C -28.37741 50.63919 -28.36029 50.92584 -28.06856 51.42258 C -27.8998 51.7099 -27.49677 52.09515 -27.17296 52.27853 L -26.58423 52.61209 L 128.7447 52.61456 C 262.3303 52.61667 284.1444 52.58746 284.5792 52.40579 Z" fill="none" fill-opacity="1" stroke="#000000" stroke-opacity="1" stroke-width="0.3527778" stroke-linecap="round" stroke-linejoin="round"/>
<path d="M 141.3493 138.2103 C 141.5195 138.113 141.8259 137.7776 142.0304 137.4648 L 142.4021 136.896 L 142.3927 130.1029 L 142.3833 123.3098 L 142.0445 122.7648 C 141.8581 122.465 141.5894 122.1743 141.4474 122.1186 C 141.1188 121.9899 116.3134 122.0018 115.9772 122.1308 C 115.8395 122.1837 115.5918 122.4917 115.4267 122.8154 C 115.1389 123.3796 115.1265 123.685 115.1276 130.1917 L 115.1287 136.9794 L 115.5509 137.6096 C 115.8935 138.1208 116.0849 138.258 116.5654 138.337 C 116.8911 138.3906 122.5311 138.4237 129.0988 138.4107 C 137.9828 138.3931 141.1192 138.3417 141.3493 138.2103 Z" fill="none" fill-opacity="1" stroke="#000000" stroke-opacity="1" stroke-width="0.3527778" stroke-linecap="round" stroke-linejoin="round"/>
</svg>