<?xml version="1.0" encoding="utf-8"?>
<!DOCTYPE svg PUBLIC "-//W3C//DTD SVG 1.1//EN" "http://www.w3.org/Graphics/SVG/1.1/DTD/svg11.dtd">
<!-- exported from Silhouette Studio® Business Edition V4.2.471ssbe -->
<svg version="1.1" xmlns="http://www.w3.org/2000/svg" xmlns:xlink="http://www.w3.org/1999/xlink" width="304.8mm" height="600mm" viewBox="0 0 304.8 600">
<defs/>
<path d="M 9.963333 220.7473 C 10.3022 220.6171 10.58757 219.7079 10.58757 218.7585 C 10.58757 217.9506 10.63977 217.79 11.09718 217.1906 C 11.37746 216.8232 11.75079 216.4402 11.92683 216.3396 C 12.17717 216.1964 14.80737 216.1516 24.00595 216.134 C 30.47348 216.1216 36.34943 216.1474 37.06363 216.1914 C 38.3512 216.2708 38.36722 216.2762 38.96024 216.8655 C 39.51675 217.4185 39.56479 217.53 39.65146 218.4686 C 39.81183 220.2055 39.85535 220.3554 40.2619 220.5731 C 40.58859 220.7481 60.74399 220.7769 183.0854 220.7769 C 314.6065 220.7769 325.5492 220.7588 325.7963 220.5412 C 325.9435 220.4117 326.2055 220.2626 326.3784 220.2099 C 326.5547 220.1563 326.9037 219.7518 327.172 219.2904 L 327.6511 218.4667 L 327.6958 186.6295 C 327.7205 169.1191 327.6996 154.3909 327.6494 153.9004 C 327.5642 153.0667 327.5293 152.9984 327.1142 152.8536 C 326.4523 152.6227 -1.379623 152.6354 -1.886185 152.8664 L -2.253677 153.0338 L -2.274506 184.2343 C -2.285964 201.3944 -2.280502 216.0843 -2.26236 216.8785 C -2.223007 218.6044 -1.932907 219.7709 -1.485825 220.0013 C -1.312988 220.0903 -1.041718 220.2802 -0.8830109 220.4232 C -0.7242889 220.5662 -0.3671722 220.7095 -0.089447 220.7418 C 0.6790771 220.8309 9.732559 220.8359 9.963333 220.7473 Z" fill="none" fill-opacity="1" stroke="#000000" stroke-opacity="1" stroke-width="0.3527778" stroke-linecap="round" stroke-linejoin="round"/>
<path d="M 87.75894 212.7742 C 88.47446 212.4089 89.31058 211.4705 89.43805 210.8896 C 89.64227 209.959 89.40155 209.1971 88.67145 208.4626 L 87.99585 207.7829 L 86.98587 207.7825 C 85.66437 207.7823 85.36142 207.8964 84.71332 208.6384 C 84.26093 209.1564 84.15775 209.3976 84.08447 210.1084 C 83.99841 210.9436 84.00775 210.9725 84.60571 211.7217 C 85.61813 212.9902 86.65674 213.3369 87.75894 212.7742 Z" fill="none" fill-opacity="1" stroke="#000000" stroke-opacity="1" stroke-width="0.3527778" stroke-linecap="round" stroke-linejoin="round"/>
<path d="M 239.9025 212.5107 C 240.9185 211.8369 241.2409 211.1508 241.101 209.9597 C 240.9807 208.9351 240.955 208.887 240.1775 208.2369 C 239.5206 207.6876 239.5005 207.6816 238.4642 207.7339 C 237.5347 207.7809 237.3642 207.8358 236.9624 208.2177 C 236.3404 208.8088 235.7676 209.9669 235.8637 210.4391 C 236.0257 211.2352 236.556 212.1887 236.95 212.3926 C 237.1704 212.5066 237.435 212.7016 237.5381 212.826 C 237.6598 212.9727 237.9646 213.0521 238.4058 213.0521 C 238.9504 213.0521 239.2487 212.9442 239.9025 212.5107 Z" fill="none" fill-opacity="1" stroke="#000000" stroke-opacity="1" stroke-width="0.3527778" stroke-linecap="round" stroke-linejoin="round"/>
<path d="M 169.7077 211.4297 C 170.4666 211.2111 170.5086 211.1624 170.803 210.1644 C 171.0152 209.4449 171.0368 207.0421 171.0326 184.6143 C 171.028 159.9594 171.0267 159.8558 170.7323 159.247 C 170.5307 158.8306 170.221 158.5066 169.7599 158.2301 L 169.0833 157.8244 L 135.8979 157.7866 L 102.7128 157.7487 L 101.775 158.0678 C 100.6141 158.4628 100.5694 158.4962 100.1202 159.3004 L 99.75494 159.9544 L 99.755 184.8068 L 99.75504 209.659 L 100.1743 210.4531 C 100.8807 211.7912 97.72137 211.6856 135.8117 211.645 C 161.8536 211.6173 169.219 211.5706 169.7077 211.4297 Z" fill="none" fill-opacity="1" stroke="#000000" stroke-opacity="1" stroke-width="0.3527778" stroke-linecap="round" stroke-linejoin="round"/>
<path d="M 311.6863 198.5994 L 312.1406 198.4409 L 312.1507 197.336 C 312.176 194.5436 312.1541 190.4946 312.1135 190.466 C 311.2662 189.8706 311.1006 189.8036 310.5283 189.8256 C 310.1851 189.8388 306.8202 189.8353 303.0508 189.8176 C 299.2814 189.8 295.8536 189.8315 295.4335 189.8874 C 294.2319 190.0476 294.2189 190.1006 294.275 194.596 C 294.3187 198.1143 294.3391 198.3612 294.6017 198.5531 C 294.8356 198.7242 296.2276 198.7579 303.0569 198.7579 C 308.6204 198.7579 311.3771 198.7072 311.6863 198.5994 Z" fill="none" fill-opacity="1" stroke="#000000" stroke-opacity="1" stroke-width="0.3527778" stroke-linecap="round" stroke-linejoin="round"/>
</svg>