<?xml version="1.0" encoding="utf-8"?>
<!-- Generator: Adobe Illustrator 26.1.0, SVG Export Plug-In . SVG Version: 6.00 Build 0)  -->
<svg version="1.1" id="Layer_1" xmlns="http://www.w3.org/2000/svg" xmlns:xlink="http://www.w3.org/1999/xlink" x="0px" y="0px"
	 viewBox="0 0 4280.3 1133.9" style="enable-background:new 0 0 4280.3 1133.9;" xml:space="preserve">
<style type="text/css">
	.st0{fill:none;stroke:#000000;stroke-miterlimit:10;}
</style>
<g>
	<path class="st0" d="M1066.9,187.3l79.4-0.6c1.6,0,2.8,1.3,2.8,2.8v561.3c0,4.7-3.8,8.5-8.5,8.5H287.4c-4.7,0-8.5-3.8-8.5-8.5
		V189.5c0-1.6,1.3-2.8,2.8-2.8l79.4,0.3"/>
	<path class="st0" d="M980.2,186.7"/>
	<line class="st0" x1="454.6" y1="186.7" x2="973.4" y2="186.7"/>
	<path class="st0" d="M454.6,187.2V198c0,1.6-1.3,2.8-2.8,2.8h-87.9c-1.6,0-2.8-1.3-2.8-2.8V187"/>
	<path class="st0" d="M451.8,172.5"/>
	<path class="st0" d="M363.9,172.5"/>
	<path class="st0" d="M973.4,186.7V198c0,1.6,1.3,2.8,2.8,2.8h87.9c1.6,0,2.8-1.3,2.8-2.8v-10.7"/>
	<g>
		<polygon class="st0" points="678.7,458.8 692.9,458.8 679.9,498.5 665.7,498.5 		"/>
		<polygon class="st0" points="748.1,458.8 762.3,458.8 735.2,541 721.1,541 		"/>
		<polygon class="st0" points="716.1,416.3 730.3,416.3 703.3,498.5 689.1,498.5 		"/>
		<polygon class="st0" points="725.2,458.8 739.4,458.8 726.4,498.5 712.2,498.5 		"/>
	</g>
</g>
</svg>
