<?xml version="1.0" encoding="UTF-8" standalone="no"?>
<!-- exported from Silhouette Studio Business Edition V4.1.454ssbe -->

<svg
   xmlns:dc="http://purl.org/dc/elements/1.1/"
   xmlns:cc="http://creativecommons.org/ns#"
   xmlns:rdf="http://www.w3.org/1999/02/22-rdf-syntax-ns#"
   xmlns:svg="http://www.w3.org/2000/svg"
   xmlns="http://www.w3.org/2000/svg"
   xmlns:sodipodi="http://sodipodi.sourceforge.net/DTD/sodipodi-0.dtd"
   xmlns:inkscape="http://www.inkscape.org/namespaces/inkscape"
   version="1.1"
   width="594mm"
   height="841mm"
   viewBox="0 0 594.00002 841"
   id="svg12"
   sodipodi:docname="E5440_LID_NEW.svg"
   inkscape:version="0.92.3 (2405546, 2018-03-11)">
  <metadata
     id="metadata16">
    <rdf:RDF>
      <cc:Work
         rdf:about="">
        <dc:format>image/svg+xml</dc:format>
        <dc:type
           rdf:resource="http://purl.org/dc/dcmitype/StillImage" />
        <dc:title></dc:title>
      </cc:Work>
    </rdf:RDF>
  </metadata>
  <sodipodi:namedview
     pagecolor="#ffffff"
     bordercolor="#666666"
     borderopacity="1"
     objecttolerance="10"
     gridtolerance="10"
     guidetolerance="10"
     inkscape:pageopacity="0"
     inkscape:pageshadow="2"
     inkscape:window-width="1920"
     inkscape:window-height="1017"
     id="namedview14"
     showgrid="false"
     inkscape:zoom="0.67927579"
     inkscape:cx="936.10363"
     inkscape:cy="1749.2416"
     inkscape:window-x="-8"
     inkscape:window-y="-8"
     inkscape:window-maximized="1"
     inkscape:current-layer="svg12"
     showguides="true"
     inkscape:guide-bbox="true" />
  <defs
     id="defs2" />
  <g
     id="g853"
     style="stroke:#000000;stroke-opacity:1;stroke-width:0.35277778;stroke-miterlimit:4;stroke-dasharray:none">
    <g
       transform="matrix(0,1.0021278,-1.0060061,0,431.71748,229.69458)"
       id="g8-6-6-7"
       style="stroke:#000000;stroke-width:0.35134952;stroke-miterlimit:4;stroke-dasharray:none;stroke-opacity:1">
      <path
         id="path4-7-2-9"
         d="m 21.92799,325.2802 c 0,0 0,4.1527 0,5.9324 0,0 -0.0032,2.8378 0.0083,3.1529 0.04896,1.3409 0.23111,2.7077 0.82395,4.3969 1.41003,4.0177 4.41569,6.3236 5.09915,6.8362 0.37584,0.2818 1.92872,1.4336 4.1482,2.2132 2.55315,0.8969 4.52567,0.8886 5.33774,0.9105 H 237.5078 c 0.6238,-0.0122 1.7266,-0.0349 3.1049,-0.2998 0.4447,-0.0854 1.6329,-0.3544 2.893,-0.8596 0.274,-0.1099 1.3793,-0.561 2.6188,-1.3601 0.7333,-0.4728 1.4361,-1.0039 2.2822,-1.8009 0.9116,-0.8587 2.4709,-2.5634 3.511,-5.1752 0.9888,-2.4827 0.9842,-4.4449 1.0075,-5.2457 V 30.46362 c -0.028,-0.77278 -0.0152,-1.96552 -0.5256,-3.83095 -0.08,-0.29277 -0.3163,-1.07163 -0.6871,-1.90392 -0.2886,-0.64808 -0.8411,-1.78453 -1.8245,-3.0445 -0.1676,-0.21478 -0.8416,-1.08597 -1.8605,-1.99244 -1.299,-1.15567 -2.5333,-1.84523 -2.8387,-2.01236 -0.2072,-0.11335 -1.0409,-0.5715 -2.1504,-0.97726 -2.6361,-0.96399 -4.6882,-0.9572 -5.5305,-0.97987 H 37.34537 c -1.11445,0.02863 -3.91574,0.04625 -7.22749,1.7219 -2.86139,1.44776 -4.59209,3.45342 -5.42825,4.60287 -0.35171,0.4835 -1.822,2.53012 -2.44809,5.44776 -0.09165,0.42709 -0.19594,1.03196 -0.25625,1.72809 -0.04422,0.51046 -0.05826,1.02391 -0.0573,2.04862 0,0 0,6.46354 0,8.07943"
         style="fill:none;fill-opacity:1;stroke:#000000;stroke-width:0.35134952;stroke-linecap:round;stroke-linejoin:round;stroke-miterlimit:4;stroke-dasharray:none;stroke-opacity:1"
         inkscape:connector-curvature="0" />
      <path
         id="path6-5-6-2"
         d="m 21.91526,325.2816 v 0.0804 h 9.99986 V 39.08206 h -9.99986 v 0.26216"
         style="fill:none;fill-opacity:1;stroke:#000000;stroke-width:0.35134952;stroke-linecap:round;stroke-linejoin:round;stroke-miterlimit:4;stroke-dasharray:none;stroke-opacity:1"
         inkscape:connector-curvature="0" />
    </g>
    <path
       id="path10-3-1-0"
       d="m 248.69156,383.23583 c -10.26931,0 -18.61112,-8.30955 -18.61112,-18.53937 0,-10.22972 8.34181,-18.53936 18.61112,-18.53936 10.26931,0 18.61111,8.30964 18.61111,18.53936 0,10.22982 -8.3418,18.53937 -18.61111,18.53937 z"
       style="fill:none;fill-opacity:1;stroke:#000000;stroke-width:0.35277778;stroke-linecap:round;stroke-linejoin:round;stroke-miterlimit:4;stroke-dasharray:none;stroke-opacity:1"
       inkscape:connector-curvature="0" />
  </g>
</svg>
