<?xml version="1.0" encoding="utf-8"?>
<!-- Generator: Adobe Illustrator 24.2.2, SVG Export Plug-In . SVG Version: 6.00 Build 0)  -->
<svg version="1.1"
	 id="svg8" inkscape:version="0.92.5 (2060ec1f9f, 2020-04-08)" sodipodi:docname="e5450_LID.svg" xmlns:cc="http://creativecommons.org/ns#" xmlns:dc="http://purl.org/dc/elements/1.1/" xmlns:inkscape="http://www.inkscape.org/namespaces/inkscape" xmlns:rdf="http://www.w3.org/1999/02/22-rdf-syntax-ns#" xmlns:sodipodi="http://sodipodi.sourceforge.net/DTD/sodipodi-0.dtd" xmlns:svg="http://www.w3.org/2000/svg"
	 xmlns="http://www.w3.org/2000/svg" xmlns:xlink="http://www.w3.org/1999/xlink" x="0px" y="0px" viewBox="0 0 595.3 841.9"
	 style="enable-background:new 0 0 595.3 841.9;" xml:space="preserve">
<style type="text/css">
	.st0{fill:none;stroke:#000000;stroke-width:1;stroke-miterlimit:11.3386;}
</style>
<sodipodi:namedview  bordercolor="#666666" borderopacity="1.0" id="base" inkscape:current-layer="g828" inkscape:cx="-276.57525" inkscape:cy="1197.3391" inkscape:document-units="mm" inkscape:guide-bbox="true" inkscape:pageopacity="0.0" inkscape:pageshadow="2" inkscape:window-height="1136" inkscape:window-maximized="1" inkscape:window-width="1848" inkscape:window-x="72" inkscape:window-y="27" inkscape:zoom="0.7" pagecolor="#ffffff" showgrid="false" showguides="true">
	<sodipodi:guide  id="guide819" inkscape:locked="false" orientation="1,0" position="-49.136904,437.12948"></sodipodi:guide>
</sodipodi:namedview>
<g id="layer1" inkscape:groupmode="layer" inkscape:label="Layer 1">
	<g id="g828">
		<g id="g836">
			<path id="rect815" inkscape:connector-curvature="0" sodipodi:nodetypes="cssssssssc" class="st0" d="M-933.7-51.1l-0.1-32.3
				c0-14.1,11.4-25.5,25.5-25.5h596.5c14.1,0,25.5,11.4,25.5,25.5v899.8c0,14.1-11.4,25.5-25.5,25.5h-596.5
				c-14.1,0-25.6-11.4-25.5-25.5l0.1-31.8"/>
			<path id="rect817" inkscape:connector-curvature="0" sodipodi:nodetypes="cccc" class="st0" d="M-933.7-51.1h22.2v835.7h-22.2"/>
			<path id="path821" class="st0" d="M-616.7,317.6c27.1,0,49.1,22,49.1,49.1c0,27.1-22,49.1-49.1,49.1c0,0,0,0,0,0
				c-27.1,0-49.1-22-49.1-49.1C-665.8,339.5-643.9,317.6-616.7,317.6L-616.7,317.6z"/>
		</g>
	</g>
</g>
<sodipodi:namedview  bordercolor="#666666" borderopacity="1.0" id="base" inkscape:current-layer="g828" inkscape:cx="-276.57525" inkscape:cy="1197.3391" inkscape:document-units="mm" inkscape:guide-bbox="true" inkscape:pageopacity="0.0" inkscape:pageshadow="2" inkscape:window-height="1136" inkscape:window-maximized="1" inkscape:window-width="1848" inkscape:window-x="72" inkscape:window-y="27" inkscape:zoom="0.7" pagecolor="#ffffff" showgrid="false" showguides="true">
	<sodipodi:guide  id="guide819" inkscape:locked="false" orientation="1,0" position="-49.136904,437.12948"></sodipodi:guide>
</sodipodi:namedview>
<g id="layer1_1_" inkscape:groupmode="layer" inkscape:label="Layer 1">
	<g id="g828_1_">
		<g id="g836_1_">
			<path id="rect815_1_" inkscape:connector-curvature="0" sodipodi:nodetypes="cssssssssc" class="st0" d="M-274.7-51.1l-0.1-32.3
				c0-14.1,11.4-25.5,25.5-25.5h596.5c14.1,0,25.5,11.4,25.5,25.5v899.8c0,14.1-11.4,25.5-25.5,25.5h-596.5
				c-14.1,0-25.6-11.4-25.5-25.5l0.1-31.8"/>
			<path id="rect817_1_" inkscape:connector-curvature="0" sodipodi:nodetypes="cccc" class="st0" d="M-274.7-51.1h22.2v835.7h-22.2
				"/>
			<path id="path821_1_" class="st0" d="M42.3,317.6c27.1,0,49.1,22,49.1,49.1c0,27.1-22,49.1-49.1,49.1c0,0,0,0,0,0
				c-27.1,0-49.1-22-49.1-49.1C-6.8,339.5,15.1,317.6,42.3,317.6L42.3,317.6z"/>
		</g>
	</g>
</g>
<g id="layer1_3_" inkscape:groupmode="layer" inkscape:label="Layer 1">
	<g id="g828_3_">
		<g id="g836_3_">
			<path id="rect815_3_" inkscape:connector-curvature="0" sodipodi:nodetypes="cssssssssc" class="st0" d="M385.9-51.1l-0.1-32.3
				c0-14.1,11.4-25.5,25.5-25.5h596.5c14.1,0,25.5,11.4,25.5,25.5v899.8c0,14.1-11.4,25.5-25.5,25.5H411.4
				c-14.1,0-25.6-11.4-25.5-25.5l0.1-31.8"/>
			<path id="rect817_3_" inkscape:connector-curvature="0" sodipodi:nodetypes="cccc" class="st0" d="M385.9-51.1h22.2v835.7h-22.2"
				/>
			<path id="path821_3_" class="st0" d="M702.9,317.6c27.1,0,49.1,22,49.1,49.1c0,27.1-22,49.1-49.1,49.1c0,0,0,0,0,0
				c-27.1,0-49.1-22-49.1-49.1C653.8,339.5,675.8,317.6,702.9,317.6L702.9,317.6z"/>
		</g>
	</g>
</g>
<g id="layer1_2_" inkscape:groupmode="layer" inkscape:label="Layer 1">
	<g id="g828_2_">
		<g id="g836_2_">
			<path id="rect815_2_" inkscape:connector-curvature="0" sodipodi:nodetypes="cssssssssc" class="st0" d="M1044.9-51.1l-0.1-32.3
				c0-14.1,11.4-25.5,25.5-25.5h596.5c14.1,0,25.5,11.4,25.5,25.5v899.8c0,14.1-11.4,25.5-25.5,25.5h-596.5
				c-14.1,0-25.6-11.4-25.5-25.5l0.1-31.8"/>
			<path id="rect817_2_" inkscape:connector-curvature="0" sodipodi:nodetypes="cccc" class="st0" d="M1044.9-51.1h22.2v835.7h-22.2
				"/>
			<path id="path821_2_" class="st0" d="M1361.9,317.6c27.1,0,49.1,22,49.1,49.1c0,27.1-22,49.1-49.1,49.1c0,0,0,0,0,0
				c-27.1,0-49.1-22-49.1-49.1C1312.8,339.5,1334.8,317.6,1361.9,317.6L1361.9,317.6z"/>
		</g>
	</g>
</g>
<g id="layer1_5_" inkscape:groupmode="layer" inkscape:label="Layer 1">
	<g id="g828_5_">
		<g id="g836_5_">
			<path id="rect815_5_" inkscape:connector-curvature="0" sodipodi:nodetypes="cssssssssc" class="st0" d="M1711.4-51.1l-0.1-32.3
				c0-14.1,11.4-25.5,25.5-25.5h596.5c14.1,0,25.5,11.4,25.5,25.5v899.8c0,14.1-11.4,25.5-25.5,25.5h-596.5
				c-14.1,0-25.6-11.4-25.5-25.5l0.1-31.8"/>
			<path id="rect817_5_" inkscape:connector-curvature="0" sodipodi:nodetypes="cccc" class="st0" d="M1711.4-51.1h22.2v835.7h-22.2
				"/>
			<path id="path821_5_" class="st0" d="M2028.4,317.6c27.1,0,49.1,22,49.1,49.1c0,27.1-22,49.1-49.1,49.1c0,0,0,0,0,0
				c-27.1,0-49.1-22-49.1-49.1C1979.3,339.5,2001.3,317.6,2028.4,317.6L2028.4,317.6z"/>
		</g>
	</g>
</g>
<g id="layer1_4_" inkscape:groupmode="layer" inkscape:label="Layer 1">
	<g id="g828_4_">
		<g id="g836_4_">
			<path id="rect815_4_" inkscape:connector-curvature="0" sodipodi:nodetypes="cssssssssc" class="st0" d="M2370.4-51.1l-0.1-32.3
				c0-14.1,11.4-25.5,25.5-25.5h596.5c14.1,0,25.5,11.4,25.5,25.5v899.8c0,14.1-11.4,25.5-25.5,25.5h-596.5
				c-14.1,0-25.6-11.4-25.5-25.5l0.1-31.8"/>
			<path id="rect817_4_" inkscape:connector-curvature="0" sodipodi:nodetypes="cccc" class="st0" d="M2370.4-51.1h22.2v835.7h-22.2
				"/>
			<path id="path821_4_" class="st0" d="M2687.4,317.6c27.1,0,49.1,22,49.1,49.1c0,27.1-22,49.1-49.1,49.1c0,0,0,0,0,0
				c-27.1,0-49.1-22-49.1-49.1C2638.3,339.5,2660.3,317.6,2687.4,317.6L2687.4,317.6z"/>
		</g>
	</g>
</g>
</svg>
