<?xml version="1.0" encoding="utf-8"?>
<!-- Generator: Adobe Illustrator 24.2.2, SVG Export Plug-In . SVG Version: 6.00 Build 0)  -->
<svg version="1.1"
	 id="svg10" xmlns:cc="http://creativecommons.org/ns#" xmlns:dc="http://purl.org/dc/elements/1.1/" xmlns:inkscape="http://www.inkscape.org/namespaces/inkscape" xmlns:rdf="http://www.w3.org/1999/02/22-rdf-syntax-ns#" xmlns:sodipodi="http://sodipodi.sourceforge.net/DTD/sodipodi-0.dtd" xmlns:svg="http://www.w3.org/2000/svg"
	 xmlns="http://www.w3.org/2000/svg" xmlns:xlink="http://www.w3.org/1999/xlink" x="0px" y="0px" viewBox="0 0 3401.6 2834.6"
	 style="enable-background:new 0 0 3401.6 2834.6;" xml:space="preserve">
<style type="text/css">
	.st0{fill:none;stroke:#000000;stroke-width:1.3365;stroke-linecap:round;stroke-linejoin:round;stroke-miterlimit:11.3386;}
	.st1{fill:none;stroke:#000000;stroke-width:1.4173;stroke-miterlimit:11.3386;}
</style>
<sodipodi:namedview  bordercolor="#666666" borderopacity="1" gridtolerance="10" guidetolerance="10" id="namedview12" inkscape:bbox-nodes="true" inkscape:bbox-paths="true" inkscape:current-layer="svg10" inkscape:cx="2612.1745" inkscape:cy="2586.6206" inkscape:measure-end="1388.72,2481.62" inkscape:measure-start="1388.72,3273.09" inkscape:pageopacity="0" inkscape:pageshadow="2" inkscape:snap-bbox="true" inkscape:snap-bbox-edge-midpoints="true" inkscape:snap-bbox-midpoints="true" inkscape:window-height="684" inkscape:window-maximized="1" inkscape:window-width="1366" inkscape:window-x="0" inkscape:window-y="28" inkscape:zoom="0.12488334" objecttolerance="10" pagecolor="#ffffff" showgrid="false">
	</sodipodi:namedview>
<sodipodi:namedview  bordercolor="#666666" borderopacity="1" gridtolerance="10" guidetolerance="10" id="namedview12" inkscape:bbox-nodes="true" inkscape:bbox-paths="true" inkscape:current-layer="svg10" inkscape:cx="2612.1745" inkscape:cy="2586.6206" inkscape:measure-end="1388.72,2481.62" inkscape:measure-start="1388.72,3273.09" inkscape:pageopacity="0" inkscape:pageshadow="2" inkscape:snap-bbox="true" inkscape:snap-bbox-edge-midpoints="true" inkscape:snap-bbox-midpoints="true" inkscape:window-height="684" inkscape:window-maximized="1" inkscape:window-width="1366" inkscape:window-x="0" inkscape:window-y="28" inkscape:zoom="0.12488334" objecttolerance="10" pagecolor="#ffffff" showgrid="false">
	</sodipodi:namedview>
<g>
	<path id="path6-9-0-7-0-0-7-0-0_8_" inkscape:connector-curvature="0" sodipodi:nodetypes="cccc" class="st0" d="M624.9,2771
		l3.8-0.4l4.2-0.9l3.4-1.2l2.9-1.4l2.3-1.4l2.3-1.8l1.5-1.5l1.7-2.2l1-1.6l0.8-1.6l1.2-3.5l0.3-943.2l-0.6-3.3l-1.5-3.9l-2.2-3.2
		l-2.3-2.4l-3.4-2.5l-4.3-2.2l-4.9-1.6l-7.7-0.9l-565.4,0l0,0l0,980.8L624.9,2771z"/>
	<path id="path855-5-9-6_3_" inkscape:connector-curvature="0" class="st1" d="M407.3,2281c0,31.9-25.9,57.8-57.8,57.8h0
		c-31.9,0-57.8-25.9-57.8-57.8l0,0c0-31.9,25.9-57.8,57.8-57.8S407.3,2249.1,407.3,2281L407.3,2281z"/>
</g>
<sodipodi:namedview  bordercolor="#666666" borderopacity="1" gridtolerance="10" guidetolerance="10" id="namedview12" inkscape:bbox-nodes="true" inkscape:bbox-paths="true" inkscape:current-layer="svg10" inkscape:cx="2612.1745" inkscape:cy="2586.6206" inkscape:measure-end="1388.72,2481.62" inkscape:measure-start="1388.72,3273.09" inkscape:pageopacity="0" inkscape:pageshadow="2" inkscape:snap-bbox="true" inkscape:snap-bbox-edge-midpoints="true" inkscape:snap-bbox-midpoints="true" inkscape:window-height="684" inkscape:window-maximized="1" inkscape:window-width="1366" inkscape:window-x="0" inkscape:window-y="28" inkscape:zoom="0.12488334" objecttolerance="10" pagecolor="#ffffff" showgrid="false">
	</sodipodi:namedview>
<sodipodi:namedview  bordercolor="#666666" borderopacity="1" gridtolerance="10" guidetolerance="10" id="namedview12" inkscape:bbox-nodes="true" inkscape:bbox-paths="true" inkscape:current-layer="svg10" inkscape:cx="2612.1745" inkscape:cy="2586.6206" inkscape:measure-end="1388.72,2481.62" inkscape:measure-start="1388.72,3273.09" inkscape:pageopacity="0" inkscape:pageshadow="2" inkscape:snap-bbox="true" inkscape:snap-bbox-edge-midpoints="true" inkscape:snap-bbox-midpoints="true" inkscape:window-height="684" inkscape:window-maximized="1" inkscape:window-width="1366" inkscape:window-x="0" inkscape:window-y="28" inkscape:zoom="0.12488334" objecttolerance="10" pagecolor="#ffffff" showgrid="false">
	</sodipodi:namedview>
<g>
	<path id="path6-9-0-7-0-0-7-0-0_1_" inkscape:connector-curvature="0" sodipodi:nodetypes="cccc" class="st0" d="M1225.1,2771
		l3.8-0.4l4.2-0.9l3.4-1.2l2.9-1.4l2.3-1.4l2.3-1.8l1.5-1.5l1.7-2.2l1-1.6l0.8-1.6l1.2-3.5l0.3-943.2l-0.6-3.3l-1.5-3.9l-2.2-3.2
		l-2.3-2.4l-3.4-2.5l-4.3-2.2l-4.9-1.6l-7.7-0.9l-565.4,0l0,0l0,980.8L1225.1,2771z"/>
	<path id="path855-5-9-6_1_" inkscape:connector-curvature="0" class="st1" d="M1007.5,2281c0,31.9-25.9,57.8-57.8,57.8l0,0
		c-31.9,0-57.8-25.9-57.8-57.8l0,0c0-31.9,25.9-57.8,57.8-57.8C981.6,2223.2,1007.5,2249.1,1007.5,2281L1007.5,2281z"/>
</g>
<g>
	<path id="path6-9-0-7-0-0-7-0-0_3_" inkscape:connector-curvature="0" sodipodi:nodetypes="cccc" class="st0" d="M1824,2771
		l3.8-0.4l4.2-0.9l3.4-1.2l2.9-1.4l2.3-1.4l2.3-1.8l1.5-1.5l1.7-2.2l1-1.6l0.8-1.6l1.2-3.5l0.3-943.2l-0.6-3.3l-1.5-3.9l-2.2-3.2
		l-2.3-2.4l-3.4-2.5l-4.3-2.2l-4.9-1.6l-7.7-0.9l-565.4,0l0,0l0,980.8L1824,2771z"/>
	<path id="path855-5-9-6_4_" inkscape:connector-curvature="0" class="st1" d="M1606.3,2281c0,31.9-25.9,57.8-57.8,57.8l0,0
		c-31.9,0-57.8-25.9-57.8-57.8l0,0c0-31.9,25.9-57.8,57.8-57.8S1606.3,2249.1,1606.3,2281L1606.3,2281z"/>
</g>
<g>
	<path id="path6-9-0-7-0-0-7-0-0_2_" inkscape:connector-curvature="0" sodipodi:nodetypes="cccc" class="st0" d="M2424.1,2771
		l3.8-0.4l4.2-0.9l3.4-1.2l2.9-1.4l2.3-1.4l2.3-1.8l1.5-1.5l1.7-2.2l1-1.6l0.8-1.6l1.2-3.5l0.3-943.2l-0.6-3.3l-1.5-3.9l-2.2-3.2
		l-2.3-2.4l-3.4-2.5l-4.3-2.2l-4.9-1.6l-7.7-0.9l-565.4,0l0,0l0,980.8L2424.1,2771z"/>
	<path id="path855-5-9-6_2_" inkscape:connector-curvature="0" class="st1" d="M2206.5,2281c0,31.9-25.9,57.8-57.8,57.8l0,0
		c-31.9,0-57.8-25.9-57.8-57.8l0,0c0-31.9,25.9-57.8,57.8-57.8S2206.5,2249.1,2206.5,2281L2206.5,2281z"/>
</g>
<g>
	<path id="path6-9-0-7-0-0-7-0-0_5_" inkscape:connector-curvature="0" sodipodi:nodetypes="cccc" class="st0" d="M3029.1,2773.3
		l3.8-0.4l4.2-0.9l3.4-1.2l2.9-1.4l2.3-1.4l2.3-1.8l1.5-1.5l1.7-2.2l1-1.6l0.8-1.6l1.2-3.5l0.3-943.2l-0.6-3.3l-1.5-3.9l-2.2-3.2
		l-2.3-2.4l-3.4-2.5l-4.3-2.2l-4.9-1.6l-7.7-0.9l-565.4,0l0,0l0,980.8L3029.1,2773.3z"/>
	<path id="path855-5-9-6_6_" inkscape:connector-curvature="0" class="st1" d="M2811.5,2283.2c0,31.9-25.9,57.8-57.8,57.8l0,0
		c-31.9,0-57.8-25.9-57.8-57.8l0,0c0-31.9,25.9-57.8,57.8-57.8S2811.5,2251.3,2811.5,2283.2L2811.5,2283.2z"/>
</g>
<g>
	<path id="path6-9-0-7-0-0-7-0-0_4_" inkscape:connector-curvature="0" sodipodi:nodetypes="cccc" class="st0" d="M3629.3,2773.3
		l3.8-0.4l4.2-0.9l3.4-1.2l2.9-1.4l2.3-1.4l2.3-1.8l1.5-1.5l1.7-2.2l1-1.6l0.8-1.6l1.2-3.5l0.3-943.2l-0.6-3.3l-1.5-3.9l-2.2-3.2
		l-2.3-2.4l-3.4-2.5l-4.3-2.2l-4.9-1.6l-7.7-0.9l-565.4,0l0,0v980.8L3629.3,2773.3z"/>
	<path id="path855-5-9-6_5_" inkscape:connector-curvature="0" class="st1" d="M3411.7,2283.2c0,31.9-25.9,57.8-57.8,57.8l0,0
		c-31.9,0-57.8-25.9-57.8-57.8l0,0c0-31.9,25.9-57.8,57.8-57.8C3385.8,2225.5,3411.7,2251.3,3411.7,2283.2L3411.7,2283.2z"/>
</g>
<g>
	<path id="path6-9-0-7-0-0-7-0-0_12_" inkscape:connector-curvature="0" sodipodi:nodetypes="cccc" class="st0" d="M624.9,1772
		l3.8-0.4l4.2-0.9l3.4-1.2l2.9-1.4l2.3-1.4l2.3-1.8l1.5-1.5l1.7-2.2l1-1.6l0.8-1.6l1.2-3.5l0.3-943.2l-0.6-3.3l-1.5-3.9l-2.2-3.2
		l-2.3-2.4l-3.4-2.5l-4.3-2.2l-4.9-1.6l-7.7-0.9l-565.4,0l0,0l0,980.8L624.9,1772z"/>
	<path id="path855-5-9-6_12_" inkscape:connector-curvature="0" class="st1" d="M407.3,1282c0,31.9-25.9,57.8-57.8,57.8h0
		c-31.9,0-57.8-25.9-57.8-57.8l0,0c0-31.9,25.9-57.8,57.8-57.8S407.3,1250.1,407.3,1282L407.3,1282z"/>
</g>
<g>
	<path id="path6-9-0-7-0-0-7-0-0_11_" inkscape:connector-curvature="0" sodipodi:nodetypes="cccc" class="st0" d="M1225.1,1772
		l3.8-0.4l4.2-0.9l3.4-1.2l2.9-1.4l2.3-1.4l2.3-1.8l1.5-1.5l1.7-2.2l1-1.6l0.8-1.6l1.2-3.5l0.3-943.2l-0.6-3.3l-1.5-3.9l-2.2-3.2
		l-2.3-2.4l-3.4-2.5l-4.3-2.2l-4.9-1.6l-7.7-0.9l-565.4,0l0,0l0,980.8L1225.1,1772z"/>
	<path id="path855-5-9-6_11_" inkscape:connector-curvature="0" class="st1" d="M1007.5,1282c0,31.9-25.9,57.8-57.8,57.8l0,0
		c-31.9,0-57.8-25.9-57.8-57.8l0,0c0-31.9,25.9-57.8,57.8-57.8C981.6,1224.2,1007.5,1250.1,1007.5,1282L1007.5,1282z"/>
</g>
<g>
	<path id="path6-9-0-7-0-0-7-0-0_10_" inkscape:connector-curvature="0" sodipodi:nodetypes="cccc" class="st0" d="M1824,1772
		l3.8-0.4l4.2-0.9l3.4-1.2l2.9-1.4l2.3-1.4l2.3-1.8l1.5-1.5l1.7-2.2l1-1.6l0.8-1.6l1.2-3.5l0.3-943.2l-0.6-3.3l-1.5-3.9l-2.2-3.2
		l-2.3-2.4l-3.4-2.5l-4.3-2.2l-4.9-1.6l-7.7-0.9l-565.4,0l0,0l0,980.8L1824,1772z"/>
	<path id="path855-5-9-6_10_" inkscape:connector-curvature="0" class="st1" d="M1606.3,1282c0,31.9-25.9,57.8-57.8,57.8l0,0
		c-31.9,0-57.8-25.9-57.8-57.8l0,0c0-31.9,25.9-57.8,57.8-57.8S1606.3,1250.1,1606.3,1282L1606.3,1282z"/>
</g>
<g>
	<path id="path6-9-0-7-0-0-7-0-0_9_" inkscape:connector-curvature="0" sodipodi:nodetypes="cccc" class="st0" d="M2424.1,1772
		l3.8-0.4l4.2-0.9l3.4-1.2l2.9-1.4l2.3-1.4l2.3-1.8l1.5-1.5l1.7-2.2l1-1.6l0.8-1.6l1.2-3.5l0.3-943.2l-0.6-3.3l-1.5-3.9l-2.2-3.2
		l-2.3-2.4l-3.4-2.5l-4.3-2.2l-4.9-1.6l-7.7-0.9l-565.4,0l0,0l0,980.8L2424.1,1772z"/>
	<path id="path855-5-9-6_9_" inkscape:connector-curvature="0" class="st1" d="M2206.5,1282c0,31.9-25.9,57.8-57.8,57.8l0,0
		c-31.9,0-57.8-25.9-57.8-57.8l0,0c0-31.9,25.9-57.8,57.8-57.8S2206.5,1250.1,2206.5,1282L2206.5,1282z"/>
</g>
<g>
	<path id="path6-9-0-7-0-0-7-0-0_7_" inkscape:connector-curvature="0" sodipodi:nodetypes="cccc" class="st0" d="M3029.1,1774.3
		l3.8-0.4l4.2-0.9l3.4-1.2l2.9-1.4l2.3-1.4l2.3-1.8l1.5-1.5l1.7-2.2l1-1.6l0.8-1.6l1.2-3.5l0.3-943.2l-0.6-3.3l-1.5-3.9l-2.2-3.2
		l-2.3-2.4l-3.4-2.5l-4.3-2.2l-4.9-1.6l-7.7-0.9l-565.4,0l0,0l0,980.8L3029.1,1774.3z"/>
	<path id="path855-5-9-6_8_" inkscape:connector-curvature="0" class="st1" d="M2811.5,1284.2c0,31.9-25.9,57.8-57.8,57.8l0,0
		c-31.9,0-57.8-25.9-57.8-57.8l0,0c0-31.9,25.9-57.8,57.8-57.8S2811.5,1252.3,2811.5,1284.2L2811.5,1284.2z"/>
</g>
<g>
	<path id="path6-9-0-7-0-0-7-0-0_6_" inkscape:connector-curvature="0" sodipodi:nodetypes="cccc" class="st0" d="M3629.3,1774.3
		l3.8-0.4l4.2-0.9l3.4-1.2l2.9-1.4l2.3-1.4l2.3-1.8l1.5-1.5l1.7-2.2l1-1.6l0.8-1.6l1.2-3.5l0.3-943.2l-0.6-3.3l-1.5-3.9l-2.2-3.2
		l-2.3-2.4l-3.4-2.5l-4.3-2.2l-4.9-1.6l-7.7-0.9l-565.4,0l0,0v980.8L3629.3,1774.3z"/>
	<path id="path855-5-9-6_7_" inkscape:connector-curvature="0" class="st1" d="M3411.7,1284.3c0,31.9-25.9,57.8-57.8,57.8l0,0
		c-31.9,0-57.8-25.9-57.8-57.8l0,0c0-31.9,25.9-57.8,57.8-57.8C3385.8,1226.5,3411.7,1252.3,3411.7,1284.3L3411.7,1284.3z"/>
</g>
</svg>
