<?xml version="1.0" encoding="UTF-8" standalone="no"?>
<!-- exported from Silhouette Studio Business Edition V4.1.206ssbe -->

<svg
   xmlns:dc="http://purl.org/dc/elements/1.1/"
   xmlns:cc="http://creativecommons.org/ns#"
   xmlns:rdf="http://www.w3.org/1999/02/22-rdf-syntax-ns#"
   xmlns:svg="http://www.w3.org/2000/svg"
   xmlns="http://www.w3.org/2000/svg"
   xmlns:sodipodi="http://sodipodi.sourceforge.net/DTD/sodipodi-0.dtd"
   xmlns:inkscape="http://www.inkscape.org/namespaces/inkscape"
   version="1.1"
   width="1200mm"
   height="1000mm"
   viewBox="0 0 1200 1000"
   id="svg10"
   sodipodi:docname="E6430_LID.svg"
   inkscape:version="0.92.3 (2405546, 2018-03-11)">
  <metadata
     id="metadata14">
    <rdf:RDF>
      <cc:Work
         rdf:about="">
        <dc:format>image/svg+xml</dc:format>
        <dc:type
           rdf:resource="http://purl.org/dc/dcmitype/StillImage" />
        <dc:title />
      </cc:Work>
    </rdf:RDF>
  </metadata>
  <sodipodi:namedview
     pagecolor="#ffffff"
     bordercolor="#666666"
     borderopacity="1"
     objecttolerance="10"
     gridtolerance="10"
     guidetolerance="10"
     inkscape:pageopacity="0"
     inkscape:pageshadow="2"
     inkscape:window-width="1133"
     inkscape:window-height="684"
     id="namedview12"
     showgrid="false"
     inkscape:zoom="0.12488334"
     inkscape:cx="-815.91364"
     inkscape:cy="2345.356"
     inkscape:window-x="0"
     inkscape:window-y="28"
     inkscape:window-maximized="1"
     inkscape:current-layer="svg10"
     inkscape:snap-bbox="true"
     inkscape:bbox-paths="true"
     inkscape:bbox-nodes="true"
     inkscape:snap-bbox-edge-midpoints="true"
     inkscape:snap-bbox-midpoints="true"
     inkscape:object-paths="true"
     inkscape:snap-intersection-paths="true"
     inkscape:snap-smooth-nodes="true"
     inkscape:snap-midpoints="true" />
  <defs
     id="defs2" />
  <g
     id="g3727">
    <path
       id="path4-6"
       d="M 596.89462,12.585995 H 439.67166 c -0.43757,0.0109 -2.28269,-0.007 -4.29318,0.82475 -0.57186,0.23668 -1.58839,0.69965 -2.63185,1.59772 -1.09162,0.93958 -1.65292,1.96065 -1.9066,2.53708 -0.0265,0.0602 -0.27175,0.60731 -0.40333,1.24873 -0.0714,0.34774 -0.0929,0.70413 -0.11621,1.17614 V 351.47879 c 0,0 0.005,0.76834 0.19688,1.50288 0.0557,0.21304 0.1924,0.71764 0.53862,1.36994 0.47255,0.89033 1.10319,1.55915 1.57749,1.98632 1.15476,1.04011 2.46725,1.62857 3.40027,1.94452 1.56518,0.53006 2.90067,0.56235 3.63791,0.5808 l 157.56187,1e-5"
       inkscape:connector-curvature="0"
       style="fill:none;fill-opacity:1;stroke:#000000;stroke-width:0.4695099;stroke-linecap:round;stroke-linejoin:round;stroke-opacity:1" />
    <path
       id="path6-1"
       d="m 596.75189,358.867 39.59908,-1e-5 -2e-5,-346.277775 h -39.50452"
       inkscape:connector-curvature="0"
       style="fill:none;fill-opacity:1;stroke:#000000;stroke-width:0.4695099;stroke-linecap:round;stroke-linejoin:round;stroke-opacity:1" />
    <path
       id="path8-06"
       d="m 515.11747,183.48574 c 0.20926,-1.83934 1.53158,-5.6073 2.68802,-7.66 1.3821,-2.45276 4.01608,-5.22964 6.54885,-6.90385 0.96345,-0.63682 1.80651,-1.15777 1.87363,-1.15777 0.0676,0 0.72398,-0.27663 1.45984,-0.61458 0.7357,-0.33808 1.69449,-0.68284 2.13052,-0.76607 0.4359,-0.0833 1.12023,-0.32222 1.5207,-0.53098 1.05654,-0.55079 7.69201,-0.54674 8.73616,0.005 0.40045,0.21172 1.11037,0.46482 1.57742,0.5623 3.21896,0.67186 7.98627,4.00149 10.4486,7.29781 2.96867,3.97399 4.11169,7.4524 4.11169,12.51137 0,5.02016 -1.10548,8.52939 -3.89653,12.36851 -1.79769,2.47307 -5.93707,5.83013 -8.16102,6.61888 -0.24197,0.0858 -0.8933,0.35705 -1.44726,0.60268 -1.22698,0.54408 -5.01584,1.18587 -7.00095,1.18587 -6.43332,0 -12.73475,-3.12378 -16.44845,-8.15395 -2.7904,-3.77959 -4.02093,-7.22355 -4.16381,-11.65289 -0.0484,-1.50577 -0.0384,-3.17651 0.0228,-3.71279 z m 2.77749,6.6464 c 0.28031,1.30474 0.5895,2.48188 0.6873,2.61597 0.0975,0.13409 0.32736,0.62759 0.50999,1.0969 0.63721,1.63638 2.0225,3.54819 3.97437,5.48423 2.19726,2.17943 4.16019,3.37722 7.23923,4.41731 1.78599,0.60337 2.36007,0.67823 5.27992,0.68911 2.80556,0.0104 3.53738,-0.0717 5.0961,-0.56992 6.06726,-1.9408 10.2232,-5.94163 12.30853,-11.84882 0.49719,-1.40833 0.62406,-2.31347 0.72618,-5.18441 0.11705,-3.28728 0.0875,-3.59499 -0.53669,-5.60618 -0.84204,-2.71273 -1.59299,-4.19954 -3.04503,-6.02797 -3.29675,-4.15173 -7.23433,-6.41804 -12.15885,-6.99838 -7.13737,-0.84115 -13.72667,2.20242 -17.51929,8.09209 -1.4072,2.18516 -2.03405,3.67154 -2.57145,6.09682 -0.60938,2.75102 -0.60676,4.87318 0.009,7.74325 z m 14.30874,-8.81534 1.70654,-2.16895 -0.89218,-0.73871 c -1.37779,-1.14069 -1.78875,-2.3083 -1.79501,-5.09981 l -0.006,-2.37645 h 4.63772 4.63748 l -0.0991,2.62023 c -0.11289,2.97356 -0.59729,4.28149 -1.88993,5.10361 l -0.74363,0.47291 1.6999,2.17813 c 0.93495,1.19796 1.70169,2.31337 1.70365,2.47879 0.002,0.16553 -0.30482,0.64784 -0.68201,1.07186 l -0.68588,0.77103 -1.07352,-1.39799 c -1.97993,-2.57854 -2.31761,-2.9188 -2.47833,-2.49818 -0.1278,0.33448 0.22836,0.91409 1.60048,2.60563 0.16318,0.20102 0.55081,0.72586 0.86163,1.16615 l 0.56498,0.80051 -0.6513,0.85769 c -0.35816,0.47164 -0.74208,0.82444 -0.85295,0.78386 -0.11103,-0.0406 -0.87641,-0.935 -1.70086,-1.98746 -1.04417,-1.33288 -1.576,-1.83595 -1.75307,-1.65817 -0.17699,0.1777 0.17083,0.81224 1.14612,2.09137 0.77009,1.00978 1.5269,1.94178 1.68201,2.07106 0.15505,0.12918 0.93332,0.26863 1.72956,0.30967 l 1.4476,0.0749 0.0727,1.52349 0.0727,1.52343 h -3.16638 -3.16638 v 1.58433 1.58443 h -1.46332 -1.46317 l 0.0684,-3.1079 0.0682,-3.10778 1.39537,-0.0734 c 0.76746,-0.0401 1.39533,-0.12129 1.39533,-0.18014 0,-0.0581 -0.15881,-0.30014 -0.35284,-0.53625 -1.57581,-1.9171 -3.2865,-4.19015 -3.28354,-4.36282 0.002,-0.11556 0.77172,-1.18621 1.71035,-2.37917 z m 2.41452,-5.38426 c 1.04651,0.95122 2.67938,0.32799 3.04122,-1.16069 l 0.16305,-0.67036 h -1.84625 -1.8465 v 0.69348 c 0,0.38538 0.21707,0.89072 0.48848,1.13757 z m -3.24561,19.78811 c 0.21232,-0.21326 3.68597,-0.21906 6.60268,-0.0107 l 2.22129,0.1584 v 1.66977 1.6696 h -3.03341 -3.03343 v 1.47466 1.47465 l -1.39535,-0.0735 -1.39536,-0.0735 -0.0679,-3.06028 c -0.0373,-1.68307 0.008,-3.13641 0.10074,-3.22956 z"
       inkscape:connector-curvature="0"
       style="fill:none;fill-opacity:1;stroke:#000000;stroke-width:0.46760488;stroke-linecap:round;stroke-linejoin:round;stroke-opacity:1" />
    <path
       id="path4-4-2"
       d="M 386.45705,12.58226 H 229.2341 c -0.43758,0.0109 -2.28269,-0.007 -4.29318,0.82475 -0.57187,0.23668 -1.58839,0.69965 -2.63185,1.59772 -1.09162,0.93958 -1.65292,1.96065 -1.9066,2.53708 -0.0264,0.0602 -0.27176,0.60731 -0.40333,1.24873 -0.0714,0.34774 -0.0929,0.70413 -0.11621,1.17614 v 331.50838 c 0,0 0.005,0.76834 0.19687,1.50287 0.0557,0.21305 0.1924,0.71765 0.53862,1.36994 0.47256,0.89034 1.1032,1.55916 1.5775,1.98632 1.15475,1.04011 2.46724,1.62857 3.40027,1.94453 1.56518,0.53005 2.90066,0.56234 3.63791,0.5808 l 157.56187,1e-5"
       inkscape:connector-curvature="0"
       style="fill:none;fill-opacity:1;stroke:#000000;stroke-width:0.4695099;stroke-linecap:round;stroke-linejoin:round;stroke-opacity:1" />
    <path
       id="path6-5-0"
       d="m 386.31432,358.86326 39.59909,-1e-5 -3e-5,-346.27777 h -39.50451"
       inkscape:connector-curvature="0"
       style="fill:none;fill-opacity:1;stroke:#000000;stroke-width:0.4695099;stroke-linecap:round;stroke-linejoin:round;stroke-opacity:1" />
    <path
       id="path8-0-6"
       d="m 304.6799,183.48201 c 0.20927,-1.83934 1.53159,-5.6073 2.68803,-7.66 1.38209,-2.45276 4.01608,-5.22964 6.54885,-6.90385 0.96345,-0.63682 1.80651,-1.15777 1.87362,-1.15777 0.0676,0 0.72398,-0.27663 1.45984,-0.61458 0.73571,-0.33808 1.6945,-0.68284 2.13053,-0.76607 0.4359,-0.0833 1.12023,-0.32222 1.5207,-0.53098 1.05654,-0.55079 7.69201,-0.54674 8.73616,0.005 0.40045,0.21172 1.11036,0.46482 1.57742,0.5623 3.21895,0.67186 7.98627,4.00149 10.4486,7.29781 2.96867,3.97399 4.11169,7.4524 4.11169,12.51137 0,5.02016 -1.10548,8.52939 -3.89653,12.36851 -1.7977,2.47307 -5.93707,5.83013 -8.16102,6.61888 -0.24197,0.0858 -0.8933,0.35705 -1.44726,0.60268 -1.22698,0.54408 -5.01584,1.18587 -7.00095,1.18587 -6.43333,0 -12.73475,-3.12378 -16.44846,-8.15395 -2.79039,-3.77959 -4.02092,-7.22355 -4.1638,-11.65289 -0.0484,-1.50577 -0.0384,-3.17651 0.0228,-3.71279 z m 2.7775,6.6464 c 0.28031,1.30474 0.58949,2.48188 0.68729,2.61597 0.0975,0.13409 0.32736,0.62759 0.50999,1.0969 0.63721,1.63638 2.02251,3.54819 3.97438,5.48423 2.19726,2.17943 4.16019,3.37722 7.23923,4.41731 1.78599,0.60337 2.36006,0.67823 5.27991,0.68911 2.80556,0.0104 3.53738,-0.0717 5.09611,-0.56992 6.06725,-1.9408 10.2232,-5.94163 12.30853,-11.84882 0.49719,-1.40833 0.62405,-2.31347 0.72618,-5.18441 0.11705,-3.28728 0.0875,-3.59499 -0.5367,-5.60618 -0.84204,-2.71273 -1.59298,-4.19954 -3.04503,-6.02797 -3.29675,-4.15173 -7.23433,-6.41804 -12.15884,-6.99838 -7.13738,-0.84115 -13.72667,2.20242 -17.5193,8.09209 -1.4072,2.18516 -2.03405,3.67154 -2.57144,6.09681 -0.60939,2.75102 -0.60676,4.87319 0.009,7.74326 z m 14.30874,-8.81534 1.70654,-2.16895 -0.89218,-0.73871 c -1.37779,-1.14069 -1.78875,-2.3083 -1.79501,-5.09981 l -0.006,-2.37645 h 4.63771 4.63749 l -0.0991,2.62023 c -0.11289,2.97356 -0.59729,4.28149 -1.88993,5.10361 l -0.74363,0.47291 1.6999,2.17812 c 0.93495,1.19797 1.70169,2.31338 1.70365,2.47879 0.002,0.16554 -0.30482,0.64784 -0.68202,1.07187 l -0.68587,0.77103 -1.07352,-1.39799 c -1.97993,-2.57854 -2.31762,-2.9188 -2.47833,-2.49819 -0.1278,0.33448 0.22836,0.9141 1.60047,2.60564 0.16318,0.20102 0.55082,0.72585 0.86163,1.16615 l 0.56499,0.80051 -0.6513,0.85769 c -0.35817,0.47164 -0.74208,0.82444 -0.85296,0.78386 -0.11102,-0.0406 -0.8764,-0.935 -1.70086,-1.98746 -1.04416,-1.33288 -1.57599,-1.83595 -1.75306,-1.65817 -0.17699,0.1777 0.17083,0.81224 1.14611,2.09137 0.77009,1.00978 1.52691,1.94178 1.68202,2.07106 0.15505,0.12918 0.93332,0.26863 1.72956,0.30967 l 1.4476,0.0749 0.0727,1.52348 0.0727,1.52344 h -3.16638 -3.16638 v 1.58433 1.58443 h -1.46332 -1.46317 l 0.0684,-3.1079 0.0682,-3.10778 1.39537,-0.0734 c 0.76746,-0.0401 1.39533,-0.12128 1.39533,-0.18014 0,-0.0581 -0.15881,-0.30014 -0.35284,-0.53625 -1.57582,-1.9171 -3.2865,-4.19015 -3.28354,-4.36282 0.002,-0.11556 0.77172,-1.18621 1.71035,-2.37917 z m 2.41452,-5.38426 c 1.04651,0.95122 2.67938,0.32799 3.04122,-1.16069 l 0.16305,-0.67036 h -1.84625 -1.8465 v 0.69348 c 0,0.38538 0.21707,0.89072 0.48848,1.13757 z m -3.24562,19.78811 c 0.21233,-0.21326 3.68598,-0.21906 6.60269,-0.0107 l 2.22129,0.1584 v 1.66977 1.6696 h -3.03341 -3.03343 v 1.47466 1.47465 l -1.39535,-0.0735 -1.39536,-0.0735 -0.0679,-3.06028 c -0.0373,-1.68307 0.008,-3.13641 0.10074,-3.22956 z"
       inkscape:connector-curvature="0"
       style="fill:none;fill-opacity:1;stroke:#000000;stroke-width:0.46760488;stroke-linecap:round;stroke-linejoin:round;stroke-opacity:1" />
    <path
       id="path4-4-2-5"
       d="M 177.60692,12.57855 H 20.383969 c -0.437575,0.0109 -2.282693,-0.007 -4.293183,0.82475 -0.571865,0.23668 -1.588391,0.69965 -2.631847,1.59772 -1.091622,0.93958 -1.652924,1.96065 -1.9066,2.53708 -0.02645,0.0602 -0.271758,0.60731 -0.403332,1.24873 -0.07144,0.34774 -0.09294,0.70413 -0.116207,1.17614 v 331.50838 c 0,0 0.0049,0.76834 0.196871,1.50287 0.05568,0.21305 0.192403,0.71765 0.538622,1.36994 0.472553,0.89034 1.103195,1.55916 1.577492,1.98632 1.154758,1.04011 2.467248,1.62857 3.400275,1.94453 1.565175,0.53005 2.900663,0.56234 3.637909,0.5808 l 157.561871,10e-6"
       inkscape:connector-curvature="0"
       style="fill:none;fill-opacity:1;stroke:#000000;stroke-width:0.4695099;stroke-linecap:round;stroke-linejoin:round;stroke-opacity:1" />
    <path
       id="path6-5-0-5"
       d="m 177.46419,358.85955 39.59909,-1e-5 -3e-5,-346.27777 h -39.50451"
       inkscape:connector-curvature="0"
       style="fill:none;fill-opacity:1;stroke:#000000;stroke-width:0.4695099;stroke-linecap:round;stroke-linejoin:round;stroke-opacity:1" />
    <path
       id="path8-0-6-4"
       d="m 95.82977,183.4783 c 0.20927,-1.83934 1.53159,-5.6073 2.68803,-7.66 1.38209,-2.45276 4.01608,-5.22964 6.54885,-6.90385 0.96345,-0.63682 1.80651,-1.15777 1.87362,-1.15777 0.0676,0 0.72398,-0.27663 1.45984,-0.61458 0.73571,-0.33808 1.6945,-0.68284 2.13053,-0.76607 0.4359,-0.0833 1.12023,-0.32222 1.5207,-0.53098 1.05654,-0.55079 7.69201,-0.54674 8.73616,0.005 0.40045,0.21172 1.11036,0.46482 1.57742,0.5623 3.21895,0.67186 7.98627,4.00149 10.4486,7.29781 2.96867,3.97399 4.11169,7.4524 4.11169,12.51137 0,5.02016 -1.10548,8.52939 -3.89653,12.36851 -1.7977,2.47307 -5.93707,5.83013 -8.16102,6.61888 -0.24197,0.0858 -0.8933,0.35705 -1.44726,0.60268 -1.22698,0.54408 -5.01584,1.18587 -7.00095,1.18587 -6.43333,0 -12.73475,-3.12378 -16.44846,-8.15395 -2.79039,-3.77959 -4.02092,-7.22355 -4.1638,-11.65289 -0.0484,-1.50577 -0.0384,-3.17651 0.0228,-3.71279 z m 2.7775,6.6464 c 0.28031,1.30474 0.58949,2.48188 0.68729,2.61597 0.0975,0.13409 0.32736,0.62759 0.50999,1.0969 0.63721,1.63638 2.02251,3.54819 3.97438,5.48423 2.19726,2.17943 4.16019,3.37722 7.23923,4.41731 1.78599,0.60337 2.36006,0.67823 5.27991,0.68911 2.80556,0.0104 3.53738,-0.0717 5.09611,-0.56992 6.06725,-1.9408 10.2232,-5.94163 12.30853,-11.84882 0.49719,-1.40833 0.62405,-2.31347 0.72618,-5.18441 0.11705,-3.28728 0.0875,-3.59499 -0.5367,-5.60618 -0.84204,-2.71273 -1.59298,-4.19954 -3.04503,-6.02797 -3.29675,-4.15173 -7.23433,-6.41804 -12.15884,-6.99838 -7.13738,-0.84115 -13.72667,2.20242 -17.5193,8.09209 -1.4072,2.18516 -2.03405,3.67154 -2.57144,6.09681 -0.60939,2.75102 -0.60676,4.87319 0.009,7.74326 z m 14.30874,-8.81534 1.70654,-2.16895 -0.89218,-0.73871 c -1.37779,-1.14069 -1.78875,-2.3083 -1.79501,-5.09981 l -0.006,-2.37645 h 4.63771 4.63749 l -0.0991,2.62023 c -0.11289,2.97356 -0.59729,4.28149 -1.88993,5.10361 l -0.74363,0.47291 1.6999,2.17812 c 0.93495,1.19797 1.70169,2.31338 1.70365,2.47879 0.002,0.16554 -0.30482,0.64784 -0.68202,1.07187 l -0.68587,0.77103 -1.07352,-1.39799 c -1.97993,-2.57854 -2.31762,-2.9188 -2.47833,-2.49819 -0.1278,0.33448 0.22836,0.9141 1.60047,2.60564 0.16318,0.20102 0.55082,0.72585 0.86163,1.16615 l 0.56499,0.80051 -0.6513,0.85769 c -0.35817,0.47164 -0.74208,0.82444 -0.85296,0.78386 -0.11102,-0.0406 -0.8764,-0.935 -1.70086,-1.98746 -1.04416,-1.33288 -1.57599,-1.83595 -1.75306,-1.65817 -0.17699,0.1777 0.17083,0.81224 1.14611,2.09137 0.77009,1.00978 1.52691,1.94178 1.68202,2.07106 0.15505,0.12918 0.93332,0.26863 1.72956,0.30967 l 1.4476,0.0749 0.0727,1.52348 0.0727,1.52344 h -3.16638 -3.16638 v 1.58433 1.58443 h -1.46332 -1.46317 l 0.0684,-3.1079 0.0682,-3.10778 1.39537,-0.0734 c 0.76746,-0.0401 1.39533,-0.12128 1.39533,-0.18014 0,-0.0581 -0.15881,-0.30014 -0.35284,-0.53625 -1.57582,-1.9171 -3.2865,-4.19015 -3.28354,-4.36282 0.002,-0.11556 0.77172,-1.18621 1.71035,-2.37917 z m 2.41452,-5.38426 c 1.04651,0.95122 2.67938,0.32799 3.04122,-1.16069 l 0.16305,-0.67036 h -1.84625 -1.8465 v 0.69348 c 0,0.38538 0.21707,0.89072 0.48848,1.13757 z m -3.24562,19.78811 c 0.21233,-0.21326 3.68598,-0.21906 6.60269,-0.0107 l 2.22129,0.1584 v 1.66977 1.6696 h -3.03341 -3.03343 v 1.47466 1.47465 l -1.39535,-0.0735 -1.39536,-0.0735 -0.0679,-3.06028 c -0.0373,-1.68307 0.008,-3.13641 0.10074,-3.22956 z"
       inkscape:connector-curvature="0"
       style="fill:none;fill-opacity:1;stroke:#000000;stroke-width:0.46760488;stroke-linecap:round;stroke-linejoin:round;stroke-opacity:1" />
  </g>
</svg>
