<?xml version="1.0" encoding="UTF-8" standalone="no"?>
<!-- exported from Silhouette Studio® Business Edition V4.2.471ssbe -->

<svg
   xmlns:dc="http://purl.org/dc/elements/1.1/"
   xmlns:cc="http://creativecommons.org/ns#"
   xmlns:rdf="http://www.w3.org/1999/02/22-rdf-syntax-ns#"
   xmlns:svg="http://www.w3.org/2000/svg"
   xmlns="http://www.w3.org/2000/svg"
   xmlns:sodipodi="http://sodipodi.sourceforge.net/DTD/sodipodi-0.dtd"
   xmlns:inkscape="http://www.inkscape.org/namespaces/inkscape"
   version="1.1"
   width="800mm"
   height="800mm"
   viewBox="0 0 800.00003 800"
   id="svg8"
   sodipodi:docname="E7450_LID.svg"
   inkscape:version="0.92.3 (2405546, 2018-03-11)">
  <metadata
     id="metadata12">
    <rdf:RDF>
      <cc:Work
         rdf:about="">
        <dc:format>image/svg+xml</dc:format>
        <dc:type
           rdf:resource="http://purl.org/dc/dcmitype/StillImage" />
        <dc:title></dc:title>
      </cc:Work>
    </rdf:RDF>
  </metadata>
  <sodipodi:namedview
     pagecolor="#ffffff"
     bordercolor="#666666"
     borderopacity="1"
     objecttolerance="10"
     gridtolerance="10"
     guidetolerance="10"
     inkscape:pageopacity="0"
     inkscape:pageshadow="2"
     inkscape:window-width="1920"
     inkscape:window-height="1017"
     id="namedview10"
     showgrid="false"
     inkscape:zoom="0.29435284"
     inkscape:cx="1158.4134"
     inkscape:cy="1832.0997"
     inkscape:window-x="-8"
     inkscape:window-y="-8"
     inkscape:window-maximized="1"
     inkscape:current-layer="g16"
     showguides="true"
     inkscape:guide-bbox="true" />
  <defs
     id="defs2" />
  <g
     id="g16"
     transform="rotate(-180,232.64063,234.71475)">
    <path
       id="path4"
       d="m -55.49023,257.22007 c -0.50965,-0.2524 -1.11866,-0.4626 -1.35334,-0.467 -0.47418,-0.009 -2.36194,-1.3645 -3.51922,-2.5273 -0.41266,-0.4145 -1.02948,-1.2612 -1.37049,-1.8813 -1.51983,-2.7637 -1.94171,-4.7179 -2.45465,-11.3704 l -0.2857,-204.46882 c -0.135531,-3.502885 5.699402,-7.570799 8.983397,-7.65015 l 159.935333,0 c 148.3106,0 160.5145,0.150513 160.5145,0.150513 4.45051,0.05197 7.53938,4.865674 7.70937,7.796147 l -0.4405,210.65501 c -0.2061,0.7715 -0.4507,1.7893 -0.5437,2.2616 -0.0929,0.4723 -0.3934,1.1484 -0.6676,1.5027 -0.2743,0.3544 -0.4988,0.7512 -0.4988,0.8821 0,0.2382 -0.2616,0.5533 -1.6731,2.0142 -1.3405,1.3876 -1.6954,1.6861 -2.0044,1.6861 -0.1665,0 -0.5678,0.212 -0.8917,0.4709 -0.324,0.2588 -0.7354,0.4707 -0.9143,0.4707 -0.1789,0 -0.7411,0.2155 -1.2492,0.479 -0.7836,0.4062 -1.2833,0.4688 -3.2914,0.4119 l -3.42603,-0.067 -0.1159,-3.4915 c -0.103,-3.1061 -0.1654,-3.5283 -0.5654,-3.825 -0.3868,-0.287 -20.74477,-0.3337 -152.55157,-0.3337 -122.273823,0 -152.1398,0.0592 -152.2894,0.2943 -0.10303,0.1618 0.04596,1.91368 -0.30322,3.8251 l -0.11585,3.5308 -3.374493,0.055 c -1.90057,0.0452 -2.48242,-0.0273 -3.24267,-0.4039 z"
       inkscape:connector-curvature="0"
       style="fill:none;fill-opacity:1;stroke:#000000;stroke-width:0.35277781;stroke-linecap:round;stroke-linejoin:round;stroke-opacity:1"
       sodipodi:nodetypes="cccccccscccccscscscccccscscccc" />
    <path
       id="path6"
       d="m 107.02953,160.99552 c 1.33628,-0.18845 2.71331,-0.49103 3.06015,-0.67261 0.34695,-0.18149 1.45793,-0.73462 2.46921,-1.22907 5.18952,-2.53758 8.86441,-7.79442 9.36085,-13.39024 0.22216,-2.50592 0.041,-6.50426 -0.31494,-6.9484 -0.12967,-0.16182 -0.32632,-0.77333 -0.43658,-1.35893 -0.11037,-0.58569 -0.41413,-1.33422 -0.6753,-1.66342 -0.26118,-0.32929 -0.4747,-0.78845 -0.4747,-1.02035 0,-0.232 -0.11036,-0.48931 -0.24502,-0.57189 -0.13465,-0.0825 -0.49248,-0.53528 -0.79502,-1.00603 -2.42794,-3.77764 -6.42793,-6.25079 -11.78818,-7.28808 -2.85396,-0.55233 -3.3561,-0.55888 -5.96087,-0.0789 -4.337643,0.79935 -8.165857,2.85861 -10.584927,5.69383 -0.821808,0.96308 -1.594794,1.96126 -1.717731,2.21806 -0.122936,0.2568 -0.588393,1.04485 -1.034124,1.75104 -0.445791,0.70628 -0.816959,1.49443 -0.824835,1.75124 -0.0079,0.2567 -0.223669,0.92477 -0.479786,1.48465 -0.399461,0.87315 -0.465822,1.52973 -0.465822,4.62044 0,3.14193 0.06042,3.71976 0.471035,4.51799 0.258902,0.50333 0.472398,1.10334 0.474573,1.33312 0.0057,0.60979 1.957648,4.11832 2.978622,5.35434 2.42968,2.94089 7.117648,5.89245 9.963995,6.27327 0.71209,0.0953 1.5065,0.25822 1.76545,0.36217 0.72438,0.29108 2.58312,0.2442 5.25395,-0.13228 z"
       inkscape:connector-curvature="0"
       style="fill:none;fill-opacity:1;stroke:#000000;stroke-width:0.35277781;stroke-linecap:round;stroke-linejoin:round;stroke-opacity:1" />
  </g>
</svg>
