<?xml version="1.0" encoding="UTF-8" standalone="no"?>
<!-- exported from Silhouette Studio Business Edition V4.1.454ssbe -->

<svg
   xmlns:dc="http://purl.org/dc/elements/1.1/"
   xmlns:cc="http://creativecommons.org/ns#"
   xmlns:rdf="http://www.w3.org/1999/02/22-rdf-syntax-ns#"
   xmlns:svg="http://www.w3.org/2000/svg"
   xmlns="http://www.w3.org/2000/svg"
   xmlns:sodipodi="http://sodipodi.sourceforge.net/DTD/sodipodi-0.dtd"
   xmlns:inkscape="http://www.inkscape.org/namespaces/inkscape"
   version="1.1"
   width="1200mm"
   height="784mm"
   viewBox="0 0 1200 784"
   id="svg48"
   sodipodi:docname="E7470_LID_TS.svg"
   inkscape:version="0.92.3 (2405546, 2018-03-11)">
  <metadata
     id="metadata52">
    <rdf:RDF>
      <cc:Work
         rdf:about="">
        <dc:format>image/svg+xml</dc:format>
        <dc:type
           rdf:resource="http://purl.org/dc/dcmitype/StillImage" />
        <dc:title></dc:title>
      </cc:Work>
    </rdf:RDF>
  </metadata>
  <sodipodi:namedview
     pagecolor="#ffffff"
     bordercolor="#666666"
     borderopacity="1"
     objecttolerance="10"
     gridtolerance="10"
     guidetolerance="10"
     inkscape:pageopacity="0"
     inkscape:pageshadow="2"
     inkscape:window-width="1680"
     inkscape:window-height="903"
     id="namedview50"
     showgrid="false"
     inkscape:zoom="0.45054008"
     inkscape:cx="701.43664"
     inkscape:cy="2009.3781"
     inkscape:window-x="0"
     inkscape:window-y="28"
     inkscape:window-maximized="1"
     inkscape:current-layer="svg48" />
  <defs
     id="defs2" />
  <g
     id="g157"
     transform="rotate(90,356.8295,231.13727)">
    <path
       style="fill:none;fill-opacity:1;stroke:#000000;stroke-width:0.20091845;stroke-linecap:round;stroke-linejoin:round;stroke-miterlimit:4;stroke-dasharray:none;stroke-opacity:1"
       id="path4-0"
       d="m 508.30627,116.48461 h 0.15231 v 8.07363 c 0,0 -258.75106,6e-5 -287.50118,6e-5"
       inkscape:connector-curvature="0" />
    <path
       style="fill:none;fill-opacity:1;stroke:#000000;stroke-width:0.20091845;stroke-linecap:round;stroke-linejoin:round;stroke-miterlimit:4;stroke-dasharray:none;stroke-opacity:1"
       id="path6-63"
       d="m 217.48182,124.55824 h -11.46133 v -8.07369 h 0.2268"
       inkscape:connector-curvature="0" />
    <path
       style="fill:none;fill-opacity:1;stroke:#000000;stroke-width:0.14431858;stroke-linecap:round;stroke-linejoin:round;stroke-miterlimit:4;stroke-dasharray:none;stroke-opacity:1"
       id="path34-56"
       d="m 220.90076,124.5583 h -3.31949"
       inkscape:connector-curvature="0" />
    <path
       style="opacity:1;vector-effect:none;fill:none;fill-opacity:1;fill-rule:evenodd;stroke:#000000;stroke-width:0.26579836;stroke-linecap:butt;stroke-linejoin:miter;stroke-miterlimit:4;stroke-dasharray:none;stroke-dashoffset:0;stroke-opacity:1"
       d="M 524.07373,128.32053 V 333.954 c 0,6.70924 -5.35197,12.11054 -11.99993,12.11054 H 201.58521 c -6.64796,0 -11.99993,-5.4013 -11.99993,-12.11054 V 128.32053 c 0,-6.70924 5.35197,-12.11054 11.99993,-12.11054 H 512.0738 c 6.64796,0 11.99993,5.4013 11.99993,12.11054 z"
       id="rect931"
       inkscape:connector-curvature="0" />
    <g
       transform="translate(-0.9996954)"
       id="g144">
      <path
         style="fill:none;fill-opacity:1;stroke:#000000;stroke-width:0.20091845;stroke-linecap:round;stroke-linejoin:round;stroke-miterlimit:4;stroke-dasharray:none;stroke-opacity:1"
         id="path10"
         d="m 360.13294,213.65032 c 1.96419,0.31023 4.21478,1.17078 6.18056,2.41323 0.58289,0.36846 3.00859,1.93465 5.00887,4.75853 0.9392,1.3258 2.10419,3.37349 2.75179,5.89783 0.14619,0.5696 0.35669,1.43914 0.44439,2.90734 0.0332,0.55699 0.1141,2.05425 -0.0525,3.71975 -0.3128,3.12644 -1.59999,5.73667 -2.66318,7.38168 -0.7875,1.21852 -2.36569,3.35412 -5.05227,5.18836 -0.5463,0.373 -1.85829,1.26061 -3.94427,1.96171 -0.1876,0.0631 -1.89409,0.62944 -3.85388,0.89264 -0.5789,0.0777 -1.60889,0.19963 -2.91848,0.0919 -0.295,-0.0242 -1.48089,-0.1316 -2.92328,-0.46413 -2.22259,-0.51258 -4.11319,-1.28009 -5.98638,-2.59176 -1.21278,-0.84925 -3.33678,-2.55139 -5.07696,-5.40645 -0.78249,-1.28382 -1.41499,-2.68137 -1.98858,-4.60574 -0.0382,-0.12827 -0.44981,-1.42793 -0.4907,-2.63273 -0.0308,-0.90516 0.0712,-4.30166 0.0828,-4.52783 0.0546,-1.05796 0.1891,-1.52552 0.42141,-2.31543 1.72119,-5.85353 5.58435,-8.87047 7.08704,-9.89775 0.7996,-0.54669 2.77349,-1.85452 5.91388,-2.57066 1.20239,-0.2742 2.64818,-0.45162 4.08627,-0.43628 0,0 1.64739,0.0262 2.97348,0.23575"
         inkscape:connector-curvature="0" />
      <path
         style="fill:none;fill-opacity:1;stroke:#000000;stroke-width:0.20091845;stroke-linecap:round;stroke-linejoin:round;stroke-miterlimit:4;stroke-dasharray:none;stroke-opacity:1"
         id="path12"
         d="m 353.65308,215.78258 c -1.54699,0.32174 -2.85808,0.92636 -3.00228,0.99125 -0.4157,0.18711 -1.23799,0.5914 -2.00689,1.08319 -0.1452,0.0928 -0.79629,0.51913 -1.39899,1.0088 -0.58099,0.47201 -1.97079,1.63109 -3.30938,3.74559 -1.34239,2.12046 -1.991,4.32427 -2.17918,5.14123 -0.16651,0.7229 -0.188,1.47628 -0.1966,2.46571 l 0.008,2.51859 c 0,0 0.006,0.48956 0.0644,0.97419 0.1679,1.39866 0.95049,3.57967 1.92158,5.2914 0.4955,0.87337 0.9895,1.58839 1.63939,2.35176 0.1655,0.19448 0.8307,0.98075 1.80289,1.80498 1.0557,0.89497 3.10978,2.46217 6.12747,3.18769 1.31339,0.31579 3.75067,0.72209 6.74725,0.2188 0.9336,-0.15683 3.23778,-0.60744 5.84307,-2.40273 2.29018,-1.578 3.65427,-3.38348 4.33407,-4.42095 1.53509,-2.34249 1.99459,-4.34991 2.16379,-5.17494 0.2033,-0.99115 0.63049,-3.77011 0.0396,-6.74739 -0.3518,-1.77237 -1.75929,-6.66382 -6.78526,-9.91591 -0.9703,-0.62783 -2.80608,-1.63149 -5.34077,-2.18433 -1.03879,-0.22657 -1.80679,-0.34182 -3.02088,-0.30943 0,0 -1.92149,0.0543 -3.45138,0.3725"
         inkscape:connector-curvature="0" />
      <path
         style="fill:none;fill-opacity:1;stroke:#000000;stroke-width:0.20091845;stroke-linecap:round;stroke-linejoin:round;stroke-miterlimit:4;stroke-dasharray:none;stroke-opacity:1"
         id="path14"
         d="m 360.35384,227.52143 c 0,0 1.59288,1.23104 2.12478,1.64017 0.2909,0.22384 0.28291,0.2404 0.6056,0.41398 0.0463,-0.0426 0.1114,-0.096 0.1543,-0.142 0.0539,-0.0581 0.1153,-0.14482 0.1646,-0.20699 0.0763,-0.0964 0.1751,-0.22737 0.2536,-0.32193 l 0.2251,-0.25705 c 0.0111,-0.0127 0.1197,-0.1426 0.2345,-0.2409 0,0 0.2626,-0.21062 0.45019,-0.33253 0.0444,-0.0289 0.4449,-0.31559 0.9541,-0.45617 0.26,-0.0718 0.4428,-0.0928 0.89169,-0.11202 0.5463,-0.0234 3.46298,-0.0218 3.64528,-0.0221 v 7.66789 c -1.2358,-0.0153 -1.7673,5e-4 -3.52968,-0.10779 -0.201,-0.0123 -0.75719,-0.0388 -1.00259,-0.0955 -0.1671,-0.0386 -0.46361,-0.13372 -0.7832,-0.35181 0,0 -0.36509,-0.25573 -0.69029,-0.5583 -0.0868,-0.0807 -0.346,-0.32718 -0.5424,-0.57545 -0.0643,-0.0812 -0.1538,-0.18721 -0.2083,-0.27551 -0.0468,-0.0759 -0.092,-0.18671 -0.1315,-0.26674 l -0.0564,-0.0365 -0.0762,0.0164 -3.79457,3.00028 c 0,0 -0.8611,-0.62379 -1.0623,-0.79758 -0.0774,-0.0669 -0.18289,-0.15531 -0.24779,-0.23464 -0.0341,-0.0418 -0.0669,-0.10687 -0.0955,-0.15269 0.0463,-0.0573 0.1041,-0.13705 0.1542,-0.19104 0.0582,-0.0628 0.14439,-0.13786 0.20779,-0.19529 0.1674,-0.15158 0.3953,-0.34838 0.5672,-0.49471 0.3075,-0.26169 1.18769,-0.97097 1.24949,-1.02294 0,0 0.5545,-0.48947 0.7895,-0.70231 0.0513,-0.0464 0.1241,-0.10375 0.1709,-0.15471 0.0401,-0.0436 0.0839,-0.11001 0.1198,-0.15714 l -0.0725,-0.16621 -0.1585,-0.1422 -0.0802,-0.0243 c -0.0693,0.0192 -0.1646,0.0358 -0.2309,0.0638 -0.0667,0.0281 -0.1477,0.0822 -0.2086,0.12141 -0.1251,0.0806 -0.2844,0.19942 -0.4044,0.28762 -0.2477,0.18186 -0.97299,0.75116 -1.21529,0.94018 0,0 -0.7054,0.5472 -1.18969,0.89245 -0.2433,0.17348 -0.2468,0.17106 -0.5134,0.30508 -0.3832,-0.17489 -0.432,-0.20133 -0.78839,-0.50622 0,0 -0.6646,-0.56869 -0.7384,-0.63186 0.8165,-0.61784 1.28489,-0.96895 2.31249,-1.79226 0,0 0.33079,-0.26078 0.64619,-0.53963 0,0 0.2473,-0.22293 0.3008,-0.28662 0.059,-0.0701 0.1235,-0.17479 0.1764,-0.24978 l 0.0108,-0.10637 c -0.0284,-0.033 -0.0782,-0.0908 -0.1498,-0.15723 l -0.2388,-0.0743 c -0.0771,0.0424 -0.2865,0.15078 -0.5032,0.30196 -0.16219,0.11313 -0.53099,0.39127 -1.05109,0.79717 -0.61799,0.48241 -1.03029,0.80364 -2.05089,1.61979 v 2.67471 h -2.81448 v -5.38202 l -2.59218,-0.0865 v -2.24732 h 5.33266 l 0.1481,2.52536 c 0,0 1.2347,-1.02658 2.07969,-1.68297 0,0 0.6695,-0.51025 0.7048,-0.5371 0,0 0.51779,-0.39813 0.69289,-0.52751 0.3347,-0.24716 0.3384,-0.24393 0.6982,-0.45203 0.098,0.054 0.2319,0.1201 0.3264,0.18004 0.102,0.0647 0.22879,0.16491 0.32649,0.23616 0.1513,0.11041 0.352,0.25927 0.5029,0.37038"
         inkscape:connector-curvature="0" />
      <path
         style="fill:none;fill-opacity:1;stroke:#000000;stroke-width:0.20091845;stroke-linecap:round;stroke-linejoin:round;stroke-miterlimit:4;stroke-dasharray:none;stroke-opacity:1"
         id="path16"
         d="m 365.8655,230.11672 c -0.0369,0.0437 -0.4563,0.46494 -0.4846,1.03787 -0.009,0.17611 0.011,0.43366 0.11491,0.69565 0,0 0.16909,0.4051 0.50389,0.62359 0.0715,0.0466 0.37229,0.22859 0.78589,0.33072 0.0542,0.0133 0.1831,0.0371 0.3685,0.0512 l 0.1711,-0.0589 c 0.0671,-0.0985 0.1369,-0.16511 0.164,-0.36231 l 0.0174,-0.25856 c 0.0165,-0.24392 0.0328,-2.44471 0.0328,-2.44471 -0.057,-1e-4 -0.80609,-0.0297 -1.1382,0.0518 -0.2141,0.0526 -0.38689,0.21638 -0.53569,0.33375"
         inkscape:connector-curvature="0" />
      <path
         style="fill:none;fill-opacity:1;stroke:#000000;stroke-width:0.20091845;stroke-linecap:round;stroke-linejoin:round;stroke-miterlimit:4;stroke-dasharray:none;stroke-opacity:1"
         id="path18"
         d="m 348.8751,231.22604 v 3.89889 h -2.66638 v -5.38202 l -2.59219,-0.0865 v -2.24732 l 5.25857,-0.0819 v 3.89888"
         inkscape:connector-curvature="0" />
    </g>
    <path
       style="fill:none;fill-opacity:1;stroke:#000000;stroke-width:0.14431858;stroke-linecap:round;stroke-linejoin:round;stroke-miterlimit:4;stroke-dasharray:none;stroke-opacity:1"
       id="path34"
       d="m 220.73896,124.23298 h -3.31949"
       inkscape:connector-curvature="0" />
  </g>
</svg>
