<?xml version="1.0" encoding="utf-8"?>
<!-- Generator: Adobe Illustrator 26.0.3, SVG Export Plug-In . SVG Version: 6.00 Build 0)  -->
<svg version="1.1" id="Layer_1" xmlns="http://www.w3.org/2000/svg" xmlns:xlink="http://www.w3.org/1999/xlink" x="0px" y="0px"
	 viewBox="0 0 4280.3 1133.9" style="enable-background:new 0 0 4280.3 1133.9;" xml:space="preserve">
<style type="text/css">
	.st0{fill:none;stroke:#010101;stroke-linecap:round;stroke-linejoin:round;stroke-miterlimit:11.3386;}
</style>
<g>
	<path class="st0" d="M523.8,986v69.4c0,6.3-6,11.3-13.4,11.3h-90.1V40.6h90.1c7.4,0,13.4,5.1,13.4,11.3v69.4"/>
	<line class="st0" x1="523.8" y1="183.8" x2="523.8" y2="923.6"/>
	<path class="st0" d="M523.8,183.8h-30c-1.4,0-2.6-1.3-2.6-2.8v-56.7c0-1.6,1.2-2.8,2.6-2.8h30"/>
	<path class="st0" d="M523.8,183.8"/>
	<path class="st0" d="M523.8,121.4"/>
	<path class="st0" d="M523.8,923.6h-30c-1.4,0-2.6,1.3-2.6,2.8v56.7c0,1.6,1.2,2.8,2.6,2.8h30"/>
	<path class="st0" d="M523.8,923.6"/>
	<path class="st0" d="M523.8,986"/>
	<circle class="st0" cx="455.1" cy="954.8" r="17"/>
</g>
<g>
	<g>
		<g>
			<line class="st0" x1="389.9" y1="56.5" x2="357.8" y2="42.3"/>
			<path class="st0" d="M118.1,277.3V50.5c0-4.7,3.8-8.5,8.5-8.5l231.2,0.3"/>
			<polyline class="st0" points="389.9,56.5 390.2,277.3 145.9,277.3 			"/>
		</g>
		<g>
			<path class="st0" d="M390.2,1066.8"/>
			<path class="st0" d="M357.8,1067.2"/>
			<path class="st0" d="M118.1,563.6v494.6c0,4.7,3.8,8.5,8.5,8.5l231.3,0.4"/>
			<polyline class="st0" points="390.5,694 390.2,563.6 145.9,563.6 			"/>
			<line class="st0" x1="390" y1="1053" x2="390.5" y2="847.1"/>
			<line class="st0" x1="390" y1="1053" x2="357.8" y2="1067.2"/>
			<g id="layer1">
				<path id="path1024" class="st0" d="M248.5,987.3c0.2,0.4,1,0.1,1.2,0.1c0.9,0,1.5,0.4,1.6,0.5c0.6,0.3,0.6,0,1.8,1.2
					c1.3,1.3,1.1,1.8,1.3,1.9c0.1,0,0.6-0.3,1-0.6c0.1-0.1,2.3-1.8,2.5-2c2.1-1.6,1.7-1.3,2.1-1.3l3.8,5.1c1.1,1.4,1.1,1.5,1.1,1.6
					c0,0.2-0.5,0.5-3.8,3.1c0,0-3.3,2.6-4.7,3.7c-0.1,0.1-2.2,1.7-3,2.4c-0.7,0.5-1,0.8-3.2,2.5c-1.2,1-1.6,1.3-1.6,1.3
					c-0.1,0.1-0.8,0.6-4.3,3.4l-0.5,0.4l-4.8,3.8c-0.6,0.5-1.3,1-2,1.6c-2.4,1.9-2.8,2.2-2.9,2.3c-0.6,0.4-0.5,0.3-0.7,0.3
					c-8.1-10.6-5.6-7.3-11.5-15c-1.3-1.6-1-1.3-1.2-1.6l-4.5-5.9c-3.6-4.7-3.6-4.7-3.7-4.8l-4.4-5.7l-4.8-6.3l-4.5-5.9l-3.5-4.5
					c-0.6-0.7-7.3-9.5-7.5-9.8c-0.4-0.6-1.4-1.8-3.5-4.5c-2.1-2.7-1.8-2.4-2.1-2.7l-5.1-6.6l-2.9-3.8c-0.8-1.1,0.1,0.2-1.9-2.5
					c-0.4-0.6-1.3-1.7-2.9-3.8c-2.4-3.2-2.3-3-2.3-3.1c-1-1.4-0.8-1.2-0.9-1.3c0.3-0.4,0.9-0.8,4.5-3.4c0.2-0.2,2.8-2,2.9-2.1
					c0.9-0.6-0.2,0.1,3.1-2.3c0,0,3-2.2,3.2-2.4l4.5-3.3c0.3-0.2,2.1-1.6,2.2-1.6c0,0,2.4-1.8,3-2.2c2.7-2,2.3-1.7,2.7-2.1
					c-1.3-2.2-2.7-3.4-2.7-3.9c0-0.3,0.2-0.3,1.9-1.5c0.3-0.2,3.8-2.8,4-2.9c0.7-0.5,0.8-0.6,1-0.6c0.2,0,0.4,0.3,2.1,2.6l3.1,4.1
					c0.4,0.6,3,4,5.5,7.3l3.9,5.2c1.2,1.6,1,1.5,1,1.5c-0.8,0.8-4.9,3.6-5.5,4.3c0.7,1.1,0.4-0.3,1.9,2.5c1.2,2.2,0.3,1.3,0.6,2.7
					c0.1,0,0.8-0.5,0.8-0.5c0,0,0.6-1.1,1.1-1.6c0.9-1,1.9-1.3,2-1.3c0.1,0,2.1-0.9,4.4,0.5c2.3,1.4,2.7,4.3,2.3,5.5
					c-0.6,2.2-2.4,3.7-4.4,3.9c0.2,0.3,0.1,0.4,3.3,4.6c2.1,2.7,1.9,1.6,2.6,2.9c1.4,2.6,1.1,1.9,1.1,3.4c0.1-0.1,0.1,0,0.6-0.4
					l3.5-2.7c2.1-1.6,2-1.6,2.3-1.6c0.3,0.1,0.6,0.7,1.8,2.2l3.1,4.1c0.2,0.2,0.3,0.4,0.3,0.5c0,0.3-2.9,2.2-5.5,4.4
					c0.5,0.7,2.9,3.9,3.4,4.5c6-4.5,5.1-4.2,5.8-4.1c2.4,3.4,5.8,7.4,6.7,9.9c0.3,0.7,1.3,3.2,0,5.9c-1.1,2.4-3,3.6-3.5,4.1
					c1.8,0.2,0.5-0.3,3.3,1.1c1.7,0.8-0.1-0.1,1.8,1.5c0,0,0.7,0.4,1.2,1.4c1.8,3,1.2,2.3,1.6,4C249,986.3,248.5,987.2,248.5,987.3
					L248.5,987.3z"/>
			</g>
			<g>
				<path class="st0" d="M295.2,637.3v-22.7c0-3.1,2.5-5.7,5.7-5.7h22.7c3.1,0,5.7,2.5,5.7,5.7v22.7c0,3.1-2.5,5.7-5.7,5.7h-22.7
					C297.8,643,295.2,640.4,295.2,637.3z"/>
				<path class="st0" d="M337.6,634.9v-18.8c0-2.3,1.9-4.3,4.3-4.3l0,0c2.3,0,4.3,1.9,4.3,4.3v18.8c0,2.3-1.9,4.3-4.3,4.3l0,0
					C339.5,639.1,337.6,637.2,337.6,634.9z"/>
			</g>
		</g>
		<line class="st0" x1="118.1" y1="563.6" x2="118.1" y2="277.3"/>
		<line class="st0" x1="143.6" y1="279.1" x2="143.6" y2="561.5"/>
		<polyline class="st0" points="145.9,277.3 144.2,278.2 143.6,279.1 		"/>
		<polyline class="st0" points="143.6,561.5 144.2,563 145.9,563.6 		"/>
	</g>
	<path class="st0" d="M156.2,555V285.7c0-3.1,2.5-5.7,5.7-5.7h181.4c1.6,0,2.8,1.3,2.8,2.8v275c0,1.6-1.3,2.8-2.8,2.8H161.8
		C158.7,560.6,156.2,558.1,156.2,555z"/>
	<path class="st0" d="M390.5,847.1h-28.3c-1.6,0-2.8-1.3-2.8-2.8V696.8c0-1.6,1.3-2.8,2.8-2.8h28.3"/>
	<path class="st0" d="M389.5,847.1"/>
	<path class="st0" d="M389.5,694"/>
</g>
</svg>
