<?xml version="1.0" encoding="utf-8"?>
<!-- Generator: Adobe Illustrator 25.2.0, SVG Export Plug-In . SVG Version: 6.00 Build 0)  -->
<svg version="1.1" id="Layer_1" xmlns="http://www.w3.org/2000/svg" xmlns:xlink="http://www.w3.org/1999/xlink" x="0px" y="0px"
	 viewBox="0 0 4280.3 1133.9" style="enable-background:new 0 0 4280.3 1133.9;" xml:space="preserve">
<style type="text/css">
	.st0{fill:none;stroke:#010101;stroke-miterlimit:11.3386;}
	.st1{fill:none;stroke:#010101;stroke-linecap:round;stroke-linejoin:round;stroke-miterlimit:11.3386;}
</style>
<g>
	<g id="g844" transform="translate(131.8856,68.644069)">
		<path id="rect833" class="st0" d="M223.1,180.1l0.1,252.8c0,3.2-2.5,5.7-5.7,5.7H-42.3c-3.1,0-5.7-2.5-5.7-5.7V68.3
			c0-3.2,2.5-5.7,5.7-5.7h259.8c3.1,0,5.7,2.5,5.7,5.7v101.8"/>
		<path id="rect837" class="st0" d="M-26.2,295.8v20.4c0,3.2-0.8,5.7-1.8,5.7h-12.4c-1,0-1.8-2.5-1.8-5.7v-20.4
			c0-3.2,0.8-5.7,1.8-5.7H-28C-27,290.1-26.2,292.6-26.2,295.8z"/>
		<path id="path839" class="st0" d="M223.2,170.1h-40.5l41.4,10"/>
	</g>
	<path id="rect911" class="st0" d="M318.4,539.6h-92.5c-1.6,0-2.8-1.3-2.8-2.8v-18.8c0-1.6,1.3-2.8,2.8-2.8h92.5
		c1.6,0,2.8,1.3,2.8,2.8v18.8C321.2,538.3,319.9,539.6,318.4,539.6z"/>
	<path id="rect911-4" class="st0" d="M218.7,539.6h-92.5c-1.6,0-2.8-1.3-2.8-2.8v-18.8c0-1.6,1.3-2.8,2.8-2.8h92.5
		c1.6,0,2.8,1.3,2.8,2.8v18.8C221.5,538.3,220.2,539.6,218.7,539.6z"/>
	<path id="path859_1_" class="st1" d="M355.1,637.9c0,80.7-0.1,89.6-0.8,90.4c-0.6,0.6-2,0.8-6.1,0.8c-3.4,0-5.9,0.3-7.1,0.8
		c-1,0.4-3.3,0.9-5.1,1.1c-1.8,0.2-3.8,0.7-4.4,1c-0.6,0.4-2,0.9-3.2,1.3c-2.8,0.8-7.7,5.2-10.7,9.7l-2.5,3.7l0,7.5
		c0,6.7,0.2,7.7,1.2,9.3c0.6,1,1.1,2.2,1.1,2.6s0.5,1.2,1.1,1.7c0.6,0.5,1.1,1.6,1.1,2.5c0,0.9,0.5,2.4,1.1,3.3
		c1.5,2.4,1.8,11.4,0.4,13.5c-0.5,0.8-0.9,1.7-0.9,2.1c0,0.4-1,2.6-2.2,4.9c-3,5.8-3.6,9.1-2.9,14.6c0.3,2.4,1.1,5.4,1.7,6.7
		c0.6,1.3,1.1,2.8,1.1,3.2c0,0.5,0.4,1.2,0.8,1.5c0.4,0.4,0.8,1.3,0.8,2c0,0.7,0.4,2.1,1,3c0.5,0.9,1.1,2.7,1.3,4
		c0.4,2.9-0.2,8.4-1,9.2c-0.4,0.4-0.8,1.7-1,3.1c-0.2,1.3-0.7,2.7-1.1,3c-0.4,0.3-1,1.8-1.3,3.3c-0.3,1.5-0.9,3.2-1.4,3.8
		c-0.4,0.6-0.8,1.8-0.8,2.6c0,0.8-0.5,2.8-1.1,4.5c-1.2,3.5-1.4,7.9-0.3,9.4c0.4,0.6,0.9,2.3,1.1,3.8c0.2,1.8,0.8,3.2,1.6,4.1
		c0.7,0.7,1.3,1.6,1.3,1.9c0,2.1,10.8,12.5,13,12.5c0.6,0,1.6,0.5,2.1,1.1c0.9,1,1.5,1.1,10.9,1c5.4,0,10.1,0.1,10.5,0.3
		c0.4,0.3,0.6,15.4,0.6,53"/>
	<g id="g876_1_" transform="translate(0,-58.737504)">
		<path id="path863_1_" class="st1" d="M84.3,1006.3v-49.7l1.4-1.6c0.8-0.9,1.7-1.6,2.1-1.6c0.4,0,0.7-0.4,0.7-0.8
			c0-0.5,0.4-1.6,0.8-2.5c0.7-1.5,0.8-6.9,0.6-42c-0.2-41.7-0.4-45.3-2.3-45.3c-0.4,0-1.3-0.6-2-1.3l-1.3-1.3V733.9"/>
		<path id="path10_1_" class="st1" d="M95.6,843.9c4.6,0.6,8.6,0,9.3-1.4c0.4-0.8,0.7-5,0.7-13c0.1-11,0-12-0.9-13.6
			c-1.2-2-3.1-2.5-7.6-2.1c-3.4,0.3-4.9,1.4-5.1,3.8c-0.1,0.9,0,7.1,0.1,13.8l0.3,12.1L95.6,843.9z"/>
	</g>
	<path id="rect855_1_" class="st0" d="M355.1,945.8l-0.1,51.1c0,3.2-0.8,5.7-1.8,5.7H85.7c-1,0-1.8-2.5-1.8-5.7l0.4-49.3
		 M84.3,675.2l-0.4-122.2c0-3.2,0.8-5.7,1.8-5.7h267.5c1,0,1.8,2.5,1.8,5.7l0.1,85"/>
	<g id="layer1_1_" transform="translate(341.11813,338.87908)">
		<path id="path1024_1_" class="st1" d="M-138,592.7c0.1,0.3,0.8,0.1,1,0.1c0.8,0,1.2,0.3,1.3,0.4c0.5,0.2,0.4,0,1.5,1
			c1.1,1.1,0.9,1.5,1.1,1.5c0.1,0,0.5-0.2,0.8-0.5c0.1-0.1,1.9-1.5,2.1-1.6c1.7-1.3,1.4-1.1,1.7-1.1l3.1,4.1
			c0.9,1.2,0.9,1.2,0.9,1.3c0,0.1-0.4,0.4-3.1,2.5c0,0-2.7,2.1-3.8,3c-0.1,0.1-1.7,1.4-2.4,1.9c-0.5,0.4-0.8,0.6-2.6,2.1
			c-1,0.8-1.3,1-1.3,1.1c-0.1,0-0.6,0.5-3.5,2.8l-0.4,0.3l-3.9,3.1c-0.5,0.4-1.1,0.8-1.6,1.3c-1.9,1.5-2.3,1.8-2.4,1.9
			c-0.5,0.4-0.4,0.2-0.6,0.3c-6.6-8.6-4.5-5.9-9.4-12.2c-1-1.3-0.8-1-1-1.3l-3.7-4.8c-2.9-3.8-2.9-3.8-3-3.9l-3.6-4.6l-3.9-5.1
			l-3.7-4.8l-2.8-3.7c-0.5-0.6-6-7.7-6.1-8c-0.4-0.5-1.1-1.4-2.8-3.7c-1.7-2.2-1.5-1.9-1.7-2.2l-4.1-5.4l-2.4-3.1
			c-0.7-0.9,0.1,0.1-1.5-2c-0.4-0.5-1.1-1.4-2.4-3.1c-2-2.6-1.9-2.5-1.9-2.5c-0.8-1.1-0.7-0.9-0.7-1.1c0.2-0.3,0.7-0.6,3.6-2.8
			c0.2-0.1,2.3-1.7,2.3-1.7c0.7-0.5-0.2,0.1,2.5-1.9c0,0,2.4-1.8,2.6-1.9l3.7-2.7c0.2-0.2,1.7-1.3,1.8-1.3c0,0,1.9-1.4,2.4-1.8
			c2.2-1.6,1.9-1.4,2.2-1.7c-1.1-1.8-2.2-2.8-2.2-3.2c0-0.2,0.2-0.2,1.5-1.3c0.2-0.2,3.1-2.3,3.2-2.4c0.6-0.4,0.7-0.5,0.8-0.5
			c0.2,0,0.3,0.2,1.7,2.1l2.5,3.3c0.3,0.4,2.4,3.2,4.4,5.9l3.1,4.2c0.9,1.3,0.8,1.2,0.8,1.2c-0.6,0.7-4,2.9-4.5,3.5
			c0.6,0.9,0.3-0.2,1.5,2c1,1.8,0.3,1.1,0.5,2.2c0.1,0,0.6-0.4,0.6-0.4c0,0,0.5-0.9,0.9-1.3c0.7-0.8,1.6-1,1.6-1.1
			c0.1,0,1.7-0.8,3.6,0.4c1.9,1.2,2.2,3.5,1.9,4.5c-0.5,1.8-1.9,3-3.5,3.2c0.1,0.3,0.1,0.3,2.7,3.7c1.7,2.2,1.5,1.3,2.1,2.3
			c1.1,2.1,0.9,1.5,0.9,2.8c0.1-0.1,0.1,0,0.5-0.3l2.9-2.2c1.7-1.3,1.6-1.3,1.9-1.3c0.3,0.1,0.5,0.6,1.5,1.8l2.5,3.4
			c0.1,0.2,0.2,0.3,0.2,0.4c0,0.3-2.4,1.8-4.5,3.6c0.4,0.6,2.3,3.2,2.7,3.6c4.9-3.6,4.1-3.4,4.7-3.3c2,2.8,4.7,6,5.4,8
			c0.2,0.6,1,2.6,0,4.8c-0.9,1.9-2.4,2.9-2.9,3.3c1.5,0.2,0.4-0.3,2.7,0.9c1.4,0.7-0.1-0.1,1.4,1.3c0,0,0.5,0.4,1,1.1
			c1.4,2.4,1,1.9,1.3,3.2C-137.6,591.9-138,592.6-138,592.7L-138,592.7z"/>
	</g>
</g>
</svg>
