<?xml version="1.0" encoding="UTF-8" standalone="no"?>
<!-- exported from Silhouette Studio® Business Edition V4.3.370ssbe -->

<svg
   xmlns:dc="http://purl.org/dc/elements/1.1/"
   xmlns:cc="http://creativecommons.org/ns#"
   xmlns:rdf="http://www.w3.org/1999/02/22-rdf-syntax-ns#"
   xmlns:svg="http://www.w3.org/2000/svg"
   xmlns="http://www.w3.org/2000/svg"
   xmlns:sodipodi="http://sodipodi.sourceforge.net/DTD/sodipodi-0.dtd"
   xmlns:inkscape="http://www.inkscape.org/namespaces/inkscape"
   version="1.1"
   width="594mm"
   height="841mm"
   viewBox="0 0 594.00002 841"
   id="svg22"
   sodipodi:docname="T520_W520_PR.svg"
   inkscape:version="0.92.3 (2405546, 2018-03-11)">
  <metadata
     id="metadata26">
    <rdf:RDF>
      <cc:Work
         rdf:about="">
        <dc:format>image/svg+xml</dc:format>
        <dc:type
           rdf:resource="http://purl.org/dc/dcmitype/StillImage" />
        <dc:title></dc:title>
      </cc:Work>
    </rdf:RDF>
  </metadata>
  <sodipodi:namedview
     pagecolor="#ffffff"
     bordercolor="#666666"
     borderopacity="1"
     objecttolerance="10"
     gridtolerance="10"
     guidetolerance="10"
     inkscape:pageopacity="0"
     inkscape:pageshadow="2"
     inkscape:window-width="1920"
     inkscape:window-height="1017"
     id="namedview24"
     showgrid="false"
     inkscape:zoom="0.83255555"
     inkscape:cx="697.86389"
     inkscape:cy="1504.6404"
     inkscape:window-x="-8"
     inkscape:window-y="-8"
     inkscape:window-maximized="1"
     inkscape:current-layer="svg22" />
  <defs
     id="defs2" />
  <g
     id="g844"
     transform="translate(131.8856,68.644069)"
     style="stroke:#000000;stroke-opacity:1;stroke-width:0.35277778;stroke-miterlimit:4;stroke-dasharray:none">
    <path
       style="opacity:1;fill:none;fill-opacity:0.12093021;stroke:#000000;stroke-width:0.35277778;stroke-miterlimit:4;stroke-dasharray:none;stroke-opacity:1"
       d="m -11.929046,437.74502 88.504245,-0.0193 c 1.108,-2.4e-4 2,0.892 2,2 v 91.64722 c 0,1.108 -0.892,2 -2,2 H -51.072033 c -1.108,0 -2,-0.892 -2,-2 v -91.64722 c 0,-1.108 0.892,-2 2,-2 h 35.647224"
       id="rect833"
       inkscape:connector-curvature="0"
       sodipodi:nodetypes="cssssssssc" />
    <path
       style="opacity:1;fill:none;fill-opacity:0.12093021;stroke:#000000;stroke-width:0.35277778;stroke-miterlimit:4;stroke-dasharray:none;stroke-opacity:1"
       d="m 28.57519,525.72577 h 7.147226 c 1.108,0 1.999999,0.28347 1.999999,0.63559 v 4.37604 c 0,0.35212 -0.891999,0.63559 -1.999999,0.63559 H 28.57519 c -1.107999,0 -1.999999,-0.28347 -1.999999,-0.63559 v -4.37604 c 0,-0.35212 0.892,-0.63559 1.999999,-0.63559 z"
       id="rect837"
       inkscape:connector-curvature="0" />
    <path
       inkscape:connector-curvature="0"
       id="path839"
       d="m -15.424809,437.72574 v 14.30084 l 3.495763,-14.61863"
       style="fill:none;stroke:#000000;stroke-width:0.35277778;stroke-linecap:butt;stroke-linejoin:miter;stroke-opacity:1;stroke-miterlimit:4;stroke-dasharray:none" />
  </g>
  <g
     id="g908"
     style="stroke:#000000;stroke-opacity:1;stroke-width:0.35277778;stroke-miterlimit:4;stroke-dasharray:none">
    <g
       transform="translate(-137.92373,-11.440678)"
       id="g893"
       style="stroke:#000000;stroke-opacity:1;stroke-width:0.35277778;stroke-miterlimit:4;stroke-dasharray:none">
      <path
         inkscape:connector-curvature="0"
         id="path859"
         d="m 226.5998,368.7369 c 28.2871,0 31.41528,0.029 31.67704,0.29284 0.22511,0.22689 0.29033,0.70992 0.29033,2.14843 0,1.20019 0.0947,2.08423 0.26808,2.50262 0.14745,0.35594 0.32304,1.17051 0.39023,1.81051 0.0674,0.64 0.231,1.33892 0.36362,1.55306 0.13284,0.21413 0.3309,0.71716 0.44062,1.11796 0.27288,0.99726 1.829,2.71741 3.40651,3.76525 l 1.30201,0.86491 2.62103,-0.0132 c 2.34749,-0.011 2.68843,-0.0547 3.26472,-0.41377 0.35381,-0.22052 0.76629,-0.40102 0.91636,-0.40102 0.15007,0 0.42339,-0.16775 0.60727,-0.37265 0.19173,-0.2137 0.5691,-0.37266 0.88451,-0.37266 0.30254,0 0.82431,-0.17083 1.15935,-0.37969 0.85528,-0.53293 4.00484,-0.62087 4.74647,-0.13257 0.27223,0.17918 0.60357,0.32604 0.73597,0.32604 0.13262,0 0.90458,0.34232 1.71558,0.7607 2.04932,1.05729 3.20321,1.28396 5.12558,1.00628 0.83761,-0.12114 1.89684,-0.3986 2.35404,-0.61691 0.45742,-0.2181 0.96696,-0.3986 1.1323,-0.4008 0.16535,-0.002 0.4042,-0.12993 0.53071,-0.28361 0.12652,-0.15368 0.43866,-0.27944 0.69365,-0.27944 0.25499,0 0.72309,-0.15698 1.03982,-0.34891 0.31694,-0.19193 0.941,-0.40431 1.38708,-0.47203 1.02084,-0.15522 2.9288,0.0539 3.2259,0.35331 0.12367,0.12488 0.61032,0.28515 1.08148,0.35638 0.47093,0.0712 0.95191,0.24536 1.06839,0.38695 0.11648,0.14159 0.63017,0.34803 1.14125,0.45862 0.51107,0.11059 1.10634,0.32582 1.32251,0.47862 0.21616,0.15258 0.62603,0.27746 0.9109,0.27746 0.28466,0 0.99096,0.16775 1.56922,0.37266 1.2333,0.43707 2.76281,0.485 3.30311,0.10355 0.20941,-0.14796 0.80926,-0.32627 1.33299,-0.3964 0.61665,-0.0824 1.11834,-0.28295 1.42481,-0.56921 0.26023,-0.24316 0.56408,-0.44213 0.67533,-0.44213 0.7268,0 4.3979,-3.81955 4.3979,-4.57585 0,-0.2181 0.17058,-0.55228 0.37933,-0.74289 0.35925,-0.3278 0.37779,-0.53073 0.34747,-3.82988 -0.0175,-1.91604 0.0244,-3.57573 0.0934,-3.6883 0.0897,-0.1462 5.38472,-0.20446 18.59545,-0.20446"
         style="fill:none;fill-opacity:1;stroke:#000000;stroke-width:0.35277778;stroke-linecap:round;stroke-linejoin:round;stroke-opacity:1;stroke-miterlimit:4;stroke-dasharray:none" />
      <g
         id="g876"
         transform="translate(0,-58.737504)"
         style="stroke:#000000;stroke-opacity:1;stroke-width:0.35277778;stroke-miterlimit:4;stroke-dasharray:none">
        <path
           style="fill:none;fill-opacity:1;stroke:#000000;stroke-width:0.35277778;stroke-linecap:round;stroke-linejoin:round;stroke-opacity:1;stroke-miterlimit:4;stroke-dasharray:none"
           d="m 335.15487,523.02399 h -17.43326 l -0.56866,-0.48237 c -0.31258,-0.26514 -0.56844,-0.60042 -0.56844,-0.74509 0,-0.14466 -0.13284,-0.26294 -0.29535,-0.26294 -0.1625,0 -0.56059,-0.12686 -0.88429,-0.28186 -0.51304,-0.24536 -2.40945,-0.27416 -14.71712,-0.22425 -14.62267,0.0596 -15.88345,0.1251 -15.88345,0.82556 0,0.14092 -0.20395,0.46213 -0.45349,0.71365 l -0.45349,0.4573 h -44.23796"
           id="path863"
           inkscape:connector-curvature="0" />
        <path
           style="fill:none;fill-opacity:1;stroke:#000000;stroke-width:0.35277778;stroke-linecap:round;stroke-linejoin:round;stroke-opacity:1;stroke-miterlimit:4;stroke-dasharray:none"
           inkscape:connector-curvature="0"
           id="path10"
           d="m 278.21333,519.01866 c 0.22358,-1.61484 0.0153,-3.01906 -0.4897,-3.29717 -0.27091,-0.14929 -1.76182,-0.23437 -4.55975,-0.26031 -3.84342,-0.0356 -4.20203,-0.011 -4.75149,0.32692 -0.68885,0.42344 -0.88146,1.10917 -0.75254,2.6774 0.0975,1.1859 0.48817,1.71883 1.31989,1.8004 0.31956,0.0312 2.49321,0.0154 4.83002,-0.0363 l 4.2487,-0.0932 z" />
      </g>
      <path
         style="opacity:1;fill:none;fill-opacity:0.12093021;stroke:#000000;stroke-width:0.35277778;stroke-miterlimit:4;stroke-dasharray:none;stroke-opacity:1"
         d="m 334.52212,368.73667 17.92992,0.0272 c 1.108,0.002 2,0.28348 2,0.6356 v 94.37604 c 0,0.35211 -0.89203,0.64357 -2,0.63559 l -17.29717,-0.12461 m -95.49551,0 -42.85455,0.12461 c -1.108,0.003 -2,-0.28348 -2,-0.63559 v -94.37604 c 0,-0.35212 0.892,-0.6346 2,-0.6356 l 29.79499,-0.0269"
         id="rect855"
         inkscape:connector-curvature="0"
         sodipodi:nodetypes="cssssccssssc" />
      <g
         id="layer1"
         inkscape:label="Layer 1"
         transform="translate(341.11813,338.87908)"
         style="stroke:#000000;stroke-opacity:1;stroke-width:0.35277778;stroke-miterlimit:4;stroke-dasharray:none">
        <path
           style="fill:none;fill-opacity:1;stroke:#000000;stroke-width:0.35277778;stroke-linecap:round;stroke-linejoin:round;stroke-opacity:1;stroke-miterlimit:4;stroke-dasharray:none"
           inkscape:connector-curvature="0"
           d="m -11.218154,83.475673 c 0.107181,-0.0517 0.0208,-0.29473 0.0197,-0.34728 -0.005,-0.26778 0.117461,-0.43797 0.133241,-0.47142 0.0774,-0.16388 3.43e-4,-0.15867 0.357499,-0.51536 0.378511,-0.37841 0.512551,-0.30623 0.536391,-0.375 0.0143,-0.0411 -0.086,-0.1598 -0.182871,-0.28424 -0.0252,-0.0324 -0.527541,-0.66923 -0.57043,-0.72405 -0.465911,-0.59642 -0.381631,-0.48512 -0.386111,-0.59532 l 1.4579701,-1.09671 c 0.407201,-0.30661 0.41935,-0.31721 0.4536,-0.31352 0.05,0.005 0.1343,0.13326 0.896782,1.08934 0.01,0.0118 0.753837,0.94811 1.066487,1.34184 0.0241,0.0304 0.495282,0.616091 0.683361,0.85067 0.154839,0.19327 0.221559,0.27846 0.72549,0.9058 0.280429,0.35015 0.36498,0.45492 0.371592,0.4632 0.01741,0.0216 0.176958,0.22206 0.970147,1.21975 l 0.118833,0.1497 1.097859,1.37396 c 0.14478,0.181831 0.295471,0.37137 0.452729,0.567961 0.543091,0.680109 0.635751,0.7938 0.664651,0.831239 0.124169,0.1606 0.0869,0.130251 0.0922,0.213971 -3.041859,2.333819 -2.085311,1.599989 -4.304991,3.301999 -0.46754,0.35854 -0.362651,0.27793 -0.445799,0.34171 l -1.682861,1.29312 c -1.3515901,1.03868 -1.3522101,1.03788 -1.3643401,1.0472 l -1.6335,1.25559 -1.79394,1.381121 -1.70093,1.30209 -1.30121,1.002479 c -0.21189,0.16346 -2.73312,2.100607 -2.80812,2.158107 -0.16679,0.12793 -0.50527,0.38956 -1.29311,0.99449 -0.77149,0.59225 -0.68585,0.52643 -0.7715,0.59238 l -1.89932,1.46211 -1.08983,0.83626 c -0.31709,0.24267 0.0489,-0.0338 -0.7059,0.54121 -0.1649,0.12546 -0.49332,0.37835 -1.08922,0.83328 -0.91178,0.69688 -0.86896,0.66398 -0.87681,0.67001 -0.38991,0.29333 -0.33499,0.23827 -0.37694,0.25902 -0.11543,-0.084 -0.22497,-0.25074 -0.97743,-1.27519 -0.0452,-0.0621 -0.58328,-0.79855 -0.59947,-0.82029 -0.18219,-0.24528 0.0418,0.0609 -0.6597,-0.89093 -0.006,-0.008 -0.63438,-0.85602 -0.68602,-0.92618 l -0.95514,-1.29458 c -0.0555,-0.0754 -0.45003,-0.61204 -0.46239,-0.62877 -0.006,-0.008 -0.50656,-0.6846 -0.63336,-0.85567 -0.57565,-0.776167 -0.4849,-0.670857 -0.59197,-0.763747 -0.62797,0.38118 -0.97054,0.786317 -1.11936,0.763347 -0.0773,-0.0116 -0.0832,-0.0581 -0.44289,-0.546767 -0.0636,-0.0861 -0.80557,-1.08831 -0.84255,-1.139209 -0.14051,-0.194341 -0.17488,-0.239051 -0.17181,-0.27823 0.005,-0.0684 0.0737,-0.107151 0.74582,-0.609721 l 1.179031,-0.881849 c 0.1585,-0.11802 1.14319,-0.85823 2.09188,-1.569121 l 1.47507,-1.1053 c 0.44741,-0.33501 0.42635,-0.29662 0.43042,-0.29886 0.23909,0.22841 1.03333,1.41043 1.2366,1.58503 0.30737,-0.19824 -0.0745,-0.11574 0.72061,-0.546209 0.62035,-0.335981 0.37391,-0.0965 0.768,-0.183721 -0.0135,-0.0225 -0.14164,-0.22436 -0.14333,-0.22608 -0.007,-0.007 -0.30683,-0.17245 -0.44404,-0.30159 -0.27357,-0.25753 -0.3606,-0.54983 -0.37118,-0.57852 -0.007,-0.0213 -0.27027,-0.5885 0.14425,-1.25993 0.41501,-0.67242 1.22417,-0.7609 1.57553,-0.66341 0.63046,0.1751 1.07242,0.67882 1.11189,1.24993 0.0891,-0.047 0.10529,-0.0394 1.30635,-0.9566 0.76976,-0.58776 0.4661,-0.54258 0.82493,-0.73687 0.74658,-0.40409 0.54276,-0.31253 0.98334,-0.31477 -0.0278,-0.0412 -0.008,-0.0217 -0.11456,-0.16382 l -0.7629,-1.00949 c -0.46273,-0.61198 -0.47159,-0.57363 -0.4517,-0.66837 0.0195,-0.0929 0.20362,-0.18436 0.64139,-0.51421 l 1.18763,-0.894769 c 0.0656,-0.0495 0.10768,-0.079 0.13478,-0.0746 0.0888,0.014 0.62582,0.83421 1.26203,1.578229 0.20145,-0.13337 1.1289,-0.828569 1.2785,-0.959669 -1.27915,-1.72588 -1.19271,-1.4465 -1.18043,-1.67374 0.97796,-0.69971 2.1265,-1.6483 2.83932,-1.914981 0.19857,-0.0743 0.91202,-0.36098 1.70377,0.002 0.67693,0.309911 1.03006,0.854771 1.17763,1.009371 0.0647,-0.51939 -0.0972,-0.14438 0.30318,-0.95086 0.23857,-0.48058 -0.0393,0.0251 0.44271,-0.50378 0.003,-0.004 0.12872,-0.190611 0.39379,-0.348531 0.857,-0.510659 0.66494,-0.33733 1.13456,-0.44851 0.41056,-0.0971 0.66367,0.0505 0.69717,0.0343 z"
           id="path1024" />
      </g>
    </g>
    <path
       style="opacity:1;fill:none;fill-opacity:0.12093021;stroke:#000000;stroke-width:0.35277778;stroke-miterlimit:4;stroke-dasharray:none;stroke-opacity:1"
       d="m 100.53282,390.25317 h 12.64723 c 1.10799,0 1.99999,0.28348 1.99999,0.6356 v 3.37603 c 0,0.35212 -0.892,0.6356 -1.99999,0.6356 h -12.64723 c -1.107999,0 -1.999998,-0.28348 -1.999998,-0.6356 v -3.37603 c 0,-0.35212 0.891999,-0.6356 1.999998,-0.6356 z"
       id="rect897" />
  </g>
  <path
     style="opacity:1;fill:none;fill-opacity:0.12093021;stroke:#000000;stroke-width:0.35277778;stroke-miterlimit:4;stroke-dasharray:none;stroke-opacity:1"
     d="M 18.478815,483.09433 H 51.12604 c 0.554,0 1,0.446 1,1 v 6.64722 c 0,0.554 -0.446,1 -1,1 H 18.478815 c -0.554,0 -1,-0.446 -1,-1 v -6.64722 c 0,-0.554 0.446,-1 1,-1 z"
     id="rect911" />
  <path
     style="opacity:1;fill:none;fill-opacity:0.12093021;stroke:#000000;stroke-width:0.35277778;stroke-miterlimit:4;stroke-dasharray:none;stroke-opacity:1"
     d="m 53.655205,483.09433 h 32.647224 c 0.554,0 1,0.446 1,1 v 6.64722 c 0,0.554 -0.446,1 -1,1 H 53.655205 c -0.554,0 -1,-0.446 -1,-1 v -6.64722 c 0,-0.554 0.446,-1 1,-1 z"
     id="rect911-4" />
</svg>
