<?xml version="1.0" encoding="utf-8"?>
<!-- Generator: Adobe Illustrator 25.2.1, SVG Export Plug-In . SVG Version: 6.00 Build 0)  -->
<svg version="1.1"
	 id="svg8" xmlns:cc="http://creativecommons.org/ns#" xmlns:dc="http://purl.org/dc/elements/1.1/" xmlns:inkscape="http://www.inkscape.org/namespaces/inkscape" xmlns:rdf="http://www.w3.org/1999/02/22-rdf-syntax-ns#" xmlns:sodipodi="http://sodipodi.sourceforge.net/DTD/sodipodi-0.dtd" xmlns:svg="http://www.w3.org/2000/svg"
	 xmlns="http://www.w3.org/2000/svg" xmlns:xlink="http://www.w3.org/1999/xlink" x="0px" y="0px" viewBox="0 0 1683.8 2383.9"
	 style="enable-background:new 0 0 1683.8 2383.9;" xml:space="preserve">
<style type="text/css">
	.st0{fill:none;stroke:#000000;stroke-miterlimit:11.3386;}
	.st1{fill:none;stroke:#231F20;stroke-miterlimit:10;}
	.st2{fill:none;stroke:#000000;stroke-linecap:round;stroke-linejoin:round;stroke-miterlimit:11.3386;}
</style>
<sodipodi:namedview  bordercolor="#666666" borderopacity="1.0" id="base" inkscape:current-layer="layer1" inkscape:cx="1406.9609" inkscape:cy="906.02752" inkscape:document-units="mm" inkscape:guide-bbox="true" inkscape:pageopacity="0.0" inkscape:pageshadow="2" inkscape:window-height="1017" inkscape:window-maximized="1" inkscape:window-width="1920" inkscape:window-x="-8" inkscape:window-y="-8" inkscape:zoom="0.7" pagecolor="#ffffff" showgrid="false" showguides="false">
	<sodipodi:guide  id="guide819" inkscape:locked="false" orientation="1,0" position="267.21272,314.14128"></sodipodi:guide>
	<sodipodi:guide  id="guide881" inkscape:locked="false" orientation="1,0" position="441.39564,296.53553"></sodipodi:guide>
</sodipodi:namedview>
<g>
	<g id="g830_1_" transform="translate(-25.813879,-9.6990295)">
		<path id="rect815_1_" inkscape:connector-curvature="0" sodipodi:nodetypes="cssssssssc" class="st0" d="M525.8,1158.7H781
			c3.2,0,5.7,2.5,5.7,5.7v251.3c0,3.1-2.5,5.7-5.7,5.7H416.4c-3.2,0-5.7-2.5-5.7-5.7v-251.3c0-3.1,2.5-5.7,5.7-5.7h99"/>
		<path id="rect817_1_" inkscape:connector-curvature="0" sodipodi:nodetypes="ccc" class="st0" d="M525.8,1158.7l-10.4,38.7v-38.7"
			/>
		<rect id="rect825_1_" x="635.3" y="1399.5" class="st0" width="27.6" height="13.2"/>
	</g>
	<g>
		<path class="st1" d="M929.2,1269.4h-32.6c-1.6,0-2.8-1.3-2.8-2.8V1234c0-1.6,1.3-2.8,2.8-2.8h32.6c1.6,0,2.8,1.3,2.8,2.8v32.6
			C932.1,1268.1,930.8,1269.4,929.2,1269.4z"/>
		<path id="rect832_1_" inkscape:connector-curvature="0" sodipodi:nodetypes="csccssssc" class="st0" d="M1239.2,1406.7
			c0,3.1-2.5,5.7-5.7,5.7h-96.1 M1038.3,1412.4H788.5c-3.2,0-5.7-2.5-5.7-5.7v-251.3c0-3.1,2.5-5.7,5.7-5.7l178.8,0.3"/>
		<path id="rect815-3_1_" inkscape:connector-curvature="0" sodipodi:nodetypes="cssc" class="st0" d="M1239.2,1406.7v-251.3
			c0-3.1-2.5-5.7-5.7-5.7l-99,0.2"/>
		<path id="rect825-5_1_" class="st0" d="M1022.9,1391.9h-27.6v13.2h27.6V1391.9z"/>
		<path id="rect873_1_" inkscape:connector-curvature="0" sodipodi:nodetypes="cssssc" class="st0" d="M1134.5,1150v35.7
			c0,1.6-1.4,2.8-3.2,2.8H970.4c-1.7,0-3.2-1.3-3.2-2.8V1150"/>
		<path id="rect883-5_1_" inkscape:connector-curvature="0" sodipodi:nodetypes="cssc" class="st0" d="M1038.3,1412.4
			c0-4.7,3.8-7,8.6-7h81.9c4.8,0,8.6,2.3,8.6,7"/>
		<path id="path902_1_" inkscape:connector-curvature="0" class="st2" d="M1169.2,1291.1c0.3-0.1,0-0.8,0-1c0-0.7,0.3-1.2,0.4-1.3
			c0.2-0.5,0-0.4,1-1.4c1.1-1.1,1.4-0.9,1.5-1.1c0-0.1-0.2-0.4-0.5-0.8c-0.1-0.1-1.5-1.8-1.6-2c-1.3-1.6-1.1-1.3-1.1-1.6l4.1-3.1
			c1.1-0.9,1.2-0.9,1.3-0.9c0.1,0,0.4,0.4,2.6,3c0,0,2.2,2.6,3.1,3.6c0.1,0.1,1.4,1.7,2,2.3c0.4,0.5,0.6,0.8,2.1,2.5
			c0.8,1,1,1.2,1.1,1.3c0,0.1,0.5,0.6,2.8,3.3l0.3,0.4l3.1,3.7c0.4,0.5,0.8,1,1.3,1.5c1.6,1.8,1.8,2.2,1.9,2.3
			c0.4,0.4,0.2,0.4,0.3,0.6c-8.5,6.5-5.8,4.5-12,9.2c-1.3,1-1,0.8-1.2,1l-4.7,3.6c-3.8,2.9-3.8,2.9-3.8,2.9l-4.6,3.5l-5,3.9
			l-4.7,3.6l-3.6,2.8c-0.6,0.5-7.6,5.9-7.8,6c-0.5,0.4-1.4,1.1-3.6,2.8c-2.1,1.7-1.9,1.5-2.2,1.7l-5.3,4.1l-3,2.3
			c-0.9,0.7,0.1-0.1-2,1.5c-0.5,0.4-1.4,1.1-3,2.3c-2.5,1.9-2.4,1.9-2.4,1.9c-1.1,0.8-0.9,0.7-1.1,0.7c-0.3-0.2-0.6-0.7-2.8-3.5
			c-0.1-0.2-1.7-2.2-1.7-2.2c-0.5-0.7,0.1,0.2-1.9-2.4c0,0-1.8-2.3-2-2.5l-2.7-3.5c-0.2-0.2-1.3-1.7-1.3-1.7s-1.5-1.9-1.8-2.3
			c-1.7-2.1-1.4-1.8-1.7-2.1c-1.8,1.1-2.7,2.2-3.1,2.1c-0.2,0-0.2-0.2-1.3-1.5c-0.2-0.2-2.3-3-2.4-3.1c-0.4-0.5-0.5-0.7-0.5-0.8
			c0-0.2,0.2-0.3,2.1-1.7l3.3-2.5c0.4-0.3,3.2-2.4,5.8-4.4l4.1-3.1c1.2-0.9,1.2-0.8,1.2-0.8c0.7,0.6,3,3.8,3.5,4.3
			c0.9-0.6-0.2-0.3,2-1.5c1.7-0.9,1-0.3,2.2-0.5c0-0.1-0.4-0.6-0.4-0.6s-0.9-0.5-1.3-0.8c-0.8-0.7-1-1.5-1.1-1.6
			c0-0.1-0.8-1.6,0.4-3.5c1.1-1.9,3.4-2.1,4.4-1.9c1.8,0.5,3,1.8,3.2,3.4c0.2-0.1,0.3-0.1,3.6-2.7c2.1-1.6,1.3-1.5,2.3-2.1
			c2.1-1.1,1.5-0.9,2.8-0.9c-0.1-0.1,0-0.1-0.3-0.4l-2.2-2.7c-1.3-1.7-1.4-1.6-1.3-1.8c0.1-0.3,0.6-0.5,1.8-1.4l3.3-2.5
			c0.2-0.1,0.3-0.2,0.4-0.2c0.3,0,1.8,2.3,3.6,4.3c0.6-0.4,3.1-2.3,3.6-2.7c-3.7-4.7-3.4-3.9-3.4-4.6c2.7-2,5.9-4.6,7.9-5.4
			c0.6-0.2,2.6-1,4.8-0.1c1.9,0.8,2.9,2.3,3.4,2.7c0.2-1.4-0.3-0.4,0.8-2.6c0.7-1.3-0.1,0.1,1.2-1.4c0,0,0.4-0.5,1.1-1
			c2.4-1.4,1.9-1,3.2-1.3C1168.4,1290.8,1169.1,1291.2,1169.2,1291.1L1169.2,1291.1z"/>
	</g>
</g>
</svg>
