<?xml version="1.0" encoding="utf-8"?>
<!-- Generator: Adobe Illustrator 25.2.1, SVG Export Plug-In . SVG Version: 6.00 Build 0)  -->
<svg version="1.1" id="Layer_1" xmlns="http://www.w3.org/2000/svg" xmlns:xlink="http://www.w3.org/1999/xlink" x="0px" y="0px"
	 viewBox="0 0 4280.3 1133.9" style="enable-background:new 0 0 4280.3 1133.9;" xml:space="preserve">
<style type="text/css">
	.st0{fill:none;stroke:#000000;stroke-miterlimit:11.3386;}
	.st1{fill:none;stroke:#000000;stroke-linecap:round;stroke-linejoin:round;}
</style>
<g>
	<path id="rect979" class="st0" d="M248.6,37h446.8c4.7,0,8.6,3.8,8.6,8.5v1042.9c0,4.7-3.8,8.5-8.6,8.5h-449"/>
	<path id="rect1599" class="st0" d="M308.1,712l-0.2-654.7 M316.5,48.8H629c4.7,0,8.6,3.8,8.6,8.5v1020.2c0,4.7-3.8,8.5-8.6,8.5
		H316.5 M307.9,1077.6l0.1-207.6"/>
	<path id="path1611" class="st0" d="M668.3,1015c-9.6,0-17.3-7.7-17.3-17.3s7.8-17.3,17.3-17.3s17.3,7.7,17.3,17.3
		S677.9,1015,668.3,1015z"/>
	<path id="path4" class="st1" d="M175.9,1019.5l1.3,0.3c3.4,1,3.5,1.8,3.7,2c0.9,0.6-0.1,0.5,1.6,0.3c0.9-0.5-0.3,0.2,4.5-2.8
		c5.5,6.4,5.3,6.6,4.4,7.9c-0.4,0.5-11.5,9.4-11.9,9.8c-0.8,0.7-10.6,8.4-10.8,8.6c-7.4,5.8-7.8,6.2-9.4,4.8c-0.3-0.2-0.7-0.9-4-5.3
		c-0.1-0.1-11.6-15.3-11.9-15.7l-18.9-24.7c-0.2-0.3-9.2-11.9-9.3-12c-0.6-0.7-7.5-9.6-7.6-9.7c-3.7-4.7-10.2-12.8-10.6-13.4
		c-1.6-2.1-1.3-2-0.6-2.9c0.8-1,4-3.1,16.1-12.2c7.3-5.5,6.7-6,6.4-7.2c-0.7-2.3-2.7-1.9-1-3.9c0.6-0.8,5.2-4.2,5.9-4.1
		c0.6,0.1,0,0,0.7,0.6c0.1,0.1,10.2,12.4,12.6,15.3c2.6,3.3,2.2,3.2,1.2,4.3c-1.4,1.5-4.2,2.4-3.8,4.5c0.1,0.3,0.8,2.4,3,1.6
		c1.8-0.6,6.1-3.9,9.1,0c3.2,4.1-0.9,7.1-3,10.1c5.2,6.5,6.3,8.7,8.6,7.7c1.5-0.6,2.5-2.6,4.3-2.2c1.5,0.3,3.7,3.1,4.2,4.2
		c0.6,1.4,0.3,2.2-0.3,3c-1.3,1.8-4.8,2.5-2.7,5.6c1.9,2.8,4.6-0.3,5.5-1c0.8-0.6,1.5-1.2,2.9-0.4c2.4,1.4,6.7,8.1,6,11.9
		c-0.7,3.5-3.5,3.8-2,6.1c0.5,0.8,2.4,1.5,3.9,5.1C175.7,1019.9,175.9,1019.5,175.9,1019.5"/>
	<path id="path6" class="st1" d="M316.5,48.8c-1,0.3-34,0.1-31.4,1.6c0,0,21,5.2,22.9,7 M308.1,712l-22.5-0.2
		c-8.9,0.1-9.7,0.2-10.2,2.3c0,0.2-0.1,5.8-0.1,6.5c0,2.2-0.1,15.7-0.1,16.8l-0.1,24.5l0,29.7c0,7.1,0,42.8,0,43.1
		c0,1.3,0,13.3,0,13.5c0.1,20.9-0.3,21.3,2.5,21.8l30.3-0.1 M307.9,1077.6c-4.1,2-25.2,7.8-25.2,7.8l33.8,0.7"/>
	<path id="path8" class="st1" d="M246.4,1097c-31.8-0.4-63.6-0.5-95.3-0.5l-49.6-0.1c-0.3,0-31.4-0.1-32-0.1
		c-12.7-0.1-13.7,0.1-15.9-1.9c-0.1,0-3.5-3.1-3.5-6.7l0.1-49.8l0-33.7l0.4-670.6l0.2-169.5l0.1-60.4l0.1-35.1L51,48.8
		c0-6.3-1.6-7.5,7.4-11.9c76.1,0,114,0.2,190.2,0.2"/>
	<path id="path10" class="st1" d="M64.4,559.4l0.5,0.9c2.6,3.9,4.9,5.4,5,5.4c0.6,0,1.4,0.2,20.7,0.4c0.1,0,13.9,0.1,14,0.1l35,0.1
		l40,0.1l40.1,0c0.6,0,34.8-0.1,35.1-0.1c2,0,13.6-0.1,14.1-0.1c26,0,25.7,2,25.9-16c0-0.1,0.1-12.9,0.1-14.1l0.1-42.3l0-82.5
		l-0.1-61.4c0-6.4-0.1-29.9-0.1-30.2c0-2.6-0.1-17.3-0.1-17.5c0-1.3-0.1-13.7-0.1-13.8c-0.2-9-0.3-8.7-1-9.6c-0.9-1-3.9-2.4-4.8-2.8
		l-116.3,0l-38.1,0l-34.1,0.1L79,276.2c-6.1,0-8.9-0.6-12.7,3.7c-3.6,4.1-2.6,7.3-2.6,15.5L63.6,325l-0.1,99.3l0,72.1l0,24.1
		c0,1.4,0.1,16.8,0.1,17C63.8,559.3,64.4,559.4,64.4,559.4"/>
</g>
</svg>
