<?xml version="1.0" encoding="utf-8"?>
<!DOCTYPE svg PUBLIC "-//W3C//DTD SVG 1.1//EN" "http://www.w3.org/Graphics/SVG/1.1/DTD/svg11.dtd">
<!-- exported from Silhouette Studio® Business Edition V4.3.356ssbe -->
<svg version="1.1" xmlns="http://www.w3.org/2000/svg" xmlns:xlink="http://www.w3.org/1999/xlink" width="304.8mm" height="304.8mm" viewBox="0 0 304.8 304.8">
<defs/>
<path d="M -18.31396 293.0609 C -19.37317 292.6807 -19.80005 292.23 -20.17969 291.0912 C -20.57123 289.9169 -20.65155 264.3801 -20.57214 166.3743 L -20.47217 43.13403 L -19.45673 42.11804 L -18.44135 41.10205 L -7.103516 41.11023 C 3.19934 41.11792 4.279724 41.18054 4.732178 41.79968 C 5.070801 42.26306 5.230103 44.03076 5.230103 47.32361 C 5.230103 52.16052 5.231262 52.16626 6.236633 52.54883 C 7.367798 52.97925 25.27802 53.00732 26.81213 52.58118 C 27.79028 52.30945 27.79352 52.29321 27.90228 46.93518 C 28.00049 42.10266 28.08728 41.52087 28.7644 41.15833 C 29.68805 40.6637 308.7134 40.7876 309.2101 41.28284 C 309.3899 41.46191 309.5953 43.9895 309.6663 46.89905 C 309.7935 52.1217 309.8074 52.19434 310.7706 52.56079 C 312.2194 53.11194 330.2601 53.03821 331.4932 52.4762 C 332.4882 52.02271 332.4926 51.99854 332.4926 47.00757 C 332.4926 43.0177 332.6158 41.87109 333.0967 41.39001 C 333.6238 40.86243 335.1384 40.81519 344.9669 41.0188 C 351.1632 41.14722 356.5341 41.40894 356.9023 41.6001 C 357.2706 41.79114 357.7546 42.60815 357.9774 43.41541 C 358.4276 45.04492 358.5813 286.1627 358.1345 289.9659 C 357.915 291.8333 357.7157 292.2271 356.6643 292.8687 C 355.4758 293.5939 351.1807 293.6101 169.2537 293.5825 C 20.89211 293.5598 -17.2196 293.4537 -18.31396 293.0609 Z" fill="none" fill-opacity="1" stroke="#000000" stroke-opacity="1" stroke-width="0.3527778" stroke-linecap="round" stroke-linejoin="round"/>
<path d="M 320.3599 273.0986 C 324.1191 270.2373 329.1099 266.3945 331.4501 264.559 C 333.7902 262.7235 336.1923 260.8683 336.7886 260.4364 C 339.7926 258.2599 341.1246 256.943 341.1096 256.1646 C 341.101 255.7068 340.3208 254.3606 339.3761 253.1727 C 338.4313 251.9851 336.8049 249.8235 335.7622 248.3694 C 333.7776 245.6022 332.9541 245.1976 331.4886 246.2705 C 330.9398 246.6724 330.7269 247.2985 330.7269 248.5107 C 330.7269 249.9856 330.5621 250.3043 329.3934 251.0941 C 328.4839 251.7087 327.4866 251.9952 326.2543 251.9963 C 325.1263 251.9972 323.9528 252.3002 323.1283 252.8031 C 322.0013 253.4906 321.8408 253.7708 322.0303 254.7184 C 322.3157 256.1462 322.1069 256.319 320.613 255.8904 C 318.9965 255.4264 317.6738 256.5879 317.5042 258.6204 L 317.3853 260.0438 L 315.2388 260.1654 C 312.7791 260.3049 312.2358 260.6355 311.8921 262.2017 C 311.6698 263.2133 311.5209 263.3035 310.3772 263.1178 C 309.2789 262.9395 308.7305 263.2137 306.2821 265.1655 C 304.3252 266.7256 303.455 267.683 303.455 268.2764 C 303.455 269.3232 305.0867 270.9432 305.847 270.6515 C 306.424 270.4299 306.7061 270.7311 310.3441 275.4545 C 311.55 277.02 312.7587 278.301 313.0305 278.301 C 313.3021 278.301 316.6003 275.9598 320.3599 273.0986 Z" fill="none" fill-opacity="1" stroke="#000000" stroke-opacity="1" stroke-width="0.3527778" stroke-linecap="round" stroke-linejoin="round"/>
<path d="M 67.41077 271.7246 L 68.33899 270.645 L 116.1478 270.5371 C 142.4427 270.4778 164.3423 270.5225 164.8135 270.6361 C 165.2847 270.7498 165.7878 271.2139 165.9316 271.667 C 166.6327 273.877 167.4395 269.4514 166.9054 266.3259 C 166.8315 265.894 166.8744 249.5573 167.0006 230.0221 C 167.1448 207.719 167.0905 194.2424 166.8549 193.802 C 166.4977 193.1342 164.0781 193.1006 116.2894 193.1006 C 80.55371 193.1006 66.02295 193.2236 65.83521 193.5277 C 65.51306 194.0492 65.59644 269.2642 65.92151 271.332 C 66.04883 272.1418 66.22705 272.8043 66.31775 272.8043 C 66.40845 272.8043 66.90039 272.3184 67.41077 271.7246 Z" fill="none" fill-opacity="1" stroke="#000000" stroke-opacity="1" stroke-width="0.3527778" stroke-linecap="round" stroke-linejoin="round"/>
<path d="M 256.3854 238.009 C 256.6012 237.4412 256.6902 235.2869 256.5841 233.203 C 256.4329 230.2339 256.2472 229.3208 255.7159 228.932 C 254.8885 228.3267 242.4371 228.2332 240.8929 228.8206 C 239.8942 229.2006 239.8865 229.238 239.8865 233.6498 C 239.8865 236.5847 240.0464 238.2563 240.3573 238.5673 C 240.6909 238.9011 243.0365 239.0386 248.4113 239.0386 L 255.9943 239.0386 L 256.3854 238.009 Z" fill="none" fill-opacity="1" stroke="#000000" stroke-opacity="1" stroke-width="0.3527778" stroke-linecap="round" stroke-linejoin="round"/>
<path d="M 275.9733 199.4087 C 276.1967 198.991 276.3795 196.7952 276.3795 194.5289 C 276.3795 191.3066 276.5139 190.274 276.996 189.7915 C 277.5475 189.2397 281.3439 189.1746 312.9008 189.1746 C 347.6657 189.1746 348.2005 189.1862 348.9737 189.9597 C 349.4052 190.3918 349.7585 191.2635 349.7585 191.8973 C 349.7585 193.0852 350.0456 193.8763 351.3351 196.2418 C 352.0748 197.5985 352.0833 196.8206 352.0005 135.2544 C 351.9185 74.02673 351.9028 72.88257 351.155 72.33545 C 350.4998 71.85608 324.9854 71.77832 168.6512 71.77832 C -5.94342 71.77832 -13.11603 71.80615 -13.73083 72.48584 C -14.31659 73.13354 -14.37348 78.4436 -14.40039 135.1556 C -14.41662 169.2347 -14.35779 197.1899 -14.26959 197.2781 C -14.10217 197.4457 -12.42938 193.0856 -12.4256 192.4716 C -12.42444 192.2777 -12.23938 191.4567 -12.01459 190.6469 L -11.60596 189.1746 L 103.8896 189.1746 C 199.825 189.1746 219.459 189.2633 219.8207 189.6993 C 220.0737 190.0044 220.2768 192.021 220.305 194.5093 C 220.342 197.7599 220.4998 198.9597 220.9594 199.481 C 221.5251 200.1228 223.3431 200.1681 248.5661 200.1681 C 274.8596 200.1681 275.5778 200.1483 275.9733 199.4087 Z" fill="none" fill-opacity="1" stroke="#000000" stroke-opacity="1" stroke-width="0.3527778" stroke-linecap="round" stroke-linejoin="round"/>
<path d="M 323.8529 68.24829 C 325.67 67.32068 327.2878 65.32861 327.6351 63.59094 C 327.9723 61.90405 326.832 58.91211 325.3312 57.54517 C 321.8206 54.34778 316.9044 55.66541 314.9525 60.32703 C 314.1538 62.23425 314.6499 64.8656 316.125 66.54663 C 318.2848 69.00806 321.135 69.63538 323.8529 68.24829 Z" fill="none" fill-opacity="1" stroke="#000000" stroke-opacity="1" stroke-width="0.3527778" stroke-linecap="round" stroke-linejoin="round"/>
</svg>