<?xml version="1.0" encoding="utf-8"?>
<!DOCTYPE svg PUBLIC "-//W3C//DTD SVG 1.1//EN" "http://www.w3.org/Graphics/SVG/1.1/DTD/svg11.dtd">
<!-- exported from Silhouette Studio® Business Edition V4.3.356ssbe -->
<svg version="1.1" xmlns="http://www.w3.org/2000/svg" xmlns:xlink="http://www.w3.org/1999/xlink" width="304.8mm" height="304.8mm" viewBox="0 0 304.8 304.8">
<defs/>
<path d="M -18.31384 293.0608 C -19.37305 292.6805 -19.79999 292.23 -20.17969 291.0911 C -20.57117 289.9167 -20.65155 264.38 -20.57208 166.3741 L -20.47211 43.13391 L -19.4566 42.11792 L -18.44128 41.10193 L -7.103394 41.11011 C 3.199463 41.1178 4.279846 41.18042 4.7323 41.79956 C 5.070923 42.26294 5.230103 44.03064 5.230103 47.32349 C 5.230103 52.1604 5.231323 52.16638 6.236694 52.54883 C 7.367859 52.97925 25.27808 53.00732 26.81219 52.58105 C 27.79034 52.30933 27.79358 52.29309 27.90234 46.93506 C 28.00055 42.10254 28.08734 41.52075 28.76447 41.1582 C 29.68811 40.66357 308.7137 40.78748 309.2104 41.28271 C 309.3903 41.46179 309.5955 43.9895 309.6664 46.89905 C 309.7936 52.1217 309.8077 52.19421 310.7711 52.56067 C 312.2197 53.11182 330.2604 53.03809 331.4935 52.4762 C 332.4886 52.02258 332.4929 51.99841 332.4929 47.00745 C 332.4929 43.01758 332.616 41.87097 333.0969 41.38989 C 333.624 40.8623 335.1387 40.81519 344.9672 41.0188 C 351.1635 41.14722 356.5342 41.40881 356.9025 41.59998 C 357.2708 41.79102 357.7548 42.60803 357.9776 43.41528 C 358.4278 45.04492 358.5815 286.1626 358.1348 289.9658 C 357.9152 291.8333 357.7159 292.2269 356.6646 292.8685 C 355.476 293.5938 351.181 293.6101 169.2538 293.5824 C 20.89221 293.5598 -17.21948 293.4536 -18.31384 293.0608 Z" fill="none" fill-opacity="1" stroke="#000000" stroke-opacity="1" stroke-width="0.3527778" stroke-linecap="round" stroke-linejoin="round"/>
<path d="M 320.3595 273.0985 C 324.1189 270.2372 329.1096 266.3944 331.4497 264.5588 C 333.7899 262.7234 336.192 260.8682 336.7882 260.4363 C 339.7922 258.2598 341.1244 256.9429 341.1094 256.1644 C 341.1007 255.7067 340.3206 254.3605 339.3757 253.1726 C 338.431 251.985 336.8047 249.8234 335.762 248.3693 C 333.7773 245.6021 332.9537 245.1975 331.4884 246.2704 C 330.9396 246.6722 330.7266 247.2983 330.7266 248.5106 C 330.7266 249.9855 330.562 250.3043 329.3933 251.0941 C 328.4838 251.7087 327.4863 251.9951 326.254 251.9962 C 325.1261 251.9971 323.9526 252.3 323.1282 252.803 C 322.0012 253.4905 321.8406 253.7706 322.03 254.7183 C 322.3154 256.1461 322.1066 256.3188 320.6128 255.8903 C 318.9962 255.4263 317.6736 256.5878 317.5038 258.6202 L 317.385 260.0437 L 315.2386 260.1653 C 312.7789 260.3048 312.2355 260.6354 311.8917 262.2015 C 311.6696 263.2131 311.5208 263.3033 310.3771 263.1177 C 309.2788 262.9393 308.7301 263.2136 306.2817 265.1654 C 304.325 266.7255 303.4547 267.6829 303.4547 268.2762 C 303.4547 269.3231 305.0863 270.9431 305.8468 270.6514 C 306.4237 270.4298 306.7058 270.731 310.3439 275.4543 C 311.5498 277.0199 312.7584 278.3009 313.0302 278.3009 C 313.3018 278.3009 316.6001 275.9597 320.3595 273.0985 Z" fill="none" fill-opacity="1" stroke="#000000" stroke-opacity="1" stroke-width="0.3527778" stroke-linecap="round" stroke-linejoin="round"/>
<path d="M 67.41083 271.7244 L 68.33905 270.6447 L 116.1479 270.5367 C 142.4428 270.4775 164.3422 270.5223 164.8134 270.6359 C 165.2846 270.7496 165.7878 271.2135 165.9316 271.6667 C 166.6326 273.8767 167.4394 269.4512 166.9053 266.3257 C 166.8315 265.8938 166.8743 249.5571 167.0005 230.0219 C 167.1448 207.7188 167.0905 194.2422 166.8548 193.8018 C 166.4977 193.1338 164.0782 193.1003 116.2895 193.1003 C 80.55377 193.1003 66.02301 193.2234 65.83527 193.5275 C 65.51312 194.049 65.5965 269.2637 65.92145 271.3318 C 66.04889 272.1416 66.22711 272.8041 66.31781 272.8041 C 66.40851 272.8041 66.90045 272.318 67.41083 271.7244 Z" fill="none" fill-opacity="1" stroke="#000000" stroke-opacity="1" stroke-width="0.3527778" stroke-linecap="round" stroke-linejoin="round"/>
<path d="M 275.9731 199.4089 C 276.1965 198.9912 276.3793 196.7954 276.3793 194.5292 C 276.3793 191.3069 276.5137 190.2742 276.9958 189.7916 C 277.5474 189.2399 281.3439 189.1748 312.9008 189.1748 C 347.6656 189.1748 348.2003 189.1863 348.9736 189.9598 C 349.405 190.392 349.7584 191.2638 349.7584 191.8976 C 349.7584 193.0854 350.0454 193.8767 351.335 196.2421 C 352.0746 197.5988 352.0831 196.8208 352.0004 135.2546 C 351.9183 74.02698 351.9026 72.88269 351.1548 72.33557 C 350.4996 71.8562 324.9854 71.77856 168.6511 71.77856 C -5.943481 71.77856 -13.11615 71.80627 -13.73102 72.48596 C -14.31677 73.13367 -14.37366 78.44373 -14.40057 135.1559 C -14.41681 169.235 -14.35791 197.1902 -14.26978 197.2783 C -14.10229 197.4459 -12.42957 193.0857 -12.42572 192.4717 C -12.42462 192.2778 -12.23962 191.4569 -12.01483 190.6471 L -11.6062 189.1748 L 103.8894 189.1748 C 199.8248 189.1748 219.4589 189.2635 219.8206 189.6996 C 220.0735 190.0046 220.2765 192.0212 220.3048 194.5095 C 220.3418 197.7603 220.4996 198.96 220.9592 199.4812 C 221.5249 200.1232 223.3429 200.1683 248.5659 200.1683 C 274.8594 200.1683 275.5776 200.1486 275.9731 199.4089 Z" fill="none" fill-opacity="1" stroke="#000000" stroke-opacity="1" stroke-width="0.3527778" stroke-linecap="round" stroke-linejoin="round"/>
<path d="M 323.853 68.24829 C 325.6702 67.32068 327.288 65.32861 327.6353 63.59094 C 327.9724 61.90405 326.8323 58.91211 325.3313 57.54517 C 321.8207 54.34778 316.9045 55.66541 314.9526 60.32703 C 314.1539 62.23425 314.65 64.8656 316.1251 66.54663 C 318.285 69.00806 321.1351 69.63538 323.853 68.24829 Z" fill="none" fill-opacity="1" stroke="#000000" stroke-opacity="1" stroke-width="0.3527778" stroke-linecap="round" stroke-linejoin="round"/>
</svg>