<?xml version="1.0" encoding="utf-8"?>
<!-- Generator: Adobe Illustrator 25.2.1, SVG Export Plug-In . SVG Version: 6.00 Build 0)  -->
<svg version="1.1" id="Layer_1" xmlns="http://www.w3.org/2000/svg" xmlns:xlink="http://www.w3.org/1999/xlink" x="0px" y="0px"
	 viewBox="0 0 4280.3 1133.9" style="enable-background:new 0 0 4280.3 1133.9;" xml:space="preserve">
<style type="text/css">
	.st0{fill:none;stroke:#010101;stroke-miterlimit:11.3386;}
	.st1{fill:none;stroke:#010101;stroke-width:1.1461;stroke-linecap:round;stroke-linejoin:round;stroke-miterlimit:14.8962;}
</style>
<g>
	<path id="rect815" class="st0" d="M755.3,1055.1l-0.3,61.8c0,6.3-5.1,11.3-11.3,11.3H50.1c-6.3,0-11.3-5.1-11.3-11.3V66.3
		c0-6.3,5.1-11.3,11.3-11.3h693.5c6.3,0,11.3,5.1,11.3,11.3l0.4,61.8 M755.3,198.8v785.6"/>
	<path id="rect823-8" class="st0" d="M755.3,1055.3h-33.5c-1.6,0-2.8-1.4-2.8-3.1v-64.6c0-1.8,1.3-3.1,2.8-3.1h33.5"/>
	<path class="st0" d="M347.7,73.5h308.9c4.7,0,8.4,3.8,8.4,8.5v1020.9c0,4.7-3.8,8.5-8.4,8.5H345.3"/>
	<path class="st0" d="M337.8,1103l0.4-202.7c0.1-2.1-2.1-2-2.1-2h-27.9c-1.6,0-2.8-1.3-2.8-2.8V743.3c0-1.6,1.3-2.8,2.8-2.8
		c0,0,20.9,0,27.9,0c0.5,0,2-0.4,2.1-2L337.8,82"/>
	<g id="layer1-1" transform="matrix(1.1461945,0,0,1.146462,595.15478,21.68665)">
		<path id="path1024" class="st1" d="M-379.6,897.3c0.1,0.3,0.8,0.1,1,0.1c0.8,0,1.2,0.3,1.3,0.4c0.5,0.2,0.4,0,1.5,1
			c1.1,1.1,0.9,1.5,1.1,1.5c0.1,0,0.5-0.2,0.8-0.5c0.1-0.1,1.9-1.5,2.1-1.6c1.7-1.3,1.4-1.1,1.7-1.1l3.1,4.1
			c0.9,1.2,0.9,1.2,0.9,1.3s-0.4,0.4-3.1,2.5c0,0-2.7,2.1-3.8,3c-0.1,0.1-1.7,1.4-2.4,1.9c-0.5,0.4-0.8,0.6-2.6,2.1
			c-1,0.8-1.3,1-1.3,1.1c-0.1,0-0.6,0.5-3.5,2.7l-0.4,0.3l-3.9,3.1c-0.5,0.4-1.1,0.8-1.6,1.3c-1.9,1.5-2.3,1.8-2.4,1.9
			c-0.5,0.4-0.4,0.2-0.6,0.3c-6.6-8.6-4.5-5.9-9.4-12.2c-1-1.3-0.8-1-1-1.3l-3.7-4.8c-2.9-3.8-2.9-3.8-3-3.9l-3.6-4.6l-3.9-5.1
			l-3.7-4.8l-2.8-3.7c-0.5-0.6-6-7.7-6.1-8c-0.4-0.5-1.1-1.4-2.8-3.7c-1.7-2.2-1.5-1.9-1.7-2.2l-4.1-5.4l-2.4-3.1
			c-0.7-0.9,0.1,0.1-1.5-2c-0.4-0.5-1.1-1.4-2.4-3.1c-2-2.6-1.9-2.5-1.9-2.5c-0.8-1.1-0.7-0.9-0.7-1.1c0.2-0.3,0.7-0.6,3.6-2.8
			c0.2-0.1,2.3-1.7,2.3-1.7c0.7-0.5-0.2,0.1,2.5-1.9c0,0,2.4-1.8,2.6-1.9l3.7-2.7c0.2-0.2,1.7-1.3,1.8-1.3c0,0,1.9-1.4,2.4-1.8
			c2.2-1.6,1.9-1.4,2.2-1.7c-1.1-1.8-2.2-2.8-2.2-3.2c0-0.2,0.2-0.2,1.6-1.3c0.2-0.2,3.1-2.3,3.2-2.4c0.6-0.4,0.7-0.5,0.8-0.5
			c0.2,0,0.3,0.2,1.7,2.1l2.5,3.3c0.3,0.4,2.4,3.2,4.4,5.9l3.1,4.2c0.9,1.3,0.8,1.2,0.8,1.2c-0.6,0.7-4,2.9-4.5,3.5
			c0.6,0.9,0.3-0.2,1.5,2c1,1.8,0.3,1.1,0.5,2.2c0.1,0,0.6-0.4,0.6-0.4s0.5-0.9,0.9-1.3c0.7-0.8,1.6-1,1.6-1.1
			c0.1,0,1.7-0.8,3.6,0.4s2.2,3.5,1.9,4.5c-0.5,1.8-1.9,3-3.5,3.2c0.1,0.3,0.1,0.3,2.7,3.7c1.7,2.2,1.5,1.3,2.1,2.3
			c1.1,2.1,0.9,1.5,0.9,2.8c0.1-0.1,0.1,0,0.5-0.3l2.9-2.2c1.7-1.3,1.6-1.3,1.9-1.3c0.3,0.1,0.5,0.6,1.5,1.8l2.5,3.4
			c0.1,0.2,0.2,0.3,0.2,0.4c0,0.3-2.4,1.8-4.5,3.6c0.4,0.6,2.3,3.2,2.7,3.6c4.9-3.6,4.1-3.4,4.7-3.3c2,2.8,4.7,6,5.4,8
			c0.2,0.6,1,2.6,0,4.8c-0.9,1.9-2.4,2.9-2.9,3.3c1.5,0.2,0.4-0.3,2.7,0.9c1.4,0.7-0.1-0.1,1.4,1.3c0,0,0.5,0.4,1,1.1
			c1.4,2.4,1,1.9,1.3,3.2C-379.2,896.5-379.6,897.2-379.6,897.3L-379.6,897.3z"/>
	</g>
	<path id="path854" class="st0" d="M693.8,1038.4c-9.9,0-17.9-8-17.9-17.9s8-17.9,17.9-17.9s17.9,8,17.9,17.9
		C711.7,1030.3,703.7,1038.4,693.8,1038.4z"/>
	<path id="rect856" class="st0" d="M283.4,311.6v268.3c0,3.1-2.5,5.7-5.7,5.7h-145c-3.1,0-5.7-2.5-5.7-5.7V311.6
		c0-3.1,2.5-5.7,5.7-5.7h145C280.9,305.9,283.4,308.4,283.4,311.6z"/>
	<path id="rect823-8_1_" class="st0" d="M755.3,198.8h-33.5c-1.6,0-2.8-1.4-2.8-3.1V131c0-1.8,1.3-3.1,2.8-3.1h33.5"/>
	<g>
		<line class="st0" x1="305.4" y1="1111.5" x2="337.8" y2="1103"/>
		<line class="st0" x1="346.3" y1="1111.5" x2="305.4" y2="1111.5"/>
	</g>
	<g>
		<line class="st0" x1="305.4" y1="73.5" x2="337.8" y2="82"/>
		<line class="st0" x1="347.7" y1="73.5" x2="305.4" y2="73.5"/>
	</g>
	<path class="st0" d="M94.6,585.3v-275c0-4.7,3.8-8.5,8.5-8.5h219.7c1.6,0,2.8,1.3,2.8,2.8v286.3c0,1.6-1.3,2.8-2.8,2.8H103.1
		C98.5,593.8,94.6,590,94.6,585.3z"/>
</g>
</svg>
