<?xml version="1.0" encoding="utf-8"?>
<!-- Generator: Adobe Illustrator 26.1.0, SVG Export Plug-In . SVG Version: 6.00 Build 0)  -->
<svg version="1.1" id="Layer_1" xmlns="http://www.w3.org/2000/svg" xmlns:xlink="http://www.w3.org/1999/xlink" x="0px" y="0px"
	 viewBox="0 0 4280.3 1133.9" style="enable-background:new 0 0 4280.3 1133.9;" xml:space="preserve">
<style type="text/css">
	.st0{fill:none;stroke:#010101;stroke-miterlimit:10;}
	.st1{fill:none;stroke:#000000;stroke-linecap:round;stroke-linejoin:round;stroke-miterlimit:11.3386;}
</style>
<g>
	<g>
		<polyline class="st0" points="136,1048.1 136,831.3 382.6,831.3 383.5,830.8 		"/>
		<polyline class="st0" points="408.1,831.3 408.1,1065.4 407.6,1066.2 406.5,1066.6 185.9,1066.6 		"/>
		<line class="st0" x1="408.1" y1="545" x2="408.1" y2="831.3"/>
		<polyline class="st0" points="185.8,41.8 406.5,41.8 407.7,42.2 408.1,43.3 408.1,545 		"/>
		<path class="st0" d="M383.5,830.8l0.5-0.9c0,0,0-212.7,0-283.6l-0.8-1l-1.4-0.3c-61.5,0-245.9,0-245.9,0l-0.1-484.7"/>
		<path class="st0" d="M239.5,464.2v34c0,1.6-1.3,2.8-2.8,2.8h-39.7c-1.6,0-2.8-1.3-2.8-2.8v-34c0-1.6,1.3-2.8,2.8-2.8h39.7
			C238.2,461.4,239.5,462.6,239.5,464.2z"/>
		<path class="st0" d="M189.1,471.6v19.8c0,2.3-1.9,4.3-4.3,4.3h0c-2.3,0-4.3-1.9-4.3-4.3v-19.8c0-2.3,1.9-4.3,4.3-4.3h0
			C187.2,467.4,189.1,469.3,189.1,471.6z"/>
		<polyline class="st0" points="185.8,41.8 185.8,53.2 135.9,60.3 		"/>
		<line class="st0" x1="185.9" y1="1055.2" x2="136" y2="1048.1"/>
		<line class="st0" x1="185.9" y1="1066.6" x2="185.9" y2="1055.2"/>
		<g id="layer1">
			<path id="path1024" class="st1" d="M276.4,121.3c-0.2-0.4-1-0.1-1.2-0.1c-0.9,0-1.5-0.4-1.6-0.5c-0.6-0.3-0.6,0-1.8-1.2
				c-1.3-1.3-1.1-1.8-1.3-1.9c-0.1,0-0.6,0.3-1,0.6c-0.1,0.1-2.3,1.8-2.5,2c-2.1,1.6-1.7,1.3-2.1,1.3l-3.8-5.1
				c-1.1-1.4-1.1-1.5-1.1-1.6c0-0.2,0.5-0.5,3.8-3.1c0,0,3.3-2.6,4.7-3.7c0.1-0.1,2.2-1.7,3-2.4c0.7-0.5,1-0.8,3.2-2.5
				c1.2-1,1.6-1.3,1.6-1.3c0.1-0.1,0.8-0.6,4.3-3.4l0.5-0.4l4.8-3.8c0.6-0.5,1.3-1,2-1.6c2.4-1.9,2.8-2.2,2.9-2.3
				c0.6-0.4,0.5-0.3,0.7-0.3c8.1,10.6,5.6,7.3,11.5,15c1.3,1.6,1,1.3,1.2,1.6l4.5,5.9c3.6,4.7,3.6,4.7,3.7,4.8l4.4,5.7l4.8,6.3
				l4.5,5.9l3.5,4.5c0.6,0.7,7.3,9.5,7.5,9.8c0.4,0.6,1.4,1.8,3.5,4.5c2.1,2.7,1.8,2.4,2.1,2.7l5.1,6.6l2.9,3.8
				c0.8,1.1-0.1-0.2,1.9,2.5c0.4,0.6,1.3,1.7,2.9,3.8c2.4,3.2,2.3,3,2.3,3.1c1,1.4,0.8,1.2,0.9,1.3c-0.3,0.4-0.9,0.8-4.5,3.4
				c-0.2,0.2-2.8,2-2.9,2.1c-0.9,0.6,0.2-0.1-3.1,2.3c0,0-3,2.2-3.2,2.4l-4.5,3.3c-0.3,0.2-2.1,1.6-2.2,1.6c0,0-2.4,1.8-3,2.2
				c-2.7,2-2.3,1.7-2.7,2.1c1.3,2.2,2.7,3.4,2.7,3.9c0,0.3-0.2,0.3-1.9,1.5c-0.3,0.2-3.8,2.8-4,2.9c-0.7,0.5-0.8,0.6-1,0.6
				c-0.2,0-0.4-0.3-2.1-2.6l-3.1-4.1c-0.4-0.6-3-4-5.5-7.3l-3.9-5.2c-1.2-1.6-1-1.5-1-1.5c0.8-0.8,4.9-3.6,5.5-4.3
				c-0.7-1.1-0.4,0.3-1.9-2.5c-1.2-2.2-0.3-1.3-0.6-2.7c-0.1,0-0.8,0.5-0.8,0.5c0,0-0.6,1.1-1.1,1.6c-0.9,1-1.9,1.3-2,1.3
				c-0.1,0-2.1,0.9-4.4-0.5c-2.3-1.4-2.7-4.3-2.3-5.5c0.6-2.2,2.4-3.7,4.4-3.9c-0.2-0.3-0.1-0.4-3.3-4.6c-2.1-2.7-1.9-1.6-2.6-2.9
				c-1.4-2.6-1.1-1.9-1.1-3.4c-0.1,0.1-0.1,0-0.6,0.4l-3.5,2.7c-2.1,1.6-2,1.6-2.3,1.6c-0.3-0.1-0.6-0.7-1.8-2.2l-3.1-4.1
				c-0.2-0.2-0.3-0.4-0.3-0.5c0-0.3,2.9-2.2,5.5-4.4c-0.5-0.7-2.9-3.9-3.4-4.5c-6,4.5-5.1,4.2-5.8,4.1c-2.4-3.4-5.8-7.4-6.7-9.9
				c-0.3-0.7-1.3-3.2,0-5.9c1.1-2.4,3-3.6,3.5-4.1c-1.8-0.2-0.5,0.3-3.3-1.1c-1.7-0.8,0.1,0.1-1.8-1.5c0,0-0.7-0.4-1.2-1.4
				c-1.8-3-1.2-2.3-1.6-4C276,122.3,276.5,121.4,276.4,121.3L276.4,121.3z"/>
		</g>
	</g>
	<g>
		<line class="st0" x1="510.2" y1="920.6" x2="510.2" y2="187.8"/>
		<path class="st0" d="M510.2,124V47.5c0-3.1-2.5-5.7-5.7-5.7h-96.4v1024.7h96.4c3.1,0,5.7-2.5,5.7-5.7v-76.5"/>
		<path class="st0" d="M510.2,920.6h-29.8c-1.6,0-2.8,1.3-2.8,2.8v58.1c0,1.6,1.3,2.8,2.8,2.8h29.8"/>
		<path class="st0" d="M510.2,187.8h-29.8c-1.6,0-2.8-1.3-2.8-2.8v-58.1c0-1.6,1.3-2.8,2.8-2.8h29.8"/>
		<circle class="st0" cx="444" cy="155.9" r="18.4"/>
	</g>
	<path class="st0" d="M378,550.6v275c0,1.6-1.3,2.8-2.8,2.8H190.9c-1.6,0-2.8-1.3-2.8-2.8v-275c0-1.6,1.3-2.8,2.8-2.8h184.3
		C376.8,547.8,378,549,378,550.6z"/>
</g>
</svg>
