<?xml version="1.0" encoding="UTF-8" standalone="no"?>
<!-- Created with Inkscape (http://www.inkscape.org/) -->

<svg
   xmlns:dc="http://purl.org/dc/elements/1.1/"
   xmlns:cc="http://creativecommons.org/ns#"
   xmlns:rdf="http://www.w3.org/1999/02/22-rdf-syntax-ns#"
   xmlns:svg="http://www.w3.org/2000/svg"
   xmlns="http://www.w3.org/2000/svg"
   xmlns:sodipodi="http://sodipodi.sourceforge.net/DTD/sodipodi-0.dtd"
   xmlns:inkscape="http://www.inkscape.org/namespaces/inkscape"
   width="594mm"
   height="841mm"
   viewBox="0 0 594 841"
   version="1.1"
   id="svg11167"
   inkscape:version="0.92.3 (2405546, 2018-03-11)"
   sodipodi:docname="T410_LID.svg">
  <defs
     id="defs11161" />
  <sodipodi:namedview
     id="base"
     pagecolor="#ffffff"
     bordercolor="#666666"
     borderopacity="1.0"
     inkscape:pageopacity="0.0"
     inkscape:pageshadow="2"
     inkscape:zoom="0.9899495"
     inkscape:cx="1027.0283"
     inkscape:cy="991.65461"
     inkscape:document-units="mm"
     inkscape:current-layer="layer1"
     showgrid="false"
     inkscape:window-width="1920"
     inkscape:window-height="1017"
     inkscape:window-x="-8"
     inkscape:window-y="-8"
     inkscape:window-maximized="1" />
  <metadata
     id="metadata11164">
    <rdf:RDF>
      <cc:Work
         rdf:about="">
        <dc:format>image/svg+xml</dc:format>
        <dc:type
           rdf:resource="http://purl.org/dc/dcmitype/StillImage" />
        <dc:title></dc:title>
      </cc:Work>
    </rdf:RDF>
  </metadata>
  <g
     inkscape:label="Layer 1"
     inkscape:groupmode="layer"
     id="layer1"
     transform="translate(0,544)">
    <path
       inkscape:connector-curvature="0"
       id="rect12263"
       d="m 350.81178,-13.428853 18.06539,0.0066 c 0,0 1.41741,-0.103943 1.4465,1.15454 V 221.45586 c 0,1.93576 -1.4465,1.6837 -1.4465,1.6837 H 38.95832 c 0,0 -1.44651,0.15757 -1.44651,-1.6837 V -11.738595 c 0,-1.463301 1.44651,-1.683707 1.44651,-1.683707 l 16.436831,-0.0066 m 23.75,0 249.236859,-4.9e-5"
       style="opacity:1;vector-effect:none;fill:none;fill-opacity:1;fill-rule:evenodd;stroke:#000000;stroke-width:0.35277778;stroke-linecap:butt;stroke-linejoin:miter;stroke-miterlimit:4;stroke-dasharray:none;stroke-dashoffset:0;stroke-opacity:1"
       sodipodi:nodetypes="cccsccsscccc" />
    <path
       inkscape:connector-curvature="0"
       id="rect13699"
       d="m 79.145151,-13.428853 v 10.896435 c 0,0.875847 -0.666549,1.580949 -1.494505,1.580949 h -20.76098 c -0.827955,0 -1.494515,-0.705103 -1.494515,-1.580949 v -10.896435"
       style="opacity:1;vector-effect:none;fill:none;fill-opacity:1;fill-rule:evenodd;stroke:#000000;stroke-width:0.35277778;stroke-linecap:butt;stroke-linejoin:miter;stroke-miterlimit:4;stroke-dasharray:none;stroke-dashoffset:0;stroke-opacity:1"
       sodipodi:nodetypes="cssssc" />
    <path
       inkscape:connector-curvature="0"
       id="rect13699-5"
       d="m 328.38201,-13.428853 v 10.896435 c 0,0.875847 0.66656,1.580949 1.49452,1.580949 h 19.44075 c 0.82795,0 1.4945,-0.705103 1.4945,-1.580949 v -10.896435"
       style="opacity:1;vector-effect:none;fill:none;fill-opacity:1;fill-rule:evenodd;stroke:#000000;stroke-width:0.35277778;stroke-linecap:butt;stroke-linejoin:miter;stroke-miterlimit:4;stroke-dasharray:none;stroke-dashoffset:0;stroke-opacity:1"
       sodipodi:nodetypes="cssssc" />
    <path
       inkscape:connector-curvature="0"
       id="rect13738"
       d="m 151.80929,-10.538968 h 7.55383 c 2.35575,0 4.25225,1.5610003 4.25225,3.5000003 0,1.939 -1.8965,3.5 -4.25225,3.5 h -7.55383 c -2.35575,0 -4.25225,-1.561 -4.25225,-3.5 0,-1.939 1.8965,-3.5000003 4.25225,-3.5000003 z"
       style="opacity:1;vector-effect:none;fill:none;fill-opacity:1;fill-rule:evenodd;stroke:#000000;stroke-width:0.35277778;stroke-linecap:butt;stroke-linejoin:miter;stroke-miterlimit:4;stroke-dasharray:none;stroke-dashoffset:0;stroke-opacity:1"
       sodipodi:nodetypes="sssssss" />
    <path
       inkscape:connector-curvature="0"
       style="fill:none;fill-opacity:1;stroke:#000000;stroke-width:0.35277778;stroke-linecap:round;stroke-linejoin:round;stroke-miterlimit:4;stroke-dasharray:none;stroke-opacity:1"
       d="m 345.18903,186.2982 c 0.0185,-0.0528 0.047,-0.12207 0.0617,-0.17606 0.011,-0.0402 0.0182,-0.0955 0.0271,-0.13631 0.01,-0.0454 0.0228,-0.10584 0.0354,-0.15056 0.0263,-0.0935 0.0737,-0.23654 0.20763,-0.43935 0.0368,-0.0556 0.0863,-0.12974 0.13046,-0.17961 0.0171,-0.0193 0.044,-0.041 0.0629,-0.0586 0.0189,-0.0176 0.044,-0.041 0.063,-0.0585 0.0705,-0.0658 0.0915,-0.0779 0.144,-0.15864 0,0 0.0101,-0.0876 -0.009,-0.15476 0,0 -0.0913,-0.2165 -0.20708,-0.41995 0,0 -0.43324,-0.70713 -0.48137,-0.78566 0.23883,-0.2264 0.79137,-0.73975 1.30203,-1.00621 0,0 0.24911,-0.12191 0.29542,-0.13782 0.0608,-0.0209 0.11835,-0.0207 0.18263,-0.0192 0.009,0.005 0.099,0.0537 0.17755,0.13125 0.0423,0.0417 0.0932,0.10252 0.13188,0.14763 l 0.2659,0.32789 c 0,0 0.53117,0.66424 0.55904,0.6993 0,0 2.58197,3.28564 3.94171,5.07823 0,0 0.56917,0.75606 0.68925,0.95958 0.008,0.0138 0.11043,0.1998 0.13363,0.29376 0.0335,0.13577 0.0127,0.2173 -0.0491,0.30675 -0.0501,0.0724 -0.15024,0.14985 -0.26281,0.23463 0,0 -0.42889,0.30516 -0.65782,0.4722 l -1.31137,0.95665 c -1.64077,1.19707 -9.86862,7.15128 -16.3388,12.06437 0,0 -1.37889,1.04697 -1.45149,1.10215 -0.027,0.0205 -0.40562,0.31078 -0.55745,0.3863 -0.0855,0.0425 -0.0898,0.0514 -0.18515,0.0472 -0.0328,-0.0275 -0.0791,-0.0613 -0.109,-0.092 -0.0378,-0.0387 -0.0797,-0.098 -0.11321,-0.14059 -0.0395,-0.0502 -0.0909,-0.11811 -0.1299,-0.16869 l -0.2598,-0.33746 c -0.12784,-0.16751 -1.78729,-2.34774 -2.49672,-3.39377 -0.061,-0.0898 -0.1364,-0.2135 -0.20004,-0.30136 -0.13117,-0.18128 -0.31949,-0.4129 -0.46127,-0.58595 -0.0881,-0.10742 -0.20653,-0.24975 -0.30018,-0.35242 0,0 -0.21301,-0.24033 -0.32455,-0.31918 -0.0561,-0.0396 -0.17416,-0.11224 -0.33818,-0.0609 -0.24017,0.0752 -0.5261,0.36881 -0.73168,0.41029 -0.14779,0.0297 -0.23907,-0.0479 -0.34229,-0.15784 -0.0466,-0.0497 -0.52293,-0.63187 -0.81875,-1.09005 0,0 -0.10387,-0.16014 -0.13411,-0.23566 -0.0119,-0.03 -0.0169,-0.0955 -0.0189,-0.12776 0.13544,-0.1398 0.13386,-0.14241 0.28378,-0.26646 0.0451,-0.0372 0.10544,-0.0865 0.15065,-0.12356 0,0 0.27064,-0.22268 0.30105,-0.24714 0.12704,-0.1022 2.05912,-1.60221 2.57413,-2.00245 l 1.03352,-0.80514 c 0.14329,-0.10077 0.31704,-0.22038 0.4775,-0.15017 0.0901,0.0395 0.1861,0.12033 0.29661,0.25878 0,0 0.14763,0.19846 0.15539,0.20891 0,0 0.27921,0.37561 0.33263,0.43854 0,0 0.0868,0.12563 0.19261,0.1774 0.22402,0.10964 0.47503,-0.0672 0.54169,-0.11692 0,0 0.16189,-0.12269 0.22616,-0.23684 0.0259,-0.046 0.0338,-0.0864 0.0416,-0.12508 -0.016,-0.0827 -0.0236,-0.14083 -0.0809,-0.26898 0,0 -0.20582,-0.40412 -0.2165,-0.4255 -0.0148,-0.0297 -0.19149,-0.32962 -0.21928,-0.6275 -0.0358,-0.38369 0.20004,-0.78994 0.22086,-0.82738 0.0126,-0.0229 0.12436,-0.25347 0.34617,-0.39193 0.19291,-0.1204 0.70778,-0.26622 1.13239,-0.1033 0.0779,0.0298 0.25664,0.12056 0.46563,0.3039 0.026,0.0228 0.43118,0.40332 0.51287,0.46792 0.0745,0.0589 0.18128,0.12744 0.25893,0.18206 0,0 0.8653,-0.64333 1.53342,-1.21788 l 0.33778,-0.30358 c 0.11731,-0.1238 0.17573,-0.21738 0.12151,-0.35908 -0.0668,-0.17438 -0.26922,-0.43743 -0.47939,-0.80133 -0.006,-0.011 -0.10078,-0.19236 -0.11534,-0.22783 -0.0125,-0.0306 -0.031,-0.0714 -0.0367,-0.10417 -0.005,-0.0303 -6.2e-4,-0.0719 -7.9e-4,-0.10275 0.0167,-0.0267 0.0362,-0.0643 0.0556,-0.0892 0.0221,-0.0285 0.0579,-0.0611 0.0828,-0.0874 0.0248,-0.0262 0.0576,-0.0613 0.0827,-0.0873 0.0701,-0.0725 0.26376,-0.26043 0.4972,-0.45303 0.16932,-0.13964 0.42928,-0.36184 0.60566,-0.41029 0.16647,-0.0458 0.32305,0.0312 0.52475,0.23638 0.0592,0.0601 0.43997,0.51279 0.56418,0.62686 0,0 0.12594,0.10378 0.18737,0.13608 0.0185,0.01 0.11312,0.0474 0.20622,0.0341 0.0746,-0.0107 0.18206,-0.0604 0.33896,-0.16489 0.0836,-0.0556 0.30263,-0.19331 0.34569,-0.3635 0.0136,-0.0536 0.003,-0.15873 -0.0476,-0.27185 -0.0757,-0.16765 -0.1835,-0.31949 -0.39098,-0.62331 -0.0123,-0.0179 -0.196,-0.28766 -0.229,-0.36785 -0.0244,-0.0593 -0.0312,-0.11415 -0.0394,-0.21001 0.009,-0.0245 0.0369,-0.13093 0.12111,-0.22988 0.0407,-0.0479 0.10584,-0.10172 0.15318,-0.14313 0.19323,-0.16877 0.48857,-0.37467 0.82074,-0.61579 0.0405,-0.0294 0.60375,-0.45343 0.83228,-0.55499 0.0178,-0.008 0.18191,-0.0779 0.37436,-0.10624 0.10092,-0.0148 0.34403,-0.0603 0.68006,-0.008 0.21785,0.0338 0.3487,0.0742 0.58762,0.22671 0,0 0.35392,0.25039 0.51429,0.3438 0.0616,0.0359 0.10395,0.0598 0.21604,0.0993 0,0 0.0797,-0.005 0.11628,-0.0239 0.028,-0.0149 0.0604,-0.0433 0.085,-0.0633 l 0.18824,-0.1694 c 0.18761,-0.16877 0.51004,-0.4995 0.7738,-0.64841 0.21722,-0.12254 0.6359,-0.23209 0.66986,-0.24286 0,0 0.22608,-0.0765 0.29724,-0.11177 0.14566,-0.0722 0.16957,-0.0869 0.27651,-0.23257"
       id="path4-6" />
  </g>
</svg>
