<?xml version="1.0" encoding="utf-8"?>
<!-- Generator: Adobe Illustrator 25.2.1, SVG Export Plug-In . SVG Version: 6.00 Build 0)  -->
<svg version="1.1" id="Layer_1" xmlns="http://www.w3.org/2000/svg" xmlns:xlink="http://www.w3.org/1999/xlink" x="0px" y="0px"
	 viewBox="0 0 4280.3 1133.9" style="enable-background:new 0 0 4280.3 1133.9;" xml:space="preserve">
<style type="text/css">
	.st0{fill:none;stroke:#010101;stroke-linecap:round;stroke-linejoin:round;stroke-miterlimit:11.3386;}
	.st1{fill:none;stroke:#010101;stroke-miterlimit:11.3386;}
</style>
<g>
	<path id="path4-6-6-0-7-6-0-62-5" class="st0" d="M246.3,922.8c0.2,0.1,0.4,0.1,0.5,0.2c0.1,0,0.3,0.1,0.4,0.1
		c0.1,0,0.3,0.1,0.5,0.1c0.3,0.1,0.7,0.2,1.3,0.6c0.2,0.1,0.4,0.3,0.5,0.4c0.1,0.1,0.1,0.1,0.2,0.2c0.1,0.1,0.1,0.1,0.2,0.2
		c0.2,0.2,0.2,0.3,0.5,0.4c0,0,0.3,0,0.5,0c0,0,0.7-0.3,1.3-0.6c0,0,2.2-1.3,2.4-1.5c0.7,0.7,2.3,2.4,3.1,4c0,0,0.4,0.8,0.4,0.9
		c0.1,0.2,0.1,0.4,0.1,0.6c0,0-0.2,0.3-0.4,0.5c-0.1,0.1-0.3,0.3-0.5,0.4l-1,0.8c0,0-2,1.6-2.1,1.7c0,0-10,7.8-15.5,12
		c0,0-2.3,1.7-2.9,2.1c0,0-0.6,0.3-0.9,0.4c-0.4,0.1-0.7,0-0.9-0.1c-0.2-0.2-0.5-0.5-0.7-0.8c0,0-0.9-1.3-1.4-2l-2.9-4
		c-3.7-5-21.9-30-36.9-49.6c0,0-3.2-4.2-3.4-4.4c-0.1-0.1-1-1.2-1.2-1.7c-0.1-0.3-0.2-0.3-0.1-0.6c0.1-0.1,0.2-0.2,0.3-0.3
		c0.1-0.1,0.3-0.2,0.4-0.3c0.2-0.1,0.4-0.3,0.5-0.4l1-0.8c0.5-0.4,7.2-5.4,10.4-7.6c0.3-0.2,0.7-0.4,0.9-0.6c0.6-0.4,1.3-1,1.8-1.4
		c0.3-0.3,0.8-0.6,1.1-0.9c0,0,0.7-0.6,1-1c0.1-0.2,0.3-0.5,0.2-1c-0.2-0.7-1.1-1.6-1.3-2.2c-0.1-0.4,0.1-0.7,0.5-1
		c0.2-0.1,1.9-1.6,3.3-2.5c0,0,0.5-0.3,0.7-0.4c0.1,0,0.3-0.1,0.4-0.1c0.4,0.4,0.4,0.4,0.8,0.9c0.1,0.1,0.3,0.3,0.4,0.5
		c0,0,0.7,0.8,0.8,0.9c0.3,0.4,4.9,6.3,6.1,7.8l2.5,3.1c0.3,0.4,0.7,1,0.5,1.4c-0.1,0.3-0.4,0.6-0.8,0.9c0,0-0.6,0.4-0.6,0.5
		c0,0-1.1,0.8-1.3,1c0,0-0.4,0.3-0.5,0.6c-0.3,0.7,0.2,1.4,0.4,1.6c0,0,0.4,0.5,0.7,0.7c0.1,0.1,0.3,0.1,0.4,0.1
		c0.3,0,0.4-0.1,0.8-0.2c0,0,1.2-0.6,1.3-0.7c0.1,0,1-0.6,1.9-0.7c1.2-0.1,2.4,0.6,2.5,0.7c0.1,0,0.8,0.4,1.2,1.1
		c0.4,0.6,0.8,2.1,0.3,3.4c-0.1,0.2-0.4,0.8-0.9,1.4c-0.1,0.1-1.2,1.3-1.4,1.6c-0.2,0.2-0.4,0.6-0.6,0.8c0,0,2,2.6,3.7,4.7l0.9,1
		c0.4,0.4,0.7,0.5,1.1,0.4c0.5-0.2,1.3-0.8,2.5-1.5c0,0,0.6-0.3,0.7-0.4c0.1,0,0.2-0.1,0.3-0.1c0.1,0,0.2,0,0.3,0
		c0.1,0.1,0.2,0.1,0.3,0.2c0.1,0.1,0.2,0.2,0.3,0.3c0.1,0.1,0.2,0.2,0.3,0.3c0.2,0.2,0.8,0.8,1.4,1.5c0.4,0.5,1.1,1.3,1.3,1.8
		c0.1,0.5-0.1,1-0.7,1.6c-0.2,0.2-1.6,1.3-1.9,1.7c0,0-0.3,0.4-0.4,0.6c0,0.1-0.1,0.3-0.1,0.6c0,0.2,0.2,0.6,0.5,1
		c0.2,0.3,0.6,0.9,1.1,1c0.2,0,0.5,0,0.8-0.1c0.5-0.2,1-0.6,1.9-1.2c0.1,0,0.9-0.6,1.1-0.7c0.2-0.1,0.3-0.1,0.6-0.1
		c0.1,0,0.4,0.1,0.7,0.4c0.1,0.1,0.3,0.3,0.4,0.5c0.5,0.6,1.1,1.5,1.9,2.5c0.1,0.1,1.4,1.8,1.7,2.5c0,0.1,0.2,0.6,0.3,1.1
		c0,0.3,0.2,1,0,2.1c-0.1,0.7-0.2,1.1-0.7,1.8c0,0-0.8,1.1-1.1,1.6c-0.1,0.2-0.2,0.3-0.3,0.7c0,0,0,0.2,0.1,0.4
		c0,0.1,0.1,0.2,0.2,0.3l0.5,0.6c0.5,0.6,1.5,1.5,2,2.3c0.4,0.7,0.7,1.9,0.7,2c0,0,0.2,0.7,0.3,0.9
		C245.8,922.4,245.8,922.5,246.3,922.8"/>
	<path id="path6-7-7-9-9-7-9-9-9" class="st0" d="M789.5,159.2l-0.4,24.1l0.1,282.6c0,162.2,0.1,300.5,0.1,307.5
		c0,6.9-0.2,79.6-0.2,100.3 M789,940.7c-0.2,23.6-0.2,48.5-1.3,50c-0.6,0.8-1.8,1.9-2.7,2.4c-1.4,0.8-30.5,0.9-321.1,0.9
		c-194.9,0-320.1-0.2-321-0.5c-0.8-0.3-2-1.5-2.8-2.7l-1.4-2.2l-0.1-470.8c0-258.9,0.1-471.7,0.3-472.9c0.5-2.8,2.1-5,3.9-5.7
		c0.9-0.3,119.2-0.5,320.7-0.5c274.6,0,319.5,0.1,321.2,0.8c4,1.7,4,1.7,4.2,29.2c0,7.1,0.6,19.6,0.6,23.5"/>
	<path id="path8-5-5-3-2-5-3-1-2" class="st0" d="M766.4,804.2c0.4,1.2,1.6,3,2.9,4c1.8,1.5,2.8,1.8,5.3,1.8c2.6,0,3.3-0.3,5.1-2
		c1.1-1.1,2.3-2.9,2.7-4c0.8-2.5,0.8-22,0-25.7c-0.8-3.9-4.1-6.6-8-6.6c-3.7,0-7.2,2.8-7.9,6.3C765.7,781.7,765.7,801.7,766.4,804.2
		L766.4,804.2z"/>
	<path id="path10-3-3-6-0-3-6-2-2" class="st0" d="M188.2,88c0.5-0.1,0.9,0,1.6,0.1c1,0.2,2.5,0.6,4.1,1.2
		c8.2,2.6,13.7,4.3,16.5,5.2c0,5.1,0,8.1,0,9c0,0.5,0,1-0.1,1.3c0,0.5,0,0.9-0.1,1.2c-0.1,0.3-0.1,0.4-0.2,0.7l-0.1,0.1
		c-0.3,0.1-0.6,0-1.1-0.1c-1.1-0.2-2.1-0.6-4.1-1.4c0,10.1,0,85.9-0.2,101.1c0,0.4-0.1,4.7-0.2,7.2c0,0.7-0.1,1.9-0.6,3.6
		c-0.3,1.3-0.9,2.3-1.7,3.3c-0.2,0.2-1.1,1.3-2.5,1.8c-1.1,0.4-2.1,0.5-3.2,0.4c-0.3,0-1.6-0.2-2.8-0.8c-0.6-0.3-1.3-0.9-1.9-1.5
		c-1.2-1.1-2-2.4-2.6-3.3c0-0.1-0.4-0.8-0.6-1.2c-0.3-0.6-0.4-1.1-0.5-1.2c-0.3-1-0.4-12.8-0.4-21.4c0-9.7-0.2-82.5,0-97
		c0-0.6,0.1-4.9,0.2-6.1c0.1-0.8,0.1-1.4,0.2-1.7c0-0.1,0.1-0.3,0.1-0.4c0-0.1,0.1-0.1,0.1-0.2L188.2,88z"/>
	<path id="rect1540-8" class="st1" d="M789,940.7h-30.2v-67H789"/>
	<path id="rect1540-8-5" class="st1" d="M789.5,92.2h-30.2v67h30.2"/>
</g>
</svg>
