<?xml version="1.0" encoding="utf-8"?>
<!-- Generator: Adobe Illustrator 25.2.1, SVG Export Plug-In . SVG Version: 6.00 Build 0)  -->
<svg version="1.1" id="Layer_1" xmlns="http://www.w3.org/2000/svg" xmlns:xlink="http://www.w3.org/1999/xlink" x="0px" y="0px"
	 viewBox="0 0 4280.3 1133.9" style="enable-background:new 0 0 4280.3 1133.9;" xml:space="preserve">
<style type="text/css">
	.st0{fill:none;stroke:#010101;stroke-width:1.4173;stroke-linecap:round;stroke-linejoin:round;stroke-miterlimit:11.3386;}
	.st1{fill:none;stroke:#010101;stroke-miterlimit:11.3386;}
</style>
<g>
	<path id="path4-0" class="st0" d="M298.5,1004.2c0.2,0.1,0.4,0.2,0.6,0.2c0.1,0,0.3,0.1,0.5,0.1c0.2,0,0.4,0.1,0.5,0.1
		c0.3,0.1,0.8,0.3,1.6,0.7c0.2,0.1,0.5,0.3,0.6,0.5c0.1,0.1,0.1,0.2,0.2,0.2c0.1,0.1,0.1,0.2,0.2,0.2c0.2,0.3,0.3,0.3,0.6,0.5
		c0,0,0.3,0,0.6,0c0,0,0.8-0.3,1.5-0.7c0,0,2.5-1.6,2.8-1.7c0.8,0.9,2.6,2.8,3.6,4.7c0,0,0.4,0.9,0.5,1.1c0.1,0.2,0.1,0.4,0.1,0.7
		c0,0-0.2,0.4-0.5,0.6c-0.1,0.2-0.4,0.3-0.5,0.5l-1.2,1c0,0-2.4,1.9-2.5,2c0,0-11.8,9.2-18.2,14.1c0,0-2.7,2-3.4,2.5
		c0,0-0.7,0.4-1.1,0.5c-0.5,0.1-0.8,0-1.1-0.2c-0.3-0.2-0.5-0.5-0.8-0.9c0,0-1.1-1.5-1.7-2.4l-3.4-4.7c-4.3-5.9-25.6-35.4-43.2-58.7
		c0,0-3.7-4.9-3.9-5.2c-0.1-0.1-1.1-1.5-1.4-2c-0.2-0.3-0.2-0.3-0.2-0.7c0.1-0.1,0.2-0.3,0.3-0.4c0.1-0.1,0.4-0.3,0.5-0.4
		c0.2-0.1,0.4-0.3,0.6-0.5l1.2-0.9c0.6-0.5,8.4-6.4,12.2-8.9c0.3-0.2,0.8-0.5,1.1-0.7c0.6-0.5,1.5-1.1,2.1-1.7
		c0.4-0.3,0.9-0.7,1.3-1.1c0,0,0.9-0.8,1.1-1.2c0.1-0.2,0.4-0.6,0.2-1.2c-0.3-0.9-1.3-1.9-1.5-2.6c-0.1-0.5,0.2-0.9,0.6-1.2
		c0.2-0.2,2.3-1.9,3.9-2.9c0,0,0.6-0.4,0.8-0.5c0.1,0,0.3-0.1,0.5-0.1c0.5,0.5,0.5,0.5,1,1c0.1,0.2,0.3,0.4,0.4,0.5
		c0,0,0.8,1,0.9,1.1c0.4,0.5,5.7,7.4,7.2,9.2l2.9,3.7c0.4,0.5,0.8,1.1,0.5,1.7c-0.1,0.3-0.4,0.7-0.9,1.1c0,0-0.7,0.5-0.7,0.6
		c0,0-1.3,1-1.6,1.2c0,0-0.4,0.3-0.6,0.7c-0.4,0.8,0.2,1.7,0.4,1.9c0,0,0.4,0.6,0.8,0.8c0.2,0.1,0.3,0.1,0.4,0.1
		c0.3-0.1,0.5-0.1,1-0.3c0,0,1.4-0.7,1.5-0.8s1.2-0.7,2.2-0.8c1.4-0.1,2.8,0.7,3,0.8c0.1,0,0.9,0.4,1.4,1.2c0.4,0.7,1,2.5,0.4,4.1
		c-0.1,0.3-0.4,0.9-1.1,1.7c-0.1,0.1-1.4,1.5-1.7,1.8c-0.2,0.3-0.5,0.6-0.7,0.9c0,0,2.3,3.1,4.4,5.5l1.1,1.2
		c0.4,0.4,0.8,0.6,1.3,0.4c0.6-0.2,1.6-1,2.9-1.7c0,0,0.7-0.4,0.8-0.4s0.3-0.1,0.4-0.1s0.3,0,0.4,0c0.1,0.1,0.2,0.1,0.3,0.2
		c0.1,0.1,0.2,0.2,0.3,0.3c0.1,0.1,0.2,0.2,0.3,0.3c0.3,0.3,0.9,0.9,1.6,1.8c0.5,0.6,1.3,1.5,1.5,2.2c0.2,0.6-0.1,1.2-0.8,1.9
		c-0.2,0.2-1.8,1.6-2.2,2c0,0-0.4,0.5-0.5,0.7c0,0.1-0.2,0.4-0.1,0.7c0,0.3,0.2,0.7,0.6,1.2c0.2,0.3,0.7,1.1,1.3,1.2
		c0.2,0,0.6,0,1-0.2c0.6-0.3,1.1-0.7,2.2-1.4c0.1,0,1-0.7,1.3-0.8c0.2-0.1,0.4-0.1,0.8-0.1c0.1,0,0.5,0.1,0.8,0.4
		c0.2,0.1,0.4,0.4,0.5,0.5c0.6,0.7,1.3,1.7,2.2,2.9c0.1,0.1,1.6,2.2,2,3c0,0.1,0.3,0.7,0.4,1.3c0.1,0.4,0.2,1.2,0,2.4
		c-0.1,0.8-0.3,1.2-0.8,2.1c0,0-0.9,1.3-1.2,1.8c-0.1,0.2-0.2,0.4-0.4,0.8c0,0,0,0.3,0.1,0.4c0.1,0.1,0.2,0.2,0.2,0.3l0.6,0.7
		c0.6,0.7,1.8,1.8,2.3,2.8c0.4,0.8,0.8,2.3,0.9,2.4c0,0,0.3,0.8,0.4,1.1C297.9,1003.7,298,1003.8,298.5,1004.2"/>
	<path id="path8-6" class="st0" d="M810.1,887.8c0.3,1.2,1.5,3,2.6,4c1.7,1.5,2.5,1.8,4.8,1.8c2.4,0,3-0.3,4.6-2
		c1-1.1,2.1-2.9,2.4-4c0.7-2.5,0.7-22.1,0-25.8c-0.7-3.9-3.7-6.6-7.3-6.6c-3.4,0-6.6,2.8-7.3,6.3
		C809.4,865.2,809.4,885.3,810.1,887.8L810.1,887.8z"/>
	<path id="path10-0" class="st0" d="M229.5,166.7c0.7-0.1,1.1,0,2,0.1c1.3,0.2,3.2,0.8,5.3,1.4c10.6,3,17.6,5.1,21.2,6.1
		c0,6,0,9.5,0,10.6c0,0.6-0.1,1.1-0.1,1.5c0,0.6-0.1,1.1-0.1,1.5c-0.1,0.3-0.1,0.4-0.3,0.8l-0.2,0.2c-0.4,0.1-0.8,0-1.4-0.1
		c-1.4-0.3-2.7-0.7-5.3-1.6c0,11.9,0.1,101.4-0.2,119.4c0,0.4-0.1,5.5-0.2,8.5c0,0.9-0.1,2.2-0.8,4.3c-0.4,1.5-1.2,2.8-2.1,3.9
		c-0.3,0.3-1.4,1.5-3.2,2.2c-1.4,0.5-2.7,0.6-4.1,0.4c-0.4,0-2.1-0.2-3.6-1c-0.8-0.4-1.7-1-2.5-1.7c-1.5-1.3-2.6-2.8-3.3-3.8
		c0-0.1-0.6-0.9-0.8-1.4c-0.4-0.8-0.6-1.2-0.6-1.4c-0.3-1.2-0.5-15.1-0.5-25.2c-0.1-11.4-0.2-97.3,0-114.5c0-0.7,0.1-5.8,0.2-7.2
		c0.1-1,0.1-1.6,0.2-2c0-0.1,0.1-0.3,0.1-0.4s0.1-0.1,0.2-0.2L229.5,166.7z"/>
	<path class="st1" d="M830,1020.4l-0.1,49.7c0,4.7-3.8,8.5-8.5,8.5H192.1c-4.7,0-8.5-3.8-8.5-8.5V129.1c0-4.7,3.8-8.5,8.5-8.5h629.3
		c4.7,0,8.5,3.8,8.5,8.5l0.1,48.7"/>
	<line class="st1" x1="830" y1="251.7" x2="830" y2="946.5"/>
	<path class="st1" d="M830,251.7h-22.7c-1.6,0-2.8-1.3-2.8-2.8v-68.2c0-1.6,1.3-2.8,2.8-2.8H830"/>
	<path class="st1" d="M830,946.5h-22.7c-1.6,0-2.8,1.3-2.8,2.8v68.2c0,1.6,1.3,2.8,2.8,2.8H830"/>
</g>
</svg>
