<?xml version="1.0" encoding="UTF-8" standalone="no"?>
<!-- exported from Silhouette Studio Business Edition V4.1.454ssbe -->

<svg
   xmlns:dc="http://purl.org/dc/elements/1.1/"
   xmlns:cc="http://creativecommons.org/ns#"
   xmlns:rdf="http://www.w3.org/1999/02/22-rdf-syntax-ns#"
   xmlns:svg="http://www.w3.org/2000/svg"
   xmlns="http://www.w3.org/2000/svg"
   xmlns:sodipodi="http://sodipodi.sourceforge.net/DTD/sodipodi-0.dtd"
   xmlns:inkscape="http://www.inkscape.org/namespaces/inkscape"
   version="1.1"
   width="304.8mm"
   height="1040mm"
   viewBox="0 0 304.8 1040"
   id="svg16"
   sodipodi:docname="T440S_T450S_LID.svg"
   inkscape:version="0.92.3 (2405546, 2018-03-11)">
  <metadata
     id="metadata20">
    <rdf:RDF>
      <cc:Work
         rdf:about="">
        <dc:format>image/svg+xml</dc:format>
        <dc:type
           rdf:resource="http://purl.org/dc/dcmitype/StillImage" />
        <dc:title />
      </cc:Work>
    </rdf:RDF>
  </metadata>
  <sodipodi:namedview
     pagecolor="#ffffff"
     bordercolor="#666666"
     borderopacity="1"
     objecttolerance="10"
     gridtolerance="10"
     guidetolerance="10"
     inkscape:pageopacity="0"
     inkscape:pageshadow="2"
     inkscape:window-width="1920"
     inkscape:window-height="1017"
     id="namedview18"
     showgrid="false"
     inkscape:zoom="1.921282"
     inkscape:cx="171.57784"
     inkscape:cy="3500.4008"
     inkscape:window-x="-8"
     inkscape:window-y="-8"
     inkscape:window-maximized="1"
     inkscape:current-layer="svg16" />
  <defs
     id="defs2" />
  <g
     id="g838"
     style="stroke:#000000;stroke-width:0.35239196;stroke-miterlimit:4;stroke-dasharray:none;stroke-opacity:1"
     transform="matrix(1.0015261,0,0,1.0006638,0.05914584,-0.18976442)">
    <path
       style="fill:none;fill-opacity:1;stroke:#000000;stroke-width:0.35239196;stroke-linecap:round;stroke-linejoin:round;stroke-miterlimit:4;stroke-dasharray:none;stroke-opacity:1"
       id="path4"
       d="m 288.89004,65.20283 c 0,-1.2775 -1.55116,-2.3152 -3.46053,-2.3152 H -35.296643 c -1.909432,0 -3.460526,1.0377 -3.460526,2.3152 v 218.36964 c 0,1.27745 1.551094,2.31512 3.460526,2.31512 H 285.42951 c 1.90937,0 3.46053,-1.03767 3.46053,-2.31512 z"
       inkscape:connector-curvature="0" />
    <path
       style="fill:none;fill-opacity:1;stroke:#000000;stroke-width:0.35239196;stroke-linecap:round;stroke-linejoin:round;stroke-miterlimit:4;stroke-dasharray:none;stroke-opacity:1"
       id="path6"
       d="m -0.07309038,80.939049 c 0.034485,-0.07101 0.05333,-0.113109 0.078026,-0.211574 0.013333,-0.05309 0.022514,-0.125826 0.033298,-0.179586 0.0257963,-0.128332 0.0504341,-0.26177 0.16614098,-0.496755 0.0737106,-0.149816 0.19497842,-0.339712 0.3038404,-0.466309 0.0945446,-0.110122 0.12501364,-0.126212 0.23527549,-0.220534 0.006179,-0.0048 0.079986,-0.05607 0.10191089,-0.125248 0.0146552,-0.04634 0.0100309,-0.119082 -0.0110639,-0.193846 -0.0318303,-0.11282 -0.15611982,-0.348576 -0.25978779,-0.52585 0,0 -0.54336387,-0.885506 -0.60401217,-0.983778 0.47955848,-0.425748 0.8800192,-0.815271 1.42954248,-1.146312 0.1514374,-0.09114 0.243134,-0.135075 0.4497749,-0.229879 0,0 0.2154165,-0.123225 0.3542648,-0.08035 0.03966,0.01224 0.1257474,0.06561 0.2227056,0.164364 0.2380753,0.242211 1.4292915,1.755597 1.4292915,1.755597 0.6244407,0.785307 2.0661185,2.629638 4.1067303,5.27893 0.068903,0.0895 1.1072335,1.42918 1.3556098,1.80637 0,0 0.2227346,0.319769 0.2893782,0.564581 0.058303,0.214271 -0.023112,0.348287 -0.1438202,0.471994 -0.024474,0.02515 -0.1305552,0.117637 -0.2727246,0.220051 -0.1158324,0.08353 -0.2743562,0.189029 -0.3909995,0.271308 -0.3152808,0.222556 -0.7320958,0.524212 -1.0449727,0.750141 0,0 -8.8429603,6.443643 -12.6223904,9.21934 -1.0168593,0.746865 -5.5941497,4.106596 -10.1043817,7.554486 -0.113776,0.0869 -0.790331,0.61844 -1.150948,0.85208 l -0.190789,0.11417 c 0,0 -0.123565,0.0685 -0.197373,0.0369 -0.07419,-0.0318 -0.15274,-0.13402 -0.278767,-0.29135 -0.818975,-1.02222 -2.989728,-3.97924 -3.141918,-4.19245 -0.153484,-0.21494 -0.290219,-0.38865 -0.499745,-0.724897 -0.154402,-0.2478 -0.270331,-0.4058 -0.574297,-0.785877 -0.03893,-0.0487 -0.506069,-0.635107 -0.812419,-0.94601 0,0 -0.166094,-0.163786 -0.274038,-0.225061 -0.04149,-0.02361 -0.158485,-0.08844 -0.313813,-0.05366 -0.02828,0.0067 -0.140548,0.04355 -0.264104,0.119178 -0.315667,0.193172 -0.59792,0.461206 -0.825347,0.418436 -0.105367,-0.0198 -0.210212,-0.108494 -0.297101,-0.198191 -0.09557,-0.09875 -0.350287,-0.423918 -0.567895,-0.718637 -0.101023,-0.13681 -0.236357,-0.318902 -0.332978,-0.458891 -0.06496,-0.09403 -0.15023,-0.220629 -0.209103,-0.318612 -0.02037,-0.03391 -0.0461,-0.08006 -0.06334,-0.11571 -0.0038,-0.0077 -0.04928,-0.08517 -0.05481,-0.16186 -0.0012,-0.01599 0.003,-0.03728 0.0042,-0.05318 0.06875,-0.08517 0.08912,-0.104727 0.191522,-0.195388 0.04829,-0.04278 0.115234,-0.09683 0.164616,-0.138255 l 0.329221,-0.276606 c 0.662798,-0.541844 3.614872,-2.789763 4.507279,-3.501462 0.05729,-0.04567 0.40103,-0.343566 0.613308,-0.401277 0.109441,-0.02967 0.218053,-0.03045 0.36867,0.08353 0.165677,0.125345 0.312597,0.334991 0.535273,0.635106 0.06908,0.09316 0.364035,0.506099 0.485882,0.601481 0.07441,0.05819 0.205675,0.105787 0.299843,0.09712 0.106739,-0.0099 0.276317,-0.05636 0.488827,-0.219281 0.01655,-0.01272 0.194003,-0.143168 0.277803,-0.311001 0.0054,-0.01079 0.027,-0.05742 0.02828,-0.118119 0.0037,-0.177371 -0.164326,-0.470452 -0.263736,-0.658806 -0.166585,-0.315433 -0.393076,-0.706305 -0.392574,-1.122322 1.35e-4,-0.119082 0.01995,-0.304257 0.130044,-0.580863 0,0 0.09624,-0.245391 0.209981,-0.426615 0,0 0.123112,-0.210803 0.311468,-0.350599 0.01077,-0.0077 0.122532,-0.08469 0.233904,-0.131415 0.08736,-0.03661 0.334233,-0.113783 0.618001,-0.130451 0.06155,-0.0039 0.249149,-0.0077 0.41029,0.02457 0.484878,0.09798 0.81965,0.456 0.940821,0.567568 0,0 0.351727,0.333931 0.513668,0.463901 0.07735,0.06214 0.193008,0.139603 0.324896,0.227952 0.470725,-0.363991 1.781442,-1.351045 2.314041,-1.870055 0.02691,-0.02621 0.182215,-0.164172 0.209334,-0.311868 0.01943,-0.105787 -0.03117,-0.221497 -0.141358,-0.40619 0,0 -0.231317,-0.363606 -0.256843,-0.404167 -0.09447,-0.149913 -0.370185,-0.565159 -0.417076,-0.78155 -0.02383,-0.10993 -0.0021,-0.152899 0.06858,-0.240477 0.115447,-0.142879 0.417693,-0.452243 0.893101,-0.838682 0.02703,-0.02197 0.380708,-0.308882 0.564893,-0.407828 0.04664,-0.02505 0.193202,-0.09663 0.347932,-0.06041 0.1309307,0.03064 0.2538787,0.113301 0.4439717,0.303197 0.2849367,0.284603 0.6400517,0.81055 0.9430328,0.955356 0.076607,0.03661 0.1689793,0.0606 0.2802838,0.03979 0.1334419,-0.02486 0.2740569,-0.113012 0.4038591,-0.203576 0.2595946,-0.181032 0.4447644,-0.33451 0.4436541,-0.54512 -4.924e-4,-0.09201 -0.044217,-0.220437 -0.1151373,-0.349443 -0.1701379,-0.30946 -0.5289692,-0.779719 -0.6488758,-0.982332 -0.022571,-0.03815 -0.155917,-0.247029 -0.1329591,-0.422762 0.0084,-0.06455 0.044806,-0.165328 0.1519492,-0.287878 0.1837311,-0.210225 0.6996863,-0.579322 1.0960054,-0.865466 0.043985,-0.03179 0.6583755,-0.479027 0.8880998,-0.623352 0,0 0.1980871,-0.12573 0.3419652,-0.184789 0.2368396,-0.09712 0.5725391,-0.127657 0.7185412,-0.137292 0,0 0.3364527,-0.02929 0.65965,0.03931 0.058679,0.01243 0.1982995,0.04114 0.3799646,0.12467 0.1077903,0.04942 0.1759208,0.09182 0.3381228,0.204637 0,0 0.3048927,0.221497 0.4781103,0.326802 0,0 0.1088041,0.0711 0.2263936,0.124862 0.072436,0.03314 0.148995,0.07293 0.2653679,0.0096 0.046167,-0.02534 0.1396207,-0.106654 0.2700697,-0.224002 0.1701668,-0.152996 0.3907388,-0.363991 0.5627207,-0.514963 0.1873225,-0.164557 0.3810652,-0.339134 0.6888928,-0.465154 0.131482,-0.05376 0.67667046,-0.216294 0.67667046,-0.216294 0.028249,-0.0096 0.35591566,-0.102125 0.53836276,-0.255314 0.064259,-0.05395 0.077785,-0.07274 0.1342529,-0.161088 z"
       inkscape:connector-curvature="0" />
    <g
       style="stroke:#000000;stroke-width:0.39174432;stroke-miterlimit:4;stroke-dasharray:none;stroke-opacity:1"
       transform="matrix(0.95467302,0,0,0.84760196,11.9463,11.900325)"
       id="g861">
      <g
         id="g12"
         style="stroke:#000000;stroke-width:0.39135721;stroke-miterlimit:4;stroke-dasharray:none;stroke-opacity:1"
         transform="matrix(0,-1,1.0019793,0,-49.666339,299.13043)">
        <path
           inkscape:connector-curvature="0"
           d="m 207.5716,269.0833 c 0.1013,-0.002 0.2366,-0.0119 0.3378,-0.006 0.1013,0.006 0.2348,0.03 0.3352,0.0446 0.1804,0.0263 0.4211,0.0605 0.6001,0.0948 0.2847,0.0546 1.836,0.4233 2.8221,0.6617 0,0 6.3614,1.5378 7.484,1.8091 3e-4,0.2187 0.0288,3.7233 -0.0642,4.3727 l -0.0491,0.238 c -0.007,0.0357 -0.0123,0.0847 -0.0246,0.119 -0.0107,0.0297 -0.0345,0.065 -0.0493,0.0929"
           id="path8"
           style="fill:none;fill-opacity:1;stroke:#000000;stroke-width:0.39135721;stroke-linecap:round;stroke-linejoin:round;stroke-miterlimit:4;stroke-dasharray:none;stroke-opacity:1" />
        <path
           inkscape:connector-curvature="0"
           d="m 216.153,279.7372 c 1e-4,3.8434 0.045,32.6714 -0.1451,38.4333 -0.0325,0.985 -0.0208,1.5482 -0.1965,2.1813 -0.0751,0.271 -0.1388,0.5557 -0.4161,1.0451 -0.1543,0.2725 -0.4239,0.6383 -0.8161,0.9501 -0.719,0.5716 -1.6068,0.7174 -2.1809,0.7192 -0.0793,2e-4 -0.8119,0.0271 -1.5759,-0.1873 -0.454,-0.1273 -0.9998,-0.3576 -1.6672,-0.8822 0,0 -0.7875,-0.5963 -1.3255,-1.3932 0,0 -0.257,-0.4071 -0.3295,-0.55 -0.0305,-0.0603 -0.0737,-0.1405 -0.0922,-0.2054 -0.0214,-0.075 -0.0271,-0.18 -0.0347,-0.2576 -0.0615,-0.6258 -0.1148,-3.7712 -0.1206,-4.1904 -0.0244,-1.7514 -0.1351,-19.2672 -0.0861,-35.0313 0,0 0.0227,-6.9076 0.0862,-9.2091 0,0 0.0384,-0.9826 0.0548,-1.2278 0.007,-0.1052 0.0117,-0.2462 0.0289,-0.3503 0.0201,-0.1212 0.0697,-0.278 0.0995,-0.3972 l 0.0633,-0.0714 0.0723,-0.0297"
           id="path10"
           style="fill:none;fill-opacity:1;stroke:#000000;stroke-width:0.39135721;stroke-linecap:round;stroke-linejoin:round;stroke-miterlimit:4;stroke-dasharray:none;stroke-opacity:1" />
      </g>
      <path
         inkscape:connector-curvature="0"
         d="m 225.71024,79.97783 c 0.72252,-0.006 1.44585,-0.0227 2.89041,0.0223 0,0 0.49748,0.0134 0.55259,0.0176 0,0 0.43105,0.0348 0.60199,0.1004 0.0462,0.0178 0.102,0.054 0.14579,0.0772 l 0.0519,0.078 c -0.002,0.0945 0.002,0.4794 -0.10792,0.939 l -0.47994,1.7669 2.24253,-0.001"
         id="path14"
         style="fill:none;fill-opacity:1;stroke:#000000;stroke-width:0.39174432;stroke-linecap:round;stroke-linejoin:round;stroke-miterlimit:4;stroke-dasharray:none;stroke-opacity:1" />
    </g>
  </g>
</svg>
