<?xml version="1.0" encoding="UTF-8" standalone="no"?>
<!-- exported from Silhouette Studio Business Edition V4.1.206ssbe -->

<svg
   xmlns:dc="http://purl.org/dc/elements/1.1/"
   xmlns:cc="http://creativecommons.org/ns#"
   xmlns:rdf="http://www.w3.org/1999/02/22-rdf-syntax-ns#"
   xmlns:svg="http://www.w3.org/2000/svg"
   xmlns="http://www.w3.org/2000/svg"
   xmlns:sodipodi="http://sodipodi.sourceforge.net/DTD/sodipodi-0.dtd"
   xmlns:inkscape="http://www.inkscape.org/namespaces/inkscape"
   version="1.1"
   width="1200mm"
   height="800mm"
   viewBox="0 0 1200 800"
   id="svg10"
   sodipodi:docname="T440_LID.svg"
   inkscape:version="0.92.3 (2405546, 2018-03-11)">
  <metadata
     id="metadata14">
    <rdf:RDF>
      <cc:Work
         rdf:about="">
        <dc:format>image/svg+xml</dc:format>
        <dc:type
           rdf:resource="http://purl.org/dc/dcmitype/StillImage" />
        <dc:title />
      </cc:Work>
    </rdf:RDF>
  </metadata>
  <sodipodi:namedview
     pagecolor="#ffffff"
     bordercolor="#666666"
     borderopacity="1"
     objecttolerance="10"
     gridtolerance="10"
     guidetolerance="10"
     inkscape:pageopacity="0"
     inkscape:pageshadow="2"
     inkscape:window-width="1920"
     inkscape:window-height="1017"
     id="namedview12"
     showgrid="false"
     inkscape:zoom="0.44152924"
     inkscape:cx="1872.9466"
     inkscape:cy="2433.5647"
     inkscape:window-x="-8"
     inkscape:window-y="-8"
     inkscape:window-maximized="1"
     inkscape:current-layer="svg10"
     inkscape:measure-start="41.9408,2737.07"
     inkscape:measure-end="0,0"
     showguides="true"
     inkscape:guide-bbox="true"
     inkscape:snap-bbox="true"
     inkscape:bbox-paths="true"
     inkscape:bbox-nodes="true"
     inkscape:snap-bbox-edge-midpoints="true"
     inkscape:snap-bbox-midpoints="true" />
  <defs
     id="defs2" />
  <g
     id="g871"
     style="stroke:#000000;stroke-opacity:1;stroke-width:0.35277777;stroke-miterlimit:4;stroke-dasharray:none">
    <path
       sodipodi:nodetypes="sssssssss"
       style="fill:none;fill-opacity:1;stroke:#000000;stroke-width:0.35277777;stroke-linecap:round;stroke-linejoin:round;stroke-miterlimit:4;stroke-dasharray:none;stroke-opacity:1"
       inkscape:connector-curvature="0"
       id="path4-6-6"
       d="m 616.5309,260.01851 c 2.97076,0 4.32557,-1.20126 4.32557,-3.98291 V 35.501413 c 0,-2.781593 -1.35481,-3.9829 -4.32557,-3.9829 l -327.84886,-10e-7 c -2.97073,0 -4.32556,1.201307 -4.32556,3.9829 l -10e-6,220.534118 c 0,2.78166 1.35482,3.98292 4.32557,3.98292 z" />
    <path
       style="fill:none;fill-opacity:1;stroke:#000000;stroke-width:0.35277777;stroke-linecap:round;stroke-linejoin:round;stroke-miterlimit:4;stroke-dasharray:none;stroke-opacity:1"
       inkscape:connector-curvature="0"
       id="path8-5-9"
       d="m 349.63149,238.66616 c 0.0602,-0.10687 0.2109,-0.35236 0.3738,-0.72748 0,0 0.3509,-0.87646 0.4594,-1.17181 0,0 0.6513,-1.82965 1.1785,-3.69653 0.0413,-0.14631 0.5821,-2.05439 0.7012,-2.95874 0.0215,-0.16376 0.0435,-0.27607 0.0185,-0.55011 l -0.0302,-0.0468 c -0.4937,-0.0564 -0.4945,-0.0547 -0.991,-0.0733 -0.4113,-0.0154 -0.9598,-0.0334 -1.3712,-0.0451 0,0 -2.321,-0.0563 -4.64229,-0.0867 -6.2532,-0.0821 -31.26809,-0.17395 -41.69088,-0.21454 -0.9245,0.57197 -1.4689,0.86567 -1.991,1.36841 -0.4066,0.39154 -0.6135,0.7403 -0.6992,0.88636 -0.2618,0.4461 -0.4949,1.06469 -0.552,1.99395 -0.005,0.0748 -0.0572,0.83325 0.0618,1.49677 0.006,0.0323 0.0533,0.33636 0.2228,0.61725 0.1742,0.28857 0.402,0.48486 0.6619,0.69946 0,0 0.9127,0.71863 0.9607,0.75647 20.95059,0.25214 20.95059,0.25604 41.90218,0.40436 -0.0503,0.13415 -0.2983,0.80707 -0.319,0.90033 -0.0103,0.0466 -0.0463,0.28112 0.0455,0.47546 0.1256,0.26593 0.4953,0.4856 1.0124,0.59943 0.2831,0.0623 0.96159,0.16009 1.92769,0.13788 0.0844,-0.002 1.1855,-0.0347 1.684,-0.125 0,0 0.3822,-0.0745 0.5653,-0.17029 0.246,-0.12879 0.2911,-0.20124 0.5111,-0.46973" />
    <path
       style="fill:none;fill-opacity:1;stroke:#000000;stroke-width:0.35277777;stroke-linecap:round;stroke-linejoin:round;stroke-opacity:1;stroke-miterlimit:4;stroke-dasharray:none"
       inkscape:connector-curvature="0"
       d="m 580.68719,240.44073 c -0.11177,0.0526 -0.0246,0.3057 -0.0239,0.36026 0.003,0.278 -0.12621,0.45345 -0.14291,0.488 -0.0819,0.16933 -0.002,0.16467 -0.37611,0.53142 -0.39657,0.38905 -0.53497,0.31282 -0.56038,0.38397 -0.0153,0.0427 0.0877,0.16671 0.18699,0.29682 0.0259,0.034 0.54098,0.69983 0.58494,0.75715 0.47772,0.62363 0.39133,0.50727 0.3949,0.62169 l -1.52396,1.12404 c -0.42563,0.31425 -0.43833,0.32514 -0.47386,0.32097 -0.0518,-0.005 -0.1381,-0.13963 -0.92008,-1.13949 -0.008,-0.0125 -0.77308,-0.99151 -1.09373,-1.40324 -0.0247,-0.0318 -0.50799,-0.64434 -0.7009,-0.88965 -0.15881,-0.20214 -0.22723,-0.29122 -0.74409,-0.94732 -0.28761,-0.3662 -0.37435,-0.47578 -0.38113,-0.48442 -0.0179,-0.0226 -0.18149,-0.23225 -0.99494,-1.27558 l -0.1219,-0.15655 -1.12597,-1.43689 c -0.1485,-0.19014 -0.30304,-0.38834 -0.46432,-0.59395 -0.557,-0.71127 -0.65205,-0.83018 -0.68168,-0.86932 -0.1273,-0.16791 -0.089,-0.13603 -0.0937,-0.22301 3.18,-2.39257 2.18002,-1.64027 4.5005,-3.3851 0.48876,-0.36757 0.37911,-0.28492 0.46605,-0.3503 l 1.7593,-1.32569 c 1.41299,-1.06485 1.41361,-1.06403 1.42631,-1.07358 l 1.70771,-1.2872 1.87545,-1.41596 1.77816,-1.33483 1.36035,-1.02778 c 0.22151,-0.16757 2.85729,-2.15352 2.93568,-2.21248 0.17436,-0.13113 0.52823,-0.39937 1.35186,-1.01954 0.80653,-0.60715 0.717,-0.53969 0.80656,-0.6073 l 1.9856,-1.49897 1.13934,-0.85731 c 0.33148,-0.24877 -0.0511,0.0347 0.73796,-0.55483 0.17237,-0.12862 0.51571,-0.38787 1.13866,-0.85421 0.95315,-0.71441 0.90839,-0.68067 0.9166,-0.68685 0.40756,-0.30065 0.35003,-0.24404 0.39374,-0.26517 0.11898,0.0883 0.23105,0.26248 1.00196,1.33319 0.0463,0.0649 0.59755,0.8346 0.61414,0.85732 0.18669,0.25638 -0.0419,-0.0642 0.67595,0.93122 0.005,0.009 0.65002,0.89472 0.70293,0.96806 l 0.97863,1.35312 c 0.0568,0.0789 0.46107,0.63967 0.47373,0.65716 0.005,0.009 0.51903,0.71556 0.64895,0.89436 0.58986,0.8113 0.4967,0.7011 0.60691,0.79856 0.65553,-0.3895 1.01505,-0.80666 1.16928,-0.78135 0.0799,0.0132 0.0857,0.0612 0.45431,0.57188 0.0652,0.0899 0.82539,1.13752 0.86328,1.19073 0.14392,0.20308 0.17916,0.24984 0.17559,0.29047 -0.006,0.071 -0.0776,0.11047 -0.78005,0.62555 l -1.23235,0.90375 c -0.16566,0.12094 -1.19494,0.87958 -2.18654,1.60816 l -1.54179,1.13279 c -0.46767,0.34334 -0.44541,0.30369 -0.44967,0.30599 -0.24592,-0.23943 -1.05863,-1.47413 -1.26792,-1.65734 -0.32092,0.20275 0.0762,0.12087 -0.75327,0.55986 -0.64713,0.34264 -0.38902,0.0966 -0.79889,0.18313 0.0137,0.0235 0.1448,0.23426 0.14655,0.23606 0.005,0.007 0.31676,0.18203 0.45788,0.3174 0.28142,0.27 0.36888,0.57425 0.37959,0.60413 0.008,0.0221 0.27471,0.6135 -0.16208,1.30634 -0.43735,0.69388 -1.27802,0.77778 -1.64175,0.67314 -0.65261,-0.18794 -1.10638,-0.7151 -1.14174,-1.30829 -0.0929,0.048 -0.10966,0.0399 -1.36522,0.98009 -0.8047,0.60252 -0.48909,0.55861 -0.86342,0.75675 -0.77882,0.41212 -0.56638,0.31908 -1.02369,0.31708 0.0284,0.0429 0.008,0.0226 0.11729,0.17114 l 0.78192,1.0553 c 0.47424,0.63976 0.48384,0.60003 0.46225,0.69819 -0.0212,0.0962 -0.21315,0.18934 -0.67073,0.52744 l -1.24142,0.91707 c -0.0686,0.0509 -0.11253,0.081 -0.14061,0.0761 -0.0919,-0.0156 -0.64134,-0.87203 -1.29436,-1.65052 -0.21039,0.13646 -1.1798,0.84893 -1.33635,0.98355 1.31066,1.80395 1.2237,1.51312 1.20872,1.74886 -1.02188,0.71669 -2.22324,1.69002 -2.96569,1.95982 -0.2068,0.0752 -0.9501,0.36573 -1.76831,-0.0184 -0.69952,-0.3283 -1.06069,-0.8973 -1.21233,-1.05924 -0.0723,0.53849 0.0995,0.15081 -0.32401,0.984 -0.25231,0.49648 0.041,-0.0256 -0.46441,0.51856 -0.004,0.003 -0.13547,0.19658 -0.41211,0.35788 -0.89449,0.52164 -0.69346,0.34362 -1.18195,0.4544 -0.42709,0.0966 -0.68833,-0.0588 -0.72327,-0.0423 z"
       id="path854" />
  </g>
</svg>
