<?xml version="1.0" encoding="utf-8"?>
<!-- Generator: Adobe Illustrator 25.2.1, SVG Export Plug-In . SVG Version: 6.00 Build 0)  -->
<svg version="1.1" id="Layer_1" xmlns="http://www.w3.org/2000/svg" xmlns:xlink="http://www.w3.org/1999/xlink" x="0px" y="0px"
	 viewBox="0 0 4280.3 1133.9" style="enable-background:new 0 0 4280.3 1133.9;" xml:space="preserve">
<style type="text/css">
	.st0{fill:none;stroke:#010101;stroke-width:1;stroke-linecap:round;stroke-linejoin:round;stroke-miterlimit:11.3386;}
	.st1{fill:none;stroke:#010101;stroke-width:0.3507;stroke-linecap:round;stroke-linejoin:round;}
</style>
<g id="layer1">
	<g id="g823">
		<path id="path4_7_" class="st0" d="M117.1,1032.6c0,8.5,2,10.7,9.8,10.7h627.3c7.9,0,12.8-2.4,12.8-10.7V101.2
			c0-8.5-2-10.7-9.8-10.7H126.9c-7.9,0-9.8,2.4-9.8,10.7V1032.6z"/>
		<path id="path8_7_" class="st0" d="M176,274.8c0.3,0.2,1,0.6,2.1,1.1c0,0,2.5,1,3.3,1.3c0,0,5.1,1.8,10.4,3.2
			c0.4,0.1,5.7,1.7,8.3,2c0.5,0.1,0.8,0.1,1.6,0.1l0.1-0.1c0.2-1.4,0.2-1.4,0.2-2.7c0-1.2,0.1-2.6,0.1-3.8c0,0,0.2-6.5,0.2-12.9
			c0.2-17.3,0.5-86.6,0.6-115.6c-1.6-2.5-2.5-4.1-3.9-5.5c-1.1-1.2-2.1-1.7-2.5-2c-1.3-0.7-3-1.4-5.6-1.6c-0.2,0-2.4-0.2-4.2,0.2
			c-0.1,0-1,0.2-1.7,0.6c-0.8,0.5-1.4,1.1-2,1.9c0,0-2,2.5-2.1,2.6c-0.7,58.1-0.7,58.1-1.1,116.1c-0.4-0.1-2.3-0.8-2.6-0.9
			c-0.1,0-0.8-0.1-1.3,0.1c-0.8,0.4-1.4,1.4-1.7,2.8c-0.2,0.8-0.5,2.6-0.4,5.4c0,0.2,0.1,3.3,0.4,4.7c0,0,0.2,1.1,0.5,1.6
			C175.1,274.1,175.3,274.2,176,274.8"/>
		<g id="layer1-3" transform="matrix(-1.004549,0,0,-1.0071303,-158.59512,328.76877)">
			<path id="path1024" class="st1" d="M-331.5-598.4c0.1,0.3,0.8,0.1,1,0.1c0.8,0,1.2,0.3,1.3,0.4c0.5,0.2,0.5,0,1.5,1
				c1.1,1.1,0.9,1.4,1.1,1.5c0.1,0,0.5-0.2,0.8-0.5c0.1-0.1,1.9-1.5,2.1-1.6c1.7-1.3,1.4-1.1,1.7-1.1l3.1,4.1
				c0.9,1.2,0.9,1.2,0.9,1.3c0,0.1-0.4,0.4-3.1,2.5c0,0-2.7,2.1-3.8,3c-0.1,0.1-1.8,1.4-2.4,1.9c-0.5,0.4-0.8,0.6-2.6,2.1
				c-1,0.8-1.3,1-1.3,1.1c-0.1,0-0.6,0.5-3.5,2.7l-0.4,0.3l-3.9,3.1c-0.5,0.4-1.1,0.8-1.6,1.3c-1.9,1.5-2.3,1.8-2.4,1.9
				c-0.5,0.4-0.4,0.2-0.6,0.3c-6.6-8.6-4.5-5.9-9.4-12.2c-1-1.3-0.8-1-1-1.3l-3.7-4.8c-3-3.8-2.9-3.8-3-3.9l-3.6-4.6l-3.9-5.1
				l-3.7-4.8l-2.8-3.7c-0.5-0.6-6-7.7-6.1-7.9c-0.4-0.5-1.1-1.4-2.8-3.7c-1.7-2.2-1.5-1.9-1.7-2.2l-4.2-5.4l-2.4-3.1
				c-0.7-0.9,0.1,0.1-1.5-2c-0.4-0.5-1.1-1.4-2.4-3.1c-2-2.6-1.9-2.5-1.9-2.5c-0.8-1.1-0.7-0.9-0.7-1.1c0.2-0.3,0.7-0.6,3.6-2.8
				c0.2-0.1,2.3-1.6,2.3-1.7c0.7-0.5-0.2,0.1,2.5-1.9c0,0,2.4-1.8,2.6-1.9l3.7-2.7c0.2-0.2,1.7-1.3,1.8-1.3c0,0,1.9-1.4,2.4-1.8
				c2.2-1.6,1.9-1.4,2.2-1.7c-1.1-1.8-2.2-2.7-2.2-3.2c0-0.2,0.2-0.2,1.6-1.3c0.2-0.2,3.1-2.3,3.2-2.4c0.6-0.4,0.7-0.5,0.8-0.5
				c0.2,0,0.3,0.2,1.7,2.1l2.5,3.3c0.3,0.4,2.4,3.2,4.5,5.9l3.1,4.2c1,1.3,0.8,1.2,0.8,1.2c-0.6,0.7-4,2.9-4.5,3.5
				c0.6,0.9,0.3-0.2,1.6,2c1,1.8,0.3,1.1,0.5,2.2c0.1,0,0.6-0.4,0.6-0.4c0,0,0.5-0.9,0.9-1.3c0.7-0.8,1.6-1,1.6-1
				c0.1,0,1.7-0.8,3.6,0.4c1.9,1.2,2.2,3.5,1.9,4.5c-0.5,1.8-1.9,3-3.6,3.1c0.1,0.3,0.1,0.3,2.7,3.7c1.7,2.2,1.5,1.3,2.1,2.3
				c1.1,2.1,0.9,1.5,0.9,2.8c0.1-0.1,0.1,0,0.5-0.3l2.9-2.2c1.7-1.3,1.6-1.3,1.9-1.3c0.3,0.1,0.5,0.6,1.5,1.8l2.5,3.4
				c0.1,0.2,0.2,0.3,0.2,0.4c0,0.3-2.4,1.8-4.5,3.6c0.4,0.6,2.4,3.2,2.7,3.6c4.9-3.6,4.1-3.4,4.8-3.3c2,2.8,4.7,6,5.4,8
				c0.2,0.6,1,2.6,0,4.8c-0.9,1.9-2.4,2.9-2.9,3.3c1.5,0.2,0.4-0.3,2.7,0.9c1.4,0.7-0.1-0.1,1.4,1.3c0,0,0.5,0.4,1,1.1
				c1.5,2.4,1,1.9,1.3,3.2C-331.1-599.2-331.6-598.5-331.5-598.4L-331.5-598.4z"/>
		</g>
	</g>
</g>
</svg>
