<?xml version="1.0" encoding="utf-8"?>
<!-- Generator: Adobe Illustrator 27.5.0, SVG Export Plug-In . SVG Version: 6.00 Build 0)  -->
<svg version="1.0"
	 id="svg6" xmlns:svg="http://www.w3.org/2000/svg" xmlns:rdf="http://www.w3.org/1999/02/22-rdf-syntax-ns#" xmlns:cc="http://creativecommons.org/ns#" xmlns:dc="http://purl.org/dc/elements/1.1/" xmlns:sodipodi="http://sodipodi.sourceforge.net/DTD/sodipodi-0.dtd" xmlns:inkscape="http://www.inkscape.org/namespaces/inkscape" sodipodi:docname="T460S_T470S_LID.svg"
	 xmlns="http://www.w3.org/2000/svg" xmlns:xlink="http://www.w3.org/1999/xlink" x="0px" y="0px" viewBox="0 0 1683.8 2383.9"
	 style="enable-background:new 0 0 1683.8 2383.9;" xml:space="preserve">
<style type="text/css">
	.st0{fill:none;stroke:#000000;stroke-linecap:round;stroke-linejoin:round;stroke-miterlimit:11.3386;}
	.st1{fill:none;stroke:#000000;stroke-width:1;stroke-linecap:round;stroke-linejoin:round;stroke-miterlimit:11.3386;}
</style>
<sodipodi:namedview  bordercolor="#666666" borderopacity="1" gridtolerance="10" guidetolerance="10" id="namedview8" inkscape:current-layer="svg6" inkscape:cx="724.74095" inkscape:cy="1745.3693" inkscape:pageopacity="0" inkscape:pageshadow="2" inkscape:window-height="1017" inkscape:window-maximized="1" inkscape:window-width="1920" inkscape:window-x="-8" inkscape:window-y="-8" inkscape:zoom="0.41627778" objecttolerance="10" pagecolor="#ffffff" showgrid="false">
	</sodipodi:namedview>
<g id="g823">
	<path id="path821" inkscape:connector-curvature="0" class="st0" d="M322.3,1473.3c-2.5-0.6-4.8-2.4-5.8-4.5c-1-2.1-1-14.9-1-312.9
		c0-170.9,0.2-311.7,0.4-312.9c0.4-2.4,3.1-5.5,5.1-6c0.6-0.2,208.2-0.2,461.3-0.1l460.1,0.2l2,2.1c1.2,1.2,2.2,3,2.4,4.1
		c0.2,1.1,0.3,141.9,0.2,312.9l-0.2,310.9l-1.2,2c-0.7,1.2-2.2,2.6-3.8,3.3l-2.6,1.3l-458-0.1
		C529.5,1473.6,322.9,1473.4,322.3,1473.3L322.3,1473.3z"/>
	<path id="path819" inkscape:connector-curvature="0" class="st0" d="M1227.5,1442.7c0.5-0.6,0.6-5.1,0.7-28.1
		c0.1-40.7,0-58.6-0.4-59.5c-0.8-1.6-17.2-1.6-18,0c-0.2,0.5-0.4,17.5-0.3,44.2c0.1,38,0.2,43.5,0.7,43.9c0.4,0.3,3.9,0.4,8.7,0.4
		C1225.3,1443.5,1227,1443.3,1227.5,1442.7L1227.5,1442.7z"/>
	<path id="path4" inkscape:connector-curvature="0" class="st1" d="M384.5,960c3.5-2.7,9.6-7.1,12.9-9.4c1.7-1.1,3.3-2.4,3.5-2.8
		c0.2-0.4,1.3-1,2.4-1.5c1.1-0.4,2.4-1.3,2.8-1.9c0.4-0.6,1.2-1.1,1.7-1.1c0.5,0,1-0.4,1.2-0.8c0.3-0.7,2.6-2.6,13.3-11.1
		c1.7-1.4,4.5-3.3,6.2-4.4c2.8-1.8,5-3.5,7.9-6.2c0.7-0.6,2.8-2.1,4.7-3.4c1.9-1.3,3.5-2.5,3.5-2.8c0-0.3,0.6-0.7,1.4-0.9
		c0.8-0.2,1.9-1,2.6-1.6c0.7-0.7,2.5-2.1,4.1-3.3c1.8-1.3,2.9-2.6,2.9-3.4c0-0.7-1.3-2.7-2.8-4.4c-1.5-1.7-3.3-4.1-3.9-5.3
		c-0.6-1.2-1.7-2.7-2.4-3.3s-1.3-1.5-1.3-2c0-0.5-0.6-1.4-1.4-2.2c-0.8-0.7-2.4-3-3.6-4.9c-3.4-5.5-5.1-5.9-9.2-2.3l-1.7,1.5
		l1.3,1.2c1,0.9,1.2,1.6,0.9,3.1c-0.5,2.3-4.2,6.2-6.4,6.8c-0.9,0.2-2.2,1-3,1.7c-1.2,1.1-1.9,1.2-4.8,0.9
		c-4.2-0.4-7.9,0.6-10.3,2.8c-1.7,1.5-1.7,1.7-0.8,2.7c1.2,1.3,1.3,5,0.3,6.1c-1.2,1.2-3.3,0.8-5.3-0.8c-1.6-1.3-2.2-1.5-3.6-1
		c-2.1,0.7-2.6,3.3-1,5.1c1.4,1.5,0.8,3.5-1.6,5.8c-1.6,1.5-2.4,1.8-5.1,1.8c-2.2,0-3.6-0.3-4.4-1.1c-1.5-1.4-2.9-1.3-5,0.1
		c-2.1,1.5-2.6,3.7-1.1,5.5c1,1.2,1,1.5,0.2,3.1c-1.1,2.1-1.7,2.2-4.9,0.6c-1.3-0.7-2.8-1.1-3.4-0.9c-0.5,0.2-2.9,1.8-5.2,3.7
		c-2.3,1.8-4.4,3.3-4.6,3.3c-0.9,0-4.2,3.8-4.2,4.8c0,0.6,0.8,1.9,1.8,3c1.4,1.6,2.3,2,4.1,2c1.9,0,2.7,0.4,4.8,2.7
		c2.2,2.4,5.9,7.4,9.6,13c1.2,1.8,2.8,3.1,3.9,3.1C382,961.7,383.3,960.9,384.5,960L384.5,960z"/>
</g>
</svg>
