<?xml version="1.0" encoding="utf-8"?>
<!-- Generator: Adobe Illustrator 25.3.0, SVG Export Plug-In . SVG Version: 6.00 Build 0)  -->
<svg version="1.1" id="Layer_1" xmlns="http://www.w3.org/2000/svg" xmlns:xlink="http://www.w3.org/1999/xlink" x="0px" y="0px"
	 viewBox="0 0 4280.3 1133.9" style="enable-background:new 0 0 4280.3 1133.9;" xml:space="preserve">
<style type="text/css">
	.st0{fill:none;stroke:#010101;stroke-linecap:round;stroke-linejoin:round;stroke-miterlimit:11.3386;}
</style>
<g>
	<path class="st0" d="M462.2,916.9c-0.2-0.1-0.3-0.2-0.6-0.3c-0.2,0-0.4-0.1-0.5-0.1c-0.4-0.1-0.8-0.2-1.6-0.5c-0.4-0.2-1-0.6-1.4-1
		c-0.3-0.3-0.4-0.4-0.7-0.7c0,0-0.2-0.2-0.4-0.3c-0.1,0-0.3,0-0.6,0c-0.3,0.1-1,0.4-1.6,0.7c0,0-2.6,1.6-2.9,1.8
		c-1.3-1.6-2.5-2.8-3.6-4.6c-0.3-0.5-0.4-0.7-0.7-1.4c0,0-0.4-0.7-0.3-1.1c0-0.1,0.2-0.4,0.5-0.6c0.7-0.7,5.1-4.2,5.1-4.2
		c2.3-1.9,7.7-6.1,15.3-12.1c0.3-0.2,4.1-3.2,5.3-4c0,0,0.9-0.6,1.7-0.8c0.6-0.2,1,0.1,1.4,0.5c0.1,0.1,0.4,0.4,0.7,0.8
		c0.3,0.4,0.6,0.8,0.8,1.2c0.7,1,1.7,2.3,2.4,3.3c0,0,20.2,27.9,28.9,39.9c2.4,3.2,12.8,17.7,23.7,31.9c0.3,0.3,2,2.5,2.7,3.6
		l0.3,0.6c0,0,0.2,0.4,0.1,0.6c-0.1,0.2-0.4,0.4-0.8,0.8c-3,2.4-11.6,8.8-12.2,9.2c-0.6,0.4-1.1,0.8-2.1,1.4
		c-0.7,0.4-1.1,0.8-2.3,1.7c-0.1,0.1-1.9,1.4-2.8,2.4c0,0-0.5,0.5-0.6,0.8c-0.1,0.1-0.2,0.5-0.1,0.9c0,0.1,0.1,0.4,0.4,0.8
		c0.6,1,1.4,1.9,1.3,2.6c0,0.3-0.3,0.6-0.5,0.9c-0.3,0.3-1.2,1-2.1,1.7c-0.4,0.3-0.9,0.7-1.3,0.9c-0.3,0.2-0.6,0.4-0.9,0.6
		c-0.1,0.1-0.2,0.1-0.3,0.2c0,0-0.2,0.1-0.5,0.1c0,0-0.1,0-0.2,0c-0.3-0.2-0.3-0.3-0.6-0.6c-0.1-0.1-0.3-0.4-0.4-0.5l-0.8-1
		c-1.7-2.1-8.7-11.4-11-14.3c-0.1-0.2-1-1.2-1.2-2c-0.1-0.3-0.1-0.7,0.2-1.1c0.3-0.5,0.9-0.9,1.9-1.6c0.3-0.2,1.4-1,1.8-1.4
		c0.2-0.2,0.3-0.6,0.3-0.9c0-0.3-0.2-0.8-0.7-1.6c0-0.1-0.4-0.6-0.9-0.9c0,0-0.2-0.1-0.3-0.1c-0.5,0-1.3,0.4-2,0.7
		c-0.9,0.5-2.1,1.1-3.3,1.1c-0.3,0-0.9-0.1-1.8-0.4c0,0-0.7-0.3-1.3-0.7c0,0-0.6-0.4-1-1c0,0-0.3-0.4-0.4-0.7c-0.1-0.3-0.4-1-0.4-2
		c0-0.2,0-0.7,0-1.2c0.2-1.4,1.2-2.5,1.6-2.8c0,0,0.9-1,1.3-1.6c0.2-0.2,0.4-0.6,0.6-0.9c-1.1-1.4-4.2-5.6-5.8-7.3
		c-0.1-0.1-0.5-0.6-0.9-0.7c-0.3-0.1-0.6,0.1-1.2,0.4c0,0-1,0.7-1.1,0.7c-0.4,0.3-1.7,1-2.3,1.2c-0.3,0.1-0.4,0-0.7-0.2
		c-0.4-0.4-1.3-1.3-2.6-2.8c-0.1-0.1-0.9-1.2-1.2-1.8c-0.1-0.1-0.3-0.6-0.2-1c0.1-0.4,0.3-0.7,0.8-1.3c0.8-0.8,2.4-1.9,2.8-2.8
		c0.1-0.2,0.2-0.5,0.1-0.8c-0.1-0.4-0.4-0.8-0.6-1.2c-0.5-0.8-1-1.4-1.7-1.4c-0.3,0-0.6,0.1-1,0.3c-0.9,0.5-2.3,1.6-2.9,1.9
		c-0.1,0.1-0.7,0.4-1.2,0.4c-0.2,0-0.5-0.2-0.8-0.5c-0.6-0.6-1.8-2.2-2.7-3.5c-0.1-0.1-1.6-2.1-2-2.8c0,0-0.4-0.6-0.6-1
		c-0.3-0.7-0.4-1.8-0.5-2.3c0,0-0.1-1,0-2.1c0-0.2,0.1-0.6,0.3-1.1c0.1-0.3,0.2-0.5,0.6-1c0,0,0.6-0.9,0.9-1.4c0,0,0.2-0.3,0.3-0.7
		c0.1-0.2,0.2-0.4,0-0.8c-0.1-0.1-0.3-0.4-0.7-0.8c-0.5-0.5-1.1-1.2-1.6-1.8c-0.5-0.6-1-1.2-1.4-2.2c-0.2-0.4-0.7-2.1-0.7-2.1
		c0-0.1-0.3-1.1-0.8-1.7C462.6,917.1,462.5,917,462.2,916.9z"/>
	<path class="st0" d="M1051.3,102.8c0-5.1-4.4-9.2-9.8-9.2H411.4c-5.4,0-9.8,4.1-9.8,9.2v928.3c0,5.1,4.4,9.2,9.8,9.2h630.1
		c5.4,0,9.8-4.1,9.8-9.2L1051.3,102.8z"/>
	<g>
		<path class="st0" d="M1014.5,133.5h-102c-4.7,0-8.5-3.8-8.5-8.5v-4.3c0-4.7,3.8-8.5,8.5-8.5h107.7v21.3"/>
		<path class="st0" d="M1020.2,133.5"/>
		<polyline class="st0" points="1020.2,133.5 1020.2,142.1 1014.5,142.1 1014.5,133.5 		"/>
	</g>
</g>
</svg>
