<?xml version="1.0" encoding="utf-8"?>
<!-- Generator: Adobe Illustrator 27.5.0, SVG Export Plug-In . SVG Version: 6.00 Build 0)  -->
<svg version="1.1"
	 id="svg6" xmlns:svg="http://www.w3.org/2000/svg" xmlns:cc="http://creativecommons.org/ns#" xmlns:rdf="http://www.w3.org/1999/02/22-rdf-syntax-ns#" xmlns:dc="http://purl.org/dc/elements/1.1/" xmlns:inkscape="http://www.inkscape.org/namespaces/inkscape" xmlns:sodipodi="http://sodipodi.sourceforge.net/DTD/sodipodi-0.dtd" inkscape:version="0.92.3 (2405546, 2018-03-11)"
	 xmlns="http://www.w3.org/2000/svg" xmlns:xlink="http://www.w3.org/1999/xlink" x="0px" y="0px" viewBox="0 0 1683.8 2383.9"
	 style="enable-background:new 0 0 1683.8 2383.9;" xml:space="preserve">
<style type="text/css">
	.st0{fill:none;stroke:#000000;stroke-linecap:round;stroke-linejoin:round;stroke-miterlimit:11.3386;}
</style>
<sodipodi:namedview  bordercolor="#666666" borderopacity="1" gridtolerance="10" guidetolerance="10" id="namedview8" inkscape:current-layer="svg6" inkscape:cx="724.74095" inkscape:cy="1745.3693" inkscape:pageopacity="0" inkscape:pageshadow="2" inkscape:window-height="1017" inkscape:window-maximized="1" inkscape:window-width="1920" inkscape:window-x="-8" inkscape:window-y="-8" inkscape:zoom="0.41627778" objecttolerance="10" pagecolor="#ffffff" showgrid="false">
	</sodipodi:namedview>
<g id="g823">
	<path id="path821" inkscape:connector-curvature="0" class="st0" d="M322.3,1473.3c-2.5-0.6-4.8-2.4-5.8-4.5s-1-14.9-1-312.9
		c0-170.9,0.2-311.7,0.4-312.9c0.4-2.4,3.1-5.5,5.1-6c0.6-0.2,208.2-0.2,461.3-0.1l463.1,0.2l2,2.1c1.2,1.2,2.2,3,2.4,4.1
		c0.2,1.1,0.3,141.9,0.2,312.9l-0.2,310.9l-1.2,2c-0.7,1.2-2.2,2.6-3.8,3.3l-2.6,1.3l-461-0.1
		C529.5,1473.6,322.9,1473.4,322.3,1473.3L322.3,1473.3z"/>
	<path id="path4" inkscape:connector-curvature="0" class="st0" d="M389.5,972.4c3.9-3,10.8-8,14.5-10.5c1.9-1.2,3.7-2.7,3.9-3.1
		c0.2-0.4,1.5-1.1,2.7-1.7c1.2-0.4,2.7-1.5,3.1-2.1c0.4-0.7,1.3-1.2,1.9-1.2s1.1-0.4,1.3-0.9c0.3-0.8,2.9-2.9,14.9-12.4
		c1.9-1.6,5-3.7,7-4.9c3.1-2,5.6-3.9,8.9-7c0.8-0.7,3.1-2.4,5.3-3.8c2.1-1.5,3.9-2.8,3.9-3.1c0-0.3,0.7-0.8,1.6-1s2.1-1.1,2.9-1.8
		c0.8-0.8,2.8-2.4,4.6-3.7c2-1.5,3.3-2.9,3.3-3.8c0-0.8-1.5-3-3.1-4.9c-1.7-1.9-3.7-4.6-4.4-5.9c-0.7-1.3-1.9-3-2.7-3.7
		c-0.8-0.7-1.5-1.7-1.5-2.2c0-0.6-0.7-1.6-1.6-2.5c-0.9-0.8-2.7-3.4-4-5.5c-3.8-6.2-5.7-6.6-10.3-2.6l-1.9,1.7l1.5,1.3
		c1.1,1,1.3,1.8,1,3.5c-0.6,2.6-4.7,7-7.2,7.6c-1,0.2-2.5,1.1-3.4,1.9c-1.3,1.2-2.1,1.3-5.4,1c-4.7-0.4-8.9,0.7-11.5,3.1
		c-1.9,1.7-1.9,1.9-0.9,3c1.3,1.5,1.5,5.6,0.3,6.8c-1.3,1.3-3.7,0.9-5.9-0.9c-1.8-1.5-2.5-1.7-4-1.1c-2.4,0.8-2.9,3.7-1.1,5.7
		c1.6,1.7,0.9,3.9-1.8,6.5c-1.8,1.7-2.7,2-5.7,2c-2.5,0-4-0.3-4.9-1.2c-1.7-1.6-3.3-1.5-5.6,0.1c-2.4,1.7-2.9,4.1-1.2,6.2
		c1.1,1.3,1.1,1.7,0.2,3.5c-1.2,2.4-1.9,2.5-5.5,0.7c-1.5-0.8-3.1-1.2-3.8-1c-0.6,0.2-3.3,2-5.8,4.1c-2.6,2-4.9,3.7-5.2,3.7
		c-1,0-4.7,4.3-4.7,5.4c0,0.7,0.9,2.1,2,3.4c1.6,1.8,2.6,2.2,4.6,2.2c2.1,0,3,0.4,5.4,3c2.5,2.7,6.6,8.3,10.8,14.6
		c1.3,2,3.1,3.5,4.4,3.5C386.7,974.3,388.2,973.4,389.5,972.4L389.5,972.4z"/>
</g>
</svg>
