<?xml version="1.0" encoding="utf-8"?>
<!-- Generator: Adobe Illustrator 25.3.1, SVG Export Plug-In . SVG Version: 6.00 Build 0)  -->
<svg version="1.1" id="Layer_1" xmlns="http://www.w3.org/2000/svg" xmlns:xlink="http://www.w3.org/1999/xlink" x="0px" y="0px"
	 viewBox="0 0 4280.3 1133.9" style="enable-background:new 0 0 4280.3 1133.9;" xml:space="preserve">
<style type="text/css">
	.st0{fill:none;stroke:#000000;stroke-miterlimit:10;}
	.st1{fill:none;stroke:#010101;stroke-linecap:round;stroke-linejoin:round;stroke-miterlimit:11.3386;}
</style>
<g>
	<path class="st0" d="M212.3,1023.3V110.6c0-6.3,5.1-11.3,11.3-11.3h620.8c3.1,0,5.7,2.5,5.7,5.7V1029c0,3.1-2.5,5.7-5.7,5.7H223.6
		C217.4,1034.6,212.3,1029.6,212.3,1023.3z"/>
	<g id="layer1">
		<path id="path1024" class="st1" d="M268.5,921.7c-0.1-0.3-0.9-0.1-1-0.1c-0.8,0-1.3-0.3-1.4-0.4c-0.5-0.2-0.5,0-1.5-1
			c-1.1-1.1-0.9-1.5-1.1-1.6c-0.1,0-0.5,0.2-0.8,0.5c-0.1,0.1-1.9,1.5-2.1,1.7c-1.7,1.3-1.4,1.1-1.7,1.1l-3.2-4.2
			c-0.9-1.2-0.9-1.2-0.9-1.3c0-0.1,0.4-0.4,3.2-2.6c0,0,2.7-2.2,3.9-3.1c0.1-0.1,1.8-1.4,2.5-2c0.6-0.4,0.8-0.6,2.6-2.1
			c1-0.8,1.3-1.1,1.3-1.1c0.1-0.1,0.6-0.5,3.5-2.8l0.4-0.3l4-3.2c0.5-0.4,1.1-0.9,1.6-1.3c2-1.6,2.3-1.8,2.4-1.9
			c0.5-0.4,0.4-0.3,0.6-0.3c6.8,8.8,4.6,6,9.6,12.5c1,1.4,0.8,1.1,1,1.3l3.7,4.9c3,3.9,3,3.9,3,4l3.6,4.7l4,5.2l3.8,4.9l2.9,3.8
			c0.5,0.6,6.1,7.9,6.2,8.1c0.4,0.5,1.1,1.5,2.9,3.7c1.7,2.2,1.5,2,1.7,2.2l4.2,5.5l2.4,3.2c0.7,0.9-0.1-0.1,1.6,2
			c0.4,0.5,1.1,1.4,2.4,3.2c2,2.6,1.9,2.5,1.9,2.5c0.8,1.1,0.7,1,0.8,1.1c-0.2,0.3-0.7,0.7-3.7,2.8c-0.2,0.1-2.3,1.7-2.4,1.7
			c-0.7,0.5,0.2-0.1-2.6,1.9c0,0-2.5,1.8-2.7,2l-3.7,2.8c-0.2,0.2-1.8,1.3-1.8,1.3c0,0-2,1.5-2.5,1.8c-2.2,1.7-1.9,1.4-2.2,1.7
			c1.1,1.8,2.3,2.8,2.2,3.2c0,0.2-0.2,0.2-1.6,1.3c-0.2,0.2-3.2,2.3-3.3,2.4c-0.6,0.4-0.7,0.5-0.8,0.5c-0.2,0-0.3-0.2-1.8-2.2
			l-2.6-3.4c-0.3-0.5-2.5-3.3-4.5-6.1l-3.2-4.3c-1-1.3-0.9-1.2-0.9-1.2c0.7-0.7,4.1-3,4.6-3.6c-0.6-0.9-0.3,0.2-1.6-2.1
			c-1-1.8-0.3-1.1-0.5-2.2c-0.1,0-0.6,0.4-0.7,0.4c0,0-0.5,0.9-0.9,1.3c-0.7,0.8-1.6,1-1.7,1.1c-0.1,0-1.7,0.8-3.6-0.4
			c-1.9-1.2-2.2-3.5-1.9-4.6c0.5-1.8,2-3.1,3.6-3.2c-0.1-0.3-0.1-0.3-2.8-3.8c-1.7-2.2-1.6-1.3-2.1-2.4c-1.2-2.2-0.9-1.6-0.9-2.8
			c-0.1,0.1-0.1,0-0.5,0.3l-2.9,2.2c-1.8,1.3-1.7,1.4-1.9,1.3c-0.3-0.1-0.5-0.6-1.5-1.9l-2.6-3.4c-0.1-0.2-0.2-0.3-0.2-0.4
			c0-0.3,2.4-1.8,4.6-3.7c-0.4-0.6-2.4-3.3-2.8-3.7c-5,3.7-4.2,3.5-4.8,3.4c-2-2.8-4.8-6.2-5.5-8.2c-0.2-0.6-1-2.6,0-4.9
			c0.9-2,2.5-3,2.9-3.4c-1.5-0.2-0.4,0.3-2.8-0.9c-1.4-0.7,0.1,0.1-1.5-1.3c0,0-0.6-0.4-1-1.1c-1.5-2.5-1-1.9-1.3-3.3
			C268.1,922.5,268.5,921.8,268.5,921.7L268.5,921.7z"/>
	</g>
	<g>
		<path class="st1" d="M810.4,133.2h-73.7c-4.7,0-8.5-3.8-8.5-8.5v0c0-4.7,3.8-8.5,8.5-8.5h82.2v17"/>
		<path class="st1" d="M818.9,133.2"/>
		<polyline class="st1" points="818.9,133.2 818.9,137.7 810.4,137.7 810.4,133.2 		"/>
		<path class="st1" d="M818.9,133.2"/>
		<path class="st1" d="M810.4,133.2"/>
	</g>
</g>
</svg>
