<?xml version="1.0" encoding="utf-8"?>
<!-- Generator: Adobe Illustrator 26.0.2, SVG Export Plug-In . SVG Version: 6.00 Build 0)  -->
<svg version="1.1" id="Layer_1" xmlns="http://www.w3.org/2000/svg" xmlns:xlink="http://www.w3.org/1999/xlink" x="0px" y="0px"
	 viewBox="0 0 4280.3 1133.9" style="enable-background:new 0 0 4280.3 1133.9;" xml:space="preserve">
<style type="text/css">
	.st0{fill:none;stroke:#000000;stroke-miterlimit:10;}
	.st1{fill:none;stroke:#010101;stroke-linecap:round;stroke-linejoin:round;stroke-miterlimit:11.3386;}
</style>
<g>
	<path class="st0" d="M195.5,927V39.7c0-6.3,5.1-11.3,11.3-11.3h583.9c6.3,0,11.3,5.1,11.3,11.3V927c0,6.3-5.1,11.3-11.3,11.3H206.9
		C200.6,938.3,195.5,933.2,195.5,927z"/>
	<g id="layer1">
		<path id="path1024" class="st1" d="M253.8,815c-0.2-0.4-1-0.1-1.2-0.1c-0.9,0-1.5-0.4-1.6-0.4c-0.5-0.3-0.5,0-1.7-1.2
			c-1.3-1.3-1-1.7-1.2-1.8c-0.1,0-0.5,0.3-0.9,0.6c-0.1,0.1-2.2,1.8-2.4,1.9c-2,1.5-1.6,1.3-2,1.3l-3.6-4.8c-1-1.4-1.1-1.4-1-1.5
			c0-0.2,0.4-0.4,3.6-3c0,0,3.1-2.5,4.5-3.5c0.1-0.1,2-1.6,2.8-2.3c0.6-0.5,0.9-0.7,3-2.4c1.2-0.9,1.5-1.2,1.5-1.2
			c0.1-0.1,0.7-0.6,4.1-3.2l0.5-0.4l4.6-3.6c0.6-0.5,1.2-1,1.9-1.5c2.3-1.8,2.6-2.1,2.8-2.2c0.5-0.4,0.4-0.3,0.7-0.3
			c7.8,10.1,5.3,6.9,11,14.3c1.2,1.6,0.9,1.2,1.1,1.5l4.3,5.6c3.5,4.5,3.4,4.5,3.5,4.5l4.2,5.4l4.6,6l4.3,5.6l3.3,4.3
			c0.5,0.7,7,9.1,7.2,9.3c0.4,0.6,1.3,1.7,3.3,4.3c2,2.6,1.7,2.3,2,2.6l4.9,6.3l2.8,3.6c0.8,1.1-0.1-0.2,1.8,2.3
			c0.4,0.5,1.3,1.6,2.8,3.6c2.3,3,2.2,2.9,2.2,2.9c1,1.3,0.8,1.1,0.9,1.3c-0.3,0.4-0.8,0.7-4.2,3.2c-0.2,0.2-2.7,1.9-2.7,2
			c-0.8,0.6,0.2-0.1-3,2.2c0,0-2.8,2.1-3.1,2.3l-4.3,3.2c-0.3,0.2-2,1.5-2.1,1.5c0,0-2.3,1.7-2.8,2.1c-2.6,1.9-2.2,1.6-2.5,2
			c1.3,2.1,2.6,3.2,2.5,3.7c0,0.3-0.2,0.3-1.8,1.5c-0.3,0.2-3.6,2.7-3.8,2.8c-0.6,0.5-0.8,0.6-0.9,0.6c-0.2,0-0.4-0.2-2-2.5
			l-2.9-3.9c-0.4-0.5-2.9-3.8-5.2-6.9l-3.7-4.9c-1.1-1.5-1-1.4-1-1.4c0.8-0.8,4.7-3.4,5.3-4.1c-0.7-1-0.4,0.2-1.8-2.4
			c-1.1-2.1-0.3-1.2-0.6-2.6c-0.1,0-0.7,0.5-0.8,0.5c0,0-0.6,1-1,1.5c-0.9,0.9-1.8,1.2-1.9,1.2c-0.1,0-2,0.9-4.2-0.5
			c-2.2-1.4-2.5-4.1-2.2-5.2c0.6-2.1,2.3-3.6,4.2-3.7c-0.2-0.3-0.1-0.3-3.2-4.3c-2-2.6-1.8-1.5-2.4-2.7c-1.3-2.5-1-1.8-1-3.3
			c-0.1,0.1-0.1,0-0.5,0.4l-3.4,2.5c-2,1.5-1.9,1.6-2.2,1.5c-0.3-0.1-0.6-0.7-1.7-2.1l-3-3.9c-0.2-0.2-0.3-0.4-0.2-0.4
			c0-0.3,2.8-2.1,5.2-4.2c-0.4-0.7-2.8-3.7-3.2-4.2c-5.7,4.2-4.8,4-5.6,3.9c-2.3-3.2-5.5-7.1-6.4-9.4c-0.2-0.7-1.2-3,0-5.7
			c1-2.2,2.8-3.4,3.4-3.9c-1.7-0.2-0.5,0.3-3.2-1c-1.6-0.8,0.1,0.1-1.7-1.5c0,0-0.6-0.4-1.2-1.3c-1.7-2.8-1.1-2.2-1.5-3.8
			C253.3,816,253.8,815.1,253.8,815L253.8,815z"/>
	</g>
	<g>
		<path class="st1" d="M759.6,61h-73.7c-5.5,0-9.9-4.4-9.9-9.9v0c0-4.7,3.8-8.5,8.5-8.5h83.6V61"/>
		<polyline class="st1" points="768.1,61 768.1,69.5 759.6,69.5 759.6,61 		"/>
		<path class="st1" d="M768.1,61"/>
		<path class="st1" d="M759.6,61"/>
	</g>
</g>
</svg>
