<?xml version="1.0" encoding="utf-8"?>
<!-- Generator: Adobe Illustrator 25.2.0, SVG Export Plug-In . SVG Version: 6.00 Build 0)  -->
<svg version="1.1" id="Layer_1" xmlns="http://www.w3.org/2000/svg" xmlns:xlink="http://www.w3.org/1999/xlink" x="0px" y="0px"
	 viewBox="0 0 4280.31 1133.86" style="enable-background:new 0 0 4280.31 1133.86;" xml:space="preserve">
<style type="text/css">
	.st0{fill:#FFFFFF;stroke:#000000;stroke-miterlimit:10;}
	.st1{fill:none;stroke:#010101;stroke-linecap:round;stroke-linejoin:round;stroke-miterlimit:11.3386;}
</style>
<g>
	<path class="st0" d="M84.16,1021.76V112.1c0-4.77,3.81-8.63,8.5-8.63h612.28c4.7,0,8.5,3.87,8.5,8.63v909.67
		c0,4.77-3.81,8.63-8.5,8.63H92.67C87.97,1030.4,84.16,1026.54,84.16,1021.76z"/>
	<g id="layer1">
		<path id="path1024" class="st1" d="M194.9,960.72c0.15,0.31,0.85,0.06,1.01,0.06c0.78-0.01,1.27,0.34,1.37,0.39
			c0.47,0.22,0.46,0,1.49,1.04c1.1,1.1,0.89,1.48,1.09,1.55c0.12,0.04,0.46-0.25,0.82-0.53c0.09-0.07,1.94-1.53,2.1-1.65
			c1.73-1.35,1.4-1.11,1.72-1.12l3.18,4.22c0.89,1.18,0.92,1.21,0.91,1.31c-0.01,0.14-0.39,0.39-3.15,2.6
			c-0.03,0.03-2.75,2.18-3.89,3.09c-0.09,0.07-1.78,1.43-2.46,1.98c-0.56,0.45-0.81,0.64-2.62,2.1c-1.01,0.81-1.32,1.06-1.34,1.08
			c-0.06,0.05-0.64,0.51-3.53,2.81l-0.43,0.34l-3.98,3.18c-0.53,0.42-1.08,0.86-1.64,1.31c-1.97,1.57-2.3,1.84-2.41,1.92
			c-0.47,0.36-0.38,0.25-0.62,0.27c-6.76-8.81-4.63-6.04-9.56-12.47c-1.04-1.35-0.8-1.05-0.99-1.29l-3.74-4.87
			c-3.01-3.91-3.01-3.92-3.03-3.95l-3.64-4.73l-4-5.19l-3.77-4.93l-2.9-3.77c-0.47-0.61-6.08-7.91-6.25-8.13
			c-0.37-0.48-1.13-1.46-2.88-3.74c-1.72-2.23-1.52-1.99-1.72-2.23l-4.23-5.5l-2.42-3.16c-0.7-0.92,0.1,0.14-1.57-2.04
			c-0.36-0.48-1.1-1.43-2.41-3.15c-2.02-2.64-1.92-2.52-1.94-2.54c-0.85-1.13-0.69-0.97-0.75-1.09c0.24-0.33,0.73-0.65,3.69-2.83
			c0.18-0.13,2.31-1.69,2.38-1.74c0.71-0.53-0.18,0.12,2.58-1.91c0.02-0.02,2.48-1.84,2.68-1.99l3.75-2.77
			c0.22-0.16,1.77-1.3,1.82-1.34c0.02-0.02,1.98-1.47,2.48-1.83c2.25-1.67,1.94-1.4,2.21-1.71c-1.1-1.82-2.28-2.81-2.21-3.24
			c0.03-0.22,0.17-0.24,1.58-1.28c0.25-0.18,3.15-2.33,3.3-2.44c0.56-0.41,0.69-0.51,0.81-0.5c0.2,0.01,0.31,0.21,1.77,2.16
			l2.55,3.41c0.34,0.46,2.49,3.31,4.54,6.06l3.2,4.27c0.97,1.3,0.86,1.23,0.87,1.25c-0.66,0.69-4.08,2.99-4.59,3.58
			c0.57,0.89,0.34-0.22,1.58,2.09c0.97,1.8,0.28,1.08,0.53,2.22c0.07-0.04,0.65-0.41,0.65-0.42c0.02-0.02,0.5-0.89,0.87-1.29
			c0.75-0.79,1.59-1.04,1.68-1.07c0.06-0.02,1.7-0.78,3.65,0.42s2.2,3.54,1.92,4.56c-0.51,1.83-1.97,3.11-3.62,3.22
			c0.14,0.26,0.11,0.3,2.77,3.78c1.7,2.23,1.57,1.35,2.13,2.39c1.17,2.16,0.91,1.57,0.91,2.85c0.12-0.08,0.06-0.02,0.47-0.33
			l2.92-2.21c1.77-1.34,1.66-1.37,1.94-1.31c0.27,0.06,0.53,0.59,1.49,1.86l2.59,3.44c0.14,0.19,0.23,0.31,0.22,0.39
			c-0.04,0.26-2.42,1.81-4.57,3.65c0.39,0.58,2.4,3.27,2.78,3.7c5-3.7,4.19-3.45,4.85-3.42c2.03,2.83,4.77,6.16,5.55,8.22
			c0.22,0.58,1.05,2.64-0.01,4.93c-0.9,1.96-2.48,2.98-2.92,3.41c1.5,0.19,0.42-0.28,2.75,0.88c1.39,0.69-0.07-0.11,1.46,1.28
			c0.01,0.01,0.55,0.37,1.01,1.14c1.48,2.48,0.98,1.93,1.3,3.29C195.27,959.88,194.85,960.62,194.9,960.72L194.9,960.72z"/>
	</g>
	<g id="layer1_1_">
		<g id="layer1-03" transform="translate(6.8035713,-28.726187)">
			<path id="path8-5-9" class="st1" d="M146.85,183.64c-0.3-0.17-1-0.6-2.06-1.06c0,0-2.48-0.99-3.32-1.3c0,0-5.19-1.85-10.48-3.34
				c-0.41-0.12-5.82-1.65-8.39-1.99c-0.46-0.06-0.78-0.12-1.56-0.05l-0.13,0.09c-0.16,1.4-0.16,1.4-0.21,2.81
				c-0.04,1.17-0.09,2.72-0.13,3.89c0,0-0.16,6.58-0.25,13.16c-0.23,17.73-0.49,88.63-0.61,118.18c1.62,2.62,2.45,4.16,3.88,5.64
				c1.11,1.15,2.1,1.74,2.51,1.98c1.26,0.74,3.02,1.4,5.65,1.56c0.21,0.01,2.36,0.16,4.24-0.18c0.09-0.02,0.95-0.15,1.75-0.63
				c0.82-0.49,1.37-1.14,1.98-1.88c0,0,2.04-2.59,2.14-2.72c0.71-59.39,0.73-59.39,1.15-118.78c0.38,0.14,2.29,0.85,2.55,0.9
				c0.13,0.03,0.8,0.13,1.35-0.13c0.75-0.36,1.38-1.4,1.7-2.87c0.18-0.8,0.45-2.73,0.39-5.46c-0.01-0.24-0.1-3.36-0.35-4.77
				c0,0-0.21-1.08-0.48-1.6C147.81,184.39,147.61,184.27,146.85,183.64"/>
		</g>
	</g>
	<path class="st0" d="M675.19,249.12v-45.35c0-1.57,1.27-2.83,2.83-2.83h5.67c1.57,0,2.83,1.27,2.83,2.83v45.35
		c0,1.57-1.27,2.83-2.83,2.83h-5.67C676.46,251.95,675.19,250.68,675.19,249.12z"/>
</g>
</svg>
