<?xml version="1.0" encoding="UTF-8" standalone="no"?>
<!-- Created with Inkscape (http://www.inkscape.org/) -->

<svg
   xmlns:dc="http://purl.org/dc/elements/1.1/"
   xmlns:cc="http://creativecommons.org/ns#"
   xmlns:rdf="http://www.w3.org/1999/02/22-rdf-syntax-ns#"
   xmlns:svg="http://www.w3.org/2000/svg"
   xmlns="http://www.w3.org/2000/svg"
   xmlns:sodipodi="http://sodipodi.sourceforge.net/DTD/sodipodi-0.dtd"
   xmlns:inkscape="http://www.inkscape.org/namespaces/inkscape"
   width="210mm"
   height="297mm"
   viewBox="0 0 210 297"
   version="1.1"
   id="svg8"
   inkscape:version="0.92.3 (2405546, 2018-03-11)"
   sodipodi:docname="optiplex_380_side_DT.svg">
  <defs
     id="defs2" />
  <sodipodi:namedview
     id="base"
     pagecolor="#ffffff"
     bordercolor="#666666"
     borderopacity="1.0"
     inkscape:pageopacity="0.0"
     inkscape:pageshadow="2"
     inkscape:zoom="0.35"
     inkscape:cx="-838.21822"
     inkscape:cy="452.23982"
     inkscape:document-units="mm"
     inkscape:current-layer="layer1"
     showgrid="false"
     inkscape:window-width="1280"
     inkscape:window-height="877"
     inkscape:window-x="0"
     inkscape:window-y="28"
     inkscape:window-maximized="1" />
  <metadata
     id="metadata5">
    <rdf:RDF>
      <cc:Work
         rdf:about="">
        <dc:format>image/svg+xml</dc:format>
        <dc:type
           rdf:resource="http://purl.org/dc/dcmitype/StillImage" />
        <dc:title />
      </cc:Work>
    </rdf:RDF>
  </metadata>
  <g
     inkscape:label="Layer 1"
     inkscape:groupmode="layer"
     id="layer1">
    <g
       id="g19">
      <g
         id="g4599">
        <path
           style="fill:none;fill-opacity:1;stroke:#000000;stroke-width:0.35277778;stroke-miterlimit:4;stroke-dasharray:none;stroke-opacity:1"
           d="m -357.22023,-2.113102 h 296.999996 c 11.08,0 20,8.92 20,20 V 357.8869 c 0,11.08 -8.92,20 -20,20 H -357.22023 c -11.08,0 -20,-8.92 -20,-20 V 17.886898 c 0,-11.08 8.92,-20 20,-20 z"
           id="rect3713"
           inkscape:connector-curvature="0" />
        <path
           id="rect4527"
           d="m -355.86153,18.842625 h 11.38366 c 2.0053,0 3.61967,1.297839 3.61967,2.909953 v 18.803095 c 0,1.612114 -1.61437,2.909953 -3.61967,2.909953 h -11.38366 c -2.0053,0 -3.61967,-1.297839 -3.61967,-2.909953 V 21.752578 c 0,-1.612114 1.61437,-2.909953 3.61967,-2.909953 z"
           style="fill:none;fill-opacity:1;stroke:#000000;stroke-width:0.37699908;stroke-miterlimit:4;stroke-dasharray:none;stroke-opacity:1" />
        <path
           id="rect4527-9"
           d="m 61.454162,18.952221 h 11.383653 c 2.005299,0 3.619674,1.297839 3.619674,2.909953 v 18.803095 c 0,1.612114 -1.614375,2.909953 -3.619674,2.909953 H 61.454162 c -2.005299,0 -3.619674,-1.297839 -3.619674,-2.909953 V 21.862174 c 0,-1.612114 1.614375,-2.909953 3.619674,-2.909953 z"
           style="fill:none;fill-opacity:1;stroke:#000000;stroke-width:0.37699908;stroke-miterlimit:4;stroke-dasharray:none;stroke-opacity:1"
           transform="scale(-1,1)" />
        <path
           id="rect4527-1"
           d="m 61.450214,-356.992 h 11.383653 c 2.005299,0 3.619674,1.29783 3.619674,2.90995 v 18.80309 c 0,1.61212 -1.614375,2.90996 -3.619674,2.90996 H 61.450214 c -2.0053,0 -3.619674,-1.29784 -3.619674,-2.90996 v -18.80309 c 0,-1.61212 1.614374,-2.90995 3.619674,-2.90995 z"
           style="fill:none;fill-opacity:1;stroke:#000000;stroke-width:0.37699908;stroke-miterlimit:4;stroke-dasharray:none;stroke-opacity:1"
           transform="scale(-1)" />
        <path
           id="rect4527-2"
           d="m -355.91338,-356.96121 h 11.38366 c 2.0053,0 3.61967,1.29784 3.61967,2.90995 v 18.8031 c 0,1.61211 -1.61437,2.90995 -3.61967,2.90995 h -11.38366 c -2.0053,0 -3.61967,-1.29784 -3.61967,-2.90995 v -18.8031 c 0,-1.61211 1.61437,-2.90995 3.61967,-2.90995 z"
           style="fill:none;fill-opacity:1;stroke:#000000;stroke-width:0.37699908;stroke-miterlimit:4;stroke-dasharray:none;stroke-opacity:1"
           transform="scale(1,-1)" />
      </g>
    </g>
  </g>
</svg>
