<?xml version="1.0" encoding="utf-8"?>
<!DOCTYPE svg PUBLIC "-//W3C//DTD SVG 1.1//EN" "http://www.w3.org/Graphics/SVG/1.1/DTD/svg11.dtd">
<!-- exported from Silhouette Studio Business Edition V4.1.454ssbe -->
<svg version="1.1" xmlns="http://www.w3.org/2000/svg" xmlns:xlink="http://www.w3.org/1999/xlink" width="304.8mm" height="451mm" viewBox="0 0 304.8 451">
<defs/>
<g>
<path d="M 103.2785 58.95523 L 101.5494 58.95161" fill="none" fill-opacity="1" stroke="#000000" stroke-opacity="1" stroke-width="0.3527778" stroke-linecap="round" stroke-linejoin="round"/>
<path d="M 101.6065 312.8406 L 101.6065 58.81627" fill="none" fill-opacity="1" stroke="#000000" stroke-opacity="1" stroke-width="0.3527778" stroke-linecap="round" stroke-linejoin="round"/>
</g>
<path d="M 113.5247 313.4141 L 113.5321 127.6231" fill="none" fill-opacity="1" stroke="#000000" stroke-opacity="1" stroke-width="0.3527778" stroke-linecap="round" stroke-linejoin="round"/>
<g>
<path d="M 113.4839 89.42625 L 113.4839 89.40575 L 105.8131 89.40575 L 105.8131 127.7789 L 113.4839 127.7789 L 113.4839 127.6089" fill="none" fill-opacity="1" stroke="#000000" stroke-opacity="1" stroke-width="0.3527778" stroke-linecap="round" stroke-linejoin="round"/>
<path d="M 103.3255 58.95189 L 103.3358 59.02943 L 103.3553 59.0425 C 103.4602 59.07568 103.9063 59.18346 104.3569 59.47801 C 104.3825 59.49472 104.7 59.73037 104.8382 59.84766 C 105.0515 60.02887 105.5363 60.47603 106.0828 61.20798 C 107.6637 63.32515 108.948 66.45524 109.4702 67.838 C 110.0298 69.31963 111.2824 72.82014 112.3046 77.95824 C 113.0997 81.95542 113.3669 84.29453 113.4578 89.51635" fill="none" fill-opacity="1" stroke="#000000" stroke-opacity="1" stroke-width="0.3527778" stroke-linecap="round" stroke-linejoin="round"/>
</g>
<path d="M 113.5319 314.7653 L 113.532 317.8539" fill="none" fill-opacity="1" stroke="#000000" stroke-opacity="1" stroke-width="0.3527778" stroke-linecap="round" stroke-linejoin="round"/>
<path d="M 101.6066 312.2423 L 101.6066 315.0193" fill="none" fill-opacity="1" stroke="#000000" stroke-opacity="1" stroke-width="0.3527778" stroke-linecap="round" stroke-linejoin="round"/>
<g>
<path d="M 103.261 386.6781 L 101.5319 386.6817" fill="none" fill-opacity="1" stroke="#000000" stroke-opacity="1" stroke-width="0.3527778" stroke-linecap="round" stroke-linejoin="round"/>
<path d="M 101.589 314.3904 L 101.589 386.8169" fill="none" fill-opacity="1" stroke="#000000" stroke-opacity="1" stroke-width="0.3527778" stroke-linecap="round" stroke-linejoin="round"/>
</g>
<path d="M 113.5146 317.7224 L 113.5146 318.0102" fill="none" fill-opacity="1" stroke="#000000" stroke-opacity="1" stroke-width="0.3527778" stroke-linecap="round" stroke-linejoin="round"/>
<g>
<path d="M 113.4665 356.2071 L 113.4665 356.2276 L 105.7957 356.2276 L 105.7957 317.8545 L 113.4665 317.8545 L 113.4665 318.0245" fill="none" fill-opacity="1" stroke="#000000" stroke-opacity="1" stroke-width="0.3527778" stroke-linecap="round" stroke-linejoin="round"/>
<path d="M 103.3081 386.6816 L 103.3184 386.604 L 103.3379 386.5909 C 103.3379 386.5909 103.7269 386.4849 104.015 386.3408 C 104.2364 386.23 104.4477 386.0958 104.8207 385.7858 C 105.0362 385.6067 105.521 385.1588 106.0654 384.4255 C 108.0898 381.6984 109.4528 377.7955 109.4528 377.7955 C 109.8755 376.6701 111.4939 372.1107 112.5612 366.2451 C 113.2908 362.2357 113.3449 360.1799 113.4403 356.1171" fill="none" fill-opacity="1" stroke="#000000" stroke-opacity="1" stroke-width="0.3527778" stroke-linecap="round" stroke-linejoin="round"/>
</g>
<path d="M 113.5121 312.7507 L 113.5121 315.5402" fill="none" fill-opacity="1" stroke="#000000" stroke-opacity="1" stroke-width="0.3527778" stroke-linecap="round" stroke-linejoin="round"/>
<path d="M 107.8282 147.0836 C 108.38 147.0836 108.8282 146.2513 108.8282 145.2267 L 108.8282 133.9404 C 108.8282 132.9158 108.38 132.0836 107.8282 132.0836 L 105.8282 132.0836 C 105.2764 132.0836 104.8282 132.9158 104.8282 133.9404 L 104.8282 145.2267 C 104.8282 146.2513 105.2764 147.0836 105.8282 147.0836 L 107.8282 147.0836 Z" fill="none" fill-opacity="1" stroke="#000000" stroke-opacity="1" stroke-width="0.3527777" stroke-linecap="round" stroke-linejoin="round"/>
</svg>