<?xml version="1.0" encoding="UTF-8" standalone="no"?>
<!-- exported from Silhouette Studio Business Edition V4.1.468ssbe -->

<svg
   xmlns:dc="http://purl.org/dc/elements/1.1/"
   xmlns:cc="http://creativecommons.org/ns#"
   xmlns:rdf="http://www.w3.org/1999/02/22-rdf-syntax-ns#"
   xmlns:svg="http://www.w3.org/2000/svg"
   xmlns="http://www.w3.org/2000/svg"
   xmlns:sodipodi="http://sodipodi.sourceforge.net/DTD/sodipodi-0.dtd"
   xmlns:inkscape="http://www.inkscape.org/namespaces/inkscape"
   version="1.1"
   width="1200mm"
   height="1200mm"
   viewBox="0 0 1200 1200"
   id="svg28"
   sodipodi:docname="e5540palmrest.svg"
   inkscape:version="0.92.3 (2405546, 2018-03-11)">
  <metadata
     id="metadata32">
    <rdf:RDF>
      <cc:Work
         rdf:about="">
        <dc:format>image/svg+xml</dc:format>
        <dc:type
           rdf:resource="http://purl.org/dc/dcmitype/StillImage" />
      </cc:Work>
    </rdf:RDF>
  </metadata>
  <sodipodi:namedview
     pagecolor="#ffffff"
     bordercolor="#666666"
     borderopacity="1"
     objecttolerance="10"
     gridtolerance="10"
     guidetolerance="10"
     inkscape:pageopacity="0"
     inkscape:pageshadow="2"
     inkscape:window-width="1664"
     inkscape:window-height="887"
     id="namedview30"
     showgrid="false"
     inkscape:zoom="0.58870568"
     inkscape:cx="550.24125"
     inkscape:cy="4340.222"
     inkscape:window-x="0"
     inkscape:window-y="28"
     inkscape:window-maximized="1"
     inkscape:current-layer="svg28" />
  <defs
     id="defs2" />
  <g
     id="g869">
    <path
       style="fill:none;fill-opacity:1;stroke:#3f3f3f;stroke-width:0.26458332;stroke-linecap:round;stroke-linejoin:round;stroke-miterlimit:4;stroke-dasharray:none;stroke-opacity:1"
       id="path4"
       d="m 10.26887,83.56493 v 31.9492 c 0,2.6933 0.6875,6.9093 4.0339,10.472 1.7054,1.8157 4.63,3.8019 8.5326,3.8019 h 347.8675 c 4.7811,0 7.8041,-3.019 8.5451,-3.806 4.0998,-4.3544 4.0219,-9.7203 4.0219,-10.4679 v -30.7083"
       inkscape:connector-curvature="0" />
    <path
       style="fill:none;fill-opacity:1;stroke:#3f3f3f;stroke-width:0.26458332;stroke-linecap:round;stroke-linejoin:round;stroke-miterlimit:4;stroke-dasharray:none;stroke-opacity:1"
       id="path6"
       d="m 383.27846,85.30834 v -39.8355 h -79.4813"
       inkscape:connector-curvature="0" />
    <path
       style="fill:none;fill-opacity:1;stroke:#3f3f3f;stroke-width:0.26458332;stroke-linecap:round;stroke-linejoin:round;stroke-miterlimit:4;stroke-dasharray:none;stroke-opacity:1"
       id="path8"
       d="M 233.90006,45.47204 H 10.27896 v 38.7252"
       inkscape:connector-curvature="0" />
    <path
       style="fill:none;fill-opacity:1;stroke:#3f3f3f;stroke-width:0.26458332;stroke-linecap:round;stroke-linejoin:round;stroke-miterlimit:4;stroke-dasharray:none;stroke-opacity:1"
       id="path10"
       d="m 233.82666,47.86114 c -0.0735,0.9273 0.0458,2.1104 0.0261,3.1071 -0.047,2.381 0.4926,4.4911 3.1981,4.4911 h 63.5427 c 1.541,0 2.2513,-0.5842 2.6874,-1.4239 0.0989,-0.1903 0.399,-0.7799 0.5304,-2.1289 0.1727,-1.773 0.0418,-3.7363 -0.0475,-3.6768"
       inkscape:connector-curvature="0" />
    <path
       style="fill:none;fill-opacity:1;stroke:#3f3f3f;stroke-width:0.26458332;stroke-linecap:round;stroke-linejoin:round;stroke-miterlimit:4;stroke-dasharray:none;stroke-opacity:1"
       id="path12"
       d="m 233.81636,48.68084 v -3.279"
       inkscape:connector-curvature="0" />
    <path
       style="fill:none;fill-opacity:1;stroke:#3f3f3f;stroke-width:0.26458332;stroke-linecap:round;stroke-linejoin:round;stroke-miterlimit:4;stroke-dasharray:none;stroke-opacity:1"
       id="path14"
       d="m 303.82606,48.83134 v -3.4628"
       inkscape:connector-curvature="0" />
    <path
       style="fill:none;fill-opacity:1;stroke:#3f3f3f;stroke-width:0.26458332;stroke-linecap:round;stroke-linejoin:round;stroke-miterlimit:4;stroke-dasharray:none;stroke-opacity:1"
       id="path16"
       d="m 185.83376,124.40184 c 0.7631,0 1.3831,-0.8915 1.3831,-1.989 v -69.022 c 0,-1.0975 -0.62,-1.989 -1.3831,-1.989 h -85.2338 c -0.7631,0 -1.3831,0.8915 -1.3831,1.989 v 69.022 c 0,1.0975 0.62,1.989 1.3831,1.989 z"
       inkscape:connector-curvature="0" />
  </g>
  <g
     id="g844"
     transform="translate(8.898305,-47.033898)">
    <g
       style="stroke-width:0.26458332;stroke-miterlimit:4;stroke-dasharray:none"
       id="g22">
      <path
         style="fill:none;fill-opacity:1;stroke:#3f3f3f;stroke-width:0.26458332;stroke-linecap:round;stroke-linejoin:round;stroke-miterlimit:4;stroke-dasharray:none;stroke-opacity:1"
         id="path18"
         d="M 374.9079,76.06019 V 67.8371 c 0,-0.798 0.0975,-6.07304 -4.0342,-10.47196 -1.5349,-1.63418 -4.4638,-3.80265 -8.5326,-3.80265 H 14.47373 C 6.307259,53.56246 1.89595,61.56005 1.906174,67.47654 l 2.44e-4,10.5722"
         inkscape:connector-curvature="0" />
      <path
         style="fill:none;fill-opacity:1;stroke:#3f3f3f;stroke-width:0.26458332;stroke-linecap:round;stroke-linejoin:round;stroke-miterlimit:4;stroke-dasharray:none;stroke-opacity:1"
         id="path20"
         d="m 1.892761,66.36384 -1.5e-5,22.88125 H 374.8911 V 65.57073"
         inkscape:connector-curvature="0" />
    </g>
    <path
       style="fill:none;fill-opacity:1;stroke:#3f3f3f;stroke-width:0.26458332;stroke-linecap:round;stroke-linejoin:round;stroke-miterlimit:4;stroke-dasharray:none;stroke-opacity:1"
       id="path24"
       d="m 65.668,75.03835 c 1.74683,0 3.16579,-1.46401 3.16579,-3.2663 v -2.46739 c 0,-1.80229 -1.41896,-3.2663 -3.16579,-3.2663 H 35.99959 c -1.74684,0 -3.16579,1.46401 -3.16579,3.2663 v 2.46739 c 0,1.80229 1.41895,3.2663 3.16578,3.2663 z"
       inkscape:connector-curvature="0" />
    <path
       style="fill:none;fill-opacity:1;stroke:#3f3f3f;stroke-width:0.26458332;stroke-linecap:round;stroke-linejoin:round;stroke-miterlimit:4;stroke-dasharray:none;stroke-opacity:1"
       id="path26"
       d="m 341.5276,75.54648 c 1.2916,0 2.3407,-1.0085 2.3407,-2.25 v -4.5 c 0,-1.24152 -1.0491,-2.25 -2.3407,-2.25 H 326.209 c -1.2916,0 -2.3407,1.00848 -2.3407,2.25 v 4.5 c 0,1.2415 1.0491,2.25 2.3407,2.25 z"
       inkscape:connector-curvature="0" />
  </g>
</svg>
