<?xml version="1.0" encoding="UTF-8" standalone="no"?>
<!-- Created with Inkscape (http://www.inkscape.org/) -->

<svg
   xmlns:dc="http://purl.org/dc/elements/1.1/"
   xmlns:cc="http://creativecommons.org/ns#"
   xmlns:rdf="http://www.w3.org/1999/02/22-rdf-syntax-ns#"
   xmlns:svg="http://www.w3.org/2000/svg"
   xmlns="http://www.w3.org/2000/svg"
   xmlns:sodipodi="http://sodipodi.sourceforge.net/DTD/sodipodi-0.dtd"
   xmlns:inkscape="http://www.inkscape.org/namespaces/inkscape"
   width="594mm"
   height="841mm"
   viewBox="0 0 594 841"
   version="1.1"
   id="svg8"
   inkscape:version="0.92.3 (2405546, 2018-03-11)"
   sodipodi:docname="E5570_HALF PR_NO_FP.svg">
  <defs
     id="defs2" />
  <sodipodi:namedview
     id="base"
     pagecolor="#ffffff"
     bordercolor="#666666"
     borderopacity="1.0"
     inkscape:pageopacity="0.0"
     inkscape:pageshadow="2"
     inkscape:zoom="0.24748738"
     inkscape:cx="1674.5968"
     inkscape:cy="2323.3374"
     inkscape:document-units="mm"
     inkscape:current-layer="g863"
     showgrid="false"
     showguides="true"
     inkscape:guide-bbox="true"
     inkscape:window-width="1920"
     inkscape:window-height="1017"
     inkscape:window-x="-8"
     inkscape:window-y="-8"
     inkscape:window-maximized="1" />
  <metadata
     id="metadata5">
    <rdf:RDF>
      <cc:Work
         rdf:about="">
        <dc:format>image/svg+xml</dc:format>
        <dc:type
           rdf:resource="http://purl.org/dc/dcmitype/StillImage" />
        <dc:title></dc:title>
      </cc:Work>
    </rdf:RDF>
  </metadata>
  <g
     inkscape:label="Layer 1"
     inkscape:groupmode="layer"
     id="layer1"
     transform="translate(0,544)">
    <g
       id="g863">
      <g
         id="g828">
        <path
           style="opacity:1;fill:none;fill-opacity:0.25116284;stroke:#000000;stroke-width:0.35277778;stroke-miterlimit:4;stroke-dasharray:none;stroke-opacity:1"
           d="m 456.71329,-293.4368 0.0887,81.77608 c 0.007,6.648 -5.352,12 -12,12 H 95.15477 c -6.648,0 -12,-5.352 -12,-12 l 0.01071,-81.77608"
           id="rect815"
           inkscape:connector-curvature="0"
           sodipodi:nodetypes="cssssc" />
        <path
           style="opacity:1;fill:none;fill-opacity:0.25116284;stroke:#000000;stroke-width:0.35277778;stroke-miterlimit:4;stroke-dasharray:none;stroke-opacity:1"
           d="m 170.802,-293.56961 -87.63652,0.13281 m 373.54782,0 -185.26408,8.3e-4"
           id="rect817"
           inkscape:connector-curvature="0"
           sodipodi:nodetypes="cccc" />
        <path
           style="opacity:1;fill:none;fill-opacity:0.25116284;stroke:#000000;stroke-width:0.35277778;stroke-miterlimit:4;stroke-dasharray:none;stroke-opacity:1"
           d="m 271.44922,-293.43597 v 7.12801 c 0,0.554 -0.446,1 -1,1 H 171.802 c -0.554,0 -1,-0.446 -1,-1 v -7.26165"
           id="rect823"
           inkscape:connector-curvature="0"
           sodipodi:nodetypes="cssssc" />
        <path
           id="rect832"
           d="m 171.97887,-279.07516 h 98.64721 c 0.554,0 1,0.446 1,1 v 69.64721 c 0,0.554 -0.446,1 -1,1 h -98.64721 c -0.554,0 -1,-0.446 -1,-1 v -69.64721 c 0,-0.554 0.446,-1 1,-1 z"
           style="opacity:1;fill:none;fill-opacity:0.25116284;stroke:#000000;stroke-width:0.35277778;stroke-miterlimit:4;stroke-dasharray:none;stroke-opacity:1" />
        <path
           id="rect836"
           d="m 172.88382,-277.78577 h 96.64722 c 0.554,0 1,0.446 1,1 v 50.64723 c 0,0.554 -0.446,1 -1,1 h -96.64722 c -0.554,0 -1,-0.446 -1,-1 v -50.64723 c 0,-0.554 0.446,-1 1,-1 z"
           style="opacity:1;fill:none;fill-opacity:0.25116284;stroke:#000000;stroke-width:0.35277778;stroke-miterlimit:4;stroke-dasharray:none;stroke-opacity:1" />
        <path
           id="rect838"
           d="m 173.93015,-222.51576 h 45.64722 c 0.554,0 1,0.446 1,1 v 9.64722 c 0,0.554 -0.446,1 -1,1 h -45.64722 c -0.554,0 -1,-0.446 -1,-1 v -9.64722 c 0,-0.554 0.446,-1 1,-1 z"
           style="opacity:1;fill:none;fill-opacity:0.25116284;stroke:#000000;stroke-width:0.35277778;stroke-miterlimit:4;stroke-dasharray:none;stroke-opacity:1" />
        <path
           id="rect838-6"
           d="m 223.16489,-222.51576 h 45.64722 c 0.554,0 1,0.446 1,1 v 9.64722 c 0,0.554 -0.446,1 -1,1 h -45.64722 c -0.554,0 -1,-0.446 -1,-1 v -9.64722 c 0,-0.554 0.446,-1 1,-1 z"
           style="opacity:1;fill:none;fill-opacity:0.25116284;stroke:#000000;stroke-width:0.35277778;stroke-miterlimit:4;stroke-dasharray:none;stroke-opacity:1" />
      </g>
    </g>
  </g>
</svg>
