<?xml version="1.0" encoding="UTF-8" standalone="no"?>
<!-- Created with Inkscape (http://www.inkscape.org/) -->

<svg
   xmlns:dc="http://purl.org/dc/elements/1.1/"
   xmlns:cc="http://creativecommons.org/ns#"
   xmlns:rdf="http://www.w3.org/1999/02/22-rdf-syntax-ns#"
   xmlns:svg="http://www.w3.org/2000/svg"
   xmlns="http://www.w3.org/2000/svg"
   xmlns:sodipodi="http://sodipodi.sourceforge.net/DTD/sodipodi-0.dtd"
   xmlns:inkscape="http://www.inkscape.org/namespaces/inkscape"
   width="594mm"
   height="841mm"
   viewBox="0 0 594 841"
   version="1.1"
   id="svg8"
   inkscape:version="0.92.3 (2405546, 2018-03-11)"
   sodipodi:docname="E5570_PR_NO_FP.svg">
  <defs
     id="defs2" />
  <sodipodi:namedview
     id="base"
     pagecolor="#ffffff"
     bordercolor="#666666"
     borderopacity="1.0"
     inkscape:pageopacity="0.0"
     inkscape:pageshadow="2"
     inkscape:zoom="0.49497475"
     inkscape:cx="850.09734"
     inkscape:cy="2080.9008"
     inkscape:document-units="mm"
     inkscape:current-layer="layer1"
     showgrid="false"
     showguides="true"
     inkscape:guide-bbox="true"
     inkscape:window-width="1920"
     inkscape:window-height="1017"
     inkscape:window-x="-8"
     inkscape:window-y="-8"
     inkscape:window-maximized="1" />
  <metadata
     id="metadata5">
    <rdf:RDF>
      <cc:Work
         rdf:about="">
        <dc:format>image/svg+xml</dc:format>
        <dc:type
           rdf:resource="http://purl.org/dc/dcmitype/StillImage" />
        <dc:title></dc:title>
      </cc:Work>
    </rdf:RDF>
  </metadata>
  <g
     inkscape:label="Layer 1"
     inkscape:groupmode="layer"
     id="layer1"
     transform="translate(0,544)">
    <g
       id="g863">
      <path
         sodipodi:nodetypes="csssscc"
         inkscape:connector-curvature="0"
         id="rect815"
         d="m 456.80199,-438.34515 v 226.68443 c 0,6.648 -5.352,12 -12,12 H 95.15477 c -6.648,0 -12,-5.352 -12,-12 v -226.68443 c 129.49602,-0.24869 262.6185,0.31311 373.64722,0 z"
         style="opacity:1;fill:none;fill-opacity:0.25116284;stroke:#000000;stroke-width:0.35277778;stroke-miterlimit:4;stroke-dasharray:none;stroke-opacity:1" />
      <path
         sodipodi:nodetypes="cssssssssc"
         inkscape:connector-curvature="0"
         id="rect817"
         d="m 170.802,-293.56961 -72.819853,0.13281 c -2.769995,0.005 -5,-2.23 -5,-5 v -108.64721 c 0,-2.77 2.23,-5 5,-5 H 441.62936 c 2.77,0 5,2.23 5,5 v 108.64721 c 0,2.77 -2.23,4.99999 -5,5 l -170.18014,8.3e-4"
         style="opacity:1;fill:none;fill-opacity:0.25116284;stroke:#000000;stroke-width:0.35277778;stroke-miterlimit:4;stroke-dasharray:none;stroke-opacity:1" />
      <path
         sodipodi:nodetypes="cssssc"
         inkscape:connector-curvature="0"
         id="rect823"
         d="m 271.44922,-293.43597 v 7.12801 c 0,0.554 -0.446,1 -1,1 H 171.802 c -0.554,0 -1,-0.446 -1,-1 v -7.26165"
         style="opacity:1;fill:none;fill-opacity:0.25116284;stroke:#000000;stroke-width:0.35277778;stroke-miterlimit:4;stroke-dasharray:none;stroke-opacity:1" />
      <path
         style="opacity:1;fill:none;fill-opacity:0.25116284;stroke:#000000;stroke-width:0.35277778;stroke-miterlimit:4;stroke-dasharray:none;stroke-opacity:1"
         d="m 442.04077,-424.8493 a 5.8236113,5.8236113 0 0 1 -5.82361,5.82361 5.8236113,5.8236113 0 0 1 -5.82361,-5.82361 5.8236113,5.8236113 0 0 1 5.82361,-5.82362 5.8236113,5.8236113 0 0 1 5.82361,5.82362 z"
         id="path827" />
      <path
         style="opacity:1;fill:none;fill-opacity:0.25116284;stroke:#000000;stroke-width:0.35277778;stroke-miterlimit:4;stroke-dasharray:none;stroke-opacity:1"
         d="m 171.97887,-279.07516 h 98.64721 c 0.554,0 1,0.446 1,1 v 69.64721 c 0,0.554 -0.446,1 -1,1 h -98.64721 c -0.554,0 -1,-0.446 -1,-1 v -69.64721 c 0,-0.554 0.446,-1 1,-1 z"
         id="rect832" />
      <path
         style="opacity:1;fill:none;fill-opacity:0.25116284;stroke:#000000;stroke-width:0.35277778;stroke-miterlimit:4;stroke-dasharray:none;stroke-opacity:1"
         d="m 172.88382,-277.78577 h 96.64722 c 0.554,0 1,0.446 1,1 v 50.64723 c 0,0.554 -0.446,1 -1,1 h -96.64722 c -0.554,0 -1,-0.446 -1,-1 v -50.64723 c 0,-0.554 0.446,-1 1,-1 z"
         id="rect836" />
      <path
         style="opacity:1;fill:none;fill-opacity:0.25116284;stroke:#000000;stroke-width:0.35277778;stroke-miterlimit:4;stroke-dasharray:none;stroke-opacity:1"
         d="m 173.93015,-222.51576 h 45.64722 c 0.554,0 1,0.446 1,1 v 9.64722 c 0,0.554 -0.446,1 -1,1 h -45.64722 c -0.554,0 -1,-0.446 -1,-1 v -9.64722 c 0,-0.554 0.446,-1 1,-1 z"
         id="rect838" />
      <path
         style="opacity:1;fill:none;fill-opacity:0.25116284;stroke:#000000;stroke-width:0.35277778;stroke-miterlimit:4;stroke-dasharray:none;stroke-opacity:1"
         d="m 223.16489,-222.51576 h 45.64722 c 0.554,0 1,0.446 1,1 v 9.64722 c 0,0.554 -0.446,1 -1,1 h -45.64722 c -0.554,0 -1,-0.446 -1,-1 v -9.64722 c 0,-0.554 0.446,-1 1,-1 z"
         id="rect838-6" />
    </g>
  </g>
</svg>
