<?xml version="1.0" encoding="UTF-8" standalone="no"?>
<!-- Generator: Adobe Illustrator 24.2.2, SVG Export Plug-In . SVG Version: 6.00 Build 0)  -->

<svg
   xmlns:dc="http://purl.org/dc/elements/1.1/"
   xmlns:cc="http://creativecommons.org/ns#"
   xmlns:rdf="http://www.w3.org/1999/02/22-rdf-syntax-ns#"
   xmlns:svg="http://www.w3.org/2000/svg"
   xmlns="http://www.w3.org/2000/svg"
   xmlns:sodipodi="http://sodipodi.sourceforge.net/DTD/sodipodi-0.dtd"
   xmlns:inkscape="http://www.inkscape.org/namespaces/inkscape"
   version="1.1"
   id="Layer_1"
   x="0px"
   y="0px"
   viewBox="0 0 864 1700.8"
   style="enable-background:new 0 0 864 1700.8;"
   xml:space="preserve"
   sodipodi:docname="newE6530_PR_BOT_NO_FP.svg"
   inkscape:version="0.92.3 (2405546, 2018-03-11)"><metadata
   id="metadata22"><rdf:RDF><cc:Work
       rdf:about=""><dc:format>image/svg+xml</dc:format><dc:type
         rdf:resource="http://purl.org/dc/dcmitype/StillImage" /><dc:title></dc:title></cc:Work></rdf:RDF></metadata><defs
   id="defs20" />
<style
   type="text/css"
   id="style2">
	.st0{fill:none;stroke:#000000;stroke-width:0.7691;stroke-linecap:round;stroke-linejoin:round;stroke-miterlimit:11.3386;}
	.st1{enable-background:new    ;}
	.st2{fill:none;stroke:#000000;stroke-width:1.0261;}
	.st3{fill:none;stroke:#000000;stroke-linecap:round;stroke-linejoin:round;stroke-miterlimit:11.3386;}
</style>
<sodipodi:namedview
   bordercolor="#666666"
   borderopacity="1"
   gridtolerance="10"
   guidetolerance="10"
   id="namedview21"
   inkscape:current-layer="Layer_1"
   inkscape:cx="261.00208"
   inkscape:cy="1006.3487"
   inkscape:pageopacity="0"
   inkscape:pageshadow="2"
   inkscape:snap-path-clip="false"
   inkscape:snap-path-mask="false"
   inkscape:window-height="1017"
   inkscape:window-maximized="1"
   inkscape:window-width="1920"
   inkscape:window-x="-8"
   inkscape:window-y="-8"
   inkscape:zoom="0.55503291"
   objecttolerance="10"
   pagecolor="#ffffff"
   showgrid="false">
	</sodipodi:namedview>
<g
   id="g14"
   transform="matrix(0,-1.2654542,1.3359614,0,-624.71522,1337.594)">
</g>
<g
   id="g901">
	<path
   id="path4"
   inkscape:connector-curvature="0"
   sodipodi:nodetypes="cccccccccc"
   class="st0"
   d="M-288.2,596.2l0.3,253.1   c0,4.6,3.9,29.5,27.9,29.4l505.2-0.3 M294.5,878.2l281.1,0.3 M624.9,878.5l480.9,0c4.4,0,27.9-7.2,27.8-32.3l0.1-251" />
	<path
   id="path6"
   inkscape:connector-curvature="0"
   sodipodi:nodetypes="cc"
   class="st0"
   d="M-288.2,596.2l350.9-0.5" />
	<path
   id="path8"
   inkscape:connector-curvature="0"
   sodipodi:nodetypes="cc"
   class="st0"
   d="M367.3,595.3l766.3,0" />
	<g
   id="g854"
   transform="matrix(0,-1.2654542,1.3359614,0,-624.71522,1337.594)"
   class="st1">
		<g
   id="g858">
			<path
   id="path10"
   inkscape:connector-curvature="0"
   sodipodi:nodetypes="cccc"
   class="st0"
   d="M586.3,514.6l-190.4,0.5     c-1.9,0-6.9-1.2-6.9,5.5l0,216.8" />
			<path
   id="path12"
   inkscape:connector-curvature="0"
   sodipodi:nodetypes="ccc"
   class="st0"
   d="M389,737.4c0,0-0.7,7,7.3,5.6     l190.3-0.4" />
		</g>
		<path
   id="rect860"
   class="st2"
   d="M582.1,521v215.2c0,1.2-1.1,2.2-2.4,2.2H454.1c-1.3,0-2.4-1-2.4-2.2V521c0-1.2,1.1-2.2,2.4-2.2    h125.6C581,518.7,582.1,519.7,582.1,521z" />
	</g>
	<path
   id="rect862"
   class="st2"
   d="M75.2,786.6h136.3c1.7,0,3,1.3,3,3v45.6c0,1.7-1.3,3-3,3H75.2c-1.7,0-3-1.3-3-3v-45.6   C72.2,787.9,73.5,786.6,75.2,786.6z" />
	<path
   id="rect862-7"
   class="st2"
   d="M221.4,786.6h136.3c1.7,0,3,1.3,3,3v45.6c0,1.7-1.3,3-3,3H221.4c-1.7,0-3-1.3-3-3v-45.6   C218.4,787.9,219.7,786.6,221.4,786.6z" />
	<path
   id="path16"
   inkscape:connector-curvature="0"
   sodipodi:nodetypes="cccc"
   class="st3"
   d="M294.5,877.1v-10.8l-49.3,0.1v10.8" />
	<path
   id="path18"
   inkscape:connector-curvature="0"
   sodipodi:nodetypes="cccc"
   class="st3"
   d="M624.9,878.3v-10.8l-49.3,0.1v10.8" />
</g>
</svg>