<?xml version="1.0" encoding="UTF-8" standalone="no"?>
<!-- Created with Inkscape (http://www.inkscape.org/) -->

<svg
   xmlns:dc="http://purl.org/dc/elements/1.1/"
   xmlns:cc="http://creativecommons.org/ns#"
   xmlns:rdf="http://www.w3.org/1999/02/22-rdf-syntax-ns#"
   xmlns:svg="http://www.w3.org/2000/svg"
   xmlns="http://www.w3.org/2000/svg"
   xmlns:sodipodi="http://sodipodi.sourceforge.net/DTD/sodipodi-0.dtd"
   xmlns:inkscape="http://www.inkscape.org/namespaces/inkscape"
   width="594mm"
   height="841mm"
   viewBox="0 0 594 841"
   version="1.1"
   id="svg8"
   inkscape:version="0.92.3 (2405546, 2018-03-11)"
   sodipodi:docname="P3510_PR.svg">
  <defs
     id="defs2" />
  <sodipodi:namedview
     id="base"
     pagecolor="#ffffff"
     bordercolor="#666666"
     borderopacity="1.0"
     inkscape:pageopacity="0.0"
     inkscape:pageshadow="2"
     inkscape:zoom="0.35"
     inkscape:cx="790.73277"
     inkscape:cy="1922.9064"
     inkscape:document-units="mm"
     inkscape:current-layer="layer1"
     showgrid="false"
     showguides="true"
     inkscape:guide-bbox="true"
     inkscape:window-width="1920"
     inkscape:window-height="1017"
     inkscape:window-x="-8"
     inkscape:window-y="-8"
     inkscape:window-maximized="1" />
  <metadata
     id="metadata5">
    <rdf:RDF>
      <cc:Work
         rdf:about="">
        <dc:format>image/svg+xml</dc:format>
        <dc:type
           rdf:resource="http://purl.org/dc/dcmitype/StillImage" />
        <dc:title></dc:title>
      </cc:Work>
    </rdf:RDF>
  </metadata>
  <g
     inkscape:label="Layer 1"
     inkscape:groupmode="layer"
     id="layer1"
     transform="translate(0,544)">
    <g
       id="g973"
       style="stroke:#000007;stroke-opacity:1;stroke-width:0.35277778;stroke-miterlimit:4;stroke-dasharray:none">
      <path
         sodipodi:nodetypes="cccsssscc"
         inkscape:connector-curvature="0"
         id="rect927"
         d="M 44.477768,-385.31458 H 398.12498 l 10,-0.0542 v 228.70139 c 0,5.54 -4.46,10 -10,10 H 44.477768 c -5.54,0 -10,-4.46 -10,-10 v -228.70139 z"
         style="opacity:1;fill:none;fill-opacity:1;stroke:#000007;stroke-width:0.35277778;stroke-miterlimit:4;stroke-dasharray:none;stroke-opacity:1" />
      <path
         sodipodi:nodetypes="cssssssssc"
         inkscape:connector-curvature="0"
         id="rect929"
         d="m 122.62499,-239.89459 -68.372415,0.0297 c -5.540003,0.002 -10.000008,-4.46 -10.000008,-10.00001 v -99.1472 c 0,-5.54 4.460004,-10.00001 10.000008,-10.00001 H 388.39978 c 5.54,0 10,4.46001 10,10.00001 v 99.1472 c 0,5.54001 -4.46,10.00101 -10,10.00001 l -165.12757,-0.0297"
         style="opacity:1;fill:none;fill-opacity:1;stroke:#000007;stroke-width:0.35277778;stroke-miterlimit:4;stroke-dasharray:none;stroke-opacity:1" />
      <path
         sodipodi:nodetypes="cccc"
         inkscape:connector-curvature="0"
         id="rect933"
         d="m 223.27221,-239.89459 v 6.76268 H 122.62499 v -6.76268"
         style="opacity:1;fill:none;fill-opacity:1;stroke:#000007;stroke-width:0.35277778;stroke-miterlimit:4;stroke-dasharray:none;stroke-opacity:1" />
      <path
         id="rect935"
         d="m 124.62499,-225.46179 h 96.64722 c 1.108,0 2,0.892 2,2 v 67.64722 c 0,1.108 -0.892,2 -2,2 h -96.64722 c -1.108,0 -2,-0.892 -2,-2 v -67.64722 c 0,-1.108 0.892,-2 2,-2 z"
         style="opacity:1;fill:none;fill-opacity:1;stroke:#000007;stroke-width:0.35277778;stroke-miterlimit:4;stroke-dasharray:none;stroke-opacity:1" />
      <path
         id="path937"
         d="m 387.13944,-372.19193 a 5.8236113,5.8236113 0 0 1 -5.82361,5.82362 5.8236113,5.8236113 0 0 1 -5.82361,-5.82362 5.8236113,5.8236113 0 0 1 5.82361,-5.82361 5.8236113,5.8236113 0 0 1 5.82361,5.82361 z"
         style="opacity:1;fill:none;fill-opacity:1;stroke:#000007;stroke-width:0.35277778;stroke-miterlimit:4;stroke-dasharray:none;stroke-opacity:1" />
      <path
         style="opacity:1;fill:none;fill-opacity:1;stroke:#000007;stroke-width:0.35277778;stroke-miterlimit:4;stroke-dasharray:none;stroke-opacity:1"
         d="m 124.81686,-223.38797 h 95.64722 c 0.554,0 1,0.446 1,1 v 50.64722 c 0,0.554 -0.446,1 -1,1 h -95.64722 c -0.554,0 -1,-0.446 -1,-1 v -50.64722 c 0,-0.554 0.446,-1 1,-1 z"
         id="rect946" />
      <path
         style="opacity:1;fill:none;fill-opacity:1;stroke:#000007;stroke-width:0.35277778;stroke-miterlimit:4;stroke-dasharray:none;stroke-opacity:1"
         d="m 124.98557,-168.90923 h 45.64723 c 0.554,0 1,0.446 1,1.00001 v 9.64722 c 0,0.554 -0.446,1 -1,1 h -45.64723 c -0.554,0 -1,-0.446 -1,-1 v -9.64722 c 0,-0.55401 0.446,-1.00001 1,-1.00001 z"
         id="rect948" />
      <path
         style="opacity:1;fill:none;fill-opacity:1;stroke:#000007;stroke-width:0.35277778;stroke-miterlimit:4;stroke-dasharray:none;stroke-opacity:1"
         d="m 174.74951,-168.90923 h 45.64723 c 0.554,0 1,0.446 1,1.00001 v 9.64722 c 0,0.554 -0.446,1 -1,1 h -45.64723 c -0.554,0 -1,-0.446 -1,-1 v -9.64722 c 0,-0.55401 0.446,-1.00001 1,-1.00001 z"
         id="rect948-6" />
    </g>
  </g>
</svg>
