<?xml version="1.0" encoding="UTF-8" standalone="no"?>
<!-- Created with Inkscape (http://www.inkscape.org/) -->

<svg
   xmlns:dc="http://purl.org/dc/elements/1.1/"
   xmlns:cc="http://creativecommons.org/ns#"
   xmlns:rdf="http://www.w3.org/1999/02/22-rdf-syntax-ns#"
   xmlns:svg="http://www.w3.org/2000/svg"
   xmlns="http://www.w3.org/2000/svg"
   xmlns:sodipodi="http://sodipodi.sourceforge.net/DTD/sodipodi-0.dtd"
   xmlns:inkscape="http://www.inkscape.org/namespaces/inkscape"
   width="250mm"
   height="700mm"
   viewBox="0 0 250 700"
   version="1.1"
   id="svg852"
   inkscape:version="0.92.3 (2405546, 2018-03-11)"
   sodipodi:docname="X250_TP_.svg">
  <defs
     id="defs846" />
  <sodipodi:namedview
     id="base"
     pagecolor="#ffffff"
     bordercolor="#666666"
     borderopacity="1.0"
     inkscape:pageopacity="0.0"
     inkscape:pageshadow="2"
     inkscape:zoom="0.35866334"
     inkscape:cx="465.86055"
     inkscape:cy="2441.7079"
     inkscape:document-units="mm"
     inkscape:current-layer="layer1"
     showgrid="false"
     inkscape:window-width="1680"
     inkscape:window-height="903"
     inkscape:window-x="0"
     inkscape:window-y="28"
     inkscape:window-maximized="1"
     scale-x="1.2" />
  <metadata
     id="metadata849">
    <rdf:RDF>
      <cc:Work
         rdf:about="">
        <dc:format>image/svg+xml</dc:format>
        <dc:type
           rdf:resource="http://purl.org/dc/dcmitype/StillImage" />
        <dc:title></dc:title>
      </cc:Work>
    </rdf:RDF>
  </metadata>
  <g
     inkscape:label="Layer 1"
     inkscape:groupmode="layer"
     id="layer1"
     transform="translate(0,403)">
    <path
       style="opacity:1;vector-effect:none;fill:none;fill-opacity:1;fill-rule:evenodd;stroke:#000000;stroke-width:0.3281759;stroke-linecap:butt;stroke-linejoin:miter;stroke-miterlimit:4;stroke-dasharray:none;stroke-dashoffset:0;stroke-opacity:1"
       d="m 2.5642786,-316.42481 v -82.91926 c 0,-0.76248 0.61603,-1.3763 1.3812331,-1.3763 H 54.354863 c 0.76521,0 1.38124,0.61382 1.38124,1.3763 v 82.91926 c 0,0.76247 -0.61603,1.3763 -1.38124,1.3763 H 3.9455117 c -0.7652031,0 -1.3812331,-0.61383 -1.3812331,-1.3763 z"
       id="rect1397"
       inkscape:connector-curvature="0" />
    <path
       style="opacity:1;vector-effect:none;fill:none;fill-opacity:1;fill-rule:evenodd;stroke:#000000;stroke-width:0.3281759;stroke-linecap:butt;stroke-linejoin:miter;stroke-miterlimit:4;stroke-dasharray:none;stroke-dashoffset:0;stroke-opacity:1"
       d="m 57.317138,-316.2738 v -82.91923 c 0,-0.76248 0.61603,-1.3763 1.381233,-1.3763 h 50.409349 c 0.76521,0 1.38124,0.61382 1.38124,1.3763 v 82.91923 c 0,0.76247 -0.61603,1.3763 -1.38124,1.3763 H 58.698371 c -0.765203,0 -1.381233,-0.61383 -1.381233,-1.3763 z"
       id="rect1397-3"
       inkscape:connector-curvature="0" />
    <path
       style="opacity:1;vector-effect:none;fill:none;fill-opacity:1;fill-rule:evenodd;stroke:#000000;stroke-width:0.3281759;stroke-linecap:butt;stroke-linejoin:miter;stroke-miterlimit:4;stroke-dasharray:none;stroke-dashoffset:0;stroke-opacity:1"
       d="m 112.41983,-316.0352 v -82.91926 c 0,-0.76248 0.61603,-1.3763 1.38124,-1.3763 h 50.40935 c 0.76521,0 1.38124,0.61382 1.38124,1.3763 v 82.91926 c 0,0.76247 -0.61603,1.3763 -1.38124,1.3763 h -50.40935 c -0.76521,0 -1.38124,-0.61383 -1.38124,-1.3763 z"
       id="rect1397-6"
       inkscape:connector-curvature="0" />
    <path
       style="opacity:1;vector-effect:none;fill:none;fill-opacity:1;fill-rule:evenodd;stroke:#000000;stroke-width:0.3281759;stroke-linecap:butt;stroke-linejoin:miter;stroke-miterlimit:4;stroke-dasharray:none;stroke-dashoffset:0;stroke-opacity:1"
       d="m 167.1727,-315.88419 v -82.91923 c 0,-0.76248 0.61603,-1.3763 1.38123,-1.3763 h 50.40936 c 0.76521,0 1.38124,0.61382 1.38124,1.3763 v 82.91923 c 0,0.76247 -0.61603,1.3763 -1.38124,1.3763 h -50.40936 c -0.7652,0 -1.38123,-0.61383 -1.38123,-1.3763 z"
       id="rect1397-3-7"
       inkscape:connector-curvature="0" />
    <path
       style="opacity:1;vector-effect:none;fill:none;fill-opacity:1;fill-rule:evenodd;stroke:#000000;stroke-width:0.3281759;stroke-linecap:butt;stroke-linejoin:miter;stroke-miterlimit:4;stroke-dasharray:none;stroke-dashoffset:0;stroke-opacity:1"
       d="m 2.4842784,-229.69571 v -82.91923 c 0,-0.76248 0.6160301,-1.3763 1.3812268,-1.3763 H 54.274826 c 0.76521,0 1.38124,0.61382 1.38124,1.3763 v 82.91923 c 0,0.76246 -0.61603,1.3763 -1.38124,1.3763 H 3.8655052 c -0.7651967,0 -1.3812268,-0.61384 -1.3812268,-1.3763 z"
       id="rect1397-5"
       inkscape:connector-curvature="0" />
    <path
       style="opacity:1;vector-effect:none;fill:none;fill-opacity:1;fill-rule:evenodd;stroke:#000000;stroke-width:0.3281759;stroke-linecap:butt;stroke-linejoin:miter;stroke-miterlimit:4;stroke-dasharray:none;stroke-dashoffset:0;stroke-opacity:1"
       d="m 57.237103,-229.54471 v -82.91919 c 0,-0.76248 0.61603,-1.3763 1.38123,-1.3763 h 50.409327 c 0.7652,0 1.38123,0.61382 1.38123,1.3763 v 82.91919 c 0,0.76247 -0.61603,1.3763 -1.38123,1.3763 H 58.618333 c -0.7652,0 -1.38123,-0.61383 -1.38123,-1.3763 z"
       id="rect1397-3-3"
       inkscape:connector-curvature="0" />
    <path
       style="opacity:1;vector-effect:none;fill:none;fill-opacity:1;fill-rule:evenodd;stroke:#000000;stroke-width:0.3281759;stroke-linecap:butt;stroke-linejoin:miter;stroke-miterlimit:4;stroke-dasharray:none;stroke-dashoffset:0;stroke-opacity:1"
       d="m 112.33976,-229.30611 v -82.91923 c 0,-0.76248 0.61603,-1.37629 1.38124,-1.37629 h 50.40935 c 0.76521,0 1.38124,0.61381 1.38124,1.37629 v 82.91923 c 0,0.76247 -0.61603,1.3763 -1.38124,1.3763 H 113.721 c -0.76521,0 -1.38124,-0.61383 -1.38124,-1.3763 z"
       id="rect1397-6-5"
       inkscape:connector-curvature="0" />
    <path
       style="opacity:1;vector-effect:none;fill:none;fill-opacity:1;fill-rule:evenodd;stroke:#000000;stroke-width:0.3281759;stroke-linecap:butt;stroke-linejoin:miter;stroke-miterlimit:4;stroke-dasharray:none;stroke-dashoffset:0;stroke-opacity:1"
       d="m 167.09263,-229.1551 v -82.91919 c 0,-0.76248 0.61603,-1.3763 1.38123,-1.3763 h 50.40936 c 0.76521,0 1.38124,0.61382 1.38124,1.3763 v 82.91919 c 0,0.76247 -0.61603,1.3763 -1.38124,1.3763 h -50.40936 c -0.7652,0 -1.38123,-0.61383 -1.38123,-1.3763 z"
       id="rect1397-3-7-6"
       inkscape:connector-curvature="0" />
    <path
       style="opacity:1;vector-effect:none;fill:none;fill-opacity:1;fill-rule:evenodd;stroke:#000000;stroke-width:0.3281759;stroke-linecap:butt;stroke-linejoin:miter;stroke-miterlimit:4;stroke-dasharray:none;stroke-dashoffset:0;stroke-opacity:1"
       d="m 2.3261212,-142.71104 v -82.91916 c 0,-0.76248 0.6160299,-1.3763 1.3812399,-1.3763 H 54.116711 c 0.76521,0 1.38124,0.61382 1.38124,1.3763 v 82.91916 c 0,0.76247 -0.61603,1.3763 -1.38124,1.3763 H 3.7073611 c -0.76521,0 -1.3812399,-0.61383 -1.3812399,-1.3763 z"
       id="rect1397-2"
       inkscape:connector-curvature="0" />
    <path
       style="opacity:1;vector-effect:none;fill:none;fill-opacity:1;fill-rule:evenodd;stroke:#000000;stroke-width:0.3281759;stroke-linecap:butt;stroke-linejoin:miter;stroke-miterlimit:4;stroke-dasharray:none;stroke-dashoffset:0;stroke-opacity:1"
       d="m 57.078981,-142.56004 v -82.91912 c 0,-0.76248 0.61604,-1.3763 1.38124,-1.3763 h 50.409349 c 0.76521,0 1.38124,0.61382 1.38124,1.3763 v 82.91912 c 0,0.76247 -0.61603,1.3763 -1.38124,1.3763 H 58.460221 c -0.7652,0 -1.38124,-0.61383 -1.38124,-1.3763 z"
       id="rect1397-3-9"
       inkscape:connector-curvature="0" />
    <path
       style="opacity:1;vector-effect:none;fill:none;fill-opacity:1;fill-rule:evenodd;stroke:#000000;stroke-width:0.3281759;stroke-linecap:butt;stroke-linejoin:miter;stroke-miterlimit:4;stroke-dasharray:none;stroke-dashoffset:0;stroke-opacity:1"
       d="m 112.18168,-142.32144 v -82.91916 c 0,-0.76248 0.61603,-1.3763 1.38124,-1.3763 h 50.40935 c 0.76521,0 1.38124,0.61382 1.38124,1.3763 v 82.91916 c 0,0.76247 -0.61603,1.37631 -1.38124,1.37631 h -50.40935 c -0.76521,0 -1.38124,-0.61384 -1.38124,-1.37631 z"
       id="rect1397-6-1"
       inkscape:connector-curvature="0" />
    <path
       style="opacity:1;vector-effect:none;fill:none;fill-opacity:1;fill-rule:evenodd;stroke:#000000;stroke-width:0.3281759;stroke-linecap:butt;stroke-linejoin:miter;stroke-miterlimit:4;stroke-dasharray:none;stroke-dashoffset:0;stroke-opacity:1"
       d="m 166.93455,-142.17043 v -82.91912 c 0,-0.76248 0.61603,-1.3763 1.38123,-1.3763 h 50.40936 c 0.76521,0 1.38124,0.61382 1.38124,1.3763 v 82.91912 c 0,0.76248 -0.61603,1.3763 -1.38124,1.3763 h -50.40936 c -0.7652,0 -1.38123,-0.61382 -1.38123,-1.3763 z"
       id="rect1397-3-7-2"
       inkscape:connector-curvature="0" />
    <path
       style="opacity:1;vector-effect:none;fill:none;fill-opacity:1;fill-rule:evenodd;stroke:#000000;stroke-width:0.3281759;stroke-linecap:butt;stroke-linejoin:miter;stroke-miterlimit:4;stroke-dasharray:none;stroke-dashoffset:0;stroke-opacity:1"
       d="m 2.2461212,-55.981994 v -82.919186 c 0,-0.76247 0.6160299,-1.37629 1.3812299,-1.37629 H 54.036671 c 0.76521,0 1.38124,0.61382 1.38124,1.37629 v 82.919186 c 0,0.76246 -0.61603,1.3763 -1.38124,1.3763 H 3.6273511 c -0.7652,0 -1.3812299,-0.61384 -1.3812299,-1.3763 z"
       id="rect1397-5-7"
       inkscape:connector-curvature="0" />
    <path
       style="opacity:1;vector-effect:none;fill:none;fill-opacity:1;fill-rule:evenodd;stroke:#000000;stroke-width:0.3281759;stroke-linecap:butt;stroke-linejoin:miter;stroke-miterlimit:4;stroke-dasharray:none;stroke-dashoffset:0;stroke-opacity:1"
       d="m 56.998951,-55.830994 v -82.919136 c 0,-0.76248 0.61603,-1.3763 1.38123,-1.3763 h 50.409329 c 0.7652,0 1.38123,0.61382 1.38123,1.3763 v 82.919136 c 0,0.76247 -0.61603,1.3763 -1.38123,1.3763 H 58.380181 c -0.7652,0 -1.38123,-0.61383 -1.38123,-1.3763 z"
       id="rect1397-3-3-0"
       inkscape:connector-curvature="0" />
    <path
       style="opacity:1;vector-effect:none;fill:none;fill-opacity:1;fill-rule:evenodd;stroke:#000000;stroke-width:0.3281759;stroke-linecap:butt;stroke-linejoin:miter;stroke-miterlimit:4;stroke-dasharray:none;stroke-dashoffset:0;stroke-opacity:1"
       d="m 112.10161,-55.592394 v -82.919176 c 0,-0.76248 0.61603,-1.3763 1.38124,-1.3763 h 50.40935 c 0.76521,0 1.38124,0.61382 1.38124,1.3763 v 82.919176 c 0,0.76247 -0.61603,1.3763 -1.38124,1.3763 h -50.40935 c -0.76521,0 -1.38124,-0.61383 -1.38124,-1.3763 z"
       id="rect1397-6-5-9"
       inkscape:connector-curvature="0" />
    <path
       style="opacity:1;vector-effect:none;fill:none;fill-opacity:1;fill-rule:evenodd;stroke:#000000;stroke-width:0.3281759;stroke-linecap:butt;stroke-linejoin:miter;stroke-miterlimit:4;stroke-dasharray:none;stroke-dashoffset:0;stroke-opacity:1"
       d="m 166.85448,-55.441384 v -82.919146 c 0,-0.76248 0.61603,-1.3763 1.38123,-1.3763 h 50.40936 c 0.76521,0 1.38124,0.61382 1.38124,1.3763 v 82.919146 c 0,0.76247 -0.61603,1.3763 -1.38124,1.3763 h -50.40936 c -0.7652,0 -1.38123,-0.61383 -1.38123,-1.3763 z"
       id="rect1397-3-7-6-3"
       inkscape:connector-curvature="0" />
    <path
       style="opacity:1;vector-effect:none;fill:none;fill-opacity:1;fill-rule:evenodd;stroke:#000000;stroke-width:0.3281759;stroke-linecap:butt;stroke-linejoin:miter;stroke-miterlimit:4;stroke-dasharray:none;stroke-dashoffset:0;stroke-opacity:1"
       d="m 2.2917031,30.921663 v -82.91926 c 0,-0.76248 0.61603,-1.3763 1.38123,-1.3763 H 54.082293 c 0.76521,0 1.38124,0.61382 1.38124,1.3763 v 82.91926 c 0,0.76247 -0.61603,1.3763 -1.38124,1.3763 H 3.6729331 c -0.7652,0 -1.38123,-0.61383 -1.38123,-1.3763 z"
       id="rect1397-9"
       inkscape:connector-curvature="0" />
    <path
       style="opacity:1;vector-effect:none;fill:none;fill-opacity:1;fill-rule:evenodd;stroke:#000000;stroke-width:0.3281759;stroke-linecap:butt;stroke-linejoin:miter;stroke-miterlimit:4;stroke-dasharray:none;stroke-dashoffset:0;stroke-opacity:1"
       d="m 57.044563,31.072673 v -82.91923 c 0,-0.76248 0.61603,-1.3763 1.38123,-1.3763 h 50.409357 c 0.76521,0 1.38124,0.61382 1.38124,1.3763 v 82.91923 c 0,0.76247 -0.61603,1.3763 -1.38124,1.3763 H 58.425793 c -0.7652,0 -1.38123,-0.61383 -1.38123,-1.3763 z"
       id="rect1397-3-73"
       inkscape:connector-curvature="0" />
    <path
       style="opacity:1;vector-effect:none;fill:none;fill-opacity:1;fill-rule:evenodd;stroke:#000000;stroke-width:0.3281759;stroke-linecap:butt;stroke-linejoin:miter;stroke-miterlimit:4;stroke-dasharray:none;stroke-dashoffset:0;stroke-opacity:1"
       d="m 112.14726,31.311273 v -82.91926 c 0,-0.76248 0.61603,-1.3763 1.38124,-1.3763 h 50.40935 c 0.76521,0 1.38124,0.61382 1.38124,1.3763 v 82.91926 c 0,0.76247 -0.61603,1.3763 -1.38124,1.3763 H 113.5285 c -0.76521,0 -1.38124,-0.61383 -1.38124,-1.3763 z"
       id="rect1397-6-6"
       inkscape:connector-curvature="0" />
    <path
       style="opacity:1;vector-effect:none;fill:none;fill-opacity:1;fill-rule:evenodd;stroke:#000000;stroke-width:0.3281759;stroke-linecap:butt;stroke-linejoin:miter;stroke-miterlimit:4;stroke-dasharray:none;stroke-dashoffset:0;stroke-opacity:1"
       d="m 166.90013,31.462283 v -82.91923 c 0,-0.76248 0.61603,-1.3763 1.38123,-1.3763 h 50.40936 c 0.76521,0 1.38124,0.61382 1.38124,1.3763 v 82.91923 c 0,0.76247 -0.61603,1.3763 -1.38124,1.3763 h -50.40936 c -0.7652,0 -1.38123,-0.61383 -1.38123,-1.3763 z"
       id="rect1397-3-7-1"
       inkscape:connector-curvature="0" />
    <path
       style="opacity:1;vector-effect:none;fill:none;fill-opacity:1;fill-rule:evenodd;stroke:#000000;stroke-width:0.3281759;stroke-linecap:butt;stroke-linejoin:miter;stroke-miterlimit:4;stroke-dasharray:none;stroke-dashoffset:0;stroke-opacity:1"
       d="M 2.2117031,117.65077 V 34.731533 c 0,-0.76248 0.61603,-1.3763 1.38123,-1.3763 H 54.002253 c 0.76521,0 1.38124,0.61382 1.38124,1.3763 v 82.919237 c 0,0.76246 -0.61603,1.3763 -1.38124,1.3763 H 3.5929331 c -0.7652,0 -1.38123,-0.61384 -1.38123,-1.3763 z"
       id="rect1397-5-2"
       inkscape:connector-curvature="0" />
    <path
       style="opacity:1;vector-effect:none;fill:none;fill-opacity:1;fill-rule:evenodd;stroke:#000000;stroke-width:0.3281759;stroke-linecap:butt;stroke-linejoin:miter;stroke-miterlimit:4;stroke-dasharray:none;stroke-dashoffset:0;stroke-opacity:1"
       d="M 56.964533,117.80177 V 34.882573 c 0,-0.76248 0.61603,-1.3763 1.38123,-1.3763 h 50.409327 c 0.7652,0 1.38123,0.61382 1.38123,1.3763 v 82.919197 c 0,0.76247 -0.61603,1.3763 -1.38123,1.3763 H 58.345763 c -0.7652,0 -1.38123,-0.61383 -1.38123,-1.3763 z"
       id="rect1397-3-3-9"
       inkscape:connector-curvature="0" />
    <path
       style="opacity:1;vector-effect:none;fill:none;fill-opacity:1;fill-rule:evenodd;stroke:#000000;stroke-width:0.3281759;stroke-linecap:butt;stroke-linejoin:miter;stroke-miterlimit:4;stroke-dasharray:none;stroke-dashoffset:0;stroke-opacity:1"
       d="M 112.06719,118.04037 V 35.121133 c 0,-0.76248 0.61603,-1.37629 1.38124,-1.37629 h 50.40935 c 0.76521,0 1.38124,0.61381 1.38124,1.37629 v 82.919237 c 0,0.76247 -0.61603,1.3763 -1.38124,1.3763 h -50.40935 c -0.76521,0 -1.38124,-0.61383 -1.38124,-1.3763 z"
       id="rect1397-6-5-3"
       inkscape:connector-curvature="0" />
    <path
       style="opacity:1;vector-effect:none;fill:none;fill-opacity:1;fill-rule:evenodd;stroke:#000000;stroke-width:0.3281759;stroke-linecap:butt;stroke-linejoin:miter;stroke-miterlimit:4;stroke-dasharray:none;stroke-dashoffset:0;stroke-opacity:1"
       d="M 166.82006,118.19138 V 35.272183 c 0,-0.76248 0.61603,-1.3763 1.38123,-1.3763 h 50.40936 c 0.76521,0 1.38124,0.61382 1.38124,1.3763 v 82.919197 c 0,0.76247 -0.61603,1.3763 -1.38124,1.3763 h -50.40936 c -0.7652,0 -1.38123,-0.61383 -1.38123,-1.3763 z"
       id="rect1397-3-7-6-1"
       inkscape:connector-curvature="0" />
    <path
       style="opacity:1;vector-effect:none;fill:none;fill-opacity:1;fill-rule:evenodd;stroke:#000000;stroke-width:0.3281759;stroke-linecap:butt;stroke-linejoin:miter;stroke-miterlimit:4;stroke-dasharray:none;stroke-dashoffset:0;stroke-opacity:1"
       d="m 2.0535431,204.63544 v -82.91916 c 0,-0.76248 0.61603,-1.3763 1.38124,-1.3763 H 53.844133 c 0.76521,0 1.38125,0.61382 1.38125,1.3763 v 82.91916 c 0,0.76247 -0.61604,1.3763 -1.38125,1.3763 H 3.4347831 c -0.76521,0 -1.38124,-0.61383 -1.38124,-1.3763 z"
       id="rect1397-2-9"
       inkscape:connector-curvature="0" />
    <path
       style="opacity:1;vector-effect:none;fill:none;fill-opacity:1;fill-rule:evenodd;stroke:#000000;stroke-width:0.3281759;stroke-linecap:butt;stroke-linejoin:miter;stroke-miterlimit:4;stroke-dasharray:none;stroke-dashoffset:0;stroke-opacity:1"
       d="m 56.806403,204.78644 v -82.91912 c 0,-0.76248 0.61604,-1.3763 1.38124,-1.3763 H 108.597 c 0.76521,0 1.38124,0.61382 1.38124,1.3763 v 82.91912 c 0,0.76247 -0.61603,1.3763 -1.38124,1.3763 H 58.187643 c -0.7652,0 -1.38124,-0.61383 -1.38124,-1.3763 z"
       id="rect1397-3-9-4"
       inkscape:connector-curvature="0" />
    <path
       style="opacity:1;vector-effect:none;fill:none;fill-opacity:1;fill-rule:evenodd;stroke:#000000;stroke-width:0.3281759;stroke-linecap:butt;stroke-linejoin:miter;stroke-miterlimit:4;stroke-dasharray:none;stroke-dashoffset:0;stroke-opacity:1"
       d="m 111.90911,205.02504 v -82.91916 c 0,-0.76248 0.61603,-1.3763 1.38124,-1.3763 h 50.40935 c 0.76521,0 1.38124,0.61382 1.38124,1.3763 v 82.91916 c 0,0.76247 -0.61603,1.37631 -1.38124,1.37631 h -50.40935 c -0.76521,0 -1.38124,-0.61384 -1.38124,-1.37631 z"
       id="rect1397-6-1-7"
       inkscape:connector-curvature="0" />
    <path
       style="opacity:1;vector-effect:none;fill:none;fill-opacity:1;fill-rule:evenodd;stroke:#000000;stroke-width:0.3281759;stroke-linecap:butt;stroke-linejoin:miter;stroke-miterlimit:4;stroke-dasharray:none;stroke-dashoffset:0;stroke-opacity:1"
       d="m 166.66198,205.17605 v -82.91912 c 0,-0.76248 0.61603,-1.3763 1.38123,-1.3763 h 50.40936 c 0.76521,0 1.38124,0.61382 1.38124,1.3763 v 82.91912 c 0,0.76248 -0.61603,1.3763 -1.38124,1.3763 h -50.40936 c -0.7652,0 -1.38123,-0.61382 -1.38123,-1.3763 z"
       id="rect1397-3-7-2-8"
       inkscape:connector-curvature="0" />
    <path
       style="opacity:1;vector-effect:none;fill:none;fill-opacity:1;fill-rule:evenodd;stroke:#000000;stroke-width:0.3281759;stroke-linecap:butt;stroke-linejoin:miter;stroke-miterlimit:4;stroke-dasharray:none;stroke-dashoffset:0;stroke-opacity:1"
       d="M 1.9735431,291.36449 V 208.4453 c 0,-0.76247 0.61603,-1.37629 1.38123,-1.37629 H 53.764093 c 0.76521,0 1.38124,0.61382 1.38124,1.37629 v 82.91919 c 0,0.76245 -0.61603,1.37629 -1.38124,1.37629 H 3.3547731 c -0.7652,0 -1.38123,-0.61384 -1.38123,-1.37629 z"
       id="rect1397-5-7-4"
       inkscape:connector-curvature="0" />
    <path
       style="opacity:1;vector-effect:none;fill:none;fill-opacity:1;fill-rule:evenodd;stroke:#000000;stroke-width:0.3281759;stroke-linecap:butt;stroke-linejoin:miter;stroke-miterlimit:4;stroke-dasharray:none;stroke-dashoffset:0;stroke-opacity:1"
       d="m 56.726373,291.51549 v -82.91914 c 0,-0.76248 0.61603,-1.3763 1.38123,-1.3763 h 50.409337 c 0.7652,0 1.38123,0.61382 1.38123,1.3763 v 82.91914 c 0,0.76248 -0.61603,1.37631 -1.38123,1.37631 H 58.107603 c -0.7652,0 -1.38123,-0.61383 -1.38123,-1.37631 z"
       id="rect1397-3-3-0-5"
       inkscape:connector-curvature="0" />
    <path
       style="opacity:1;vector-effect:none;fill:none;fill-opacity:1;fill-rule:evenodd;stroke:#000000;stroke-width:0.3281759;stroke-linecap:butt;stroke-linejoin:miter;stroke-miterlimit:4;stroke-dasharray:none;stroke-dashoffset:0;stroke-opacity:1"
       d="m 111.82904,291.75409 v -82.91918 c 0,-0.76248 0.61603,-1.3763 1.38124,-1.3763 h 50.40935 c 0.76521,0 1.38124,0.61382 1.38124,1.3763 v 82.91918 c 0,0.76248 -0.61603,1.37629 -1.38124,1.37629 h -50.40935 c -0.76521,0 -1.38124,-0.61381 -1.38124,-1.37629 z"
       id="rect1397-6-5-9-0"
       inkscape:connector-curvature="0" />
    <path
       style="opacity:1;vector-effect:none;fill:none;fill-opacity:1;fill-rule:evenodd;stroke:#000000;stroke-width:0.3281759;stroke-linecap:butt;stroke-linejoin:miter;stroke-miterlimit:4;stroke-dasharray:none;stroke-dashoffset:0;stroke-opacity:1"
       d="m 166.58191,291.90509 v -82.91914 c 0,-0.76248 0.61603,-1.3763 1.38123,-1.3763 h 50.40936 c 0.76521,0 1.38124,0.61382 1.38124,1.3763 v 82.91914 c 0,0.76248 -0.61603,1.37631 -1.38124,1.37631 h -50.40936 c -0.7652,0 -1.38123,-0.61383 -1.38123,-1.37631 z"
       id="rect1397-3-7-6-3-3"
       inkscape:connector-curvature="0" />
  </g>
</svg>
