<?xml version="1.0" encoding="utf-8"?>
<!DOCTYPE svg PUBLIC "-//W3C//DTD SVG 1.1//EN" "http://www.w3.org/Graphics/SVG/1.1/DTD/svg11.dtd">
<!-- exported from Silhouette Studio Business Edition V4.1.479ssbe -->
<svg version="1.1" xmlns="http://www.w3.org/2000/svg" xmlns:xlink="http://www.w3.org/1999/xlink" width="304.8mm" height="600mm" viewBox="0 0 304.8 600">
<defs/>
<path d="M 131.6005 141.2898 C 131.6515 141.0787 131.9226 140.6783 132.2028 140.3999 C 132.483 140.1215 132.8536 139.6898 133.0264 139.4404 L 133.3405 138.9869 L 158.1069 138.9335 C 171.7286 138.9042 183.0534 138.9237 183.2731 138.9769 C 183.9017 139.1291 184.1229 139.9095 184.1229 141.9752 C 184.1229 143.88 184.1256 143.8911 184.643 144.0875 C 184.9578 144.207 187.3286 144.281 190.6489 144.2751 C 193.6661 144.2696 196.2376 144.3316 196.3633 144.4129 C 196.4891 144.4941 196.8141 144.8875 197.0856 145.287 L 197.5793 146.0133 L 197.5762 190.7653 C 197.5741 221.6159 197.51 235.7446 197.3699 236.2493 C 196.8718 238.0442 196.334 238.1584 188.5432 238.1241 C 185.1078 238.1089 172.308 238.0518 160.0992 237.9973 C 147.8905 237.9426 136.9501 237.9668 135.7874 238.051 C 132.764 238.2698 132.2158 238.172 131.7997 237.3403 C 131.4824 236.7059 131.4648 234.0322 131.4857 189.1711 C 131.4977 163.0475 131.5494 141.5009 131.6005 141.2898 Z" fill="none" fill-opacity="1" stroke="#000000" stroke-opacity="1" stroke-width="0.3527778" stroke-linecap="round" stroke-linejoin="round"/>
<path d="M 51.03351 127.1634 C 51.08795 127.0282 51.57837 126.6917 52.12341 126.4156 C 53.04742 125.9476 53.18597 125.9283 54.17157 126.1298 C 55.42267 126.3857 93.82959 126.452 94.91559 126.2002 C 95.28552 126.1144 97.66382 126.0653 100.2007 126.091 C 102.7377 126.1168 107.4703 126.1649 110.7178 126.1978 C 116.3687 126.255 116.6391 126.2744 117.0155 126.6503 C 117.4085 127.0428 117.4088 127.0627 117.4086 158.3696 C 117.4085 179.8297 117.345 189.8144 117.2072 190.0717 C 117.0965 190.2782 116.7274 190.5992 116.387 190.785 C 115.8392 191.0841 115.1689 191.123 110.5541 191.123 L 105.3399 191.123 L 104.8102 191.6506 C 104.5188 191.9409 104.1625 192.1784 104.0184 192.1784 C 103.8339 192.1784 103.7563 192.4482 103.7562 193.09 C 103.7562 193.5914 103.7483 205.9403 103.7386 220.5322 L 103.7209 247.063 L 104.244 247.6874 C 104.5316 248.0309 104.9937 248.3664 105.2707 248.4331 C 105.5477 248.4997 108.2473 248.5644 111.2699 248.577 C 117.7881 248.604 117.4658 248.4901 117.4658 250.7619 C 117.4658 252.4959 117.251 252.9249 116.304 253.0811 C 115.3445 253.2395 55.41864 253.239 53.7395 253.0807 C 52.487 252.9626 52.41797 252.9281 51.72156 252.0795 L 51.00043 251.2009 L 50.9494 233.7661 L 50.89832 216.3315 L 51.57397 215.7342 C 51.94556 215.4057 52.24963 215.0304 52.24963 214.9004 C 52.24963 214.7702 52.48743 214.4908 52.77814 214.2794 L 53.3067 213.8949 L 53.3067 200.5708 L 53.3067 187.2466 L 52.34564 186.1475 C 51.81714 185.5431 51.27795 184.8608 51.1474 184.6314 C 50.96173 184.3053 50.91266 178.0185 50.92236 155.8117 C 50.92908 140.1902 50.97913 127.2985 51.03351 127.1634 Z" fill="none" fill-opacity="1" stroke="#000000" stroke-opacity="1" stroke-width="0.3527778" stroke-linecap="round" stroke-linejoin="round"/>
<path d="M 68.00885 218.7504 C 68.00885 218.9077 68.22174 219.176 68.48187 219.3462 C 68.74207 219.5163 69.00391 219.8098 69.06384 219.9983 C 69.12372 220.1868 69.47467 220.6514 69.84375 221.0309 C 70.21277 221.4103 70.56647 221.9799 70.62994 222.2965 C 70.6958 222.6252 70.90192 222.9221 71.11005 222.988 C 71.31067 223.0515 71.59918 223.4007 71.75116 223.764 C 71.90314 224.1272 72.16479 224.4769 72.33264 224.5413 C 72.50049 224.6057 72.79797 224.9714 72.99353 225.3542 C 73.18921 225.7371 73.5282 226.2118 73.74695 226.4093 C 73.96564 226.6068 74.23956 227.0561 74.35577 227.4077 C 74.47205 227.7592 74.72162 228.0958 74.91046 228.1557 C 75.09924 228.2158 75.3598 228.5004 75.48944 228.7886 C 75.61914 229.077 75.94336 229.5286 76.21021 229.7925 C 76.65112 230.2286 77.53284 231.5005 78.14667 232.5861 C 78.27869 232.8195 78.60303 233.1519 78.86743 233.325 C 79.13177 233.498 79.34802 233.8039 79.34802 234.0049 C 79.34802 234.2059 79.56555 234.5413 79.8313 234.75 C 80.09711 234.9587 80.48615 235.517 80.69598 235.9907 C 80.90582 236.4645 81.21136 236.9033 81.37506 236.966 C 81.5387 237.0286 81.76337 237.3401 81.87439 237.6582 C 82.12067 238.3634 82.58295 238.4039 83.17737 237.7722 C 83.41766 237.5167 83.8609 237.2057 84.16235 237.081 C 84.46393 236.9564 84.8465 236.6471 85.0127 236.394 C 85.17889 236.1407 85.43597 235.9337 85.58411 235.9337 C 85.73224 235.9337 86.38794 235.4131 87.0412 234.7767 C 87.69446 234.1404 88.47174 233.4944 88.76849 233.3412 C 89.37592 233.0275 90.11066 232.1759 90.11066 231.7855 C 90.11066 231.4103 88.57489 230.6758 87.90015 230.7283 C 87.23187 230.7803 86.52631 230.2228 86.34442 229.4993 C 86.27881 229.2383 86.14813 229.0248 86.05383 229.0248 C 85.95953 229.0248 85.70953 228.8523 85.49817 228.641 C 85.17352 228.3171 85.11371 228.0013 85.11371 226.6124 L 85.11371 224.9675 L 83.8645 223.7683 C 83.00488 222.9431 82.61432 222.4235 82.6123 222.1027 C 82.60748 221.3337 82.37421 221.1586 81.40967 221.2005 C 80.28802 221.2493 79.58221 220.77 79.21252 219.7088 C 78.95801 218.9785 78.96655 218.9348 79.43634 218.5585 C 79.70496 218.3434 79.92389 218.0413 79.92303 217.8868 C 79.92212 217.7325 79.44879 217.1783 78.87115 216.6555 C 78.14276 215.996 77.71954 215.423 77.48993 214.7854 C 77.3078 214.2797 77.00714 213.8181 76.82184 213.7593 C 76.6366 213.7006 76.42657 213.4627 76.35522 213.2305 C 76.28387 212.9984 75.95514 212.5475 75.62469 212.2286 C 75.29425 211.9099 74.93732 211.4958 74.8316 211.3083 C 74.67175 211.0251 74.51184 210.9946 73.88129 211.127 C 73.24536 211.2604 73.0976 211.384 72.96539 211.8934 C 72.76666 212.6592 70.95593 214.5443 70.05981 214.9182 C 69.68707 215.0737 69.32855 215.3696 69.26288 215.576 C 69.19733 215.7824 68.84924 216.0483 68.48938 216.1669 C 68.12958 216.2855 67.78558 216.5385 67.72491 216.7292 C 67.66431 216.9198 67.44366 217.2306 67.23456 217.4194 C 66.85846 217.7593 66.86053 217.7668 67.43158 218.1136 C 67.74908 218.3064 68.00885 218.593 68.00885 218.7504 Z" fill="none" fill-opacity="1" stroke="#000000" stroke-opacity="1" stroke-width="0.3527778" stroke-linecap="round" stroke-linejoin="round"/>
<path d="M 78.30994 159.7508 C 78.39606 160.3997 78.53528 160.679 78.83862 160.8123 C 79.06512 160.9117 79.36359 161.2307 79.50195 161.5209 C 79.64032 161.8112 79.90009 162.059 80.07935 162.0715 C 81.27026 162.1547 92.66064 162.192 93.28308 162.1147 C 94.49268 161.9645 95.31335 161.174 95.50293 159.9767 C 95.58899 159.4331 95.67834 155.9826 95.70142 152.3088 C 95.75012 144.5634 95.67657 144.0713 94.33313 143.1416 L 93.57623 142.6179 L 86.95709 142.6423 C 83.31659 142.6559 80.19855 142.7202 80.02814 142.7855 C 79.85767 142.8508 79.59198 143.1482 79.43756 143.4464 C 79.28314 143.7446 78.94745 144.2142 78.69153 144.4899 L 78.22632 144.9911 L 78.20959 151.9307 C 78.20044 155.7474 78.24554 159.2665 78.30994 159.7508 Z" fill="none" fill-opacity="1" stroke="#000000" stroke-opacity="1" stroke-width="0.3527778" stroke-linecap="round" stroke-linejoin="round"/>
</svg>