<?xml version="1.0" encoding="utf-8"?>
<!DOCTYPE svg PUBLIC "-//W3C//DTD SVG 1.1//EN" "http://www.w3.org/Graphics/SVG/1.1/DTD/svg11.dtd">
<!-- exported from Silhouette Studio Business Edition V4.1.479ssbe -->
<svg version="1.1" xmlns="http://www.w3.org/2000/svg" xmlns:xlink="http://www.w3.org/1999/xlink" width="304.8mm" height="600mm" viewBox="0 0 304.8 600">
<defs/>
<path d="M 131.6005 141.2898 C 131.6515 141.0787 131.9226 140.6783 132.2028 140.3999 C 132.483 140.1215 132.8536 139.6898 133.0264 139.4404 L 133.3405 138.9869 L 158.1069 138.9335 C 171.7286 138.9042 183.0534 138.9237 183.2731 138.9769 C 183.9017 139.1291 184.1229 139.9095 184.1229 141.9752 C 184.1229 143.88 184.1256 143.8911 184.643 144.0875 C 184.9578 144.207 187.3286 144.281 190.6489 144.2751 C 193.6661 144.2696 196.2376 144.3316 196.3633 144.4129 C 196.4891 144.4941 196.8141 144.8875 197.0856 145.287 L 197.5793 146.0133 L 197.5762 190.7653 C 197.5741 221.6159 197.51 235.7446 197.3699 236.2493 C 196.8718 238.0442 196.334 238.1584 188.5432 238.1241 C 185.1078 238.1089 172.308 238.0518 160.0992 237.9973 C 147.8905 237.9426 136.9501 237.9668 135.7874 238.051 C 132.764 238.2698 132.2158 238.172 131.7997 237.3403 C 131.4824 236.7059 131.4648 234.0322 131.4857 189.1711 C 131.4977 163.0475 131.5494 141.5009 131.6005 141.2898 Z" fill="none" fill-opacity="1" stroke="#000000" stroke-opacity="1" stroke-width="0.3527778" stroke-linecap="round" stroke-linejoin="round"/>
<path d="M 51.03351 127.1634 C 51.08795 127.0282 51.57837 126.6917 52.12341 126.4156 C 53.04742 125.9476 53.18597 125.9283 54.17157 126.1298 C 55.42267 126.3857 93.82959 126.452 94.91559 126.2002 C 95.28552 126.1144 97.66382 126.0653 100.2007 126.091 C 102.7377 126.1168 107.4703 126.1649 110.7178 126.1978 C 116.3687 126.255 116.6391 126.2744 117.0155 126.6503 C 117.4085 127.0428 117.4088 127.0627 117.4086 158.3696 C 117.4085 179.8297 117.345 189.8144 117.2072 190.0717 C 117.0965 190.2782 116.7274 190.5992 116.387 190.785 C 115.8392 191.0841 115.1689 191.123 110.5541 191.123 L 105.3399 191.123 L 104.8102 191.6506 C 104.5188 191.9409 104.1625 192.1784 104.0184 192.1784 C 103.8339 192.1784 103.7563 192.4482 103.7562 193.09 C 103.7562 193.5914 103.7483 205.9403 103.7386 220.5322 L 103.7209 247.063 L 104.244 247.6874 C 104.5316 248.0309 104.9937 248.3664 105.2707 248.4331 C 105.5477 248.4997 108.2473 248.5644 111.2699 248.577 C 117.7881 248.604 117.4658 248.4901 117.4658 250.7619 C 117.4658 252.4959 117.251 252.9249 116.304 253.0811 C 115.3445 253.2395 55.41864 253.239 53.7395 253.0807 C 52.487 252.9626 52.41797 252.9281 51.72156 252.0795 L 51.00043 251.2009 L 50.9494 233.7661 L 50.89832 216.3315 L 51.57397 215.7342 C 51.94556 215.4057 52.24963 215.0304 52.24963 214.9004 C 52.24963 214.7702 52.48743 214.4908 52.77814 214.2794 L 53.3067 213.8949 L 53.3067 200.5708 L 53.3067 187.2466 L 52.34564 186.1475 C 51.81714 185.5431 51.27795 184.8608 51.1474 184.6314 C 50.96173 184.3053 50.91266 178.0185 50.92236 155.8117 C 50.92908 140.1902 50.97913 127.2985 51.03351 127.1634 Z" fill="none" fill-opacity="1" stroke="#000000" stroke-opacity="1" stroke-width="0.3527778" stroke-linecap="round" stroke-linejoin="round"/>
<path d="M 68.00897 218.7505 C 68.00897 218.9077 68.22186 219.176 68.48199 219.3462 C 68.74213 219.5163 69.00397 219.8097 69.0639 219.9983 C 69.12384 220.1867 69.47479 220.6515 69.84381 221.0309 C 70.21283 221.4104 70.56659 221.9799 70.63007 222.2965 C 70.69586 222.6252 70.90204 222.9221 71.11017 222.988 C 71.31079 223.0515 71.5993 223.4008 71.75128 223.764 C 71.90326 224.1273 72.16492 224.4769 72.33276 224.5413 C 72.50061 224.6057 72.79803 224.9715 72.99365 225.3543 C 73.18933 225.7371 73.52832 226.2118 73.74701 226.4093 C 73.9657 226.6067 74.23962 227.0561 74.35583 227.4077 C 74.47205 227.7592 74.72168 228.0958 74.91052 228.1557 C 75.09937 228.2156 75.35986 228.5003 75.48956 228.7885 C 75.6192 229.0768 75.94348 229.5286 76.21027 229.7925 C 76.65125 230.2287 77.5329 231.5006 78.14673 232.5861 C 78.27881 232.8195 78.60315 233.1519 78.86749 233.325 C 79.13184 233.498 79.34814 233.8039 79.34814 234.005 C 79.34814 234.2059 79.56561 234.5413 79.83136 234.75 C 80.09717 234.9587 80.48621 235.5171 80.69604 235.9908 C 80.90594 236.4645 81.21149 236.9033 81.37518 236.966 C 81.53882 237.0286 81.76349 237.3402 81.87439 237.6582 C 82.12067 238.3634 82.58307 238.404 83.17743 237.7722 C 83.41772 237.5168 83.86096 237.2058 84.16248 237.081 C 84.46405 236.9565 84.84662 236.6471 85.01276 236.394 C 85.17889 236.1408 85.4361 235.9337 85.58423 235.9337 C 85.73236 235.9337 86.38806 235.4131 87.04132 234.7766 C 87.69458 234.1404 88.47186 233.4944 88.76855 233.3412 C 89.37604 233.0275 90.11072 232.176 90.11072 231.7856 C 90.11072 231.4104 88.57495 230.6758 87.90021 230.7283 C 87.23199 230.7803 86.52643 230.2229 86.34454 229.4993 C 86.27887 229.2384 86.14819 229.0249 86.05396 229.0249 C 85.95966 229.0249 85.70966 228.8523 85.49823 228.641 C 85.17358 228.317 85.11383 228.0013 85.11383 226.6123 L 85.11383 224.9675 L 83.86462 223.7683 C 83.005 222.9431 82.61444 222.4235 82.61243 222.1026 C 82.60754 221.3337 82.37433 221.1587 81.40979 221.2005 C 80.28815 221.2493 79.58228 220.7701 79.21259 219.7088 C 78.95813 218.9784 78.96661 218.9348 79.43646 218.5586 C 79.70502 218.3435 79.92401 218.0412 79.92316 217.8868 C 79.92224 217.7325 79.44891 217.1784 78.87128 216.6555 C 78.14282 215.9961 77.7196 215.4231 77.48999 214.7854 C 77.30786 214.2797 77.0072 213.8181 76.82196 213.7594 C 76.63666 213.7007 76.42664 213.4626 76.35529 213.2304 C 76.284 212.9984 75.9552 212.5476 75.62476 212.2287 C 75.29431 211.9099 74.93744 211.4956 74.83173 211.3083 C 74.67188 211.0251 74.51196 210.9945 73.88135 211.1269 C 73.24542 211.2604 73.09772 211.3839 72.96545 211.8934 C 72.76678 212.6592 70.95599 214.5443 70.05988 214.9182 C 69.68719 215.0737 69.32861 215.3696 69.263 215.576 C 69.19745 215.7824 68.8493 216.0483 68.4895 216.1669 C 68.12964 216.2855 67.78564 216.5385 67.72504 216.7292 C 67.66443 216.9198 67.44373 217.2306 67.23462 217.4195 C 66.85852 217.7594 66.86066 217.7669 67.4317 218.1136 C 67.74915 218.3064 68.00897 218.593 68.00897 218.7505 Z" fill="none" fill-opacity="1" stroke="#000000" stroke-opacity="1" stroke-width="0.3527778" stroke-linecap="round" stroke-linejoin="round"/>
</svg>