<?xml version="1.0" encoding="utf-8"?>
<!DOCTYPE svg PUBLIC "-//W3C//DTD SVG 1.1//EN" "http://www.w3.org/Graphics/SVG/1.1/DTD/svg11.dtd">
<!-- exported from Silhouette Studio Business Edition V4.1.479ssbe -->
<svg version="1.1" xmlns="http://www.w3.org/2000/svg" xmlns:xlink="http://www.w3.org/1999/xlink" width="1200mm" height="1200mm" viewBox="0 0 1200 1200">
<defs/>
<path d="M 411.4597 344.3288 C 410.3261 343.9651 409.8016 343.4243 409.3725 342.1764 L 409.131 341.4744 L 409.131 242.5321 L 409.131 143.5898 L 409.4355 142.7808 C 409.8611 141.6497 409.9922 141.4868 410.8351 141.0465 L 411.579 140.6578 L 419.9377 140.6189 C 424.535 140.5974 428.6315 140.6151 429.0408 140.6581 C 429.4855 140.7047 429.8945 140.8244 430.056 140.9552 L 430.3265 141.1742 L 430.3265 146.0146 L 430.3265 150.855 L 429.9758 151.2212 C 429.6406 151.571 429.5815 151.5874 428.654 151.5874 C 426.8495 151.5874 425.9798 152.0612 425.325 153.4001 L 425.0135 154.037 L 425.011 207.5498 C 425.0093 246.2798 425.0452 261.2606 425.1412 261.7793 C 425.3444 262.8776 425.4306 262.9169 425.6572 262.0146 C 425.7685 261.5711 425.9861 260.9067 426.1406 260.5382 C 426.295 260.1696 426.5099 259.3093 426.618 258.6261 C 426.726 257.943 426.8659 257.2877 426.9289 257.1701 C 426.9988 257.039 427.2396 256.9285 427.5505 256.8846 C 427.8292 256.8451 476.0159 256.8284 534.6313 256.8473 C 633.2099 256.8794 641.2376 256.8966 641.6373 257.0783 C 642.0958 257.2866 642.5856 257.8445 642.8289 258.4353 C 642.9203 258.6574 643.0025 259.7441 643.0461 261.3017 C 643.114 263.7405 643.1246 263.825 643.4326 264.3475 C 643.8458 265.0492 644.3449 265.4041 645.1201 265.5474 C 645.5189 265.6212 654.7969 265.6523 670.4638 265.6327 L 695.1785 265.6018 L 695.5804 265.3152 C 695.8013 265.1576 696.0565 264.8498 696.1478 264.6313 C 696.2886 264.2943 696.3166 255.8636 696.3311 209.0753 C 696.3467 159.9097 696.3288 153.8703 696.1666 153.4899 C 695.8878 152.8355 695.244 152.1763 694.5826 151.8683 C 694.0822 151.6352 693.7891 151.5896 692.7873 151.5886 C 691.4753 151.5873 691.1509 151.466 690.9141 150.8885 C 690.7596 150.5112 690.7822 141.5501 690.9387 141.1379 C 691.144 140.5983 691.2144 140.5946 700.7314 140.6271 L 709.7469 140.6578 L 710.4035 140.9686 C 711.2548 141.3713 711.6541 141.7876 711.9197 142.5492 C 712.1259 143.1403 712.1349 145.4704 712.1339 197.874 C 712.1332 227.9633 712.1329 254.3556 712.1329 256.5236 C 712.1329 258.6916 712.1334 278.8756 712.134 301.3769 L 712.1349 342.2882 L 711.8364 342.815 C 711.3865 343.6087 710.5803 344.2318 709.8151 344.3769 C 709.3859 344.4585 660.5222 344.4953 560.5571 344.49 C 439.9647 344.4835 411.8472 344.4532 411.4597 344.3288 Z" fill="none" fill-opacity="1" stroke="#000000" stroke-opacity="1" stroke-width="0.3527778" stroke-linecap="round" stroke-linejoin="round"/>
<path d="M 595.5344 335.5309 C 595.7037 335.2144 595.7059 261.1667 595.5366 260.7213 C 595.4755 260.5605 595.2246 260.276 594.9794 260.0888 L 594.5336 259.7485 L 551.7104 259.7485 C 510.9988 259.7485 508.8713 259.7589 508.5658 259.9592 C 508.389 260.0751 508.1598 260.2991 508.0564 260.4569 C 507.8864 260.7165 507.8685 264.2978 507.8708 297.9612 C 507.8723 324.2899 507.9106 335.2485 508.0016 335.4185 C 508.0723 335.5506 508.1985 335.6584 508.2823 335.6584 C 508.5183 335.6584 508.9374 335.0167 509.2296 334.2079 C 509.4431 333.6168 509.5758 333.4308 509.9119 333.2518 C 510.3164 333.0363 511.5642 333.0306 551.902 333.06 C 592.1906 333.0894 593.4825 333.0972 593.7196 333.3118 C 593.8541 333.4336 593.9993 333.7023 594.0421 333.9089 C 594.1499 334.4268 594.6302 335.2326 595.0085 335.5304 C 595.3929 335.8329 595.3729 335.8327 595.5344 335.5309 Z" fill="none" fill-opacity="1" stroke="#000000" stroke-opacity="1" stroke-width="0.3527778" stroke-linecap="round" stroke-linejoin="round"/>
<path d="M 671.6301 327.2606 C 671.8406 327.1066 672.4365 326.6624 672.9542 326.2731 C 673.4719 325.8839 674.1259 325.4043 674.4071 325.2071 C 674.6884 325.01 675.2858 324.5668 675.7345 324.2224 C 676.1832 323.8781 677.1011 323.1793 677.7745 322.6697 C 678.4479 322.16 679.4602 321.3937 680.0237 320.9667 C 680.5874 320.5397 681.4067 319.9315 681.8445 319.6152 C 682.2822 319.2989 682.7533 318.9342 682.891 318.8049 C 683.0289 318.6755 683.4172 318.3969 683.754 318.1855 C 684.3104 317.8365 687.0394 315.7776 691.0374 312.6907 C 691.8699 312.0479 692.8035 311.3564 693.1117 311.1542 C 693.8536 310.6672 694.3243 309.9608 694.2208 309.4897 C 694.1523 309.178 693.7019 308.496 692.7396 307.2491 C 692.5703 307.0297 692.2705 306.6181 692.0736 306.3343 C 691.5475 305.5765 690.3646 303.9641 689.719 303.1248 C 689.4093 302.7219 688.9583 302.11 688.717 301.7653 C 688.3184 301.1952 688.2369 301.1382 687.8231 301.1382 C 687.2061 301.1382 686.7998 301.3439 686.5188 301.7988 C 686.2987 302.1551 686.2948 302.217 686.4607 302.7637 C 686.772 303.79 686.7158 304.0365 686.0044 304.7653 C 685.6237 305.1554 685.0604 305.5667 684.6013 305.7895 C 684.1796 305.9943 683.637 306.2795 683.3958 306.4232 C 682.9766 306.673 682.924 306.6769 682.2017 306.5154 C 680.821 306.2068 680.4067 306.3169 678.9846 307.3703 L 678.1948 307.9555 L 678.2933 308.4586 C 678.3473 308.7355 678.4467 309.1468 678.5138 309.3727 C 678.6132 309.7061 678.5992 309.8243 678.4404 309.9998 C 678.1123 310.3625 677.6467 310.258 676.9291 309.6609 C 676.3802 309.2041 675.6122 309.5118 675.1949 310.3553 C 674.9747 310.8007 674.9701 310.8732 675.1332 311.3325 C 675.4001 312.0839 675.2686 312.4906 674.5675 313.082 C 673.7699 313.7548 673.0601 313.8698 672.5735 313.4054 C 671.9009 312.7637 670.8893 312.6492 670.297 313.1478 C 669.8195 313.5497 669.4041 314.2365 669.4845 314.4912 C 669.5199 314.6036 669.6335 314.9263 669.7369 315.2081 C 669.9424 315.7677 669.8853 316.2514 669.6006 316.3606 C 669.5009 316.3989 669.1365 316.2683 668.7909 316.0705 C 668.4453 315.8727 668.0485 315.7109 667.9091 315.7109 C 667.7695 315.7109 666.9164 316.2653 666.0129 316.9431 C 665.1095 317.6209 664.126 318.348 663.8271 318.5589 C 663.5283 318.7697 663.1879 319.1044 663.0708 319.303 C 662.8627 319.6552 662.8645 319.6771 663.1365 320.2254 C 663.501 320.96 664.0525 321.325 664.7975 321.325 C 665.4404 321.325 665.8031 321.6014 666.5797 322.6839 C 666.8094 323.0043 667.228 323.5689 667.5098 323.9383 C 667.7916 324.3077 668.114 324.762 668.2262 324.9481 C 668.5703 325.5187 669.9017 327.1439 670.2484 327.4167 C 670.639 327.7241 671.0613 327.6763 671.6301 327.2606 Z" fill="none" fill-opacity="1" stroke="#000000" stroke-opacity="1" stroke-width="0.3527778" stroke-linecap="round" stroke-linejoin="round"/>
<path d="M 710.4915 260.3914 C 710.7086 260.2725 710.9224 260.026 710.9989 259.8062 C 711.1438 259.3903 711.1677 253.5314 711.0264 253.0117 C 710.9791 252.8374 710.7729 252.6254 710.5309 252.5024 C 710.1488 252.3083 709.6486 252.2943 704.1185 252.3232 L 698.1211 252.3547 L 697.79 252.6859 L 697.4587 253.017 L 697.4587 256.4061 C 697.4587 259.6262 697.4707 259.8085 697.6976 260.0629 C 698.2212 260.6502 698.2632 260.6537 704.3849 260.6243 C 709.5475 260.5995 710.1536 260.5765 710.4915 260.3914 Z" fill="none" fill-opacity="1" stroke="#000000" stroke-opacity="1" stroke-width="0.3527778" stroke-linecap="round" stroke-linejoin="round"/>
<path d="M 705.9067 171.8978 C 706.441 171.6924 706.81 171.422 707.4814 170.7438 C 708.6658 169.5474 708.9866 168.8743 709.0622 167.426 C 709.1225 166.2723 708.9813 165.5818 708.4859 164.6076 C 708.1829 164.0117 707.0668 162.8853 706.4849 162.5883 C 705.6616 162.1681 704.5052 161.9825 703.4529 162.1017 C 701.9547 162.2713 701.6306 162.4162 700.6177 163.3693 C 699.8923 164.052 699.6158 164.4137 699.3065 165.0851 C 698.925 165.9129 698.9155 165.9719 698.9568 167.275 C 698.9991 168.6046 699.003 168.6202 699.5042 169.4642 C 699.9639 170.2383 700.8361 171.1642 701.5451 171.6306 C 702.5211 172.2728 704.6003 172.4002 705.9067 171.8978 Z" fill="none" fill-opacity="1" stroke="#000000" stroke-opacity="1" stroke-width="0.3527778" stroke-linecap="round" stroke-linejoin="round"/>
<path d="M 445.1382 151.2606 C 444.9714 151.0805 444.8052 150.7713 444.7689 150.5735 C 444.7328 150.3757 444.7196 148.1862 444.7393 145.7079 L 444.7749 141.2019 L 445.0469 140.9299 L 445.3188 140.658 L 560.6021 140.658 C 671.0642 140.658 675.894 140.6669 676.0986 140.871 C 676.2938 141.0661 676.3173 141.4799 676.3741 145.7684 C 676.4084 148.3448 676.4084 150.5612 676.3741 150.6938 C 676.3398 150.8263 676.2168 151.0682 676.1006 151.2313 L 675.8892 151.5279 L 560.6654 151.5579 L 445.4417 151.588 L 445.1382 151.2606 Z" fill="none" fill-opacity="1" stroke="#000000" stroke-opacity="1" stroke-width="0.3527778" stroke-linecap="round" stroke-linejoin="round"/>
</svg>