<?xml version="1.0" encoding="UTF-8" standalone="no"?>
<!-- exported from Silhouette Studio Business Edition V4.1.479ssbe -->

<svg
   xmlns:dc="http://purl.org/dc/elements/1.1/"
   xmlns:cc="http://creativecommons.org/ns#"
   xmlns:rdf="http://www.w3.org/1999/02/22-rdf-syntax-ns#"
   xmlns:svg="http://www.w3.org/2000/svg"
   xmlns="http://www.w3.org/2000/svg"
   xmlns:sodipodi="http://sodipodi.sourceforge.net/DTD/sodipodi-0.dtd"
   xmlns:inkscape="http://www.inkscape.org/namespaces/inkscape"
   version="1.1"
   width="1200mm"
   height="1200mm"
   viewBox="0 0 1200 1200"
   id="svg14"
   sodipodi:docname="x240_x250_pr.svg"
   inkscape:version="0.92.3 (2405546, 2018-03-11)">
  <metadata
     id="metadata18">
    <rdf:RDF>
      <cc:Work
         rdf:about="">
        <dc:format>image/svg+xml</dc:format>
        <dc:type
           rdf:resource="http://purl.org/dc/dcmitype/StillImage" />
      </cc:Work>
    </rdf:RDF>
  </metadata>
  <sodipodi:namedview
     pagecolor="#ffffff"
     bordercolor="#666666"
     borderopacity="1"
     objecttolerance="10"
     gridtolerance="10"
     guidetolerance="10"
     inkscape:pageopacity="0"
     inkscape:pageshadow="2"
     inkscape:window-width="1284"
     inkscape:window-height="921"
     id="namedview16"
     showgrid="false"
     inkscape:zoom="0.20813889"
     inkscape:cx="1830.6315"
     inkscape:cy="3395.382"
     inkscape:window-x="0"
     inkscape:window-y="28"
     inkscape:window-maximized="1"
     inkscape:current-layer="svg14" />
  <defs
     id="defs2" />
  <path
     d="M 183.0336 258.9322 C 181.9 258.5685 181.3755 258.0277 180.9464 256.7798 L 180.705 256.0779 L 180.705 157.1355 L 180.705 58.19324 L 181.0094 57.38428 C 181.4351 56.25317 181.5662 56.0903 182.4091 55.64999 L 183.153 55.26129 L 191.5116 55.22232 C 196.1089 55.2009 200.2056 55.21857 200.6149 55.26154 C 201.0596 55.3082 201.4684 55.42786 201.6299 55.55862 L 201.9004 55.77765 L 201.9004 60.61801 L 201.9004 65.45844 L 201.5497 65.82465 C 201.2145 66.17453 201.1554 66.19086 200.2279 66.19086 C 198.4235 66.19086 197.5537 66.66461 196.8989 68.00351 L 196.5874 68.64044 L 196.585 122.1533 C 196.5833 160.8832 196.6193 175.864 196.7152 176.3828 C 196.9185 177.481 197.0045 177.5204 197.2311 176.618 C 197.3424 176.1746 197.5601 175.5102 197.7145 175.1416 C 197.8689 174.7731 198.0839 173.9128 198.1919 173.2296 C 198.2999 172.5464 198.4399 171.8911 198.5029 171.7735 C 198.5729 171.6425 198.8135 171.532 199.1244 171.488 C 199.4031 171.4486 247.59 171.4319 306.2053 171.4509 C 404.7839 171.4829 412.8115 171.5001 413.2112 171.6817 C 413.6697 171.8901 414.1595 172.448 414.4028 173.0388 C 414.4943 173.2609 414.5764 174.3476 414.62 175.9051 C 414.6879 178.344 414.6986 178.4284 415.0066 178.951 C 415.4198 179.6527 415.9188 180.0075 416.694 180.1508 C 417.0928 180.2246 426.371 180.2558 442.0378 180.2361 L 466.7526 180.2053 L 467.1543 179.9187 C 467.3752 179.7611 467.6305 179.4533 467.7218 179.2348 C 467.8627 178.8977 467.8905 170.4671 467.905 123.6788 C 467.9207 74.51312 467.9028 68.47379 467.7406 68.09338 C 467.4618 67.43896 466.8179 66.77979 466.1565 66.47174 C 465.6561 66.23871 465.363 66.19308 464.3612 66.19205 C 463.0492 66.1908 462.725 66.06955 462.4882 65.49203 C 462.3336 65.11469 462.3562 56.15363 462.5127 55.74139 C 462.718 55.20178 462.7883 55.19806 472.3053 55.23053 L 481.3209 55.26129 L 481.9774 55.57202 C 482.8287 55.97476 483.228 56.39108 483.4937 57.15262 C 483.6998 57.74371 483.7089 60.07388 483.7078 112.4774 C 483.7072 142.5667 483.7069 168.959 483.7069 171.127 C 483.7069 173.295 483.7074 193.4791 483.708 215.9803 L 483.709 256.8916 L 483.4104 257.4184 C 482.9606 258.2121 482.1542 258.8353 481.389 258.9803 C 480.9598 259.0619 432.0962 259.0987 332.131 259.0934 C 211.5386 259.0869 183.4211 259.0566 183.0336 258.9322 Z"
     fill="none"
     fill-opacity="1"
     stroke="#000000"
     stroke-opacity="1"
     stroke-width="0.3527778"
     stroke-linecap="round"
     stroke-linejoin="round"
     id="path4" />
  <path
     d="M 367.1088 250.1343 C 367.2781 249.8179 367.2803 175.7701 367.111 175.3247 C 367.0498 175.1639 366.799 174.8794 366.5537 174.6923 L 366.1079 174.3519 L 323.2848 174.3519 C 282.5731 174.3519 280.4457 174.3622 280.1401 174.5626 C 279.9634 174.6784 279.7341 174.9025 279.6307 175.0604 C 279.4607 175.3199 279.4429 178.9012 279.4452 212.5646 C 279.4467 238.8934 279.485 249.8519 279.5759 250.0219 C 279.6466 250.154 279.7728 250.2618 279.8567 250.2618 C 280.0927 250.2618 280.5117 249.6201 280.804 248.8113 C 281.0175 248.2202 281.1501 248.0342 281.4862 247.8552 C 281.8907 247.6397 283.1385 247.634 323.4763 247.6633 C 363.7649 247.6928 365.0568 247.7006 365.2938 247.9152 C 365.4283 248.0369 365.5736 248.3057 365.6165 248.5123 C 365.7242 249.0302 366.2046 249.8361 366.5829 250.1339 C 366.9673 250.4363 366.9473 250.4362 367.1088 250.1343 Z"
     fill="none"
     fill-opacity="1"
     stroke="#000000"
     stroke-opacity="1"
     stroke-width="0.3527778"
     stroke-linecap="round"
     stroke-linejoin="round"
     id="path6" />
  <path
     d="M 443.2043 241.864 C 443.4148 241.7101 444.0106 241.2659 444.5284 240.8767 C 445.046 240.4875 445.7001 240.0078 445.9813 239.8106 C 446.2626 239.6135 446.8601 239.1703 447.3087 238.8259 C 447.7574 238.4816 448.6754 237.7828 449.3488 237.2732 C 450.0221 236.7635 451.0344 235.9973 451.598 235.5702 C 452.1616 235.1432 452.9811 234.535 453.4187 234.2187 C 453.8564 233.9024 454.3274 233.5378 454.4651 233.4084 C 454.603 233.2791 454.9913 233.0003 455.3281 232.789 C 455.8845 232.44 458.6136 230.3811 462.6117 227.2942 C 463.4441 226.6513 464.3776 225.9599 464.6858 225.7577 C 465.4277 225.2707 465.8986 224.5643 465.795 224.0932 C 465.7266 223.7815 465.276 223.0995 464.3137 221.8526 C 464.1444 221.6331 463.8448 221.2216 463.6478 220.9378 C 463.1217 220.18 461.9387 218.5675 461.2931 217.7282 C 460.9834 217.3254 460.5325 216.7135 460.2914 216.3687 C 459.8927 215.7987 459.8112 215.7417 459.3975 215.7417 C 458.7803 215.7417 458.3739 215.9474 458.0929 216.4023 C 457.8728 216.7586 457.869 216.8206 458.035 217.3673 C 458.3463 218.3936 458.29 218.64 457.5786 219.3688 C 457.1979 219.7589 456.6345 220.1701 456.1755 220.393 C 455.7537 220.5978 455.2111 220.883 454.9698 221.0266 C 454.5507 221.2765 454.4983 221.2804 453.7759 221.1189 C 452.3954 220.8103 451.981 220.9204 450.5588 221.9738 L 449.769 222.559 L 449.8674 223.0621 C 449.9214 223.339 450.0208 223.7504 450.0879 223.9763 C 450.1873 224.3096 450.1735 224.4278 450.0146 224.6034 C 449.6865 224.966 449.2209 224.8616 448.5034 224.2644 C 447.9545 223.8077 447.1863 224.1153 446.769 224.9588 C 446.5488 225.4041 446.5442 225.4767 446.7073 225.936 C 446.9742 226.6874 446.8427 227.0941 446.1417 227.6855 C 445.344 228.3582 444.6343 228.4734 444.1478 228.0089 C 443.4751 227.3672 442.4635 227.2527 441.8712 227.7513 C 441.3937 228.1532 440.9783 228.84 441.0587 229.0948 C 441.0942 229.2071 441.2076 229.5298 441.311 229.8116 C 441.5165 230.3712 441.4594 230.8549 441.1747 230.9641 C 441.075 231.0024 440.7108 230.8718 440.3651 230.674 C 440.0197 230.4762 439.6227 230.3144 439.4833 230.3144 C 439.3439 230.3144 438.4906 230.8688 437.5872 231.5466 C 436.6837 232.2244 435.7002 232.9515 435.4014 233.1624 C 435.1025 233.3732 434.7621 233.7079 434.6451 233.9065 C 434.4369 234.2587 434.4386 234.2807 434.7106 234.8289 C 435.0751 235.5636 435.6266 235.9284 436.3716 235.9284 C 437.0145 235.9284 437.3772 236.2049 438.1538 237.2874 C 438.3835 237.6078 438.8022 238.1724 439.0839 238.5418 C 439.3657 238.9112 439.6882 239.3655 439.8005 239.5516 C 440.1447 240.1222 441.476 241.7475 441.8225 242.0203 C 442.2131 242.3276 442.6355 242.2798 443.2043 241.864 Z"
     fill="none"
     fill-opacity="1"
     stroke="#000000"
     stroke-opacity="1"
     stroke-width="0.3527778"
     stroke-linecap="round"
     stroke-linejoin="round"
     id="path8" />
  <path
     d="M 477.4807 86.50137 C 478.015 86.2959 478.384 86.02551 479.0554 85.34735 C 480.2399 84.15091 480.5607 83.47781 480.6362 82.02951 C 480.6965 80.87579 480.5553 80.1853 480.0599 79.21109 C 479.757 78.61523 478.6409 77.4888 478.059 77.19186 C 477.2356 76.77167 476.0792 76.58603 475.027 76.70517 C 473.5287 76.87479 473.2046 77.01968 472.1918 77.97284 C 471.4663 78.65549 471.1898 79.01715 470.8805 79.6886 C 470.499 80.51642 470.4895 80.57541 470.5309 81.87854 C 470.5731 83.20816 470.5769 83.22372 471.0781 84.06769 C 471.5378 84.84183 472.4102 85.76767 473.1191 86.23413 C 474.0951 86.87631 476.1743 87.00369 477.4807 86.50137 Z"
     fill="none"
     fill-opacity="1"
     stroke="#000000"
     stroke-opacity="1"
     stroke-width="0.3527778"
     stroke-linecap="round"
     stroke-linejoin="round"
     id="path10" />
  <path
     d="M 216.7123 65.86401 C 216.5456 65.68396 216.3793 65.37479 216.3431 65.17703 C 216.3069 64.97922 216.2938 62.78964 216.3134 60.31134 L 216.3491 55.80536 L 216.621 55.53339 L 216.893 55.26147 L 332.1763 55.26147 C 442.6385 55.26147 447.4682 55.27039 447.6728 55.47449 C 447.8679 55.66956 447.8913 56.08331 447.9483 60.37189 C 447.9825 62.94827 447.9825 65.1647 447.9483 65.29724 C 447.9139 65.42978 447.7908 65.67163 447.6747 65.83475 L 447.4633 66.13132 L 332.2396 66.16135 L 217.0158 66.19144 L 216.7123 65.86401 Z"
     fill="none"
     fill-opacity="1"
     stroke="#000000"
     stroke-opacity="1"
     stroke-width="0.3527778"
     stroke-linecap="round"
     stroke-linejoin="round"
     id="path12" />
  <path
     inkscape:connector-curvature="0"
     style="fill:none;fill-opacity:1;stroke:#000000;stroke-width:0.35277781;stroke-linecap:round;stroke-linejoin:round;stroke-opacity:1"
     d="m 519.77007,259.64289 c -1.1336,-0.3637 -1.6581,-0.9045 -2.0872,-2.1524 l -0.2414,-0.7019 v -98.9424 -98.942236 l 0.3044,-0.80896 c 0.4257,-1.131107 0.5568,-1.293977 1.3997,-1.734287 l 0.7439,-0.3887 8.3586,-0.039 c 4.5973,-0.0214 8.694,-0.004 9.1033,0.0392 0.4447,0.0467 0.8535,0.16632 1.015,0.29708 l 0.2705,0.21903 v 4.840357 4.840427 l -0.3507,0.36621 c -0.3352,0.34988 -0.3943,0.36621 -1.3218,0.36621 -1.8044,0 -2.6742,0.47375 -3.329,1.812647 l -0.3115,0.63693 -0.002,53.512842 c -0.002,38.7299 0.0343,53.7107 0.1302,54.2295 0.2033,1.0982 0.2893,1.1376 0.5159,0.2352 0.1113,-0.4434 0.329,-1.1078 0.4834,-1.4764 0.1544,-0.3685 0.3694,-1.2288 0.4774,-1.912 0.108,-0.6832 0.248,-1.3385 0.311,-1.4561 0.07,-0.131 0.3106,-0.2415 0.6215,-0.2855 0.2787,-0.0394 48.4656,-0.0561 107.0809,-0.0371 98.5786,0.032 106.6062,0.0492 107.0059,0.2308 0.4585,0.2084 0.9483,0.7663 1.1916,1.3571 0.0915,0.2221 0.1736,1.3088 0.2172,2.8663 0.0679,2.4389 0.0786,2.5233 0.3866,3.0459 0.4132,0.7017 0.9122,1.0565 1.6874,1.1998 0.3988,0.0738 9.677,0.105 25.3438,0.0853 l 24.71477,-0.0308 0.4017,-0.2866 c 0.2209,-0.1576 0.47617,-0.4654 0.56747,-0.6839 0.1409,-0.3371 0.1687,-8.7677 0.1832,-55.556 0.016,-49.165665 0,-55.204992 -0.1644,-55.585402 -0.27877,-0.654417 -0.92267,-1.313587 -1.58407,-1.621637 -0.5004,-0.23303 -0.7935,-0.27866 -1.7953,-0.27969 -1.312,-10e-4 -1.6362,-0.1225 -1.873,-0.70002 -0.1546,-0.37734 -0.132,-9.338394 0.025,-9.750634 0.2053,-0.53961 0.2756,-0.54333 9.79257,-0.51086 l 9.01554,0.0308 0.6565,0.31073 c 0.8513,0.40274 1.2506,0.81906 1.51627,1.580597 0.2061,0.59109 0.2152,2.92126 0.2141,55.324756 0,30.0893 0,56.4816 0,58.6496 0,2.168 0,22.3521 0,44.8533 v 40.9113 l -0.2986,0.5268 c -0.44977,0.7937 -1.25617,1.4169 -2.02137,1.5619 -0.4292,0.0816 -49.2927,0.1184 -149.2579,0.1131 -120.5924,-0.006 -148.7099,-0.0368 -149.0974,-0.1612 z"
     id="path4-3" />
  <path
     inkscape:connector-curvature="0"
     style="fill:none;fill-opacity:1;stroke:#000000;stroke-width:0.35277781;stroke-linecap:round;stroke-linejoin:round;stroke-opacity:1"
     d="m 703.84527,250.84499 c 0.1693,-0.3164 0.1715,-74.3642 0.002,-74.8096 -0.0612,-0.1608 -0.312,-0.4453 -0.5573,-0.6324 l -0.4458,-0.3404 h -42.82322 c -40.7117,0 -42.8391,0.0103 -43.1447,0.2107 -0.17671,0.1158 -0.406,0.3399 -0.50941,0.4978 -0.17,0.2595 -0.18779,3.8408 -0.18549,37.5042 0.002,26.3288 0.0398,37.2873 0.1307,37.4573 0.0707,0.1321 0.1969,0.2399 0.2808,0.2399 0.236,0 0.655,-0.6417 0.9473,-1.4505 0.2135,-0.5911 0.3461,-0.7771 0.6822,-0.9561 0.4045,-0.2155 1.6523,-0.2212 41.9901,-0.1919 40.2886,0.0295 41.5805,0.0373 41.8175,0.2519 0.1345,0.1217 0.2798,0.3905 0.3227,0.5971 0.1077,0.5179 0.5881,1.3238 0.9664,1.6216 0.3844,0.3024 0.3644,0.3023 0.5259,5.3e-4 z"
     id="path6-6" />
  <path
     inkscape:connector-curvature="0"
     style="fill:none;fill-opacity:1;stroke:#000000;stroke-width:0.35277781;stroke-linecap:round;stroke-linejoin:round;stroke-opacity:1"
     d="m 779.94077,242.57469 c 0.2105,-0.1539 0.8063,-0.5981 1.3241,-0.9873 0.5176,-0.3892 1.17171,-0.8689 1.45291,-1.0661 0.28128,-0.1971 0.87879,-0.6403 1.32739,-0.9847 0.4487,-0.3443 1.3667,-1.0431 2.04009,-1.5527 0.67332,-0.5097 1.68561,-1.2759 2.2492,-1.703 0.56362,-0.427 1.38311,-1.0352 1.8207,-1.3515 0.4377,-0.3163 0.90872,-0.6809 1.0464,-0.8103 0.13791,-0.1293 0.52621,-0.4081 0.86302,-0.6194 0.55639,-0.349 3.28549,-2.4079 7.28356,-5.4948 0.8324,-0.6429 1.7659,-1.3343 2.0741,-1.5365 0.7419,-0.487 1.2128,-1.1934 1.1092,-1.6645 -0.068,-0.3117 -0.519,-0.9937 -1.4813,-2.2406 -0.1693,-0.2195 -0.4689,-0.631 -0.6659,-0.9148 -0.5261,-0.7578 -1.70907,-2.3703 -2.35467,-3.2096 -0.3097,-0.4028 -0.7606,-1.0147 -1.0017,-1.3595 -0.3987,-0.57 -0.4802,-0.627 -0.8939,-0.627 -0.6172,0 -1.0236,0.2057 -1.3046,0.6606 -0.2201,0.3563 -0.2239,0.4183 -0.058,0.965 0.3112,1.0263 0.2549,1.2727 -0.4564,2.0015 -0.3807,0.3901 -0.94417,0.8013 -1.40312,1.0242 -0.4218,0.2048 -0.9644,0.49 -1.2057,0.6336 -0.4191,0.2499 -0.47149,0.2538 -1.19388,0.0923 -1.38052,-0.3086 -1.79491,-0.1985 -3.2171,0.8549 l -0.78981,0.5852 0.0984,0.5031 c 0.054,0.2769 0.15341,0.6883 0.22051,0.9142 0.0994,0.3333 0.0856,0.4515 -0.0733,0.6271 -0.32808,0.3626 -0.7937,0.2582 -1.51119,-0.339 -0.54891,-0.4567 -1.3171,-0.1491 -1.7344,0.6944 -0.22021,0.4453 -0.22479,0.5179 -0.0617,0.9772 0.26691,0.7514 0.13539,1.1581 -0.5656,1.7495 -0.79769,0.6727 -1.5074,0.7879 -1.9939,0.3234 -0.6727,-0.6417 -1.6843,-0.7562 -2.2766,-0.2576 -0.4775,0.4019 -0.8929,1.0887 -0.8125,1.3435 0.0355,0.1123 0.1489,0.435 0.2523,0.7168 0.2055,0.5596 0.1484,1.0433 -0.1363,1.1525 -0.0997,0.0383 -0.4639,-0.0923 -0.8096,-0.2901 -0.3454,-0.1978 -0.7424,-0.3596 -0.8818,-0.3596 -0.1394,0 -0.9927,0.5544 -1.8961,1.2322 -0.9035,0.6778 -1.887,1.4049 -2.1858,1.6158 -0.2989,0.2108 -0.6393,0.5455 -0.7563,0.7441 -0.2082,0.3522 -0.2065,0.3742 0.0655,0.9224 0.3645,0.7347 0.916,1.0995 1.661,1.0995 0.6429,0 1.0056,0.2765 1.7822,1.359 0.2297,0.3204 0.6484,0.885 0.9301,1.2544 0.2818,0.3694 0.6043,0.8237 0.7166,1.0098 0.3442,0.5706 1.6755,2.1959 2.022,2.4687 0.3906,0.3073 0.813,0.2595 1.3818,-0.1563 z"
     id="path8-7" />
  <path
     inkscape:connector-curvature="0"
     style="fill:none;fill-opacity:1;stroke:#000000;stroke-width:0.35277781;stroke-linecap:round;stroke-linejoin:round;stroke-opacity:1"
     d="m 814.21708,87.212069 c 0.5343,-0.20547 0.90327,-0.47586 1.57467,-1.15402 1.1845,-1.19644 1.5053,-1.86954 1.5808,-3.317837 0.06,-1.15372 -0.081,-1.84421 -0.5763,-2.81842 -0.3029,-0.59586 -1.419,-1.722287 -2.0009,-2.019227 -0.82337,-0.42019 -1.97977,-0.60583 -3.03197,-0.48669 -1.4983,0.16962 -1.8224,0.31451 -2.83517,1.26767 -0.7255,0.682647 -1.002,1.044307 -1.3113,1.715757 -0.3815,0.82782 -0.391,0.88681 -0.3496,2.18994 0.042,1.32962 0.046,1.34518 0.5472,2.189147 0.4597,0.77414 1.3321,1.69998 2.04097,2.16644 0.976,0.64218 3.0552,0.76956 4.3616,0.26724 z"
     id="path10-5" />
  <path
     inkscape:connector-curvature="0"
     style="fill:none;fill-opacity:1;stroke:#000000;stroke-width:0.35277781;stroke-linecap:round;stroke-linejoin:round;stroke-opacity:1"
     d="m 553.44877,66.574721 c -0.16671,-0.18005 -0.333,-0.48922 -0.3692,-0.68698 -0.0362,-0.19781 -0.0493,-2.38739 -0.0297,-4.865687 l 0.0357,-4.505977 0.27189,-0.27197 0.272,-0.27192 h 115.28331 c 110.4622,0 115.29189,0.009 115.49649,0.21302 0.1951,0.19507 0.21852,0.60882 0.27551,4.897397 0.0342,2.576377 0.0342,4.792807 0,4.925347 -0.0344,0.13254 -0.15751,0.37439 -0.2736,0.53751 l -0.21141,0.29657 -115.22369,0.03 -115.2238,0.0301 z"
     id="path12-3" />
  <path
     inkscape:connector-curvature="0"
     style="fill:none;fill-opacity:1;stroke:#000000;stroke-width:0.35277781;stroke-linecap:round;stroke-linejoin:round;stroke-opacity:1"
     d="m 185.06171,475.33018 c -1.1336,-0.3637 -1.6581,-0.9045 -2.0872,-2.1524 l -0.2414,-0.7019 v -98.9424 -98.94226 l 0.3044,-0.80896 c 0.4257,-1.13111 0.5568,-1.29398 1.3997,-1.73429 l 0.7439,-0.3887 8.3586,-0.039 c 4.5973,-0.0214 8.694,-0.004 9.1033,0.0392 0.4447,0.0467 0.8535,0.16632 1.015,0.29708 l 0.2705,0.21903 v 4.84036 4.84043 l -0.3507,0.36621 c -0.3352,0.34988 -0.3943,0.36621 -1.3218,0.36621 -1.8044,0 -2.6742,0.47375 -3.329,1.81265 l -0.3115,0.63693 -0.002,53.51285 c -0.002,38.72991 0.0343,53.71071 0.1302,54.22951 0.2033,1.0982 0.2893,1.1376 0.5159,0.2352 0.1113,-0.4434 0.329,-1.1078 0.4834,-1.4764 0.1544,-0.3685 0.3694,-1.2288 0.4774,-1.912 0.108,-0.6832 0.248,-1.3385 0.311,-1.4561 0.07,-0.131 0.3106,-0.2415 0.6215,-0.2855 0.2787,-0.0394 48.4656,-0.0561 107.0809,-0.0371 98.57858,0.032 106.60622,0.0492 107.00592,0.2308 0.4585,0.2084 0.9483,0.7663 1.1916,1.3571 0.091,0.2221 0.1736,1.3088 0.2172,2.8663 0.068,2.4389 0.079,2.5233 0.3866,3.0459 0.4132,0.7017 0.91217,1.0565 1.68737,1.1998 0.3988,0.0738 9.67697,0.105 25.34368,0.0853 l 24.71465,-0.0308 0.4017,-0.2866 c 0.2209,-0.1576 0.4762,-0.4654 0.5675,-0.6839 0.1409,-0.3371 0.1687,-8.7677 0.1832,-55.55601 0.016,-49.16567 0,-55.205 -0.1644,-55.58541 -0.2788,-0.65442 -0.9227,-1.31359 -1.5841,-1.62164 -0.5004,-0.23303 -0.7935,-0.27866 -1.7953,-0.27969 -1.31197,-0.001 -1.63617,-0.1225 -1.87297,-0.70002 -0.1546,-0.37734 -0.132,-9.3384 0.025,-9.75064 0.2053,-0.53961 0.2756,-0.54333 9.79254,-0.51086 l 9.01554,0.0308 0.6565,0.31073 c 0.8513,0.40274 1.2506,0.81906 1.5163,1.5806 0.2061,0.59109 0.2152,2.92126 0.2141,55.32477 0,30.0893 0,56.48161 0,58.64961 0,2.168 0,22.3521 0,44.8533 v 40.9113 l -0.2986,0.5268 c -0.4498,0.7937 -1.2562,1.4169 -2.0214,1.5619 -0.4292,0.0816 -49.29253,0.1184 -149.25765,0.1131 -120.5924,-0.006 -148.7099,-0.0368 -149.0974,-0.1612 z"
     id="path4-5" />
  <path
     inkscape:connector-curvature="0"
     style="fill:none;fill-opacity:1;stroke:#000000;stroke-width:0.35277781;stroke-linecap:round;stroke-linejoin:round;stroke-opacity:1"
     d="m 369.1369,466.53228 c 0.1693,-0.3164 0.1715,-74.3642 0,-74.8096 -0.061,-0.1608 -0.312,-0.4453 -0.5573,-0.6324 l -0.4458,-0.3404 h -42.82321 c -40.7117,0 -42.8391,0.0103 -43.1447,0.2107 -0.1767,0.1158 -0.406,0.3399 -0.5094,0.4978 -0.17,0.2595 -0.1878,3.8408 -0.1855,37.5042 0.002,26.3288 0.0398,37.2873 0.1307,37.4573 0.0707,0.1321 0.1969,0.2399 0.2808,0.2399 0.236,0 0.655,-0.6417 0.9473,-1.4505 0.2135,-0.5911 0.3461,-0.7771 0.6822,-0.9561 0.4045,-0.2155 1.6523,-0.2212 41.9901,-0.1919 40.28861,0.0295 41.58051,0.0373 41.81751,0.2519 0.1345,0.1217 0.2798,0.3905 0.3227,0.5971 0.1077,0.5179 0.5881,1.3238 0.9664,1.6216 0.3844,0.3024 0.3644,0.3023 0.5259,5.3e-4 z"
     id="path6-62" />
  <path
     inkscape:connector-curvature="0"
     style="fill:none;fill-opacity:1;stroke:#000000;stroke-width:0.35277781;stroke-linecap:round;stroke-linejoin:round;stroke-opacity:1"
     d="m 445.23225,458.26198 c 0.2105,-0.1539 0.8063,-0.5981 1.3241,-0.9873 0.5176,-0.3892 1.1717,-0.8689 1.4529,-1.0661 0.2813,-0.1971 0.8788,-0.6403 1.3274,-0.9847 0.44867,-0.3443 1.36667,-1.0431 2.04007,-1.5527 0.6733,-0.5097 1.6856,-1.2759 2.2492,-1.703 0.5636,-0.427 1.38307,-1.0352 1.82067,-1.3515 0.4377,-0.3163 0.9087,-0.6809 1.0464,-0.8103 0.1379,-0.1293 0.5262,-0.4081 0.863,-0.6194 0.5564,-0.349 3.28547,-2.4079 7.28357,-5.4948 0.8324,-0.6429 1.76587,-1.3343 2.07407,-1.5365 0.7419,-0.487 1.2128,-1.1934 1.1092,-1.6645 -0.068,-0.3117 -0.519,-0.9937 -1.4813,-2.2406 -0.1693,-0.2195 -0.4689,-0.631 -0.6659,-0.9148 -0.52607,-0.7578 -1.70907,-2.3703 -2.35467,-3.2096 -0.3097,-0.4028 -0.7606,-1.0147 -1.0017,-1.3595 -0.3987,-0.57 -0.4802,-0.627 -0.8939,-0.627 -0.6172,0 -1.0236,0.2057 -1.30457,0.6606 -0.2201,0.3563 -0.2239,0.4183 -0.058,0.965 0.31127,1.0263 0.25497,1.2727 -0.4564,2.0015 -0.3807,0.3901 -0.9441,0.8013 -1.4031,1.0242 -0.4218,0.2048 -0.9644,0.49 -1.2057,0.6336 -0.4191,0.2499 -0.4715,0.2538 -1.1939,0.0923 -1.38047,-0.3086 -1.79487,-0.1985 -3.21707,0.8549 l -0.7898,0.5852 0.098,0.5031 c 0.054,0.2769 0.1534,0.6883 0.2205,0.9142 0.099,0.3333 0.086,0.4515 -0.073,0.6271 -0.3281,0.3626 -0.7937,0.2582 -1.5112,-0.339 -0.5489,-0.4567 -1.31707,-0.1491 -1.73437,0.6944 -0.2202,0.4453 -0.2248,0.5179 -0.062,0.9772 0.2669,0.7514 0.1354,1.1581 -0.5656,1.7495 -0.7977,0.6727 -1.5074,0.7879 -1.9939,0.3234 -0.6727,-0.6417 -1.6843,-0.7562 -2.27657,-0.2576 -0.4775,0.4019 -0.8929,1.0887 -0.8125,1.3435 0.035,0.1123 0.1489,0.435 0.2523,0.7168 0.2055,0.5596 0.1484,1.0433 -0.1363,1.1525 -0.1,0.0383 -0.4639,-0.0923 -0.8096,-0.2901 -0.3454,-0.1978 -0.7424,-0.3596 -0.8818,-0.3596 -0.1394,0 -0.9927,0.5544 -1.8961,1.2322 -0.90347,0.6778 -1.88697,1.4049 -2.18577,1.6158 -0.2989,0.2108 -0.6393,0.5455 -0.7563,0.7441 -0.2082,0.3522 -0.2065,0.3742 0.065,0.9224 0.3645,0.7347 0.916,1.0995 1.661,1.0995 0.6429,0 1.00557,0.2765 1.78217,1.359 0.2297,0.3204 0.6484,0.885 0.9301,1.2544 0.2818,0.3694 0.6043,0.8237 0.7166,1.0098 0.3442,0.5706 1.6755,2.1959 2.022,2.4687 0.3906,0.3073 0.81297,0.2595 1.38177,-0.1563 z"
     id="path8-9" />
  <path
     inkscape:connector-curvature="0"
     style="fill:none;fill-opacity:1;stroke:#000000;stroke-width:0.35277781;stroke-linecap:round;stroke-linejoin:round;stroke-opacity:1"
     d="m 479.50847,302.89935 c 0.5343,-0.20547 0.9033,-0.47587 1.5747,-1.15402 1.18447,-1.19645 1.50527,-1.86955 1.58077,-3.31785 0.06,-1.15371 -0.081,-1.8442 -0.5763,-2.81841 -0.3029,-0.59586 -1.41897,-1.72229 -2.00087,-2.01923 -0.8234,-0.42019 -1.9798,-0.60583 -3.032,-0.48669 -1.49827,0.16962 -1.82237,0.31451 -2.83517,1.26767 -0.7255,0.68265 -1.002,1.04431 -1.3113,1.71576 -0.3815,0.82782 -0.391,0.88681 -0.3496,2.18994 0.042,1.32961 0.046,1.34517 0.5472,2.18915 0.4597,0.77413 1.3321,1.69998 2.041,2.16644 0.976,0.64218 3.05517,0.76955 4.36157,0.26724 z"
     id="path10-1" />
  <path
     inkscape:connector-curvature="0"
     style="fill:none;fill-opacity:1;stroke:#000000;stroke-width:0.35277781;stroke-linecap:round;stroke-linejoin:round;stroke-opacity:1"
     d="m 218.74041,282.26199 c -0.1667,-0.18005 -0.333,-0.48922 -0.3692,-0.68698 -0.0362,-0.19781 -0.0493,-2.38739 -0.0297,-4.86569 l 0.0357,-4.50598 0.2719,-0.27197 0.272,-0.27192 h 115.2833 c 110.46204,0 115.29174,0.009 115.49631,0.21302 0.1951,0.19507 0.2185,0.60882 0.2755,4.8974 0.034,2.57638 0.034,4.79281 0,4.92535 -0.034,0.13254 -0.1575,0.37439 -0.2736,0.53751 l -0.21137,0.29657 -115.22354,0.03 -115.2238,0.0301 z"
     id="path12-2" />
  <path
     inkscape:connector-curvature="0"
     style="fill:none;fill-opacity:1;stroke:#000000;stroke-width:0.35277781;stroke-linecap:round;stroke-linejoin:round;stroke-opacity:1"
     d="m 521.15657,476.12823 c -1.1336,-0.3637 -1.6581,-0.9045 -2.0872,-2.1524 l -0.2414,-0.7019 v -98.9424 -98.94226 l 0.3044,-0.80896 c 0.4257,-1.13111 0.5568,-1.29398 1.3997,-1.73429 l 0.7439,-0.3887 8.3586,-0.039 c 4.5973,-0.0214 8.694,-0.004 9.1033,0.0392 0.4447,0.0467 0.8535,0.16632 1.015,0.29708 l 0.2705,0.21903 v 4.84036 4.84043 l -0.3507,0.36621 c -0.3352,0.34988 -0.3943,0.36621 -1.3218,0.36621 -1.8044,0 -2.6742,0.47375 -3.329,1.81265 l -0.3115,0.63693 -0.002,53.51286 c -0.002,38.7299 0.0343,53.7107 0.1302,54.2295 0.2033,1.0982 0.2893,1.1376 0.5159,0.2352 0.1113,-0.4434 0.329,-1.1078 0.4834,-1.4764 0.1544,-0.3685 0.3694,-1.2288 0.4774,-1.912 0.108,-0.6832 0.248,-1.3385 0.311,-1.4561 0.07,-0.131 0.3106,-0.2415 0.6215,-0.2855 0.2787,-0.0394 48.4656,-0.0561 107.0809,-0.0371 98.5786,0.032 106.6062,0.0492 107.0059,0.2308 0.4585,0.2084 0.9483,0.7663 1.1916,1.3571 0.0915,0.2221 0.1736,1.3088 0.2172,2.8663 0.0679,2.4389 0.0786,2.5233 0.3866,3.0459 0.4132,0.7017 0.9122,1.0565 1.6874,1.1998 0.3988,0.0738 9.677,0.105 25.3438,0.0853 l 24.71474,-0.0308 0.4017,-0.2866 c 0.2209,-0.1576 0.4761,-0.4654 0.5675,-0.6839 0.1408,-0.3371 0.1687,-8.7677 0.1832,-55.556 0.016,-49.16568 0,-55.20501 -0.1644,-55.58542 -0.2789,-0.65442 -0.9227,-1.31359 -1.5841,-1.62164 -0.50047,-0.23303 -0.79357,-0.27866 -1.79527,-0.27969 -1.312,-0.001 -1.6362,-0.1225 -1.873,-0.70002 -0.1547,-0.37734 -0.132,-9.3384 0.025,-9.75064 0.2053,-0.53961 0.2756,-0.54333 9.79254,-0.51086 l 9.01557,0.0308 0.65637,0.31073 c 0.8513,0.40274 1.2506,0.81906 1.5163,1.5806 0.2062,0.59109 0.2153,2.92126 0.2141,55.32478 0,30.0893 0,56.4816 0,58.6496 0,2.168 0,22.3521 0,44.8533 v 40.9113 l -0.2986,0.5268 c -0.4498,0.7937 -1.2562,1.4169 -2.02137,1.5619 -0.4292,0.0816 -49.2926,0.1184 -149.2578,0.1131 -120.59239,-0.006 -148.70989,-0.0368 -149.09739,-0.1612 z"
     id="path4-7" />
  <path
     inkscape:connector-curvature="0"
     style="fill:none;fill-opacity:1;stroke:#000000;stroke-width:0.35277781;stroke-linecap:round;stroke-linejoin:round;stroke-opacity:1"
     d="m 705.23177,467.33033 c 0.1693,-0.3164 0.1715,-74.3642 0.002,-74.8096 -0.0612,-0.1608 -0.312,-0.4453 -0.5573,-0.6324 l -0.4458,-0.3404 h -42.82322 c -40.7117,0 -42.8391,0.0103 -43.1447,0.2107 -0.1767,0.1158 -0.406,0.3399 -0.5094,0.4978 -0.17,0.2595 -0.1878,3.8408 -0.1855,37.5042 0.002,26.3288 0.0398,37.2873 0.1307,37.4573 0.0707,0.1321 0.1969,0.2399 0.2808,0.2399 0.236,0 0.655,-0.6417 0.9473,-1.4505 0.2135,-0.5911 0.3461,-0.7771 0.6822,-0.9561 0.4045,-0.2155 1.6523,-0.2212 41.9901,-0.1919 40.2886,0.0295 41.5805,0.0373 41.8175,0.2519 0.1345,0.1217 0.2798,0.3905 0.3227,0.5971 0.1077,0.5179 0.5881,1.3238 0.9664,1.6216 0.3844,0.3024 0.3644,0.3023 0.5259,5.3e-4 z"
     id="path6-0" />
  <path
     inkscape:connector-curvature="0"
     style="fill:none;fill-opacity:1;stroke:#000000;stroke-width:0.35277781;stroke-linecap:round;stroke-linejoin:round;stroke-opacity:1"
     d="m 781.32727,459.06003 c 0.2105,-0.1539 0.8063,-0.5981 1.3241,-0.9873 0.51756,-0.3892 1.17176,-0.8689 1.45296,-1.0661 0.2812,-0.1971 0.8787,-0.6403 1.3273,-0.9847 0.4487,-0.3443 1.3667,-1.0431 2.0401,-1.5527 0.6734,-0.5097 1.68557,-1.2759 2.24917,-1.703 0.5637,-0.427 1.3831,-1.0352 1.8207,-1.3515 0.4377,-0.3163 0.9088,-0.6809 1.0464,-0.8103 0.1379,-0.1293 0.5262,-0.4081 0.8631,-0.6194 0.55627,-0.349 3.28537,-2.4079 7.28344,-5.4948 0.8324,-0.6429 1.7659,-1.3343 2.0741,-1.5365 0.742,-0.487 1.2128,-1.1934 1.1092,-1.6645 -0.068,-0.3117 -0.519,-0.9937 -1.4812,-2.2406 -0.1694,-0.2195 -0.4689,-0.631 -0.666,-0.9148 -0.526,-0.7578 -1.7091,-2.3703 -2.3547,-3.2096 -0.3097,-0.4028 -0.76057,-1.0147 -1.00167,-1.3595 -0.3987,-0.57 -0.4801,-0.627 -0.8938,-0.627 -0.6173,0 -1.0237,0.2057 -1.3047,0.6606 -0.2201,0.3563 -0.2238,0.4183 -0.058,0.965 0.3113,1.0263 0.255,1.2727 -0.4564,2.0015 -0.3807,0.3901 -0.9441,0.8013 -1.4031,1.0242 -0.4218,0.2048 -0.96437,0.49 -1.20567,0.6336 -0.4191,0.2499 -0.4715,0.2538 -1.1939,0.0923 -1.3805,-0.3086 -1.7949,-0.1985 -3.2171,0.8549 l -0.78977,0.5852 0.098,0.5031 c 0.054,0.2769 0.1534,0.6883 0.2205,0.9142 0.099,0.3333 0.086,0.4515 -0.073,0.6271 -0.328,0.3626 -0.7937,0.2582 -1.5111,-0.339 -0.549,-0.4567 -1.3171,-0.1491 -1.7344,0.6944 -0.2203,0.4453 -0.2248,0.5179 -0.062,0.9772 0.2669,0.7514 0.1353,1.1581 -0.5656,1.7495 -0.7977,0.6727 -1.50745,0.7879 -1.99395,0.3234 -0.6727,-0.6417 -1.6843,-0.7562 -2.2766,-0.2576 -0.4775,0.4019 -0.8929,1.0887 -0.8125,1.3435 0.0355,0.1123 0.1489,0.435 0.2523,0.7168 0.2055,0.5596 0.1484,1.0433 -0.1363,1.1525 -0.0997,0.0383 -0.4639,-0.0923 -0.8096,-0.2901 -0.3454,-0.1978 -0.7424,-0.3596 -0.8818,-0.3596 -0.1394,0 -0.9927,0.5544 -1.8961,1.2322 -0.9035,0.6778 -1.887,1.4049 -2.1858,1.6158 -0.2989,0.2108 -0.6393,0.5455 -0.7563,0.7441 -0.2082,0.3522 -0.2065,0.3742 0.0655,0.9224 0.3645,0.7347 0.916,1.0995 1.661,1.0995 0.6429,0 1.0056,0.2765 1.7822,1.359 0.2297,0.3204 0.6484,0.885 0.9301,1.2544 0.2818,0.3694 0.6043,0.8237 0.7166,1.0098 0.3442,0.5706 1.6755,2.1959 2.022,2.4687 0.3906,0.3073 0.813,0.2595 1.3818,-0.1563 z"
     id="path8-93" />
  <path
     inkscape:connector-curvature="0"
     style="fill:none;fill-opacity:1;stroke:#000000;stroke-width:0.35277781;stroke-linecap:round;stroke-linejoin:round;stroke-opacity:1"
     d="m 815.60345,303.6974 c 0.5343,-0.20547 0.9034,-0.47586 1.5747,-1.15402 1.1845,-1.19644 1.5054,-1.86954 1.5808,-3.31784 0.06,-1.15372 -0.081,-1.84421 -0.5762,-2.81842 -0.3029,-0.59586 -1.4191,-1.72229 -2.001,-2.01923 -0.8233,-0.42019 -1.97977,-0.60583 -3.03197,-0.48669 -1.4983,0.16962 -1.8223,0.31451 -2.8351,1.26767 -0.7256,0.68265 -1.00207,1.04431 -1.31127,1.71576 -0.3816,0.82782 -0.3911,0.88681 -0.3496,2.18994 0.042,1.32962 0.046,1.34518 0.5471,2.18915 0.45977,0.77414 1.33207,1.69998 2.04097,2.16644 0.976,0.64218 3.0552,0.76956 4.36157,0.26724 z"
     id="path10-6" />
  <path
     inkscape:connector-curvature="0"
     style="fill:none;fill-opacity:1;stroke:#000000;stroke-width:0.35277781;stroke-linecap:round;stroke-linejoin:round;stroke-opacity:1"
     d="m 554.83527,283.06004 c -0.1667,-0.18005 -0.333,-0.48922 -0.3692,-0.68698 -0.0362,-0.19781 -0.0493,-2.38739 -0.0297,-4.86569 l 0.0357,-4.50598 0.2719,-0.27197 0.272,-0.27192 h 115.2833 c 110.4622,0 115.29186,0.009 115.49646,0.21302 0.1951,0.19507 0.2186,0.60882 0.2755,4.8974 0.034,2.57638 0.034,4.79281 0,4.92535 -0.034,0.13254 -0.1575,0.37439 -0.2736,0.53751 l -0.2114,0.29657 -115.22366,0.03 -115.2238,0.0301 z"
     id="path12-0" />
</svg>
