<?xml version="1.0" encoding="UTF-8" standalone="no"?>
<!-- Created with Inkscape (http://www.inkscape.org/) -->

<svg
   xmlns:dc="http://purl.org/dc/elements/1.1/"
   xmlns:cc="http://creativecommons.org/ns#"
   xmlns:rdf="http://www.w3.org/1999/02/22-rdf-syntax-ns#"
   xmlns:svg="http://www.w3.org/2000/svg"
   xmlns="http://www.w3.org/2000/svg"
   xmlns:sodipodi="http://sodipodi.sourceforge.net/DTD/sodipodi-0.dtd"
   xmlns:inkscape="http://www.inkscape.org/namespaces/inkscape"
   width="594mm"
   height="841mm"
   viewBox="0 0 594 841"
   version="1.1"
   id="svg8"
   inkscape:version="0.92.3 (2405546, 2018-03-11)"
   sodipodi:docname="E6320_PR.svg">
  <defs
     id="defs2" />
  <sodipodi:namedview
     id="base"
     pagecolor="#ffffff"
     bordercolor="#666666"
     borderopacity="1.0"
     inkscape:pageopacity="0.0"
     inkscape:pageshadow="2"
     inkscape:zoom="0.7"
     inkscape:cx="1211.7838"
     inkscape:cy="1040.8122"
     inkscape:document-units="mm"
     inkscape:current-layer="layer1"
     showgrid="false"
     showguides="true"
     inkscape:guide-bbox="true"
     inkscape:window-width="1920"
     inkscape:window-height="1017"
     inkscape:window-x="-8"
     inkscape:window-y="-8"
     inkscape:window-maximized="1" />
  <metadata
     id="metadata5">
    <rdf:RDF>
      <cc:Work
         rdf:about="">
        <dc:format>image/svg+xml</dc:format>
        <dc:type
           rdf:resource="http://purl.org/dc/dcmitype/StillImage" />
        <dc:title></dc:title>
      </cc:Work>
    </rdf:RDF>
  </metadata>
  <g
     inkscape:label="Layer 1"
     inkscape:groupmode="layer"
     id="layer1"
     transform="translate(0,544)">
    <path
       style="opacity:1;fill:none;fill-opacity:0.12093021;stroke:#000000;stroke-width:0.35277778;stroke-miterlimit:4;stroke-dasharray:none;stroke-opacity:1"
       d="m 257.08176,98.040144 -96.64722,0.144373 c -5.53999,0.0083 -10,-4.46 -10,-10 V -100.4627 c 0,-5.54 4.46,-10 10,-10 h 305.64722 c 5.54,0 10,4.46 10,10 V 88.184517 c 0,5.54 -4.46,10.006231 -10,10 L 337.72898,98.040144"
       id="rect815"
       inkscape:connector-curvature="0"
       sodipodi:nodetypes="cssssssssc" />
    <path
       style="opacity:1;fill:none;fill-opacity:0.12093021;stroke:#000000;stroke-width:0.35277778;stroke-miterlimit:4;stroke-dasharray:none;stroke-opacity:1"
       d="m 257.08176,37.294743 -84.93002,0.07613 c -5.54,0.005 -6.825,-1.285002 -6.825,-6.825006 V -87.451338 c 0,-5.540003 1.285,-6.825006 6.825,-6.825006 h 280.99721 c 5.54,0 6.825,1.285003 6.825,6.825006 V 30.545866 c 0,5.540004 -1.285,6.825006 -6.825,6.825006 -38.94083,0 -115.41997,-0.07613 -115.41997,-0.07613"
       id="rect817"
       inkscape:connector-curvature="0"
       sodipodi:nodetypes="cssssssssc" />
    <path
       style="opacity:1;fill:none;fill-opacity:0.12093021;stroke:#000000;stroke-width:0.35277778;stroke-miterlimit:4;stroke-dasharray:none;stroke-opacity:1"
       d="m 260.14554,41.946648 h 73.64722 c 1.108,0 2,0.892 2,2 v 33.64722 c 0,1.108 -0.892,2 -2,2 h -73.64722 c -1.108,0 -2,-0.892 -2,-2 v -33.64722 c 0,-1.108 0.892,-2 2,-2 z"
       id="rect821" />
    <path
       style="opacity:1;fill:none;fill-opacity:0.12093021;stroke:#000000;stroke-width:0.35277778;stroke-miterlimit:4;stroke-dasharray:none;stroke-opacity:1"
       d="m 337.72898,37.294743 v 60.745401 m -80.64722,0 V 37.294743"
       id="rect823"
       inkscape:connector-curvature="0"
       sodipodi:nodetypes="cccc" />
    <path
       style="opacity:1;fill:none;fill-opacity:0.12093021;stroke:#000000;stroke-width:0.35277778;stroke-miterlimit:4;stroke-dasharray:none;stroke-opacity:1"
       d="m 261.67197,82.362305 h 32.64722 c 1.108,0 2,0.892 2,2.000001 v 8.647221 c 0,1.108001 -0.892,2.000001 -2,2.000001 h -32.64722 c -1.108,0 -2,-0.892 -2,-2.000001 v -8.647221 c 0,-1.108001 0.892,-2.000001 2,-2.000001 z"
       id="rect825" />
    <path
       style="opacity:1;fill:none;fill-opacity:0.12093021;stroke:#000000;stroke-width:0.35277778;stroke-miterlimit:4;stroke-dasharray:none;stroke-opacity:1"
       d="m 301.49423,82.362305 h 32.64722 c 1.108,0 2,0.892 2,2.000001 v 8.647221 c 0,1.108001 -0.892,2.000001 -2,2.000001 h -32.64722 c -1.108,0 -2,-0.892 -2,-2.000001 v -8.647221 c 0,-1.108001 0.892,-2.000001 2,-2.000001 z"
       id="rect825-2" />
    <path
       style="opacity:1;fill:none;fill-opacity:0.12093021;stroke:#000000;stroke-width:0.35277778;stroke-miterlimit:4;stroke-dasharray:none;stroke-opacity:1"
       d="m 465.44849,-52.815475 h 5.64722 c 1.108,0 2,0.892 2,2.000001 v 34.647218 c 0,1.108001 -0.892,2.000001 -2,2.000001 h -5.64722 c -1.108,0 -2,-0.892 -2,-2.000001 v -34.647218 c 0,-1.108001 0.892,-2.000001 2,-2.000001 z"
       id="rect842" />
    <path
       style="opacity:1;fill:none;fill-opacity:0.12093021;stroke:#000000;stroke-width:0.35277778;stroke-miterlimit:4;stroke-dasharray:none;stroke-opacity:1"
       d="m 434.78732,-108.34605 h 7.64723 c 1.108,0 2,0.892 2,2 v 7.647226 c 0,1.108 -0.892,2.000001 -2,2.000001 h -7.64723 c -1.108,0 -2,-0.892001 -2,-2.000001 v -7.647226 c 0,-1.108 0.892,-2 2,-2 z"
       id="rect844" />
  </g>
</svg>
