<?xml version="1.0" encoding="UTF-8" standalone="no"?>
<!-- Created with Inkscape (http://www.inkscape.org/) -->

<svg
   xmlns:dc="http://purl.org/dc/elements/1.1/"
   xmlns:cc="http://creativecommons.org/ns#"
   xmlns:rdf="http://www.w3.org/1999/02/22-rdf-syntax-ns#"
   xmlns:svg="http://www.w3.org/2000/svg"
   xmlns="http://www.w3.org/2000/svg"
   xmlns:sodipodi="http://sodipodi.sourceforge.net/DTD/sodipodi-0.dtd"
   xmlns:inkscape="http://www.inkscape.org/namespaces/inkscape"
   version="1.1"
   id="svg2"
   width="841mm"
   height="594mm"
   viewBox="0 0 3178.5827 2245.0394"
   sodipodi:docname="Lat_7370_PR.svg"
   inkscape:version="0.92.3 (2405546, 2018-03-11)">
  <metadata
     id="metadata8">
    <rdf:RDF>
      <cc:Work
         rdf:about="">
        <dc:format>image/svg+xml</dc:format>
        <dc:type
           rdf:resource="http://purl.org/dc/dcmitype/StillImage" />
        <dc:title></dc:title>
      </cc:Work>
    </rdf:RDF>
  </metadata>
  <defs
     id="defs6" />
  <sodipodi:namedview
     pagecolor="#ffffff"
     bordercolor="#666666"
     borderopacity="1"
     objecttolerance="10"
     gridtolerance="10"
     guidetolerance="10"
     inkscape:pageopacity="0"
     inkscape:pageshadow="2"
     inkscape:window-width="1920"
     inkscape:window-height="1017"
     id="namedview4"
     showgrid="false"
     units="mm"
     showguides="true"
     inkscape:guide-bbox="true"
     inkscape:zoom="0.287"
     inkscape:cx="1500.6764"
     inkscape:cy="663.2721"
     inkscape:window-x="-8"
     inkscape:window-y="-8"
     inkscape:window-maximized="1"
     inkscape:current-layer="svg2" />
  <g
     id="g857"
     style="stroke:#000000;stroke-opacity:1;stroke-width:1.33333333;stroke-miterlimit:4;stroke-dasharray:none">
    <path
       sodipodi:nodetypes="cssssccssssc"
       inkscape:connector-curvature="0"
       id="rect830"
       d="m 780.61548,2105.1909 -320.95133,0.4754 c -10.46928,0.015 -18.89764,-8.4283 -18.89764,-18.8976 v -747.0132 c 0,-10.4692 8.42841,-18.9326 18.89764,-18.8976 l 105.16806,0.3516 m 890.63519,0 106.4855,-0.3516 c 10.4691,-0.035 18.8976,8.4284 18.8976,18.8976 v 747.0132 c 0,10.4693 -8.4284,18.9099 -18.8976,18.8976 l -404.718,-0.4754"
       style="opacity:1;fill:none;fill-opacity:0.12093021;stroke:#000000;stroke-width:1.33333333;stroke-miterlimit:4;stroke-dasharray:none;stroke-opacity:1" />
    <path
       sodipodi:nodetypes="cssssssc"
       inkscape:connector-curvature="0"
       id="rect832"
       d="M 1237.7391,1798.0203 H 530.9673 c -10.46927,0 -18.8976,-8.4283 -18.8976,-18.8976 v -372.84 c 0,-10.4692 8.42833,-18.8976 18.8976,-18.8976 h 958.6668 c 10.4692,0 18.8976,8.4284 18.8976,18.8976 l 10e-5,391.7376"
       style="opacity:1;fill:none;fill-opacity:0.12093021;stroke:#000000;stroke-width:1.33333333;stroke-miterlimit:4;stroke-dasharray:none;stroke-opacity:1" />
    <path
       sodipodi:nodetypes="cccc"
       inkscape:connector-curvature="0"
       id="rect836"
       d="m 1455.4674,1321.2095 v 51.6223 H 564.83221 v -51.6223"
       style="opacity:1;fill:none;fill-opacity:0.12093021;stroke:#000000;stroke-width:1.33333333;stroke-miterlimit:4;stroke-dasharray:none;stroke-opacity:1" />
    <path
       sodipodi:nodetypes="cssssc"
       inkscape:connector-curvature="0"
       id="rect838"
       d="m 780.61548,2105.1909 v -268.8187 c 0,-6.2816 5.05701,-11.3386 11.33858,-11.3386 h 353.94224 c 6.2816,0 11.3386,5.057 11.3386,11.3386 v 268.8187"
       style="opacity:1;fill:none;fill-opacity:0.12093021;stroke:#000000;stroke-width:1.33333333;stroke-miterlimit:4;stroke-dasharray:none;stroke-opacity:1" />
    <path
       sodipodi:nodetypes="cccc"
       inkscape:connector-curvature="0"
       id="rect840"
       d="m 1508.5318,1798.0203 c 0.8793,9.9262 -4.595,17.1201 -15.4771,17.5643 h -233.6032 c -12.6959,-3.2083 -9.3744,-12.9945 -21.7124,-17.5643"
       style="opacity:1;fill:none;fill-opacity:0.12093021;stroke:#000000;stroke-width:1.33333333;stroke-miterlimit:4;stroke-dasharray:none;stroke-opacity:1" />
    <path
       style="opacity:1;fill:none;fill-opacity:0.12093021;stroke:#000000;stroke-width:1.33333333;stroke-miterlimit:4;stroke-dasharray:none;stroke-opacity:1"
       d="m 1562.9371,1428.7302 a 18.23097,18.23097 0 0 1 -18.2309,18.231 18.23097,18.23097 0 0 1 -18.231,-18.231 18.23097,18.23097 0 0 1 18.231,-18.2309 18.23097,18.23097 0 0 1 18.2309,18.2309 z"
       id="path847" />
  </g>
</svg>
