<?xml version="1.0" encoding="UTF-8" standalone="no"?>
<!-- exported from Silhouette Studio Business Edition V4.1.479ssbe -->

<svg
   xmlns:dc="http://purl.org/dc/elements/1.1/"
   xmlns:cc="http://creativecommons.org/ns#"
   xmlns:rdf="http://www.w3.org/1999/02/22-rdf-syntax-ns#"
   xmlns:svg="http://www.w3.org/2000/svg"
   xmlns="http://www.w3.org/2000/svg"
   xmlns:sodipodi="http://sodipodi.sourceforge.net/DTD/sodipodi-0.dtd"
   xmlns:inkscape="http://www.inkscape.org/namespaces/inkscape"
   version="1.1"
   width="1200mm"
   height="1200mm"
   viewBox="0 0 1200 1200"
   id="svg14"
   sodipodi:docname="x240_x250_pr_with_fp.svg"
   inkscape:version="0.92.3 (2405546, 2018-03-11)">
  <metadata
     id="metadata18">
    <rdf:RDF>
      <cc:Work
         rdf:about="">
        <dc:format>image/svg+xml</dc:format>
        <dc:type
           rdf:resource="http://purl.org/dc/dcmitype/StillImage" />
        <dc:title></dc:title>
      </cc:Work>
    </rdf:RDF>
  </metadata>
  <sodipodi:namedview
     pagecolor="#ffffff"
     bordercolor="#666666"
     borderopacity="1"
     objecttolerance="10"
     gridtolerance="10"
     guidetolerance="10"
     inkscape:pageopacity="0"
     inkscape:pageshadow="2"
     inkscape:window-width="1920"
     inkscape:window-height="1017"
     id="namedview16"
     showgrid="false"
     inkscape:zoom="0.58870568"
     inkscape:cx="1522.7274"
     inkscape:cy="3755.8935"
     inkscape:window-x="-8"
     inkscape:window-y="-8"
     inkscape:window-maximized="1"
     inkscape:current-layer="svg14" />
  <defs
     id="defs2" />
  <g
     id="g874">
    <g
       style="stroke-width:0.35277777;stroke-miterlimit:4;stroke-dasharray:none;stroke:#000000;stroke-opacity:1"
       id="g841">
      <path
         d="m 183.0336,258.93119 c -1.1336,-0.36596 -1.6581,-0.91012 -2.0872,-2.16577 l -0.2414,-0.70626 v -99.55704 -99.5569 l 0.3044,-0.813985 c 0.4257,-1.138137 0.5568,-1.302019 1.3997,-1.745064 l 0.7439,-0.391115 8.3586,-0.03921 c 4.5973,-0.02155 8.694,-0.0038 9.1033,0.03946 0.4447,0.04695 0.8535,0.167353 1.015,0.298926 l 0.2705,0.22039 v 4.870429 4.870499 l -0.3507,0.368485 c -0.3352,0.352054 -0.3943,0.368485 -1.3218,0.368485 -1.8044,0 -2.6742,0.476693 -3.329,1.82391 l -0.3115,0.640887 -0.002,53.845293 0.1169,55.46413 1.80097,-5.53569 c 0.07,-0.13181 0.3106,-0.243 0.6215,-0.28727 0.2787,-0.0396 48.4656,-0.0565 107.0809,-0.0373 98.5786,0.0322 106.6062,0.0495 107.0059,0.23223 0.4585,0.2097 0.9483,0.77106 1.1916,1.36553 0.0915,0.22348 0.1736,1.31693 0.2172,2.88411 0.0679,2.45405 0.0786,2.53897 0.3866,3.06482 0.4132,0.70606 0.9122,1.06306 1.6874,1.20725 0.3988,0.0743 9.677,0.10565 25.3438,0.0858 l 24.7148,-0.031 0.4017,-0.28838 c 0.2209,-0.15858 0.4762,-0.46829 0.5675,-0.68815 0.1409,-0.33919 0.1687,-8.82216 0.1832,-55.90112 0.0157,-49.471101 -0.002,-55.547948 -0.1644,-55.930721 -0.2788,-0.658486 -0.9227,-1.32175 -1.5841,-1.631714 -0.5004,-0.234478 -0.7935,-0.280391 -1.7953,-0.281428 -1.312,-0.0012 -1.6362,-0.123261 -1.873,-0.704368 -0.1546,-0.379684 -0.132,-9.396411 0.0245,-9.811212 0.2053,-0.542962 0.2756,-0.546705 9.7926,-0.514034 l 9.0156,0.03095 0.6565,0.312661 c 0.8513,0.405242 1.2506,0.824148 1.5163,1.590419 0.2061,0.594762 0.2152,2.939407 0.2141,55.668467 -6e-4,30.27622 -9e-4,56.83247 -9e-4,59.01394 0,2.18146 5e-4,22.49095 0.001,45.13193 l 10e-4,41.16544 -0.2986,0.53008 c -0.4498,0.79863 -1.2562,1.4257 -2.0214,1.5716 -0.4292,0.0821 -49.2928,0.11913 -149.258,0.1138 -120.5924,-0.006 -148.7099,-0.037 -149.0974,-0.1622 z"
         id="path4"
         inkscape:connector-curvature="0"
         style="fill:none;fill-opacity:1;stroke:#000000;stroke-width:0.35277777;stroke-linecap:round;stroke-linejoin:round;stroke-opacity:1;stroke-miterlimit:4;stroke-dasharray:none"
         sodipodi:nodetypes="cccccccccccccccsccccccscccccccccccccccsccccsccccccc" />
      <path
         d="m 367.32732,250.07864 c 0.17095,-0.31837 0.17317,-74.82616 0.002,-75.27433 -0.0618,-0.1618 -0.31504,-0.44806 -0.56273,-0.63633 l -0.45014,-0.34251 h -43.24033 c -41.10836,0 -43.25649,0.0104 -43.56506,0.21201 -0.17843,0.11652 -0.40996,0.34201 -0.51437,0.50089 -0.17165,0.26111 -0.18963,3.86466 -0.18731,37.73718 0.002,26.49236 0.0402,38.44535 0.13198,38.61641 l 1.92891,-3.10658 c 0.40844,-0.21684 1.6684,-0.22258 42.39921,-0.19309 40.68114,0.0297 41.98563,0.0375 42.22494,0.25346 0.13581,0.12246 0.28252,0.39293 0.32584,0.60081 0.10742,0.5201 1.50684,2.39959 1.50684,2.39959 z"
         id="path6"
         inkscape:connector-curvature="0"
         style="fill:none;fill-opacity:1;stroke:#000000;stroke-width:0.35277777;stroke-linecap:round;stroke-linejoin:round;stroke-opacity:1;stroke-miterlimit:4;stroke-dasharray:none"
         sodipodi:nodetypes="ccccscccccccccc" />
      <path
         d="m 443.2043,241.75696 c 0.2105,-0.15485 0.8063,-0.60181 1.3241,-0.99343 0.5176,-0.39162 1.1717,-0.8743 1.4529,-1.07272 0.2813,-0.19833 0.8788,-0.64428 1.3274,-0.99082 0.4487,-0.34644 1.3667,-1.04958 2.0401,-1.56235 0.6733,-0.51286 1.6856,-1.28382 2.2492,-1.71358 0.5636,-0.42965 1.3831,-1.04163 1.8207,-1.35989 0.4377,-0.31827 0.9087,-0.68513 1.0464,-0.81534 0.1379,-0.1301 0.5262,-0.41063 0.863,-0.62324 0.5564,-0.35117 3.2855,-2.42286 7.2836,-5.52894 0.8324,-0.64689 1.7659,-1.34259 2.0741,-1.54604 0.7419,-0.49003 1.2128,-1.20082 1.1092,-1.67484 -0.0684,-0.31364 -0.519,-0.99988 -1.4813,-2.25452 -0.1693,-0.22087 -0.4689,-0.63492 -0.6659,-0.92048 -0.5261,-0.76251 -1.7091,-2.38503 -2.3547,-3.22954 -0.3097,-0.40531 -0.7606,-1.02101 -1.0017,-1.36795 -0.3987,-0.57354 -0.4802,-0.63089 -0.8939,-0.63089 -0.6172,0 -1.0236,0.20697 -1.3046,0.6647 -0.2201,0.35851 -0.2239,0.4209 -0.0579,0.971 0.3113,1.03267 0.255,1.2806 -0.4564,2.01393 -0.3807,0.39252 -0.9441,0.80628 -1.4031,1.03056 -0.4218,0.20607 -0.9644,0.49305 -1.2057,0.63754 -0.4191,0.25145 -0.4715,0.25537 -1.1939,0.0929 -1.3805,-0.31052 -1.7949,-0.19973 -3.2171,0.86021 l -0.7898,0.58884 0.0984,0.50622 c 0.054,0.27862 0.1534,0.69258 0.2205,0.91988 0.0994,0.33537 0.0856,0.45431 -0.0733,0.631 -0.3281,0.36485 -0.7937,0.2598 -1.5112,-0.34111 -0.5489,-0.45954 -1.3171,-0.15003 -1.7344,0.69871 -0.2202,0.44807 -0.2248,0.52112 -0.0617,0.98327 0.2669,0.75607 0.1354,1.1653 -0.5656,1.76037 -0.7977,0.67688 -1.5074,0.7928 -1.9939,0.32541 -0.6727,-0.64568 -1.6843,-0.7609 -2.2766,-0.2592 -0.4775,0.4044 -0.8929,1.09546 -0.8125,1.35185 0.0355,0.113 0.1489,0.4377 0.2523,0.72125 0.2055,0.56308 0.1484,1.04978 -0.1363,1.15966 -0.0997,0.0385 -0.4639,-0.0929 -0.8096,-0.2919 -0.3454,-0.19903 -0.7424,-0.36184 -0.8818,-0.36184 -0.1394,0 -0.9927,0.55785 -1.8961,1.23986 -0.9035,0.68201 -1.887,1.41363 -2.1858,1.62584 -0.2989,0.21211 -0.6393,0.54888 -0.7563,0.74872 -0.2082,0.35439 -0.2065,0.37652 0.0655,0.92813 0.3645,0.73926 0.916,1.10633 1.661,1.10633 0.6429,0 1.0056,0.27822 1.7822,1.36744 0.2297,0.32239 0.6484,0.8905 0.9301,1.26219 0.2818,0.3717 0.6043,0.82882 0.7166,1.01608 0.3442,0.57414 1.6755,2.20954 2.022,2.48403 0.3906,0.30921 0.813,0.26111 1.3818,-0.15727 z"
         id="path8"
         inkscape:connector-curvature="0"
         style="fill:none;fill-opacity:1;stroke:#000000;stroke-width:0.35277777;stroke-linecap:round;stroke-linejoin:round;stroke-opacity:1;stroke-miterlimit:4;stroke-dasharray:none" />
      <path
         d="m 477.6396,83.841702 c 0.5343,-0.206746 0.9033,-0.478816 1.5747,-1.161189 1.1845,-1.203872 1.5053,-1.881154 1.5808,-3.338451 0.0603,-1.160887 -0.0809,-1.855666 -0.5763,-2.835928 -0.3029,-0.599562 -1.419,-1.732989 -2.0009,-2.031774 -0.8234,-0.4228 -1.9798,-0.609593 -3.032,-0.489713 -1.4983,0.170674 -1.8224,0.316464 -2.8352,1.275545 -0.7255,0.686891 -1.002,1.050797 -1.3113,1.726418 -0.3815,0.832963 -0.391,0.892319 -0.3496,2.203544 0.0422,1.33788 0.046,1.353537 0.5472,2.20275 0.4597,0.778949 1.3321,1.71054 2.041,2.179898 0.976,0.646169 3.0552,0.77434 4.3616,0.2689 z"
         id="path10"
         inkscape:connector-curvature="0"
         style="fill:none;fill-opacity:1;stroke:#000000;stroke-width:0.35277777;stroke-linecap:round;stroke-linejoin:round;stroke-opacity:1;stroke-miterlimit:4;stroke-dasharray:none" />
      <path
         d="m 216.7123,64.663642 c -0.1667,-0.181169 -0.333,-0.492259 -0.3692,-0.691248 -0.0362,-0.199039 -0.0493,-2.402221 -0.0297,-4.895916 l 0.0357,-4.533972 0.2719,-0.273659 0.272,-0.273609 h 115.2833 c 110.4622,0 115.2919,0.009 115.4965,0.214343 0.1951,0.196282 0.2185,0.612602 0.2755,4.927823 0.0342,2.592385 0.0342,4.822583 0,4.955947 -0.0344,0.133363 -0.1575,0.376716 -0.2736,0.540849 l -0.2114,0.298412 -115.2237,0.03022 -115.2238,0.03028 z"
         id="path12"
         inkscape:connector-curvature="0"
         style="fill:none;fill-opacity:1;stroke:#000000;stroke-width:0.35277777;stroke-linecap:round;stroke-linejoin:round;stroke-opacity:1;stroke-miterlimit:4;stroke-dasharray:none" />
    </g>
    <path
       style="fill:none;fill-opacity:1;stroke:#000000;stroke-width:0.35277781;stroke-linecap:round;stroke-linejoin:round;stroke-opacity:1"
       inkscape:connector-curvature="0"
       id="path10-4"
       d="m 482.07157,174.62294 c 0.2171,-0.1189 0.4309,-0.3654 0.5074,-0.5852 0.1449,-0.4159 0.1688,-6.2748 0.0275,-6.7945 -0.0473,-0.1743 -0.2535,-0.3863 -0.4955,-0.5093 -0.3821,-0.1941 -0.8823,-0.2081 -6.4124,-0.1792 l -5.9974,0.0315 -0.3311,0.3312 -0.3313,0.3311 v 3.3891 c 0,3.2201 0.012,3.4024 0.2389,3.6568 0.5236,0.5873 0.5656,0.5908 6.6873,0.5614 5.1626,-0.0248 5.7687,-0.0478 6.1066,-0.2329 z" />
  </g>
</svg>
