<?xml version="1.0" encoding="utf-8"?>
<!-- Generator: Adobe Illustrator 25.2.1, SVG Export Plug-In . SVG Version: 6.00 Build 0)  -->
<svg version="1.1" id="Layer_1" xmlns="http://www.w3.org/2000/svg" xmlns:xlink="http://www.w3.org/1999/xlink" x="0px" y="0px"
	 viewBox="0 0 4280.3 1133.9" style="enable-background:new 0 0 4280.3 1133.9;" xml:space="preserve">
<style type="text/css">
	.st0{fill:none;stroke:#000000;stroke-miterlimit:10;}
</style>
<g>
	<path class="st0" d="M730.7,948.4l0.3,52.4c0,28.2-22.8,51-51,51H124.4c-28.2,0-51-22.8-51-51V156.1c0-28.2,22.8-51,51-51H680
		c28.2,0,51,22.8,51,51l-0.3,52.4"/>
	<path class="st0" d="M731,906.4"/>
	<polyline class="st0" points="730.7,948.4 698.1,948.4 698.1,208.5 730.7,208.5 	"/>
	<path class="st0" d="M730.7,948.4"/>
	<path class="st0" d="M730.7,208.5"/>
	<path class="st0" d="M104.6,638V391.4c0-11,8.9-19.8,19.8-19.8h155.9c11,0,19.8,8.9,19.8,19.8V638c0,11-8.9,19.8-19.8,19.8H124.4
		C113.5,657.8,104.6,648.9,104.6,638z"/>
	<path class="st0" d="M320,973.9V183c0-14.1,11.4-25.5,25.5-25.5h269.3c14.1,0,25.5,11.4,25.5,25.5v790.9
		c0,14.1-11.4,25.5-25.5,25.5H345.5C331.4,999.4,320,988,320,973.9z"/>
	<path class="st0" d="M288.4,985.2v-45.4c0-1.6,1.3-2.8,2.8-2.8h7.1c1.6,0,2.8,1.3,2.8,2.8v45.4c0,1.6-1.3,2.8-2.8,2.8h-7.1
		C289.7,988,288.4,986.8,288.4,985.2z"/>
	<path class="st0" d="M657.2,998.7V158.2c0-3.1,2.5-5.7,5.7-5.7H677c3.1,0,5.7,2.5,5.7,5.7v840.5c0,3.1-2.5,5.7-5.7,5.7h-14.2
		C659.7,1004.3,657.2,1001.8,657.2,998.7z"/>
</g>
</svg>
