<?xml version="1.0" encoding="utf-8"?>
<!-- Generator: Adobe Illustrator 26.0.2, SVG Export Plug-In . SVG Version: 6.00 Build 0)  -->
<svg version="1.1" id="Layer_1" xmlns="http://www.w3.org/2000/svg" xmlns:xlink="http://www.w3.org/1999/xlink" x="0px" y="0px"
	 viewBox="0 0 4280.3 1133.9" style="enable-background:new 0 0 4280.3 1133.9;" xml:space="preserve">
<style type="text/css">
	.st0{fill:none;stroke:#000000;stroke-miterlimit:10;}
</style>
<g>
	<path class="st0" d="M1531,1018.8l0.4,17.4c0,34.6-13.6,48.2-48.2,48.2H917.1c-31.9,0-46.2-14.3-46.2-46.2V168.6
		c0-31.9,13.3-45.2,45.2-45.2h567.1c34.6,0,48.2,13.6,48.2,48.2l0.2,17.1"/>
	<line class="st0" x1="1531.5" y1="253.9" x2="1531" y2="953.6"/>
	<path class="st0" d="M1456.2,946.4V261.1"/>
	<path class="st0" d="M1456.2,982.5"/>
	<path class="st0" d="M1461.8,1019.2"/>
	<path class="st0" d="M1491.7,261.1v685.3"/>
	<path class="st0" d="M1486,188.6"/>
	<path class="st0" d="M1531.5,253.9h-29.8c-1.6,0-2.8-1.3-2.8-2.8v-59.5c0-1.6,1.3-2.8,2.8-2.8h29.8"/>
	<path class="st0" d="M1531.5,253.9"/>
	<path class="st0" d="M1531.5,188.7"/>
	<path class="st0" d="M1077.3,1011.1v-45.4c0-1.6,1.3-2.8,2.8-2.8h8.5c1.6,0,2.8,1.3,2.8,2.8v45.4c0,1.6-1.3,2.8-2.8,2.8h-8.5
		C1078.6,1013.9,1077.3,1012.6,1077.3,1011.1z"/>
	<path class="st0" d="M1531,953.6h-29.8c-1.6,0-2.8,1.3-2.8,2.8v59.5c0,1.6,1.3,2.8,2.8,2.8h29.8"/>
	<path class="st0" d="M1531,953.6"/>
	<path class="st0" d="M1531,1018.8"/>
	<path class="st0" d="M899,678.1V405.9c0-12.5,10.2-22.7,22.7-22.7h144.6c12.5,0,22.7,10.2,22.7,22.7v272.1
		c0,12.5-10.2,22.7-22.7,22.7H921.7C909.2,700.7,899,690.6,899,678.1z"/>
	<path class="st0" d="M1106.3,992.8V214.6c0-20.4,16.5-36.9,36.9-36.9H1411c20.4,0,36.9,16.5,36.9,36.9v778.1
		c0,20.4-16.5,36.9-36.9,36.9h-267.9C1122.8,1029.6,1106.3,1013.1,1106.3,992.8z"/>
	<path class="st0" d="M1460.8,261.1v-66.6c0-3.1,2.7-5.7,6-5.7h14.2c3.3,0,6,2.5,6,5.7v66.6"/>
	<path class="st0" d="M1460.7,946.4v66.6c0,3.1,2.7,5.7,6,5.7h14.2c3.3,0,6-2.5,6-5.7v-66.6"/>
	<line class="st0" x1="1487" y1="946.4" x2="1491.7" y2="946.4"/>
	<line class="st0" x1="1460.7" y1="946.4" x2="1456.2" y2="946.4"/>
	<line class="st0" x1="1460.8" y1="261.1" x2="1456.2" y2="261.1"/>
	<line class="st0" x1="1487" y1="261.1" x2="1491.7" y2="261.1"/>
</g>
</svg>
