<?xml version="1.0" encoding="utf-8"?>
<!-- Generator: Adobe Illustrator 25.2.0, SVG Export Plug-In . SVG Version: 6.00 Build 0)  -->
<svg version="1.1" id="Layer_1" xmlns="http://www.w3.org/2000/svg" xmlns:xlink="http://www.w3.org/1999/xlink" x="0px" y="0px"
	 viewBox="0 0 4280.3 1133.9" style="enable-background:new 0 0 4280.3 1133.9;" xml:space="preserve">
<style type="text/css">
	.st0{fill:none;stroke:#010101;stroke-miterlimit:11.3386;}
</style>
<g>
	<path class="st0" d="M630.5,1073.6H91.7c-23.6,0-38.5-15-38.5-38.5l0.2-353.7"/>
	<path class="st0" d="M630.5,1073.6"/>
	<path class="st0" d="M673,1031.1"/>
	<path class="st0" d="M673,1031.1"/>
	<path class="st0" d="M630.5,126.6"/>
	<path class="st0" d="M53.4,390.4l-0.2-223.3c0-23.6,15-40.5,38.5-40.5h538.8"/>
	<path id="rect817" class="st0" d="M270.7,390.4V211.1c0-15.7,12.6-28.4,28.4-28.4h262.6c15.7,0,28.3,12.6,28.3,28.4v781.4
		c0,15.7-12.6,28.4-28.3,28.4H299.1c-15.7,0-28.4-12.6-28.4-28.4V681.4"/>
	<path id="rect823" class="st0" d="M53.4,681.4 M81.9,681.4 M270.7,681.4c0,0-152.3,0-203.8,0 M66.9,390.4c50.9,0,203.8,0,203.8,0
		 M53.4,390.4"/>
	<path id="rect825" class="st0" d="M263.9,306.8V340c0,1.6-2.3,2.8-3.8,2.8h-5.7c-1.6,0-2.8-1.3-2.8-2.8v-33.2
		c0-1.6,1.3-2.8,2.8-2.8h5.7C261.7,304,263.9,305.2,263.9,306.8z"/>
	<path id="rect825-9" class="st0" d="M264.2,729.5v32.2c0,1.6-1.3,2.8-2.8,2.8h-6.7c-1.6,0-2.8-1.3-2.8-2.8v-32.2
		c0-1.6,1.3-2.8,2.8-2.8h6.7C262.9,726.7,264.2,728,264.2,729.5z"/>
	<path id="rect842" class="st0" d="M232,959.7v46.4c0,1.6-1.3,2.8-2.8,2.8h-4.7c-1.6,0-2.8-1.3-2.8-2.8v-46.4c0-1.6,1.3-2.8,2.8-2.8
		h4.7C230.8,956.9,232,958.1,232,959.7z"/>
	<path id="rect846" class="st0" d="M656.6,240.1v723.8c0,0.8-0.6,1.4-1.4,1.4h-52.9c-0.8,0-1.4-0.6-1.4-1.4V240.1
		c0-0.8,0.6-1.4,1.4-1.4h52.9C656,238.6,656.6,239.3,656.6,240.1z"/>
	<path id="rect848" class="st0" d="M644.7,152.8v59.8c0,1.6-1.3,2.9-2.8,2.9h-20.8c-1.6,0-2.8-1.3-2.8-2.9v-59.8
		c0-1.6,1.3-2.9,2.8-2.9h20.8C643.5,149.9,644.7,151.2,644.7,152.8L644.7,152.8z"/>
	<path id="rect850" class="st0" d="M645.7,983.7v71.9c0,1.6-1.3,2.8-2.8,2.8h-19.8c-1.6,0-2.8-1.3-2.8-2.8v-71.9
		c0-1.6,1.3-2.8,2.8-2.8h19.8C644.5,980.8,645.7,982.1,645.7,983.7z"/>
	<path id="rect852" class="st0" d="M231.1,406.7v265.5c0,1.6-1.3,2.8-2.8,2.8H98.9c-1.6,0-2.8-1.3-2.8-2.8V406.7
		c0-1.6,1.3-2.8,2.8-2.8h129.4C229.9,403.9,231.1,405.1,231.1,406.7L231.1,406.7z"/>
	<path id="rect854" class="st0" d="M93.1,407.1v126.6c0,1.6-1.3,2.8-2.8,2.8H71.5c-1.6,0-2.8-1.3-2.8-2.8V407.1
		c0-1.6,1.3-2.8,2.8-2.8h18.8C91.9,404.3,93.1,405.6,93.1,407.1z"/>
	<path id="rect854-5" class="st0" d="M93.1,545.4V672c0,1.6-1.3,2.8-2.8,2.8H71.5c-1.6,0-2.8-1.3-2.8-2.8V545.4
		c0-1.6,1.3-2.8,2.8-2.8h18.8C91.9,542.5,93.1,543.8,93.1,545.4z"/>
	<path id="rect854-4" class="st0" d="M265.4,404.5v126.6c0,1.6-1.3,2.8-2.8,2.8h-18.8c-1.6,0-2.8-1.3-2.8-2.8V404.5
		c0-1.6,1.3-2.8,2.8-2.8h18.8C264.1,401.7,265.4,403,265.4,404.5z"/>
	<path id="rect854-5-3" class="st0" d="M265.4,544.3v126.6c0,1.6-1.3,2.8-2.8,2.8h-18.8c-1.6,0-2.8-1.3-2.8-2.8V544.3
		c0-1.6,1.3-2.8,2.8-2.8h18.8C264.1,541.4,265.4,542.7,265.4,544.3L265.4,544.3z"/>
	<path class="st0" d="M630.5,126.6l30.3-0.2c7.8,0,15,2.3,21.2,6.4"/>
	<path class="st0" d="M622.8,126.4"/>
	<path class="st0" d="M660.8,1073.3h-30.3"/>
	<path class="st0" d="M680.7,1067.8c-5.9,3.5-12.7,5.5-19.9,5.5"/>
	<path id="rect817_1_" class="st0" d="M682,132.8c-4.9,5.1-12.8,18.2-12.8,25.9v886.4c0,8.8,5.2,17.5,11.5,22.7"/>
	<line class="st0" x1="53.4" y1="681.4" x2="53.4" y2="390.4"/>
	<path class="st0" d="M53.4,731.6"/>
	<path class="st0" d="M64.7,731.6"/>
	<path class="st0" d="M66.9,390.4c-0.7,0-2,0.8-2,2.2c0,22.9,0.3,218,0,285.7c0,1.9,0.5,3.1,2,3.1"/>
</g>
</svg>
