<?xml version="1.0" encoding="utf-8"?>
<!-- Generator: Adobe Illustrator 25.2.1, SVG Export Plug-In . SVG Version: 6.00 Build 0)  -->
<svg version="1.1" id="Layer_1" xmlns="http://www.w3.org/2000/svg" xmlns:xlink="http://www.w3.org/1999/xlink" x="0px" y="0px"
	 viewBox="0 0 4280.3 1133.9" style="enable-background:new 0 0 4280.3 1133.9;" xml:space="preserve">
<style type="text/css">
	.st0{fill:none;stroke:#010101;stroke-width:1.0006;stroke-miterlimit:11.3386;}
</style>
<g>
	<path id="rect1379_1_" class="st0" d="M278.7,1037l-178.8,0.2c-31.1,0-44.6-15.9-44.6-45.4V142.5c0-31,15.6-45.3,44.6-45.4
		l178.8-0.5"/>
	<path id="rect1381_1_" class="st0" d="M278.7,1037l0.4-390.5 M279.2,362.6l-0.5-266"/>
	<path id="rect1404" class="st0" d="M257.2,928.2v44.4c0,1.6-1.3,2.8-2.8,2.8h-4.7c-1.6,0-2.8-1.3-2.8-2.8v-44.4
		c0-1.6,1.3-2.8,2.8-2.8h4.7C255.9,925.4,257.2,926.6,257.2,928.2z"/>
	<path id="rect1408_1_" class="st0" d="M279.1,646.5H93.9c-11,0-18.3-9.1-18.3-20.4V383c0-11.3,7.3-20.4,18.3-20.4h185.3"/>
	<path id="rect1417_1_" class="st0" d="M104.2,377.6v131.8H79.7V400.6c0-12.9,10-23.1,16.8-23.1
		C103.2,377.5,104.2,377.6,104.2,377.6L104.2,377.6z"/>
	<path id="rect1417-2_1_" class="st0" d="M104.2,641.3V509.4H79.7v108.9c0,12.9,10,23.1,16.8,23.1
		C103.2,641.4,104.2,641.3,104.2,641.3L104.2,641.3z"/>
	<path id="rect1435_1_" class="st0" d="M267,505.3l0.2-132.2h18.6c3.1,0,5.7,2.6,5.7,5.9v126.3H267z"/>
	<path id="rect1435-8_1_" class="st0" d="M267,505.3l0.2,132.2h18.6c3.1,0,5.7-2.6,5.7-5.9V505.3H267z"/>
	<path id="rect1453_1_" class="st0" d="M261.2,370.1v268.3c0,1.6-1.3,2.8-2.8,2.8H114.8c-1.6,0-2.8-1.3-2.8-2.8V370.1
		c0-1.6,1.3-2.8,2.8-2.8h143.6C260,367.3,261.2,368.5,261.2,370.1z"/>
</g>
</svg>
