<?xml version="1.0" encoding="utf-8"?>
<!-- Generator: Adobe Illustrator 25.2.1, SVG Export Plug-In . SVG Version: 6.00 Build 0)  -->
<svg version="1.1" id="Layer_1" xmlns="http://www.w3.org/2000/svg" xmlns:xlink="http://www.w3.org/1999/xlink" x="0px" y="0px"
	 viewBox="0 0 4280.3 1133.9" style="enable-background:new 0 0 4280.3 1133.9;" xml:space="preserve">
<style type="text/css">
	.st0{fill:none;stroke:#404040;stroke-linecap:round;stroke-linejoin:round;stroke-miterlimit:11.3386;}
	.st1{fill:none;stroke:#030303;stroke-linejoin:round;stroke-miterlimit:11.3386;stroke-opacity:0.9955;}
</style>
<g>
	<path id="path4_1_" class="st0" d="M72,200.8"/>
	<path id="path8" class="st1" d="M66.9,327l-0.1-163.3c0-30,8.6-39.1,56-39.1h536"/>
	<path id="path10" class="st0" d="M89.6,385.4h214.8V231.3"/>
	<path id="path12" class="st0" d="M287.6,338.8c0.1,0.9-0.1,0.1,0.1,1.1c1.5,7.4,11.2,5,11.2-1.1v-36.9c0-7.5-11.3-7.4-11.3,0V338.8
		"/>
	<path id="path14" class="st1" d="M66.4,864.9l-0.1,163.3c0,32.8,11,39.2,59.3,39.1h531.7"/>
	<path id="path16" class="st0" d="M66.4,895.2V673.3"/>
	<path id="path22" class="st0" d="M89.5,673.3h215v285.6"/>
	<path id="path24" class="st0" d="M287.5,754.8c0,0,0,0.1,0.1,1.1c2.4,7.4,11.2,4.9,11.2-1.1v-36.9c0-7.3-11.3-7.6-11.3,0V754.8"/>
	<path id="path26" class="st0" d="M89.5,673.3l0.1-287.9"/>
	<path id="path28_1_" class="st0" d="M66.7,324.9l-0.4,348.4"/>
	<path id="path30" class="st0" d="M304.1,393.6h-25.5v133.2h25.5V393.6z"/>
	<path id="path32" class="st0" d="M118.7,392.7H93.2v133.2h25.5V392.7z"/>
	<path id="path34" class="st0" d="M304.3,534.7h-25.5v133.2h25.5V534.7z"/>
	<path id="path36" class="st0" d="M118.5,534.6H93v133.2h25.5V534.6z"/>
	<path id="path38" class="st0" d="M122.3,660.5c0,2.9,2.1,5.2,4.7,5.2h143.7c2.6,0,4.7-2.3,4.7-5.2V398.7c0-2.9-2.1-5.2-4.7-5.2H127
		c-2.6,0-4.7,2.3-4.7,5.2L122.3,660.5L122.3,660.5z"/>
	<path id="path42" class="st0" d="M341.9,178.7c-3,0-18.3-1.5-28,8.4c-3,3.1-9.4,11-9.6,24.8c0,0.2,0,19.6,0,19.9"/>
	<path id="path46" class="st0" d="M342.1,1013c-3,0-18.3,1.5-28-8.4c-3-3.1-9.4-11-9.6-24.8c0-0.2,0-21,0-21.3"/>
	<path id="path50" class="st0" d="M717.8,188.3l-0.2-22.3c0-2-1.5-22-9.4-30.3c-2.3-2.4-13.6-10.4-28.2-10.6
		c-0.2,0-13.9-0.5-14.1-0.5c-4.7,0.1-7.2,0-7.2,0"/>
	<path id="path52" class="st0" d="M632.7,212.5c0-3,1.2-14.3-8.7-24c-3.1-3-11-9.4-24.8-9.6c-0.2,0-257-0.2-257.3-0.1"/>
	<path id="path54" class="st0" d="M632.7,212.5v70.6h57"/>
	<path id="path56" class="st0" d="M717.7,201.5l0.1-14"/>
	<path id="path58" class="st0" d="M718,201.5h-0.3l-25.2-0.1h-2.8v82.4"/>
	<path id="path60" class="st0" d="M645.8,228c0,2.6,2.3,4.7,5.2,4.7h18c2.8,0,5.2-2.1,5.2-4.7v-53.1c0-2.6-2.3-4.7-5.2-4.7h-18
		c-2.8,0-5.2,2.1-5.2,4.7V228z"/>
	<path id="path64" class="st0" d="M632.9,979.3c0,3,1.2,14.3-8.7,24c-3.1,3-11,9.4-24.8,9.6c-7.8,0.2-249.6,0-257.3,0.1"/>
	<path id="path66" class="st0" d="M632.9,982.4v-5"/>
	<path id="path68" class="st0" d="M717.8,1003.6l-0.2,22.3c0,2-1.5,22-9.4,30.3c-2.3,2.4-13.6,10.4-28.2,10.6
		c-0.2,0-13.9,0.5-14.1,0.5c-4.7-0.1-8.6,0-8.6,0"/>
	<path id="path70" class="st0" d="M633,979.1l-0.3-70.3h57"/>
	<path id="path72" class="st0" d="M717.7,990.4l0.1,14"/>
	<path id="path74" class="st0" d="M718,990.4h-0.3l-25.2,0.1h-2.8v-82.4"/>
	<path id="path78" class="st0" d="M644,1020.2c0,2.5,1.8,4.5,4,4.5h20.6c2.2,0,4-2,4-4.5v-73.1c0-2.5-1.8-4.5-4-4.5H648
		c-2.2,0-4,2-4,4.5V1020.2z"/>
</g>
</svg>
