<?xml version="1.0" encoding="UTF-8" standalone="no"?>
<!-- exported from Silhouette Studio Business Edition V4.1.479ssbe -->

<svg
   xmlns:dc="http://purl.org/dc/elements/1.1/"
   xmlns:cc="http://creativecommons.org/ns#"
   xmlns:rdf="http://www.w3.org/1999/02/22-rdf-syntax-ns#"
   xmlns:svg="http://www.w3.org/2000/svg"
   xmlns="http://www.w3.org/2000/svg"
   xmlns:sodipodi="http://sodipodi.sourceforge.net/DTD/sodipodi-0.dtd"
   xmlns:inkscape="http://www.inkscape.org/namespaces/inkscape"
   version="1.1"
   width="1200mm"
   height="1200mm"
   viewBox="0 0 1200 1200"
   id="svg26"
   sodipodi:docname="840G1_palmrest.svg"
   inkscape:version="0.92.3 (2405546, 2018-03-11)">
  <metadata
     id="metadata30">
    <rdf:RDF>
      <cc:Work
         rdf:about="">
        <dc:format>image/svg+xml</dc:format>
        <dc:type
           rdf:resource="http://purl.org/dc/dcmitype/StillImage" />
      </cc:Work>
    </rdf:RDF>
  </metadata>
  <sodipodi:namedview
     pagecolor="#ffffff"
     bordercolor="#666666"
     borderopacity="1"
     objecttolerance="10"
     gridtolerance="10"
     guidetolerance="10"
     inkscape:pageopacity="0"
     inkscape:pageshadow="2"
     inkscape:window-width="1664"
     inkscape:window-height="887"
     id="namedview28"
     showgrid="false"
     inkscape:zoom="0.58870568"
     inkscape:cx="1013.1274"
     inkscape:cy="4048.2901"
     inkscape:window-x="0"
     inkscape:window-y="28"
     inkscape:window-maximized="1"
     inkscape:current-layer="svg26" />
  <defs
     id="defs2" />
  <g
     id="g882">
    <g
       id="g8">
      <path
         style="fill:none;fill-opacity:1;stroke:#3f3f3f;stroke-width:0.35277781;stroke-linecap:round;stroke-linejoin:round;stroke-opacity:1"
         inkscape:connector-curvature="0"
         d="m 113.938,191.9432 h 51.7994 v -84 H 73.73714 l -2e-5,55.597"
         id="path4" />
      <path
         style="fill:none;fill-opacity:1;stroke:#000100;stroke-width:0.35277781;stroke-linecap:butt;stroke-linejoin:round;stroke-opacity:0.9955357"
         inkscape:connector-curvature="0"
         d="m 145.12,191.9443 -27.2315,0.0225 -30.37188,0.025 c -11.68265,0.009 -13.74332,-4.0561 -13.79416,-20.8842 l 0.02035,-16.6767"
         id="path6" />
    </g>
    <path
       style="fill:none;fill-opacity:1;stroke:#3f3f3f;stroke-width:0.1;stroke-linecap:round;stroke-linejoin:round;stroke-opacity:1"
       inkscape:connector-curvature="0"
       d="m 148.97797,113.44859 c 1.099,0 1.9916,-0.894 1.9916,-1.9946 v -0.0108 c 0,-1.1006 -0.8926,-1.9946 -1.9916,-1.9946 h -13.0167 c -1.099,0 -1.9917,0.894 -1.9917,1.9946 v 0.0108 c 0,1.1006 0.8927,1.9946 1.9917,1.9946 z"
       id="path10" />
    <g
       id="g18">
      <path
         style="fill:none;fill-opacity:1;stroke:#000100;stroke-width:0.35277781;stroke-linecap:butt;stroke-linejoin:round;stroke-opacity:0.9955357"
         inkscape:connector-curvature="0"
         d="m 236.2943,191.9007 57.6033,0.0475 c 11.6827,0.009 13.7435,-4.0562 13.7943,-20.8845 l -0.0204,-16.6768"
         id="path14" />
      <path
         style="fill:none;fill-opacity:1;stroke:#3f3f3f;stroke-width:0.35277781;stroke-linecap:round;stroke-linejoin:round;stroke-opacity:1"
         inkscape:connector-curvature="0"
         d="m 246.9552,191.9008 h -78.2617 v -84 h 138.9999 v 55.597"
         id="path16" />
    </g>
    <path
       style="fill:none;fill-opacity:1;stroke:#3f3f3f;stroke-width:0.1;stroke-linecap:round;stroke-linejoin:round;stroke-opacity:1"
       inkscape:connector-curvature="0"
       d="m 198.36601,113.71323 c 1.099,0 1.9916,-0.894 1.9916,-1.9946 v -0.0107 c 0,-1.1006 -0.8926,-1.9947 -1.9916,-1.9947 h -13.0168 c -1.0989,0 -1.9916,0.8941 -1.9916,1.9947 v 0.0107 c 0,1.1006 0.8927,1.9946 1.9916,1.9946 z"
       id="path20" />
    <path
       style="fill:none;fill-opacity:1;stroke:#3f3f3f;stroke-width:0.1;stroke-linecap:round;stroke-linejoin:round;stroke-opacity:1"
       inkscape:connector-curvature="0"
       d="m 284.23354,122.71956 c 1.2929,0 2.3431,-0.9052 2.3431,-2.0196 v -0.0108 c 0,-1.1144 -1.0502,-2.0196 -2.3431,-2.0196 h -15.3139 c -1.2928,0 -2.343,0.9052 -2.343,2.0196 v 0.0108 c 0,1.1144 1.0502,2.0196 2.343,2.0196 z"
       id="path22" />
  </g>
</svg>
