<?xml version="1.0" encoding="UTF-8" standalone="no"?>
<!-- Created with Inkscape (http://www.inkscape.org/) -->

<svg
   xmlns:dc="http://purl.org/dc/elements/1.1/"
   xmlns:cc="http://creativecommons.org/ns#"
   xmlns:rdf="http://www.w3.org/1999/02/22-rdf-syntax-ns#"
   xmlns:svg="http://www.w3.org/2000/svg"
   xmlns="http://www.w3.org/2000/svg"
   xmlns:sodipodi="http://sodipodi.sourceforge.net/DTD/sodipodi-0.dtd"
   xmlns:inkscape="http://www.inkscape.org/namespaces/inkscape"
   width="594mm"
   height="841mm"
   viewBox="0 0 594 841"
   version="1.1"
   id="svg831"
   inkscape:version="0.92.3 (2405546, 2018-03-11)"
   sodipodi:docname="840_G3_PR_FP.svg">
  <defs
     id="defs825" />
  <sodipodi:namedview
     id="base"
     pagecolor="#ffffff"
     bordercolor="#666666"
     borderopacity="1.0"
     inkscape:pageopacity="0.0"
     inkscape:pageshadow="2"
     inkscape:zoom="0.35"
     inkscape:cx="1559.5266"
     inkscape:cy="1168.7274"
     inkscape:document-units="mm"
     inkscape:current-layer="layer1"
     showgrid="false"
     showguides="true"
     inkscape:guide-bbox="true"
     inkscape:window-width="1920"
     inkscape:window-height="1017"
     inkscape:window-x="-8"
     inkscape:window-y="-8"
     inkscape:window-maximized="1" />
  <metadata
     id="metadata828">
    <rdf:RDF>
      <cc:Work
         rdf:about="">
        <dc:format>image/svg+xml</dc:format>
        <dc:type
           rdf:resource="http://purl.org/dc/dcmitype/StillImage" />
        <dc:title />
      </cc:Work>
    </rdf:RDF>
  </metadata>
  <g
     inkscape:label="Layer 1"
     inkscape:groupmode="layer"
     id="layer1"
     transform="translate(0,544)">
    <g
       id="g871">
      <path
         id="rect1379"
         d="m 439.53458,-232.77698 10.67218,0.017 c 8.86399,0.0141 16,7.136 16,16 v 197.647228 c 0,8.864 -7.136,15.9999996 -16,15.9999996 H 150.55954 c -8.864,0 -16,-7.1359996 -16,-15.9999996 V -216.76028 c 0,-8.864 7.13603,-16.02463 16,-16 l 10.68982,0.0297"
         style="opacity:1;fill:none;fill-opacity:0.25116284;stroke:#000000;stroke-width:0.35277778;stroke-miterlimit:4;stroke-dasharray:none;stroke-opacity:1"
         inkscape:connector-curvature="0"
         sodipodi:nodetypes="cssssssssc" />
      <path
         sodipodi:nodetypes="cssssccssssc"
         inkscape:connector-curvature="0"
         id="rect1381"
         d="m 228.20676,-83.374559 -62.67959,0.130815 c -8.86398,0.0185 -15.99999,-7.135995 -15.99999,-15.999989 v -89.647237 c 0,-8.864 7.13606,-15.9653 15.99999,-15.99999 l 26.36919,-0.10319 m 216.99122,-0.23541 26.28682,0.3386 c 8.86326,0.11417 15.99999,7.13599 15.99999,15.99999 v 89.647237 c 0,8.863994 -7.13599,16.000198 -15.99999,15.999989 l -108.32042,-0.0026"
         style="opacity:1;fill:none;fill-opacity:0.25116284;stroke:#000000;stroke-width:0.35277778;stroke-miterlimit:4;stroke-dasharray:none;stroke-opacity:1" />
      <path
         inkscape:connector-curvature="0"
         id="rect1387"
         d="m 155.29915,-219.5839 h 18.46244 c 1.15918,0 2.09239,0.892 2.09239,2 v 4.64722 c 0,1.108 -0.93321,2 -2.09239,2 h -18.46244 c -1.15919,0 -2.09239,-0.892 -2.09239,-2 v -4.64722 c 0,-1.108 0.9332,-2 2.09239,-2 z"
         style="opacity:1;fill:none;fill-opacity:0.25116284;stroke:#000000;stroke-width:0.35277778;stroke-miterlimit:4;stroke-dasharray:none;stroke-opacity:1" />
      <path
         inkscape:connector-curvature="0"
         id="rect1387-5"
         d="m 428.38315,-219.05473 h 16.64723 c 1.108,0 2,0.892 2,2 v 4.64722 c 0,1.108 -0.892,2 -2,2 h -16.64723 c -1.108,0 -2,-0.892 -2,-2 v -4.64722 c 0,-1.108 0.892,-2 2,-2 z"
         style="opacity:1;fill:none;fill-opacity:0.25116284;stroke:#000000;stroke-width:0.35277778;stroke-miterlimit:4;stroke-dasharray:none;stroke-opacity:1" />
      <path
         inkscape:connector-curvature="0"
         id="rect1404"
         d="m 428.91232,-73.407501 h 15.64723 c 0.554,0 1,0.446 1,1 v 1.647222 c 0,0.554 -0.446,1 -1,1 h -15.64723 c -0.554,0 -1,-0.446 -1,-1 v -1.647222 c 0,-0.554 0.446,-1 1,-1 z"
         style="opacity:1;fill:none;fill-opacity:0.25116284;stroke:#000000;stroke-width:0.35277778;stroke-miterlimit:4;stroke-dasharray:none;stroke-opacity:1" />
      <path
         sodipodi:nodetypes="cssssc"
         inkscape:connector-curvature="0"
         id="rect1408"
         d="m 326.85398,-83.513567 v 66.753274 c 0,3.878001 -3.122,7.0000009 -7,7.0000009 h -84.64722 c -3.878,0 -7,-3.1219999 -7,-7.0000009 v -66.614266"
         style="opacity:1;fill:none;fill-opacity:0.25116284;stroke:#000000;stroke-width:0.35277778;stroke-miterlimit:4;stroke-dasharray:none;stroke-opacity:1" />
      <path
         sodipodi:nodetypes="cccssc"
         inkscape:connector-curvature="0"
         id="rect1417"
         d="m 230.32961,-19.395376 h 46.50506 v 8.647214 h -38.41133 c -4.56268,0 -8.1414,-3.515827 -8.1414,-5.911107 0,-2.395277 0.0477,-2.736107 0.0477,-2.736107 z"
         style="opacity:1;fill:none;fill-opacity:0.25116284;stroke:#000000;stroke-width:0.35277778;stroke-miterlimit:4;stroke-dasharray:none;stroke-opacity:1" />
      <path
         sodipodi:nodetypes="cccssc"
         inkscape:connector-curvature="0"
         id="rect1417-2"
         d="m 324.92724,-19.395376 h -46.50506 v 8.647214 h 38.41133 c 4.56268,0 8.1414,-3.515827 8.1414,-5.911107 0,-2.395277 -0.0477,-2.736107 -0.0477,-2.736107 z"
         style="opacity:1;fill:none;fill-opacity:0.25116284;stroke:#000000;stroke-width:0.35277778;stroke-miterlimit:4;stroke-dasharray:none;stroke-opacity:1" />
      <path
         sodipodi:nodetypes="ccssc"
         inkscape:connector-curvature="0"
         id="rect1435"
         d="m 276.8577,-74.584246 -46.64722,-0.0723 v -6.574894 c 0,-1.108 0.93195,-2 2.08959,-2 h 44.55763 z"
         style="opacity:1;fill:none;fill-opacity:0.25116284;stroke:#000000;stroke-width:0.35277778;stroke-miterlimit:4;stroke-dasharray:none;stroke-opacity:1" />
      <path
         sodipodi:nodetypes="ccssc"
         inkscape:connector-curvature="0"
         id="rect1435-8"
         d="m 278.44521,-74.584246 46.64722,-0.0723 v -6.574894 c 0,-1.108 -0.93195,-2 -2.08959,-2 h -44.55763 z"
         style="opacity:1;fill:none;fill-opacity:0.25116284;stroke:#000000;stroke-width:0.35277778;stroke-miterlimit:4;stroke-dasharray:none;stroke-opacity:1" />
      <path
         inkscape:connector-curvature="0"
         style="opacity:1;fill:none;fill-opacity:0.25116284;stroke:#000000;stroke-width:0.35277778;stroke-miterlimit:4;stroke-dasharray:none;stroke-opacity:1"
         d="m 230.2048,-73.129448 h 94.64723 c 0.554,0 1,0.446 1,1 v 50.647221 c 0,0.554 -0.446,1 -1,1 H 230.2048 c -0.554,0 -1,-0.446 -1,-1 v -50.647221 c 0,-0.554 0.446,-1 1,-1 z"
         id="rect1453" />
      <path
         sodipodi:nodetypes="cccssc"
         inkscape:connector-curvature="0"
         id="rect826"
         d="m 191.84126,-223.04415 0.0551,18.05 m -0.0551,-18.05 h -29.59194 c -0.554,0 -1,-0.446 -1,-1 v -8.68643"
         style="opacity:1;fill:none;fill-opacity:0.25116284;stroke:#000000;stroke-width:0.35299999;stroke-miterlimit:4;stroke-dasharray:none;stroke-opacity:1" />
      <path
         sodipodi:nodetypes="cssccc"
         inkscape:connector-curvature="0"
         id="rect826-3"
         d="m 439.53458,-232.777 v 8.68643 c 0,0.554 -0.446,1 -1,1 h -29.78093 m 0.13393,17.86101 -0.13393,-17.86101"
         style="opacity:1;fill:none;fill-opacity:0.25116284;stroke:#000000;stroke-width:0.35299999;stroke-miterlimit:4;stroke-dasharray:none;stroke-opacity:1" />
    </g>
  </g>
</svg>
