<?xml version="1.0" encoding="utf-8"?>
<!-- Generator: Adobe Illustrator 25.2.1, SVG Export Plug-In . SVG Version: 6.00 Build 0)  -->
<svg version="1.1" id="Layer_1" xmlns="http://www.w3.org/2000/svg" xmlns:xlink="http://www.w3.org/1999/xlink" x="0px" y="0px"
	 viewBox="0 0 4280.3 1133.9" style="enable-background:new 0 0 4280.3 1133.9;" xml:space="preserve">
<style type="text/css">
	.st0{fill:none;stroke:#010101;stroke-miterlimit:11.3386;}
	.st1{fill:none;stroke:#010101;stroke-width:1.0006;stroke-miterlimit:11.3386;}
</style>
<g>
	<path id="rect1379" class="st0" d="M705.9,1004.2v30.4c0,25.2-20.3,45.5-45.6,45.5H96.7c-25.3,0-45.6-20.3-45.6-45.5V181.7
		c0-25.2,20.4-45.5,45.6-45.5h563.5c25.3,0,45.7,20.3,45.6,45.5l-0.1,30.4"/>
	<path id="rect1381" class="st0" d="M279.9,402.1l-0.4-183.5c0-25.3,15.8-41.2,41.1-41.2h264.6c25.3,0,41,15.8,41.1,41.2l0.3,79.8
		 M627.3,918l-1,78.1c-0.3,25.3-15.8,42.7-41.1,42.7H320.6c-25.3,0-41.2-17.4-41.1-42.7l0.8-307.2"/>
	<path id="rect1387" class="st0" d="M666.2,197.2v52.6c0,3.3-2.5,6-5.7,6h-13.2c-3.2,0-5.7-2.7-5.7-6v-52.6c0-3.3,2.5-6,5.7-6h13.2
		C663.7,191.3,666.2,193.9,666.2,197.2L666.2,197.2z"/>
	<path id="rect1387-5" class="st0" d="M666.7,969.7v49.9c0,3.3-2.5,6-5.7,6h-13.2c-3.2,0-5.7-2.7-5.7-6v-49.9c0-3.3,2.5-6,5.7-6H661
		C664.2,963.7,666.7,966.4,666.7,969.7z"/>
	<path id="rect1408" class="st0" d="M280.3,685.8H90c-11.1,0-20-8.9-20-20v-242c0-11.1,8.9-20,20-20h189.9"/>
	<path id="rect1417" class="st0" d="M97.5,408.8v132.4H72.8V431.8c0-13,10-23.2,16.8-23.2C96.5,408.7,97.5,408.8,97.5,408.8
		L97.5,408.8z"/>
	<path id="rect1417-2" class="st0" d="M97.5,678V545.7H72.8V655c0,13,10,23.2,16.8,23.2C96.5,678.2,97.5,678,97.5,678L97.5,678z"/>
	<path id="rect1435" class="st0" d="M254.8,541.2l0.2-132.8h18.8c3.2,0,5.7,2.6,5.7,6v126.8H254.8z"/>
	<path id="rect1435-8" class="st0" d="M254.8,545.7l0.2,132.8h18.8c3.2,0,5.7-2.7,5.7-6V545.7H254.8z"/>
	<path id="rect1453" class="st0" d="M250.7,408.4v269.4c0,1.6-1.3,2.8-2.9,2.8H103.4c-1.6,0-2.8-1.3-2.8-2.8V408.4
		c0-1.6,1.3-2.9,2.8-2.9h144.4C249.4,405.6,250.7,406.9,250.7,408.4z"/>
	<path id="rect826" class="st1" d="M678.1,299.2l-51.5,0.2 M678.1,299.2V215c0-1.6,1.3-2.9,2.8-2.9h24.8"/>
	<path id="rect826-3" class="st1" d="M705.9,1004.2h-24.8c-1.6,0-2.8-1.3-2.8-2.8v-84.8 M627.3,917l50.9-0.4"/>
</g>
</svg>
