<?xml version="1.0" encoding="utf-8"?>
<!-- Generator: Adobe Illustrator 25.2.1, SVG Export Plug-In . SVG Version: 6.00 Build 0)  -->
<svg version="1.1" id="Layer_1" xmlns="http://www.w3.org/2000/svg" xmlns:xlink="http://www.w3.org/1999/xlink" x="0px" y="0px"
	 viewBox="0 0 4280.3 1133.9" style="enable-background:new 0 0 4280.3 1133.9;" xml:space="preserve">
<style type="text/css">
	.st0{fill:none;stroke:#010101;stroke-width:1.0006;stroke-miterlimit:11.3386;}
</style>
<g>
	<path id="rect1379" class="st0" d="M316.2,1069.3l-178.8,0.2c-31.1,0-44.6-15.9-44.6-45.4V174.8c0-31,15.6-45.3,44.6-45.4
		l178.8-0.5"/>
	<path id="rect1381" class="st0" d="M316.2,1069.3l0.4-390.5 M316.7,394.9l-0.5-266"/>
	<path id="rect1408" class="st0" d="M316.6,678.8H131.4c-11,0-18.3-9.1-18.3-20.4V415.2c0-11.3,7.3-20.4,18.3-20.4h185.3"/>
	<path id="rect1417" class="st0" d="M141.7,409.9v131.8h-24.5V432.8c0-12.9,10-23.1,16.8-23.1S141.7,409.9,141.7,409.9L141.7,409.9z
		"/>
	<path id="rect1417-2" class="st0" d="M141.7,673.5V541.7h-24.5v108.9c0,12.9,10,23.1,16.8,23.1S141.7,673.5,141.7,673.5
		L141.7,673.5z"/>
	<path id="rect1435" class="st0" d="M304.5,537.6l0.2-132.2h18.6c3.1,0,5.7,2.6,5.7,5.9v126.3H304.5z"/>
	<path id="rect1435-8" class="st0" d="M304.5,537.6l0.2,132.2h18.6c3.1,0,5.7-2.6,5.7-5.9V537.6H304.5z"/>
	<path id="rect1453" class="st0" d="M298.7,402.4v268.3c0,1.6-1.3,2.8-2.8,2.8H152.3c-1.6,0-2.8-1.3-2.8-2.8V402.4
		c0-1.6,1.3-2.8,2.8-2.8h143.6C297.4,399.5,298.7,400.8,298.7,402.4z"/>
</g>
</svg>
