<?xml version="1.0" encoding="utf-8"?>
<!-- Generator: Adobe Illustrator 25.2.0, SVG Export Plug-In . SVG Version: 6.00 Build 0)  -->
<svg version="1.1" id="Layer_1" xmlns="http://www.w3.org/2000/svg" xmlns:xlink="http://www.w3.org/1999/xlink" x="0px" y="0px"
	 viewBox="0 0 4280.31 1133.86" style="enable-background:new 0 0 4280.31 1133.86;" xml:space="preserve">
<style type="text/css">
	.st0{fill:none;stroke:#010101;stroke-miterlimit:11.3386;}
	.st1{fill:none;stroke:#010101;stroke-width:1.0006;stroke-miterlimit:11.3386;}
</style>
<g>
	<path id="rect1379" class="st0" d="M705.86,1004.23l-0.05,30.38c-0.04,25.23-20.35,45.54-45.62,45.54H96.67
		c-25.27,0-45.62-20.31-45.62-45.54V181.75c0-25.23,20.35-45.54,45.62-45.54h563.52c25.27,0,45.69,20.31,45.62,45.54l-0.08,30.43"/>
	<path id="rect1381" class="st0" d="M279.89,402.07l-0.37-183.52c-0.05-25.31,15.82-41.16,41.09-41.16h264.65
		c25.27,0,41,15.84,41.09,41.16l0.29,79.83 M627.32,918.03l-0.97,78.09c-0.31,25.31-15.82,42.67-41.09,42.67H320.61
		c-25.27,0-41.16-17.36-41.09-42.67l0.77-307.22"/>
	<path id="rect1387" class="st0" d="M666.24,197.24v52.55c0,3.3-2.54,5.96-5.7,5.96h-13.25c-3.16,0-5.7-2.66-5.7-5.96v-52.55
		c0-3.3,2.54-5.96,5.7-5.96h13.25C663.7,191.28,666.24,193.94,666.24,197.24L666.24,197.24z"/>
	<path id="rect1387-5" class="st0" d="M666.73,969.69v49.88c0,3.32-2.54,5.99-5.7,5.99h-13.25c-3.16,0-5.7-2.67-5.7-5.99v-49.88
		c0-3.32,2.54-5.99,5.7-5.99h13.25C664.19,963.7,666.73,966.37,666.73,969.69z"/>
	<path id="rect1404" class="st0" d="M254.47,970v44.54c0,1.58-1.27,2.85-2.85,2.85h-4.7c-1.58,0-2.85-1.27-2.85-2.85V970
		c0-1.58,1.27-2.85,2.85-2.85h4.7C253.2,967.15,254.47,968.42,254.47,970z"/>
	<path id="rect1408" class="st0" d="M280.29,685.85H89.96c-11.06,0-19.96-8.93-19.96-20.01V423.81c0-11.09,8.9-20.01,19.96-20.01
		h189.93"/>
	<path id="rect1417" class="st0" d="M97.48,408.79v132.36H72.82V431.83c0-12.99,10.02-23.17,16.85-23.17
		C96.51,408.66,97.48,408.79,97.48,408.79L97.48,408.79z"/>
	<path id="rect1417-2" class="st0" d="M97.48,678.04V545.67H72.82V655c0,12.99,10.02,23.17,16.85,23.17
		C96.51,678.17,97.48,678.04,97.48,678.04L97.48,678.04z"/>
	<path id="rect1435" class="st0" d="M254.83,541.22l0.21-132.77h18.75c3.16,0,5.7,2.65,5.7,5.95v126.82H254.83z"/>
	<path id="rect1435-8" class="st0" d="M254.83,545.74l0.21,132.77h18.75c3.16,0,5.7-2.65,5.7-5.95V545.74H254.83z"/>
	<path id="rect1453" class="st0" d="M250.68,408.44v269.39c0,1.58-1.27,2.85-2.85,2.85h-144.4c-1.58,0-2.85-1.27-2.85-2.85V408.44
		c0-1.58,1.27-2.85,2.85-2.85h144.4C249.41,405.59,250.68,406.86,250.68,408.44z"/>
	<path id="rect826" class="st1" d="M678.11,299.25l-51.46,0.16 M678.11,299.25v-84.22c0-1.58,1.27-2.85,2.85-2.85h24.77"/>
	<path id="rect826-3" class="st1" d="M705.86,1004.23h-24.77c-1.58,0-2.85-1.27-2.85-2.85v-84.76 M627.32,917l50.92-0.38"/>
</g>
</svg>
