<?xml version="1.0" encoding="utf-8"?>
<!-- Generator: Adobe Illustrator 25.2.0, SVG Export Plug-In . SVG Version: 6.00 Build 0)  -->
<svg version="1.1"
	 id="svg3992" xmlns:cc="http://creativecommons.org/ns#" xmlns:dc="http://purl.org/dc/elements/1.1/" xmlns:inkscape="http://www.inkscape.org/namespaces/inkscape" xmlns:rdf="http://www.w3.org/1999/02/22-rdf-syntax-ns#" xmlns:sodipodi="http://sodipodi.sourceforge.net/DTD/sodipodi-0.dtd" xmlns:svg="http://www.w3.org/2000/svg"
	 xmlns="http://www.w3.org/2000/svg" xmlns:xlink="http://www.w3.org/1999/xlink" x="0px" y="0px" viewBox="0 0 2383.9 3370.4"
	 style="enable-background:new 0 0 2383.9 3370.4;" xml:space="preserve">
<style type="text/css">
	.st0{fill:none;stroke:#000000;stroke-width:1;stroke-linecap:round;stroke-linejoin:round;stroke-miterlimit:11.3386;}
</style>
<sodipodi:namedview  bordercolor="#666666" borderopacity="1" gridtolerance="10" guidetolerance="10" id="namedview3994" inkscape:current-layer="svg3992" inkscape:cx="-1062.3292" inkscape:cy="1133.8583" inkscape:pageopacity="0" inkscape:pageshadow="2" inkscape:window-height="1017" inkscape:window-maximized="1" inkscape:window-width="1920" inkscape:window-x="-8" inkscape:window-y="-8" inkscape:zoom="0.10406944" objecttolerance="10" pagecolor="#ffffff" showgrid="false">
	</sodipodi:namedview>
<path id="path3974" inkscape:connector-curvature="0" class="st0" d="M502.6,2101.1c-4.8-0.2-5.5-0.3-7.7-1.5
	c-1.4-0.7-3.3-1.6-4.3-2c-2.7-1.2-4.9-3-8.4-6.4c-2-2-3.3-3.7-3.7-4.9c-0.4-1-0.8-1.8-1-1.8c-0.6,0-1.8-2.9-2.3-5.5
	c-0.3-1.4-0.7-3.4-1.1-4.5c-0.5-1.7-0.6-41.3-0.6-291.1c0-175.1,0.2-289.8,0.4-290.7c0.2-0.9,0.7-3.5,1-5.9c0.6-4.2,1.6-7.3,2.5-7.9
	c0.2-0.1,0.7-1.2,1.1-2.4c0.3-1.2,1-2.4,1.4-2.8c0.4-0.4,1.2-1.5,1.8-2.5c0.6-1,1.7-2.5,2.5-3.2c0.8-0.8,1.8-1.8,2.3-2.4
	c1.4-1.6,4.6-4,6.3-4.9c0.9-0.5,2-1.2,2.5-1.6c0.5-0.4,1.9-1.1,3.1-1.5c1.3-0.4,2.6-0.8,2.9-1c1.9-1.2,3.1-1.7,5.1-2
	c3.7-0.6,42.5-1.1,44.1-0.6c2.6,0.8,2.8,1.8,2.8,13.2c0,8.5,0,10.1,0.6,10.9l0.6,1l31.8,0l31.8,0l1.4-1.2l1.4-1.2l0-9.3
	c0-9.5,0.2-12.1,1.4-12.9c0.4-0.3,1.6-0.6,2.7-0.7c1.1-0.1,145.4-0.2,320.6-0.1l318.6,0.1l1.2,1.3l1.2,1.3l0,10.1
	c0,9.8,0,10.2,0.9,11.8c0.8,1.5,1,1.7,2.1,1.5c1.9-0.4,52.3-0.5,54.1-0.2c1.1,0.2,2.2,0.1,3.4-0.2c1-0.3,2.2-0.4,2.8-0.2
	c1.8,0.5,2.3,0.4,3.2-0.8c0.8-1.1,0.8-1.7,0.9-11.6l0.1-10.4l1.3-1.3l1.3-1.3l14.6-0.1c19.5-0.2,30.7,0.6,33.4,2.4
	c0.8,0.5,2.5,1.2,3.6,1.5c1.2,0.3,2.7,0.9,3.4,1.4c0.7,0.5,2.1,1.3,3.1,1.9c1,0.6,2.2,1.4,2.5,2c0.3,0.5,1.2,1.2,2,1.6
	c0.8,0.4,1.6,1.2,2,1.8c0.3,0.6,1,1.3,1.4,1.6c0.4,0.2,1.3,1.2,1.8,2.1s1.4,1.9,1.7,2.1c0.4,0.3,1.2,1.5,1.7,2.8
	c0.6,1.3,1.4,2.8,1.8,3.5c0.4,0.7,1.2,3,1.8,5.1c0.6,2.2,1.3,4.8,1.6,5.8c0.4,1.4,0.6,7.4,0.7,23.1c0.1,14.2,0.3,21.8,0.6,23
	c0.5,2.1,0.3,24-0.3,29.7c-0.2,2.3-0.4,94-0.4,256.5c0,229.9-0.1,253.1-0.7,254.7c-0.3,0.9-1,3.1-1.6,4.8s-1.3,3.6-1.8,4.1
	c-0.5,0.6-1.2,1.7-1.7,2.6c-1.1,2-4.6,5.7-6.8,7.2c-0.9,0.6-2.1,1.5-2.7,2c-0.5,0.5-2,1.2-3.2,1.6c-1.2,0.4-2.7,1-3.2,1.4
	s-1.9,0.9-2.9,1.1c-1.8,0.4-34.6,0.4-512.5,0.4c-94.4,0-139.5-0.1-140.6-0.4c-0.8-0.2-1.7-0.3-2-0.1
	C733.4,2101,510.3,2101.5,502.6,2101.1L502.6,2101.1z"/>
<path id="path3976" inkscape:connector-curvature="0" class="st0" d="M1018.1,2076.3c0.3-0.3,0.4-28.8,0.4-106.2
	c0-84.2,0.1-105.9,0.5-106.6c0.3-0.5,0.9-1.1,1.4-1.4c0.7-0.4,30.7-0.5,148.7-0.6c80.7,0,153.4-0.1,161.5-0.2l14.7-0.1l2-1.3
	c1.1-0.7,2.6-1.5,3.5-1.7c1.1-0.3,1.7-0.8,2.1-1.7c0.3-0.7,1-1.5,1.6-1.8c0.7-0.4,1.3-1.4,2-3.3c0.5-1.5,1.2-3,1.5-3.4
	c1.4-1.5,1.5-4,1.2-38.5c-0.3-45.3-0.3-193.3,0-219.9c0.3-20.3,0.2-23.5-0.9-31.7c-0.1-1-0.5-2-1-2.4c-0.5-0.4-0.9-1.7-1.3-3.6
	c-0.5-2.6-0.7-3-1.7-3.6c-0.6-0.4-1.2-1-1.3-1.4c-0.2-1.2-0.8-1.7-2.4-2.1c-0.9-0.2-1.6-0.7-1.9-1.3c-0.3-0.7-0.9-1-3-1.4
	c-3.7-0.7-803.2-0.7-805.8,0c-1.2,0.3-1.9,0.8-2.4,1.6c-0.4,0.6-1.1,1.2-1.7,1.3c-0.6,0.1-1.3,0.3-1.5,0.4c-0.2,0.1-0.6,0.8-0.7,1.5
	c-0.2,1.1-0.5,1.5-1.5,1.7c-1.1,0.3-1.3,0.6-2.1,3.2c-0.5,1.6-1.2,3.2-1.6,3.7c-0.7,0.8-0.7,5.8-0.8,144.8
	c-0.1,140.3-0.1,144.1,0.6,145.5c0.4,0.8,1.2,2.8,1.7,4.4c0.7,2.2,1.2,3.1,2.2,3.9c0.7,0.5,1.5,1.5,1.7,2c0.3,0.8,1.1,1.3,2.7,2
	c1.2,0.5,2.9,1.4,3.7,2l1.4,1l95.6,0.2c71.3,0.1,96.8,0.3,97.4,0.7c0.4,0.3,1.1,0.8,1.5,1.3c0.7,0.8,0.7,4.6,0.7,106.7
	c0,100.8,0,105.9,0.7,106.4C738.4,2077.1,1017.4,2077,1018.1,2076.3L1018.1,2076.3z"/>
<path id="path3978" inkscape:connector-curvature="0" class="st0" d="M1349.6,1905.4c0.6-1.4,0.7-2.5,0.6-5.1
	c-0.3-5.4,2.4-4.9-25-4.9h-23.4l-1.1,1.1c-1,0.9-1.1,1.5-1.3,4.2c-0.2,3-0.2,3.1,1,4.8l1.3,1.7l23.6,0l23.6,0L1349.6,1905.4z"/>
<path id="path3980" inkscape:connector-curvature="0" class="st0" d="M686.8,1877.9c1.2-0.4,1.4-0.8,1.8-2.3c0.4-1.5,0.4-2-0.2-3.1
	c-1.2-2.5-1.2-2.5-20.2-2.6c-9.4-0.1-18,0-19,0.2c-1.7,0.3-1.9,0.4-2.6,2.2c-0.6,1.6-0.6,2.1-0.2,3.5c0.3,1.1,0.8,1.9,1.4,2.2
	C649.3,1878.6,684.8,1878.6,686.8,1877.9L686.8,1877.9z"/>
<path id="path3982" inkscape:connector-curvature="0" class="st0" d="M1107.2,1878c1.2-0.3,1.5-0.6,1.9-1.9c0.2-0.8,0.4-1.8,0.4-2.1
	c0-1.1-1.1-3.4-1.9-3.7c-0.9-0.4-34.7-0.6-37.5-0.2c-2,0.3-2.1,0.3-2.8,2.2c-0.6,1.6-0.7,2.2-0.3,3.7c0.4,1.6,0.6,1.9,1.7,2.1
	C1070.9,1878.5,1105.6,1878.5,1107.2,1878L1107.2,1878z"/>
<path id="path3984" inkscape:connector-curvature="0" class="st0" d="M1129.8,1529.6l122.2,0l0.7-2c0.6-1.8,0.6-4.2,0.4-26.7
	c-0.3-32-0.3-32-0.9-33.1c-0.6-1-0.4-1-2.3-0.4c-1,0.3-2,0.4-2.9,0.2c-0.8-0.2-23.8-0.3-51.3-0.3c-35.8,0-50.8-0.1-53-0.4
	c-4.5-0.6-141.6-0.4-146.2,0.3c-2.4,0.3-47,0.4-178.8,0.3c-96.6-0.1-175.9-0.2-176.2-0.2c-0.3-0.1-2.1,0-3.9,0.2
	c-2.4,0.2-3.3,0.5-3.5,0.9c-0.7,1.8-0.9,58.4-0.2,60.2c0.3,0.8,0.7,0.9,2.7,1c1.3,0.1,85.3,0.1,186.7,0.1
	C924.7,1529.7,1062.6,1529.6,1129.8,1529.6L1129.8,1529.6z"/>
<path id="path3986" inkscape:connector-curvature="0" class="st0" d="M579.2,1521.2c3.5-0.9,3.5-1,3.6-11.1c0-5.1-0.1-7.6-0.5-8.9
	c-1-3-1-3.1-24.5-3.1c-22.7,0-32.8,0.3-33.6,1.2c-1.1,1.2-1.8,5.3-1.8,10.9c0,7.7,0.8,10.7,2.9,10.7c0.5,0,1.1,0.2,1.4,0.4
	C527.6,1521.9,576.9,1521.8,579.2,1521.2L579.2,1521.2z"/>
<path id="path3988" inkscape:connector-curvature="0" class="st0" d="M1362.1,1520.4c0.7-0.4,1.3-1,1.3-1.3c0-0.3,0.5-1.6,1-2.8
	c1-2.1,1-2.5,0.9-7.6c-0.1-4.7-0.2-5.5-1-6.5c-0.5-0.7-1.1-1.7-1.5-2.2c-1.1-1.9-2.2-1.9-38-1.8l-33.2,0.1l-1.7,1.2
	c-2.3,1.7-2.7,2.8-2.7,10.1c0,9.1,0.6,10.6,5,11.5c0.8,0.2,16.5,0.3,35,0.2C1358.6,1521.1,1360.9,1521.1,1362.1,1520.4
	L1362.1,1520.4z"/>
</svg>
