<?xml version="1.0" encoding="utf-8"?>
<!-- Generator: Adobe Illustrator 26.1.0, SVG Export Plug-In . SVG Version: 6.00 Build 0)  -->
<svg version="1.1" id="Layer_1" xmlns="http://www.w3.org/2000/svg" xmlns:xlink="http://www.w3.org/1999/xlink" x="0px" y="0px"
	 viewBox="0 0 4280.3 1133.9" style="enable-background:new 0 0 4280.3 1133.9;" xml:space="preserve">
<style type="text/css">
	.st0{fill:none;stroke:#010101;stroke-linecap:round;stroke-linejoin:round;stroke-miterlimit:11.3386;}
</style>
<g>
	<path class="st0" d="M755.1,777.9v240.9c0,12.5-10.2,22.7-22.7,22.7H106c-1.6,0-2.8-1.3-2.8-2.8V927.5"/>
	<path class="st0" d="M103.2,237.2V126c0-1.6,1.3-2.8,2.8-2.8h626.5c12.5,0,22.7,10.2,22.7,22.7v362.8"/>
	<path class="st0" d="M511.4,174.1v816.4c0,4.7-3.8,8.5-8.5,8.5H206.6c-4.7,0-8.5-3.8-8.5-8.5V174.1c0-4.7,3.8-8.5,8.5-8.5h296.2
		C507.5,165.6,511.4,169.5,511.4,174.1z"/>
	<path class="st0" d="M103.2,237.2h28.3c1.6,0,2.8,1.3,2.8,2.8v684.6c0,1.6-1.3,2.8-2.8,2.8h-28.3"/>
	<path class="st0" d="M731.1,491.6v303.3c0,3.1-2.5,5.7-5.7,5.7H532.7c-3.1,0-5.7-2.5-5.7-5.7V491.6c0-3.1,2.5-5.7,5.7-5.7h192.8
		C728.6,486,731.1,488.5,731.1,491.6z"/>
	<path class="st0" d="M565.2,177v28.3c0,1.6-1.3,2.8-2.8,2.8H534c-1.6,0-2.8-1.3-2.8-2.8V177c0-1.6,1.3-2.8,2.8-2.8h28.3
		C563.9,174.1,565.2,175.4,565.2,177z"/>
	<path class="st0" d="M755.1,508.6L755.1,508.6"/>
	<path class="st0" d="M755.1,777.9c-3.1,0-5.7-6.4-5.7-9.5V517.6c0-3.1,2.5-8.9,5.7-8.9"/>
	<path class="st0" d="M755.1,777.9L755.1,777.9"/>
	<path class="st0" d="M180.4,177v810.7c0,1.6-1.3,2.8-2.8,2.8h-31.2c-1.6,0-2.8-1.3-2.8-2.8V177c0-1.6,1.3-2.8,2.8-2.8h31.2
		C179.1,174.1,180.4,175.4,180.4,177z"/>
	<path class="st0" d="M194.9,941.7V987c0,1.6-1.3,2.8-2.8,2.8h-5.7c-1.6,0-2.8-1.3-2.8-2.8v-45.4c0-1.6,1.3-2.8,2.8-2.8h5.7
		C193.7,938.8,194.9,940.1,194.9,941.7z"/>
	<path class="st0" d="M561,643.3v153.1h-21.3c-3.1,0-5.7-2.5-5.7-5.7V643.3H561z"/>
	<path class="st0" d="M561,643.3V490.2h-21.3c-3.1,0-5.7,2.5-5.7,5.7v147.4H561z"/>
	<path class="st0" d="M726.8,491.6v303.3c0,1.6-1.3,2.8-2.8,2.8H563.8c-1.6,0-2.8-1.3-2.8-2.8V491.6c0-1.6,1.3-2.8,2.8-2.8H724
		C725.5,488.8,726.8,490.1,726.8,491.6z"/>
</g>
</svg>
