<?xml version="1.0" encoding="utf-8"?>
<!-- Generator: Adobe Illustrator 26.1.0, SVG Export Plug-In . SVG Version: 6.00 Build 0)  -->
<svg version="1.1" id="Layer_1" xmlns="http://www.w3.org/2000/svg" xmlns:xlink="http://www.w3.org/1999/xlink" x="0px" y="0px"
	 viewBox="0 0 4280.3 1133.9" style="enable-background:new 0 0 4280.3 1133.9;" xml:space="preserve">
<style type="text/css">
	.st0{fill:none;stroke:#010101;stroke-miterlimit:11.3386;}
	.st1{fill:none;stroke:#010101;stroke-width:1.0006;stroke-miterlimit:11.3386;}
</style>
<g>
	<path id="rect1379" class="st0" d="M1255.5,929.3l-0.1,30.4c0,33.5-13.7,45.5-45.6,45.5H646.3c-31.2,0-45.6-12.8-45.6-45.5V106.8
		c0-32.6,12.1-45.5,45.6-45.5h563.5c37.1,0,45.6,12.1,45.6,45.5l-0.1,30.4"/>
	<path id="rect1381" class="st0" d="M829.5,331l-0.4-187.4c0.8-32.5,13.1-41.2,41.1-41.2h264.7c30.4,0,41.4,13.9,41.1,41.2l0.3,83.8
		 M1177,840.1l-1,81.1c1,29.6-9.7,42.7-41.1,42.7H870.2c-30.6,0-41.1-12.6-41.1-42.7l0.8-310.3"/>
	<path id="rect1387" class="st0" d="M1213.9,122.3v52.5c0,3.3-2.5,6-5.7,6H1195c-3.2,0-5.7-2.7-5.7-6v-52.5c0-3.3,2.5-6,5.7-6h13.2
		C1211.3,116.3,1213.9,119,1213.9,122.3L1213.9,122.3z"/>
	<path id="rect1387-5" class="st0" d="M1216.4,891.7v49.9c0,3.3-2.5,6-5.7,6h-13.2c-3.2,0-5.7-2.7-5.7-8v-49.9c0-1.3,2.5-4,5.7-4
		h13.2C1213.8,885.7,1216.4,888.4,1216.4,891.7z"/>
	<path id="rect1404" class="st0" d="M806.8,891.9v46.5c0,1.7-1.5,2.9-3.3,2.9h-5.5c-1.9,0-3.4-1.4-3.4-2.9v-46.5
		c0-1.7,1.5-2.9,3.4-2.9h5.5C805.3,888.9,806.8,890.3,806.8,891.9z"/>
	<path id="rect1408" class="st0" d="M829.9,610.9H637.6c-9.1,0-18-8.5-18-17.9V348.8c0-9.3,9.2-17.9,18-17.9h191.9"/>
	<path id="rect1417" class="st0" d="M646,337.2v132.4h-24.7V360.3c0-13,10-23.2,16.9-23.2C645,337.1,646,337.2,646,337.2L646,337.2z
		"/>
	<path id="rect1417-2" class="st0" d="M646,606.5V474.1h-24.7v109.3c0,13,10,23.2,16.9,23.2C645,606.6,646,606.5,646,606.5
		L646,606.5z"/>
	<path id="rect1435" class="st0" d="M803.5,469.7l0.2-132.8h18.8c3.2,0,5.7,2.6,5.7,6v126.8H803.5z"/>
	<path id="rect1435-8" class="st0" d="M803.5,474.2l0.2,132.8h18.8c3.2,0,5.7-2.7,5.7-6V474.2H803.5z"/>
	<path id="rect1453" class="st0" d="M799.2,336.9v269.4c0,1.6-1.3,2.8-2.9,2.8H652c-1.6,0-2.9-1.3-2.9-2.8V336.9
		c0-1.6,1.3-2.9,2.9-2.9h144.4C798,334,799.2,335.3,799.2,336.9z"/>
	<path id="rect826" class="st1" d="M1227.8,228.3l-51.5,0.2 M1227.8,228.3v-88.2c0-1.6,1.3-2.9,2.8-2.9h24.8"/>
	<path id="rect826-3" class="st1" d="M1255.5,929.3h-24.8c-1.6,0-2.8-1.3-2.8-2.8v-87.8 M1177,839l50.9-0.4"/>
	<path class="st0" d="M813.7,302.2v-19.8c0-3.1,2.5-5.7,5.7-5.7l0,0c3.1,0,5.7,2.5,5.7,5.7v19.8c0,3.1-2.5,5.7-5.7,5.7l0,0
		C816.2,307.9,813.7,305.3,813.7,302.2z"/>
	<path class="st0" d="M813.7,659.4v-19.8c0-3.1,2.5-5.7,5.7-5.7l0,0c3.1,0,5.7,2.5,5.7,5.7v19.8c0,3.1-2.5,5.7-5.7,5.7l0,0
		C816.2,665,813.7,662.5,813.7,659.4z"/>
</g>
</svg>
