<?xml version="1.0" encoding="utf-8"?>
<!-- Generator: Adobe Illustrator 25.2.0, SVG Export Plug-In . SVG Version: 6.00 Build 0)  -->
<svg version="1.1" id="Layer_1" xmlns="http://www.w3.org/2000/svg" xmlns:xlink="http://www.w3.org/1999/xlink" x="0px" y="0px"
	 viewBox="0 0 4280.3 1133.9" style="enable-background:new 0 0 4280.3 1133.9;" xml:space="preserve">
<style type="text/css">
	.st0{fill:none;stroke:#010101;stroke-linecap:round;stroke-linejoin:round;stroke-miterlimit:11.3386;}
</style>
<g>
	<path class="st0" d="M103.9,564.5V366.1c0-4.7,3.8-8.5,8.5-8.5h137.5c4.7,0,8.5,3.8,8.5,8.5v198.4c0,4.7-3.8,8.5-8.5,8.5H112.4
		C107.7,573,103.9,569.2,103.9,564.5z"/>
	<circle class="st0" cx="106.8" cy="327.8" r="9.9"/>
	<circle class="st0" cx="106.8" cy="758.7" r="9.9"/>
	<path class="st0" d="M75.6,1006.7V79.8c0-4.7,3.8-8.5,8.5-8.5h189.2v943.9H84.1C79.4,1015.2,75.6,1011.4,75.6,1006.7z"/>
	<path class="st0" d="M143.6,963.5v-53.9c0-1.6,1.3-2.8,2.8-2.8h17c1.6,0,2.8,1.3,2.8,2.8v53.9c0,1.6-1.3,2.8-2.8,2.8h-17
		C144.9,966.3,143.6,965,143.6,963.5z"/>
	<path class="st0" d="M151.4,567.3V363.2H245c1.6,0,2.8,1.3,2.8,2.8v198.4c0,1.6-1.3,2.8-2.8,2.8H151.4z"/>
	<g>
		<path class="st0" d="M110.7,466.8c-1.6,0-2.8-1.3-2.8-2.8"/>
		<path class="st0" d="M144.7,466.8h-34"/>
		<path class="st0" d="M147.5,463.9c0,1.6-1.3,2.8-2.8,2.8"/>
		<path class="st0" d="M107.9,463.9v-93.5c0-1.6,1.3-2.8,2.8-2.8h34c1.6,0,2.8,1.3,2.8,2.8v93.5"/>
		<g>
			<path class="st0" d="M147.5,469.6v93.5c0,1.6-1.3,2.8-2.8,2.8h-34c-1.6,0-2.8-1.3-2.8-2.8v-93.5"/>
			<path class="st0" d="M144.7,466.8c1.6,0,2.8,1.3,2.8,2.8"/>
			<path class="st0" d="M144.7,466.8"/>
			<path class="st0" d="M110.7,466.8"/>
			<path class="st0" d="M107.9,469.6c0-1.6,1.3-2.8,2.8-2.8"/>
		</g>
	</g>
</g>
</svg>
