<?xml version="1.0" encoding="utf-8"?>
<!-- Generator: Adobe Illustrator 25.2.0, SVG Export Plug-In . SVG Version: 6.00 Build 0)  -->
<svg version="1.1" id="Layer_1" xmlns="http://www.w3.org/2000/svg" xmlns:xlink="http://www.w3.org/1999/xlink" x="0px" y="0px"
	 viewBox="0 0 4280.3 1133.9" style="enable-background:new 0 0 4280.3 1133.9;" xml:space="preserve">
<style type="text/css">
	.st0{fill:none;stroke:#000000;stroke-miterlimit:10;}
</style>
<g>
	<g>
		<path class="st0" d="M82.2,213.8l0.3-82.2"/>
		<line class="st0" x1="82.2" y1="950.8" x2="82.2" y2="239.3"/>
		<path class="st0" d="M82.4,1005"/>
		<path class="st0" d="M82.5,1058.5l-0.3-82.2"/>
		<path class="st0" d="M91,1067c-4.7,0-8.5-3.8-8.5-8.5"/>
		<path class="st0" d="M91,123.1h609.4v943.9H91"/>
		<path class="st0" d="M82.5,131.6c0-4.7,3.8-8.5,8.5-8.5"/>
		<path class="st0" d="M279.3,396.7V173.4"/>
		<path class="st0" d="M279.3,654"/>
		<path class="st0" d="M279.3,1016.8V684.5"/>
		<path class="st0" d="M293.5,1030.9c-7.8,0-14.2-6.3-14.2-14.2"/>
		<path class="st0" d="M293.5,159.2H628c7.8,0,14.2,6.3,14.2,14.2v843.3c0,7.8-6.3,14.2-14.2,14.2H293.5"/>
		<path class="st0" d="M279.3,173.4c0-7.8,6.3-14.2,14.2-14.2"/>
		<line class="st0" x1="279.3" y1="396.7" x2="104.4" y2="397.2"/>
		<path class="st0" d="M286.5,396.6"/>
		<path class="st0" d="M286.5,123.1"/>
		<path class="st0" d="M286.5,1067"/>
		<path class="st0" d="M286.5,684.4"/>
		<line class="st0" x1="104.4" y1="684.8" x2="279.3" y2="684.4"/>
		<polyline class="st0" points="82.2,213.8 97.8,213.8 97.8,239.3 82.2,239.3 		"/>
		<polyline class="st0" points="82.2,976.3 97.8,976.3 97.8,950.8 82.2,950.8 		"/>
		<path class="st0" d="M84.2,976.3"/>
		<path class="st0" d="M84.2,950.8"/>
		<line class="st0" x1="104.4" y1="397.2" x2="104.4" y2="684.8"/>
		<path class="st0" d="M662.8,225.2v-53.9c0-1.6,1.3-2.8,2.8-2.8h14.2c1.6,0,2.8,1.3,2.8,2.8v53.9c0,1.6-1.3,2.8-2.8,2.8h-14.2
			C664.1,228,662.8,226.7,662.8,225.2z"/>
		<circle class="st0" cx="671.3" cy="874.3" r="12.8"/>
		<circle class="st0" cx="671.3" cy="925.3" r="12.8"/>
		<circle class="st0" cx="671.3" cy="976.5" r="12.8"/>
		<g>
			<line class="st0" x1="279.3" y1="541" x2="252.3" y2="541"/>
			<path class="st0" d="M252.3,541V409.2c0-3.1,2.5-5.7,5.7-5.7h21.3V541"/>
			<path class="st0" d="M279.3,541v137.5H258c-3.1,0-5.7-2.5-5.7-5.7V541"/>
			<polyline class="st0" points="279.3,403.5 309,403.5 309,541 279.3,541 			"/>
			<path class="st0" d="M290.6,403.5"/>
			<path class="st0" d="M290.6,541"/>
			<path class="st0" d="M293.1,558.5"/>
			<polyline class="st0" points="309,541 309,678.5 279.3,678.5 			"/>
			<path class="st0" d="M293.1,558.5"/>
		</g>
		<rect x="111.3" y="399.7" class="st0" width="136.1" height="280.6"/>
	</g>
	<path class="st0" d="M245.2,1006.1v-53.9c0-1.6,1.3-2.8,2.8-2.8h18.4c1.6,0,2.8,1.3,2.8,2.8v53.9c0,1.6-1.3,2.8-2.8,2.8H248
		C246.4,1008.9,245.2,1007.7,245.2,1006.1z"/>
</g>
</svg>
