<?xml version="1.0" encoding="utf-8"?>
<!-- Generator: Adobe Illustrator 25.2.0, SVG Export Plug-In . SVG Version: 6.00 Build 0)  -->
<svg version="1.1" id="Layer_1" xmlns="http://www.w3.org/2000/svg" xmlns:xlink="http://www.w3.org/1999/xlink" x="0px" y="0px"
	 viewBox="0 0 4280.3 1133.9" style="enable-background:new 0 0 4280.3 1133.9;" xml:space="preserve">
<style type="text/css">
	.st0{fill:none;stroke:#000000;stroke-miterlimit:10;}
</style>
<g>
	<path class="st0" d="M45.7,226l0.3-82.2"/>
	<line class="st0" x1="45.7" y1="963" x2="45.7" y2="251.5"/>
	<path class="st0" d="M45.9,1017.2"/>
	<path class="st0" d="M46,1070.7l-0.3-82.2"/>
	<path class="st0" d="M54.5,1079.2c-4.7,0-8.5-3.8-8.5-8.5"/>
	<path class="st0" d="M54.5,135.3h609.4v943.9H54.5"/>
	<path class="st0" d="M46,143.8c0-4.7,3.8-8.5,8.5-8.5"/>
	<path class="st0" d="M242.8,408.9l0-223.3"/>
	<path class="st0" d="M242.8,666.2"/>
	<path class="st0" d="M242.8,1028.9l0-332.3"/>
	<path class="st0" d="M257,1043.1c-7.8,0-14.2-6.3-14.2-14.2"/>
	<path class="st0" d="M257,171.4h334.5c7.8,0,14.2,6.3,14.2,14.2v843.3c0,7.8-6.3,14.2-14.2,14.2H257"/>
	<path class="st0" d="M242.8,185.6c0-7.8,6.3-14.2,14.2-14.2"/>
	<line class="st0" x1="242.8" y1="408.9" x2="67.9" y2="409.4"/>
	<path class="st0" d="M250,408.8"/>
	<path class="st0" d="M250,135.3"/>
	<path class="st0" d="M250,1079.2"/>
	<path class="st0" d="M250,696.6"/>
	<line class="st0" x1="67.9" y1="697" x2="242.8" y2="696.6"/>
	<polyline class="st0" points="45.7,226 61.3,226 61.3,251.5 45.7,251.5 	"/>
	<polyline class="st0" points="45.7,988.5 61.3,988.5 61.3,963 45.7,963 	"/>
	<path class="st0" d="M47.7,988.5"/>
	<path class="st0" d="M47.7,963"/>
	<line class="st0" x1="67.9" y1="409.4" x2="67.9" y2="697"/>
	<path class="st0" d="M626.3,237.4v-53.9c0-1.6,1.3-2.8,2.8-2.8h14.2c1.6,0,2.8,1.3,2.8,2.8v53.9c0,1.6-1.3,2.8-2.8,2.8h-14.2
		C627.6,240.2,626.3,238.9,626.3,237.4z"/>
	<circle class="st0" cx="634.8" cy="886.5" r="12.8"/>
	<circle class="st0" cx="634.8" cy="937.5" r="12.8"/>
	<circle class="st0" cx="634.8" cy="988.7" r="12.8"/>
	<g>
		<line class="st0" x1="242.8" y1="553.2" x2="215.8" y2="553.2"/>
		<path class="st0" d="M215.8,553.2V421.4c0-3.1,2.5-5.7,5.7-5.7h21.3v137.5"/>
		<path class="st0" d="M242.8,553.2v137.5h-21.3c-3.1,0-5.7-2.5-5.7-5.7V553.2"/>
		<polyline class="st0" points="242.8,415.7 272.5,415.7 272.5,553.2 242.8,553.2 		"/>
		<path class="st0" d="M254.1,415.7"/>
		<path class="st0" d="M254.1,553.2"/>
		<path class="st0" d="M256.6,570.7"/>
		<polyline class="st0" points="272.5,553.2 272.5,690.7 242.8,690.7 		"/>
		<path class="st0" d="M256.6,570.7"/>
	</g>
	
		<rect x="2.6" y="484.1" transform="matrix(-1.836970e-16 1 -1 -1.836970e-16 695.0574 409.2662)" class="st0" width="280.6" height="136.1"/>
</g>
</svg>
