<?xml version="1.0" encoding="UTF-8" standalone="no"?>
<!-- Created with Inkscape (http://www.inkscape.org/) -->

<svg
   xmlns:dc="http://purl.org/dc/elements/1.1/"
   xmlns:cc="http://creativecommons.org/ns#"
   xmlns:rdf="http://www.w3.org/1999/02/22-rdf-syntax-ns#"
   xmlns:svg="http://www.w3.org/2000/svg"
   xmlns="http://www.w3.org/2000/svg"
   xmlns:sodipodi="http://sodipodi.sourceforge.net/DTD/sodipodi-0.dtd"
   xmlns:inkscape="http://www.inkscape.org/namespaces/inkscape"
   version="1.1"
   id="svg3713"
   width="1200mm"
   height="317.5mm"
   viewBox="0 0 4535.4331 1200"
   sodipodi:docname="8470p_PR.svg"
   inkscape:version="0.92.3 (2405546, 2018-03-11)">
  <metadata
     id="metadata3719">
    <rdf:RDF>
      <cc:Work
         rdf:about="">
        <dc:format>image/svg+xml</dc:format>
        <dc:type
           rdf:resource="http://purl.org/dc/dcmitype/StillImage" />
        <dc:title></dc:title>
      </cc:Work>
    </rdf:RDF>
  </metadata>
  <defs
     id="defs3717" />
  <sodipodi:namedview
     pagecolor="#ffffff"
     bordercolor="#666666"
     borderopacity="1"
     objecttolerance="10"
     gridtolerance="10"
     guidetolerance="10"
     inkscape:pageopacity="0"
     inkscape:pageshadow="2"
     inkscape:window-width="1920"
     inkscape:window-height="1017"
     id="namedview3715"
     showgrid="false"
     showguides="true"
     inkscape:guide-bbox="true"
     units="mm"
     inkscape:zoom="0.56515958"
     inkscape:cx="211.46776"
     inkscape:cy="639.48182"
     inkscape:window-x="-8"
     inkscape:window-y="-8"
     inkscape:window-maximized="1"
     inkscape:current-layer="g4619" />
  <g
     id="g4619"
     transform="translate(0,1012)">
    <g
       id="g4645"
       style="stroke:#000000;stroke-opacity:1"
       transform="matrix(1.2267588,0,0,1.2267588,618.43661,-545.09193)">
      <path
         id="rect3723"
         d="M -354.56512,-248.19981 H 654.58233 c 4.37557,0 7.89814,3.52257 7.89814,7.89814 v 653.57109 c 0,4.37557 -3.52257,7.89814 -7.89814,7.89814 H -354.56512 c -4.37557,0 -7.89814,-3.52257 -7.89814,-7.89814 v -653.57109 c 0,-4.37557 3.52257,-7.89814 7.89814,-7.89814 z"
         style="fill:none;stroke:#000000;stroke-width:0.99771619;stroke-miterlimit:4;stroke-dasharray:none;stroke-opacity:1"
         inkscape:connector-curvature="0" />
      <path
         sodipodi:nodetypes="cssssssssc"
         inkscape:connector-curvature="0"
         id="rect4530"
         d="M -68.188387,172.31071 H -296.3113 c -7.6462,0 -13.8018,-6.1556 -13.8018,-13.80179 v -317.44139 c 0,-7.6462 6.1556,-13.8018 13.8018,-13.8018 h 894.26963 c 7.6462,0 13.8018,6.1556 13.8018,13.8018 v 317.44139 c 0,7.64619 -6.1556,13.80179 -13.8018,13.80179 H 252.10936"
         style="opacity:1;fill:none;stroke:#000000;stroke-width:0.99029523;stroke-miterlimit:4;stroke-dasharray:none;stroke-opacity:1" />
      <path
         sodipodi:nodetypes="cssssc"
         inkscape:connector-curvature="0"
         id="rect4532"
         d="m 252.10936,172.31071 0.0409,222.47791 c 7.2e-4,3.92087 -3.15651,7.07738 -7.07737,7.07738 H -60.388583 c -3.920866,0 -7.064643,-3.15653 -7.077375,-7.07738 l -0.722429,-222.47791"
         style="opacity:1;fill:none;stroke:#000000;stroke-width:1.00454533;stroke-miterlimit:4;stroke-dasharray:none;stroke-opacity:1" />
      <path
         sodipodi:nodetypes="cccc"
         inkscape:connector-curvature="0"
         id="rect4539"
         d="m -266.31143,421.86391 v -17.88829 h 32.45202 v 17.26271"
         style="opacity:1;fill:none;stroke:#000000;stroke-width:0.89475036;stroke-miterlimit:4;stroke-dasharray:none;stroke-opacity:1" />
      <path
         sodipodi:nodetypes="cccc"
         inkscape:connector-curvature="0"
         id="rect4539-8"
         d="m 541.90576,421.32274 v -17.88829 h 32.45202 v 17.88829"
         style="opacity:1;fill:none;stroke:#000000;stroke-width:0.89475036;stroke-miterlimit:4;stroke-dasharray:none;stroke-opacity:1" />
      <path
         id="rect4559"
         d="m -314.07059,-228.69647 h 69.89176 v 23.88706 h -69.89176 z"
         style="opacity:1;fill:none;stroke:#000000;stroke-width:1;stroke-miterlimit:4;stroke-dasharray:none;stroke-opacity:1"
         inkscape:connector-curvature="0" />
      <path
         id="rect4561"
         d="m -230.02353,191.53882 h 58.39059 v 17.69412 h -58.39059 z"
         style="opacity:1;fill:none;stroke:#000000;stroke-width:1;stroke-miterlimit:4;stroke-dasharray:none;stroke-opacity:1"
         inkscape:connector-curvature="0" />
      <path
         id="rect4561-5"
         d="m 354.11295,191.30823 h 58.39058 v 17.69412 h -58.39058 z"
         style="opacity:1;fill:none;stroke:#000000;stroke-width:1;stroke-miterlimit:4;stroke-dasharray:none;stroke-opacity:1"
         inkscape:connector-curvature="0" />
      <path
         id="path4580"
         d="m 471.59492,-216.89375 a 16.503521,16.503521 0 0 1 -16.50352,16.50352 16.503521,16.503521 0 0 1 -16.50352,-16.50352 16.503521,16.503521 0 0 1 16.50352,-16.50352 16.503521,16.503521 0 0 1 16.50352,16.50352 z"
         style="opacity:1;fill:none;stroke:#000000;stroke-width:1.00870609;stroke-miterlimit:4;stroke-dasharray:none;stroke-opacity:1"
         inkscape:connector-curvature="0" />
      <path
         id="path4580-7"
         d="m 527.20939,-216.54118 a 16.503521,16.503521 0 0 1 -16.50352,16.50352 16.503521,16.503521 0 0 1 -16.50352,-16.50352 16.503521,16.503521 0 0 1 16.50352,-16.50352 16.503521,16.503521 0 0 1 16.50352,16.50352 z"
         style="opacity:1;fill:none;stroke:#000000;stroke-width:1.00870609;stroke-miterlimit:4;stroke-dasharray:none;stroke-opacity:1"
         inkscape:connector-curvature="0" />
      <path
         id="path4580-4"
         d="m 580.25413,-217.42589 a 16.503521,16.503521 0 0 1 -16.50352,16.50352 16.503521,16.503521 0 0 1 -16.50352,-16.50352 16.503521,16.503521 0 0 1 16.50352,-16.50352 16.503521,16.503521 0 0 1 16.50352,16.50352 z"
         style="opacity:1;fill:none;stroke:#000000;stroke-width:1.00870609;stroke-miterlimit:4;stroke-dasharray:none;stroke-opacity:1"
         inkscape:connector-curvature="0" />
      <path
         id="rect4605"
         d="m 532.55042,217.38335 h 68.20745 v 26.62627 h -68.20745 z"
         style="opacity:1;fill:none;stroke:#000000;stroke-width:0.91490406;stroke-miterlimit:4;stroke-dasharray:none;stroke-opacity:1"
         inkscape:connector-curvature="0" />
    </g>
  </g>
</svg>
