<?xml version="1.0" encoding="utf-8"?>
<!-- Generator: Adobe Illustrator 25.2.1, SVG Export Plug-In . SVG Version: 6.00 Build 0)  -->
<svg version="1.1" id="Layer_1" xmlns="http://www.w3.org/2000/svg" xmlns:xlink="http://www.w3.org/1999/xlink" x="0px" y="0px"
	 viewBox="0 0 4280.3 1133.9" style="enable-background:new 0 0 4280.3 1133.9;" xml:space="preserve">
<style type="text/css">
	.st0{fill:none;stroke:#010101;stroke-width:0.352;stroke-linecap:round;stroke-linejoin:round;}
	.st1{fill:none;stroke:#010101;stroke-width:0.352;}
</style>
<g>
	<path id="path11" class="st0" d="M121.8,128.7c0.3-1.8,2.6-7.2,3.7-8.9c3.2-4.9,6.9-7.3,14.8-9.5c1.8-0.5,43.9-0.6,302.6-0.5
		l300.5,0.1l3.1,1.2c8.2,3,11.6,6.5,14.3,14.4l1.4,4v16.8c0,10.7-0.2,17.3-0.4,18.1c-0.6,1.6-1.6,1.8-12.7,1.8c-8.3,0-8.4,0-9.6,1
		l-1.2,1l-0.1,30.1l-0.1,30.1l0.9,1.1c1.6,2.1,2.8,2.3,12.8,2.3c8.3,0,9.2,0.1,9.7,0.7c0.8,1.1,0.8,694.7,0,695.9
		c-0.5,0.7-1.3,0.8-10.8,1l-10.2,0.2l-1.2,1.1l-1.2,1.1V962c0,32.8-0.1,31.2,2.3,32.1c0.6,0.2,4.8,0.4,9.3,0.4
		c9.1,0,11.2,0.3,11.9,1.9c0.2,0.5,0.4,8.7,0.4,18.1v17.1l-1.4,4.1c-0.9,2.5-2,5-3.1,6.3c-2.4,3.2-5.7,6-7.7,6.5
		c-1,0.3-2.4,0.9-3.2,1.3l-1.5,0.9l-302.2,0.1c-184.7,0.1-302.8,0-303.8-0.3c-2.9-0.7-7.7-2.9-9.7-4.5c-2.5-1.9-5.1-5.8-6.8-10.2
		l-1.3-3.3l-0.1-451.4C121.6,332.8,121.7,129.2,121.8,128.7L121.8,128.7z"/>
	<path id="path13" class="st0" d="M341.5,375.8c-0.7,0.1-22.6,0.3-85.4,0.3c-95.6,0-114.5,0.1-115.6,0.6c-1.9,0.8-5.3,3.9-6,5.6
		c-0.6,1.3-0.7,8.1-0.9,69.9c-0.3,84.4-0.1,213.3,0.2,216c0.3,2.6,1.4,4.9,3.2,6.9c2.8,3-6.8,2.8,120.3,2.8
		c74.1,0,84.2,0.1,84.7,0.4"/>
	<path id="path17" class="st0" d="M341.3,293.9c-1.2-2.2-3-4-4.7-4c-1.9,0-4.3,2.2-4.7,4.3c-0.4,2.2-0.3,34.8,0.2,35.8
		c0.5,1,3.2,2.4,4.8,2.4c1.6,0,4.1-1.3,4.4-3"/>
	<path id="path19" class="st0" d="M341.3,724c-0.7-2.4-2.5-3.6-4.1-3.9c-1.1-0.2-1.8,0-3.1,0.9c-0.9,0.6-1.8,1.5-1.9,2
		c-0.1,0.5-0.3,1.2-0.4,1.7c-0.3,1.4-0.3,31.3,0,33.4c0.2,1.7,0.5,2.1,2,3.2c1.4,1,2,1.2,3.1,1c1.9-0.3,3.9-0.8,4.4-2.8"/>
	<path id="path21" class="st0" d="M710.3,938.7c0.8,2,2.4,3.7,4.5,4.8c1.3,0.7,2.4,0.9,5.2,0.8c4,0,5.2-0.5,7.5-2.8
		c5-5,4.5-11.5-1.3-16.3c-2.1-1.8-2.2-1.8-5.6-2c-3.4-0.2-3.5-0.2-5.6,1.3c-3.1,2.1-4.5,3.7-5.2,5.9
		C709.1,932.8,709.4,936.5,710.3,938.7L710.3,938.7z"/>
	<path id="path23" class="st0" d="M709.7,993c0.9,4.8,5.3,8.2,10.5,8.2c2,0,2.9-0.2,4.8-1.3c2-1.1,4-3,5.1-5c0.6-1,1-5.1,0.6-6.7
		c-0.8-3.4-4.3-7-7.8-8c-6.5-1.9-13.4,2.9-13.6,9.6C709.3,990.2,709.4,991.7,709.7,993z"/>
	<path id="path25" class="st0" d="M712.7,227.8c0.7,1.6,1.7,1.9,6.6,1.9c4.3-0.1,5.2-0.3,6.2-1.9c0.7-1.2,0.8-3.1,0.8-29.1
		c0-26.4,0-27.9-0.7-29.4c-1-2-2.4-2.4-7.5-2.1c-3.9,0.2-4.9,0.6-5.5,2.1c-0.2,0.5-0.3,13.5-0.4,29
		C712.1,221.4,712.2,226.6,712.7,227.8L712.7,227.8z"/>
	<path id="rect824" class="st1" d="M341.3,375.6v-46.3 M341.3,293.9V165.6c0-8.9,6.9-16,15.4-16h328.6c8.6,0,15.5,7.2,15.5,16v830
		c0,8.9-6.9,16-15.5,16H356.7c-8.6,0-15.5-7.2-15.5-16V759.4 M341.3,724v-46.8"/>
	<g>
		<path class="st1" d="M202.5,673V381c0-1.6,1.3-2.8,2.8-2.8h161.6c1.6,0,2.8,1.3,2.8,2.8v292c0,1.6-1.3,2.8-2.8,2.8H205.3
			C203.7,675.8,202.5,674.6,202.5,673z"/>
		<g>
			<path class="st1" d="M140.1,527V385.3c0-3.1,2.5-5.7,5.7-5.7h25.5V527H140.1z"/>
			
				<rect x="113.2" y="585.1" transform="matrix(-1.836970e-16 1 -1 -1.836970e-16 787.5842 413.818)" class="st1" width="147.4" height="31.2"/>
			
				<rect x="113.2" y="437.7" transform="matrix(-1.836970e-16 1 -1 -1.836970e-16 640.1826 266.4164)" class="st1" width="147.4" height="31.2"/>
			<path class="st1" d="M140.1,668.7V527h31.2v147.4h-25.5C142.6,674.4,140.1,671.9,140.1,668.7z"/>
		</g>
	</g>
</g>
</svg>
