<?xml version="1.0" encoding="UTF-8" standalone="no"?>
<!-- Created with Inkscape (http://www.inkscape.org/) -->

<svg
   xmlns:dc="http://purl.org/dc/elements/1.1/"
   xmlns:cc="http://creativecommons.org/ns#"
   xmlns:rdf="http://www.w3.org/1999/02/22-rdf-syntax-ns#"
   xmlns:svg="http://www.w3.org/2000/svg"
   xmlns="http://www.w3.org/2000/svg"
   xmlns:sodipodi="http://sodipodi.sourceforge.net/DTD/sodipodi-0.dtd"
   xmlns:inkscape="http://www.inkscape.org/namespaces/inkscape"
   width="210mm"
   height="297mm"
   viewBox="0 0 210 297"
   version="1.1"
   id="svg3755"
   inkscape:version="0.92.3 (2405546, 2018-03-11)"
   sodipodi:docname="HPZ230 Top Pannel.svg">
  <defs
     id="defs3749" />
  <sodipodi:namedview
     id="base"
     pagecolor="#ffffff"
     bordercolor="#666666"
     borderopacity="1.0"
     inkscape:pageopacity="0.0"
     inkscape:pageshadow="2"
     inkscape:zoom="0.24748737"
     inkscape:cx="-529.48014"
     inkscape:cy="244.01423"
     inkscape:document-units="mm"
     inkscape:current-layer="layer1"
     showgrid="false"
     inkscape:window-width="1680"
     inkscape:window-height="903"
     inkscape:window-x="0"
     inkscape:window-y="28"
     inkscape:window-maximized="1" />
  <metadata
     id="metadata3752">
    <rdf:RDF>
      <cc:Work
         rdf:about="">
        <dc:format>image/svg+xml</dc:format>
        <dc:type
           rdf:resource="http://purl.org/dc/dcmitype/StillImage" />
        <dc:title />
      </cc:Work>
    </rdf:RDF>
  </metadata>
  <g
     inkscape:label="Layer 1"
     inkscape:groupmode="layer"
     id="layer1">
    <g
       inkscape:tile-y0="34.069724"
       inkscape:tile-x0="32.717386"
       transform="matrix(0,0.88960847,-1.000158,0,-230.81322,-65.959852)"
       id="use4689-6">
      <path
         d="m 59.832393,294.80727 c 0,2.1264 1.475,3.8538 3.289,3.8538 H 417.54273 c 1.8152,0 3.2895,-1.7274 3.2895,-3.8538 v -90.2923 c 0,-2.1265 -1.4743,-3.8538 -3.2895,-3.8538 H 63.121393 c -1.814,0 -3.289,1.7273 -3.289,3.8538 z"
         id="path4757-1"
         inkscape:connector-curvature="0"
         style="fill:none;fill-opacity:1;stroke:#000000;stroke-width:0.44097209;stroke-linecap:round;stroke-linejoin:round;stroke-opacity:1" />
    </g>
    <g
       inkscape:tile-y0="34.069724"
       inkscape:tile-x0="32.717386"
       transform="matrix(0,0.88960847,-1.000158,0,-126.71521,-66.122326)"
       id="use4689-6-5">
      <path
         d="m 59.832393,294.80727 c 0,2.1264 1.475,3.8538 3.289,3.8538 H 417.54273 c 1.8152,0 3.2895,-1.7274 3.2895,-3.8538 v -90.2923 c 0,-2.1265 -1.4743,-3.8538 -3.2895,-3.8538 H 63.121393 c -1.814,0 -3.289,1.7273 -3.289,3.8538 z"
         id="path4757-1-0"
         inkscape:connector-curvature="0"
         style="fill:none;fill-opacity:1;stroke:#000000;stroke-width:0.44097209;stroke-linecap:round;stroke-linejoin:round;stroke-opacity:1" />
    </g>
    <g
       inkscape:tile-y0="34.069724"
       inkscape:tile-x0="32.717386"
       transform="matrix(0,0.88960847,-1.000158,0,-23.070851,-66.335903)"
       id="use4689-6-5-3">
      <path
         d="m 59.832393,294.80727 c 0,2.1264 1.475,3.8538 3.289,3.8538 H 417.54273 c 1.8152,0 3.2895,-1.7274 3.2895,-3.8538 v -90.2923 c 0,-2.1265 -1.4743,-3.8538 -3.2895,-3.8538 H 63.121393 c -1.814,0 -3.289,1.7273 -3.289,3.8538 z"
         id="path4757-1-0-6"
         inkscape:connector-curvature="0"
         style="fill:none;fill-opacity:1;stroke:#000000;stroke-width:0.44097209;stroke-linecap:round;stroke-linejoin:round;stroke-opacity:1" />
    </g>
    <g
       inkscape:tile-y0="34.069724"
       inkscape:tile-x0="32.717386"
       transform="matrix(0,0.88960847,-1.000158,0,80.271129,-66.40709)"
       id="use4689-6-5-3-1">
      <path
         d="m 59.832393,294.80727 c 0,2.1264 1.475,3.8538 3.289,3.8538 H 417.54273 c 1.8152,0 3.2895,-1.7274 3.2895,-3.8538 v -90.2923 c 0,-2.1265 -1.4743,-3.8538 -3.2895,-3.8538 H 63.121393 c -1.814,0 -3.289,1.7273 -3.289,3.8538 z"
         id="path4757-1-0-6-0"
         inkscape:connector-curvature="0"
         style="fill:none;fill-opacity:1;stroke:#000000;stroke-width:0.44097209;stroke-linecap:round;stroke-linejoin:round;stroke-opacity:1" />
    </g>
    <g
       inkscape:tile-y0="34.069724"
       inkscape:tile-x0="32.717386"
       transform="matrix(0,0.88960846,-1.000158,0,184.43643,-66.227489)"
       id="use4689-6-6">
      <path
         d="m 59.832393,294.80727 c 0,2.1264 1.475,3.8538 3.289,3.8538 H 417.54273 c 1.8152,0 3.2895,-1.7274 3.2895,-3.8538 v -90.2923 c 0,-2.1265 -1.4743,-3.8538 -3.2895,-3.8538 H 63.121393 c -1.814,0 -3.289,1.7273 -3.289,3.8538 z"
         id="path4757-1-3"
         inkscape:connector-curvature="0"
         style="fill:none;fill-opacity:1;stroke:#000000;stroke-width:0.44097209;stroke-linecap:round;stroke-linejoin:round;stroke-opacity:1" />
    </g>
    <g
       inkscape:tile-y0="34.069724"
       inkscape:tile-x0="32.717386"
       transform="matrix(0,0.88960846,-1.000158,0,288.53444,-66.389959)"
       id="use4689-6-5-2">
      <path
         d="m 59.832393,294.80727 c 0,2.1264 1.475,3.8538 3.289,3.8538 H 417.54273 c 1.8152,0 3.2895,-1.7274 3.2895,-3.8538 v -90.2923 c 0,-2.1265 -1.4743,-3.8538 -3.2895,-3.8538 H 63.121393 c -1.814,0 -3.289,1.7273 -3.289,3.8538 z"
         id="path4757-1-0-0"
         inkscape:connector-curvature="0"
         style="fill:none;fill-opacity:1;stroke:#000000;stroke-width:0.44097209;stroke-linecap:round;stroke-linejoin:round;stroke-opacity:1" />
    </g>
    <g
       inkscape:tile-y0="34.069724"
       inkscape:tile-x0="32.717386"
       transform="matrix(0,0.88960846,-1.000158,0,392.1788,-66.603539)"
       id="use4689-6-5-3-6">
      <path
         d="m 59.832393,294.80727 c 0,2.1264 1.475,3.8538 3.289,3.8538 H 417.54273 c 1.8152,0 3.2895,-1.7274 3.2895,-3.8538 v -90.2923 c 0,-2.1265 -1.4743,-3.8538 -3.2895,-3.8538 H 63.121393 c -1.814,0 -3.289,1.7273 -3.289,3.8538 z"
         id="path4757-1-0-6-1"
         inkscape:connector-curvature="0"
         style="fill:none;fill-opacity:1;stroke:#000000;stroke-width:0.44097209;stroke-linecap:round;stroke-linejoin:round;stroke-opacity:1" />
    </g>
  </g>
</svg>
