<?xml version="1.0" encoding="utf-8"?>
<!-- Generator: Adobe Illustrator 25.2.1, SVG Export Plug-In . SVG Version: 6.00 Build 0)  -->
<svg version="1.1" id="Layer_1" xmlns="http://www.w3.org/2000/svg" xmlns:xlink="http://www.w3.org/1999/xlink" x="0px" y="0px"
	 viewBox="0 0 4280.3 1133.9" style="enable-background:new 0 0 4280.3 1133.9;" xml:space="preserve">
<style type="text/css">
	.st0{fill:none;stroke:#000000;stroke-miterlimit:10;}
</style>
<g>
	<line class="st0" x1="233.1" y1="1016.6" x2="137.9" y2="1016.6"/>
	<path class="st0" d="M254.6,1016.6"/>
	<path class="st0" d="M341.4,1016.6h-99.8"/>
	<path class="st0" d="M342.3,1013.8c0,1.6-0.4,2.8-0.9,2.8"/>
	<path class="st0" d="M342.3,78.4v935.4"/>
	<path class="st0" d="M341.4,75.5c0.5,0,0.9,1.3,0.9,2.8"/>
	<path class="st0" d="M232.9,75.5h108.5"/>
	<line class="st0" x1="85.7" y1="75.5" x2="232.9" y2="75.5"/>
	<path class="st0" d="M73.8,75.5h8.4"/>
	<path class="st0" d="M73,78.4c0-1.6,0.4-2.8,0.9-2.8"/>
	<path class="st0" d="M73,1013.8V78.4"/>
	<path class="st0" d="M73.8,1016.6c-0.5,0-0.9-1.3-0.9-2.8"/>
	<path class="st0" d="M137.9,1016.6H73.8"/>
	<path class="st0" d="M321.4,1016.6"/>
	<path class="st0" d="M241.6,1016.6V220.1"/>
	<path class="st0" d="M233.1,1016.6V216.8"/>
	<line class="st0" x1="241.6" y1="220.1" x2="85.7" y2="75.5"/>
	<line class="st0" x1="233.1" y1="216.8" x2="82.2" y2="75.5"/>
	<circle class="st0" cx="114.6" cy="187.7" r="26.9"/>
</g>
<g>
	<line class="st0" x1="484" y1="1016.6" x2="579.2" y2="1016.6"/>
	<path class="st0" d="M462.5,1016.6"/>
	<path class="st0" d="M375.7,1016.6h99.8"/>
	<path class="st0" d="M374.8,1013.8c0,1.6,0.4,2.8,0.9,2.8"/>
	<path class="st0" d="M374.8,78.4v935.4"/>
	<path class="st0" d="M375.7,75.5c-0.5,0-0.9,1.3-0.9,2.8"/>
	<path class="st0" d="M484.2,75.5H375.7"/>
	<line class="st0" x1="631.4" y1="75.5" x2="484.2" y2="75.5"/>
	<path class="st0" d="M643.3,75.5h-8.4"/>
	<path class="st0" d="M644.1,78.4c0-1.6-0.4-2.8-0.9-2.8"/>
	<path class="st0" d="M644.1,1013.8V78.4"/>
	<path class="st0" d="M643.3,1016.6c0.5,0,0.9-1.3,0.9-2.8"/>
	<path class="st0" d="M579.2,1016.6h64.1"/>
	<path class="st0" d="M395.7,1016.6"/>
	<path class="st0" d="M475.5,1016.6V220.1"/>
	<path class="st0" d="M484,1016.6V216.8"/>
	<line class="st0" x1="475.5" y1="220.1" x2="631.4" y2="75.5"/>
	<line class="st0" x1="484" y1="216.8" x2="634.9" y2="75.5"/>
	<circle class="st0" cx="602.5" cy="187.7" r="26.9"/>
</g>
</svg>
