<?xml version="1.0" encoding="utf-8"?>
<!-- Generator: Adobe Illustrator 25.2.1, SVG Export Plug-In . SVG Version: 6.00 Build 0)  -->
<svg version="1.1" id="Layer_1" xmlns="http://www.w3.org/2000/svg" xmlns:xlink="http://www.w3.org/1999/xlink" x="0px" y="0px"
	 viewBox="0 0 4280.3 1133.9" style="enable-background:new 0 0 4280.3 1133.9;" xml:space="preserve">
<style type="text/css">
	.st0{fill:none;stroke:#000000;stroke-miterlimit:10;}
</style>
<g>
	<path class="st0" d="M430.5,347.4V136.3c0-1.6,1.3-2.8,2.8-2.8h935.4c1.6,0,2.8,1.3,2.8,2.8v881.6c0,1.6-1.3,2.8-2.8,2.8H433.3
		c-1.6,0-2.8-1.3-2.8-2.8V806.6"/>
	<path class="st0" d="M430.5,690.8"/>
	<g>
		<circle class="st0" cx="528.3" cy="231.2" r="21.3"/>
		<circle class="st0" cx="1297.9" cy="231.2" r="21.3"/>
		<circle class="st0" cx="528.3" cy="917.2" r="21.3"/>
		<circle class="st0" cx="1297.9" cy="917.2" r="21.3"/>
	</g>
	<polyline class="st0" points="430.5,347.4 572.2,347.4 572.2,806.6 430.5,806.6 	"/>
	<path class="st0" d="M430.5,347.4"/>
	<path class="st0" d="M430.5,806.6"/>
	<path class="st0" d="M1212.8,184.4h-73.7c-1.6,0-2.8-1.3-2.8-2.8v-19.8c0-1.6,1.3-2.8,2.8-2.8h73.7c1.6,0,2.8,1.3,2.8,2.8v19.8
		C1215.7,183.2,1214.4,184.4,1212.8,184.4z"/>
	<path class="st0" d="M1212.8,969.6h-73.7c-1.6,0-2.8,1.3-2.8,2.8v19.8c0,1.6,1.3,2.8,2.8,2.8h73.7c1.6,0,2.8-1.3,2.8-2.8v-19.8
		C1215.7,970.9,1214.4,969.6,1212.8,969.6z"/>
</g>
</svg>
