<?xml version="1.0" encoding="utf-8"?>
<!-- Generator: Adobe Illustrator 25.2.1, SVG Export Plug-In . SVG Version: 6.00 Build 0)  -->
<svg version="1.1" id="Layer_1" xmlns="http://www.w3.org/2000/svg" xmlns:xlink="http://www.w3.org/1999/xlink" x="0px" y="0px"
	 viewBox="0 0 4280.3 1133.9" style="enable-background:new 0 0 4280.3 1133.9;" xml:space="preserve">
<style type="text/css">
	.st0{fill:none;stroke:#000000;stroke-miterlimit:10;}
	.st1{fill:#FFFFFF;stroke:#000000;stroke-miterlimit:10;}
</style>
<g>
	<path class="st0" d="M578.8,48.5h232.4c1.6,0,2.8,1.3,2.8,2.8v996.4c0,1.6-1.3,2.8-2.8,2.8H578.8c-1.6,0-2.8-1.3-2.8-2.8V51.3
		C575.9,49.8,577.2,48.5,578.8,48.5z"/>
	<path class="st1" d="M576,1047.7c0,1.6-1.3,2.8-2.8,2.8h-28.3c-1.6,0-2.8-1.3-2.8-2.8V51.3c0-1.6,1.3-2.8,2.8-2.8h28.3
		c1.6,0,2.8,1.3,2.8,2.8"/>
</g>
</svg>
