<?xml version="1.0" encoding="utf-8"?>
<!-- Generator: Adobe Illustrator 25.2.1, SVG Export Plug-In . SVG Version: 6.00 Build 0)  -->
<svg version="1.1" id="Layer_1" xmlns="http://www.w3.org/2000/svg" xmlns:xlink="http://www.w3.org/1999/xlink" x="0px" y="0px"
	 viewBox="0 0 4280.3 1133.9" style="enable-background:new 0 0 4280.3 1133.9;" xml:space="preserve">
<style type="text/css">
	.st0{fill:none;stroke:#000000;stroke-miterlimit:10;}
</style>
<g>
	<path class="st0" d="M1473.1,1046.7H489.5c-1.6,0-2.8-1.3-2.8-2.8V116.9c0-1.6,1.3-2.8,2.8-2.8h983.6c1.6,0,2.8,1.3,2.8,2.8v926.9
		C1475.9,1045.4,1474.7,1046.7,1473.1,1046.7z"/>
	<line class="st0" x1="654.3" y1="228.6" x2="654.3" y2="231.5"/>
	<line class="st0" x1="690.3" y1="211.2" x2="690.3" y2="214.1"/>
	<line class="st0" x1="720.5" y1="228.6" x2="720.5" y2="231.5"/>
	<line class="st0" x1="751.8" y1="203.1" x2="751.8" y2="205.9"/>
	<line class="st0" x1="775.1" y1="228.6" x2="775.1" y2="228.6"/>
	<line class="st0" x1="808.7" y1="212.6" x2="809.7" y2="212.6"/>
	<line class="st0" x1="841" y1="230.1" x2="842" y2="230.1"/>
	<line class="st0" x1="876.1" y1="211.2" x2="877.1" y2="211.2"/>
	<line class="st0" x1="917.9" y1="224" x2="918.9" y2="224"/>
	<line class="st0" x1="938.8" y1="211.2" x2="939.8" y2="211.2"/>
	<line class="st0" x1="973.6" y1="228.6" x2="974.6" y2="228.6"/>
	<line class="st0" x1="1003.8" y1="205.9" x2="1004.8" y2="205.9"/>
	<line class="st0" x1="1018.9" y1="228.6" x2="1019.9" y2="228.6"/>
	<line class="st0" x1="1027.1" y1="214.1" x2="1028.1" y2="214.1"/>
</g>
</svg>
