<?xml version="1.0" encoding="utf-8"?>
<!-- Generator: Adobe Illustrator 25.2.1, SVG Export Plug-In . SVG Version: 6.00 Build 0)  -->
<svg version="1.1" id="Layer_1" xmlns="http://www.w3.org/2000/svg" xmlns:xlink="http://www.w3.org/1999/xlink" x="0px" y="0px"
	 viewBox="0 0 4280.3 1133.9" style="enable-background:new 0 0 4280.3 1133.9;" xml:space="preserve">
<style type="text/css">
	.st0{fill:none;stroke:#000000;stroke-miterlimit:10;}
</style>
<path class="st0" d="M78,116.2l-0.7-59.5c0-1.6,1.3-2.8,2.8-2.8h209.8c1.6,0,2.8,1.3,2.8,2.8v983.6c0,1.6-1.3,2.8-2.8,2.8H80.1
	c-1.6,0-2.8-1.3-2.8-2.8l0.5-32.6"/>
<line class="st0" x1="76.9" y1="962.3" x2="78" y2="161.5"/>
<path class="st0" d="M292.7,151c0-1.3,1.3-2.3,2.8-2.3h39.7c1.6,0,2.8,1,2.8,2.3v794.8c0,1.3-1.3,2.3-2.8,2.3h-39.7
	c-1.6,0-2.8-1-2.8-2.3"/>
<path class="st0" d="M478.4,343.9"/>
<path class="st0" d="M1462,343.9"/>
<path class="st0" d="M105.2,116.2c12.5,0,22.7,10.2,22.7,22.7"/>
<path class="st0" d="M105.2,116.2"/>
<path class="st0" d="M105.2,161.5"/>
<path class="st0" d="M127.9,138.8c0,12.5-10.2,22.7-22.7,22.7"/>
<path class="st0" d="M105.2,116.2"/>
<path class="st0" d="M105.2,161.5"/>
<line class="st0" x1="78" y1="161.5" x2="105.2" y2="161.5"/>
<line class="st0" x1="105.2" y1="116.2" x2="78" y2="116.2"/>
<path class="st0" d="M105.2,1007.7c12.5,0,22.7-10.2,22.7-22.7"/>
<path class="st0" d="M105.2,1007.7"/>
<path class="st0" d="M105.2,962.3"/>
<path class="st0" d="M127.9,985c0-12.5-10.2-22.7-22.7-22.7"/>
<path class="st0" d="M105.2,1007.7"/>
<path class="st0" d="M105.2,962.3"/>
<line class="st0" x1="77.8" y1="962.3" x2="105.2" y2="962.3"/>
<path class="st0" d="M77.8,1007.7"/>
<line class="st0" x1="105.2" y1="1007.7" x2="77.8" y2="1007.7"/>
</svg>
