<?xml version="1.0" encoding="utf-8"?>
<!-- Generator: Adobe Illustrator 25.2.1, SVG Export Plug-In . SVG Version: 6.00 Build 0)  -->
<svg version="1.1" id="Layer_1" xmlns="http://www.w3.org/2000/svg" xmlns:xlink="http://www.w3.org/1999/xlink" x="0px" y="0px"
	 viewBox="0 0 4280.3 1133.9" style="enable-background:new 0 0 4280.3 1133.9;" xml:space="preserve">
<style type="text/css">
	.st0{fill:none;stroke:#000000;stroke-miterlimit:10;}
</style>
<g>
	<g>
		<path class="st0" d="M1475.9,797.5v276.1c0,1.6-1.2,2.9-2.8,2.9H489.5c-1.6,0-2.8-1.3-2.8-2.8v-927c0-1.6,1.3-2.8,2.8-2.8h983.6
			c1.6,0,2.8,1.3,2.8,2.8v194.4"/>
		<circle class="st0" cx="563.3" cy="215" r="25.5"/>
		<circle class="st0" cx="563.2" cy="945.8" r="25.5"/>
		<circle class="st0" cx="1376.7" cy="945.8" r="25.5"/>
		<circle class="st0" cx="1376.7" cy="215" r="25.5"/>
		<path class="st0" d="M721.9,1018.1h-68c-1.6,0-2.8-1.3-2.8-2.8v-25.5c0-1.6,1.3-2.8,2.8-2.8h68c1.6,0,2.8,1.3,2.8,2.8v25.5
			C724.8,1016.8,723.5,1018.1,721.9,1018.1z"/>
	</g>
	<polyline class="st0" points="1475.9,797.5 1325.7,797.5 1325.7,341.1 1475.9,341.1 	"/>
</g>
</svg>
