<?xml version="1.0" encoding="utf-8"?>
<!-- Generator: Adobe Illustrator 25.2.1, SVG Export Plug-In . SVG Version: 6.00 Build 0)  -->
<svg version="1.1" id="Layer_1" xmlns="http://www.w3.org/2000/svg" xmlns:xlink="http://www.w3.org/1999/xlink" x="0px" y="0px"
	 viewBox="0 0 4280.3 1133.9" style="enable-background:new 0 0 4280.3 1133.9;" xml:space="preserve">
<style type="text/css">
	.st0{fill:none;stroke:#000000;stroke-miterlimit:10;}
	.st1{fill:none;stroke:#000000;stroke-width:1;stroke-miterlimit:10.0003;}
	.st2{fill:none;stroke:#000000;stroke-width:1;stroke-miterlimit:10.0002;}
</style>
<g>
	<path class="st0" d="M1464.8,774.1l-0.1,262c0,1.6-1.3,2.8-2.8,2.8H464.1c-1.6,0-2.8-1.3-2.8-2.8V97.8c0-1.6,1.3-2.8,2.8-2.8h997.8
		c1.6,0,2.8,1.3,2.8,2.8L1464.8,774.1"/>
	
		<ellipse transform="matrix(0.7071 -0.7071 0.7071 0.7071 -500.9393 653.0458)" class="st1" cx="537.8" cy="931.2" rx="26.9" ry="26.9"/>
	<path class="st0" d="M1464.8,774.1"/>
	
		<ellipse transform="matrix(0.3162 -0.9487 0.9487 0.3162 175.439 648.8062)" class="st2" cx="537.8" cy="202.7" rx="26.9" ry="26.9"/>
	<path class="st0" d="M710.7,979.4h-68c-1.6,0-2.8,1.3-2.8,2.8v25.5c0,1.6,1.3,2.8,2.8,2.8h68c1.6,0,2.8-1.3,2.8-2.8v-25.5
		C713.5,980.6,712.2,979.4,710.7,979.4z"/>
	<circle class="st0" cx="1356" cy="202.7" r="26.9"/>
	<circle class="st0" cx="1356" cy="931.2" r="26.9"/>
</g>
</svg>
