<?xml version="1.0" encoding="utf-8"?>
<!-- Generator: Adobe Illustrator 25.2.1, SVG Export Plug-In . SVG Version: 6.00 Build 0)  -->
<svg version="1.1" id="Layer_1" xmlns="http://www.w3.org/2000/svg" xmlns:xlink="http://www.w3.org/1999/xlink" x="0px" y="0px"
	 viewBox="0 0 4280.3 1133.9" style="enable-background:new 0 0 4280.3 1133.9;" xml:space="preserve">
<style type="text/css">
	.st0{fill:none;stroke:#404040;stroke-width:0.75;stroke-linecap:round;stroke-linejoin:round;stroke-miterlimit:11.3386;}
	.st1{fill:none;stroke:#000000;stroke-miterlimit:10;}
</style>
<g>
	<path class="st0" d="M305.8,785.9h155.9V331.3H305.8"/>
	<g>
		<path id="path10-3" class="st0" d="M332.9,196.7c0-15.7,12.7-28.4,28.3-28.4c15.6,0,28.3,12.7,28.3,28.4s-12.7,28.4-28.3,28.4
			C345.6,225.1,332.9,212.3,332.9,196.7"/>
		<path class="st0" d="M1289.4,775.2v-0.6"/>
		<path class="st0" d="M1289.4,321v-0.3"/>
		<path class="st0" d="M1289.4,321l-0.1-237.4"/>
		<path class="st0" d="M1289.1,1022.3l0.3-701.3"/>
		<path class="st0" d="M305.8,785.9l0,236.5"/>
		<path class="st0" d="M305.7,381"/>
		<path class="st0" d="M305.7,84.1l0.1,247.2"/>
		<line class="st1" x1="305.7" y1="84.1" x2="1289.3" y2="83.6"/>
		<line class="st1" x1="1289.1" y1="1022.3" x2="305.8" y2="1022.3"/>
		<path id="path4-6_4_" class="st0" d="M1186.4,166.9c16.4,0,29.8,13.3,29.8,29.8s-13.4,29.8-29.8,29.8s-29.8-13.3-29.8-29.8
			C1156.7,180.4,1170,166.9,1186.4,166.9z"/>
		<path id="path10-3_3_" class="st0" d="M332.5,916c0-15.7,12.7-28.4,28.3-28.4c15.6,0,28.3,12.7,28.3,28.4s-12.7,28.4-28.3,28.4
			C345.2,944.4,332.5,931.6,332.5,916"/>
		<path id="path4-6_1_" class="st0" d="M1186,886.2c16.4,0,29.8,13.3,29.8,29.8s-13.4,29.8-29.8,29.8s-29.8-13.3-29.8-29.8
			C1156.3,899.6,1169.6,886.2,1186,886.2z"/>
		<path class="st0" d="M463.1,965.6h65.2c1.6,0,2.8,1.3,2.8,2.8V994c0,1.6-1.3,2.8-2.8,2.8h-65.2c-1.6,0-2.8-1.3-2.8-2.8v-25.5
			C460.3,966.9,461.5,965.6,463.1,965.6z"/>
	</g>
</g>
</svg>
