<?xml version="1.0" encoding="utf-8"?>
<!-- Generator: Adobe Illustrator 25.2.1, SVG Export Plug-In . SVG Version: 6.00 Build 0)  -->
<svg version="1.1" id="Layer_1" xmlns="http://www.w3.org/2000/svg" xmlns:xlink="http://www.w3.org/1999/xlink" x="0px" y="0px"
	 viewBox="0 0 4280.3 1133.9" style="enable-background:new 0 0 4280.3 1133.9;" xml:space="preserve">
<style type="text/css">
	.st0{fill:none;stroke:#000000;stroke-miterlimit:10;}
	.st1{fill:#FFFFFF;stroke:#000000;stroke-miterlimit:10;}
</style>
<path class="st0" d="M478.4,343.9"/>
<path class="st0" d="M1462,343.9"/>
<g>
	<path class="st0" d="M705.4,975.1l0.7,104.8c0,1.6-1.3,2.8-2.8,2.8H493.5c-1.6,0-2.8-1.3-2.8-2.8V96.4c0-1.6,1.3-2.8,2.8-2.8h209.8
		c1.6,0,2.8,1.3,2.8,2.8l0.4,78"/>
	<line class="st0" x1="706.5" y1="174.3" x2="705.4" y2="975.1"/>
	<path class="st0" d="M490.7,1079.9c0,1.6-1.3,2.8-2.8,2.8h-39.7c-1.6,0-2.8-1.2-2.8-2.8V96.4c0-1.6,1.3-2.8,2.8-2.8h39.7
		c1.6,0,2.8,1.2,2.8,2.8"/>
	<g>
		<path class="st1" d="M674.2,164.4v-34c0-4.7,3.8-8.5,8.5-8.5l0,0c4.7,0,8.5,3.8,8.5,8.5v34c0,4.7-3.8,8.5-8.5,8.5l0,0
			C678,172.9,674.2,169.1,674.2,164.4z"/>
		<path class="st1" d="M674.2,1014.7v-34c0-4.7,3.8-8.5,8.5-8.5l0,0c4.7,0,8.5,3.8,8.5,8.5v34c0,4.7-3.8,8.5-8.5,8.5l0,0
			C678,1023.2,674.2,1019.4,674.2,1014.7z"/>
	</g>
	<g>
		<path class="st0" d="M459.6,164.6v-34c0-4.7,3.8-8.5,8.5-8.5h0c4.7,0,8.5,3.8,8.5,8.5v34c0,4.7-3.8,8.5-8.5,8.5h0
			C463.4,173.1,459.6,169.3,459.6,164.6z"/>
		<path class="st0" d="M459.6,1014.9v-34c0-4.7,3.8-8.5,8.5-8.5h0c4.7,0,8.5,3.8,8.5,8.5v34c0,4.7-3.8,8.5-8.5,8.5h0
			C463.4,1023.4,459.6,1019.6,459.6,1014.9z"/>
	</g>
</g>
</svg>
