<?xml version="1.0" encoding="utf-8"?>
<!-- Generator: Adobe Illustrator 25.2.1, SVG Export Plug-In . SVG Version: 6.00 Build 0)  -->
<svg version="1.1" id="Layer_1" xmlns="http://www.w3.org/2000/svg" xmlns:xlink="http://www.w3.org/1999/xlink" x="0px" y="0px"
	 viewBox="0 0 4280.3 1133.9" style="enable-background:new 0 0 4280.3 1133.9;" xml:space="preserve">
<style type="text/css">
	.st0{fill:none;stroke:#000000;stroke-miterlimit:10;}
</style>
<g>
	<path class="st0" d="M77.3,1040.3V56.6c0-1.6,1.3-2.8,2.8-2.8h209.8c1.6,0,2.8,1.3,2.8,2.8v983.6c0,1.6-1.3,2.8-2.8,2.8H80.1
		C78.6,1043.1,77.3,1041.8,77.3,1040.3z"/>
	<path class="st0" d="M292.7,56.6c0-1.6,1.3-2.8,2.8-2.8h39.7c1.6,0,2.8,1.3,2.8,2.8v983.6c0,1.6-1.3,2.8-2.8,2.8h-39.7
		c-1.6,0-2.8-1.3-2.8-2.8"/>
</g>
<path class="st0" d="M478.4,343.9"/>
<path class="st0" d="M1462,343.9"/>
</svg>
