<?xml version="1.0" encoding="utf-8"?>
<!-- Generator: Adobe Illustrator 25.2.1, SVG Export Plug-In . SVG Version: 6.00 Build 0)  -->
<svg version="1.1" id="Layer_1" xmlns="http://www.w3.org/2000/svg" xmlns:xlink="http://www.w3.org/1999/xlink" x="0px" y="0px"
	 viewBox="0 0 4280.3 1133.9" style="enable-background:new 0 0 4280.3 1133.9;" xml:space="preserve">
<style type="text/css">
	.st0{fill:none;stroke:#404040;stroke-width:0.7922;stroke-linecap:round;stroke-linejoin:round;stroke-miterlimit:11.3386;}
	.st1{fill:none;stroke:#404040;stroke-width:0.8343;stroke-linecap:round;stroke-linejoin:round;stroke-miterlimit:11.3386;}
	.st2{fill:none;stroke:#404040;stroke-width:0.75;stroke-linecap:round;stroke-linejoin:round;stroke-miterlimit:11.3386;}
	.st3{fill:none;stroke:#404040;stroke-linecap:round;stroke-linejoin:round;stroke-miterlimit:11.3386;}
	.st4{fill:none;stroke:#404040;stroke-width:0.7451;stroke-linecap:round;stroke-linejoin:round;stroke-miterlimit:11.3386;}
</style>
<g>
	<g>
		<path id="path22-2" class="st0" d="M98.6,74.7l126.9,124.5"/>
		<path id="path32-1" class="st1" d="M338.5,973.1c0,13.1-10.6,23.7-23.7,23.7c-13.1,0-23.7-10.6-23.7-23.7
			c0-13.1,10.6-23.7,23.7-23.7C327.9,949.5,338.5,960.1,338.5,973.1z"/>
		<path id="path34-2" class="st1" d="M338.5,125c0,13.1-10.6,23.7-23.7,23.7s-23.7-10.6-23.7-23.7c0-13.1,10.6-23.7,23.7-23.7
			S338.5,111.9,338.5,125z"/>
		<path class="st2" d="M225.9,199.8v1.7l0,856.6h116.2"/>
		<path class="st2" d="M342.3,74.7l-243.7,0"/>
		<line class="st3" x1="342.3" y1="74.7" x2="342.1" y2="1058"/>
	</g>
	<g>
		<path class="st2" d="M90.3,72.3l-18.6,0"/>
		<path class="st4" d="M71.1,1061.5h145V196.8"/>
		<path id="path8-3" class="st2" d="M216.3,196.1L90.3,72.3"/>
		<path id="path12-6" class="st2" d="M75.1,972.2c0-14.1,11.4-25.5,25.5-25.5s25.5,11.4,25.5,25.5c0,14.1-11.4,25.5-25.5,25.5
			S75.1,986.3,75.1,972.2z"/>
		<path id="path14-2" class="st2" d="M78.1,124c0-14.1,11.4-25.5,25.5-25.5c14.1,0,25.5,11.4,25.5,25.5s-11.4,25.5-25.5,25.5
			C89.5,149.6,78.1,138.1,78.1,124z"/>
		<line class="st2" x1="71.1" y1="1061.5" x2="71.7" y2="72.4"/>
	</g>
</g>
</svg>
