<?xml version="1.0" encoding="utf-8"?>
<!-- Generator: Adobe Illustrator 25.2.1, SVG Export Plug-In . SVG Version: 6.00 Build 0)  -->
<svg version="1.1" id="Layer_1" xmlns="http://www.w3.org/2000/svg" xmlns:xlink="http://www.w3.org/1999/xlink" x="0px" y="0px"
	 viewBox="0 0 4280.3 1133.9" style="enable-background:new 0 0 4280.3 1133.9;" xml:space="preserve">
<style type="text/css">
	.st0{fill:none;stroke:#000000;stroke-miterlimit:10;}
</style>
<path class="st0" d="M1226.3,1038.9H228.5c-1.6,0-2.8-1.3-2.8-2.8V97.8c0-1.6,1.3-2.8,2.8-2.8h997.8c1.6,0,2.8,1.3,2.8,2.8v938.3
	C1229.1,1037.6,1227.9,1038.9,1226.3,1038.9z"/>
<circle class="st0" cx="1132" cy="458.7" r="36.9"/>
<g>
	<g>
		<path d="M360.5,274.1c3.2,0,3.2-5,0-5S357.3,274.1,360.5,274.1L360.5,274.1z"/>
	</g>
</g>
<g>
	<g>
		<path d="M397.6,255.5c3.2,0,3.2-5,0-5S394.4,255.5,397.6,255.5L397.6,255.5z"/>
	</g>
</g>
<g>
	<g>
		<path d="M433.6,277.6c3.2,0,3.2-5,0-5S430.4,277.6,433.6,277.6L433.6,277.6z"/>
	</g>
</g>
<g>
	<g>
		<path d="M477.8,260.2c3.2,0,3.2-5,0-5C474.6,255.2,474.6,260.2,477.8,260.2L477.8,260.2z"/>
	</g>
</g>
<g>
	<g>
		<path d="M513.8,278.8c3.2,0,3.2-5,0-5C510.6,273.8,510.6,278.8,513.8,278.8L513.8,278.8z"/>
	</g>
</g>
<g>
	<g>
		<path d="M554.4,261.3c3.2,0,3.2-5,0-5S551.2,261.3,554.4,261.3L554.4,261.3z"/>
	</g>
</g>
<g>
	<g>
		<path d="M589.3,273c3.2,0,3.2-5,0-5C586,268,586,273,589.3,273L589.3,273z"/>
	</g>
</g>
<g>
	<g>
		<path d="M640.4,261.3c3.2,0,3.2-5,0-5C637.1,256.3,637.1,261.3,640.4,261.3L640.4,261.3z"/>
	</g>
</g>
<g>
	<g>
		<path d="M655.5,282.2c3.2,0,3.2-5,0-5C652.2,277.2,652.2,282.2,655.5,282.2L655.5,282.2z"/>
	</g>
</g>
<g>
	<g>
		<path d="M694.9,261.3c3.2,0,3.2-5,0-5S691.7,261.3,694.9,261.3L694.9,261.3z"/>
	</g>
</g>
<g>
	<g>
		<path d="M732.1,279.9c3.2,0,3.2-5,0-5C728.9,274.9,728.9,279.9,732.1,279.9L732.1,279.9z"/>
	</g>
</g>
<g>
	<g>
		<path d="M735.6,260.2c3.2,0,3.2-5,0-5C732.4,255.2,732.4,260.2,735.6,260.2L735.6,260.2z"/>
	</g>
</g>
<g>
	<g>
		<path d="M343.1,259c3.2,0,3.2-5,0-5C339.8,254,339.8,259,343.1,259L343.1,259z"/>
	</g>
</g>
</svg>
