<?xml version="1.0" encoding="utf-8"?>
<!-- Generator: Adobe Illustrator 25.2.1, SVG Export Plug-In . SVG Version: 6.00 Build 0)  -->
<svg version="1.1" id="Layer_1" xmlns="http://www.w3.org/2000/svg" xmlns:xlink="http://www.w3.org/1999/xlink" x="0px" y="0px"
	 viewBox="0 0 4280.3 1133.9" style="enable-background:new 0 0 4280.3 1133.9;" xml:space="preserve">
<style type="text/css">
	.st0{fill:none;stroke:#404040;stroke-width:0.75;stroke-linecap:round;stroke-linejoin:round;stroke-miterlimit:11.3386;}
	.st1{fill:none;stroke:#000000;stroke-miterlimit:10;}
</style>
<g>
	<g>
		<path class="st0" d="M280.8,331.3v0.6"/>
		<path class="st0" d="M280.8,785.5v0.3"/>
		<path class="st0" d="M280.8,785.5l0.1,237.4"/>
		<path class="st0" d="M281.1,84.2l-0.3,701.7"/>
		<path class="st0" d="M1264.5,1022.4l-0.1-938.3"/>
		<line class="st1" x1="1264.5" y1="1022.4" x2="280.9" y2="1022.9"/>
		<line class="st1" x1="281.1" y1="84.2" x2="1264.4" y2="84.2"/>
	</g>
	<line class="st1" x1="425.5" y1="205.3" x2="426.5" y2="205.3"/>
	<line class="st1" x1="446.4" y1="227.3" x2="447.4" y2="227.3"/>
	<line class="st1" x1="477.8" y1="213.4" x2="478.8" y2="213.4"/>
	<line class="st1" x1="506.8" y1="227.3" x2="507.8" y2="227.3"/>
	<line class="st1" x1="520.7" y1="213.4" x2="521.7" y2="213.4"/>
	<line class="st1" x1="535.9" y1="227.3" x2="536.9" y2="227.3"/>
	<line class="st1" x1="573" y1="205.3" x2="574" y2="205.3"/>
	<line class="st1" x1="593.9" y1="218.8" x2="594.9" y2="218.8"/>
	<line class="st1" x1="646.2" y1="227.3" x2="647.2" y2="227.3"/>
	<line class="st1" x1="658.9" y1="213.4" x2="659.9" y2="213.4"/>
	<line class="st1" x1="693.8" y1="227.3" x2="694.8" y2="227.3"/>
	<line class="st1" x1="720.5" y1="205.3" x2="721.5" y2="205.3"/>
	<line class="st1" x1="749.5" y1="218.8" x2="750.5" y2="218.8"/>
	<line class="st1" x1="772.8" y1="213.4" x2="773.8" y2="213.4"/>
	<line class="st1" x1="563.7" y1="218.8" x2="564.7" y2="218.8"/>
	<line class="st1" x1="621.8" y1="213.4" x2="622.8" y2="213.4"/>
</g>
</svg>
