<?xml version="1.0" encoding="utf-8"?>
<!-- Generator: Adobe Illustrator 25.2.1, SVG Export Plug-In . SVG Version: 6.00 Build 0)  -->
<svg version="1.1" id="Layer_1" xmlns="http://www.w3.org/2000/svg" xmlns:xlink="http://www.w3.org/1999/xlink" x="0px" y="0px"
	 viewBox="0 0 4280.3 1133.9" style="enable-background:new 0 0 4280.3 1133.9;" xml:space="preserve">
<style type="text/css">
	.st0{fill:none;stroke:#404040;stroke-width:0.75;stroke-linecap:round;stroke-linejoin:round;stroke-miterlimit:11.3386;}
	.st1{fill:none;stroke:#000000;stroke-miterlimit:10;}
</style>
<g>
	<path id="path10-3" class="st0" d="M308,197.2c0-15.7,12.7-28.4,28.3-28.4c15.6,0,28.3,12.7,28.3,28.4s-12.7,28.4-28.3,28.4
		C320.7,225.6,308,212.8,308,197.2"/>
	<path class="st0" d="M1264.5,775.7v-0.6"/>
	<path class="st0" d="M1264.5,321.5v-0.3"/>
	<path class="st0" d="M1264.5,321.5l-0.1-237.4"/>
	<path class="st0" d="M1264.2,1022.8l0.3-701.3"/>
	<path class="st0" d="M280.8,84.6l0.1,938.3"/>
	<line class="st1" x1="280.8" y1="84.6" x2="1264.4" y2="84.1"/>
	<line class="st1" x1="1264.2" y1="1022.8" x2="280.9" y2="1022.8"/>
	<path id="path4-6_2_" class="st0" d="M1161.6,167.4c16.4,0,29.8,13.3,29.8,29.8S1178,227,1161.6,227s-29.8-13.3-29.8-29.8
		C1131.8,180.9,1145.2,167.4,1161.6,167.4z"/>
	<path id="path10-3_1_" class="st0" d="M307.6,916.5c0-15.7,12.7-28.4,28.3-28.4c15.6,0,28.3,12.7,28.3,28.4s-12.7,28.4-28.3,28.4
		C320.3,944.9,307.6,932.1,307.6,916.5"/>
	<path id="path4-6_3_" class="st0" d="M1161.2,886.7c16.4,0,29.8,13.3,29.8,29.8s-13.4,29.8-29.8,29.8s-29.8-13.3-29.8-29.8
		C1131.4,900.1,1144.8,886.7,1161.2,886.7z"/>
	<path class="st0" d="M438.2,966.1h65.2c1.6,0,2.8,1.3,2.8,2.8v25.5c0,1.6-1.3,2.8-2.8,2.8h-65.2c-1.6,0-2.8-1.3-2.8-2.8v-25.5
		C435.4,967.4,436.7,966.1,438.2,966.1z"/>
</g>
</svg>
