<?xml version="1.0" encoding="utf-8"?>
<!DOCTYPE svg PUBLIC "-//W3C//DTD SVG 1.1//EN" "http://www.w3.org/Graphics/SVG/1.1/DTD/svg11.dtd">
<!-- exported from Silhouette Studio® Business Edition V4.3.370ssbe -->
<svg version="1.1" xmlns="http://www.w3.org/2000/svg" xmlns:xlink="http://www.w3.org/1999/xlink" width="304.8mm" height="304.8mm" viewBox="0 0 304.8 304.8">
<defs/>
<path d="M 24.96686 17.741 L 24.96686 117.741 L 124.9669 117.741 L 124.9669 17.741 L 24.96686 17.741 Z" fill="none" fill-opacity="1" stroke="#000000" stroke-opacity="1" stroke-width="0.3527778" stroke-linecap="round" stroke-linejoin="round"/>
<g>
<path d="M 82.63698 93.43405 L 73.48506 93.43405 L 69.84706 83.96951 L 53.19176 83.96951 L 49.75269 93.43405 L 40.82817 93.43405 L 57.05714 51.76737 L 65.95323 51.76737 L 82.63698 93.43405 Z M 67.14696 76.94928 L 61.40572 61.48769 L 55.77814 76.94928 L 67.14696 76.94928 Z" fill="none" fill-opacity="1" stroke="#000000" stroke-opacity="1" stroke-width="0.3527778" stroke-linecap="round" stroke-linejoin="round"/>
<path d="M 87.0424 93.43405 L 87.04242 51.76737 L 95.02901 51.76737 L 95.02899 93.43405 L 87.0424 93.43405 Z" fill="none" fill-opacity="1" stroke="#000000" stroke-opacity="1" stroke-width="0.3527778" stroke-linecap="round" stroke-linejoin="round"/>
</g>
<g>
<path d="M 37.28245 40.90682 L 34.13623 40.90682 L 34.13623 29.04966 C 32.98671 30.12453 31.63193 30.91949 30.07187 31.43453 L 30.07187 28.5794 C 30.89296 28.31069 31.78495 27.80124 32.74785 27.05107 C 33.71076 26.30091 34.37135 25.42571 34.72964 24.42548 L 37.28246 24.42548 L 37.28245 40.90682 Z" fill="none" fill-opacity="1" stroke="#000000" stroke-opacity="1" stroke-width="0.3527778" stroke-linecap="round" stroke-linejoin="round"/>
<path d="M 41.87305 36.55135 L 44.91851 36.18187 C 45.01554 36.95816 45.2768 37.55158 45.70227 37.96212 C 46.12774 38.37267 46.64278 38.57793 47.24739 38.57793 C 47.89679 38.57793 48.44356 38.33161 48.88769 37.83896 C 49.33182 37.34632 49.55389 36.68198 49.55389 35.84597 C 49.55389 35.05476 49.34115 34.42774 48.91568 33.96496 C 48.49021 33.50216 47.97144 33.27076 47.35936 33.27076 C 46.95629 33.27076 46.47483 33.34914 45.915 33.5059 L 46.2621 30.94188 C 47.11304 30.96427 47.76244 30.77953 48.2103 30.38765 C 48.65816 29.99576 48.88209 29.47514 48.88209 28.82572 C 48.88209 28.27337 48.71788 27.83297 48.38945 27.50454 C 48.06102 27.17609 47.62435 27.01188 47.07945 27.01188 C 46.54201 27.01188 46.08295 27.19849 45.70227 27.5717 C 45.32159 27.94493 45.09019 28.48983 45.00808 29.20641 L 42.10817 28.71377 C 42.30971 27.721 42.61388 26.92791 43.02069 26.33449 C 43.4275 25.74108 43.99479 25.27456 44.72257 24.93493 C 45.45035 24.5953 46.26583 24.42548 47.16902 24.42548 C 48.71415 24.42548 49.95324 24.91813 50.88628 25.90342 C 51.65511 26.70957 52.03952 27.62023 52.03952 28.63538 C 52.03952 30.07601 51.25203 31.22553 49.67705 32.08393 C 50.61756 32.28547 51.36959 32.73706 51.93316 33.43871 C 52.49672 34.14035 52.7785 34.98757 52.7785 35.98034 C 52.7785 37.42095 52.25225 38.64884 51.19978 39.66401 C 50.1473 40.67916 48.83731 41.18673 47.26979 41.18673 C 45.78438 41.18673 44.55275 40.7594 43.57492 39.90473 C 42.59709 39.05005 42.0298 37.93227 41.87305 36.55135 Z" fill="none" fill-opacity="1" stroke="#000000" stroke-opacity="1" stroke-width="0.3527778" stroke-linecap="round" stroke-linejoin="round"/>
</g>
<g>
<path d="M 115.0978 28.38045 L 115.0978 29.7292 L 110.0077 29.7292 C 110.0628 29.21933 110.2282 28.73616 110.5038 28.27968 C 110.7794 27.8232 111.3237 27.21773 112.1367 26.46326 C 112.7913 25.85347 113.1927 25.44006 113.3408 25.22302 C 113.5406 24.92329 113.6405 24.62701 113.6405 24.33418 C 113.6405 24.01035 113.5536 23.76143 113.3796 23.58746 C 113.2056 23.41348 112.9653 23.32649 112.6587 23.32649 C 112.3555 23.32649 112.1143 23.41779 111.9352 23.60037 C 111.7561 23.78297 111.6527 24.08614 111.6252 24.50989 L 110.1782 24.36519 C 110.2643 23.56593 110.5348 22.99232 110.9895 22.64436 C 111.4443 22.2964 112.0127 22.12244 112.6949 22.12244 C 113.4424 22.12244 114.0298 22.32397 114.457 22.72705 C 114.8842 23.13013 115.0978 23.63138 115.0978 24.23083 C 115.0978 24.5719 115.0367 24.89659 114.9144 25.20493 C 114.7921 25.51326 114.5983 25.83624 114.333 26.17386 C 114.1573 26.3978 113.8403 26.71991 113.3822 27.14021 C 112.924 27.56052 112.6337 27.83957 112.5114 27.97737 C 112.3891 28.11517 112.2901 28.24953 112.2143 28.38045 L 115.0978 28.38045 Z" fill="none" fill-opacity="1" stroke="#000000" stroke-opacity="1" stroke-width="0.3527778" stroke-linecap="round" stroke-linejoin="round"/>
<path d="M 111.4391 37.46516 C 111.0636 37.30669 110.7906 37.08878 110.6201 36.81145 C 110.4495 36.53412 110.3643 36.23009 110.3643 35.89937 C 110.3643 35.33437 110.5615 34.86755 110.9559 34.49893 C 111.3504 34.13031 111.9111 33.946 112.638 33.946 C 113.358 33.946 113.917 34.13031 114.3149 34.49893 C 114.7128 34.86755 114.9118 35.33437 114.9118 35.89937 C 114.9118 36.25076 114.8205 36.5634 114.6379 36.8373 C 114.4553 37.11118 114.1986 37.32047 113.8679 37.46516 C 114.2882 37.63397 114.6077 37.88029 114.8265 38.20413 C 115.0453 38.52797 115.1547 38.90176 115.1547 39.32552 C 115.1547 40.02487 114.9316 40.59331 114.4854 41.03084 C 114.0393 41.46835 113.4459 41.68712 112.7052 41.68712 C 112.0162 41.68712 111.4426 41.50626 110.9844 41.14452 C 110.4435 40.71733 110.173 40.13167 110.173 39.38753 C 110.173 38.97755 110.2747 38.60118 110.4779 38.25839 C 110.6812 37.9156 111.0016 37.6512 111.4391 37.46516 Z M 111.7388 36.00272 C 111.7388 36.2921 111.8207 36.51776 111.9843 36.67967 C 112.1479 36.8416 112.3658 36.92256 112.638 36.92256 C 112.9136 36.92256 113.1341 36.84073 113.2995 36.67709 C 113.4648 36.51346 113.5475 36.28694 113.5475 35.99754 C 113.5475 35.72539 113.4657 35.50748 113.3021 35.34384 C 113.1384 35.18021 112.9222 35.09837 112.6535 35.09837 C 112.3745 35.09837 112.1523 35.18106 111.9869 35.34642 C 111.8215 35.5118 111.7388 35.73056 111.7388 36.00272 Z M 111.6045 39.248 C 111.6045 39.64763 111.707 39.95941 111.912 40.18333 C 112.1169 40.40727 112.3727 40.51924 112.6794 40.51924 C 112.9791 40.51924 113.2271 40.41158 113.4235 40.19626 C 113.6199 39.98094 113.718 39.67001 113.718 39.2635 C 113.718 38.90866 113.6181 38.62357 113.4183 38.40825 C 113.2185 38.19293 112.9653 38.08528 112.6587 38.08528 C 112.3038 38.08528 112.0394 38.20758 111.8654 38.45218 C 111.6915 38.69678 111.6045 38.96205 111.6045 39.248 Z" fill="none" fill-opacity="1" stroke="#000000" stroke-opacity="1" stroke-width="0.3527778" stroke-linecap="round" stroke-linejoin="round"/>
<path d="M 110.142 51.36612 L 111.5476 51.19559 C 111.5924 51.55388 111.713 51.82776 111.9094 52.01724 C 112.1057 52.20671 112.3435 52.30145 112.6225 52.30145 C 112.9222 52.30145 113.1746 52.18777 113.3796 51.96039 C 113.5846 51.73302 113.687 51.42641 113.687 51.04056 C 113.687 50.67537 113.5889 50.38599 113.3925 50.17239 C 113.1961 49.95879 112.9567 49.85199 112.6742 49.85199 C 112.4882 49.85199 112.2659 49.88817 112.0076 49.96051 L 112.1678 48.77713 C 112.5605 48.78746 112.8602 48.70219 113.0669 48.52133 C 113.2736 48.34045 113.377 48.10016 113.377 47.80045 C 113.377 47.5455 113.3012 47.34224 113.1496 47.19066 C 112.998 47.03908 112.7965 46.96329 112.545 46.96329 C 112.297 46.96329 112.0851 47.04941 111.9094 47.22166 C 111.7337 47.39392 111.6269 47.64542 111.589 47.97614 L 110.2506 47.74876 C 110.3436 47.29057 110.484 46.92453 110.6717 46.65063 C 110.8595 46.37675 111.1213 46.16144 111.4572 46.00468 C 111.7931 45.84793 112.1695 45.76956 112.5863 45.76956 C 113.2995 45.76956 113.8714 45.99693 114.302 46.45169 C 114.6568 46.82376 114.8343 47.24406 114.8343 47.71259 C 114.8343 48.37749 114.4708 48.90804 113.7439 49.30423 C 114.178 49.39725 114.5251 49.60567 114.7852 49.9295 C 115.0453 50.25334 115.1753 50.64436 115.1753 51.10257 C 115.1753 51.76747 114.9324 52.33418 114.4467 52.80272 C 113.9609 53.27126 113.3563 53.50552 112.6328 53.50552 C 111.9473 53.50552 111.3788 53.30829 110.9275 52.91382 C 110.4762 52.51936 110.2144 52.00346 110.142 51.36612 Z" fill="none" fill-opacity="1" stroke="#000000" stroke-opacity="1" stroke-width="0.3527778" stroke-linecap="round" stroke-linejoin="round"/>
</g>
<g>
<path d="M 38.58427 112.3537 L 38.58427 114.3768 L 30.94908 114.3768 C 31.03176 113.612 31.2798 112.8872 31.69322 112.2025 C 32.10663 111.5178 32.92312 110.6096 34.14268 109.4779 C 35.12454 108.5632 35.72657 107.9431 35.94877 107.6175 C 36.2485 107.1679 36.39836 106.7235 36.39836 106.2843 C 36.39836 105.7985 36.26788 105.4251 36.00691 105.1642 C 35.74594 104.9032 35.3855 104.7727 34.92558 104.7727 C 34.47083 104.7727 34.1091 104.9097 33.84037 105.1835 C 33.57166 105.4574 33.41663 105.9122 33.37529 106.5478 L 31.20488 106.3308 C 31.33407 105.1319 31.73973 104.2715 32.42186 103.7495 C 33.10398 103.2276 33.95665 102.9666 34.97984 102.9666 C 36.10122 102.9666 36.9823 103.2689 37.62309 103.8736 C 38.26388 104.4782 38.58427 105.2301 38.58427 106.1292 C 38.58427 106.6408 38.49255 107.1279 38.30909 107.5904 C 38.12564 108.0529 37.83496 108.5374 37.43705 109.0438 C 37.1735 109.3797 36.69809 109.8629 36.01078 110.4933 C 35.32349 111.1237 34.88811 111.5423 34.70466 111.749 C 34.52121 111.9557 34.37264 112.1573 34.25895 112.3537 L 38.58427 112.3537 Z" fill="none" fill-opacity="1" stroke="#000000" stroke-opacity="1" stroke-width="0.3527778" stroke-linecap="round" stroke-linejoin="round"/>
<path d="M 47.43644 105.7959 L 45.32804 106.0285 C 45.27637 105.5944 45.142 105.274 44.92496 105.0673 C 44.70792 104.8606 44.42629 104.7572 44.08005 104.7572 C 43.62014 104.7572 43.23127 104.9639 42.91346 105.3773 C 42.59565 105.7907 42.3954 106.6512 42.31272 107.9586 C 42.85532 107.3178 43.5297 106.9974 44.33585 106.9974 C 45.24537 106.9974 46.02438 107.3436 46.67292 108.0361 C 47.32146 108.7285 47.64573 109.6226 47.64573 110.7181 C 47.64573 111.8808 47.30466 112.8136 46.62253 113.5164 C 45.9404 114.2192 45.06449 114.5706 43.99479 114.5706 C 42.84757 114.5706 41.90448 114.1249 41.1655 113.2334 C 40.42653 112.342 40.05705 110.8809 40.05705 108.85 C 40.05705 106.7674 40.44204 105.2662 41.21202 104.3464 C 41.98199 103.4265 42.98193 102.9666 44.21183 102.9666 C 45.07483 102.9666 45.78925 103.2082 46.35511 103.6914 C 46.92096 104.1746 47.28141 104.8761 47.43644 105.7959 Z M 42.49875 110.5476 C 42.49875 111.2555 42.66153 111.802 42.98709 112.187 C 43.31266 112.572 43.68473 112.7645 44.10331 112.7645 C 44.50638 112.7645 44.84228 112.6069 45.111 112.2916 C 45.37972 111.9764 45.51407 111.4597 45.51407 110.7413 C 45.51407 110.0024 45.36938 109.4611 45.07999 109.1174 C 44.79061 108.7738 44.42887 108.6019 43.99479 108.6019 C 43.57621 108.6019 43.22223 108.766 42.93283 109.0942 C 42.64345 109.4223 42.49875 109.9068 42.49875 110.5476 Z" fill="none" fill-opacity="1" stroke="#000000" stroke-opacity="1" stroke-width="0.3527778" stroke-linecap="round" stroke-linejoin="round"/>
<path d="M 49.35105 114.3768 L 49.35105 112.1986 L 51.52921 112.1986 L 51.52921 114.3768 L 49.35105 114.3768 Z" fill="none" fill-opacity="1" stroke="#000000" stroke-opacity="1" stroke-width="0.3527778" stroke-linecap="round" stroke-linejoin="round"/>
<path d="M 53.34305 111.749 L 55.45145 111.5165 C 55.50312 111.9454 55.63749 112.2632 55.85453 112.4699 C 56.07157 112.6766 56.35837 112.78 56.71494 112.78 C 57.16452 112.78 57.54692 112.5733 57.86216 112.1599 C 58.17738 111.7465 58.37892 110.8886 58.46677 109.5864 C 57.91899 110.222 57.23429 110.5398 56.41263 110.5398 C 55.51863 110.5398 54.74736 110.1949 54.09882 109.505 C 53.45028 108.8151 53.12601 107.9172 53.12601 106.8114 C 53.12601 105.659 53.46837 104.7301 54.15308 104.0247 C 54.8378 103.3193 55.70984 102.9666 56.7692 102.9666 C 57.92158 102.9666 58.86726 103.4123 59.60624 104.3038 C 60.3452 105.1952 60.71469 106.6615 60.71469 108.7027 C 60.71469 110.7801 60.3297 112.2787 59.55973 113.1986 C 58.78975 114.1184 57.78722 114.5783 56.55216 114.5783 C 55.66332 114.5783 54.94502 114.3419 54.39725 113.8691 C 53.84948 113.3962 53.49808 112.6895 53.34305 111.749 Z M 58.27298 106.9896 C 58.27298 106.2868 58.11149 105.7417 57.78852 105.3541 C 57.46554 104.9665 57.09218 104.7727 56.66843 104.7727 C 56.26535 104.7727 55.93074 104.9316 55.66462 105.2494 C 55.39849 105.5672 55.26542 106.0879 55.26542 106.8114 C 55.26542 107.5452 55.41011 108.0839 55.6995 108.4275 C 55.98888 108.7712 56.35062 108.943 56.7847 108.943 C 57.20328 108.943 57.55597 108.7776 57.84278 108.4469 C 58.12958 108.1162 58.27298 107.6304 58.27298 106.9896 Z" fill="none" fill-opacity="1" stroke="#000000" stroke-opacity="1" stroke-width="0.3527778" stroke-linecap="round" stroke-linejoin="round"/>
<path d="M 63.99356 108.2454 C 63.43029 108.0077 63.02076 107.6808 62.76496 107.2648 C 62.50916 106.8488 62.38126 106.3928 62.38126 105.8967 C 62.38126 105.0492 62.67711 104.349 63.2688 103.796 C 63.86049 103.2431 64.70152 102.9666 65.7919 102.9666 C 66.87193 102.9666 67.71037 103.2431 68.30724 103.796 C 68.9041 104.349 69.20253 105.0492 69.20253 105.8967 C 69.20253 106.4238 69.0656 106.8927 68.7917 107.3036 C 68.51782 107.7144 68.13284 108.0283 67.63675 108.2454 C 68.2672 108.4986 68.74649 108.8681 69.07463 109.3538 C 69.40279 109.8396 69.56685 110.4003 69.56685 111.0359 C 69.56685 112.0849 69.23225 112.9376 68.56303 113.5939 C 67.89383 114.2502 67.00371 114.5783 65.89267 114.5783 C 64.85913 114.5783 63.99873 114.307 63.31144 113.7644 C 62.50011 113.1236 62.09446 112.2451 62.09446 111.1289 C 62.09446 110.514 62.24691 109.9494 62.55179 109.4352 C 62.85668 108.9211 63.33727 108.5244 63.99356 108.2454 Z M 64.44315 106.0517 C 64.44315 106.4858 64.56588 106.8243 64.81134 107.0672 C 65.05682 107.31 65.38365 107.4315 65.7919 107.4315 C 66.20531 107.4315 66.53604 107.3087 66.78409 107.0633 C 67.03214 106.8178 67.15616 106.478 67.15616 106.044 C 67.15616 105.6357 67.03342 105.3089 66.78796 105.0634 C 66.5425 104.8179 66.21823 104.6952 65.81516 104.6952 C 65.39658 104.6952 65.06326 104.8192 64.81522 105.0673 C 64.56717 105.3153 64.44315 105.6435 64.44315 106.0517 Z M 64.24161 110.9196 C 64.24161 111.5191 64.39535 111.9868 64.70282 112.3226 C 65.01029 112.6585 65.39398 112.8265 65.85391 112.8265 C 66.3035 112.8265 66.67557 112.665 66.97012 112.342 C 67.26468 112.019 67.41196 111.5527 67.41196 110.9429 C 67.41196 110.4106 67.26208 109.983 66.96237 109.66 C 66.66264 109.337 66.28282 109.1756 65.82291 109.1756 C 65.29063 109.1756 64.89403 109.359 64.63306 109.7259 C 64.37209 110.0928 64.24161 110.4907 64.24161 110.9196 Z" fill="none" fill-opacity="1" stroke="#000000" stroke-opacity="1" stroke-width="0.3527778" stroke-linecap="round" stroke-linejoin="round"/>
<path d="M 76.52765 114.3768 L 74.34949 114.3768 L 74.3495 106.168 C 73.55368 106.9121 72.61575 107.4625 71.53572 107.819 L 71.53572 105.8424 C 72.10416 105.6564 72.72169 105.3037 73.38832 104.7843 C 74.05495 104.265 74.51228 103.6591 74.76033 102.9666 L 76.52766 102.9666 L 76.52765 114.3768 Z" fill="none" fill-opacity="1" stroke="#000000" stroke-opacity="1" stroke-width="0.3527778" stroke-linecap="round" stroke-linejoin="round"/>
<path d="M 79.81429 111.4545 L 81.9847 111.2297 C 82.04669 111.7206 82.23015 112.1095 82.53503 112.3963 C 82.83994 112.6831 83.19133 112.8265 83.58923 112.8265 C 84.04399 112.8265 84.42899 112.6418 84.7442 112.2723 C 85.05943 111.9028 85.21704 111.346 85.21704 110.6018 C 85.21704 109.9042 85.06073 109.381 84.74808 109.0322 C 84.43544 108.6833 84.02849 108.5089 83.52724 108.5089 C 82.90195 108.5089 82.34126 108.7854 81.84517 109.3383 L 80.07784 109.0825 L 81.19405 103.1682 L 86.95337 103.1682 L 86.95337 105.2068 L 82.84511 105.2068 L 82.50404 107.1369 C 82.98979 106.894 83.48589 106.7726 83.99232 106.7726 C 84.95866 106.7726 85.77774 107.124 86.44952 107.8268 C 87.12132 108.5296 87.45721 109.4417 87.45721 110.5631 C 87.45721 111.4984 87.18591 112.333 86.64331 113.0668 C 85.90434 114.0693 84.87857 114.5706 83.56598 114.5706 C 82.51695 114.5706 81.66171 114.2889 81.00024 113.7257 C 80.33879 113.1624 79.94347 112.4053 79.81429 111.4545 Z" fill="none" fill-opacity="1" stroke="#000000" stroke-opacity="1" stroke-width="0.3527778" stroke-linecap="round" stroke-linejoin="round"/>
<path d="M 88.53468 111.3615 L 90.64308 111.1057 C 90.71025 111.6431 90.89111 112.0539 91.18567 112.3382 C 91.48022 112.6224 91.83679 112.7645 92.25537 112.7645 C 92.70496 112.7645 93.0835 112.5939 93.39096 112.2529 C 93.69844 111.9118 93.85217 111.4519 93.85217 110.8731 C 93.85217 110.3253 93.7049 109.8913 93.41034 109.5709 C 93.11578 109.2505 92.75664 109.0903 92.33289 109.0903 C 92.05383 109.0903 91.72052 109.1445 91.33296 109.2531 L 91.57324 107.478 C 92.16237 107.4935 92.61195 107.3656 92.92201 107.0943 C 93.23207 106.823 93.3871 106.4625 93.3871 106.013 C 93.3871 105.6306 93.27341 105.3257 93.04604 105.0983 C 92.81865 104.8709 92.51634 104.7572 92.13911 104.7572 C 91.76704 104.7572 91.44923 104.8864 91.18568 105.1448 C 90.92213 105.4032 90.76193 105.7804 90.70509 106.2765 L 88.69746 105.9354 C 88.83699 105.2481 89.04756 104.6991 89.32921 104.2883 C 89.61084 103.8774 90.00359 103.5544 90.50743 103.3193 C 91.01128 103.0842 91.57584 102.9666 92.20113 102.9666 C 93.27083 102.9666 94.12865 103.3077 94.7746 103.9898 C 95.30687 104.5479 95.573 105.1784 95.573 105.8812 C 95.573 106.8785 95.02782 107.6743 93.93745 108.2686 C 94.58856 108.4082 95.10921 108.7208 95.49936 109.2066 C 95.88953 109.6923 96.08459 110.2788 96.08459 110.9661 C 96.08459 111.9635 95.72028 112.8136 94.99164 113.5164 C 94.263 114.2192 93.35608 114.5706 92.27087 114.5706 C 91.24252 114.5706 90.38986 114.2747 89.71289 113.683 C 89.03593 113.0913 88.6432 112.3175 88.53468 111.3615 Z" fill="none" fill-opacity="1" stroke="#000000" stroke-opacity="1" stroke-width="0.3527778" stroke-linecap="round" stroke-linejoin="round"/>
<path d="M 99.30922 108.2454 C 98.74596 108.0077 98.33643 107.6808 98.08063 107.2648 C 97.82483 106.8488 97.69693 106.3928 97.69693 105.8967 C 97.69693 105.0492 97.99277 104.349 98.58447 103.796 C 99.17616 103.2431 100.0172 102.9666 101.1076 102.9666 C 102.1876 102.9666 103.026 103.2431 103.6229 103.796 C 104.2198 104.349 104.5182 105.0492 104.5182 105.8967 C 104.5182 106.4238 104.3813 106.8927 104.1074 107.3036 C 103.8335 107.7144 103.4485 108.0283 102.9524 108.2454 C 103.5829 108.4986 104.0622 108.8681 104.3903 109.3538 C 104.7185 109.8396 104.8825 110.4003 104.8825 111.0359 C 104.8825 112.0849 104.5479 112.9376 103.8787 113.5939 C 103.2095 114.2502 102.3194 114.5783 101.2083 114.5783 C 100.1748 114.5783 99.31439 114.307 98.62709 113.7644 C 97.81578 113.1236 97.41013 112.2451 97.41013 111.1289 C 97.41013 110.514 97.56256 109.9494 97.86746 109.4352 C 98.17235 108.9211 98.65294 108.5244 99.30922 108.2454 Z M 99.75882 106.0517 C 99.7588 106.4858 99.88155 106.8243 100.127 107.0672 C 100.3725 107.31 100.6993 107.4315 101.1076 107.4315 C 101.521 107.4315 101.8517 107.3087 102.0997 107.0633 C 102.3478 106.8178 102.4718 106.478 102.4718 106.044 C 102.4718 105.6357 102.3491 105.3089 102.1036 105.0634 C 101.8582 104.8179 101.5339 104.6952 101.1308 104.6952 C 100.7122 104.6952 100.3789 104.8192 100.1309 105.0673 C 99.88284 105.3153 99.75882 105.6435 99.75882 106.0517 Z M 99.55727 110.9196 C 99.55727 111.5191 99.71101 111.9868 100.0185 112.3226 C 100.326 112.6585 100.7097 112.8265 101.1696 112.8265 C 101.6192 112.8265 101.9912 112.665 102.2858 112.342 C 102.5803 112.019 102.7276 111.5527 102.7276 110.9429 C 102.7276 110.4106 102.5778 109.983 102.278 109.66 C 101.9783 109.337 101.5985 109.1756 101.1386 109.1756 C 100.6063 109.1756 100.2097 109.359 99.94872 109.7259 C 99.68776 110.0928 99.55727 110.4907 99.55727 110.9196 Z" fill="none" fill-opacity="1" stroke="#000000" stroke-opacity="1" stroke-width="0.3527778" stroke-linecap="round" stroke-linejoin="round"/>
<path d="M 113.6494 105.7959 L 111.541 106.0285 C 111.4894 105.5944 111.355 105.274 111.138 105.0673 C 110.9209 104.8606 110.6393 104.7572 110.293 104.7572 C 109.8331 104.7572 109.4443 104.9639 109.1264 105.3773 C 108.8087 105.7907 108.6084 106.6512 108.5257 107.9586 C 109.0683 107.3178 109.7427 106.9974 110.5488 106.9974 C 111.4584 106.9974 112.2374 107.3436 112.8859 108.0361 C 113.5345 108.7285 113.8587 109.6226 113.8587 110.7181 C 113.8587 111.8808 113.5177 112.8136 112.8355 113.5164 C 112.1534 114.2192 111.2775 114.5706 110.2078 114.5706 C 109.0606 114.5706 108.1175 114.1249 107.3785 113.2334 C 106.6395 112.342 106.2701 110.8809 106.2701 108.85 C 106.2701 106.7674 106.655 105.2662 107.425 104.3464 C 108.195 103.4265 109.1949 102.9666 110.4248 102.9666 C 111.2878 102.9666 112.0022 103.2082 112.5681 103.6914 C 113.134 104.1746 113.4944 104.8761 113.6494 105.7959 Z M 108.7117 110.5476 C 108.7117 111.2555 108.8745 111.802 109.2001 112.187 C 109.5257 112.572 109.8977 112.7645 110.3163 112.7645 C 110.7194 112.7645 111.0553 112.6069 111.324 112.2916 C 111.5927 111.9764 111.7271 111.4597 111.7271 110.7413 C 111.7271 110.0024 111.5824 109.4611 111.293 109.1174 C 111.0036 108.7738 110.6419 108.6019 110.2078 108.6019 C 109.7892 108.6019 109.4352 108.766 109.1458 109.0942 C 108.8564 109.4223 108.7117 109.9068 108.7117 110.5476 Z" fill="none" fill-opacity="1" stroke="#000000" stroke-opacity="1" stroke-width="0.3527778" stroke-linecap="round" stroke-linejoin="round"/>
</g>
<path d="M 130.5109 17.74097 L 130.5109 117.7409 L 230.5109 117.7409 L 230.5109 17.74097 L 130.5109 17.74097 Z" fill="none" fill-opacity="1" stroke="#000000" stroke-opacity="1" stroke-width="0.3527778" stroke-linecap="round" stroke-linejoin="round"/>
<g>
<path d="M 157.8913 93.43407 L 157.8913 58.81602 L 145.5277 58.81602 L 145.5277 51.76736 L 178.6394 51.76736 L 178.6394 58.81602 L 166.3043 58.81602 L 166.3043 93.43407 L 157.8913 93.43407 Z" fill="none" fill-opacity="1" stroke="#000000" stroke-opacity="1" stroke-width="0.3527778" stroke-linecap="round" stroke-linejoin="round"/>
<path d="M 185.6597 72.45859 L 178.4121 71.1512 C 179.2269 68.2332 180.629 66.0731 182.6185 64.67096 C 184.6081 63.2688 187.564 62.56772 191.4862 62.56772 C 195.0484 62.56772 197.7012 62.98933 199.4444 63.83252 C 201.1876 64.6757 202.4145 65.74625 203.125 67.04419 C 203.8356 68.34213 204.1909 70.72487 204.1909 74.19235 L 204.1056 83.51477 C 204.1056 86.1675 204.2335 88.12387 204.4893 89.38391 C 204.7451 90.64395 205.2235 91.99402 205.9246 93.43407 L 198.0233 93.43407 C 197.8148 92.90352 197.5591 92.11716 197.2559 91.07503 C 197.1233 90.60132 197.0285 90.28868 196.9716 90.1371 C 195.6074 91.46346 194.1484 92.45822 192.5947 93.12141 C 191.0409 93.78459 189.383 94.1162 187.6208 94.1162 C 184.5133 94.1162 182.0643 93.27299 180.2737 91.58662 C 178.4831 89.90024 177.5878 87.76859 177.5878 85.19167 C 177.5878 83.48634 177.9952 81.96576 178.81 80.62993 C 179.6247 79.29408 180.7664 78.27089 182.2348 77.56035 C 183.7033 76.8498 185.8207 76.22925 188.5872 75.6987 C 192.3199 74.99762 194.9063 74.34392 196.3464 73.73758 L 196.3464 72.94179 C 196.3464 71.407 195.9674 70.31273 195.2095 69.65903 C 194.4516 69.00531 193.021 68.67847 190.9178 68.67847 C 189.4967 68.67847 188.3882 68.95795 187.5924 69.51691 C 186.7966 70.07587 186.1523 71.05643 185.6597 72.45859 Z M 196.3464 78.93881 C 195.3232 79.27988 193.7031 79.68726 191.4862 80.16096 C 189.2693 80.63467 187.8198 81.09891 187.1376 81.55365 C 186.0955 82.29263 185.5744 83.23056 185.5744 84.36743 C 185.5744 85.48537 185.9913 86.45172 186.825 87.26648 C 187.6587 88.08125 188.7198 88.48862 190.0083 88.48862 C 191.4483 88.48862 192.822 88.01492 194.1295 87.06752 C 195.0958 86.34749 195.7306 85.4664 196.0337 84.42427 C 196.2422 83.74214 196.3464 82.44421 196.3464 80.53046 L 196.3464 78.93881 Z" fill="none" fill-opacity="1" stroke="#000000" stroke-opacity="1" stroke-width="0.3527778" stroke-linecap="round" stroke-linejoin="round"/>
</g>
<g>
<path d="M 134.7762 27.63889 L 134.7762 24.71659 L 145.536 24.71659 L 145.536 27.00069 C 144.6478 27.87402 143.7446 29.12804 142.8265 30.76273 C 141.9084 32.39744 141.2086 34.13477 140.7271 35.97474 C 140.2457 37.8147 140.0087 39.45873 140.0161 40.90682 L 136.9819 40.90682 C 137.0341 38.63766 137.5025 36.32369 138.387 33.96496 C 139.2716 31.60621 140.4528 29.49752 141.9308 27.63889 L 134.7762 27.63889 Z" fill="none" fill-opacity="1" stroke="#000000" stroke-opacity="1" stroke-width="0.3527778" stroke-linecap="round" stroke-linejoin="round"/>
<path d="M 147.4171 36.55135 L 150.4625 36.18188 C 150.5596 36.95817 150.8208 37.55158 151.2463 37.96212 C 151.6718 38.37267 152.1868 38.57793 152.7914 38.57793 C 153.4408 38.57793 153.9876 38.33161 154.4317 37.83897 C 154.8759 37.34632 155.0979 36.68198 155.0979 35.84597 C 155.0979 35.05476 154.8852 34.42774 154.4597 33.96496 C 154.0342 33.50216 153.5155 33.27076 152.9034 33.27076 C 152.5003 33.27076 152.0189 33.34914 151.459 33.5059 L 151.8061 30.94189 C 152.6571 30.96427 153.3065 30.77953 153.7543 30.38766 C 154.2022 29.99577 154.4261 29.47514 154.4261 28.82574 C 154.4261 28.27337 154.2619 27.83297 153.9335 27.50454 C 153.605 27.17611 153.1684 27.01189 152.6235 27.01189 C 152.086 27.01189 151.627 27.19849 151.2463 27.57171 C 150.8656 27.94494 150.6342 28.48983 150.5521 29.20641 L 147.6522 28.71377 C 147.8537 27.721 148.1579 26.92791 148.5647 26.3345 C 148.9715 25.74108 149.5388 25.27456 150.2666 24.93493 C 150.9944 24.5953 151.8098 24.42549 152.713 24.42549 C 154.2582 24.42549 155.4973 24.91813 156.4303 25.90343 C 157.1991 26.70959 157.5835 27.62023 157.5835 28.63538 C 157.5835 30.07601 156.7961 31.22553 155.2211 32.08393 C 156.1616 32.28547 156.9136 32.73707 157.4772 33.43871 C 158.0407 34.14036 158.3225 34.98757 158.3225 35.98034 C 158.3225 37.42095 157.7963 38.64884 156.7438 39.66401 C 155.6913 40.67916 154.3813 41.18673 152.8138 41.18673 C 151.3284 41.18673 150.0968 40.75941 149.1189 39.90473 C 148.1411 39.05006 147.5738 37.93227 147.4171 36.55135 Z" fill="none" fill-opacity="1" stroke="#000000" stroke-opacity="1" stroke-width="0.3527778" stroke-linecap="round" stroke-linejoin="round"/>
</g>
<g>
<path d="M 226.5278 28.3804 L 226.5278 29.72916 L 221.4377 29.72916 C 221.4928 29.21928 221.6582 28.73611 221.9338 28.27963 C 222.2094 27.82315 222.7538 27.21768 223.5668 26.46321 C 224.2213 25.85342 224.6227 25.44002 224.7708 25.22298 C 224.9707 24.92325 225.0706 24.62697 225.0706 24.33414 C 225.0706 24.0103 224.9836 23.76138 224.8096 23.58742 C 224.6356 23.41344 224.3953 23.32645 224.0887 23.32645 C 223.7856 23.32645 223.5444 23.41774 223.3652 23.60033 C 223.1861 23.78293 223.0827 24.08609 223.0552 24.50984 L 221.6082 24.36514 C 221.6944 23.56589 221.9648 22.99228 222.4196 22.64432 C 222.8743 22.29636 223.4427 22.12239 224.1249 22.12239 C 224.8725 22.12239 225.4599 22.32393 225.8871 22.72701 C 226.3142 23.13008 226.5278 23.63133 226.5278 24.23079 C 226.5278 24.57185 226.4667 24.89655 226.3444 25.20488 C 226.2221 25.51321 226.0283 25.8362 225.763 26.17381 C 225.5873 26.39775 225.2704 26.71986 224.8122 27.14017 C 224.354 27.56047 224.0638 27.83952 223.9414 27.97733 C 223.8191 28.11513 223.7201 28.24948 223.6443 28.3804 L 226.5278 28.3804 Z" fill="none" fill-opacity="1" stroke="#000000" stroke-opacity="1" stroke-width="0.3527778" stroke-linecap="round" stroke-linejoin="round"/>
<path d="M 222.8691 37.46509 C 222.4936 37.30661 222.2206 37.0887 222.0501 36.81137 C 221.8795 36.53404 221.7943 36.23001 221.7943 35.89929 C 221.7943 35.33429 221.9915 34.86748 222.386 34.49886 C 222.7804 34.13023 223.3411 33.94592 224.0681 33.94592 C 224.7881 33.94592 225.347 34.13023 225.7449 34.49886 C 226.1429 34.86748 226.3418 35.33429 226.3418 35.89929 C 226.3418 36.25069 226.2505 36.56332 226.0679 36.83722 C 225.8853 37.1111 225.6287 37.32039 225.2979 37.46509 C 225.7182 37.6339 226.0378 37.88022 226.2565 38.20406 C 226.4753 38.52789 226.5847 38.90169 226.5847 39.32544 C 226.5847 40.0248 226.3616 40.59323 225.9155 41.03076 C 225.4693 41.46828 224.8759 41.68704 224.1352 41.68704 C 223.4462 41.68704 222.8726 41.50618 222.4144 41.14444 C 221.8735 40.71725 221.6031 40.13159 221.6031 39.38745 C 221.6031 38.97748 221.7047 38.6011 221.908 38.25832 C 222.1112 37.91553 222.4316 37.65112 222.8691 37.46509 Z M 223.1689 36.00264 C 223.1689 36.29202 223.2507 36.51768 223.4143 36.6796 C 223.578 36.84152 223.7959 36.92249 224.0681 36.92249 C 224.3437 36.92249 224.5641 36.84065 224.7295 36.67702 C 224.8949 36.51338 224.9775 36.28687 224.9775 35.99747 C 224.9775 35.72531 224.8957 35.5074 224.7321 35.34377 C 224.5685 35.18013 224.3523 35.0983 224.0836 35.0983 C 223.8045 35.0983 223.5823 35.18098 223.4169 35.34634 C 223.2516 35.51172 223.1689 35.73048 223.1689 36.00264 Z M 223.0345 39.24792 C 223.0345 39.64755 223.137 39.95934 223.342 40.18326 C 223.547 40.4072 223.8028 40.51917 224.1094 40.51917 C 224.4091 40.51917 224.6572 40.4115 224.8535 40.19618 C 225.0499 39.98087 225.1481 39.66994 225.1481 39.26343 C 225.1481 38.90858 225.0482 38.62349 224.8484 38.40817 C 224.6485 38.19286 224.3953 38.08521 224.0887 38.08521 C 223.7339 38.08521 223.4695 38.2075 223.2955 38.4521 C 223.1215 38.6967 223.0345 38.96198 223.0345 39.24792 Z" fill="none" fill-opacity="1" stroke="#000000" stroke-opacity="1" stroke-width="0.3527778" stroke-linecap="round" stroke-linejoin="round"/>
<path d="M 219.4533 53.3763 L 218.0012 53.3763 L 218.0012 47.90376 C 217.4707 48.39986 216.8454 48.76675 216.1254 49.00447 L 216.1254 47.68672 C 216.5043 47.5627 216.916 47.32758 217.3604 46.98134 C 217.8049 46.6351 218.1097 46.23117 218.2751 45.76953 L 219.4533 45.76953 L 219.4533 53.3763 Z" fill="none" fill-opacity="1" stroke="#000000" stroke-opacity="1" stroke-width="0.3527778" stroke-linecap="round" stroke-linejoin="round"/>
<path d="M 222.8692 49.2887 C 222.4936 49.13022 222.2206 48.91231 222.0501 48.63498 C 221.8796 48.35765 221.7943 48.05362 221.7943 47.7229 C 221.7943 47.1579 221.9915 46.69109 222.386 46.32246 C 222.7804 45.95384 223.3411 45.76953 224.0681 45.76953 C 224.7881 45.76953 225.3471 45.95384 225.7449 46.32246 C 226.1429 46.69109 226.3418 47.1579 226.3418 47.7229 C 226.3418 48.0743 226.2505 48.38693 226.0679 48.66083 C 225.8854 48.93471 225.6287 49.144 225.298 49.2887 C 225.7182 49.4575 226.0378 49.70383 226.2565 50.02766 C 226.4753 50.3515 226.5847 50.7253 226.5847 51.14905 C 226.5847 51.8484 226.3616 52.41684 225.9155 52.85437 C 225.4693 53.29189 224.8759 53.51065 224.1352 53.51065 C 223.4462 53.51065 222.8726 53.32979 222.4144 52.96805 C 221.8735 52.54086 221.6031 51.9552 221.6031 51.21106 C 221.6031 50.80109 221.7047 50.42471 221.908 50.08192 C 222.1113 49.73914 222.4316 49.47473 222.8692 49.2887 Z M 223.1689 47.82625 C 223.1689 48.11563 223.2507 48.34129 223.4144 48.5032 C 223.578 48.66513 223.7959 48.74609 224.0681 48.74609 C 224.3437 48.74609 224.5642 48.66426 224.7295 48.50063 C 224.8949 48.33699 224.9776 48.11047 224.9776 47.82108 C 224.9776 47.54892 224.8957 47.33101 224.7321 47.16737 C 224.5685 47.00374 224.3523 46.92191 224.0836 46.92191 C 223.8045 46.92191 223.5823 47.00459 223.4169 47.16995 C 223.2516 47.33533 223.1689 47.55409 223.1689 47.82625 Z M 223.0345 51.07153 C 223.0345 51.47116 223.137 51.78294 223.342 52.00687 C 223.547 52.2308 223.8028 52.34277 224.1094 52.34277 C 224.4091 52.34277 224.6572 52.23511 224.8535 52.01979 C 225.0499 51.80447 225.1481 51.49355 225.1481 51.08704 C 225.1481 50.73219 225.0482 50.4471 224.8484 50.23178 C 224.6485 50.01646 224.3953 49.90881 224.0887 49.90881 C 223.7339 49.90881 223.4695 50.03111 223.2955 50.27571 C 223.1215 50.52031 223.0345 50.78558 223.0345 51.07153 Z" fill="none" fill-opacity="1" stroke="#000000" stroke-opacity="1" stroke-width="0.3527778" stroke-linecap="round" stroke-linejoin="round"/>
<path d="M 215.6861 63.18965 L 217.0917 63.01912 C 217.1365 63.37741 217.2571 63.65129 217.4535 63.84077 C 217.6498 64.03024 217.8875 64.12498 218.1666 64.12498 C 218.4663 64.12498 218.7187 64.01131 218.9236 63.78392 C 219.1286 63.55655 219.2311 63.24994 219.2311 62.86409 C 219.2311 62.4989 219.1329 62.20952 218.9366 61.99593 C 218.7402 61.78232 218.5008 61.67552 218.2183 61.67552 C 218.0322 61.67552 217.81 61.7117 217.5516 61.78404 L 217.7118 60.60066 C 218.1046 60.61099 218.4043 60.52573 218.611 60.34486 C 218.8177 60.16399 218.9211 59.92369 218.9211 59.62398 C 218.9211 59.36903 218.8453 59.16577 218.6937 59.01419 C 218.5421 58.86261 218.3406 58.78682 218.0891 58.78682 C 217.841 58.78682 217.6292 58.87294 217.4535 59.0452 C 217.2778 59.21745 217.171 59.46895 217.1331 59.79967 L 215.7946 59.5723 C 215.8877 59.11411 216.0281 58.74806 216.2158 58.47417 C 216.4036 58.20029 216.6654 57.98497 217.0013 57.82822 C 217.3372 57.67146 217.7136 57.59309 218.1304 57.59309 C 218.8435 57.59309 219.4154 57.82047 219.8461 58.27522 C 220.2009 58.64729 220.3783 59.0676 220.3783 59.53612 C 220.3783 60.20102 220.0149 60.73157 219.288 61.12776 C 219.722 61.22078 220.0692 61.4292 220.3293 61.75304 C 220.5894 62.07687 220.7194 62.4679 220.7194 62.9261 C 220.7194 63.591 220.4765 64.15771 219.9908 64.62625 C 219.505 65.09479 218.9004 65.32906 218.1769 65.32906 C 217.4913 65.32906 216.9229 65.13182 216.4716 64.73735 C 216.0203 64.3429 215.7585 63.827 215.6861 63.18965 Z" fill="none" fill-opacity="1" stroke="#000000" stroke-opacity="1" stroke-width="0.3527778" stroke-linecap="round" stroke-linejoin="round"/>
<path d="M 226.5278 63.8511 L 226.5278 65.19986 L 221.4377 65.19986 C 221.4928 64.68999 221.6582 64.20682 221.9338 63.75034 C 222.2094 63.29385 222.7538 62.68839 223.5668 61.93391 C 224.2214 61.32413 224.6227 60.91072 224.7709 60.69368 C 224.9707 60.39395 225.0706 60.09767 225.0706 59.80484 C 225.0706 59.481 224.9836 59.23209 224.8096 59.05812 C 224.6356 58.88414 224.3953 58.79715 224.0887 58.79715 C 223.7856 58.79715 223.5444 58.88844 223.3652 59.07103 C 223.1861 59.25363 223.0827 59.55679 223.0552 59.98055 L 221.6083 59.83585 C 221.6944 59.03659 221.9648 58.46298 222.4196 58.11502 C 222.8743 57.76707 223.4428 57.59309 224.1249 57.59309 C 224.8725 57.59309 225.4599 57.79463 225.8871 58.19771 C 226.3143 58.60078 226.5278 59.10204 226.5278 59.70149 C 226.5278 60.04256 226.4667 60.36725 226.3444 60.67558 C 226.2221 60.98392 226.0283 61.3069 225.763 61.64452 C 225.5874 61.86845 225.2704 62.19057 224.8122 62.61087 C 224.354 63.03117 224.0638 63.31023 223.9415 63.44803 C 223.8191 63.58583 223.7201 63.72018 223.6443 63.8511 L 226.5278 63.8511 Z" fill="none" fill-opacity="1" stroke="#000000" stroke-opacity="1" stroke-width="0.3527778" stroke-linecap="round" stroke-linejoin="round"/>
<path d="M 220.0373 77.02341 L 218.5852 77.02341 L 218.5852 71.55087 C 218.0546 72.04697 217.4294 72.41386 216.7093 72.65158 L 216.7093 71.33383 C 217.0883 71.20981 217.5 70.97469 217.9444 70.62845 C 218.3888 70.28221 218.6937 69.87828 218.8591 69.41664 L 220.0373 69.41664 L 220.0373 77.02341 Z" fill="none" fill-opacity="1" stroke="#000000" stroke-opacity="1" stroke-width="0.3527778" stroke-linecap="round" stroke-linejoin="round"/>
<path d="M 225.3393 77.02342 L 223.8872 77.02342 L 223.8872 71.55089 C 223.3567 72.04698 222.7314 72.41388 222.0114 72.6516 L 222.0114 71.33385 C 222.3903 71.20982 222.802 70.9747 223.2464 70.62846 C 223.6908 70.28223 223.9957 69.8783 224.1611 69.41666 L 225.3393 69.41666 L 225.3393 77.02342 Z" fill="none" fill-opacity="1" stroke="#000000" stroke-opacity="1" stroke-width="0.3527778" stroke-linecap="round" stroke-linejoin="round"/>
<path d="M 226.5279 87.49823 L 226.5279 88.84698 L 221.4377 88.84698 C 221.4929 88.33713 221.6582 87.85394 221.9338 87.39746 C 222.2094 86.94098 222.7538 86.33551 223.5668 85.58105 C 224.2214 84.97125 224.6227 84.55786 224.7709 84.34082 C 224.9707 84.04108 225.0706 83.74481 225.0706 83.45197 C 225.0706 83.12814 224.9836 82.87921 224.8096 82.70526 C 224.6357 82.53128 224.3954 82.44427 224.0887 82.44427 C 223.7856 82.44427 223.5444 82.53558 223.3653 82.71817 C 223.1861 82.90076 223.0828 83.20392 223.0552 83.62769 L 221.6083 83.48297 C 221.6944 82.68372 221.9648 82.11011 222.4196 81.76215 C 222.8744 81.41422 223.4428 81.24023 224.1249 81.24023 C 224.8725 81.24023 225.4599 81.44177 225.8871 81.84485 C 226.3143 82.24792 226.5279 82.74918 226.5279 83.34863 C 226.5279 83.6897 226.4667 84.01437 226.3444 84.32272 C 226.2221 84.63104 226.0283 84.95404 225.7631 85.29166 C 225.5874 85.51559 225.2704 85.83771 224.8122 86.258 C 224.354 86.67831 224.0638 86.95737 223.9415 87.09515 C 223.8192 87.23297 223.7201 87.36731 223.6443 87.49823 L 226.5279 87.49823 Z" fill="none" fill-opacity="1" stroke="#000000" stroke-opacity="1" stroke-width="0.3527778" stroke-linecap="round" stroke-linejoin="round"/>
</g>
<g>
<path d="M 142.3455 114.3768 L 140.1673 114.3768 L 140.1673 106.1681 C 139.3715 106.9122 138.4335 107.4626 137.3535 107.8191 L 137.3535 105.8425 C 137.922 105.6565 138.5395 105.3038 139.2061 104.7844 C 139.8727 104.2651 140.3301 103.6592 140.5781 102.9667 L 142.3455 102.9667 L 142.3455 114.3768 Z" fill="none" fill-opacity="1" stroke="#000000" stroke-opacity="1" stroke-width="0.3527778" stroke-linecap="round" stroke-linejoin="round"/>
<path d="M 147.4692 108.2455 C 146.9059 108.0078 146.4964 107.6809 146.2406 107.2649 C 145.9848 106.8489 145.8569 106.3929 145.8569 105.8968 C 145.8569 105.0493 146.1527 104.3491 146.7444 103.7961 C 147.3361 103.2432 148.1772 102.9667 149.2675 102.9667 C 150.3476 102.9667 151.186 103.2432 151.7829 103.7961 C 152.3797 104.3491 152.6782 105.0493 152.6782 105.8968 C 152.6782 106.4239 152.5412 106.8928 152.2673 107.3036 C 151.9935 107.7145 151.6085 108.0284 151.1124 108.2455 C 151.7428 108.4987 152.2221 108.8682 152.5503 109.3539 C 152.8784 109.8397 153.0425 110.4004 153.0425 111.036 C 153.0425 112.085 152.7079 112.9377 152.0387 113.594 C 151.3695 114.2502 150.4793 114.5784 149.3683 114.5784 C 148.3348 114.5784 147.4744 114.3071 146.7871 113.7645 C 145.9757 113.1237 145.5701 112.2452 145.5701 111.129 C 145.5701 110.514 145.7225 109.9495 146.0274 109.4353 C 146.3323 108.9211 146.8129 108.5245 147.4692 108.2455 Z M 147.9188 106.0518 C 147.9188 106.4859 148.0415 106.8243 148.287 107.0672 C 148.5324 107.3101 148.8593 107.4315 149.2675 107.4315 C 149.6809 107.4315 150.0117 107.3088 150.2597 107.0634 C 150.5078 106.8179 150.6318 106.4781 150.6318 106.044 C 150.6318 105.6358 150.5091 105.3089 150.2636 105.0635 C 150.0181 104.818 149.6939 104.6953 149.2908 104.6953 C 148.8722 104.6953 148.5389 104.8193 148.2908 105.0674 C 148.0428 105.3154 147.9188 105.6436 147.9188 106.0518 Z M 147.7172 110.9197 C 147.7172 111.5192 147.871 111.9868 148.1785 112.3227 C 148.4859 112.6586 148.8696 112.8266 149.3295 112.8266 C 149.7791 112.8266 150.1512 112.6651 150.4458 112.3421 C 150.7403 112.0191 150.8876 111.5527 150.8876 110.943 C 150.8876 110.4107 150.7377 109.9831 150.438 109.6601 C 150.1383 109.3371 149.7585 109.1756 149.2985 109.1756 C 148.7663 109.1756 148.3697 109.3591 148.1087 109.726 C 147.8477 110.0929 147.7172 110.4908 147.7172 110.9197 Z" fill="none" fill-opacity="1" stroke="#000000" stroke-opacity="1" stroke-width="0.3527778" stroke-linecap="round" stroke-linejoin="round"/>
<path d="M 158.1119 102.9667 C 159.2126 102.9667 160.0731 103.3594 160.6932 104.1449 C 161.4321 105.0751 161.8016 106.6176 161.8016 108.7726 C 161.8016 110.9223 161.4296 112.4674 160.6854 113.4079 C 160.0705 114.1831 159.2126 114.5706 158.1119 114.5706 C 157.0061 114.5706 156.1146 114.1456 155.4377 113.2955 C 154.7607 112.4454 154.4222 110.9301 154.4222 108.7493 C 154.4222 106.6099 154.7943 105.0699 155.5385 104.1294 C 156.1534 103.3543 157.0112 102.9667 158.1119 102.9667 Z M 158.1119 104.7728 C 157.8484 104.7728 157.6133 104.8568 157.4066 105.0247 C 157.1998 105.1927 157.0397 105.4937 156.926 105.9278 C 156.7761 106.491 156.7012 107.4393 156.7012 108.7726 C 156.7012 110.1058 156.7684 111.0218 156.9027 111.5204 C 157.0371 112.0191 157.2063 112.3511 157.4104 112.5165 C 157.6145 112.6819 157.8484 112.7646 158.1119 112.7646 C 158.3755 112.7646 158.6106 112.6806 158.8173 112.5126 C 159.024 112.3447 159.1842 112.0437 159.2979 111.6096 C 159.4478 111.0515 159.5227 110.1058 159.5227 108.7726 C 159.5227 107.4393 159.4555 106.5233 159.3212 106.0247 C 159.1868 105.526 159.0176 105.1927 158.8134 105.0247 C 158.6093 104.8568 158.3755 104.7728 158.1119 104.7728 Z" fill="none" fill-opacity="1" stroke="#000000" stroke-opacity="1" stroke-width="0.3527778" stroke-linecap="round" stroke-linejoin="round"/>
<path d="M 163.724 114.3768 L 163.724 112.1987 L 165.9022 112.1987 L 165.9022 114.3768 L 163.724 114.3768 Z" fill="none" fill-opacity="1" stroke="#000000" stroke-opacity="1" stroke-width="0.3527778" stroke-linecap="round" stroke-linejoin="round"/>
<path d="M 167.716 111.7491 L 169.8244 111.5166 C 169.8761 111.9455 170.0105 112.2633 170.2275 112.47 C 170.4445 112.6767 170.7313 112.7801 171.0879 112.7801 C 171.5375 112.7801 171.9199 112.5734 172.2351 112.1599 C 172.5504 111.7465 172.7519 110.8887 172.8397 109.5865 C 172.292 110.2221 171.6073 110.5399 170.7856 110.5399 C 169.8916 110.5399 169.1203 110.1949 168.4718 109.5051 C 167.8232 108.8152 167.499 107.9173 167.499 106.8114 C 167.499 105.6591 167.8413 104.7302 168.526 104.0248 C 169.2108 103.3194 170.0828 102.9667 171.1422 102.9667 C 172.2946 102.9667 173.2402 103.4124 173.9792 104.3038 C 174.7182 105.1953 175.0877 106.6616 175.0877 108.7028 C 175.0877 110.7802 174.7027 112.2788 173.9327 113.1986 C 173.1627 114.1185 172.1602 114.5784 170.9251 114.5784 C 170.0363 114.5784 169.318 114.342 168.7702 113.8691 C 168.2224 113.3963 167.871 112.6896 167.716 111.7491 Z M 172.646 106.9897 C 172.646 106.2869 172.4845 105.7417 172.1615 105.3542 C 171.8385 104.9666 171.4652 104.7728 171.0414 104.7728 C 170.6383 104.7728 170.3037 104.9317 170.0376 105.2495 C 169.7715 105.5673 169.6384 106.0879 169.6384 106.8114 C 169.6384 107.5452 169.7831 108.084 170.0725 108.4276 C 170.3618 108.7713 170.7236 108.9431 171.1577 108.9431 C 171.5762 108.9431 171.9289 108.7777 172.2157 108.447 C 172.5025 108.1163 172.646 107.6305 172.646 106.9897 Z" fill="none" fill-opacity="1" stroke="#000000" stroke-opacity="1" stroke-width="0.3527778" stroke-linecap="round" stroke-linejoin="round"/>
<path d="M 180.7695 114.3768 L 180.7695 112.0902 L 176.1186 112.0902 L 176.1186 110.1833 L 181.0485 102.9667 L 182.8779 102.9667 L 182.8779 110.1756 L 184.2886 110.1756 L 184.2886 112.0902 L 182.8779 112.0902 L 182.8779 114.3768 L 180.7695 114.3768 Z M 180.7695 110.1756 L 180.7695 106.2921 L 178.1572 110.1756 L 180.7695 110.1756 Z" fill="none" fill-opacity="1" stroke="#000000" stroke-opacity="1" stroke-width="0.3527778" stroke-linecap="round" stroke-linejoin="round"/>
<path d="M 185.3273 105.1914 L 185.3273 103.1682 L 192.7765 103.1682 L 192.7765 104.7495 C 192.1616 105.3542 191.5363 106.2223 190.9007 107.354 C 190.265 108.4857 189.7806 109.6885 189.4473 110.9623 C 189.1139 112.2362 188.9499 113.3743 188.955 114.3768 L 186.8544 114.3768 C 186.8906 112.8059 187.2148 111.2039 187.8272 109.571 C 188.4396 107.938 189.2573 106.4781 190.2805 105.1914 L 185.3273 105.1914 Z" fill="none" fill-opacity="1" stroke="#000000" stroke-opacity="1" stroke-width="0.3527778" stroke-linecap="round" stroke-linejoin="round"/>
<path d="M 196.0243 108.2455 C 195.4611 108.0078 195.0515 107.6809 194.7957 107.2649 C 194.5399 106.8489 194.412 106.3929 194.412 105.8968 C 194.412 105.0493 194.7079 104.3491 195.2996 103.7961 C 195.8913 103.2432 196.7323 102.9667 197.8227 102.9667 C 198.9027 102.9667 199.7412 103.2432 200.338 103.7961 C 200.9349 104.3491 201.2333 105.0493 201.2333 105.8968 C 201.2333 106.4239 201.0964 106.8928 200.8225 107.3036 C 200.5486 107.7145 200.1636 108.0284 199.6675 108.2455 C 200.298 108.4987 200.7773 108.8682 201.1054 109.3539 C 201.4336 109.8397 201.5976 110.4004 201.5976 111.036 C 201.5976 112.085 201.263 112.9377 200.5938 113.594 C 199.9246 114.2502 199.0345 114.5784 197.9234 114.5784 C 196.8899 114.5784 196.0295 114.3071 195.3422 113.7645 C 194.5309 113.1237 194.1252 112.2452 194.1252 111.129 C 194.1252 110.514 194.2777 109.9495 194.5826 109.4353 C 194.8875 108.9211 195.368 108.5245 196.0243 108.2455 Z M 196.4739 106.0518 C 196.4739 106.4859 196.5966 106.8243 196.8421 107.0672 C 197.0876 107.3101 197.4144 107.4315 197.8227 107.4315 C 198.2361 107.4315 198.5668 107.3088 198.8149 107.0634 C 199.0629 106.8179 199.1869 106.4781 199.1869 106.044 C 199.1869 105.6358 199.0642 105.3089 198.8187 105.0635 C 198.5733 104.818 198.249 104.6953 197.8459 104.6953 C 197.4274 104.6953 197.094 104.8193 196.846 105.0674 C 196.5979 105.3154 196.4739 105.6436 196.4739 106.0518 Z M 196.2724 110.9197 C 196.2724 111.5192 196.4261 111.9868 196.7336 112.3227 C 197.0411 112.6586 197.4248 112.8266 197.8847 112.8266 C 198.3343 112.8266 198.7063 112.6651 199.0009 112.3421 C 199.2955 112.0191 199.4427 111.5527 199.4427 110.943 C 199.4427 110.4107 199.2929 109.9831 198.9931 109.6601 C 198.6934 109.3371 198.3136 109.1756 197.8537 109.1756 C 197.3214 109.1756 196.9248 109.3591 196.6638 109.726 C 196.4029 110.0929 196.2724 110.4908 196.2724 110.9197 Z" fill="none" fill-opacity="1" stroke="#000000" stroke-opacity="1" stroke-width="0.3527778" stroke-linecap="round" stroke-linejoin="round"/>
<path d="M 204.8533 108.2455 C 204.29 108.0078 203.8805 107.6809 203.6247 107.2649 C 203.3689 106.8489 203.241 106.3929 203.241 105.8968 C 203.241 105.0493 203.5368 104.3491 204.1285 103.7961 C 204.7202 103.2432 205.5613 102.9667 206.6516 102.9667 C 207.7317 102.9667 208.5701 103.2432 209.167 103.7961 C 209.7639 104.3491 210.0623 105.0493 210.0623 105.8968 C 210.0623 106.4239 209.9253 106.8928 209.6515 107.3036 C 209.3776 107.7145 208.9926 108.0284 208.4965 108.2455 C 209.1269 108.4987 209.6062 108.8682 209.9344 109.3539 C 210.2625 109.8397 210.4266 110.4004 210.4266 111.036 C 210.4266 112.085 210.092 112.9377 209.4228 113.594 C 208.7536 114.2502 207.8634 114.5784 206.7524 114.5784 C 205.7189 114.5784 204.8585 114.3071 204.1712 113.7645 C 203.3598 113.1237 202.9542 112.2452 202.9542 111.129 C 202.9542 110.514 203.1066 109.9495 203.4115 109.4353 C 203.7164 108.9211 204.197 108.5245 204.8533 108.2455 Z M 205.3029 106.0518 C 205.3029 106.4859 205.4256 106.8243 205.6711 107.0672 C 205.9165 107.3101 206.2434 107.4315 206.6516 107.4315 C 207.065 107.4315 207.3958 107.3088 207.6438 107.0634 C 207.8919 106.8179 208.0159 106.4781 208.0159 106.044 C 208.0159 105.6358 207.8932 105.3089 207.6477 105.0635 C 207.4022 104.818 207.078 104.6953 206.6749 104.6953 C 206.2563 104.6953 205.923 104.8193 205.675 105.0674 C 205.4269 105.3154 205.3029 105.6436 205.3029 106.0518 Z M 205.1013 110.9197 C 205.1013 111.5192 205.2551 111.9868 205.5626 112.3227 C 205.87 112.6586 206.2537 112.8266 206.7137 112.8266 C 207.1632 112.8266 207.5353 112.6651 207.8299 112.3421 C 208.1244 112.0191 208.2717 111.5527 208.2717 110.943 C 208.2717 110.4107 208.1218 109.9831 207.8221 109.6601 C 207.5224 109.3371 207.1426 109.1756 206.6826 109.1756 C 206.1504 109.1756 205.7538 109.3591 205.4928 109.726 C 205.2318 110.0929 205.1013 110.4908 205.1013 110.9197 Z" fill="none" fill-opacity="1" stroke="#000000" stroke-opacity="1" stroke-width="0.3527778" stroke-linecap="round" stroke-linejoin="round"/>
</g>
</svg>