<?xml version="1.0" encoding="utf-8"?>
<!DOCTYPE svg PUBLIC "-//W3C//DTD SVG 1.1//EN" "http://www.w3.org/Graphics/SVG/1.1/DTD/svg11.dtd">
<!-- exported from Silhouette Studio Business Edition V4.1.206ssbe -->
<svg version="1.1" xmlns="http://www.w3.org/2000/svg" xmlns:xlink="http://www.w3.org/1999/xlink" width="304.8mm" height="1000mm" viewBox="0 0 304.8 1000">
<defs/>
<path d="M 116.5153 75.11307 L 107.6977 75.11307 L 107.6977 32.81088 L 116.5153 32.81088 L 116.5153 75.11307 Z" fill="none" fill-opacity="1" stroke="#000000" stroke-opacity="1" stroke-width="0.7055556" stroke-linecap="round" stroke-linejoin="round"/>
<path d="M 151.0881 75.11308 L 142.2984 75.11308 L 142.2984 70.76009 L 142.1589 70.76009 C 139.9824 74.12715 137.0711 75.81068 133.425 75.81068 C 126.8025 75.81068 123.4913 71.80183 123.4913 63.78414 L 123.4913 46.5396 L 132.2809 46.5396 L 132.2809 63.00282 C 132.2809 67.03957 133.8808 69.05797 137.0804 69.05797 C 138.6616 69.05797 139.9266 68.50453 140.8753 67.39769 C 141.8241 66.29082 142.2984 64.78868 142.2984 62.89122 L 142.2984 46.5396 L 151.0881 46.5396 L 151.0881 75.11308 Z" fill="none" fill-opacity="1" stroke="#000000" stroke-opacity="1" stroke-width="0.7055556" stroke-linecap="round" stroke-linejoin="round"/>
<path d="M 45.05812 72.25476 L 36.24052 72.25476 L 36.24052 29.95257 L 45.05812 29.95257 L 45.05812 72.25476 Z" fill="none" fill-opacity="1" stroke="#000000" stroke-opacity="1" stroke-width="0.7055556" stroke-linecap="round" stroke-linejoin="round"/>
<path d="M 79.63094 72.25475 L 70.84125 72.25475 L 70.84125 67.90174 L 70.70172 67.90174 C 68.52523 71.26881 65.61392 72.95235 61.96783 72.95235 C 55.34533 72.95235 52.03407 68.94349 52.03407 60.92579 L 52.03407 43.68125 L 60.82378 43.68125 L 60.82378 60.14448 C 60.82378 64.18123 62.4236 66.19963 65.62323 66.19963 C 67.20445 66.19963 68.46942 65.64619 69.41815 64.53934 C 70.36688 63.43247 70.84125 61.93034 70.84125 60.03288 L 70.84125 43.68125 L 79.63094 43.68125 L 79.63094 72.25475 Z" fill="none" fill-opacity="1" stroke="#000000" stroke-opacity="1" stroke-width="0.7055556" stroke-linecap="round" stroke-linejoin="round"/>
<path d="M 249.4257 65.10895 L 240.608 65.10895 L 240.608 22.80677 L 249.4257 22.80677 L 249.4257 65.10895 Z" fill="none" fill-opacity="1" stroke="#000000" stroke-opacity="1" stroke-width="0.7055556" stroke-linecap="round" stroke-linejoin="round"/>
<path d="M 283.9984 65.10896 L 275.2088 65.10896 L 275.2088 60.75597 L 275.0692 60.75597 C 272.8928 64.12303 269.9814 65.80656 266.3354 65.80656 C 259.7129 65.80656 256.4016 61.79771 256.4016 53.78001 L 256.4016 36.53548 L 265.1913 36.53548 L 265.1913 52.9987 C 265.1913 57.03545 266.7911 59.05385 269.9908 59.05385 C 271.572 59.05385 272.8369 58.50042 273.7857 57.39357 C 274.7344 56.2867 275.2088 54.78456 275.2088 52.8871 L 275.2088 36.53548 L 283.9984 36.53548 L 283.9984 65.10896 Z" fill="none" fill-opacity="1" stroke="#000000" stroke-opacity="1" stroke-width="0.7055556" stroke-linecap="round" stroke-linejoin="round"/>
<path d="M 189.4016 73.6839 L 180.584 73.6839 L 180.584 31.38171 L 189.4016 31.38171 L 189.4016 73.6839 Z" fill="none" fill-opacity="1" stroke="#000000" stroke-opacity="1" stroke-width="0.7055556" stroke-linecap="round" stroke-linejoin="round"/>
<path d="M 223.9744 73.68388 L 215.1847 73.68388 L 215.1847 69.33089 L 215.0452 69.33089 C 212.8687 72.69795 209.9574 74.38148 206.3113 74.38148 C 199.6888 74.38148 196.3775 70.37263 196.3775 62.35493 L 196.3775 45.1104 L 205.1672 45.1104 L 205.1672 61.57362 C 205.1672 65.61037 206.7671 67.62877 209.9667 67.62877 C 211.5479 67.62877 212.8129 67.07533 213.7616 65.96849 C 214.7104 64.86162 215.1847 63.35948 215.1847 61.46202 L 215.1847 45.1104 L 223.9744 45.1104 L 223.9744 73.68388 Z" fill="none" fill-opacity="1" stroke="#000000" stroke-opacity="1" stroke-width="0.7055556" stroke-linecap="round" stroke-linejoin="round"/>
<path d="M 94.03623 256.884 C 94.03623 280.5991 82.98633 292.4566 60.88649 292.4566 C 39.44744 292.4566 28.72792 280.8744 28.72792 257.7099 L 28.72792 212.1152 L 46.56929 212.1152 L 46.56929 257.9301 C 46.56929 270.7056 51.56199 277.0931 61.54729 277.0931 C 71.34903 277.0931 76.24989 270.9257 76.24989 258.591 L 76.24989 212.1152 L 94.03623 212.1152 L 94.03623 256.884 Z" fill="none" fill-opacity="1" stroke="#000000" stroke-opacity="1" stroke-width="0.1" stroke-linecap="round" stroke-linejoin="round"/>
<path d="M 163.9702 291.0799 L 146.6244 291.0799 L 146.6244 259.7474 C 146.6244 251.0102 143.5039 246.6417 137.2631 246.6417 C 134.2529 246.6417 131.7749 247.798 129.8292 250.1108 C 127.8835 252.4235 126.9107 255.3604 126.9107 258.9213 L 126.9107 291.0799 L 109.5098 291.0799 L 109.5099 234.6922 L 126.9107 234.6922 L 126.9107 243.6129 L 127.131 243.6129 C 131.2793 236.748 137.3182 233.3156 145.2477 233.3156 C 157.7294 233.3156 163.9702 241.0616 163.9702 256.5536 L 163.9702 291.0799 Z" fill="none" fill-opacity="1" stroke="#000000" stroke-opacity="1" stroke-width="0.1" stroke-linecap="round" stroke-linejoin="round"/>
<path d="M 186.5472 225.7715 C 183.6104 225.7715 181.2058 224.8995 179.3336 223.1559 C 177.4613 221.4121 176.5252 219.2737 176.5252 216.7406 C 176.5252 214.1341 177.4613 212.005 179.3336 210.353 C 181.2058 208.701 183.6104 207.875 186.5472 207.875 C 189.5208 207.875 191.9345 208.701 193.7884 210.353 C 195.6423 212.005 196.5692 214.1341 196.5692 216.7406 C 196.5692 219.3838 195.6423 221.5497 193.7884 223.2384 C 191.9345 224.9271 189.5208 225.7715 186.5472 225.7715 Z M 195.1375 291.0798 L 177.7366 291.0798 L 177.7367 234.6921 L 195.1375 234.6921 L 195.1375 291.0798 Z" fill="none" fill-opacity="1" stroke="#000000" stroke-opacity="1" stroke-width="0.1" stroke-linecap="round" stroke-linejoin="round"/>
<path d="M 243.8709 290.4192 C 241.3012 291.7775 237.4281 292.4567 232.2519 292.4567 C 219.9906 292.4567 213.8599 286.0873 213.8599 273.3488 L 213.8599 247.5228 L 204.719 247.5228 L 204.719 234.6923 L 213.8599 234.6923 L 213.8599 222.5227 L 231.2058 217.5668 L 231.2057 234.6923 L 243.8709 234.6923 L 243.8709 247.5228 L 231.2057 247.5228 L 231.2057 270.3201 C 231.2057 276.1938 233.5368 279.1306 238.1991 279.1306 C 240.0346 279.1306 241.9253 278.5984 243.8709 277.5337 L 243.8709 290.4192 Z" fill="none" fill-opacity="1" stroke="#000000" stroke-opacity="1" stroke-width="0.1" stroke-linecap="round" stroke-linejoin="round"/>
<path d="M 301.0845 276.6527 L 334.5646 276.6527 L 334.5646 291.08 L 282.0317 291.08 L 282.0317 285.1328 C 282.0317 281.0946 282.7108 277.4695 284.0691 274.2573 C 285.4274 271.0452 287.1345 268.1633 289.1902 265.6119 C 291.246 263.0605 293.4946 260.8029 295.9358 258.8389 C 298.3771 256.8748 300.6991 255.1035 302.9017 253.5249 C 305.2144 251.8729 307.2427 250.2944 308.9865 248.7893 C 310.7302 247.2842 312.1987 245.7881 313.3918 244.3013 C 314.5849 242.8145 315.4751 241.3094 316.0624 239.7859 C 316.6498 238.2624 316.9435 236.638 316.9435 234.9125 C 316.9435 231.5352 315.989 228.9838 314.0801 227.2583 C 312.1711 225.533 309.2526 224.6703 305.3246 224.6703 C 298.5331 224.6703 292.0353 227.3685 285.8312 232.765 L 285.8312 217.4567 C 292.6961 213.0146 300.4421 210.7936 309.069 210.7936 C 313.0705 210.7936 316.659 211.3168 319.8345 212.3631 C 323.0099 213.4093 325.699 214.9053 327.9017 216.8508 C 330.1043 218.7965 331.7838 221.1553 332.9403 223.9269 C 334.0966 226.6985 334.6748 229.7914 334.6748 233.2055 C 334.6748 236.8399 334.115 240.0705 332.9953 242.8971 C 331.8756 245.7239 330.3889 248.2937 328.535 250.6064 C 326.681 252.9192 324.5427 255.0393 322.1198 256.9666 C 319.6968 258.894 317.1821 260.757 314.5757 262.5558 C 312.8135 263.804 311.1157 265.043 309.4821 266.2727 C 307.8484 267.5026 306.4075 268.714 305.1594 269.9071 C 303.9112 271.1002 302.92 272.2657 302.1858 273.4038 C 301.4516 274.5417 301.0845 275.6248 301.0845 276.6527 Z" fill="none" fill-opacity="1" stroke="#000000" stroke-opacity="1" stroke-width="0.1" stroke-linecap="round" stroke-linejoin="round"/>
<path d="M 119.7606 356.9226 C 119.7606 380.6377 108.7107 392.4952 86.61092 392.4952 C 65.17189 392.4952 54.45239 380.9129 54.45239 357.7485 L 54.45239 312.1539 L 72.29375 312.1539 L 72.29375 357.9687 C 72.29375 370.7441 77.28642 377.1317 87.27171 377.1317 C 97.07344 377.1317 101.9743 370.9644 101.9743 358.6296 L 101.9743 312.1539 L 119.7606 312.1539 L 119.7606 356.9226 Z" fill="none" fill-opacity="1" stroke="#000000" stroke-opacity="1" stroke-width="0.1" stroke-linecap="round" stroke-linejoin="round"/>
<path d="M 189.6944 391.1185 L 172.3487 391.1185 L 172.3487 359.786 C 172.3487 351.0488 169.2283 346.6803 162.9874 346.6803 C 159.9772 346.6803 157.4992 347.8367 155.5536 350.1494 C 153.6079 352.4622 152.6351 355.399 152.6351 358.9599 L 152.6351 391.1185 L 135.2342 391.1185 L 135.2342 334.7309 L 152.6351 334.7309 L 152.6351 343.6516 L 152.8553 343.6516 C 157.0036 336.7867 163.0425 333.3544 170.972 333.3544 C 183.4536 333.3544 189.6944 341.1002 189.6944 356.5922 L 189.6944 391.1185 Z" fill="none" fill-opacity="1" stroke="#000000" stroke-opacity="1" stroke-width="0.1" stroke-linecap="round" stroke-linejoin="round"/>
<path d="M 212.2715 325.8103 C 209.3346 325.8103 206.9301 324.9383 205.0578 323.1947 C 203.1856 321.4509 202.2495 319.3124 202.2495 316.7794 C 202.2495 314.1729 203.1856 312.0438 205.0578 310.3918 C 206.9301 308.7398 209.3346 307.9138 212.2715 307.9138 C 215.2451 307.9138 217.6588 308.7398 219.5127 310.3918 C 221.3665 312.0438 222.2935 314.1729 222.2935 316.7794 C 222.2935 319.4225 221.3665 321.5884 219.5127 323.2772 C 217.6588 324.9659 215.2451 325.8103 212.2715 325.8103 Z M 220.8618 391.1185 L 203.4609 391.1185 L 203.4609 334.7309 L 220.8618 334.7309 L 220.8618 391.1185 Z" fill="none" fill-opacity="1" stroke="#000000" stroke-opacity="1" stroke-width="0.1" stroke-linecap="round" stroke-linejoin="round"/>
<path d="M 269.5952 390.4576 C 267.0254 391.8158 263.1524 392.4951 257.9762 392.4951 C 245.7148 392.4951 239.5842 386.1256 239.5842 373.3871 L 239.5842 347.5612 L 230.4432 347.5612 L 230.4432 334.7307 L 239.5842 334.7307 L 239.5842 322.5612 L 256.93 317.6053 L 256.9299 334.7307 L 269.5952 334.7307 L 269.5952 347.5612 L 256.9299 347.5612 L 256.9299 370.3584 C 256.9299 376.2321 259.2611 379.169 263.9233 379.169 C 265.7588 379.169 267.6495 378.6367 269.5952 377.5721 L 269.5952 390.4576 Z" fill="none" fill-opacity="1" stroke="#000000" stroke-opacity="1" stroke-width="0.1" stroke-linecap="round" stroke-linejoin="round"/>
<path d="M 326.8087 376.6912 L 360.2888 376.6912 L 360.2888 391.1185 L 307.7559 391.1185 L 307.7559 385.1713 C 307.7559 381.1331 308.435 377.508 309.7933 374.2958 C 311.1516 371.0837 312.8587 368.2018 314.9145 365.6505 C 316.9703 363.0991 319.2188 360.8414 321.66 358.8774 C 324.1013 356.9133 326.4232 355.142 328.6259 353.5634 C 330.9386 351.9114 332.9669 350.3329 334.7107 348.8278 C 336.4544 347.3227 337.9229 345.8267 339.1159 344.3399 C 340.3091 342.8531 341.1993 341.348 341.7867 339.8245 C 342.374 338.301 342.6677 336.6766 342.6677 334.9511 C 342.6677 331.5738 341.7132 329.0224 339.8043 327.2969 C 337.8954 325.5716 334.9768 324.7089 331.0488 324.7089 C 324.2573 324.7089 317.7596 327.4072 311.5555 332.8036 L 311.5555 317.4953 C 318.4203 313.0533 326.1663 310.8322 334.7932 310.8322 C 338.7947 310.8322 342.3832 311.3554 345.5587 312.4017 C 348.7342 313.4479 351.4232 314.9439 353.6258 316.8895 C 355.8285 318.8351 357.508 321.1939 358.6644 323.9655 C 359.8208 326.7371 360.399 329.83 360.399 333.2441 C 360.399 336.8785 359.8391 340.1091 358.7195 342.9357 C 357.5998 345.7625 356.113 348.3322 354.2591 350.645 C 352.4052 352.9577 350.2668 355.0778 347.8439 357.0051 C 345.421 358.9324 342.9063 360.7955 340.2999 362.5943 C 338.5378 363.8425 336.8399 365.0815 335.2063 366.3112 C 333.5727 367.5411 332.1317 368.7525 330.8836 369.9456 C 329.6354 371.1387 328.6443 372.3043 327.91 373.4423 C 327.1758 374.5803 326.8087 375.6632 326.8087 376.6912 Z" fill="none" fill-opacity="1" stroke="#000000" stroke-opacity="1" stroke-width="0.1" stroke-linecap="round" stroke-linejoin="round"/>
<path d="M 119.7608 461.251 C 119.7608 484.9661 108.7109 496.8236 86.61107 496.8236 C 65.17203 496.8236 54.4525 485.2414 54.4525 462.0769 L 54.4525 416.4822 L 72.2939 416.4822 L 72.2939 462.2971 C 72.2939 475.0725 77.28657 481.4601 87.27187 481.4601 C 97.0736 481.4601 101.9745 475.2927 101.9745 462.958 L 101.9745 416.4822 L 119.7608 416.4822 L 119.7608 461.251 Z" fill="none" fill-opacity="1" stroke="#000000" stroke-opacity="1" stroke-width="0.1" stroke-linecap="round" stroke-linejoin="round"/>
<path d="M 189.6948 495.447 L 172.349 495.447 L 172.349 464.1144 C 172.349 455.3773 169.2285 451.0087 162.9877 451.0087 C 159.9775 451.0087 157.4995 452.1651 155.5538 454.4778 C 153.6082 456.7906 152.6353 459.7275 152.6353 463.2884 L 152.6353 495.447 L 135.2344 495.447 L 135.2345 439.0594 L 152.6353 439.0594 L 152.6353 447.98 L 152.8556 447.98 C 157.0039 441.1152 163.0428 437.6828 170.9723 437.6828 C 183.4539 437.6828 189.6948 445.4286 189.6948 460.9206 L 189.6948 495.447 Z" fill="none" fill-opacity="1" stroke="#000000" stroke-opacity="1" stroke-width="0.1" stroke-linecap="round" stroke-linejoin="round"/>
<path d="M 212.2718 430.1387 C 209.3349 430.1387 206.9304 429.2668 205.0581 427.5231 C 203.1859 425.7794 202.2498 423.6409 202.2498 421.1078 C 202.2498 418.5014 203.1859 416.3721 205.0581 414.7202 C 206.9304 413.0682 209.3349 412.2421 212.2718 412.2421 C 215.2454 412.2421 217.6591 413.0682 219.513 414.7202 C 221.3669 416.3721 222.2938 418.5014 222.2938 421.1078 C 222.2938 423.751 221.3669 425.9169 219.513 427.6057 C 217.6591 429.2944 215.2454 430.1387 212.2718 430.1387 Z M 220.8621 495.447 L 203.4612 495.447 L 203.4612 439.0594 L 220.8621 439.0594 L 220.8621 495.447 Z" fill="none" fill-opacity="1" stroke="#000000" stroke-opacity="1" stroke-width="0.1" stroke-linecap="round" stroke-linejoin="round"/>
<path d="M 269.5955 494.786 C 267.0258 496.1443 263.1527 496.8235 257.9765 496.8235 C 245.7151 496.8235 239.5845 490.4541 239.5845 477.7156 L 239.5845 451.8896 L 230.4436 451.8896 L 230.4436 439.0592 L 239.5845 439.0592 L 239.5845 426.8896 L 256.9304 421.9337 L 256.9302 439.0592 L 269.5955 439.0592 L 269.5955 451.8896 L 256.9302 451.8896 L 256.9302 474.6869 C 256.9302 480.5605 259.2614 483.4974 263.9236 483.4974 C 265.7591 483.4974 267.6498 482.9652 269.5955 481.9005 L 269.5955 494.786 Z" fill="none" fill-opacity="1" stroke="#000000" stroke-opacity="1" stroke-width="0.1" stroke-linecap="round" stroke-linejoin="round"/>
<path d="M 326.8091 481.0197 L 360.2892 481.0197 L 360.2892 495.447 L 307.7563 495.447 L 307.7563 489.4998 C 307.7563 485.4616 308.4354 481.8365 309.7937 478.6243 C 311.152 475.4122 312.8591 472.5303 314.9149 469.9789 C 316.9707 467.4275 319.2192 465.1699 321.6604 463.2059 C 324.1017 461.2418 326.4236 459.4706 328.6263 457.8919 C 330.939 456.24 332.9673 454.6614 334.7111 453.1563 C 336.4549 451.6512 337.9233 450.1552 339.1163 448.6684 C 340.3094 447.1816 341.1997 445.6765 341.7871 444.153 C 342.3744 442.6295 342.6681 441.0051 342.6681 439.2796 C 342.6681 435.9023 341.7136 433.3509 339.8047 431.6254 C 337.8958 429.9001 334.9773 429.0374 331.0492 429.0374 C 324.2577 429.0374 317.7599 431.7357 311.5558 437.1321 L 311.5558 421.8238 C 318.4207 417.3818 326.1667 415.1606 334.7937 415.1606 C 338.7951 415.1606 342.3836 415.6838 345.5591 416.73 C 348.7346 417.7763 351.4236 419.2724 353.6262 421.218 C 355.8289 423.1636 357.5084 425.5224 358.6648 428.294 C 359.8212 431.0656 360.3994 434.1585 360.3994 437.5726 C 360.3994 441.207 359.8396 444.4376 358.7199 447.2642 C 357.6002 450.091 356.1134 452.6607 354.2595 454.9734 C 352.4056 457.2862 350.2672 459.4063 347.8443 461.3336 C 345.4214 463.2609 342.9068 465.124 340.3003 466.9228 C 338.5382 468.171 336.8403 469.41 335.2067 470.6397 C 333.5731 471.8696 332.1322 473.081 330.884 474.2741 C 329.6358 475.4673 328.6447 476.6328 327.9104 477.7708 C 327.1762 478.9088 326.8091 479.9918 326.8091 481.0197 Z" fill="none" fill-opacity="1" stroke="#000000" stroke-opacity="1" stroke-width="0.1" stroke-linecap="round" stroke-linejoin="round"/>
<path d="M 169.7809 558.4326 C 169.7809 582.1477 158.731 594.0052 136.6311 594.0052 C 115.1921 594.0052 104.4726 582.423 104.4726 559.2585 L 104.4726 513.6638 L 122.314 513.6638 L 122.314 559.4788 C 122.314 572.2542 127.3066 578.6417 137.2919 578.6417 C 147.0937 578.6417 151.9946 572.4743 151.9946 560.1396 L 151.9946 513.6638 L 169.7809 513.6638 L 169.7809 558.4326 Z" fill="none" fill-opacity="1" stroke="#000000" stroke-opacity="1" stroke-width="0.1" stroke-linecap="round" stroke-linejoin="round"/>
<path d="M 239.7148 592.6284 L 222.369 592.6284 L 222.369 561.2958 C 222.369 552.5587 219.2486 548.1902 213.0078 548.1902 C 209.9975 548.1902 207.5195 549.3465 205.5739 551.6592 C 203.6282 553.972 202.6554 556.9089 202.6554 560.4698 L 202.6554 592.6284 L 185.2545 592.6284 L 185.2545 536.2408 L 202.6554 536.2408 L 202.6554 545.1615 L 202.8756 545.1615 C 207.0239 538.2966 213.0629 534.8643 220.9924 534.8643 C 233.474 534.8643 239.7148 542.6101 239.7148 558.1021 L 239.7148 592.6284 Z" fill="none" fill-opacity="1" stroke="#000000" stroke-opacity="1" stroke-width="0.1" stroke-linecap="round" stroke-linejoin="round"/>
<path d="M 262.2918 527.3201 C 259.3549 527.3201 256.9504 526.4481 255.0781 524.7045 C 253.2059 522.9607 252.2698 520.8223 252.2698 518.2892 C 252.2698 515.6827 253.2059 513.5536 255.0781 511.9016 C 256.9504 510.2497 259.3549 509.4236 262.2918 509.4236 C 265.2654 509.4236 267.6791 510.2497 269.533 511.9016 C 271.3869 513.5536 272.3138 515.6827 272.3138 518.2892 C 272.3138 520.9324 271.3869 523.0983 269.533 524.787 C 267.6791 526.4757 265.2654 527.3201 262.2918 527.3201 Z M 270.8821 592.6284 L 253.4812 592.6284 L 253.4812 536.2409 L 270.8821 536.2409 L 270.8821 592.6284 Z" fill="none" fill-opacity="1" stroke="#000000" stroke-opacity="1" stroke-width="0.1" stroke-linecap="round" stroke-linejoin="round"/>
<path d="M 319.6155 591.9678 C 317.0458 593.3261 313.1727 594.0053 307.9965 594.0053 C 295.7352 594.0053 289.6045 587.6359 289.6045 574.8973 L 289.6045 549.0714 L 280.4636 549.0714 L 280.4636 536.241 L 289.6045 536.241 L 289.6045 524.0713 L 306.9504 519.1154 L 306.9503 536.241 L 319.6155 536.241 L 319.6155 549.0714 L 306.9503 549.0714 L 306.9503 571.8687 C 306.9503 577.7423 309.2814 580.6792 313.9437 580.6792 C 315.7792 580.6792 317.6699 580.147 319.6155 579.0823 L 319.6155 591.9678 Z" fill="none" fill-opacity="1" stroke="#000000" stroke-opacity="1" stroke-width="0.1" stroke-linecap="round" stroke-linejoin="round"/>
<path d="M 376.8292 578.2012 L 410.3093 578.2012 L 410.3093 592.6285 L 357.7763 592.6285 L 357.7763 586.6813 C 357.7763 582.6431 358.4554 579.018 359.8137 575.8058 C 361.172 572.5937 362.8791 569.7119 364.9349 567.1605 C 366.9907 564.6091 369.2392 562.3514 371.6805 560.3875 C 374.1217 558.4233 376.4437 556.6521 378.6463 555.0735 C 380.9591 553.4215 382.9873 551.843 384.7311 550.3378 C 386.4749 548.8327 387.9434 547.3368 389.1364 545.85 C 390.3295 544.3632 391.2198 542.858 391.8071 541.3345 C 392.3944 539.811 392.6882 538.1866 392.6882 536.4612 C 392.6882 533.0839 391.7337 530.5323 389.8248 528.8069 C 387.9158 527.0815 384.9973 526.2188 381.0693 526.2188 C 374.2778 526.2188 367.7799 528.9172 361.5758 534.3137 L 361.5758 519.0052 C 368.4407 514.5632 376.1867 512.3422 384.8137 512.3422 C 388.8152 512.3422 392.4037 512.8653 395.5792 513.9116 C 398.7546 514.9578 401.4436 516.4539 403.6463 518.3994 C 405.8489 520.3451 407.5284 522.7039 408.6849 525.4755 C 409.8412 528.2471 410.4194 531.34 410.4194 534.7541 C 410.4194 538.3885 409.8596 541.6191 408.7399 544.4458 C 407.6202 547.2726 406.1335 549.8423 404.2796 552.155 C 402.4256 554.4678 400.2873 556.5878 397.8644 558.5151 C 395.4415 560.4424 392.9268 562.3055 390.3203 564.1044 C 388.5582 565.3525 386.8603 566.5915 385.2267 567.8212 C 383.5931 569.0511 382.1522 570.2626 380.904 571.4557 C 379.6559 572.6488 378.6647 573.8143 377.9305 574.9523 C 377.1963 576.0903 376.8292 577.1733 376.8292 578.2012 Z" fill="none" fill-opacity="1" stroke="#000000" stroke-opacity="1" stroke-width="0.1" stroke-linecap="round" stroke-linejoin="round"/>
<path d="M 78.31538 163.9879 C 78.31538 187.7029 67.2655 199.5605 45.16569 199.5605 C 23.72668 199.5605 13.00718 187.9782 13.00718 164.8138 L 13.00718 119.2193 L 30.84855 119.2193 L 30.84855 165.034 C 30.84855 177.8094 35.84121 184.1969 45.82649 184.1969 C 55.62821 184.1969 60.52909 178.0296 60.52909 165.6949 L 60.52909 119.2193 L 78.31538 119.2193 L 78.31538 163.9879 Z" fill="none" fill-opacity="1" stroke="#000000" stroke-opacity="1" stroke-width="0.1" stroke-linecap="round" stroke-linejoin="round"/>
<path d="M 148.2492 198.1838 L 130.9034 198.1838 L 130.9034 166.8514 C 130.9034 158.1143 127.783 153.7457 121.5422 153.7457 C 118.5319 153.7457 116.054 154.9021 114.1083 157.2148 C 112.1627 159.5276 111.1898 162.4645 111.1898 166.0254 L 111.1898 198.1838 L 93.78896 198.1838 L 93.78899 141.7963 L 111.1898 141.7963 L 111.1898 150.7169 L 111.4101 150.7169 C 115.5584 143.8521 121.5973 140.4197 129.5268 140.4197 C 142.0084 140.4197 148.2492 148.1656 148.2492 163.6576 L 148.2492 198.1838 Z" fill="none" fill-opacity="1" stroke="#000000" stroke-opacity="1" stroke-width="0.1" stroke-linecap="round" stroke-linejoin="round"/>
<path d="M 170.8262 132.8755 C 167.8893 132.8755 165.4848 132.0036 163.6125 130.2599 C 161.7403 128.5162 160.8042 126.3777 160.8042 123.8447 C 160.8042 121.2382 161.7403 119.1091 163.6125 117.4571 C 165.4848 115.8051 167.8893 114.9791 170.8262 114.9791 C 173.7998 114.9791 176.2135 115.8051 178.0674 117.4571 C 179.9213 119.1091 180.8482 121.2382 180.8482 123.8447 C 180.8482 126.4878 179.9213 128.6537 178.0674 130.3425 C 176.2135 132.0312 173.7998 132.8755 170.8262 132.8755 Z M 179.4165 198.1838 L 162.0156 198.1838 L 162.0157 141.7962 L 179.4165 141.7962 L 179.4165 198.1838 Z" fill="none" fill-opacity="1" stroke="#000000" stroke-opacity="1" stroke-width="0.1" stroke-linecap="round" stroke-linejoin="round"/>
<path d="M 228.1499 197.523 C 225.5801 198.8813 221.7071 199.5605 216.5309 199.5605 C 204.2696 199.5605 198.1389 193.1911 198.1389 180.4526 L 198.1389 154.6268 L 188.998 154.6268 L 188.998 141.7962 L 198.1389 141.7962 L 198.1389 129.6266 L 215.4847 124.6707 L 215.4846 141.7962 L 228.1499 141.7962 L 228.1499 154.6268 L 215.4846 154.6268 L 215.4846 177.4239 C 215.4846 183.2975 217.8158 186.2344 222.478 186.2344 C 224.3136 186.2344 226.2042 185.7022 228.1499 184.6375 L 228.1499 197.523 Z" fill="none" fill-opacity="1" stroke="#000000" stroke-opacity="1" stroke-width="0.1" stroke-linecap="round" stroke-linejoin="round"/>
<path d="M 285.3634 183.7565 L 318.8434 183.7565 L 318.8434 198.1838 L 266.3106 198.1838 L 266.3106 192.2366 C 266.3106 188.1984 266.9898 184.5733 268.3481 181.3611 C 269.7063 178.149 271.4134 175.2672 273.4692 172.7158 C 275.525 170.1644 277.7734 167.9068 280.2147 165.9428 C 282.6559 163.9787 284.9779 162.2075 287.1806 160.6288 C 289.4933 158.9769 291.5215 157.3984 293.2653 155.8933 C 295.0091 154.3881 296.4776 152.892 297.6707 151.4052 C 298.8638 149.9184 299.754 148.4133 300.3414 146.8898 C 300.9287 145.3663 301.2224 143.7419 301.2224 142.0164 C 301.2224 138.6391 300.268 136.0877 298.359 134.3623 C 296.4501 132.6369 293.5315 131.7742 289.6035 131.7742 C 282.812 131.7742 276.3143 134.4725 270.1102 139.869 L 270.1102 124.5606 C 276.975 120.1186 284.721 117.8975 293.3479 117.8975 C 297.3494 117.8975 300.938 118.4207 304.1134 119.467 C 307.2889 120.5133 309.9779 122.0092 312.1805 123.9548 C 314.3831 125.9005 316.0626 128.2592 317.2191 131.0308 C 318.3754 133.8024 318.9536 136.8953 318.9536 140.3094 C 318.9536 143.9438 318.3938 147.1744 317.2741 150.0011 C 316.1544 152.8278 314.6677 155.3977 312.8138 157.7104 C 310.9599 160.0231 308.8215 162.1432 306.3986 164.0705 C 303.9757 165.9979 301.4611 167.8609 298.8546 169.6597 C 297.0925 170.9079 295.3946 172.1468 293.761 173.3765 C 292.1274 174.6064 290.6864 175.8178 289.4382 177.0109 C 288.1901 178.204 287.1989 179.3696 286.4647 180.5076 C 285.7305 181.6456 285.3634 182.7286 285.3634 183.7565 Z" fill="none" fill-opacity="1" stroke="#000000" stroke-opacity="1" stroke-width="0.1" stroke-linecap="round" stroke-linejoin="round"/>
<path d="M 145.4854 729.9301 C 145.4854 753.6452 134.4355 765.5027 112.3357 765.5027 C 90.89664 765.5027 80.17711 753.9205 80.17711 730.756 L 80.17711 685.1613 L 98.01852 685.1613 L 98.01852 730.9763 C 98.01852 743.7516 103.0112 750.1392 112.9965 750.1392 C 122.7982 750.1392 127.6991 743.9719 127.6991 731.6371 L 127.6991 685.1613 L 145.4854 685.1613 L 145.4854 729.9301 Z" fill="none" fill-opacity="1" stroke="#000000" stroke-opacity="1" stroke-width="0.1" stroke-linecap="round" stroke-linejoin="round"/>
<path d="M 215.4194 764.1261 L 198.0736 764.1261 L 198.0736 732.7936 C 198.0736 724.0564 194.9532 719.6879 188.7123 719.6879 C 185.7021 719.6879 183.2241 720.8442 181.2784 723.157 C 179.3328 725.4697 178.36 728.4066 178.36 731.9675 L 178.36 764.1261 L 160.959 764.1261 L 160.9591 707.7385 L 178.36 707.7385 L 178.36 716.6592 L 178.5802 716.6592 C 182.7285 709.7943 188.7674 706.3619 196.6969 706.3619 C 209.1785 706.3619 215.4194 714.1078 215.4194 729.5997 L 215.4194 764.1261 Z" fill="none" fill-opacity="1" stroke="#000000" stroke-opacity="1" stroke-width="0.1" stroke-linecap="round" stroke-linejoin="round"/>
<path d="M 237.9964 698.8179 C 235.0595 698.8179 232.655 697.9459 230.7827 696.2023 C 228.9105 694.4585 227.9744 692.3201 227.9744 689.787 C 227.9744 687.1805 228.9105 685.0513 230.7827 683.3993 C 232.655 681.7473 235.0595 680.9213 237.9964 680.9213 C 240.97 680.9213 243.3837 681.7473 245.2376 683.3993 C 247.0915 685.0513 248.0184 687.1805 248.0184 689.787 C 248.0184 692.4302 247.0915 694.5961 245.2376 696.2848 C 243.3837 697.9735 240.97 698.8179 237.9964 698.8179 Z M 246.5867 764.1261 L 229.1858 764.1261 L 229.1859 707.7385 L 246.5867 707.7385 L 246.5867 764.1261 Z" fill="none" fill-opacity="1" stroke="#000000" stroke-opacity="1" stroke-width="0.1" stroke-linecap="round" stroke-linejoin="round"/>
<path d="M 295.3201 763.4654 C 292.7504 764.8237 288.8773 765.5029 283.7011 765.5029 C 271.4398 765.5029 265.3091 759.1335 265.3091 746.395 L 265.3091 720.569 L 256.1682 720.569 L 256.1682 707.7386 L 265.3091 707.7386 L 265.3091 695.569 L 282.655 690.6131 L 282.6549 707.7386 L 295.3201 707.7386 L 295.3201 720.569 L 282.6549 720.569 L 282.6549 743.3663 C 282.6549 749.2399 284.986 752.1768 289.6483 752.1768 C 291.4838 752.1768 293.3745 751.6446 295.3201 750.5799 L 295.3201 763.4654 Z" fill="none" fill-opacity="1" stroke="#000000" stroke-opacity="1" stroke-width="0.1" stroke-linecap="round" stroke-linejoin="round"/>
<path d="M 352.5336 749.6989 L 386.0137 749.6989 L 386.0137 764.1261 L 333.4808 764.1261 L 333.4808 758.179 C 333.4808 754.1407 334.16 750.5156 335.5183 747.3035 C 336.8766 744.0913 338.5836 741.2095 340.6394 738.6581 C 342.6952 736.1067 344.9438 733.849 347.385 731.885 C 349.8263 729.9209 352.1482 728.1497 354.3508 726.571 C 356.6636 724.9191 358.6918 723.3406 360.4356 721.8354 C 362.1794 720.3303 363.6478 718.8344 364.8409 717.3475 C 366.034 715.8607 366.9243 714.3556 367.5116 712.8322 C 368.0989 711.3086 368.3926 709.6842 368.3926 707.9587 C 368.3926 704.5814 367.4382 702.03 365.5292 700.3046 C 363.6203 698.5792 360.7018 697.7166 356.7737 697.7166 C 349.9822 697.7166 343.4845 700.4148 337.2804 705.8113 L 337.2804 690.5029 C 344.1453 686.0609 351.8912 683.8397 360.5182 683.8397 C 364.5197 683.8397 368.1082 684.3629 371.2836 685.4092 C 374.4591 686.4554 377.1481 687.9515 379.3508 689.8971 C 381.5534 691.8428 383.2329 694.2015 384.3893 696.9731 C 385.5457 699.7448 386.1239 702.8376 386.1239 706.2517 C 386.1239 709.8861 385.5641 713.1167 384.4444 715.9434 C 383.3247 718.7701 381.838 721.3398 379.9841 723.6526 C 378.1301 725.9653 375.9918 728.0854 373.5688 730.0127 C 371.1459 731.9401 368.6313 733.8031 366.0248 735.6019 C 364.2627 736.8501 362.5648 738.0891 360.9312 739.3188 C 359.2976 740.5487 357.8567 741.7601 356.6085 742.9532 C 355.3604 744.1464 354.3692 745.3119 353.6349 746.45 C 352.9008 747.5879 352.5336 748.6709 352.5336 749.6989 Z" fill="none" fill-opacity="1" stroke="#000000" stroke-opacity="1" stroke-width="0.1" stroke-linecap="round" stroke-linejoin="round"/>
</svg>