<?xml version="1.0" encoding="utf-8"?>
<!DOCTYPE svg PUBLIC "-//W3C//DTD SVG 1.1//EN" "http://www.w3.org/Graphics/SVG/1.1/DTD/svg11.dtd">
<!-- exported from Silhouette Studio® Business Edition V4.2.471ssbe -->
<svg version="1.1" xmlns="http://www.w3.org/2000/svg" xmlns:xlink="http://www.w3.org/1999/xlink" width="304.8mm" height="600mm" viewBox="0 0 304.8 600">
<defs/>
<path d="M -237.327 60.46502 C -237.327 73.72174 -241.5547 84.83274 -250.0101 93.79803 C -258.6355 102.8908 -269.5552 107.4372 -282.7695 107.4372 C -295.8987 107.4372 -306.7974 102.8483 -315.4652 93.67057 C -323.9631 84.70528 -328.2121 73.63676 -328.2121 60.46502 C -328.2121 47.25077 -323.9631 36.13977 -315.4652 27.13199 C -306.7974 17.91177 -295.8987 13.30166 -282.7695 13.30166 C -269.7252 13.30166 -258.8479 17.91177 -250.1376 27.13199 C -241.5972 36.22475 -237.327 47.33575 -237.327 60.46502 Z M -261.4823 60.33754 C -261.4823 53.96411 -263.4155 48.54671 -267.2821 44.0853 C -271.3186 39.41145 -276.481 37.07455 -282.7695 37.07455 C -288.7605 37.07455 -293.838 39.49644 -298.002 44.34024 C -302.0385 49.01409 -304.0567 54.38901 -304.0567 60.46502 C -304.0567 66.9659 -302.166 72.38332 -298.3844 76.71725 C -294.3904 81.26363 -289.1854 83.53681 -282.7695 83.53681 C -276.7785 83.53681 -271.6797 81.13615 -267.4733 76.33484 C -263.4793 71.74597 -261.4823 66.41354 -261.4823 60.33754 Z" fill="none" fill-opacity="1" stroke="#000000" stroke-opacity="1" stroke-width="0.1" stroke-linecap="round" stroke-linejoin="round"/>
<path d="M -162.6942 47.14455 C -162.6942 50.28878 -162.8429 55.00512 -163.1404 61.29356 C -163.4378 67.58201 -163.5865 72.29836 -163.5865 75.44258 C -163.5865 78.50182 -163.4803 83.09069 -163.2678 89.20918 C -163.0554 95.32767 -162.9491 99.89529 -162.9491 102.912 C -162.9491 104.0593 -163.4803 104.7816 -164.5425 105.079 C -166.1571 105.5039 -169.5775 105.7164 -174.8037 105.7164 C -179.4351 105.7164 -182.6643 105.5889 -184.4913 105.3339 C -185.2986 105.2065 -185.8085 104.6966 -186.021 103.8043 L -186.4034 99.98027 C -186.6158 98.02575 -186.9132 97.04848 -187.2956 97.04848 C -186.7008 97.04848 -188.8465 98.49313 -193.7328 101.3824 C -198.6191 104.2717 -203.0592 105.7164 -207.0533 105.7164 C -218.313 105.7164 -224.9838 100.6388 -227.0658 90.48386 C -228.0006 85.76752 -228.468 78.92671 -228.468 69.96143 C -228.468 60.27382 -227.6819 52.6257 -226.1098 47.01709 C -225.6424 45.27502 -224.7714 44.40398 -223.4967 44.40398 C -221.5422 44.40398 -218.5679 44.42523 -214.5739 44.46772 C -210.5799 44.5102 -207.6056 44.53146 -205.6511 44.53146 C -204.3339 44.53146 -203.6753 45.08381 -203.6753 46.18855 C -203.6753 46.48597 -203.7178 46.93211 -203.8028 47.52696 C -204.6951 53.30553 -205.1412 59.16909 -205.1412 65.11762 C -205.1412 72.5108 -204.9075 77.56705 -204.4401 80.28638 C -203.6753 84.96023 -200.8923 87.29714 -196.0909 87.29714 C -194.2214 87.29714 -192.1925 86.46861 -190.0043 84.81152 C -187.8161 83.15442 -186.6795 81.43359 -186.5946 79.64903 C -186.5096 78.07692 -186.4671 67.41206 -186.4671 47.65443 C -186.4671 46.25228 -186.3609 45.42373 -186.1484 45.1688 C -185.8935 44.74391 -185.1287 44.53146 -183.854 44.53146 C -181.772 44.53146 -178.6384 44.5527 -174.4532 44.5952 C -170.268 44.63767 -167.1344 44.65892 -165.0524 44.65892 C -163.7777 44.65892 -163.0341 44.9776 -162.8217 45.61494 C -162.7367 45.95485 -162.6942 46.46473 -162.6942 47.14455 Z" fill="none" fill-opacity="1" stroke="#000000" stroke-opacity="1" stroke-width="0.1" stroke-linecap="round" stroke-linejoin="round"/>
<path d="M -109.9222 65.37256 C -109.9222 67.02966 -110.8358 67.85819 -112.6628 67.85819 C -113.4701 67.85819 -114.6492 67.80508 -116.2001 67.69887 C -117.7509 67.59264 -118.9088 67.53952 -119.6736 67.53952 C -123.2002 67.53952 -125.6009 68.09189 -126.8755 69.19662 C -128.1502 70.30135 -128.7876 72.53204 -128.7876 75.88871 C -128.7876 77.71576 -128.7557 80.4882 -128.692 84.20603 C -128.6283 87.92387 -128.5964 90.69631 -128.5964 92.52336 C -128.5964 93.75555 -128.5114 95.59322 -128.3414 98.03638 C -128.1715 100.4795 -128.0865 102.2959 -128.0865 103.4857 C -128.0865 104.5054 -128.7876 105.079 -130.1897 105.2065 C -132.2292 105.3764 -135.3522 105.4614 -139.5587 105.4614 C -143.5952 105.4614 -146.8244 105.3339 -149.2463 105.079 C -150.6484 104.909 -151.3495 104.208 -151.3495 102.9758 C -151.3495 99.57661 -151.3283 94.4885 -151.2858 87.71143 C -151.2433 80.93434 -151.222 75.84621 -151.222 72.44706 C -151.222 62.46203 -152.1355 54.2403 -153.9626 47.7819 C -154.0476 47.3995 -154.0901 47.08082 -154.0901 46.82589 C -154.0901 46.18855 -153.7714 45.76365 -153.1341 45.5512 C -150.7971 45.29626 -147.3767 44.82888 -142.8728 44.14905 C -136.1595 42.83187 -132.6966 42.17329 -132.4842 42.17329 C -131.7193 42.17329 -131.2307 43.5117 -131.0183 46.18855 C -130.8058 48.86538 -130.4234 50.2038 -129.8711 50.2038 C -130.4659 50.2038 -128.7238 49.08845 -124.6449 46.85775 C -120.5659 44.62705 -116.6356 43.5117 -112.854 43.5117 C -110.4746 43.5117 -109.2849 44.02159 -109.2849 45.04133 C -109.2849 46.27353 -109.4124 48.01559 -109.6673 50.26754 C -109.9222 52.68944 -110.071 54.43151 -110.1134 55.49374 C -110.1134 56.72595 -110.0922 58.36179 -110.0497 60.40128 C -109.9647 62.90817 -109.9222 64.56526 -109.9222 65.37256 Z" fill="none" fill-opacity="1" stroke="#000000" stroke-opacity="1" stroke-width="0.1" stroke-linecap="round" stroke-linejoin="round"/>
<path d="M 14.67822 103.4857 C 14.67822 104.2505 14.14713 104.7816 13.08487 105.079 C 11.8102 105.4189 7.858665 105.5889 1.230316 105.5889 C -4.84568 105.5889 -8.754715 105.4189 -10.49679 105.079 C -11.94143 104.7816 -12.85496 103.8256 -13.23736 102.211 C -14.682 96.09248 -15.80798 92.82079 -16.61528 92.39589 C -17.29512 92.09846 -22.9887 91.94976 -33.69606 91.94976 C -40.91928 91.94976 -44.76457 92.14096 -45.23196 92.52337 C -45.95428 93.2032 -46.76159 95.47638 -47.65386 99.34293 C -48.46116 102.8696 -49.43843 104.7816 -50.58564 105.079 C -52.03028 105.4189 -56.87409 105.5889 -65.11705 105.5889 C -71.61795 105.5889 -74.86839 104.9728 -74.86839 103.7406 C -74.86839 102.6359 -70.06709 89.06047 -60.46445 63.0144 C -50.05452 34.84386 -44.40342 19.35644 -43.51114 16.55213 C -43.00127 14.93752 -42.40641 14.13023 -41.72658 14.13023 C -40.57936 14.13023 -38.80542 14.23644 -36.40477 14.4489 C -34.0041 14.66134 -32.20892 14.76757 -31.01923 14.76757 C -29.87201 14.76757 -28.18305 14.69321 -25.95235 14.5445 C -23.72165 14.39578 -22.05394 14.32143 -20.94921 14.32143 C -20.14191 14.32143 -19.39835 15.02251 -18.71852 16.42466 C -16.63652 20.88605 -10.56053 36.18229 -0.4905167 62.31333 C 9.62198 88.61433 14.67822 102.3384 14.67822 103.4857 Z M -30.50936 45.42374 C -31.40163 47.29328 -32.91001 51.35104 -35.03449 57.59699 C -37.32893 64.22535 -38.47613 68.11314 -38.47613 69.26036 C -38.47613 70.02517 -37.20144 70.45007 -34.65208 70.53504 C -33.3349 70.62003 -31.16793 70.66251 -28.15118 70.66251 C -25.34687 70.66251 -23.796 70.32259 -23.49858 69.64276 C -23.4136 69.43031 -23.37111 69.1329 -23.37111 68.75049 C -23.37111 67.34834 -24.34838 63.48178 -26.30289 57.15085 C -28.21492 51.03236 -29.61707 47.12333 -30.50936 45.42374 Z" fill="none" fill-opacity="1" stroke="#000000" stroke-opacity="1" stroke-width="0.1" stroke-linecap="round" stroke-linejoin="round"/>
<path d="M 79.75093 106.1625 C 76.09683 106.1625 71.33802 106.0775 65.47446 105.9075 L 51.19799 105.5889 L 32.14145 105.3339 C 30.22942 105.3764 27.48885 105.2915 23.91973 105.079 C 22.68753 104.8666 22.07143 104.208 22.07143 103.1032 C 22.07143 98.47189 22.14579 91.53548 22.2945 82.29401 C 22.44321 73.05254 22.51758 66.11612 22.51758 61.48477 C 22.51758 56.55598 22.36885 49.17344 22.07143 39.33712 C 21.77401 29.50079 21.62529 22.11823 21.62529 17.18945 C 21.62529 16.25468 22.26264 15.7873 23.53733 15.7873 C 24.81202 15.7873 26.71341 15.85104 29.24154 15.9785 C 31.76967 16.10597 33.64983 16.16971 34.88203 16.16971 C 36.28419 16.16971 38.36616 16.09535 41.12798 15.94663 C 43.88981 15.79792 45.97178 15.72356 47.37394 15.72356 C 48.01128 15.72356 48.3087 16.12721 48.26621 16.93452 L 48.20249 17.76306 C 47.6926 25.75108 47.119 37.75437 46.48167 53.77292 L 46.41792 70.59877 C 46.41792 76.03743 46.43917 80.0102 46.48167 82.51708 L 46.60912 84.04671 C 46.65162 84.55658 46.97028 84.87524 47.56513 85.00271 L 49.22224 85.00271 C 53.04629 85.00271 58.77175 84.80088 66.39861 84.39723 C 74.02547 83.99358 79.75093 83.79176 83.57498 83.79176 C 84.7222 83.79176 85.29581 84.28039 85.29581 85.25764 C 85.29581 92.52335 84.76469 98.79057 83.70245 104.0593 C 83.49002 105.164 83.04386 105.8226 82.36404 106.035 C 82.15157 106.12 81.28056 106.1625 79.75093 106.1625 Z" fill="none" fill-opacity="1" stroke="#000000" stroke-opacity="1" stroke-width="0.1" stroke-linecap="round" stroke-linejoin="round"/>
<path d="M 154.6387 35.16251 C 154.6387 36.0123 154.1713 36.43721 153.2366 36.43721 C 151.622 36.43721 145.2273 36.11853 134.0526 35.48119 C 133.7976 46.23103 133.6701 53.73043 133.6701 57.97938 C 133.6701 62.99314 133.8719 70.53503 134.2756 80.60506 C 134.6793 90.67506 134.8811 98.21695 134.8811 103.2307 C 134.8811 104.038 134.6899 104.5479 134.3075 104.7603 C 134.18 104.8453 133.5851 104.9515 132.5229 105.079 C 129.9735 105.4189 126.2345 105.5889 121.3057 105.5889 C 115.8245 105.5889 111.9792 105.4189 109.7698 105.079 C 108.5801 104.8666 107.9852 104.208 107.9852 103.1032 C 107.9852 98.08949 108.1977 90.56884 108.6226 80.54132 C 109.0475 70.51379 109.2599 62.99314 109.2599 57.97938 C 109.2599 54.6652 109.09 47.27203 108.75 35.79986 C 100.2521 36.64964 93.47507 37.07455 88.41882 37.07455 C 87.73899 37.07455 87.39907 36.8621 87.39907 36.43721 C 87.39907 35.88484 87.69649 34.24899 88.29134 31.52966 C 88.97118 28.55539 89.35358 26.7496 89.43855 26.11225 C 89.56602 24.11524 89.71474 22.11823 89.88471 20.12123 C 90.18214 16.93452 90.692 15.34116 91.41432 15.34116 L 92.30659 15.40489 C 99.1899 16.29717 109.3661 16.74332 122.8353 16.74332 C 126.6594 16.74332 133.7126 16.33966 143.9951 15.53236 L 152.3443 14.89502 C 153.1941 14.89502 153.6827 14.94813 153.8102 15.05435 C 153.9376 15.16057 154.0226 15.57485 154.0651 16.29717 C 154.0651 17.44439 154.0226 19.03775 153.9376 21.07723 C 153.8526 23.32919 153.8102 24.92254 153.8102 25.85732 C 153.8102 26.91955 153.9482 28.48105 154.2244 30.54178 C 154.5006 32.60252 154.6387 34.14277 154.6387 35.16251 Z" fill="none" fill-opacity="1" stroke="#000000" stroke-opacity="1" stroke-width="0.1" stroke-linecap="round" stroke-linejoin="round"/>
<path d="M 245.5237 103.4857 C 245.5237 104.2505 244.9926 104.7816 243.9304 105.079 C 242.6557 105.4189 238.7042 105.5889 232.0758 105.5889 C 225.9998 105.5889 222.0908 105.4189 220.3487 105.079 C 218.9041 104.7816 217.9906 103.8256 217.6082 102.211 C 216.1635 96.09248 215.0375 92.82079 214.2303 92.39589 C 213.5504 92.09846 207.8568 91.94976 197.1495 91.94976 C 189.9262 91.94976 186.0809 92.14096 185.6136 92.52337 C 184.8912 93.2032 184.0839 95.47638 183.1916 99.34293 C 182.3844 102.8696 181.4071 104.7816 180.2599 105.079 C 178.8152 105.4189 173.9714 105.5889 165.7285 105.5889 C 159.2276 105.5889 155.9771 104.9728 155.9771 103.7406 C 155.9771 102.6359 160.7784 89.06047 170.3811 63.0144 C 180.791 34.84385 186.4421 19.35642 187.3344 16.55212 C 187.8443 14.93752 188.4391 14.13022 189.119 14.13022 C 190.2662 14.13022 192.0401 14.23643 194.4408 14.44889 C 196.8414 14.66133 198.6366 14.76756 199.8263 14.76756 C 200.9735 14.76756 202.6625 14.69321 204.8932 14.54449 C 207.1239 14.39577 208.7916 14.32142 209.8963 14.32142 C 210.7036 14.32142 211.4472 15.0225 212.127 16.42465 C 214.209 20.88605 220.285 36.18228 230.355 62.31333 C 240.4675 88.61433 245.5237 102.3384 245.5237 103.4857 Z M 200.3362 45.42374 C 199.4439 47.29327 197.9355 51.35103 195.811 57.59699 C 193.5166 64.22534 192.3694 68.11314 192.3694 69.26035 C 192.3694 70.02516 193.6441 70.45006 196.1934 70.53503 C 197.5106 70.62003 199.6776 70.66251 202.6943 70.66251 C 205.4987 70.66251 207.0495 70.32259 207.347 69.64276 C 207.4319 69.43031 207.4744 69.13289 207.4744 68.75048 C 207.4744 67.34833 206.4972 63.48178 204.5426 57.15085 C 202.6306 51.03236 201.2284 47.12332 200.3362 45.42374 Z" fill="none" fill-opacity="1" stroke="#000000" stroke-opacity="1" stroke-width="0.1" stroke-linecap="round" stroke-linejoin="round"/>
<path d="M -260.59 238.5386 C -260.59 240.3656 -260.9512 243.7223 -261.6735 248.6086 C -262.4383 253.9198 -263.1182 257.0852 -263.713 258.105 C -264.2229 258.9123 -264.924 259.3159 -265.8162 259.3159 C -266.1986 259.3159 -266.836 259.2522 -267.7283 259.1247 C -270.83 258.6998 -279.8802 258.4874 -294.8791 258.4874 C -298.1508 258.4874 -303.0158 258.4662 -309.4742 258.4236 C -315.9326 258.3812 -320.7764 258.3599 -324.0056 258.3599 C -325.4078 258.3599 -326.1088 257.7438 -326.1088 256.5116 C -326.1088 251.7528 -325.8433 244.6039 -325.3122 235.0651 C -324.781 225.5262 -324.5155 218.3773 -324.5155 213.6185 C -324.5155 208.7747 -324.7704 199.7457 -325.2803 186.5314 C -325.4077 183.1322 -325.6414 178.0547 -325.9814 171.2989 L -326.0451 170.4066 C -326.1301 169.4294 -325.5989 168.9407 -324.4517 168.9407 C -321.3075 168.9407 -316.5806 169.0257 -310.2709 169.1957 C -303.9612 169.3657 -299.2343 169.4506 -296.09 169.4506 C -292.9883 169.4506 -288.3145 169.3657 -282.0685 169.1957 C -275.8225 169.0257 -271.1487 168.9407 -268.0469 168.9407 C -265.8375 168.9407 -264.5628 169.7693 -264.2229 171.4264 C -264.0104 172.4036 -263.6811 175.3673 -263.235 180.3173 C -262.7888 185.2673 -262.5658 188.2735 -262.5658 189.3357 C -262.5658 190.228 -262.9907 190.6741 -263.8405 190.6741 C -264.0954 190.6741 -264.5416 190.6529 -265.1789 190.6104 C -276.4811 189.6756 -286.6361 189.2083 -295.6439 189.2083 C -297.8958 189.2083 -299.2768 189.7394 -299.7866 190.8016 C -299.9991 191.3115 -300.1053 192.9473 -300.1053 195.7091 C -300.1053 198.5984 -299.6804 200.5105 -298.8306 201.4452 C -298.1082 202.2525 -296.7274 202.6562 -294.6879 202.6562 C -294.263 202.6562 -293.4344 202.6243 -292.2022 202.5606 C -290.97 202.4968 -289.9503 202.465 -289.1429 202.465 C -283.7893 202.465 -278.3719 202.3163 -272.8907 202.0188 L -269.3854 201.7002 C -267.9407 201.5302 -266.7935 201.4452 -265.9437 201.4452 C -264.924 201.4452 -264.4141 201.9339 -264.4141 202.9111 C -264.4141 202.0188 -264.7965 205.2693 -265.5613 212.6625 C -265.9012 216.0616 -266.0712 219.4608 -266.0712 222.8599 C -266.0712 223.7097 -266.6873 224.1346 -267.9195 224.1346 L -273.6555 223.4973 C -276.0775 223.2423 -281.6011 223.1149 -290.2264 223.1149 L -296.9823 223.1149 C -298.7244 223.1149 -299.7441 223.5397 -300.0415 224.3895 C -300.084 224.602 -300.1053 225.9192 -300.1053 228.3411 C -300.1053 231.5703 -299.8928 233.6523 -299.4679 234.587 C -298.7456 236.2016 -296.0262 237.1577 -291.3099 237.4551 L -282.0048 237.4551 C -279.7528 237.4551 -276.4068 237.2533 -271.9666 236.8496 C -267.5265 236.446 -264.2017 236.2441 -261.9922 236.2441 C -261.0574 236.2441 -260.59 237.0089 -260.59 238.5386 Z" fill="none" fill-opacity="1" stroke="#000000" stroke-opacity="1" stroke-width="0.1" stroke-linecap="round" stroke-linejoin="round"/>
<path d="M -207.0532 209.2845 C -207.0532 210.6017 -207.3507 212.3225 -207.9455 214.447 C -208.4554 216.1466 -208.944 217.8674 -209.4114 219.6095 C -209.5813 221.734 -209.985 224.8145 -210.6224 228.851 C -210.7498 229.4458 -211.2597 229.7432 -212.152 229.7432 C -213.7666 229.7432 -216.1991 229.722 -219.4495 229.6795 C -222.7 229.637 -225.1538 229.6158 -226.8109 229.6158 C -231.2723 229.6158 -237.2633 230.0194 -244.7839 230.8267 C -245.2088 230.8692 -246.356 231.0392 -248.2256 231.3366 C -249.7127 231.5915 -250.8811 231.719 -251.7309 231.719 C -252.8357 231.719 -253.388 230.678 -253.388 228.596 C -253.388 227.4913 -252.6657 224.4108 -251.2211 219.3546 C -249.8189 214.5532 -248.7992 211.4515 -248.1618 210.0493 C -247.8644 209.3695 -247.312 209.0296 -246.5047 209.0296 C -244.8477 209.0296 -242.362 209.1146 -239.0478 209.2845 C -235.7337 209.4545 -233.248 209.5395 -231.5909 209.5395 C -228.1068 209.5395 -222.3494 209.0296 -214.3189 208.0099 C -210.1125 207.4575 -208.1367 207.1813 -208.3916 207.1813 C -207.4994 207.1813 -207.0532 207.8824 -207.0532 209.2845 Z" fill="none" fill-opacity="1" stroke="#000000" stroke-opacity="1" stroke-width="0.1" stroke-linecap="round" stroke-linejoin="round"/>
<path d="M -153.1978 229.0422 C -153.1978 237.6675 -156.8307 245.0607 -164.0964 251.2217 C -170.4698 256.6603 -178.2241 260.1232 -187.3594 261.6104 C -187.6993 261.6529 -187.9754 261.6741 -188.1879 261.6741 C -189.1652 261.6741 -191.3321 258.6892 -194.6888 252.7195 C -198.0455 246.7497 -199.7238 243.1062 -199.7238 241.789 C -199.7238 241.3216 -199.4052 241.0242 -198.7678 240.8967 C -192.6068 239.4946 -188.5278 238.3049 -186.5308 237.3276 C -182.1119 235.1182 -179.9025 231.8465 -179.9025 227.5125 C -179.9025 224.7507 -181.3471 221.6702 -184.2364 218.2711 C -189.2502 212.4925 -191.9695 209.2845 -192.3944 208.6472 C -195.3262 204.2283 -196.792 199.342 -196.792 193.9883 C -196.792 186.2127 -193.2017 179.7543 -186.021 174.6131 C -180.1574 170.3641 -172.9554 167.6023 -164.4151 166.3277 C -163.9477 166.2852 -163.5865 166.2639 -163.3316 166.2639 C -162.6942 166.2639 -162.1843 166.7738 -161.8019 167.7935 C -160.6972 170.8953 -158.1266 176.5039 -154.0901 184.6194 C -153.9626 184.8743 -153.8989 185.0868 -153.8989 185.2567 C -153.8989 185.979 -154.2813 186.3402 -155.0461 186.3402 C -155.386 186.3402 -155.9596 186.2765 -156.7669 186.149 C -157.5742 186.0215 -158.1903 185.9578 -158.6152 185.9578 C -161.6745 185.9578 -164.3513 186.6589 -166.6457 188.061 C -169.4075 189.6756 -170.7885 191.9276 -170.7885 194.8169 C -170.7885 197.4087 -169.2589 200.5954 -166.1996 204.377 C -160.8034 211.1753 -157.9779 214.7444 -157.7229 215.0844 C -154.7062 219.7582 -153.1978 224.4108 -153.1978 229.0422 Z" fill="none" fill-opacity="1" stroke="#000000" stroke-opacity="1" stroke-width="0.1" stroke-linecap="round" stroke-linejoin="round"/>
<path d="M -81.7517 227.0027 C -81.7517 236.6903 -84.71535 244.5508 -90.64263 250.5844 C -96.56992 256.6179 -104.3561 259.6346 -114.0012 259.6346 C -123.3489 259.6346 -131.0395 256.6603 -137.073 250.7118 C -143.1065 244.7633 -146.1233 237.1152 -146.1233 227.7675 C -146.1233 217.9099 -143.234 209.9112 -137.4554 203.7715 C -131.6769 197.6318 -123.8588 194.5619 -114.0012 194.5619 C -104.3986 194.5619 -96.62302 197.5681 -90.67449 203.5803 C -84.72595 209.5926 -81.7517 217.4 -81.7517 227.0027 Z M -102.6565 227.0027 C -102.6565 223.646 -103.6975 220.6823 -105.7795 218.1117 C -107.8615 215.5411 -110.5596 214.2558 -113.8738 214.2558 C -117.2304 214.2558 -119.9923 215.573 -122.1592 218.2073 C -124.1987 220.6717 -125.2185 223.6035 -125.2185 227.0027 C -125.2185 230.4443 -124.1987 233.3973 -122.1592 235.8617 C -119.9923 238.4961 -117.2304 239.8132 -113.8738 239.8132 C -110.5596 239.8132 -107.819 238.4961 -105.6521 235.8617 C -103.655 233.3973 -102.6565 230.4443 -102.6565 227.0027 Z" fill="none" fill-opacity="1" stroke="#000000" stroke-opacity="1" stroke-width="0.1" stroke-linecap="round" stroke-linejoin="round"/>
<path d="M -50.8406 219.9919 C -50.8406 231.5915 -50.7981 240.4931 -50.71313 246.6965 C -50.71313 247.6738 -50.64939 249.3521 -50.52192 251.7316 C -50.39445 253.8985 -50.33072 255.5769 -50.33072 256.7666 C -50.33072 257.6588 -50.86184 258.19 -51.92407 258.3599 C -53.83611 258.6998 -57.27776 258.8698 -62.24903 258.8698 C -67.34777 258.8698 -70.59821 258.6998 -72.00037 258.3599 C -72.93513 258.1475 -73.46626 257.5739 -73.59373 256.6391 L -73.59373 253.8985 C -73.59373 250.117 -73.55124 244.4552 -73.46626 236.9134 C -73.38129 229.3715 -73.3388 223.731 -73.33879 219.9919 C -73.33879 202.1463 -73.31755 194.0096 -73.27506 195.5817 C -73.40253 186.1915 -73.93364 178.0972 -74.86841 171.2989 C -74.95339 170.8315 -74.99589 170.4704 -74.99589 170.2154 C -74.99589 169.2807 -74.44351 168.8133 -73.33879 168.8133 L -50.58566 168.8133 C -49.52342 168.8133 -49.0348 169.2594 -49.11977 170.1517 L -49.18351 171.2989 C -50.28823 189.6544 -50.8406 205.8854 -50.8406 219.9919 Z" fill="none" fill-opacity="1" stroke="#000000" stroke-opacity="1" stroke-width="0.1" stroke-linecap="round" stroke-linejoin="round"/>
<path d="M 26.40533 200.4255 C 26.40533 203.5697 26.25661 208.286 25.95919 214.5745 C 25.66177 220.8629 25.51306 225.5793 25.51306 228.7235 C 25.51306 231.7827 25.61929 236.3716 25.83172 242.4901 C 26.04417 248.6086 26.15039 253.1762 26.15039 256.193 C 26.15039 257.3402 25.61929 258.0625 24.55703 258.3599 C 22.94243 258.7848 19.52203 258.9973 14.29581 258.9973 C 9.664463 258.9973 6.435265 258.8698 4.608208 258.6149 C 3.800907 258.4874 3.291039 257.9775 3.078587 257.0852 L 2.696182 253.2612 C 2.483742 251.3067 2.18631 250.3294 1.803898 250.3294 C 2.398754 250.3294 0.2530327 251.774 -4.633255 254.6633 C -9.519547 257.5526 -13.9597 258.9973 -17.95371 258.9973 C -29.21344 258.9973 -35.88428 253.9198 -37.96627 243.7648 C -38.90104 239.0484 -39.36843 232.2076 -39.36843 223.2423 C -39.36843 213.5547 -38.58237 205.9066 -37.01026 200.298 C -36.54288 198.5559 -35.67184 197.6849 -34.39716 197.6849 C -32.44264 197.6849 -29.46838 197.7061 -25.47437 197.7486 C -21.48035 197.7911 -18.50609 197.8124 -16.55157 197.8124 C -15.23439 197.8124 -14.57581 198.3647 -14.57581 199.4695 C -14.57581 199.7669 -14.6183 200.213 -14.70328 200.8079 C -15.59555 206.5865 -16.0417 212.45 -16.0417 218.3985 C -16.0417 225.7917 -15.808 230.848 -15.34062 233.5673 C -14.57581 238.2411 -11.79274 240.5781 -6.991428 240.5781 C -5.121883 240.5781 -3.093018 239.7495 -0.9048195 238.0924 C 1.283398 236.4353 2.419994 234.7145 2.504971 232.9299 C 2.589951 231.3578 2.632443 220.693 2.632446 200.9353 C 2.632446 199.5332 2.738667 198.7047 2.951107 198.4497 C 3.206055 198.0248 3.970863 197.8124 5.245544 197.8124 C 7.327541 197.8124 10.46115 197.8336 14.64635 197.8761 C 18.83158 197.9186 21.96517 197.9398 24.04715 197.9398 C 25.32184 197.9398 26.06542 198.2585 26.27785 198.8959 C 26.36284 199.2358 26.40533 199.7457 26.40533 200.4255 Z" fill="none" fill-opacity="1" stroke="#000000" stroke-opacity="1" stroke-width="0.1" stroke-linecap="round" stroke-linejoin="round"/>
<path d="M 79.55971 239.6858 C 79.55971 240.9605 79.40038 242.8937 79.0817 245.4856 C 78.76302 248.0774 78.60368 249.9789 78.60368 251.1898 C 78.60368 252.4008 78.47621 253.1762 78.22128 253.5161 C 77.96635 253.856 77.26527 254.3447 76.11806 254.982 C 70.6369 257.9987 64.56091 259.5071 57.89006 259.5071 C 45.6106 259.5071 39.47086 254.812 39.47086 245.4219 C 39.47086 242.6176 39.57709 238.4005 39.78954 232.7706 C 40.00197 227.1408 40.1082 222.9237 40.1082 220.1194 C 40.1082 218.2498 39.02472 217.3151 36.85776 217.3151 L 36.02921 217.3151 C 35.6468 217.3575 35.37062 217.3788 35.20067 217.3788 C 33.58606 217.3788 32.77876 216.8052 32.77876 215.658 C 32.77876 214.9781 32.83188 213.9371 32.9381 212.535 C 33.04433 211.1328 33.09743 210.0918 33.09743 209.412 C 33.09743 208.5197 33.04433 207.1601 32.9381 205.333 C 32.83188 203.506 32.77876 202.1463 32.77876 201.254 C 32.77876 200.4042 34.13843 199.9368 36.85776 199.8519 C 38.38737 199.8094 39.21593 199.3845 39.34338 198.5772 C 39.59833 196.9626 39.6833 194.4132 39.59833 190.9291 C 39.42838 185.4479 39.34338 182.8348 39.34338 183.0898 C 39.34338 178.161 39.81078 175.6966 40.74554 175.6966 C 41.89276 175.6966 43.52861 175.9515 45.65308 176.4614 C 48.07499 177.0138 49.75333 177.3324 50.6881 177.4174 C 52.85506 177.7148 56.12674 178.1185 60.50316 178.6284 C 61.5654 178.7133 62.09653 179.0745 62.09653 179.7119 C 62.09653 181.4114 61.95844 183.982 61.68225 187.4237 C 61.40607 190.8653 61.26797 193.4572 61.26797 195.1992 C 61.26797 197.2812 61.88408 198.3223 63.11627 198.3223 C 64.60341 198.3223 66.85535 198.2585 69.8721 198.131 C 72.88885 198.0036 75.16205 197.9398 76.69167 197.9398 C 77.62643 197.9398 78.09383 198.2585 78.09383 198.8959 C 78.09383 199.8731 77.98759 201.339 77.77515 203.2935 C 77.56271 205.248 77.45648 206.7139 77.45648 207.6912 C 77.45648 208.7109 77.47772 210.1981 77.52022 212.1526 C 77.5627 214.1071 77.58395 215.5942 77.58395 216.614 C 77.58395 217.5063 76.96785 217.9524 75.73564 217.9524 C 74.88586 217.9524 73.46246 217.9205 71.46545 217.8568 C 69.46844 217.7931 68.04506 217.7612 67.19527 217.7612 L 62.41519 217.7612 C 61.77785 217.7612 61.45919 218.696 61.45919 220.5655 L 61.45919 225.0906 C 61.50167 227.1301 61.5229 228.6385 61.5229 229.6158 C 61.5229 233.1849 61.92656 235.6493 62.73386 237.0089 C 63.88108 238.836 66.13303 239.7495 69.48969 239.7495 C 70.55193 239.7495 72.07092 239.5052 74.04669 239.0166 C 76.02245 238.528 77.41399 238.2836 78.22128 238.2836 C 79.11357 238.2836 79.55971 238.751 79.55971 239.6858 Z" fill="none" fill-opacity="1" stroke="#000000" stroke-opacity="1" stroke-width="0.1" stroke-linecap="round" stroke-linejoin="round"/>
<path d="M 111.4906 181.7513 C 111.4906 189.1445 107.3266 192.8411 98.99866 192.8411 C 95.42955 192.8411 92.47652 191.9063 90.1396 190.0368 C 87.59023 187.9973 86.31555 185.2355 86.31555 181.7513 C 86.31555 178.4372 87.63272 175.7178 90.26707 173.5934 C 92.68896 171.6388 95.5995 170.6616 98.99866 170.6616 C 102.3129 170.6616 105.1809 171.6601 107.6028 173.6571 C 110.1947 175.7816 111.4906 178.4796 111.4906 181.7513 Z M 109.8335 229.1059 C 109.8335 232.2076 109.8972 236.8284 110.0247 242.9681 C 110.1522 249.1078 110.2159 253.7073 110.2159 256.7666 C 110.2159 257.6588 109.6848 258.19 108.6225 258.3599 C 107.1779 258.6149 103.9274 258.7423 98.87119 258.7423 C 93.77245 258.7423 90.50076 258.6149 89.05612 258.3599 C 88.12135 258.19 87.54774 257.9138 87.3353 257.5314 C 87.25031 257.3614 87.20782 256.7241 87.20782 255.6194 C 87.20782 252.6876 87.27156 248.2793 87.39903 242.3945 C 87.52649 236.5097 87.59023 232.0802 87.59023 229.1059 C 87.59023 217.0389 87.12285 207.4362 86.18808 200.298 C 86.1031 199.6182 86.06061 199.172 86.06061 198.9596 C 86.06061 198.1098 86.63422 197.6849 87.78143 197.6849 C 88.97115 197.6849 90.78757 197.8124 93.23071 198.0673 C 95.67386 198.3222 97.51154 198.4497 98.74373 198.4497 C 99.97592 198.4497 101.8242 198.3435 104.2886 198.131 C 106.753 197.9186 108.6013 197.8124 109.8335 197.8124 C 110.8532 197.8124 111.3631 198.2373 111.3631 199.0871 C 111.3631 199.257 111.3206 199.6607 111.2356 200.298 C 110.3009 208.5835 109.8335 218.1861 109.8335 229.1059 Z" fill="none" fill-opacity="1" stroke="#000000" stroke-opacity="1" stroke-width="0.1" stroke-linecap="round" stroke-linejoin="round"/>
<path d="M 183.4465 227.0027 C 183.4465 236.6903 180.4829 244.5508 174.5556 250.5844 C 168.6283 256.6179 160.8421 259.6346 151.197 259.6346 C 141.8493 259.6346 134.1587 256.6603 128.1252 250.7118 C 122.0917 244.7633 119.075 237.1152 119.075 227.7675 C 119.075 217.9099 121.9642 209.9112 127.7428 203.7715 C 133.5214 197.6318 141.3394 194.5619 151.197 194.5619 C 160.7996 194.5619 168.5752 197.5681 174.5237 203.5803 C 180.4723 209.5926 183.4465 217.4 183.4465 227.0027 Z M 162.5417 227.0027 C 162.5417 223.646 161.5007 220.6823 159.4187 218.1117 C 157.3367 215.5411 154.6386 214.2558 151.3245 214.2558 C 147.9678 214.2558 145.206 215.573 143.039 218.2073 C 140.9995 220.6717 139.9798 223.6035 139.9798 227.0027 C 139.9798 230.4443 140.9995 233.3973 143.039 235.8617 C 145.206 238.4961 147.9678 239.8132 151.3245 239.8132 C 154.6386 239.8132 157.3792 238.4961 159.5462 235.8617 C 161.5432 233.3973 162.5417 230.4443 162.5417 227.0027 Z" fill="none" fill-opacity="1" stroke="#000000" stroke-opacity="1" stroke-width="0.1" stroke-linecap="round" stroke-linejoin="round"/>
<path d="M 254.5103 256.5116 C 254.5103 257.6588 253.9154 258.3174 252.7257 258.4874 C 251.536 258.6573 248.4343 258.7423 243.4205 258.7423 C 238.0668 258.7423 234.7527 258.6149 233.478 258.3599 C 232.2033 258.105 231.5659 257.2339 231.5659 255.7468 C 231.5659 253.7498 231.6297 250.733 231.7572 246.6965 C 231.8846 242.66 231.9483 239.622 231.9483 237.5826 C 231.9483 236.0104 231.9059 233.6629 231.8209 230.5399 C 231.7359 227.4169 231.6934 225.0694 231.6934 223.4973 C 231.6934 217.6762 229.1653 214.7657 224.109 214.7657 C 222.452 214.7657 220.5187 215.488 218.3092 216.9326 C 215.9298 218.5472 214.7401 220.1406 214.7401 221.7127 L 214.7401 256.1292 C 214.7401 257.5314 214.0815 258.3174 212.7643 258.4874 C 211.2772 258.6573 208.2392 258.7423 203.6503 258.7423 C 198.6791 258.7423 195.4499 258.6149 193.9627 258.3599 C 192.6456 258.1475 191.987 257.4464 191.987 256.2567 C 191.987 252.9425 192.0082 247.95 192.0507 241.2791 C 192.0932 234.6083 192.1144 229.5945 192.1144 226.2379 C 192.1144 215.658 191.2859 207.3513 189.6288 201.3178 C 189.5438 200.9353 189.5013 200.6167 189.5013 200.3617 C 189.5013 199.6819 189.82 199.2145 190.4574 198.9596 C 193.1342 198.6622 196.7033 198.1948 201.1647 197.5574 C 207.9205 196.2403 211.7233 195.5817 212.5731 195.5817 C 213.0405 195.5817 213.4017 197.0157 213.6566 199.8837 C 213.9115 202.7518 214.2727 204.1858 214.7401 204.1858 C 214.2727 204.1858 216.5565 202.7093 221.5915 199.7563 C 226.6265 196.8033 231.0348 195.3267 234.8164 195.3267 C 240.2126 195.3267 244.7164 196.6014 248.328 199.1508 C 252.3645 202.0826 254.3828 206.1616 254.3828 211.3878 L 254.3828 231.719 C 254.3828 234.4808 254.4041 238.6129 254.4466 244.1153 C 254.489 249.6177 254.5103 253.7498 254.5103 256.5116 Z" fill="none" fill-opacity="1" stroke="#000000" stroke-opacity="1" stroke-width="0.1" stroke-linecap="round" stroke-linejoin="round"/>
<path d="M 302.4385 206.7989 C 302.4385 207.2238 302.1198 207.7974 301.4825 208.5197 C 300.2928 208.2223 299.103 208.0736 297.9133 208.0736 C 295.4065 208.0736 293.3032 208.6259 291.6036 209.7307 C 289.5641 211.0054 288.5444 212.8112 288.5444 215.1481 C 288.5444 216.6352 289.6279 218.526 291.7948 220.8204 C 295.0665 224.2621 297.0848 226.5778 297.8496 227.7675 C 300.0166 230.9967 301.1 234.4596 301.1 238.1562 C 301.1 240.3231 300.6751 242.6176 299.8253 245.0395 C 298.8481 247.7163 297.6159 249.6708 296.1288 250.903 C 292.9846 253.6223 289.3092 255.9168 285.1028 257.7863 C 280.5564 259.7408 276.3712 260.7181 272.5471 260.7181 C 271.6973 260.7181 269.7959 258.413 266.8429 253.8029 C 263.8899 249.1928 262.4134 246.3779 262.4134 245.3581 C 262.4134 244.9757 262.647 244.742 263.1144 244.657 L 272.101 243 C 275.84 241.8103 277.7096 239.8557 277.7096 237.1364 C 277.7096 235.2669 276.6261 233.0999 274.4591 230.6355 C 270.5926 226.3441 268.5743 224.0709 268.4044 223.8159 C 266.2374 220.7567 265.1539 217.5275 265.1539 214.1283 C 265.1539 207.7549 268.3831 202.3375 274.8415 197.8761 C 280.6201 193.9246 286.8023 191.9488 293.3882 191.9488 C 294.068 191.9488 295.7464 194.2326 298.4232 198.8003 C 301.1 203.3679 302.4385 206.0341 302.4385 206.7989 Z" fill="none" fill-opacity="1" stroke="#000000" stroke-opacity="1" stroke-width="0.1" stroke-linecap="round" stroke-linejoin="round"/>
<path d="M -260.0164 342.9991 C -260.0164 343.4664 -260.4413 343.7001 -261.291 343.7001 C -264.4778 343.7001 -269.311 343.424 -275.7906 342.8716 C -282.2703 342.3192 -287.1247 342.0431 -290.3539 342.0431 C -294.4329 342.0431 -296.8123 342.1918 -297.4921 342.4892 C -299.0642 343.2115 -299.8503 345.251 -299.8503 348.6077 C -299.8503 352.6442 -298.8306 354.9386 -296.7911 355.491 C -295.9413 355.7034 -294.6453 355.8097 -292.9033 355.8097 C -289.9715 355.8097 -285.5845 355.6503 -279.7422 355.3316 C -273.8998 355.0129 -269.5128 354.8536 -266.581 354.8536 C -265.1789 354.8536 -264.4778 358.5927 -264.4778 366.0708 C -264.4778 372.5717 -264.7115 376.3533 -265.1789 377.4155 C -265.4763 378.1804 -266.0499 378.5627 -266.8997 378.5627 C -266.3473 378.5627 -267.6857 378.414 -270.9149 378.1166 C -275.4613 377.6917 -282.3446 377.4793 -291.5648 377.4793 C -294.5391 377.4793 -296.2174 377.5005 -296.5998 377.543 C -298.7668 377.8829 -299.8503 378.7964 -299.8503 380.2836 C -299.8503 386.3171 -299.5954 393.2642 -299.0855 401.1247 C -298.6606 408.2205 -298.4482 411.3859 -298.4482 410.6211 C -298.4482 411.7259 -299.7866 412.3632 -302.4634 412.5331 C -301.7411 412.4906 -303.6319 412.4694 -308.1358 412.4694 C -316.0813 412.4694 -321.2013 412.1932 -323.4957 411.6409 C -324.7279 411.3434 -325.344 410.6848 -325.344 409.6651 C -325.344 404.9487 -325.1847 397.8636 -324.866 388.4097 C -324.5473 378.9558 -324.388 371.8707 -324.388 367.1544 C -324.388 361.5457 -324.6429 354.4925 -325.1528 345.9945 L -326.3638 324.8348 L -326.4275 324.07 C -326.47 323.0078 -325.8326 322.4766 -324.5154 322.4766 C -321.3712 322.4766 -316.623 322.5404 -310.2709 322.6678 C -303.9187 322.7953 -299.1492 322.859 -295.9625 322.859 C -292.5633 322.859 -287.454 322.6041 -280.6344 322.0942 C -273.8149 321.5844 -268.7055 321.3294 -265.3063 321.3294 C -263.1818 321.3294 -261.9922 322.2004 -261.7372 323.9425 C -261.7372 325.7696 -261.6523 328.5101 -261.4823 332.1642 C -261.3973 333.099 -261.1211 334.9048 -260.6537 337.5817 C -260.2288 339.9186 -260.0164 341.7244 -260.0164 342.9991 Z" fill="none" fill-opacity="1" stroke="#000000" stroke-opacity="1" stroke-width="0.1" stroke-linecap="round" stroke-linejoin="round"/>
<path d="M -188.889 379.7737 C -188.889 383.0454 -188.6978 387.9105 -188.3154 394.3689 C -187.933 400.8273 -187.7418 405.6711 -187.7418 408.9003 C -187.7418 410.5999 -188.4853 411.5134 -189.9724 411.6409 C -195.2411 412.0233 -201.2747 412.2145 -208.073 412.2145 C -208.8803 412.2145 -209.422 410.9929 -209.6982 408.5497 C -209.9744 406.1066 -210.3037 404.8638 -210.6861 404.8213 C -211.026 404.9912 -211.4721 405.3524 -212.0245 405.9048 C -216.7833 410.7061 -221.8821 413.1067 -227.3207 413.1067 C -235.6062 413.1067 -242.4682 409.8351 -247.9069 403.2917 C -253.0481 397.1732 -255.6187 389.865 -255.6187 381.3671 C -255.6187 371.552 -252.9632 363.649 -247.652 357.658 C -242.1283 351.4545 -234.5652 348.3528 -224.9626 348.3528 C -218.2917 348.3528 -213.023 350.6897 -209.1564 355.3635 C -208.9865 355.576 -208.8378 355.6822 -208.7103 355.6822 C -208.3279 355.6822 -207.8924 354.6518 -207.4038 352.591 C -206.9151 350.5303 -206.3309 349.5 -205.6511 349.5 C -204.0789 349.5 -201.0834 349.9461 -196.6645 350.8383 C -192.4581 351.6881 -189.4413 352.4105 -187.6143 353.0053 C -186.9769 353.2603 -186.6583 353.6002 -186.6583 354.0251 C -186.6583 354.195 -186.722 354.6412 -186.8495 355.3635 C -188.2091 363.0541 -188.889 371.1909 -188.889 379.7737 Z M -209.4114 380.1561 C -209.4114 376.5445 -210.548 373.5596 -212.8212 371.2014 C -215.0944 368.8433 -218.058 367.6642 -221.7121 367.6642 C -225.3662 367.6642 -228.3192 368.8327 -230.5712 371.1696 C -232.8231 373.5065 -233.9491 376.502 -233.9491 380.1561 C -233.9491 383.5978 -232.7594 386.5508 -230.38 389.0152 C -228.0006 391.4796 -225.1113 392.7118 -221.7121 392.7118 C -218.1005 392.7118 -215.1475 391.5327 -212.8531 389.1745 C -210.5586 386.8163 -209.4114 383.8102 -209.4114 380.1561 Z" fill="none" fill-opacity="1" stroke="#000000" stroke-opacity="1" stroke-width="0.1" stroke-linecap="round" stroke-linejoin="round"/>
<path d="M -74.35853 409.2827 C -74.35853 410.7698 -74.99587 411.5984 -76.27056 411.7683 C -77.54523 411.9383 -80.68945 412.0233 -85.70322 412.0233 C -90.88692 412.0233 -94.11615 411.8958 -95.39084 411.6409 C -96.66551 411.3859 -97.30286 410.3449 -97.30286 408.5179 C -97.30286 406.5634 -97.23912 403.6422 -97.11166 399.7544 C -96.98419 395.8666 -96.92046 392.9455 -96.92046 390.9909 C -96.92046 383.5553 -97.00543 378.2653 -97.17539 375.1211 C -97.43033 370.0648 -99.83099 367.5367 -104.3774 367.5367 C -106.3744 367.5367 -108.3608 368.3759 -110.3365 370.0542 C -112.3123 371.7326 -113.4064 373.5915 -113.6188 375.631 C -113.7888 377.4156 -113.8738 382.6418 -113.8738 391.3096 C -113.8738 393.3066 -113.81 396.334 -113.6826 400.3918 C -113.5551 404.4495 -113.4914 407.4981 -113.4914 409.5376 C -113.4914 410.9398 -114.1075 411.6409 -115.3397 411.6409 L -134.6511 411.6409 C -135.8408 411.6409 -136.4357 410.7698 -136.4357 409.0278 C -136.4357 407.0308 -136.3719 404.0352 -136.2445 400.0412 C -136.117 396.0472 -136.0533 393.0304 -136.0533 390.9909 C -136.0533 389.4188 -136.0958 387.0394 -136.1808 383.8527 C -136.2657 380.666 -136.3082 378.2653 -136.3082 376.6507 C -136.3082 370.5747 -138.6239 367.5367 -143.2552 367.5367 C -145.1248 367.5367 -147.1431 368.2591 -149.31 369.7037 C -151.6894 371.2758 -152.8791 372.9329 -152.8791 374.675 C -152.8791 378.5415 -152.8579 384.3201 -152.8154 392.0107 C -152.7729 399.7013 -152.7517 405.4586 -152.7517 409.2827 C -152.7517 410.3449 -152.8792 411.0035 -153.1341 411.2584 C -153.389 411.5134 -154.0476 411.6833 -155.1098 411.7683 C -157.0219 411.9383 -160.0386 412.0233 -164.1601 412.0233 C -166.8369 412.0233 -169.8749 411.8958 -173.2741 411.6409 C -174.2938 411.5559 -174.8993 411.4072 -175.0905 411.1947 C -175.2817 410.9823 -175.3773 410.3449 -175.3773 409.2827 C -175.3773 405.8835 -175.3561 400.7954 -175.3136 394.0183 C -175.2711 387.2412 -175.2499 382.1531 -175.2499 378.754 C -175.2499 371.7857 -175.7597 363.9464 -176.7795 355.2361 C -176.8645 354.7262 -176.907 354.3438 -176.907 354.0888 C -176.907 353.3665 -176.6095 352.8779 -176.0147 352.6229 C -175.0799 352.2405 -173.3166 351.9219 -170.7247 351.6669 C -167.538 351.3695 -165.6472 351.1783 -165.0524 351.0933 C -164.6275 351.0083 -162.9492 350.5622 -160.0174 349.7549 C -157.9354 349.16 -156.2571 348.8626 -154.9824 348.8626 C -154.1751 348.8626 -153.7502 350.3391 -153.7077 353.2921 C -153.6652 356.2451 -153.4952 357.7216 -153.1978 357.7216 C -152.7729 357.5517 -152.2843 357.2543 -151.7319 356.8294 C -147.9078 353.8551 -144.8911 351.8156 -142.6816 350.7109 C -139.4099 349.1388 -135.8621 348.3528 -132.038 348.3528 C -128.129 348.3528 -124.6449 349.2238 -121.5856 350.9658 C -118.144 352.9203 -115.9133 355.6609 -114.8935 359.1875 C -112.6416 356.1283 -109.5398 353.5577 -105.5883 351.4757 C -101.6368 349.3937 -97.79149 348.3528 -94.05241 348.3528 C -88.4438 348.3528 -83.87617 349.6487 -80.34955 352.2405 C -76.35553 355.1723 -74.35853 359.3575 -74.35853 364.7961 C -74.35853 367.0481 -74.42226 370.4366 -74.54974 374.9618 C -74.67719 379.4869 -74.74093 382.8754 -74.74093 385.1274 C -74.74093 387.8042 -74.67719 391.8301 -74.54974 397.205 C -74.42226 402.58 -74.35853 406.6059 -74.35853 409.2827 Z" fill="none" fill-opacity="1" stroke="#000000" stroke-opacity="1" stroke-width="0.1" stroke-linecap="round" stroke-linejoin="round"/>
<path d="M -37.01024 335.0323 C -37.01024 342.4255 -41.17421 346.122 -49.50216 346.122 C -53.07128 346.122 -56.0243 345.1873 -58.36122 343.3177 C -60.91059 341.2783 -62.18528 338.5164 -62.18528 335.0323 C -62.18528 331.7181 -60.8681 328.9987 -58.23375 326.8743 C -55.81185 324.9197 -52.90132 323.9425 -49.50216 323.9425 C -46.18797 323.9425 -43.31993 324.941 -40.89803 326.938 C -38.30617 329.0625 -37.01024 331.7606 -37.01024 335.0323 Z M -38.66733 382.3868 C -38.66733 385.4886 -38.6036 390.1093 -38.47614 396.2491 C -38.34867 402.3888 -38.28493 406.9883 -38.28493 410.0475 C -38.28493 410.9398 -38.81605 411.4709 -39.87828 411.6409 C -41.32293 411.8958 -44.57338 412.0233 -49.62963 412.0233 C -54.72837 412.0233 -58.00006 411.8958 -59.4447 411.6409 C -60.37947 411.4709 -60.95308 411.1947 -61.16553 410.8123 C -61.2505 410.6423 -61.293 410.005 -61.293 408.9003 C -61.293 405.9685 -61.22926 401.5602 -61.1018 395.6754 C -60.97433 389.7906 -60.91059 385.3611 -60.91059 382.3868 C -60.91059 370.3198 -61.37798 360.7172 -62.31275 353.5789 C -62.39773 352.8991 -62.44022 352.453 -62.44022 352.2405 C -62.44022 351.3907 -61.86661 350.9658 -60.71939 350.9658 C -59.52969 350.9658 -57.71326 351.0933 -55.27011 351.3483 C -52.82697 351.6032 -50.98929 351.7306 -49.7571 351.7306 C -48.5249 351.7306 -46.67661 351.6244 -44.21222 351.412 C -41.74782 351.1995 -39.89953 351.0933 -38.66733 351.0933 C -37.64758 351.0933 -37.13772 351.5182 -37.13772 352.368 C -37.13772 352.538 -37.1802 352.9416 -37.26518 353.5789 C -38.19995 361.8644 -38.66733 371.467 -38.66733 382.3868 Z" fill="none" fill-opacity="1" stroke="#000000" stroke-opacity="1" stroke-width="0.1" stroke-linecap="round" stroke-linejoin="round"/>
<path d="M -3.167343 373.2728 C -3.167343 384.8725 -3.124855 393.774 -3.039881 399.9775 C -3.039881 400.9548 -2.976145 402.6331 -2.848671 405.0125 C -2.721207 407.1795 -2.657471 408.8578 -2.657471 410.0475 C -2.657471 410.9398 -3.188591 411.4709 -4.250832 411.6409 C -6.162857 411.9808 -9.604509 412.1508 -14.57579 412.1508 C -19.67453 412.1508 -22.92497 411.9808 -24.32712 411.6409 C -25.26189 411.4284 -25.79301 410.8548 -25.92048 409.92 L -25.92048 407.1795 C -25.92048 403.3979 -25.87799 397.7362 -25.79301 390.1943 C -25.70803 382.6524 -25.66554 377.0119 -25.66554 373.2728 C -25.66554 355.4272 -25.6443 347.2905 -25.6018 348.8626 C -25.72927 339.4724 -26.2604 331.3781 -27.19516 324.5798 C -27.28014 324.1125 -27.32263 323.7513 -27.32263 323.4964 C -27.32263 322.5616 -26.77027 322.0942 -25.66554 322.0942 L -2.912407 322.0942 C -1.850166 322.0942 -1.361534 322.5403 -1.446518 323.4326 L -1.510254 324.5798 C -2.614972 342.9353 -3.167344 359.1663 -3.167343 373.2728 Z" fill="none" fill-opacity="1" stroke="#000000" stroke-opacity="1" stroke-width="0.1" stroke-linecap="round" stroke-linejoin="round"/>
<path d="M 71.08305 366.1983 C 71.08305 374.4413 70.8281 379.455 70.31824 381.2396 C 69.68089 383.3641 65.02831 391.0547 56.36044 404.3114 C 55.00078 406.3934 51.49539 411.216 45.84428 418.7791 C 39.59834 427.1071 36.05046 431.5047 35.20067 431.9721 C 34.18092 432.6094 27.65878 432.9281 15.63424 432.9281 C 13.8072 432.9281 12.57501 432.7157 11.93766 432.2908 C 11.3853 430.5487 10.68422 428.488 9.834438 426.1086 C 9.154598 424.6214 8.474773 423.113 7.794941 421.5834 C 6.817685 419.3739 6.32906 417.9081 6.32906 417.1858 C 6.32906 416.3784 6.69022 415.9748 7.41254 415.9748 C 19.22463 415.9748 25.13066 413.2767 25.13066 407.8806 C 25.13066 407.4132 22.24137 403.1854 16.4628 395.1974 C 10.47178 386.9969 7.178844 381.8132 6.583988 379.6463 C 6.244068 378.4141 6.074116 374.0164 6.074116 366.4533 C 6.074116 364.9236 6.116604 362.6186 6.20158 359.5381 C 6.286564 356.4576 6.329052 354.1526 6.329052 352.6229 C 6.329052 351.5182 7.030124 350.9658 8.432285 350.9658 C 10.59925 350.9658 13.88156 351.0295 18.27922 351.157 C 22.67689 351.2845 25.95921 351.3483 28.12617 351.3483 C 29.01845 351.3483 29.46458 352.0068 29.46458 353.324 C 29.46458 354.5137 29.40086 356.3089 29.27339 358.7095 C 29.14592 361.1102 29.08218 362.9054 29.08218 364.0951 C 29.08218 369.4488 29.16716 373.0816 29.33711 374.9937 C 29.46458 376.4808 30.73927 379.2426 33.16118 383.2791 C 35.71054 387.4856 37.55884 389.5888 38.70605 389.5888 C 39.68332 389.5888 41.34041 387.5068 43.67732 383.3429 C 45.84428 379.3913 47.01276 376.7357 47.1827 375.376 C 47.6076 371.637 47.82005 367.5792 47.82005 363.2028 C 47.82005 362.0556 47.71384 360.3135 47.50138 357.9766 C 47.28894 355.6397 47.1827 353.8763 47.1827 352.6866 C 47.1827 351.8793 47.62886 351.4757 48.52113 351.4757 C 50.6881 351.4757 53.92793 351.3907 58.24062 351.2208 C 62.5533 351.0508 65.79312 350.9658 67.96007 350.9658 C 69.0648 350.9658 69.80836 351.5182 70.19078 352.6229 C 70.78562 354.5775 71.08305 359.1026 71.08305 366.1983 Z" fill="none" fill-opacity="1" stroke="#000000" stroke-opacity="1" stroke-width="0.1" stroke-linecap="round" stroke-linejoin="round"/>
</svg>