<?xml version="1.0" encoding="utf-8"?>
<!DOCTYPE svg PUBLIC "-//W3C//DTD SVG 1.1//EN" "http://www.w3.org/Graphics/SVG/1.1/DTD/svg11.dtd">
<!-- exported from Silhouette Studio Business Edition V4.1.206ssbe -->
<svg version="1.1" xmlns="http://www.w3.org/2000/svg" xmlns:xlink="http://www.w3.org/1999/xlink" width="304.8mm" height="800mm" viewBox="0 0 304.8 800">
<defs/>
<path d="M -26.32125 497.7697 L -26.32125 483.6829 L -13.88219 483.6829 L -1.443146 483.6829 L -1.443146 485.3209 L -1.443146 486.9589 L -11.64317 486.9589 L -21.84319 486.9589 L -21.84319 491.5453 L -21.84319 496.1318 L -13.63342 496.1318 L -5.42363 496.1318 L -5.42363 497.7697 L -5.42363 499.4078 L -13.63342 499.4078 L -21.84319 499.4078 L -21.84319 503.9943 L -21.84319 508.5807 L -11.64317 508.5807 L -1.443146 508.5807 L -1.443146 510.2188 L -1.443146 511.8568 L -13.88219 511.8568 L -26.32125 511.8568 L -26.32125 497.7697 Z M 44.33258 506.6151 L 44.33258 501.3734 L 46.57162 501.3734 L 48.81064 501.3734 L 48.81064 504.9771 L 48.81064 508.5807 L 56.52286 508.5807 L 64.23508 508.5807 L 64.23508 505.0986 L 64.23508 501.6165 L 54.4082 498.6602 L 44.58138 495.7038 L 44.43831 489.6933 L 44.29524 483.6829 L 56.75298 483.6829 L 69.21071 483.6829 L 69.21071 488.5969 L 69.21071 493.511 L 66.72287 493.511 L 64.23508 493.511 L 64.23508 490.2349 L 64.23508 486.9589 L 56.52286 486.9589 L 48.81064 486.9589 L 48.81064 490.1572 L 48.81064 493.3553 L 50.92526 494.0161 C 52.08833 494.3796 56.67834 495.6564 61.12531 496.8535 L 69.21071 499.03 L 69.21071 505.4434 L 69.21071 511.8568 L 56.77162 511.8568 L 44.33258 511.8568 L 44.33258 506.6151 Z M 85.35831 511.0307 C 85.22221 510.5638 85.17177 504.2933 85.24617 497.0962 L 85.38147 484.0104 L 97.82051 484.0104 L 110.2596 484.0104 L 110.2596 497.7697 L 110.2596 511.5291 L 97.93266 511.7045 C 88.20177 511.8428 85.5536 511.7009 85.35831 511.0307 Z M 105.5327 497.7697 L 105.5327 486.9589 L 97.57176 486.9589 L 89.61073 486.9589 L 89.61073 497.7697 L 89.61073 508.5807 L 97.57176 508.5807 L 105.5327 508.5807 L 105.5327 497.7697 Z M 126.9279 497.7697 L 126.9279 483.6829 L 129.1669 483.6829 L 131.406 483.6829 L 131.406 496.1318 L 131.406 508.5807 L 141.606 508.5807 L 151.806 508.5807 L 151.806 510.2188 L 151.806 511.8568 L 139.3669 511.8568 L 126.9279 511.8568 L 126.9279 497.7697 Z M 165.2402 497.7813 L 165.2402 483.6829 L 167.4792 483.6829 L 169.7183 483.6829 L 169.7183 496.1318 L 169.7183 508.5807 L 177.6792 508.5807 L 185.6402 508.5807 L 185.6402 496.0941 L 185.6402 483.6075 L 187.7549 483.809 L 189.8695 484.0104 L 189.8695 497.7697 L 189.8695 511.5291 L 177.5548 511.7043 L 165.2402 511.8796 L 165.2402 497.7813 Z M 217.4842 499.4454 L 217.4842 486.9589 L 212.2598 486.9589 L 207.0354 486.9589 L 207.0354 485.3094 L 207.0354 483.66 L 219.3501 483.8352 L 231.6647 484.0104 L 231.8238 485.4846 C 231.9796 486.9295 231.8833 486.9589 226.9835 486.9589 L 221.9843 486.9589 L 221.8488 499.244 L 221.7135 511.5291 L 219.5988 511.7306 L 217.4842 511.9321 L 217.4842 499.4454 Z M 246.8404 497.8075 L 246.8404 483.6829 L 249.0893 483.6829 L 251.3382 483.6829 L 251.2039 497.6061 L 251.0697 511.5291 L 248.955 511.7306 L 246.8404 511.9321 L 246.8404 497.8075 Z M 268.2355 497.7697 L 268.2355 483.6829 L 280.6746 483.6829 L 293.1136 483.6829 L 293.1136 497.7697 L 293.1136 511.8568 L 280.6746 511.8568 L 268.2355 511.8568 L 268.2355 497.7697 Z M 288.138 497.7697 L 288.138 486.9589 L 280.4259 486.9589 L 272.7136 486.9589 L 272.7136 497.7697 L 272.7136 508.5807 L 280.4259 508.5807 L 288.138 508.5807 L 288.138 497.7697 Z M 309.7661 511.0554 C 309.626 510.5748 309.5723 504.2933 309.6467 497.0962 L 309.782 484.0104 L 312.7611 484.0104 L 315.7402 484.0104 L 321.966 494.2869 L 328.1918 504.5634 L 328.3285 494.1231 L 328.4652 483.6829 L 330.9407 483.6829 L 333.4162 483.6829 L 333.4162 497.7697 L 333.4162 511.8568 L 330.0576 511.8215 L 326.6991 511.7864 L 320.9771 502.1591 L 315.2552 492.5317 L 315.0064 502.0304 L 314.7576 511.5291 L 312.3891 511.7292 C 310.7607 511.8666 309.941 511.656 309.7661 511.0554 Z M 350.3333 506.6151 L 350.3333 501.3734 L 352.5724 501.3734 L 354.8114 501.3734 L 354.8114 504.9771 L 354.8114 508.5807 L 362.5236 508.5807 L 370.2358 508.5807 L 370.2358 505.0236 L 370.2358 501.4664 L 367.3748 500.6932 C 365.8013 500.268 361.3792 498.9652 357.548 497.7982 L 350.5821 495.6766 L 350.4391 489.6797 L 350.296 483.6829 L 362.7537 483.6829 L 375.2115 483.6829 L 375.2115 488.5969 L 375.2115 493.511 L 372.7236 493.511 L 370.2358 493.511 L 370.2358 490.2349 L 370.2358 486.9589 L 362.5236 486.9589 L 354.8114 486.9589 L 354.8114 490.1805 L 354.8114 493.4024 L 357.1748 494.0516 C 358.4746 494.4087 363.0646 495.6791 367.3748 496.875 L 375.2115 499.0493 L 375.2115 505.453 L 375.2115 511.8568 L 362.7723 511.8568 L 350.3333 511.8568 L 350.3333 506.6151 Z M 13.48373 497.7697 L 13.48373 495.4396 L 20.3252 495.6219 L 27.16669 495.8042 L 27.16669 497.7697 L 27.16669 499.7354 L 20.3252 499.9177 L 13.48373 500.1 L 13.48373 497.7697 Z M -30.30173 411.9379 L -30.30173 365.0906 L 17.46423 365.0906 L 65.23019 365.0906 L 65.23019 411.9379 L 65.23019 458.785 L 57.02042 458.785 L 48.81064 458.785 L 48.81064 443.3877 L 48.81064 427.9904 L 17.46423 427.9904 L -13.88219 427.9904 L -13.88219 443.3877 L -13.88219 458.785 L -22.09196 458.785 L -30.30173 458.785 L -30.30173 411.9379 Z M 48.81064 396.5405 L 48.81064 374.9187 L 16.96667 374.9187 L -14.87732 374.9187 L -14.87732 396.5405 L -14.87732 418.1623 L 16.96667 418.1623 L 48.81064 418.1623 L 48.81064 396.5405 Z M 80.7757 412.1017 L 80.90338 365.4182 L 88.49123 365.2374 L 96.07904 365.0565 L 96.07904 407.0067 L 96.07904 448.957 L 136.3816 448.957 L 176.6841 448.957 L 176.6841 453.871 L 176.6841 458.785 L 128.666 458.785 L 80.64798 458.785 L 80.7757 412.1017 Z M 219.8181 458.3639 C 219.6291 458.1151 219.4745 439.2414 219.4745 416.4224 L 219.4745 374.9333 L 199.1988 374.7623 L 178.9232 374.5911 L 178.9232 370.0047 L 178.9232 365.4182 L 226.8135 365.2511 L 274.7039 365.084 L 274.7039 370.0015 L 274.7039 374.9187 L 255.5515 374.9187 L 236.399 374.9187 L 236.2709 416.688 L 236.1428 458.4574 L 228.1522 458.637 C 223.7574 458.7357 220.007 458.6128 219.8181 458.3639 Z M 283.7811 412.1017 L 283.9088 365.4182 L 331.6747 365.4182 L 379.4407 365.4182 L 379.5684 412.1017 L 379.6961 458.785 L 371.483 458.785 L 363.2699 458.785 L 363.2699 443.3877 L 363.2699 427.9904 L 331.6747 427.9904 L 300.0795 427.9904 L 300.0795 443.3877 L 300.0795 458.785 L 291.8664 458.785 L 283.6533 458.785 L 283.7811 412.1017 Z M 363.2699 396.5405 L 363.2699 374.9187 L 331.426 374.9187 L 299.582 374.9187 L 299.582 396.5405 L 299.582 418.1623 L 331.426 418.1623 L 363.2699 418.1623 L 363.2699 396.5405 Z M 156.2841 312.2734 C 147.3901 307.0403 136.4189 300.5943 131.9035 297.9489 C 127.3882 295.3033 117.2006 289.3126 109.2644 284.636 C 101.3283 279.9594 88.00609 272.1086 79.65948 267.19 C 71.31291 262.2714 61.07195 256.267 56.90189 253.8469 C 52.7318 251.4269 49.32054 249.2994 49.3213 249.1192 C 49.32208 248.9391 52.51007 247.0487 56.40572 244.9185 C 64.03407 240.7473 82.97446 230.237 102.5474 219.314 C 109.252 215.5723 119.3276 209.9688 124.9377 206.8616 C 130.5477 203.7545 137.5464 199.8643 140.4902 198.2168 L 145.8427 195.2213 L 151.9537 198.7466 C 155.3147 200.6856 158.1348 202.5602 158.2205 202.9125 C 158.3061 203.2647 155.2746 205.3897 151.4838 207.6346 C 147.6929 209.8795 143.024 212.6592 141.1084 213.8117 C 139.1928 214.9641 135.4984 217.1547 132.8987 218.6796 C 122.1398 224.9902 117.5315 227.7231 114.0713 229.8448 C 112.0629 231.0763 110.3449 232.0838 110.2536 232.0838 C 110.1623 232.0838 107.7021 233.5581 104.7864 235.3599 C 101.8707 237.1617 99.39906 238.6359 99.29384 238.6359 C 99.18861 238.6359 97.02283 239.9045 94.48102 241.4551 C 91.93919 243.0056 88.5759 244.9958 87.00703 245.8777 C 85.43817 246.7596 84.15071 247.6513 84.14604 247.8591 C 84.14137 248.0669 93.31189 253.4598 104.5249 259.8433 L 124.9124 271.4498 L 127.786 269.7181 C 129.3665 268.7657 135.9091 264.9018 142.3252 261.1317 C 148.7412 257.3616 154.8986 253.733 156.0081 253.0682 C 158.1013 251.814 174.8907 241.944 202.3086 225.8494 C 211.0656 220.7089 219.7628 215.5861 221.6355 214.4653 C 223.5082 213.3446 225.4113 212.4233 225.8647 212.4178 C 226.9422 212.4049 240.3721 219.0186 240.3721 219.5621 C 240.3721 219.9559 238.0335 221.3857 217.9818 233.2507 C 213.4664 235.9225 207.9029 239.2592 205.6183 240.6654 C 203.3337 242.0717 201.391 243.2224 201.301 243.2224 C 201.211 243.2224 199.4977 244.2183 197.4937 245.4355 C 194.1833 247.4462 187.3322 251.5721 180.1671 255.8696 C 178.662 256.7724 171.3851 261.1134 163.9963 265.5161 C 156.6074 269.9188 148.9948 274.4619 147.0792 275.6117 C 145.1636 276.7615 142.8686 278.0883 141.9792 278.5599 C 141.0898 279.0317 140.3621 279.6039 140.3621 279.8314 C 140.3621 280.059 148.2115 284.6996 157.8051 290.144 L 175.2482 300.043 L 189.5247 291.9125 C 197.3768 287.4408 214.7726 277.5715 228.1818 269.9807 C 241.5911 262.3899 253.4579 255.6606 254.5526 255.0268 C 255.6472 254.3929 257.9982 253.0541 259.777 252.0518 C 261.5558 251.0494 264.6904 249.2682 266.7429 248.0937 C 268.7953 246.9192 271.8686 245.1944 273.5724 244.2609 C 275.2763 243.3274 277.8512 241.8703 279.2944 241.0228 C 280.7377 240.1753 282.3474 239.282 282.8715 239.0379 C 283.8552 238.5796 301.0746 246.8779 301.0746 247.8102 C 301.0746 248.0718 297.1004 250.5753 292.2429 253.3737 C 287.3855 256.1719 278.5973 261.256 272.7136 264.6717 C 266.8299 268.0874 255.9707 274.3557 248.5819 278.6012 C 241.193 282.8467 229.4382 289.6299 222.4598 293.6749 C 215.4815 297.7199 208.0927 301.9901 206.0403 303.164 C 203.9879 304.338 197.4183 308.1374 191.4414 311.6071 C 185.4644 315.0768 180.4861 317.9158 180.3785 317.9158 C 180.2709 317.9158 178.7962 318.8004 177.1014 319.8814 C 175.4066 320.9625 173.6678 321.8337 173.2374 321.8175 C 172.807 321.8011 165.178 317.5064 156.2841 312.2734 Z M 297.5917 233.0061 C 294.992 231.7657 290.0661 229.4576 286.6454 227.877 C 283.2246 226.2963 279.1944 224.407 277.6892 223.6786 C 276.1841 222.9503 269.579 219.8479 263.0112 216.7843 C 235.1207 203.775 227.6672 200.2825 218.4793 195.918 C 213.143 193.3831 208.2731 191.1614 207.6573 190.981 C 206.5739 190.6637 206.5379 190.4047 206.5379 182.9433 L 206.5379 175.2334 L 222.0867 182.7622 C 230.6385 186.9031 238.5311 190.6762 239.6257 191.147 C 240.7204 191.6177 250.5385 196.3037 261.4437 201.5601 C 272.3489 206.8166 281.473 211.1172 281.7194 211.1172 C 281.9742 211.1172 282.1637 203.4187 282.1591 193.2629 L 282.1509 175.4086 L 274.0737 168.8928 C 264.8594 161.4597 232.8245 134.9643 224.8463 128.1777 C 221.9171 125.686 217.8868 122.2758 215.8901 120.5996 C 207.0038 113.1394 190.3653 98.91379 185.0613 94.24155 L 179.258 89.12949 L 178.8938 82.80093 C 178.5185 76.27872 178.9131 28.43713 179.3471 27.86578 C 179.5738 27.56723 191.1615 34.27164 244.1038 65.33249 C 255.5975 72.07574 266.6807 78.55591 268.7331 79.73285 C 274.9437 83.29425 290.6671 92.50424 294.0529 94.56393 C 295.8009 95.62735 298.3758 97.12817 299.7748 97.89905 C 301.1739 98.66998 302.5984 99.58133 302.9405 99.92432 C 303.4165 100.4016 303.5625 105.749 303.5625 122.7061 C 303.5625 134.893 303.3701 145.0208 303.1349 145.2121 C 302.8998 145.4034 299.4854 143.7821 295.5471 141.609 C 291.609 139.436 286.9911 136.896 285.2853 135.9644 L 282.1838 134.2709 L 282.0511 117.6263 L 281.9185 100.9818 L 259.0306 87.85709 C 246.4424 80.63849 231.7766 72.22092 226.4403 69.1514 C 206.7943 57.85077 199.7522 53.86789 199.4173 53.86789 C 199.2287 53.86789 199.0745 61.94644 199.0745 71.82022 L 199.0745 89.77252 L 207.1598 96.59335 C 222.3305 109.3912 241.4824 125.232 255.7965 136.8213 C 260.5855 140.6987 265.6233 144.8083 266.9916 145.9536 C 268.36 147.099 272.726 150.6146 276.6941 153.7661 C 280.6621 156.9176 284.4685 159.9974 285.1527 160.6101 C 285.8368 161.2228 290.2589 164.7605 294.9796 168.4718 L 303.5625 175.2194 L 303.5625 205.2896 C 303.5625 228.9353 303.4296 235.3494 302.9405 235.3106 C 302.5984 235.2836 300.1914 234.2465 297.5917 233.0061 Z M 45.44981 163.1824 L 45.57648 94.28091 L 49.05942 92.38861 C 50.97504 91.34781 52.99016 90.23029 53.53749 89.9053 C 54.08482 89.58032 56.77164 88.10046 59.50824 86.6167 C 64.25481 84.04309 66.76915 82.64896 68.96191 81.37494 C 69.50925 81.05695 72.19604 79.58795 74.93265 78.11053 C 77.66925 76.63306 80.35608 75.15604 80.90338 74.82822 C 81.45071 74.50046 85.48099 72.28656 89.85953 69.90854 C 94.23804 67.53052 100.5074 64.0816 103.7913 62.24423 C 107.0752 60.40689 110.9935 58.2522 112.4986 57.45605 C 114.0037 56.65991 126.3184 49.89771 139.8645 42.42889 C 153.4107 34.96011 164.9976 28.58893 165.6134 28.27069 L 166.7329 27.69208 L 166.7329 84.90305 L 166.7329 142.114 L 162.8767 144.4724 C 158.3605 147.2346 146.3509 154.1144 146.0455 154.1144 C 145.9298 154.1144 145.8352 150.7237 145.8352 146.5795 C 145.8352 142.4353 145.7366 139.0446 145.6161 139.0446 C 145.3048 139.0446 138.4617 142.2083 136.3816 143.3138 C 135.4238 143.8228 128.8186 147.0277 121.7035 150.4356 C 98.43414 161.5809 73.01067 173.8077 69.58386 175.5013 L 66.2253 177.1611 L 66.2253 200.2131 L 66.2253 223.265 L 56.35651 227.6744 C 50.92865 230.0996 46.22568 232.0838 45.90543 232.0838 C 45.46368 232.0838 45.35372 215.4579 45.44981 163.1824 Z M 145.8258 88.68747 C 145.8333 60.98288 145.7062 53.79367 145.2133 54.04565 C 144.8712 54.22052 127.015 63.86942 105.5327 75.48761 C 84.05049 87.1058 66.19418 96.75565 65.85214 96.93167 C 65.36606 97.18176 65.23019 104.4427 65.23019 130.1696 L 65.23019 163.0875 L 105.5233 143.3674 L 145.8163 123.6473 L 145.8258 88.68747 Z M 178.8873 193.2858 C 177.7729 191.3812 176.6955 189.453 176.4929 189.0006 C 176.2678 188.4981 177.0556 186.6143 178.519 184.1564 C 180.5248 180.7872 180.9391 180.3625 181.0724 181.539 C 181.2262 182.8979 181.4571 182.9434 188.1944 182.9434 L 195.1575 182.9434 L 193.0486 186.9024 C 189.2639 194.0072 189.1797 194.0819 184.9523 194.0819 C 181.5939 194.0819 181.2159 194.2118 181.0724 195.4152 C 180.9416 196.5119 180.554 196.1342 178.8873 193.2858 Z M 159.8889 192.9353 C 158.8036 191.6699 154.2939 183.9204 154.2939 183.3208 C 154.2939 183.1132 158.4361 182.9434 163.4987 182.9434 L 172.7036 182.9434 L 172.7036 188.5127 L 172.7036 194.0819 L 166.788 194.0819 C 161.8604 194.0819 160.7082 193.8904 159.8889 192.9353 Z M 153.6844 180.6117 C 151.0106 178.7009 150.6165 175.6093 152.6423 172.4388 L 153.9762 170.3513 L 152.7667 169.1271 C 151.5603 167.9059 151.5694 167.9028 156.3681 167.8882 L 161.1791 167.8737 L 163.4547 171.6411 C 166.0432 175.9265 166.2085 176.572 164.5802 176.0338 C 163.6425 175.7238 163.0694 176.219 161.5615 178.6421 C 159.8263 181.4307 159.5427 181.6313 157.3703 181.6068 C 156.0887 181.5923 154.4301 181.1446 153.6844 180.6117 Z M 186.6414 176.676 C 184.9961 173.9497 183.6551 171.5173 183.6614 171.2706 C 183.6743 170.7599 192.5729 165.6195 192.7983 165.9925 C 195.6389 170.6939 198.0793 175.386 198.0793 176.146 C 198.0793 179.2545 195.3966 181.633 191.8905 181.633 C 189.6744 181.633 189.5775 181.5415 186.6414 176.676 Z M 162.8767 165.4802 C 160.619 164.1865 158.7719 162.913 158.7719 162.6501 C 158.7719 162.3873 159.8839 160.2379 161.243 157.8738 C 162.9801 154.852 164.2267 153.3525 165.4399 152.8253 C 167.9262 151.7447 170.7658 152.8946 172.3452 155.6214 L 173.5914 157.7728 L 170.7841 162.7999 C 169.24 165.5648 167.7529 167.8282 167.4792 167.8297 C 167.2056 167.8312 165.1344 166.7739 162.8767 165.4802 Z M 177.1817 165.3539 C 177.1817 165.0221 177.6451 164.5909 178.2116 164.3958 C 179.1408 164.0758 178.8977 163.4609 175.7238 158.1043 C 173.789 154.8391 172.2061 152.0159 172.2061 151.8305 C 172.2061 151.3004 183.839 151.4572 184.4092 151.995 C 184.6899 152.2597 185.6695 153.7448 186.5861 155.2951 C 188.085 157.8303 188.4059 158.0694 189.7764 157.673 L 191.3003 157.2323 L 188.8087 161.4064 L 186.3171 165.5805 L 181.7494 165.7689 C 179.194 165.8743 177.1817 165.6914 177.1817 165.3539 Z M 188.3768 145.997 L 178.9232 140.5493 L 178.7847 131.6069 C 178.7086 126.6886 178.8275 122.6645 179.0491 122.6645 C 179.2707 122.6645 182.6915 124.3089 186.651 126.3187 C 190.6104 128.3285 195.0255 130.561 196.4622 131.2798 L 199.0745 132.5868 L 199.0745 142.0402 C 199.0745 149.1791 198.9221 151.4876 198.4525 151.4692 C 198.1104 151.4557 193.5764 148.9932 188.3768 145.997 Z" fill="none" fill-opacity="1" stroke="#000000" stroke-opacity="1" stroke-width="0.2" stroke-linecap="round" stroke-linejoin="round"/>
</svg>