<?xml version="1.0" encoding="utf-8"?>
<!DOCTYPE svg PUBLIC "-//W3C//DTD SVG 1.1//EN" "http://www.w3.org/Graphics/SVG/1.1/DTD/svg11.dtd">
<!-- exported from Silhouette Studio Business Edition V4.1.206ssbe -->
<svg version="1.1" xmlns="http://www.w3.org/2000/svg" xmlns:xlink="http://www.w3.org/1999/xlink" width="304.8mm" height="1000mm" viewBox="0 0 304.8 1000">
<defs/>
<path d="M -34.33067 352.3624 L -44.1515 352.3624 L -46.99731 343.4623 L -61.22638 343.4623 L -64.04427 352.3624 L -73.8093 352.3624 L -59.24546 312.3537 L -48.55972 312.3537 L -34.33067 352.3624 Z M -49.06194 336.5431 L -53.35854 323.0953 C -53.67473 322.0909 -53.89794 320.8911 -54.02814 319.4961 L -54.25134 319.4961 C -54.34433 320.6679 -54.57685 321.8304 -54.94884 322.9836 L -59.30128 336.5431 L -49.06194 336.5431 Z" fill="none" fill-opacity="1" stroke="#000000" stroke-opacity="1" stroke-width="0.5291666" stroke-linecap="round" stroke-linejoin="round"/>
<path d="M -21.38507 352.3624 L -30.20148 352.3624 L -30.20148 310.0659 L -21.38507 310.0659 L -21.38507 352.3624 Z" fill="none" fill-opacity="1" stroke="#000000" stroke-opacity="1" stroke-width="0.5291666" stroke-linecap="round" stroke-linejoin="round"/>
<path d="M 3.306532 352.0276 C 2.004532 352.7158 0.0422459 353.06 -2.580371 353.06 C -8.792795 353.06 -11.899 349.8328 -11.899 343.3786 L -11.899 330.2935 L -16.53041 330.2935 L -16.53041 323.7928 L -11.899 323.7928 L -11.899 317.6269 L -3.11046 315.1158 L -3.11046 323.7928 L 3.306532 323.7928 L 3.306532 330.2935 L -3.11046 330.2935 L -3.11046 341.8441 C -3.11046 344.8202 -1.929397 346.3081 0.4328136 346.3081 C 1.362835 346.3081 2.320724 346.0384 3.306532 345.4991 L 3.306532 352.0276 Z" fill="none" fill-opacity="1" stroke="#000000" stroke-opacity="1" stroke-width="0.5291666" stroke-linecap="round" stroke-linejoin="round"/>
<path d="M 32.04364 352.3624 L 23.70151 352.3624 L 23.70151 348.261 L 23.5899 348.261 C 21.67411 351.4603 18.83761 353.0599 15.08038 353.0599 C 12.30899 353.0599 10.12811 352.274 8.537811 350.7023 C 6.947512 349.1306 6.152344 347.0335 6.152344 344.4109 C 6.152344 338.8681 9.435282 335.6689 16.0011 334.8133 L 23.75729 333.7809 C 23.75729 330.6561 22.06472 329.0937 18.6795 329.0937 C 15.2757 329.0937 12.03927 330.1075 8.970276 332.1349 L 8.970276 325.4946 C 10.19787 324.8622 11.87653 324.3042 14.00622 323.8206 C 16.13595 323.337 18.07501 323.0952 19.82343 323.0952 C 27.97023 323.0952 32.04364 327.1593 32.04364 335.2876 L 32.04364 352.3624 Z M 23.75729 340.756 L 23.75729 338.8308 L 18.5679 339.5005 C 15.70349 339.8725 14.2713 341.1652 14.2713 343.3785 C 14.2713 344.3829 14.62003 345.206 15.31754 345.8477 C 16.01505 346.4894 16.95902 346.8103 18.14941 346.8103 C 19.80481 346.8103 21.15329 346.2383 22.19489 345.0944 C 23.23651 343.9505 23.75729 342.5044 23.75729 340.756 Z" fill="none" fill-opacity="1" stroke="#000000" stroke-opacity="1" stroke-width="0.5291666" stroke-linecap="round" stroke-linejoin="round"/>
<path d="M 79.64124 352.3624 L 55.64716 352.3624 L 55.64716 312.3538 L 78.72055 312.3538 L 78.72055 319.6915 L 64.65891 319.6915 L 64.65891 328.5916 L 77.74401 328.5916 L 77.74401 335.9014 L 64.65891 335.9014 L 64.65891 345.0526 L 79.64124 345.0526 L 79.64124 352.3624 Z" fill="none" fill-opacity="1" stroke="#000000" stroke-opacity="1" stroke-width="0.5291666" stroke-linecap="round" stroke-linejoin="round"/>
<path d="M 100.7337 340.1979 L 85.47235 340.1979 L 85.47235 334.032 L 100.7337 334.032 L 100.7337 340.1979 Z" fill="none" fill-opacity="1" stroke="#000000" stroke-opacity="1" stroke-width="0.5291666" stroke-linecap="round" stroke-linejoin="round"/>
<path d="M 107.3182 350.8279 L 107.3182 341.8998 C 108.9364 343.2576 110.6941 344.276 112.5912 344.9549 C 114.4885 345.6338 116.4043 345.9733 118.3387 345.9733 C 119.4733 345.9733 120.4637 345.871 121.3101 345.6664 C 122.1564 345.4618 122.8632 345.1781 123.4305 344.8155 C 123.9978 344.4527 124.4209 344.0249 124.6999 343.532 C 124.9789 343.0392 125.1184 342.5043 125.1184 341.9277 C 125.1184 341.1465 124.8952 340.4491 124.4488 339.8353 C 124.0024 339.2215 123.3932 338.6541 122.6214 338.1334 C 121.8495 337.6125 120.9334 337.1104 119.8732 336.6267 C 118.813 336.1432 117.6691 335.6502 116.4415 335.148 C 113.3167 333.846 110.987 332.2557 109.4525 330.3771 C 107.918 328.4985 107.1508 326.2293 107.1508 323.5695 C 107.1508 321.4864 107.5693 319.696 108.4063 318.1987 C 109.2433 316.7014 110.3825 315.4692 111.824 314.502 C 113.2655 313.5348 114.9349 312.8233 116.8321 312.3676 C 118.7293 311.912 120.7381 311.6841 122.8585 311.6841 C 124.9417 311.6841 126.7878 311.8096 128.3967 312.0607 C 130.0056 312.3118 131.489 312.6978 132.8468 313.2186 L 132.8468 321.5608 C 132.1772 321.0957 131.4471 320.6865 130.6566 320.3331 C 129.8661 319.9797 129.0523 319.6868 128.2153 319.4543 C 127.3783 319.2218 126.546 319.0497 125.7183 318.9381 C 124.8906 318.8265 124.1047 318.7707 123.3607 318.7707 C 122.3377 318.7707 121.4077 318.8683 120.5707 319.0637 C 119.7337 319.259 119.0269 319.5333 118.4503 319.8867 C 117.8737 320.2401 117.4273 320.6633 117.1111 321.1562 C 116.7949 321.6491 116.6368 322.2024 116.6368 322.8162 C 116.6368 323.4858 116.8135 324.0856 117.1669 324.6158 C 117.5203 325.1459 118.0225 325.6481 118.6735 326.1224 C 119.3245 326.5967 120.115 327.0617 121.045 327.5174 C 121.975 327.9731 123.0259 328.4427 124.1977 328.9264 C 125.7973 329.596 127.2342 330.3074 128.5083 331.0607 C 129.7824 331.814 130.8752 332.6649 131.7866 333.6136 C 132.698 334.5622 133.3954 335.6456 133.879 336.8639 C 134.3626 338.0822 134.6044 339.5005 134.6044 341.1187 C 134.6044 343.3507 134.1813 345.2246 133.335 346.7405 C 132.4887 348.2564 131.3401 349.484 129.8893 350.4234 C 128.4385 351.3626 126.7506 352.0369 124.8255 352.4461 C 122.9004 352.8553 120.8683 353.0599 118.7293 353.0599 C 116.5345 353.0599 114.4466 352.8739 112.4657 352.5019 C 110.4848 352.1299 108.769 351.5718 107.3182 350.8279 Z" fill="none" fill-opacity="1" stroke="#000000" stroke-opacity="1" stroke-width="0.5291666" stroke-linecap="round" stroke-linejoin="round"/>
<path d="M 153.9392 353.0599 C 149.1775 353.0599 145.4343 351.7254 142.7094 349.0562 C 139.9845 346.3871 138.622 342.7648 138.622 338.1892 C 138.622 333.4648 140.0356 329.768 142.8628 327.0989 C 145.69 324.4298 149.5124 323.0952 154.3298 323.0952 C 159.0728 323.0952 162.7928 324.4298 165.4898 327.0989 C 168.1868 329.768 169.5353 333.2973 169.5353 337.687 C 169.5353 342.43 168.1449 346.1779 165.3642 348.9307 C 162.5835 351.6835 158.7752 353.0599 153.9392 353.0599 Z M 154.1624 329.8471 C 152.0791 329.8471 150.461 330.5631 149.3077 331.9953 C 148.1545 333.4276 147.5779 335.455 147.5779 338.0775 C 147.5779 343.5646 149.7913 346.308 154.2182 346.308 C 158.4404 346.308 160.5515 343.4902 160.5515 337.8543 C 160.5515 332.5161 158.4218 329.8471 154.1624 329.8471 Z" fill="none" fill-opacity="1" stroke="#000000" stroke-opacity="1" stroke-width="0.5291666" stroke-linecap="round" stroke-linejoin="round"/>
<path d="M 184.0713 352.3624 L 175.2549 352.3624 L 175.2549 310.0659 L 184.0713 310.0659 L 184.0713 352.3624 Z" fill="none" fill-opacity="1" stroke="#000000" stroke-opacity="1" stroke-width="0.5291666" stroke-linecap="round" stroke-linejoin="round"/>
<path d="M 218.6395 352.3624 L 209.851 352.3624 L 209.851 348.01 L 209.7115 348.01 C 207.5352 351.3766 204.6243 353.0599 200.9787 353.0599 C 194.3571 353.0599 191.0463 349.0516 191.0463 341.035 L 191.0463 323.7928 L 199.8348 323.7928 L 199.8348 340.2538 C 199.8348 344.29 201.4344 346.3081 204.6336 346.3081 C 206.2146 346.3081 207.4794 345.7548 208.428 344.6481 C 209.3766 343.5414 209.851 342.0394 209.851 340.1422 L 209.851 323.7928 L 218.6395 323.7928 L 218.6395 352.3624 Z" fill="none" fill-opacity="1" stroke="#000000" stroke-opacity="1" stroke-width="0.5291666" stroke-linecap="round" stroke-linejoin="round"/>
<path d="M 243.3312 352.0276 C 242.0292 352.7158 240.0668 353.06 237.4442 353.06 C 231.2318 353.06 228.1255 349.8328 228.1255 343.3786 L 228.1255 330.2935 L 223.4941 330.2935 L 223.4941 323.7928 L 228.1255 323.7928 L 228.1255 317.6269 L 236.9141 315.1158 L 236.9141 323.7928 L 243.3312 323.7928 L 243.3312 330.2935 L 236.9141 330.2935 L 236.9141 341.8441 C 236.9141 344.8202 238.0951 346.3081 240.4574 346.3081 C 241.3874 346.3081 242.3453 346.0384 243.3312 345.4991 L 243.3312 352.0276 Z" fill="none" fill-opacity="1" stroke="#000000" stroke-opacity="1" stroke-width="0.5291666" stroke-linecap="round" stroke-linejoin="round"/>
<path d="M 252.7614 319.2729 C 251.2733 319.2729 250.055 318.8312 249.1064 317.9477 C 248.1578 317.0642 247.6835 315.9808 247.6835 314.6973 C 247.6835 313.3768 248.1578 312.2979 249.1064 311.4609 C 250.055 310.6239 251.2733 310.2054 252.7614 310.2054 C 254.2679 310.2054 255.4909 310.6239 256.4302 311.4609 C 257.3695 312.2979 257.8392 313.3768 257.8392 314.6973 C 257.8392 316.0366 257.3695 317.134 256.4302 317.9896 C 255.4909 318.8452 254.2679 319.2729 252.7614 319.2729 Z M 257.1138 352.3624 L 248.2973 352.3624 L 248.2973 323.7928 L 257.1138 323.7928 L 257.1138 352.3624 Z" fill="none" fill-opacity="1" stroke="#000000" stroke-opacity="1" stroke-width="0.5291666" stroke-linecap="round" stroke-linejoin="round"/>
<path d="M 278.1505 353.0599 C 273.3888 353.0599 269.6456 351.7254 266.9207 349.0562 C 264.1958 346.3871 262.8333 342.7648 262.8333 338.1892 C 262.8333 333.4648 264.2469 329.768 267.0742 327.0989 C 269.9014 324.4298 273.7236 323.0952 278.5411 323.0952 C 283.2841 323.0952 287.0041 324.4298 289.7011 327.0989 C 292.3981 329.768 293.7467 333.2973 293.7467 337.687 C 293.7467 342.4299 292.3563 346.1779 289.5756 348.9307 C 286.7949 351.6835 282.9865 353.0599 278.1505 353.0599 Z M 278.3737 329.8471 C 276.2905 329.8471 274.6723 330.5631 273.5191 331.9953 C 272.3659 333.4276 271.7893 335.455 271.7893 338.0775 C 271.7892 343.5646 274.0026 346.308 278.4294 346.308 C 282.6517 346.308 284.7628 343.4902 284.7628 337.8543 C 284.7628 332.5161 282.6331 329.8471 278.3737 329.8471 Z" fill="none" fill-opacity="1" stroke="#000000" stroke-opacity="1" stroke-width="0.5291666" stroke-linecap="round" stroke-linejoin="round"/>
<path d="M 327.0594 352.3624 L 318.2708 352.3624 L 318.2708 336.4873 C 318.2708 332.0605 316.6898 329.8471 313.5279 329.8471 C 312.0027 329.8471 310.7472 330.4329 309.7613 331.6047 C 308.7755 332.7766 308.2826 334.2645 308.2826 336.0687 L 308.2826 352.3624 L 299.4662 352.3624 L 299.4662 323.7927 L 308.2826 323.7927 L 308.2826 328.3125 L 308.3942 328.3125 C 310.4961 324.8343 313.5558 323.0952 317.5734 323.0952 C 323.8974 323.0952 327.0594 327.0198 327.0594 334.869 L 327.0594 352.3624 Z" fill="none" fill-opacity="1" stroke="#000000" stroke-opacity="1" stroke-width="0.5291666" stroke-linecap="round" stroke-linejoin="round"/>
<path d="M 332.1651 351.6091 L 332.1651 344.4667 C 333.6159 345.3409 335.062 345.9919 336.5035 346.4197 C 337.945 346.8475 339.3074 347.0614 340.5909 347.0614 C 342.1533 347.0614 343.3855 346.8475 344.2876 346.4197 C 345.1898 345.9919 345.6408 345.3409 345.6408 344.4667 C 345.6408 343.9086 345.4362 343.4437 345.027 343.0717 C 344.6178 342.6997 344.0923 342.3742 343.4506 342.0952 C 342.8089 341.8162 342.1068 341.5651 341.3442 341.3419 C 340.5815 341.1187 339.8469 340.8676 339.1401 340.5886 C 338.0054 340.1608 337.0057 339.7004 336.1408 339.2075 C 335.2759 338.7146 334.5505 338.1427 333.9646 337.4917 C 333.3787 336.8407 332.9323 336.0873 332.6254 335.2318 C 332.3185 334.3762 332.1651 333.3625 332.1651 332.1906 C 332.1651 330.591 332.5138 329.2146 333.2113 328.0614 C 333.9088 326.9082 334.8388 325.9642 336.0013 325.2296 C 337.1638 324.4949 338.4937 323.9555 339.991 323.6114 C 341.4883 323.2673 343.0461 323.0952 344.6643 323.0952 C 345.9291 323.0952 347.2125 323.1929 348.5146 323.3882 C 349.8166 323.5835 351.0999 323.8672 352.3647 324.2392 L 352.3647 331.0467 C 351.2487 330.3957 350.0536 329.9075 348.7795 329.582 C 347.5054 329.2565 346.2546 329.0937 345.027 329.0937 C 344.4504 329.0937 343.9063 329.1448 343.3948 329.2472 C 342.8833 329.3495 342.4323 329.4983 342.0417 329.6936 C 341.6511 329.8889 341.3442 330.14 341.121 330.4469 C 340.8978 330.7538 340.7861 331.1026 340.7861 331.4931 C 340.7861 332.0139 340.9536 332.4604 341.2884 332.8324 C 341.6232 333.2044 342.0602 333.5252 342.5997 333.7949 C 343.1391 334.0646 343.739 334.3064 344.3993 334.5203 C 345.0595 334.7342 345.7152 334.9528 346.3662 335.1759 C 347.538 335.5852 348.5982 336.0316 349.5468 336.5152 C 350.4954 336.9987 351.3091 337.5661 351.988 338.2171 C 352.667 338.8681 353.1877 339.6306 353.5505 340.5049 C 353.9131 341.3791 354.0946 342.4207 354.0946 343.6296 C 354.0946 345.3223 353.7272 346.7685 352.9925 347.9681 C 352.2578 349.1678 351.2813 350.1443 350.063 350.8976 C 348.8447 351.6509 347.4404 352.1996 345.8501 352.5437 C 344.2597 352.8878 342.609 353.0599 340.8978 353.0599 C 337.7544 353.0599 334.8435 352.5763 332.1651 351.6091 Z" fill="none" fill-opacity="1" stroke="#000000" stroke-opacity="1" stroke-width="0.5291666" stroke-linecap="round" stroke-linejoin="round"/>
</svg>