<?xml version="1.0" encoding="utf-8"?>
<!-- Generator: Adobe Illustrator 26.1.0, SVG Export Plug-In . SVG Version: 6.00 Build 0)  -->
<svg version="1.1" id="Layer_1" xmlns="http://www.w3.org/2000/svg" xmlns:xlink="http://www.w3.org/1999/xlink" x="0px" y="0px"
	 viewBox="0 0 4280.3 1133.9" style="enable-background:new 0 0 4280.3 1133.9;" xml:space="preserve">
<style type="text/css">
	.st0{fill:none;stroke:#000000;stroke-miterlimit:10;}
</style>
<g>
	<path class="st0" d="M435.2,255.6h425.2c11,0,19.8,8.9,19.8,19.8v170.1c0,11-8.9,19.8-19.8,19.8H435.2c-11,0-19.8-8.9-19.8-19.8
		V275.5C415.3,264.5,424.2,255.6,435.2,255.6z"/>
	<circle class="st0" cx="647.8" cy="360.5" r="39.7"/>
</g>
<g>
	<path class="st0" d="M379.7,451.2h-70.9c-1.6,0-2.8-1.3-2.8-2.8V272.6c0-1.6,1.3-2.8,2.8-2.8h70.9c1.6,0,2.8,1.3,2.8,2.8v175.7
		C382.5,449.9,381.3,451.2,379.7,451.2z"/>
	<path class="st0" d="M351.4,367.6h-14.2c-3.9,0-7.1-3.2-7.1-7.1l0,0c0-3.9,3.2-7.1,7.1-7.1h14.2c3.9,0,7.1,3.2,7.1,7.1l0,0
		C358.5,364.4,355.3,367.6,351.4,367.6z"/>
</g>
</svg>
