<?xml version="1.0" encoding="utf-8"?>
<!-- Generator: Adobe Illustrator 25.3.0, SVG Export Plug-In . SVG Version: 6.00 Build 0)  -->
<svg version="1.1" id="Layer_1" xmlns="http://www.w3.org/2000/svg" xmlns:xlink="http://www.w3.org/1999/xlink" x="0px" y="0px"
	 viewBox="0 0 864 864" style="enable-background:new 0 0 864 864;" xml:space="preserve">
<style type="text/css">
	.st0{fill:none;stroke:#000000;stroke-width:1;stroke-linecap:round;stroke-linejoin:round;stroke-miterlimit:11.3386;}
</style>
<path class="st0" d="M217.1,270.6v-63.8h92.1h92.1v63.8v63.8h-92.1h-92.1V270.6z M269,322v-6.9h-18.3h-18.3v6.9v6.9h18.3H269V322z
	 M349.8,328.2c0-2.8-0.2-8.2-0.2-9.5l-0.1-1.6h-13.9h-13.9v2.6c0,1.4,0,4,0.1,5.8l0.1,3.2l13.9,0l13.9,0L349.8,328.2z M387,327.3
	c0-0.8-0.1-3.4-0.1-5.8l-0.1-4.4h-13.9H359l0.1,1.4c0,0.8,0.1,3.4,0.1,5.8l0,4.4h14h14L387,327.3z M349.7,303.4
	c-0.1-4.1-0.2-8.4-0.2-9.6l-0.1-1.5h-13.9h-13.9v2.7c0,1.5,0,4.1,0.1,5.8l0.1,3.1l13.9,0l13.9,0L349.7,303.4z M304.9,282.2v-18.3
	l-22.5,0l-22.5,0l0,18.1c0,9.9,0,18.2,0,18.3l0,0.2h22.5h22.5V282.2z M356.9,278v-9.8h-21h-21v9.8v9.8h21h21V278z M387,258.9
	c0-0.7-0.1-3.3-0.1-5.8l-0.1-4.5h-13.9H359l0.1,1.4c0,0.8,0.1,3.4,0.1,5.8l0,4.4h14h14L387,258.9z M342.1,254.5v-5.4h-8.3h-8.3v5.4
	v5.4h8.3h8.3V254.5z"/>
</svg>
