<?xml version="1.0" encoding="UTF-8" standalone="no"?>
<!-- Created with Inkscape (http://www.inkscape.org/) -->

<svg
   xmlns:dc="http://purl.org/dc/elements/1.1/"
   xmlns:cc="http://creativecommons.org/ns#"
   xmlns:rdf="http://www.w3.org/1999/02/22-rdf-syntax-ns#"
   xmlns:svg="http://www.w3.org/2000/svg"
   xmlns="http://www.w3.org/2000/svg"
   xmlns:sodipodi="http://sodipodi.sourceforge.net/DTD/sodipodi-0.dtd"
   xmlns:inkscape="http://www.inkscape.org/namespaces/inkscape"
   width="1200mm"
   height="297mm"
   viewBox="0 0 1200 297"
   version="1.1"
   id="svg8"
   inkscape:version="0.92.3 (2405546, 2018-03-11)"
   sodipodi:docname="pullouthdd.svg">
  <defs
     id="defs2" />
  <sodipodi:namedview
     id="base"
     pagecolor="#ffffff"
     bordercolor="#666666"
     borderopacity="1.0"
     inkscape:pageopacity="0.0"
     inkscape:pageshadow="2"
     inkscape:zoom="0.35"
     inkscape:cx="720.17559"
     inkscape:cy="560"
     inkscape:document-units="mm"
     inkscape:current-layer="layer1"
     showgrid="false"
     inkscape:window-width="1680"
     inkscape:window-height="903"
     inkscape:window-x="0"
     inkscape:window-y="28"
     inkscape:window-maximized="1" />
  <metadata
     id="metadata5">
    <rdf:RDF>
      <cc:Work
         rdf:about="">
        <dc:format>image/svg+xml</dc:format>
        <dc:type
           rdf:resource="http://purl.org/dc/dcmitype/StillImage" />
        <dc:title></dc:title>
      </cc:Work>
    </rdf:RDF>
  </metadata>
  <g
     inkscape:label="Layer 1"
     inkscape:groupmode="layer"
     id="layer1">
    <path
       style="color:#000000;font-style:normal;font-variant:normal;font-weight:normal;font-stretch:normal;font-size:19.7555542px;line-height:0px;font-family:sans-serif;font-variant-ligatures:normal;font-variant-position:normal;font-variant-caps:normal;font-variant-numeric:normal;font-variant-alternates:normal;font-feature-settings:normal;text-indent:0;text-align:start;text-decoration:none;text-decoration-line:none;text-decoration-style:solid;text-decoration-color:#000000;letter-spacing:0px;word-spacing:0px;text-transform:none;writing-mode:lr-tb;direction:ltr;text-orientation:mixed;dominant-baseline:auto;baseline-shift:baseline;text-anchor:start;white-space:normal;shape-padding:0;clip-rule:nonzero;display:inline;overflow:visible;visibility:visible;opacity:1;isolation:auto;mix-blend-mode:normal;color-interpolation:sRGB;color-interpolation-filters:linearRGB;solid-color:#000000;solid-opacity:1;vector-effect:none;fill:#000000;fill-opacity:1;fill-rule:nonzero;stroke:none;stroke-width:0.26499999;stroke-linecap:butt;stroke-linejoin:miter;stroke-miterlimit:4;stroke-dasharray:none;stroke-dashoffset:0;stroke-opacity:1;color-rendering:auto;image-rendering:auto;shape-rendering:auto;text-rendering:auto;enable-background:accumulate"
       d="m 45.515993,4.6715955 v 0.130859 19.4316415 h 4.70508 V 4.6715955 Z m 8.73047,0 v 0.130859 19.4316415 h 4.70508 V 4.6715955 Z m 138.683597,0 v 7.2832035 c -0.56439,-0.684952 -1.163,-1.2671 -1.83984,-1.613281 h -0.002 c -0.75651,-0.3991365 -1.6272,-0.5976565 -2.60351,-0.5976565 -1.74673,0 -3.19761,0.7052965 -4.31836,2.0957035 -1.12117,1.382493 -1.67969,3.163973 -1.67969,5.328125 0,2.164151 0.55876,3.951166 1.67969,5.341797 1.12086,1.382109 2.57184,2.083984 4.31836,2.083984 0.98474,0 1.86027,-0.194725 2.61718,-0.585937 0.66986,-0.346218 1.26469,-0.933831 1.82813,-1.625 v 1.851562 h 4.72852 V 4.6715955 Z m 51.2207,0 v 0.130859 3.753907 h 4.70508 V 4.6715955 Z M 45.779673,4.9352675 h 4.17578 V 23.968471 h -4.17578 z m 8.73242,0 h 4.17383 V 23.968471 h -4.17383 z m 138.681637,0 h 4.20117 V 23.968471 h -4.20117 v -2.27539 l -0.23828,0.320312 c -0.60249,0.806034 -1.26183,1.390352 -1.97656,1.759766 -0.71484,0.369464 -1.54412,0.554687 -2.49414,0.554687 -1.67653,0 -3.03479,-0.654505 -4.11328,-1.984375 -1.07842,-1.337885 -1.61914,-3.05699 -1.61914,-5.175781 0,-2.118791 0.54096,-3.832624 1.61914,-5.162109 1.07859,-1.338109 2.43696,-1.998047 4.11328,-1.998047 0.94122,0 1.76561,0.190853 2.48047,0.568359 h 0.002 c 0.72329,0.369682 1.38599,0.950419 1.98828,1.748047 l 0.23828,0.316406 v -0.396484 z m 51.22266,0 h 4.17383 v 3.357422 h -4.17383 z M 80.598033,5.1169085 c -2.99364,0 -5.36758,0.863083 -7.08984,2.59375 -1.7141,1.730904 -2.56837,4.1242025 -2.56837,7.1503905 0,3.017989 0.85434,5.407844 2.56837,7.138672 1.72226,1.730667 4.0962,2.59375 7.08984,2.59375 3.00183,0 5.37375,-0.862806 7.08789,-2.59375 1.71402,-1.730828 2.56836,-4.120683 2.56836,-7.138672 0,-3.026188 -0.85426,-5.4194865 -2.56836,-7.1503905 -1.71414,-1.730945 -4.08606,-2.59375 -7.08789,-2.59375 z m 0,0.265625 c 2.95129,0 5.24109,0.840059 6.90039,2.515625 1.65934,1.675606 2.49219,3.9863445 2.49219,6.9628905 0,2.96821 -0.83278,5.27549 -2.49219,6.951172 -1.6593,1.675566 -3.9491,2.515625 -6.90039,2.515625 -2.94226,0 -5.23278,-0.840565 -6.90039,-2.515625 -1.65942,-1.675682 -2.49219,-3.982962 -2.49219,-6.951172 0,-2.976546 0.83285,-5.2872845 2.49219,-6.9628905 1.66761,-1.67506 3.95813,-2.515625 6.90039,-2.515625 z m -71.5957071,0.07031 v 0.130859 18.6503915 h 5.0410151 v -6.425781 h 3.017578 c 2.375974,0 4.215814,-0.524033 5.503904,-1.591797 1.29595,-1.075718 1.94531,-2.620008 1.94531,-4.591797 0,-1.9630135 -0.65003,-3.4990635 -1.94531,-4.5664065 -1.28804,-1.076191 -3.12778,-1.605469 -5.503904,-1.605469 z m 123.6757841,0 v 0.130859 18.6503915 h 5.04101 v -7.851562 h 6.7793 v 7.851562 h 5.03906 V 5.4528435 h -5.03906 v 7.0566415 h -6.7793 V 5.4528435 Z m 78.03711,0 v 0.130859 18.6503915 h 5.16797 c 2.78443,0 4.87561,-0.198277 6.2871,-0.601562 1.40791,-0.410639 2.61926,-1.104015 3.62696,-2.078125 0.88122,-0.847654 1.53819,-1.828177 1.96679,-2.9375 0.4284,-1.117193 0.64063,-2.38231 0.64063,-3.792969 0,-1.394282 -0.21218,-2.646931 -0.64063,-3.755859 -0.4286,-1.1093245 -1.08557,-2.0898475 -1.96679,-2.9375005 -0.99914,-0.97395 -2.20233,-1.663939 -3.60156,-2.066407 h -0.002 c -1.39608,-0.411841 -3.49385,-0.611328 -6.31054,-0.611328 z M 9.2679509,5.7165175 h 7.7929681 c 2.336764,0 4.108484,0.520983 5.333984,1.544922 h 0.002 c 1.23397,1.016209 1.84766,2.457394 1.84766,4.3632815 0,1.914279 -0.61548,3.362307 -1.84961,4.386719 -1.22545,1.01583 -2.99707,1.533203 -5.333987,1.533203 h -3.283203 v 6.423828 H 9.2679979 Z m 123.6757791,0 h 4.50977 v 7.0566415 h 7.31054 V 5.7165175 h 4.50977 V 23.968471 h -4.50977 v -7.849609 h -7.31054 v 7.849609 h -4.50977 z m 78.03516,0 h 4.9043 c 2.80483,0 4.88735,0.205326 6.23632,0.603516 h 0.002 c 1.36159,0.391355 2.52195,1.058087 3.49023,2.001953 h 0.002 c 0.85511,0.822528 1.48759,1.7683085 1.90235,2.8417975 0.41491,1.073883 0.62304,2.29285 0.62304,3.660156 0,1.384002 -0.20808,2.617062 -0.62304,3.699219 -0.41477,1.072858 -1.04765,2.019658 -1.90235,2.841796 -0.97667,0.944119 -2.14735,1.614024 -3.51757,2.013672 -1.36663,0.390465 -3.44108,0.589844 -6.21289,0.589844 h -4.9043 z m -99.07422,0.417969 v 3.9433595 h -2.20703 v 3.439453 h 2.20703 v 5.759766 c 0,1.771198 0.36627,3.052896 1.13086,3.826172 0.77327,0.764587 2.05497,1.130859 3.82617,1.130859 h 3.93945 v -3.439453 h -2.41406 c -0.74674,0 -1.22774,-0.122517 -1.43555,-0.302734 -0.21034,-0.190823 -0.34179,-0.588409 -0.34179,-1.214844 v -5.759766 h 4.57617 v -3.439453 h -4.57617 V 6.1344865 h -0.13282 z m 0.26562,0.263672 h 4.17383 v 3.9453125 h 4.57813 v 2.910156 h -4.57813 v 6.023438 c 0,0.662475 0.12796,1.139577 0.42969,1.412109 v 0.002 h 0.002 c 0.30527,0.265879 0.83769,0.367188 1.61133,0.367188 h 2.15039 v 2.910156 h -3.67578 c -1.73362,0 -2.94004,-0.362819 -3.63867,-1.052734 -0.69062,-0.69847 -1.05274,-1.904141 -1.05274,-3.638672 v -6.023438 h -2.20703 v -2.910156 h 2.20703 z m -31.572257,2.179687 c -1.48783,0 -2.6672,0.560361 -3.49219,1.6660165 -0.825,1.105671 -1.23047,2.647732 -1.23047,4.617187 0,1.961265 0.40557,3.501882 1.23047,4.607422 0.82499,1.105655 2.00436,1.664063 3.49219,1.664063 1.49591,0 2.67879,-0.558233 3.5039,-1.664063 0.82491,-1.10554 1.22852,-2.646157 1.22852,-4.607422 0,-1.969455 -0.40351,-3.511516 -1.22852,-4.617187 -0.82511,-1.1058305 -2.00799,-1.6660165 -3.5039,-1.6660165 z m 0,0.263672 c 1.43104,0 2.5121,0.516637 3.29101,1.5605475 0.77904,1.044069 1.17774,2.525835 1.17774,4.458984 0,1.924804 -0.3986,3.403067 -1.17774,4.447266 -0.77891,1.04391 -1.85997,1.560547 -3.29101,1.560547 -1.42259,0 -2.50025,-0.516462 -3.2793,-1.560547 -0.77913,-1.044199 -1.17773,-2.522462 -1.17773,-4.447266 0,-1.933149 0.3987,-3.414915 1.17773,-4.458984 0.77905,-1.0440855 1.85671,-1.5605475 3.2793,-1.5605475 z m -66.820317,0.07031 v 0.132812 5.3046885 h 2.773438 c 0.947336,0 1.699877,-0.229964 2.234379,-0.703126 v -0.002 c 0.53402,-0.481496 0.80078,-1.165766 0.80078,-2.019531 0,-0.853764 -0.26603,-1.536374 -0.80078,-2.0097665 -0.534502,-0.473161 -1.287043,-0.703124 -2.234379,-0.703124 z m 201.710934,0.148437 v 0.132813 11.4316405 h 1.84375 c 1.9732,0 3.50087,-0.492103 4.55664,-1.488281 1.0634,-0.996049 1.5918,-2.444627 1.5918,-4.3125 0,-1.860217 -0.52402,-3.30114 -1.58008,-4.289063 -1.05601,-0.9878855 -2.58717,-1.4746095 -4.56836,-1.4746095 z m -201.445309,0.11719 h 2.507813 c 0.904747,0 1.584367,0.216912 2.058589,0.636719 0.47397,0.4195785 0.71094,1.0106665 0.71094,1.8105475 0,0.798848 -0.23746,1.394376 -0.71094,1.822266 -4.1e-4,3.63e-4 -0.002,-3.63e-4 -0.002,0 -0.474164,0.419092 -1.152672,0.636718 -2.056635,0.636718 h -2.507767 z m 201.710939,0.148438 h 1.57812 c 1.93796,0 3.39222,0.472 4.38672,1.4023445 0.99447,0.930306 1.4961,2.284826 1.4961,4.095703 0,1.819058 -0.50495,3.182411 -1.50782,4.121094 -0.99474,0.938587 -2.44559,1.414062 -4.375,1.414062 h -1.57812 z m -55.94336,0.417969 c -0.96483,0 -1.92985,0.0608 -2.89453,0.185547 -0.96374,0.1163905 -1.92367,0.2928115 -2.87891,0.5253905 l -0.10156,0.02344 v 3.71289 l 0.19531,-0.105468 c 0.69199,-0.37449 1.44227,-0.656096 2.25,-0.84375 0.80754,-0.18761 1.68104,-0.28125 2.62305,-0.28125 1.16165,0 2.00679,0.166952 2.52539,0.476562 0.5178,0.301407 0.76562,0.755843 0.76562,1.423828 v 0.214844 h -2.48437 c -2.4118,0 -4.19674,0.378895 -5.35742,1.164062 -1.15258,0.785462 -1.73242,2.034252 -1.73242,3.69336 0,1.368897 0.46243,2.503691 1.38085,3.371094 l 0.002,0.002 c 0.92702,0.858982 2.1353,1.287109 3.59961,1.287109 1.08235,0 2.0084,-0.193923 2.77539,-0.585937 h 0.002 c 0.6766,-0.353334 1.26376,-0.957814 1.81445,-1.667969 v 1.894531 h 4.74219 v -8.058594 c 0,-2.246319 -0.56539,-3.893488 -1.71875,-4.910156 -1.14491,-1.025298 -2.98505,-1.5214845 -5.50781,-1.5214845 z m 20.31445,0 c -1.05155,0 -1.96343,0.213786 -2.73047,0.6484375 -0.66636,0.374361 -1.23415,1.023303 -1.76171,1.78125 v -2.095703 h -4.70508 v 14.15625 h 4.70508 v -6.533203 c 0,-1.343643 0.30181,-2.354438 0.88671,-3.050781 0.59432,-0.70525 1.42653,-1.058594 2.53907,-1.058594 0.37827,0 0.75263,0.04424 1.12304,0.132813 l 0.002,0.002 h 0.002 c 0.37805,0.08044 0.75649,0.208739 1.13672,0.386718 l 0.18945,0.08984 v -0.21098 l -0.0138,-4.1347665 -0.11523,-0.01367 c -0.33249,-0.04156 -0.58746,-0.0676 -0.76758,-0.07617 l 0.008,0.002 c -0.17719,-0.01688 -0.34431,-0.02539 -0.49805,-0.02539 z m 60.67383,0 c -1.05155,0 -1.96539,0.213786 -2.73242,0.6484375 -0.66705,0.374749 -1.23376,1.024079 -1.76172,1.783203 v -2.097656 h -4.70508 v 14.15625 h 4.70508 v -6.533203 c 0,-1.343642 0.30182,-2.354438 0.88672,-3.050781 0.59431,-0.70525 1.42848,-1.058594 2.54101,-1.058594 0.37827,0 0.75069,0.04424 1.1211,0.132813 l 0.002,0.002 h 0.002 c 0.37806,0.08044 0.75649,0.208739 1.13672,0.386718 l 0.18946,0.08984 v -0.21098 l -0.0138,-4.1347665 -0.11523,-0.01367 c -0.33248,-0.04156 -0.5855,-0.0676 -0.76563,-0.07617 l 0.006,0.002 c -0.17719,-0.01688 -0.34235,-0.02539 -0.49609,-0.02539 z m 35.44531,0 c -2.42169,0 -4.34558,0.6578425 -5.74609,1.9824225 -1.39214,1.324646 -2.08789,3.149314 -2.08789,5.441406 0,2.333431 0.70682,4.172026 2.125,5.480469 h 0.002 c 1.42657,1.299947 3.41916,1.945312 5.95508,1.945312 1.05811,0 2.11619,-0.104431 3.17383,-0.3125 1.05798,-0.199934 2.11693,-0.49898 3.17383,-0.898437 l 0.0859,-0.0332 v -3.738282 l -0.19726,0.107422 c -1.02617,0.558235 -2.02478,0.97583 -2.99805,1.253906 -0.96508,0.269897 -1.90671,0.404297 -2.82812,0.404297 -1.13768,0 -2.00632,-0.255402 -2.6211,-0.751953 -0.58052,-0.46888 -0.91533,-1.176359 -1.04101,-2.109375 h 10.34179 v -1.396484 c 0,-2.22575 -0.66899,-4.024463 -2.00976,-5.365235 -1.33239,-1.340821 -3.11871,-2.0097655 -5.32813,-2.0097655 z m 15.88672,0 c -2.09866,0 -3.671,0.3540235 -4.71484,1.0898435 -1.04391,0.735871 -1.56836,1.880797 -1.56836,3.382813 0,1.389955 0.41064,2.454022 1.23828,3.152344 0.82901,0.699475 2.2341,1.156641 4.22266,1.40625 l 0.78125,0.09961 h 0.002 c 0.89342,0.106555 1.48474,0.267174 1.74023,0.4375 l 0.002,0.002 h 0.002 c 0.27083,0.168351 0.39453,0.406702 0.39453,0.769531 0,0.430222 -0.18174,0.726988 -0.58789,0.949219 -0.40589,0.222092 -1.04052,0.34375 -1.89648,0.34375 -0.94922,0 -1.88394,-0.105607 -2.8086,-0.318359 -0.91614,-0.212676 -1.81329,-0.533186 -2.68945,-0.958984 l -0.18945,-0.0918 v 3.685547 l 0.0957,0.02734 c 1.03859,0.290805 2.04943,0.506989 3.03125,0.648438 0.98994,0.149739 1.94616,0.224609 2.87109,0.224609 2.18145,0 3.83582,-0.371545 4.96094,-1.138672 1.12519,-0.767173 1.69531,-1.934683 1.69531,-3.447265 0,-1.438405 -0.40354,-2.521471 -1.22461,-3.212891 -0.82611,-0.695675 -2.37306,-1.166266 -4.65625,-1.457031 h -0.002 l -0.78125,-0.111328 h -0.002 c -0.79277,-0.0899 -1.33938,-0.235391 -1.61914,-0.404297 h -0.002 c -0.27258,-0.170374 -0.39453,-0.38859 -0.39453,-0.705078 0,-0.397383 0.16378,-0.660131 0.53516,-0.84961 h 0.002 c 0.38069,-0.197959 0.99212,-0.30664 1.82422,-0.30664 0.77432,0 1.60003,0.09636 2.47656,0.292968 0.87619,0.196528 1.78586,0.492447 2.73047,0.886719 l 0.1836,0.07617 v -3.675781 l -0.0996,-0.02539 c -1.0622,-0.265548 -2.04818,-0.459181 -2.95508,-0.5839845 -0.90661,-0.124762 -1.77241,-0.1875 -2.59766,-0.1875 z M 159.81092,10.007534 c 2.48778,0 4.26106,0.496001 5.33203,1.455078 1.07906,0.95117 1.63086,2.510902 1.63086,4.71289 v 7.792969 h -4.21289 v -2.34375 l -0.24023,0.341797 c -0.58585,0.829943 -1.24077,1.429529 -1.9629,1.806641 -0.72129,0.368663 -1.60344,0.554687 -2.65429,0.554687 -1.41304,0 -2.54447,-0.405596 -3.41992,-1.216797 -0.86752,-0.819316 -1.29688,-1.867725 -1.29688,-3.177734 0,-1.598575 0.53539,-2.738717 1.61523,-3.47461 1.08828,-0.736187 2.82521,-1.117187 5.20899,-1.117187 h 2.75 v -0.480469 c 0,-0.737075 -0.30719,-1.306794 -0.89649,-1.65039 -0.58934,-0.351849 -1.47362,-0.515625 -2.66015,-0.515625 -0.95968,0 -1.85402,0.09633 -2.68359,0.289062 -0.7595,0.176449 -1.45664,0.456206 -2.11915,0.794922 v -3.085937 c 0.91245,-0.21814 1.82814,-0.388977 2.74805,-0.5 h 0.002 c 0.95355,-0.123304 1.90598,-0.185547 2.85938,-0.185547 z m 20.31445,0 c 0.14392,0 0.30258,0.0092 0.47266,0.02539 h 0.002 0.004 c 0.14132,0.0067 0.37335,0.03208 0.63086,0.0625 l 0.0117,3.712891 c -0.33303,-0.142404 -0.66744,-0.268378 -1.00196,-0.339844 -0.39026,-0.09332 -0.7866,-0.140625 -1.18554,-0.140625 -1.1695,0 -2.09627,0.383896 -2.74219,1.150391 -0.6381,0.758825 -0.94922,1.83859 -0.94922,3.222656 v 6.267578 h -4.17578 v -13.625 h 4.17578 v 2.609375 l 0.24414,-0.390625 c 0.56168,-0.895436 1.19966,-1.539203 1.91211,-1.939453 h 0.002 c 0.72125,-0.408708 1.5841,-0.615234 2.59961,-0.615234 z m 60.67383,0 c 0.14392,0 0.30063,0.0092 0.4707,0.02539 h 0.004 0.002 c 0.14133,0.0067 0.37335,0.03208 0.63086,0.0625 l 0.0117,3.712891 c -0.33303,-0.142404 -0.66744,-0.268378 -1.00195,-0.339844 -0.39027,-0.09332 -0.78465,-0.140625 -1.1836,-0.140625 -1.1695,0 -2.09821,0.383896 -2.74414,1.150391 -0.6381,0.758825 -0.94922,1.83859 -0.94922,3.222656 v 6.267578 h -4.17382 v -13.625 h 4.17382 v 2.609375 l 0.2461,-0.390625 c 0.56168,-0.895436 1.19966,-1.539203 1.91211,-1.939453 0.72125,-0.408708 1.58605,-0.615234 2.60156,-0.615234 z m 35.44531,0 c 2.15622,0 3.86026,0.645118 5.14063,1.933593 1.28852,1.288525 1.93164,3.004786 1.93164,5.177735 v 1.132812 h -10.39453 l 0.0156,0.146485 c 0.11003,1.066464 0.50202,1.887825 1.17774,2.433593 0.67506,0.545247 1.60968,0.810547 2.78711,0.810547 0.9472,0 1.91417,-0.138256 2.90039,-0.414062 v -0.002 c 0.93089,-0.265969 1.88596,-0.680228 2.85742,-1.19336 v 3.125 c -1.01463,0.37823 -2.02937,0.671734 -3.04297,0.863281 -1.04185,0.20509 -2.08363,0.306641 -3.125,0.306641 -2.49117,0 -4.40925,-0.628333 -5.77734,-1.875 -1.35995,-1.254708 -2.04102,-3.004915 -2.04102,-5.285156 0,-2.238898 0.66949,-3.976469 2.00586,-5.248047 1.34454,-1.271644 3.19058,-1.912109 5.56445,-1.912109 z m 15.88672,0 c 0.81186,0 1.66663,0.06226 2.5625,0.185547 0.86452,0.11897 1.81161,0.310774 2.82422,0.560546 v 3.083985 c -0.88992,-0.360838 -1.75758,-0.654682 -2.5918,-0.841797 -0.89287,-0.20027 -1.73656,-0.300781 -2.5332,-0.300781 -0.85462,0 -1.50113,0.105902 -1.94726,0.33789 -0.43716,0.224126 -0.67969,0.605941 -0.67969,1.083985 0,0.393537 0.18411,0.721925 0.52148,0.93164 h 0.002 c 0.34808,0.210679 0.91734,0.347561 1.72461,0.439453 l 0.78125,0.113282 h 0.002 c 2.26311,0.288033 3.77495,0.767516 4.51953,1.394531 0.7499,0.631496 1.13086,1.622388 1.13086,3.011719 0,1.447443 -0.5205,2.507407 -1.57813,3.228515 -1.05769,0.721155 -2.66139,1.091797 -4.8125,1.091797 -0.91061,0 -1.85413,-0.07279 -2.83203,-0.220703 h -0.002 c -0.93785,-0.135114 -1.90539,-0.347207 -2.89844,-0.621094 v -3.080078 c 0.83373,0.389769 1.68209,0.708042 2.55274,0.910156 0.94396,0.217196 1.90012,0.326172 2.86914,0.326172 0.88036,0 1.55289,-0.119488 2.02343,-0.376953 0.47029,-0.257326 0.72657,-0.669284 0.72657,-1.181641 0,-0.430256 -0.18148,-0.780101 -0.52149,-0.992187 -9e-5,-5.8e-5 9e-5,-0.0019 0,-0.002 -0.34025,-0.225683 -0.94453,-0.370338 -1.85156,-0.478516 l -0.78125,-0.09766 c -1.96366,-0.246485 -3.32745,-0.707679 -4.08594,-1.347656 -0.75986,-0.641131 -1.14258,-1.610658 -1.14258,-2.949219 0,-1.441473 0.4835,-2.479751 1.45704,-3.166016 0.9736,-0.686315 2.49202,-1.042968 4.56054,-1.042968 z m -264.873047,0.07031 v 8.615235 c 0,1.896539 0.42317,3.361344 1.28516,4.376953 v 0.002 c 0.87037,1.015434 2.14035,1.521484 3.77148,1.521484 0.91988,0 1.76586,-0.195733 2.5293,-0.585937 0.68839,-0.355542 1.32514,-0.942415 1.93945,-1.634766 v 1.861328 h 4.70508 v -14.15625 h -4.70508 v 6.990235 c 0,1.246564 -0.26088,2.205841 -0.76758,2.886718 -0.50706,0.681371 -1.18404,1.011719 -2.07617,1.011719 -0.36139,0 -0.67646,-0.07309 -0.95312,-0.21875 h -0.002 c -0.26906,-0.146331 -0.48572,-0.351741 -0.65625,-0.623047 -0.12175,-0.193357 -0.22262,-0.534007 -0.2793,-1.011719 -0.0566,-0.484732 -0.0859,-1.290376 -0.0859,-2.404297 0,-0.379378 0.005,-1.134938 0.0137,-2.267578 0.008,-1.141226 0.0117,-2.088902 0.0117,-2.841796 v -1.521485 z m 65.98047,0 v 8.615235 c 0,1.896539 0.42317,3.361344 1.28516,4.376953 v 0.002 c 0.87037,1.015434 2.14036,1.521484 3.77148,1.521484 0.91988,0 1.765857,-0.195733 2.529297,-0.585937 0.68839,-0.355542 1.32515,-0.942415 1.93945,-1.634766 v 1.861328 h 4.70508 v -14.15625 h -4.70508 v 6.990235 c 0,1.246564 -0.26087,2.205841 -0.76757,2.886718 -0.50707,0.681371 -1.18405,1.011719 -2.076177,1.011719 -0.36139,0 -0.67645,-0.07309 -0.95312,-0.21875 h -0.002 c -0.26906,-0.146331 -0.48572,-0.351741 -0.65625,-0.623047 -0.12175,-0.193357 -0.22262,-0.534007 -0.2793,-1.011719 -0.0566,-0.484732 -0.0859,-1.290376 -0.0859,-2.404297 0,-0.379378 0.005,-1.134938 0.0137,-2.267578 0.008,-1.141226 0.0117,-2.088902 0.0117,-2.841796 v -1.521485 z m 150.912107,0 v 0.132813 14.023437 h 4.70508 v -14.15625 z m 6.92188,0 0.0703,0.181641 5.49024,13.974609 h 5.05468 l 5.57422,-14.15625 h -4.74023 l -3.35547,9.339844 -3.36719,-9.339844 z M 27.523813,10.343471 h 4.19922 v 1.25586 c 0,0.751923 -0.003,1.699039 -0.0117,2.839843 -0.008,1.132856 -0.0117,1.888233 -0.0117,2.269531 0,1.118502 0.0287,1.926139 0.0879,2.433594 v 0.002 c 0.0591,0.49794 0.15702,0.867966 0.3164,1.121094 0.193,0.307045 0.44672,0.547026 0.75586,0.714844 l 0.002,0.002 c 0.31826,0.16797 0.67954,0.25 1.07813,0.25 0.95995,0 1.73779,-0.378376 2.28906,-1.119141 0.55163,-0.741258 0.82031,-1.761408 0.82031,-3.044921 v -6.72461 h 4.17383 v 13.625 h -4.17383 v -2.24414 l -0.23437,0.283203 c -0.66083,0.799522 -1.35851,1.386893 -2.0918,1.765625 -0.72484,0.370473 -1.52561,0.554687 -2.4082,0.554687 -1.57695,0 -2.75397,-0.477283 -3.57032,-1.429687 -0.80754,-0.952295 -1.22074,-2.348747 -1.22074,-4.205172 z m 65.98047,0 h 4.19922 v 1.25586 c 0,0.751923 -0.003,1.699039 -0.0117,2.839843 -0.008,1.132856 -0.0117,1.888233 -0.0117,2.269531 0,1.118502 0.0287,1.926139 0.0879,2.433594 v 0.002 c 0.0591,0.49794 0.15703,0.867966 0.31641,1.121094 0.193,0.307045 0.44672,0.547026 0.75586,0.714844 l 0.002,0.002 c 0.31826,0.16797 0.67954,0.25 1.07812,0.25 0.959957,0 1.737797,-0.378376 2.289067,-1.119141 0.55163,-0.741258 0.82031,-1.761408 0.82031,-3.044921 v -6.72461 h 4.17383 v 13.625 h -4.17383 v -2.24414 l -0.23438,0.283203 c -0.66083,0.799522 -1.3585,1.386893 -2.09179,1.765625 -0.724837,0.370473 -1.525607,0.554687 -2.408207,0.554687 -1.57694,0 -2.75396,-0.477283 -3.57031,-1.429687 -0.80749,-0.952201 -1.2207,-2.348653 -1.2207,-4.205078 z m 150.912107,0 h 4.17383 v 13.625 h -4.17383 z m 7.04492,0 h 4.15234 l 3.55274,9.857422 3.54101,-9.857422 h 4.16407 l -5.36524,13.625 h -4.69336 z m 24.75781,2.351563 c -0.88495,0 -1.62012,0.254162 -2.18359,0.765625 -0.56445,0.503666 -0.91138,1.230595 -1.04688,2.162109 l -0.0234,0.152344 h 6.05273 v -0.132813 c 0,-0.86934 -0.2599,-1.586276 -0.78125,-2.125 -0.51219,-0.546166 -1.19553,-0.822265 -2.01758,-0.822265 z m 0,0.265625 c 0.76477,0 1.36286,0.243553 1.82617,0.738281 v 0.002 h 0.002 c 0.43859,0.453216 0.62809,1.069969 0.6582,1.808594 h -5.38281 c 0.14635,-0.788494 0.41698,-1.430669 0.88867,-1.851563 h 0.002 c 0.5114,-0.464188 1.17102,-0.697265 2.00586,-0.697265 z m -86.08398,0.0078 c -0.97512,0 -1.74992,0.369417 -2.27735,1.095703 h -0.002 c -0.51922,0.72691 -0.76758,1.764037 -0.76758,3.103516 0,1.339479 0.24836,2.376606 0.76758,3.103515 h 0.002 v 0.002 c 0.52743,0.726286 1.30223,1.095703 2.27735,1.095703 0.98311,0 1.75798,-0.370545 2.27734,-1.097657 0.5272,-0.72683 0.78125,-1.764585 0.78125,-3.103515 0,-1.339755 -0.25338,-2.376619 -0.78125,-3.103516 -0.51936,-0.727112 -1.29423,-1.095703 -2.27734,-1.095703 z m 0,0.263672 c 0.91858,0 1.58968,0.324378 2.0625,0.986328 v 0.002 c 0.48086,0.662166 0.73242,1.641188 0.73242,2.947266 0,1.306078 -0.25156,2.287052 -0.73242,2.949219 -0.47282,0.66195 -1.14392,0.986328 -2.0625,0.986328 -0.91004,0 -1.5812,-0.323552 -2.0625,-0.986328 -0.47297,-0.662153 -0.71875,-1.642865 -0.71875,-2.949219 0,-1.305538 0.24636,-2.285129 0.71875,-2.947266 0.4813,-0.662776 1.15246,-0.988281 2.0625,-0.988281 z m -30.01367,4.486328 c -0.94103,0 -1.66531,0.155777 -2.16993,0.492188 v 0.002 c -0.49608,0.336631 -0.7539,0.852774 -0.7539,1.498047 0,0.591467 0.20459,1.080311 0.60547,1.427734 l 0.002,0.002 c 0.40978,0.338513 0.96776,0.501953 1.6582,0.501953 0.86658,0 1.61223,-0.314964 2.20508,-0.933594 v -0.002 c 0.59312,-0.627506 0.89258,-1.41846 0.89258,-2.347656 v -0.640625 z m 0,0.263672 h 2.17382 v 0.376953 c 0,0.873278 -0.27046,1.58636 -0.81836,2.166016 -0.54816,0.571995 -1.21006,0.851562 -2.01367,0.851562 -0.64822,0 -1.13747,-0.152217 -1.48828,-0.441406 h -0.002 c -0.34194,-0.297307 -0.50977,-0.692622 -0.50977,-1.224609 0,-0.578426 0.20677,-0.987543 0.63672,-1.279297 0.43799,-0.291458 1.11127,-0.449219 2.02149,-0.449219 z"
       id="text817"
       inkscape:connector-curvature="0" />
    <flowRoot
       xml:space="preserve"
       id="flowRoot819"
       style="fill:black;fill-opacity:1;stroke:none;font-family:sans-serif;font-style:normal;font-weight:normal;font-size:74.66666667px;line-height:0px;letter-spacing:0px;word-spacing:0px"><flowRegion
         id="flowRegion821"><rect
           id="rect823"
           width="197.14285"
           height="108.57143"
           x="194.28572"
           y="193.94823" /></flowRegion><flowPara
         id="flowPara825"></flowPara></flowRoot>    <path
       style="color:#000000;font-style:normal;font-variant:normal;font-weight:normal;font-stretch:normal;font-size:19.7555542px;line-height:0px;font-family:sans-serif;font-variant-ligatures:normal;font-variant-position:normal;font-variant-caps:normal;font-variant-numeric:normal;font-variant-alternates:normal;font-feature-settings:normal;text-indent:0;text-align:start;text-decoration:none;text-decoration-line:none;text-decoration-style:solid;text-decoration-color:#000000;letter-spacing:0px;word-spacing:0px;text-transform:none;writing-mode:lr-tb;direction:ltr;text-orientation:mixed;dominant-baseline:auto;baseline-shift:baseline;text-anchor:start;white-space:normal;shape-padding:0;clip-rule:nonzero;display:inline;overflow:visible;visibility:visible;opacity:1;isolation:auto;mix-blend-mode:normal;color-interpolation:sRGB;color-interpolation-filters:linearRGB;solid-color:#000000;solid-opacity:1;vector-effect:none;fill:#000000;fill-opacity:1;fill-rule:nonzero;stroke:none;stroke-width:0.26499999;stroke-linecap:butt;stroke-linejoin:miter;stroke-miterlimit:4;stroke-dasharray:none;stroke-dashoffset:0;stroke-opacity:1;color-rendering:auto;image-rendering:auto;shape-rendering:auto;text-rendering:auto;enable-background:accumulate"
       d="m 339.72064,5.6619047 v 0.132813 19.4316403 h 4.70508 V 5.6619047 Z m 8.73047,0 v 0.132813 19.4316403 h 4.70508 V 5.6619047 Z m 138.6836,0 v 7.2851573 c -0.56412,-0.684654 -1.16338,-1.26708 -1.83985,-1.613282 -0.75689,-0.399707 -1.6265,-0.599609 -2.60351,-0.599609 -1.74673,0 -3.19956,0.705296 -4.32032,2.095704 -1.12116,1.382494 -1.67968,3.165928 -1.67968,5.330079 0,2.164152 0.55875,3.951166 1.67968,5.341794 1.12086,1.38211 2.5738,2.08399 4.32032,2.08399 0.98474,0 1.85832,-0.19473 2.61523,-0.58594 0.66986,-0.34622 1.26468,-0.93383 1.82813,-1.625 v 1.85156 h 4.73046 V 5.6619047 Z m 51.2207,0 v 0.132813 3.7539056 h 4.70508 V 5.6619047 Z m -198.36914,0.265625 h 4.17382 V 24.960738 h -4.17382 z m 8.73046,0 h 4.17579 V 24.960738 h -4.17579 z m 138.6836,0 h 4.19922 V 24.960738 h -4.19922 v -2.275393 l -0.24023,0.318363 c -0.60249,0.80603 -1.25988,1.39035 -1.97461,1.75976 -0.71484,0.36947 -1.54412,0.55664 -2.49414,0.55664 -1.67653,0 -3.03675,-0.6545 -4.11524,-1.98437 -1.07841,-1.337888 -1.61914,-3.056993 -1.61914,-5.175784 0,-2.118791 0.54096,-3.832623 1.61914,-5.16211 1.0786,-1.338109 2.43892,-1.998048 4.11524,-1.998048 0.94122,0 1.76561,0.190853 2.48047,0.568359 h 0.002 c 0.72329,0.369683 1.38599,0.950421 1.98828,1.748048 l 0.23828,0.316406 v -0.396484 z m 51.2207,0 h 4.17579 v 3.355469 h -4.17579 z m -163.81836,0.181641 c -2.99363,0 -5.36757,0.863083 -7.08984,2.59375 -1.7141,1.7309043 -2.56836,4.1242033 -2.56836,7.1503923 0,3.017989 0.85434,5.405891 2.56836,7.136715 v 0.002 c 1.72227,1.73067 4.09621,2.59375 7.08984,2.59375 3.00184,0 5.37571,-0.86475 7.08985,-2.5957 1.71402,-1.730827 2.56836,-4.118729 2.56836,-7.136718 0,-3.026189 -0.85426,-5.419488 -2.56836,-7.1503923 -1.71414,-1.730944 -4.08801,-2.59375 -7.08985,-2.59375 z m 0,0.265625 c 2.95129,0 5.2411,0.840059 6.9004,2.515625 1.65933,1.6756063 2.49218,3.9863453 2.49218,6.9628923 0,2.96821 -0.83277,5.27549 -2.49218,6.951175 -1.6593,1.67556 -3.94911,2.51562 -6.9004,2.51562 -2.94295,0 -5.23268,-0.83978 -6.90039,-2.51562 -1.65941,-1.675685 -2.49218,-3.982965 -2.49218,-6.951175 0,-2.976547 0.83285,-5.287286 2.49218,-6.9628923 1.66771,-1.675843 3.95744,-2.515625 6.90039,-2.515625 z m -71.5957,0.06836 v 0.132813 18.6503893 h 5.04102 V 18.80058 h 3.01757 c 2.37597,0 4.21581,-0.524033 5.50391,-1.591797 1.29594,-1.075718 1.94531,-2.620007 1.94531,-4.591798 0,-1.963014 -0.65003,-3.4990643 -1.94531,-4.5664073 -1.28804,-1.076191 -3.12778,-1.607422 -5.50391,-1.607422 z m 123.67774,0 v 0.132813 18.6503893 h 5.03906 v -7.851559 h 6.7793 v 7.851559 h 5.04101 V 6.4431547 h -5.04101 v 7.0566423 h -6.7793 V 6.4431547 Z m 78.03515,0 v 0.132813 18.6503893 h 5.16797 c 2.78444,0 4.87561,-0.19827 6.28711,-0.60156 1.4079,-0.41064 2.61925,-1.10401 3.62695,-2.078124 0.88123,-0.847654 1.5382,-1.828176 1.9668,-2.9375 0.4284,-1.117192 0.64063,-2.38231 0.64063,-3.792969 0,-1.394282 -0.21218,-2.646932 -0.64063,-3.75586 -0.4286,-1.109325 -1.08557,-2.0898477 -1.9668,-2.9375013 -0.99956,-0.974364 -2.20156,-1.664012 -3.60156,-2.066406 -1.39608,-0.412097 -3.49494,-0.613282 -6.3125,-0.613282 z m -201.44727,0.265624 h 7.79297 c 2.33677,0 4.10848,0.520983 5.33399,1.544922 h 0.002 c 1.23396,1.016209 1.84961,2.4573943 1.84961,4.3632823 0,1.91428 -0.61548,3.362308 -1.84961,4.38672 -1.22545,1.01583 -2.99902,1.533203 -5.33594,1.533203 h -3.2832 v 6.423831 h -4.50977 z m 123.67579,0 h 4.50976 v 7.0566433 h 7.31055 V 6.7087797 h 4.50977 V 24.960738 h -4.50977 v -7.851565 h -7.31055 v 7.851565 h -4.50976 z m 78.03711,0 h 4.90234 c 2.80483,0 4.88931,0.203373 6.23828,0.601563 v 0.002 c 1.36159,0.391355 2.52391,1.056134 3.49219,2 v 0.002 c 0.8551,0.8225283 1.48759,1.7683083 1.90234,2.8417983 0.41491,1.073884 0.625,2.292851 0.625,3.660157 0,1.384002 -0.21003,2.615109 -0.625,3.697266 -0.41475,1.073488 -1.04724,2.019268 -1.90234,2.841797 -0.97667,0.944117 -2.14736,1.615977 -3.51758,2.015627 -1.36664,0.39022 -3.44194,0.58984 -6.21289,0.58984 h -4.90234 z m -99.07617,0.417969 v 3.9433593 h -2.20704 v 3.439455 h 2.20704 v 5.759766 c 0,1.771198 0.36627,3.052899 1.13085,3.826169 0.77328,0.76459 2.05498,1.13086 3.82618,1.13086 h 3.9414 v -3.441404 h -2.41601 c -0.74674,0 -1.22774,-0.122517 -1.43555,-0.302734 -0.21034,-0.190824 -0.3418,-0.586457 -0.3418,-1.212891 v -5.759766 h 4.57813 v -3.439455 h -4.57813 V 7.1267487 h -0.13086 z m 0.26562,0.263672 h 4.17578 v 3.9453123 h 4.57617 v 2.908206 h -4.57617 v 6.02539 c 0,0.662475 0.126,1.139577 0.42774,1.41211 l 0.002,0.002 c 0.30527,0.265878 0.83769,0.367187 1.61133,0.367187 h 2.15039 v 2.910152 h -3.67578 c -1.73453,0 -2.94021,-0.36211 -3.63868,-1.05273 -0.69062,-0.69847 -1.05273,-1.904141 -1.05273,-3.638672 v -6.02539 h -2.20703 V 11.33578 h 2.20703 z m -31.57227,2.1796866 c -1.48783,0 -2.66719,0.5584087 -3.49218,1.6640637 -0.825,1.105672 -1.22852,2.649687 -1.22852,4.619142 0,1.961265 0.40361,3.499929 1.22852,4.605469 0.82499,1.105655 2.00435,1.666016 3.49218,1.666016 1.49592,0 2.67879,-0.560186 3.50391,-1.666016 0.8249,-1.10554 1.23047,-2.644204 1.23047,-4.605469 0,-1.969455 -0.40547,-3.51347 -1.23047,-4.619142 -0.82512,-1.10583 -2.00799,-1.6640637 -3.50391,-1.6640637 z m 0,0.263672 c 1.43104,0 2.51406,0.5146847 3.29297,1.5585947 0.77904,1.04407 1.17579,2.527791 1.17579,4.460939 0,1.924804 -0.39665,3.403067 -1.17579,4.447266 -0.77891,1.04391 -1.86193,1.558594 -3.29297,1.558594 -1.42258,0 -2.50024,-0.514509 -3.27929,-1.558594 -0.77914,-1.044199 -1.17774,-2.522462 -1.17774,-4.447266 0,-1.933148 0.3987,-3.416869 1.17774,-4.460939 0.77905,-1.044085 1.85671,-1.5585947 3.27929,-1.5585947 z m -66.82031,0.07031 v 0.1328127 5.30469 h 2.77539 c 0.94734,0 1.69792,-0.229964 2.23242,-0.703125 v -0.002 h 0.002 c 0.53402,-0.481496 0.79883,-1.165768 0.79883,-2.019533 0,-0.853764 -0.26602,-1.536375 -0.80078,-2.009766 -0.5345,-0.473162 -1.28509,-0.7031257 -2.23242,-0.7031257 z M 509.69525,10.05253 v 0.132813 11.431642 h 1.84375 c 1.9732,0 3.49891,-0.492103 4.55469,-1.488281 1.06419,-0.996083 1.5918,-2.443928 1.5918,-4.3125 0,-1.860216 -0.52403,-3.301141 -1.58008,-4.289064 -1.05602,-0.987885 -2.58522,-1.47461 -4.56641,-1.47461 z m -201.44726,0.117188 h 2.50976 c 0.90475,0 1.58241,0.214958 2.05664,0.634765 0.47397,0.419578 0.71289,1.01262 0.71289,1.812501 0,0.799882 -0.23819,1.394258 -0.71289,1.822267 -0.47423,0.419807 -1.15189,0.636719 -2.05664,0.636719 h -2.50976 z m 201.71094,0.148437 h 1.58007 c 1.93796,0 3.39222,0.472 4.38672,1.402345 0.99447,0.930306 1.4961,2.284827 1.4961,4.095704 0,1.819058 -0.5069,3.180458 -1.50977,4.119141 v 0.002 c -0.99474,0.938587 -2.44364,1.414062 -4.37305,1.414062 h -1.58007 z m -55.94336,0.416016 c -0.96483,0 -1.9279,0.06276 -2.89258,0.1875 -0.96438,0.11639 -1.925,0.290705 -2.88086,0.523437 l -0.0996,0.02539 v 3.712893 l 0.19531,-0.107422 c 0.69199,-0.37449 1.44032,-0.654143 2.24805,-0.841797 0.80754,-0.18761 1.68299,-0.283203 2.625,-0.283203 1.16165,0 2.00484,0.168906 2.52344,0.478515 h 0.002 c 0.5178,0.301407 0.76367,0.755843 0.76367,1.423828 v 0.214844 h -2.48437 c -2.4118,0 -4.19674,0.378896 -5.35743,1.164063 -1.15258,0.785462 -1.73242,2.034252 -1.73242,3.693359 0,1.368898 0.46244,2.50369 1.38086,3.37109 h 0.002 c 0.92702,0.85899 2.1353,1.28907 3.59961,1.28907 1.08235,0 2.00841,-0.19393 2.77539,-0.58594 h 0.002 c 0.67588,-0.35296 1.26421,-0.95698 1.81445,-1.66602 v 1.89258 h 4.74219 v -8.058592 c 0,-2.245044 -0.56476,-3.89335 -1.7168,-4.910158 -1.14491,-1.025299 -2.987,-1.523438 -5.50976,-1.523438 z m 20.3164,0 c -1.05155,0 -1.96539,0.215739 -2.73242,0.65039 -0.66705,0.37475 -1.23375,1.02408 -1.76172,1.783205 v -2.097658 h -4.70508 v 14.15625 h 4.70508 v -6.533201 c 0,-1.344449 0.30113,-2.356351 0.88672,-3.052734 0.59431,-0.70525 1.42848,-1.056641 2.54102,-1.056641 0.37827,0 0.75068,0.04424 1.12109,0.132813 h 0.002 l 0.002,0.002 c 0.37805,0.08044 0.75649,0.208739 1.13671,0.386719 l 0.18946,0.08789 V 14.98422 l -0.0137,-4.134768 -0.11524,-0.01367 c -0.32996,-0.04125 -0.5799,-0.06741 -0.75976,-0.07617 h -0.006 c -0.17483,-0.01648 -0.33831,-0.02539 -0.49024,-0.02539 z m 60.67188,0 c -1.05155,0 -1.96539,0.215739 -2.73242,0.65039 -0.66706,0.37475 -1.23376,1.02408 -1.76172,1.783205 v -2.097658 h -4.70508 v 14.15625 h 4.70508 v -6.533201 c 0,-1.344449 0.30112,-2.356351 0.88672,-3.052734 0.59431,-0.70525 1.42848,-1.056641 2.54101,-1.056641 0.37827,0 0.75264,0.04424 1.12305,0.132813 l 0.002,0.002 c 0.37806,0.08044 0.75844,0.208739 1.13867,0.386719 l 0.1875,0.08789 V 14.98422 l -0.0117,-4.134768 -0.11718,-0.01367 c -0.32997,-0.04125 -0.5799,-0.06741 -0.75977,-0.07617 h -0.006 c -0.17483,-0.01648 -0.33831,-0.02539 -0.49023,-0.02539 z m 35.44531,0 c -2.4217,0 -4.34558,0.659795 -5.74609,1.984376 -1.39215,1.324647 -2.0879,3.149316 -2.0879,5.441407 0,2.333431 0.70878,4.172026 2.12696,5.480474 1.42656,1.29994 3.41916,1.94531 5.95508,1.94531 1.05876,0 2.1175,-0.10418 3.17578,-0.3125 1.05798,-0.19994 2.11498,-0.50094 3.17187,-0.90039 l 0.0859,-0.0312 v -3.738285 l -0.19531,0.107422 c -1.02617,0.558235 -2.02674,0.97583 -3,1.253907 -0.96509,0.269897 -1.90672,0.404297 -2.82813,0.404297 -1.13767,0 -2.00631,-0.255403 -2.62109,-0.751954 -0.58014,-0.468575 -0.91512,-1.177283 -1.04102,-2.109375 h 10.3418 v -1.396484 c 0,-2.225749 -0.66899,-4.024462 -2.00977,-5.365235 -1.33238,-1.340823 -3.11871,-2.01172 -5.32812,-2.01172 z m 15.88867,0 c -2.09867,0 -3.671,0.355977 -4.71484,1.091798 -1.04391,0.73587 -1.57032,1.880797 -1.57032,3.382813 0,1.389955 0.41065,2.454022 1.23829,3.152344 0.829,0.699476 2.2341,1.156641 4.22265,1.40625 l 0.78321,0.09961 c 0.89341,0.106555 1.48474,0.267174 1.74023,0.4375 h 0.002 l 0.002,0.002 c 0.27082,0.16835 0.39648,0.404748 0.39648,0.767578 0,0.430221 -0.1837,0.72894 -0.58984,0.951172 -0.4059,0.222092 -1.03857,0.34375 -1.89453,0.34375 -0.94922,0 -1.8859,-0.107561 -2.81055,-0.320313 -0.91614,-0.212676 -1.81134,-0.531233 -2.6875,-0.957031 l -0.19141,-0.0918 v 3.685546 l 0.0977,0.0273 c 1.03859,0.29081 2.04748,0.50699 3.0293,0.64844 0.98994,0.14974 1.94615,0.22461 2.87109,0.22461 2.18145,0 3.83777,-0.3735 4.96289,-1.14063 1.12519,-0.76717 1.69336,-1.932727 1.69336,-3.44531 0,-1.438404 -0.40355,-2.523424 -1.22461,-3.214844 -0.82611,-0.695675 -2.37307,-1.164313 -4.65625,-1.455078 h -0.002 l -0.78125,-0.111328 h -0.002 c -0.79367,-0.09 -1.33966,-0.235143 -1.61914,-0.404297 -0.27448,-0.170624 -0.39648,-0.387548 -0.39648,-0.705078 0,-0.397383 0.16573,-0.660131 0.53711,-0.84961 0.38069,-0.197959 0.99212,-0.308593 1.82422,-0.308593 0.77432,0 1.60003,0.09832 2.47656,0.294922 0.87618,0.196527 1.78586,0.492446 2.73047,0.886718 l 0.18359,0.07617 v -3.675821 l -0.0996,-0.02539 c -1.06219,-0.265548 -2.04622,-0.461134 -2.95312,-0.585937 -0.90661,-0.124762 -1.77241,-0.1875 -2.59766,-0.1875 z m -132.32226,0.265625 c 2.48778,0 4.26106,0.496001 5.33203,1.455079 h 0.002 c 1.07906,0.951171 1.62891,2.510903 1.62891,4.712892 v 7.792971 h -4.21289 v -2.343753 l -0.24024,0.339843 c -0.58524,0.82909 -1.23969,1.42946 -1.96094,1.80664 -0.72129,0.36867 -1.60539,0.55664 -2.65625,0.55664 -1.41303,0 -2.54446,-0.40559 -3.41992,-1.21679 -0.86751,-0.81932 -1.29687,-1.86773 -1.29687,-3.177739 0,-1.598575 0.53734,-2.738717 1.61718,-3.474609 1.08836,-0.735611 2.82421,-1.117188 5.20704,-1.117188 h 2.75 v -0.480469 c 0,-0.737613 -0.30635,-1.308828 -0.89649,-1.652343 -0.58935,-0.351333 -1.47251,-0.513673 -2.6582,-0.513673 -0.95968,0 -1.85598,0.09633 -2.68555,0.289063 -0.7595,0.176449 -1.45664,0.456207 -2.11914,0.794922 v -3.085938 c 0.91244,-0.218141 1.82814,-0.388978 2.74805,-0.500001 h 0.002 c 0.95354,-0.123303 1.90597,-0.185547 2.85938,-0.185547 z m 20.3164,0 c 0.14392,0 0.30063,0.0072 0.4707,0.02344 l 0.004,0.002 h 0.002 c 0.14132,0.0067 0.37337,0.03013 0.63086,0.06055 l 0.0117,3.714847 c -0.33439,-0.142987 -0.66997,-0.270331 -1.00586,-0.341797 -0.38902,-0.09272 -0.78204,-0.138672 -1.17968,-0.138672 -1.1695,0 -2.09822,0.383896 -2.74414,1.150391 -0.63811,0.758825 -0.94922,1.83859 -0.94922,3.222656 v 6.267578 H 465.3985 V 11.335786 h 4.17383 v 2.609377 l 0.24609,-0.390626 c 0.56168,-0.895436 1.19966,-1.539202 1.91211,-1.939453 0.72125,-0.408708 1.58605,-0.615235 2.60156,-0.615235 z m 60.67188,0 c 0.14392,0 0.30062,0.0072 0.4707,0.02344 l 0.004,0.002 h 0.002 c 0.14095,0.0067 0.37433,0.03027 0.63086,0.06055 l 0.0117,3.714847 c -0.3344,-0.142987 -0.66997,-0.270331 -1.00586,-0.341797 -0.38903,-0.09272 -0.78204,-0.138672 -1.17969,-0.138672 -1.1695,0 -2.09822,0.383896 -2.74414,1.150391 -0.6381,0.758825 -0.94727,1.83859 -0.94727,3.222656 v 6.267578 h -4.17578 V 11.335786 h 4.17578 v 2.609377 l 0.24414,-0.390626 c 0.56169,-0.895436 1.19967,-1.539202 1.91211,-1.939453 0.72125,-0.408708 1.58606,-0.615235 2.60157,-0.615235 z m 35.44531,0 c 2.15621,0 3.86025,0.645119 5.14062,1.933595 1.28853,1.288525 1.9336,3.004786 1.9336,5.177735 v 1.132813 h -10.39649 l 0.0156,0.144531 c 0.11003,1.066465 0.50202,1.887826 1.17773,2.433593 0.67507,0.545247 1.60969,0.810547 2.78711,0.810547 0.94721,0 1.91418,-0.138256 2.90039,-0.414062 0.93089,-0.265968 1.88597,-0.680228 2.85742,-1.193359 v 3.123049 c -1.0146,0.37822 -2.02742,0.67174 -3.04101,0.86328 h -0.002 v 0.002 c -1.04186,0.20509 -2.08363,0.30664 -3.125,0.30664 -2.49043,0 -4.40738,-0.62908 -5.77539,-1.875 -1.35995,-1.254709 -2.04102,-3.004916 -2.04102,-5.285157 0,-2.238898 0.66753,-3.978422 2.00391,-5.250001 1.34454,-1.271644 3.19057,-1.910157 5.56445,-1.910157 z m 15.88867,0 c 0.81186,0 1.66468,0.06226 2.56055,0.185547 0.86452,0.11897 1.81161,0.310774 2.82422,0.560548 v 3.083985 c -0.88992,-0.360837 -1.75758,-0.654682 -2.5918,-0.841797 -0.89287,-0.20027 -1.73656,-0.300782 -2.5332,-0.300782 -0.85379,0 -1.49923,0.104422 -1.94532,0.335938 -0.4389,0.223933 -0.67968,0.606888 -0.67968,1.085938 0,0.393538 0.18411,0.721926 0.52148,0.93164 0.34817,0.210737 0.91699,0.347561 1.72461,0.439454 l 0.7832,0.111328 c 2.26312,0.288033 3.77691,0.769469 4.52149,1.396484 0.7499,0.631497 1.13086,1.622389 1.13086,3.011719 0,1.447443 -0.52246,2.50545 -1.58008,3.22656 -1.05769,0.72116 -2.6614,1.09375 -4.8125,1.09375 -0.91061,0 -1.85414,-0.0747 -2.83203,-0.22265 -0.93787,-0.13512 -1.90733,-0.34525 -2.90039,-0.61914 v -3.080083 c 0.83373,0.38977 1.68208,0.708042 2.55273,0.910157 0.94397,0.217195 1.90208,0.324218 2.8711,0.324218 0.88036,0 1.55289,-0.117535 2.02343,-0.375 0.47029,-0.257325 0.72461,-0.671237 0.72461,-1.183593 0,-0.430256 -0.18148,-0.778149 -0.52148,-0.990235 -9e-5,-5.8e-5 9e-5,-0.0019 0,-0.002 -0.34026,-0.225683 -0.94454,-0.370338 -1.85156,-0.478516 l -0.78125,-0.09961 c -1.96366,-0.246484 -3.32745,-0.705726 -4.08594,-1.345703 -0.75986,-0.641131 -1.14258,-1.610658 -1.14258,-2.949219 0,-1.441473 0.48349,-2.479751 1.45703,-3.166016 0.97361,-0.686317 2.49398,-1.04297 4.5625,-1.04297 z m -264.87305,0.07031 v 8.615238 c 0,1.896539 0.42122,3.361345 1.2832,4.376955 0.87038,1.01543 2.14036,1.52344 3.77149,1.52344 0.91987,0 1.76585,-0.19574 2.5293,-0.58594 0.68768,-0.35518 1.32569,-0.94151 1.93945,-1.63281 v 1.85937 h 4.70508 V 11.070106 h -4.70508 v 6.990237 c 0,1.246564 -0.26088,2.203888 -0.76758,2.884765 -0.50707,0.681371 -1.18404,1.013672 -2.07617,1.013672 -0.3621,0 -0.67803,-0.07448 -0.95508,-0.220703 -0.2685,-0.146289 -0.48597,-0.352143 -0.65625,-0.623047 -0.12174,-0.193356 -0.22067,-0.534007 -0.27734,-1.011719 -0.0566,-0.484732 -0.0859,-1.288422 -0.0859,-2.402343 0,-0.379379 0.004,-1.134939 0.0117,-2.267578 0.008,-1.141227 0.0117,-2.088904 0.0117,-2.841798 v -1.521486 z m 65.98047,0 v 8.615238 c 0,1.896539 0.42122,3.361345 1.28321,4.376955 0.87037,1.01543 2.14035,1.52344 3.77148,1.52344 0.91988,0 1.76585,-0.19574 2.5293,-0.58594 0.68768,-0.35518 1.32569,-0.94151 1.93945,-1.63281 v 1.85937 h 4.70508 V 11.070106 h -4.70508 v 6.990237 c 0,1.246564 -0.26088,2.203888 -0.76758,2.884765 -0.50706,0.681371 -1.18404,1.013672 -2.07617,1.013672 -0.3621,0 -0.67802,-0.07448 -0.95508,-0.220703 -0.2685,-0.146289 -0.48596,-0.352143 -0.65625,-0.623047 -0.12174,-0.193356 -0.22066,-0.534007 -0.27734,-1.011719 -0.0566,-0.484732 -0.0859,-1.288422 -0.0859,-2.402343 0,-0.379379 0.003,-1.134939 0.0117,-2.267578 0.008,-1.141227 0.0117,-2.088904 0.0117,-2.841798 v -1.521486 z m 150.91016,0 v 0.132813 14.02344 h 4.70508 V 11.070106 Z m 6.92187,0 0.0703,0.181641 5.49023,13.974612 h 5.05469 l 5.57422,-14.156253 h -4.74024 l -3.35547,9.339847 -3.36718,-9.339847 z m -223.54883,0.265627 h 4.20117 v 1.255862 c 0,0.751923 -0.005,1.69904 -0.0137,2.839845 -0.008,1.132855 -0.0117,1.888232 -0.0117,2.269531 0,1.118501 0.0287,1.926139 0.0879,2.433593 0.0591,0.49794 0.15703,0.86992 0.31641,1.123047 0.193,0.307046 0.44672,0.547026 0.75586,0.714844 h 0.002 c 0.31826,0.16797 0.67954,0.251953 1.07813,0.251953 0.95995,0 1.73779,-0.380329 2.28906,-1.121094 0.55163,-0.741258 0.82031,-1.759454 0.82031,-3.042968 v -6.724613 h 4.17578 v 13.625006 h -4.17578 v -2.246096 l -0.23437,0.285156 c -0.66083,0.79952 -1.35851,1.38494 -2.0918,1.76367 -0.72484,0.37048 -1.52561,0.55664 -2.4082,0.55664 -1.57627,0 -2.75206,-0.4781 -3.56836,-1.42968 -0.8082,-0.95223 -1.22266,-2.347847 -1.22266,-4.205083 z m 65.98048,0 h 4.20117 v 1.255862 c 0,0.751923 -0.005,1.69904 -0.0137,2.839845 -0.008,1.132855 -0.0117,1.888232 -0.0117,2.269531 0,1.118501 0.0287,1.926139 0.0879,2.433593 0.0591,0.49794 0.15703,0.86992 0.3164,1.123047 0.193,0.307046 0.44672,0.547026 0.75586,0.714844 h 0.002 c 0.31825,0.16797 0.67954,0.251953 1.07812,0.251953 0.95996,0 1.7378,-0.380329 2.28906,-1.121094 0.55164,-0.741258 0.82032,-1.759454 0.82032,-3.042968 v -6.724613 h 4.17578 v 13.625006 h -4.17578 v -2.246096 l -0.23438,0.285156 c -0.66083,0.79952 -1.35851,1.38494 -2.0918,1.76367 -0.72483,0.37048 -1.5256,0.55664 -2.4082,0.55664 -1.57626,0 -2.75205,-0.4781 -3.56836,-1.42968 -0.80819,-0.95223 -1.22265,-2.347847 -1.22265,-4.205083 z m 150.9121,0 h 4.17579 v 13.625006 h -4.17579 z m 7.04493,0 h 4.15234 l 3.55273,9.857425 3.54102,-9.857425 h 4.16406 l -5.36328,13.625006 h -4.69336 z m 24.75976,2.351565 c -0.88495,0 -1.62207,0.254164 -2.18555,0.765626 -0.56445,0.503666 -0.91138,1.230595 -1.04687,2.162109 l -0.0215,0.152344 h 6.05275 v -0.132813 c 0,-0.868636 -0.26075,-1.586422 -0.78125,-2.125 -0.51233,-0.547068 -1.19484,-0.822266 -2.01758,-0.822266 z m 0,0.263673 c 0.76477,0 1.3609,0.245506 1.82422,0.740234 h 0.002 v 0.002 c 0.4386,0.453216 0.6281,1.069969 0.65821,1.808594 h -5.38282 c 0.14635,-0.788531 0.41892,-1.430656 0.89063,-1.851562 v -0.002 c 0.51139,-0.464188 1.17297,-0.697265 2.00781,-0.697265 z m -86.08594,0.0078 c -0.97512,0 -1.74992,0.37137 -2.27734,1.097657 -0.51922,0.726909 -0.76953,1.764036 -0.76953,3.103515 0,1.339479 0.25031,2.376606 0.76953,3.103516 0.52742,0.726286 1.30222,1.097656 2.27734,1.097656 0.98253,0 1.75799,-0.37139 2.27735,-1.097656 0.52786,-0.726897 0.7832,-1.763761 0.7832,-3.103516 0,-1.339755 -0.25534,-2.376619 -0.7832,-3.103515 -0.51936,-0.726266 -1.29482,-1.097657 -2.27735,-1.097657 z m 0,0.265625 c 0.91859,0 1.58968,0.324378 2.0625,0.986328 l 0.002,0.002 c 0.48086,0.662166 0.73047,1.641187 0.73047,2.947265 0,1.306078 -0.24961,2.287053 -0.73047,2.949219 h -0.002 c -0.47282,0.66195 -1.14391,0.986328 -2.0625,0.986328 -0.91003,0 -1.58119,-0.323552 -2.0625,-0.986328 -0.47296,-0.662153 -0.71875,-1.642865 -0.71875,-2.949219 0,-1.305537 0.24637,-2.285129 0.71875,-2.947265 0.48131,-0.662777 1.15247,-0.988282 2.0625,-0.988282 z m -30.01367,4.484375 c -0.94102,0 -1.6653,0.15773 -2.16992,0.494141 -0.49609,0.336631 -0.75195,0.854728 -0.75195,1.5 0,0.591467 0.20264,1.080312 0.60351,1.427734 l 0.002,0.002 c 0.40978,0.338514 0.96971,0.5 1.66015,0.5 0.86658,0 1.61027,-0.314964 2.20313,-0.933593 0.59312,-0.627506 0.89258,-1.418461 0.89258,-2.347657 v -0.642578 z m 0,0.265625 h 2.17383 v 0.376953 c 0,0.87259 -0.27133,1.584654 -0.81836,2.164063 -0.54816,0.571995 -1.20811,0.853516 -2.01172,0.853516 -0.64721,0 -1.13758,-0.151147 -1.48828,-0.439454 -0.34327,-0.297499 -0.51367,-0.69355 -0.51367,-1.226562 0,-0.578426 0.20677,-0.987543 0.63672,-1.279297 0.43796,-0.291975 1.11043,-0.449219 2.02148,-0.449219 z"
       id="text817-3"
       inkscape:connector-curvature="0" />
  </g>
</svg>
