<?xml version="1.0" encoding="utf-8"?>
<!DOCTYPE svg PUBLIC "-//W3C//DTD SVG 1.1//EN" "http://www.w3.org/Graphics/SVG/1.1/DTD/svg11.dtd">
<!-- exported from Silhouette Studio® Business Edition V4.3.370ssbe -->
<svg version="1.1" xmlns="http://www.w3.org/2000/svg" xmlns:xlink="http://www.w3.org/1999/xlink" width="304.8mm" height="304.8mm" viewBox="0 0 304.8 304.8">
<defs/>
<g transform="rotate(-180)">
<path d="M -247.7003 -98.83057 L -244.8059 -98.57782 C -244.6688 -99.73624 -244.3499 -100.6867 -243.849 -101.4291 C -243.3481 -102.1716 -242.5705 -102.7718 -241.5161 -103.2299 C -240.4616 -103.688 -239.2754 -103.9171 -237.9573 -103.9171 C -236.7869 -103.9171 -235.7536 -103.7433 -234.8573 -103.3958 C -233.961 -103.0483 -233.2941 -102.5717 -232.8565 -101.9662 C -232.4189 -101.3607 -232.2001 -100.6998 -232.2001 -99.98372 C -232.2001 -99.25706 -232.4109 -98.62257 -232.8327 -98.08022 C -233.2545 -97.53787 -233.9505 -97.08238 -234.9205 -96.71381 C -235.5427 -96.47159 -236.9187 -96.09509 -239.0487 -95.58434 C -241.1786 -95.07358 -242.6707 -94.59178 -243.5248 -94.13895 C -244.6319 -93.55972 -245.457 -92.84099 -246.0001 -91.9827 C -246.5431 -91.12442 -246.8146 -90.16344 -246.8146 -89.09979 C -246.8146 -87.93085 -246.4825 -86.83824 -245.8182 -85.82199 C -245.1539 -84.80574 -244.1838 -84.03433 -242.9079 -83.50778 C -241.632 -82.98122 -240.2138 -82.71794 -238.6532 -82.71794 C -236.9345 -82.71794 -235.4187 -82.99438 -234.106 -83.54727 C -232.7932 -84.10014 -231.7836 -84.91368 -231.0771 -85.98785 C -230.3706 -87.06203 -229.991 -88.27837 -229.9383 -89.63689 L -232.8802 -89.85805 C -233.0384 -88.39421 -233.5735 -87.28845 -234.4856 -86.54074 C -235.3977 -85.79303 -236.7447 -85.41917 -238.5267 -85.41917 C -240.3825 -85.41917 -241.7349 -85.7588 -242.5837 -86.43806 C -243.4325 -87.11731 -243.8569 -87.93611 -243.8569 -88.89444 C -243.8569 -89.72639 -243.5564 -90.41093 -242.9554 -90.94801 C -242.3649 -91.48511 -240.8228 -92.03535 -238.329 -92.59877 C -235.8353 -93.16219 -234.1245 -93.65451 -233.1965 -94.07576 C -231.8468 -94.6971 -230.8504 -95.4843 -230.2072 -96.43736 C -229.564 -97.39043 -229.2424 -98.4883 -229.2424 -99.73097 C -229.2424 -100.9631 -229.5956 -102.1242 -230.3021 -103.2141 C -231.0086 -104.3041 -232.0235 -105.1519 -233.3468 -105.7574 C -234.6701 -106.3629 -236.1595 -106.6657 -237.815 -106.6657 C -239.9133 -106.6657 -241.6716 -106.3603 -243.0898 -105.7495 C -244.508 -105.1387 -245.6205 -104.2199 -246.4271 -102.993 C -247.2338 -101.7661 -247.6582 -100.3786 -247.7003 -98.83057 Z" fill="none" fill-opacity="1" stroke="#000000" stroke-opacity="1" stroke-width="0.3527778" stroke-linecap="round" stroke-linejoin="round"/>
<path d="M -224.9877 -106.2708 L -224.9877 -83.11286 L -208.2221 -83.11288 L -208.2221 -85.8457 L -221.9193 -85.8457 L -221.9193 -92.93841 L -209.0921 -92.93841 L -209.092 -95.65543 L -221.9193 -95.65543 L -221.9193 -103.538 L -207.6844 -103.538 L -207.6844 -106.2708 L -224.9877 -106.2708 Z" fill="none" fill-opacity="1" stroke="#000000" stroke-opacity="1" stroke-width="0.3527778" stroke-linecap="round" stroke-linejoin="round"/>
<path d="M -203.3981 -106.2708 L -203.3981 -83.11286 L -193.1173 -83.11286 C -191.0506 -83.11286 -189.4795 -83.32085 -188.404 -83.73684 C -187.3284 -84.15281 -186.4691 -84.88735 -185.8259 -85.94047 C -185.1826 -86.99358 -184.861 -88.15726 -184.861 -89.43154 C -184.861 -91.07439 -185.3935 -92.45924 -186.4585 -93.58607 C -187.5235 -94.7129 -189.1684 -95.42901 -191.3933 -95.73441 C -190.5814 -96.12406 -189.9645 -96.50846 -189.5427 -96.88758 C -188.6465 -97.70901 -187.7976 -98.73579 -186.9963 -99.96793 L -182.963 -106.2708 L -186.8223 -106.2708 L -189.8907 -101.4528 C -190.787 -100.0627 -191.5251 -98.99906 -192.105 -98.26188 C -192.685 -97.52471 -193.2043 -97.00867 -193.663 -96.71381 C -194.1216 -96.41894 -194.5882 -96.21358 -195.0627 -96.09774 C -195.4107 -96.02402 -195.9801 -95.98716 -196.7709 -95.98716 L -200.3297 -95.98716 L -200.3297 -106.2708 L -203.3981 -106.2708 Z M -200.3297 -93.33332 L -193.7341 -93.33332 C -192.3317 -93.33332 -191.2351 -93.18851 -190.4443 -92.89892 C -189.6535 -92.60931 -189.0524 -92.14594 -188.6412 -91.5088 C -188.23 -90.87168 -188.0244 -90.17925 -188.0244 -89.43154 C -188.0244 -88.33631 -188.4224 -87.43589 -189.2185 -86.73031 C -190.0146 -86.02473 -191.272 -85.67193 -192.9908 -85.67193 L -200.3297 -85.67193 L -200.3297 -93.33332 Z" fill="none" fill-opacity="1" stroke="#000000" stroke-opacity="1" stroke-width="0.3527778" stroke-linecap="round" stroke-linejoin="round"/>
<path d="M -179.5308 -106.2708 L -179.5308 -83.11286 L -176.4624 -83.11287 L -176.4624 -106.2708 L -179.5308 -106.2708 Z" fill="none" fill-opacity="1" stroke="#000000" stroke-opacity="1" stroke-width="0.3527778" stroke-linecap="round" stroke-linejoin="round"/>
<path d="M -170.9899 -106.2708 L -170.9899 -83.11287 L -154.2243 -83.11287 L -154.2243 -85.84569 L -167.9214 -85.8457 L -167.9215 -92.93842 L -155.0942 -92.9384 L -155.0942 -95.65544 L -167.9214 -95.65544 L -167.9214 -103.538 L -153.6865 -103.538 L -153.6865 -106.2708 L -170.9899 -106.2708 Z" fill="none" fill-opacity="1" stroke="#000000" stroke-opacity="1" stroke-width="0.3527778" stroke-linecap="round" stroke-linejoin="round"/>
<path d="M -150.4916 -98.83058 L -147.5972 -98.57784 C -147.4601 -99.73625 -147.1411 -100.6867 -146.6402 -101.4291 C -146.1394 -102.1716 -145.3617 -102.7719 -144.3073 -103.2299 C -143.2529 -103.6881 -142.0666 -103.9171 -140.7486 -103.9171 C -139.5781 -103.9171 -138.5448 -103.7433 -137.6485 -103.3958 C -136.7522 -103.0483 -136.0853 -102.5717 -135.6477 -101.9662 C -135.2101 -101.3607 -134.9913 -100.6998 -134.9913 -99.98373 C -134.9913 -99.25708 -135.2022 -98.62259 -135.624 -98.08023 C -136.0458 -97.53789 -136.7417 -97.0824 -137.7118 -96.71382 C -138.3339 -96.4716 -139.7099 -96.09511 -141.8399 -95.58435 C -143.9699 -95.07359 -145.4619 -94.5918 -146.316 -94.13896 C -147.4232 -93.55974 -148.2483 -92.841 -148.7913 -91.98271 C -149.3344 -91.12444 -149.6059 -90.16345 -149.6059 -89.09981 C -149.6059 -87.93086 -149.2737 -86.83826 -148.6094 -85.82201 C -147.9451 -84.80576 -146.975 -84.03435 -145.6992 -83.5078 C -144.4233 -82.98123 -143.0051 -82.71796 -141.4445 -82.71796 C -139.7258 -82.71796 -138.21 -82.9944 -136.8972 -83.54729 C -135.5844 -84.10016 -134.5748 -84.9137 -133.8683 -85.98787 C -133.1619 -87.06204 -132.7823 -88.27838 -132.7296 -89.6369 L -135.6715 -89.85806 C -135.8296 -88.39423 -136.3647 -87.28847 -137.2768 -86.54076 C -138.1889 -85.79305 -139.536 -85.41919 -141.318 -85.41919 C -143.1738 -85.41919 -144.5261 -85.75882 -145.3749 -86.43808 C -146.2237 -87.11732 -146.6482 -87.93613 -146.6482 -88.89445 C -146.6482 -89.72641 -146.3477 -90.41095 -145.7466 -90.94803 C -145.1561 -91.48512 -143.614 -92.03537 -141.1203 -92.59879 C -138.6265 -93.1622 -136.9157 -93.65453 -135.9878 -94.07578 C -134.6381 -94.69711 -133.6416 -95.48431 -132.9984 -96.43738 C -132.3552 -97.39044 -132.0336 -98.48831 -132.0336 -99.73099 C -132.0336 -100.9631 -132.3869 -102.1242 -133.0933 -103.2142 C -133.7998 -104.3041 -134.8147 -105.1519 -136.138 -105.7574 C -137.4613 -106.363 -138.9507 -106.6657 -140.6062 -106.6657 C -142.7046 -106.6657 -144.4628 -106.3603 -145.8811 -105.7495 C -147.2993 -105.1387 -148.4117 -104.2199 -149.2184 -102.993 C -150.025 -101.7661 -150.4494 -100.3786 -150.4916 -98.83058 Z" fill="none" fill-opacity="1" stroke="#000000" stroke-opacity="1" stroke-width="0.3527778" stroke-linecap="round" stroke-linejoin="round"/>
<path d="M -109.2736 -106.2708 L -112.1205 -106.2708 L -112.1205 -88.15203 C -112.8059 -88.80495 -113.7048 -89.45788 -114.8173 -90.11082 C -115.9297 -90.76374 -116.9288 -91.25344 -117.8145 -91.5799 L -117.8145 -88.83128 C -116.2223 -88.08358 -114.8304 -87.17789 -113.6389 -86.11425 C -112.4474 -85.05061 -111.6039 -84.01855 -111.1083 -83.0181 L -109.2735 -83.0181 L -109.2736 -106.2708 Z" fill="none" fill-opacity="1" stroke="#000000" stroke-opacity="1" stroke-width="0.3527778" stroke-linecap="round" stroke-linejoin="round"/>
<path d="M -101.9821 -94.84982 C -101.9821 -92.11172 -101.7 -89.90809 -101.1359 -88.23891 C -100.5718 -86.56973 -99.73349 -85.2823 -98.62105 -84.37661 C -97.50862 -83.47094 -96.10886 -83.0181 -94.42175 -83.0181 C -93.17751 -83.0181 -92.08617 -83.26821 -91.14772 -83.76844 C -90.20926 -84.26867 -89.43425 -84.99004 -88.82268 -85.93259 C -88.21111 -86.87513 -87.73134 -88.02302 -87.38338 -89.37627 C -87.03542 -90.72952 -86.86143 -92.55402 -86.86143 -94.84982 C -86.86143 -97.56684 -87.14084 -99.75996 -87.69971 -101.4291 C -88.25854 -103.0983 -89.09421 -104.3884 -90.20665 -105.2993 C -91.31908 -106.2103 -92.72412 -106.6657 -94.42177 -106.6657 C -96.65718 -106.6657 -98.41283 -105.8654 -99.68869 -104.2646 C -101.2176 -102.3375 -101.9821 -99.19917 -101.9821 -94.84982 Z M -99.05605 -94.84982 C -99.05605 -98.65154 -98.61052 -101.1817 -97.71953 -102.4401 C -96.82852 -103.6986 -95.72928 -104.3278 -94.42177 -104.3278 C -93.11426 -104.3278 -92.015 -103.696 -91.12399 -102.4322 C -90.23299 -101.1685 -89.78751 -98.64101 -89.78751 -94.84982 C -89.78751 -91.03754 -90.23299 -88.50481 -91.12399 -87.25161 C -92.01498 -85.99841 -93.12479 -85.3718 -94.45338 -85.3718 C -95.76089 -85.3718 -96.80478 -85.92469 -97.58507 -87.03046 C -98.5657 -88.44163 -99.05603 -91.04807 -99.05605 -94.84982 Z" fill="none" fill-opacity="1" stroke="#000000" stroke-opacity="1" stroke-width="0.3527778" stroke-linecap="round" stroke-linejoin="round"/>
<path d="M -83.96703 -94.84982 C -83.96703 -92.11172 -83.68494 -89.90809 -83.12082 -88.23891 C -82.55669 -86.56973 -81.7184 -85.2823 -80.60597 -84.37661 C -79.49355 -83.47094 -78.09377 -83.01809 -76.40666 -83.01809 C -75.16243 -83.01809 -74.07109 -83.26819 -73.13264 -83.76842 C -72.19417 -84.26865 -71.41917 -84.99004 -70.8076 -85.93257 C -70.19603 -86.87511 -69.71626 -88.02299 -69.3683 -89.37625 C -69.02034 -90.72951 -68.84636 -92.55402 -68.84636 -94.84979 C -68.84636 -97.56683 -69.12578 -99.75993 -69.68462 -101.4291 C -70.24348 -103.0983 -71.07915 -104.3884 -72.19157 -105.2993 C -73.304 -106.2103 -74.70903 -106.6657 -76.40669 -106.6657 C -78.64211 -106.6657 -80.39775 -105.8654 -81.67363 -104.2646 C -83.20255 -102.3375 -83.96703 -99.19917 -83.96703 -94.84982 Z M -81.04094 -94.84982 C -81.04094 -98.65154 -80.59544 -101.1816 -79.70445 -102.4401 C -78.81343 -103.6986 -77.71419 -104.3278 -76.40669 -104.3278 C -75.09917 -104.3278 -73.99992 -103.6959 -73.10893 -102.4322 C -72.21791 -101.1685 -71.77242 -98.64101 -71.77242 -94.84979 C -71.77242 -91.03754 -72.21791 -88.50479 -73.1089 -87.25159 C -73.99989 -85.99838 -75.1097 -85.37179 -76.43831 -85.37179 C -77.7458 -85.37179 -78.78969 -85.92467 -79.56999 -87.03045 C -80.55061 -88.44161 -81.04094 -91.04807 -81.04094 -94.84982 Z" fill="none" fill-opacity="1" stroke="#000000" stroke-opacity="1" stroke-width="0.3527778" stroke-linecap="round" stroke-linejoin="round"/>
<path d="M -65.95192 -94.84981 C -65.95192 -92.11171 -65.66985 -89.90808 -65.10573 -88.23891 C -64.54161 -86.56972 -63.70332 -85.28229 -62.59086 -84.3766 C -61.47844 -83.47093 -60.07869 -83.0181 -58.39158 -83.0181 C -57.14732 -83.0181 -56.05598 -83.2682 -55.11753 -83.76843 C -54.17909 -84.26866 -53.40406 -84.99004 -52.79249 -85.93259 C -52.18092 -86.87512 -51.70119 -88.02301 -51.3532 -89.37627 C -51.00523 -90.72951 -50.83125 -92.55402 -50.83125 -94.84981 C -50.83125 -97.56683 -51.1107 -99.75995 -51.66954 -101.4291 C -52.22841 -103.0983 -53.06404 -104.3884 -54.17647 -105.2993 C -55.28889 -106.2103 -56.69395 -106.6657 -58.39159 -106.6657 C -60.627 -106.6657 -62.38264 -105.8654 -63.65852 -104.2646 C -65.18745 -102.3374 -65.95192 -99.19916 -65.95192 -94.84981 Z M -63.02586 -94.84981 C -63.02586 -98.65154 -62.58034 -101.1817 -61.68935 -102.4401 C -60.79836 -103.6986 -59.69911 -104.3278 -58.39159 -104.3278 C -57.08409 -104.3278 -55.98485 -103.696 -55.09383 -102.4322 C -54.20284 -101.1685 -53.75734 -98.64101 -53.75734 -94.84981 C -53.75734 -91.03754 -54.2028 -88.50481 -55.09382 -87.2516 C -55.98481 -85.9984 -57.09462 -85.3718 -58.4232 -85.3718 C -59.73069 -85.3718 -60.77461 -85.92468 -61.55488 -87.03046 C -62.5355 -88.44162 -63.02586 -91.04807 -63.02586 -94.84981 Z" fill="none" fill-opacity="1" stroke="#000000" stroke-opacity="1" stroke-width="0.3527778" stroke-linecap="round" stroke-linejoin="round"/>
</g>
<path d="M 135.973 79.42052 C 139.8436 79.07485 143.6402 77.18719 146.3259 74.27306 C 147.3877 73.12094 148.1735 71.97162 148.8978 70.51129 C 150.0727 68.14266 150.4742 66.51221 150.5533 63.78827 C 150.6136 61.71027 150.4789 60.54169 149.9788 58.80484 C 148.5545 53.85783 144.7458 49.7888 139.9343 48.07356 C 137.8685 47.33717 136.8708 47.1739 134.4234 47.17177 C 132.6871 47.17026 132.276 47.19899 131.3877 47.3839 C 124.7989 48.75544 119.9314 53.58718 118.5303 60.14663 C 118.3355 61.05877 118.3113 61.41417 118.314 63.32138 C 118.3166 65.19734 118.3437 65.59162 118.5284 66.43822 C 118.8658 67.98501 119.2586 69.11027 119.9505 70.51129 C 122.4532 75.57955 127.3604 78.92442 133.029 79.42598 C 134.2231 79.53164 134.7394 79.53069 135.973 79.42052 Z M 132.9285 73.78461 C 130.6891 73.44712 128.7404 72.49741 127.1285 70.95789 C 124.9411 68.86872 123.8489 66.30582 123.8544 63.2747 C 123.8597 60.36393 124.8833 57.89112 126.9476 55.80234 C 127.692 55.04918 129.1807 53.99556 129.6932 53.85914 C 130.3808 53.67614 131.0608 54.19689 131.0608 54.90648 C 131.0608 55.43121 130.8619 55.67954 130.0596 56.15634 C 128.8318 56.88614 127.6407 58.16981 126.9866 59.4683 C 124.9007 63.60891 126.4839 68.60159 130.5541 70.71843 C 134.7491 72.90023 139.8614 71.21478 141.945 66.96303 C 142.5476 65.73328 142.7692 64.72089 142.7627 63.22802 C 142.7564 61.79725 142.5689 60.95508 141.9845 59.73312 C 141.2868 58.27411 140.2408 57.07644 138.9918 56.30649 C 138.669 56.10752 138.2657 55.81236 138.0954 55.65059 C 137.2714 54.86743 138.1374 53.51937 139.2245 53.89299 C 139.417 53.95915 139.8131 54.16998 140.1046 54.36149 C 142.4178 55.88078 143.961 58.01072 144.702 60.70687 C 144.9897 61.75361 145.062 64.01163 144.8449 65.16786 C 143.7878 70.79736 138.4962 74.62367 132.9285 73.78461 Z M 133.8057 61.96094 C 133.5985 61.83293 133.4591 61.65166 133.3928 61.42403 C 133.3252 61.19223 133.3019 59.36842 133.3209 55.82079 L 133.3492 50.5612 L 133.6981 50.2416 C 133.9776 49.98556 134.1237 49.92201 134.433 49.92201 C 134.7568 49.92201 134.8773 49.98039 135.1816 50.28453 L 135.5442 50.64705 L 135.5442 55.94297 C 135.5442 60.64671 135.5272 61.2748 135.3918 61.55994 C 135.1145 62.14428 134.3963 62.32584 133.8057 61.96094 Z M 237.636 76.66293 C 242.0254 76.13023 245.1571 73.75157 246.4574 69.96259 C 246.8136 68.9245 247.0523 67.76031 247.1613 66.52881 C 247.2148 65.92506 247.2555 62.14408 247.2559 57.74222 L 247.2567 50.0154 L 244.7856 50.0154 L 242.3146 50.0154 L 242.2819 58.44254 C 242.2499 66.67725 242.2447 66.88565 242.0524 67.56998 C 241.5453 69.37397 240.9098 70.44606 239.8975 71.20554 C 238.6647 72.13039 237.3178 72.47763 235.2589 72.40137 C 234.1962 72.36201 233.8043 72.30701 233.1993 72.11232 C 231.1183 71.44268 230.0186 70.20419 229.2904 67.71004 C 229.1062 67.07933 229.0977 66.75844 229.0478 58.55925 L 228.996 50.06208 L 226.5868 50.03715 L 224.1775 50.01223 L 224.2114 58.67438 C 224.2442 67.062 224.2515 67.36465 224.4413 68.2236 C 225.3387 72.28387 227.544 74.88898 231.0779 76.0634 C 232.557 76.55497 233.14 76.63896 235.3009 76.67195 C 236.4054 76.68881 237.4562 76.68475 237.636 76.66293 Z M 217.3671 63.18133 L 217.3671 50.01539 L 214.8919 50.01539 L 212.4166 50.01539 L 212.4166 61.12707 L 212.4166 72.23875 L 205.5514 72.23875 L 198.6861 72.23875 L 198.6861 74.29301 L 198.6861 76.34727 L 208.0266 76.34727 L 217.3671 76.34727 L 217.3671 63.18133 Z M 191.8675 65.28229 L 191.8675 54.21729 L 196.2576 54.21729 L 200.6476 54.21729 L 200.6476 52.11634 L 200.6476 50.01539 L 189.439 50.0154 L 178.2303 50.01539 L 178.2303 52.11633 L 178.2303 54.21729 L 182.6204 54.21729 L 187.0104 54.21729 L 187.0104 65.28229 L 187.0104 76.34727 L 189.439 76.34727 L 191.8675 76.34727 L 191.8675 65.28229 Z M 174.5876 70.51678 L 174.5876 64.68631 L 168.4462 64.65152 C 162.4628 64.61763 162.2845 64.6114 161.5167 64.40982 C 159.9703 64.00385 158.7605 63.17732 158.1492 62.1092 C 157.5547 61.07038 157.3453 59.4646 157.6296 58.12383 C 157.832 57.16899 158.1983 56.48557 158.8542 55.83897 C 159.5133 55.18925 160.2541 54.78828 161.3707 54.47682 C 162.1042 54.27223 162.2329 54.26785 168.3528 54.2391 L 174.5876 54.20982 L 174.5876 52.1126 L 174.5876 50.01539 L 168.8063 50.01539 C 163.0788 50.01539 161.8262 50.06543 160.39 50.35164 C 157.6229 50.90306 155.3372 52.28343 154.0185 54.19952 C 153.5696 54.85183 153.0294 56.08984 152.8039 56.98335 C 152.5021 58.1791 152.5042 60.60432 152.8082 61.82738 C 153.402 64.21712 155.0263 66.23233 157.2222 67.30383 C 157.6801 67.52724 158.0547 67.73891 158.0548 67.7742 C 158.0548 67.8095 156.7308 69.72855 155.1126 72.03874 C 153.4944 74.34894 152.1703 76.26408 152.1703 76.29463 C 152.1703 76.32518 153.3541 76.339 154.8009 76.32536 L 157.4314 76.30057 L 160.0862 72.49551 L 162.741 68.69048 L 166.189 68.69048 L 169.6371 68.69049 L 169.6371 72.51888 L 169.6371 76.34727 L 172.1123 76.34727 L 174.5876 76.34727 L 174.5876 70.51678 Z M 115.4621 63.18132 L 115.4621 50.01538 L 113.4298 50.01538 L 111.3974 50.01538 L 108.0824 54.087 C 106.259 56.32639 104.1788 58.88295 103.4596 59.76826 C 102.7404 60.65356 100.975 62.82314 99.53654 64.58955 L 96.92122 67.80122 L 96.89738 58.9083 L 96.87355 50.01538 L 94.44551 50.01538 L 92.01744 50.01538 L 92.01743 63.18132 L 92.01743 76.34726 L 94.05334 76.34726 L 96.08928 76.34726 L 97.39259 74.74142 C 98.10942 73.85821 98.99312 72.77622 99.35637 72.33701 C 99.71962 71.89779 101.5713 69.62656 103.4713 67.28984 C 105.3713 64.95312 107.7432 62.03831 108.7421 60.81248 L 110.5584 58.58371 L 110.5822 67.46548 L 110.606 76.34726 L 113.0341 76.34726 L 115.4621 76.34726 L 115.4621 63.18132 Z M 84.91864 63.18132 L 84.91866 50.01538 L 82.49013 50.01538 L 80.0616 50.01538 L 80.06158 63.18132 L 80.06158 76.34724 L 82.49011 76.34726 L 84.91864 76.34726 L 84.91864 63.18132 Z M 76.06931 76.23053 C 75.75502 75.83231 66.42444 62.97936 66.42444 62.94465 C 66.42444 62.89594 66.28769 63.08816 70.44098 57.29867 C 72.15413 54.91059 74.01082 52.32185 74.56696 51.54591 C 75.12309 50.76998 75.57814 50.10818 75.57814 50.07525 C 75.57814 50.04232 74.34485 50.01538 72.83748 50.01538 L 70.09682 50.01538 L 68.37097 52.4198 C 67.42175 53.74223 65.93747 55.81167 65.07251 57.01854 C 64.20758 58.22542 63.46867 59.24852 63.43045 59.2921 C 63.39226 59.33569 62.31989 57.90705 61.04739 56.11734 C 59.7749 54.32764 58.27528 52.22254 57.71487 51.43935 L 56.69595 50.01538 L 54.03314 50.01538 L 51.3703 50.01538 L 51.69125 50.45891 C 51.86778 50.70285 52.3605 51.38566 52.78613 51.97626 C 53.21179 52.56686 53.7162 53.26017 53.90707 53.51696 C 54.29214 54.03498 59.62552 61.39264 60.20822 62.20974 C 60.54256 62.67851 60.56522 62.74601 60.45071 62.93078 C 60.3364 63.11523 51.48079 75.32313 50.93854 76.04378 L 50.71021 76.34724 L 53.5574 76.34724 L 56.4046 76.34724 L 59.94333 71.39835 C 61.88963 68.67645 63.50311 66.45099 63.52884 66.45287 C 63.55453 66.45475 64.07996 67.17609 64.69644 68.05586 C 65.82146 69.66136 67.10141 71.4734 69.34943 74.64314 L 70.55798 76.34724 L 73.35971 76.34724 C 75.58795 76.34724 76.14256 76.32336 76.06931 76.23053 Z" fill="none" fill-opacity="1" stroke="#000000" stroke-opacity="1" stroke-width="0.3527778" stroke-linecap="round" stroke-linejoin="round"/>
</svg>