<?xml version="1.0" encoding="utf-8"?>
<!-- Generator: Adobe Illustrator 24.2.2, SVG Export Plug-In . SVG Version: 6.00 Build 0)  -->
<svg version="1.1"
	 id="svg879" inkscape:version="0.92.3 (2405546, 2018-03-11)" sodipodi:docname="TOSHIBA_TECRA_A50-C_PR.svg" xmlns:cc="http://creativecommons.org/ns#" xmlns:dc="http://purl.org/dc/elements/1.1/" xmlns:inkscape="http://www.inkscape.org/namespaces/inkscape" xmlns:rdf="http://www.w3.org/1999/02/22-rdf-syntax-ns#" xmlns:sodipodi="http://sodipodi.sourceforge.net/DTD/sodipodi-0.dtd" xmlns:svg="http://www.w3.org/2000/svg"
	 xmlns="http://www.w3.org/2000/svg" xmlns:xlink="http://www.w3.org/1999/xlink" x="0px" y="0px" viewBox="0 0 1417.3 1417.3"
	 style="enable-background:new 0 0 1417.3 1417.3;" xml:space="preserve">
<style type="text/css">
	.st0{fill:none;stroke:#000000;stroke-miterlimit:11.3386;}
</style>
<sodipodi:namedview  bordercolor="#666666" borderopacity="1.0" id="base" inkscape:current-layer="g1464" inkscape:cx="1159.8463" inkscape:cy="1033.6124" inkscape:document-units="mm" inkscape:guide-bbox="true" inkscape:pageopacity="0.0" inkscape:pageshadow="2" inkscape:window-height="1017" inkscape:window-maximized="1" inkscape:window-width="1920" inkscape:window-x="-8" inkscape:window-y="-8" inkscape:zoom="0.49497475" pagecolor="#ffffff" showgrid="false" showguides="true">
	</sodipodi:namedview>
<g>
	<g id="g1464">
		<g id="g1451">
			<path id="rect1440" inkscape:connector-curvature="0" class="st0" d="M598.8,1253.6v67c0,1.6-1.3,2.8-2.8,2.8h-10.3
				c-1.6,0-2.8-1.3-2.8-2.8v-67c0-1.6,1.3-2.8,2.8-2.8H596C597.5,1250.7,598.8,1252,598.8,1253.6z"/>
		</g>
		<path id="rect1453" inkscape:connector-curvature="0" class="st0" d="M782.9,564.2v256.5c0,6.4-5.2,11.6-11.7,11.6H591.4
			c-6.5,0-11.7-5.2-11.7-11.6V564.2c0-6.4,5.2-11.6,11.7-11.6h179.8C777.7,552.6,782.9,557.7,782.9,564.2z"/>
	</g>
	<path class="st0" d="M845,1353.6"/>
	<path class="st0" d="M569.4,1342.7V294.1c0-5.5,4.5-10,10-10H845v1069.6H580.4C574.3,1353.6,569.4,1348.7,569.4,1342.7z"/>
</g>
<sodipodi:namedview  bordercolor="#666666" borderopacity="1.0" id="base" inkscape:current-layer="g1464" inkscape:cx="1159.8463" inkscape:cy="1033.6124" inkscape:document-units="mm" inkscape:guide-bbox="true" inkscape:pageopacity="0.0" inkscape:pageshadow="2" inkscape:window-height="1017" inkscape:window-maximized="1" inkscape:window-width="1920" inkscape:window-x="-8" inkscape:window-y="-8" inkscape:zoom="0.49497475" pagecolor="#ffffff" showgrid="false" showguides="true">
	</sodipodi:namedview>
<g>
	<g id="g1464_1_">
		<g id="g1451_1_">
			<path id="rect1440_1_" inkscape:connector-curvature="0" class="st0" d="M885.9,1253.6v67c0,1.6-1.3,2.8-2.8,2.8h-10.3
				c-1.6,0-2.8-1.3-2.8-2.8v-67c0-1.6,1.3-2.8,2.8-2.8h10.3C884.6,1250.7,885.9,1252,885.9,1253.6z"/>
		</g>
		<path id="rect1453_1_" inkscape:connector-curvature="0" class="st0" d="M1070,564.2v256.5c0,6.4-5.2,11.6-11.7,11.6H878.5
			c-6.5,0-11.7-5.2-11.7-11.6V564.2c0-6.4,5.2-11.6,11.7-11.6h179.8C1064.8,552.6,1070,557.7,1070,564.2z"/>
	</g>
	<path class="st0" d="M1132.1,1353.6"/>
	<path class="st0" d="M856.5,1342.7V294.1c0-5.5,4.5-10,10-10h265.5v1069.6H867.5C861.4,1353.6,856.5,1348.7,856.5,1342.7z"/>
</g>
<g>
	<g id="g1464_3_">
		<g id="g1451_3_">
			<path id="rect1440_3_" inkscape:connector-curvature="0" class="st0" d="M1172.8,1253.6v67c0,1.6-1.3,2.8-2.8,2.8h-10.3
				c-1.6,0-2.8-1.3-2.8-2.8v-67c0-1.6,1.3-2.8,2.8-2.8h10.3C1171.6,1250.7,1172.8,1252,1172.8,1253.6z"/>
		</g>
		<path id="rect1453_3_" inkscape:connector-curvature="0" class="st0" d="M1356.9,564.2v256.5c0,6.4-5.2,11.6-11.7,11.6h-179.8
			c-6.5,0-11.7-5.2-11.7-11.6V564.2c0-6.4,5.2-11.6,11.7-11.6h179.8C1351.7,552.6,1356.9,557.7,1356.9,564.2z"/>
	</g>
	<path class="st0" d="M1419,1353.6"/>
	<path class="st0" d="M1143.5,1342.7V294.1c0-5.5,4.5-10,10-10H1419v1069.6h-264.6C1148.4,1353.6,1143.5,1348.7,1143.5,1342.7z"/>
</g>
<g>
	<g id="g1464_2_">
		<g id="g1451_2_">
			<path id="rect1440_2_" inkscape:connector-curvature="0" class="st0" d="M1459.9,1253.6v67c0,1.6-1.3,2.8-2.8,2.8h-10.3
				c-1.6,0-2.8-1.3-2.8-2.8v-67c0-1.6,1.3-2.8,2.8-2.8h10.3C1458.6,1250.7,1459.9,1252,1459.9,1253.6z"/>
		</g>
		<path id="rect1453_2_" inkscape:connector-curvature="0" class="st0" d="M1644,564.2v256.5c0,6.4-5.2,11.6-11.7,11.6h-179.8
			c-6.5,0-11.7-5.2-11.7-11.6V564.2c0-6.4,5.2-11.6,11.7-11.6h179.8C1638.8,552.6,1644,557.7,1644,564.2z"/>
	</g>
	<path class="st0" d="M1706.1,1353.6"/>
	<path class="st0" d="M1430.6,1342.7V294.1c0-5.5,4.5-10,10-10h265.5v1069.6h-264.6C1435.5,1353.6,1430.6,1348.7,1430.6,1342.7z"/>
</g>
<g>
	<g id="g1464_7_">
		<g id="g1451_7_">
			<path id="rect1440_7_" inkscape:connector-curvature="0" class="st0" d="M1740.7,1253.6v67c0,1.6-1.3,2.8-2.8,2.8h-10.3
				c-1.6,0-2.8-1.3-2.8-2.8v-67c0-1.6,1.3-2.8,2.8-2.8h10.3C1739.5,1250.7,1740.7,1252,1740.7,1253.6z"/>
		</g>
		<path id="rect1453_7_" inkscape:connector-curvature="0" class="st0" d="M1924.8,564.2v256.5c0,6.4-5.2,11.6-11.7,11.6h-179.8
			c-6.5,0-11.7-5.2-11.7-11.6V564.2c0-6.4,5.2-11.6,11.7-11.6h179.8C1919.6,552.6,1924.8,557.7,1924.8,564.2z"/>
	</g>
	<path class="st0" d="M1986.9,1353.6"/>
	<path class="st0" d="M1711.4,1342.7V294.1c0-5.5,4.5-10,10-10h265.5v1069.6h-264.6C1716.3,1353.6,1711.4,1348.7,1711.4,1342.7z"/>
</g>
<g>
	<g id="g1464_6_">
		<g id="g1451_6_">
			<path id="rect1440_6_" inkscape:connector-curvature="0" class="st0" d="M2027.8,1253.6v67c0,1.6-1.3,2.8-2.8,2.8h-10.3
				c-1.6,0-2.8-1.3-2.8-2.8v-67c0-1.6,1.3-2.8,2.8-2.8h10.3C2026.5,1250.7,2027.8,1252,2027.8,1253.6z"/>
		</g>
		<path id="rect1453_6_" inkscape:connector-curvature="0" class="st0" d="M2211.9,564.2v256.5c0,6.4-5.2,11.6-11.7,11.6h-179.8
			c-6.5,0-11.7-5.2-11.7-11.6V564.2c0-6.4,5.2-11.6,11.7-11.6h179.8C2206.7,552.6,2211.9,557.7,2211.9,564.2z"/>
	</g>
	<path class="st0" d="M2274,1353.6"/>
	<path class="st0" d="M1998.4,1342.7V294.1c0-5.5,4.5-10,10-10H2274v1069.6h-264.6C2003.3,1353.6,1998.4,1348.7,1998.4,1342.7z"/>
</g>
<g>
	<g id="g1464_5_">
		<g id="g1451_5_">
			<path id="rect1440_5_" inkscape:connector-curvature="0" class="st0" d="M2314.7,1253.6v67c0,1.6-1.3,2.8-2.8,2.8h-10.3
				c-1.6,0-2.8-1.3-2.8-2.8v-67c0-1.6,1.3-2.8,2.8-2.8h10.3C2313.5,1250.7,2314.7,1252,2314.7,1253.6z"/>
		</g>
		<path id="rect1453_5_" inkscape:connector-curvature="0" class="st0" d="M2498.8,564.2v256.5c0,6.4-5.2,11.6-11.7,11.6h-179.8
			c-6.5,0-11.7-5.2-11.7-11.6V564.2c0-6.4,5.2-11.6,11.7-11.6h179.8C2493.6,552.6,2498.8,557.7,2498.8,564.2z"/>
	</g>
	<path class="st0" d="M2560.9,1353.6"/>
	<path class="st0" d="M2285.4,1342.7V294.1c0-5.5,4.5-10,10-10h265.5v1069.6h-264.6C2290.3,1353.6,2285.4,1348.7,2285.4,1342.7z"/>
</g>
<g>
	<g id="g1464_4_">
		<g id="g1451_4_">
			<path id="rect1440_4_" inkscape:connector-curvature="0" class="st0" d="M2601.8,1253.6v67c0,1.6-1.3,2.8-2.8,2.8h-10.3
				c-1.6,0-2.8-1.3-2.8-2.8v-67c0-1.6,1.3-2.8,2.8-2.8h10.3C2600.6,1250.7,2601.8,1252,2601.8,1253.6z"/>
		</g>
		<path id="rect1453_4_" inkscape:connector-curvature="0" class="st0" d="M2785.9,564.2v256.5c0,6.4-5.2,11.6-11.7,11.6h-179.8
			c-6.5,0-11.7-5.2-11.7-11.6V564.2c0-6.4,5.2-11.6,11.7-11.6h179.8C2780.7,552.6,2785.9,557.7,2785.9,564.2z"/>
	</g>
	<path class="st0" d="M2848,1353.6"/>
	<path class="st0" d="M2572.5,1342.7V294.1c0-5.5,4.5-10,10-10H2848v1069.6h-264.6C2577.4,1353.6,2572.5,1348.7,2572.5,1342.7z"/>
</g>
<g>
	<g id="g1464_15_">
		<g id="g1451_15_">
			<path id="rect1440_15_" inkscape:connector-curvature="0" class="st0" d="M2894.1,1253.6v67c0,1.6-1.3,2.8-2.8,2.8H2881
				c-1.6,0-2.8-1.3-2.8-2.8v-67c0-1.6,1.3-2.8,2.8-2.8h10.3C2892.9,1250.7,2894.1,1252,2894.1,1253.6z"/>
		</g>
		<path id="rect1453_15_" inkscape:connector-curvature="0" class="st0" d="M3078.2,564.2v256.5c0,6.4-5.2,11.6-11.7,11.6h-179.8
			c-6.5,0-11.7-5.2-11.7-11.6V564.2c0-6.4,5.2-11.6,11.7-11.6h179.8C3073,552.6,3078.2,557.7,3078.2,564.2z"/>
	</g>
	<path class="st0" d="M3140.3,1353.6"/>
	<path class="st0" d="M2864.8,1342.7V294.1c0-5.5,4.5-10,10-10h265.5v1069.6h-264.6C2869.7,1353.6,2864.8,1348.7,2864.8,1342.7z"/>
</g>
<g>
	<g id="g1464_14_">
		<g id="g1451_14_">
			<path id="rect1440_14_" inkscape:connector-curvature="0" class="st0" d="M3181.2,1253.6v67c0,1.6-1.3,2.8-2.8,2.8h-10.3
				c-1.6,0-2.8-1.3-2.8-2.8v-67c0-1.6,1.3-2.8,2.8-2.8h10.3C3180,1250.7,3181.2,1252,3181.2,1253.6z"/>
		</g>
		<path id="rect1453_14_" inkscape:connector-curvature="0" class="st0" d="M3365.3,564.2v256.5c0,6.4-5.2,11.6-11.7,11.6h-179.8
			c-6.5,0-11.7-5.2-11.7-11.6V564.2c0-6.4,5.2-11.6,11.7-11.6h179.8C3360.1,552.6,3365.3,557.7,3365.3,564.2z"/>
	</g>
	<path class="st0" d="M3427.4,1353.6"/>
	<path class="st0" d="M3151.9,1342.7V294.1c0-5.5,4.5-10,10-10h265.5v1069.6h-264.6C3156.8,1353.6,3151.9,1348.7,3151.9,1342.7z"/>
</g>
<g>
	<g id="g1464_13_">
		<g id="g1451_13_">
			<path id="rect1440_13_" inkscape:connector-curvature="0" class="st0" d="M3468.2,1253.6v67c0,1.6-1.3,2.8-2.8,2.8H3455
				c-1.6,0-2.8-1.3-2.8-2.8v-67c0-1.6,1.3-2.8,2.8-2.8h10.3C3466.9,1250.7,3468.2,1252,3468.2,1253.6z"/>
		</g>
		<path id="rect1453_13_" inkscape:connector-curvature="0" class="st0" d="M3652.2,564.2v256.5c0,6.4-5.2,11.6-11.7,11.6h-179.8
			c-6.5,0-11.7-5.2-11.7-11.6V564.2c0-6.4,5.2-11.6,11.7-11.6h179.8C3647,552.6,3652.2,557.7,3652.2,564.2z"/>
	</g>
	<path class="st0" d="M3714.3,1353.6"/>
	<path class="st0" d="M3438.8,1342.7V294.1c0-5.5,4.5-10,10-10h265.5v1069.6h-264.6C3443.7,1353.6,3438.8,1348.7,3438.8,1342.7z"/>
</g>
<g>
	<g id="g1464_12_">
		<g id="g1451_12_">
			<path id="rect1440_12_" inkscape:connector-curvature="0" class="st0" d="M3755.3,1253.6v67c0,1.6-1.3,2.8-2.8,2.8h-10.3
				c-1.6,0-2.8-1.3-2.8-2.8v-67c0-1.6,1.3-2.8,2.8-2.8h10.3C3754,1250.7,3755.3,1252,3755.3,1253.6z"/>
		</g>
		<path id="rect1453_12_" inkscape:connector-curvature="0" class="st0" d="M3939.3,564.2v256.5c0,6.4-5.2,11.6-11.7,11.6h-179.8
			c-6.5,0-11.7-5.2-11.7-11.6V564.2c0-6.4,5.2-11.6,11.7-11.6h179.8C3934.1,552.6,3939.3,557.7,3939.3,564.2z"/>
	</g>
	<path class="st0" d="M4001.4,1353.6"/>
	<path class="st0" d="M3725.9,1342.7V294.1c0-5.5,4.5-10,10-10h265.5v1069.6h-264.6C3730.8,1353.6,3725.9,1348.7,3725.9,1342.7z"/>
</g>
<g>
	<g id="g1464_11_">
		<g id="g1451_11_">
			<path id="rect1440_11_" inkscape:connector-curvature="0" class="st0" d="M4036.1,1253.6v67c0,1.6-1.3,2.8-2.8,2.8h-10.3
				c-1.6,0-2.8-1.3-2.8-2.8v-67c0-1.6,1.3-2.8,2.8-2.8h10.3C4034.8,1250.7,4036.1,1252,4036.1,1253.6z"/>
		</g>
		<path id="rect1453_11_" inkscape:connector-curvature="0" class="st0" d="M4220.1,564.2v256.5c0,6.4-5.2,11.6-11.7,11.6h-179.8
			c-6.5,0-11.7-5.2-11.7-11.6V564.2c0-6.4,5.2-11.6,11.7-11.6h179.8C4214.9,552.6,4220.1,557.7,4220.1,564.2z"/>
	</g>
	<path class="st0" d="M4282.2,1353.6"/>
	<path class="st0" d="M4006.7,1342.7V294.1c0-5.5,4.5-10,10-10h265.5v1069.6h-264.6C4011.6,1353.6,4006.7,1348.7,4006.7,1342.7z"/>
</g>
<g>
	<g id="g1464_10_">
		<g id="g1451_10_">
			<path id="rect1440_10_" inkscape:connector-curvature="0" class="st0" d="M4323.1,1253.6v67c0,1.6-1.3,2.8-2.8,2.8H4310
				c-1.6,0-2.8-1.3-2.8-2.8v-67c0-1.6,1.3-2.8,2.8-2.8h10.3C4321.9,1250.7,4323.1,1252,4323.1,1253.6z"/>
		</g>
		<path id="rect1453_10_" inkscape:connector-curvature="0" class="st0" d="M4507.2,564.2v256.5c0,6.4-5.2,11.6-11.7,11.6h-179.8
			c-6.5,0-11.7-5.2-11.7-11.6V564.2c0-6.4,5.2-11.6,11.7-11.6h179.8C4502,552.6,4507.2,557.7,4507.2,564.2z"/>
	</g>
	<path class="st0" d="M4569.3,1353.6"/>
	<path class="st0" d="M4293.8,1342.7V294.1c0-5.5,4.5-10,10-10h265.5v1069.6h-264.6C4298.7,1353.6,4293.8,1348.7,4293.8,1342.7z"/>
</g>
<g>
	<g id="g1464_9_">
		<g id="g1451_9_">
			<path id="rect1440_9_" inkscape:connector-curvature="0" class="st0" d="M4610.1,1253.6v67c0,1.6-1.3,2.8-2.8,2.8h-10.3
				c-1.6,0-2.8-1.3-2.8-2.8v-67c0-1.6,1.3-2.8,2.8-2.8h10.3C4608.8,1250.7,4610.1,1252,4610.1,1253.6z"/>
		</g>
		<path id="rect1453_9_" inkscape:connector-curvature="0" class="st0" d="M4794.2,564.2v256.5c0,6.4-5.2,11.6-11.7,11.6h-179.8
			c-6.5,0-11.7-5.2-11.7-11.6V564.2c0-6.4,5.2-11.6,11.7-11.6h179.8C4789,552.6,4794.2,557.7,4794.2,564.2z"/>
	</g>
	<path class="st0" d="M4856.3,1353.6"/>
	<path class="st0" d="M4580.7,1342.7V294.1c0-5.5,4.5-10,10-10h265.5v1069.6h-264.6C4585.6,1353.6,4580.7,1348.7,4580.7,1342.7z"/>
</g>
<g>
	<g id="g1464_8_">
		<g id="g1451_8_">
			<path id="rect1440_8_" inkscape:connector-curvature="0" class="st0" d="M4897.2,1253.6v67c0,1.6-1.3,2.8-2.8,2.8H4884
				c-1.6,0-2.8-1.3-2.8-2.8v-67c0-1.6,1.3-2.8,2.8-2.8h10.3C4895.9,1250.7,4897.2,1252,4897.2,1253.6z"/>
		</g>
		<path id="rect1453_8_" inkscape:connector-curvature="0" class="st0" d="M5081.2,564.2v256.5c0,6.4-5.2,11.6-11.7,11.6h-179.8
			c-6.5,0-11.7-5.2-11.7-11.6V564.2c0-6.4,5.2-11.6,11.7-11.6h179.8C5076,552.6,5081.2,557.7,5081.2,564.2z"/>
	</g>
	<path class="st0" d="M5143.4,1353.6"/>
	<path class="st0" d="M4867.8,1342.7V294.1c0-5.5,4.5-10,10-10h265.5v1069.6h-264.6C4872.7,1353.6,4867.8,1348.7,4867.8,1342.7z"/>
</g>
</svg>
