<?xml version="1.0" encoding="UTF-8" standalone="no"?>
<!-- Created with Inkscape (http://www.inkscape.org/) -->

<svg
   xmlns:dc="http://purl.org/dc/elements/1.1/"
   xmlns:cc="http://creativecommons.org/ns#"
   xmlns:rdf="http://www.w3.org/1999/02/22-rdf-syntax-ns#"
   xmlns:svg="http://www.w3.org/2000/svg"
   xmlns="http://www.w3.org/2000/svg"
   xmlns:sodipodi="http://sodipodi.sourceforge.net/DTD/sodipodi-0.dtd"
   xmlns:inkscape="http://www.inkscape.org/namespaces/inkscape"
   width="210mm"
   height="297mm"
   viewBox="0 0 210 297"
   version="1.1"
   id="svg985"
   inkscape:version="0.92.3 (2405546, 2018-03-11)"
   sodipodi:docname="9470m_Feet.svg">
  <defs
     id="defs979" />
  <sodipodi:namedview
     id="base"
     pagecolor="#ffffff"
     bordercolor="#666666"
     borderopacity="1.0"
     inkscape:pageopacity="0.0"
     inkscape:pageshadow="2"
     inkscape:zoom="0.7"
     inkscape:cx="634.37982"
     inkscape:cy="852.38768"
     inkscape:document-units="mm"
     inkscape:current-layer="layer1"
     showgrid="false"
     inkscape:window-width="1440"
     inkscape:window-height="816"
     inkscape:window-x="0"
     inkscape:window-y="28"
     inkscape:window-maximized="1" />
  <metadata
     id="metadata982">
    <rdf:RDF>
      <cc:Work
         rdf:about="">
        <dc:format>image/svg+xml</dc:format>
        <dc:type
           rdf:resource="http://purl.org/dc/dcmitype/StillImage" />
        <dc:title />
      </cc:Work>
    </rdf:RDF>
  </metadata>
  <g
     inkscape:label="Layer 1"
     inkscape:groupmode="layer"
     id="layer1">
    <path
       style="opacity:1;vector-effect:none;fill:none;fill-opacity:1;fill-rule:evenodd;stroke:#000000;stroke-width:0.2246131;stroke-linecap:butt;stroke-linejoin:miter;stroke-miterlimit:4;stroke-dasharray:none;stroke-dashoffset:0;stroke-opacity:1"
       d="m 170.98306,11.456925 h -14.2672 c -0.75733,0 -1.36701,-0.6026 -1.36701,-1.35114 V 7.6802454 c 0,-0.74854 0.60968,-1.35114 1.36701,-1.35114 h 14.2672 c 0.75733,0 1.36701,0.6026 1.36701,1.35114 v 2.4255396 c 0,0.74854 -0.60968,1.35114 -1.36701,1.35114 z"
       id="rect1530-06-9-6"
       inkscape:connector-curvature="0" />
    <path
       style="opacity:1;vector-effect:none;fill:none;fill-opacity:1;fill-rule:evenodd;stroke:#000000;stroke-width:0.2246131;stroke-linecap:butt;stroke-linejoin:miter;stroke-miterlimit:4;stroke-dasharray:none;stroke-dashoffset:0;stroke-opacity:1"
       d="m 171.11256,21.615119 h -14.2672 c -0.75732,0 -1.36701,-0.60261 -1.36701,-1.35114 v -2.42555 c 0,-0.74853 0.60969,-1.35114 1.36701,-1.35114 h 14.2672 c 0.75733,0 1.36702,0.60261 1.36702,1.35114 v 2.42555 c 0,0.74853 -0.60969,1.35114 -1.36702,1.35114 z"
       id="rect1530-3-26-3-4"
       inkscape:connector-curvature="0" />
    <path
       style="opacity:1;vector-effect:none;fill:none;fill-opacity:1;fill-rule:evenodd;stroke:#000000;stroke-width:0.2246131;stroke-linecap:butt;stroke-linejoin:miter;stroke-miterlimit:4;stroke-dasharray:none;stroke-dashoffset:0;stroke-opacity:1"
       d="m 171.11257,32.379339 h -14.2672 c -0.75733,0 -1.36702,-0.60261 -1.36702,-1.35114 V 28.60265 c 0,-0.74853 0.60969,-1.35114 1.36702,-1.35114 h 14.2672 c 0.75732,0 1.36701,0.60261 1.36701,1.35114 v 2.425549 c 0,0.74853 -0.60969,1.35114 -1.36701,1.35114 z"
       id="rect1530-3-6-1-7-9"
       inkscape:connector-curvature="0" />
    <path
       style="opacity:1;vector-effect:none;fill:none;fill-opacity:1;fill-rule:evenodd;stroke:#000000;stroke-width:0.2246131;stroke-linecap:butt;stroke-linejoin:miter;stroke-miterlimit:4;stroke-dasharray:none;stroke-dashoffset:0;stroke-opacity:1"
       d="m 171.11257,41.555807 h -14.2672 c -0.75733,0 -1.36702,-0.60261 -1.36702,-1.35114 v -2.42555 c 0,-0.74853 0.60969,-1.35114 1.36702,-1.35114 h 14.2672 c 0.75732,0 1.36701,0.60261 1.36701,1.35114 v 2.42555 c 0,0.74853 -0.60969,1.35114 -1.36701,1.35114 z"
       id="rect1530-7-8-4-5"
       inkscape:connector-curvature="0" />
    <path
       style="opacity:1;vector-effect:none;fill:none;fill-opacity:1;fill-rule:evenodd;stroke:#000000;stroke-width:0.2246131;stroke-linecap:butt;stroke-linejoin:miter;stroke-miterlimit:4;stroke-dasharray:none;stroke-dashoffset:0;stroke-opacity:1"
       d="m 171.24206,51.713992 h -14.2672 c -0.75732,0 -1.36701,-0.6026 -1.36701,-1.35113 v -2.42555 c 0,-0.74854 0.60969,-1.35114 1.36701,-1.35114 h 14.2672 c 0.75734,0 1.36701,0.6026 1.36701,1.35114 v 2.42555 c 0,0.748529 -0.60967,1.35113 -1.36701,1.35113 z"
       id="rect1530-3-5-7-5-0"
       inkscape:connector-curvature="0" />
    <path
       style="opacity:1;vector-effect:none;fill:none;fill-opacity:1;fill-rule:evenodd;stroke:#000000;stroke-width:0.2246131;stroke-linecap:butt;stroke-linejoin:miter;stroke-miterlimit:4;stroke-dasharray:none;stroke-dashoffset:0;stroke-opacity:1"
       d="m 171.24206,62.478211 h -14.2672 c -0.75732,0 -1.36701,-0.6026 -1.36701,-1.35113 v -2.42555 c 0,-0.74854 0.60969,-1.35114 1.36701,-1.35114 h 14.2672 c 0.75733,0 1.36701,0.6026 1.36701,1.35114 v 2.42555 c 0,0.74853 -0.60968,1.35113 -1.36701,1.35113 z"
       id="rect1530-3-6-3-9-2-4"
       inkscape:connector-curvature="0" />
    <path
       style="opacity:1;vector-effect:none;fill:none;fill-opacity:1;fill-rule:evenodd;stroke:#000000;stroke-width:0.2246131;stroke-linecap:butt;stroke-linejoin:miter;stroke-miterlimit:4;stroke-dasharray:none;stroke-dashoffset:0;stroke-opacity:1"
       d="m 171.24206,71.654672 h -14.2672 c -0.75732,0 -1.36701,-0.6026 -1.36701,-1.351131 v -2.425549 c 0,-0.74854 0.60969,-1.35114 1.36701,-1.35114 h 14.2672 c 0.75734,0 1.36701,0.6026 1.36701,1.35114 v 2.425549 c 0,0.74853 -0.60967,1.351131 -1.36701,1.351131 z"
       id="rect1530-5-2-5-8"
       inkscape:connector-curvature="0" />
    <path
       style="opacity:1;vector-effect:none;fill:none;fill-opacity:1;fill-rule:evenodd;stroke:#000000;stroke-width:0.2246131;stroke-linecap:butt;stroke-linejoin:miter;stroke-miterlimit:4;stroke-dasharray:none;stroke-dashoffset:0;stroke-opacity:1"
       d="m 171.3716,81.812865 h -14.26722 c -0.75732,0 -1.367,-0.60261 -1.367,-1.35114 v -2.42556 c 0,-0.74853 0.60968,-1.35113 1.367,-1.35113 h 14.26722 c 0.75732,0 1.36699,0.6026 1.36699,1.35113 v 2.42556 c 0,0.74853 -0.60967,1.35114 -1.36699,1.35114 z"
       id="rect1530-3-62-0-4-7"
       inkscape:connector-curvature="0" />
    <path
       style="opacity:1;vector-effect:none;fill:none;fill-opacity:1;fill-rule:evenodd;stroke:#000000;stroke-width:0.2246131;stroke-linecap:butt;stroke-linejoin:miter;stroke-miterlimit:4;stroke-dasharray:none;stroke-dashoffset:0;stroke-opacity:1"
       d="m 171.3716,92.577086 h -14.26722 c -0.75732,0 -1.367,-0.60261 -1.367,-1.35114 v -2.42556 c 0,-0.74853 0.60968,-1.35113 1.367,-1.35113 h 14.26722 c 0.75732,0 1.36699,0.6026 1.36699,1.35113 v 2.42556 c 0,0.74853 -0.60967,1.35114 -1.36699,1.35114 z"
       id="rect1530-3-6-9-2-7-1"
       inkscape:connector-curvature="0" />
    <path
       style="opacity:1;vector-effect:none;fill:none;fill-opacity:1;fill-rule:evenodd;stroke:#000000;stroke-width:0.2246131;stroke-linecap:butt;stroke-linejoin:miter;stroke-miterlimit:4;stroke-dasharray:none;stroke-dashoffset:0;stroke-opacity:1"
       d="m 171.3716,103.34132 h -14.26722 c -0.75732,0 -1.36701,-0.60261 -1.36701,-1.35114 v -2.425546 c 0,-0.74853 0.60969,-1.35114 1.36701,-1.35114 h 14.26722 c 0.75732,0 1.367,0.60261 1.367,1.35114 v 2.425546 c 0,0.74853 -0.60968,1.35114 -1.367,1.35114 z"
       id="rect1530-1-3-4-7"
       inkscape:connector-curvature="0" />
    <path
       style="opacity:1;vector-effect:none;fill:none;fill-opacity:1;fill-rule:evenodd;stroke:#000000;stroke-width:0.2246131;stroke-linecap:butt;stroke-linejoin:miter;stroke-miterlimit:4;stroke-dasharray:none;stroke-dashoffset:0;stroke-opacity:1"
       d="m 171.50109,113.49948 h -14.26721 c -0.75731,0 -1.367,-0.6026 -1.367,-1.35113 v -2.42556 c 0,-0.74854 0.60969,-1.35114 1.367,-1.35114 h 14.26721 c 0.75733,0 1.36701,0.6026 1.36701,1.35114 v 2.42556 c 0,0.74852 -0.60968,1.35113 -1.36701,1.35113 z"
       id="rect1530-3-2-7-4-2"
       inkscape:connector-curvature="0" />
    <path
       style="opacity:1;vector-effect:none;fill:none;fill-opacity:1;fill-rule:evenodd;stroke:#000000;stroke-width:0.2246131;stroke-linecap:butt;stroke-linejoin:miter;stroke-miterlimit:4;stroke-dasharray:none;stroke-dashoffset:0;stroke-opacity:1"
       d="m 171.50109,124.26371 h -14.26721 c -0.75732,0 -1.36701,-0.60261 -1.36701,-1.35113 v -2.42556 c 0,-0.74854 0.60969,-1.35114 1.36701,-1.35114 h 14.26721 c 0.75732,0 1.367,0.6026 1.367,1.35114 v 2.42556 c 0,0.74852 -0.60967,1.35113 -1.367,1.35113 z"
       id="rect1530-3-6-7-5-3-7"
       inkscape:connector-curvature="0" />
    <path
       style="opacity:1;vector-effect:none;fill:none;fill-opacity:1;fill-rule:evenodd;stroke:#000000;stroke-width:0.2246131;stroke-linecap:butt;stroke-linejoin:miter;stroke-miterlimit:4;stroke-dasharray:none;stroke-dashoffset:0;stroke-opacity:1"
       d="m 171.50108,136.08638 h -14.26721 c -0.75731,0 -1.367,-0.6026 -1.367,-1.35113 v -2.42556 c 0,-0.74852 0.60969,-1.35113 1.367,-1.35113 h 14.26721 c 0.75733,0 1.36701,0.60261 1.36701,1.35113 v 2.42556 c 0,0.74853 -0.60968,1.35113 -1.36701,1.35113 z"
       id="rect1530-0-9-0-2"
       inkscape:connector-curvature="0" />
    <path
       style="opacity:1;vector-effect:none;fill:none;fill-opacity:1;fill-rule:evenodd;stroke:#000000;stroke-width:0.2246131;stroke-linecap:butt;stroke-linejoin:miter;stroke-miterlimit:4;stroke-dasharray:none;stroke-dashoffset:0;stroke-opacity:1"
       d="m 171.63062,146.24458 h -14.2672 c -0.75733,0 -1.36702,-0.60261 -1.36702,-1.35114 v -2.42555 c 0,-0.74853 0.60969,-1.35114 1.36702,-1.35114 h 14.2672 c 0.75732,0 1.36701,0.60261 1.36701,1.35114 v 2.42555 c 0,0.74853 -0.60969,1.35114 -1.36701,1.35114 z"
       id="rect1530-3-9-2-7-2"
       inkscape:connector-curvature="0" />
    <path
       style="opacity:1;vector-effect:none;fill:none;fill-opacity:1;fill-rule:evenodd;stroke:#000000;stroke-width:0.2246131;stroke-linecap:butt;stroke-linejoin:miter;stroke-miterlimit:4;stroke-dasharray:none;stroke-dashoffset:0;stroke-opacity:1"
       d="m 171.63061,157.00877 h -14.2672 c -0.75732,0 -1.36701,-0.60261 -1.36701,-1.35114 v -2.42555 c 0,-0.74853 0.60969,-1.35114 1.36701,-1.35114 h 14.2672 c 0.75733,0 1.36702,0.60261 1.36702,1.35114 v 2.42555 c 0,0.74853 -0.60969,1.35114 -1.36702,1.35114 z"
       id="rect1530-3-6-36-2-8-6"
       inkscape:connector-curvature="0" />
  </g>
</svg>
